<svg height="960" style="" width="1250" xmlns="http://www.w3.org/2000/svg"><path d="m738.53488 479.17959a112.66949 112.66949 0 11-112.94296-112.66949 112.66949 112.66949 0 01112.94296 112.66949zm382.85742-373.83301a263.0778 263.0778 0 017.3837 62.35108 269.64107 269.64107 0 01-11.7591 78.75926l.5469-1.91428a129.07767 129.07767 0 01-51.9592 73.28986l-.2735.27347q-115.67765 76.29803-231.35531 151.77565a102.82459 102.82459 0 01-11.21226 5.4694h-.82041c0-46.48984-1.36734-90.79193.54694-135.09401 1.09388-24.06533 13.94695-44.30208 32.26942-60.16332a446.30246 446.30246 0 0145.12249-34.45718l1.36735-1.09387c68.91435-44.57556 138.10218-88.3307 207.01648-132.35931l13.1265-6.56328zm-299.44918 374.65342c10.93879 6.83674 18.049 10.93879 24.61227 15.58777 69.73476 44.57555 138.92258 90.24498 209.20431 133.72666 50.3184 30.90207 71.102 76.5715 73.8367 132.63278 1.3674 28.44084 0 57.15515 0 89.42457-9.2979-4.64898-14.2204-6.83674-18.8693-9.57144l-203.18798-127.16338c-8.75103-5.4694-16.68165-11.7592-25.43267-17.22859a123.06134 123.06134 0 01-60.4368-117.59195c1.64082-31.44901 0-62.89802 0-99.81642zm-570.18421-471.1882005a263.0778 263.0778 0 0162.07761-7.110209 269.64107 269.64107 0 0179.3062 11.4857185l-1.91429-.27347a129.07767 129.07767 0 0173.28986 51.95924v.27347q76.57151 115.404191 152.04913 231.355321a102.82459 102.82459 0 015.46939 10.93878v.82041c-46.48984 0-90.79192 1.36735-135.09401-.27347a84.228651 84.228651 0 01-60.16332-32.54288 446.02899 446.02899 0 01-34.45717-44.84903l-1.09388-1.64081c-44.84902-68.64089-88.87763-137.828711-132.90625-207.016531-2.46122-3.5551-4.10204-7.930619-6.56327-13.1265395zm373.83301 299.7227305c6.83674-10.93878 10.93878-18.04899 15.58777-24.88573 44.57555-69.73476 90.24498-138.64912 133.72665-209.20429 30.90207-49.77147 76.57151-70.8286295 132.35931-73.8367995 28.44085-1.36735 57.15516 0 89.42458 0-4.64899 9.29797-6.56327 14.4938895-9.57144 19.1428795l-127.16339 202.91447c-5.46939 8.75103-11.48572 16.95512-17.22858 25.43268a123.06134 123.06134 0 01-117.59195 60.71026c-31.17554-1.64082-62.89802-.27347-99.81642-.27347zm371.91872 642.3802a263.0778 263.0778 0 01-62.07761 7.38368 269.64107 269.64107 0 01-78.75926-11.75919l1.91429.54694a129.07767 129.07767 0 01-73.56334-51.95924v-.54694q-76.29803-115.40419-151.77565-231.08185a102.82459 102.82459 0 01-5.4694-11.21225l-.27346-.82041c46.48983 0 91.06539-1.36735 135.36747.54694 23.79186 1.09388 44.30208 13.94695 60.16332 32.26942a446.30246 446.30246 0 0134.45718 44.84902l.82041 1.64082c44.84902 68.91435 88.60416 138.10217 132.63277 207.01652 2.7347 3.82857 4.10205 8.20409 6.83675 13.12654zm-373.28607-299.17579-15.3143 24.61227c-44.84902 69.73476-90.24499 138.64911-134.00013 209.20428-30.90207 50.04494-76.5715 71.1021-132.63278 73.8368-28.44084 1.36735-56.88168 0-89.42457 0 4.64898-9.29797 6.83674-14.49389 9.57144-18.86941l127.16338-203.18794c5.46939-8.75103 11.7592-16.95512 17.22859-25.43268a123.06134 123.06134 0 01117.59195-60.71026c31.44901 1.64082 62.89802.54694 99.81642.54694zm-495.527 200.45325a263.0778 263.0778 0 01-7.38368-61.80414 269.64107 269.64107 0 0112.03266-79.3062l-.54693 1.91429a129.07767 129.07767 0 0151.95923-73.56334h.27347q115.67766-76.29803 231.35532-151.77565a102.82459 102.82459 0 0111.21225-5.46939l.82041-.27347c0 46.48984 1.36735 90.79192-.54694 135.36747a84.228651 84.228651 0 01-32.26942 60.16332 446.02899 446.02899 0 01-45.12249 34.45718l-1.36735.82041c-69.18782 44.84902-138.37564 88.87763-207.56346 132.90625-3.82857 2.73469-8.20409 4.10204-13.12654 6.56327zm299.44926-373.83301c-10.93879-6.83674-18.049-10.93878-24.88574-15.58777-69.73475-44.57555-138.64911-90.24498-209.20427-134.00012-49.77148-30.6286-70.82864-76.29803-73.83681-132.08584-1.09388-28.71432.27347-57.42863.27347-89.97152 9.29797 4.64899 14.49389 6.56327 19.14288 9.29797l202.36753 127.43686c8.75103 5.46939 16.95512 11.75919 25.43268 17.22859a123.06134 123.06134 0 0160.71026 117.59194c-1.64082 31.44901-.27347 62.89802-.27347 100.08989z" style="stroke-width:2.7347"/></svg>