<svg height="960" style="" width="1606" xmlns="http://www.w3.org/2000/svg"><path d="m229.63589-52.061122c0 4.704529 4.11645 9.409059 8.82098 11.761329 13.52551 4.70452 10.58519 14.70164-5.88066 18.81809l-15.28969 3.52839 15.28969 18.81811c8.23292 9.99712 17.64197 24.1107 20.5823 31.16748 2.94033 7.64486 10.58519 13.525523 17.05392 13.525523 18.81809 0 29.99134 6.46873 29.99134 17.64197 0 5.88066 4.11647 13.52551 8.82099 17.64197s8.82099 13.52552 8.82099 20.5823c0 7.64486 4.11645 14.70164 8.82098 17.05386 4.70457 1.76428 8.82101 8.23299 8.82101 14.11361 0 6.46869 4.11644 14.70169 8.82098 18.81819 5.29253 4.1164 7.64479 12.3493 5.88062 18.2299-2.35227 7.0568-.58809 12.3495 5.88072 14.7017 7.0567 2.9404 8.821 8.2329 5.8806 18.2301-2.3522 11.1732-.5881 15.2897 8.821 17.6419 12.9374 3.5284 15.2897 13.5256 5.2926 23.5226-4.7045 4.7046-1.7642 8.821 9.9971 14.1136 9.4091 4.7046 18.2301 14.7016 19.9942 22.9346 2.3523 11.1733 7.6449 15.2897 22.9346 16.4658 14.7016 1.7642 18.2301 4.1164 15.8778 11.1732-5.2926 12.3495 7.0568 25.2869 23.5226 25.2869 8.2329 0 17.642 5.8806 22.9346 14.1136 5.8806 9.409 12.9374 12.9375 20.5823 11.1733 7.0567-1.7643 12.9374 1.7642 17.642 9.997 5.2925 9.4091 11.1732 12.3495 26.4629 11.1733 12.3493-1.1761 24.1107 1.7642 31.1675 8.2329 12.3493 11.7613 25.2869 12.9375 34.6958 3.5284 9.4091-9.409 12.9376 0 14.1136 45.8691 1.1761 48.8095-1.7641 55.8663-22.9346 51.1617-32.9316-8.2329-125.258-55.8662-162.8942-84.6814-54.69-41.1646-167.59866-178.1839-167.59866-202.8827 0-12.3493-11.17325-17.0539-15.28971-5.8806-2.35226 5.2926.58807 19.4061 5.29259 31.1675 15.28971 34.1078 18.81811 65.8633 8.23292 65.8633-18.81809 0-115.84893-131.7268-122.31765-167.59868-1.17614-5.88073-5.88067-11.76137-9.99712-13.52556-16.46585-5.29259-3.5284 70.56794 19.40617 116.43694 4.11645 8.233 9.40904 25.875 11.76131 39.4005 4.70453 31.1675-4.11646 36.46-35.28394 21.7584-11.17325-5.2926-22.3465-8.2329-24.1107-6.4687-8.23292 8.2329 107.61602 101.1472 146.42835 117.025 14.11358 5.8808 12.34939 14.7017-2.94032 19.9943l-13.52552 4.1165 14.70165 5.2925c9.40905 3.5285 15.28971 2.9404 16.46583-.5881 1.17614-3.5283 6.46873-6.4687 11.76133-6.4687 8.82098.5881 8.82098 1.1762 0 6.4687-19.99424 11.1733-14.70165 15.2898 62.92307 48.8096 9.9971 4.1164 27.639 12.3493 39.9885 17.642 12.3493 5.2925 25.8748 9.4089 30.5794 9.4089 4.7045 0 17.0538 3.5285 27.6391 8.233 26.4629 10.5852 74.0962 24.1107 132.9028 36.46 26.4629 5.2926 48.2213 12.9375 48.2213 16.4659.5881 5.8806.5881 206.9991 0 215.8201 0 2.3523-6.4687 5.8807-14.7016 7.6449-8.2328 2.3523-14.7017 5.8806-14.7017 8.2329s8.821 19.9942 19.4063 39.4004c25.2867 45.8691 34.6958 45.8691 61.1588-2.3523 20.5823-37.6362 20.5823-44.693-1.1761-48.8095-11.1733-1.7641-11.7614-6.4687-11.7614-110.5563v-108.7921l28.8152-1.7642c24.6988-1.7643 28.2273-.5881 24.6988 8.2329-1.7642 5.2925-.5881 13.5255 3.5285 18.2301 5.8806 7.0567 4.7044 10.5851-6.4688 19.4061-9.409 6.4687-11.7613 11.7613-7.0567 14.1136 9.4089 5.8806 8.2328 24.6988-2.9404 35.2839-12.3494 12.9375-5.2926 21.1703 14.7016 17.642 44.105-8.821 59.3947 22.9346 59.3947 121.1416 0 69.9797 0 71.1559-14.7017 76.4484-15.2897 5.8808-19.9942 27.6392-8.821 38.8124 3.5285 3.5284 11.1733 15.2897 17.054 26.463 5.8806 11.1732 15.2897 19.9942 21.1703 19.9942s15.2897-8.821 21.1704-19.9942c5.8806-11.1733 13.5255-22.9346 17.0539-26.463 11.1732-11.1732 6.4687-32.9316-8.821-38.8124-14.7017-5.2925-14.7017-6.4687-14.7017-76.4484 0-98.207 15.2898-129.9626 59.3947-121.1416 19.9942 3.5283 27.051-4.7045 14.7016-17.642-11.1732-10.5851-12.3493-29.4033-2.9403-35.2839 4.7045-2.3523 2.3523-7.6449-7.0568-14.1136-11.1732-8.821-12.3494-12.3494-6.4687-19.4061 4.1165-4.7046 5.2926-12.9376 3.5284-18.2301-3.5284-8.821 0-9.9972 24.6987-8.2329l28.8153 1.7642v108.7921c0 104.0876-.5881 108.7922-11.7614 110.5563-21.7584 4.1165-21.7584 11.1733-1.1761 48.8095 26.463 48.2214 35.8721 48.2214 61.1588 2.3523 10.5853-19.4062 19.40634-37.0481 19.40634-39.4004s-6.46884-5.8806-14.70184-8.2329c-8.2328-1.7642-14.7016-5.2926-14.7016-7.6449-.588-8.821-.588-209.9395 0-215.8201 0-3.5284 21.7585-11.1733 48.80954-16.4659 58.2185-12.3493 105.8519-25.8748 132.3148-36.46 10.5852-4.7045 22.9345-8.233 27.639-8.233 4.7046 0 18.2301-4.1164 30.5795-9.4089 12.3494-5.2927 30.5794-13.5256 39.9885-17.642 77.6247-33.5198 82.9172-37.6363 63.511-48.8096-9.409-5.2925-9.409-5.8806-.5881-6.4687 5.2927 0 10.5853 2.9404 11.7614 6.4687 1.1762 3.5285 7.0568 4.1166 16.4659.5881l14.7016-5.2925-13.5255-4.1165c-15.2897-5.2926-17.0539-14.1135-2.3523-19.9943 38.2243-15.8778 154.0732-108.7921 145.8403-117.025-1.7641-1.7642-12.9374 1.1761-24.1106 6.4687-31.1675 14.7016-39.9885 9.4091-35.2841-21.7584 2.3523-13.5255 7.6449-31.1675 11.7614-39.4005 22.9346-45.869 35.872-121.72953 19.4062-116.43694-4.1165 1.76419-8.8211 7.64483-9.9972 13.52556-6.4687 35.87188-103.4996 167.59868-122.3176 167.59868-10.5852 0-7.0568-31.7555 8.2329-65.8633 4.7045-11.7614 7.6449-25.8749 5.2926-31.1675-4.1164-11.1733-15.2897-6.4687-15.2897 5.8806 0 24.6988-112.9087 161.7181-167.5987 202.8827-37.6362 28.8152-129.9626 76.4485-162.89434 84.6814-21.1704 4.7046-24.1106-2.3522-22.9345-51.7498 1.1761-40.5764 7.0568-58.2184 14.7017-45.281 5.8806 9.4091 21.75844 7.6448 34.10774-3.5284 7.0568-6.4687 18.8181-9.409 31.1675-8.2329 15.2897 1.1762 21.1704-1.7642 26.4629-11.1733 4.7046-8.2328 10.5853-11.7613 17.6421-9.997 7.6448 1.7642 14.7016-1.7643 20.5822-11.1733 5.2926-8.233 14.7017-14.1136 22.9346-14.1136 16.4659 0 28.8152-12.9374 23.5226-25.2869-2.3522-7.0568 1.1762-9.409 15.8778-11.1732 15.2897-1.1761 20.5823-5.2925 22.9346-16.4658 1.7641-8.233 10.5851-18.23 19.9942-22.9346 11.7613-5.2926 14.7016-9.409 9.9972-14.1136-9.9972-9.997-7.6449-19.9942 5.2925-23.5226 9.4091-2.3522 11.1732-6.4687 8.821-17.6419-2.9403-9.9972-1.1761-15.2897 5.8807-18.2301 6.4687-2.3522 8.2329-7.6449 5.8806-14.7017-1.7642-5.8806.5881-14.1135 5.8806-18.2299 4.7046-4.1165 8.821-12.3495 8.821-18.81819 0-5.88062 4.1166-12.34933 8.821-14.11361 4.7045-2.35222 8.821-9.99707 8.821-17.64192 0-8.23292 4.1165-15.87778 8.8211-17.64197 4.7044-2.35227 8.8209-9.40906 8.8209-17.05391 0-13.52551 9.9971-20.5823 29.9913-20.5823 6.4688 0 14.1137-5.880663 17.0539-13.525523 2.9404-7.05678 12.3494-21.170359 21.1704-31.75554l15.2897-18.81811-15.2897-4.11645c-17.0538-4.11647-19.9942-12.93745-6.4687-17.64197 4.7046-2.35227 8.821-7.64486 8.821-12.34939 0-9.40905-16.4659-8.82098-49.9856 2.94033-52.9259 18.23004-81.7411 24.1107-92.3263 18.23004-11.7613-6.46873-43.5169-1.17614-95.8547 15.289701-12.9374 4.11647-40.5766 12.34939-61.747 17.64197-67.0394 17.64198-96.44274 27.05103-117.61314 38.22428l-20.5823 10.585182-2.9403 54.69011c-2.9403 59.98277-11.7613 81.74117-32.9316 81.74117-6.4689 0-17.054-5.2926-22.9346-11.7614-9.4091-10.5851-9.9972-15.2897-2.9404-48.22131 3.5285-20.58232 12.9374-49.98561 19.4061-65.27532 11.1733-24.698762 15.2898-28.227153 34.696-31.755542 24.1107-3.5284 28.2271-10.58519 12.3493-22.93457-9.997-7.64485-9.409-8.23292 11.7614-10.58518 3.5283 0 7.6449-7.64486 8.8209-15.877781 2.3523-20.582289-11.1732-25.28682-38.2242-14.11357-11.1733 4.70453-27.6391 8.82098-35.8721 8.82098-18.23 0-51.1617 24.69876-62.9229 47.04526-4.7046 9.40905-8.8211 27.639093-8.8211 40.576533 0 12.93745-2.9403 30.57942-5.8806 39.4004-9.4091 23.52261-18.2301 9.99712-22.9346-34.10781-2.3523-20.58229-7.0567-42.928793-11.1733-49.985583-10.5851-19.406169-44.1049-42.9288-61.1587-42.9288-8.2329 0-24.6988-4.11645-35.8721-8.82098-27.051-11.17325-40.5765-6.468719-38.2242 14.11357 1.1761 8.232921 5.2926 15.877781 9.409 15.877781 20.5824 2.35226 21.1703 2.94033 11.7614 10.58518-16.4659 12.34938-12.3495 19.40617 11.7612 22.93457 19.4063 3.528389 23.5227 7.05678 34.6959 31.755542 6.4688 15.28971 15.8778 44.693 19.4062 65.27532 7.0568 32.93161 6.4687 37.63621-2.9404 48.22131-5.8806 6.4688-16.4658 11.7614-22.9345 11.7614-21.1704 0-29.9914-21.7584-32.9317-81.74117l-2.9403-54.69011-20.5823-10.585182c-21.1704-11.17325-39.4004-17.05391-176.4197-54.69011-74.6843-21.17037-86.4457-22.93457-98.207-16.46584-11.7614 5.88066-28.81523 2.35227-101.73537-20.582311-32.93168-10.58517-41.1646-10.58517-41.1646.000001zm477.50937 465.159922c3.5283 7.6449 11.1732 15.8778 17.0539 17.642 10.5852 3.5285 27.051 25.2869 38.8123 51.1617 6.4687 14.7017 5.8807 17.054-5.2926 22.9346-12.3493 6.4687-68.8037 4.1165-81.153-3.5283-2.9404-1.7642-5.8807-25.875-5.8807-53.514 0-48.8095 0-49.3976 14.7017-49.3976 9.997 0 17.0538 4.7046 21.7584 14.7016zm228.1695 34.696c0 27.639-2.9403 51.7498-5.8807 53.514-12.3493 7.6448-68.8037 9.997-81.153 3.5283-11.1733-5.8806-11.7614-8.2329-5.2926-22.9346 11.7613-25.8748 28.2271-47.6332 38.8123-51.1617 5.8807-1.7642 13.5256-9.9971 17.0539-17.642 4.7045-9.997 11.7614-14.7016 21.7584-14.7016 14.7017 0 14.7017.5881 14.7017 49.3976z" style="stroke-width:.588066"/></svg>