<svg height="960" style="" width="1548" xmlns="http://www.w3.org/2000/svg"><path d="m1343.5994 112.33385c3.1482-7.15502 9.8944-14.71891 9.0766-21.30153-2.7802-10.95741-4.3748-23.59114-4.3748-36.55196 0-8.17717.6542-16.23169 1.8399-24.12266l-.1226.8586 49.8807 54.01023-2.2078-1.63544c31.4821 54.9506 31.1959 115.29813 30.2146 176.13629-.6542 50.41226-20.8109 95.95911-53.2334 129.60817l.041-.0409c-21.5877 23.63204-45.4651 45.21977-67.1755 68.68825-49.1856 52.62011-42.4395 95.50937 20.3203 132.71551 11.6934 6.86882 24.3271 12.22487 40.109 20.07495 25.8399 92.32028 19.9115 186.19421 1.9217 278.22828-38.1874 35.44804-82.1806 29.8058-126.1329 31.19591-1.3492.20443-2.862.28621-4.4566.28621-17.6218 0-32.1771-13.36968-34.017-30.50086v-.16354c-3.5571-18.56218 10.5894-28.45656 26.5349-34.75298 11.7343-3.1891 22.0375-7.60477 31.4821-13.24702l-.5724.32709c23.9183-18.39864 45.2198-38.88246 41.213-73.92164s-30.2147-48.89949-54.9506-64.31346c-4.0477-1.7172-8.7496-2.78023-13.6559-3.02555h-.082c-58.7529-10.67121-110.6371-34.42589-154.4258-68.19761l.8177.61328c-20.075 18.27598-15.2504 35.32539-7.2777 51.92505 19.0937 39.70017 16.0681 74.90289-19.3799 104.29983-1.8807 1.30834-3.4344 3.02555-4.4974 4.98807l-.041.0818c-40.3953 93.30154-114.84841 66.93016-190.73257 56.62692 18.68484-24.8586 44.64736-43.3799 74.65758-52.49745l1.02215-.2862c12.22487-3.55707 22.69165-7.76831 32.62692-12.83816l-1.02215.49063c31.03237-17.17206 39.70017-41.21294 23.75469-73.51277-11.2845-22.11925-26.12607-42.31687-42.72573-68.68825-34.63032 6.05111-70.20102 10.4259-104.42248 19.78876-11.32539 6.50085-18.97104 18.31686-19.50256 31.93185v.0818c14.55537 78.3373-24.16354 135.74105-70.36456 191.14139-5.56048 6.6644-10.54855 14.14651-14.67803 22.11925l-.32708.69506c-25.26747 48.4906-54.9506 86.4327-118.97786 84.9199-22.81431 0-46.16014 16.76335-68.68825 25.43115l-73.63542-53.02915c5.76491-11.816 11.40715-26.126 19.21635-39.29128 15.37309-25.83987 37.24702-34.91653 68.68825-32.99489 71.59114 4.12947 113.21295-36.83816 118.8552-108.1431 3.02555-38.1874-21.17888-57.68995-48.08178-80.6678-17.98977 50.5758-65.82623 49.75809-104.54514 63.90459-10.05792 1.51278-21.83305 2.53493-33.81261 2.73936h-.24531c-31.60477 6.45996-39.29131 20.07495-39.57752 57.28109-2.04429 19.62521-5.56047 37.45145-10.54855 54.66439l.53152-2.16695c-45.46498-25.1448-47.38661-33.11754-35.73414-132.87904 34.05792-32.70869 87.94548-46.44634 108.96081-95.10051-13.73764-41.21295-45.87393-40.51789-73.92163-30.78706-44.93356 15.65929-87.53663 37.77854-130.79387 57.85349-24.16354 11.12096-47.83645 23.75469-71.18228 35.32539-34.05792-50.00341-34.05792-50.00341-1.92164-82.4259 27.63885-10.63032 48.20443-33.93526 54.82794-62.59625l.12266-.61329c-68.68825 16.35435-68.68825 17.58092-53.31516 64.84498h-48.89939l-25.96252 51.39352c-56.05452-53.02896-60.7155-68.68824-36.1431-132.06132 34.63032-88.76321 82.42589-167.75469 170.78024-213.38331 8.42248-5.88756 15.78194-12.38841 22.28279-19.6661l.12266-.12266c-.73595-5.35604-1.14481-11.52981-1.14481-17.82623 0-33.81261 11.93867-64.80409 31.85009-89.0494l-.20443.24531c9.32198-14.47359 15.6184-31.76831 17.54003-50.33049l.0409-.49063c11.69335-81.32197 57.28109-142.20102 115.54344-196.33389 11.40716-11.89779 25.10392-21.46508 40.43612-28.00682l.81771-.2862c-17.37649 28.17036-35.24361 61.86031-51.14821 96.65417l-2.45315 6.01023c-11.12095 31.44122-22.60988 72.12265-31.93186 113.6218l-1.47189 7.8092c43.42079 0 65.00852-21.01533 86.14651-44.5247 66.64395-73.79898 157.20614-109.90119 245.27428-152.0954l-123.67973 132.06133c80.0954 35.8569 96.16355 34.05792 152.6678-22.93697 41.13118-39.49574 92.03407-69.13799 148.66099-85.0017l2.49404-.57241c-39.86372 55.523-107.8569 85.04259-130.79387 157.32879l27.4753 29.96934c12.79727-7.11414 28.41567-14.51448 44.48381-20.93356l2.9029-1.02215c4.41567-1.51277 12.22487 7.40034 18.56218 11.40716l-14.43271 13.73765-10.99829 4.25213 6.17376 4.82453 3.02555-10.7121 13.73765-13.73765c39.45486-30.09199 79.40034-58.95741 141.38326-65.41737-41.2129 44.93356-91.78871 73.22657-113.62176 130.13969l28.70188 5.92845-1.51278-2.04429 16.88586 28.70187c33.9353-24.61329 56.0545-67.05281 108.1431-67.33901l-48.7768 60.06133 92.0749 34.05792c9.4446-5.80579 20.8109-11.8569 32.5043-17.25383l2.126-.85861c10.7939-3.7615 24.9404-7.76831 39.3322-10.99829l2.862-.53152-33.5264 46.73254c4.4157 4.25213 6.9915 8.79046 10.0171 9.07666 12.9199 1.51278 27.8841 2.37138 43.0528 2.37138 1.5945 0 3.1482 0 4.7427-.0409h-.2453c93.5878-3.02555 178.6303-99.18909 103.7274-206.92333z" style="stroke-width:40.8859"/></svg>