<svg height="960" style="" width="1260" xmlns="http://www.w3.org/2000/svg"><path d="m600.53596 359.05714c-48.08572 8.74286-81.6 55.37143-94.71429 132.6-8.74285 55.37143-5.82857 65.57143 33.51429 103.45715 55.37143 56.82857 107.82857 68.48571 167.57143 40.8 53.91428-26.22858 112.2-97.62858 112.2-139.88572 0-39.34286-56.82857-132.6-80.14286-132.6-10.2 0-36.42857-2.91428-59.74286-5.82857-23.31428-2.91429-58.28571-2.91429-78.68571 1.45714zm103.45714 62.65715c32.05714 17.48571 39.34286 113.65714 10.2 142.8-32.05714 32.05714-93.25714 20.4-120.94286-20.4-23.31428-36.42858-23.31428-42.25715-1.45714-87.42858 24.77143-52.45714 58.28572-62.65714 112.2-34.97142zm-103.45714-438.6c0 7.28571-14.57143 18.94285-32.05714 24.77142-17.48572 4.37143-42.25715 18.94286-55.37143 30.6-80.14286 71.4-131.14286 131.14286-131.14286 153 0 14.57143-8.74286 26.22858-20.4 26.22858-14.57143 0-23.31429-18.94286-26.22857-61.2-2.91429-33.51429-13.11429-62.65715-21.85714-67.02858-10.2-2.91428-18.94286 2.91429-18.94286 14.57143 0 10.2-10.2 37.88572-21.85714 61.2-20.4 39.34286-33.51429 224.4-20.4 292.88572 7.28571 36.42857-37.88572 46.62857-51 11.65714-17.48572-49.54286-53.91429-106.37143-68.48572-106.37143-20.4 0-14.57143 77.22857 8.74286 107.82857 11.65714 16.02857 21.85714 43.71429 21.85714 62.65715 0 18.94285 10.2 37.88571 21.85714 42.25714 11.65715 5.82857 21.85715 16.02857 21.85715 26.22857 0 24.77143 85.97143 110.74286 110.74285 110.74286 34.97143 0 14.57143 36.42857-23.31428 40.8-20.4 2.91428-39.34286-4.37143-46.62857-17.48572-14.57143-24.77143-62.65715-32.05714-75.77143-11.65714-7.28572 13.11429 53.91428 64.11429 97.62857 80.14286 13.11429 4.37143 24.77143 16.02857 24.77143 24.77143 0 7.28571 18.94286 14.57142 42.25714 14.57142 23.31429 0 49.54286 10.2 59.74286 21.85715 11.65714 14.57144 43.71428 21.85714 90.34286 21.85714 84.51428 0 91.8 32.0571 11.65714 43.7143-26.22857 4.3714-51 16.0286-55.37143 24.7714-8.74286 29.1429 163.2 24.7714 186.51429-2.9143 10.2-11.6571 32.05714-21.8571 49.54285-21.8571 17.48572 0 51-20.4 74.31429-43.7143 23.31428-24.77143 46.62857-43.71429 53.91428-43.71429 21.85715 0 11.65715 72.85719-10.2 81.59999-27.68571 11.6572-29.14285 64.1143 0 64.1143 11.65715 0 39.34286-23.3143 61.2-52.4571 21.85715-29.1429 52.45715-65.57147 67.02858-80.1429 13.11428-16.02857 24.77142-39.34286 24.77142-55.37143 0-14.57143 10.2-34.97143 21.85715-45.17143 13.11428-10.2 21.85714-42.25714 21.85714-75.77143 0-78.68571 33.51427-65.57142 43.71427 17.48572 7.2857 67.02857 42.2572 99.08571 45.1715 40.8 5.8285-119.48572-5.8286-238.97143-24.7715-249.17143-11.6571-5.82857-20.4-23.31429-20.4-37.88571 0-14.57143-10.2-34.97143-21.8571-45.17143-11.6572-10.2-21.85717-23.31429-21.85717-30.6 0-24.77143 53.91427-13.11429 80.14287 16.02857 30.6 33.51428 65.5714 37.88571 65.5714 10.2 0-51-193.79998-214.2-254.99998-214.2-58.28572 0-37.88572-34.97143 26.22857-45.17143 72.85714-11.65714 81.6-23.31429 30.6-42.25714-23.31429-7.28572-53.91429-21.85715-67.02857-29.14286-39.34286-21.85714-161.74286-17.48571-195.25715 7.28571-29.14285 21.85715-102 29.14286-113.65714 10.2-2.91429-5.82857 16.02857-29.14285 43.71429-51 56.82857-45.17142 62.65714-68.48571 20.4-68.48571-16.02858 0-29.14286 5.828571-29.14286 13.11429zm34.97143 257.91428c7.28571 17.48572 20.4 20.4 64.11428 13.11429 51-8.74286 59.74286-4.37143 91.8 36.42857 18.94286 24.77143 52.45715 55.37143 75.77143 67.02857 40.8 21.85714 55.37143 81.6 24.77143 100.54286-11.65714 7.28571-11.65714 16.02857 0 29.14285 8.74286 11.65715 14.57143 48.08572 11.65714 83.05715-2.91428 52.45714-10.2 64.11428-36.42857 67.02857-20.4 2.91428-36.42857 17.48571-42.25714 37.88571-10.2 39.34286-65.57143 69.94286-94.71429 52.45715-13.11428-8.74286-29.14285-2.91429-46.62857 16.02857-29.14286 30.6-71.4 26.22857-109.28571-10.2-10.2-11.65715-37.88572-20.4-58.28572-20.4-23.31428 0-46.62857-11.65715-58.28571-29.14286-10.2-16.02857-27.68572-29.14286-39.34286-29.14286-18.94286 0-18.94286-4.37143-4.37143-27.68571 14.57143-23.31429 13.11429-33.51429-4.37143-55.37143-40.8-46.62857-42.25714-58.28571-13.11428-91.8 21.85714-24.77143 29.14286-55.37143 29.14286-112.2 0-77.22857 8.74285-91.8 40.8-59.74286 13.11428 13.11429 29.14285 4.37143 68.48571-36.42857 56.82857-58.28571 85.97143-67.02857 100.54286-30.6z" style="stroke-width:1.45714"/></svg>