<svg height="960" name="daybreak" style="" width="950" xmlns="http://www.w3.org/2000/svg"><path d="m474.05884 989.9989c-7.59647.012-14.90052-.2575-21.80699-.8279-43.41213-3.4911-95.62843-13.9648-123.25432-24.4383-4.55388-1.8215-10.17-3.7949-12.59868-4.5537-6.37523-1.9734-30.8137-14.5721-38.40309-19.8849-3.79489-2.5803-9.5628-7.4376-12.90216-10.9289-6.22343-6.527-8.65211-11.3843-80.14555-156.64817-16.08996-32.63506-29.90291-60.41288-30.66191-61.93062-.91068-1.66979-1.3662-3.03565-1.06272-3.33924 1.3662-1.3662 8.04504 6.22319 21.09911 23.52741 36.27801 48.57309 75.28832 89.40486 107.01259 111.8699 13.05406 9.2592 21.55427 14.11656 24.89374 14.11656 1.21428 0 3.94655 1.3662 6.07163 3.03599 2.12509 1.66969 5.91985 3.03565 8.5002 3.03565 4.85735 0 14.11667-2.58049 16.24187-4.55377 3.33936-3.03576-15.93816-28.9921-39.76929-53.88571-29.59932-30.81356-42.95674-54.18929-51.76065-91.22633-3.94658-17.0005-4.40208-57.83237-.75925-74.37748 4.25028-18.82223 8.19696-32.93878 13.81319-48.42153 2.88396-8.34852 6.83052-19.58098 8.5002-25.04541 1.66968-5.46455 3.94656-12.29484 5.00903-15.17891 7.28605-19.58098 22.46531-78.77956 25.80467-100.63744 1.06249-6.67884 3.18755-7.13421 7.74133-1.51787l3.33921 4.25015 1.06262-4.55363c2.58047-11.68799 20.0365-63.60066 26.10815-77.26182 11.53606-26.5634 13.20575-25.50081 12.29506 7.89325-.45539 15.93789-1.3662 23.83102-3.03588 27.62576-3.64307 8.04492-6.52691 15.93816-11.99134 33.39419-5.16097 16.24149-7.28616 20.49176-8.50057 17.0005-1.36606-3.49105-4.70554-1.82148-6.37522 3.03588-.9107 2.73228-2.73216 10.16998-4.09836 16.3933-4.25005 19.88469-5.00892 23.37585-8.34827 34.15305-1.66982 5.76803-3.64321 13.05395-4.40209 15.93803-.6072 2.88396-1.97316 7.28591-2.88396 9.86628-3.79475 10.17009-23.37587 70.58296-26.25994 81.20822-2.73227 9.7146-3.18744 15.78636-3.33923 40.22471-.15181 30.05457-.30362 28.38477 7.74131 53.12672 3.94655 12.14325 13.35755 30.05456 18.5185 34.91179 2.73216 2.42868 6.52704 7.58965 8.80391 11.38439 2.12509 3.79477 6.67861 9.86639 10.16977 13.66116 3.49128 3.94655 10.01819 11.68799 14.57207 17.45603 15.3307 18.97389 16.08982 19.88458 18.67018 17.75961 3.03575-2.58048 6.22356-1.0626 11.0808 5.46444 9.71459 12.90215 25.19734 30.66179 26.71511 30.66179 1.06259 0 1.21439-3.1877.45538-9.86653-.75886-7.28602-.45538-9.86627.91081-9.86627.9108 0 7.58951 6.07165 14.57196 13.66103 7.1341 7.43783 14.26848 13.96475 15.78646 14.42015 1.66968.60707 5.76792.60707 8.95548 0 5.16095-.91069 6.07163-1.66955 6.07163-4.70543 0-4.70545 1.66969-4.55377 5.76816.15166 2.73215 3.03588 4.70543 3.79489 10.77708 3.79489 4.09823 0 8.04503-.91093 8.9557-1.97339 1.06262-1.3661 1.21428-8.50021.30348-23.07214-3.49114-52.51964-5.9197-137.21906-9.10739-315.72514-.91068-52.67144-2.1252-126.74534-2.88408-164.69301-.75899-37.94782-1.06247-69.52038-.60696-70.27927.30361-.60719 5.61624-1.06237 11.83955-1.06237 6.22357 0 11.5362.45518 11.83968 1.06237.45552.75889 1.0626 66.0291 1.66968 145.41577.4554 79.23483 1.36621 163.17525 1.82148 186.39919.9108 39.61748 2.4288 52.06424 4.25028 37.18869.45539-3.64284 1.36595-88.19045 1.97316-187.91698l1.21439-181.39026 11.23259-.4553c6.22333-.30359 11.83968.1517 12.44688.75889.75887.75889.60708 35.36722-.15192 77.10977-.75889 41.74244-2.27688 117.94153-3.18756 169.24689-2.88407 168.3361-5.46456 257.89287-8.80392 305.85875-.75911 10.6254-.75899 19.27739.15182 20.79526 1.82147 3.49116 17.60783 3.94667 18.8221.60732.45541-1.2144 2.42857-3.18779 4.25004-4.40209 3.18756-2.12517 3.33946-2.12507 2.73227 1.97329-.60718 4.09835-.30348 4.40195 6.22344 5.31264 3.79488.60707 8.04504.45539 9.56292-.4554 1.66968-.9108 8.5003-7.43772 15.48263-14.57182 6.98242-7.13424 13.35755-13.05396 14.26822-13.05396 1.06261 0 1.21428 3.18743.45541 9.86627-1.51787 14.87542-.75889 14.42015 20.49179-12.14315 12.29506-15.48274 14.26834-17.00075 17.7595-14.26847 2.58048 2.27689.60732 4.25016 24.43858-24.13486 14.26825-16.84871 21.55404-26.71497 21.55404-28.84006 0-.75886 2.4288-3.64308 5.46456-6.52702 5.76803-5.46456 9.25931-11.38427 16.24175-27.17051 10.32179-23.37585 13.81294-48.87678 10.77706-78.47597-2.12507-20.94717-4.09835-28.99196-15.48261-62.68951-14.87544-43.41235-30.66178-97.90513-30.66178-105.64646 0-3.64309-2.5805-12.75058-4.40196-15.63466-.91069-1.51788-1.9733-1.51788-4.25017-.30348-2.88407 1.36607-3.33948.75889-6.37524-7.89312-1.8216-5.16097-3.94655-11.53607-4.85735-13.96473-.91068-2.58049-2.12509-6.67885-2.88395-9.10741-.75913-2.58049-2.73228-8.34862-4.55377-12.90239-5.00916-12.75047-6.22343-20.79527-5.76804-41.28705.3036-14.11653.91081-18.67029 2.4288-18.67029 3.79464 0 23.83103 51.91242 34.45642 89.10123 1.36608 4.85738 3.03588 8.80392 3.79489 8.80392.60719 0 2.27686-1.6698 3.64296-3.79489 3.49115-5.31263 5.16071-4.70555 6.22344 1.82161 3.79474 25.65263 22.00966 94.56556 30.20638 115.05735 4.25015 10.62527 20.49165 63.14514 22.92022 74.07413 3.64308 16.3933 3.64308 58.28755 0 73.16311-9.41099 39.61746-22.00955 62.68974-51.30526 92.8961-24.59002 25.65263-44.32293 52.06423-40.98344 55.09999 2.27687 1.97328 11.38426 4.55377 16.39342 4.55377 2.73215 0 6.5268-1.21429 8.5002-2.73217 1.97327-1.66968 5.61623-3.33935 8.19671-3.94655 7.28592-1.82148 27.7777-16.08983 46.44801-32.33144 25.95623-22.76866 54.94845-54.94833 83.18156-92.59253 13.66127-18.21492 19.73267-25.34902 21.09874-24.13487.60721.75913-8.04478 18.36683-70.43085 144.50508-37.18881 75.4401-38.70668 77.8688-54.49292 88.6458-39.95781 27.5478-130.02796 49.4594-197.22732 49.5529zm1.22256-9.7732c19.28735.037 38.74462-1.2721 52.86586-4.1087 16.39341-3.3393 35.36733-17.3042 56.01092-41.1355 22.00954-25.5008 44.3228-56.76968 43.56392-61.01995-.30359-1.97315-4.40194-3.49105-15.33081-6.2232-8.19684-1.82159-16.24176-3.18792-18.21505-2.58071-1.82146.45551-6.98232 5.61634-11.38426 11.53631-4.40196 5.91972-8.95559 10.47357-9.86629 10.16999-1.06258-.45541-1.51798-1.66968-1.3662-2.73217 2.2769-8.65211 3.64286-19.58134 2.88398-21.7063-2.12521-5.46443-6.9822-2.42867-17.91119 11.38428-18.36684 23.22401-37.18894 45.23385-38.85862 45.38555-4.09836 0-1.66968-13.813 5.91984-35.21544 2.58047-7.28591 2.73215-9.25932 1.21427-11.08091-1.82148-2.12497-2.42868-1.97327-5.46456.9108-11.38427 10.62538-40.07265 63.14505-40.07265 73.31505-.15192 8.0451-6.67872 9.2591-8.3484 1.3661-3.03575-13.6612-18.51851-44.7782-31.42078-62.68958-9.411-13.20585-12.44688-15.93801-14.57183-13.20585-1.2144 1.51799-.30371 6.22343 3.49105 18.5185 5.46443 17.30403 6.83063 28.08133 3.49115 27.92963-1.8216 0-7.74132-6.9825-36.12611-42.04617-3.79487-4.70556-8.65211-10.4736-10.92898-12.75048-4.55365-4.85735-6.07177-5.16072-8.80392-1.97315-1.518 1.82147-1.518 4.09823 0 11.08067 2.42855 11.99134 2.58048 12.75058.45528 13.50947-.91068.30358-5.61612-4.55387-10.47348-10.77732-5.91995-8.04491-9.56278-11.53594-11.83968-11.53594-6.52715 0-31.57244 6.52691-32.33157 8.50031-.75889 2.12496 10.77718 20.49162 23.67945 37.79581 21.25068 28.385 45.99274 52.3679 63.44867 61.1718 10.27439 5.2273 38.10068 8.1537 66.28999 8.2071zm130.71748-21.3763c6.21745.077 19.54139-6.1272 35.68811-17.0371 16.69702-11.0809 23.52742-18.2151 27.1705-27.7779 2.27688-6.2234 3.49127-7.7414 6.07163-7.4378 3.79489.4554 3.94668-1.6697.9108-9.10737-2.88408-6.98246-9.71483-12.44677-22.61698-17.91121-5.61624-2.42868-12.14327-4.4022-14.42003-4.4022-4.55376 0-3.79475-1.51775-18.06312 33.39418-2.88395 7.1341-6.07175 14.8755-7.13435 17.4561-7.58951 17.6077-11.38427 27.3221-11.38427 29.7507 0 2.0492 1.34483 3.0419 3.77771 3.0726zm-260.97908-.264c1.90572-.013 2.19252-.7688 2.19252-2.9602 0-1.8215-1.06236-5.7681-2.42845-8.8039-1.21439-3.1877-3.18768-7.7415-4.25027-10.1701-3.18756-7.286-5.31263-12.295-13.96474-34.1528-4.55367-11.23262-9.1074-22.00971-10.01821-23.98298-2.27675-4.40196-7.13411-4.25026-18.67019.45529-12.44687 5.16094-20.79539 11.23269-23.83126 17.45599-3.64295 7.4379-3.49116 10.6253.60719 10.1699 2.73229-.3036 3.79476 1.0626 6.22344 7.286 3.49117 9.7146 10.77707 17.1525 26.8669 27.9297 15.93815 10.6252 25.65263 15.3307 33.54575 16.3933 1.66019.2373 2.86102.3853 3.72732.3798zm114.66964-81.89145c2.42868 0 1.51814-16.24176-1.06236-18.82223-3.03588-3.03588-9.5629-3.18756-10.7773 0-.9108 2.42867 9.41099 18.82223 11.83966 18.82223zm30.34212-.83017c2.66158.0251 12.57323-15.22643 11.55214-18.14362-1.06248-2.42868-6.67872-3.03588-10.01808-.91081-2.73239 1.66968-4.25014 17.60771-1.82158 18.97379.0829.0527.17927.0804.28752.0816zm23.47617-4.31795c1.88688.0887 11.30004-10.97735 11.30004-13.21871 0-.75888-1.97328-1.36608-4.55375-1.36608-3.03577 0-5.31251 1.21429-6.9822 3.64295-2.42868 3.94644-2.4288 10.32169.15167 10.92888.0265.012.054.012.0841.0131zm-76.90002-.23135c.12263 0 .22775-.0276.3132-.0852 1.82135-1.06249 1.66967-7.74132-.15169-11.38428-1.66979-3.03587-9.71472-4.09836-11.38439-1.36619-1.01268 1.73615 8.73024 12.8491 11.22288 12.83565zm-213.40836-137.30413c-3.03588-.30361-30.96552-23.07227-44.93039-36.88521-19.73278-19.4292-39.31365-46.90341-47.05497-66.02898-10.16999-25.04555-10.92899-29.29558-10.92899-59.50195 0-27.9296 1.21428-35.97441 7.893-55.40371 2.12507-5.91973 4.25027-12.75047 4.85747-15.17916 1.66968-6.98242 3.79464-4.85736 4.85724 4.85736 1.0626 10.16988 5.61611 20.94706 8.95547 20.94706 1.8216 0 2.5806-3.03576 3.3396-13.96475 1.21428-14.72362 4.40184-28.99185 11.68776-51.30522 5.16096-16.08983 8.34864-17.91144 8.80391-5.31276.3036 8.3485 2.88408 34.45664 4.40197 43.56404.60706 4.55375 3.94654 6.67871 5.61634 3.79476.45541-.60721 2.27687-13.66128 4.09836-29.14391 4.09836-35.82273 8.50043-53.7339 16.08982-66.33258 2.4288-4.09834 3.03588-4.40195 3.94657-2.27688.60721 1.36608 1.06262 4.25016 1.06262 6.37524.15178 6.22344 4.70541 17.60771 16.5451 41.74244 6.07164 12.44687 11.83979 23.98295 12.59868 25.50083.91079 1.51787 3.03574 7.43782 4.70543 12.90228 5.76816 18.06321 4.40195 48.57318-3.64296 78.47596-.91068 3.33948-2.27664 8.8039-2.88383 12.14326-.60722 3.33936-3.49129 15.48275-6.52718 27.01883-10.01806 39.01028-12.75047 62.23422-10.01806 85.30635.91056 8.34852 3.03587 19.12584 4.70555 23.83126 3.03577 9.10752 3.64284 14.87544 1.82149 14.87544zm502.73154-3.03577c-1.36607 0-.15192-7.13398 3.79464-21.25065 7.13425-25.95622 5.31277-56.3144-6.37511-101.70004-3.33949-12.90214-6.52703-26.2597-7.13424-29.59917-.75889-3.33936-1.97329-8.80367-2.88408-12.14315-5.00903-18.6703-6.67871-31.26909-6.67871-48.5732-.15181-22.46507.759-25.50082 17.45602-59.95735 13.05407-27.01882 19.27739-42.50157 19.27739-47.96613 0-1.82133.45529-4.55362.9107-5.76789 1.36605-3.64296 4.85745-.30361 8.50042 8.1967 5.91983 13.50946 8.65199 27.01895 12.59855 62.99335 1.21441 11.68786 2.73228 22.46483 3.18768 23.83091 1.21428 3.79486 5.00904 3.33947 5.76792-.75878 1.66978-8.65211 3.9468-32.02797 3.9468-40.68009 0-10.01818 1.82124-15.48261 4.24991-12.75032 1.518 1.82133 8.50056 22.61684 12.59891 37.64419 1.51776 6.07163 3.33924 17.00063 3.79452 24.59014 1.36608 18.67031 4.25041 21.85787 9.41123 10.0182 1.21428-3.03576 2.73216-9.41112 3.18769-14.26835.45528-4.85736 1.51776-8.95572 2.12496-9.10751 1.21427-.3036 4.25003 6.37511 7.13398 16.39342 7.58965 25.04553 8.04493 27.62588 8.65213 53.12672.6072 22.61686.30372 27.47433-2.42845 39.0104-7.43772 30.35817-26.25994 61.93074-52.67168 88.34224-17.00063 17.00062-45.08181 40.37636-48.42118 40.37636zm-138.73697-279.29532c-2.27687 0-6.98231-7.74119-18.36656-30.35816-10.3218-20.4918-17.15246-42.19772-23.37599-73.61839-3.18757-16.08981-3.33924-61.77894-.30348-70.12746 1.21438-3.18766 2.58046-7.13435 3.18766-8.80402 2.12508-6.67872 3.79453 2.12507 3.79453 21.25078 0 26.86691 4.55399 53.27863 14.42039 83.48502 4.40183 13.35765 5.76791 16.54521 15.33082 36.58172 6.37524 13.20574 6.67872 14.42001 6.67872 27.62578 0 7.7413-.6072 13.96473-1.36609 13.96473zm-224.58358-.80687c-.13763 0-.2616-.0324-.37068-.10313-.75887-.45529-1.36608-6.375-1.36608-13.35744 0-10.7772.60721-13.81308 4.40207-21.55438 8.95561-18.5185 12.44677-26.56341 16.69692-39.61735 10.32168-30.96551 15.33072-58.7432 15.33072-85.76201 0-10.47361.45551-20.33999.9108-21.70608 1.36607-3.18755 2.12508-2.12506 5.46442 7.13424 2.2769 6.52692 2.73241 12.59868 2.73241 33.84933 0 32.17965-3.03589 50.09108-14.11667 83.48502-7.79339 23.38066-25.41611 57.58746-29.68391 57.63258zm112.56269-187.16443c-11.3353 0-23.01537-.95498-25.04639-2.82985-1.51799-1.36607-2.73225-3.03588-2.73225-3.64296 0-.75899-3.64298-8.95559-8.19672-18.36657-11.83969-24.74195-16.39345-36.12634-15.48264-38.55513 1.36607-3.33936 4.85736-2.42856 7.74132 1.9734 8.50032 13.50934 23.37575 20.64369 43.26034 20.64369 20.03649 0 34.91192-7.28602 44.17124-21.5545 1.51789-2.58036 3.18768-3.33936 4.85736-2.73214 4.70555 1.82146 4.70555 1.82158-15.93791 44.77843-4.09836 8.50018-8.50043 16.54511-9.86651 17.75951-1.63655 1.63643-11.3778 2.47235-21.67235 2.5237-.36456 0-.72983 0-1.09549 0zm-37.94852-4.80301c-1.51789 0-3.49128-.60719-4.25017-1.36607-.91079-.75888-11.68798-6.52716-24.28666-13.05418-54.49293-28.08143-52.21592-26.7151-55.40361-33.39394-8.5002-17.9112-19.73279-45.68913-18.97379-47.51049.75901-2.12518 6.07152-1.66968 19.73268 1.97328 12.44686 3.33937 22.31326 5.61611 29.5993 6.98221 17.9113 3.33935 20.03625 4.70555 25.50081 15.17925 2.88396 5.31265 8.80392 18.21491 13.20576 28.68839 4.55388 10.47358 9.86651 22.46506 11.99159 26.867 5.76804 11.68788 6.37535 15.63455 2.88409 15.63455zm73.94635-.21865c-2.73456-.0721-1.43773-3.81347 2.40444-11.92474 2.12508-4.55374 6.37536-13.81295 9.25943-20.49178 7.13412-16.69702 14.11655-31.87592 18.67019-40.83165 3.49127-6.98242 4.40185-7.74143 12.90215-10.17011 5.00903-1.51787 10.4736-2.88383 11.9916-2.88383 1.66968 0 6.37524-.91092 10.62527-2.12521 4.25028-1.21439 13.50934-3.64295 20.64347-5.31263 7.13411-1.66968 13.81318-3.03576 14.87566-3.03576 3.18769-.15179 3.79478 4.25004 1.36609 9.41099-3.49116 6.98232-10.6254 23.07213-14.87567 33.54562-1.97328 4.85736-5.00891 10.17-6.67871 11.83968-1.66968 1.66978-14.72377 8.95595-28.84031 16.24186-14.26836 7.28592-31.26875 16.08982-37.94757 19.58099-7.7034 4.05095-12.26916 6.21322-14.39604 6.15657zm32.93603-27.85088c1.05982.0239 2.48291-.48611 4.38024-1.52965 2.42866-1.21438 10.47358-5.00915 17.7595-8.34862 10.17011-4.55375 13.35779-6.67872 12.90239-8.50019-.60721-3.64297-3.33924-4.25016-5.76804-1.3662-1.06248 1.21439-3.03576 2.27687-4.55362 2.27687-1.51801 0-3.4913 1.06261-4.55377 2.27689-1.0626 1.21438-3.036 2.27699-4.40208 2.27699-1.3662 0-3.79477 1.06247-5.31263 2.27676-1.66968 1.21428-4.09835 2.27688-5.46444 2.27688-3.64307 0-8.50031 5.76803-6.52704 7.74132.3984.39839.9036.6048 1.53949.61895zm-138.25084-.0779c.57706.012 1.08131-.0671 1.46555-.23775 1.97329-.75886 1.82172-1.36593-1.06237-4.40182-1.82148-1.97326-4.55387-3.64294-5.76827-3.64294-1.36608 0-3.79463-1.06261-5.31263-2.27689-1.66969-1.21429-4.09836-2.27676-5.61636-2.27676-1.36607 0-3.33924-1.06259-4.40183-2.277-1.06249-1.21427-3.03576-2.27687-4.55365-2.27687-1.51798 0-3.49128-1.06249-4.55375-2.27688-2.12508-2.42857-3.49116-2.88409-5.00916-1.2144-2.88409 2.88396.1518 5.61636 12.2952 11.08078 7.28579 3.33948 15.02723 7.13424 17.45603 8.34863 1.63631.87277 3.58655 1.43185 5.06124 1.4519zm-3.5436-12.83616c1.36606 0 2.73226-.60721 3.33948-1.3662.91078-1.66968-7.13401-7.74131-10.32167-7.74131-1.2143 0-3.03589-1.0626-4.09836-2.27688-1.0625-1.2144-3.03589-2.27687-4.55366-2.27687-1.51799 0-3.49126-1.06248-4.55386-2.27689-1.06248-1.21428-2.88396-2.27687-4.09824-2.27687-1.0626 0-3.79488-1.0626-5.76828-2.42867-3.33936-2.27701-3.79463-2.27701-4.70533-.15193-.45538 1.3662-.45538 3.036 0 3.79488 1.21429 1.97327 31.87595 17.00074 34.75992 17.00074zm144.8086 0c3.79474 0 34.00126-15.48275 34.91206-17.91154 1.36607-3.49116-1.66969-5.16072-5.00917-2.58024-1.51775 1.21429-3.94655 2.27676-5.31275 2.27676s-3.33936 1.06259-4.40196 2.27687c-1.06249 1.21441-3.03576 2.27689-4.55365 2.27689-1.51787 0-3.49127 1.06247-4.55375 2.27687-1.06247 1.21428-2.88396 2.27688-4.09836 2.27688-3.18768 0-11.23247 6.07163-10.32166 7.74131.60719.75899 1.97315 1.3662 3.33924 1.3662zm-72.06273-1.66995c-11.04274.0756-22.12342-2.9599-29.63699-9.10738-9.41112-7.74144-10.92921-12.75035-10.77731-36.73341.15168-11.38438.91069-22.76866 1.82137-25.04553.759-2.27676 2.73228-8.5002 4.09834-13.96463 1.518-5.46455 2.88409-10.77708 3.18768-11.8398.30361-.91068 2.12509-1.82136 4.25028-1.82136h3.64284l.60732 27.62579c.4554 26.867.6072 27.92961 4.09836 31.87605 2.12508 2.42879 5.00904 4.25028 6.37512 4.25028 1.51799 0 3.18767.60707 3.64308 1.51775.4554.75899 4.25004 1.518 8.34828 1.518 4.09847 0 7.89334-.75901 8.34863-1.518.45539-.91068 2.12507-1.51775 3.64296-1.51775 3.64308 0 9.41099-6.98257 10.3218-12.5988.30358-2.73228.75887-15.17901.91079-27.62589l.30359-22.76865h3.64296c3.03588 0 3.94667 1.21439 5.46456 6.83074 1.06261 3.79464 3.18756 10.62528 4.55376 15.17915 1.66968 5.31262 2.88384 15.3307 3.33925 27.01857.91066 22.76854-1.51777 31.26898-10.7771 39.16196-7.36186 6.2994-18.36683 9.48696-29.40957 9.56291zm79.18412-12.7393c.73379-.0131 1.5876-.50436 2.44151-1.52892 1.06247-1.21428 3.03576-2.27688 4.55364-2.27688 1.51799 0 3.49128-1.06246 4.55375-2.27675 1.06248-1.2144 3.49128-2.27688 5.31289-2.27688 1.82146 0 4.24991-1.06261 5.31251-2.27688 1.0626-1.2144 3.03588-2.27698 4.55376-2.27698 1.36609 0 3.79464-1.3662 5.31263-3.03588 5.00904-5.61625.3036-5.76804-11.38439-.45541-6.22343 2.88407-13.96463 6.22354-17.00039 7.58963-3.64308 1.518-5.76827 3.49116-5.76827 5.16084 0 2.37168.88955 3.67632 2.11236 3.65411zm-158.79327-1.0998c2.0982.0347 3.42444-1.62936 2.00615-3.9204-1.82158-2.88406-34.91194-17.00062-35.97453-15.33081-1.3662 2.27686 2.12519 5.61634 7.89323 7.43772 2.88408.91079 5.16072 2.42866 5.16072 3.18766s1.66968 1.3662 3.64296 1.3662c1.97326 0 4.40195 1.06248 5.46456 2.27688 1.06248 1.21429 2.88407 2.27675 3.94668 2.27675 1.21426 0 3.49103.91082 5.16071 1.82148.93925.59772 1.87848.87108 2.69952.88452zm68.18697-25.47465c-2.73218 0-5.61638-3.18768-5.61638-6.07176 0-1.36609.45541-1.66968 1.21428-.60708.60721.91067 2.27702 1.97327 3.79488 2.58049 3.03576 1.06247 3.49129 4.09835.60722 4.09835zm23.12422-.19356c-.5388-.0121-1.05756-.35676-1.72166-1.02085-1.51799-1.51799-1.21451-2.12507 1.51777-2.73227 1.82148-.6072 3.33948-1.66968 3.49141-2.73216 0-.91079.45527-.75887.91068.3036.4554 1.2144-.30372 3.18768-1.66981 4.55376-1.11 1.11-1.83576 1.64352-2.52839 1.62792zm-29.06411-26.29356c-.0311 0-.0613 0-.0924 0-.50593-.0216-.88908-.3606-1.25423-.98663-1.51789-2.42868-1.82161-170.309259-.30374-171.979059.60708-.455279 9.25934-.758999 19.27751-.607199l18.36684.455401.45528 84.851207c.15191 60.41276-.15168 85.45817-1.36609 86.82424-1.36608 1.66981-2.58059 1.21428-6.22354-2.42868-7.89313-8.0449-15.78625-7.89298-23.98295.30361-2.50897 2.41259-3.91368 3.53663-4.87728 3.56749zm32.4403-184.704434c-.89292 0-1.83023 0-2.81411 0-3.63265-.012-7.90008-.0444-12.90923-.1008l-32.33148-.45528.45541-3.794876c.4554-4.098238 17.91143-46.448121 20.49178-49.787479 1.06261-1.366077 4.85736-1.821357 12.29508-1.517758 10.6254.4554 10.7772.455279 13.35768 5.768035 6.98243 13.964749 19.58087 46.144521 18.82187 47.965999-.57804 1.387318-3.97418 1.894319-17.367 1.922879z" style="stroke-width:1.2"/></svg>