<svg height="960" style="" width="1220" xmlns="http://www.w3.org/2000/svg"><path d="m916.46241 475.0658c-1.5171 2.5286 2.02291 16.6886 7.58571 31.86 39.4457 105.6941 39.95139 195.7111 1.5171 272.5796-5.0571 9.6085-22.7571 31.3542-39.4456 48.5485-61.69711 61.69695-153.2312 86.47695-258.41961 70.29405-78.38559-11.6314-118.84269-24.77985-187.6197-61.19125-62.7085-32.8714-79.39709-44.5028-158.28839-112.7741-26.29711-22.7571-51.58281-40.9628-56.63991-40.9628s-15.1714-3.0343-23.2628-7.08c-7.58572-3.54-23.26284-10.62-34.38854-15.6771-11.1257-4.5514-24.27425-10.62-28.82567-13.1486-12.13713-6.0685-19.21712-5.5628-19.21712 1.0114 0 16.1829 100.13133 120.8656 154.24263 161.8284 77.3742 58.6627 194.194 117.32545 259.43101 130.97975 11.63149 2.5286 25.79139 7.08 30.84859 10.1143 14.1599 7.0799 172.95401 11.6314 220.49111 6.0685 43.99699-5.0571 81.9256-18.2057 130.9798-45.0085 28.3199-15.1714 80.9141-73.83415 97.09698-107.71695 30.3428-63.2142 33.3771-78.8913 30.8485-152.7255-2.0229-64.7313-6.0686-89.0055-22.2514-133.0026-17.1943-45.5142-16.6885-45.5142-61.69698-47.0314-21.7457-.5057-41.46861.5057-42.98571 3.0343zm-58.15709-191.6654c-3.03421 5.0571-6.5742 19.2171-8.0914 31.3542-4.04571 27.3085-15.67711 86.477-25.79141 132.497-5.56279 23.7685-6.5742 36.4113-3.0342 39.9513s21.7456-5.5628 57.6513-29.3314c66.24851-43.997 63.21421-43.997 176.49399-9.1028 26.2971 8.0914 45.0085 9.1028 45.0085 3.0343 0-2.0229-24.2742-21.7457-53.6056-43.9971-29.3314-21.7457-56.13418-41.9742-59.16848-45.5142-3.54-3.0343-14.16-10.62-23.76851-17.1943-9.6086-6.5742-19.7229-14.6657-22.7571-17.6999-9.6086-11.1257-67.7656-53.6057-72.82279-53.6057-3.03431 0-7.58571 4.0457-10.1143 9.6086zm-704.96462-97.097c-4.55142 7.08 31.85995 155.254 50.06562 204.814 19.2171 52.0885 42.9857 105.6941 64.7314 144.634 28.3199 50.0657 86.98269 104.177 140.0826 128.957 40.4571 18.7114 116.8198 41.4685 166.37979 49.0542 61.1913 9.1028 119.34831 38.4342 163.85111 82.4313 20.73429 20.7343 37.4228 33.3771 41.46849 31.86 15.1715-5.5629 5.5629-92.0399-13.65419-124.4056-2.52861-4.0457-6.06861-11.1257-8.0914-15.1714-3.54-8.5971-30.34281-43.9971-42.48001-56.1342-4.5514-4.5514-39.95129-32.8714-78.3856-62.2027-38.9399-29.3314-86.47699-66.7542-106.7055-82.4314-19.7229-16.1828-50.5714-40.457-68.2714-54.1113-17.6999-13.6543-33.88279-27.3085-36.917-30.3428-2.5286-3.0343-15.1714-13.6543-27.8143-23.2628-20.7342-15.6772-41.9742-33.3771-75.857-62.7085-7.08-6.0686-22.7571-18.7114-35.4-28.32-12.6428-9.6085-28.3199-22.2514-35.3999-28.3199-64.73134-56.6399-94.56844-78.8913-97.60271-74.3399zm159.29971-300.39384c-8.5971 10.11427-21.2399 106.1998374-21.2399 157.276937.5057 116.819803 31.3542 199.756803 102.6598 272.073803 36.41141 36.9171 43.4914 43.9971 92.0399 81.9256 25.7914 20.7343 45.5142 36.9171 55.12281 46.02 3.03419 3.0342 17.19419 14.6656 30.84849 25.7913 14.16 10.62 30.8485 24.78 37.9285 30.8486 19.7228 16.6885 55.6285 46.5256 95.57991 79.397 35.39989 29.3314 66.24839 62.7085 66.24839 72.317 0 2.5286 5.5629 10.1143 12.1372 16.1829l11.6314 11.1257 3.0342-24.2743c1.5172-13.1485 1.0115-33.3771-1.01139-44.5028-2.52851-11.1257-6.06851-28.3199-8.5971-37.9285-4.04571-19.7228-25.7914-58.6628-48.0428-86.477-8.0914-10.1143-14.6657-20.7343-14.6657-23.7685 0-3.0343-1.5171-6.0686-3.54-7.08-4.0457-1.5172-25.7914-31.86-41.9742-57.1457-4.0457-6.5742-19.2171-28.3199-33.3771-49.0542-29.8371-43.4913-63.7199-92.0398-96.5913-139.5769-13.1485-18.7114-39.9514-57.6513-59.6742-86.9827-37.4228-55.122803-67.7656-99.119903-110.2455-159.299786-13.1486-19.72283-31.3543-46.01993-39.9514-59.67419-16.1828-25.285684-19.7228-27.814254-28.32001-17.194264z" style="stroke-width:.505714"/></svg>