<svg height="960" style="" width="1164" xmlns="http://www.w3.org/2000/svg"><path d="m581.99962.00000048c-27.56946 0-120.77108 51.88681952-177.40333 95.68833952-64.20784 49.6608-87.06647 86.31399-96.73009 149.81775-3.61169 23.73392-13.13523 59.95119-18.95988 90.07678-14.68239 75.93841-38.35253 148.45724-58.64366 217.21214-16.04923 54.38153-36.17869 106.44628-66.54709 146.30352-8.67358 11.38369-37.45449 38.56578-43.87857 44.98984 13.08988 43.13538 82.16347 139.61584 131.3857 172.7224 49.22223 33.10648 76.93904 28.76969 132.44134 37.19741 55.29259 8.39606 132.19817 5.5144 198.33558 5.5144s143.04297 2.88166 198.33558-5.5144c55.50232-8.42772 83.21913-4.09093 132.44135-37.19741 49.22228-33.10656 118.29585-129.58702 131.38565-172.7224-6.424-6.42406-35.205-33.60615-43.8785-44.98984-30.36849-39.85732-50.49785-91.92193-66.54708-146.30352-20.29114-68.7549-43.96127-141.27373-58.64371-217.21214-5.82454-30.12559-15.34816-66.34286-18.95983-90.07678-9.66358-63.50376-32.52225-100.15696-96.73015-149.81775-56.63223-43.80152-149.83385-95.68833952-177.40331-95.68833952zm-231.21326 432.52131952s69.94099 21.01071 104.06403 33.91942c12.71666 4.8107 37.43362 16.19573 37.43362 16.19573l.55556 40.5311s-17.08895 2.95873-39.89211 4.90321c-32.24788 2.74981-42.67199-.95289-63.53296-23.7103-8.52923-9.13845-14.80816-19.67983-20.72391-30.43305-7.24789-13.17463-17.90422-41.40611-17.90423-41.40611zm462.42653 0s-10.65637 28.23156-17.90425 41.40611c-5.91579 10.75322-12.1947 21.29467-20.72389 30.43305-20.86093 22.75741-31.28503 26.46011-63.53293 23.7103-22.80327-1.94448-39.89216-4.90321-39.89216-4.90321l.55556-40.5311c.00006 0 24.71688-11.38503 37.43365-16.19573 34.12303-12.90871 104.06401-33.91942 104.06402-33.91942z" style="stroke-width:9.48225"/></svg>