<svg height="960" style="" width="1200" xmlns="http://www.w3.org/2000/svg"><path d="m597.17647 0-201.88235 1.41176-136.94118 139.76471-138.35294 138.35294v200.47059 200.47059l139.76471 139.7647 139.7647 139.76471h200.47059 200.47059l139.7647-139.76471 139.76471-139.7647v-200.47059-200.47059l-139.76471-139.7647-139.7647-139.76471zm-156.70588 56.470588h159.52941 159.52941l131.29412 132.705882 132.70587 131.29412v159.52941 159.52941l-132.70587 131.29412-131.29412 132.70588h-159.52941-159.52941l-131.29412-132.70588-132.70588-131.29412v-159.52941-159.52941l132.70588-131.29412zm313.41176 42.352941-158.11764 1.411761-158.11765 1.41177-108.70588 112.94117-110.11765 111.52942v153.88235 153.88235l114.35294 112.94118 112.94118 114.35294h153.88235 153.88235l112.94118-114.35294 114.35294-112.94118v-153.88235-153.88235l-114.35294-112.94118zm-278.11764 42.352941h124.23529 124.23529l107.29412 107.29412 107.29412 107.29412v124.23529 124.23529l-107.29412 107.29412-107.29412 107.29412h-124.23529-124.23529l-107.29412-107.29412-107.29412-107.29412v-124.23529-124.23529l107.29412-107.29412zm124.23529 42.35294c-87.52941 0-115.76471 4.2353-121.41176 21.17647-5.64706 11.29412-14.11765 21.17647-21.17648 21.17647-15.52941 0-111.52941 96-111.52941 111.52941 0 7.05883-9.88235 15.52942-21.17647 21.17648-16.94117 5.64705-21.17647 33.88235-21.17647 121.41176s4.2353 115.76471 21.17647 121.41176c11.29412 5.64706 21.17647 14.11765 21.17647 21.17648 0 15.52941 96 111.52941 111.52941 111.52941 7.05883 0 15.52942 9.88235 21.17648 21.17647 11.29411 31.05882 231.52941 31.05882 242.82352 0 5.64706-11.29412 14.11765-21.17647 21.17648-21.17647 15.52941 0 111.52941-96 111.52941-111.52941 0-7.05883 9.88235-15.52942 21.17647-21.17648 16.94117-5.64705 21.17647-33.88235 21.17647-121.41176s-4.2353-115.76471-21.17647-121.41176c-11.29412-5.64706-21.17647-14.11765-21.17647-21.17648 0-15.52941-96-111.52941-111.52941-111.52941-7.05883 0-15.52942-9.88235-21.17648-21.17647-5.64705-16.94117-33.88235-21.17647-121.41176-21.17647zm0 42.35294c81.88235 0 83.29412 0 168 86.11765 86.11765 84.70588 86.11765 86.11765 86.11765 168s0 83.29412-86.11765 168c-84.70588 86.11765-86.11765 86.11765-168 86.11765s-83.29412 0-168-86.11765c-86.11765-84.70588-86.11765-86.11765-86.11765-168s0-83.29412 86.11765-168c84.70588-86.11765 86.11765-86.11765 168-86.11765zm0 42.35294c-29.64706 0-60.70588 9.88236-70.58824 21.17647-9.88235 11.29412-22.58823 21.17648-29.64705 21.17648-7.05883 0-24 11.29411-36.70589 25.41176-62.11764 64.94118-80.47058 166.58824-42.35294 231.52941 19.76471 35.29412 62.11765 81.88235 74.82353 81.88235 4.2353 0 16.94118 9.88236 28.2353 21.17648 28.23529 26.82352 124.23529 26.82352 152.47058 0 11.29412-11.29412 24-21.17648 28.2353-21.17648 4.23529 0 19.7647-11.29411 33.88235-25.41176 60.70588-64.94118 79.05882-166.58824 42.35294-231.52941-24-39.52941-64.94117-81.88235-80.47059-81.88235-7.05882 0-19.7647-9.88236-29.64705-21.17648-9.88236-11.29411-40.94118-21.17647-70.58824-21.17647zm0 42.35295c42.35294 0 70.58824 5.64705 70.58824 15.52941 0 21.17647 59.29411 83.29411 81.88235 83.29411 11.29412 0 16.94117 24 16.94117 70.58824s-5.64705 70.58824-16.94117 70.58824c-22.58824 0-81.88235 62.11764-81.88235 83.29411 0 9.88236-28.2353 15.52941-70.58824 15.52941s-70.58824-5.64705-70.58824-15.52941c0-21.17647-59.29411-83.29411-80.47058-83.29411-25.41177 0-25.41177-141.17648 0-141.17648 21.17647 0 80.47058-62.11764 80.47058-83.29411 0-9.88236 28.2353-15.52941 70.58824-15.52941z" style="stroke-width:1.41176"/></svg>