<svg height="960" style="" width="1225" xmlns="http://www.w3.org/2000/svg"><path d="m541.55221-90v170.3092l-107.30537 136.2568h22.97597v24.2384l-65.14068 108.65193 86.85424-94.59703v-47.21441l62.61584-77.09152v102.06914c-.0466 19.46366-5.08897 38.58945-14.64403 55.54632l-41.57556 41.5756c0 20.42488-.58914 36.35758-.58914 36.35758l-327.8074 343.62967v7.15372l139.28659-139.20245v15.31734l34.50604-34.50608v-14.13906l162.26256-162.26256c130.99503-131.03814 109.49358-127.35536 109.49358-127.35536v-344.73723zm80.87879 0v305.95864s-21.37219 35.09581 109.49358 166.13395l162.43088 162.26256v14.13906l34.50607 34.50608v-15.31734l139.28657 139.20245v-7.15372l-327.80739-343.62967s-.58905-15.9327-.58905-36.35758l-41.57567-24.33914c-9.58444-16.94895-14.6558-53.31167-14.7282-72.78278v-102.06914l62.61585 77.09152v47.21441l86.9384 94.59703-65.22485-108.65193v-24.2384h23.06012l-107.38952-136.2568v-170.3092zm-60.34347 435.06171-293.8905 329.06983v7.65869l255.59719-258.79535-1.26241 93.33465-46.03611 40.8181-9.00524 48.56094-347.58526 375.77923v5.1338l442.18233-452.44994zm100.82494 0v189.10995l442.18233 452.44994v-5.1338l-347.58525-375.77923-8.92106-48.56094-46.03614-40.8181-1.26256-93.33465 255.59717 258.79535v-7.65869zm-100.9091 242.80473-84.32941 97.12188h25.58496v62.78553l-80.54215 99.64672h12.79249v24.32255l-74.06175 93.25048 86.85423-88.20084 3.87142-29.37219h-.16848l57.56617-54.9572v109.32898l-47.88765 69.01205 12.1192 11.6143-47.29852 67.5813 135.49936-136.7618zm100.9933 0v325.37176l135.41517 136.7618-47.29851-67.5813 12.20335-11.6143-47.97185-69.01205v-109.32898l57.48204 54.9572 3.87125 29.37219 86.9384 88.20084-74.14595-93.25048v-24.32255h12.79253l-80.54218-99.64672v-62.78553h25.58497zm-279.83561 15.90647-119.50874 137.43503s-1.29271 9.5277 0 6.98535c1.29272-2.54234 119.50874-130.95462 119.50874-130.95462zm458.67788 0v13.46576s118.21604 128.41228 119.50876 130.95462c1.29271 2.54235 0-6.98535 0-6.98535zm-404.9831 182.37836-40.22901 54.95719v5.04969l40.22901-46.62527zm351.37252 0v13.38161l40.22896 46.62527v-5.04969zm-558.40879 125.65113-109.91437 118.2464v5.0497l109.91437-111.1769zm765.36087 0v12.1192l109.91436 111.1769v-5.0497z" style="stroke-width:43.0905"/></svg>