<svg height="960" style="" width="1210" xmlns="http://www.w3.org/2000/svg"><path d="m840.6884 858.03712c-23.74832 24.78089-23.74832 40.26889 0 40.26889s43.3665-19.6182 43.3665-43.3665c0-23.74832-20.65072-22.71578-43.3665 3.09761zm-514.20274-3.09761c0 23.7483 19.61817 43.3665 43.36649 43.3665 24.78086 0 23.74832-15.488-2.06507-41.30143-25.81339-25.81339-41.30142-26.84593-41.30142-2.06507zm10.32535-220.96262c0 7.22774 7.22775 21.68324 35.10622 75.3751 9.29282 17.5531 16.52057 39.23635 16.52057 47.49664 0 8.26028 7.22774 20.65071 15.48803 27.87846 8.26028 7.22775 15.48803 19.61817 15.48803 28.91099 0 15.48804 27.87847 43.3665 109.44878 111.51383 56.78946 46.4641 96.02581 46.4641 152.81527 0 74.34257-61.95212 109.44878-96.02579 109.44878-106.35115 0-5.16268 14.4555-37.17128 30.97607-70.21242 29.94353-58.85453 39.23635-98.09088 23.74832-98.09088-5.16268 1.03253-56.78946 47.49663-116.67653 103.25356-58.85453 56.78946-114.61145 103.25356-123.90427 103.25356-8.26029 0-59.88707-42.33396-113.57892-92.92821-98.09089-93.96074-154.88035-140.42484-154.88035-130.09948zm700.05919-130.09949c-38.20385 30.97607-90.86317 112.54638-90.86317 140.42484 0 18.58564 35.10622 1.03254 74.34257-39.23635 38.2039-38.20382 80.5378-123.90428 67.1149-136.2947-1.0326-2.06508-23.7484 13.42296-50.5943 35.10621zm-912.76152-17.55311c4.13015 13.42296 10.32536 35.10621 13.42297 48.52918 10.32535 44.39903 127.00187 143.52245 127.00187 108.41624 0-4.13015-10.32536-27.87847-22.71578-53.69186-20.65072-43.36649-50.59424-75.3751-104.28609-113.57892-19.61818-13.42296-20.65071-13.42296-13.42297 10.32536zm145.58752-414.046787c-3.09761 5.16268 1.03253 22.71579 9.29282 38.203817 34.07367 65.04975 202.37698 411.98172 202.37698 420.242 0 16.52057-21.68325-1.03253-112.54638-90.86313-74.34257-72.2775-94.99328-87.76553-100.15596-74.34257-4.13014 10.32536 1.03254 24.78086 12.39043 36.13875 24.78086 23.74832 59.88707 64.01721 111.51385 130.09949 44.39903 54.72439 71.24496 86.73299 105.31863 123.90427 12.39043 13.42297 38.20382 45.43157 56.78946 71.24496s41.30143 47.49664 50.59425 47.49664 32.0086-21.68325 50.59424-47.49664 44.39903-57.82199 56.78946-71.24496c34.07368-37.17128 60.9196-69.17988 105.31864-123.90427 51.62678-66.08228 86.73299-106.35117 111.51384-130.09949 12.39043-11.35789 16.52057-24.78086 12.39043-36.13875-6.19521-15.48803-24.78085 0-104.2861 78.47271-53.69185 53.69185-100.15595 93.96074-104.28609 89.8306-5.16268-5.16268 137.32723-309.76069 198.24684-423.33961 8.26028-15.488027 12.39042-33.041137 9.29282-38.203817-8.26029-13.42296-25.81339-3.0976-25.81339 16.52057 0 8.26029-8.26029 23.748317-17.55311 34.073677-29.94353 32.0086-44.39903 51.62678-44.39903 56.78946 0 3.09761-35.10621 56.78946-77.44017 120.80667-42.33396 62.98467-77.44018 116.67652-77.44018 119.77413s-13.42296 22.71578-28.91099 43.3665c-16.52057 20.65071-33.04114 45.43156-36.13875 54.72439-8.26029 23.74831-47.49664 23.74831-55.75692 0-3.09761-9.29283-19.61818-34.07368-36.13875-54.72439-15.48804-20.65072-28.911-40.26889-28.911-43.3665 0-9.29282-198.24684-301.5004-207.53966-304.59801-5.16268-2.06507-9.29282-12.39043-9.29282-22.715777 0-22.71579-16.52057-36.13875-25.81339-20.65072zm239.54826 8.26029c-43.36649 43.366497-79.50524 83.635377-79.50524 88.798057s18.58564 34.07368 41.30143 64.01721c22.71578 29.94354 41.30142 57.822 41.30142 60.9196 0 10.32536 84.66792 118.7416 92.92821 118.7416 8.26028 0 92.9282-108.41624 92.9282-118.7416 0-3.0976 18.58564-30.97606 41.30143-60.9196 22.71578-29.94353 41.30142-58.85453 41.30142-64.01721 0-16.52057-159.01048-169.3358375-175.53105-169.3358375-9.29282 0-51.62678 36.1387505-96.02582 80.5377805z" style="stroke-width:1.03254"/></svg>