<svg height="960" style="" width="1270" xmlns="http://www.w3.org/2000/svg"><path d="m283.38704 465.95525c-7.96847 42.8305 2.98817 93.62946 14.94087 73.7083 10.95663-16.93299 10.95663-107.57427 0-107.57427-4.98029 0-11.9527 14.94087-14.94087 33.86597zm561.7767-218.1367c0 13.94482 3.98424 24.90145 7.96847 24.90145 11.95269 0 81.67675 96.61763 81.67675 113.55061 0 6.97241 6.97241 18.92511 14.94087 25.89751 9.96058 8.96452 14.94087 31.87386 14.94087 75.70041 0 60.75954 11.9527 89.64522 23.9054 57.77136 10.95663-27.88962 5.97634-87.6531-8.96453-117.53484-7.96846-14.94087-14.94087-37.8502-14.94087-49.8029 0-32.86991-87.6531-155.38505-111.55849-155.38505-3.98423 0-7.96847 10.95664-7.96847 24.90145zm-396.43108-51.79501c-78.68858 74.70435-111.55849 109.56638-111.55849 120.52301 0 7.96847-6.97241 18.92511-14.94087 25.89751-17.92905 14.94087-20.91722 83.66887-2.98818 77.69253 6.97241-2.98818 15.93693-19.92116 20.91722-37.85021 5.97635-22.90933 31.87386-56.7753 78.68858-100.60186 47.81079-45.81866 68.728-72.71223 64.74377-82.67281-6.9724-18.9251-16.93298-19.92116-34.86203-2.98817zm355.59271-100.601863c3.98423 11.952703 38.84626 46.814733 75.7004 76.696473 37.85021 30.87779 82.67282 76.69646 99.6058 101.59791 57.77133 83.66887 84.66493 201.20372 64.74373 277.90018-5.9763 24.90145-13.9448 56.77531-16.9329 71.71618-2.9882 14.94087-10.9567 32.86991-18.9251 38.84626-7.9685 5.97635-13.94486 18.9251-13.94486 27.88962-.99605 8.96452-20.91721 35.85809-44.82261 60.75954-24.90145 24.90145-44.82261 47.81078-44.82261 51.79502 0 4.98029 16.93299 7.96846 38.84627 7.96846 36.85414 0 38.84626-.99606 44.82261-39.84232 2.98817-22.90933 12.9488-42.83049 20.9172-45.81867 7.9685-3.98423 14.9409-13.94481 14.9409-23.90539s6.9724-22.90933 14.9409-29.88174c7.9684-6.97241 14.9408-21.91328 14.9408-33.86597.9961-10.95664 6.9724-31.87386 14.9409-45.81867s13.9448-34.86203 14.9409-46.81472c0-12.94876 12.9487-28.88569 35.8581-41.83444 40.8383-23.90539 39.8423-43.82655-1.9922-50.79896-18.9251-2.98817-29.8817-11.95269-31.8738-24.90145-10.9566-60.75954-63.7477-188.25496-82.6728-199.2116-13.94485-8.96452-10.95667-58.76742 5.9763-80.68069 7.9685-9.96058 14.9409-26.89357 14.9409-36.85415 0-20.917223-32.86993-22.909333-49.80292-1.99212-13.94481 16.93299-74.70435 19.92116-84.66493 4.98029-5.97634-9.96058-69.72406-39.842323-85.66098-39.842323-4.98029 0-4.98029 9.96058 0 21.91328zm-372.52569-13.94481c-15.93693 9.96058-34.86203 22.909333-42.8305 28.885683-17.92904 16.93299-63.74771 15.93693-87.6531-1.99212-26.89357-20.917213-53.78713-18.925103-53.78713 3.98424 0 9.96058 5.97635 23.90539 13.94481 29.88174 21.91328 17.92904 24.90145 58.76742 6.97241 83.66887-22.90934 31.87385-44.82261 82.67281-67.73194 156.3811-17.92904 56.77531-23.90539 64.74377-51.79501 71.71618-38.84627 10.95664-38.84627 22.90933.99605 47.81078 31.87386 18.9251 67.73195 91.63734 67.73195 136.45995 0 12.94875 3.98422 22.90933 8.96451 22.90933s12.94875 9.96058 16.93299 21.91328c3.98423 12.94875 16.93298 36.85414 29.88174 53.78713 12.94875 16.93298 23.90539 40.83838 23.90539 51.79501 0 17.92905 5.97635 21.91328 34.86203 21.91328 18.9251 0 34.86203-2.98817 34.86203-7.96846 0-3.98424-20.91722-28.88569-44.82261-54.78319-24.90145-25.89751-44.82261-53.78714-44.82261-60.75954 0-6.97241-6.97241-18.9251-14.94087-25.89751-7.96847-6.97241-14.94087-22.90933-14.94087-36.85415 0-12.94875-4.98029-32.86991-10.95664-43.82655-14.94087-27.88962-13.94481-137.456 1.99212-184.27073 38.84626-120.52301 116.53878-215.14852 213.15641-261.96325 51.79501-24.90145 64.74377-36.854143 64.74377-58.767423 0-16.93299-48.80685-13.94481-84.66493 5.97635zm188.25496 384.478383c-9.96058 25.89751 3.98423 47.81079 27.88962 43.82656 32.86992-3.98424 32.86992-51.79502 0-55.77925-12.94875-1.99212-24.90145 2.98817-27.88962 11.95269zm9.96058-464.1630226c-21.91328 2.98817-20.91722 1.99211-69.72406 181.2825526-7.96847 29.88174-21.91328 75.70041-29.88174 100.60186-6.97241 25.89751-13.94481 55.77925-13.94481 66.73589 0 10.95663-6.97241 36.85414-15.93693 56.7753-16.93299 40.83838-14.94087 96.61763 5.97635 174.31015 6.9724 24.90145 17.92904 66.73589 24.90145 94.62551 6.9724 26.89357 17.92904 71.71618 24.90145 99.6058 6.9724 26.89357 14.94087 63.74771 16.93298 80.6807 4.98029 28.88568 61.7556 103.58999 79.68464 103.58999 9.96058 0 32.86992-43.8265 57.77137-109.56634 8.96452-24.90145 22.90933-58.76742 31.87385-74.70435 32.86991-64.74377 57.77136-466.15514 31.87386-513.96592-5.97635-10.95664-13.94482-40.83838-18.92511-66.73589-7.96846-42.83049-20.91721-97.613683-37.8502-161.361403-6.9724-24.9014496-44.82261-38.8462596-87.6531-31.8738496zm40.83838 207.1800626c8.96452 3.98423 20.91721 15.93693 25.8975 27.88963 4.98029 10.95663 17.92905 35.85808 28.88569 53.78713 18.9251 30.87779 19.92115 40.83837 9.96058 133.47177-4.98029 54.78319-9.96058 133.47177-9.96058 174.31015 0 68.728-2.98818 77.69252-30.8778 113.55061-16.93299 20.91722-38.84626 38.84626-49.8029 38.84626-25.89751 0-56.77531-52.79107-63.74771-109.56638-3.98424-24.90145-13.94482-74.70435-22.90934-111.55849-17.92904-73.7083-23.90539-49.8029 63.74771-252.00268 6.97241-16.93298 14.94087-39.84232 18.92511-52.79107 6.9724-24.90145 6.9724-23.90539 29.88174-15.93693z" style="stroke-width:.996058"/></svg>