<svg height="960" style="" width="1200" xmlns="http://www.w3.org/2000/svg"><path d="m600 0-205.54687 205.54688c-4.64262-1.68834-9.04548-3.24754-14.53125-5.21485 2.65136 4.7333 4.90169 8.47878 7.20703 12.53906l-267.12891 267.12891 246.79688 246.79686c-9.90963 7.82334-19.79693 15.67308-29.70704 23.49612-1.35 1.05-30.32343 22.70904-31.52343 23.78904 2.52.12 29.06765-11.51625 31.34765-12.65625.84-.27 1.9425-.78327 2.8125-1.11327 9.27-4.02 18.41485-8.11311 27.71485-11.95314 4.93867-2.0316 9.88528-4.06194 14.82422-6.09372l217.73437 217.73436 480-480zm0 23.20313 456.7969 456.79687-456.7969 456.79686-201.32812-201.32811c64.17661-26.40219 128.37661-52.78695 192.59764-79.21875 134.74002-55.53999 269.46111-111.13782 404.12112-166.75782-.00009-.39741.0286-.77187 0-1.17186-8.64003-18.21-17.05878-36.49266-30.46878-51.97266-15.09-17.58-32.03484-32.58423-53.96484-41.07423-10.71-4.14-21.65952-7.90452-32.51952-11.89452-155.65005-57.18039-311.28426-114.38285-466.99219-171.6211zm-202.73437 202.73437c.81282.54323 1.25357 1.46663 2.16796 1.875 31.26 11.76 62.75157 23.1675 94.10157 34.6875 131.7 48.48 263.41626 96.91392 395.15625 145.25391 22.44 8.22 42.10782 20.34891 58.00782 38.37891 8.60901 9.77067 15.85875 20.74422 21.79686 33.51561l-534.31641 219.96093c-.15-.23997-.28875-.54888-.46875-.87888 86.85-68.73 173.67096-137.44737 261.21093-206.77734-6.06-2.25-11.0217-3.87657-15.7617-5.97657-3.63-1.65-6.255-.84798-9.375 1.58202-96.63333 76.35828-193.30155 152.71509-289.98047 229.04298l-236.60156-236.60157zm14.29687 30c3.39 6.12 8.15719 13.94625 11.36718 20.15625 2.22 4.5 5.54532 6.90328 10.19532 8.61328 61.32 22.46 122.55 44.98001 183.75 67.49999 56.12001 20.64 112.27845 41.25642 168.39843 61.81641 2.13.78 5.2683 1.69314 6.7383.70314 5.37-3.6 10.43766-7.97484 16.34763-12.71484l-394.68748-145.07814c-.36001-.12-1.80938-.81609-2.10938-.99609zm31.81641 55.78125c4.68 8.19 8.27907 15.22689 12.53907 21.79689l.0586.0586c1.83 2.7 4.38 4.88952 7.5 6.26952 19.56 7.32 39.23811 14.21532 58.82811 21.44532 75.18 27.72 150.36876 55.40592 225.46875 83.08593 1.92.72 4.83096 1.39734 6.21093.52734 5.64-3.81 10.78641-8.1792 16.81641-12.9492-109.36275-40.1337-217.51974-79.86096-327.42186-120.23439zm28.94532 54.31641c4.74 8.25 8.13186 15.1425 12.42186 21.5625v.0586c1.89 2.88 4.61016 5.18109 7.91016 6.62109 26.37 9.87 52.93593 19.4025 79.33593 29.0625 46.2 17.00001 92.4114 33.9222 138.69141 50.74218 2.04.66 5.11968 1.05 6.67968 0 5.16-3.45 9.91734-7.65891 15.52737-12.12888zm434.35545 69.08202c-6.81 0-12.36327 5.49468-12.36327 12.30468v.0586.17577c0 6.55002 5.29359 11.8038 11.83593 11.83593h.0586c.22677.0241.5109.0586.76173.0586 6.48 0 11.71875-5.26734 11.71875-11.77734v-.17577-.35157c0-6.69-5.32173-12.09891-12.01173-12.12891z" style="stroke-width:30"/></svg>