<svg height="960" style="" width="1283" xmlns="http://www.w3.org/2000/svg"><path d="m119.74878 313.03152c0 5.0861 15.2584 28.6673 55.02274 85.0771 12.48415 17.5703 36.99004 53.1733 54.09804 78.604 17.5702 25.4307 40.689 58.2594 51.3237 72.593 11.097 14.3337 19.8822 28.2049 19.8822 30.9792s1.3871 5.0861 3.699 5.0861c6.0109 0 20.8069 30.9792 17.5703 36.5277-2.3119 3.2367-23.1188 5.0862-55.4852 5.0862-55.4851 0-81.37814 3.2366-81.37814 9.7099 0 6.4732 63.34554 67.9692 159.51974 155.3583 40.6891 36.5277 94.7871 79.5287 108.6583 86.002 3.6991 1.8495 13.409 7.398 20.807 12.0217 12.9465 8.3228 35.1405 19.8822 69.3564 35.1406 17.5703 7.8604 51.3237 18.4951 90.6257 28.2049 43.4633 10.6347 144.2613 7.8604 163.6811-4.6237l12.9465-8.7852-15.7208-12.9465c-8.7851-7.398-20.3445-14.796-26.3554-16.1831-5.5485-1.3872-11.5594-7.8604-12.9465-13.8713-2.7743-10.6347-123.4544-131.3148-131.3148-131.3148-6.9357 0-5.5485 7.398 2.3119 13.8713 3.699 3.2366 6.9356 8.3227 6.9356 11.5594 0 3.2366 3.2366 8.3227 7.398 11.5594 7.8604 6.9356 6.9357 32.8287-1.3871 35.6029-6.4733 2.3119-27.7426-18.9574-34.2158-33.2911-17.108-38.3772-90.6257-126.691-160.9069-193.7355-13.4089-12.9465-30.0544-28.6673-36.9901-35.1406-6.4732-6.4732-48.5495-46.2376-92.9376-87.8514-44.3881-41.6139-89.7009-84.6148-99.8732-94.7871-93.39993-90.6257-94.32468-91.5505-94.32468-80.4534zm479.94628 571.4967c-4.6237.9248-12.9465.9248-18.495 0-6.0109-.9247-2.3119-1.8495 7.8604-1.8495 10.1722-.4624 14.796.4624 10.6346 1.8495zm81.8406 9.2475c14.3336 2.3119 16.1831 3.699 9.2475 6.4733-19.8822 7.8604-74.9049 2.7743-61.496-5.5485 7.398-4.6238 27.2802-5.0861 52.2485-.9248zm-390.7078-771.2431c0 2.7742 2.3119 5.0861 4.6238 5.0861 2.7743 0 4.6238 2.7742 4.6238 6.4733 0 3.699 9.2475 18.9574 20.8069 34.6782 11.5594 15.7207 20.8069 29.592 20.8069 30.9791 0 1.3872 8.7851 14.3337 19.8822 28.6674 11.097 14.3336 26.3554 35.6029 33.7534 47.1623 7.8604 11.5594 24.506 35.1406 36.5277 53.1732 52.2485 74.905 71.6683 105.8842 70.2812 110.5079-.9248 3.2366-27.7426 6.0109-68.4317 7.8604-36.5277 1.3871-67.0445 3.2366-67.5069 3.2366-9.2475 6.0109 18.9575 34.6782 158.1326 161.3693 40.2267 36.5277 94.7871 79.5286 108.6584 86.0019 3.699 1.8495 13.4089 7.398 20.8069 12.0218 7.8604 5.0861 23.1188 13.4089 34.6782 18.9574s24.5059 12.0218 28.6673 14.3337c9.7099 5.0861 54.5604 18.9574 94.3247 29.1296 32.3664 8.7852 123.9168 10.1723 151.197 2.3119 9.7099-2.3119 18.9574-7.8604 19.8822-11.097 3.2366-7.8604-18.9575-28.6673-33.7535-32.8287-5.5485-1.3871-11.5594-7.398-13.4089-12.4841-2.7742-10.6347-124.8415-132.702-131.7772-132.702-5.5485 0-5.0861 7.8604 0 11.5594 2.7743 1.3872 9.2476 11.5594 14.3337 22.6565 17.5703 34.6782 5.5485 51.3237-18.495 25.4306-7.3981-8.7851-13.8713-17.1079-13.8713-18.9574 0-5.5485-44.3881-68.894-67.0445-96.1742-25.8931-30.0544-70.2812-76.292-104.9594-108.6584-68.894-64.7326-188.6494-177.5523-205.2949-194.1979-101.7228-98.9484-117.4436-112.8197-117.4436-104.4969zm489.1939 581.669c-4.6238.9247-12.9466.9247-18.4951 0-6.0109-.9248-2.3119-1.8495 7.8604-1.8495 10.1723-.4624 14.7961.4623 10.6347 1.8495zm81.8405 9.2475c14.3337 2.3119 16.1832 3.699 9.2475 6.4733-19.8821 7.8604-74.9049 2.7742-61.496-5.5486 7.3981-4.6237 27.2802-5.0861 52.2485-.9247zm-390.7077-771.2432c0 2.77426 2.3119 5.08614 4.6238 5.08614 2.7742 0 4.6237 3.23663 4.6237 6.93564s8.7852 19.41979 19.8822 34.21583c10.6346 15.2584 26.8178 38.37721 35.6029 51.32369 8.7852 12.946599 27.7426 39.764399 42.0763 59.184199 13.8712 19.882101 26.8178 38.839601 28.6673 42.538601s16.6455 25.4306 33.291 48.5494c36.0654 49.9367 45.3129 65.6574 41.6139 71.6683-1.8495 2.7743-27.7426 4.6238-59.1842 4.6238-59.1841 0-77.2167 2.7742-77.2167 10.6346 0 6.0109 44.8504 50.399 127.1534 125.7663 91.5504 83.6901 137.788 117.9059 196.5098 145.6485 11.5594 5.5485 24.5059 12.0217 28.6673 14.3336 9.7099 5.0861 54.5603 18.9574 94.3247 29.1297 49.93664 12.9465 161.36924 8.3228 171.07914-6.9356 3.699-6.4733-20.3445-31.4416-33.7534-34.6782-5.5485-1.3872-11.5594-7.3981-13.4089-12.4842-3.2367-10.6346-124.84164-132.7019-131.77724-132.7019-2.3119 0-4.1614 3.2366-4.1614 6.9356s1.8495 6.9357 4.1614 6.9357 8.7851 9.2475 14.3337 19.8821c17.57024 35.1406 5.54854 51.7862-18.4951 25.8931-7.398-8.7851-13.8713-17.1079-13.8713-18.9574 0-6.0109-43.0009-66.1198-73.9801-103.1099-30.0545-35.6029-57.797-63.3455-152.5841-152.5841-49.9366-47.1623-215.9296-205.2949-237.6613-226.5642s-30.5168-27.28018-30.5168-21.2693zm489.1938 581.669c-4.6237.9248-12.9465.9248-18.495 0-6.0109-.9247-2.3119-1.8495 7.8604-1.8495 10.1722-.4624 14.796.4624 10.6346 1.8495zm81.84064 9.2475c14.3336 2.3119 16.1831 3.6991 9.2475 6.4733-19.8822 7.8604-74.90494 2.7743-61.49604-5.5485 7.398-4.6238 27.28024-5.0861 52.24854-.9248z" style="stroke-width:.462376"/></svg>