<svg height="960" style="" width="1735" xmlns="http://www.w3.org/2000/svg"><path d="m867.50004-.00000002c-64.53536 0-126.73574 12.11692302-185.13878 36.20817802-59.5711 24.675285-112.27871 59.718252-156.51901 104.104562-44.67833 44.53232-80.01274 97.53422-104.98004 157.39734l-3.94107 9.63593-7.44582-7.44582-289.53422-289.534219v103.374519l2.33556 2.33556c.43802.29201 1.60665 1.31349 2.77471 2.33555l336.25665 336.10836c7.73841-105.27148 48.91027-194.77186 122.49811-266.31559 76.8-74.75589 172.29068-113.44848 283.54847-115.20057 111.54981 1.75209 206.8934 40.44468 283.8394 115.20057 73.5878 71.39772 114.7597 161.04411 122.4981 266.31559l47.1616-47.15874 289.095-288.94962c1.168-1.02206 2.1913-2.04411 3.3593-2.92015l1.7509-1.75096v-103.374519l-296.98 296.686309-3.941-9.63593c-24.9673-59.86312-60.3017-112.71673-104.9801-157.24905-44.2403-44.38631-95.927-78.990114-153.3079-102.935361l-2.9202-1.023761c-58.69506-24.091255-120.8943-36.20817802-185.42966-36.20817802zm-3.65019 104.54088002c-88.04259 0-176.08574 33.14486-241.49715 90.96387-47.01445 41.61217-81.76369 89.50152-103.0808 142.64829-21.02509 52.27073-29.93213 111.11065-26.13593 174.76997l1.02376 16.79087-13.57984-11.97148c-.73004-.58403-1.31464-1.02092-2.04468-1.75096l-9.19677-9.05418c-7.44639-7.30038-15.03878-14.89106-22.63118-22.33745-19.85703-19.85704-40.00665-39.86065-59.71768-59.71768l-194.48384-194.62928-72.56464-72.56464v104.98004l14.7462 14.60076c8.90647 8.76046 17.81407 17.66635 26.72054 26.42681 30.51558 30.36958 61.46977 61.17548 91.83935 91.69106 35.62585 35.62586 71.83517 71.83745 107.46102 107.60932 57.23499 57.23498 115.3443 115.34487 172.72529 172.57985l29.20152 29.34696c13.87073 13.87072 28.17947 28.32604 42.34221 42.19676 36.35589 35.77187 79.72186 63.51331 128.78041 82.4943 40.59012 15.47681 84.09868 23.79981 129.65305 24.67585.73004 0 1.46235.00057 2.3384-.14543l1.46007-.14544 1.75096.14544c1.31406.146 1.89696.14543 2.48099.14543 45.70038-.87604 89.35722-9.05304 129.80129-24.67585 49.0586-18.83498 92.4223-46.57643 128.6322-82.4943 15.7688-15.4768 31.5399-31.39163 46.8707-46.72243l197.5465-197.40114c35.6259-35.62586 71.6898-71.83517 107.3156-107.46103 30.5156-30.36958 61.3232-61.17832 91.9848-91.69391 9.7825-9.78251 19.711-19.56559 29.2015-29.05609l12.1198-12.11692v-104.98004l-326.6207 326.76331c-6.2783 6.27833-12.7021 12.70323-19.1264 18.83555l-12.847 12.70437c-.73.73004-1.3146 1.16636-2.0446 1.89639l-3.5048-2.33555 2.6293 3.06559-12.5589 10.6597 1.0237-16.35456c3.6502-63.65932-5.1108-122.49924-26.1359-174.76997-21.3171-53.14677-56.0664-101.18213-103.0808-142.64829-65.4114-57.81901-153.60002-90.96387-241.64261-90.96387h-3.35931zm3.35931 72.12832c96.51103 2.48213 175.06144 39.85951 234.04854 111.11122 45.9923 55.6289 68.9161 121.03916 68.4781 194.48099-1.1681 164.84259-131.992 295.51996-298.29469 299.17015h-4.08651-4.08935v-.14544c-166.30266-3.65019-296.97776-134.18212-298.29183-299.02471-.58403-73.44183 22.4829-138.85209 68.47529-194.48099 58.98707-71.25171 137.68745-108.62909 233.76045-111.11122zm-1.02376 31.39164c-47.30646 0-94.32091 12.9941-135.78707 37.37737-43.07224 25.40533-78.40438 62.34468-101.9116 106.73099-23.65323 44.53232-34.16578 94.61464-30.6616 144.84126 3.50419 50.22661 21.1694 98.69886 50.80894 140.01901 25.98935 36.20989 61.17662 65.55855 101.62072 85.12357 37.23194 17.95894 79.28441 27.59544 116.95437 26.28137 2.33613 0 4.37852.14544 6.27662.14544 36.3559 0 75.77795-9.34392 110.96578-26.42681 40.59014-19.56502 75.77964-48.91368 101.76904-85.12357 29.7855-41.32015 47.3047-89.7924 50.8089-140.01901 3.6502-50.22662-7.0084-100.30894-30.6616-144.84126-23.3612-44.38631-58.6939-81.32566-101.7661-106.73099-41.46621-24.52927-88.48066-37.37737-135.78712-37.37737zm-2.48099 67.45437 3.65019.14544 3.79563-.14544v.29372c65.70342 2.92016 118.70418 30.07529 157.68817 80.88594 27.7415 36.06388 41.3208 77.67832 40.7367 123.52471-.584 55.48289-20.8785 103.37168-60.0085 142.06369-38.10801 37.81597-85.8542 57.52814-141.92112 58.84221-56.50494-1.31407-104.25-21.17225-142.21198-58.84221-39.13004-38.69201-59.42395-86.5808-60.15399-142.06369-.58403-45.84639 13.14125-87.46083 40.73669-123.52471 38.98403-50.81065 91.98479-77.96578 157.68821-80.88594zm-743.76331 31.2462v105.27091l6.57035 6.71578c5.8403 5.98631 12.41121 12.55666 17.37547 17.52091l393.05133 393.19962c14.01673 14.01673 29.34696 27.01198 45.4078 38.54658l1.02376.73004c39.42205 28.9095 82.93175 51.24753 129.36217 66.72433 48.18251 16.06084 98.7 24.2384 149.94867 24.53042 1.02205 0 1.89867.00057 2.77471-.14544l1.46008-.14828 2.33555.14828c1.02206 0 1.89924.14544 2.62928.14544 99.72319-.29202 194.92073-30.95304 275.80893-88.48004l3.3565-2.48384c17.0829-12.26464 32.4137-25.1133 46.7224-39.42205 130.2388-130.5308 262.3756-262.81198 392.7604-393.19677l21.1711-21.1711 3.0685-3.06844v-105.41635l-85.1236 84.97528-186.1597 186.1597-170.8289 170.97718c-12.4106 12.41065-22.776 22.6289-33.8726 32.70343-26.4274 24.23726-57.3833 45.11635-92.1331 62.05323-41.0281 20.73308-87.89484 34.16806-135.49332 38.8403l-1.7538.14544c-8.46844.87605-17.08061 1.16749-25.40304 1.60551l-16.20912.87548-16.93632-.87548c-8.32243-.43802-16.93688-.72946-25.55133-1.60551-49.35057-4.96426-96.21901-18.39696-139.43726-40.15209l-3.65019-1.7538c-32.26768-16.49886-61.32262-36.35589-86.28992-59.13308-11.53461-10.51255-22.63004-21.46084-33.87263-32.70343-56.65095-56.65095-114.32623-114.18022-170.97718-170.97718l-210.54183-210.68726c-20.14905-20.14905-41.02814-41.02871-60.59316-60.44772zm747.55894 76.94487c-34.45779 1.31406-62.19924 15.18593-80.30418 44.24144-21.46312 34.01977-21.60799 69.64506-.29088 103.81084 18.25095 29.20152 45.84525 43.21768 80.59506 44.67775 34.6038-1.46007 62.34411-15.33022 80.59506-44.67775 21.31711-34.16578 21.17224-69.79107-.29088-103.81084-18.25095-29.05551-45.84639-42.92738-80.30418-44.24144z" style="stroke-width:1.46008"/></svg>