<svg height="960" style="" width="1227" xmlns="http://www.w3.org/2000/svg"><path d="m606.9484-25.959661c-1.4039 2.33984-17.7828 13.10311-36.0335 24.33436-18.2508 11.23124-38.3735 24.33436-45.393 28.54608s-17.3148 10.76328-22.9304 14.03906c-54.2844 31.821861-78.6188 50.072661-88.9141 65.515561l-12.1671 17.7828-73.0031.468c-79.0867.468-113.2484 5.1477-75.343 10.2953 11.6992 1.4039 46.3289 4.2117 77.2148 5.6156 30.418 1.4039 57.5602 4.2118 59.9 6.5516 4.2117 4.2117-11.6992 37.4375-21.0586 43.5211-3.2758 1.8718-37.4375 3.7437-76.2788 4.2117-38.3735 0-75.343 1.8719-81.8945 3.7437-11.2313 3.2758-11.2313 3.2758 4.2117 6.5516 8.4234 1.8719 43.521 3.2758 78.1507 3.2758 34.1617 0 63.1758 1.8718 64.5797 4.2117 3.2758 5.1476-8.8914 34.6297-16.8469 41.1812-3.2758 2.8078-30.4179 6.5516-59.9 7.9555-29.482 1.8719-68.3234 4.6797-86.5741 6.0836l-32.75784 3.2758 28.07814 3.2757c15.4429 1.8719 51.4765 3.2758 80.4906 3.7438 28.546.468 53.3484 2.3398 55.2202 5.1476 5.1477 8.4235-10.7632 36.9696-21.9945 39.3094-6.0836 1.4039-44.457 4.6797-85.1702 7.4875-41.1813 2.8078-77.68282 7.0195-81.42657 8.8914-4.21172 2.3399 27.61017 5.6156 75.81087 7.4875 89.85 3.7438 92.1898 4.6797 74.407 30.418-11.6992 17.3148-14.975 18.7187-53.8164 18.7187-53.8163 0-54.2843 12.6352 0 14.507 32.2899 1.4039 36.9696 7.4875 23.8664 31.8219-8.8914 17.7828-11.2312 19.1867-29.482 19.1867-10.2953 0-33.6937 1.4039-51.9445 3.2758-40.24528 3.7437-26.67419 9.3593 24.8023 10.2953 25.2703.468 33.6938 1.8719 33.6938 7.0195 0 9.8274-14.507 42.1172-20.5906 45.8609-2.8078 1.8719-18.7188 3.7438-35.5656 4.2117-16.84691.468-36.50159 1.8719-44.45705 3.7438l-14.03906 3.2758 18.71874 3.2758c10.29531 1.8718 28.54607 3.2757 40.71327 3.2757s22.9305 1.4039 24.3344 3.7438c.9359 1.8719-3.2758 14.507-10.2953 28.0781-10.7633 22.4625-13.1032 24.3344-28.5461 24.8023-9.3594.468-21.99455 1.8719-28.54611 4.2117-10.29531 2.8079-8.42343 3.7438 11.69921 7.0196 19.1867 2.8078 28.5461 7.4875 48.2008 25.2703 13.5711 11.6992 24.3343 24.3343 24.3343 27.1422 0 4.2117-9.3593 6.0835-29.014 6.5515-16.3789.468-35.56563 2.3399-43.5211 4.2117-12.63515 3.2758-11.6992 3.7438 7.95547 4.2117 11.69923 0 24.80233 1.8719 29.01403 3.2758 9.8274 3.7438 9.3594 14.0391-.9359 17.7828-21.0586 7.9555-47.7328 28.5461-47.7328 37.9055 0 5.6156 29.014 16.3789 44.457 16.3789 4.2117 0 13.5711 2.8078 20.1226 6.0836 7.0196 3.7437 20.1227 9.8273 29.0141 13.5711 105.2929 44.457 228.8366 106.6968 285.46081 143.6663 14.0391 9.3594 29.01409 18.2508 32.7578 20.1226 3.7438 1.404 20.1227 13.5711 36.50159 26.6743 15.91091 13.10305 31.35381 23.86625 34.16171 23.86625 2.8078 0 19.6546-12.6351 36.9695-27.61005 60.8359-52.4125 165.66079-114.6523 264.40219-157.2374 7.95551-3.2758 21.5265-9.3594 30.41791-13.1031 15.91099-7.0196 39.7774-16.3789 74.87499-29.0141 8.8914-3.2758 28.5461-8.4234 43.0531-11.6992 14.975-2.8078 28.0781-7.4875 29.95-9.8273 5.1477-8.4235-20.1226-30.418-45.8609-39.7774-10.2953-3.7437-10.7633-14.039-.9359-17.7828 4.2117-1.4039 17.3148-3.2758 29.014-3.2758 19.6547-.4679 20.5906-.9359 7.9555-4.2117-7.4875-1.8718-27.1422-3.7437-43.0531-4.2117-20.1227-.468-29.4821-2.3398-29.4821-6.5515 0-2.8079 10.7633-15.443 24.3344-27.1422 19.6547-17.7828 29.0141-22.4625 48.2008-25.2703 20.1226-3.2758 21.9945-4.2117 11.6992-7.0196-6.5516-2.3398-19.1867-3.7437-28.5461-4.2117-15.443-.4679-17.7828-2.3398-28.5461-24.8023-7.0195-13.5711-11.2312-26.2062-10.2953-28.0781 1.4039-2.3399 12.1672-4.2117 24.3344-4.2117 12.1672-.468 28.5461-1.8719 36.0336-3.7438l14.039-3.2758-18.7187-3.2757c-10.2953-1.8719-28.0781-3.2758-39.7774-3.2758-26.2062 0-29.9499-2.3399-39.3093-25.2703-12.1672-29.95-11.2313-30.8859 26.6742-31.3539 51.0086-.936 64.5796-6.5516 24.3344-10.2953-17.7828-1.8719-41.6492-3.2758-51.9446-3.2758-17.7828 0-20.5906-1.4039-29.014-17.7828-12.6352-24.8023-7.4875-31.8219 23.3984-33.2258 54.2844-1.8718 53.8164-14.507 0-14.507-38.8414 0-42.1171-1.4039-53.8164-18.7187-17.7828-25.7383-15.4429-26.6742 74.407-30.418 51.4766-2.3398 80.0227-5.1476 75.343-7.4875-3.7438-2.3398-40.7133-6.5515-81.4266-9.3594-40.7132-2.3398-78.6187-5.6156-84.7023-7.0195-11.2312-2.3398-27.1421-30.8859-21.9945-39.3094 1.8719-2.8078 26.6742-4.6796 55.2203-5.1476 29.0141-.468 65.0476-1.8719 80.4906-3.7438l28.0781-3.2757-32.7578-3.2758c-17.7828-1.4039-57.0921-4.2117-86.5742-6.0836-29.482-1.4039-56.6242-5.1477-59.8999-7.9555-7.9555-6.5515-20.1227-36.0336-16.8469-41.1812 1.4039-2.3399 32.2898-4.2117 68.7914-4.6797 36.5015-.468 71.5992-1.8719 78.1507-3.7437 11.2313-3.2758 11.2313-3.2758-4.2117-6.5516-8.4234-1.8719-45.393-3.2758-81.8945-3.2758-36.0336 0-68.7914-1.8719-72.0672-4.2117-7.9554-4.6797-19.6546-27.1422-19.6546-37.9055 0-6.5515 5.6156-8.4234 31.8218-10.7632 17.3149-1.8719 47.2649-3.2758 66.4516-3.7438 19.1867-.4679 40.2453-1.8718 46.7968-3.7437 11.2313-3.2758 11.2313-3.2758-4.2117-6.5516-8.4234-1.8719-46.7969-3.2758-84.7023-3.2758h-68.7914l-12.6351-18.7187c-7.0196-10.7633-17.7828-21.5266-23.8664-24.3344-6.5516-2.8078-11.6992-6.5515-11.6992-8.4234s-3.7438-4.679701-7.9555-6.551601c-4.6797-1.4039-14.507-7.01949-22.4625-12.16714-7.4875-5.14766-18.2508-11.23125-23.3984-14.03906-5.1477-2.80781-15.443-8.8914-23.3984-14.03906-7.4875-5.14765-18.7188-11.23124-24.3344-14.03905-6.0836-2.33985-10.7633-6.55156-10.7633-9.35937 0-2.33984999-4.2117-4.67969-9.3594-4.67969-5.1476 0-9.3593-1.87187-9.3593-4.67968 0-2.33985-5.1477-5.61563-11.2313-7.4875-6.5515-1.40391-12.6351-5.61562-14.039-9.35937-2.8078-7.01953-19.6547-8.8914-23.3985-2.33984zm27.1422 16.84686c1.4039 3.74375 5.6156 7.01953 9.8274 7.01953 3.7437 0 7.0195 2.33984001 7.0195 4.67969 0 2.80781 4.67971 7.01952 10.7633 9.35937 12.6351 5.61562 24.3343 12.63515 45.3929 28.54608 8.8914 6.55156 19.65471 13.57109 23.39841 14.97499 3.74379 1.87188 13.5711 7.48754 21.05859 12.63514 7.95551 5.147701 17.3149 10.763301 21.0586 12.635201 3.7438 1.4039 11.6992 7.4875 17.3148 13.1031l10.2953 10.2953-13.571 9.8273c-20.1227 14.975-69.7274 14.0391-95.9336-1.4039-10.2953-6.0836-29.014-16.8468-42.1172-23.8664-12.6351-6.5515-24.8023-14.975-26.6742-17.7828-4.6797-6.551501-4.6797-79.554631-.4679-83.766351 4.67971-5.14765 9.3593-3.74374 12.6351 3.74375zm-11.2312 131.031201c0 9.3594 34.16171 30.4179 49.1367 30.4179 6.5515 0 24.8023 8.4235 40.2453 18.2508l28.54601 18.7188-16.84681 2.8078c-17.31489 3.2758-22.46249 13.1031-9.3594 18.2507 4.2117 1.404 17.3148 2.8079 29.482 2.8079 19.1867 0 23.3984 1.8718 32.7578 14.039 16.3789 21.9945 11.6992 29.95-17.3148 31.8219-20.5906 1.4039-24.3344 2.8078-24.3344 10.7633 0 7.9554 3.2758 8.8914 29.482 8.8914 25.2703 0 31.3539 1.8718 40.2453 11.2312 6.5516 7.0195 9.8274 15.443 8.8914 22.4625-.9359 8.8914-4.2117 10.7633-17.7828 10.7633-17.78279 0-21.05859 4.6797-12.1672 17.3148 3.7438 5.1477 13.5711 8.4234 28.54611 9.3594 21.5266 1.4039 23.8664 2.8078 30.88599 17.7828 4.67961 8.8914 7.0195 17.7828 5.6156 19.6547-.936 2.3398-17.3149 3.7437-36.5016 3.7437s-35.5656 1.8719-37.4375 4.2117c-5.6156 9.8274 18.7188 19.1867 49.1367 19.1867 17.7828 0 34.1617 2.3399 37.9055 5.6157 11.2312 9.3593 23.3984 31.8218 20.5906 36.5015-1.4039 2.8078-22.9304 4.6797-47.2648 4.6797-34.1617 0-43.9891 1.4039-43.9891 6.5516 0 8.8914 14.975 12.1671 61.7719 12.1671h40.2453l9.8273 16.8469c18.2508 30.418 14.975 32.2898-51.0085 32.2898-48.6688 0-58.4961.936-58.4961 7.0196 0 5.6156 10.7633 7.0195 64.1117 8.4234l64.1117 1.4039 9.82731 13.1031c5.14769 7.4875 9.3594 19.1867 9.3594 26.2063 0 12.1671-.936 12.1671-18.7188 9.3593-21.0585-3.7437-22.9304 0-9.3593 17.3149 7.0195 9.3593 7.4875 13.1031 3.2757 17.3148-4.2117 4.6797-3.2757 7.4875 5.1477 13.1031 5.6156 4.2117 10.2953 8.8914 10.2953 11.2313 0 2.3398-43.0531 4.2117-95.9335 4.2117-82.3625 0-96.4016.9359-99.2094 7.0195-1.4039 4.2117-.9359 8.8914.936 10.7633 1.4039 1.8719 47.7328 3.7437 102.0171 4.6797 112.7804 1.4039 124.0117 2.8078 115.5882 12.6351-3.2757 3.7438-9.8273 7.0196-14.507 7.0196s-15.443 2.8078-23.8664 6.5515c-41.6492 17.3148-57.0921 19.6547-102.0171 16.3789-109.5047-8.4234-168.4687-3.7437-168.4687 13.1031 0 4.6797 15.9109 6.0836 78.6187 6.0836 43.0531 0 80.9586 1.8719 84.7023 4.2117 4.2117 2.8079-2.3398 7.9555-23.3984 18.2508-47.2648 22.9305-64.1117 33.6937-115.5882 72.0672-26.6742 20.1226-51.0086 36.5015-54.2844 36.5015-3.7437 0-8.8914-3.2758-12.1672-7.0195-14.039-16.8469-79.5546-56.6242-158.1733-95.9336-21.0586-10.7632-37.4375-21.0585-36.0336-23.8664 1.8719-2.3398 40.2453-4.2117 88.914-4.2117 50.5406 0 87.0422-1.8719 88.914-4.6797 1.4039-2.3398-5.1476-7.4875-14.507-11.6992-19.6547-8.4234-69.7273-8.8914-155.8335-2.3398-57.5601 4.6797-57.5601 4.6797-91.2539-8.8914-18.2508-7.4875-37.9054-14.975-43.989-16.8469s-9.8274-5.6156-8.8914-8.4234c.9359-4.2117 32.7578-6.0836 107.6327-7.9555 58.0281-1.4039 107.1648-3.7437 109.0367-5.6156s.468-6.5516-2.8078-10.7633c-4.6797-5.6156-21.9945-7.0195-92.6578-7.9555-83.2984-1.4039-87.5101-1.8718-88.914-10.7632-.9359-5.1477-6.0836-13.1031-11.6992-17.3149-10.7633-8.4234-8.4234-10.7632 13.1031-14.039 13.5711-2.3399 14.975-16.8469 1.4039-18.7188-14.507-1.8718-16.3789-21.5265-3.7437-37.9054 9.8273-12.1672 10.7632-12.1672 71.5992-13.5711 51.0085-1.4039 61.7718-2.8078 61.7718-8.4234 0-5.6157-10.2953-7.0196-57.0922-8.4235-64.1117-1.4039-65.0476-1.8718-47.7328-30.8859l9.8274-16.8469h40.2453c46.7968 0 61.7718-3.2757 61.7718-12.1671 0-5.1477-9.8273-6.5516-43.989-6.5516-24.3344 0-45.8609-1.8719-47.2648-4.6797-2.8079-4.6797 9.3593-27.1422 20.5906-36.5015 3.7437-3.2758 20.1226-5.6157 37.9054-5.6157 30.418 0 54.7523-9.3593 49.1367-19.1867-1.8718-2.3398-18.2507-4.2117-37.4375-4.2117-19.1867 0-35.5656-1.4039-36.5015-3.7437-1.4039-1.8719.9359-10.7633 5.6156-19.6547 7.0195-14.975 9.3594-16.3789 30.418-17.7828 16.8468-.936 25.2703-4.2117 30.8859-11.6992 11.2312-13.5711 7.9555-16.8469-14.0391-14.0391-17.7828 2.3399-18.7187 2.3399-18.7187-10.7633 0-7.0195 4.6797-17.7828 10.2953-23.8664 8.4234-8.8914 14.975-10.7632 39.7773-10.7632 26.2063 0 29.4821-.936 29.4821-8.8914 0-7.9555-3.7438-9.3594-24.3344-10.7633-29.0141-1.8719-33.6937-9.8274-17.3148-31.8219 9.3593-12.6351 13.571-14.039 34.6296-14.039 21.9945 0 35.0977-5.6157 35.0977-14.975 0-1.8719-4.6797-3.7438-10.2953-3.7438-20.1227 0-23.3985-7.0195-8.4235-17.7828 7.4875-5.6156 15.443-10.2953 17.7828-10.2953 2.3399 0 7.0196-2.8078 9.8274-6.5516 2.8078-3.2757 13.5711-7.4875 23.3984-8.8914 22.4625-2.8078 42.5851-15.9109 42.5851-27.1421 0-5.6157 3.2758-8.8914 9.3594-8.8914 5.1477 0 9.3594 3.2757 9.35939 7.0195zm210.1178 44.925c5.6157 10.2953 8.8914 21.0586 7.4875 23.3984-6.0835 9.3594-20.5906 3.7437-29.9499-11.6992-13.1032-21.0586-12.6352-30.8859 1.4039-30.8859 8.4234 0 13.571 4.6796 21.0585 19.1867zm25.7383 57.5601c18.7188 25.2703 14.0391 45.8609-6.5515 29.482-9.8274-7.4875-20.5907-34.1617-16.3789-40.2453 4.6796-8.4234 9.8273-6.0836 22.9304 10.7633zm31.3539 64.5797c8.4234 10.7633 12.1672 36.5015 5.1477 36.5015-5.6157 0-22.4625-19.1867-26.2063-29.482-6.5515-18.7188 7.4875-22.9305 21.0586-7.0195zm32.2898 69.2593c1.8719 3.7438 5.6157 11.6992 8.4235 16.8469 5.1476 10.7633 3.2757 15.9109-6.5516 15.9109-5.6156 0-25.2703-29.482-25.2703-37.9054 0-7.4875 19.6547-2.8078 23.3984 5.1476zm32.7578 68.7914c0 4.2117 3.2758 11.2312 7.4875 15.9109 7.0196 7.4875 5.6157 18.2508-1.8718 18.2508-4.6797 0-24.3344-29.95-24.3344-36.5015 0-3.2758 4.2117-5.6157 9.3594-5.6157 5.6156 0 9.3593 3.2758 9.3593 7.9555z" style="stroke-width:.467969"/></svg>