<svg height="960" style="" width="1366" xmlns="http://www.w3.org/2000/svg"><path d="m1236.1532-28.80013c-3.5403 1.231425-12.1601 5.5413-17.7014 8.773763-2.6168 1.539224-6.0032 2.001037-10.3131 1.385324-9.6973-1.385324-20.3182 4.925588-44.0229 25.705689l-4.7717 4.155975 4.6178 1.693125 4.4638 1.847138-4.3099 3.694275c-4.9256 4.155975-11.5444 4.925588-12.7758 1.385325-.6157-1.231425-2.6168-2.30895-4.6178-2.30895-9.3895 0-1.2314-10.159088 18.9328-23.550639 5.2335-3.386362 9.2356-6.772725 8.7738-7.542338-1.2313-2.001037-10.7748-1.385325-15.5465.923513-4.9256 2.46285-8.7737 4.155975-20.4722 8.619863-4.6178 1.847137-11.2366 4.463888-14.6229 5.849213-3.3864 1.385325-10.621 6.464812-16.0084 11.390513-7.5423 6.926625-10.9287 8.927663-14.7768 8.927663-4.7717 0-9.3895 4.309987-11.8524 10.928813-.6157 1.385325-2.9245 3.07845-5.2335 3.540262-2.4628.615713-7.3884 3.848175-10.9287 7.234538-3.5403 3.232463-7.2345 6.003113-8.1581 6.003113-.7696 0-2.0011 1.847137-2.4628 4.155975-1.3853 5.2335-8.312 12.314138-13.5455 13.699463-4.3099 1.077525-19.3947 17.547524-19.3947 21.241804 0 1.23142-.6157 2.61675-1.3853 3.23246-1.3853.76961-5.3874 8.46596-8.6199 16.1622-.9235 2.30895-1.6931 3.69427-8.4659 14.62297-2.155 3.38637-5.54134 9.54338-7.54238 13.85337-2.00104 4.15597-5.2335 9.85128-7.23454 12.62194-2.00104 2.61675-3.69416 5.5413-3.69416 6.31091 0 1.84714-8.92778 18.77906-11.54453 21.85751-2.46285 2.92466-19.85647 32.17062-21.0879 35.71088-.61571 1.38532-4.77168 8.00415-9.23546 14.62297-10.3131 15.39259-11.08271 16.77792-15.23869 25.08998-1.84714 3.84817-5.84921 10.7748-9.08167 15.39259-3.07857 4.61779-7.08064 11.54441-9.08168 15.39259-2.00104 3.84817-5.3874 9.38947-7.69624 12.31413-2.30895 2.92455-5.54141 8.15805-7.08063 11.54442-1.69324 3.38636-4.92559 8.61986-7.23454 11.69842-2.46285 3.07845-4.30988 6.46493-4.30988 7.38844 0 2.30884-6.31102 14.00726-7.54245 14.00726-.61571 0-1.84714 1.84714-2.77065 4.15598-.92351 2.46285-3.07856 6.77272-4.77169 9.69739-1.69323 2.92455-4.61778 8.77376-6.46492 13.08375-2.00104 4.15597-6.00311 11.0826-9.08156 15.39259-6.31103 8.61986-8.46597 12.31402-10.92882 17.70142-.92351 2.00104-3.38636 7.08064-5.5413 11.23661-2.00103 4.15609-3.69427 8.46597-3.69427 9.54349 0 1.07741-.92351 4.00208-2.15494 6.46482-1.23142 2.30895-3.38636 7.54245-4.77169 11.54452-1.38532 4.15598-3.07856 7.38844-3.84817 7.38844-2.61675 0-21.54972-35.24907-21.54972-40.17477 0-1.84702.92363-5.07948 2.00115-7.23442 1.23132-2.30895 3.23235-6.46493 4.61768-9.23558 1.38544-2.92466 2.61675-6.15712 2.61675-7.23453 0-1.07753.92362-4.00208 2.15505-6.46493 1.23131-2.30884 4.46377-9.23558 7.08052-15.08479 2.61675-6.00311 5.84922-12.92974 7.23454-15.39259 1.38533-2.61675 6.92674-13.23765 12.46804-23.85855 13.85336-26.7831 23.39674-44.94634 24.93596-47.7171.76973-1.23131 2.77077-5.3874 4.61779-9.23557 1.69324-3.84807 3.84818-8.00416 4.61779-9.23547.76972-1.23142 1.69324-3.38647 2.15505-4.61779.61571-1.23142 2.30884-4.46388 4.00208-6.92673 1.53922-2.61675 6.00311-10.9287 9.85117-18.47115 3.84818-7.69624 8.31206-16.3161 9.85129-19.24077 1.69324-2.92455 4.46389-8.46585 6.31102-12.31402 1.84714-3.84818 4.15598-8.31207 5.07949-10.00519 3.54038-6.31103 4.30999-7.85025 6.92674-13.08375 1.38532-2.92455 2.92455-6.61883 3.38636-8.00415 1.07753-3.23246 15.54649-20.93389 25.24388-30.78518 8.15805-8.31206 8.92766-11.23661 3.38636-13.85336-3.07856-1.38533-3.38636-2.15494-2.15494-4.46389 1.07742-2.00104.92352-4.00207-.1539-6.15701-3.23246-5.84921 1.07742-15.7005 11.0826-25.24388 7.54245-7.38843 8.92778-9.54337 8.92778-14.161159 0-7.234538 4.61779-12.77595 14.31506-16.778026 7.38844-3.232462 8.00415-3.848062 8.92778-9.543375.76961-6.003113 4.30987-11.544413 13.54549-21.549713 2.6167-2.770651 4.7717-5.695201 4.7717-6.618713 0-.769725.4618-1.385438 1.2314-1.385438 2.9246-.1539 8.312-6.310913 7.3884-8.619863-.9235-2.308837-1.3853-2.154937-4.7717.923625-2.1549 2.001038-3.8481 4.463888-3.8481 5.695201 0 1.077525-1.5393 2.001037-3.5403 2.001037-3.2325 0-10.1591 6.926738-10.31312 10.313101-.1539 2.308837-5.8491 8.15805-8.15805 8.15805-1.23142 0-2.61675-1.077412-3.23246-2.308838-1.23143-3.386362-2.92455-2.924662-8.77376 2.308838-6.31092 5.541413-8.77377 5.695313-13.23765.923625-4.15598-4.309988-4.46389-7.388438-1.07742-13.237651 3.07845-5.0796 2.00104-9.235575-2.46285-9.235575-4.30998 0-5.54141-4.002075-2.46285-7.54245 1.38533-1.539225 2.46285-3.848063 2.46285-5.233388 0-4.156088 5.6952-6.311025 10.9287-4.156088 2.46285 1.077525 6.00312 1.539338 8.00415.923625 4.30999-1.077525 13.69947-10.005188 12.46804-11.852325-1.07752-1.847137-10.00519-6.003113-12.77584-6.003113-3.54026 0-12.77583 4.925588-18.62505 9.851288-5.69531 4.771688-7.23453 4.925588-11.23661 1.385325-1.69324-1.539338-5.2335-2.61675-8.46596-2.61675-4.92559 0-7.08053 1.385325-15.8544 10.312988-5.5413 5.695313-11.39052 12.92985-12.77584 16.162313-3.54026 7.388438-14.77688 16.931813-36.63439 30.323364-2.61675 1.693237-8.00415 6.926738-11.69843 11.544525-3.84806 4.617788-11.39051 13.545451-16.93181 19.85648-9.85129 10.7748-12.31414 14.31506-15.5466 20.93388-.76961 1.69324-3.84806 5.5413-7.08053 8.46597-6.77272 6.61882-9.54348 11.85232-10.92881 21.2418-.4617 4.00207-1.84702 8.92766-3.07845 11.08271-1.07752 2.15494-2.30895 5.5413-2.77065 7.69624-.46181 2.15493-2.30895 5.5413-4.30999 7.69635-2.00103 2.00104-4.77168 6.15701-6.46492 9.23557-1.53923 2.92455-3.84806 6.00312-4.92559 6.61883-1.23142.6156-2.15494 3.69416-2.15494 6.61882 0 3.38637-.92362 5.6952-2.30895 6.15702-1.38532.61571-2.30883 2.92455-2.30883 6.00311 0 2.92455-.61572 5.5413-1.38533 6.00311-.76972.61571-2.92466 4.15598-4.7718 8.31195-1.84702 4.00208-3.84806 8.31207-4.61779 9.54349-.76961 1.23143-2.77065 5.3874-4.61767 9.23558-1.69324 3.84806-3.69428 8.00415-4.46389 9.23557-.92363 1.23131-5.2335 9.69728-9.69739 18.77895-4.46389 9.08156-8.92766 16.62402-9.85129 16.62402-.92351 0-3.23235-3.23247-5.07948-7.38844-1.84714-4.00208-3.84818-8.31207-4.61779-9.54349-1.38533-2.30884-3.54038-7.38844-8.31206-18.47104-3.69417-8.92777-7.23454-20.934-7.23454-24.93608 0-2.00103-1.07741-5.0796-2.30884-6.77272-1.23142-1.53934-2.30895-4.30999-2.30895-6.15701 0-1.84714-1.84702-8.00427-4.00208-13.85337-2.15493-5.84921-4.30987-12.00622-4.77168-13.69946-.4617-1.69312-1.69313-5.2335-2.92455-8.00415-1.23143-2.61675-2.15494-7.23454-2.15494-10.3131 0-3.07845-1.07753-8.15805-2.30895-11.2365-1.23143-2.92466-2.30884-9.85129-2.30884-15.3927 0-6.77273-1.07752-12.16013-3.23246-17.08571-1.84714-4.00208-4.00208-12.77595-4.77169-19.54868-.61571-6.77272-2.00104-16.470112-2.92466-21.549599-.76961-5.079601-1.53923-11.698426-1.38533-14.622976.1539-13.23765-2.00103-42.483602-3.38636-44.176839-4.00207-4.925588-5.3874 0-7.23454 25.397888-1.07752 14.161163-2.15493 28.168426-2.61675 31.092977-.46181 2.924662-1.38532 12.006225-2.15493 20.010379-.76962 9.23557-2.46285 17.39373-4.61779 22.16542-2.15494 4.46389-3.84818 12.77584-4.61779 20.77999-.76961 7.23454-2.00104 15.7005-2.92455 18.62505-.92363 2.92466-1.69324 7.23454-1.69324 9.54349 0 2.30884-1.07752 6.77272-2.46285 10.00519-1.38532 3.23235-3.38636 7.85013-4.46377 10.46688-1.07753 2.46285-3.07857 9.08168-4.61779 14.62298-1.38533 5.54141-3.54038 12.31414-4.7718 15.08479-1.23131 2.77065-2.15494 6.15701-2.15494 7.69635 0 2.92455-5.2335 20.31817-7.38844 24.47415-5.3874 10.3131-15.7005 32.94023-15.7005 34.32555 0 1.07753-.92351 3.69428-2.00103 5.84921-1.23132 2.30884-3.07845 6.15702-4.30988 8.77377-3.23246 6.61882-5.84921 5.69531-9.54338-3.07845-1.84713-4.30999-5.0796-10.6209-7.08063-13.85337-3.54027-5.84921-7.85025-14.16127-10.00519-19.24076-.46181-1.23143-3.38636-5.69531-6.31103-9.85129-2.92455-4.15597-5.8491-9.23557-6.46481-11.54452-.46181-2.15494-2.92466-6.46482-5.2335-9.54338-2.46285-3.07856-4.46389-6.31091-4.46389-7.23454 0-.76961-1.07752-2.30884-2.30883-3.38636-1.23143-1.07741-2.30895-2.92455-2.30895-4.15598 0-1.23142-1.84714-5.2335-4.30988-8.77376-2.30895-3.38636-5.84921-9.69739-8.00415-13.69946-2.15505-4.15598-6.46493-10.467-9.54349-14.16116-3.23246-3.69428-5.84921-7.54245-6.00311-8.77377 0-1.07752-1.53923-4.9257-3.38636-8.46596-1.84714-3.54038-5.0796-9.69739-7.23454-13.85336-2.15494-4.00208-6.77273-11.69843-10.31299-17.08583-3.69427-5.3874-6.61882-10.31299-6.61882-11.0826 0-1.84714-10.15921-22.62724-13.85337-28.47634-1.69324-2.616746-3.54026-5.695309-4.15597-6.926734-3.23247-6.310913-10.77492-15.392588-12.92985-15.392588-1.38533 0-3.69417 1.693237-5.0796 3.848175l-2.61664 4.002075-4.7718-4.002075c-2.61675-2.154938-5.07949-3.694275-5.3874-3.232463-1.53923 1.539225 4.61779 10.313101 10.1592 14.315176 3.54026 2.462738 6.46481 6.003114 6.92662 8.311954.3078 2.15493 3.69428 6.77272 7.23454 10.3131l6.46493 6.31091-4.7718 4.15597-4.77169 4.30999 3.69427 3.38636c2.15494 2.00104 3.84818 4.30988 3.84818 5.0796 0 2.61675-5.84921 4.92559-10.00519 3.84807-4.15609-1.07742-11.54452-10.9287-11.54452-15.23869 0-1.38533-2.00104-5.5413-4.61779-9.23546-2.61675-3.69428-4.61779-7.23454-4.61779-8.00427-.1539-.6156-2.15494-3.69416-4.61779-6.61871-2.61675-2.924661-4.61778-5.849212-4.61778-6.618824 0-1.385438-7.69624-11.852326-11.85233-16.162313-1.07741-1.077413-4.30988-5.541301-7.23443-10.005188-8.31206-12.468038-19.39477-24.782064-24.16646-26.783101-2.46274-1.077525-7.85025-4.925701-11.85232-8.773763-9.54338-8.927776-12.92974-9.081676-16.77792-.923625-3.69416 8.00415-9.23557 8.619863-10.7748 1.231425-.61571-3.386363-5.0796-8.927663-14.62297-18.471151-7.54234-7.388438-14.16117-13.54545-14.93089-13.54545-1.84703 0-9.23547 11.082712-9.69728 14.622975-.61571 5.3874 2.15494 17.547526 4.30988 19.394663 1.23142.923513 2.15505 2.30895 2.15505 3.078563 0 .769612 2.00103 4.309875 4.46377 7.85025 2.46285 3.694163 7.08064 10.620901 10.1592 15.546489 3.23235 4.771687 8.46585 11.390512 11.69832 14.469075 3.38636 3.232463 6.00311 6.926625 6.00311 8.465851 0 1.539337 4.00207 5.849212 9.23557 10.0053 6.92674 5.387404 9.23558 8.158054 9.23558 11.082604.1539 6.31102 4.77169 13.23765 13.39155 19.85647 5.54141 4.46389 8.15805 7.85025 8.92778 11.39051.61571 2.77065 2.15493 6.46493 3.23235 8.15817 1.23142 1.69312 2.15505 4.92558 2.15505 7.23442 0 2.30895.61571 4.46389 1.38532 4.9257 2.15494 1.38533 7.85025 13.08375 7.85025 16.1622 0 1.69324 1.23131 5.2335 2.61675 8.15805 1.38533 2.77077 3.54026 7.08064 4.77169 9.38959 1.23142 2.46274 2.30884 6.92663 2.61675 10.00519.3078 6.31091 2.61675 11.85221 8.61986 21.08779 2.15494 3.38636 5.5413 9.23557 7.38844 13.08375 4.30988 8.61986 5.6952 10.92881 12.62194 21.54971 2.92455 4.61768 7.08052 11.85221 9.08156 16.1622 2.00104 4.15598 4.61779 8.77376 5.54141 10.00519 1.07742 1.23142 4.46389 7.54234 7.54234 13.85336 3.23246 6.31092 8.46596 15.08468 11.69843 19.54857 3.23246 4.46388 6.00311 8.92777 6.00311 10.00518 0 1.23143 2.00104 4.46389 4.30988 7.38844 2.30895 2.92466 6.46492 9.85129 9.08167 15.3927 13.54545 27.86052 25.55168 52.33478 28.78414 58.49191 10.92881 21.2418 18.00934 36.48048 17.85544 39.09712 0 3.07856-4.15598 12.00634-9.23558 20.16439-1.69312 2.46285-4.61779 7.85025-6.46481 11.85233-3.69428 7.69623-6.46493 9.23557-8.00426 4.61778-.4617-1.38532-2.61664-5.3874-4.61768-8.77387-2.15505-3.38636-3.84817-7.54234-4.00207-9.38948 0-1.84713-2.00115-7.08052-4.61779-11.85232-2.46285-4.77169-4.61779-9.85118-4.61779-11.0826 0-3.23247-9.85129-21.0879-16.77803-30.78529-5.8491-8.15805-8.61986-12.46793-10.31298-16.1622-2.77065-6.92663-12.16013-24.47427-15.08479-28.47634-1.69313-2.61675-4.61779-7.38844-6.31091-10.7748-1.69324-3.38636-4.46389-8.31206-6.31103-10.7748-1.69312-2.61675-4.77169-7.69635-6.77272-11.54453-1.84714-3.84806-5.3874-9.38947-7.85025-12.46792-2.46286-3.07857-6.15702-9.08168-8.31196-13.39167-2.15505-4.30987-5.0796-9.08156-6.61882-10.46688-2.77076-2.77065-3.69428-4.46389-10.3131-16.77803-5.3874-10.31299-6.46493-12.00623-15.39259-25.08986-8.61986-12.62194-9.38947-14.00727-10.7748-17.23973-.92362-2.46285-2.61675-5.2335-8.92778-14.93089-2.30883-3.69416-4.15597-6.92662-4.15597-7.38844 0-.46181-3.07856-4.92558-6.92663-10.15908-3.84817-5.2335-6.92673-10.3131-6.92673-11.39052 0-1.07752-1.07742-2.77065-2.30884-3.84817-1.23143-1.07753-2.30895-2.92466-2.30895-4.15598 0-1.23142-2.00104-5.2335-4.30988-8.77387-2.30895-3.38637-5.84921-9.54338-7.85025-13.54545-1.84713-4.15598-4.15597-7.69635-4.9257-8.31195-.76961-.46182-1.38532-2.15505-1.38532-3.84818 0-1.53934-.61571-2.92466-1.38533-2.92466-.92351 0-2.46273-1.69313-3.54026-3.84806-1.07752-2.00104-4.92559-9.38959-8.61986-16.47012-3.69428-7.08063-7.54234-14.31517-8.61987-16.16231-3.23246-5.6952-17.85543-18.932849-20.93388-18.932849-1.53934 0-4.15609-1.847138-5.69532-4.002075-6.31102-9.389476-21.0879-23.704651-24.32036-23.704651-3.54026 0-7.85014-3.848175-10.6209-9.697276-1.23131-2.30895-3.38636-3.540375-6.92663-3.848175-4.15597-.461812-7.23453-2.61675-14.00726-9.697388-4.77169-4.925588-9.69739-9.081563-10.92882-9.081563-1.23131 0-3.69416-1.077525-5.3874-2.30895-1.53922-1.231425-4.46377-2.308838-6.15701-2.308838-3.07856 0-20.62609-6.772837-30.32348-11.698425-5.3874-2.61675-18.31713-2.77065-20.77998-.3078-1.38533 1.385325-3.07856 1.385325-7.23454-.154013-7.54234-2.61675-9.85129-.615712-4.46389 3.848176 2.46285 2.001037 5.38752 3.540262 6.31103 3.694275 1.07752 0 2.92455 2.001037 4.15597 4.463775 1.38533 2.46285 3.38637 4.7718 4.77169 5.2335 4.00208 1.539338 2.61675 4.155975-2.30884 4.155975-6.00311 0-6.15701 3.540376-.30791 8.619863 2.30895 2.001038 6.46493 5.695313 9.23558 8.158163 5.07959 4.617788 6.46492 9.389476 2.77076 9.389476-1.07753 0-3.07856 1.077525-4.15609 2.46285-1.69312 2.001037-1.53922 2.61675.61572 4.002075 1.53933.769612 2.30894 2.154937 1.69323 2.92455-.92362 1.693238-5.3874-2.46285-12.00622-11.390513-2.46285-3.078562-5.69532-5.695313-7.38844-5.695313-1.69324 0-4.00208-2.001037-5.54141-4.617787-3.07845-5.387401-3.69417-5.541301-9.08157-2.001038-3.69427 2.46285-4.00207 2.46285-5.84921 0-3.84817-5.3874-7.69635-2.154938-6.15712 5.0796.76972 3.232463 2.61675 5.387401 6.61882 7.234538 15.8544 7.542338 60.33904 46.177768 74.80811 65.110728 3.54027 4.61779 8.15805 11.54441 10.00519 15.39259 6.46493 13.23765 11.69843 21.54971 17.85544 28.78413 7.08064 8.31207 16.1622 21.54972 16.1622 23.70466 0 .61571 2.00104 3.69427 4.61779 6.46492 2.46285 2.92455 4.61779 6.15701 4.61779 7.08053 0 1.07752 1.69324 4.15608 3.69427 6.77283 3.54027 4.77169 5.2335 8.00415 14.16117 26.47531 2.46285 5.07948 5.5413 10.15908 6.77272 11.54441 5.0796 5.2335 12.31414 15.23869 12.31414 16.93181 0 1.07753 2.00104 4.46389 4.30988 7.54245 2.46285 3.07845 5.69531 8.31195 7.38843 11.69832 3.07857 6.15712 8.46597 14.77698 22.01153 35.40307 3.84806 5.8491 8.61986 13.85325 10.7748 17.70143 2.00104 3.84817 5.07949 8.92777 6.77273 11.39051 4.61778 6.61883 8.31206 14.00738 11.69842 24.01256 2.92455 8.61987 4.77169 13.23765 8.77376 22.62713 1.23143 2.61675 2.15494 5.5413 2.15494 6.31091 0 .92363.92351 3.54027 2.15494 6.00312 1.23142 2.30895 3.38636 7.38843 4.77169 11.23661 2.61675 6.77272 3.84817 9.85129 9.08167 22.01141 1.38533 3.23246 2.46285 6.77273 2.46285 7.85025 0 1.07753 2.15494 4.92559 4.61779 8.46597 2.61675 3.54026 5.07949 8.61986 5.5413 11.39051 1.53923 10.00519 4.46389 17.54752 10.92881 28.47634 3.69417 6.31091 6.61883 11.69831 6.61883 12.00622 0 .3078 3.69416 6.00312 8.15805 12.62194 4.61779 6.46493 12.16012 19.85648 17.08583 29.55375 9.08156 18.31725 10.6209 21.2418 13.23765 25.70569.92351 1.53923 2.00103 3.84818 2.46273 5.0796.46182 1.23143 1.69324 4.30988 2.92467 6.92663 1.07741 2.46285 2.46273 5.84921 2.92455 7.54233 1.23142 3.69428-6.77273 20.6262-13.23765 28.16854-2.77065 3.23247-6.46493 8.61987-8.15805 12.00623-1.53934 3.38636-4.92571 8.61986-7.23454 11.69842-2.30895 3.07845-4.30999 6.77273-4.30999 8.00415 0 1.23132-1.07741 3.07845-2.30884 4.15598-1.23142 1.07752-2.30895 2.61675-2.30895 3.38636 0 .92351-2.00104 4.15598-4.61767 7.38844-2.46285 3.23246-4.61779 6.15701-4.61779 6.61883 0 .46181-2.00104 4.00207-4.61779 7.69635-2.46285 3.84806-4.61779 7.23453-4.61779 7.69623 0 .61572-2.15505 4.00208-4.61778 7.85025-2.61675 3.69428-5.0796 9.08168-5.54142 12.00623-.61571 2.77065-1.53922 5.69531-2.15493 6.61882-.46182.76962-3.38637 7.08064-6.15702 13.85337-2.77065 6.77272-5.69531 12.92974-6.31102 13.85336-.61571.76961-3.23235 6.77273-5.8491 13.08364-3.69428 8.92777-6.61883 13.23765-12.77595 18.62516-6.61883 6.00312-7.85014 8.15805-8.00415 12.92974-.1539 3.54026-1.23143 6.15701-2.92455 7.08064-1.38533.92351-2.61675 3.23246-2.61675 5.2335 0 2.15494-.61572 3.84806-1.53923 3.84806-.76972 0-1.53934 1.07753-1.53934 2.46285 0 1.84714-1.07741 2.30895-3.69416 1.84714-3.07856-.61571-4.00207 0-4.77169 3.07845-.46181 2.00104-.61571 4.00207-.15401 4.46389 1.23143 1.23142 10.3131-4.61779 14.46908-9.38948 1.38532-1.69324 4.77168-5.0796 7.38843-7.69635 2.77065-2.61664 5.3874-6.31091 6.00312-8.31195.46181-1.84714 1.69323-3.07856 2.46285-2.61675 2.15493 1.38533 1.69323 9.69739-.76962 11.08271-2.46285 1.53923-7.08063 10.15909-7.08063 13.54545 0 3.54027-4.00208 10.467-14.00727 23.85856-4.61778 6.31091-10.15908 14.31517-12.16012 17.70153-2.00104 3.38637-6.31103 9.38948-9.54349 13.23765-3.54026 4.30988-5.8491 8.61987-5.8491 11.0826 0 4.46389 3.69416 5.84922 5.23339 1.84714.46181-1.38532 2.77076-2.30884 5.84921-2.30884 6.92674 0 12.00623-3.84817 12.16024-8.92777 0-2.30884 1.69312-7.23454 3.69416-11.08271 2.00104-3.84807 4.30999-8.46585 5.2335-10.31299.76961-1.69324 2.30895-3.69428 3.07856-4.30999.92352-.4617 1.69313-2.30884 1.69313-3.84806 0-1.53934.92362-3.54038 2.15494-4.15609 1.23142-.61571 2.46285-3.54026 2.77076-6.46481.3078-2.92467 1.38532-5.54142 2.46274-6.00312 2.77076-.76972 2.46285 8.15805-.4617 11.0826-3.38637 3.38637-2.77077 8.92778 1.53922 13.08376 5.0796 4.77168 7.54234 2.77065 14.46908-11.39052.76961-1.69324 3.54026-5.54141 6.00311-8.46596 4.00208-4.61779 5.07949-5.0796 7.69624-3.54026 2.61675 1.53922 3.69427 1.07741 7.85025-3.23247 2.61675-2.61675 4.77169-6.31102 4.77169-8.15805 0-4.15608 13.39166-20.47218 16.93192-20.47218 6.00311 0 4.77169 8.92766-1.53922 12.31402-4.46389 2.30895-4.15609 6.61883.4617 5.2335 1.84713-.61571 3.84817-1.69312 4.30998-2.46285.4617-.76961 2.30884-1.38532 3.84818-1.23131 1.69312.1539 3.69416.3078 4.77169.1539 1.84702-.1539 14.31506-18.00934 14.31506-20.47219 0-2.00104 4.46389-10.00519 9.38948-16.62401 2.15505-2.92455 4.46388-6.46493 4.9257-7.69635.61571-1.23132 2.46273-4.46378 4.15597-6.92663 1.69324-2.61675 3.69428-6.15701 4.46389-8.00415.76961-1.69324 2.30884-3.69427 3.07845-4.30999.92362-.4617 1.69324-2.30883 1.69324-4.00207 0-1.84703 3.07856-6.77273 6.92662-11.0826 3.84818-4.46389 6.92674-8.61987 6.92674-9.23558 0-.76961 1.84714-4.00207 4.30988-7.08064 2.30895-3.07845 5.54141-8.15805 7.08063-11.39051 1.69313-3.07856 3.69428-5.69531 4.77169-5.69531 1.84714 0 6.92674 9.38959 6.92674 13.08375 0 1.07752.92351 4.00207 2.15494 6.46492 4.77168 9.69739 16.77791 35.86478 23.39673 50.79556 5.69532 13.08375 6.92663 16.77802 13.08376 35.09516 1.69312 5.0796 3.69416 11.23661 4.61778 13.85336.92352 2.46285 2.30884 7.38844 2.92455 10.7748 3.84818 18.62506 6.15702 26.93712 9.23558 34.63336 1.84714 4.61778 3.69427 10.1592 4.15597 12.31413.46182 2.15494 1.38533 4.61779 2.15494 5.3874.61571.92352 2.00104 4.46389 2.77076 7.69635 2.00104 8.15806 5.6952 20.31818 8.00415 26.93701 3.07845 9.23557 5.5413 16.0083 7.54234 21.54971 2.30895 6.61882 4.30999 15.08468 6.00311 26.4753.76962 4.92559 3.23247 12.62194 5.23351 17.08571 2.15493 4.46389 4.30987 10.1592 4.92558 12.62194.61572 2.61674 1.84714 7.08064 3.07857 10.00524 1.07752 2.9246 2.46285 9.5434 2.92455 14.6229 1.69323 13.6995 7.38855 34.7874 10.6209 38.9434.76972.9235 2.00103 4.1559 2.46285 6.9266.61571 2.6167 1.69323 4.7718 2.46285 4.4639 1.53922-.3078 1.53922-78.1945 0-143.45913-.46182-18.16324-.76962-38.63543-.76962-45.40815.1539-17.54764.1539-16.77803-1.38532-36.17269-.92363-9.69728-2.15505-21.2418-3.07856-25.39778-.76962-4.30987-1.53923-11.08271-1.53923-15.08478-.15401-4.00208-1.23142-8.92767-2.46285-10.9287-1.53922-2.15494-2.77065-9.08168-3.38636-17.23973-.46181-7.54234-1.38533-14.46908-2.15494-15.23869-1.07752-1.53922-2.30895-7.08064-6.00311-27.70672-1.84714-10.77481-4.30999-17.39363-9.38959-25.08987-2.92455-4.30999-4.46378-8.61986-4.46378-12.31414 0-6.61882-10.1592-49.56424-15.7005-65.72644-.76961-2.61675-2.00103-7.08063-2.61675-10.00518-.61571-2.92456-2.00103-6.92663-2.92455-8.77377-1.07752-1.84714-1.84713-5.0796-1.84713-7.23454 0-2.15493-.61572-4.30998-1.53923-4.77168-2.61675-1.69324-1.69324-5.54142 4.61779-18.62505 3.38636-7.08064 6.15701-13.69947 6.15701-14.77699 0-1.07741 1.07741-3.38637 2.30884-4.92559 1.23142-1.69324 2.30895-4.30988 2.30895-6.00311 0-1.53923.92351-4.77169 2.15494-6.92663 1.23142-2.30895 2.61675-5.38751 3.07856-6.92674.4617-1.38532 2.15494-2.61675 3.69416-2.61675 2.00104 0 3.84818 2.46285 6.31103 8.77377 1.84714 4.9257 4.46377 11.23661 5.6952 14.00726 1.23142 2.77076 2.15505 6.15713 2.15505 7.69635 0 1.38533 1.07741 4.00208 2.30884 5.5413 1.23142 1.69324 2.30883 4.30999 2.30883 5.69531 0 1.53923 1.07753 4.61779 2.30895 7.08064 6.77273 13.23765 14.16117 31.8627 16.0083 40.48257.61572 2.92455 2.00104 6.92662 2.92455 8.77376 1.07753 1.84714 1.84714 5.07949 1.84714 7.23454 0 2.15493.92363 6.15701 2.15494 8.92766 1.23142 2.77065 3.54037 9.54337 5.38751 15.08479 5.3874 17.23972 6.00311 19.08686 13.23765 36.17257 1.07742 2.46285 2.30884 6.00312 2.77065 7.69635.4617 1.69313 2.30884 6.92663 4.15598 11.54442 3.54026 8.92777 4.92559 13.39155 7.69635 24.62816 1.07741 3.84818 2.46274 8.92778 3.38636 11.54453.76961 2.46273 2.15494 8.00415 3.07845 12.31402.76961 4.15598 2.15505 8.31206 2.92466 9.23558 2.30884 2.30895 6.00312-3.54027 6.00312-9.38948 0-2.61675 1.07741-7.85025 2.30883-11.39051 1.23143-3.54026 2.30895-11.54453 2.30895-17.85544 0-7.85025.61572-11.85233 2.30884-13.54545 1.23143-1.23143 2.30895-3.54038 2.30895-5.2335 0-1.53934.92351-5.84921 2.15494-9.69739 1.07741-3.69416 3.23246-11.23661 4.77169-16.77791 1.38532-5.5413 3.38636-12.16013 4.61778-14.62298 4.46389-10.6209 5.84922-14.31517 8.00416-21.54971 1.23142-4.30988 2.77065-11.23661 3.54026-15.39259 1.07752-7.54234 2.92466-13.69935 6.92674-23.08894 3.69416-9.08156 11.69831-26.16739 13.08363-28.47622 2.46285-3.69428 4.7718-9.54349 6.92674-16.93193 1.23143-3.84817 3.84818-11.85232 5.84921-17.70154 2.15494-6.00311 4.30988-13.39155 4.92559-16.62401.61571-4.30988 1.69324-5.6952 4.00208-5.6952 1.69323 0 3.38636 1.23142 3.84817 2.61675.46181 1.53922 1.84714 4.61779 3.07856 6.92662 1.23132 2.15494 2.15494 5.2335 2.15494 6.61883 0 1.38532.92352 4.46389 2.15494 6.61882 1.23143 2.30895 4.30999 9.23558 6.77273 15.39259 4.30998 10.00519 4.61778 11.54453 2.77065 15.3927-6.00312 12.31403-8.31195 18.93285-11.54442 34.17154-.61571 2.92455-2.00104 6.92663-2.92455 8.77377-1.07752 1.84713-1.84714 4.9257-1.84714 6.77272 0 1.69324-1.07752 6.46493-2.30895 10.467-3.84806 12.46804-11.54441 46.94749-11.54441 52.18099 0 2.77065-1.84714 7.85014-4.15597 11.54441-4.30999 6.61883-8.77377 21.70362-10.6209 36.48049-.46182 4.61779-1.69324 9.38948-2.46285 10.31299-.92352 1.07753-1.84714 8.00426-2.30884 15.3927-.46181 7.85014-2.15505 17.54753-4.00208 22.78103-2.92466 8.77376-4.9257 24.01245-6.46492 50.79555-.46181 6.77284-.92363 60.33904-1.23143 119.13886-.1539 84.35151.1539 106.97861 1.69324 107.44031 1.23131.4618 1.84703-.9235 1.84703-4.3099 0-2.7706.92362-6.157 2.15505-7.3884 3.38636-4.156 5.6952-12.3141 9.54337-34.6334 2.00104-11.8523 4.30988-22.1654 5.2335-23.0889.76961-.7696 1.53923-3.5403 1.53923-6.0031 0-2.4629 1.07752-6.46494 2.30895-8.92768 1.23131-2.46285 3.38636-6.46492 4.61778-8.92777 1.23132-2.46285 2.30884-7.23454 2.30884-10.7748 0-3.38636 1.07753-9.54349 2.30895-13.54556 1.23131-4.00208 3.38636-11.23651 4.77169-15.85429 1.38532-4.61779 3.38636-10.92882 4.46377-13.85337 1.84714-5.0796 4.30999-13.69946 9.54349-32.32451 1.38533-4.61779 3.38637-10.7748 4.46378-13.54545 1.23142-2.77065 2.15505-6.15713 2.15505-7.38844 0-1.38544.92351-4.30999 2.15494-6.46492 3.69427-7.54245 5.84921-14.77688 7.08063-24.16647.61572-5.23339 1.84703-10.7748 2.77065-12.62194 1.07742-1.84702 1.84714-4.77168 1.84714-6.61882 0-1.84703.92351-5.5413 2.15494-8.15805 1.23142-2.77065 2.46285-6.61883 2.92455-8.77376.92362-5.0796 4.00207-13.54545 6.61882-18.93285 1.23143-2.46285 2.15494-5.38752 2.15494-6.46493 0-1.07753.92363-4.00208 2.15505-6.46493 1.07741-2.30883 3.07845-6.77272 4.30988-9.69738 3.84817-8.92767 7.69635-17.54753 9.08167-20.01038 3.23247-5.8491 7.54234-16.0083 7.54234-17.54753 0-1.07752 1.07753-3.23246 2.30895-4.9257 1.23143-1.53922 2.30884-4.15597 2.30884-5.5413 0-2.46285.92362-4.92558 6.92674-18.93285 1.07741-2.61675 2.46273-6.00311 3.07845-7.69635.76961-2.77065 1.23142-2.61675 4.61778 1.53923 2.00104 2.61675 4.77169 7.08064 6.31103 10.00519 1.53922 2.92466 4.77169 7.85025 7.08052 10.92881 2.30895 3.07856 4.30999 6.61882 4.30999 7.85025 0 1.23142 3.07845 5.3874 6.92663 9.23558 3.84817 3.84806 6.92674 8.31195 6.92674 9.69727 0 1.38533 2.15493 5.69531 4.61778 9.54349 2.61675 3.69416 4.61779 7.23442 4.61779 7.85014 0 .61571 4.15598 7.23453 9.23546 14.93088 5.0796 7.54234 9.23558 14.93078 9.23558 16.31611 0 1.38543 1.07752 3.38647 2.30895 4.46388 1.23142 1.07753 2.30884 2.46285 2.30884 3.23247 0 2.30883 12.46803 20.01037 14.77698 20.934 1.23132.4617 4.46378-.15402 7.08053-1.23143 3.69428-1.53934 5.0796-1.53934 5.54141-.15401.76962 2.30895 3.38637 2.46285 3.38637.15401 0-2.15505-7.23454-9.08167-9.23558-9.08167-.92363 0-2.46285-2.30884-3.69428-5.2335-1.23142-2.92455-3.69416-6.00312-5.3874-7.08064-3.54026-1.84703-4.30987-7.54234-1.53922-10.31299 1.23142-1.23143.92351-2.77065-1.07753-5.84921-2.30883-3.54027-2.30883-4.30988-.3078-6.31092 3.54027-3.69427 10.15909-.30791 12.92974 6.61883 1.38533 3.23235 4.15598 8.00415 6.15702 10.7748 2.00103 2.61675 3.69427 5.3874 3.69427 5.84921 0 .61572 2.15494 3.69417 4.61779 6.92663 2.61675 3.23246 4.61779 6.46492 4.61779 7.23454 0 .76961 1.23142 2.46285 2.77065 3.84817 4.77168 4.30988 10.467 11.0826 13.39155 15.8544 4.61778 7.38844 16.47011 19.24077 21.54971 21.3957 2.61675 1.07742 6.92663 4.15598 9.54338 6.92663 2.6168 2.61675 5.6953 4.77169 6.9266 4.77169 3.0786-.1539 7.3886-3.84807 7.3886-6.46482 0-1.23142.4617-2.77065.9235-3.23246 1.5392-1.38532 6.7727 1.84714 6.7727 4.15598 0 3.07856 21.0879 22.47322 23.5508 21.54971 1.0774-.30791 3.2323-3.23246 4.6178-6.15713 2.4627-4.92558 2.4627-6.15701.3078-13.54545-1.3854-4.46388-3.5403-9.38947-5.0796-11.08271-1.5393-1.53922-4.6178-6.31091-7.0806-10.467-2.4628-4.15598-8.1581-11.39051-12.6219-16.0083-4.6178-4.61779-8.3121-8.92766-8.3121-9.69728 0-1.84713-5.0795-6.92673-9.0815-8.92777-1.6933-.92351-4.9257-5.84921-7.2346-10.9287-2.30893-5.0796-4.61777-9.23558-5.23348-9.23558-2.46285 0-11.85233-10.467-13.69946-15.39259-2.00104-5.2335-6.77273-15.39258-9.23558-20.01037-2.77065-4.7718-6.31091-14.00726-6.31091-16.0083 0-1.23143-1.07753-2.92467-2.30895-4.00208-1.23143-1.07752-2.77065-4.30999-3.23246-7.54245-1.23132-6.31091-4.00208-12.62194-8.31195-19.39466-1.69324-2.61675-3.69428-6.00311-4.61779-7.69635-2.30895-4.46378-4.92559-8.61986-9.54338-14.77688-2.46285-3.07845-4.30998-6.00311-4.30998-6.46492 0-.4617-2.00104-4.00208-4.61779-7.69624-2.46285-3.84818-4.61779-7.38844-4.61779-8.00415 0-.46181-1.69313-3.23246-3.54026-5.84921-2.00104-2.77065-5.2335-7.85025-7.08064-11.54442-1.84714-3.69427-6.00311-10.3131-9.38948-14.62297-3.23246-4.46389-6.77272-9.69739-7.69635-11.85233-2.15493-5.0796-5.07948-9.85129-7.54233-12.92985-2.77065-3.38636-2.46285-12.00622.61571-18.16324 1.53922-2.77065 3.23246-6.15701 4.00207-7.38843 6.46493-12.31414 16.77792-33.55594 16.77792-34.47946 0-.76961 2.00103-3.84817 4.46388-6.92673 2.46285-3.07845 6.00312-8.31195 7.85025-11.69832 1.84714-3.38636 4.61779-8.31206 6.15702-10.7748 5.0796-8.00415 13.85336-26.3214 13.85336-28.63024 0-1.23142 1.07753-3.69427 2.30884-5.38751 1.23142-1.53922 2.30895-4.30987 2.30895-6.00311 0-1.69313 1.07752-4.46378 2.30884-6.00311 1.23142-1.69313 2.30895-4.46378 2.30895-6.15702 0-1.84713 1.07752-4.61778 2.30883-6.15701 1.23143-1.69324 2.30895-5.69531 2.30895-8.77376 0-3.23247.61572-6.15713 1.38533-6.77284 1.69312-.92351 6.15701-10.15909 9.85129-20.01038 4.92558-13.23765 7.54233-20.16427 9.38947-24.62816 3.84818-9.23558 6.00311-15.54649 6.61883-20.31818.46181-2.77076 1.69312-5.84921 2.92455-6.77283 1.23142-.92352 2.15505-2.30884 2.15505-3.07845 0-.61572 2.00104-4.15598 4.46377-7.85025 2.46285-3.69428 6.00312-9.69739 8.00412-13.54546 1.8472-3.84817 4.9257-9.08167 6.7728-11.54452 1.8471-2.61675 3.8481-5.6952 4.4639-6.92663 1.2314-2.77065 3.2324-6.00311 10.3131-16.93192 2.9245-4.61779 6.9266-11.39051 8.7737-14.93078 1.6931-3.54026 5.3874-9.38947 8.0042-12.92985 2.4628-3.54026 4.6178-7.38844 4.6178-8.46585 0-1.07752 4.002-7.38844 8.9276-14.00726 7.6964-10.467 10.1592-14.93089 14.777-26.62932.6157-1.23131 2.3088-4.46377 4.0021-6.92662 1.5392-2.61675 4.7717-8.31195 6.9266-12.77584 2.309-4.30999 4.6178-8.00415 5.3874-8.00415.6157 0 2.4629-2.61675 4.156-5.84921 4.31-8.46596 10.6209-18.16324 20.7801-31.24699 4.9256-6.46493 8.9276-12.92985 8.9276-14.16116 0-1.23143 1.0776-3.07857 2.309-4.15609 1.2313-1.07741 2.3088-3.07845 2.3088-4.61779 0-1.53922 1.0776-3.54026 2.309-4.61779 1.2313-1.07741 2.3088-2.61675 2.3088-3.38636 0-2.77065 9.6974-14.00726 25.3978-29.55375 23.3967-22.935037 27.7067-27.091012 29.0921-27.091012.6157 0 4.7717-3.078563 9.0816-6.772726 4.4638-3.694275 10.4669-7.85025 13.3916-9.389475 8.158-4.002075 10.7748-6.926738 10.7748-11.852325 0-3.540263-.6157-4.309988-3.8482-4.309988-2.1549 0-4.3099 1.077525-4.7717 2.30895-1.2314 3.078563-3.6941 2.92455-6.0031-.307913-2.4628-3.23235-6.6188-1.693125-8.4659 3.386476-.7697 2.154937-2.6168 3.848062-4.3099 3.848062-2.9247 0-9.5434 6.003113-9.5434 8.619863 0 2.001038-8.466 8.312063-11.0827 8.312063-.9236 0-.4618-1.077525 1.2314-2.30895 2.9246-2.308838 2.9246-2.462738-.4618-4.771688-5.5413-3.848175-4.31-7.234537 5.6953-15.8544 5.0795-4.463776 9.2355-8.927663 9.2355-9.851288 0-1.847026 10.9288-9.389476 18.9329-12.929739 2.3089-.923512 4.156-2.61675 4.156-3.386362 0-.769613 3.6943-3.386363 8.1581-5.5413 4.31-2.308951 9.0816-5.079601 10.467-6.311026 1.2314-1.231425 3.5403-2.154937 4.7717-2.154937 1.3854 0 3.2324-1.077525 4.3099-2.30895 1.0776-1.231425 3.2325-2.308838 4.6178-2.308838 4.4639 0 7.6963-1.693237 7.6963-4.002075 0-2.30895-4.7717-2.61675-10.0052-.769612zm-1016.68172 44.022826c3.07856 3.694163.76961 4.309875-3.23246.923513-2.92455-2.462738-3.07856-3.07845-1.23143-3.232463 1.38533 0 3.38637 1.077525 4.46389 2.30895zm900.46752-.769612c0 1.847137-4.3099 3.848175-5.5413 2.61675-1.3854-1.385325.9236-4.156088 3.3863-4.156088 1.2315 0 2.155.769725 2.155 1.539338zm23.0889 9.235575c0 1.847025-4.3099 3.848063-5.5413 2.61675-1.3853-1.385325.9235-4.156087 3.3864-4.156087 1.2314 0 2.1549.769725 2.1549 1.539337zm-19.3946 17.547526c-2.6168 4.155975-12.3142 9.697388-14.0073 8.15805-1.5392-1.693125 11.8523-13.23765 14.3151-12.314025 1.6932.615712 1.5393 1.385325-.3078 4.155975zm-23.7047 20.318288c0 1.693125-9.6973 13.545447-16.47 20.164277-3.6943 3.69427-6.6188 7.23454-6.6188 8.15805 0 .76961-.7698 1.53934-1.5394 1.53934-.9235 0-2.3088 1.53922-3.2324 3.54026-.9235 2.00104-2.9246 4.30987-4.4638 5.3874-2.7707 1.69324-2.9247 1.53922-1.0775-2.46285.9235-2.30884 3.6942-6.00311 6.157-8.31195 2.3089-2.30895 4.1561-4.61779 4.1561-5.0796 0-.4617 1.2313-2.00104 2.7706-3.54026 1.3853-1.53923 6.0031-6.77273 10.313-11.544529 6.9267-8.00415 10.0052-10.312988 10.0052-7.850138zm-420.21813 186.866217c.4617 7.23454 1.69312 14.62298 2.77065 16.47012.92351 1.84713 1.84714 5.6952 1.84714 8.61986 0 2.92455 1.07741 8.31195 2.30883 11.85232 1.23143 3.54027 2.30895 8.31195 2.30895 10.6209 0 2.15494 1.84703 6.77273 4.15598 10.15909 2.30884 3.54026 4.77169 9.54338 5.3874 13.85337.46181 4.15597 2.77065 14.31506 4.77169 22.31921 6.92674 26.93711 7.85025 32.01671 6.15701 35.86478-2.77065 5.54141-4.77169 12.16023-5.8491 18.77906-.61571 3.23235-2.00104 8.00415-3.23246 10.31299-1.23143 2.30895-2.15494 5.84921-2.15494 7.85025 0 2.15493-1.69324 8.15805-3.69428 13.54545-2.00103 5.3874-4.15597 13.69946-4.77168 18.31725-.61572 4.61779-1.84714 9.69727-2.61675 11.23661-.76962 1.53923-2.30895 7.85025-3.23247 13.85336l-1.84713 10.92871-3.07845-4.61779c-1.53934-2.46285-3.23247-8.15805-3.54038-12.92974-.4617-4.61779-1.69312-9.85129-2.77065-11.54453-1.23142-1.69312-2.15494-5.3874-2.15494-8.46585 0-3.07856-.92362-6.77283-2.00103-8.46596-1.23143-1.69324-3.23247-6.92674-4.77169-11.54453-1.38533-4.61778-3.69428-10.7748-4.9257-13.39155-1.23143-2.77065-3.23246-7.23453-4.30988-10.00518-1.23142-2.77065-3.23246-7.69624-4.61779-10.9287-1.38532-3.23247-2.46285-7.38844-2.46285-9.23558 0-2.00104-1.07752-4.9257-2.30883-6.61882-3.23247-4.30999-2.77077-12.62194 1.69312-30.32348 2.30895-8.61986 4.61779-19.24076 5.2335-23.39674.46181-4.30987 2.61675-10.467 4.77169-13.85336 4.30999-7.23454 8.92778-23.55064 8.92778-32.47842.1539-3.38636 1.23142-7.54233 2.46273-9.23557 1.53934-2.00104 2.15505-6.77273 2.30895-14.77688 0-14.16116.92352-16.93181 5.2335-16.3161 2.92455.4617 3.23247 1.69313 4.00208 13.54545zm-182.86426 27.70673c2.61675 2.46274 2.92466 3.54026 1.53934 4.92559-1.53934 1.53922-2.15494 1.23142-2.77065-1.53923-.61571-1.84714-1.53934-3.38636-2.30895-3.38636s-1.38533-.76961-1.38533-1.53934c0-2.30884 1.23143-1.84702 4.92559 1.53934zm-122.21719 94.51058c.4617 1.84714-.15402 2.61675-1.53934 2.15494-1.07741-.46182-2.30884-2.00104-2.46285-3.38637-.4617-1.84714.15401-2.61675 1.53934-2.15494 1.07741.46182 2.30883 2.00104 2.46285 3.38637zm578.76201 17.23972c-3.84817 4.00208-5.84921 4.61779-5.84921 2.00104 0-2.15494 6.61882-7.54234 8.15805-6.46492.61571.30791-.4617 2.30895-2.30884 4.46388zm-246.28175 193.33115c0 6.61882-.92351 12.62194-2.15494 14.62298-1.23142 1.84713-2.15493 4.46388-2.15493 5.69531 0 3.38636-2.92467 4.61767-4.00219 1.69312-.6156-1.38532.15401-3.69416 1.53934-5.2335 1.38532-1.53922 2.46285-4.00207 2.46285-5.5413 0-1.53922-1.07753-4.00207-2.46285-5.5413-2.46285-2.77076-2.30895-4.15609.76961-9.08167.76961-1.23143 1.84714-3.54027 2.30884-5.0796 2.00103-6.15702 3.84817-1.84714 3.69427 8.46596zm37.86582 208.56983c-1.53923 7.08064-2.00104 8.15805-3.69428 8.15805-1.69312 0-2.15494-9.69727-.4617-11.23661 2.61675-2.77065 5.07949-.92351 4.15598 3.07856zm-5.2335 15.8544c0 3.38637-2.46285 5.3874-3.84818 3.07845-1.38532-2.15493.61571-8.00415 2.46285-6.92662.76961.61571 1.38533 2.30884 1.38533 3.84817z" style="stroke-width:.153926"/></svg>