<svg height="960" style="" width="840" xmlns="http://www.w3.org/2000/svg"><path d="m234.7935 1078.0992-1.87453-2.0236.53181-214.2487c.42938-174.00105.348-214.46629-.435-215.41088-.56128-.67774-2.16063-1.16183-3.83395-1.16183-3.19873 0-1.12957-2.3477-60.96569 69.18526-12.65179 15.12552-23.61752 27.71009-24.36829 27.96625-.75211.24416-2.81847 1.64456-4.5914 3.08748-3.79663 3.08744-8.25796 4.45683-12.81273 3.94326-6.44812-.72828-5.94254 4.11458-6.2243-59.86973l-.24416-56.7059 3.19747-7.88609c4.84173-11.9342 7.01949-15.56688 14.30827-23.86696 2.80022-3.19128 9.92888-11.54577 15.83774-18.56814 11.0012-13.07371 12.46728-14.7501 15.96489-18.25695 1.10712-1.11272 2.87347-3.2832 3.91296-4.82994 1.04538-1.54673 13.67289-16.76153 28.06405-33.8153 14.39123-17.05312 26.42116-31.41988 26.73359-31.92551.3129-.4897 1.38637-3.71102 2.38755-7.11826 1.70152-5.7958 1.82078-7.37815 1.83538-24.33221.0168-20.48845.12172-20.15831-5.55891-17.64553-2.66018 1.17447-9.82841 9.14925-43.89864 48.82336-22.39597 26.07894-41.17075 47.41663-41.72161 47.41663-.55147 0-1.44292.55143-1.9809 1.1801-2.77567 3.35026-10.39039 5.4657-14.62413 4.06573-5.02556-1.65675-4.86054.48972-4.86054-62.2211 0-48.45226.18383-56.56707 1.11835-58.41955.616-1.18569 1.12395-2.6596 1.13097-3.27702.003-.61602 1.07486-3.15482 2.37842-5.6309 2.30489-4.37122 7.57194-10.80222 55.12116-67.263 12.36932-14.68836 27.82256-33.10855 34.33984-40.93356l11.84901-14.22736 4.83921-12.01656 4.8392-12.01726.00061-37.92924.00069-37.92863-4.79501 5.25777c-40.02231 43.88151-56.02511 61.00986-57.79198 61.85662-5.60634 2.69007-11.27133 1.29655-14.52267-3.57043l-1.70573-2.54934.42938-58.66289.42938-58.66287 1.84029-4.98275c1.01451-2.73891 2.5555-5.61251 3.43601-6.38398.87419-.77037 17.42303-20.41817 36.77007-43.660918l35.17259-42.25888v-22.974938c0-24.520515.42937-28.295784 4.00022-35.322332 1.84816-3.637751 41.05695-42.32263 42.89298-42.32263 1.82921 0 4.81464 1.626316 5.35811 2.916247.28205.666805.43919 61.474631.35502 135.128453-.1163 103.439578.0519 134.163128.74931 135.004378 2.19431 2.64109 4.20075 1.30778 12.20486-8.11175 26.60601-31.3178 51.91647-62.29509 53.50703-65.48709l1.85307-3.71721v-46.268428c0-34.98544.2203-46.4885.90225-47.16959.49393-.48942 2.50429-.90521 4.46371-.90521 3.26904 0 3.98312.36743 8.67486 4.43249 7.11139 6.16518 32.52899 32.76797 34.05279 35.64085 1.16185 2.18885 1.28533 24.260658 1.70405 302.982128.48971 326.61493.71142 307.3284-3.66642 318.22318-1.86359 4.63459-5.17499 8.84587-29.53866 37.55429-15.09245 17.78252-39.24224 46.35829-53.66677 63.50134-14.42453 17.143-27.19313 32.19939-28.37452 33.45823l-2.14773 2.28651-.0672 61.92764c-.0383 34.05985-.33117 74.93954-.64687 90.84334-.77597 38.78761 1.16185 33.32011-21.86612 61.69771-14.34542 17.678-18.60518 22.4517-21.50018 24.0938-4.56334 2.5861-6.58099 2.6045-8.93668.061zm83.0966-310.42132c29.00216-34.94269 28.60257-34.3429 34.42098-51.64857l3.09784-9.21284v-102.7927-102.79211l-2.06522-.79423c-4.86783-1.86469-4.93084-1.84647-8.38452 2.57375-1.80788 2.3171-15.11846 18.42507-29.57832 35.80043-20.10827 24.16226-26.48518 32.3113-27.11709 34.65349-.58655 2.17652-.76896 35.7674-.63144 116.44906l.19505 113.38726 1.78472-1.85249c.98224-1.02155 13.70699-16.21696 28.27844-33.77328zm-102.44157-147.20931c22.68376-26.23053 53.05327-61.38047 67.48759-78.11078 14.43437-16.72973 36.20322-41.88609 48.37519-55.90313l22.13082-25.48465.95558-4.93378c.67915-3.50928.964-14.29582.98364-37.32338l.0283-32.39013-2.33184-1.13098c-1.28252-.62304-2.93899-.9724-3.67987-.77596-.73949.18392-10.28025 11.05239-21.19811 24.13105-10.91733 13.0774-41.79213 49.8083-68.61009 81.62378-26.81792 31.81488-56.36427 66.95134-65.65902 78.08022-9.29413 11.12895-17.68777 21.0522-18.65191 22.0524-1.2292 1.2727-2.35386 4.32857-3.75383 10.16952l-2.00531 8.35266.24416 29.61819c.12208 18.54492.55146 30.16171 1.01452 31.07263.75772 1.41851.80683 1.42453 2.10928.0491.73387-.77033 19.88811-22.86734 42.57203-49.09848zm-39.12509-150.70941c.70939-.24456 33.45702-38.04233 72.76762-83.93174 39.3109-45.88937 78.1146-91.10928 86.23063-100.48903 8.11601-9.37912 15.2425-17.99774 15.83651-19.15202.59215-1.15483 1.79315-4.49977 2.66495-7.43736 1.50831-5.08056 1.58533-6.9471 1.58533-38.40554v-33.06759l-1.79931-1.18009c-3.72451-2.43932-5.50432-2.35989-7.76011.36763-5.50053 6.59797-126.68836 150.19158-147.79604 175.12052l-24.02713 28.37708-3.15481 9.55211-3.1548 9.55155.36763 26.6628c.18383 14.66508.55145 27.39762.70861 28.29514.42938 2.07266 3.90061 6.25446 5.21512 6.25446.55146 0 1.57734-.24416 2.29269-.48972zm142.87244-83.8113c14.42117-17.03967 27.79236-32.81931 29.71362-35.06616 6.03065-7.05216 6.49918-9.24523 6.49918-30.41174 0-20.20052.25681-19.20458-4.92101-19.20458-2.42598 0-3.99224 1.68117-33.54884 36.0199-36.8034 42.75732-34.42746 38.7705-34.9658 58.67755-.29326 10.7561-.15997 12.80602.9612 15.02096 2.22715 4.40181 4.10056 5.94871 7.21467 5.94871 2.7977 0 3.08676-.306 29.04643-30.98156zm-104.32876-206.29524c2.73581-2.02972 5.85568-4.65259 6.93404-5.82018 3.26229-3.53985 8.2115-11.37165 11.00878-17.42669l2.64292-5.72253-.54444-30.40196c-.2989-16.72118-.86717-31.002968-1.26007-31.737188-1.72776-3.22807-8.42704-.18233-13.54647 6.20126-2.94994 3.66207-10.19324 21.812118-11.57019 28.986018-1.49175 7.77554-4.08401 35.61275-4.08401 43.86205 0 8.50801 2.15811 15.75275 4.69537 15.75275.42938 0 2.99583-1.66292 5.72869-3.69265zm381.40364 898.38608c-2.89486-1.6447-7.1547-6.4158-21.49995-24.0938-23.028-28.3778-21.09038-22.9101-21.86602-61.69771-.31797-15.9038-.61139-56.78354-.64746-90.84336l-.0675-61.92764-2.14835-2.28654c-1.18117-1.25945-13.94994-16.31523-28.3745-33.45824-14.42449-17.14305-38.57426-45.71881-53.66605-63.50134-24.36383-28.70841-27.6748-32.91778-29.53779-37.55385-4.37871-10.89474-4.15619 8.39175-3.66639-318.22318.41535-278.72145.54443-300.791528 1.70405-302.982128 1.52358-2.87351 26.94127-29.47571 34.05275-35.64085 4.69173-4.06566 5.40581-4.43246 8.67484-4.43246 1.95944 0 3.96783.4284 4.46371.90518.68195.67834.90226 12.18415.90226 47.16964v46.268378l1.85306 3.71721c1.5908 3.19128 26.90104 34.16928 53.50683 65.48708 8.00426 9.42134 10.01086 10.75536 12.20488 8.11174.69881-.84472.86857-31.5648.74932-135.004358-.0858-73.653865.0734-134.461448.35506-135.128453.54445-1.290132 3.52892-2.916247 5.3581-2.916247 1.83593 0 41.04477 38.687359 42.89302 42.322587 3.57228 7.026591 4.00023 10.801817 4.00023 35.322332v22.974911l35.17584 42.25902c19.3467 23.242738 35.89316 42.889958 36.76998 43.660908.87696.77035 2.4223 3.64382 3.43472 6.38398l1.84031 4.98275.4462 58.66289.43919 58.66288-1.70263 2.54947c-3.25077 4.86656-8.91339 6.25811-14.52267 3.57057-1.76551-.84458-17.76896-17.97522-57.79225-61.85743l-4.79502-5.25778.00067 37.92863.0006 37.92926 4.83923 12.01725 4.83851 12.01656 11.84957 14.22736c6.5173 7.82493 21.9702 26.2452 34.33993 40.93355 47.549 56.4607 52.81718 62.88994 55.12112 67.26312 1.30497 2.47608 2.37703 5.01336 2.3801 5.63075 0 .61601.51356 2.09695 1.12675 3.27705.96682 1.85248 1.12257 9.96733 1.12257 58.41955 0 62.71141.16397 60.56243-4.85786 62.22107-4.23334 1.40039-11.84567-.72122-14.624-4.06574-.53742-.6469-1.43184-1.1801-1.98326-1.1801-.55147 0-19.32614-21.33769-41.7217-47.41658-34.07103-39.67393-41.23901-47.64626-43.89909-48.82317-5.68097-2.5127-5.57701-2.84287-5.55878 17.64617.0159 16.9541.13525 18.53574 1.83541 24.3322 1.00189 3.41147 2.07502 6.61272 2.38741 7.11831.31277.48972 12.34252 14.87235 26.73365 31.92551 14.39113 17.05377 27.0199 32.27032 28.06412 33.8153 1.04397 1.54674 2.80553 3.71718 3.91462 4.82994 3.4976 3.50923 4.96382 5.18439 15.96471 18.25695 5.90902 7.02216 13.03614 15.37798 15.83753 18.56814 7.28921 8.30004 9.46709 11.93292 14.30863 23.86696l3.19942 7.88613-.25134 56.70585c-.28206 63.98675.22461 59.14281-6.2243 59.86974-4.5553.48972-9.01384-.86157-12.81285-3.94326-1.77309-1.44292-3.83773-2.83067-4.58833-3.08748-.7507-.24575-11.71669-12.84121-24.36883-27.96665-59.83584-71.5338-57.76653-69.18546-60.96543-69.18546-1.674 0-3.27155.48971-3.83395 1.16187-.78437.94714-.86436 41.40978-.43497 215.41088l.5318 214.24858-1.87455 2.0237c-2.35569 2.5435-4.3739 2.5251-8.93664-.061zm-44.53319-504.56977c-.63221-2.34156-7.00871-10.49124-27.117-34.65349-14.45995-17.37532-27.77018-33.48572-29.5784-35.80043-3.45368-4.42026-3.51669-4.44467-8.38447-2.57387l-2.06522.79423v102.79203 102.79275l3.09784 9.21283c5.84853 17.39491 5.25483 16.51331 36.02587 53.51387l28.09707 33.78533.37342-113.39888c.26928-81.2093.14042-114.26767-.45326-116.4607zm118.65575 68.60998c.54445-27.51013.28206-32.00801-2.53166-43.89139-.92189-3.89454-2.07997-6.78386-3.17177-7.91668-.94507-.9839-9.32367-10.88923-18.61809-22.01819-9.29451-11.12887-38.84104-46.26537-65.65908-78.08021-26.81795-31.81548-57.69271-68.54642-68.61043-81.62437-10.91772-13.07858-20.45686-23.93729-21.19811-24.1311-.73949-.18391-2.39722.18392-3.67989.776l-2.33238 1.13095.0283 32.39016c.0199 23.10273.30586 33.81099.98644 37.346l.95979 4.95836 14.65741 16.82508c8.06165 9.25382 35.24719 40.66089 60.41229 69.79363 105.21288 121.80228 106.51745 123.28486 107.40407 122.07253.54441-.74652 1.00887-10.27548 1.35269-27.62758zm-1.48074-174.13494c1.06922-1.27269 2.09214-3.04466 2.2719-3.94342.17673-.89803.50092-13.63009.71001-28.29513l.38459-26.66284-3.15158-9.55156-3.1516-9.55226-24.02657-28.37692c-21.10742-24.92889-142.29548-168.5225-147.79574-175.12049-2.25597-2.70836-4.03568-2.78785-7.76011-.36727l-1.79932 1.18009v33.06758c0 31.45843.0795 33.3268 1.58533 38.40552.87139 2.9345 2.07126 6.2831 2.66495 7.43737.59215 1.15483 7.72039 9.77284 15.83645 19.152 8.11596 9.37981 46.9323 54.61372 86.2583 100.52148 39.32604 45.90711 71.95941 83.64923 72.51858 83.87241 2.20947.8812 3.59359.42935 5.45664-1.78515zm-114.69002-52.70443c3.81249-4.16958 4.16524-5.95472 3.80519-19.27671-.53783-19.90705 1.83772-15.92023-34.9658-58.67755-29.55632-34.33801-31.12292-36.0199-33.5488-36.0199-5.17597 0-4.92101-.99627-4.92101 19.20458 0 21.16651.47007 23.35949 6.49933 30.41174 1.92084 2.24358 15.29239 18.02649 29.71358 35.06621 25.95934 30.67336 26.24857 30.98151 29.04649 30.98151 1.97217 0 3.29286-.48971 4.37138-1.68748zm79.43342-235.27144c1.0917-2.21327 1.54985-4.97658 1.74797-10.515.29322-8.20589-2.12206-36.29318-3.93245-45.72002-1.37794-7.17455-8.62136-25.321408-11.57048-28.986008-5.11956-6.36251-11.81898-9.42876-13.54659-6.20114-.39137.73388-.9598 15.016028-1.26009 31.737198l-.54445 30.40198 2.63072 5.69193c2.85693 6.18346 9.10704 15.83587 11.9711 18.48802 3.94578 3.65603 10.83916 8.45174 11.90025 8.28349.61881-.12207 1.79189-1.52836 2.60574-3.18525z" style="stroke-width:3.9895"/></svg>