<svg height="960" style="" width="1060" xmlns="http://www.w3.org/2000/svg"><path d="m500.12137 674.58636c-12.79888 8.95918-27.73079 19.1982-32.85034 22.18464-5.11947 2.5597-23.03783 13.65206-40.10292 24.31775-16.63851 10.66561-33.70359 21.3313-37.54321 23.4645-64.42068 40.52949-60.15446 30.29047-60.15446 128.84133 0 77.64622.42668 82.33922 8.10592 82.33922 4.26629 0 12.79888-3.8397 18.7716-8.5327 5.97281-4.69287 11.51896-8.53252 12.7988-8.53252 1.27994 0 32.42367-20.05145 69.11363-44.79588 37.11655-24.74433 68.68697-44.79587 70.39348-44.79587 1.70652 0 5.54615-2.98636 8.53259-6.39941 9.81236-11.94553 24.31774-6.82598 72.52658 25.59768 26.45086 17.49169 48.63551 31.997 49.91536 31.997 1.27993 0 9.38584 5.54615 18.34502 12.7988 8.95917 6.82608 17.06509 12.79889 18.34494 12.79889 1.27982 0 14.07872 7.67924 28.15737 17.06508 14.07872 9.38583 26.45093 17.06513 28.15745 17.06513 1.27985 0 2.13312-38.39651 2.13312-85.75217 0-80.6325-2.55979-101.96389-12.7988-101.96389-2.1332 0-15.78526-8.10591-30.71717-18.34494-14.93197-9.81243-31.14382-20.05146-35.83669-23.03789-4.2663-2.98637-21.3314-13.22539-37.54323-23.46451-15.78516-10.23902-32.42367-20.47804-36.26328-22.61121-3.83964-2.55979-14.932-9.81244-24.74435-16.21184-10.2391-6.3994-21.75806-11.51888-25.59769-11.09229-4.26627.42658-18.34492 8.10591-31.14372 17.0651zm1.70651-389.51061c-9.38583 6.39941-20.90479 14.07865-25.59767 16.63843-16.21185 10.66568-66.12719 41.80951-73.37985 46.07572-3.83971 2.55977-18.77161 11.94562-32.85034 21.33138-31.14373 20.47813-40.95617 26.45087-49.06208 30.71715-3.41304 1.70652-18.34495 11.09229-33.27693 21.33139-14.932 10.23902-28.15738 18.34494-29.86389 18.34494-1.70653 0-8.5326 4.69288-14.93199 10.6657l-11.51887 11.09227v83.19236c0 94.28456.85317 97.27093 29.43722 74.6597 8.95917-7.25266 17.91835-13.2254 19.62488-13.2254 1.70651 0 10.23902-5.9728 19.19819-12.7988 8.95917-7.25274 17.06509-12.79887 18.34501-12.79887 1.27985 0 32.42368-20.05147 69.54022-44.7958 36.68989-24.74443 67.8337-44.79588 68.68697-44.79588 1.27985 0 9.38575-5.97281 18.34493-12.7988 8.95919-7.25266 17.0651-12.7988 18.77161-12.7988 1.27985 0 11.09229-5.97281 21.75797-13.65213 16.21184-11.51887 20.90473-12.7988 26.87755-8.53251 3.83961 2.98636 10.23902 6.3994 13.65204 8.10591 3.41305 1.27985 13.22547 8.10592 21.75798 14.93199 8.53259 6.39939 17.0651 11.94554 18.77161 11.94554s10.23902 5.54614 19.19818 12.7988c8.9592 6.82607 17.49177 12.7988 19.1983 12.7988 1.70651 0 10.23902 5.54614 19.19821 12.7988 8.95917 6.82606 17.49167 12.79888 19.19818 12.79888s10.23911 5.54613 19.19828 12.7988c8.95917 6.82598 17.49168 12.7988 19.19819 12.7988 1.70654 0 10.23903 5.54613 18.77162 12.37221 8.53251 6.3994 17.49168 12.79879 19.62478 13.65206 2.55978.85326 20.9048 12.7988 41.38285 26.45085 20.47813 14.07874 39.24973 23.89117 41.80951 22.18464 2.55978-1.70651 4.26621-32.85033 4.26621-87.45856v-84.89879l-28.58395-17.49177c-16.21183-9.81244-32.85033-19.62487-37.54322-22.61124-4.69288-2.98636-16.21185-9.81243-25.5976-15.78516-9.38583-5.97281-20.05154-12.37221-23.46448-14.07872-3.41305-1.70652-11.94563-6.82608-19.19829-11.51895-6.82599-4.69289-16.63843-10.23902-21.3313-12.7988-4.69288-2.55978-14.07874-8.10593-21.33139-12.7988-6.82599-4.69297-16.63842-10.23912-21.33138-12.7988-4.69289-2.55978-14.07865-8.10592-21.33131-12.79889-6.82607-4.69288-16.63851-10.23903-21.33139-12.79879-4.69287-2.55978-14.07872-8.10592-21.33138-12.7988-6.82599-4.69288-17.06501-10.23903-22.18457-12.37222-4.69288-2.1331-10.2391-6.3994-11.94553-8.5325-4.69297-8.10592-20.47813-5.11955-38.82308 7.25266zm4.69289-157.85207c-6.82608 4.26627-24.31775 14.93194-38.39649 24.31774-14.07864 9.3858-27.30411 17.91835-29.86389 19.19823-2.13311 1.27988-32.85026 21.33138-68.26038 44.79588-34.98336 23.46449-65.7006 43.51595-68.26029 44.79579-2.13318 1.27993-15.78523 9.81244-29.86397 19.19829-14.07864 9.38577-27.7307 17.91827-29.86389 19.1982-8.1059 3.83961-106.65676 69.96689-113.90941 76.36629-7.25267 5.97273-7.6793 22.18456-7.6793 233.79166 0 194.9686.85325 227.39227 5.97278 227.39227 3.41302 0 18.77159-8.53251 34.13018-19.1982 15.78516-10.66571 29.4373-19.1982 30.71714-19.1982.85327 0 7.25267-3.8397 13.65207-8.10592 17.91835-12.79888 100.68403-66.55385 105.37691-68.26036 2.13311-.85327 15.78526-9.81244 29.8639-19.62488 14.07872-9.81243 28.58403-19.1982 31.99707-20.90471 9.81244-4.69288 19.62478-11.09229 68.26031-43.08937 24.74441-16.63841 46.92898-30.71715 49.06216-31.997 2.55977-1.27992 12.37221-7.25265 22.18457-14.07872 10.2391-6.39941 20.05154-11.51895 22.61123-11.51895 2.13319 0 16.63851 8.53259 32.42366 19.19827 15.35858 10.66562 28.58406 19.1982 29.01072 19.1982.85325 0 31.99699 20.05146 68.68695 44.79589 37.11655 24.74433 67.83371 44.79579 68.26037 44.79579.8532 0 22.61124 14.50531 49.0621 31.99708 26.45085 17.49168 48.63549 31.99699 49.48876 31.99699.85326 0 14.07865 8.53259 29.86389 19.19829 15.35857 10.66561 29.01064 19.1982 30.29056 19.1982 1.27984 0 9.38576 5.54613 18.34495 12.7988 31.99699 25.17101 29.86389 39.67633 29.86389-214.59347 0-211.6071-.4266-228.24552-7.25267-234.64492-8.53249-7.25266-52.47513-37.11655-55.03489-37.11655-.85327 0-14.07873-8.53259-29.86391-19.19829-15.35856-10.66568-28.58403-19.19819-29.86388-19.19819-.85326 0-14.07873-8.5326-29.8639-19.1982-15.35858-10.66569-28.58404-19.19829-29.4373-19.19829-.42666 0-22.61124-14.50531-49.06208-31.99699-26.45094-17.49177-48.63552-31.99708-49.06218-31.99708-.85326 0-22.61123-14.5053-48.6355-31.997-26.45086-17.49172-49.48876-31.99705-51.19528-31.99705-2.13311 0-5.97274-2.98638-8.95918-6.3994-6.82598-8.53255-28.58395-7.67929-44.79578 1.27988zm177.9035 174.4905c84.04553 51.19527 158.27872 96.41774 164.67812 100.25745 6.3994 4.26621 14.50531 8.95909 17.91835 10.6656 22.18456 10.6657 21.3313 4.69297 21.3313 166.38464 0 97.27101-1.70652 151.02597-4.26622 152.73249-2.55976 1.70652-11.51895-2.98636-20.47812-9.81243-19.1982-14.93191-247.87039-167.23781-251.28343-167.23781-1.27985 0-9.38575-5.97282-18.34493-12.7988-8.95918-7.25267-17.49176-12.7988-19.19828-12.7988-1.70644 0-10.23904-5.97282-19.19821-12.79888-8.95917-7.25266-17.49167-12.7988-19.19819-12.7988s-36.68996 22.61122-78.4994 49.91543c-41.38284 27.7307-76.79287 51.1952-79.35265 52.04845-2.13319.85327-11.09236 7.25267-19.62487 13.65207-8.5325 6.82606-16.63843 12.37221-17.91836 12.37221-1.27985 0-23.46448 14.50531-49.48876 31.99708-26.45085 17.49168-48.63549 31.99699-49.91534 31.99699-1.70651 0-9.81244 5.97281-18.77161 12.7988-8.95918 7.25266-17.49169 12.79888-19.62486 12.79888-1.70653 0-6.39941 2.98637-10.66571 6.82599-4.26621 3.83962-9.81234 5.54614-11.94553 3.83962-3.41304-1.70652-4.69288-49.06209-4.69288-145.47983 0-116.4692 1.27984-145.05325 6.39939-154.86569 5.11956-10.23902 22.18465-22.61123 73.80651-53.75496 3.83963-2.55978 18.77162-11.94563 32.85026-21.3314 29.01071-19.19819 40.103-26.02426 49.06217-30.29055 3.41305-1.70653 17.49169-11.09229 31.997-20.90473 14.07873-9.81243 28.58405-18.77161 31.99707-20.47812 3.41305-1.70652 11.51897-6.3994 17.91837-10.66569 25.171-16.21183 72.52659-46.07574 80.63249-50.34194 5.11956-2.98645 11.09229-7.25267 13.65207-9.81244 2.55977-2.55977 7.25265-4.69288 10.66568-4.69288 3.41304 0 75.08636 41.80944 159.55857 92.57805z" style="stroke-width:.426627"/></svg>