<svg height="960" style="" width="1648" xmlns="http://www.w3.org/2000/svg"><path d="m1340.2831 654.79466c-6.0857 6.08571-4.8685 38.34027 1.2172 38.34027 6.6944 0 12.7801-15.21441 12.7801-31.0374 0-11.56293-6.6943-15.21441-13.9973-7.30287zm17.6487-61.46613c-5.4772 14.60583-4.26 45.03456 1.8258 45.03456 6.6943 0 12.7801-15.21441 12.7801-33.47163 0-17.64873-9.7372-24.9516-14.6059-11.56293zm22.5173-70.59474c0 15.21432 1.2172 21.30012 2.4343 13.38867 1.2172-7.30296 1.2172-19.47447 0-27.38592-1.2171-7.30287-2.4343-1.21716-2.4343 13.99725zm-1186.72212-76.07196c0 13.38867 1.21715 18.25731 2.43431 10.34577 1.21715-7.30287 1.21715-18.25722 0-24.34302-1.82573-5.47713-3.04288.60858-2.43431 13.99725zm32.86308-175.2697c-7.91149 7.30287-4.26003 26.16876 4.86861 26.16876 5.47717 0 9.12862-5.47722 9.12862-15.21441 0-14.60583-6.08575-19.47447-13.99723-10.95435zm1136.81894-9.73719c-6.6943 3.04281-20.083 10.95435-30.4288 17.64864-9.7371 6.69438-24.343 14.60583-31.6458 18.25731-19.4745 7.91145-18.2574 23.73444 1.2171 20.08296 7.9115-1.82574 18.2572-6.69438 21.9087-11.56293 3.6514-4.86864 12.1715-8.52003 18.2572-8.52003 6.6944 0 11.563-2.43432 11.563-5.47722s8.5201-8.52003 18.8659-12.17151c10.3457-3.65148 17.6486-9.73719 16.4314-13.99725-3.6514-9.73719-11.5629-10.95435-26.1687-4.25997zm-945.72629-245.255961c-7.91144 5.47722-31.03731 26.16876-51.72888 45.034561-33.47165 32.25456-52.33748 43.20891-52.33748 30.42882 0-4.868641-74.24621-61.466131-96.15493-73.637641-37.1231-20.0829572-20.69155 10.95435 18.86585 35.297371 12.17151 7.30287 22.51729 16.43157 22.51729 19.47438 0 3.0429 4.26002 5.47722 9.12863 5.47722 4.8686 0 9.12863 3.042898 9.12863 6.085708 0 3.651481 6.69433 9.128702 14.60581 12.171512 23.73445 8.52012 24.9516 26.16876 3.65145 49.29462-9.7372 11.56293-18.25726 24.9516-18.25726 30.42882 0 5.47713-4.26003 11.56293-9.12863 13.99718-4.86861 1.82574-9.12863 9.73728-9.12863 18.25731 0 7.91145-4.26003 15.82299-9.12863 18.25722-10.95436 4.26006-12.78009 36.51453-1.21715 32.86314 3.65145-1.82574 8.52005-9.1287 9.12863-17.64873 1.21715-7.91145 6.08575-17.04006 10.95436-19.47438 4.8686-2.43432 8.52005-9.73719 8.52005-15.21441 0-6.08571 3.04288-13.99725 6.69433-17.64864 8.52006-8.52014 21.90872-31.646 27.38589-46.25183 2.43431-6.08571 10.34579-10.34577 18.25727-10.34577 17.04011 0 75.46335 41.38317 75.46335 52.9461 0 3.6515-7.91147 18.86582-17.04011 33.47165-51.12034 76.68054-74.2462 148.49244-74.2462 228.2158 0 54.77175 0 55.38033-21.90872 80.33193l-21.90871 24.9516h-52.94607c-60.24897 0-93.11204 6.0858-96.76349 17.64873-2.4343 6.69429 3.65145 7.30287 29.8202 4.25997 18.25726-1.82565 59.64039-4.25997 92.50346-4.86855 59.6404-1.82574 59.6404-1.21716 73.63763 16.43148 8.52005 10.34586 16.43153 24.9516 17.64868 33.47172 4.86861 24.34302 18.25727 55.38033 39.55741 91.89486 20.69156 37.12311 20.69156 51.12036-1.21715 60.85755-26.16875 12.17151-42.60028 23.12586-48.07746 32.86305-3.04288 5.47722-4.26003 10.95435-3.04288 11.56293 2.4343 2.43432 35.29738-12.78009 56.59752-26.77734 10.34578-6.69429 21.30014-13.38858 24.95159-15.21432 3.65145-2.43432 25.56021 14.60574 48.07749 36.51453 42.60024 42.60024 83.98341 71.20332 130.84371 92.50342 15.21432 6.69429 37.73169 16.43148 50.51178 21.9087 12.78 5.47714 27.99441 10.34578 34.68879 10.34578 6.08571 0 27.38583 4.26006 46.8603 9.12861 18.8658 4.86864 52.94601 9.1287 74.85471 9.1287 21.90879 0 55.989-4.26006 74.8548-9.1287 19.47448-4.86855 40.7746-9.12861 46.86031-9.12861 11.56293 0 31.03743-7.30287 81.54923-30.42874 27.38582-12.78009 41.99162-7.91154 52.33742 18.25722 3.0429 8.52004 11.5629 23.12587 17.6487 33.47164 6.6943 9.73719 12.1715 23.12586 12.1715 28.60308.6086 6.08567 5.4772 13.38867 11.563 16.43157 5.4771 3.0428 15.8229 18.2572 22.5173 33.4716 10.9543 25.5602 24.9516 38.9488 32.2544 31.6459 1.2172-1.8257-5.4771-20.6915-16.4315-41.3831-10.3458-21.3002-18.8658-41.99171-18.8658-45.64319 0-4.25997-4.2601-9.73719-9.7372-12.78009-9.7372-5.47713-20.6916-21.9087-32.8631-49.90312-3.6515-7.91154-9.7373-16.43157-13.3887-18.86589-9.1287-5.47713 0-28.60297 12.7801-32.86303 6.0857-1.82574 27.3859-18.8658 47.4689-38.34027 57.8147-55.98891 53.5546-53.55459 77.289-35.29737 11.563 8.52003 23.7345 15.82299 26.7774 15.82299 2.4343 0 11.5629 6.69429 18.8658 14.60583l13.9972 15.21432-55.9889 55.3804c-30.4288 30.42873-54.1632 57.20608-52.3375 59.03182 3.6515 3.65139 21.3002-11.56293 80.9406-69.98615 21.9087-20.69163 41.9917-37.73169 45.6431-37.73169s16.4315 7.30287 28.603 16.43148c40.7746 31.03738 60.249 41.99173 65.7262 35.90593 5.4772-4.86855-22.5173-34.08019-32.863-34.08019-4.2601 0-7.9116-2.43432-7.9116-5.47713 0-3.65148-7.3028-9.73719-16.4314-13.99725-20.0831-9.12861-25.5602-35.29737-11.563-47.46888 5.4772-4.26006 9.7372-10.95435 9.7372-15.21441 0-4.25997 4.26-10.95435 9.1286-15.21441 4.8687-4.25997 9.1286-12.17151 9.1286-18.25722 0-6.0858 4.2601-12.17151 9.1287-14.60583 10.9544-4.25997 12.78-36.51453 1.8257-32.86305-4.26 1.82574-9.1286 9.12861-9.7372 17.64864-1.2172 7.91154-6.0857 17.04015-10.9544 19.47447-4.8686 2.43432-8.52 10.34577-8.52 17.04006 0 6.69438-4.26 13.38867-9.1286 15.21441-4.8686 2.43432-9.1287 7.30296-9.1287 11.56293 0 9.12861-19.4744 27.38592-29.8201 27.38592-4.2601 0-18.2574-7.91145-30.4289-17.04015-12.1715-9.73719-26.7772-19.47438-32.2544-21.30012-6.0857-2.43432-10.9544-6.08571-10.9544-8.52003 0-9.12861 54.7718-99.19782 60.249-99.19782 3.0429 0 8.52 4.26006 12.7801 9.12861 4.26 4.86864 15.2144 9.1287 24.9516 9.1287 11.5629 0 17.6486-3.0429 17.6486-9.1287 0-5.47713-5.4771-9.12861-13.3887-9.12861-7.3028 0-19.4743-5.47713-26.7772-12.78009-13.9973-12.78009-13.3887-27.38592 3.0428-68.16042 3.6515-9.73719 6.6944-38.94885 6.6944-65.11761 0-65.11752 6.0857-69.37758 101.0235-71.20332 71.8119-1.82574 152.1439-14.60583 163.0982-26.77734 4.8686-5.47713-3.6514-6.08571-32.863-2.43423-21.9088 2.43423-63.2919 5.47713-92.5035 6.08571-29.2116 1.21716-65.1176 3.65148-79.7234 5.47722-34.0802 5.47713-59.0318-3.65148-59.0318-21.30022 0-15.21432-15.823-71.8119-27.3859-99.80631-49.9032-116.23797-126.5837-199.61282-231.8673-252.55883-79.72342-39.557431-107.7179-45.643141-215.43576-45.643141-105.89211 0-133.88652 5.47713-209.95848 42.600241-45.64314 22.51728-109.54359 67.55184-136.32093 96.7635-8.52003 8.52003-17.64864 15.82299-20.69154 15.82299-12.1715 0-71.20331-49.29462-71.20331-59.64039s33.47164-47.46888 69.98615-77.289121c20.69154-17.04006 18.25731-26.168757-2.43432-10.34577zm452.78019 74.246221c54.16318 11.56293 109.54358 37.12311 158.2296 73.02906 17.0401 12.17151 37.7317 24.34302 46.2518 26.16878 11.5629 3.04281 17.0401 9.12861 20.083 23.12586 1.8257 10.34577 10.9543 28.60299 20.0829 40.7745 15.823 20.69154 26.7774 41.99175 47.4689 89.46063 13.3887 31.03731 23.1259 88.85197 16.4316 95.54635-12.1715 12.17151-25.5602 0-25.5602-21.9087 0-20.69164-6.6943-42.60034-29.2117-97.98067-11.5629-28.60308-48.686-82.15767-56.5975-82.15767-7.9114 0-78.50612 69.98616-78.50612 77.89761 0 8.52003-115.62947 125.97517-128.40956 130.84372-6.08571 1.82574-15.21432-1.82574-23.12586-10.34577-13.38867-13.99725-17.04006-27.99451-7.30287-27.99451 2.43432 0 29.82015-24.9516 60.24898-54.77175 30.42875-30.42873 58.42321-54.77175 63.29191-54.77175 9.7372 0 90.06912-74.8548 90.06912-83.98341 0-9.73728-50.51182-51.72896-79.72332-65.72621-48.68609-24.34302-68.76907-31.64589-105.89219-38.94885-67.55193-13.38867-85.80915-13.99725-120.49794-3.65139-18.25731 5.47713-40.16601 9.73719-48.68604 9.73719-8.52012 0-23.12586 4.25997-32.86305 8.52003-9.1287 4.86864-21.30021 10.95435-26.16876 12.78009-23.12586 9.12861-66.33477 38.94885-94.32918 65.11763-26.77734 25.56009-39.55743 29.21157-39.55743 11.56293 0-11.56293 67.55184-66.33479 97.98066-79.11488 7.91145-3.65139 18.8658-9.12861 23.73444-11.56293 30.42873-17.04006 51.12027-25.56018 62.6832-25.56018 7.30296-.60858 27.38592-4.25997 43.81749-9.128611 34.08021-9.737189 89.46054-8.520029 146.05812 3.042901zm69.37758 149.70953c18.2573 18.86589 13.9973 37.12311-6.6943 25.56018-7.3029-4.25997-16.43153-11.56293-20.08301-15.8229-4.86866-6.0858-30.42875-6.69438-117.45507-3.65148-60.85755 2.43432-110.76075 6.69429-110.76075 9.73719 0 2.43432 50.51178 4.86864 111.97791 4.86864h111.97783l9.7373 15.21432c9.73719 14.60583 9.12859 15.21441-48.07749 73.63764-53.55468 54.77184-59.03181 58.42323-84.59199 60.24898-14.60583 1.21716-32.25456 4.86864-38.94885 8.52003-7.30287 3.65148-17.64873 6.69438-23.73444 6.69438-13.38867 0-135.71235-121.10653-135.71235-134.4952 0-5.47713 5.47722-11.56293 12.17151-13.38867 6.69438-1.82574 12.17151-6.08571 12.17151-9.73719 0-10.34577-18.8658-7.91145-27.38583 3.0429-9.1287 12.78009-33.47172 6.08571-33.47172-9.12861 0-6.0858 6.0858-16.43157 13.99725-23.73444 13.38867-12.78009 19.47447-13.38867 174.6612-14.60583 88.85196-1.21716 166.74967-.60858 173.44398.60858 6.69438 1.21716 18.86581 8.52003 26.77731 16.43148zm-453.99726 6.69438c2.43432 1.82574-1.82574 12.17151-9.73719 22.51728-39.55743 54.16317-70.5948 167.96683-63.90045 234.91009 2.43432 24.9516-15.21439 34.08021-21.90873 10.95435-8.52006-34.08021 3.65145-125.97508 24.34305-172.2268 38.34018-88.85205 55.98891-111.97791 71.20332-96.15492zm65.11752 47.46888c0 8.52003-4.25997 17.04006-9.12861 18.8658-6.69429 3.0429-9.12861 13.99725-9.12861 46.25172 0 26.16876 2.43432 40.77459 6.08571 38.34027 3.65148-1.82574 6.0858-12.78009 6.0858-23.73444 0-38.34027 6.69429-58.42323 19.47438-58.42323 7.30296 0 37.12311 24.9516 73.02906 60.85755 60.85755 60.85756 60.85755 61.46614 56.59749 83.98342-3.04281 12.17151-4.86855 33.47163-4.86855 46.8603-.60858 22.51728-4.26006 27.9945-57.81465 80.33193-32.25456 31.0374-62.68329 56.59758-67.55193 56.59758-23.12586 0-31.03731-21.90879-31.03731-85.20057 0-36.51453-2.43432-60.85755-6.0858-60.85755-9.73719 0-7.91145 127.80081 2.43432 139.36374 4.26006 5.47722 10.34577 15.82299 12.17151 23.12586 6.0858 20.08305-10.34577 18.25731-29.82015-2.43432l-15.21441-17.04006v-164.92392c0-157.62106.60858-165.5326 12.78009-181.3555 17.04006-21.30012 41.99166-21.9087 41.99166-.60858zm497.20626 58.42323c10.3457 13.38867 10.9543 24.9516 6.0857 175.87828-4.26 139.97241-6.6943 163.09827-15.8229 176.48694-15.823 21.9087-34.6889 20.69154-32.8632-2.43432.6086-10.34577 5.4773-20.69163 10.9544-23.12586 13.3887-7.91154 13.9972-320.11075 0-324.9793-9.1286-3.65148-12.1715-21.30012-5.4771-28.60308 5.4771-4.86855 23.7344 7.91154 37.1231 26.77734zm-41.3832 12.78009c2.4343 7.91145 3.6515 80.33194 1.8257 161.88103l-3.0429 148.49244-14.60572 6.69429c-13.3887 6.0858-18.8659 1.82574-77.89771-56.59749-59.64042-59.64039-72.42051-79.11477-57.81468-88.24347 3.65148-1.82565 6.08571-17.64864 6.08571-35.29737v-31.03731l54.77187-53.55468c30.42871-29.21158 54.77171-56.5975 54.77171-59.6404 0-3.65139 6.6944-6.08571 15.2145-6.08571 10.3457 0 17.04012 4.26006 20.69152 13.38867zm-197.17845 91.28629c9.12861 8.52012 17.04006 23.12586 18.8658 35.90595 3.0429 17.04015.60858 24.9516-12.78009 40.77459s-20.69154 19.47438-40.16592 19.47438c-40.16601 0-68.16051-40.16592-51.12036-73.02906 18.8658-37.12311 57.20607-47.46888 85.20057-23.12586zm377.92535 31.0374c4.2601 12.17151-19.4744 116.23788-27.3859 118.6722-3.6514 1.21716-10.9544.60858-16.4315-1.21716-7.9115-3.0429-7.9115-5.47722-.6086-20.08296 4.8686-9.73728 10.9544-39.55743 13.3887-66.94335 4.26-47.46888 4.8685-49.9032 16.4315-43.8174 6.0858 3.65139 12.7801 9.73719 14.6058 13.38867zm-469.8203 79.72335c9.73728 15.21441 9.1287 15.82299-46.8603 69.37758-30.42873 30.42882-69.37758 65.72619-86.41764 79.11486-16.43157 13.38858-45.64323 39.55734-63.90045 58.42323-21.30012 21.9087-38.34027 34.08021-46.8603 34.08021-7.91154 0-13.99725-1.82574-13.99725-4.86864 0-2.43432 24.34302-29.21157 54.77175-59.03181 29.82024-29.82015 54.77184-59.03181 55.989-65.7261 3.04281-17.64873 108.93501-124.758 124.14933-125.36658 7.91154-.60858 17.04015 5.47722 23.12586 13.99725zm183.18124 68.16042c35.29744 35.90595 63.90044 66.94335 63.90044 69.98616 0 3.0429-5.4772 10.95444-12.1715 17.64873-11.5629 11.56293-20.083 12.17151-158.22964 12.17151-138.14658 0-146.6667-.60858-158.22963-12.17151-6.69429-6.69429-12.17151-13.38867-12.17151-14.60583 0-1.82574 26.16876-29.21157 58.42323-60.85755 54.77184-54.77175 59.64039-58.42323 83.37483-58.42323 13.99725-.60858 32.25456-4.25997 40.77459-9.12861s18.25722-8.52003 22.51728-9.12861c4.26006 0 36.51453 29.21157 71.81191 64.50894zm249.51596-4.25997c5.4772 9.73719-38.9489 79.72335-48.0775 76.07187-15.8229-6.08571-13.9972-17.04006 6.6944-49.9032 19.4744-29.82015 33.4716-38.94876 41.3831-26.16867zm-161.27242 124.75791c-15.2145 13.99725-17.0402 14.60583-185.61563 18.25731l-171.00972 4.25997-17.04006-18.25722c-16.43157-17.04015-17.04015-31.0374-1.82574-31.0374 4.26006 0 12.78009 6.0858 18.8658 13.38867 10.95444 12.78009 12.78009 12.78009 161.27253 8.52012 144.84102-4.26006 150.31812-4.86864 167.96682-18.86589 18.2573-13.99725 18.2573-13.99725 30.4288-2.43432 11.56292 11.56293 11.56292 11.56293-3.0428 26.16876zm93.11202-21.9087c-3.0429 24.9516-75.4634 82.15767-88.24352 69.37758-5.4771-5.47713 3.0429-17.04006 32.25462-45.64314 40.1659-40.16601 58.4232-47.46888 55.9889-23.73444zm-637.78715-740.6363082c-6.08571 9.1286102 1.82574 15.2144072 9.73719 7.3028702 4.26006-4.2599702 4.26006-7.9114502.60858-10.3457702-3.65139-1.8257398-8.52003-.60858-10.34577 3.0429z" style="stroke-width:.608576"/></svg>