<svg height="960" style="" width="1315" xmlns="http://www.w3.org/2000/svg"><path d="m640.22889 204.83643c-11.18365 17.39678-19.88203 48.46247-19.88203 68.34451 0 80.77078-84.49866 162.78419-166.51208 162.78419-23.60992 0-49.70509 9.94102-60.88873 22.36729-34.79357 38.52145-26.09519 52.19035 33.55093 52.19035s156.57105 52.19034 156.57105 83.25603c0 9.94102 8.69839 19.88204 18.63941 23.60992 12.42627 4.97051 18.63942 24.85255 18.63942 62.13137 0 38.52145 7.45575 62.13137 24.85254 79.52815 36.03619 36.03619 49.7051 21.12466 49.7051-54.6756 0-63.374 2.48525-69.58714 63.37399-130.47587 62.13137-60.88875 67.10188-63.374 130.47587-63.374 58.40349 0 67.10189-3.72789 67.10189-24.85255 0-31.06568-36.0362-49.70509-98.16757-49.70509-28.58043 0-50.94773-6.21315-50.94773-12.42628 0-7.45576-13.66889-18.63941-31.06568-24.85255-17.39678-6.21313-34.79356-22.36728-39.76407-33.55094-3.72789-12.42627-14.91153-31.06568-23.60993-41.0067-8.69838-9.94102-17.39677-45.97721-19.88203-79.52815-3.72788-70.82976-22.36729-84.49866-52.19035-39.76408zm-1.24263-227.400805c-31.06568 45.977214-91.95442 85.741285-132.96112 85.741285-17.39679 0-38.52145 8.6984-47.21985 18.63941-8.69839 9.94102-22.36729 18.63942-32.30831 18.63942-21.12467 0-141.65952 120.53485-141.65952 141.65951 0 9.94102-8.69839 23.60992-18.63941 32.30832-9.94102 8.69839-18.63941 29.82305-18.63941 45.97721 0 44.73458-36.03619 98.16756-89.46917 135.44639-52.19035 37.27881-50.94772 54.6756 3.72788 54.6756 27.3378 0 39.76408 7.45576 48.46247 29.82306 6.21314 16.15415 17.39678 33.55094 23.60991 38.52145 7.45577 3.72787 13.66891 21.12466 13.66891 37.27881 0 47.21985 38.52145 106.86596 121.77748 188.87936 49.7051 48.46247 89.46917 78.28553 106.86595 78.28553 14.91154 0 38.52145 8.69839 52.19036 18.63942 12.42627 9.941 36.03619 18.6394 49.70509 18.6394 17.39679 0 38.52145 18.6394 59.64611 49.7051 17.39679 27.3378 37.27883 49.7051 44.73459 49.7051 6.21314 0 12.42628-21.1247 14.91153-47.2198 3.72788-39.7641 8.69839-45.9772 37.27882-49.7051 17.39678-2.4853 39.76408-12.4263 47.21984-22.3673 8.69839-9.94105 29.82305-17.39682 48.46247-17.39682 39.76407-1.24263 183.90882-113.0791 200.06302-156.57105 6.2131-16.15416 17.3968-29.82305 24.8525-29.82305 6.2132 0 12.4263-16.15417 12.4263-36.0362 0-19.88204 7.4557-42.24933 17.3968-50.94772 9.9409-7.45577 19.882-32.30832 22.3672-53.43298 3.7279-33.55094 8.6984-39.76408 41.0067-43.49196 59.6461-7.45576 62.1314-22.36729 7.4559-58.40348-34.7936-23.60992-50.9478-43.49196-50.9478-62.13137 0-14.91153-8.6984-34.79357-18.6394-43.49196-9.941-8.6984-18.6394-28.58043-18.6394-45.97721 0-33.55094-6.2131-43.49196-94.43968-134.20376-33.55094-36.0362-74.55764-69.58713-89.46917-73.31501-14.91152-4.97051-27.3378-14.91153-27.3378-21.12466 0-6.21315-18.6394-11.18366-42.24933-11.18366-23.60992 0-47.21984-6.21313-50.94772-13.6689-4.97051-6.21314-22.36729-17.396781-38.52145-23.609911-22.36729-8.6984-29.82305-21.1246801-29.82305-49.705099 0-48.462471-23.60993-48.462471-55.91824 1.242625zm49.7051 147.872655c3.72788 6.21314 29.82306 12.42627 55.91823 12.42627 68.34451 0 89.46917 9.94102 74.55764 37.27883-14.91153 27.33779-4.97051 37.27881 41.0067 37.27881 42.24934 0 99.41019 52.19036 88.22655 80.77079-3.72789 9.94102 12.42628 42.24932 39.76407 74.55764 43.49195 53.43298 44.73455 57.16085 23.60995 73.31502-18.63944 12.42627-21.12469 26.09517-13.66893 67.10187 6.21313 43.49196 3.72793 55.91824-17.39678 73.31502-14.91152 12.42627-24.85254 37.27882-24.85254 59.64611 0 23.60992-8.6984 43.49196-24.85255 53.43298-13.6689 8.69839-24.85255 26.09517-24.85255 39.76407 0 22.3673-2.48526 23.60993-24.85254 9.94102-17.39679-11.18364-28.58044-12.42627-34.79358-2.48525-42.24933 62.13137-94.43968 100.65282-108.10857 79.52815-11.18366-18.63941-70.82977-13.6689-98.16757 6.21314-28.58043 22.3673-77.0429 24.85254-89.46917 4.97051-4.97051-8.6984 1.24263-19.88204 13.6689-26.09517 32.30831-18.63942 0-34.79357-73.31501-34.79357-57.16086 0-59.64612-1.24264-52.19035-29.82306 6.21313-23.60992-1.24263-34.79356-36.03619-58.40349-50.94773-34.79356-73.31502-75.80027-52.19036-96.92493 11.18364-12.42627 9.94102-18.63942-6.21313-31.06569-12.42628-8.69839-22.3673-27.3378-22.3673-39.76407 0-13.6689-8.69838-37.27883-19.88204-52.19036-11.18364-17.39677-16.15415-37.27881-9.94102-54.6756l7.45577-26.09517 21.12466 27.3378c26.09518 34.79356 38.52146 22.36729 38.52146-37.27882 0-60.88874 19.88203-110.59383 43.49196-110.59383 11.18364 0 24.85254-13.66891 31.06568-31.06569 6.21313-17.39678 19.88203-31.06568 31.06568-31.06568 11.18364 0 18.63941-11.18365 19.88204-28.58044 0-14.91152 3.72788-19.88203 7.45576-12.42626 8.6984 22.36728 47.21984 19.88203 65.85925-2.48526 8.6984-9.94102 26.09517-18.63942 38.52145-18.63942 12.42627 0 26.09517-6.21313 29.82306-12.42627 3.72788-7.45577 18.63941-12.42627 31.06568-12.42627 12.42628 0 27.33781 4.9705 31.06569 12.42627z" style="stroke-width:1.24262"/></svg>