<svg height="960" style="" width="1013" xmlns="http://www.w3.org/2000/svg"><path d="m328.969 1020c-5.07748 0-22.48613-23.7553-32.27845-43.8838-8.70427-18.134-11.24301-25.2063-13.419-35.9053-.90678-4.5335-2.35747-11.42443-3.26414-15.41397-1.26943-4.71483-1.99493-82.69052-1.99493-216.33757 0-202.55593-.18117-209.26538-3.44531-215.79355-9.06692-17.58992-23.21142-24.29958-43.52136-20.31004-6.52817 1.26932-14.32577 3.44531-17.40854 4.71473-2.90149 1.26932-6.70955 2.72001-8.16025 3.26404-1.4508.7254-5.07759 2.72033-8.16035 4.71504-2.90139 1.99472-6.70955 4.17082-8.16025 4.89611-1.45069.54402-3.08297 1.63186-3.62689 2.35726-.54403.54402-4.17071 3.44541-7.97887 6.52818-7.7976 5.80288-33.18512 33.91052-35.90514 39.71329-3.80816 8.34163-7.25347 13.60049-8.52289 13.60049-.90667 0-1.99472 1.81344-2.72012 3.98954-.72529 3.08276-1.4509 3.44552-2.53884 1.81345-1.99483-3.08277 5.07748-34.45465 11.9683-52.04447 2.53874-6.89093 12.69392-28.10753 18.31543-38.44387 1.26942-2.72012 9.42946-11.78714 18.13383-20.31004 15.5951-15.5952 26.29409-22.30465 47.32952-29.7396 6.16553-2.1761 15.77669-2.9015 38.98811-2.9015 38.2625-.18137 49.14276 2.53874 68.90878 16.86452 9.24829 6.70956 55.30839 52.04436 55.30839 54.40183 0 1.08805-2.35737 4.3523-5.25875 7.43506-6.70956 7.0722-13.78176 19.94718-18.31522 33.54766-3.44541 9.9737-3.62689 15.5951-3.62689 77.06902v66.55162l-7.7975 10.15497c-4.17081 5.6215-9.06713 13.23794-10.69909 16.68335-1.63207 3.44541-4.35198 9.61094-6.16543 13.60038-3.26403 6.89093-3.44551 15.41382-3.98954 158.12779-.36264 83.05328-1.08794 151.05538-1.99461 151.05538zm355.06211 0c-.90678 0-1.63197-68.0021-1.99472-151.05538-.54403-142.71397-.7254-151.23686-3.98954-158.12779-1.81335-3.98944-4.53357-10.15497-6.16564-13.60038-1.63196-3.44541-6.52807-11.06185-10.69888-16.68335l-7.79771-10.15497v-66.55162c0-61.47392-.18127-67.09532-3.62668-77.06902-4.53346-13.60048-11.60566-26.47546-18.31511-33.54766-2.90149-3.08276-5.25907-6.34701-5.25907-7.25368 0-2.53874 41.8895-44.24687 52.58859-52.40711 10.88037-8.34163 18.31511-12.14969 30.82755-16.3205 12.33106-3.98943 66.73278-3.98943 78.88257 0 21.03533 7.0722 32.27824 13.96313 48.23609 29.92098 8.70427 8.5229 16.86462 17.58992 18.13404 20.31004 5.62151 10.33634 15.77637 31.55294 18.31522 38.44387 6.89082 17.58982 13.96302 48.9617 11.96831 52.04447-1.08805 1.63207-1.81324 1.26931-2.53864-1.81345-.72529-2.1761-1.81334-3.98954-2.72012-3.98954-.90667 0-2.53863-1.81334-3.62668-4.17071-.90667-2.17609-3.08277-6.16553-4.35208-8.70427-4.17082-7.43495-28.47029-34.63592-36.44916-40.4388-3.80817-3.08277-7.43517-5.98416-7.97919-6.52818-.54402-.7254-2.17599-1.81324-3.62668-2.35726-1.4507-.72529-5.07748-2.90139-8.16025-4.89611-2.90139-1.99471-6.70955-3.98964-8.16025-4.71504-1.45069-.54403-5.07748-1.99472-8.16025-3.26404-2.90149-1.26942-10.88036-3.44541-17.40854-4.71473-20.31004-3.98954-34.45454 2.72012-43.52146 20.31004-3.26414 6.52817-3.44552 13.23762-3.44552 215.79355 0 133.64705-.72529 211.62274-1.99461 216.33757-.90678 3.98954-2.35747 10.88047-3.26414 15.41397-2.1761 10.699-4.71473 17.7713-13.419 35.9053-9.79232 20.1285-27.20097 43.8838-32.27845 43.8838zm-148.8794-253.87478c-1.81344 0-1.99482-824.005344 0-825.818686 3.98944-4.170812 29.7395 35.179628 38.9878 59.66047716 9.97359 26.65683784 9.42967 15.05117784 10.33634 196.57176884.54402 110.61689 1.45069 167.73884 2.72012 168.28286 1.08804.36275 11.60576-9.24829 23.57418-21.21671l21.76062-21.76062.54402-21.76073.72519-21.57957 25.93176-26.11281c33.00374-33.18513 38.80641-42.25194 42.79596-64.55669 2.53874-14.50716 1.63196-15.05129-24.11821-14.32589l-21.39787.54403-10.15518 10.33634c-5.6215 5.80288-11.42417 10.51772-12.6936 10.51772-1.99472 0-2.53885-4.17081-2.53885-19.04062 0-24.66212 2.72023-32.82247 16.13934-47.5109 18.49659-20.12866 19.40326-36.99307 2.72011-53.49494-5.44023-5.62151-6.16553-7.07241-3.80816-7.97908 1.63207-.54403 7.25358.36285 12.51244 1.99493 16.68314 5.25885 25.20593 15.59498 28.47007 34.45422 4.17081 23.3928 2.72022 21.76084 19.94749 21.94211l15.05108.18148 14.32588 14.50705 14.32557 14.50705v23.03015c0 12.51244.54413 22.84878 1.26953 22.84878.54402 0 6.3469-4.89631 12.69381-11.06184l11.42439-11.06143 57.66586.72508 57.48438.54403 12.51244 6.34711c8.5229 4.17082 15.41372 9.61074 22.12327 17.04569 5.44024 5.98415 9.79232 11.60566 9.79232 12.51244 0 1.08804 1.08816 3.26424 2.53896 4.71494 1.26931 1.63207 2.90128 5.25875 3.62668 7.97887 1.08805 4.71483.90656 4.89621-2.9015 2.90149-2.17609-1.08804-5.44002-3.44562-7.25336-5.25896-5.62161-5.25886-19.9475-12.14958-29.73982-14.32567-8.16035-1.99472-10.15507-1.81335-16.3206 1.08804-4.35208 1.99472-8.52279 5.98405-11.06153 10.51751-3.80806 6.89082-4.17092 9.24851-4.17092 41.70823 0 35.36111-1.26921 43.70252-9.42946 58.93497-12.33106 23.57418-36.44936 42.07087-62.92493 48.05503-8.16025 1.99471-39.71319 3.62689-55.85231 2.90149-5.25886-.36265-1.4507-5.80288 13.78186-20.67268 15.77647-15.5951 16.13912-15.77648 25.02476-15.77648 17.58992 0 37.5371-13.78175 47.51069-32.64109 3.98944-7.43485 4.53367-11.06185 5.25907-37.90007.7253-23.93672.36265-29.92076-1.63207-31.19019-3.08276-1.99472-36.26799-2.17609-38.80673-.18137-.90667.7254-48.2363 48.05502-105.17676 105.17687l-103.36343 103.90733-.90656 114.60633c-.90667 123.12923-.54402 117.32645-10.33634 143.62064-2.90139 7.61623-13.60049 29.92087-17.40855 36.26768-4.17081 6.89093-20.12855 26.29429-21.57925 26.29429zm-57.64278-1.05586c-2.03124-.20499-16.14536-16.80607-21.23979-25.23843-3.80816-6.34681-14.50715-28.65145-17.40865-36.26768-9.79221-26.29419-9.42956-20.49141-10.33623-143.62064l-.90689-114.60633-103.36342-103.90733c-56.94046-57.12185-104.0885-104.45147-105.17655-105.17687-2.53874-1.99472-35.72386-1.81335-38.80663.18137-1.99482 1.26943-2.35747 7.25347-1.63207 31.19019.7253 26.83822 1.26932 30.46522 5.25876 37.90007 9.97359 18.85934 29.92108 32.64109 47.5109 32.64109 8.88564 0 9.24829.18138 25.02487 15.77648 15.23245 14.8698 19.04051 20.31003 13.96302 20.67268-16.32049.7254-47.87354-.90678-56.03379-2.90149-26.47557-5.98416-50.59356-24.48085-62.92462-48.05503-8.16035-15.23245-9.42978-23.57386-9.42978-58.93497 0-32.45972-.36254-34.81741-4.1707-41.70823-2.53874-4.53346-6.70966-8.52279-11.06174-10.51751-6.16553-2.90139-8.16036-3.08276-16.3206-1.08804-9.79232 2.17609-24.11799 9.06681-29.739497 14.32567-1.813447 1.81334-5.077588 4.17092-7.253683 5.25896-3.808059 1.99472-3.989224 1.81334-2.901282-2.90149.7254-2.72012 2.357365-6.3468 3.626788-7.97887 1.450695-1.4507 2.538636-3.6269 2.538636-4.71494 0-.90678 4.352083-6.52829 9.792318-12.51244 6.709554-7.43495 13.60059-12.87487 22.12359-17.04569l12.51233-6.34711 57.48448-.54403 57.66587-.72508 11.42439 11.06143c6.3468 6.16553 12.14979 11.06184 12.69381 11.06184.72529 0 1.26921-10.33634 1.26921-22.84878v-23.03015l14.32589-14.50705 14.32588-14.50705 15.05107-.18148c17.40854-.18127 15.95774 1.26942 19.94718-22.30465 1.81334-11.24301 3.26425-14.14461 9.9738-21.94221 5.98415-6.89083 9.97359-9.61095 17.95257-11.96831 5.44013-1.81345 11.42439-2.72012 13.05635-2.17609 2.35747.90667 1.63207 2.35757-3.80806 7.97908-16.68325 16.50187-15.77658 33.36628 2.72012 53.49494 13.41911 14.68843 16.13901 22.84878 16.13901 47.5109 0 14.68853-.54381 19.04062-2.35715 19.04062-1.4508 0-7.25379-4.71484-12.87529-10.51772l-10.51751-10.33634-21.21671-.54403c-25.56879-.7254-26.47546-.18127-23.93672 14.32589 3.98944 22.30475 9.79221 31.37156 42.79596 64.55669l25.93144 26.11281.7254 21.57957.54402 21.76073 21.76073 21.76062c11.96841 11.96842 22.48613 21.57946 23.57418 21.21671 1.26932-.54402 2.17609-57.66597 2.72012-168.28286.90667-157.039741 1.08794-168.282754 4.35208-178.437826 9.06702-29.195579 19.04061-48.78011 35.36111-69.452795 4.17081-5.25886 8.34162-9.067131 9.2484-8.523107 2.35737 1.450694 2.53853 823.642808.18106 824.912128-.0392.0286-.0921.0392-.15798.0318z" style="stroke-width:.181339"/></svg>