<svg height="960" style="" width="1190" xmlns="http://www.w3.org/2000/svg"><path d="m605.05786 596.80027c-11.17538 8.9403-34.64367 16.76307-51.40674 16.76307-16.76306 0-52.52427 14.52799-79.34518 33.52613-27.93844 17.8806-55.87688 33.52613-62.58211 33.52613-17.8806 0-56.99442 35.76121-56.99442 52.52428 0 7.82276 3.35261 14.52799 8.9403 14.52799 8.9403 0 109.5187 96.10824 173.21835 165.39563 23.46829 25.7033 48.05412 46.9365 53.64181 46.9365 6.70523 0 40.23136-29.0559 73.75749-64.8172 58.11196-61.46453 60.34704-65.93468 54.75935-112.87126-3.35261-26.82091-6.70523-83.81533-6.70523-125.16423v-77.1101h-42.46643c-23.46829 0-52.52428 7.82276-64.81719 16.76306zm-205.62694-33.52613c-7.82277 8.9403-23.4683 16.76307-34.64367 16.76307-22.35076 0-65.93473 36.87874-65.93473 55.87688 0 5.58769 16.76307 11.17538 36.87875 11.17538 25.70336 0 49.17166-12.29292 83.81533-43.58397 25.70336-23.46829 46.93658-45.81905 46.93658-49.17166 0-14.52799-53.64181-7.82277-67.05226 8.9403zm430.25202-53.64181c-24.58583 2.23507-49.17166 10.05784-55.87688 15.64553-13.41046 13.41045-16.76307 254.7986-3.35262 262.62136 5.58769 3.35262 50.2892-33.52613 99.46086-82.69779 86.05041-86.0504 107.28362-126.28176 72.63995-139.69221-8.9403-3.35262-17.8806-17.88061-20.11567-32.4086-3.35262-27.93844-16.76307-31.29106-92.75564-23.46829zm-162.04297-46.93659c-7.82276 8.94031-24.58583 16.76307-37.99628 16.76307-12.29292 0-35.76121 13.41045-51.40674 30.17352l-27.93844 29.05598 33.52613-6.70523c18.99814-4.47015 56.99443-11.17537 87.16795-14.52799 49.17166-6.70522 52.52427-10.05784 52.52427-39.11382 0-24.58583-5.58769-32.40859-21.23322-32.40859-11.17538 0-26.8209 7.82276-34.64367 16.76306zm223.50755-135.22206c0 10.05784 4.47015 17.8806 11.17538 17.8806 5.58769 0 15.64552 20.11568 22.35075 44.70151 6.70523 23.46829 16.76307 46.93659 22.35076 50.2892 6.70522 3.35261 11.17537 17.8806 11.17537 31.29106 1.11754 25.70336 35.76121 74.87502 52.52422 74.87502 16.7631 0 59.2295-50.28919 59.2295-69.28734 0-20.11567-137.45708-157.57282-163.16045-163.1605-8.9403-2.23508-15.64553 4.47015-15.64553 13.41045zm-673.87525 35.76121c-53.64181 52.52427-97.22579 103.931-97.22579 112.87131 0 10.05784 18.99815 36.87874 43.58398 60.34703 45.81904 46.93659 88.28548 55.87689 112.87131 26.82091 7.82276-8.9403 32.40859-16.76307 54.75935-16.76307 65.93472 0 121.81161-55.87688 73.75749-73.75749-10.05784-4.47015-16.76307-21.23321-16.76307-43.58397 0-20.11568-7.82276-42.46643-15.64553-50.2892-8.9403-6.70522-17.8806-33.52613-20.11568-59.2295-2.23507-31.29105-8.9403-48.05412-21.23321-50.28919-8.94031-1.11754-59.2295 39.11382-113.98885 93.87317zm185.51126-134.10453c-3.35261 8.9403-1.11754 22.35075 6.70523 30.17352 6.70522 6.70522 12.29291 25.70336 12.29291 42.46643s7.82277 35.76121 16.76307 43.58397c8.9403 7.82277 16.76306 30.17352 16.76306 50.2892s7.82277 42.46643 16.76307 50.2892c8.9403 7.82276 16.76307 21.23321 16.76307 29.05598 0 24.58583 23.46829 17.8806 94.9907-27.93844 99.46086-64.81719 106.16609-72.63996 106.16609-127.39931 0-61.46457-14.52799-74.87502-83.81533-74.87502-31.29106 0-64.81719-7.82277-77.11011-16.76307-30.17351-23.46829-117.34146-22.35075-126.28176 1.11754zm336.37886 17.8806c3.35261 32.4086 6.70522 88.28548 6.70522 124.04669 0 74.87503 15.64553 88.28548 71.52242 61.46458 18.99814-10.05784 43.58397-21.23322 54.75935-24.58584 23.46829-7.82276 25.70337-49.17166 2.23507-58.11196-8.9403-4.47015-16.76306-20.11568-16.76306-36.87874 0-33.52613-78.22764-124.04669-107.28363-124.04669-15.64552 0-17.8806 8.9403-11.17537 58.11196zm-231.33031-181.041109c-56.99443 58.111959-62.58212 67.052259-46.93659 81.580249 8.9403 10.05784 45.81905 20.11568 80.46272 24.58583 35.76121 3.35262 81.58025 11.17538 102.81347 17.88061 43.58397 14.52799 56.99442 2.23507 56.99442-48.05413 0-39.11382-87.16794-144.1623588-117.34146-141.92728882-5.58769 1.11754002-40.23136 30.17351982-75.99256 65.93472982z" style="stroke-width:1.11754"/></svg>