<svg height="960" style="" width="1426" xmlns="http://www.w3.org/2000/svg"><path d="m697.65266 923.2972c-4.1649 4.6854-5.7267 31.2364-4.6855 81.7353l1.5618 74.9675h18.2213 18.2212l1.5619-71.8438c.5206-43.2104-1.0413-75.4881-4.1649-81.7354-6.2473-11.9739-21.8655-13.5358-30.7158-3.1236zm111.4099-162.9501c-5.206 7.8091 1.5619 13.0152 8.3298 6.2473 3.6442-3.6443 3.6442-6.7679.5206-8.8504-3.1237-1.5618-7.2885-.5206-8.8504 2.6031zm-502.3861-171.2799c0 6.2473 5.2061 26.0304 10.9328 44.2517 11.4533 33.8395 22.3861 41.6486 35.9219 25.5097 4.6855-6.2473 3.1236-12.4945-8.8503-31.757-7.8091-13.0152-17.7007-29.6746-21.3449-36.9631-8.3298-15.6183-16.6595-16.1389-16.6595-1.0413zm915.74844-127.0282-71.3232 1.5619-2.603 13.5358c-5.2061 27.0715-3.1237 27.5922 80.1735 27.5922h77.5705v-17.7007c0-9.3709-3.1237-19.2625-6.2473-21.8655-3.6442-2.603-38.5249-4.1649-77.5705-3.1237zm-1101.08463 3.1237c-1.56183 4.1648-2.08243 14.0564-1.04122 22.3861l1.56182 14.577h78.09111c76.52928 0 78.09111 0 79.65293-11.4533 1.04121-6.2473-1.04122-16.1389-4.16486-21.8656-5.20607-10.4121-10.41215-10.9327-78.61171-10.9327-57.78742 0-73.40564 1.5618-75.48807 7.2885zm896.48593-242.0824c-13.0152 14.577-6.7679 79.6529 9.8915 102.039 17.7007 23.9479 44.2517 76.0087 44.2517 86.4208 0 12.4946-9.371 13.0152-14.0564.5206-6.2473-15.6182-33.8395-55.1843-45.2929-64.5553-7.8091-6.2473-12.4945-7.2885-17.18004-3.1236-10.4122 8.3297-8.3297 19.2625 11.45344 58.8286 19.2624 38.525 22.3861 54.1432 11.9739 55.1844-3.6442.5206-22.38614 0-41.12804-.5206-38.5249-1.0412-48.4164 5.2061-45.2928 29.6746l1.5618 14.577 52.0608 2.6031 52.06074 2.603 1.5618 23.4273c1.5618 22.3861-8.8503 79.1323-20.8243 111.9306-13.5358 36.4425-31.23644 70.282-35.92194 67.679-6.7679-4.1649-5.7267-21.8655 1.5618-35.4013 8.8504-17.1801 19.78314-80.6942 19.26254-112.9718-.5206-28.1128-.5206-28.1128-5.72674-10.4122-2.603 9.8916-8.3297 26.0304-12.4946 35.4013-4.1648 9.3709-7.2885 21.3449-7.2885 27.0716 0 13.5358-25.5097 62.4729-34.36 66.1171-4.1649 1.5619-10.4122.5206-14.0564-2.603-8.8504-7.2885-28.1128 1.5618-32.2777 15.0976-2.603 7.8091-1.0412 13.0152 4.6855 16.1388 14.577 8.3298 8.8503 23.4274-18.2213 47.8959-27.0716 24.4686-33.8395 28.6334-73.4056 47.8959-46.3341 22.3861-61.4317 27.5922-69.2408 24.9892-10.9328-4.1649-1.5618-20.3037 16.6594-27.5922 24.9892-10.4122 43.2104-21.8655 43.2104-27.0716 0-7.8091-23.9479-5.2061-31.2364 3.1236-10.4122 12.4946-30.7158 9.8916-37.4837-5.2061-4.1649-9.3709-9.8916-13.0151-20.3037-13.0151-11.974 0-14.577 2.603-18.7419 19.2624l-4.6855 19.7831-52.0607 2.6031c-51.5401 2.603-52.0607 2.603-84.3384 26.0303-17.7006 13.0152-32.2776 26.0304-32.2776 29.154 0 5.7267 19.2624 15.0976 67.6789 31.2365 39.5662 13.5358 189.5011 13.5358 220.7375.5206 10.9328-5.2061 24.4686-8.8503 29.1541-8.8503 5.206 0 16.1388-3.6443 24.4685-7.8092 7.8091-3.6442 24.9892-11.9739 38.0043-18.2212 29.1541-13.5358 39.0456-19.7831 62.9935-38.0043 20.3037-15.0977 38.00444-18.2213 44.77234-7.2885 7.2885 10.9327 98.3948 92.1475 104.1214 92.1475 7.8092 0 22.3862-17.7007 22.3862-27.0716 0-4.1649-8.8504-15.6182-20.3037-25.5098-66.1172-58.308-89.0239-80.6941-89.0239-86.4208 0-3.6443 2.0824-6.7679 4.6855-6.7679 9.8915 0 56.2256-77.5705 78.6117-132.7549 33.3189-81.2147 33.8395-190.5423 1.0412-275.9219-19.7831-52.0607-67.679-132.7549-79.1323-132.7549-2.0824 0-7.8091 4.6855-12.4946 9.8916zm64.5553 220.2169c-.5206 14.577-1.0412 15.6182-5.7267 7.8091-3.1236-5.2061-4.1648-13.0152-2.603-17.1801 4.6855-12.4945 8.3297-8.3297 8.3297 9.371zm-388.37314 394.0998c4.6855 6.7679-21.8655 11.9739-40.6074 7.8091-14.0564-3.1237-15.0976-4.1649-5.7266-7.8091 14.577-5.7267 43.2104-5.7267 46.334 0zm-394.0998-760.6074c-14.577 16.1388-10.4121 24.4685 26.551 56.2256 58.8286 51.0195 79.1323 71.3232 79.1323 79.1323 0 4.1649-4.1648 16.1388-9.8915 26.551-28.1128 54.1431-39.5662 108.8069-34.3601 162.9501 1.5618 20.8243 4.1649 49.4577 5.2061 64.0347 1.0412 14.0564 2.0824 29.154 2.0824 32.2777.5206 3.6442 4.6855 6.7679 9.8915 6.7679 4.6855 0 20.3037 10.4121 34.3601 23.4273 35.4013 32.2776 69.2408 31.2364 38.525-1.0412-14.0564-15.0976-8.8503-21.3449 19.2625-23.4274 19.783-1.5618 20.8242-2.0824 20.8242-19.783v-18.2213l-31.2364-2.603c-17.18-1.5619-34.3601-4.6855-37.4837-6.7679-20.3037-13.0152 5.7267-137.4404 36.4425-177.0065 8.8503-10.9328 14.0564-10.9328 21.3449-1.0413 6.2473 8.8504 21.8655 11.4534 34.8807 5.7267 6.2473-2.603 9.3709-.5206 11.4534 7.2885 2.603 10.4122 6.2472 7.8091 38.5249-23.9479 46.8547-46.3341 89.5445-67.1584 127.5488-62.4729 21.3449 3.1236 28.1128 2.0824 36.4425-5.7267 8.8503-7.8091 18.7419-9.3709 63.5141-7.8091l52.5814 1.5618 27.0715-36.4425 27.5922-36.4425-11.4533-10.9328c-6.2473-5.7266-14.577-10.4121-18.2213-10.4121-3.6442 0-14.0564-3.1236-23.4273-7.2885-61.4317-25.5098-173.8829-32.27766-241.0412-13.5358-44.2517 11.974-73.9263 22.9067-79.1323 28.1128-2.6031 2.0824-11.974 7.2885-20.8243 10.9328-9.371 4.1648-28.6334 18.2212-43.2105 31.757-28.1128 26.551-25.5097 26.551-56.7462-2.603-52.0607-47.8959-88.5032-78.6117-92.6681-78.6117-2.603 0-8.8503 4.1648-13.5358 9.3709zm394.6204 57.7874c3.1237 5.2061-23.9479 26.551-33.8395 26.551-21.3449 0-119.7396 85.3796-119.7396 103.6009 0 9.8915-10.4122 11.4533-14.0564 2.0824-2.0825-5.2061-8.8504-13.5358-15.6183-18.7419s-11.9739-13.0152-11.9739-16.6594c0-15.0976 107.2451-85.3796 131.193-85.9002 3.6443-.5206 12.4946-3.6443 19.7831-7.8091 14.577-8.3298 39.5662-10.4122 44.2516-3.1237zm433.66604-212.4078c-5.2061 2.60303-9.371 8.85032-9.371 12.49457 0 5.20608-5.206 7.80912-15.6182 7.80912-8.8503 0-20.3037 3.12364-26.0304 6.24728-7.8091 5.20608-11.4533 5.20608-16.6594 0-9.8915-9.89154-19.7831-7.2885-19.7831 5.72668 0 6.7679-5.7267 17.70066-13.0152 24.46855-10.4121 9.89154-12.4945 15.61822-10.4121 26.55098 4.6855 19.78308-3.6443 32.79826-46.85474 74.96742-41.1279 40.0868-66.1171 71.8439-119.2191 152.0174-47.8958 72.3644-71.3232 89.0239-135.8785 97.3536-14.0564 2.0824-24.9891 7.2885-33.3189 17.18-6.7678 7.8091-19.783 22.9067-28.6334 32.7983-90.5856 100.4772-194.1865 241.0412-232.1908 313.9262-27.0716 51.5402-52.0608 69.7614-52.0608 36.9632 0-14.5771 9.3709-32.7983 40.6074-79.1324 23.4273-35.4013 24.4685-53.6225 1.5618-28.1128-32.7983 36.9632-41.128 46.8547-67.6789 79.1324-15.0977 18.7418-29.1541 34.8806-31.2365 36.4425-2.0824 1.5618-32.79825 36.4425-68.19955 78.0911-35.40131 41.6486-66.11714 76.5293-67.67896 78.0911-9.89154 8.3297-52.06074 64.5553-52.06074 68.7202 0 3.1236 5.20607 4.1648 11.97397 2.0824 6.24729-1.5618 24.46855-4.1649 40.08677-6.2473 43.73102-4.1649 132.75491-26.0304 169.19741-41.128 27.0716-11.4533 93.1887-44.2516 109.3275-54.6638 8.8504-5.7266 19.2625-11.9739 23.4274-14.0564 27.5922-12.4945 123.9045-93.7093 190.5423-159.8264 84.859-85.3796 108.2863-110.8894 145.77-160.3471 14.0564-18.2213 33.8395-43.2104 45.2929-56.2256 27.5922-31.757 36.4425-50.4989 37.4837-76.5293.5206-27.5922 14.577-43.2104 42.1692-47.8959 15.6182-2.603 23.9479-8.3297 37.4837-26.0303 18.7419-24.4686 19.2625-33.8395 5.7267-66.6378-8.3297-20.3037-3.1236-32.2776 30.19524-69.2407 26.0304-28.6335 56.7462-41.6486 77.0499-32.2777 7.2885 3.6442 25.5098 6.2473 40.0868 6.2473 23.4273 0 28.1128-2.0824 46.3341-20.3037 18.2212-18.2213 20.3036-22.3861 20.3036-47.8959 0-18.2212 3.1237-30.71582 8.8504-36.96311 7.2885-8.32972 7.8091-11.97397 2.603-19.78308-7.2885-11.97397-8.3297-29.15401-1.5618-33.31887 2.603-1.56182 5.7267-7.2885 7.2885-13.01518 2.0824-8.85033 1.0412-9.37094-9.8916-5.72668-15.6182 6.24728-26.5509 2.08242-30.7158-10.93276-2.0824-5.20607-5.2061-9.89154-7.8091-9.89154-9.3709 0-20.8243-17.18004-20.8243-31.75705 0-16.13883-2.603-17.70065-16.6594-9.37093zm15.0976 129.63123c25.5097 8.85033 35.4013 43.73107 19.7831 66.11717-20.3037 28.6334-67.679 21.3449-77.5705-12.4946-6.2473-22.3861 4.1648-46.33406 22.3861-53.10196 18.2212-6.76789 17.7006-6.76789 35.4013-.52061zm-181.69204 219.69627c9.3709 19.7831 2.603 39.5662-16.1388 48.9371-13.0152 6.7679-17.7007 7.2885-28.1128 1.5619-39.0456-20.8243-27.0716-69.2408 16.1388-66.1172 17.1801 1.0412 22.3861 4.1649 28.1128 15.6182zm-355.5748 309.2408c16.6594 10.9328 17.18 35.9219 1.5618 52.5814-13.5358 14.577-23.4273 15.0976-40.0868 2.0824-24.4685-18.7419-13.0152-62.4729 16.6595-62.9935 5.206 0 15.0976 3.6443 21.8655 8.3297zm91.1063-690.84596c-2.6031 5.72668-5.2061 41.64859-5.2061 80.17354 0 76.52928 3.1236 85.90021 28.6334 79.65292l13.0152-3.12364v-77.04989c0-79.65293-2.6031-89.54447-21.8655-89.54447-4.6855 0-11.4534 4.68547-14.577 9.89154z" style="stroke-width:.520607"/></svg>