<svg height="960" style="" width="1850" xmlns="http://www.w3.org/2000/svg"><path d="m870.13718 274.54348c-24.71493 16.94741-46.60528 31.0702-48.72369 31.0702-2.11842 0-15.53513 9.1798-30.36408 21.18418-14.82896 11.2983-28.95175 21.18427-31.07016 21.18427-2.82457 0-14.12279 7.0614-25.42109 15.53504-20.47802 14.82896-21.18419 16.94745-21.18419 74.14478 0 45.19303 2.11841 58.60974 9.88597 58.60974 4.94299 0 13.41663-4.94298 18.35962-10.59213 4.94298-5.64915 11.29829-10.59214 14.82895-10.59214 2.82458 0 25.42109-13.41662 50.13602-29.65791 50.13603-33.89473 62.84657-41.66229 96.03514-58.60966 21.18427-11.29821 24.00876-11.29821 45.8992 0 32.4824 16.94737 45.19295 24.71493 95.32893 58.60966 24.715 16.24129 47.3115 29.65791 50.136 29.65791 3.5307 0 9.8859 4.94299 14.8289 10.59214s13.4167 10.59213 18.3597 10.59213c7.7676 0 9.886-13.41671 9.886-58.60974 0-57.19733-.7062-59.31582-21.1842-74.14478-11.2983-8.47364-21.8904-15.53504-24.0088-15.53504-2.1185 0-23.3026-13.41671-48.0176-30.36407-24.7149-16.94737-49.42982-32.48249-55.07897-35.30706-5.64915-2.82454-23.3026-12.71051-38.83772-22.59648-15.53512-9.17983-29.65791-16.94737-31.77632-16.94737s-23.30268 14.12281-48.01761 31.77633zm-382.72825-64.2588c-13.41667 4.94298-32.48247 9.88596-41.6623 9.88596-9.17982.70615-31.07019 4.94298-49.42984 10.59212-41.6623 13.41667-87.56145 24.71492-127.81147 32.48247-17.65352 3.5307-43.78072 11.29825-57.90354 16.94737-21.18422 9.17979-26.83335 15.53511-26.83335 30.36406 0 9.88597-4.23684 34.6009-9.88597 54.37284-5.64912 19.77194-15.53509 61.43424-21.89036 92.50439-6.35526 31.07025-16.24123 72.73254-21.89037 92.50448-16.24123 57.90349-13.41667 76.26319 15.53511 100.97812 26.83334 24.00876 38.13159 23.30259 38.13159-2.82458 0-9.1798 3.53071-25.42109 7.76756-36.71931 4.94298-10.59213 10.59211-32.48248 13.41666-48.0176 12.71054-70.61404 41.66231-173.00441 48.01757-173.00441 2.82457 0 74.14478 68.49563 158.88166 152.52638l153.23253 152.52638v129.92987c0 71.32021 1.41229 129.92986 3.53071 129.92986 2.82452 0 23.30263-12.71046 46.60531-28.24558 23.3026-15.53512 44.48687-28.24566 46.60528-28.24566s15.53504-9.88598 30.36399-21.18419c14.82896-12.00438 29.65791-21.18427 33.18865-21.18427 2.82458 0 47.31145 41.66237 97.44738 91.79831 50.13603 50.84221 96.74131 91.79831 102.39046 91.79831s52.25442-41.6623 102.39031-91.79831c50.1361-50.8421 94.6229-91.79831 97.4475-91.79831 3.5307 0 18.3596 9.17989 33.1886 21.18427 14.8289 11.29821 28.2456 21.18419 30.3641 21.18419 2.1184 0 23.3026 12.71054 46.6052 28.24566 23.3027 15.53512 43.7807 28.24558 46.6053 28.24558 2.1184 0 3.5308-58.60965 3.5308-129.92986v-129.92987l153.2325-152.52638c84.7368-84.03075 156.057-152.52638 158.8816-152.52638 6.3553 0 35.307 102.39037 48.0176 173.00441 2.8246 15.53512 8.4736 37.42547 13.4166 48.0176 4.2369 11.29822 7.7676 27.53951 7.7676 37.42548 0 22.59651 18.3597 21.89035 43.7807-2.11841 22.5965-21.89044 24.7149-42.36846 9.8859-96.7413-5.649-19.77194-15.535-61.43424-21.8903-92.50448-6.3552-31.07015-16.2412-72.73245-21.8904-92.50439-5.6491-19.77194-9.8859-44.48687-9.8859-54.37284 0-14.82895-5.6492-21.18427-26.1272-30.36406-14.829-5.64912-36.0132-12.00439-48.0176-14.12281-11.2982-2.11842-36.7193-7.76755-56.4913-13.41667-55.785-14.82896-96.7412-25.42107-127.1052-31.07019-15.5351-3.53071-43.0746-9.88597-61.4342-15.5351l-33.8949-9.17983-28.2455 27.53949c-14.829 14.82895-26.1273 29.65791-24.715 32.48247 4.943 7.06141 179.3597 55.07895 266.9212 73.43864 41.6623 8.47365 33.1886 21.18419-105.215 159.58778-73.4386 73.43862-138.4036 133.46061-144.7588 133.46061s-24.0088-9.17981-38.8377-19.77195c-14.829-11.29821-32.4825-21.89035-38.1317-24.71492-5.649-2.82458-19.0657-10.59214-29.6579-17.65353-28.9517-19.06578-117.9255-74.85087-131.3421-82.61843-6.3553-4.2369-31.7764-20.4781-56.49132-37.42547-24.71493-16.24128-50.8421-29.65791-57.90349-29.65791-7.0614 0-33.18866 13.41663-57.90358 29.65791-24.71494 16.94737-50.13595 33.18857-56.49126 37.42547-13.41663 7.76756-102.39036 63.55265-131.34211 82.61843-10.59214 7.06139-24.00885 14.82895-29.65791 17.65353-5.64915 2.82457-23.30268 13.41671-38.13164 24.71492-14.82896 10.59214-32.48249 19.77195-38.83772 19.77195-6.35527 0-71.32022-60.02199-144.75885-133.46061-138.40358-138.40359-146.87727-151.11413-105.21497-159.58778 10.59212-2.11841 38.1316-8.47372 60.7281-14.12279 21.89037-5.64915 60.02196-15.53512 84.73689-21.89043 135.57899-34.60086 133.46058-32.48244 99.56584-67.08333-28.95177-29.65791-40.95616-31.77633-80.50005-16.94737zm509.83363 561.38187c34.60084 23.30259 66.37724 42.36845 69.90784 42.36845 3.5308 0 6.3553 5.64907 6.3553 12.00438 0 15.53504-133.46056 150.40797-148.28951 150.40797-14.82896 0-148.28957-134.87293-148.28957-149.7018 0-7.06148 2.82457-12.71055 6.35531-12.71055 4.23682 0 34.60082-19.06586 69.20172-42.36845 33.89482-22.59652 66.3773-41.6623 71.32029-42.36846 5.64907 0 38.13155 19.06577 73.43862 42.36846z" style=""/></svg>