<svg height="960" style="" width="1592" xmlns="http://www.w3.org/2000/svg"><path d="m1204.501 660.79528c-2.4425 2.44254 3.6639 11.60218 14.0448 20.76182 20.762 19.54061 22.5939 29.92157 8.5491 51.90482-14.6555 21.98315-14.0449 91.59654 1.2213 119.07558 29.9216 52.51532 86.7115 79.38364 140.4481 65.94953 76.9411-18.93 121.5181-95.2605 96.4817-164.87389-21.9831-61.06436-78.773-97.70304-138.0055-87.93279-14.6555 1.83193-36.6386 3.66386-48.8515 4.27457-15.2662 0-23.2045 3.05325-23.2045 7.93833 0 17.09807-12.8235 15.26614-29.311-3.05315-9.7702-10.38096-18.9299-16.48746-21.3725-14.04482zm188.6891 65.94954c61.6749 47.01953 26.2576 149.60775-51.2941 149.60775-47.0197 0-92.2073-50.68339-84.269-94.64979 6.1065-32.36411 19.5407-31.14289 50.6835 3.05315 31.1428 34.80675 52.5154 39.08121 55.5686 12.21289 1.2213-10.99157-6.1064-24.42568-25.647-46.40893-15.2661-17.09797-25.6471-32.97472-23.8152-35.41736 1.832-1.83193 16.4875-3.66386 31.1429-3.66386 20.1512 0 32.9747 4.27458 47.6303 15.26615zm-901.31055-536.14544c-18.93 19.54061-45.79832 53.73665-60.45375 76.3305-14.65543 23.20447-28.70025 41.52375-31.1429 41.52375-8.54892 0-22.59375 58.01122-36.63857 150.82908-6.1065 40.91314-2.44264 89.154 9.77025 131.28846 4.27457 14.65543 16.48747 14.04482 29.92157-1.22132 9.15965-9.77025 10.38097-18.92989 7.32772-53.12604-4.27447-50.07278 2.44264-127.01389 10.99157-126.40328 7.32782 0 75.10929 78.77314 117.24365 135.56303 28.08964 37.24929 29.92157 38.47051 53.12603 36.63858 21.37254-1.83193 25.03639-4.27447 29.31097-20.15122 4.88517-19.54061 18.93-148.38654 18.93-174.03354-.61072-29.92157-10.99168-75.10918-18.3194-77.55182-12.8235-4.27446-20.15121 20.15132-26.25771 90.98593-6.717 77.55182-12.8235 105.64147-23.20447 105.64147-3.66385 0-17.09796-14.04482-29.92146-30.53218-12.82361-17.09807-29.31097-37.86-36.02807-45.79832-62.28568-71.44533-64.11761-75.10918-60.45375-90.98593 6.7171-26.25772 39.08121-74.49858 75.71989-112.35858 18.92989-19.5405 35.41736-38.4705 36.63857-41.52375 2.44265-7.32771-17.09796-29.92157-26.2576-29.92157-3.05325 0-21.37254 15.87675-40.30254 34.80675zm169.75907-106.862686c-39.08121 13.434107-47.63025 25.646996-30.53228 43.355676 10.38096 9.77036 15.26614 10.99158 32.36421 4.88518 11.60218-3.05325 28.08954-7.93843 36.63857-9.77036 12.2129-1.83192 17.09807-7.93832 20.15132-21.98314 6.717-33.585428-1.22132-36.027963-58.62182-16.487356zm156.32486-12.823501c-1.83193 3.663858 1.22122 12.212786 7.32772 19.540608 6.7171 7.327714 12.21289 14.655429 12.8235 15.266039.6106 1.22132 19.5406 7.32771 42.74507 14.04482 51.90471 14.04482 83.65821 25.0364 94.03918 33.58543 4.88518 3.66386 12.8235 8.54904 17.70868 10.99158 25.64697 11.60228 42.13447 24.42578 75.10917 56.78989 35.4174 35.41736 77.5518 96.48172 77.5518 112.96918 0 4.88507 3.0533 11.60218 6.7171 15.26604 10.381 10.38096 23.8151 87.32207 23.8151 138.00557 0 38.47061-1.832 48.24086-10.381 51.29411-9.7702 3.66385-16.4873-2.44265-62.2856-58.01122-11.6022-14.04482-23.2045-23.81507-26.8684-21.37253-10.9915 6.7171 4.8852 73.88796 20.762 87.32207 1.8319 1.83193 15.266 15.87675 28.7002 31.7535 21.3726 25.64711 24.4258 31.14289 19.5406 47.01964-6.7171 24.42568-25.0364 51.29411-31.1429 45.18761-29.3108-29.31086-60.4537-142.28004-60.4537-220.44247 0-25.647-3.6639-53.73664-9.1597-66.56025-4.885-11.60218-9.1596-34.80664-9.1596-50.07278 0-31.14279-14.6554-51.90472-39.69182-56.7899-9.77036-1.22121-12.8235-7.93832-15.26615-32.97471-3.05325-32.36411-29.31085-75.7199-45.1876-75.7199-19.54061 0-26.86833 20.76193-26.86833 75.10918 0 40.91315-2.44264 59.23254-10.99167 75.10929-12.8235 23.20446-23.20447 24.42568-25.647 1.83193-1.22133-14.65554-12.2129-59.23254-28.70025-118.46497-4.88518-17.09796-9.77036-36.02796-11.60229-42.74507-15.87675-64.728222-56.78989-106.252079-81.82629-81.215687-9.77025 9.770358-9.15964 26.868327 1.22132 46.408927 20.15122 39.69194 37.8599 213.72548 22.59386 228.99151-7.32782 7.32772-30.53228-17.09796-31.14289-33.58543 0-5.49578-2.44254-11.60217-5.49579-14.04482-3.66386-1.83193-13.43421-17.70868-21.98314-35.41725-29.92157-58.62182-34.19614-64.72832-73.88797-106.25207-32.3641-33.58543-41.52375-40.30254-49.46218-34.80676-18.93 11.60229-22.59385 23.81518-12.8235 42.74508 40.30254 78.16243 53.73665 106.25207 53.73665 114.1904 0 4.88517 4.27446 12.21289 9.15964 16.48746 4.88518 4.27446 9.15964 13.43411 9.15964 20.15121 0 6.71711 3.66386 26.25772 8.54904 43.35579 40.91314 148.38643 37.24929 189.91018-18.92989 223.49561-21.37254 12.21289-42.74518 14.04482-155.71426 12.82361-49.46217-.61072-62.89639 1.22121-79.99435 11.60218-26.25772 15.26614-31.7535 33.58543-15.87675 49.46218 9.77025 9.77035 20.15121 11.60228 64.1176 11.60228 32.97483 0 58.62183 3.05315 68.39208 8.54893 9.15975 4.88518 28.08964 13.43422 42.13446 18.93 14.04482 6.10639 34.19604 20.15122 44.577 31.14289 10.38097 11.60218 21.37254 20.76183 24.42579 20.76183 3.66386 0 27.47903 13.43421 53.12603 30.53218l47.01954 30.53228h62.89639c60.45376 0 62.89629.61061 78.16243 16.48736 32.97483 36.02796 13.43422 46.40893-85.49014 47.01953-59.23254 0-80.60507-2.44253-110.52654-13.4341-86.10086-29.92157-148.99714-76.3305-198.45932-144.72268-17.09807-23.81507-22.59386-28.08954-38.47061-26.25761-9.77025 1.22121-18.93 4.88507-20.15121 8.54893-3.66386 11.60228 36.63857 65.94964 79.99435 108.084 43.35568 42.13446 48.24086 45.18771 99.53497 70.83471l40.30254 20.15133c12.21278 6.10639 46.40893 13.4341 109.30521 24.42568 40.91315 6.7171 62.8964 4.88517 139.2269-13.43411 106.25196-25.64711 226.5489-123.35015 281.5068-228.9915 7.3277-13.43422 16.4873-26.86833 21.3725-29.31097 4.8852-2.44254 8.549-9.77025 8.549-15.87675 0-6.10639 4.2745-14.65543 9.1597-18.92989 6.7171-5.49579 7.3277-9.77036 2.4426-15.87675-4.2745-5.49579-4.2745-14.65554 0-31.1429 10.3809-36.63868 8.549-156.93546-3.0532-196.62739-43.3558-145.9439-145.3333-249.14273-292.49847-295.551657-39.69183-12.212892-93.42858-17.708678-98.31365-9.77025zm-603.92695-38.470606c-45.18766 15.876749-68.39214 40.913142-86.1008 91.596533-10.9916 30.53229-10.9916 32.36422.61064 66.56026 16.48738 47.63025 42.74508 76.3305 85.49016 90.37532 32.97477 11.60218 34.19606 11.60218 67.17083 0 32.97478-10.99157 34.19607-10.99157 42.13444.61061 8.54901 10.99157 9.15966 10.99157 15.26614-4.88518 3.05314-8.54903 9.15964-17.70868 12.21289-20.15121 3.66386-1.83193 6.717-9.77036 6.717-16.48736 0-7.32771 4.27457-17.70868 9.77036-23.81518 7.32771-7.93832 9.77025-23.20446 9.77025-56.7899 0-53.12604-10.99157-76.330501-50.07278-107.473286-19.5406-15.266143-30.5322-18.93-62.28568-21.372557-21.37254-1.221279-43.96638-.61064-50.68345 1.83195zm79.38372 51.294107c21.37253 14.655428 45.7983 54.957966 45.7983 76.330506 0 7.32772-5.4958 18.9299-11.60225 26.86832l-12.21287 14.65543-18.92997-23.20446c-28.70027-33.58543-40.91314-39.08122-50.0728-20.15122-5.4958 13.43411-4.27451 18.9299 7.93837 37.24929 7.93837 11.60218 16.48739 21.37254 19.54061 21.37254 11.60223 0 2.44257 17.70868-10.99159 20.76182-39.08122 9.77036-85.49017-23.81507-91.5966-65.94954-4.88516-37.24929 3.66386-59.23244 32.97478-81.826294 31.14283-23.815071 58.62182-25.646999 89.15402-6.106392z" style="stroke-width:.610644"/></svg>