<svg height="960" style="" width="968" xmlns="http://www.w3.org/2000/svg"><path d="m120.08337 0v14.56787 727.89552.0623c.22313 19.98562 6.36305 38.58618 16.43555 53.72681l.56029.87156c16.74039 24.23705 37.35808 45.59075 61.6333 63.68775l.24903.18678c30.19279 23.42 62.04786 44.92807 99.29809 66.11573 52.21125 30.72747 106.01377 56.27082 160.8069 81.86648l25.58715 11.0192c51.47811-21.51563 101.14634-47.11922 149.78759-72.71484l4.73146-2.30348c51.79688-27.85875 100.48843-60.72685 143.9978-96.7456l.4358-.37354c18.32812-14.72625 34.38413-32.08468 48.18601-52.35718 10.02816-15.29372 15.87525-33.614 15.87525-53.29101v-.49805-150.53466-577.04956c.15937-2.39062.24905-4.79918.24905-7.22168s-.0593-4.83853-.18679-6.9104zm19.48608 19.1748 690.29296.56031c.11969 1.297.18679 2.56285.18679 3.85986 0 1.33875-.0593 2.71236-.18679 3.85986v9.21387 696.02051.0623 1.30738c0 26.93438-10.67662 51.37552-27.95288 69.35302l-.18676.31129c-25.12115 26.83827-53.52181 50.56328-86.3489 71.53197l-.249.12453c-36.6389 24.2643-74.84499 46.63749-120.5896 69.60203l-108.82326 53.54-49.36889-22.53661c-38.66438-18.71063-77.58524-38.44275-115.48461-59.70337l-4.29565-2.1167c-40.32187-22.185-78.54499-47.61477-112.6831-74.64477l-.49806-.4358c-17.78336-14.35373-33.54993-31.13598-47.25219-50.61402-10.39126-13.80188-16.56006-30.91028-16.56006-49.4934v-.12451-708.16041zm40.21729 37.16675v15.62622 255.99608h1.80542l302.87476-156.947c101.3625 52.75312 202.45257 105.18999 304.86694 157.9431v-272.6184zm304.68018 217.58423-305.42725 163.60838v31.99954l305.42725-157.94312 304.86694 157.94312v-32.24854zm0 140.32472-305.17823 163.35937v32.24851l305.17823-157.94311 304.86694 157.94311v-32.24851zm0 139.26633-304.9292 163.35938c-.95577 4.75693-1.49414 9.60594-1.49414 14.63015 0 15.33187 4.70405 29.61235 12.51343 41.1511l.49804.80934c6.15188 8.7975 12.90788 17.15821 19.98413 24.84009 16.16063 16.32 33.95086 31.05572 54.28711 44.76197l-4.48242-2.80153c64.79876 44.15491 133.94032 82.4933 214.78271 117.47681l.12451.0623c2.64916 1.33378 5.66833 2.11669 8.84034 2.11669 3.21937 0 6.25846-.77794 8.84033-2.11669 35.3175-16.12875 70.41685-32.81282 104.71435-51.23657l5.04272-2.42799c40.19438-21.06937 78.70885-44.99156 112.49635-69.72656l.80933-.62255c19.92188-14.28 37.88494-31.13837 53.72681-50.61402l-.12453.0623c12.3675-14.12063 19.92187-32.64501 19.92187-52.91751 0-4.74937-.44972-9.39914-1.18285-13.44726z" style="stroke-width:31.875"/></svg>