<svg height="960" style="" width="1104" xmlns="http://www.w3.org/2000/svg"><path d="m983.97519 462.96132c-.61986-13.12763-.1645-26.16088-2.83691-39.30922-2.6984-13.27556-1.42764-27.35302-4.07764-40.64421-2.29783-11.5241-4.66121-23.54073-12.53609-33.30722a137.70641 137.70641 0 01-9.55495-14.32037 252.58 252.58 0 00-32.21676-42.78183c-9.4461-9.83626-19.83675-18.7412-19.85101-34.93155-3.27764 1.66021-5.05415 2.55986-6.82672 3.45778-5.69802-11.17812-10.82342-22.80753-11.81574-35.83003-.0692-.91039-1.13802-1.74447-2.36904-3.51688-2.56983-.72719-5.9388-1.68048-8.25184-2.3351-2.46875-3.40487-4.29362-5.92179-7.0775-9.7616a35.931499 35.931499 0 00-.64992 7.46749c.5709 3.55924 1.66644 7.03434 2.61643 10.83512-4.51054 6.08652-9.12904 12.31893-12.91262 17.42439-16.80141-.87388-27.77485-9.94052-39.96794-18.9962a108.43978 108.43978 0 01-7.63197-50.42708c-3.62851-6.13389-6.80296-11.50022-9.2594-15.65319.0548-29.0218.0548-29.0218-7.03571-34.81846.6152 7.5001 1.15487 14.08041 1.76947 21.5754-.87546.97985-2.63927 2.9534-4.14262 4.63585-1.30105 24.16313-.41422 48.28221-4.60833 71.48269-2.84803 15.75404.42536 28.61907 5.82076 42.19434a25.474864 25.474864 0 011.50391 4.40598c1.86176 9.49842 7.93208 15.78724 15.66725 20.8572 9.19225 6.02505 18.43507 11.91136 29.29615 14.63687a30.510149 30.510149 0 015.48553 2.56433c.47725 3.90956.91701 7.51042 1.24931 10.23241 6.58265 8.77767 15.13555 10.98201 24.344 10.57425a24.300429 24.300429 0 0116.1833 5.1886 223.51914 223.51914 0 0122.80735 19.65743c9.26231 9.30241 17.08275 19.68146 19.5353 33.22569 1.19799 6.61522 4.06259 12.98561 4.78586 19.61816 1.56578 14.36018 7.34517 28.46847 3.56114 43.13145-3.11615 1.10338-5.80263 2.05471-10.20765 3.61446 4.6614 3.35973 7.8105 5.62916 11.17596 8.05456-1.09184 3.87744-2.34485 7.24155-2.9682 10.71854-4.04156 22.53611-11.10049 43.5619-28.29817 59.92977a37.758893 37.758893 0 00-7.43198 10.05622c-4.71309 9.25176-12.18665 15.98351-19.78933 22.55132-11.97008 10.34091-24.58714 19.95304-36.28601 30.58284a149.15838 149.15838 0 01-67.94269 34.51185c-1.21498-14.94085-2.13259-29.04328-3.58246-43.0909-1.01807-9.86675-2.30385-19.75149-4.26998-29.46646a129.80794 129.80794 0 00-34.66184-64.04857 62.593362 62.593362 0 01-6.38912-8.90133c-5.70487-8.69592-11.32348-17.44843-17.7313-27.34503 5.2438-4.92187 11.71467-10.50558 17.61328-16.63928 10.30594-10.71707 23.10272-15.83131 37.42328-18.26064a144.48153 144.48153 0 0015.39173-4.41283c-4.6684-27.2982 8.37807-53.3354-.51742-79.66919.75547-1.29357 2.27442-2.67767 2.24591-4.02902-.39918-18.91564 3.56841-38.002-2.50267-56.71102-3.27962-10.10713-1.87093-21.09797-4.09539-31.12471-3.91452-17.6439-7.34283-35.86338-16.92375-48.32885-1.94136-16.51205-3.53016-30.02466-5.35503-45.54538-3.41385 4.55622-5.59636 7.46905-8.97822 11.98235a107.75598 107.75598 0 00-25.39041-41.11303 18.980094 18.980094 0 00-6.68215-17.44996c-3.26704 2.235-6.60394 4.5178-9.70973 6.64255-7.39219-4.50844-13.6449-10.38225-20.92801-12.26059-9.89154-2.55097-18.06574-7.79567-26.99294-11.92792a28.091908 28.091908 0 01-14.90708-15.43757 21.497464 21.497464 0 00-8.71251-11.25773c-2.4069 5.85412-4.48363 10.90554-6.73133 16.37273-15.25086-4.0934-18.49653-16.27421-23.72007-26.75108.44993-16.68378 1.36637-33.3416-11.3855-47.24971-2.89995 18.3506-5.65295 35.77151-8.42781 53.32974-4.04585 2.80728-7.86632 5.45805-11.5143 7.98923-.85032 6.81425-2.65966 13.2697 4.58238 17.92311 2.04301-2.7858 4.11156-5.60631 6.29251-8.58021 7.24174 23.16477 20.64903 41.23029 41.22737 51.13277 2.3359 5.84924 4.05912 10.16453 5.73489 14.36096 19.37905 4.95169 37.32517 11.78783 52.83943 23.97606a32.533118 32.533118 0 006.88742 3.74014 75.681489 75.681489 0 0129.35914 24.07224 244.0709 244.0709 0 01-3.92365 28.05365c-2.13375 8.61105-5.52363 18.88637-14.04567 21.82769-10.1737 3.51141-18.15766 10.18188-27.65681 14.43355-17.64579 7.89828-34.73936 17.04391-52.46308 24.74963a45.641639 45.641639 0 00-23.70715 21.98052 36.959558 36.959558 0 01-5.31717 7.71664c-12.90153 14.53988-25.92071 28.97538-39.62846 44.25629a76.969343 76.969343 0 00-11.3861-12.07564c-12.74739-8.98954-21.64036-21.0191-31.01663-33.23326a85.728689 85.728689 0 00-34.68626-26.67931c-10.57191-4.45323-20.8697-9.58444-31.55045-13.74323a240.63371 240.63371 0 00-29.54803-9.7062c-13.5491-3.33893-27.36339-5.60127-41.12283-8.33748-.88867-1.39466-2.6094-2.84507-2.4379-4.0195 1.73239-11.86472 3.43326-24.18168 10.11827-34.14446a182.58919 182.58919 0 0140.05243-42.82924c10.74888-8.29691 22.89628-14.75958 33.87676-22.78372 17.40137-12.71648 34.94342-25.3576 51.3076-39.33966 13.98237-11.94707 28.34889-23.87518 39.45538-38.70618 7.82162-10.44467 13.52569-22.46101 21.18751-33.04266 14.75393-20.3766 18.86715-53.06634 18.51801-77.492492-.57445-40.185089-1.42509-66.032208-8.30337-78.319178 0 0-11.32812 61.615144-24.46282 87.909289-2.57602 5.156855-6.41878 9.606889-9.15737 14.665341a153.70082 153.70082 0 01-34.22307 43.0774 53.626583 53.626583 0 01-8.30504 4.51605c1.24169-7.08602 2.07735-11.85397 2.93722-16.76142-1.91347.51997-3.47864.94552-5.83052 1.58451v-14.21541c-4.95291 7.46378-10.26752 14.72081-14.69926 22.4824-11.72288 20.53058-24.35398 40.14737-42.69602 55.73001-8.45904 7.18619-16.56005 14.07981-28.24701 15.51407-3.31961-2.75127-6.7879-5.6262-10.2562-8.50061l.44755.42376c-20.68267 23.98249-34.33578 51.89139-44.8619 81.42069-9.04772 25.38142-17.83961 50.88343-20.36571 76.94344-8.42011 1.35838-15.6007 2.9622-22.866 3.59707-15.41709 1.34724-29.22159 7.78824-42.91294 13.91204-32.72143 14.6351-65.21534 29.9441-85.95956 61.47407-10.65014 16.18761-23.23364 31.45992-31.44567 48.80238-9.72756 20.54366-16.32279 42.6749-23.08283 64.48775-5.71365 18.43746-5.10961 37.9326-3.02952 56.72099 1.8922 17.09117 3.33369 34.30525 6.01939 51.29082 1.9357 12.24225 4.9251 24.51758 12.5748 34.93799 3.39883 4.62979 6.68606 9.36788 9.66465 14.27491a229.76403 229.76403 0 0034.32746 45.12806c9.131 9.0036 17.66772 17.93499 17.61308 32.31897l8.35299-3.04508c4.2644 12.74582 8.50745 25.42707 13.23966 39.57088 1.90878.59081 5.25669 1.62712 7.71044 2.38677 2.51674 3.07713 4.51976 5.52576 6.52258 7.9744q1.00792-.51537 2.01588-1.03058c-.92286-5.00946-1.84575-10.01875-2.95222-16.02446 4.03801-5.47327 8.65571-11.73262 12.52125-16.97272 17.12336.91585 28.42165 10.38752 40.88751 19.86523a193.28906 193.28906 0 016.441 24.59766 182.06339 182.06339 0 01.24915 24.98186c3.55377 5.87343 6.78247 11.20934 9.37295 15.49084-.0642 28.82631-.0642 28.82631 6.99179 35.4753-.61695-7.77244-1.13904-14.35294-1.75112-22.06473.68681-.78511 2.4309-2.77837 4.81321-5.50117 0-9.42327-1.85472-19.95061.37814-29.52499 4.96128-21.27434.15473-43.15428 6.16005-61.14609-4.03105-10.70185-7.62592-18.31646-9.72513-26.32301a32.79563 32.79563 0 00-15.62293-20.91944c-11.2037-6.50912-22.89142-12.18471-35.23404-18.6696-.24972-2.3755-.62843-5.97607-.92989-8.84165-8.58451-11.6376-20.6347-10.57096-32.63158-11.14729-17.89514-11.69849-35.04001-24.69659-47.33675-46.59937-6.24511-22.20151-13.24669-47.23369-12.18919-72.97529 3.99783-2.00264 6.82618-3.41913 10.24997-5.13415-4.34113-3.32722-7.49888-5.74768-10.39533-7.96756a93.646982 93.646982 0 002.99768-9.81509c4.12097-22.47875 10.95747-43.59134 28.11279-60.0236a135.06176 135.06176 0 008.53027-11.24622 219.31861 219.31861 0 0118.77423-21.28271c11.66432-10.66713 24.53523-20.01432 36.21281-30.66815 19.33046-17.6362 41.89878-28.39883 68.13673-34.70442 1.18569 14.22788 2.1632 27.77934 3.48098 41.29742a236.13281 236.13281 0 008.5529 46.02728c5.32571 17.53094 15.85101 31.72705 27.0268 45.66658 3.61109 4.50415 7.35561 8.93277 10.58985 13.70071 5.56398 8.20274 10.77578 16.64494 17.01994 26.363a158.22266 158.22266 0 00-12.97314 11.81379 66.304317 66.304317 0 01-45.106 23.08419c-3.90673.32798-7.62734 2.87438-12.59325 4.86317 5.34137 26.48534-8.36014 52.51541.69596 78.99074-.67665 1.18412-2.15266 2.56142-2.13784 3.92236.20641 18.91446-3.57345 37.9624 2.37391 56.69813 3.2045 10.09545 1.9714 21.0802 4.14066 31.12159 3.81619 17.6642 7.25306 35.8948 16.92081 48.49312 1.92809 16.36437 3.52078 29.88277 5.34293 45.34841l8.94255-11.423c6.14831 15.91523 13.94925 29.45281 23.04202 38.34853 2.96081 8.52381 4.93008 14.19373 7.42769 21.38455l11.15901-8.26987c7.46865 4.55137 13.71475 10.27708 20.99472 12.32246a167.7446 167.7446 0 0127.01101 11.87254 28.668018 28.668018 0 0114.93908 15.41808 21.536529 21.536529 0 008.8354 11.37322c2.3185-5.73468 4.37308-10.81674 6.59125-16.30317 15.27429 3.92037 18.52249 16.12534 23.59596 26.15953-.65087 29.4576 1.87484 36.5515 11.7855 46.8768 2.72708-17.3177 5.4709-34.7417 8.25047-52.392q5.95344-4.13717 11.45771-7.9619c.94377-6.7731 2.73255-13.19109-4.49869-17.98576-2.03031 2.82697-4.07742 5.67715-6.21662 8.65574-7.38118-23.05182-20.60316-41.27226-41.41528-51.24478-2.24338-5.6994-3.94572-10.02426-5.56009-14.12546-19.21766-5.43932-37.34347-11.86935-52.8556-24.09354a40.682212 40.682212 0 00-9.55654-5.42233c-11.15236-4.62356-19.07251-12.87463-26.93099-22.73299 1.22197-8.57398 2.059-17.45191 3.84054-26.13624 1.93514-9.43285 5.74876-18.53888 14.14676-23.78132a287.33908 287.33908 0 0127.77894-13.97076c17.42203-8.39953 34.69876-17.14266 52.41408-24.87673a45.61859 45.61859 0 0023.76064-21.94142 36.597371 36.597371 0 015.2838-7.73577c12.91466-14.55918 25.95081-29.0109 39.71312-44.35208a77.28927 77.28927 0 0011.30629 12.06684c12.67892 9.04868 21.8788 20.79243 31.05643 33.22549a83.113276 83.113276 0 0026.50273 21.91821c15.46647 8.55387 32.07708 15.08872 48.37607 22.07467 19.75207 8.46607 41.17079 10.20706 61.71794 14.05835 1.18569 1.8319 2.92473 3.27826 2.75575 4.44911-1.71403 11.87037-3.41267 24.19749-10.09952 34.15356a182.80694 182.80694 0 01-40.04423 42.85142c-10.7505 8.29672-22.90353 14.75412-33.88554 22.77826-17.40431 12.71696-35.00529 25.3026-51.29004 39.37109-13.10367 11.32035-27.22405 22.01693-37.34525 36.30688-10.59201 14.95449-20.20689 30.62016-29.85824 46.21656-10.80527 17.4607-13.44101 37.1006-14.06207 57.1369-.18049 5.8208-1.80499 12.4517.35483 17.3286 6.31458 14.2593 5.47014 29.6575 8.65923 44.3637 3.96135 18.2664 5.58857 37.0391 8.3096 56.1974 3.58654-6.554 7.00077-12.498 2.68005-20.0526a10.068107 10.068107 0 01-.6901-7.6717c4.48305-11.3227 2.01072-23.066 2.66247-34.5947.97965-17.3344 6.72764-33.6694 10.30654-50.4536a29.70279 29.70279 0 014.4905-8.2643c5.69784-9.4225 11.8216-18.6089 17.09212-28.2624a93.541268 93.541268 0 0122.89942-28.0531c12.10003-9.8919 24.49191-19.4263 37.9858-30.0844 0 8.4977.0256 15.8803-.007 23.2624-.033 7.4033-.33131 14.8521 5.02038 21.5681 8.41849-14.4799 2.89995-30.1585 5.29924-47.37827 3.36156-5.02979 7.02711-12.97742 12.90188-18.62903 6.18658-5.95146 14.48407-9.70873 21.54418-14.22321 2.13159 1.2407 3.47707 2.0237 4.89942 2.85145l13.26931-12.63227c2.15422-8.60207 1.16951-17.81266 10.57523-21.88308.0955 8.2971.19081 16.60532.3268 28.43961 13.16044-29.31117 22.09128-56.47532 39.11043-79.94877-1.45846 9.0559-2.16535 17.56646 4.16211 26.10686 7.10265-31.98731 9.72845-64.12701 18.80053-95.18753 6.8636-.89343 14.08019-1.78878 21.28363-2.77993 15.64246-2.15227 30.08097-8.27252 44.36703-14.4121 37.68492-16.195 72.39051-36.41516 94.14774-73.25506 7.69577-13.03068 16.75091-25.33773 23.52651-38.80936a243.5031 243.5031 0 0015.18551-39.25345c5.23537-17.40968 11.7716-34.64902 10.88422-53.43824zm-597.90724-107.31965c-5.9872-18.67797-10.96974-37.67811-16.66505-57.44619a48.132124 48.132124 0 0135.49099 5.95356 278.39653 278.39653 0 0026.8709 12.46135c24.91024 11.51411 45.15926 29.12349 62.56299 49.85288a140.81339 140.81339 0 0124.58127 39.97456c.72309 1.8959 1.17712 3.89403 2.076 6.92508-17.93522 6.69095-32.54651 21.5042-54.95306 17.07162-1.2417-3.21814-2.66212-6.89969-4.5623-11.82507-2.42894.9609-5.05123 1.99852-9.02192 3.56976-2.32906-2.12901-4.27744-3.90956-6.54269-5.98016-2.03265.85751-4.23272 1.78583-7.04955 2.97426a107.8902 107.8902 0 01-52.78758-63.53172zm129.09724 201.1243c-7.0798 7.81089-13.77835 15.96966-20.9241 23.71751a75.988788 75.988788 0 01-11.7301 10.62968c-26.08655 18.44598-52.44236 36.51211-78.45223 55.06426-8.1388 5.80521-15.45417 12.75931-23.22192 19.09515a59.800149 59.800149 0 01-6.46191 3.83569c-.77517-16.95048-8.91423-30.99596-7.359-47.26963a247.19878 247.19878 0 0110.25972-51.88006c1.41085-4.42706 2.20105-9.09587 4.00191-13.34624 4.73224-11.16856 10.22871-21.76972 19.52712-30.20262 11.00077-9.97662 21.3079-20.71808 32.41455-31.61758 10.09621 5.64886 19.76807 11.80385 31.39512 13.14269 7.7584.89341 15.48249 2.13099 23.18782 3.41856 6.64913 1.11113 13.25032 2.51026 20.20296 3.84563 5.42234 7.29403 10.72643 14.42923 15.54901 20.9163.77932 9.08032-3.28075 15.01481-8.38895 20.6506zm11.52622-32.6482c-4.80832-2.7497-8.68381-4.96598-15.41688-8.8165h15.41688zm-7.01356-63.21074h9.88043c-1.06447 4.83661-1.06447 4.83661-9.88043 0zm67.85479-85.29793a327.68507 327.68507 0 0126.46586-29.41497 266.61129 266.61129 0 0131.51241-23.43967 899.96141 899.96141 0 0079.62309-59.12619 20.292212 20.292212 0 015.30627-1.93999c.74279 16.16281 8.82817 30.23988 7.28582 46.5145a245.12082 245.12082 0 01-10.28183 51.8739c-1.41535 4.42513-2.19578 9.09646-3.99469 13.34719-4.72792 11.17246-10.24901 21.75955-19.54429 30.19107-10.99707 9.97528-21.30262 20.71243-32.41135 31.6133-10.07846-5.76457-19.79499-11.81065-31.41175-13.17002-7.75721-.90764-15.48303-2.1322-23.18835-3.42223-6.64764-1.11312-13.24649-2.519-20.17567-3.8548-5.43267-7.31377-10.73347-14.44957-15.35507-20.67125a21.749078 21.749078 0 016.1696-18.50084zm-9.20299 30.00926c4.6536 2.93456 8.33904 5.25856 14.16915 8.93477h-14.16915zm-5.233 57.13968c5.63403 2.6143 8.37436 3.88583 11.39081 5.28556-4.44371 2.8732-7.79299 3.12277-11.39085-5.28556zm124.01188 161.17392c-7.5541-5.23464-17.0732-7.57814-25.57905-11.50569-24.42111-11.27647-44.19152-28.63143-61.16034-49.02756a141.37412 141.37412 0 01-24.61074-39.96267c-.71744-1.89785-1.10606-3.91998-1.9156-6.85894 17.89326-6.74733 32.56874-21.52719 54.97023-16.87359 1.2097 3.1959 2.61723 6.91447 4.42494 11.68989l8.86764-3.5399c1.92499 1.67481 4.24203 3.69052 6.83359 5.94561 2.03598-.86765 4.25245-1.81199 7.03396-2.9971a108.44282 108.44282 0 0152.7264 63.68788c5.93994 18.67135 10.9666 37.63323 16.79789 57.83581-15.59101 1.56338-27.23484-.66421-38.38896-8.39374zm15.14337 181.36715-.0172.17346-.0552-.0509.0724-.12254q.26214-2.64718.52426-5.29453l2.16864.73927q-1.34629 2.2779-2.69293 4.55526z" style=""/></svg>