<svg height="960" style="" width="1244" xmlns="http://www.w3.org/2000/svg"><path d="m1035.146 297.82854c-5.1471 1.2868-11.581 5.1471-14.1545 8.5785-3.0025 3.4315-7.2918 6.005-9.4364 6.005s-15.0124 8.5785-28.738 18.8727c-26.1645 20.1595-62.1942 59.1917-96.9372 105.5157-31.7405 42.0347-48.0396 54.9025-70.7727 57.9049-39.4611 5.1471-42.8925 6.8628-73.7752 38.1744-120.0991 119.6702-147.9792 154.8421-187.8693 232.4776-19.7306 39.0322-43.7504 51.9-46.324 24.8777-.8578-9.8653 3.4314-19.3017 18.0149-39.4612 17.586-23.5909 25.7355-42.8925 16.7281-38.6033-2.1446.429-23.5909 22.3042-48.4686 48.4686-24.4487 25.7355-69.4859 72.4884-99.5107 103.8-30.0248 30.8826-54.9024 58.3338-54.9024 60.9074 0 6.8628 50.1842 6.005 88.7875-1.7157 66.4835-13.2967 108.9471-30.0248 168.5677-65.6256 58.7628-35.6008 99.9397-70.3438 186.5826-156.9867 119.6702-120.0992 122.2438-123.1016 122.2438-140.6876 0-19.7305 6.8628-27.8801 31.7405-36.8876 32.1694-11.581 41.6057-27.8801 35.1719-61.3363-3.0025-14.1545-1.7158-17.157 18.0148-38.6033 23.5909-25.3066 18.0149-24.0198 86.643-21.0173 21.0173.8578 24.0198 0 35.1719-12.4389 30.0246-33.8851 2.1446-88.7876-46.7529-92.6479-11.1521-.8578-24.8777-.4289-30.0248.4289zm62.6231 42.8926c11.1521 14.1545 11.1521 22.3041.8579 34.7429-16.7281 19.7306-51.9 6.4339-51.9-19.7305 0-24.8777 35.1719-35.1719 51.0421-15.0124zm-149.2661 121.8148c5.5761 3.0025 8.1496 9.0075 8.1496 19.3017 0 21.8752-22.733 31.3115-39.4611 16.2991-21.4463-19.3016 4.7182-49.7553 31.3115-35.6008zm-274.9412 232.4776c11.581 12.4389 10.7232 22.3041-2.5735 33.0273-11.581 9.0074-15.0124 8.5785-28.3091-3.0025-10.2942-8.5785-9.8653-17.5859 1.7157-29.5959 11.581-12.4388 18.0149-12.4388 29.1669-.4289zm231.6198-558.4609c0 2.1446 3.0025 4.2892 6.4339 4.2892s6.4338-2.1446 6.4338-4.2892c0-2.5736-3.0024-4.2893-6.4338-4.2893s-6.4339 1.7157-6.4339 4.2893zm32.5983-6.4339c-4.2892 3.0025-6.4339 8.1496-4.7182 10.7231 2.1447 3.4314 5.5761 2.1447 11.1521-3.8603 12.8678-13.7256 9.0074-18.4438-6.4339-6.8628zm-32.5983-30.0248c0 3.4314-1.7157 6.4339-3.8604 6.4339-2.1446 0-6.8628 4.7182-10.7231 10.7231-6.8628 10.2942-6.8628 10.7232 2.1446 10.7232 5.1471 0 9.8653-3.4314 11.1521-8.5785 1.2868-4.7182 5.1471-8.5785 8.1496-8.5785 3.4314 0 6.0049 3.8603 6.0049 8.5785 0 4.7181 2.5736 8.5785 6.005 8.5785 11.1521 0 9.8653-10.2942-2.1446-22.3042-13.2967-13.7256-16.7281-14.5834-16.7281-5.576zm-362.442-4.7182c-54.0447 28.3091-108.9471 74.2041-138.114 116.2388-10.7232 15.4414-36.4587 67.3413-43.7504 87.9297-9.4364 26.1645-21.4463 91.3612-21.8752 116.2388 0 44.1794 18.4438 117.9545 41.1768 162.5628 24.4488 48.0396 91.7901 124.3884 109.8049 124.3884 3.8604 0 15.4413-8.1496 24.8777-18.0149l17.5859-18.4438-27.8801-24.8777c-62.1942-55.3313-94.3636-117.0966-105.9446-203.3106-8.5785-61.3364 5.1471-132.1091 35.6008-185.7247l6.4339-12.8678c11.581-26.5934 71.2016-88.3587 104.2289-109.376 22.3041-13.7256 38.1744-30.8826 38.6033-42.0347 0-10.2942-10.7232-8.5785-40.7479 7.2917zm270.223-48.468499c-1.7157 2.5735.8579 5.576 6.005 6.8628 6.0049 1.2867 9.0074 5.576 9.0074 12.4388 0 12.438799 6.8628 17.156999 15.4413 9.865299 7.7207-6.433899 13.7256-1.2868 6.8628 5.576-3.0025 3.0025-5.1471 7.7207-5.1471 10.7232 0 8.5785 12.0099 6.8628 20.1595-3.0025 4.2893-4.7182 9.0074-8.5785 10.7231-8.5785 6.4339 0 3.4314 10.2942-6.0049 20.1595-6.8628 7.7206-8.1496 11.152-4.2893 15.0124 3.8604 3.8603 8.5785.8578 20.5885-11.1521 12.4388-12.8678 14.5834-17.157 9.8652-20.1595-3.4314-2.1446-8.1495-3.8603-10.7231-3.8603-3.0025 0-6.005-3.0025-7.7207-6.4339-1.2867-3.4314-6.0049-6.433899-10.2942-6.433899-4.7181 0-10.7231-3.0025-13.7256-6.4339s-8.5785-6.4339-12.8677-6.4339c-4.2893 0-9.8653-3.0024-12.8678-6.4338-6.4339-7.7207-11.1521-8.14962-15.0124-1.7157zm-239.7693-6.005c-11.581.8579-25.3066 4.7182-30.0248 8.1496s-12.4389 6.0049-16.7281 6.0049c-11.1521 0-86.643 37.316599-112.3785 55.331399-51.0421 36.4587-102.9421 93.0769-127.8198 139.8297-16.2991 30.8826-37.3165 80.638-37.3165 88.7876 0 4.7182-2.1446 12.4388-4.7182 17.157-3.0024 5.1471-7.2917 31.7405-10.2942 59.1917-11.152 98.224 10.7232 193.4454 63.481 280.9462 21.0173 34.743 87.5008 105.0867 99.5107 105.0867 6.005 0 36.4587-30.8826 36.4587-36.8876 0-2.1446-13.7257-17.5859-30.4537-33.8851-39.4612-38.6033-79.3513-99.9396-93.9347-143.69-17.157-52.3289-21.4463-79.7801-21.4463-140.6875 0-68.6281 6.005-97.3661 32.1694-157.4157 3.0025-7.2917 6.8628-15.8702 8.1496-19.3016 18.4438-42.4636 83.6405-117.5256 128.6776-147.5504 39.0323-25.7355 99.5107-54.044599 117.5256-54.473499 14.5835-.4289 37.3165-13.2967 37.3165-21.4463 0-6.43387-6.8628-7.72065-38.1743-5.1471zm8.1495-35.17189c-2.1446.42893-18.8727 3.43141-36.4586 6.43389-53.1868 8.14958-90.9322 20.15949-143.69 45.895-38.1744 18.872699-40.748 20.159499-79.3513 48.897499-44.1793 33.0273-102.51311 92.219-111.52061 112.3785-2.1446 4.7182-15.4413 27.0223-29.16691 48.0396-2.57355 4.7182-6.43388 11.581-7.72066 15.0124-1.7157 3.4314-8.14958 18.4438-15.01239 33.4562-6.86281 14.5835-12.43884 28.738-12.43884 31.3116 0 2.5735-3.00248 13.7256-6.43388 24.8776-30.88264 96.5083-25.3066 228.6173 13.29669 321.2652 10.29421 24.0198 19.73057 45.4661 23.5909 52.3289 1.7157 3.4314 7.72066 14.1546 12.43884 23.162 19.73055 36.4587 75.91986 102.9421 104.22886 123.5305l12.4389 8.5785 16.7281-16.2991c9.0074-9.0075 16.7281-18.8727 16.7281-21.8752s-11.1521-16.2992-24.8777-30.0248c-24.0198-23.5909-60.4785-69.057-66.4835-82.7826-1.7157-3.4314-6.8628-12.4389-11.581-19.3017-4.7181-7.2917-9.8652-15.8702-11.152-19.3016-1.7157-3.4314-8.14961-18.4438-15.01241-33.4562-6.8628-14.5835-12.4388-29.5959-12.4388-33.4562 0-3.4314-2.1447-10.2942-4.2893-14.5834-16.29917-30.0248-24.01982-147.5504-13.72561-205.8843 10.29421-58.3338 36.45871-128.6776 66.48342-178.004 51.9-85.3562 158.7025-168.9967 249.6347-196.447899 12.0099-3.4314 31.7404-9.43635 44.1793-13.29668 13.2967-4.28925 33.8851-6.86281 50.6132-6.43388 23.162.85785 29.5958-.42893 36.8876-7.72066 4.7182-5.1471 7.2917-11.15206 6.0049-13.72561-2.5735-4.28926-40.7479-6.00496-51.9-2.57356zm117.5256-26.16445c-3.0025 6.00496-6.8628 11.15206-9.0074 11.15206-1.7157 0-3.4314 2.14463-3.4314 4.71818 0 2.57356-5.1471 12.00992-11.581 20.58843-6.8628 8.5785-13.7256 18.87272-16.2992 22.73304-2.1446 3.86033-15.8702 23.59093-30.0247 44.179329-28.3091 40.7479-37.3166 54.4735-46.7529 71.2016-6.4339 11.1521-6.005 11.581 4.7182 14.5835 6.0049 1.2868 31.3115 2.5735 56.6181 2.1446 24.8777-.4289 48.0397-.4289 51.0421-.4289 5.5761.4289 7.2918 15.8702 1.7157 19.3016-2.1446 1.2868-22.733 30.8827-45.895 65.6256-23.5909 34.743-47.6107 70.3438-54.0446 78.9223-6.4339 8.1496-13.2967 20.1595-14.5835 26.5934l-3.0024 11.581h60.4785c70.3437 0 69.9148-.429 44.6082 37.3165-9.0074 12.8678-19.3016 27.8801-22.733 33.4562-3.4314 5.576-18.0149 27.0223-32.1694 47.1818-14.1546 20.5884-27.8802 40.319-30.0248 44.1793-2.5736 3.8603-7.7207 12.4388-12.0099 18.8727-4.7182 6.4339-6.8629 13.7256-5.1472 16.2992 1.2868 2.1446 18.0149 4.2892 37.7455 4.2892h34.743l47.6107-48.4685c25.7355-27.0223 53.6157-52.3289 61.3363-56.1893l14.1546-7.2917-13.2967-16.2992c-6.8628-9.4363-12.8678-18.0148-12.8678-19.7305 0-1.2868-6.4339-11.1521-14.5835-21.8752-22.733-29.5959-19.7305-31.7405 47.1818-31.7405 54.0447 0 57.4761-.429 57.4761-8.1496 0-4.7182-15.8703-31.7405-35.1719-60.4785-19.7306-28.3091-37.3165-54.9024-39.8901-59.1917-2.1446-3.8603-13.2967-20.1595-24.4488-35.6008-11.5809-15.8703-20.5884-30.8826-20.5884-33.4562 0-5.576-1.2867-5.1471 64.3388-4.7182 60.4785 0 64.7678-1.7157 51.4711-24.0198-5.576-9.4364-15.4413-23.5909-21.4463-31.7405-6.4339-8.1496-12.8677-18.0149-14.1545-21.4463-8.5785-18.8727-83.6405-122.243719-90.0744-123.530499-4.2892-.85785-9.0074 2.57355-12.0099 9.43636z" style="stroke-width:.428925"/></svg>