<svg height="960" style="" width="1200" xmlns="http://www.w3.org/2000/svg"><path d="m396.47405.000005c-24.09205 1.80916-38.67373 12.85779-43.2268 37.16091-5.00932 24.7105-8.39049 50.01183-9.77608 77.030845-1.89963 50.95815-1.47702 102.15847-2.53236 153.23723 0 2.53283-3.9943 5.04446-6.94927 8.42157l-22.37899-3.7691c-3.70879-77.49257-7.42182-153.94864-11.13061-230.385855-.63321-13.41798-1.25134-26.7144-1.88455-38.98657h-181.03429c3.61833 23.36839 5.32385 43.82326 10.60058 63.60346 21.16723 88.588785 84.58506 145.183615 153.00165 198.584135 10.79469 8.44277 20.86147 17.93665 26.56034 22.79124 6.33207 58.76771 11.50469 110.5089 16.90203 163.36667h4.41691l16.372-146.93577c69.56239 35.51994 138.61926 61.08664 214.54389 56.65418 2.32176 26.83595 2.40987 26.81286-9.95276 37.39647-52.10395 44.62607-46.84655 95.13713-13.01516 130.44599l.0589.0589c7.24652 6.58777 12.83898 14.93423 16.4309 24.6758 4.20863 13.27937 6.59591 27.38642 6.59591 42.04895 0 14.95576-2.37736 29.38762-6.47814 41.93117-9.82979 27.58977-11.54283 58.03464-22.85011 84.56906-19.11685 45.47032-2.52858 77.33565 33.74515 108.30253v.0589c-16.82521 17.66948-29.071 40.51351-47.58478 48.23261l6.77258-2.53237c-50.23449 20.95618-102.45812 38.03395-163.36668 52.2962-22.10196 4.85456-36.78541 10.60576-46.52475 31.74284h586.68304c-20.8054-13.87026-33.06488-29.21047-45.75919-29.21047-36.2436-.84428-66.29504-18.69895-99.70429-26.20699-44.29439-10.07102-83.71157-27.90824-110.246-67.13697-1.68855-2.65345-3.0817-5.52266-4.77025-8.59827 35.94208-29.27832 49.92493-63.41875 31.74282-110.24599-12.91541-33.20249-17.23884-69.66598-27.67929-103.94452-2.17099-7.62865-3.29795-15.70583-3.29795-24.02798 0-21.52906 7.73985-41.22306 20.49446-56.35974 42.06309-56.05396 41.43271-91.66955-11.42506-137.98418-12.66415-11.12636-17.62853-21.21761-5.47697-34.33407 25.268-1.68855 50.50962.0452 73.96846-5.65363 121.66636-29.7005 226.4759-89.10375 305.35546-187.10019 38.0528-47.88258 65.3816-101.716085 57.3609-167.901375-10.1614-.51259-17.0382-1.29562-23.7924-1.29562h-644.92728zm-70.84719 496.931465c-8.14124 29.70046-23.87626 54.12277-10.24722 82.97896h25.20581c1.95898-7.94348 3.0035-16.25957 3.0035-24.79355 0-21.71001-6.68637-41.90291-17.9032-58.1854z" style="stroke-width:30.1528"/></svg>