<svg height="960" style="" width="1220" xmlns="http://www.w3.org/2000/svg"><path d="m531.01617 286.38035c-39.55083 40.17862-71.56817 76.5905-71.56817 80.35724 0 3.76675 10.04465 16.32257 21.97268 28.2506 11.92803 11.92802 21.97268 25.11163 21.97268 29.50617 0 5.02233-10.04465 18.20594-21.97268 30.76175-11.92803 11.92803-21.97268 25.11164-21.97268 29.50618s10.04465 17.57814 21.97268 29.50617c11.92803 11.92804 21.97268 25.73944 21.97268 31.38952 0 5.6502-10.04465 19.4616-21.97268 31.3896s-21.97268 23.856-21.97268 26.995c0 8.1613 141.88075 148.7864 150.66982 148.7864 8.78908 0 150.66987-140.6251 150.66987-148.7864 0-3.139-10.0447-15.067-21.9727-26.995-11.9281-11.928-21.9727-25.7394-21.9727-31.3896 0-5.65008 10.0446-19.46148 21.9727-31.38952 11.928-11.92803 21.9727-25.11163 21.9727-29.50617s-10.0447-17.57815-21.9727-29.50618c-11.9281-12.55581-21.9727-25.73942-21.9727-30.76175 0-4.39454 10.0446-17.57815 21.9727-29.50617 11.928-11.92803 21.9727-24.48385 21.9727-28.2506 0-9.41686-141.253-153.80877-150.66987-153.80877-3.76674 0-39.55083 33.27291-79.10165 73.45153zm139.99737 21.97269c28.87835 28.87838 52.10665 54.61781 52.10665 57.75676 0 7.53349-25.7394 35.15629-32.6451 35.15629-3.13898 0-19.46155-14.43919-37.03969-31.38954-16.95036-17.57815-37.03967-31.38955-43.31758-31.38955s-26.36722 13.8114-43.31757 31.38955c-17.57815 16.95035-33.27292 31.38954-35.78408 31.38954-7.5335 0-33.90071-26.36721-33.90071-33.90071 0-10.67244 102.32992-110.4912 113.00236-110.4912 5.02233 0 32.64513 23.22827 60.89572 51.47886zm0 119.28027c28.87835 28.87839 52.10665 54.61782 52.10665 59.01235 0 3.76675-6.9057 13.18361-15.067 20.7171-18.20592 16.95036-26.3672 13.81141-63.40687-23.85605-13.18361-14.43919-28.87838-25.73943-34.5285-25.73943s-21.34489 11.30024-34.5285 25.73943c-37.03966 37.66746-45.20095 40.80641-63.40688 23.85605-8.16128-7.53349-15.06698-16.95035-15.06698-20.7171 0-10.67244 102.32992-110.4912 113.00236-110.4912 5.02233 0 32.64513 23.22826 60.89572 51.47885zm-211.56554-414.342015c-18.83373 6.9057-37.03967 15.06698-40.17862 18.20594-3.76675 3.13895-10.04465 5.65011-14.43919 5.65011s-22.60047 8.78908-40.80641 20.08931c-77.84608 47.084325-154.43657 129.324945-190.84844 205.915435-70.94038 146.90308-70.31259 290.66719 0 433.17579 21.34489 42.6897 28.25059 53.99 61.52351 92.2852 43.31757 51.4789 107.35225 101.0744 163.85343 128.6972 81.61282 39.5508 97.30759 42.6897 214.7045 42.6897 116.76911 0 139.36961-4.3945 219.72681-45.2009 156.32-78.4739 266.81121-263.0444 266.81121-445.73156-.6278-107.98004-37.0397-205.91543-111.11901-296.94511-28.8784-35.1563-108.6079-103.585515-136.8585-116.769125-6.9057-3.13895-16.9503-8.16128-21.9726-10.67244-24.4839-13.8114-39.5509-20.7171-74.7072-32.64513-32.6451-10.6724502-52.7344-12.55582023-149.4142-11.92803023-92.91306.62779-117.39691 3.13895003-146.27529 13.18361023zm108.60783 33.27292c0 3.76674-4.39454 7.53349-10.67244 8.16128-15.06699 3.13896-80.98504 68.429215-74.07933 72.823755 3.13895 1.88337 20.0893-3.76675 36.41187-12.55582 45.20095-24.483855 75.33491-34.528505 131.2083-43.945365 56.50116-9.41687 128.69716-11.30024 128.69716-3.76675 0 6.9057-59.0124 26.36722-78.4739 26.36722-8.1613 0-18.83371 1.88337-24.48383 3.76674-17.57814 6.905705-3.76674 15.066995 25.73943 15.066995 30.134 0 100.4465 13.8114 146.2753 29.50617 38.923 13.18361 81.6128 33.27292 81.6128 38.92304 0 2.51116 7.5335 7.53349 17.5782 11.30023l16.9503 6.90571-16.9503.62779c-10.0447.62779-17.5782-2.51117-17.5782-5.65012 0-3.76675-8.1613-6.27791-18.2059-6.27791-10.0447 0-28.8784-3.76675-42.062-8.78907-13.8114-4.39454-30.134-6.27791-36.4119-3.76675-11.3002 3.76675-10.6724 5.02233 6.2779 11.92803 62.7791 25.73943 133.7195 87.89073 181.43161 159.45889 28.8784 43.31758 23.856 54.61781-8.1613 19.46152-23.22831-25.11163-64.66251-59.01234-72.82371-59.01234-3.7668 0 8.789 25.11163 15.6947 31.38954 8.1613 7.53349 38.9231 64.66247 50.22331 95.42422 20.0893 52.73444 38.2953 143.76416 33.2729 168.24796-3.1389 18.8337-5.0223 20.0893-8.789 9.4169-3.139-6.9057-5.6502-21.3449-5.6502-31.3896-.6278-10.6724-3.7667-22.6004-7.5335-26.3672-3.7667-3.7667-8.789-16.32255-11.3002-27.62278-2.5112-11.30025-7.53351-21.3449-11.92801-23.22827-5.6501-1.88338-7.5335 13.18361-7.5335 58.38455 0 60.8957-11.928 128.0694-28.8784 161.9701-5.0223 10.0446-8.7891 23.2282-8.7891 29.5061 0 6.9057-3.7667 14.4392-8.789 16.9504-5.0224 2.5112-10.0447 11.3002-11.3003 19.4615-.6278 7.5335-4.3945 14.4392-8.1613 14.4392-10.6724 0-10.6724-17.5781 0-27.6228 5.0224-5.6501 9.4169-15.6948 9.4169-22.6005s4.3945-28.8783 9.4169-48.3399c5.6501-22.6004 6.9057-38.923 3.1389-45.8287-5.0223-9.4169-5.6501-8.7891-8.789.6278-5.6502 17.5781-9.4169 26.3672-15.6948 36.4119-3.139 5.0223-11.928 23.2282-20.0893 39.5508-24.4839 49.5955-28.8784 56.5012-59.0124 91.6575-31.3895 37.0396-77.2183 75.9627-88.5185 75.9627-4.3945 0-9.4169 4.3945-11.3002 10.0446-1.8834 5.0223-6.2779 7.5335-10.0447 5.6501-3.7667-2.5111 3.7668-15.0669 18.2059-30.1339 32.0174-33.9007 69.6848-83.4962 69.6848-91.6575 0-11.928-13.1836-7.5335-30.1339 11.3002-37.0397 38.9231-114.25797 78.4739-205.91545 104.2133-28.25059 8.1613-41.4342 9.4169-50.22327 4.3946-10.67245-5.6502-10.04466-6.9057 6.9057-10.6725 25.73942-6.2779 78.47386-30.1339 78.47386-35.7841 0-3.1389 5.65012-5.0223 11.92803-5.0223 6.9057 0 14.43919-3.1389 16.32256-6.2779 7.5335-11.928-14.43919-13.1836-47.71211-3.7667-42.06199 12.5558-148.78645 13.1836-191.47623 1.2555-16.95036-5.0223-38.29525-10.6724-47.71211-12.5558-36.41188-8.1613-16.32257-16.3225 41.4342-16.3225 64.03468 0 86.00736-4.3946 71.56817-13.1837-4.39454-3.1389-16.95036-5.6501-28.2506-5.6501-36.41187 0-128.69714-45.2009-183.31495-89.7741-68.42921-55.8734-89.14631-98.5632-24.48384-50.851 47.08432 35.1563 65.91804 46.4565 77.21828 46.4565 15.06698 0 11.30024-8.1613-16.32256-34.5285-55.8734-54.6178-118.65249-151.92542-118.65249-185.82614 0-6.27791-2.51116-13.18361-6.27791-15.06698-3.13895-1.88337-6.27791-13.18361-5.65012-23.85605l.62779-20.08931 6.27791 18.83372c3.76675 10.04466 10.67245 21.3449 15.06699 23.85606 5.02232 2.51116 8.78907 7.53349 8.78907 11.30024 0 8.16128 45.20095 68.42926 51.47886 68.42926 6.2779 0 7.53349 3.7667-11.92803-50.22333-13.8114-40.17862-16.95036-60.26793-19.46152-133.71947-1.25558-47.71211-.62779-93.54084 1.25558-101.70213 7.53349-29.50617 16.32256-15.69477 16.32256 24.48385 0 45.20095 9.41687 78.47387 19.46152 68.42921 3.13896-3.13895 8.78908-22.60047 12.55582-43.31757 11.92803-61.52351 55.2456-162.59785 84.12399-193.35961 8.78907-9.41686 15.69477-19.46152 15.69477-23.22826 0-3.13896 4.39454-5.650125 10.67245-5.650125 9.41686 0 9.41686.627795 0 11.300235-6.27791 6.27791-10.67245 15.69478-10.67245 20.71711 0 5.02232-3.76675 14.43919-8.16128 21.34489-9.41687 13.8114-26.36722 70.94037-22.60048 75.33491 1.88338 1.25558 18.20594-17.57815 37.03967-42.68978 38.29525-49.59549 94.16864-97.935395 149.41424-128.069355 35.78408-20.08931 45.82874-22.60048 47.08432-11.30024zm-234.16602 775.949565c0 6.9057-7.53349 6.9057-21.97268 1.8834-7.53349-3.1389-8.78907-5.6501-2.51116-8.7891 8.78907-5.6501 24.48384-1.2555 24.48384 6.9057z" style="stroke-width:.627791"/></svg>