<svg height="960" style="" width="1430" xmlns="http://www.w3.org/2000/svg"><path d="m414.03198 634.62635c-19.07939 52.0311 60.84156 89.2003 92.13156 124.0143 69.8846 51.9535 151.368 92.2191 237.3313 107.37 56.668-30.7662-14.7114-69.8009-49.9086-73.4984-47.9955-21.8896-91.3466-44.1453-134.684-74.1328-47.5586-24.7428-75.6412-87.4049-131.75731-91.8703l-6.77864 3.0042zm288.04276-429.5176c-49.5087 25.5275-101.7597 50.8206-116.8461 109.8872-26.4633 65.7171-77.1813 118.481-98.9605 186.1621 6.2317 41.6104-7.8117 82.8486-9.1937 121.1556 32.5863 40.8278 75.4205 75.0302 118.0453 102.2907 51.5957 27.452 109.264 67.7126 166.2506 70.7728 25.8808-47.0098 59.6502-98.1454 114.6919-113.3744 47.3065-34.5126 112.1987-38.3609 150.37886-85.9018 27.3324-47.9291 69.7118-115.0112 29.6036-165.9057 2.0902-51.6663 46.0054-134.2389-21.009-159.9461-43.67756 10.8391-19.0784-68.514-75.16906-49.041-36.5966-5.3346-67.7738 24.841-86.6693-15.056-41.962-20.1199-84.7002 11.3309-116.027 26.0225 2.2827-29.9496-33.9481-32.8789-55.0956-27.0659zm31.1244 89.4121c-7.9279 34.8597-54.0283 38.1665-17.5428-1.5562 3.0895-8.6361 17.7044-9.6069 17.5428 1.5562zm166.3744 2.2636c-27.8537 36.9627-57.5952 85.0155-96.2028 112.0481 16.6158-33.4469 45.5621-129.4089 96.2028-112.0481zm-180.5218-294.267612c-54.1798 7.63415-106.4039 24.55754-154.5951 50.83558-78.8727 35.90433-131.26124 106.433732-193.85854 162.907432-59.8662 28.2971-126.67103 43.1139-188.01894 68.6407-27.09256 2.6605-66.39681 31.4414-12.1591 20.3282 54.73437-6.0856 107.1664-30.789 162.4761-28.8874 17.23154 43.1443-50.93271 82.6625-86.75033 107.1996-42.4782 29.844-87.27819 56.7363-126.94739 90.37 55.83616-11.0799 110.48672-28.4686 164.88891-43.5743 25.99986 28.0796-94.94836 63.9372-59.13648 81.7725 56.92208-19.1067 117.80864-38.7708 158.05679-86.337 103.65708-100.9389 207.95548-201.6219 304.83988-309.13153-30.1184-3.79294-88.7628 25.30683-129.1664 36.64863-40.0052 9.7498-100.639 49.0007-129.56441 33.2388 51.97331-68.67177 126.91681-116.387892 206.39411-147.227762 49.0501-14.77122 99.224-25.97749 151.7435-22.45307 56.7943-.46534 114.8635-.062 168.3433 20.18947 53.57846 19.24709 103.52496 44.04191 148.37936 81.630982 57.2955 44.87868 106.1266 103.35038 138.5315 167.36468 24.4149 50.338 46.5191 106.0909 47.1023 164.2435-.1228 57.9569 10.4526 118.2954-4.6598 174.7302.39 27.2796-30.4708 95.6727-42.4259 35.099-34.3969-125.7654-73.7248-250.1474-108.5742-375.756-32.6871 21.4655-22.5815 90.8409-27.8805 131.8091-10.3587 141.7829-35.3631 282.6679-36.3968 425.0138 11.3094 46.4899 25.8836 105.2616-39.2005 117.0161-27.0877 14.1762-31.14696 41.3786 4.7041 18.6659 31.2838-35.8344 70.7343-19.8441 81.065 21.009-2.783-27.352 4.3904-126.5997 37.7031-61.1171 9.6208 21.6925 18.0325 98.88705 38.7641 80.42835 5.2735-54.68065-10.233-110.79775 1.176-164.51745 12.9763-31.4303 64.7127-105.1092 72.8396-31.9302 15.2933 16.6075 19.7396 79.9855 39.1554 72.3036.6326-52.7833-29.1433-101.1175-37.1549-152.784 10.9615-51.8686 38.0146-99.9051 40.249-154.0888.3453-70.9449 9.0534-144.622-14.8453-212.7819-10.2681-50.5556-34.229-95.9867-61.241-139.8744-25.4918-43.0153-61.8163-80.9491-102.2155-113.63085-43.766-39.715832-94.6554-70.916862-148.47786-91.322002-48.8575-21.00029-103.9951-27.12627-157.724-27.81082997-35.1268-.97505-70.3891-1.48538-105.4191 1.77946997zm-297.09717 260.313712c-14.23355 15.0187-86.05662 67.6527-57.22657 12.4851 10.29258-16.1333 42.43484-23.9897 57.22657-12.4851zm767.35943 366.7027c7.3575 50.9829 66.2186 101.6753 30.5585 151.0951-18.8724 55.1968-50.2156 16.1617-42.8521-24.5597 1.0563-41.5938-13.3846-108.4296 8.403-133.2555zm-63.3807 251.2593c-24.0953 23.1132-9.8095-54.8537 0 0z" style="stroke-width:.565899"/></svg>