<svg height="960" style="" width="1420" xmlns="http://www.w3.org/2000/svg"><path d="m1020.6594 781.17994c-9.9959 23.33444-18.91 50.76331-20.1559 60.91045-3.16273 25.75814 9.4644 90.69385 17.2699 91.65224 9.3666 1.15006 33.4914-163.06652 26.918-180.51227-4.9985-10.91386-9.7638-4.36812-24.032 27.94958zm106.2454-213.55712c-9.6402 7.5318-16.499 82.75201-9.5423 97.07555 10.7775 21.92353 25.84-3.95808 26.4279-47.46328.8894-39.50663-5.5881-57.73293-16.8856-49.61227zm-56.2163-148.7271c-36.1641 55.77564-37.328 58.802-44.9674 133.92634-3.6143 42.34132-5.1882 80.97155-3.4216 85.94236 5.6832 11.79024 19.6915-5.50534 22.375-27.36071 1.1501-9.36658 8.9003-33.76909 17.6365-53.29665 42.3116-99.39053 68.0541-192.89234 53.2234-194.71329-3.9027-.47919-24.429 24.73154-44.8459 55.50195zm-799.7383-307.367c-13.63884 7.83317-14.70691 10.07897-4.25843 15.32345 13.379 7.18896 44.68296 3.90174 45.73719-4.68427.38336-3.1222-4.40961-9.25694-11.14705-12.46113-14.84424-8.16116-12.5026-7.87364-30.33171 1.82195zm556.33749-20.429735c-12.96797 2.369283-41.83442 5.163469-64.16899 6.382708-21.554 1.315067-54.41906 4.410607-72.16616 6.985447-17.65127 1.79426-42.61499 5.06763-55.39129 5.87585-44.08025 4.09543-10.98201 18.45949 67.56587 30.4809 75.52156 10.85751 78.73959 10.46032 141.60733-11.13618 34.79567-12.36628 64.22334-26.18397 64.70255-30.086696 1.05421-8.586051-49.77728-14.035062-82.14931-8.502029zm-341.97712-86.3592362c-11.59856 4.122085-27.29154 9.3260822-35.38455 10.7093282-24.37484 4.930306-8.7362 19.527549 24.04684 23.552801 17.9526 2.204304 53.74818 1.053239 81.05356-1.932613 27.30536-2.985851 60.1704-6.081381 73.04254-7.670149 42.32747-2.726003 7.76397-18.062291-59.36321-26.3044722-39.02741-4.791966-70.04386-3.846408-83.39518 1.645105zm791.57033 6.0762292c-6.7239 3.136034-126.8038 45.438841-265.7948 93.342812l-253.31956 88.536-56.98005-6.99627c-49.95512-6.13371-66.04527-4.14776-115.65754 12.73779-32.26235 11.09267-99.12868 32.99054-149.52148 49.78027-49.51643 16.10499-104.88003 34.66132-122.3258 41.23473-17.34991 5.79286-36.16509 10.61349-43.19003 9.75093-6.2444-.76672-13.84436 3.05404-16.95271 9.0109-3.10836 5.95688-17.24024 11.35254-30.79708 12.06492-21.64985 2.09563-23.40263 3.46505-13.33752 11.83174 9.47628 6.70975 19.81508 6.39457 37.26083-.17884 14.03605-4.61513 32.65954-7.87467 42.02612-6.7246 9.36659 1.15009 33.35808-.65805 54.41906-4.4106 116.71179-21.32382 170.15861-24.26917 168.24182-8.65819-.4792 3.90272-18.49999 15.15943-39.54713 25.25224-54.4734 24.21183-63.7303 28.62143-189.02712 94.05316-60.89563 31.34646-120.03848 61.3235-130.85648 65.54143-11.59856 4.12208-21.14298 10.87335-21.71802 15.55664-1.15006 9.36658 34.75517 13.77518 53.17314 5.73651 15.88467-6.76509 74.57598-20.1589 111.72714-25.89743 13.65268-1.49293 30.71506-4.94415 38.12336-7.20377 22.9096-5.90253 15.15945 18.49997-15.40446 48.02447-27.93474 27.47039-182.67103 190.70386-193.9544 205.16475-10.21531 12.21512 4.62894 20.37631 18.45948 10.98207 6.91525-4.69717 18.11662-12.0373 25.62075-15.07749 7.59999-3.82074 63.42896-32.62003 125.10513-63.87064 141.2773-72.97734 143.03008-74.34677 170.45896-65.43272 17.56925 5.32649 27.31919 3.35439 40.465-6.91626 21.32083-18.77466 54.04755-85.27246 58.07281-118.05551 3.83357-31.22196 16.59602-38.37038 26.30546-14.20106 5.39567 14.13188 8.32618 16.07635 14.84426 8.16117 4.66946-5.76518 9.51677-19.4317 10.95435-31.13994 2.6835-21.85534 21.18348-37.01478 24.63471-19.9524.89022 5.65552 10.17479 13.92637 19.84274 19.07503 9.66792 5.14865 17.00805 16.35002 16.04966 24.15552-.95841 7.80547 1.69844 18.43179 6.49138 24.56651 4.793 6.1347 14.46092 11.28339 22.2664 12.24176 7.8055.9584 16.89841 10.79034 19.55521 21.41665 2.65684 10.62636 8.43587 21.63603 13.70803 23.868 15.72063 7.47648-3.46405 21.75952-25.31942 19.07603-11.70821-1.43758-26.14146-.0405-32.86503 3.09553-9.25692 4.40961-8.07916 7.72346 4.3276 16.37769 21.10247 15.2681 11.07885 25.92209-20.14309 22.08853-32.78305-4.02524-105.22288 11.64203-128.59784 27.78753-13.14582 10.27064-17.41809 19.25387-16.50019 37.58985 2.01362 28.77062.26084 30.14004-104.72687 149.56599-45.24315 52.28397-86.69324 99.48739-92.23908 105.93728-4.7653 6.54573-14.59724 15.63857-20.82779 21.2121-12.46111 11.14707-8.13351 27.5247 6.19005 20.56792 16.76103-7.44974 212.57991-118.09999 245.99234-138.55928 36.04155-22.51331 61.59417-24.12985 50.42046-4.1092-4.0806 7.42208-11.55706 23.14279-16.30853 36.02876-14.55574 34.65932-41.75043 88.36697-52.1574 102.14321-12.25561 15.92608-16.66421 51.8312-7.29762 52.9813 4.6833.5751 13.54299-7.0525 20.34859-17.3093 6.70975-9.47626 50.10428-59.61016 95.25162-111.11361 93.80016-105.74555 100.31824-113.66071 136.98918-160.65864 58.95019-73.57807 52.4331-20.50079-15.03292 128.88639-8.73622 19.52754-16.29469 42.3689-17.44478 51.73557-1.15005 9.36658-8.8182 26.6483-16.69188 39.15092-10.59864 15.33725-13.40565 25.29275-9.18773 36.1107 5.68321 11.79026 7.43599 10.4208 14.70693-10.07893 3.9709-12.98183 12.62512-25.3886 19.15703-26.96353 6.53189-1.57492 12.07773-8.02481 12.84446-14.26921.86255-7.02492 10.09179-24.11498 19.90992-39.54818 10.59866-15.33725 41.99744-64.5671 69.60315-108.71656 28.48211-44.83411 65.90595-104.41667 84.47411-133.03708 28.38627-44.05357 34.20579-59.18535 40.33951-109.14047l6.99627-56.98005 147.18983-224.37611c80.1059-123.27336 150.2979-230.333031 155.8439-236.782927 14.5834-21.9788692 10.3791-26.4566372-14.6664-16.062505zm-81.7503 85.040297c-.4791 3.902769-4.0806 7.422125-8.7639 6.847065-3.9029-.47917-8.3804 3.72492-9.1471 9.96931-.7666 6.24441-4.6556 12.10542-7.9695 13.28316-3.9986.30131-40.889 36.17992-82.6403 79.38477-42.4363 42.32846-101.90712 100.7886-132.37519 129.53258-31.24862 28.6481-57.03339 57.9671-57.89595 64.99204-.95839 7.80548-19.74589 25.30657-41.95694 38.42572-23.08743 13.80387-44.80546 29.36049-50.06379 33.46875-10.80418 10.55817-89.03688 8.87555-97.25341-1.6411-8.2165-10.51664 9.07709-86.83257 21.93539-94.76157 5.25833-4.10825 25.60693-21.41767 44.5861-40.47985 18.1028-18.37747 39.62914-32.37301 47.43464-31.41463 7.02493.86256 41.71093-17.06339 77.0678-40.45319 35.26102-22.60924 106.37195-66.17078 157.70935-97.10621 52.0219-30.05904 95.7595-57.17371 97.0191-60.98062 1.9447-2.93053 8.5724-5.285993 14.8168-4.51928 6.2444.7667 11.4067-2.560974 11.8859-6.463732.5752-4.683293 4.8612-7.326302 8.764-6.847108 4.6833.575033 7.4222 4.080602 6.847 8.763895z" style="stroke-width:.78641"/></svg>