<svg height="960" style="" width="1143" xmlns="http://www.w3.org/2000/svg"><path d="m448.558 194.94821c-63.2527 65.0345-115.8149 120.2693-116.7058 122.4965-2.2272 5.7908 9.3543 5.7908 15.145.4455 2.2273-2.2272 37.8626-21.3812 79.2887-42.317 41.4261-21.3812 77.9524-40.5352 81.0705-43.2079 3.5635-3.1181 6.2361-3.1181 8.4634 0 2.6726 4.8999-5.3454 17.8177-56.1257 89.5338-44.5442 62.8074-49.8895 71.2708-46.7714 74.3889 2.6726 2.6726 62.3618-41.4261 87.3066-64.1437 19.154-17.8177 25.8356-10.6906 15.145 17.3722-3.5635 10.6907-8.4634 24.9448-10.6906 32.5173-2.2272 7.1271-8.9088 27.172-15.145 44.5442-19.154 52.1167-15.145 59.2438 12.9178 24.4993 9.7997-12.0269 20.4903-21.8266 23.6084-22.2721 4.009 0 5.3453 38.308 5.3453 177.7314 0 97.9972-1.7817 179.0676-3.5635 180.404-3.5635 2.2272-23.163-20.0449-23.163-25.8357 0-1.3363-8.9088-15.5904-20.0449-32.0718-11.136-16.0359-20.0449-30.29-20.0449-31.1809 0-1.3364-4.8998-8.9089-11.136-16.9268-6.2362-8.018-11.1361-16.9268-11.1361-19.5995 0-3.1181 4.8999-5.3453 11.1361-5.3453 8.0179 0 11.136-2.2272 11.136-8.4634 0-4.8998-2.2272-10.2451-4.8998-11.5815-2.2272-1.7817-6.6817-7.5725-8.9089-12.4723-2.2272-5.3453-7.5725-15.1451-12.0269-21.8267-4.009-6.6816-16.4814-26.2811-27.172-43.6533-11.136-17.8177-24.0538-33.8536-28.9537-36.0808-5.3453-2.2272-39.1989-6.6816-75.2797-9.7997-61.0255-4.8999-81.0704-10.6906-56.5711-16.4814 5.3453-1.3363 9.7997-4.4544 10.2451-6.6816.8909-5.3453-97.1063-8.4634-126.06003-4.009-17.81768 2.6727-18.70856 3.5635-8.90884 6.6816 6.23619 1.7818 18.70857 3.1181 27.61737 3.5636 17.3723.4454 26.7265 8.0179 15.1451 11.5815-24.0539 7.5725-23.163 6.6816-15.1451 12.9178 4.009 2.6726 25.8357 7.5725 48.9986 10.6906 90.4248 11.5815 139.8688 20.0449 145.6596 24.4993 3.1181 2.6726 7.5725 8.9088 9.7997 14.2541 2.2272 4.8999 8.018 14.6996 12.9178 22.2721 17.3722 26.2811 20.0449 33.8536 13.8087 37.4172-3.1181 2.2272-9.7997 2.6726-14.2541 1.7817-4.4544-1.3363-8.4634-.4454-8.4634 2.2272 0 4.8999 20.4903 44.5442 37.8625 72.1616 5.3453 8.4634 11.1361 18.7086 12.4724 22.2721 1.7818 3.5636 7.1271 12.4724 12.0269 20.0449 4.8999 7.1271 10.2452 16.4814 12.027 20.0449 1.7818 3.5636 14.2541 25.8357 28.0628 48.9986 13.8087 23.163 26.2811 45.4351 28.0629 48.9987 1.7817 3.5635 7.127 12.4723 12.0269 20.0448 4.8999 7.1271 10.6906 17.3723 13.3633 22.2721 2.6726 4.8999 8.9088 16.0359 13.8087 24.4993 5.3453 8.4634 14.6995 24.9448 20.4903 36.9717 13.3633 25.3902 24.9447 27.6174 34.299 6.6817 3.5636-8.018 12.9178-24.9448 20.0449-36.9717 7.5725-12.4724 15.5905-26.2811 18.2631-31.181 2.6727-4.8998 8.4634-15.145 13.3633-22.2721 4.8999-7.5725 10.2452-16.4813 12.0269-20.0448 1.7818-3.5636 14.2542-25.8357 28.0629-48.9987 13.8087-23.1629 26.281-45.435 28.0628-48.9986 1.7818-3.5635 7.1271-12.9178 12.027-20.0449 4.8998-7.5725 10.2451-16.4813 12.0269-20.0449 1.3363-3.5635 7.1271-13.8087 12.4724-22.2721 17.3722-27.6174 37.8625-67.2617 37.8625-72.1616 0-2.6726-4.009-3.5635-8.4634-2.2272-4.4544.8909-11.136.4455-14.2541-1.7817-6.2362-3.5636-3.5635-11.1361 13.8087-37.4172 4.8998-7.5725 10.6906-17.3722 12.9178-22.2721 2.2272-5.3453 6.6816-11.5815 9.7997-14.2541 5.7908-4.4544 55.2348-12.9178 145.6596-24.4993 23.1629-3.1181 44.9896-8.018 48.9986-10.6906 8.0179-5.7908 7.5725-6.2362-16.0359-13.3633-11.1361-3.1181-.4455-10.6906 16.0359-11.136 8.9088-.4455 21.3812-1.7818 27.6174-3.5636 9.7997-3.1181 8.9088-4.0089-8.9089-6.6816-28.9537-4.4544-126.9509-1.3363-126.06 4.009.4454 2.2272 4.8998 5.3453 10.2451 6.6816 24.9448 5.7908 6.2362 11.5815-55.6802 16.4814-36.5263 3.1181-70.8253 7.5725-76.1706 9.7997-4.8999 2.2272-17.8177 18.2631-28.9537 36.0808-10.6906 17.3722-23.163 36.9717-27.172 43.6533-4.4544 6.6816-9.7997 16.4814-12.0269 21.8267-2.2272 4.8998-6.6817 10.6906-8.9089 12.4723-2.6726 1.3364-4.8998 6.6817-4.8998 11.5815 0 6.2362 3.1181 8.4634 11.136 8.4634 13.8087 0 14.2542 6.2362.8909 24.0539-5.7907 7.5725-11.5815 15.5905-12.4724 18.2631-6.2362 15.145-59.2438 90.8702-62.3618 88.643-2.2273-1.3364-4.009-82.4068-4.009-180.404 0-139.4234 1.3363-177.7314 5.7907-177.7314 2.6727.4455 13.3633 10.2452 23.163 22.2721 28.0628 34.7445 32.0718 27.6174 12.9178-24.4993-6.2362-17.3722-12.9178-37.4171-15.145-44.5442-2.2272-7.5725-6.6816-21.3812-10.6906-31.1809-3.5635-9.7997-6.6816-20.4904-7.1271-23.6084 0-8.4634 10.2452-6.2362 22.2721 4.8998 24.9448 22.7176 84.634 66.8163 87.3066 64.1437 3.5636-3.5636 1.3364-6.6817-89.0884-134.0781-9.3542-13.3632-15.5904-26.281-13.8087-29.3991 2.2273-3.5636 4.8999-3.5636 8.4634-.4455 3.1181 2.6727 39.6444 21.8267 81.0705 43.2079 41.4261 20.9358 77.0614 40.0898 79.7341 42.317 5.3453 5.3453 16.9268 5.3453 14.6996-.4455-3.5636-9.7997-232.9662-240.538601-239.6478-240.538601-4.009 0-59.2438 53.007601-122.942 118.042101zm-43.2079-65.48c-124.2783 124.2783-158.1319 160.8046-153.6774 164.3681 4.4544 4.009 40.9806-29.8446 161.25-148.3322 85.9703-84.188501 157.6864-152.7865605 159.4682-152.3411205 2.2272.89088 72.1616 68.5980195 155.4592 150.5594205 83.7431 81.9613 154.5684 149.6685 158.1319 150.5593 3.5636.8909 6.2362-1.3363 6.2362-4.4544 0-8.0179-312.7002-319.827301-320.7182-319.827301-3.5635 0-78.3978 71.71616-166.1499 159.468201z" style="stroke-width:.445442"/></svg>