<svg height="960" style="" width="1134" xmlns="http://www.w3.org/2000/svg"><path d="m783.13943 1014.2254c-5.72906 2.604-18.2286 4.6874-27.0826 4.6874-22.91591.5208-102.0803 16.666-107.80925 21.3534-6.24977 6.2497 38.01968 11.9789 70.3104 8.8539 29.16579-2.0832 65.62311-14.0621 71.87287-22.9159 1.56248-2.604 7.81225-7.8123 13.5413-10.9372 10.41636-5.7289 10.41636-5.7289 0-5.7289-5.72905 0-15.10376 2.0832-20.83272 4.6873zm-474.98594-232.28476c-11.97873 3.12495-24.9992 8.85389-28.64496 12.49965-3.12484 3.12495-8.8539 6.24978-11.45802 6.24978-18.2286 0-60.41486 75.51863-60.41486 108.85101 0 33.33223 41.14462 109.89252 58.8525 109.89252 3.12483 0 9.37472 3.1249 13.54119 6.7706 4.68741 4.1665 21.87437 9.8955 38.54051 13.5412 51.56096 10.9372 105.20522-8.333 137.49596-49.99829 15.10366-19.2703 18.2286-26.0411 27.60331-64.0607 5.20823-19.27028-1.04164-54.16501-10.93718-59.89407-2.604-2.08329-10.93719 2.0833-17.70778 8.85389-9.89553 8.85389-13.02048 17.70778-13.02048 34.37402 0 21.87436-11.458 49.99846-26.56166 65.10216-13.5413 13.0205-50.51933 29.68659-66.14392 29.68659-26.04085 0-62.49805-19.79099-79.16429-42.70699-13.02049-17.7078-15.62448-26.5617-15.62448-51.0401 0-24.47849 2.60399-33.33238 15.10365-50.51934 18.74943-26.04096 51.04015-43.2279 81.24759-43.2279 23.43684 0 44.26954-11.45802 44.26954-23.95767 0-8.33306-28.12412-17.70777-48.95684-17.18695-8.8539.52082-26.04096 3.64576-38.01978 6.77059zm668.73019-282.28324c-2.0833 6.24976-3.64577 20.83272-3.64577 31.24908 0 28.64496-24.47848 93.22641-48.43603 126.55878-35.41566 50.51933-118.22573 130.72527-149.47479 144.78728-4.16649 2.08329-14.58285 8.33317-23.43674 14.06213-8.33306 5.20812-26.04095 15.10366-39.06132 21.87436-13.02047 6.24977-27.0826 14.58284-31.24907 17.70778-4.1666 3.64576-13.5413 7.29142-20.83272 8.33306-20.31189 2.60412-12.49966 11.97883 9.37471 11.458 23.95755-1.04164 91.14312-20.83271 122.91302-36.97801 26.04084-12.49966 25.52002.52081-.52083 19.79107-31.24907 22.39519-33.85319 23.95754-83.33087 47.9152-22.39519 11.45798-47.39439 23.43688-55.20674 27.60328-8.33307 4.1666-19.27025 7.2916-24.47837 7.2916-15.6246 0-58.33158 20.3119-54.68592 26.0408 1.56248 2.6041 6.7707 5.2082 10.93719 5.2082 4.16659 0 13.02047 3.6458 20.31189 8.3331 17.18696 10.9372 116.14243 10.9372 147.91233 0 12.49954-4.6873 26.56166-8.3331 31.7698-8.3331 4.6874 0 23.43682-7.8123 41.14461-17.187 58.33167-30.7283 112.49666-93.74725 151.5581-175.51556 5.72894-13.02046 14.58282-30.20742 18.2286-38.01977 8.85384-16.66613 10.41634-40.10297 3.12482-40.10297-2.60401 0-13.54118 13.02047-23.95755 29.16578-21.35353 31.7699-81.7684 95.83054-90.6223 95.83054-6.7707 0-7.81235-8.8539-1.56246-11.45802 7.29141-3.12494 51.04015-68.74792 61.97732-92.70559 29.68661-64.58133 43.22781-120.82972 43.22781-178.11964 0-45.3112-6.24978-67.7064-11.97872-44.79038zm-201.55659-199.47319c0 5.72894 2.6041 11.97883 5.20822 13.54118 3.12494 1.56248 5.20814 11.97884 5.20814 22.91602 0 19.27024-4.16648 24.47848-104.16349 120.82973-57.29004 55.20674-104.1636 103.64277-104.1636 107.28853 0 5.20813 9.89554 6.7706 38.01968 6.7706 42.18626 0 68.22721 11.45801 76.56027 33.85319 10.41636 27.0825 1.04166 42.18627-60.93568 101.55949-32.81155 31.24908-58.33169 59.3732-56.24839 62.49815 2.0833 3.12483 14.58294 4.16648 32.81154 2.08319 45.31122-4.16648 95.30972-22.91591 130.20444-48.43604 14.58297-10.93718 16.66625-15.10366 16.66625-37.49884 0-27.60332-.52082-27.0826 33.85308-25.52014 17.70779.52082 22.91602-2.08318 31.7699-14.06201 42.7071-58.33168 61.97734-147.91234 47.3944-220.30603-9.37472-44.26944-19.79108-75.51852-28.64496-84.37241-3.64566-3.64577-6.24978-8.85389-6.24978-11.97883s-6.7706-13.02048-15.10376-22.3952c-18.2286-19.27024-42.18626-23.43682-42.18626-6.77058zm-123.95457-57.81086c-20.83272 19.27024-36.45732 36.97813-34.37402 39.06144 2.0833 2.08318 33.85321 3.64564 70.83122 3.64564h66.66475v-21.35354c0-20.83272-14.06212-40.62378-29.1659-41.14462-3.12482 0-8.85388-3.64565-12.49954-7.81224-11.45801-13.5413-22.39518-8.33306-61.45651 27.60332zm-128.64208-60.93569c-11.458 2.60412-29.16579 6.24989-39.06132 7.81225-9.89553 2.08329-22.91601 6.77069-28.64496 10.41635-5.72894 4.16659-13.02048 7.29153-17.18695 7.29153-3.64577 0-18.2286 7.81224-32.81155 16.66613-21.87437 14.58295-25.52013 19.27025-25.52013 33.85321 0 27.6033-4.16648 32.81154-27.0825 32.81154-20.83272 0-41.1446 15.10366-51.56097 39.06132-2.60412 5.72895-6.77059 14.06201-9.37471 18.2286-10.93718 18.2286-21.35354 52.0818-27.08249 89.58064-8.85389 52.60263.52082 111.45503 24.47837 163.016 23.95766 51.56097 33.33237 59.89404 64.58146 59.89404h26.04084v25.52014c0 22.916 1.56247 26.56166 18.22871 39.06132 10.41636 7.81224 26.04083 15.10365 35.41555 16.66612 14.58295 2.0833 20.83273-1.56247 50.51933-29.16578 39.58214-36.97803 38.01968-41.66544-17.18695-41.66544-43.74874 0-63.01898-9.37471-71.35206-33.33226-7.81224-23.95767 2.08331-46.35285 31.76992-72.91452 12.49965-10.93718 59.37321-55.72757 103.64277-98.95547l80.72676-78.64346-71.87288-3.12484c-69.26874-2.60411-71.87286-3.12494-85.93499-16.66624-10.93718-10.93719-13.54119-18.74943-13.54119-35.93639.52071-20.83271 3.64565-24.47847 64.06052-83.33087 34.89484-33.85319 61.97734-64.06062 60.41486-66.66474-3.64566-5.72895-12.49966-5.72895-41.66544.52082zm228.11827-134.891734c-13.5413 12.49954-35.93648 33.85307-50.51933 48.43603-14.58295 14.062004-73.95616 71.352044-132.28774 127.079494-57.81074 55.20674-105.20524 104.68442-105.20524 109.89266 0 4.6873 4.1666 12.49955 9.37472 17.18694 8.33318 7.29143 22.91601 8.85391 95.30971 8.85391 46.87356 0 88.53899 2.08329 92.70558 4.6874 7.29142 4.6873-13.02047 24.9992-201.03566 207.80627-23.95766 22.916-43.22791 44.79037-43.22791 48.95685 0 4.16659 4.16648 11.45801 9.37471 16.14542 7.81224 7.29142 21.87437 8.85389 80.20595 8.85389 38.54048 0 71.87286 1.56247 73.95616 3.64565 3.64564 3.64576-24.47848 31.76991-175.51565 174.99481-36.97802 34.89485-69.26876 67.7064-72.3937 72.91453-6.24976 12.49966-.52081 28.64493 11.97884 32.29073 13.02048 4.1666 29.16578-6.2498 64.58145-41.14462 15.10366-14.58295 79.16429-76.56018 142.18328-138.01668 63.53968-61.45652 116.66312-116.14243 118.74643-121.35067 1.56246-6.24977-.52083-14.06201-6.24978-20.3119-7.81235-8.85388-16.14542-9.89553-80.20605-9.89553-39.06132 0-72.39358-1.56236-74.47688-3.12482-2.6041-2.60413 44.26946-48.95687 189.05684-186.97366 56.24839-53.64428 64.58145-65.10216 59.89405-80.72676-4.16649-13.02048-23.95757-15.62448-117.70479-15.62448-46.35286 0-82.81006-2.0833-82.81006-4.68741 0-4.6873 69.78958-74.47699 194.26507-194.26507 30.72826-29.686614 55.72744-57.810744 55.72744-62.498154 0-10.41636-13.54118-24.9992-23.95754-24.9992-4.16658 0-18.2286 9.89554-31.7699 21.87437zm-345.30224-60.935748c-41.1446 7.8122637-79.6851 19.2702597-104.16358 31.769848-20.83272 10.41636-101.55948 89.580754-109.37173 107.288534-3.12494 6.7706-9.89553 18.74943-15.10376 27.60332-5.72896 8.33307-15.10366 26.04095-21.35355 39.06132-5.72895 13.02047-14.58284 30.20743-18.2286 38.01978-8.85389 16.66613-10.41636 40.10297-3.12483 40.10297 2.604 0 10.41636-9.89554 17.70778-22.39518 14.06201-23.43685 89.05982-102.60113 97.39288-102.60113 8.33307 0 6.24989 6.77059-6.24977 20.83272-58.33156 65.10216-97.91371 171.34905-97.91371 261.45051 0 45.31121 6.24977 67.70641 11.97872 44.79039 2.0833-6.24988 3.64576-20.83272 3.64576-31.24908 0-34.37402 32.29072-111.45501 59.89404-142.7041 86.45582-97.91382 126.55879-129.68361 222.38922-175.51564 19.79106-8.85388 35.41565-18.2286 35.41565-20.83272 0-10.937184-58.85238 0-108.33018 20.3119-22.39508 9.37472-37.49884 9.37472-37.49884-.52082 0-4.16648 2.08328-7.81224 4.6874-7.81224 2.60402 0 16.14532-7.81224 30.72826-17.186964 51.04014-34.89484 149.99551-76.56028 180.72377-76.56028 19.27024 0 15.62448-11.9787833-6.7707-21.8743303-48.43605-21.3535317-73.95606-23.9576157-136.45423-11.9788077zm-18.2286-60.414861c-5.72906 2.083264-16.1454 6.249803-23.43682 9.37471-7.29142 3.124908-17.18696 7.291453-21.87438 8.853911-14.58282 4.166544-10.93717 13.541256 5.20824 13.541256 7.81225 0 30.72826-3.64572 50.51933-7.812263 20.31189-4.166545 49.47768-7.812265 65.10216-7.812265 32.81155 0 52.0818-7.812274 30.72825-12.499629-23.43671-4.687357-95.83041-7.29145-106.24678-3.64572zm346.86472-5.208185c-33.33238 13.54126-65.62311 47.394422-76.56029 80.20594869-11.97884 36.45719531-11.97884 68.22709531 1.04165 82.28921531l9.89553 10.93718 11.458-14.06212c8.33307-9.37471 11.97883-20.31189 11.97883-34.37391 0-27.0826 15.62449-56.769173 39.58215-74.997808 16.14531-12.49962 23.95755-14.582891 53.64427-14.582891 39.58214-.520825 56.24828 7.812263 79.16429 40.1029667 11.97883 16.1453523 15.10365 26.0409023 15.10365 47.9152623 0 51.04016-31.24907 84.372524-83.8517 89.059824-22.39508 2.0833-34.3739 6.24978-44.26944 15.6246-20.3119 18.74943-14.06212 24.9992 29.68662 26.56166 48.43602 1.56248 78.64346-9.89553 107.28842-42.70707 20.83272-23.43685 38.01978-63.539814 38.01978-86.976544 0-28.12425-17.18706-68.227168-39.06143-90.622336-41.14451-42.186246-101.03865-55.72751-153.12033-34.373978z" style="stroke-width:.520817"/></svg>