<svg height="960" style="" width="1205" xmlns="http://www.w3.org/2000/svg"><path d="m1003.9806 646.71005c-36.36051 34.34051-94.94137 89.89134-131.30191 124.23185s-103.02153 96.96141-148.47221 140.39211c-113.12168 106.05149-88.88132 105.04149 57.57086-4.0401 41.41061-30.3004 98.98147-70.70104 126.25187-88.88131 28.28042-18.18027 66.66099-55.55082 85.85127-82.82123 19.19032-28.28042 41.41062-57.57085 48.48072-64.64096 6.0601-7.0701 12.1202-18.18027 12.1202-23.23034 0-5.05008 7.0701-15.15023 15.1502-22.22033 16.1603-13.1302 21.2103-40.4006 8.0801-40.4006-5.05 0-37.3705 28.28042-73.7311 61.61091zm20.2004-142.41211c0 5.05008-6.0601 10.10015-14.1403 10.10015-13.13017 0-128.27188 120.19178-135.34198 141.4021-8.08012 23.23034 27.2704 7.0701 64.64096-28.28042 62.62092-59.59089 115.14172-133.32198 94.94142-133.32198-5.0501 0-10.1001 4.04006-10.1001 10.10015zm-696.91041-5.05007c0 8.08012 7.07011 15.15022 15.15023 15.15022s15.15022-7.0701 15.15022-15.15022-7.0701-15.15023-15.15022-15.15023-15.15023 7.07011-15.15023 15.15023zm-194.93289-38.38057c57.57085 91.91136 178.77265 241.39358 250.48372 311.08461 182.81271 175.7426 187.86278 169.6825 34.34051-35.35052-116.15173-153.52228-354.515259-384.81571-284.82423-275.73409zm394.91586-407.036038-78.78117 82.821218v272.70405 271.69403l83.83125 83.83125c45.45067 45.45067 87.8713 82.82123 92.92137 82.82123 6.06009 0 49.49074-38.38057 95.95143-85.85128l85.85127-85.85127 3.03005-263.61391 3.03004-263.61392-87.8713-89.891328c-48.48072-49.4907303-95.95143-88.88132-104.03155-88.88132-9.09013 1.01002-51.51076 38.3805697-93.93139 83.83125zm139.38207 90.901338 34.34051 34.34051v229.27341 229.2734l-34.34051 34.34051c-19.19029 19.19028-38.38057 34.34051-44.44066 34.34051-5.05008 0-26.26039-18.18027-46.46069-40.4006l-36.36054-40.4006v-217.15322-217.15323l36.36054-40.4006c20.2003-22.22033 41.41061-40.40059 46.46069-40.40059 6.06009 0 25.25037 15.15022 44.44066 34.3405z" style="stroke-width:1.01002"/></svg>