<svg height="960" style="" width="1200" xmlns="http://www.w3.org/2000/svg"><path d="m385.83835.00000469-133.73808 135.54535531-133.73809 135.54536 2.71091 212.35439 2.71091 212.3544 130.12354 128.31627c72.29086 71.38722 135.54536 131.02722 140.06354 132.83442 5.42181 2.7109 103.9181 3.6146 217.7762 2.7109l207.83622-1.8072 131.02718-131.02721 131.02712-131.02718v-216.87258-216.87257l-131.02712-131.02718-131.02718-131.02717531h-216.87257zm47.8927 40.66360731h168.97988 168.97988l131.93081 132.834448 132.83448 133.73809v171.69078 171.69079l-127.41266 129.21991-126.509 128.31627h-179.82351-179.82351l-126.509-128.31627-126.509-129.21991v-171.69079l-.90364-171.69078 132.83445-133.73809zm2.7109 45.181783-112.95446 113.858095-113.8581 112.95447v166.26897 166.26898l111.14719 112.05082 110.24356 112.95447 168.97988.90364 168.97988.90363 112.95447-113.8581 113.8581-112.95446v-166.26898-166.26897l-113.8581-112.95447-112.95447-113.858095h-166.26897zm11.74727 36.145425h155.42534 154.52171l101.2072 101.2072 100.30357 101.2072v154.52171 154.52171l-101.2072 101.2072-101.2072 101.2072-158.13626-1.80727-159.03988-.90363-96.68903-99.39993-97.59265-100.30357v-154.52171-154.52171l101.2072-101.2072zm29.81998 45.18179-93.97812 93.07448-93.07448 93.97811v123.7981 123.79809l93.97812 94.88175 93.97811 93.97812h122.89446 122.89446l94.88175-93.97812 94.88175-93.97811v-123.7981-123.79809l-93.97811-93.97812-93.97812-93.97811h-123.79809zm18.97635 27.10907h105.72538 106.62901l88.5563 89.45994 89.45994 88.5563v106.62901 105.72538l-89.45994 89.45994-89.45993 89.45993h-107.53265l-106.62902-.90363-87.65266-89.45994-88.55631-88.5563v-105.72538-105.72538l89.45994-89.45993zm103.00917 59.80939c-30.90894 0-59.99435 6.36497-87.72149 17.72856-26.81807 11.36358-50.91239 27.7232-71.82139 48.63219-21.36353 20.45445-36.81503 44.54879-48.17861 71.82139-12.27267 28.63622-18.18214 57.72164-18.18214 87.72149 0 29.99987 5.90947 59.54768 18.18214 88.18391 11.36358 27.2726 26.81508 50.91513 48.17861 71.36957 20.909 21.36354 45.00332 37.26861 71.82139 48.63219 27.72714 11.81813 56.81255 17.72856 87.72149 17.72856 30.45441 0 60.00222-5.91043 88.18391-17.72856 26.81806-11.36358 50.45785-27.26865 71.82139-48.63219 20.45445-20.45444 36.81679-44.55151 48.18037-71.36957 11.81813-28.18169 17.72856-57.7295 17.72856-88.18391 0-30.4544-5.91043-59.99435-17.72856-87.72149-11.36358-27.2726-27.72592-51.36694-48.18037-71.82139-21.36354-20.90899-45.00333-37.26861-71.82139-48.63219-28.63623-11.36359-57.27496-17.72856-88.18391-17.72856zm-2.67737 31.36427a206.02177 206.02177 0 01.40593.002 6.7863321 6.7863321 0 01.39005.0353c2.45908.25909 15.6595 1.887 22.33674 3.14154l5.46065 1.36781a5.1363398 5.1363398 0 01.34592.009c.95909.0682 1.12063.39048 2.14789.43593a5.4681564 5.4681564 0 00.23121.009 24.004434 24.004434 0 01.0265.009c1.27726.42727 2.1464.85112 2.61913.89658a.82272346.82272346 0 00.0794 0 1.0499952 1.0499952 0 01.39886.0971c.24091.1.47918.25127.72009.31945a.86817779.86817779 0 00.24886.0441 5.2545211 5.2545211 0 01.29297.0106c1.02727.0546 1.10097.41117 1.47371.44299a.63636068.63636068 0 00.0529 0l2.72503.9054a1.4499933 1.4499933 0 01.36357.0618c.36363.1.85928.30092 1.50018.54183a25.972607 25.972607 0 00.86127.31063c.41819 0 .83919.0002 1.26192.35475a1.7909008 1.7909008 0 01.10589.0988 1.1499947 1.1499947 0 01.21356.0177c.42726.0818 1.03813.35287 1.44722.41651a1.0181771 1.0181771 0 00.15002.0177c13.7954 4.73179 26.91414 11.17265 40.52771 19.91352a249.2943 249.2943 0 016.29368 4.18108 121.55852 121.55852 0 002.99153 2.24674c2.91818 2.1318 5.64549 3.99734 8.37276 6.38369l10.91069 10.00529 10.44828 10.91069a7.7908729 7.7908729 0 00.22239.57713c.38181.89999.85563 1.40453 1.89199 2.44088a393.12999 393.12999 0 00.15884.15884l2.2732 2.7268a9.7317727 9.7317727 0 011.98024 2.45852 5.3908841 5.3908841 0 01.29297.72891 14.527206 14.527206 0 01.68303.71831c.85908.98181 1.22024 1.72216 1.58842 2.45853a147.08568 147.08568 0 0110.04941 15.11119 204.12632 204.12632 0 016.32193 11.70843 101.43135 101.43135 0 015.30886 11.71021 138.36754 138.36754 0 012.86798 8.29156l1.81963 6.35722 1.3678 4.09283c0 .90909.45085 2.27467.9054 4.09284 0 1.36363.45086 2.27562.90541 3.63925 0 1.36363.46063 2.72038.46063 4.08401l.45358 2.27321c0 .38181-.001.68615.0353.94069a1.395448 1.395448 0 00.41651.87894 63.745158 63.745158 0 00.009 1.42957c.0273 1.12274.11748 2.00872.44476 2.66326 0 3.1818.45182 5.00386.45182 8.18567v1.8108 2.27321a3.7136191 3.7136191 0 01.32121 1.04659c.13637.81363.1412 1.82175.1412 3.04447v.916.9054l-.46241 2.27144v4.09284a63.745158 63.745158 0 01-.009 1.42958c-.0273 1.12271-.11572 2.00872-.44299 2.66325v4.08401l-.90541 4.09283v1.81963l-.45358 2.27321-.91422 4.09284c0 1.36363-.45086 2.2668-.9054 3.63043l-.45182 2.2732v.91423c-.3909.39091-.45332.78319-.46241.88775a.37727098.37727098 0 000 .0176l-.90539 4.09284-.9054 1.81962-.46241 2.27322-1.35723 3.63042a4.8636138 4.8636138 0 01-.009.29297c-.0591.98182-.41749.74558-.44477 1.86375a5.5772468 5.5772468 0 000 .11649l-.91422 1.81962-.9054 1.81963a1.1499947 1.1499947 0 01-.0265.21356c-.0818.42727-.35464 1.03813-.41828 1.44722a1.0181771 1.0181771 0 00-.009.15884 1038.0634 1038.0634 0 01-2.47617 5.15002 124.36306 124.36306 0 01-13.8934 23.48218 132.5312 132.5312 0 01-11.53371 13.73279 189.25367 189.25367 0 01-10.73243 10.36004 119.5949 119.5949 0 01-20.8454 14.56937 147.72204 147.72204 0 01-5.97423 3.16096c-5.30675 3.09559-11.04803 5.31763-16.79668 7.11084-.0852.029-.18227.11644-.25768.13236a1.0681769 1.0681769 0 01-.22238.0265c.16009-.0493.31998-.10891.48006-.15884.37715-.12841.81176-.3102 1.14543-.57714a2.4318069 2.4318069 0 00.19414-.16943c.80908-.26818 1.77867-.8657 2.81503-1.58842a78.440545 78.440545 0 002.1832-1.59725l4.54642-3.1786a9.2226842 9.2226842 0 01.89658-.78186c1.06363-.82273 2.13263-1.34195 3.19626-2.40558l2.27144-1.8108 2.2732-1.81963a2.4999884 2.4999884 0 01.14297-.35651c.47272-.92273 1.23656-.69611 1.65019-1.8461a2.9545317 2.9545317 0 00.0265-.0706l2.2732-1.81963 4.09284-3.64102 3.63043-4.54465a205.74904 205.74904 0 001.27955-1.26897c1.11818-1.1409 1.93857-2.05406 2.30674-2.72679a2.7908961 2.7908961 0 00.0547-.0883 111.02676 111.02676 0 007.04024-9.48994c2.24544-3.30907 4.49543-6.79311 6.95905-10.37946a236.09891 236.09891 0 01.0883-.13236 210.58993 210.58993 0 007.79562-16.26368 153.42201 153.42201 0 003.56866-9.18814 142.61297 142.61297 0 005.54006-24.41405 270.67147 270.67147 0 00.82598-6.04659 110.81766 110.81766 0 00.81539-13.80516c0-6.47724-.47807-13.15413-1.26897-20.28592a1.0999949 1.0999949 0 00-.0706-.33709c-.12272-.38636-.3855-.89398-.39005-1.9167a6.4090611 6.4090611 0 010-.0177v-.90717l-.45358-.91421c0-1.81817-.45359-3.18103-.45359-4.54466l-1.36603-4.54642c0-.90909-.45087-2.26407-.90541-4.08224l-1.3678-4.54642a1.0999949 1.0999949 0 00-.0618-.34592c-.12273-.38636-.3855-.89574-.39004-1.91847a6.4090611 6.4090611 0 010-.009l-.90717-1.81964-1.36604-4.54464-.9054-1.81963a1.1090858 1.1090858 0 00-.11648-.44476c-.16364-.37728-.47957-.87846-.79775-1.82845a140.63116 140.63116 0 00-16.59372-31.74726 175.21737 175.21737 0 00-.67419-.976 162.79925 162.79925 0 00-56.84433-50.61243 181.48552 181.48552 0 00-2.24674-1.2072l-1.36604-.45358-.9054-.4624a9.236321 9.236321 0 01-.46241-.15885c-.65455-.25909-1.0499-.51848-1.35899-.77304a6.8045139 6.8045139 0 01-.45182-.42534 3.4636203 3.4636203 0 01-1.56371-.40945c-.2909-.15001-.53221-.3275-.70949-.50477l-1.36781-.45358-1.35722-.45182a3.449984 3.449984 0 00-.87892-.63008c-1.02273-.53182-2.17889-.56298-3.16978-1.22661a3.3818025 3.3818025 0 01-.49772-.41653l-1.36603-.45358-.90541-.45181a1.4499933 1.4499933 0 01-.36534-.0618c-.36363-.1-.8681-.30093-1.509-.54183a25.972607 25.972607 0 00-.86127-.31062 1.1090858 1.1090858 0 01-.43417-.11648c-.37272-.16364-.88728-.47074-1.83727-.78892l-1.35899-.45358h-1.36781a54.813382 54.813382 0 00-.38122-.19591c-.90454-.4409-2.35568-1.10419-4.11931-1.51782a15.390837 15.390837 0 00-.4977-.10589l-.90541-.45359h-1.36603l-2.7268-.91423a4.8636138 4.8636138 0 01-.28415-.009c-.9818-.0591-.74558-.41572-1.86374-.443a5.5772468 5.5772468 0 00-.12355 0 1.0499952 1.0499952 0 01-.40064-.09c-.2409-.1-.4774-.26009-.71831-.32827a.86817779.86817779 0 00-.24886-.0353h-1.35722l-5.00705-1.36604h-1.35899l-1.36781-.45358a42.049805 42.049805 0 01-.87893-.009c-.88181-.0182-1.4961-.0948-1.8461-.44476a108.53131 108.53131 0 00-5.38828-.65654 55.345198 55.345198 0 00-5.06883-.25768 1.2954486 1.2954486 0 00-.59478-.31062c-.34545-.0909-.78732-.12327-1.32368-.13237a47.358871 47.358871 0 00-.80833-.009h-2.27144c-1.81817 0-3.63365-.45359-5.45183-.45359h-5.45887c-1.81818 0-3.63363.45359-5.45181.45359h-2.72503a1.0999949 1.0999949 0 00-.34592.0706c-.38636.12272-.89575.37668-1.91847.38122a6.4090611 6.4090611 0 01-.009 0l-5.46063.4624c-1.81818 0-3.63188.45183-5.45005.45182l-2.72504.45359c-.45454.45455-1.36412.45182-2.2732.45182l-5.46064 1.3678-4.99824 1.35899-2.72503.46064-2.72502.90541-4.99824 1.3678c-13.18176 4.99998-25.91123 10.4549-38.1839 18.18214-12.27267 7.27268-22.73117 15.4509-33.18567 25.9054a1108.1676 1108.1676 0 00-4.72291 5.2012 172.38102 172.38102 0 00-21.18249 27.52206c-7.2727 12.27267-12.275 24.54857-17.27498 37.73033a21.70899 21.70899 0 00-.11648.35474c-.22272.71362-.31947 1.14215-.46946 1.46488a1.5772654 1.5772654 0 01-.31946.45358l-.45358 2.72503-.91422 2.2732a5.1363398 5.1363398 0 01-.009.35475c-.0681.95909-.39048 1.11635-.43593 2.13908a5.4681564 5.4681564 0 00-.009.23121l-1.36604 5.00705-.45359 2.27321-.90539 2.72503-.91423 4.99823v.90541l-.45358 1.3678v2.72503h-.45182a190.94457 190.94457 0 01174.83939-177.485 206.02177 206.02177 0 0115.42006-.69185 206.02177 206.02177 0 011.14895-.002zm-67.77621 83.63926c-.15414.0474-.3065.10196-.46064.15001-.37925.1274-.81748.31654-1.15426.58596a2.4318069 2.4318069 0 00-.1959.16943c-.80908.26818-1.77868.85688-2.81504 1.5796a78.440545 78.440545 0 00-2.19202 1.59901l-4.54466 3.18567a9.2226842 9.2226842 0 01-.88951.78185c-1.06362.82273-2.13086 1.33313-3.19449 2.39676l-2.27321 1.81962-2.27321 1.8214a2.4999884 2.4999884 0 01-.15001.34592c-.47272.92272-1.22951.70493-1.64314 1.85492a2.9545317 2.9545317 0 00-.0265.0706l-2.2732 1.81962-4.09284 3.6322-3.63925 4.54465a205.74904 205.74904 0 00-1.26897 1.27956c-1.11818 1.1409-1.94915 2.04347-2.31733 2.7162a2.7908961 2.7908961 0 00-.0441.0971 111.02676 111.02676 0 00-7.04907 9.48995c-2.24544 3.30907-4.48836 6.7931-6.95199 10.37944a236.09891 236.09891 0 01-.0883.13238 210.58993 210.58993 0 00-7.79562 16.25485 153.42201 153.42201 0 00-3.56866 9.19873 142.61297 142.61297 0 00-5.54889 24.40522 270.67147 270.67147 0 00-.81539 6.04483 110.81766 110.81766 0 00-.82597 13.81398c0 6.47724.48688 13.1453 1.27779 20.2771a1.0999949 1.0999949 0 00.0706.34592c.12272.38636.37844.89573.38298 1.91846a6.4090611 6.4090611 0 010 .009v.91423l.45182.90539c0 1.81818.46241 3.18103.46241 4.54466l1.35722 4.54642c0 .90909.46145 2.27466.91599 4.09283l1.35722 4.54465a1.0999949 1.0999949 0 00.0706.3371c.12272.38636.37843.89574.38298 1.91846a6.4090611 6.4090611 0 010 .0177l.91422 1.81963 1.35723 4.54465.91421 1.82139a1.1090858 1.1090858 0 00.11649.43417c.16363.37727.4725.88728.79068 1.83727a140.63116 140.63116 0 0016.60078 31.73844 175.21737 175.21737 0 00.6742.98482 162.79925 162.79925 0 0056.83551 50.61243 181.48552 181.48552 0 002.25556 1.20897l1.35898.45181.91422.45358a9.236321 9.236321 0 01.46065.16767c.65454.25909 1.04989.51849 1.35898.77304a6.8045139 6.8045139 0 01.45182.42534 3.4636203 3.4636203 0 011.55489.40063c.29091.15001.54104.32751.71832.50477l1.35898.45358 1.36604.46064a3.449984 3.449984 0 00.8701.63184c1.02272.53182 2.17889.5524 3.16979 1.21603a3.3818025 3.3818025 0 01.50653.42534l1.3678.45358.90541.45182a1.4499933 1.4499933 0 01.36357.0618c.36363.1.85928.30092 1.50018.54182a25.972607 25.972607 0 00.86127.30181 1.1090858 1.1090858 0 01.443.11648c.37272.16364.88022.47955 1.83022.79775l1.36604.45358h1.35898a54.813382 54.813382 0 00.38122.1959c.90454.44091 2.35568 1.10419 4.11931 1.51782a15.390837 15.390837 0 00.50653.1059l.9054.45358h1.36781l2.72503.90541a4.8636138 4.8636138 0 01.28415.009c.9818.0591.74557.42454 1.86374.45181a5.5772468 5.5772468 0 00.12531 0 1.0499952 1.0499952 0 01.39005.09c.24091.1.48623.25127.72714.31945a.86817779.86817779 0 00.24004.0441h1.3678l4.99824 1.35899h1.36604l1.35898.46065a42.049805 42.049805 0 01.88776 0c.88181.0182 1.49609.10358 1.84609.45358a108.53131 108.53131 0 005.38122.65654 55.345198 55.345198 0 005.06884.24886 1.2954486 1.2954486 0 00.59477.31945c.34545.0909.78556.12327 1.32192.13236a47.358871 47.358871 0 00.80833 0h2.27321c1.81818 0 3.64071.46241 5.45888.46241h5.45182c1.81818 0 3.6407-.46241 5.45887-.46241h2.7268a1.0999949 1.0999949 0 00.3371-.0618c.38636-.12273.89396-.3855 1.91669-.39004a6.4090611 6.4090611 0 01.0177 0l5.45181-.45358c1.81818 0 3.64072-.45182 5.45888-.45182l2.7268-.45358c.45454-.45454 1.36235-.46065 2.27144-.46065l5.45181-1.35899 4.99824-1.3678 2.73385-.45182 2.72679-.9054 4.99648-1.3678c13.18176-4.99998 25.91124-10.45492 38.1839-18.18215 12.27268-7.27269 22.72235-15.4509 33.17684-25.90539a1108.1676 1108.1676 0 004.73174-5.2012 172.38102 172.38102 0 0021.18249-27.53089c7.2727-12.27267 12.26793-24.53974 17.26791-37.7215a21.70899 21.70899 0 00.12355-.36358c.22272-.71363.31241-1.13332.46241-1.45604a1.5772654 1.5772654 0 01.32827-.45359l.45182-2.73385.90539-2.2732a5.1363398 5.1363398 0 01.009-.34593c.0681-.95909.39931-1.12518.44476-2.1479a5.4681564 5.4681564 0 00.009-.23121l1.35899-4.99823.45182-2.27321.91422-2.72503.9054-4.99823v-.91423l.45358-1.35898v-2.73385h.46241a190.94457 190.94457 0 01-174.84116 177.485 206.02177 206.02177 0 01-16.98199.70067 6.7863321 6.7863321 0 01-.39182-.0353c-2.45907-.25909-15.6595-1.89761-22.33674-3.15215l-5.45005-1.35721a5.1363398 5.1363398 0 01-.35475-.009c-.95909-.0682-1.12239-.39931-2.14966-.44476a5.4681564 5.4681564 0 00-.22062 0 24.004434 24.004434 0 01-.0265-.009c-1.27727-.42728-2.15524-.85113-2.62796-.89658a.82272346.82272346 0 00-.0812-.009 1.0499952 1.0499952 0 01-.39004-.0883c-.2409-.1-.48624-.25126-.72714-.31944a.86817779.86817779 0 00-.24003-.0459 5.2545211 5.2545211 0 01-.29298-.009c-1.02726-.0546-1.10098-.41117-1.4737-.44299a.63636068.63636068 0 00-.053 0l-2.72679-.91422a1.4499933 1.4499933 0 01-.36357-.0547c-.36363-.0994-.8681-.30798-1.50901-.54888a25.972607 25.972607 0 00-.85244-.30181c-.4182 0-.83743-.0002-1.26016-.35474a1.7909008 1.7909008 0 01-.10766-.0988 1.1499947 1.1499947 0 01-.21178-.0265c-.42728-.0818-1.03814-.35287-1.44723-.41651a1.0181771 1.0181771 0 00-.16061-.009c-13.79539-4.73161-26.90353-11.17265-40.51712-19.91352a249.2943 249.2943 0 01-6.29545-4.18107 121.55852 121.55852 0 00-2.99152-2.24674c-2.91817-2.13181-5.64374-4.0044-8.371-6.39076l-10.91068-9.99647-10.45888-10.91068a7.7908729 7.7908729 0 00-.21356-.58596c-.38182-.89999-.85386-1.39746-1.89022-2.43381a393.12999 393.12999 0 00-.16943-.15885l-2.27145-2.73385a9.7317727 9.7317727 0 01-1.9714-2.46029 5.3908841 5.3908841 0 01-.3018-.71832 14.527206 14.527206 0 01-.6742-.72009c-.85909-.98181-1.23083-1.72215-1.59901-2.45852a147.08568 147.08568 0 01-10.0406-15.10942 204.12632 204.12632 0 01-6.32015-11.71021 101.43135 101.43135 0 01-5.31063-11.71902 138.36754 138.36754 0 01-2.87504-8.28274l-1.8108-6.36604-1.36807-4.09233c0-.90909-.45085-2.26583-.9054-4.08401 0-1.36363-.45968-2.27563-.91422-3.63926 0-1.36362-.45358-2.7292-.45358-4.09283l-.45182-2.27321c0-.38181.001-.68615-.0353-.9407a1.395448 1.395448 0 00-.41828-.87893 63.745158 63.745158 0 00-.009-1.42076c-.0273-1.12272-.12632-2.0087-.45359-2.66324 0-3.18181-.45182-5.00211-.45182-8.18391v-1.82139-2.27145a3.7136191 3.7136191 0 01-.31944-1.03953c-.13636-.81363-.13414-1.83058-.13414-3.0533v-.9054-.9054l.45358-2.27321v-4.09283a63.745158 63.745158 0 01.009-1.42959c.0273-1.12273.11749-2.0087.44476-2.66325v-4.09283l.91423-4.09283v-1.81081l.45182-2.27321.90539-4.09107c0-1.36363.45968-2.27738.91423-3.64102l.45358-2.2732v-.9054c.39091-.39091.44273-.78321.45182-.88776a.37727098.37727098 0 000-.0265l.91599-4.08401.90539-1.81964.45182-2.2732 1.36782-3.63926a4.8636138 4.8636138 0 01.009-.28415c.0591-.98181.41571-.74557.443-1.86374a5.5772468 5.5772468 0 000-.12531l.90716-1.81963.91422-1.8108a1.1499947 1.1499947 0 01.0177-.21356c.0819-.42727.35289-1.04696.41652-1.45604a1.0181771 1.0181771 0 00.0177-.15002 1038.0634 1038.0634 0 012.47794-5.15002 124.36306 124.36306 0 0113.88457-23.48924 132.5312 132.5312 0 0111.54078-13.72573 189.25367 189.25367 0 0110.73243-10.36004 119.5949 119.5949 0 0120.8454-14.56936 147.72204 147.72204 0 015.97599-3.1592c5.31223-3.0988 11.0509-5.32728 16.80551-7.12143.0814-.0274.17478-.10827.24709-.12353a1.0681769 1.0681769 0 01.21355-.0265zm73.64102 26.8108c46.36342 0 84.09107 37.72589 84.09107 84.0893 0 46.36343-37.72765 84.09107-84.09107 84.09107-46.81797 0-84.54289-37.72764-84.54289-84.09107 0-46.36341 37.72492-84.0893 84.54289-84.0893z" style="stroke-width:.903636"/></svg>