<svg height="960" style="" width="1180" xmlns="http://www.w3.org/2000/svg"><path d="m594.8625-29.99961c-.948.043-.7791 2.0132.048 7.6877.6791 4.754 1.3584 22.75090004 1.3584 40.0688.1698 34.8056-1.5281 43.974-11.7151 67.9135-18.8459 43.6343-43.9739 58.745-73.3464 44.1436-24.6186-12.2244-48.2185-36.1639-62.1407-63.3293-2.5468-4.7539-4.9239-10.6962-5.4333-12.9034-1.8676-8.8287-4.584-5.4331-5.7724 6.9611-4.0748 44.8228-9.6778 66.3854-19.5252 75.5537-3.2259 3.0561-6.1122 3.9049-13.2431 3.9049-20.374 0-57.0473-25.2977-89.6457-61.6314-6.4518-7.3007-12.0547-12.3941-12.3943-11.5452-.3395.849.6793 5.2633 2.2073 9.6777 4.9237 14.6014 10.6964 38.7105 13.7525 57.3867 2.8863 18.1668 2.8862 18.1669-.6792 25.6374-4.2446 8.9985-9.3381 10.866-20.3741 7.8099-10.6963-2.7166-38.0313-16.6388-54.1607-27.505-8.4892-5.6028-10.6964-4.2445-4.2447 2.7167 10.187 11.0359 67.5739 86.4196 78.1005 102.7189 15.7898 24.6186 34.2961 67.9134 34.2961 80.1378 0 6.282-2.8862 6.1123-4.2444-.3395-1.8677-8.3194-2.2074-8.3195-23.7699.679-19.6949 8.4892-46.3508 24.449-60.9522 37.013-52.12349 44.1436-82.34479 82.1751-109.34039 137.3547-5.7726 11.8848-10.5267 22.2415-10.5267 23.2602s-1.0187 3.905-2.3769 6.6216c-3.7353 7.81-10.3569 28.6935-15.4504 49.7467-7.9798 33.1078-7.9797 65.1966.3397 103.5677 3.0561 14.2618 8.1495 33.1078 10.5265 38.2013.8489 1.8676 4.0748 9.8474 7.1309 17.8272 8.4892 22.4115 14.2618 32.9381 28.0143 51.1049 15.7898 20.8834 40.4084 40.4086 61.97089 49.0675 5.0935 2.0374 11.3755 4.754 13.9223 6.1122 2.7165 1.3583 6.6215 2.3769 8.6589 2.3769s5.2633 1.1885 7.1309 2.5468c1.6979 1.3582 4.9238 2.5467 7.1309 2.5467 2.2072 0 5.4332.8489 7.3008 1.8676 1.8676.8489 10.6964 2.8864 19.8647 4.2446 13.4129 2.0374 19.3553 2.2073 32.5984.6792 19.3553-2.3769 26.6559-5.0935 39.5595-14.941 25.6372-19.3553 37.6918-52.1236 29.3724-80.1378-6.4518-22.0719-17.9969-36.6733-38.3709-47.879-26.3164-14.6013-59.7638-15.6199-84.2127-2.7163-15.62 8.4891-37.5221 40.4083-33.1077 48.5579 2.7165 4.9237 26.656 24.6185 37.1825 30.561 3.0562 1.6978 3.905 1.6978 4.4143 0 4.9238-16.469 8.8289-24.1091 15.9598-30.2213 6.7913-6.1122 8.4892-6.7914 16.469-6.7914 12.0547 0 21.3927 6.6216 25.2977 17.9971 4.4144 13.2431 2.8862 21.7323-5.7727 29.033-3.7353 3.3956-6.1122 3.7351-20.7135 3.9049-14.941 0-19.8646-.849-31.9192-5.7727-1.3583-.5094-4.754-2.5467-7.6403-4.4143-2.7165-1.8676-6.4519-3.9049-7.98-4.4143-1.6978-.6791-3.0561-1.698-3.0561-2.3771 0-.6792-2.8862-3.2259-6.4517-5.6029-14.4315-9.5079-30.9006-28.8632-35.6545-41.7667-9.50789-26.1467-12.73369-47.0299-10.52649-68.4226 1.6979-16.8085 7.47029-39.5596 10.35659-41.4272.849-.5094 1.5281-1.8676 1.5281-3.0561 0-6.9611 15.9598-33.2776 28.354-46.3509 2.5468-2.8863 8.9984-7.8101 14.0919-10.8662s10.5267-6.4517 11.885-7.4704c1.3582-1.1885 7.8098-4.2447 14.4314-6.7914 9.5079-3.7353 15.7898-4.9236 33.1078-5.9423 11.715-.6792 27.505-.6792 35.315 0 16.469 1.3582 18.5065 2.8864 23.0906 16.9784 6.1122 19.1855 10.6964 30.0516 24.4488 59.594 7.9799 16.6387 11.3755 30.2214 13.0733 50.935 1.3583 16.6388 1.5281 17.1481 8.3195 20.374 3.0561 1.3583 5.6027 4.4143 6.4516 7.4704 5.4331 18.3366 20.0346 35.8243 20.0346 23.9395 0-2.2072 1.0186-4.9237 2.3769-5.9424 2.0374-1.6978 3.2258-.3396 6.6215 6.9611 7.3007 15.2805 14.2617 20.374 18.1667 13.2431 2.0375-3.9051 5.0936-4.5843 5.0936-1.1886 0 3.7352 10.0172 16.4691 12.7337 16.4691 1.3583 0 2.5468-1.5282 2.5468-3.226 0-4.9237 3.0562-6.1122 6.9613-2.5467 2.5467 2.3769 3.2257 5.2633 3.2257 14.4316 0 11.2057.1698 11.5452 6.282 16.6387 5.4331 4.4144 7.8102 5.2634 15.9598 5.2634 5.0935 0 9.8473-.5094 10.5265-1.0187 1.3582-1.5281-2.377-9.1683-4.5842-9.1683-1.0187 0-3.2258-2.0373-4.9236-4.4143-2.8864-3.905-3.0561-4.5842-.5094-7.3008 1.5281-1.6978 2.7164-3.9049 2.7164-4.9236s1.0188-2.5468 2.2073-3.226c1.1884-.6791 3.9049-3.7352 5.9423-6.6215 4.9237-7.3007 31.4099-26.6559 43.8041-32.4286 5.4331-2.377 12.9035-6.2821 16.2992-8.4893 3.5655-2.2072 7.6403-3.905 9.1683-3.905 4.2446 0 14.2618 6.6215 14.2618 9.5078 0 5.2633 5.0937 2.0376 6.9613-4.2444 1.5281-5.4331 1.528-7.9799-.1698-12.3943-2.5468-6.282-7.8101-12.0546-12.2245-13.7524-2.8863-1.0187-4.4142-6.2821-1.8675-6.2821 2.7165 0 12.2243 7.8101 15.62 12.9036 2.0374 3.0561 6.6215 6.7913 10.0171 8.4891 9.8475 4.5842 22.7512 9.3381 29.3727 10.6964 3.2259.6791 6.7912 1.698 7.8099 2.3771 3.0561 2.0374 35.3151 6.2819 51.1049 6.9611 8.8287.3395 16.6387 1.3581 17.6574 2.3768 2.0374 2.0374 5.2634 70.2905 3.7353 77.5911-1.3582 6.1123-14.4315 23.6-20.7135 27.6748-10.187 6.4518-10.1871 6.6214-1.1885 20.0343 5.433 7.9798 10.0171 17.9972 18.1667 40.5784 6.1122 16.2993 7.1311 19.6947 12.0548 37.3522 1.3583 4.5842 3.0559 8.4893 3.7351 8.4893 1.1884 0 3.7352-6.6215 7.6402-20.374.8489-2.8863 4.2446-12.7338 7.6403-22.0719 3.3956-9.3381 6.7915-18.8459 7.4706-21.2229 1.6978-5.0934 9.1682-18.6763 15.62-28.3539l4.754-7.1309-8.4893-7.131c-4.5842-3.7352-10.6964-10.3566-13.7525-14.4314-9.8474-13.7524-11.0358-10.6965-12.5639 28.1839-1.0187 31.0704-1.8677 38.5408-4.2446 36.1639-2.7166-2.7166-1.8676-45.5019 1.1885-72.6672 2.0374-17.4877 2.5467-31.9194 1.8676-54.6704-1.0187-33.7869-1.1883-33.2775 8.9987-34.9753 26.1466-4.7539 63.6686-21.7323 87.7778-39.7293 18.846-14.0921 43.4647-39.3899 49.0675-50.5956 6.282-12.2244 8.3194-15.6199 11.7151-19.5249l3.0561-3.3958 4.0748 3.7353c2.2072 2.0374 5.4331 8.6589 7.3008 14.7711 3.2258 10.3568 9.338 20.5439 15.2805 25.1281 4.0748 3.2259 22.2415 8.9984 28.3537 8.9984 7.4705 0 20.8834-6.961 26.4862-13.5826 5.7727-6.7913 8.6591-16.8087 7.3008-24.2792-1.8676-10.3568-9.508-12.9035-9.508-3.0561 0 5.7727-9.1682 14.9411-16.4689 16.4691-6.4517 1.3583-11.5452-1.3584-15.7898-8.3195-4.4144-7.3007-4.9238-36.673-.6792-40.9176 3.0561-3.2259 6.9612-3.5655 7.8101-.6792.3395 1.0187 1.6976 1.3583 2.7163.6792 1.1885-.6792 2.0374-5.7728 2.0374-13.0735 0-12.7338.849-13.5827 8.1496-8.659 12.3942 8.659 29.8819 11.3757 37.692 5.9426 10.187-6.9611 15.6201-18.5065 15.9597-32.9381.1698-10.3568-.3396-12.0547-5.0935-17.8273-2.7165-3.5654-6.1122-6.7913-7.1309-7.1309-3.5655-1.1885-4.4143 4.9238-1.3582 9.8475 3.5655 6.1122 3.3956 8.8288-.6792 17.8273-2.377 5.4331-4.7539 7.9798-7.9797 8.659-8.3194 2.2071-12.7339-1.0187-19.0159-13.7525l-5.7727-11.8849 5.4332-15.2805c4.754-13.7525 5.2632-17.4876 5.2632-34.2961 0-21.7323-2.7164-30.0517-13.4128-41.2574-6.1122-6.4518-6.9613-6.7914-16.1296-6.7914-9.5078 0-9.6776-.1698-12.2244-6.1122-2.3769-5.6029-2.3768-6.4518.1699-9.1683 1.5281-1.6979 6.1123-3.7353 9.8475-4.2447 3.9051-.6791 9.8475-2.7164 13.2431-4.2444 7.9799-4.2446 17.8273-15.2806 19.3553-22.0719 1.8677-8.8288-.5094-19.8647-5.7727-25.9769-2.7165-3.0561-6.4517-8.6589-8.4891-12.5639-3.7352-7.6403-9.3382-12.3943-14.0922-12.3943-3.7352 0-3.905 3.056-.5093 7.4704 3.2259 4.4144 3.226 7.9798-.3395 15.7899-3.5654 7.81-7.1309 12.3942-9.6776 12.3942-1.0187 0-3.3957-2.2072-5.0935-4.754-3.3957-5.2633-12.7339-12.2244-15.9598-12.2244-2.8863 0-2.5467 5.9426.5094 8.4893 1.3582 1.1885 2.5467 4.7538 2.5467 7.8099 0 4.5842-.6789 5.7727-3.2257 5.7727-1.8676 0-4.7539-1.8677-6.6215-4.2446-4.0748-5.0935-17.6575-11.5452-21.3928-10.0172-2.3769.8489-1.8677 2.0375 2.3769 6.7914 6.9612 7.9799 6.4519 12.3941-2.3769 21.5624-8.1496 8.4892-9.508 12.7337-9.508 31.5797 0 25.8071-8.1496 47.3697-20.374 53.6517-6.7913 3.5654-8.6588 3.2259-16.4688-2.3769-7.6403-5.6029-11.8849-12.7339-17.3179-30.2216-2.2072-6.7913-6.4518-16.2991-9.6777-21.2228s-5.7727-10.0174-5.7727-11.5455c0-3.3956 6.2819-13.5825 8.4891-13.5825 2.2071 0 2.2071-4.5841 0-5.9424-3.3957-2.0374-13.243 2.7164-19.1855 9.3379-8.1496 8.9986-13.4129 9.1685-17.9971.3398-3.2259-6.4518-3.2257-14.262.3397-18.6764 1.1885-1.528 1.0186-2.8861-.3397-4.2444-2.8863-2.7165-13.0732 8.8287-14.4314 16.6387-2.377 12.0546.3395 18.5065 12.7337 31.2402 16.469 16.9784 23.5998 29.8819 30.7307 57.0473 3.2258 11.5452 3.7353 18.5063 3.7353 46.6903 0 35.6546-1.5281 44.4833-11.2057 62.6501-4.5842 8.9985-23.9396 28.8633-31.2403 32.2589-2.7165 1.1885-6.2819 3.0561-8.1496 3.905-5.9424 3.0561-28.5234 8.3195-31.7493 7.3008-3.0561-1.0187-3.226-3.2261-3.226-41.5971 0-23.0906-.6791-40.9178-1.528-41.5969-1.8676-1.0187-9.8474 2.2072-14.092 5.6029-2.7165 2.3769-3.0562 6.1121-2.8864 37.522.1697 19.1855.6793 40.7482 1.3584 47.7093l1.0187 12.7338 10.187.5093c5.4331.3396 11.7151-.3397 13.7525-1.3584 2.0374-1.1885 5.0933-1.6978 6.7911-1.3582 2.5468.6791 2.0375 1.1886-1.8675 2.2073-2.7165.8489-6.1123 2.3768-7.3008 3.735-3.0561 3.0561-24.7884 2.8865-30.561-.1696-2.5467-1.3582-5.9423-2.8865-7.4704-3.3958-5.2633-1.5281-3.3956-4.4143 2.7166-4.4143 3.2259 0 6.282-.5093 6.6216-1.3582.3396-.6791.3395-4.7539-.1699-9.1683-.6791-7.9798-.8489-8.1497-10.187-12.3943-20.2042-9.3381-25.2976-15.62-36.5033-45.8415-2.377-6.4518-5.0936-15.7899-10.3569-35.315-8.3194-30.2215-17.1481-57.3866-21.2229-65.3665-.8489-1.528-2.8863-5.9424-4.5841-9.6776-1.8676-3.7353-6.4519-12.3944-10.3569-19.1857-4.0748-6.9612-7.3008-13.2431-7.3008-14.092s-.6789-1.528-1.6976-1.528c-.8489 0-1.6979-1.1886-1.6979-2.7166 0-2.377.5094-2.377 2.7166-.5094 3.905 3.2259 5.9422-1.0185 3.735-7.3005-2.5467-7.4705 1.5282-24.7884 10.3569-43.8041 5.4331-11.7151 15.7899-23.4302 48.8976-55.1797 18.5064-17.6575 34.9754-33.787 36.6733-35.8244 2.5467-3.3957 2.8862-9.338 3.3956-57.3867.3395-29.5424.1698-54.1609-.3395-54.84-.5094-.8489-5.2634-2.8863-10.3569-4.5842-5.0935-1.8676-11.8847-5.2634-14.9408-7.4706-6.6215-4.9237-18.6762-20.5436-22.5813-29.2026-6.9611-15.1107-13.4129-34.2963-13.4129-40.4085 0-2.2072-.8489-5.6028-1.8676-7.4704-1.0187-2.0374-3.2259-13.2433-4.754-24.7885-2.7165-21.223-5.6027-27.505-7.9797-17.8273-.6792 2.5467-4.9237 12.0546-9.5078 20.8834-8.659 16.9783-9.508 18.5064-16.9784 30.2215-2.7166 4.0748-4.7541 7.6402-4.7541 7.9797 0 .3396-3.3955 5.4332-7.4703 11.3756s-7.9798 12.3941-8.4891 14.6013c-2.7166 8.4892-4.4146.6791-4.4146-20.374 0-32.2589-7.81-76.2327-19.8646-110.8685-2.2072-6.6216-4.754-14.2619-5.6029-16.9784-.8489-2.8864-3.0559-5.9424-4.7537-6.9611-.8118-.5252-1.4088-.8625-1.8211-.8946-.033 0-.065 0-.095 0zm172.2089 27.3825c-4.754 0-6.2819.8489-8.4891 5.0935-2.377 4.4144-2.3771 7.131-.6792 20.0346 1.528 11.0359 1.698 67.4039.849 219.8694-1.1884 227.1703-2.2071 209.5128 10.187 203.7401l6.6216-3.0561.1696-139.2225c0-76.5723.1698-175.2163.5094-219.1902.3395-57.0472.0001-81.1566-1.3582-83.70329996-1.5281-2.54680004-3.5656-3.56550004-7.8101-3.56550004zm101.9285 42.8121c-.451-.016-.9923.9072-1.5865 3.0295-.6792 2.3769-2.2071 6.9611-3.3956 10.187-1.3583 3.2258-3.5656 10.187-5.2634 15.2805-4.0748 12.3942-18.8459 43.6343-23.9394 50.4257-2.2072 2.8863-4.0749 6.1121-4.0749 6.961s-6.6215 8.4892-14.7711 16.8085c-10.5266 10.8662-17.997 16.9786-25.4675 20.7138l-10.3566 5.0935-.6793 43.8041c-.3395 24.1093.0001 44.4831.6793 45.5018.8489.8489 4.2444-1.1885 8.3192-5.0935 6.7913-6.6215 21.902-25.1279 21.902-26.9956 0-.3395 3.226-5.6027 7.3008-11.5451 3.905-5.9425 8.8287-14.0921 11.0358-18.3367 2.2072-4.2445 5.4331-10.0172 7.131-12.7337 1.8676-2.8863 3.7354-6.282 4.4145-7.6403.5093-1.3582 2.2072-5.6029 3.5654-9.3381 1.5281-3.7353 4.584-10.866 6.7912-15.9595 6.7913-14.9409 13.2431-40.9179 15.7899-63.8387.8489-8.4891 2.377-20.8832 3.2259-27.8444 1.2734-9.9323.7322-18.4321-.6207-18.4798zm-239.3596 101.6825c.069.02.1507.6173.2462 1.8588.3396 4.5842.3396 11.715 0 16.1294-.3396 4.5841-.5093.849-.5093-7.9798 0-6.3456.088-10.0601.2631-10.0084zm-168.3487 44.8139 1.1883 8.4893c.6791 4.5842 1.3584 12.7338 1.3584 17.8273.1698 5.0935 1.3581 15.4503 2.7164 22.9207 3.7352 21.0532 3.0562 142.1087-.8488 133.2799-.1698-.5093-1.0188-28.3537-1.698-61.9708-.6791-33.6172-2.3769-70.6301-3.5654-82.3452-1.1885-13.2431-1.5279-24.4486-.679-29.7119zm-81.7517 7.9451c.3608.029.752.4977 1.2743 1.393 1.0187 1.3583 1.6977 4.2445 1.6977 6.4517s1.1885 5.0937 2.5467 6.452c1.3583 1.528 2.5468 4.5841 2.5468 7.1309 0 2.5467 1.1885 6.112 2.5467 7.8098 1.3583 1.8677 2.5468 5.2635 2.5468 7.4707s.8489 5.6028 2.0374 7.6402c1.0187 2.0375 2.5468 6.4518 3.226 9.6777.6791 3.2259 2.0373 8.1495 2.8862 11.0358 1.6978 4.9237 4.5842 15.1107 8.8288 31.4099 1.0187 4.2446 2.5469 11.0359 3.226 15.2805s2.207 9.3382 3.2257 11.3756c1.1885 2.0374 2.0374 7.1309 2.0374 11.2057 0 4.2446 1.1885 10.3567 2.5468 13.5826 2.8863 6.9611 3.3956 17.4877 1.0187 19.0158-.849.5093-2.2071-3.5655-2.8863-8.8288-.6791-5.4331-2.2071-11.3755-3.3956-13.2431-1.3582-1.8677-2.3771-6.4518-2.3771-10.187-.1698-3.7353-1.1885-8.6589-2.5467-11.0359-1.3583-2.377-2.377-6.1121-2.5468-8.4891 0-2.3769-1.0186-7.6403-2.3769-11.8849-1.3582-4.2446-3.5654-11.5453-5.0935-16.2992-1.528-4.9237-2.7166-10.5266-2.7166-12.7338-.1698-2.2072-1.1885-5.9425-2.5468-8.3194-1.3582-2.377-2.5467-6.6214-2.5467-9.338 0-2.8863-1.1885-6.9612-2.5468-9.3381-1.3582-2.377-2.5467-6.6217-2.5467-9.3382 0-2.8863-1.1885-6.6214-2.5468-8.3192-1.3582-1.8676-2.5467-5.7727-2.5467-8.8288s-1.3582-7.6402-2.8862-10.5265c-1.6979-2.8864-2.377-6.1122-1.5281-8.1496.5412-1.353.9385-2.0353 1.3704-2.072.024 0 .048 0 .072-.0003zm168.6919 5.1025c.4283-.023.668 2.8325.668 8.515 0 5.6028-.6791 8.1496-1.528 7.1309-1.0187-.849-1.1886-4.7541-.6792-8.8289.6366-4.5364 1.1613-6.797 1.5392-6.817zm-4.1196 21.2721c.5577.047.7419 2.5977 1.0523 8.8054.3396 5.9424-.3395 13.2431-1.3582 16.1294-1.1885 2.8863-2.7167 9.8475-3.3958 15.4503-1.8676 13.9223-4.9236 29.033-7.8099 38.2013-1.3583 4.2446-2.3771 9.6776-2.3771 12.0546 0 2.5467-1.1885 7.3006-2.5468 10.5265-1.3582 3.3956-2.5467 8.3195-2.5467 11.036 0 2.5468-1.1885 6.282-2.5468 8.1496-1.3583 1.6979-2.5467 5.9423-2.5467 9.338 0 3.3956-1.1885 7.131-2.5468 8.3194-1.3583 1.1885-2.5467 3.7354-2.5467 5.7728 0 5.7726-2.0374 11.2057-3.5655 10.187-2.377-1.3583-1.8676-7.8101 1.0187-13.2432 1.3583-2.5467 2.5468-7.6404 2.5468-11.036.1697-3.3957 1.1884-7.9797 2.5467-10.3567 1.3583-2.3769 2.377-6.4517 2.5468-9.1683 0-2.7165 1.0188-8.8289 2.3771-13.5828 4.0748-14.4316 6.4516-25.128 7.8099-34.1265.8489-4.7539 2.2072-10.6963 3.2259-13.2431 1.0187-2.7165 1.8676-7.4705 1.8676-10.6963 0-3.2259 1.1885-8.6589 2.5467-12.0546 1.3583-3.2259 2.5468-8.9984 2.5468-12.5639 0-3.5654 1.0187-8.4891 2.0374-11.2057.7958-1.7243 1.3069-2.7232 1.6643-2.6932zm81.4824 13.4809c.073 0 .1455.031.2171.078 2.2072 1.3583.5094 34.1265-2.0374 36.6732-1.0187 1.0187-1.8678 6.452-1.8678 12.0548 0 5.9424-1.1885 12.3942-2.5467 15.2805-1.3583 2.5468-2.5468 8.3194-2.5468 12.7338 0 4.4143-1.1885 9.5077-2.5467 11.3753-2.2072 2.8863-2.377 2.3771-2.5468-6.2818 0-5.6029 1.0187-10.6964 2.5468-12.7338 1.528-1.8676 2.5467-7.131 2.5467-13.4129 0-5.6029 1.1885-12.3942 2.5468-15.1107 1.3582-2.5467 2.5467-8.4893 2.5467-12.9036 0-4.4144.5094-12.7338 1.0187-18.3366.6155-5.6931 1.6494-9.2945 2.596-9.4143h.073zm-15.6578 92.3408c.977-.039 1.7827 1.8295 1.7827 5.3631 0 7.1309-1.6978 13.2431-3.5654 13.2431-1.6979.0001-2.0374-9.1683-.5094-14.941.6685-2.4512 1.5322-3.635 2.2921-3.6652zm-256.288 6.7213c1.0187 0 1.528 3.5654 1.528 7.9798-.1697 7.3006-.3395 7.6402-1.528 3.0561-.6791-2.8864-1.3583-6.4518-1.5281-8.1496 0-1.5281.6792-2.8863 1.5281-2.8863zm251.4492 13.5826c2.0374 0 1.8678 11.3757-.1696 15.1109-1.6979 3.2259.3393 18.3364 3.735 28.1839 1.0187 2.7165 2.377 9.6776 3.0561 15.2805.8489 5.6029 2.2073 12.9037 3.226 16.1296 3.3957 11.0359 1.5281 34.2961-2.3769 30.2213-.5093-.5094-1.8677-8.8286-2.7166-18.5063-3.2259-32.9379-4.2447-39.7294-6.2821-43.4646-1.1885-2.0374-2.0374-6.961-2.0374-11.0358s-1.0187-8.4894-2.0374-9.5081c-1.6978-1.6978-1.6978-2.8862 0-5.433 1.0187-1.8676 2.0374-5.2632 2.0374-7.4704 0-2.2071.5094-5.2633 1.0187-6.7914.5094-1.528 1.6978-2.7166 2.5468-2.7166zm29.2307 59.2943c.6168-.026 1.7974.8091 3.7074 2.507 2.377 2.2072 4.2444 4.4143 4.2444 5.0935 0 .6791 1.1885 2.377 2.5468 3.7353 2.7165 2.8863 3.3957 5.7725 1.1886 5.7725-.849 0-2.3769-1.8675-3.3956-4.2445-1.0187-2.3769-2.7166-4.2446-3.7353-4.2446-.849 0-1.698-1.1885-1.698-2.5468 0-1.3582-.6789-2.5467-1.6976-2.5467-.8489 0-1.6979-1.1885-1.6979-2.5468 0-.6367.1671-.963.5372-.9789zm329.2469 49.2371c2.4429-.047 6.5514 2.6928 9.7826 7.261 4.754 6.4518 5.0935 8.1497 5.0935 21.0532 0 7.8101-.6789 14.6013-1.6976 15.1107-.849.5093-3.7354 5.6027-6.2821 11.0358-2.5468 5.6029-5.2632 10.187-5.9423 10.187-2.377 0-1.5283-7.9798 1.1883-10.187 1.3582-1.1885 2.5467-3.3956 2.5467-4.9236 0-1.5281 1.1885-4.2445 2.5468-5.9424 5.4331-7.1308 2.5467-23.5999-6.1122-34.8056-1.8676-2.2072-3.2257-5.0936-3.2257-6.2821 0-1.6926.8224-2.4821 2.102-2.507zm-190.4878.3975c-1.6271 0-4.1223.9424-8.0538 2.9586-5.9425 2.8863-8.6589 7.9798-5.9424 10.6963 1.0187 1.0187 4.0747.1698 8.4891-2.0374 6.7913-3.5654 9.6778-7.3007 7.8101-10.3569-.4828-.8276-1.1897-1.2631-2.303-1.2606zm179.8633 8.1456c1.1458.01 1.7203 1.4716 1.0518 3.8114-.5093 2.2072-1.0187 5.6029-1.0187 7.6403 0 2.2071-.6789 3.9049-1.6976 3.9049-1.8677 0-2.377-12.3941-.5094-14.0919.8171-.8755 1.5738-1.2695 2.1739-1.2647zm-179.8956 13.217c-1.7314.023-4.127.8452-7.1725 2.4793-6.6215 3.3957-9.6777 8.9984-6.7914 11.8847 3.5655 3.5655 17.3179-4.7539 17.3179-10.5265 0-2.5786-1.128-3.8678-3.354-3.8375zm182.4755 3.8375c1.3582 0 2.5467 1.0186 2.5467 2.3769s1.1885 2.7167 2.5468 3.3958c2.5467.8489 3.7354 6.1122 1.3584 6.1122-2.0374 0-8.9987-7.3007-8.9987-9.6776 0-1.1885 1.1885-2.2073 2.5468-2.2073zm-182.4758 19.5998c-2.5335-.011-6.2969 1.5383-10.568 4.5095-5.0935 3.5655-6.4516 9.8473-2.207 9.8473 5.0935 0 16.1293-7.6402 16.1293-11.0358 0-2.2311-1.255-3.3117-3.3543-3.321zm-230.6799 10.95c.6615.014 1.4096.8814 2.11 2.7278.5093 1.5281 1.0187 5.433 1.0187 8.9985 0 3.3956.8489 7.131 2.0374 8.3194 1.1885 1.1885 2.377 8.659 2.7166 17.8273.5094 12.9036.1698 16.1293-2.0374 17.9969-1.528 1.1885-2.7166 3.3958-2.7166 4.9239 0 2.7165-6.6214 14.4316-8.8286 15.2805-.6791.3396-1.3584 1.1885-1.3584 2.0374 0 2.2072-22.4113 27.1652-24.6184 27.1652-2.8864 0 .3394-5.6028 8.9984-14.6013 10.3568-11.2057 13.0734-14.7713 15.4504-20.5439 1.0187-1.8676 2.5466-4.0746 3.3955-4.7538 1.0187-.5093 1.8676-2.3769 1.8676-4.0748 0-1.6978 1.1885-4.0749 2.5467-5.2633 3.5655-3.0561 3.5655-34.9754 0-39.7294-1.3582-1.8676-2.5467-6.282-2.5467-9.8475 0-4.1385.8622-6.4861 1.9648-6.4629zm230.7501 10.4278c-1.8305-.02-4.5896 1.3196-8.9403 4.1847-6.4517 4.0748-8.8286 10.8662-3.9049 10.8662 7.9798 0 18.1668-8.9984 15.2805-13.5826-.573-.955-1.337-1.4564-2.4353-1.4683zm-174.649 105.2059c.6791 0 3.2259.6792 5.6029 1.5281 3.905 1.528 4.2445 2.2073 2.5467 4.2447-2.7165 3.3956-6.7911 3.2258-9.3379-.1699-1.5281-2.2072-2.7165-2.3769-5.6029-.8488-1.8676 1.0187-4.9238 1.8675-6.7914 1.8675-3.905 0-13.9223 9.6777-13.9223 13.413 0 1.528 1.1885 4.2445 2.5468 5.9423 3.2258 4.2446 3.2258 12.7338 0 16.9784-1.3583 1.8677-2.5468 5.4331-2.5468 8.1496 0 4.754-3.7352 6.6216-5.9423 3.0561-.6792-1.0187-2.2073-.849-4.2447.3395-2.377 1.5281-4.0748 1.5281-7.1309 0-2.2072-1.1885-8.6588-2.2072-14.4314-2.5467-10.187-.5094-14.0922-1.8677-12.0548-3.7353.5093-.5094 8.4893 0 17.6576 1.0187l16.8086 1.8677 4.5841-5.6028c4.9238-5.7726 6.6216-17.1481 3.0561-19.3553-4.0748-2.5468-.3396-12.564 7.4704-20.374 2.0374-2.0374 6.9611-3.7354 12.0546-4.4146 4.5841-.5093 8.9985-1.1884 9.6776-1.3582zm-91.2197 6.3341c.1126 0 .2425.1972.3857.627.3396 1.6978.3396 4.4145 0 5.9426-.5093 1.6978-.849.3394-.849-2.8865 0-2.3186.1755-3.6724.4633-3.6831zm120.2574 11.0968c3.7262.028 7.0944.9693 7.6355 2.7733.3396.8489 1.5281 1.6979 2.5468 1.6979 2.7165 0 9.6776 6.9611 9.6776 9.6777 0 3.3956-1.3581 2.7164-8.9984-3.7354-9.8474-8.4891-15.1106-7.9798-25.2976 2.0374l-7.98 7.8102-4.5842-4.4143c-2.5467-2.5468-4.0747-5.2635-3.3956-5.9426.6792-.6791 2.3771.3396 3.7354 2.0374 2.2071 3.2259 2.3769 3.2259 6.1122 0 2.2071-1.6978 4.5841-4.0748 5.6028-5.0935.8489-1.0187 3.5654-3.2257 5.9423-4.7538 2.1489-1.4325 5.7154-2.119 9.0032-2.0943zm-116.1572 12.9824c.9473.05 2.1059 1.209 2.7372 3.3737.5094 1.6979 3.3958 5.2633 6.2821 7.6403s4.7538 4.7538 4.2444 5.2631c-1.3582 1.3583-9.5079-4.7539-9.6776-7.1309 0-1.1885-1.1885-2.377-2.5468-3.0561-1.3583-.5094-2.5467-2.0374-2.5467-3.5655 0-1.7508.6715-2.569 1.5074-2.5246zm137.6569 3.506c1.0659.025 1.8833 1.1782 2.6049 3.4332 1.5281 4.4144-1.6977 8.1495-4.4143 5.433-2.3769-2.377-13.7526-.849-15.6202 2.3769-1.8676 3.0561-4.5842 2.8864-4.5842-.3395 0-1.3583.8491-2.5468 1.8678-2.5468s2.8862-1.1885 4.2444-2.5467c1.5281-1.5281 4.2448-2.2072 6.452-1.5281 2.3769.5094 4.584-.1698 5.9423-1.6979 1.4326-1.7509 2.5667-2.6064 3.5073-2.5841zm-183.7136 84.1729c-.1178 0-.2099.029-.2736.077-1.3582 1.5281-1.3581 20.0345.1699 21.3927.5094.6792 2.8863-.5093 5.0935-2.5467 5.2633-4.9237 7.9798-2.3771 5.6029 4.9236-1.0187 2.8863-1.6978 9.6778-1.3582 15.1109.5093 8.4892 1.0187 10.0171 3.5654 9.5078 1.5281-.1698 4.2445-.5093 5.9424-.8489 1.8676-.1697 2.7166.5092 2.2072 2.2071-.3395 1.3582-1.3582 6.2821-2.0374 11.0361-1.6978 9.8474.1698 12.9034 5.6029 9.5078 4.4144-2.7166 6.7912.1697 5.2631 6.6215-1.0187 3.7352-6.6215 10.0172-9.1683 10.187-.5094 0-2.0372 3.0561-3.2257 6.6216-2.7165 8.4891-.6791 14.2618 8.1496 22.9207 9.3381 9.3381 17.997 7.6402 11.2057-2.2072-2.2072-3.0561-2.3771-4.7539-.8491-7.9798 2.377-5.2633 9.1684-7.9799 26.1467-10.8662 14.2619-2.377 38.2012-.3395 50.7652 4.2447 3.3957 1.3582 10.187 2.8863 15.2805 3.5654 11.8848 1.6979 19.1855 8.659 17.8273 17.3179-1.3583 7.6403 2.5469 8.9985 8.9987 2.8863 7.6402-7.3007 9.5078-13.4128 6.961-22.5811-2.0374-7.4704-1.8676-7.8101 3.5655-13.4129 6.9611-7.1309 12.9034-7.3007 19.6947-.5094 2.8864 2.7165 5.6029 5.0935 6.1122 5.0935.5094 0 1.0187-4.5842 1.0187-10.3569 0-9.1683-.5093-10.8659-5.0935-15.4501-4.9237-4.7539-5.7726-5.0935-14.2618-4.0748-8.3193 1.1885-9.5077.8489-11.8846-2.7166-4.2446-5.9424-3.3959-12.9036 2.207-18.5065 2.7165-2.7165 6.6217-4.9236 8.4893-4.9236 5.6029 0 5.6028-2.8862-.1698-6.4517-13.4129-8.1496-22.751-6.2821-28.5237 5.433-2.0374 4.4143-5.4331 8.6589-7.3007 9.6776-2.0374 1.0187-5.7725 3.9052-8.3193 6.2821l-4.754 4.4143-5.433-5.0935c-2.8863-2.7165-7.6404-7.4705-10.5267-10.6964s-6.4517-7.1308-7.9797-8.4891c-2.8864-2.8863-7.4704-10.8662-8.9985-15.9597-.5093-1.528-1.5281-2.8862-2.2072-2.8862-1.5281.1698-12.3943 14.4315-12.3943 16.1293 0 2.8863 8.1496 7.4705 13.2431 7.6403 3.3957 0 5.4332.849 5.4332 2.2072 0 2.377-5.2634 7.9798-7.4706 7.9798-.6791 0-2.3768 1.1885-3.7351 2.5467-3.7352 3.7353-16.2994 3.2259-24.2792-1.0187-8.4892-4.4143-12.7337-10.5264-13.7524-20.2041-.849-6.9611-1.1884-7.6403-5.2632-7.1309-3.3956.3396-5.9425-1.3583-10.8662-6.6216-5.4331-5.9424-6.961-6.7914-9.5078-5.2633-2.3769 1.528-4.2447.849-10.5267-3.905-3.6928-2.9234-7.2461-4.8708-8.3854-4.8311zm-224.7615 102.5055c-1.4107-.019-2.4275.4178-3.0218 1.3092-1.3582 2.2072 11.5453 26.3164 19.8647 37.1826 7.81 10.187 28.3539 30.5611 41.9366 41.4272 8.9985 7.4705 30.0515 21.9021 31.7493 21.9021.5094 0 2.3771 1.0188 3.7353 2.2072 4.4144 3.5655 33.6172 15.2805 51.1049 20.3741 30.9006 9.1683 46.8601 12.0546 83.7031 15.7898 20.5438 2.0374 29.2029 2.2072 30.3914 1.0187 2.2072-2.2072-11.5453-8.8288-18.3366-8.8288-4.7539 0-26.1468-4.2445-40.5784-7.9797-5.6029-1.5281-14.4314-3.7353-19.525-5.0936-55.1796-14.4315-84.2125-30.0517-114.0944-61.2918-14.2618-14.941-19.695-22.5811-24.1093-34.466-2.8864-7.6402-9.5079-13.413-15.2806-13.413-2.5467 0-11.0358-3.2259-20.2041-7.8101-3.0561-1.528-5.5213-2.304-7.3351-2.3279z" style="stroke-width:.127338"/></svg>