<svg height="960" style="" width="1210" xmlns="http://www.w3.org/2000/svg"><path d="m607.72509.000249a118.07474 118.07474 0 00-93.48192 190.518241l-41.17229 42.41637h-138.91955a120.01473 120.01473 0 01-79.26412-39.63206c20.1567 79.08325 60.30991 79.26374 60.4848 79.26411h.0592 579.1375s40.37091-.009 60.66252-79.26411a120.12574 120.12574 0 01-79.2641 39.6913h-139.03801l-38.44723-39.6913a118.07474 118.07474 0 00-90.7568-193.302551zm-.71091 44.54904a73.577571 73.577571 0 01.35545 0 73.583637 73.583637 0 11-73.57699 73.577011 73.577571 73.577571 0 0173.22154-73.577011zm-324.75774 67.889901a301.77177 301.77177 0 0152.60578 70.378c7.43116 27.05549 50.94704 26.69957 50.94704-1.5995s-33.15397-53.43089-103.55282-68.7785zm645.36865 0c-70.36852 15.34762-103.55283 40.41877-103.55283 68.7785s43.60546 28.65498 51.00629 1.5995a301.77177 301.77177 0 0152.54654-70.378zm-400.2897 92.41555a117.43202 117.43202 0 0051.83566 27.90239l.82935.17773h-79.97501zm157.58039 2.31039 24.94033 25.76973h-75.05801a118.11266 118.11266 0 0050.11768-25.76973zm286.36974 147.15402-732.63027.11847a122.84524 122.84524 0 00-.17772 245.55288h.23696v.11847l732.63026-.11847a122.84524 122.84524 0 00.17771-245.55288h-.23694zm-638.20053 38.86193h269.48615 274.28464a122.319 122.319 0 00-30.27202 56.75261l-.11848.82937h-482.93054a122.78913 122.78913 0 00-30.44975-57.58198zm-91.70466 9.65623a74.402581 74.402581 0 0176.42055 74.34713 74.393178 74.393178 0 01-74.40637 74.40637 74.402581 74.402581 0 01-2.01418-148.7535zm723.09248 0a74.402581 74.402581 0 0176.42059 74.34713 74.393178 74.393178 0 01-74.34714 74.40637 74.402581 74.402581 0 01-2.07345-148.7535zm-600.93807 100.94622h482.93054a122.78913 122.78913 0 0030.3905 57.58199l-269.54538-.05924h-274.22541a122.3651 122.3651 0 0030.27202-56.69337zm-48.16273 183.64629s-40.34199.009-60.60328 79.26413a120.01473 120.01473 0 0179.26412-39.63206h138.91953l38.44724 39.6913a118.06231 118.06231 0 10184.23871 2.72508l41.17232-42.41638h138.97878a120.12574 120.12574 0 0179.26413 39.63206c-20.13996-79.25558-60.48481-79.26413-60.48481-79.26413zm184.65338 39.63207h75.11728a118.28918 118.28918 0 00-50.05844 25.76971zm129.91498.0592h79.97498l-27.30997 28.08017a117.43202 117.43202 0 00-51.83566-27.9024zm-266.82032 30.15355c-11.82161-.23507-24.55742 6.43639-28.25783 19.96413a302.09935 302.09935 0 01-52.54654 70.37799c70.36852-15.37795 103.55282-40.38844 103.55282-68.7785 0-14.19503-10.92684-21.32855-22.74845-21.56362zm483.70066 0c-11.81782.24644-22.68921 7.41408-22.68921 21.56362 0 28.29906 33.15398 53.40055 103.55283 68.7785a302.09935 302.09935 0 01-52.60578-70.37796c-3.71558-13.52774-16.44003-20.21057-28.25784-19.96413zm-245.01971 11.07804a73.583637 73.583637 0 0174.34713 73.57699 73.577571 73.577571 0 01-73.57699 73.57703 73.583637 73.583637 0 01-.77014-147.15402z" style="stroke-width:30.3313"/></svg>