<svg height="960" style="" width="1230" xmlns="http://www.w3.org/2000/svg"><path d="m562.48747-51.483785c-69.51667 29.006933-109.02611 103.524747-90.02149 170.040595 23.00547 80.51929 96.02292 128.03063 171.54091 111.02659 15.50374-3.50088 33.00795-9.50231 38.5092-13.0032 19.50469-14.00332 29.007-8.0019 100.52404 63.51526l71.01698 71.01686-11.50279 23.00558c-6.50149 13.00309-14.00332 29.50706-17.00404 37.00879l-5.50125 13.50326-205.54921-1.00024-205.5491-1.50041-11.50267-27.00641c-15.00356-36.50873-47.51133-73.01746-76.01816-85.52048-16.50397-7.00167-33.50801-10.00238-61.51466-10.00238-47.51147 0-74.51788 10.50255-102.52453 41.00985-33.50802 36.00855-37.50898 46.51111-37.50898 105.02506 0 50.01199.50011 52.51252 16.50399 76.51834 10.00238 15.50362 27.50648 32.50766 46.01093 45.01069 29.00689 19.00451 30.5073 19.50468 75.01794 20.00475 37.50896 0 49.01175-2.00048 69.0165-12.00285l24.50587-12.00285 44.51063 44.51062c24.50588 24.50588 44.51063 47.51134 44.51063 51.01223 0 3.50078-7.50184 21.00499-17.00404 39.00926-31.00748 58.51396-34.50825 129.03087-9.50231 189.5453 17.50421 41.00985 57.51371 86.02058 96.52309 107.02548 75.01793 40.00959 166.53972 33.00789 239.05711-18.5043 20.00475-14.5035 56.01329-62.01483 67.51608-88.52118 24.50587-59.01413 21.50517-131.53141-7.50184-186.04441-21.00499-40.00961-30.00713-50.01199-65.51562-76.51834-37.00878-27.00641-55.51324-34.50825-97.02315-40.50968-55.01317-7.50172-108.02577 4.00096-150.53592 32.50778l-21.50516 14.5035-49.51181-49.01175c-43.51039-43.01021-49.01176-50.51205-43.01033-57.51371 4.00095-4.00095 11.00261-19.50469 16.0038-34.00808l9.50231-26.00629h207.54957 208.04975l9.00213 27.00653c10.50244 30.00712 36.00856 60.01425 69.51657 81.51941 19.00451 12.50303 25.50611 13.50326 68.51633 13.50326 47.01123.50007 47.51143 0 77.51853-19.50468 18.5045-12.50303 36.0086-29.50707 46.011-45.01069 16.0039-24.00582 16.504-26.50635 16.504-76.51834 0-58.51395-4.001-69.01651-37.509-105.02506-28.0067-30.5073-55.0131-41.00985-102.52453-41.00985-30.00713 0-45.01069 2.50065-66.01568 12.00285l-27.50659 12.50303-71.01698-71.51704c-66.01579-66.51585-78.01864-83.01983-65.51561-90.52167 9.5022-5.50125 25.506-69.516558 22.50529-88.021008-14.00332-83.0198261-72.01721-135.032245-149.03561-134.032007-17.00404 0-40.0095 4.000961-51.01212 8.50203zm60.51443 57.0136399c2.00048 3.000715 5.00119 12.5029161 6.5016 21.0049911 4.00095 17.504216 15.50363 22.005226 27.00642 10.50255 10.00237-9.502312 13.50326-9.502312 13.50326 0 0 4.000946-2.00049 7.501726-5.00119 7.501726-7.00166 0-6.5016 18.50445 1.00024 23.00558 3.00071 2.00047 12.50291 5.00119 20.50481 6.50149 23.50564 5.00118 21.50517 13.00308-6.50149 25.00593-13.50326 6.001538-25.00593 12.503028-25.00593 15.003678 0 2.50054 4.501 10.00238 10.50243 17.5041 12.00285 15.00368 11.50279 15.50374-9.5022 5.00119-17.50421-8.50196-26.0063-6.00143-26.0063 8.00201 0 15.50363-5.50125 25.00594-15.00355 25.00594-9.50231 0-15.00356-9.50231-15.00356-25.00594 0-14.00344-8.50208-16.50397-26.00629-8.00201-21.00499 10.50255-21.50505 10.00249-9.5022-5.00119 6.00143-7.50172 10.50244-15.00356 10.50244-17.5041 0-2.50065-11.50269-9.00214-25.00594-15.003678-28.00665-12.00285-30.00713-20.00475-6.50149-25.00593 8.0019-1.5003 17.5041-4.50102 20.50482-6.50149 7.50182-4.50113 8.0019-23.00558 1.00023-23.00558-2.50054 0-5.0012-3.50078-5.0012-7.501726 0-9.502312 3.50089-9.502312 13.50328 0 11.50279 11.502676 23.00545 7.001666 27.00641-10.50255 3.50089-18.0042761 8.50208-27.00641609 14.5035-27.00641609 2.50065 0 6.00143 2.50053799 8.0019 6.00142499zm-350.58376 370.5885151c4.00095 16.0038 7.50184 21.50517 16.50398 22.5054 6.00142 1.00024 11.00261-.50017 11.00261-3.50088 0-3.00072 3.50089-5.50137 7.50184-5.50137s7.50172 2.50065 7.50172 5.00119c0 3.00083-3.50077 6.5016-7.50172 8.00201-18.50445 7.50173-2.00048 25.506 29.00688 31.50743 20.50493 4.50112 16.50398 11.50279-11.50278 22.5054-26.50624 10.00238-30.00713 15.50374-16.50387 26.00629 12.50292 8.50196 3.50078 15.50362-9.50231 7.50172-9.50231-6.00142-12.00285-5.50125-20.00475 4.50113-5.00119 6.00142-9.00214 17.5041-9.00214 25.50611 0 31.50743-15.00367 16.50387-32.00771-32.00771-2.50054-8.50196-4.50101-8.0019-20.50482 4.50112-9.50232 7.00167-17.50422 10.50244-17.50422 7.50173s2.50054-5.50125 5.00119-5.50125c3.00071 0 5.00119-3.50089 5.00119-7.50184s2.50053-7.50172 5.00119-7.50172c3.00071 0 5.00119-3.00083 5.00119-6.5016 0-3.00072-11.00262-10.50255-24.50588-16.0038-13.50315-5.50137-25.50612-12.00286-26.50635-14.50351-.50007-3.00071 6.5016-7.00166 16.00391-9.50231 25.506-6.50149 36.00856-17.00404 28.50671-29.00689-7.50172-12.00285.50018-19.50468 8.50209-8.0019 3.50089 4.50113 8.0019 8.50208 9.50231 8.50208 1.5003 0 8.50196-12.50303 15.50363-28.50683 7.50183-15.50374 15.00367-26.50635 17.00415-24.50587 2.00047 2.00047 5.50125 13.00308 8.50196 24.50587zm710.66984 1.00024c7.00166 15.00356 14.00332 27.50659 15.50362 27.50659 1.5004 0 6.0014-4.00095 9.5023-8.50208 8.0019-11.50278 16.0038-4.00095 8.5021 8.0019-7.5019 12.00285 3.0007 22.5054 28.5067 29.00689 9.5023 2.50065 16.504 6.5016 16.0039 9.50231-1.0002 2.50065-13.0032 9.00214-26.5063 14.50351-13.5033 5.50125-24.5059 13.00308-24.5059 16.0038 0 3.50077 2.5005 6.5016 5.0012 6.5016 3.0007 0 5.0012 3.50077 5.0012 7.50172s2.5006 7.50184 5.0011 7.50184c3.0008 0 5.0012 2.50054 5.0012 5.50125s-8.0019-.50006-17.5042-7.50173c-16.00377-12.50302-18.00426-13.00308-20.50479-4.50112-17.00404 48.51158-32.00771 63.51514-32.00771 32.00771 0-8.00201-4.00095-19.50469-9.00215-25.50611-8.0019-10.00238-10.50243-10.50255-20.00475-4.50113-13.00308 8.0019-22.00522 1.00024-9.50231-7.50172 13.50326-10.50255 10.00238-16.00391-16.50386-26.00629-28.00677-11.00261-32.00772-18.00428-11.50279-22.5054 31.00736-6.00143 47.51134-24.0057 29.00689-31.50743-4.00095-1.50041-7.50173-5.00118-7.50173-8.00201 0-2.50054 3.50078-5.00119 7.50173-5.00119s7.50184 2.50065 7.50184 5.50137c0 3.00071 5.00118 4.50112 11.50278 3.50088 8.50197-1.00023 12.50292-6.5016 17.00404-24.00581 3.00071-12.50291 6.00143-23.00546 6.00143-24.0057 2.00047-5.50136 8.0019 3.00071 18.50446 26.50635zm-313.0748 232.05545c15.00356 5.50125 35.00831 13.50315 44.51063 18.50433 27.00641 13.50327 63.51514 54.51312 80.51917 90.02161 14.00333 30.00712 15.50374 37.50885 15.50374 82.51965 0 35.00831-2.50065 54.513-8.0019 65.51561-4.00095 8.50208-7.50184 17.50422-7.50184 19.50469 0 9.00214-31.50754 50.01199-51.51229 67.01606-74.01769 63.51509-183.04369 63.51509-257.06138 0-20.00475-17.00407-51.51229-58.01392-51.51229-67.01606 0-2.00047-3.50089-11.00261-7.50184-19.50469-5.50125-11.00261-8.0019-30.5073-8.0019-65.51561 0-45.51086 1.50041-52.51253 16.0038-83.01983 8.50208-18.00427 19.00452-34.50825 23.00558-36.00855 4.50101-1.50041 14.00332 3.50078 23.00546 13.00309 15.50374 15.50362 15.50374 15.50362 7.50173 31.50754-23.50553 48.0114-27.00642 74.01769-14.50339 114.52736 12.50291 40.00951 41.00974 74.51776 76.01816 92.02197 34.50826 18.00428 94.52251 18.00428 129.03076 0 35.00843-17.50421 63.51525-52.01246 75.5181-91.5219 12.00285-39.00927 12.00285-43.01022 1.5003-76.51823-14.50339-46.5111-32.0076-69.0165-74.01769-94.02255-17.5041-10.50244-26.50624-12.50292-67.51609-12.50292-37.50896-.50017-50.01199 1.5003-60.01436 8.50197-16.50387 11.50278-37.50897 11.00272-50.51205-2.00048-13.50327-13.50315-10.50255-24.0057 10.00237-35.50849 52.01247-29.00689 108.02588-36.00855 155.53722-19.50457zm-45.0108 115.02742c2.50065 5.50137 5.00118 14.50351 5.00118 20.00476 0 5.50136 2.00048 11.00261 5.00119 13.0032 5.00119 3.00071 25.00605-6.5016 31.00748-15.00368 2.50054-3.50077 4.00095-3.00071 4.00095.50018 0 2.50053-3.50089 9.5022-7.50184 15.00356-11.00261 14.5035-9.50231 16.50397 20.00475 30.00712 26.50635 12.50303 32.00772 22.00534 12.50303 22.00534-26.50635 0-43.51039 19.50458-29.00689 34.00808 10.00237 10.00237 1.00024 12.00285-15.00368 4.00095-16.50387-8.50196-21.005-6.50149-21.005 10.00237 0 17.50422-5.50125 27.00653-15.00355 27.00653-9.50231 0-15.00356-9.50231-15.00356-27.00653 0-16.50386-4.50113-18.50433-21.005-10.00237-16.00391 8.0019-25.00605 6.00142-15.00366-4.00095 14.50349-14.5035-2.50054-34.00808-29.0069-34.00808-19.50469 0-14.00333-9.50231 12.50303-22.00534 29.50706-13.50315 31.00736-15.50362 20.00474-30.00712-4.00095-5.50136-7.50184-12.50303-7.50184-15.00356 0-3.50089 1.50043-4.00095 4.00097-.50018 6.00141 8.50208 26.00627 18.00439 31.00747 15.00368 3.00071-2.00059 5.00119-7.50184 5.00119-13.0032 0-12.50292 8.50196-29.50707 15.00356-29.50707 2.50065 0 7.00166 4.50113 10.00238 9.50231z" style="stroke-width:.50012"/></svg>