<svg height="960" style="" width="1620" xmlns="http://www.w3.org/2000/svg"><path d="m1499.4337 468.46402q-94.2312 24.23035-110.3849 29.61632-110.3854 26.92334-204.6166 53.84668a264.20746 264.20746 0 01-56.5388 8.07663q-10.7696-2.69206-13.4616 2.69252-10.7697 5.38504-64.6159 40.385 16.1538 2.69206 35.0005 32.30745a18.312216 18.312216 0 01-2.6926 24.23128 301.50444 301.50444 0 00-32.3079 37.69249 13.629106 13.629106 0 01-16.1537 5.38457h-29.6163a55.734657 55.734657 0 00-4.0381 17.50022 28.746024 28.746024 0 01-6.73106 17.49975q-21.53876 13.46167-32.30791 8.07709l-5.38457 13.46167q-16.15373 53.84668-24.23082 78.07516a48.256885 48.256885 0 01-16.15419 24.23128 57.753231 57.753231 0 00-13.4612 10.76915l-10.76962 10.76915a146.24961 146.24961 0 00-40.38454 51.15416 40.996455 40.996455 0 01-29.61633 24.23081 46.985016 46.985016 0 01-40.38453-8.07663 107.00634 107.00634 0 01-13.46167-16.15418 125.69448 125.69448 0 00-40.38501-53.84621 146.80695 146.80695 0 00-12.11517-10.76962 67.347987 67.347987 0 00-9.42126-6.7306 15.234917 15.234917 0 01-5.38457-5.38457 40.115894 40.115894 0 00-4.03855-5.38458 31.162436 31.162436 0 01-4.03855-6.73107 20.661467 20.661467 0 01-2.69252-8.07709 60.631845 60.631845 0 00-2.69205-12.11517q-2.69252-9.42126-5.38457-17.50022-2.69206-8.07896-8.0771-25.57684a184.64169 184.64169 0 00-8.07709-22.8848l-5.38551-13.46213a34.165112 34.165112 0 01-32.30791-8.07709 28.743226 28.743226 0 01-6.7306-17.49975q-1.34696-12.11565-1.3465-14.80817-5.3841 0-32.30791-2.69205a25.831031 25.831031 0 01-18.84624-8.07709 202.11299 202.11299 0 01-14.8077-17.50022 201.92177 201.92177 0 00-14.80769-17.49975 26.789481 26.789481 0 010-32.30791q2.69252 0 8.07709-8.0771 13.46167-16.15372 24.23082-16.15372-53.84668-34.99856-64.61676-43.07379h-13.46073q-48.45884-8.07663-51.15416-8.07663-56.53873-13.464-312.30904-80.77235l-8.0771-2.69205a43.485159 43.485159 0 012.69392-26.92427q99.6144-150.76854 99.6144-153.46153a655.0282 655.0282 0 01123.84661-134.61576 781.80846 781.80846 0 01107.69148-67.30834 2.3786339 2.3786339 0 002.69579-2.69205 782.18158 782.18158 0 01231.53762-72.692918 660.99158 660.99158 0 01118.4625-10.76915 763.01632 763.01632 0 01131.9237 13.46167 1056.4306 1056.4306 0 01148.0774 37.69249 405.85091 405.85091 0 0164.6158 29.616318 542.98848 542.98848 0 01175.0008 126.53913 763.71312 763.71312 0 01105.0008 134.61622q40.3841 61.92377 61.9233 99.61579a36.963504 36.963504 0 015.3846 26.9224zm-690.58038 263.8474a63.135473 63.135473 0 0044.42309-17.50022 56.474832 56.474832 0 0018.84624-43.07706 59.767608 59.767608 0 00-60.57727-60.57727 63.138738 63.138738 0 00-44.42309 17.50021 56.475298 56.475298 0 00-18.84624 43.07706 59.76854 59.76854 0 0060.57727 60.57728z" style="stroke-width:46.6399"/></svg>