<svg height="960" style="" width="1255" xmlns="http://www.w3.org/2000/svg"><path d="m162.37273 697.69086c4.00971 10.69258 38.7606 20.04859 84.20407 24.05831 80.19435 6.68286 114.94523 34.75088 61.48233 49.45318-48.11661 12.02915-16.03887 30.74117 52.12633 30.74117 69.50177 0 97.5698 21.38516 62.81891 46.78004-30.74117 22.72173-14.7023 33.41431 49.45319 33.41431 42.77032 0 62.8189 9.35596 93.56007 40.09716 49.45319 49.4532 72.17492 50.7898 122.96468 1.3366 28.06802-26.7315 54.79947-40.09719 92.2235-42.77033 69.50177-5.34629 80.19435-10.69258 52.12633-30.74117-36.08746-26.73145-9.35601-48.11661 61.48234-48.11661 68.1652 0 100.24294-18.71202 52.12633-30.74117-53.4629-14.7023-18.71202-42.77032 61.48229-49.45318 45.4435-4.00972 80.1944-13.36573 84.2041-24.05831 8.0195-25.39488-179.10071-22.72173-189.79329 4.00972-4.00971 10.69258-14.70229 20.04859-24.0583 20.04859-10.69258 0-37.42403 17.37544-61.48234 40.09717-24.0583 21.38516-49.45318 40.09718-56.13605 40.09718-5.34629 0-13.36572 9.35601-18.71201 20.04859-4.00972 10.69258-18.71202 20.04858-33.41431 20.04858-13.36573 0-28.06803 9.35601-33.41432 20.04859-4.00972 12.02916-24.0583 20.04859-48.11661 20.04859s-44.10689-8.01943-48.11661-20.04859c-5.34629-10.69258-20.04859-20.04859-33.41432-20.04859-14.70229 0-29.40459-9.356-33.41431-20.04858-5.34629-10.69258-13.36572-20.04859-18.71201-20.04859-6.68287 0-32.07775-18.71202-56.13605-40.09718-24.05831-22.72173-50.78976-40.09717-61.48234-40.09717-9.35601 0-20.04859-9.35601-24.0583-20.04859-10.69258-26.73145-197.81274-29.4046-189.7933-4.00972zm419.68377-557.35075c-4.00971 10.69258-16.03887 20.04859-26.73145 20.04859s-48.11661 26.73145-84.20407 60.14576c-34.75088 33.41432-72.17491 60.14577-84.20407 60.14577-10.69258 0-37.42403 18.71201-58.80919 40.09717-21.38516 22.72174-49.45318 40.09718-62.81891 40.09718-12.02915 0-40.09717 9.35601-60.14576 20.04859-21.38516 10.69258-49.45319 20.04859-61.48234 20.04859-13.36573 0-24.05831 9.356-24.05831 20.04858 0 14.7023 14.7023 20.04859 50.78976 20.04859 61.48234 0 86.87722 16.03887 80.19435 48.11661-2.67314 18.71202-17.37544 26.73145-61.48233 29.4046-37.42403 2.67314-56.13605 10.69258-56.13605 24.05831 0 10.69258 10.69258 18.71201 24.05831 18.71201 12.02915 0 34.75088 9.35601 48.11661 20.04859 14.70229 10.69258 38.7606 20.04859 54.79947 20.04859s46.78004 17.37544 68.1652 40.09717c21.38516 21.38516 48.11661 40.09718 58.80919 40.09718 12.02916 0 49.45319 26.73145 84.20407 60.14576 36.08746 33.41432 73.51149 60.14577 84.20407 60.14577s22.72174 9.35601 26.73145 20.04859c10.69258 26.73145 80.19436 26.73145 90.88694 0 4.00971-10.69258 16.03887-20.04859 26.73145-20.04859s48.11661-26.73145 84.20407-60.14577c34.75088-33.41431 72.17491-60.14576 84.20407-60.14576 10.69258 0 37.42403-18.71202 58.80919-40.09718 21.38516-22.72173 52.12633-40.09717 68.1652-40.09717 16.03888 0 40.09718-9.35601 54.79948-20.04859 13.3657-10.69258 36.0875-20.04859 49.4532-20.04859 12.0292 0 22.7217-8.01943 22.7217-18.71201 0-13.36573-18.712-21.38517-56.136-24.05831-44.1069-2.67315-58.8092-10.69258-61.4824-29.4046-6.68284-32.07774 18.712-48.11661 81.531-48.11661 34.7509 0 49.4532-5.34629 49.4532-20.04859 0-10.69258-10.6926-20.04858-22.7218-20.04858-13.3657 0-41.4337-9.35601-62.8189-20.04859-20.0486-10.69258-48.1166-20.04859-60.14577-20.04859-13.36573 0-41.43375-17.37544-62.81891-40.09718-21.38516-21.38516-48.11661-40.09717-58.80919-40.09717-12.02916 0-49.45319-26.73145-84.20407-60.14577-36.08746-33.41431-73.51149-60.14576-84.20407-60.14576s-22.72174-9.35601-26.73145-20.04859c-5.34629-10.69258-24.05831-20.04859-45.44347-20.04859s-40.09718 9.35601-45.44347 20.04859zm109.59895 76.18464c26.73145 16.03887 57.47262 38.7606 69.50177 50.78975 12.02916 10.69258 61.48234 49.45319 110.93553 85.54064 49.45318 36.08746 89.55036 70.83835 89.55036 77.52121 0 5.34629-21.38517 10.69258-46.78004 10.69258-25.39488 0-46.78004-5.34629-46.78004-10.69258 0-6.68286-40.09718-40.09717-89.55036-76.18463-49.45319-37.42403-98.90637-77.52121-109.59895-89.55036-26.73145-30.74117-56.13605-30.74117-82.8675 0-10.69258 12.02915-60.14576 52.12633-109.59895 89.55036-49.45318 36.08746-89.55036 69.50177-89.55036 76.18463 0 5.34629-21.38516 10.69258-46.78004 10.69258-25.39487 0-46.78004-5.34629-46.78004-10.69258 0-6.68286 40.09718-41.43375 89.55036-77.52121 49.45319-36.08745 98.90637-74.84806 110.93553-85.54064 32.07774-32.07774 112.27209-80.19435 132.32068-80.19435 9.35601 0 40.09717 13.36572 65.49205 29.4046zm-14.7023 160.3887c12.02916 20.04859 54.79948 48.11661 88.21379 58.80919 14.7023 5.34629 22.72173 22.72174 22.72173 45.44347s-8.01943 40.09717-22.72173 45.44346c-33.41431 10.69259-76.18463 38.76061-88.21379 57.47262-5.34629 9.35601-28.06802 17.37545-49.45318 17.37545s-44.10689-8.01944-49.45318-17.37545c-12.02916-18.71201-54.79948-46.78003-86.87722-57.47262-16.03887-5.34629-24.0583-22.72173-24.0583-45.44346s8.01943-40.09718 24.0583-45.44347c32.07774-10.69258 74.84806-38.7606 86.87722-58.80919 5.34629-8.01944 28.06802-16.03887 49.45318-16.03887s44.10689 8.01943 49.45318 16.03887zm-290.03624 155.04241c0 6.68287 40.09718 40.09718 89.55036 76.18464 49.45319 37.42403 98.90637 77.52121 109.59895 89.55036 26.73145 30.74117 56.13605 30.74117 82.8675 0 10.69258-12.02915 60.14576-52.12633 109.59895-89.55036 49.45318-36.08746 89.55036-69.50177 89.55036-76.18464 0-5.34629 21.38516-10.69258 46.78004-10.69258 25.39487 0 46.78004 5.34629 46.78004 12.02916 0 5.34629-48.11662 45.44346-106.92581 89.55036-58.80919 42.77032-106.9258 81.53092-106.9258 85.54064s-26.73145 21.38516-60.14577 40.09718l-60.14576 33.41431-60.14576-33.41431c-33.41432-18.71202-60.14577-36.08746-60.14577-40.09718s-48.11661-42.77032-106.9258-85.54064c-58.80919-44.1069-106.92581-84.20407-106.92581-89.55036 0-6.68287 21.38517-12.02916 46.78004-12.02916 25.39488 0 46.78004 5.34629 46.78004 10.69258zm179.10072-491.858686c-30.74117 30.74117-50.78975 40.09718-93.56007 40.09718-64.15549 0-80.19436 10.69258-49.45319 33.414306 34.75089 25.39488 6.68286 46.78004-62.81891 46.78004-68.1652 0-100.24294 18.71201-52.12633 30.74117 53.4629 14.70229 18.71202 42.77032-61.48233 49.45318-45.44347 4.00972-80.19436 13.36573-84.20407 22.72173-8.01944 26.73145 183.11043 24.05831 192.46644-2.67314 5.34629-10.69258 14.7023-20.04859 24.05831-20.04859 8.01943 0 34.75088-18.71201 58.80919-40.09718 24.0583-22.72173 49.45318-40.09717 56.13605-40.09717 5.34629 0 13.36572-9.35601 18.71201-20.04859 4.00972-10.69258 18.71202-20.04859 33.41431-20.04859 13.36573 0 28.06803-9.35601 33.41432-20.04859 4.00972-12.029146 24.0583-20.048576 48.11661-20.048576s44.10689 8.01943 48.11661 20.048576c5.34629 10.69258 20.04859 20.04859 33.41432 20.04859 14.70229 0 29.40459 9.35601 33.41431 20.04859 5.34629 10.69258 13.36572 20.04859 18.71201 20.04859 6.68287 0 32.07775 17.37544 56.13605 40.09717 24.05831 21.38517 50.78976 40.09718 58.80919 40.09718 9.35601 0 18.71202 9.35601 24.05831 20.04859 9.35601 26.73145 200.48593 29.40459 192.46643 2.67314-4.0097-9.356-38.7606-18.71201-84.2041-22.72173-80.19431-6.68286-114.94519-34.75089-61.48229-49.45318 48.11661-12.02916 16.03887-30.74117-52.12633-30.74117-69.50177 0-97.5698-21.38516-62.81891-46.78004 30.74117-22.721726 14.7023-33.414306-49.45319-33.414306-42.77032 0-62.8189-9.35601-93.56007-40.09718-21.38516-22.72173-49.45319-40.09718031-61.48234-40.09718031s-40.09718 17.37545031-61.48234 40.09718031z" style="stroke-width:1.33657"/></svg>