<svg height="960" style="" width="1163" xmlns="http://www.w3.org/2000/svg"><path d="m541.67349-59.999988c-2.44118.231792-5.7548.374352-5.60894.322704a120.23374 120.23374 0 01-44.54773 5.447581 117.16575 117.16575 0 00-32.1194 50.035384c11.51163 21.909121 21.92687 41.757211 31.59484 60.163659-8.51184 9.53369-17.19826 19.3066-25.17915 28.24591h-56.97585c-9.64814-9.54484-18.94237-18.75788-28.20541-27.92299v-28.245899c-30.57818-3.474361-36.63688 27.847369-56.33044 38.131829v42.93379c8.82299 16.62186 16.15019 30.44452 23.48443 44.2651-2.30894 25.89543-23.3082 41.66632-36.39682 58.2673-29.56254 37.49944-59.80851 80.50614-117.98677 77.27248-1.30467-.0742-2.92894 5.86656-4.39847 8.99838 16.14069 39.96517 55.49268 46.26167 90.42719 61.65654-16.76544 15.04552-32.94951 29.54085-42.20739 37.8494a37.807468 37.807468 0 0014.04228 47.69526c10.22929 0 20.5749.0108 30.90895 0 3.54997-2.4108 6.94397-5.0505 10.37018-7.62636l.12107-.0406a9.4991778 9.4991778 0 014.47905-2.38063c.87246-.19523 3.5473 2.4767 3.34917 3.34916-.0827.36879-.29565.58737-.40349.92805l.16135.16135a5.7828897 5.7828897 0 01-2.01763 7.70715 154.37966 154.37966 0 01-13.67907 9.84564c-.48985.28924-1.03795.41629-1.53317.68611-11.85316 13.49313-31.76881 15.88782-49.14785 25.78428 6.76444 15.1829-9.48244 19.27706-15.45458 27.5195h-47.85639c-17.20839-15.71696-17.21913-15.69423-38.2934-16.62454-1.24392 24.9116 27.61206 30.05383 42.97408 52.37573a10.175787 10.175787 0 007.1421.12107c.43488-.26693 3.69976 4.05283-5.08417 3.02646 3.04918 10.38052-8.04494 10.78463-9.88614 1.69472a9.9828242 9.9828242 0 01-.12107-2.05792c-15.96197-2.14099-23.69041-11.77362-33.41064-11.0966-7.38651 31.37606 22.25062 48.22952 23.28258 70.13037 20.96249 16.82867 43.89385 16.05681 74.24623 22.5159-36.38774 13.61482-49.22988 44.12483-78.44286 50.96364-10.73298-3.65204-18.6426-22.9669-32.96687-2.58248 5.66079 11.47881 11.78994 23.92738 17.91599 36.35653 20.83295 17.2057 45.67245 9.29361 68.27429 11.37902l10.77368 10.77367c-14.0683 14.30528-28.11057 28.58679-47.61447 48.42146-7.68091 2.97233-16.24378-18.82358-32.20019-13.51752a22.560522 22.560522 0 00-3.87372 25.744c11.05301 25.66838 42.1231 14.62653 57.58119 32.40203 14.54183-18.18828 32.05143-13.08097 48.09853-13.9615 8.98558-6.51961 15.29509-17.27449 24.53354-21.99154 13.68609 16.30059-8.98331 20.40694-1.4123 34.86344 22.67683-16.08016 62.27901-4.22204 66.17607-47.1705 10.64477 2.45749 20.59392-3.52043 28.56861 4.80175v37.64777c-2.44117-1.98974-4.86249-3.98052-7.30345-5.97192-6.68759 11.44017-13.39149 22.86505-18.52132 31.63535-21.10814 0-37.99672-.25413-54.87764.28242-2.62546.0827-5.1505 3.81524-7.34395 5.56843 9.09838 9.3899 18.22464 18.80849 29.01259 29.94062 16.0252-12.4339 24.57196 8.911 39.58441 9.3211a50.345498 50.345498 0 0134.86344-12.71055c42.89103-21.85684 46.46435-67.70944 71.01812-103.54121 23.8466 37.28208 40.87546 71.39496 38.73717 110.68332-13.80695 13.80696-25.77623 25.75804-37.72834 37.68805-12.69526 6.67105-29.1851-6.01552-40.51245 7.8685a83.64995 83.64995 0 0088.24799 24.77564c1.17513-30.52857 20.4743-55.53005 24.2914-82.35681a6.3694219 6.3694219 0 01-2.1385-2.94569c-1.52469-4.13629-2.098-8.55379-3.67207-12.67026a19.649967 19.649967 0 00-1.08939-2.09819l-.48426-.72642-.20186-.32291c-.29172-.29461-.61339-.57311-.72619-.68591a5.454192 5.454192 0 01-1.49309-3.34916 11.094322 11.094322 0 012.70356-15.13166 9.8160995 9.8160995 0 017.14209 11.01581 27.073246 27.073246 0 015.93165 10.93526c.26155.89703.46318 1.79555.68611 2.70354 6.07109 1.62386 3.1938 10.18652 4.23671 16.66504 6.10146 37.88473-22.31612 72.51676-9.56323 111.57106 11.18172 7.2215 15.97975 23.7043 32.07933 26.5915a79.397954 79.397954 0 0116.4229-48.825 6.1566258 6.1566258 0 01.16135-2.2193 101.60932 101.60932 0 0130.14246-40.14941c.83673-11.90398 1.77345-23.7214 2.94568-35.18636a119.04187 119.04187 0 0119.57022 68.47617c47.90496-12.0017 51.58674-55.69497 71.58318-89.0552 12.52459 13.9557 24.79715 27.62342 37.80891 42.12661v54.71629c-11.14577 18.48-35.52083 15.2083-42.16689 35.3477 42.59619 13.0862 73.59687-5.3996 100.27263-36.4373a383.48754 383.48754 0 00-2.86489-69.96881c-5.43519.94125-6.01843-4.37369-7.18261-9.52294-.19812-.87226 2.43663-3.50494 3.30888-3.30888 5.14905 1.16418 10.4642 1.7474 9.52294 7.18259 38.08018 34.77048 36.1677 40.98454 20.0142 87.76394 7.08942 9.3796 17.26149 3.6219 25.54235 5.2456a64.712956 64.712956 0 0032.03884-65.69183c23.51087 38.77643 56.10339 48.15223 85.90765 65.61123 45.16091-.1764 70.20266-8.7257 89.45866-31.5951-50.0608-4.5408-68.78893-13.0483-98.9816-45.71786v-76.90944c-15.21347-48.78279-64.70592-54.03679-103.9447-80.78298h86.43241c7.25718-7.2545 12.56674-12.52441 18.35976-18.31948-2.28147-20.55775 9.56736-44.86114-15.37379-60.68821-10.50739 11.93559-21.13562 23.99183-28.32669 32.15989h-45.59683a101.19985 101.19985 0 01-69.24263-72.51121c6.12337-6.75906 21.47796-15.08392 6.41591-28.68967-10.98337 12.91817-28.15002 14.10281-41.72312 23.36337-9.15064-18.80457-31.11885-6.02005-41.03722-16.05971a42.148715 42.148715 0 0112.26678-42.28817c-37.23809-9.07358-69.51534 15.05771-105.31674-4.35798-7.03157-22.84976-32.56317-31.37421-48.82493-50.39859-39.60487 3.45122-76.11511-20.77096-115.80799-11.05631-3.17583-14.57488-7.57802-25.3341 2.34035-34.58103a13.384463 13.384463 0 002.05791.12107c.28078-1.32387.66277-2.61966.88776-3.95429.10476-.6138.22932-1.24248.32291-1.85628l.0403-.20165v-.3229c.1074-1.05118.21631-2.09057.28242-3.14732a48.466488 48.466488 0 00-.0403-6.8194 5.1835484 5.1835484 0 012.30005-4.55961c-.589-5.72442 2.24697-11.16808.68591-14.08256-2.38868-10.35325-12.41737-8.71701-18.60189-11.29845a5.1389231 5.1389231 0 01-3.47023-.64561 48.154317 48.154317 0 01-5.20524-4.35778 30.923616 30.923616 0 01-3.75264-4.6404 4.2610875 4.2610875 0 01-.24214-.60534h-14.6476v-11.29843a19.477044 19.477044 0 01-6.29464-12.67026c-6.92413-3.0686-4.96517-10.82203-2.25977-21.10359h28.32647a144.94309 144.94309 0 0116.1002-7.8685c1.95937-2.26762 4.78564-4.42843 7.18259-7.62637a16.62165 16.62165 0 00-7.58608-11.58086 4.9238545 4.9238545 0 01-4.35798-2.62276c-.18718-.42932-.28098-.86007-.44377-1.29124a19.522083 19.522083 0 01-7.06153-9.56322c5.18561-5.18561 10.35904-10.36173 14.20363-14.20363l.20184.20164a77.562742 77.562742 0 0110.89475-8.31227c3.61071-2.36948 7.34931-4.56375 11.0563-6.7789 1.60713-.96067 3.2248-1.90071 4.80176-2.90539l.28242-.20184c.41568-.46238.90325-.84437 1.29125-1.33152.44025-.59728.8272-1.24517 1.25094-1.85609.0166-6.44586.0347-12.87623.0403-19.32829a89.537793 89.537793 0 01-55.20036-67.26548c2.73288-20.89286 22.11944-43.92607 34.70189-69.88824a27.105682 27.105682 0 0124.65459-16.4229 68.26665 68.26665 0 005.04389-5.40709 5.529807 5.529807 0 013.99479-1.65444 4.1113038 4.1113038 0 01.44398.0808 9.6274752 9.6274752 0 014.35777-2.21948c.45968-.10332 1.37078.57394 2.1387 1.37202a46.071395 46.071395 0 018.79655-3.14731c35.03636-8.34347 65.05239 32.71791 53.42505 64.64251a43.925046 43.925046 0 01-4.27721 23.36336 5.6372439 5.6372439 0 11-9.72478-5.68952c.19275-.33985.34873-.65987.52476-1.00882l.20163-.36298.20186-.48428.3227-.88774c.24792-.75491.38345-1.52739.56504-2.30007a3.9588344 3.9588344 0 01-.3229-1.97714 45.616878 45.616878 0 00.36319-7.02124 5.1531784 5.1531784 0 01-.20184-2.09821 69.084779 69.084779 0 00-4.31749-18.84403 134.94332 134.94332 0 01-10.81418-28.28618 40.816983 40.816983 0 00-20.98252-5.77008 43.968432 43.968432 0 00-22.59668 9.15953 28.861766 28.861766 0 0020.21584 22.8793c14.19226 5.398 25.59028 11.52033 24.89673 28.32648-8.51762 11.72506-21.75375 1.07223-33.85462 10.73339v34.01618l.12106.24192c.29998.62331.59501 1.25055.92805 1.8563a36.892444 36.892444 0 002.21927 3.5508l.48427.68611.20163.24192c.25308.30577.54315.59377.80719.88776 25.70081 7.11669 25.64462 11.7763 24.57382 44.91093-6.81774 1.58502-8.95644-20.76146-16.66504-28.40725a6.2186052 6.2186052 0 01-2.25977-.0805 26.239622 26.239622 0 01-13.27538-8.11064 5.5948854 5.5948854 0 01-7.58608-2.09821 42.029302 42.029302 0 01-3.10702-7.54578c-1.44475.0221-3.00746 0-4.68069 0a163.68257 163.68257 0 00-22.5564-56.37074 27.785183 27.785183 0 00-16.01941 6.65804c-8.80377 9.53244 2.82461 46.28275 2.82461 46.28275a131.03635 131.03635 0 0067.10391 41.92496c-5.03623 17.41498-12.58884 27.99054-26.95444 29.295a3.7927295 3.7927295 0 01-.68612.96853c-.83941.65224-1.75877 1.12948-2.62277 1.73502a24.200291 24.200291 0 01-4.9631 4.43855 4.8829481 4.8829481 0 01-2.74404.64563c-2.70788 1.61828-5.39511 3.24689-8.07014 4.92282l.12107.24212a5.7421899 5.7421899 0 01-3.95449 6.94047 11.895304 11.895304 0 00-1.57366.88775l-.40349.40348c-.14317.22293-.27973.45225-.40348.68591a12.525635 12.525635 0 00-.44398 1.65444c-.0632.75408-2.82193 7.15491-2.82462 7.90899 5.61947 5.7298 14.16313 5.89115 20.25634 12.10521a29.577835 29.577835 0 01-25.13866 24.08977 5.8353657 5.8353657 0 01-.28263.72619 6.4252034 6.4252034 0 01-3.5508 2.74403l-.76669.3227c-2.01165.86978-3.95119 1.89534-5.89135 2.90539a8.9231821 8.9231821 0 01-8.67548 4.51934c-.49583.25598-.95448.51629-1.45259.76669a6.0432035 6.0432035 0 01-7.06152-.96853c-.35122.008-.74748-.0248-1.0894 0a18.182293 18.182293 0 00-12.14569 3.38945 6.233687 6.233687 0 013.47022 5.36679l.0403.56484a11.68602 11.68602 0 00.40349 1.53338 13.88443 13.88443 0 00.96831 1.61415 26.043354 26.043354 0 003.55102 3.38945c.70718.45678 1.40569.97824 2.05792 1.49308 2.45211 1.7472 4.90403 3.4659 7.1826 5.44738a4.9472 4.9472 0 011.65422 2.98596c.0965.0248.18346.01.28263.0403a6.6691959 6.6691959 0 013.5508 2.74382l.0403.0404a31.240331 31.240331 0 004.68089 4.6807c.27519.16528.44646.44728.68591.64561h20.45796c4.79411 5.12694 9.85143 10.54829 14.97032 16.01942-3.87765 6.85534-7.93957 14.01438-12.06492 21.30544a7.0629721 7.0629721 0 01.92804 2.86489 66.441975 66.441975 0 01-1.57366 18.27919 7.5712036 7.5712036 0 011.00882 1.29124c1.21356 3.38821-.79913 5.37795-2.94568 7.38424-.16238.6578-.3192 1.32037-.48427 1.97714a5.5250552 5.5250552 0 01-3.1878 3.67207 8.137076 8.137076 0 001.37201 5.32631h111.24837c1.48048 1.01233 2.76366 2.13375 4.15613 3.18782-2.73824-6.29939-5.47154-12.61881-7.74743-19.12645a5.2108194 5.2108194 0 011.29124-5.12467 193.11105 193.11105 0 012.21928-51.04442 5.2773439 5.2773439 0 01-.28242-1.37182 174.8769 174.8769 0 012.21928-25.25992c4.52987-24.05299 17.61643-32.59934 34.50024-49.95483a4.8331579 4.8331579 0 012.46142-2.62276l.0808-.0403a4.8988561 4.8988561 0 014.47903-1.33172 140.61444 140.61444 0 0130.86867-28.44754c6.15911-3.88859 11.8073 5.90107 5.68951 9.76507a213.49526 213.49526 0 00-44.46716 45.47577 5.0393428 5.0393428 0 01-4.51934 1.49309 117.27835 117.27835 0 00-13.67906 25.82477 6.4687957 6.4687957 0 01.28262 2.46141l-.16157.48406c3.75389-1.37036 3.1029 2.52236-1.25074 4.47905-.76772 2.28146-1.6534 4.53338-2.54218 6.77911-.28636.72639-.47332 1.4811-.72641 2.21928a85.620072 85.620072 0 00-1.57366 16.86667 5.0540114 5.0540114 0 01-1.25095 3.42994 81.076358 81.076358 0 006.0932 47.17049c9.89916 14.07679 11.4974 32.07479 20.21584 46.8478a5.0102125 5.0102125 0 01.20185 5.00359c7.55983 10.38632 14.25651 20.86911 21.46679 30.46518 40.46597-26.86271 88.58331 5.86739 115.72721-12.30726 51.63385-3.9766 77.64228 24.50462 102.2097 47.65476 20.87696-20.87695 38.96256-38.96627 60.48636-60.48637 1.54391-9.79998-5.66595-26.92469 4.15615-41.40041 9.95409-2.25936 19.94127 3.68096 27.60027-4.59991-1.53833-13.16587-17.2433-1.88066-20.57904-12.02463-.52848-8.8424-1.06294-17.69824-1.53337-25.58285-8.96079-3.05745-15.50313-5.29511-24.81596-8.47363l.32272-.16135a61.860041 61.860041 0 01-23.64579-9.44236 23.677597 23.677597 0 01-9.88593-15.57544 101.7527 101.7527 0 01-.88775-11.01581c-.044-.93569-.1194-1.89162-.20185-2.82461-.0166-.2066-.13367-1.06749-.16135-1.33173-.044-.24214-.15226-.44646-.20184-.68591-2.40522 1.02659-4.77904 2.02652-7.22289 2.94567a8.4705255 8.4705255 0 01-6.21406 8.55441 74.323076 74.323076 0 01-33.08793 29.73878 91.815538 91.815538 0 01-49.51084 6.57725 42.584843 42.584843 0 01-42.44952 32.8863 55.875304 55.875304 0 01-29.94062-10.69311 99.97286 99.97286 0 01-12.34755-10.45097 78.35422 78.35422 0 01-9.72458-10.00699 47.238261 47.238261 0 01-10.85447-29.29501 9.8008111 9.8008111 0 01-3.1878 3.42974c-5.19306-3.61547-5.22797-7.31874-.16135-10.93504a5.1013223 5.1013223 0 015.08417-4.23691c.37415-1.27141.70429-2.56471 1.21066-3.83342.75387-1.89349 1.61745-3.70163 2.54198-5.48767-.96605-.80078-1.93975-1.95732-1.81579-2.5019a7.6670651 7.6670651 0 017.66686-6.73862l.16135-.24213c.83673-1.16418 1.72283-2.29303 2.62277-3.42973a8.1490587 8.1490587 0 015.56844-6.53698c2.01722-2.19614 4.09519-4.3524 6.21427-6.41591a7.8641598 7.8641598 0 015.44737-5.08418c2.70519-2.46306 5.39718-4.82675 7.98956-7.06152a7.2768011 7.2768011 0 011.12968-.64562 608.81426 608.81426 0 0145.55655-49.02657c35.49605-2.31721 69.62442-3.17335 96.76233 27.96327 0 12.75847-.44894 27.32716.24192 41.84418a9.8987387 9.8987387 0 002.09842 5.64923c2.72463-.90262 5.41164-1.92322 8.07015-3.02625l1.49307-.64562a9.0384638 9.0384638 0 014.19643-1.12989c15.3455-22.06881 41.07833-37.48104 41.52149-67.62868 58.79182-22.36853 71.37407-74.3255 85.54443-125.5728a143.97497 143.97497 0 00-51.4477-25.34073c-48.49376-18.8957-101.14345-27.6505-142.64159-64.92495a143.77808 143.77808 0 00-75.05318-33.77405c-22.95307-2.66512-43.68312-10.20203-64.76378-14.44576-.41568.0248-.83796.076-1.25075.0808a49.16355 49.16355 0 01-7.42473-.76668 26.371225 26.371225 0 01-5.97192-1.65444 17.063357 17.063357 0 01-7.54559-4.39827l-1.816-2.34034c-.98795-.370013-1.98685-.702017-2.98596-1.049105-.20082.05448-.40494.160524-.60512.201636a54.586959 54.586959 0 01-38.37418-8.957923 89.546677 89.546677 0 01-27.27736-23.968699 12.212225 12.212225 0 01-2.01743-5.32631 18.314516 18.314516 0 01-4.2774-7.1018 17.209629 17.209629 0 0111.94406-21.023023c2.63102-.593148 5.18437-1.39908 7.78771-2.098213a231.36352 231.36352 0 01-24.77566-25.905548 25.27832 25.27832 0 00-5.77008-4.963105zm164.63292 198.891028h37.32485c5.5701 8.34656 19.31363 12.05624 27.96327 25.0178l-5.20524 5.28602a28.551868 28.551868 0 01-1.29124 10.45097c-5.14078 15.36409-40.75479 28.52832-40.75479 28.52832a85.337032 85.337032 0 01-8.71576 1.21046c-1.25219.0977-28.04405-1.21046-28.04405-1.21046 2.6583-11.89654 10.61542-18.72482.44377-31.31264l-58.50922-2.78411c26.71067-11.50773 57.91174-12.08351 76.78841-35.18636zm201.35244 54.63551c6.07792.0002 11.45195 2.58971 17.95628 7.82821 1.08981 1.05468 16.25205 7.17061 20.49847 4.55962a89.217772 89.217772 0 018.59469 9.20024c-5.85912 5.27693 2.34138 19.01488-3.30868 17.87549a16.24027 16.24027 0 01-8.99838-11.0966c-.26981-1.33008-11.58809.53096-11.50007-.28242-16.5729-3.29276-37.64613 11.31724-45.47578-20.25633 9.35271-5.23809 16.15557-7.82821 22.23347-7.82821zm114.39565 145.86968c-8.7405 10.98896-19.0859 24.00154-29.1336 36.63894h-113.58851c-1.29621 2.34759-2.51719 4.69371-3.91421 6.98075a46.723005 46.723005 0 01-3.38945 4.39827 8.9019025 8.9019025 0 012.82461 3.79293 41.965463 41.965463 0 012.05793 12.83182c.099 2.1164.21258 4.22142.3227 6.33513a3.7394271 3.7394271 0 010 .56484l.12107.44398c.19523.96048.41298 1.88313.68611 2.8244l.0805.24214a11.653377 11.653377 0 00.68611 1.17017 2.3043961 2.3043961 0 00.32271.40348c.3632.36609.73673.76379 1.0896 1.12989l.56484.48426c1.04311.69893 2.0788 1.37863 3.18781 1.97714.69355.3756 1.38276.71463 2.09821 1.04911l.84726.4037c.69912.27932 1.43132.42848 2.13871.68591a5.543649 5.543649 0 012.5017-.56505c16.45182.0166 32.8739.44273 49.30919 1.08959 34.81614-6.24174 70.32331-4.27554 102.12891-17.95627-12.9328-14.39287-7.8313-32.77639-8.4736-50.07589-.2066-5.53683-.7415-10.25057-12.4686-14.84924zm-318.41135 36.63894a102.27003 102.27003 0 00-24.41247 28.08434 32.276627 32.276627 0 006.33513 37.68805 56.097191 56.097191 0 0036.31604 22.71775c11.51186.5917 29.43548-8.64118 28.81074-21.74921a6.2485621 6.2485621 0 014.55982-6.61775 7.7381349 7.7381349 0 018.91761-4.59992 75.340365 75.340365 0 0044.10375-4.96331 61.212562 61.212562 0 0027.76163-26.0669 7.5821533 7.5821533 0 01-1.69472-1.81579 61.236941 61.236941 0 01-6.093-12.5492 36.650517 36.650517 0 01-1.61394-10.12806zm-314.7798 285.32325a13.138198 13.138198 0 01-.64563 17.23009 6.0010574 6.0010574 0 01.96854 6.73861 166.14626 166.14626 0 00-8.39306 22.5159 92.329967 92.329967 0 00-3.02645 24.04947 5.6401303 5.6401303 0 01-11.25794 0c.0138-3.59956.30163-7.19066.64561-10.77389a5.5391038 5.5391038 0 01-9.76486-3.67187 53.15234 53.15234 0 015.81036-20.17555c1.38442-2.8209 2.90477-5.56782 4.35799-8.35277.75945-1.45321 1.52035-2.9149 2.21928-4.39827.31382-.66876.59665-1.34061.88775-2.01763l.0808-.12107.12106-.32271.40349-1.0491a6.7470834 6.7470834 0 011.7755-2.58248 88.721729 88.721729 0 0115.81757-17.06873z" style="stroke-width:1.2"/></svg>