<svg height="960" style="" width="1220" xmlns="http://www.w3.org/2000/svg"><path d="m1099.7624 484.14168a479.762 479.762 0 00-98.9582-292.77583l-.97593-1.2687a493.91284 493.91284 0 00-100.12934-96.22566 527.77724 527.77724 0 00-104.22819-57.774431 495.18153 495.18153 0 00-160.14837-35.425879 500.54908 500.54908 0 00-222.90001 39.719919 482.78735 482.78735 0 00-86.66165 838.802771l2.92776 1.65907 1.46388-1.56147a574.42618 574.42618 0 00-81.58687-100.32453l9.7592.58555c-2.04943-3.6109-3.70849-6.44106-5.26997-9.75919a49.967075 49.967075 0 01-7.61217-15.41953 58.555166 58.555166 0 00-21.95819-43.13564 32.59571 32.59571 0 00-4.48923-2.43979l1.65906-1.85425 10.9303 6.0507 1.85425-1.46388c-1.36629-3.90368-2.63498-7.80736-4.09886-11.61344a39.036778 39.036778 0 01-3.41572-8.88087c-1.26869-13.07732-2.14702-26.15464-3.02535-39.03677 0-3.41572.48796-7.41699-4.09886-4.78201l1.95184-21.76301a66.460114 66.460114 0 015.85551 9.17365c7.3194 16.59063 13.27251 33.86441 21.66542 49.96707 12.1014 23.22689 25.27631 45.96581 39.03677 68.31436a110.08372 110.08372 0 0019.51839 22.15337c13.27251 12.199 27.42334 23.42207 40.59825 35.71866a43.623599 43.623599 0 016.92903 13.07731 97.591944 97.591944 0 004.58682 9.7592 60.702189 60.702189 0 006.44107 7.51458c15.32193 17.07859 26.93538 37.47531 46.64895 50.84541a36.694571 36.694571 0 0026.05705 5.46515 15.029159 15.029159 0 0115.22434 5.26996 44.306743 44.306743 0 009.7592 6.24588l14.6388 9.07605v2.63499c-13.27251 6.0507-28.10649.58555-41.76937 3.70849 1.07351 6.34348 12.97973 6.63625 8.88087 16.10267a328.2993 328.2993 0 0082.4652 19.51839 78.951884 78.951884 0 01-40.79343-36.3042c4.58682-1.17111 8.10013-2.24462 11.71103-2.92776 3.6109-.68315 5.36755-1.2687 6.83143 0a60.311822 60.311822 0 0020.6895 10.34474c2.34221.48796 5.95311 1.75666 6.92903.68315a9.7591944 9.7591944 0 001.56147-7.41699 36.304203 36.304203 0 0111.41826-25.86186c4.19645-2.63498 8.29531-5.66033 13.2725-9.07605 8.19773 2.92776 7.41699 2.4398 12.88214-6.83144a23.617251 23.617251 0 0112.97972-7.31939 41.086209 41.086209 0 0110.83271 0c10.9303 0 21.95819-1.36629 32.7909-.48796a23.714843 23.714843 0 0023.32447-9.7592c10.53992 3.31813 17.76173-3.12294 24.88594-8.39291 2.24461-1.65906 2.04943-6.44107 3.12294-9.75919a54.163529 54.163529 0 012.63499-6.92903c1.65906-3.51331 3.70849-6.92903 5.46514-10.53993 1.75666-3.61091 2.4398-5.26997 4.39164-9.75919l3.22054 12.0038 2.73257.68314a47.332093 47.332093 0 0115.22435-35.62105h19.51838a9.0760508 9.0760508 0 006.83144-4.19645q9.17364-27.9113 17.17618-56.21296a22.153371 22.153371 0 000-11.71104c-3.70849-12.68695.78074-24.30039 3.12294-36.20661a65.972154 65.972154 0 01.58556 9.17364 105.69208 105.69208 0 001.1711 17.37137c0 2.04943 5.95311 5.17237 6.34348 4.8796 3.22053-3.12295 7.61217-6.63626 8.29531-10.63753 2.04943-10.9303 2.4398-22.05578 3.51331-33.18126a95.737697 95.737697 0 012.14703 14.73638v10.63753a27.716112 27.716112 0 002.73257 6.63625c1.95184-.87833 4.00127-1.65906 5.85552-2.73257a22.348555 22.348555 0 0011.12547-23.1293 20.982268 20.982268 0 01.58555-4.19645 417.69353 417.69353 0 011.17111 136.04318 77.195228 77.195228 0 0037.37772-15.61472 174.59199 174.59199 0 0014.24842-16.00508 16.688223 16.688223 0 001.75666-4.8796 24.495578 24.495578 0 011.46388-3.41571c1.26869-2.34221 2.83016-4.58683 3.90367-6.92903a12.882136 12.882136 0 000-4.09887l5.36756 2.5374 8.88087-39.03678v36.98734h2.73257l9.75919-15.22434v12.58936l2.04943 1.1711c3.12294-4.58682 6.1483-9.17364 9.7592-13.56528 1.56147-2.04942 3.90368-4.78199 5.95311-4.78199a8.2953153 8.2953153 0 009.75919-8.68569 14.05324 14.05324 0 0111.12549-13.66287 39.524738 39.524738 0 0021.27504-19.51839c12.88213-23.22689 24.69076-47.13691 36.3042-71.04694a106.08245 106.08245 0 004.19646-18.24969c3.6109-13.07733 7.31939-26.05705 11.41827-39.03678.7807-2.4398 4.0988-4.09886 4.6844-6.53866 2.2446-9.75919 6.1483-19.51839-2.4398-27.61852-.488-.48796 0-1.95184 0-2.83017a21.665412 21.665412 0 0013.6629-19.51838c0-5.85552 0-11.71104 0-17.66415h1.4638c1.9519 15.8099 3.3182 31.71738 5.8556 47.42969 2.8301 17.85932 4.9772 35.32828-7.5146 50.8454a13.467688 13.467688 0 00-2.147 6.44107 57.969615 57.969615 0 01-2.5374 18.44488c-5.4652 9.75919-5.6604 24.2028-18.93286 29.27758a3.0253503 3.0253503 0 00-1.36629 2.53739c2.53739 7.12422-2.53739 13.85806-1.75666 20.10394 1.95184 15.02916-9.75919 24.30039-13.46769 36.59698-2.04943 6.14829-5.36755 11.80863-7.90495 17.76174a62.654029 62.654029 0 01-3.6109 9.75919q-21.6654 32.79089-43.72119 65.19142a190.01152 190.01152 0 01-15.32193 18.83525c-4.97719 5.56273-10.44234 10.8327-15.90749 15.90748-8.4905 7.90495-12.88213 19.51839-25.08112 24.2028a41.574169 41.574169 0 00-12.88214 8.10013c-14.24843 12.49178-28.20408 25.27632-42.4525 37.86567a126.28397 126.28397 0 01-10.73511 7.70977l1.2687 2.24461a255.00775 255.00775 0 0024.88594-12.68695c7.80735-5.07478 14.15083-12.39417 21.95819-17.46895 14.5412-9.7592 29.27758-17.76174 44.50192-26.34983 5.07478-2.92776 10.53993-5.36756 15.8099-8.00254l.58555 1.1711-18.05452 24.39799a142.67942 142.67942 0 0017.56656-10.34474 482.49458 482.49458 0 00192.45129-385.19541z" style="stroke-width:9.7592"/></svg>