<svg height="960" style="" width="1080" xmlns="http://www.w3.org/2000/svg"><path d="m540 268.13162q-44.06862 0-82.49742 16.88947c-26.12918 11.51964-48.50849 26.81916-67.52789 45.50858l.03-.03c-18.95941 18.65942-34.28893 40.91872-44.9386 65.69795l-.50998 1.34996q-16.40949 38.4288-16.40949 82.49742v1.31996c0 29.45908 6.02981 57.5382 16.91947 83.0074l-.50998-1.37995c11.09965 26.30917 26.45917 48.71847 45.44858 67.46789l.03.03c18.9894 18.65941 41.3687 33.95894 66.05793 44.90859l1.43996.56999q38.4288 16.88947 82.49742 16.88947 44.06862 0 82.49742-16.88947c26.12918-11.51964 48.50849-26.81917 67.52789-45.50858l-.03.03c19.01941-18.77942 34.37893-41.18872 44.9686-66.14794l.50998-1.34995c10.37968-24.11925 16.40949-52.16837 16.40949-81.62745 0-.47999 0-.92997 0-1.40996v.06q0-44.06862-16.40949-82.49742c-11.15965-26.09919-26.51917-48.35849-45.44858-67.01791l-.03-.03c-18.9894-18.65941-41.36871-33.95894-66.05793-44.90859l-1.43996-.56999q-38.4288-16.88947-82.49742-16.88947zm0 43.10865q70.3178 0 119.51627 49.67845 49.19846 49.67845 49.22846 119.06628 0 70.3178-49.22846 119.51627-49.22847 49.19846-119.51627 49.22846-70.2878.03-119.51627-49.22846-49.22846-49.25846-49.22846-119.51627 0-69.38783 49.22846-119.06628 49.22847-49.67845 119.51627-49.67845zm49.67845 168.74473c-.03 27.35915-22.22931 49.52845-49.61845 49.52845-27.38915 0-49.61845-22.1993-49.61845-49.61845 0-27.41914 22.19931-49.61845 49.61845-49.61845 13.70957 0 26.09918 5.54983 35.0689 14.51955 8.96972 8.69973 14.54955 20.87935 14.54955 34.37893v.83997zm-474.34518-479.985v32.81897l270.92153 269.99157q-16.88947 13.13959-1.88994.47998 14.99953-12.6596 39.38877-26.72916l-274.67141-276.56136zm815.58451 0-275.63138 275.63139q-16.88947-11.24965.47998-.92997 17.36946 10.31967 37.97882 28.13912l270.92153-269.99157v-32.81897zm-815.58451 89.99719v31.889l228.74285 228.74285q-12.17962 17.81945-.92997.92997 11.24965-16.88947 30.92904-37.49882l-224.99297-224.063zm815.58451 0-224.99297 224.063q-14.99953-15.92951-.92997-1.88995 14.06956 14.03957 29.99907 37.49883l229.67282-227.81288v-31.889zm-390.91778 99.38689-23.42927 23.42927v33.74894c2.48992 0 5.93982-.14999 10.31968-.47998s8.75973-.47999 13.13959-.47999h12.6596l11.72964.92998-.92997-32.81898zm-374.98828 229.67282-23.42927 22.4993 24.38924 23.42927h139.67563q0-6.5698 2.33993-20.15937 2.33993-13.58958 6.08981-27.65914zm750.90653 0h-149.06534q1.88994 3.74989 4.22987 16.88948c1.52995 8.27974 2.69991 18.26943 3.2399 28.40911l.03.65998h140.6356l23.42927-23.42927zm-750.90653 74.99766-23.42927 23.42927 24.38924 23.42927h147.1754q-1.88994-3.74989-4.22987-16.88948c-1.52995-8.27974-2.69991-18.26942-3.2399-28.40911l-.03-.65998zm750.90653 0-141.56557.92997q0 6.5698-2.33993 20.15937-2.33993 13.58958-6.08981 27.65914l149.06534-1.88994 23.42927-23.42927-22.4993-22.4993zm-571.84213 116.24637-228.74285 228.74285v31.889h33.74895l224.99297-224.99297q14.99953 16.88948.92997 2.81992-14.06956-14.06956-29.99907-37.49883zm391.84776 0q12.17962-17.81945.92997-.92997-11.24965 16.88947-30.92904 36.56885l224.99297 224.99297h33.74895v-31.889zm-42.17868 46.85853q16.88947-13.13959 1.88994 0-14.99953 13.13959-39.38877 27.17915l274.67141 275.63139h33.74895v-31.889zm-307.4904.95997-270.92153 269.99157v31.889h33.74895l275.63138-274.67142q16.88948 10.31968-.47998.47999-17.36946-9.83969-37.97882-28.58911zm177.17447 55.28828c-2.99991.68997-6.5398 1.19996-10.13968 1.40995h-.15q-6.56979.47999-13.13959.47999-6.56979 0-12.6596-.47999-6.08981-.47998-11.72964-.47998l.92997 31.889 23.42927 23.42927 23.42927-24.38924z" style="stroke-width:29.9991"/></svg>