<svg height="960" style="" width="1315" xmlns="http://www.w3.org/2000/svg"><path d="m634.93604-14.046786c-16.14572 96.874328-60.85695 137.859626-105.56818 96.874328-22.35562-19.87166-24.83958-18.62968-42.22728 22.355618-9.93583 23.59759-28.56551 47.19518-42.22727 50.92112-28.56551 9.93583-78.24466-7.45187-100.60027-34.7754-18.62968-22.355618-75.76069-27.323528-75.76069-6.20989 0 7.45187 17.38769 36.01738 38.50134 62.09893 47.19518 59.61497 44.71122 99.35829-7.45188 115.50401-50.92113 17.3877-49.67915 16.14572-31.04946 52.1631 14.90375 27.32353 14.90375 36.01738-1.24199 64.58289-14.90374 28.56551-27.32352 33.53343-83.21257 37.25936-40.98529 2.48396-64.58288 9.93583-64.58288 18.62968 0 22.35562 65.82486 58.373 104.32621 58.373 48.43717 0 65.82487 45.95321 38.50134 99.35829-19.87166 37.25936-19.87166 39.74331 0 33.53342 27.32353-11.17781 80.7286 26.08155 80.7286 55.88904 0 22.35561-45.95321 99.35829-64.58289 106.81016-14.90374 6.2099-12.41979 37.25936 2.48396 45.95321 7.45187 4.96792 44.71123-12.41978 81.97059-38.50134l69.5508-47.19518 23.5976 29.80748c12.41978 17.3877 21.11363 40.9853 18.62968 53.40508-4.96792 17.38771-1.24198 21.11364 14.90374 13.66177 11.17781-4.96792 40.98529-11.17781 65.82487-14.90374 43.46925-4.96792 44.71123-3.72594 60.85695 55.88905 7.45187 32.2914 17.3877 69.5508 21.11364 80.7286 8.69385 34.7754 39.74331 26.0815 47.19518-12.4198 22.35563-109.29411 31.04948-126.68181 63.34092-126.68181 16.14572 0 33.53342 8.69385 37.25936 18.62968 12.41979 29.80753 42.22727 22.35563 42.22727-9.93583 0-29.80749 33.53342-70.79278 58.37299-70.79278 21.11364 0 90.66444 38.50133 90.66444 50.92112s40.98534 16.14572 53.40504 3.72594c8.6939-9.93583-17.3877-69.55081-38.50129-85.69653-9.93583-7.45187-14.90375-29.80749-12.41979-49.67914 2.48396-28.56551 11.17781-38.50134 34.77538-40.9853 60.8569-7.45187 67.0668-13.66176 44.7112-37.25936-22.3556-26.08155-24.8395-55.88904-7.4518-90.66444 9.9358-17.3877 26.0815-23.59759 60.8569-23.59759 31.0495 0 54.647-8.69385 68.3088-23.5976 31.0495-34.7754 14.9038-50.92112-48.4372-50.92112-44.7112 0-59.6149-6.20989-75.7607-31.04947-17.3876-27.32353-17.3876-33.53342 0-69.5508 24.8396-50.92113 26.0816-48.43717-14.9037-48.43717-65.82481 0-84.45449-52.1631-39.7433-108.05214 47.1952-59.61497 16.1458-108.052138-37.25932-59.61497-12.41979 11.1778-37.25936 21.11363-57.13102 22.35561-27.32353 2.48396-38.50134-4.96791-52.1631-32.29144-16.14572-34.775398-49.67915-43.469258-72.03476-21.11364-32.29145 32.29144-80.72861-24.839568-96.87434-115.504006-4.96791-27.323533-16.14572-45.953212-26.08155-45.953212-11.17781 0-19.87166 18.629679-24.83957 45.953212zm132.89171 186.296786c29.80749 11.17781 58.373 24.83958 64.58289 29.80749 12.41979 11.17781-24.83957 60.85695-44.71123 60.85695-6.20989 0-27.32353 12.41979-45.95321 26.08155-45.95321 33.53343-63.34091 22.35562-63.34091-38.50133 0-26.08155-6.20989-52.16311-12.41978-55.88904-17.38771-11.17781-62.09894 89.42246-62.09894 139.10161 0 57.13101-22.3556 52.1631-93.14839-22.35562-62.09894-64.58289-65.82487-88.18048-17.38771-111.77808 110.5361-53.40508 187.53878-62.09893 274.47728-27.32353zm185.05482 167.66712c37.25936 72.03476 36.01738 208.65241 0 281.92915-14.90373 28.56551-28.56551 50.92112-31.04947 50.92112-13.66176 0-95.63235-152.76337-86.9385-161.45722 6.20989-6.20989 29.80749-12.41979 53.40508-14.90374 43.46925-3.72594 67.06686-31.04947 36.01738-39.74332-119.22995-33.53342-158.97326-48.43717-157.73129-60.85695 0-19.87166 111.77808-105.56819 137.85963-106.81017 13.66177-1.24197 32.29145 18.62968 48.43717 50.92113zm-516.6631 6.20989c12.41978 26.08155 31.04946 57.13102 40.98529 68.30883 24.83958 29.80748 6.2099 49.67914-44.71123 44.71123-24.83957-1.24198-45.95321 2.48395-48.43717 9.93583-7.45187 22.35561 32.29145 54.64706 64.58289 54.64706 40.9853 0 88.18049 19.87165 95.63236 39.74331 8.69385 22.35562-106.81016 124.19787-131.64974 114.26204-37.25936-14.90375-73.27674-114.26204-72.03476-202.44252 1.24198-83.21257 31.04947-175.11899 57.13102-175.11899 7.45187 0 24.83957 21.11364 38.50134 45.95321zm258.33155 95.63236c29.80749 23.59759 27.32353 74.51871-6.20989 96.87433-24.83957 17.3877-31.04948 17.3877-55.88904 1.24198-38.50135-24.83957-38.50135-81.97059 0-100.60027 34.7754-17.3877 36.01738-17.3877 62.09893 2.48396zm119.22995 218.58824c28.56551 33.53342 50.92112 64.58289 50.92112 70.79278 0 13.66176-57.13102 39.74332-135.37567 60.85695-55.88904 14.90375-80.72862 14.90375-136.61765 3.72594-120.47193-26.08155-134.1337-63.34091-40.9853-108.05214 81.97059-38.50134 89.42246-37.25936 89.42246 27.32353 0 31.04946 4.96792 58.37299 11.17781 62.09893 13.66177 8.69385 63.34091-104.32621 63.34091-145.3115 0-63.34091 27.32353-54.64706 98.11632 28.56551z" style="stroke-width:1.24198"/></svg>