<svg height="960" style="" width="998" xmlns="http://www.w3.org/2000/svg"><path d="m391.69008 918.80599-102.08955 102.08951 29.01494 29.5524c16.11944 16.1193 31.70151 29.5521 34.9254 29.5521 3.22381 0 37.0746-31.7015 75.22381-69.8506 38.14931-38.68669 72-69.85088 74.68665-69.85088 2.68656 0 36.53726 31.16419 75.76115 69.85088 38.68656 38.6865 73.07461 69.8506 76.29852 69.8506 5.91045 0 60.71643-52.6567 60.71643-58.5672 0-9.1343-203.10449-204.71636-212.23885-204.71636-6.4477 0-51.04472 40.83574-112.2985 102.08955zm308.41793-185.37311v89.19403l23.10448-1.61196 22.56713-1.61196 1.61195-57.49253c1.61196-69.8508 1.61196-69.31344 71.46274-68.23883 26.86565.53735 51.04473-1.61197 54.26864-4.83575 2.68656-2.68656 4.29851-13.43289 3.2239-23.10449l-1.61194-18.26874-87.04483-1.61194-87.58207-1.0746zm-564.1791-64.47769c0 15.58218 2.1492 24.17917 6.98507 24.71644 3.22389.53734 26.86563 0 52.11942 0 25.25368-.53726 48.89552 1.61194 53.19403 3.76124 5.3731 3.76117 6.98506 18.80599 6.44771 58.56715-1.07461 61.25367 2.68655 67.70149 35.46275 65.01493l20.41794-1.61196 1.61184-80.05965c1.07469-54.26873-.53726-82.20897-4.83576-87.04482-4.83585-5.91046-24.71643-7.52241-88.65678-7.52241h-82.74622zm335.28358-651.223846c-8.59701 10.208955-29.01494 34.388061-45.13437 54.805971-33.85068 41.910505-65.55217 80.059705-82.74621 99.403025-6.4478 7.5223-19.88058 24.17908-30.08955 37.61184-10.20896 13.43289-43.5224 53.73139-73.61195 89.73137-51.04483 60.71645-63.94035 82.20897-49.97023 82.20897 3.22391 0 9.67172-2.1492 15.04484-4.83585 29.55218-15.58207 81.13436-38.14919 95.10448-41.37311l15.58207-3.76116-10.20897 15.58208c-5.3731 8.59702-34.38804 44.59701-64.47758 80.05965-30.08956 35.46276-63.94035 77.37322-75.22393 92.95529-11.82091 15.04472-23.10446 27.94025-25.25366 27.94025-2.14932 0-4.29852 3.22388-4.29852 7.5224 0 4.29851-3.76125 8.59701-8.05977 10.74632-8.05965 3.2238-11.28355 13.97012-3.76114 13.97012 4.83585 0 18.80598-12.35817 115.52241-105.8507 43.52241-42.44781 81.67161-75.76126 84.89553-74.14931 2.68655 2.14931 4.83575 38.68656 4.83575 83.82092v80.05966h13.43288c9.67161 0 16.65676-5.91046 27.40299-24.17908 7.52241-13.43287 17.19401-24.17908 21.49252-24.17908 15.58206 0 18.80597 28.47758 17.73137 157.97012-.53734 94.02988.53725 129.49252 5.37312 131.10448 3.22389 1.0746 24.17908-16.65667 46.20896-40.29851l39.76115-41.91045 47.82091 47.28356c25.79104 25.79103 48.89553 45.13436 51.04483 43.52241 2.1492-2.1492 3.76114-69.85069 3.76114-150.98506 0-108 1.61197-146.68655 6.44783-146.68655 6.4477 0 41.91045 37.61195 41.91045 44.05966 0 2.68656 4.83576 4.2985 10.74622 4.2985 10.20896 0 10.74631-3.76114 10.74631-83.28355 0-45.67163 2.1492-83.28358 4.83575-83.28358 5.91047 0 29.01494 18.26863 59.10448 47.82092 113.91047 111.2238 134.86575 130.56713 140.23886 128.41782 5.37311-1.61184-20.41793-40.29851-42.4478-63.40288-4.83576-4.83586-22.02979-25.25379-38.14921-45.13437-16.11942-20.41792-34.92541-41.91045-40.83587-48.89551-6.44771-6.98506-19.88057-23.64184-29.55218-37.07461-9.67172-13.43286-19.34334-24.71643-22.02989-24.71643-2.1493 0-4.2985-3.22391-4.2985-7.52241s-3.22392-8.597-6.44781-10.20896c-3.76116-1.0746-5.37311-3.76116-3.2238-5.91046 3.2238-3.76116 22.02978 3.76126 94.02978 37.61195 27.40298 12.89551 39.22389 15.58207 39.22389 9.67161 0-6.44771-13.43286-27.40298-29.01493-45.6716-19.34322-22.02988-30.08954-35.46267-59.64174-72-33.31344-41.37312-104.23884-127.34335-117.67172-142.38805-6.44771-7.52241-19.88056-24.179118-30.08953-37.611954-49.97012-65.014926-66.08955-80.597016-83.82082-80.597016-12.89551 0-20.95527 4.298509-32.23884 17.731344z" style="stroke-width:.537314"/></svg>