<svg height="960" style="" width="2437" xmlns="http://www.w3.org/2000/svg"><path d="m1845.4 883.39684c4.258 4.1931 8.6556 6.7897 9.7407 5.8792 1.3021-1.0926-.7085-5.6922-4.0984-10.6136-4.6297-6.8396-6.7375-8.0294-9.5586-5.6622s-2.0154 4.6496 3.9163 10.3966zm-67.0746-23.9654c.2245 2.0305-1.1822 4.3203-3.4646 5.126-3.9486 1.4644-6.2708 11.9183-3.1752 15.6075 2.7314 3.2552 10.0673-4.7494 9.1418-10.2595-.8481-4.0959.2719-5.4054 5.5999-6.5479 11.2721-2.4322 30.8304-21.4322 26.8244-26.2064-1.2746-1.5191-4.8242-.02-27.7725 14.0587-4.0533 2.6616-7.3783 6.1912-7.1538 8.2216zm-57.665 33.9644c1.7086 1.1548 4.9015 1.4342 6.7847.5935 2.2824-.8056 2.422-2.4021.3142-3.5919-1.7086-1.1549-4.9014-1.4342-6.7847-.5936-2.2824.8057-2.4221 2.4022-.3142 3.592zm-40.5641-14.4072c1.5615.5388 4.4251-.015 6.1612-1.4718 1.7361-1.4567 2.7787-4.1806 2.5193-5.812-.2246-2.0304-2.9061-1.2596-6.1612 1.4718-3.2552 2.7314-4.4799 5.2383-2.5193 5.812zm239.4831-347.023c4.9514 5.4602 5.5326 5.7121 4.5722.6011-.8133-4.4949-2.2708-6.2307-5.4628-6.5103-3.1928-.2794-2.9334 1.3519.8906 5.9092zm-22.6292 1.2375c-.1047 1.1973 1.4293 4.3477 3.2503 6.5178s2.3049 5.8319 1.1151 7.9396c-1.2247 2.5069.2046 6.8546 4.0286 11.4118 4.3702 5.2083 5.1061 8.2889 2.719 10.2919s-1.5814 4.2854 1.9482 7.6103c7.0592 6.65 11.5117 4.0234 6.5527-3.6493-2.1153-3.4023-3.1106-8.1143-2.1028-10.439 1.0076-2.3248-.7858-7.1066-3.5173-10.3617-2.9135-3.4722-4.6721-8.653-4.2105-11.6289.4614-2.9758-.023-6.6375-1.4794-8.3736-2.7314-3.2552-7.9896-2.9109-8.3038.6811zm-451.3612-21.3919c1.9058 5.797 9.3915 9.8702 10.7559 5.7669s-7.194-14.3027-10.0151-11.9355c-1.3021 1.0925-1.5465 3.8862-.7408 6.1686zm-21.407-12.7312c2.053 6.4131 8.698 8.6031 9.152 3.4148.2444-2.7938-1.3945-4.7468-5.2807-6.2933-5.2657-1.8683-5.4828-1.6862-3.8713 2.8785zm8.8324-15.9168c2.8163 6.882 12.3051 13.3424 13.6694 9.2391.9304-3.7391-5.7721-12.1676-11.6539-13.8887-3.5221-1.1124-3.8089-.1321-2.0155 4.6496zm-1312.22179-436.933499c-2.3421 15.2782.048 56.909699 4.588 69.371599.7708 2.6815 3.0708 17.7626 4.9018 33.6069 1.8311 15.8444 4.867 34.0061 6.7029 40.6013 1.836 6.5951 4.2257 16.0538 5.4381 20.5836 1.1774 4.929 3.8814 10.7957 5.7023 12.9658 2.003 2.3871 4.3777 7.4208 5.0438 11.2996.883 3.6967 4.0286 11.4118 7.1666 16.9144 3.355 5.3205 8.5385 15.0237 11.7887 21.5415 3.2503 6.5178 10.6962 20.2394 16.209 30.7757 5.7297 10.3541 14.2333 25.7769 18.7233 34.2129 5.842 11.3693 32.46999 44.8663 97.37259 123.5363 75.1347 90.4235 91.9572 109.5902 105.1576 119.5926 10.0001 7.5106 24.7422 22.8758 41.4948 42.8408 14.3854 17.1438 30.0379 33.5942 34.7997 36.6248 4.5448 3.2128 13.0533 9.3863 18.4737 14.0832 5.6373 4.5148 14.3628 10.5062 19.1246 13.5368 4.9789 2.8486 13.193 7.7899 18.1718 10.6384 4.9789 2.8486 13.193 7.7899 18.1719 10.6384 4.7618 3.0307 12.7589 8.154 17.0867 11.5489 4.3278 3.3948 11.5616 8.0493 15.7422 10.828 4.2156 2.3796 14.2856 9.0919 22.4647 14.4323 22.7591 15.6645 33.515 21.4315 71.7344 39.6551 19.8729 9.5807 31.427 15.4175 48.5761 23.9556 5.1958 2.6664 13.2977 6.5925 17.7652 8.391 4.6495 2.0154 9.4114 5.046 10.686 6.5651 1.2747 1.5191 6.0365 4.5497 10.6861 6.5651 14.3478 6.0812 26.8124 13.003 42.2254 22.9979 23.1931 15.3003 49.5215 24.6416 103.8995 37.4422 14.5922 3.2874 27.1541 6.7994 27.7003 7.4504.5463.6511 13.1081 4.163 27.7004 7.4505 14.5922 3.2874 32.4197 8.6676 39.7932 11.7256 22.8488 10.0422 43.687 15.4848 71.9187 19.1612 8.7453 1.1673 21.2373 5.4774 28.6881 9.9499 11.2324 7.2161 18.7455 8.6777 54.3705 10.588 59.6759 2.8081 98.1221 2.3511 179.4244-3.0027 39.4538-2.7817 46.5603-3.5675 56.2011-5.7403 3.4797-.701 10.8381-2.068 16.3134-2.5943 5.6921-.7085 12.0354-1.9632 14.4999-2.5519 2.2823-.8057 6.5951-1.8359 9.2417-2.2076 2.6465-.3717 6.9593-1.4019 9.2417-2.2077 2.2823-.8057 9.5285-3.1879 15.7595-5.4579 6.4131-2.0529 15.5425-5.2758 20.2894-6.6702 22.7188-6.8599 69.3738-25.299 83.3124-32.927 2.7512-1.5691 9.304-5.2184 14.4075-8.3913 10.1721-5.9467 15.6199-3.8615 7.1565 3.2402-3.0381 2.5493-4.6969 5.4203-3.6043 6.7224 2.7314 3.2552 10.2145-4.1334 12.9433-12.3399 1.3993-4.5024 11.6261-15.6724 29.5258-31.8014 22.5266-20.7511 26.1809-23.4476 21.7085-15.9968-2.8485 4.9788-6.2009 11.1201-6.8445 13.8789-.8256 2.5418-8.4483 11.5267-16.7995 19.6436-8.3511 8.1168-14.6369 15.61-13.5444 16.9121.9105 1.085 8.4435-2.2775 16.5503-7.6006 12.5941-8.3489 16.3257-9.6311 26.8495-8.1071 12.1204 1.6636 12.3374 1.4815 34.6196-16.4759 12.7338-9.9453 24.4947-17.9649 26.8894-17.7554 6.7847.5936 5.6175 9.3389-3.5518 22.2101-15.3777 21.7788-15.3428 21.3797-5.0236 16.049 5.2857-2.9559 13.2951-4.8692 17.6853-4.4851 9.9776.873 26.9818-11.916 22.6115-17.1243-2.1851-2.6041.5238-5.9865 13.5444-16.9121 8.8974-7.4658 16.64-13.223 17.1862-12.572.5463.6511-.6011 4.5722-2.7637 8.6057-3.4222 6.9395-2.1551 6.246 15.3954-5.8919 10.5288-7.7253 21.0999-13.6371 23.0954-13.4625 4.7893.419 4.0087 16.236-.9825 20.4241-3.6892 3.0956-3.497 16.9869.312 17.1191 1.1973.1047 6.5377-8.0745 12.0177-17.8501 10.7083-18.97 19.5982-28.6483 24.8639-26.7801 1.7436.7558 1.4643 3.9486-.6983 7.9821-3.3175 5.7421-2.659 7.4083 2.6142 11.4891 9.636 7.0765 13.6969 6.6275 9.9701-1.3396-2.2275-4.4175-1.9133-8.0095.9079-10.3766 2.3871-2.0031 5.3828-6.3658 6.7123-10.07 3.0929-7.7726 17.3308-23.4176 57.1334-62.3631 24.6194-23.9863 31.0948-29.05 39.7903-31.9087 16.7747-5.5702 29.2716-10.5092 40.424-16.1691 5.6497-2.522 12.0977-4.974 14.1282-5.1985 1.9955.1746 7.2112-1.9832 11.2297-4.2456 4.0533-2.6615 11.1873-6.059 15.752-7.6705 8.1142-3.1105 25.0636-10.6762 53.7814-24.049 26.4355-12.5671 37.1538-17.8628 47.074-23.2283 10.9703-5.877 29.9076-15.4806 47.0739-23.2284 5.6847-2.921 15.3879-8.1045 21.5416-11.7888 6.1536-3.6842 16.2907-9.2319 22.8086-12.4821 36.6075-18.5139 48.8798-25.4834 57.9943-33.1313 10.4165-8.7405 12.9282-16.7649 4.163-13.1081-7.4981 2.9634-31.9182 10.881-50.4714 16.0945-8.8776 2.6416-20.8357 6.0192-26.1986 7.5607-5.3629 1.5417-12.9658 5.7024-17.089 9.1621-3.9062 3.2777-10.893 7.2913-15.4577 8.9027-4.3477 1.4293-13.1479 5.4853-19.3015 9.1696-6.3358 3.4672-16.655 8.7979-23.1729 12.0482-40.5212 19.5789-94.7715 44.3913-108.2836 49.4426-4.3827 1.8285-12.5318 5.3381-17.3834 7.9299-9.6682 4.7843-20.7158 9.2469-41.8383 16.2464-11.4118 4.0286-13.5894 3.637-19.7032-2.327-7.0244-7.0491-16.6156-33.0231-14.4257-39.6682.8605-2.9409-.2321-4.2429-4.9166-5.8592-3.7042-1.3295-5.9591-3.1355-5.3854-5.0961.5388-1.5615 3.3674-1.7161 6.3083-.8556 4.2854 1.5814 5.3355 1.07 5.8668-2.704.3491-3.991-1.1076-5.7271-7.1016-8.4634-8.1019-3.9261-10.0426-9.3239-2.4172-6.8471 3.9212 1.1474 4.3552.7832 2.9259-3.5645-.9878-2.4994-4.0485-6.5876-6.7026-8.4285-3.4173-2.3098-5.6174-9.339-6.6352-20.6884-1.9858-18.6731-5.271-24.7918-13.722-24.7268-6.6376.022-8.5058 5.2882-3.4072 11.3645 7.0667 8.8625 3.2006 34.6646-4.8238 32.1528-1.7436-.7558-3.9261 8.1018-4.9736 20.075-4.3373 47.2763-7.1332 67.7428-9.5279 67.5333-1.1973-.1047-1.4443-8.7727-.7186-19.3664 2.9256-35.7373 3.3768-52.3874 1.6182-57.5682-.9878-2.4994-.7084-5.6922.5936-6.7848 1.0851-.9105.7134-3.557-1.2897-5.9441-1.8209-2.1701-2.8511-6.4829-2.3897-9.4588.4615-2.9758-1.2971-8.1566-4.0285-11.4118-2.7314-3.2551-4.4901-8.436-4.0286-11.4118.4614-2.9758-.3868-7.0716-2.2077-9.2417s-4.6721-8.653-6.3958-14.2329c-4.8418-15.9068-25.7401-39.0495-43.7647-49.0718s-18.0096-5.5972-.9277 15.2009c8.3413 10.3815 10.8632 16.0313 12.9387 29.082 1.2623 8.5557 2.9585 16.7473 3.6869 17.6154 1.821 2.1701-.01 29.9601-3.1549 42.956-5.2879 23.6669-9.6529 41.3821-11.4163 45.4505-10.6583 22.996-11.6109 52.2702-2.3241 63.3377 8.7405 10.4165 5.69 20.0025-5.2056 15.832-3.0881-1.4766-15.4629-14.0208-27.4811-28.3435-14.7496-17.5778-25.3035-27.9519-32.7543-32.4243-7.8499-4.5073-18.551-15.4975-36.7603-37.1985-29.5341-34.7566-39.5342-42.2671-71.0859-51.6631-25.2708-7.6401-36.0267-13.407-49.312-27.0362-6.1138-5.964-13.2778-11.4167-16.0366-12.0602-2.9759-.4615-15.0563-11.7734-28.2718-26.2008-23.6646-25.9989-33.111-30.6458-19.0747-9.511 10.8283 16.4305 19.6912 41.5365 23.6176 65.6074 3.3727 21.2073 7.9554 67.6554 7.2571 75.6374-.621 9.3964-3.996 8.9001-6.1338-1.1399-1.9906-9.4238-26.4287-49.5658-39.9036-65.6246-7.1016-8.4634-18.4537-18.9072-25.1063-23.3098-6.6526-4.4025-14.1807-10.2892-16.7301-13.3273-2.5493-3.0382-6.912-6.0339-9.4538-6.8595-4.1033-1.3644-4.5723-.6012-4.2978 5.4553.3093 5.6572-.1596 6.4205-2.5617 3.9985-1.6389-1.9531-2.7389-5.4677-2.5294-7.8623.4539-5.1884-13.1956-19.2516-16.9621-17.5703-1.2672.6934-.202 4.6071 2.6417 8.8775 2.6615 4.0534 4.5673 9.8503 3.9238 12.6091-.9229 5.9517 5.1635 14.5273 11.1501 15.0511 5.9866.5237 37.1369 30.5958 45.416 43.9881 11.4869 18.0967 31.5828 114.7643 25.0725 120.2271-2.8211 2.3672-19.6161-19.4111-33.0787-42.5066-23.7522-41.0874-42.3804-57.9992-92.8124-83.7259-5.0138-2.4494-13.0807-6.7746-17.6953-9.1891-5.0138-2.4494-13.4798-6.8095-18.6757-9.476-5.4129-2.4844-14.8243-7.5304-21.1476-11.0998-6.1413-3.3524-16.316-8.8674-22.4572-12.2198-8.2839-4.1431-16.6527-11.9131-30.1276-27.9718-18.0272-21.4841-18.7207-22.7512-19.7885-38.1267-1.0452-8.7378-2.1603-16.6774-3.0708-17.7625-.9105-1.085.3266-10.6286 2.8658-21.2648 5.5049-23.8489 6.5599-33.6095 3.8285-36.8646-1.0925-1.3021-3.3749-.4964-4.7817 1.7935-17.9668 28.3889-26.8864 61.3899-19.2734 70.9034 2.5493 3.0381.746 16.7548-3.901 26.2011-1.0077 2.3248-3.1628 8.5708-4.8489 14.0535-1.4692 5.3007-3.8413 11.7287-4.849 14.0535-11.6311 24.9216-11.1892 58.9427 1.0411 82.3325 5.5128 10.5363.9829 11.7486-9.2417 2.2077-29.3643-27.5029-52.9865-51.6883-68.4645-70.1342-16.9346-20.182-28.5736-29.6456-51.1006-41.0672-4.6147-2.4145-13.4449-7.2086-20.1673-10.8129-29.5089-16.6573-58.1622-27.0062-87.7034-31.8026-23.5895-3.8735-56.4508-14.3895-60.639-19.3808-1.4567-1.736-6.5827-5.2007-11.5965-7.6502-5.0137-2.4494-15.4827-9.1966-23.228-14.9012-33.2705-24.2252-37.9974-27.6549-44.1462-33.2198-3.5296-3.325-8.8377-7.0068-11.9258-8.4833-3.088-1.4767-9.8105-5.081-15.0063-7.7475-5.378-2.8834-19.7532-6.353-31.8735-8.0166-31.2075-4.1379-62.7592-13.5339-68.9503-20.9122-3.824-4.5573-9.0747-2.0005-10.1023 5.1485-.5313 3.774-2.0777 7.6603-3.5968 8.935-1.5191 1.2746-4.3327 5.8544-5.9141 10.1397-1.7984 4.4675-6.0812 14.3479-9.6081 22.4847-3.31 7.9546-8.6354 20.5588-11.4765 27.7502-7.3408 17.2538-14.1222 92.4674-9.7643 104.7124 2.2708 6.2306-3.4921 7.7376-8.2266 2.0953-1.8209-2.17-4.3428-7.8198-5.5202-12.7488-1.2123-4.5298-3.6719-13.1903-5.3956-18.7702-5.1361-17.139-14.296-54.9389-17.9206-75.565-2.1029-10.4391-4.802-25.555-6.5332-33.3476-1.5142-7.9745-3.7293-19.4287-4.802-25.555-2.3698-14.2828-11.2353-50.8506-16.112-66.3582-4.7645-14.4924-37.1347-51.3068-56.182-63.4294-7.0517-4.4374-15.9942-10.2468-19.9927-12.8084-31.2601-19.6256-33.8792-21.8655-59.9185-52.898-22.3975-26.6923-27.0197-31.3193-29.8408-28.9521-1.7361 1.4567-1.9805 4.2504-.5238 5.9865 7.8301 9.3315 5.1091 51.9233-8.7837 137.1719-2.6289 16.2585-4.7814 33.9662-4.8362 39.1895-.09 5.6224-1.4466 11.9382-3.2875 14.5923-10.0721 13.9986-9.2845-31.7785 1.972-102.9812 6.2854-39.6659 9.5177-81.2076 6.6042-84.6798-1.2747-1.5191-1.2124-4.5298-.2046-6.8546 1.1898-2.1077 1.07-5.3355-.5688-7.2886-1.4568-1.7361-4.2505-1.9805-5.9866-.5237-1.7361 1.4567-2.3447 3.8164-1.4342 4.9015 2.1851 2.6041-.092 26.3333-4.225 48.2915-6.0635 30.2346-12.6508 66.4558-14.272 80.3895-1.0975 7.9472-2.6015 13.6469-3.512 12.5619-2.3672-2.8212-5.7947-18.8052-4.8992-22.1452.5387-1.5615.8628-23.6519.8849-49.187.022-25.5352.3312-52.0506.5606-59.2693.8504-16.6153-6.0395-48.184199-11.6844-54.911499-2.5493-3.0382-8.2565-6.7548-12.6891-8.9523-4.4675-1.7984-10.2445-4.7168-12.7164-6.3406-4.944-3.2477-10.2919 2.719-12.649 13.5721-4.9161 26.3135-19.65 77.506099-23.1221 80.419599-4.1232 3.4598-6.0166-9.3739-4.2708-29.329 1.2221-13.9687-6.8005-69.364099-10.6244-73.921299-.9105-1.0851-5.6648-1.9032-10.706-1.741s-10.3418-1.3069-11.9806-3.2601c-2.5493-3.0381-25.9718-11.1197-31.8112-11.0273-1.4143.077-10.02-2.6864-19.389-5.919s-22.6941-7.2135-29.409-8.6053-14.5224-4.0857-17.5756-5.9615c-2.8361-2.0578-8.64059-2.3645002-12.95339-1.3343-5.5799 1.7237-8.5209.8632-10.2021-2.9033002-3.2503-6.5179-16.8623-9.5185-33.5397-7.35809999-10.5862 1.48669999-15.4378 4.07849999-28.4584 15.00410019-15.4078 12.9286-16.0937 13.874-18.7576 30.5316zm1212.94829 512.098299c4.6919 3.8288 12.8163 14.3925 18.4338 23.7314 5.2184 9.3041 15.9694 24.3202 23.7994 33.6517 7.4309 9.2965 15.7798 21.8906 18.0498 28.1216 2.4171 6.847 11.4944 20.3092 22.9313 34.38 25.4582 30.7805 28.2819 39.8751 5.1711 16.7398-11.8286-11.8931-22.138-25.0609-30.7813-38.8873-7.0044-11.8732-26.3911-38.5031-42.4578-59.4135-16.2487-21.1274-29.4019-38.5655-29.766-38.9996.035-.3991 1.5889-2.0728 3.325-3.5296 1.736-1.4567 6.4205.1596 11.2947 4.2055zm158.3738 196.2348c16.4234 19.1318 21.2775 28.0018 14.0513 25.5599-5.0836-1.6512-33.9242-35.1407-38.3095-44.774l-3.0332-6.6999 6.0714 4.1506c3.4173 2.3098 12.8088 12.18 21.22 21.7634zm144.9007-118.6276c1.6388 1.9531 1.7586 5.1808.5687 7.2886-1.0076 2.3248-.7058 5.7695 1.1152 7.9396 1.8209 2.1701 2.8861 6.0839 2.4246 9.0596-.6435 2.7589 1.0802 8.3388 3.7417 12.3922 2.8437 4.2703 4.056 8.8002 3.3002 10.5437-3.0306 4.7619-15.161-10.576-13.7692-17.291.4614-2.9758-.023-6.6375-1.4793-8.3736-1.2747-1.5191-1.7936-4.7818-1.0029-6.9244 1.0078-2.3248.5587-6.3857-.3942-9.2842-2.0879-6.0139 1.6712-9.9077 5.4951-5.3505z" style="stroke-width:.283287"/></svg>