<svg height="960" style="" width="1320" xmlns="http://www.w3.org/2000/svg"><path d="m659.92676-120s-32.64727 128.43867-67.82227 139.01367c-79.59649 11.91899-150.45885 42.46832-210.20507 87.08497-32.4375 17.2875-146.19141-50.39063-146.19141-50.39063s67.60313 113.75391 50.39063 146.19141c-44.25 58.79998-75.12949 130.12734-86.79199 207.71484l-.29298 2.56347c-10.575 35.175-139.01367 67.82227-139.01367 67.82227s128.43867 32.64728 139.01367 67.82228c12 80.1375 42.85137 151.4502 87.96388 211.4502l-.87891-1.17188c17.2875 32.4375-50.39063 146.1182-50.39063 146.1182s113.75391-67.60317 146.19141-50.39067c58.79998 44.24997 130.0541 75.16527 207.6416 86.86527l2.56347.2929c35.175 10.5375 67.89551 139.0137 67.89551 139.0137s32.64728-128.5137 67.82227-139.0137c80.13751-12 151.37697-42.8513 211.37697-87.96383l-1.17188.87889c32.4375-17.2875 146.19144 50.39064 146.19144 50.39064s-67.6032-113.7914-50.3907-146.1914c44.25-58.8 75.092-130.12736 86.792-207.71486l.3662-2.56346c10.5375-35.175 139.0137-67.82228 139.0137-67.82228s-128.5137-32.64727-139.0137-67.82227l-.073-.0732c-11.9192-79.59654-42.4686-150.4589-87.0852-210.20512-17.2875-32.4375 50.3906-146.19141 50.3906-146.19141s-113.86459 67.60313-146.26462 50.39063c-58.8-44.25001-130.09159-75.12949-207.64159-86.79199l-2.56347-.29298c-35.175-10.57499-67.82227-139.01366-67.82227-139.01366zm0 192.48048c89.1141 0 171.4467 28.65411 238.40333 77.27051 35.7375 12.3375 143.40821-51.56252 143.40821-51.56252s-63.9 107.41173-51.5625 143.26173c35.9625 49.0125 61.4238 107.88866 71.9238 171.82616l.293 2.34375c17.7 33.75 137.5488 64.16018 137.5488 64.16018s-119.8845 30.62989-137.622 64.37988h.073c-10.7552 65.79616-35.9898 124.28115-72.29009 174.16992-12.33754 35.7375 51.63579 143.40821 51.63579 143.40821s-107.67076-63.9-143.40826-51.5625c-66.0375 48.3375-148.85157 77.3437-238.47657 77.3437-89.1141 0-171.4467-28.7269-238.40332-77.3437-35.8125-12.3375-143.4082 51.5625-143.4082 51.5625s63.975-107.67071 51.5625-143.40821c-35.925-49.0125-61.35059-107.88867-71.85059-171.82617l-.29297-2.34375c-17.73725-33.74999-137.54858-64.16017-137.54858-64.16017s119.77383-30.55841 137.54883-64.23341c10.75515-65.79615 35.95316-124.28115 72.2168-174.1699 12.3375-35.7375-51.63574-143.40822-51.63574-143.40822s107.6707 63.97502 143.4082 51.56252c66.0375-48.3375 148.85156-77.27051 238.47656-77.27051zm-.0732 14.86816c-216.45 0-392.50488 176.05488-392.50488 392.50489 0 216.45 176.05488 392.57812 392.50488 392.57812s392.57814-176.12812 392.57814-392.57812-176.12814-392.50489-392.57814-392.50489zm0 9.8877c211.0125 0 382.69044 171.67792 382.69044 382.69042s-171.67794 382.69043-382.69044 382.69043-382.61718-171.67793-382.61718-382.69043 171.60468-382.69042 382.61718-382.69042zm-200.75688 154.83397-64.89257 90.82031v94.04299l64.89257 264.33105 68.11526-265.94238v-92.43165zm205.07812 0-64.81931 90.82031v94.04299l64.81931 264.33105 68.11526-265.94238v-92.43165zm205.22464 0-64.89259 90.82031v94.04299l64.89259 264.33105 68.04198-265.94238v-92.43165zm-308.12989 184.8633-72.94924 269.97068h140.18554zm205.07812 0-72.94923 269.97068h140.25877z" style="stroke-width:37.5"/></svg>