<svg height="960" style="" width="1246" xmlns="http://www.w3.org/2000/svg"><path d="m326.53668-29.99995a548.71785 551.23107 0 00-51.2362 35.1735c.8998 2.2258 1.7308 6.182 3.044 13.1584 3.0159 16.5872 2.8483 27.9804-1.0053 44.4001-1.843 8.2098-1.6754 11.0581 1.0053 22.6189 1.6755 7.3721 3.6861 14.7442 4.5238 16.2521.6702 1.5079 2.5132 8.7124 3.8536 15.7494 2.5132 13.0687 2.0106 22.4514-2.5132 44.2326-3.351 16.4196-3.5185 21.446-1.0053 33.677 1.5079 6.7019 2.6808 14.5766 2.6808 17.4249 0 2.6808 1.1728 8.2099 2.5132 12.0634 1.6754 4.6914 2.0105 8.3774 1.0053 10.8906-1.3404 3.5185-1.508 3.1834-2.6808-2.8483-.6702-3.686-2.3457-8.2098-3.5185-10.0528-1.3404-1.843-2.3457-5.3615-2.3457-8.0423 0-2.5132-1.1728-7.3721-2.8483-10.8906-3.8536-8.88-3.8536-53.6152.1676-62.6627 1.5079-3.5185 2.6807-8.2098 2.6807-10.7231 0-4.5237-3.5185-18.2626-7.5396-29.1532-4.5238-12.0634-6.1993-21.7812-5.194-29.6559 2.8483-24.2944 3.0159-44.065.3351-52.2748-.8833-2.7538-1.5405-5.1525-1.9726-7.2023a548.71785 551.23107 0 00-47.9539 43.5859c-.064 1.9409-.4719 4.6098-1.1755 8.0165-2.8483 14.409-2.3456 21.6136 2.5133 31.3313 2.3456 4.6914 6.5343 17.425 9.2151 27.9805 4.5238 17.76 4.8589 19.9381 2.8483 27.6453-3.0159 12.0634-2.6808 37.028.6702 46.0755 3.3509 9.2151 8.0422 30.1586 8.0422 36.0227 0 2.5132 1.0053 6.5344 2.3457 8.88 1.3404 2.5133 4.5238 9.0476 6.8695 14.5767 16.2521 36.5253 21.1109 46.5782 27.3102 56.1284 3.3509 5.0264 7.037 9.8853 8.2098 10.5554 3.5185 2.1782 2.5132 4.0212-4.0211 7.5397-22.4514 11.7283-59.1443 42.7246-78.7473 66.6839-7.037 8.5449-18.7653 25.9698-28.4831 41.7193-6.0317 9.7177-14.2415 29.4883-21.2785 50.2642-8.7125 25.4672-11.0581 30.6612-17.2574 39.0386-4.6913 6.3668-4.0211 12.0634 1.6755 12.0634 2.0105 0 4.8588.8377 6.1992 1.843 1.843 1.3404.6702 1.5079-4.1887.6702-3.686-.5027-9.5502-1.3404-12.9011-1.843-5.8642-1.0053-6.3668-.6702-6.3668 3.1834 0 3.0158 1.6755 5.1939 5.6966 7.7071 4.8589 3.1834 8.2098 3.5185 27.9804 3.5185 12.3985 0 26.9752-.8377 32.5042-1.843 9.7178-1.6755 25.1321-3.686 47.9186-5.8641 10.5555-1.0053 11.2257-.8378 12.3985 2.5132.8377 2.6807.1676 4.8588-2.5132 7.7072-4.0211 4.3562-4.0211 10.2203.3351 24.6294 2.3457 8.0423 4.6913 8.0423 8.88 0 8.88-17.0898 23.2891-32.1691 43.8974-45.5729 12.3985-8.2098 48.7563-26.8076 52.7775-26.9751 1.1728 0 6.3668-2.0106 11.3932-4.5238l9.2151-4.5238.8378-11.7283c1.3403-17.4249 6.7018-25.4672 21.446-31.834 7.5397-3.1834 8.3774-3.0159 26.305 5.194 9.7177 4.3562 26.8076 6.5343 36.1902 4.3562 16.9223-4.0211 28.3155-1.6755 28.3155 5.6966 0 1.1728 2.0106 2.8483 4.3563 3.351 3.686 1.0052 4.0211 1.3403 1.6754 2.6807-1.843 1.0053-5.0264.1676-10.5554-3.0158-7.5397-4.1887-8.545-4.3563-16.2521-2.3457-11.8959 3.0158-30.6612 2.6808-34.3473-.6702-1.6754-1.5079-4.0211-2.6808-5.1939-2.6808-1.1729 0-3.5185-1.0052-4.8589-2.1781-1.5079-1.3403-6.1993-3.3509-10.388-4.3562-6.7019-1.843-8.5449-1.843-13.4038.6702-7.2045 3.686-9.8853 6.5343-14.5766 15.5819-7.3721 14.2415-4.6913 22.4514 17.76 56.4635 30.1586 45.5729 76.4017 94.1616 130.1844 136.8862 1.0053.6702 4.6913 4.0212 8.3774 7.2046 3.686 3.1834 7.7072 5.8641 8.88 5.8641 1.0053 0 2.0106.8378 2.0106 1.6755 0 1.0053 1.6754 2.5132 3.8535 3.5185 5.0265 2.1781 9.3827 4.8589 16.2522 9.8853 11.7283 8.3774 38.871 22.1163 59.4793 29.8235 25.8023 9.8853 55.7933 15.4143 80.4228 15.2468 20.4407-.1676 27.9804-2.1781 14.2415-3.8536-9.3827-1.1729-28.9857-5.0264-41.0491-7.8748-3.6861-1.0052-8.5449-2.1781-10.8906-2.6807-6.5344-1.6755-15.0793-7.3721-15.0793-10.2204 0-1.3404 2.5132-4.6913 5.5291-7.2045l5.3615-4.5238-3.3509-3.6861c-4.5238-4.8588-23.4567-13.5713-31.8341-14.5766-10.0528-1.1728-11.8958-1.843-9.5502-4.1887 4.1887-4.1887 2.1782-9.0475-5.8641-14.9117-7.5397-5.3615-13.0687-8.0423-24.797-11.7283-9.7178-3.0159-23.4567-10.8906-23.9593-13.7389-1.0053-4.6913 4.0211-5.0264 15.0792-1.1728 14.074 5.0264 29.8235 6.1992 36.6929 2.6807 3.0159-1.5079 6.0317-2.6807 6.8695-2.6807 3.3509 0 11.3932-7.5397 11.3932-10.8906 0-1.843-3.3509-6.8695-7.5396-11.2257-5.8642-5.8642-9.8853-8.2098-17.2574-10.3879-5.3615-1.508-11.2257-2.6808-13.0687-2.6808-4.5238-.1676-10.7231-5.6966-10.7231-9.7178 0-2.3456 2.3457-4.5237 7.5397-7.0369 4.1887-2.0106 7.5396-4.5238 7.5396-5.6967 0-1.1728 3.0159-5.0264 6.7019-8.5449 3.6861-3.5185 6.7019-7.037 6.7019-7.7072 0-2.3456-10.3879-5.1939-23.2891-6.3668-14.9117-1.1728-21.4461-4.8588-18.5978-10.2204 1.3404-2.5132.1676-3.5185-8.0422-6.3668-5.194-1.843-14.7442-3.8536-21.2786-4.3562-10.8905-1.0053-28.6506-4.8589-30.4936-6.7019-.5026-.3351-.3351-1.6755.3351-2.6808.6702-1.1728 4.3562-1.5079 10.8906-.6701 11.8959 1.3403 23.2891-2.1782 32.8393-10.2204 6.8694-5.8642 6.7019-9.2151-.6702-9.2151-4.5238 0-9.5502-2.8484-16.7547-9.2152-4.3563-3.8535-4.6914-5.8641-1.1729-5.8641 1.3404 0 2.5132 1.0053 2.5132 2.3457 0 2.6807 5.8642 4.0211 25.1322 6.0317 7.8747.6701 16.5871 2.5132 19.2679 3.8535 2.8483 1.3404 9.5502 4.5238 15.0793 7.037 12.9011 5.8642 22.6189 12.231 53.6152 35.185 49.0914 36.3578 72.2129 52.4424 82.9359 57.3012 27.1427 12.7336 27.8129 13.0687 34.5148 20.2733 5.5291 6.0317 10.723 22.6189 10.723 34.8498 0 7.8748 5.5291 20.7759 8.8801 20.7759 1.3403 0 4.5237-1.6755 7.2045-3.686 6.0317-4.8589 16.2521-5.0265 19.9381-.5027 1.508 1.8431 4.5238 7.037 6.8695 11.5608 5.0264 9.3827 7.3721 8.7125 8.5449-2.8483.8377-7.3721-1.1728-13.0687-10.3879-29.6559-1.508-2.6808-1.8431-4.3562-.6702-4.8589 2.8483-.8377 8.2098 5.194 12.566 14.4091 2.3457 4.8589 4.5238 8.88 4.8589 8.88 1.1728 0 9.2151-17.76 9.2151-19.9381 0-1.1729 1.5079-4.1887 3.1834-6.7019 1.843-2.5132 3.8536-6.7019 4.5238-9.5502.6702-2.6808 2.1781-6.3668 3.3509-8.2099 1.3404-1.843 2.3457-5.6966 2.3457-8.7124 0-2.8483.8378-5.8642 1.6755-6.3668 3.5185-2.1781 12.566-27.4778 14.2415-39.5412l1.0053-7.5397-10.0528-7.8747c-5.5291-4.1887-13.2363-11.7283-17.0899-16.5872-8.2098-10.2204-19.9381-27.8129-24.9645-37.3631-1.0053-1.843-3.1834-5.6966-5.0265-8.3773-1.843-2.8483-3.8536-6.1993-4.5238-7.5397-.5026-1.3403-7.2045-10.3879-14.5766-19.7706-13.2362-16.9223-23.4566-31.1638-32.3366-44.7351-15.2469-23.4567-29.4884-38.5359-54.9556-58.6416-4.5238-3.6861-8.7125-7.037-9.2151-7.5397-.5026-.5026-4.5238-3.8536-9.0476-7.3721-12.3985-10.0528-27.8128-24.6294-27.8128-26.4724 0-3.1834 12.9011-6.7019 30.9962-8.0423 24.1269-2.0106 38.2009-5.3615 45.4054-10.8906 11.2257-8.5449 9.3826-9.0476-32.3367-8.7125-36.3578.3351-38.5359.1676-44.9027-3.3509-3.8536-2.0106-8.2098-6.1993-10.0528-9.3827-2.6808-5.1939-2.8483-6.7019-1.0053-12.9011 1.1728-3.8536 1.6755-7.3721 1.1728-8.0423-.5026-.5026-3.8536 0-7.5396 1.0053-3.5185 1.1728-11.0581 2.0105-16.5872 2.0105-8.3774 0-11.0581-.6701-14.9117-4.0211-4.5238-4.0211-4.6914-4.3562-4.6914-22.2838v-18.0951l-20.2732-.8378c-16.9223-.6702-21.111-1.3403-23.9593-4.0211-4.8589-4.3562-4.5238-5.5291 3.1834-15.917 9.8853-13.2363 8.88-17.2574-5.0264-19.4355-12.0634-2.0106-13.4038-3.1834-13.4038-12.7336 0-6.8695 1.1728-10.2204 6.0317-17.4249 9.7178-14.7442 34.6823-35.8552 48.7563-41.2167 3.5185-1.3404 6.8695-5.8642 5.3615-7.2046-1.1728-1.1728-23.9592 3.6861-30.8287 6.5344-8.0423 3.3509-35.5201 16.7547-40.2114 19.7706-51.7721 32.0016-80.5903 58.9767-134.8757 126.1632-15.917 19.7706-20.4408 23.2891-34.6823 27.9804-20.2732 6.7019-24.4619 8.2099-30.3261 10.5555-3.0158 1.3404-6.5343 2.3457-7.8747 2.3457-4.0211 0-2.8483-3.1834 1.6755-4.3562 2.1781-.5027 4.8589-2.0106 6.0317-3.351 1.0053-1.3404 3.1834-2.3457 4.8589-2.3457 1.5079 0 4.1886-1.5079 5.6966-3.1834 2.8483-3.0158 2.6807-3.5185-1.6755-10.5555-2.6808-3.8535-7.8747-11.3932-11.7283-16.4196-14.5767-19.603-23.7918-47.4159-23.9593-72.8831-.1676-9.7178 1.5079-17.7601 7.5396-36.8605 4.1887-12.7336 4.6914-24.2943 1.6755-36.0227-1.5079-5.6966-2.6808-15.917-2.6808-22.6189 0-11.2257.6702-13.9064 7.8748-28.8181l7.8747-16.4197-.1675-18.4302c0-18.9329-.6702-22.2838-10.7231-47.751-2.5553-6.4228-4.0259-10.7928-4.4177-13.9847zm589.7519 14.5983c-1.0265 1.4515-2.2595 3.136-3.6095 4.9154-7.8747 10.5555-10.723 16.0846-15.0793 28.9857-5.6966 17.425-7.7071 30.9963-5.529 39.7088 3.686 14.4091 2.6807 26.4725-3.351 37.3631-4.6913 8.7124-5.3615 11.3932-5.3615 22.4513.1676 10.5555 1.0053 14.4091 5.3615 23.9593 6.1993 13.4038 7.037 26.8076 2.8483 48.4212-2.5132 13.7389-1.843 22.1163 3.1834 36.6929 1.508 4.0212 3.1834 14.074 3.8536 22.4514.6702 10.0528 2.6808 19.4355 5.8642 28.3155 3.3509 9.7177 4.6913 16.2521 4.6913 24.797 0 6.5344 1.0053 13.5713 2.3457 16.0846 3.8536 7.7071 6.1992 74.2235 3.686 108.0681-2.1781 29.4883-5.3615 30.8287-6.5343 2.6807-1.0053-22.954-3.0159-32.3366-8.5449-40.3789-3.8536-5.8642-7.037-4.3563-16.5872 7.8747-9.3827 12.231-11.8959 9.3827-4.6914-5.194 5.6966-11.8958 6.0317-15.917 1.8431-27.4777-1.1729-3.1834-2.3457-6.8695-2.6808-8.0423-.3351-1.0053-2.5132-2.0106-4.8589-2.0106-6.7019 0-5.3615-6.7019 3.351-16.4196 7.7072-8.545 9.5502-13.7389 5.0264-13.7389-1.5079 0-8.0423 5.529-14.7442 12.2309-22.6189 22.7865-31.1638 50.0967-23.9593 76.9043 4.3563 16.5872 10.7231 27.1427 27.4778 46.5782 23.9593 27.4778 26.9752 30.4936 30.4936 29.3208 3.0159-1.0053 3.351-.3351 3.351 6.5344 0 7.2045-1.3404 15.917-7.7072 48.7563-3.686 19.2679-11.5608 50.9344-14.4091 57.8038-1.0052 2.3457-2.3456 6.3668-3.0158 9.2151-1.3404 5.0265-4.3563 13.7389-6.8695 20.1057-.6702 1.843-3.0158 7.5397-5.0264 12.5661-3.8536 10.0528-15.2468 33.3419-22.954 47.2484-2.8483 4.8588-6.7019 12.0634-8.88 16.0845-9.0476 16.4197-15.0793 25.2997-34.3472 50.5993-37.5306 49.0914-83.7737 98.0153-119.964 126.6659-6.7019 5.3615-13.2362 10.723-14.5766 12.0634-2.3457 2.1781-44.9027 30.3261-55.4582 36.6929-28.8182 17.0898-49.259 24.797-108.0681 41.3842-4.5238 1.1729-11.5608 3.1834-15.5819 4.3563-.012 0-.024.01-.036.011a548.71785 551.23107 0 0063.7089 10.7724c.2369-.6615 1.048-1.2649 2.5083-1.736 1.6755-.5026 9.8853-4.3562 18.0951-8.2098 8.3774-4.0211 19.9382-9.3827 25.9699-12.0634 17.9276-7.8748 58.8091-28.8182 69.5322-35.6876 2.8483-1.843 6.1992-3.8536 7.5396-4.3563 8.2098-3.686 56.2959-37.1955 66.1812-46.2431 6.5344-5.6966 15.2469-13.2362 19.268-16.4196 26.9751-21.111 53.6152-46.2431 73.5533-69.5322 9.5502-11.2257 39.3737-51.2695 46.4107-62.4952 3.5185-5.8641 7.8747-12.566 9.3826-15.0793 1.6755-2.5132 3.6861-6.0317 4.6914-7.8747 1.0052-1.843 4.3562-7.8747 7.5396-13.4038 5.5291-9.7177 25.4672-49.594 30.1585-60.8197 5.0264-11.5608 8.0423-18.0951 10.2204-22.4514 1.3404-2.3456 2.3457-5.8641 2.3457-7.7071 0-1.8431 1.1728-4.1887 2.5132-5.3616 1.3404-1.1728 2.5132-4.1886 2.5132-6.7018 0-2.5133 1.1728-5.5291 2.5132-6.7019 1.3404-1.1729 2.5132-4.1887 2.5132-6.7019 0-2.5133 1.1729-5.5291 2.5132-6.7019 1.3404-1.1729 2.5133-4.0212 2.5133-6.1993 0-2.3457 1.0052-6.1993 2.3456-8.5449 1.3404-2.5132 3.0159-7.3721 3.5185-10.8906.5027-3.3509 1.843-6.1993 2.8483-6.1993 2.3457 0 .5027 13.9065-1.843 14.7442-1.0053.3351-1.843 3.0159-1.843 6.0317 0 3.0159-1.1729 6.8695-2.5132 8.7125-1.3404 1.6755-2.5132 5.194-2.5132 7.5396 0 2.3457-1.1729 5.6966-2.5133 7.5397-1.3403 1.6754-2.5132 5.1939-2.5132 7.5396s-1.1728 5.6966-2.5132 7.5396c-3.1834 4.1887-3.1834 9.0476 0 9.0476 6.0317 0 24.6295-14.4091 28.148-21.7812l2.5132-5.0264c4.5238-8.0423 7.037-14.074 7.037-16.7547 0-4.1887 1.6755-8.3774 3.5185-8.3774 2.3457 0 1.843 8.88-.8378 12.566-1.1728 1.8431-2.6807 5.3616-3.3509 7.8748-.5026 2.6807-1.843 4.6913-2.6808 4.6913-1.0052 0-1.6754 1.0053-1.6754 2.1781 0 5.8642-16.9223 22.4514-29.4884 28.9857-8.88 4.6914-13.0687 9.5502-16.4196 19.1004-.5027 1.3404-1.6755 3.6861-2.3457 5.0265-3.0158 5.0264-5.3615 10.0528-5.3615 10.8905 0 2.3457 8.7125.3351 16.0845-3.5185 35.5201-18.7653 61.82502-44.2325 74.39112-71.8778 3.0159-6.7019 3.686-11.3932 3.8536-23.9593v-15.5819l8.5449-6.5343c4.8589-3.6861 13.5714-12.0635 19.4355-18.5978 6.0317-6.7019 14.9117-15.917 19.9382-20.6083 16.5872-15.582 21.1109-21.2786 28.483-35.0175 4.0212-7.5396 7.8748-15.5819 8.7125-17.9275.6702-2.3457 2.8483-8.2099 4.6913-13.2363 8.2098-21.4461 10.5555-35.3525 10.8906-59.6469.1676-24.2944-.5026-27.6453-8.5449-43.5623-5.6966-10.8906-19.7706-22.2838-33.8446-27.1427-11.0581-3.8536-11.8959 2.1781-1.1728 8.5449 13.4038 7.8748 22.954 24.1269 17.76 30.3261-1.843 2.1781-2.5132 2.1781-5.5291 0-2.0105-1.3404-4.6913-2.5132-6.1992-2.5132-3.0159 0-8.3774 8.2098-8.3774 12.5661 0 4.6913 5.194 26.4725 7.7072 32.3366 2.5132 5.6966 3.1834 13.7389 1.1728 13.7389-.5026 0-5.0264-3.0159-9.8853-6.7019s-10.5555-6.7019-12.7336-6.7019c-7.2045.1676-13.0687 7.2045-18.0951 21.7812-1.6755 5.0264-3.6861 7.7072-5.8642 8.2098-7.037 1.1728-7.5396 3.0159-7.2045 23.4566.5026 22.6189.1675 23.6242-18.7653 44.7352-5.6966 6.3668-12.231 15.5819-14.5766 20.2732-2.17822 4.8589-4.69142 8.8801-5.36162 8.8801s-2.6807-3.0159-4.3562-6.7019c-2.3457-5.0265-4.0211-6.7019-7.037-6.7019-5.5291 0-6.1992-3.1834-3.1834-15.0793 1.5079-5.6966 2.6808-12.5661 2.6808-15.2468 0-2.8483 1.1728-13.0687 2.5132-22.954 6.1992-44.5676 5.8641-94.1617-.8378-131.0221-1.0052-6.0317-3.0158-17.76-4.1886-25.9699-7.8748-50.7668-9.2152-72.2129-5.194-84.779 5.5291-16.9223 6.0317-19.2679 5.8641-27.6453 0-4.5238-.6701-11.5608-1.3403-15.7495-1.8431-11.2256.1675-17.0898 9.3826-28.8181 8.5449-10.8906 13.90652-24.1268 13.90652-34.3472 0-5.8133 3.2938-13.9299 7.9212-19.2935a548.71785 551.23107 0 00-42.13822-41.0609c-1.1421 2.6601-3.1953 6.059-6.3295 10.7603-4.0212 6.0317-4.6913 8.7125-4.6913 18.7653 0 15.4144-4.8589 34.8499-12.7337 51.2695l-6.5343 13.4038-.1676 32.6718c-.1675 19.1004-.8377 34.1797-1.843 36.0227-3.1834 5.8642-4.1887 17.0898-2.1781 23.7917 2.3457 7.8748 6.7019 34.0122 8.2098 49.9292.6702 6.3668 2.1782 13.9064 3.1834 16.5872 2.3457 5.3615 3.5185 31.834 1.6755 33.8445-2.5132 2.3457-3.3509-.8377-4.1887-17.2573-.5026-9.0476-2.0105-18.4303-3.1834-20.9435-1.3404-2.5132-2.3456-6.8694-2.3456-9.5502 0-2.8483-1.0053-8.0423-2.3457-11.3932-1.1728-3.5185-3.1834-10.5555-4.1887-15.5819s-2.6807-13.0687-3.686-17.5925c-2.1782-9.5502-1.0053-32.5042 2.0105-40.714 1.3404-3.8536 1.6755-13.7389 1.1729-30.9963-.8378-26.4725 0-32.3367 7.037-46.5782 7.372-15.2468 8.88-20.9434 9.8853-41.7193 1.1728-19.6031 1.6754-21.7812 7.372-34.0121 1.8067-3.7061 3.3309-6.5372 4.6802-8.5721a548.71785 551.23107 0 00-44.9681-33.874zm-404.8594 205.3702c.4346-.01.644.309.644.9373 0 1.0053-29.6559 40.5464-32.6718 43.7298-1.0052 1.0053-4.6913 5.6967-8.3773 10.388-6.7019 9.0475-8.2098 10.0528-10.0529 7.037-2.1781-3.351 18.5978-30.6612 40.0439-53.2801 5.7804-5.9061 9.1104-8.7962 10.4141-8.812zm38.117 24.6302c.4038.015.6912.3239.8954.9365.3351 1.0053-.1676 2.3457-1.1729 2.6808-1.1728.3351-2.0105 1.6755-2.0105 3.0159 0 1.3403-.6702 2.3456-1.3404 2.3456s-2.6808 2.3457-4.1887 5.0264c-1.6755 2.8483-5.8642 8.3774-9.2151 12.231-3.351 4.0211-8.3774 10.0528-11.0581 13.4038-5.194 6.5343-9.3827 8.0423-9.3827 3.3509 0-3.8535 11.7283-18.9328 22.7864-29.4883 5.194-4.6913 10.5555-10.0528 12.0635-11.7283 1.1937-1.1938 2.0329-1.797 2.6231-1.7743zm48.7992 29.9618c2.6654-.1135-2.4357 7.2985-13.7242 19.2284-9.3826 10.0528-13.9064 12.3985-13.9064 7.3721 0-3.0159 15.5819-19.6031 22.954-24.2944 2.3169-1.5315 3.8606-2.2713 4.6766-2.3061zm-105.0375 25.9303c7.8747 0 13.7389.6702 13.7389 1.6755 0 1.5079-24.797.5026-26.6401-1.0053-.3351-.3351 5.3615-.6702 12.9012-.6702zm-28.148.5026c7.8747 0 11.0581.3351 7.2046.6702-4.0212.3351-10.388.3351-14.2416 0-4.0211-.3351-.8377-.6702 7.037-.6702zm59.4915 2.8513c7.666-.023 18.0306.9186 22.6068 2.5103 3.8535 1.3403 9.2151 2.5132 11.5607 2.5132 2.5132 0 6.0317 1.1728 7.8748 2.5132 1.6754 1.3404 5.529 2.5132 8.3773 2.5132 2.6808 0 6.5344 1.1728 8.3774 2.5132 1.6755 1.3404 4.5238 2.5132 6.1993 2.5132 1.843 0 5.1939 1.0053 7.5396 2.3457 2.5132 1.1728 8.0423 3.8536 12.3985 5.8641 4.3562 2.0106 8.3774 4.3563 8.88 5.3616.6702.8377 2.5132 1.5079 4.1887 1.5079s3.8536 1.0053 4.5238 2.0106c1.5079 2.3456 6.0317 5.529 11.3932 7.8747 5.3615 2.5132 16.9223 13.0687 15.5819 14.5766-.8377.6702-2.6807 0-4.3562-1.5079-1.6755-1.6755-4.0211-2.8483-5.0264-2.8483-1.1729 0-2.0106-.8378-2.0106-1.6755 0-1.0053-1.6755-2.5132-3.686-3.3509-2.1782-1.0053-6.0318-3.1834-8.8801-5.0265-2.6807-1.843-6.1992-3.686-7.5396-4.3562-1.3404-.5026-3.686-1.5079-5.0264-2.3457-11.5608-6.7019-33.1744-15.917-42.7246-18.2626-2.8483-.6702-6.7019-2.1782-8.7125-3.1834-2.0106-1.1729-5.6966-2.0106-8.3774-2.0106-2.5132 0-6.8694-1.1728-9.5502-2.5132-2.5132-1.3404-8.7124-2.5132-13.5713-2.5132-10.723 0-19.268-1.508-19.268-3.5185 0-1.021 3.982-1.489 9.2273-1.505zm110.4926 10.2623c.7284.028 1.1447.4368 1.5845 1.128 1.0053 1.843-8.0423 8.7124-11.3932 8.7124-5.0265 0-4.1887-3.1834 2.0105-6.3668 4.5029-2.5132 6.5841-3.5211 7.7982-3.4736zm-306.8069 20.9846c2.6045.032 3.0938 1.27-.3985 2.5947-2.1782.6702-4.6914.8378-5.6966.1676-1.1729-.6702-.3351-1.6755 2.1781-2.1781 1.555-.4242 2.8979-.5966 3.917-.5842zm-11.8543 4.1409c.8571-.01 1.2354.412 1.2354 1.3021 0 2.1782-4.6914 3.6861-5.8642 1.8431-.5026-.6702.1676-1.8431 1.1728-2.1782 1.5708-.6283 2.6998-.9622 3.456-.967zm345.4776 1.7668c.7589 0 1.6176.017 2.581.038 8.88 0 9.0475.1675 3.686 1.6755-3.8536 1.3403-6.5343 1.3403-9.2151 0-2.7855-1.3195-2.364-1.741 2.9481-1.7135zm-337.1846 9.7335c.8049-.041 1.3197.3835 1.3197 1.3626 0 .8377-1.1728 2.8483-2.5132 4.6913-1.3403 1.6755-2.5132 6.7019-2.5132 10.8906 0 6.5344.8378 8.5449 6.0317 13.9065 5.5291 5.6966 10.2204 8.3773 24.1269 13.9064 18.4302 7.3721 21.1109 7.5396 83.7737 8.88 61.1548 1.1728 86.1194 3.0159 100.696 7.7072 4.3562 1.1728 10.3879 2.3457 13.5713 2.3457s7.2046 1.1728 9.0476 2.5132c1.6755 1.3403 5.194 2.5132 7.7072 2.5132s7.037 1.0053 10.0528 2.3456c3.0159 1.1729 10.0529 3.6861 15.5819 5.194 9.0476 2.6808 28.148 11.2257 36.8605 16.4197 5.0264 3.1834 36.3578 26.4725 41.7193 31.1638 12.9011 11.5608 23.4566 22.954 39.2061 42.8921 9.3826 12.0634 19.1004 23.9593 21.446 26.8076 2.3457 2.6808 9.3827 11.0581 15.4144 18.2627 19.9382 23.6242 57.4688 58.9767 67.3541 63.5005 1.3404.6702 4.8589 2.6807 7.5396 4.5237 4.6913 3.0159 5.8642 3.6861 11.3932 5.8642 1.0053.5027 3.1834 1.5079 4.5238 2.1781 5.194 3.0159 14.4091 6.8695 18.9329 7.7072 2.5132.6702 4.1887 1.843 3.686 2.6808-1.5079 2.5132-7.037 2.0105-9.8853-.8378-1.3404-1.3404-4.0211-2.5132-6.0317-2.5132-2.0105 0-5.6966-1.0053-8.0423-2.3456-2.5132-1.3404-5.6966-2.8484-7.0369-3.351-1.3404-.6702-4.6914-2.5132-7.5397-4.3562-2.6807-1.8431-6.7019-4.1887-8.7124-5.194-2.1782-1.1728-3.8536-2.6808-3.8536-3.5185 0-.6702-1.1729-1.3404-2.5133-1.3404-1.5079 0-3.0158-1.1728-3.5184-2.5132-.6702-1.3404-1.6755-2.5132-2.6808-2.5132-3.6861 0-28.6506-20.9434-39.3737-33.0068-6.1992-7.037-13.9064-15.4144-16.9222-18.5978-3.0159-3.0159-8.2099-9.3827-11.3933-13.9064-5.529-8.0423-9.5502-12.9012-16.7547-20.7759-2.0106-2.1781-6.1993-7.3721-9.2151-11.5608-3.0159-4.1887-6.0317-7.7072-6.8695-7.7072-.6702 0-1.3403-.8377-1.3403-1.6755 0-4.0211-29.6559-34.5147-44.4001-45.5729-18.2627-13.7389-52.945-33.1744-59.1443-33.1744-1.6754 0-4.5237-1.1728-6.3668-2.5132-1.6754-1.3403-4.5237-2.5132-6.1992-2.5132-1.843 0-5.194-1.0053-7.5397-2.3456-5.8641-3.0159-17.0898-6.0317-29.6559-7.7072-5.529-.8378-13.0687-2.3457-16.7547-3.1834-3.686-1.0053-10.723-1.843-15.5819-1.843s-16.0846-1.1729-25.1321-2.6808c-11.8959-2.0106-29.8235-2.6808-67.3541-2.8483-39.2061-.3351-52.4423-.8377-56.9661-2.6808-3.1834-1.3403-8.88-3.3509-12.5661-4.6913-3.686-1.3404-7.8747-3.1834-9.2151-4.0211-1.3404-.8378-4.1887-2.1782-6.0317-3.0159-2.0106-.8377-7.2045-5.0264-11.7283-9.2151-7.7072-7.3721-8.0423-8.2098-8.0423-16.5872 0-6.0317 1.0053-10.2204 3.1834-13.2362 2.0891-2.8588 4.6832-4.6351 6.2199-4.7136zm-30.9508 55.4605c6.2254-.086 23.0397 3.4494 27.7468 5.8841 2.6807 1.3404 6.1992 2.3457 7.8747 2.3457 1.5079 0 3.8536 1.1728 5.0264 2.5132 1.1728 1.3403 3.0159 2.5132 4.0212 2.5132 2.6807 0 13.0687 11.0581 18.0951 19.2679 10.0528 16.4197 9.2151 42.8922-2.1781 62.8303-.8378 1.3404-2.1782 4.1887-3.1834 6.1993-.8378 2.1781-2.3457 3.8536-3.1834 3.8536-.8378 0-1.8431 1.6754-2.1782 3.686s-1.5079 3.8536-2.5132 4.3562c-3.0158.8378-2.6807-3.8535.3351-6.3668 1.3404-1.1728 2.5132-3.686 2.5132-5.6966 0-2.0105 1.0053-5.0264 2.3457-6.8694 1.1728-1.843 2.6808-5.6966 3.1834-8.3774.5026-2.8483 1.843-8.3774 2.8483-12.566 4.8589-18.4303-2.1781-41.3843-16.4196-53.6152-4.3563-3.6861-9.0476-6.7019-10.388-6.7019-1.5079 0-4.5238-1.3404-6.7019-2.8483-6.0317-4.3563-55.2906-4.1887-59.982.1675-1.6754 1.5079-4.1886 2.6808-5.529 2.6808-3.6861 0-23.4567 10.3879-28.8182 15.4143-2.8483 2.5133-5.8642 4.0212-6.7019 3.5185-1.0053-.5026.5027-2.5132 3.1834-4.5237 2.5132-1.8431 5.8642-4.8589 7.2046-6.3668 1.5079-1.6755 3.8535-3.0159 5.3615-3.0159 1.5079 0 3.1834-1.1728 3.8536-2.5132.5026-1.3404 2.3456-2.5132 4.0211-2.5132 1.843 0 4.1887-1.1729 5.3615-2.5132 1.1729-1.3404 4.0212-2.5132 6.5344-2.5132 2.3456 0 5.8641-1.1729 7.5396-2.5133 1.843-1.3403 6.7019-2.5132 10.8906-2.6807 4.1887-.1676 9.5502-.8378 11.8959-1.5079 2.3456-.6702 5.6966-1.3404 7.372-1.508.1781-.01.368-.017.5688-.02zm818.90582 12.4184.5026 5.6967c.3351 3.0158-.1675 6.3668-1.1728 7.372-1.0053 1.0053-1.8431 3.351-1.8431 5.3616 0 2.0105-1.1728 5.0264-2.5132 6.8694-1.3403 1.6755-2.5132 4.5238-2.5132 6.0317s-1.0053 3.5185-2.3456 4.1887c-1.3404.6702-2.5133 2.8483-2.8483 4.5238-.3351 1.843-1.6755 3.5185-2.6808 4.0211-3.0159.8378-2.6808-5.529.3351-8.0423 1.3404-1.1728 2.5132-3.8536 2.5132-5.8641 0-2.0106 1.1728-4.6913 2.5132-5.8642 1.3404-1.1728 2.5132-3.8536 2.5132-5.8641 0-2.0106 1.0053-4.6914 2.3457-5.6967 1.3404-1.1728 3.0158-4.5237 3.8536-7.372zm-251.96822 22.6216c.8541-.046 1.7622.5942 2.1549 2.0079 1.8431 6.0317 4.0212 9.7178 13.5714 23.4567 5.529 7.8747 8.5449 11.5607 18.7653 22.7864l6.8694 7.8747 1.6755-4.1887c1.0053-2.3456 2.3457-5.6966 3.0159-7.5396 1.843-4.5238 3.0158 12.3985 1.5079 22.1163-1.1728 7.5396-4.1887 9.8853-4.1887 3.3509 0-2.6807-3.686-7.8747-10.2204-14.7441-12.9011-13.4038-26.64-31.6665-29.3208-38.3684-.5026-1.3404-2.0106-4.5238-3.3509-7.037-1.3404-2.3457-2.3457-5.5291-2.3457-7.037 0-1.6912.8983-2.6257 1.8662-2.6781zm-624.1374 18.4276c16.0846 0 18.9329 1.843 15.917 10.2204-1.0053 3.0158-1.843 8.0422-1.843 11.3932 0 5.0264-1.3404 7.3721-6.5344 12.3985-3.686 3.3509-7.7071 6.1992-9.2151 6.1992-4.0211 0-3.1834-3.0158 1.0053-4.3562 16.0846-5.0264 10.7231-31.3314-6.5343-31.3314-7.3721 0-11.5608 3.1834-15.0793 11.0582-3.5185 7.7072-2.6808 12.7336 3.0158 18.0951 6.3668 5.8642 5.194 8.2098-4.1886 8.2098-8.0423 0-11.8959-2.8483-9.3827-6.7019 1.0053-1.3404 1.6755-5.0264 1.6755-8.0423 0-7.0369 4.0211-14.409 11.7283-21.6136 5.6966-5.3615 6.3668-5.529 19.4355-5.529zm856.83762 5.0264c2.1781 0 2.1781 2.8483-.1675 4.1887-.8378.6702-2.3457 3.0158-3.1834 5.1939-.8378 2.1782-2.3457 4.0212-3.351 4.0212-2.5132 0-2.0106-4.6913.5026-6.1993 1.3404-.6702 2.6808-2.6807 3.351-4.3562.5026-1.5079 1.843-2.8483 2.8483-2.8483zm-9.8061 15.1195c.803.024 1.4287.5252 1.4287 1.4677 0 2.0106-3.3509 4.1887-4.5238 3.0158-.5026-.5026-.335-1.6754.3351-2.6807.7121-1.2462 1.8499-1.8304 2.76-1.8028zm-15.5492 21.1663c.1009 0 .1761.025.2232.072 1.0053 1.0053-13.5714 13.9064-15.7495 13.9064-.8377 0-2.5132 1.3404-3.686 2.8483-1.1728 1.6755-2.6808 2.3457-3.351 1.6755-1.3403-1.3404.1676-2.8483 14.4091-13.5713 3.796-2.885 7.1791-4.9443 8.1542-4.9309zm-536.29552 9.2508c1.4207.046 2.9429 1.5233 3.3827 3.7223.5027 2.5132.1676 2.6808-2.8483 1.0053-2.0105-1.0053-3.1834-2.6807-2.5132-3.5185.5184-.8639 1.2347-1.233 1.9788-1.2091zm446.5457 18.1314c1.5079 0 .3351 18.0951-1.3404 19.9382-2.0105 2.0105-2.6807-2.0106-1.6754-10.5555.6701-5.194 2.0105-9.3827 3.0158-9.3827zm-556.2575 13.4038c.1676 0 6.0317 5.5291 12.9012 12.0634 12.0634 11.7283 28.8181 26.8076 36.0227 32.3367 16.7547 12.7336 32.8393 24.2944 34.1797 24.2944.8377 0 1.843.5026 2.1781 1.1728.5026 1.5079 9.2151 7.7072 13.0687 9.3826 1.3403.6702 4.8588 2.6808 7.5396 4.5238 2.8483 1.843 7.037 4.1887 9.7178 5.194 2.5132 1.0053 4.5237 2.5132 4.5237 3.3509 0 .8378 1.508 1.508 3.1834 1.508 1.8431 0 4.3563 1.0053 5.5291 2.1781 1.1728 1.3404 4.3562 2.8483 6.8694 3.5185 2.5133.5026 4.5238 1.843 4.5238 2.6807 0 2.5133-6.0317 2.0106-8.7124-.5026-1.1729-1.3404-4.3563-2.8483-6.8695-3.5185-2.5132-.5026-4.5238-1.843-4.5238-2.6808 0-1.0052-1.843-1.6754-4.0211-1.6754-2.3457 0-4.6913-.8378-5.194-1.8431-.6702-.8377-2.8483-2.5132-4.6913-3.3509-2.0106-.8377-5.8642-3.0159-8.7125-4.8589-2.6807-1.843-6.5343-4.0211-8.3773-5.0264-6.8695-3.3509-36.1903-24.6295-48.2537-34.8499-8.88-7.3721-37.8657-37.0279-39.7087-40.5464-1.0053-1.8431-1.508-3.351-1.1729-3.351zm-193.8524 8.3774c11.3933 0 14.4091.5026 18.0952 3.5185 6.1992 4.8589 3.3509 7.5396-4.8589 4.8589-7.5396-2.5133-41.0491 0-45.2378 3.3509-3.0159 2.5132-13.7389 3.686-14.9118 1.843-.6701-1.1728 1.3404-2.1781 5.5291-2.8483 3.6861-.6702 7.7072-2.1781 8.7125-3.3509 1.0053-1.3404 3.8536-2.3457 6.3668-2.3457 2.3456-.1675 6.1992-1.1728 8.5449-2.5132 2.6808-1.5079 9.2151-2.3457 17.76-2.5132zm184.812.049c1.0824-.026 2.4432 1.1346 3.0087 3.3022.5027 1.843 1.5079 3.351 2.1781 3.351.8378 0 1.8431 1.3404 2.3457 3.0158.6702 1.6755 3.1834 5.3615 5.6966 8.0423 2.6808 2.6808 8.3774 9.7178 13.0687 15.7495 4.5238 6.0317 12.3985 15.4143 17.5925 20.9434 5.3615 5.5291 12.3985 13.2362 15.917 17.2574 5.194 6.0317 29.3208 28.483 47.5835 44.5676 8.7124 7.5396 38.3683 29.4883 40.2114 29.4883.8377 0 1.6754.8378 1.6754 1.6755 0 1.0053 1.3404 2.1781 3.0159 2.8483 1.5079.5027 5.529 3.0159 8.7124 5.5291s7.037 5.0264 8.3774 5.5291c1.3404.6701 4.8589 2.6807 7.5397 4.5237 2.8483 1.8431 6.7019 4.0212 8.88 5.0265 2.0105.8377 3.686 2.3456 3.686 3.3509 0 2.5132-1.6755 2.0106-9.2151-2.5132-3.686-2.1781-10.723-6.1993-15.7495-8.7125-4.8588-2.5132-10.3879-5.3615-12.0634-6.3668-1.843-.8377-3.1834-2.1781-3.1834-3.0158 0-.6702-1.6754-2.0106-3.686-2.8483-5.6966-2.5132-10.388-5.5291-11.8959-8.0423-.6702-1.0053-2.1781-2.0106-3.1834-2.0106-.8377 0-4.8589-2.5132-8.7125-5.529-7.7071-6.0317-8.0422-6.3668-21.9487-17.425-9.3826-7.5396-51.6046-48.9238-61.3223-59.982-7.8748-9.3826-29.991-39.2061-29.991-40.714 0-1.0053-1.1729-2.0106-2.5132-2.6807-1.3404-.5027-2.5132-2.0106-2.5132-3.1834 0-1.3404-1.1729-3.351-2.5133-4.5238-1.3403-1.1729-2.5132-3.1834-2.5132-4.3563 0-1.5393.6733-2.2768 1.5151-2.2969zm560.2715 1.6268c1.5079 0 .5026 14.7441-1.3404 16.4196-1.843 2.0106-2.5132-1.3404-1.5079-8.5449.6702-4.3563 1.843-7.8747 2.8483-7.8747zm-714.403 17.9622c.396 0 .876.358 1.4886.9706 1.8431 1.843 2.1782 4.5238 1.3404 10.2204-1.1728 6.8695-3.3509 10.8906-5.3615 9.0476-.3351-.5027-.1675-5.5291.3351-11.2257.7226-6.6234 1.1855-9.0056 2.1974-9.0129zm306.3203 76.0319c.9005 0 2.3666.5026 4.6285 1.5079 3.0158 1.3404 2.8483 1.5079-1.1729 1.5079-2.6807.1676-4.6913-.6702-4.6913-1.5079 0-1.0053.3351-1.5079 1.2357-1.5079zm-70.6003 41.7193c-1.6755 0-1.3404.8377 5.6966 25.9698 8.3773 29.991 10.3879 45.5729 11.2257 84.6115.8377 38.0333.1675 43.7299-7.037 66.5163-4.3563 12.9012-15.5819 37.028-23.2891 49.0914-16.0846 25.4672-41.5518 48.4212-70.2024 63.5005l-9.1026 4.8189a548.71785 551.23107 0 0032.2084 12.0903c.512-.364 1.2394-.6968 2.1939-.9922 14.0739-4.3562 40.5464-22.7865 58.6416-41.0491 21.1109-21.2785 42.3895-58.8092 54.9555-96.8424 6.0317-18.0952 11.8959-41.3843 13.4038-52.945 1.5079-12.7336 1.0053-64.3382-.8377-67.3541-1.3404-2.5132-7.2046-6.3668-12.231-8.2098-1.6755-.5027-3.0158-1.6755-3.0158-2.5132 0-.8378-1.6755-2.3457-3.6861-3.351-8.88-3.8536-31.834-19.4355-40.714-27.3102-3.6861-3.351-7.3721-6.0317-8.2098-6.0317z" style="stroke-width:.167547"/></svg>