<svg height="960" style="" width="1350" xmlns="http://www.w3.org/2000/svg"><path d="m1380.4802 992.0112a10.273765 10.273765 0 00-2.5216 7.5639q-10.0851-7.5644-27.7362-22.6926a315.20335 315.20335 0 00-25.2143-20.17104 98.634868 98.634868 0 00-16.3892-17.64986q-11.3457-10.08595-16.3889-15.12869-10.0859-7.56391-30.2569-26.4748-20.171-18.91087-30.257-28.99594v17.64986a41.262786 41.262786 0 01-5.0427-22.69305q-20.1715-17.64941-32.7786-27.73624v7.56435a106.17301 106.17301 0 01-25.2138-20.17145 274.76784 274.76784 0 01-35.2997-35.29971l-60.5148-60.5113-32.7786-35.29972q-7.5643-7.56391-20.171-18.91043-12.6067-11.34652-17.6499-16.38927 0-2.52116-7.56431-10.08551a54.078239 54.078239 0 00-12.60711-10.08551 49.877182 49.877182 0 00-35.2997-2.5216q-2.52116 0-10.08551-7.56435a201.47036 201.47036 0 00-37.82131-37.82087q-10.08551-15.12826-20.17102-15.1287a16.491923 16.491923 0 01-7.56435 7.56435 22.378558 22.378558 0 01-10.0855-2.52116h-17.64811a35.12063 35.12063 0 00-15.1287 2.52116 191.1136 191.1136 0 01-32.77812-5.04275l22.69261 22.69261q20.17146 22.69304 32.77812 35.29971a7.2625265 7.2625265 0 015.04276 2.5216l2.52159 2.52116 5.04275 2.52159 2.52159 5.04276a2.2276348 2.2276348 0 012.52116 2.52159v1.26058l2.5216 3.78218h2.52116a2.2276348 2.2276348 0 002.52159 2.52116l2.5216 5.04275h2.52116a7.2642736 7.2642736 0 012.52159 5.04318l2.52116 2.52116a29.336205 29.336205 0 007.56435 5.04275l2.5216 5.04276a2.2276348 2.2276348 0 012.52116 2.52159l7.56435 10.08551a2.2276348 2.2276348 0 01-2.5216 2.5216 7.265584 7.265584 0 00-5.04275 2.52116q0 2.52203-5.04276 0v32.77856q-5.04275 5.04318-7.56435 0v-2.5216a88.476852 88.476852 0 00-2.52116-25.21377l-6.30376-6.30377-6.30246-3.78392a275.0535 275.0535 0 01-20.17146-22.69261l-2.52116-2.52116v2.52116h-5.04362v-5.04276h2.52116l-16.38928-16.38927-13.86769-11.34609-6.30333-6.30377-6.30377-5.04276q-6.30289-5.04275-3.78174-5.04275 2.52116 0-2.52159-5.04276-5.04276-5.04275-3.78218-2.52159 1.26058 2.52117-5.04406-3.78217-5.04319-5.04232-5.04275-7.56391a33.618504 33.618504 0 01-15.1287-12.60711q-7.56391-10.08594-7.56391 0l10.0855 10.08551-2.52159 10.08551 5.04319 5.04319v2.51984a16.488866 16.488866 0 007.56391 7.56435l2.5216-2.52159 3.78217-2.52116q3.78174-2.52203 1.26058 2.52116a4.4552698 4.4552698 0 015.04275 5.04275h-2.52116l-5.04319-2.52116v10.08551a48.753318 48.753318 0 016.30378 8.82318 48.755938 48.755938 0 006.30333 8.82318 41.264097 41.264097 0 0110.08594-2.52116l-5.04319-5.04319a19.349848 19.349848 0 01-2.52116-7.56391 54.078239 54.078239 0 0110.08551 12.6071 10.272891 10.272891 0 012.5216 7.56392 62.553734 62.553734 0 007.56391 17.64986 41.111657 41.111657 0 0015.12869 12.6071 5.1379743 5.1379743 0 013.78218 1.26057 3.6336656 3.6336656 0 011.26058 2.5216v8.82318a2.2276348 2.2276348 0 012.52159 2.5216 7.265584 7.265584 0 002.52116 5.04275 2.2276348 2.2276348 0 002.5216 2.52116 14.601491 14.601491 0 0110.08551 2.5216l10.08551 12.6071a10.272454 10.272454 0 012.52159 7.56435l5.04276-2.52159 2.52159 10.08551a15.982188 15.982188 0 007.56392 3.78217 12.239325 12.239325 0 017.56435 5.04275 61.097036 61.097036 0 007.56434 8.82318 29.347124 29.347124 0 017.56435 5.04275 29.317422 29.317422 0 005.04275 7.56436 7.2647105 7.2647105 0 005.04276 2.52159l2.52115 2.52116h-5.04319a29.324848 29.324848 0 01-7.56391-5.04275 44.243449 44.243449 0 015.04275 12.6071 31.070265 31.070265 0 0117.64986-5.04275 17.334057 17.334057 0 013.78218 8.82318 17.330562 17.330562 0 003.78173 8.82318l5.0432 5.04275-5.0432 5.04276q-2.52115 5.04275 2.5216 5.04275a3.151885 3.151885 0 010-5.04275l5.04276 5.04275a2.2276348 2.2276348 0 012.52159 2.5216l-2.52159 2.52116v5.04319h5.04275v-7.56435l5.04275 5.04275h7.56436l2.52159-2.52159-5.04275-5.04276a29.328342 29.328342 0 01-7.56435-5.04275l-2.5216-2.52116-2.52116-5.04319-7.56435-7.56392a7.2647105 7.2647105 0 015.04276 2.52116q5.04275 0 5.04275 2.5216h2.5216l5.04275 2.52116v2.53294a2.2276348 2.2276348 0 012.5216 2.5216l2.52116 2.52116a29.328342 29.328342 0 007.56435 5.04275h2.52115l3.78217 3.78218-1.26057 3.78217q0 5.04276-2.5216 5.04276v-2.52116h-7.56391a7.2647105 7.2647105 0 015.04276 2.52116v7.56435q2.52115 5.04319 0 5.04275a7.2634001 7.2634001 0 01-5.04276-2.52159h-5.04275l2.52116 7.56435a2.2276348 2.2276348 0 012.52159 2.52159v2.52116a5.1349168 5.1349168 0 01-1.26102 3.78217 5.1375375 5.1375375 0 00-1.26057 3.78218h-2.52116q-2.52204 0-2.5216-5.04275a110.57106 110.57106 0 00-20.17146-20.17146 75.138125 75.138125 0 01-7.56391-10.08551 5.1379743 5.1379743 0 003.78218-1.26057l1.26058-1.26102-10.08551-10.08551-12.60711-10.08551q-2.52202 0-12.60709-10.0855v2.52116l2.52116 2.5216v5.04274q-2.52116 0-2.52116-5.04274a123.28693 123.28693 0 01-7.56435-12.60711q0-5.04319-7.56435-10.08551v-5.04319l-2.52116 2.5216q-10.08595-12.60711-15.1287-12.60711-10.08551-2.52116-12.60711-17.64986l-5.04275 7.56435a10.274201 10.274201 0 012.52159-7.56435q-12.6071-12.60709-15.12869-12.60709-15.12826-10.08551-20.17102-12.60711-2.52116-5.04232-10.0855-18.91043a52.837752 52.837752 0 00-15.1287-18.91045h-2.52116v5.04276q2.52116 2.52116 0 2.52116-2.5216 2.52203-2.5216 0l-5.04275-5.04276a7.2634001 7.2634001 0 01-5.04275 2.5216l-1.26102-1.26058-1.25883-3.78174v-5.04275l-17.64986-17.64986q0-2.52203-5.04275-3.78217-5.04276-1.26015-5.04276-3.78217-2.52203 0-2.52159-5.04276a7.2638369 7.2638369 0 00-2.52116-5.04275 54.0944 54.0944 0 01-12.6071-10.08595 54.078239 54.078239 0 00-12.60711-10.08551v70.59943q0 5.04319-2.52159 5.04276h-5.04276a7.2647105 7.2647105 0 01-2.52116-5.04276q0-10.08507 1.26058-32.77812 1.26058-22.69304 1.26058-35.29971a21.930846 21.930846 0 00-3.78217-8.82318 21.939583 21.939583 0 01-3.78218-8.82318q0-5.04276-17.64985-12.60711a28.912954 28.912954 0 01-8.82318-2.52159 28.905091 28.905091 0 00-8.82319-2.52116h-2.52115q-2.5216 32.77812-2.5216 47.90637-2.52116 25.21421-2.52116 30.25697a19.355089 19.355089 0 012.52116 7.56435 7.2647105 7.2647105 0 01-2.52116 5.04275h2.52116a2.2276348 2.2276348 0 012.5216 2.5216h-5.04713a24.605756 24.605756 0 005.04276 17.64985 2.2276348 2.2276348 0 002.52116 2.52116q2.52203 0 1.26101 1.26102a5.1375375 5.1375375 0 01-3.78217 1.26057h-5.04276v5.04014h5.04276q2.52116 10.08594 0 12.6071a19.352905 19.352905 0 012.52116 7.56435l2.52159 2.52116v2.5216q-10.08594 17.64942-12.6071 17.64986a41.267155 41.267155 0 01-2.52116 10.08551v2.5229q-5.04275 2.52116-5.04319-5.04276a27.37938 27.37938 0 01-5.04275-10.08594 20.730545 20.730545 0 011.26101-6.30333l2.52116-7.56435 1.26058-6.30334v-30.25696l2.5216-60.51391v-27.73624l2.52159-22.69261h-30.25696a19.352905 19.352905 0 00-7.56435 2.52116 7.2651473 7.2651473 0 01-5.04275 2.52159q0 15.12826-1.26058 42.86362-1.26058 27.73537-1.26102 37.82132v10.08551l-1.26058 3.78217-1.26058 6.30376h-5.04275a7.2642736 7.2642736 0 01-2.52159-5.04318 28.060337 28.060337 0 00-2.5216-12.60667h-2.52115l-2.5216-2.52159 2.5216-2.5216 2.52115 2.5216h5.04319v-85.729q-12.6071 0-47.90682-2.5216 0 17.65029-2.52159 60.51392v7.56348l-2.5216 2.52159-2.52116-1.26058-2.5216-3.78217v-2.5216a375.53469 375.53469 0 000-63.03508h-30.25607q-2.52117 7.56435-5.04276 5.04276-2.52115 0-5.04275-5.04276a258.72188 258.72188 0 01-57.99233-17.64985l-2.52159 2.52116a68.981117 68.981117 0 002.52159 15.12869 107.19947 107.19947 0 00-10.08551 15.12827 70.891204 70.891204 0 00-2.52159 21.43203v21.43203a79.249203 79.249203 0 01-1.26058 12.6071 77.387162 77.387162 0 00-1.26101 10.08551q0 2.52203-1.26059 20.17145-1.26057 17.64942 1.26059 17.64986a99.487921 99.487921 0 011.26101 28.99638q-1.26058 18.90999-1.26101 26.47478a77.387162 77.387162 0 001.26101 10.08551 20.360583 20.360583 0 01-1.25971 12.60623q0 5.04275 1.26102 21.43203a66.208366 66.208366 0 01-1.26102 23.9532v20.17144a4.0381342 4.0381342 0 01-2.52116 3.78174l-2.52159 1.26102-1.26058-1.26102-1.26189-3.78042q-2.52159-2.52204-1.26102-16.38929 1.26058-13.86724 1.26102-17.64985v-40.34203l-2.52159-18.91306q0-2.52115 1.26057-13.86769a176.66236 176.66236 0 001.26102-18.91043q0-5.04319-1.26102-16.38927a176.76938 176.76938 0 01-1.26057-18.91044 22.981329 22.981329 0 002.52159-13.86419v-16.38927a39.067037 39.067037 0 002.52116-16.38928v-16.38885a84.021583 84.021583 0 00-2.52116-30.25695 16.767538 16.767538 0 012.52116-25.21421h-121.02741a86.297702 86.297702 0 00-16.38927 2.52116 86.271931 86.271931 0 01-16.38928 2.5216 63.820865 63.820865 0 00-30.25696 10.0855l-8.82318 5.04319-13.86768 10.08551-2.52116 5.04275a7.2634001 7.2634001 0 00-2.5216 5.04276 19.763926 19.763926 0 00-3.78217 5.04275 14.660458 14.660458 0 01-2.52116 3.78218 13.684667 13.684667 0 00-2.52159 5.04275 20.743649 20.743649 0 00-1.26059 6.30377l-5.04275 7.56391-2.5216-2.52116a4.0381342 4.0381342 0 003.78218-2.52159 9.6744872 9.6744872 0 001.26058-3.78217 9.6701193 9.6701193 0 011.26102-3.78175 9.6784183 9.6784183 0 001.26057-3.78217v-1.26102l2.52116-2.52115v-2.52335l-5.04275 5.04276a98.346586 98.346586 0 01-10.08551 17.64986 139.93128 139.93128 0 00-17.64942 52.94956 106.26474 106.26474 0 00-2.52159 17.64986v15.12871a197.39728 197.39728 0 015.04318 27.73623 53.049596 53.049596 0 01-27.73623-22.69261l-12.60711-22.69262a5.7119179 5.7119179 0 01-1.26057-6.30376 20.741464 20.741464 0 001.26057-6.30333q0-2.52116-5.04275-5.04276h-5.0445l-2.5216-2.52159v-5.04276a22.375064 22.375064 0 002.5216-10.08551 28.063831 28.063831 0 00-2.5216-12.6071 20.741464 20.741464 0 00-1.26057-6.30333 20.74758 20.74758 0 01-1.26058-6.30378 7.2647105 7.2647105 0 012.52115-5.04275q0-2.52116 5.0432-1.26057a5.9582681 5.9582681 0 015.04275 6.30332 7.2634001 7.2634001 0 015.04276 2.5216v-20.17364l-2.5216-5.04275a2.2276348 2.2276348 0 00-2.52116-2.52159l-7.56435-5.04145q-2.52116-7.56391 0-7.56391 2.52116-5.04275 5.04276 0l2.52159 7.56391h5.04276q7.56435 2.5216 7.56435 5.04276l-2.5216 5.04319a3.151885 3.151885 0 010 5.04275v16.39016l-1.26058 10.08593a65.817438 65.817438 0 01-1.26102 8.82318q0-1.26101 1.26102 6.30334 1.26102 7.56435 1.26058 6.30377h5.04276a112.89086 112.89086 0 012.52159-32.77855v-20.17102a53.119046 53.119046 0 011.26058-8.82318 58.437415 58.437415 0 001.26058-11.34652 24.510972 24.510972 0 01-5.04275-12.6071q-15.12827-2.52116-12.60711-12.60711a43.87043 43.87043 0 017.56435-17.64986 2.2276348 2.2276348 0 012.5229-2.52246 58.65319 58.65319 0 0110.08551-15.1287 2.2276348 2.2276348 0 012.52116-2.52116l-2.52116 2.52116v2.52159a29.33271 29.33271 0 00-5.04275 7.56392v5.04319h-2.5229q0 5.04231 2.52159 5.04275v-2.52159q2.52116-2.52116 2.52116-3.78218v-3.7813a19.346353 19.346353 0 002.5216-7.56391l3.78217-7.56435 3.78217-5.04276a57.003866 57.003866 0 005.04275-7.56522q2.52116 0 7.56435-5.04275 17.64942-7.56435 25.21377-10.08551a20.732729 20.732729 0 006.30377-1.26102 20.741464 20.741464 0 016.30334-1.26058 19.352905 19.352905 0 007.56435-2.52115h83.20871l5.04275 5.04275 3.78218 3.78217 1.26057 2.52116v3.78218q2.52116 0 2.5216 1.26058.00044 1.26058 2.51723 3.78217l2.5216 5.04275 2.52115 2.5216v5.04275l2.5216 2.5216a19.346353 19.346353 0 002.5216 7.56391v-3.78217l-2.5216-3.78174v-2.5216l-2.5216-2.52159a7.265584 7.265584 0 00-2.52115-5.04276 7.2642736 7.2642736 0 00-2.5216-5.04275 7.2647105 7.2647105 0 00-2.52116-5.04275 5.1357904 5.1357904 0 00-1.26101-3.78218l-1.26058-1.26058a7.265584 7.265584 0 01-2.52116-5.04275l-2.5216-2.5216 2.5216-2.52115h22.69436l5.04275-2.5216h3.78217l6.30334-2.5216a40.236328 40.236328 0 0022.69261-17.64985v-12.60842a5.1379743 5.1379743 0 00-3.78218 1.26058l-1.26057 1.26058a7.2647105 7.2647105 0 01-5.04276-2.52116q-2.52115 0-2.52159-1.26101v-1.26058l-5.04276-5.04275v-2.5216a2.2276348 2.2276348 0 00-2.52115-2.52116l-2.5216-2.52159-5.04276-2.51767-2.52159-2.52159h-2.52116v-5.04276a2.2276348 2.2276348 0 01-2.5216-2.52159h-2.52115l-2.5216-2.52116v-2.52334l-7.56435-7.56435a229.48134 229.48134 0 00-15.12826-22.69261 3.151885 3.151885 0 00-5.04276 0h-2.51984a7.2634001 7.2634001 0 012.5216-5.04276l2.52115-2.52159h-5.04275a41.254051 41.254051 0 01-10.08551 2.52159 2.2276348 2.2276348 0 012.52116-2.52159l5.04319-5.04276a2.2276348 2.2276348 0 012.52116-2.52116l5.04275-2.5216-2.52115-2.52115 10.0855-10.08594h-2.52291a7.2642736 7.2642736 0 01-5.04319 2.52159l2.5216-2.52159v-2.52117a2.2276348 2.2276348 0 002.52159-2.52158h-5.04319a7.2625265 7.2625265 0 01-5.04274 2.52158v-2.52158l-5.04276-2.5216h-2.5216l-5.04275 2.52116v-2.52116h5.04275a2.2276348 2.2276348 0 012.5216-2.5216h2.52159a7.2647105 7.2647105 0 015.04275-2.52159 10.274638 10.274638 0 007.56435-2.52116 7.2647105 7.2647105 0 00-2.52159-5.04276l-2.5216 2.52116h-7.56391a7.2638369 7.2638369 0 002.52291-5.04231h-5.0445a7.2634001 7.2634001 0 01-5.04275 2.52159q-2.52116 2.52116-2.5216 0l2.5216-2.52159a2.2276348 2.2276348 0 002.52115-2.52116v-2.5216q2.52203-2.52116 0-2.52159h-2.52115a2.2276348 2.2276348 0 012.52115-2.52116 7.2642736 7.2642736 0 002.5216-5.04276v-2.52159h-2.5216a2.2276348 2.2276348 0 002.5216-2.52116 7.2651473 7.2651473 0 005.0445-2.5216l-2.52116-2.52159h-2.52334l-2.5216-2.52116h-5.04275l-2.52116 1.26058-5.04275 1.26058v-2.52116a19.346353 19.346353 0 007.56391-2.5216q0-2.52116 5.04275-2.52116l5.04319-2.52159h5.04275a7.2634001 7.2634001 0 01-2.51984-5.0445l-5.04276-5.04276-5.04275-2.52159-2.5216-2.52116h-2.5229q-2.52159-2.52204 0-2.5216h5.04276l2.52115-2.52115h20.17145a7.2647105 7.2647105 0 015.04275 2.52115h12.60711a27.366276 27.366276 0 005.04275 10.08551 8.4851049 8.4851049 0 003.78217 7.56435 22.51309 22.51309 0 016.30378 6.30377 41.292052 41.292052 0 005.04276 6.30334 62.053171 62.053171 0 0112.60709 22.69261q0 2.52159 27.73625 15.12869v7.56392h2.52115l2.5216 2.52159a14.527237 14.527237 0 0110.08551 5.04276q5.04275 5.04319 7.56435 5.04275h5.04274q-2.52116-2.52116-1.26057-3.78217a5.1366639 5.1366639 0 013.78217-1.26058v5.04275h-2.52246q-2.52116 2.5216 0 2.5216l3.78217 2.52116 6.30464 2.52377 2.5216 2.52116h2.52159a7.2625265 7.2625265 0 005.04276 2.5216 2.2276348 2.2276348 0 002.52116 2.52159h2.52159a77.359207 77.359207 0 0110.08551 1.26058 79.249203 79.249203 0 0012.60711 1.26058 21.211452 21.211452 0 0117.64984 2.5216h2.5216q0-5.04319 5.04276-2.5216h12.6071a511.80042 511.80042 0 0150.42667-47.90725 43.282072 43.282072 0 0112.6071-12.6071 114.06844 114.06844 0 0115.12827-10.08551q5.04274-2.52116 2.52158-12.60711a7.2647105 7.2647105 0 002.5216-5.04275h-2.52028l-2.5216 2.52159h-2.52116a7.2660209 7.2660209 0 01-2.52159-5.04275 2.2276348 2.2276348 0 012.52159-2.5216h7.56435v-10.08551a2.2276348 2.2276348 0 01-2.52159-2.52158 10.274201 10.274201 0 01-2.5216-7.56435v-2.52116l-7.56391-5.04275a22.972157 22.972157 0 00-2.5229-17.64899 29.336205 29.336205 0 01-5.04276-7.56435 22.382052 22.382052 0 01-2.52159-10.08551l-5.04276-7.56435a69.510507 69.510507 0 00-7.56391-20.17145 78.52806 78.52806 0 00-27.73625-20.17101h-5.04231l-2.52116-2.5216q-2.52202 0 0-2.52115h-5.04318l-2.52117-2.52248h-2.52159l2.52159 2.5216a7.2647105 7.2647105 0 015.04275 2.52116h-7.56434l-2.52115-2.52116a2.2276348 2.2276348 0 01-2.52248-2.5216l-2.52028-2.52159a79.249203 79.249203 0 01-12.6071-1.26058 41.919283 41.919283 0 01-10.08595-2.52116 15.764666 15.764666 0 00-10.08551 1.26058h-12.60711a132.37873 132.37873 0 00-30.25695 7.56435l-15.12826 10.08551a58.33739 58.33739 0 00-12.60711 7.56435 83.837257 83.837257 0 01-20.17145 5.04275h-27.73624a29.33271 29.33271 0 01-5.04275 7.56391 2.2276348 2.2276348 0 00-2.5216 2.5216h2.52247a7.2651473 7.2651473 0 012.5216 5.04276 10.272891 10.272891 0 01-7.56435 2.52158 7.2634001 7.2634001 0 00-2.5216 5.04276v2.52115a9.9749996 9.9749996 0 01-1.26058 6.30378 5.1375375 5.1375375 0 01-3.78217 1.26057q-2.52116 0-5.04276 5.04276h-2.52159l-2.52116-2.52116v-2.5216q-7.56435 0-20.17144 1.26059a49.75357 49.75357 0 01-20.17102-1.26059l10.08551-52.94956a113.9658 113.9658 0 0110.08725-15.12957 114.05097 114.05097 0 0010.08595-15.1287v-5.04144l2.52115-2.52117h12.6071a7.2642736 7.2642736 0 00-2.52334-5.04494h-3.78173l-6.30378 2.5216q0-2.52116 12.6071-5.04276l-2.52159-2.52159h-2.52116a7.265584 7.265584 0 00-5.04275-2.52116h2.51941l-2.52116-2.5216a3.151885 3.151885 0 01-5.04275 0h-2.51985l-2.5216-2.52158h12.60536a7.2642736 7.2642736 0 012.52334-5.03927 29.347124 29.347124 0 00-7.56435-5.04275h-5.04275v-5.0445q0-2.52116 2.52159 0h2.52116a2.2276348 2.2276348 0 012.5216 2.5216v2.52115a19.946505 19.946505 0 0112.6071 2.5216 75.099687 75.099687 0 007.56391 10.08551 5.1366639 5.1366639 0 003.78217-1.26059l1.26059-1.26101v-2.52116a19.354216 19.354216 0 00-7.56391-2.51985h-2.5216v-2.5229a7.265584 7.265584 0 01-2.51898-5.04275q-2.52203-5.0432-5.04319-5.0432h10.08377a7.2660209 7.2660209 0 015.04275 2.5216 8.0762684 8.0762684 0 007.56435 5.04275 29.335767 29.335767 0 00-5.04319-7.56435 38.064602 38.064602 0 01-15.12827-12.60666l-10.0855-7.56436a12.252865 12.252865 0 01-6.30377-2.52159 12.254176 12.254176 0 00-6.30334-2.52116v-2.5216h5.04276v-2.52115l2.52159-2.52159h5.04276l10.0855 10.0855q2.52116 2.52159 3.78219 2.52159a1.1142542 1.1142542 0 011.26057 1.26059q0 1.26057 2.5216 3.78217a82.959306 82.959306 0 0025.21377 5.04275v-2.52115h-10.08551l-2.52248-3.78217-5.04319-3.78219h-5.04144l-2.52115-2.52159a147.49782 147.49782 0 00-15.13045-12.6071 19.349848 19.349848 0 01-7.56391-2.52115 19.349848 19.349848 0 00-7.56435-2.5216 2.2276348 2.2276348 0 01-2.5181-2.52116h-2.52291v-2.52159h-5.04319v-2.521159a7.265584 7.265584 0 015.04319 2.521159 7.2634001 7.2634001 0 01-2.52159-5.042759q-10.08508-7.56391-10.08551-10.08551a2.2276348 2.2276348 0 01-2.52159-2.52159v-5.04276l5.04275 2.5216q0 2.52116 5.04275 5.04275l5.04319 5.04276a30.614255 30.614255 0 0015.12826 7.56435 70.498092 70.498092 0 0112.6071 8.823179 70.519932 70.519932 0 0012.60711 8.82318 88.482531 88.482531 0 0125.2142 2.52116q0-2.52116 1.26058-2.52116a3.6323552 3.6323552 0 002.52116-1.26102 5.1379743 5.1379743 0 013.78218-1.26058 2.2276348 2.2276348 0 012.52159 2.5216 7.2647105 7.2647105 0 005.04275 2.52116v-5.03926l-2.52159-2.5216a25.995189 25.995189 0 00-10.0855-5.04275h-5.04276l1.26058 1.26101 2.52159 3.78174q2.52116 3.78217 1.26059 5.04319 0-2.52159-5.04276-5.04319v-2.52115l-5.04275-5.04276a10.272454 10.272454 0 01-7.56435-2.52159v-5.042759l2.5216-5.04275q5.04231 0 5.04275 2.52115 2.52116 2.5216 0 2.5216v5.042759a10.272891 10.272891 0 017.56434 2.52159h7.56392a2.2276348 2.2276348 0 002.52159 2.52116h1.26058l1.26058 2.5216a27.365402 27.365402 0 015.04319-10.085509h2.52116a2.2276348 2.2276348 0 012.52159 2.521159l2.52116 2.52159v7.56391a10.274201 10.274201 0 007.56435-2.52115 61.19444 61.19444 0 00-15.12826-20.171459 7.2642736 7.2642736 0 015.04275 2.5216 38.681788 38.681788 0 0017.64986 10.085509v-2.521159l-7.56435-7.56435a31.032264 31.032264 0 01-11.34652-6.30378 113.66049 113.66049 0 00-13.86768-8.82318l-15.12826-10.0855a92.381329 92.381329 0 0116.38928 7.56434q8.82318 5.04319 13.86767 7.56435a27.359288 27.359288 0 0110.08551 5.04276 29.339699 29.339699 0 007.56435 5.04275 29.324848 29.324848 0 017.56392 5.04275h5.04319a10.272017 10.272017 0 017.56391 2.5216 19.355527 19.355527 0 007.56435-2.5216 82.431226 82.431226 0 00-5.04275-8.82318 82.356535 82.356535 0 01-5.04276-8.82318 29.347124 29.347124 0 00-5.04275-7.56435 152.71092 152.71092 0 0110.08551 12.60711q7.56391 10.08595 12.60709 10.08551v-2.5264h1.26059l1.26058 2.52115a11.189279 11.189279 0 015.04274 1.26102l7.56435 3.78218 7.56436 2.521159h7.56435v-7.564359q-2.5216 0-2.5216-7.56391a29.321353 29.321353 0 015.04275 7.56391 19.349848 19.349848 0 012.5216 7.564359h2.52116l5.04319 2.52159v-5.042749l-5.04319-5.0432-2.5229-5.04275h2.52115l7.56436 7.56435 2.52158-2.5216v-2.52115q5.04233 5.04275 5.04276 7.56435a10.716671 10.716671 0 010 10.085509v10.08549a2.2276348 2.2276348 0 012.52115 2.5216 2.2276348 2.2276348 0 002.5216 2.52116l2.5216 2.52159-2.5216 2.52116h1.26058l1.26102-2.52116 2.52203-2.52159 5.04276 2.52159a7.2634001 7.2634001 0 002.52246 5.04364q0 5.04275 2.52117 5.04275 2.52158-2.52116 0-7.56435a38.706248 38.706248 0 015.04318-15.12826q0-5.04276 2.52116-5.04276 2.52116 0 2.52159 5.04276a14.528984 14.528984 0 01-5.04275 10.08551l-2.5216 2.52159v7.56435a20.546656 20.546656 0 005.04276 15.12827h2.52159a9.886331 9.886331 0 007.56392-10.08551v-5.04363a2.2276348 2.2276348 0 002.52159-2.5216 19.355527 19.355527 0 01-2.52159-7.56435 7.2642736 7.2642736 0 015.04319 2.52159v7.56436q0-2.52204 1.26058-2.5216a1.1142542 1.1142542 0 001.26058-1.26057 3.6327921 3.6327921 0 011.26058-2.5216 3.6306081 3.6306081 0 001.26101-2.52116 1.26058 1.26058 0 112.52116 0v3.78173a2.2276348 2.2276348 0 00-2.52116 2.5216v10.08551a2.2276348 2.2276348 0 012.52116-2.52116q10.08595-7.56435 15.1287-2.5216a2.2276348 2.2276348 0 01-2.52159 2.5216l-2.52116 2.52116v10.08595l-3.78218 3.78173-3.78217 6.30377v2.52116h5.04275v-2.52116q0-5.04319 2.5216-5.04275a28.069947 28.069947 0 002.52116-12.60711v-2.52159h1.26057l3.78218-2.52116q2.5216 0 1.26101 2.52116l-1.26101 2.52159a7.2647105 7.2647105 0 01-2.52116 5.04276 47.594948 47.594948 0 002.52116 15.12826v-8.82318l5.04276 1.26101h5.04319a14.599307 14.599307 0 0110.0855-2.52159 62.555919 62.555919 0 0117.64986-7.56435q10.08507-10.08507 12.6071-10.0855a4.0381342 4.0381342 0 013.78218 2.52158l1.26058 2.52116 2.52159-2.52116a4.9833502 4.9833502 0 017.56391-2.52158v2.52158h2.5216l-2.5216-2.52158q0-2.52117 2.5216 0h8.82318l3.78217-2.52117a34.462822 34.462822 0 007.56392-1.26101l5.04319-1.26058h5.04363a10.272017 10.272017 0 007.56391-2.52159h5.04319l5.04275-2.52116a75.792438 75.792438 0 0012.6071-2.5216 10.273765 10.273765 0 007.56392-2.52115 55.865588 55.865588 0 0117.64985-2.5216 75.134193 75.134193 0 0010.08595-7.56435q2.52116-5.04232 5.04275-5.04276l1.26058 1.26102 6.30334 1.26058 5.04319 2.52116h7.56391q10.08594-2.52116 35.29971-7.56391a303.21255 303.21255 0 0050.42841-10.085949 343.64325 343.64325 0 0037.82088-7.56391q-7.56435-5.0432-7.56391-7.56436v-2.52377a16.49105 16.49105 0 007.56391 7.56435h2.5216a89.511174 89.511174 0 0032.77855-5.04276 91.591174 91.591174 0 0142.86363-5.04275 206.78873 206.78873 0 0142.86406 7.56435 41.276763 41.276763 0 0010.08553-2.5216h7.5643a14.599307 14.599307 0 0010.0855-2.52159 5.1366639 5.1366639 0 003.7822-1.26058 7.3014008 7.3014008 0 015.0428-1.26058q3.7821 0 3.7821-2.5216a19.352905 19.352905 0 007.5644-2.52116v2.52116q5.0432 7.56435 12.6071 17.64986h32.7781l2.5215-2.52116v-2.52115l2.5212-2.52116h2.5216v5.04275a218.77602 218.77602 0 0130.257 2.52116 80.041542 80.041542 0 0122.6926 5.04275l2.5216 2.5216h7.564a2.2276348 2.2276348 0 002.5216 2.5216h2.521l2.5217 1.260569 3.7822 1.26059a48.913621 48.913621 0 016.3033 2.52159h21.4321l3.7821 2.52116q2.5211-2.52116 3.7822-1.26059 1.261 1.26059-1.2606 6.30334v2.5216a19.346353 19.346353 0 017.564 2.52159v2.52115l2.5216 2.5216v2.52116a2.2276348 2.2276348 0 00-2.5216 2.52159l5.0432 5.04276v1.26058l1.2605 3.78217 1.2606 2.5216v5.04275a29.328342 29.328342 0 01-5.0427-7.56435 29.336205 29.336205 0 00-5.0428-7.56435 2.2276348 2.2276348 0 01-2.5216 2.5216 19.349848 19.349848 0 002.5216 7.56435v2.52116q5.0432 0 10.0855 7.56435v-2.5216l2.5216-2.52116 5.0428 5.04276a2.2276348 2.2276348 0 01-2.5216 2.5216 2.2276348 2.2276348 0 00-2.5212 2.52115v7.56435a10.274201 10.274201 0 012.5212 7.56435v5.04276q0 2.52116-6.3034 1.26057l-6.3007-1.26057-2.5211 15.12825q0 7.56435 1.2605 113.4635a1157.977 1157.977 0 01-1.2605 115.98465v5.04319l-2.5216 2.52116v5.04275l2.5216-2.52116h2.5211v2.52116a19.352905 19.352905 0 01-2.5211 7.56435 2.2276348 2.2276348 0 01-2.5216 2.52159v7.56392h2.5216v2.52159l2.5211 5.04276h-2.5211v5.04275l-2.5216 5.04275v7.56435h2.5216v2.5216l2.5211 2.52116v5.04275l2.5216 2.5216h2.5216v10.0855l-2.5216 2.5216h-2.5216v-7.56435h-7.5639a7.2625265 7.2625265 0 00-5.0427 2.5216v5.04275l-2.5216 5.04275v2.5216l-7.5644 2.52116-5.0428 2.52159-2.5211 2.52116a10.272454 10.272454 0 00-7.5644 2.5216v12.6071a36.765585 36.765585 0 00-5.0427-15.1287 79.249203 79.249203 0 001.2606 12.6071q1.2605 7.56392 2.5211 12.60711a41.430515 41.430515 0 011.261 10.0855v20.17146l-2.5216 20.17101a73.756991 73.756991 0 01-2.5211 25.21421q-5.0428-5.04276-5.0432-7.56391 0-7.56479 1.261-31.51798a157.19458 157.19458 0 00-1.261-36.55942 12.254176 12.254176 0 00-2.5212-6.30333 12.998468 12.998468 0 01-2.5216-5.04319 52.704094 52.704094 0 00-2.5211-8.82318q-7.5639 2.52159-10.086-7.56392v-138.68031a91.881203 91.881203 0 011.2611-15.12827q1.2605-7.56435 2.5211-16.38927 1.2606-8.82494 2.5216-15.12826a95.167183 95.167183 0 001.2606-17.6503v-104.63943q-10.0855-10.08595-15.1283-7.56435a46.07011 46.07011 0 00-32.7785-12.60711 7.2634001 7.2634001 0 00-5.0428 2.5216v5.04406a7.265584 7.265584 0 01-2.5212-5.04276v-2.52158l-2.5215-2.52117h-2.5216q-2.5212-2.52203-10.0856 0h-7.5643l-2.5212 2.52117-2.5216-5.04276a501.64721 501.64721 0 00-52.9496-7.56435 55.880003 55.880003 0 01-17.64982-2.52116 19.346353 19.346353 0 002.52162 7.56392 111.3634 111.3634 0 01-20.17148-7.56392q-17.64942-2.52203-32.77812-5.04319-2.52203 0-27.73624-3.78174a279.90101 279.90101 0 00-37.82087-3.78217q-52.94957 5.04275-75.64218 7.56391l-22.69305 5.04319-5.04275 5.04276h-12.6071v-2.5216h5.04319l5.04275-2.52116h-5.04275q-30.25696-2.52203-37.82131-2.52159h-47.90857q-22.69217 2.52116-27.73624 2.52159a160.59369 160.59369 0 00-27.73623 17.64985 7.265584 7.265584 0 01-2.52116 5.04276l-7.56435 5.04275a7.2651473 7.2651473 0 01-5.04275 2.5216v2.52116q-2.52116 0 0 2.52159v3.78218l2.52159 3.78174a14.602365 14.602365 0 0110.08551 2.52159h5.04275l-3.78217 3.78217-1.26058 3.78218h-2.5216l5.04276-2.52159h2.52159v2.52159l-2.52159 5.04276v2.52115a19.355527 19.355527 0 002.52159 7.56436l5.04276 5.04275v10.08594a2.2276348 2.2276348 0 012.52159 2.52117 42.091379 42.091379 0 0117.64986 12.60709 154.71929 154.71929 0 0017.64986 35.29972 100.17019 100.17019 0 0112.6071 15.12869 41.487735 41.487735 0 0012.60666-2.52159l-5.04275 2.52159-2.52116 2.52117a7.2647105 7.2647105 0 005.04276 2.52158l-2.5216 7.56392v2.51985q2.52203 2.52116 2.5216 3.78217v3.78218l-2.5216 2.52116v7.56435a29.336205 29.336205 0 007.56435 5.04275 5.1366639 5.1366639 0 01-1.26058 3.78217l-1.26102 1.26059a7.2625265 7.2625265 0 01-5.04275 2.52159l-12.6071 12.6071 5.04319 2.52116a22.376811 22.376811 0 00-10.08595 2.52159 14.603238 14.603238 0 0010.08595 2.52116 7.265584 7.265584 0 005.04275-2.52116v2.52116h-2.52159q-12.60711 10.08595-17.64986 15.1287l5.04275 5.04276v8.82318l-2.52115 8.82318q2.52115 0 7.56391 5.04275l3.78217 3.78218v2.5216q0 2.52115-3.78217-1.26102-5.04232 0-15.12826-10.08551v6.30333l-1.26058 6.30377q-1.26058 6.30377 3.78217 5.04276l2.52116 2.52159h-10.08551a7.2638369 7.2638369 0 00-5.04275 2.52116 7.2625265 7.2625265 0 005.04275 2.5216 15.307346 15.307346 0 017.56435 3.78217 15.30691 15.30691 0 007.56391 3.78174 75.792438 75.792438 0 0012.60711 2.52159v2.5216a77.306792 77.306792 0 01-10.08551-1.26102 77.359207 77.359207 0 00-10.08551-1.26058h-30.25696v2.5216l2.52116 2.52116h-15.12826v3.78217l2.52116 1.26058a10.274201 10.274201 0 017.56435 2.5216h-10.08551a5.1375375 5.1375375 0 013.78217 1.26058l1.26058 1.26101a9.9736892 9.9736892 0 016.30333 1.26058q1.26102 1.26058-1.26057 3.78218h5.04275l5.04275 5.04275-2.52116-1.26058h-5.04275l-2.52159 1.26058v5.04275a7.2660209 7.2660209 0 005.04275 2.5216 106.26474 106.26474 0 01-17.64986-2.5216h-2.52116l-2.52159 2.5216a22.375064 22.375064 0 00-10.08551-2.5216q10.08551 10.08595 12.6071 10.08551v-7.56042h2.52116l2.5216 2.52116 7.56435 5.04276 7.56391 5.04275 12.6071-2.52116q7.56435 5.04276 7.56435 7.56435h-5.04232l-5.04275-5.04319a5.1366639 5.1366639 0 00-3.78217 1.26102 5.1375375 5.1375375 0 01-3.78218 1.26058 39.689902 39.689902 0 0015.12826 10.0855 54.078239 54.078239 0 0112.60711-10.0855 41.320443 41.320443 0 00-5.04276 6.30333q-2.52116 3.78217-5.04275 3.78217a62.531895 62.531895 0 0032.77812 2.5216h3.78217l1.26058 2.52116h40.34509a385.68353 385.68353 0 01-22.69305-40.34247 21.648243 21.648243 0 01-3.78174-11.34609 80.645188 80.645188 0 00-2.52159-12.6071 80.43116 80.43116 0 01-2.5216-11.34652 19.281272 19.281272 0 00-3.78173-10.08551v-40.34073l1.26057-6.30376 1.26058-11.34609a208.78355 208.78355 0 005.04276-22.69261 108.02631 108.02631 0 007.56435-25.21421 189.65821 189.65821 0 0142.86406-55.47247 62.019539 62.019539 0 0127.73624-20.17102h2.52159l2.52116-2.5216h7.56435a78.154604 78.154604 0 0115.12826-5.04275 7.2642736 7.2642736 0 005.04319-2.5216h2.52116a125.9614 125.9614 0 0122.69262-10.0855 106.21014 106.21014 0 012.52159 17.64985q-2.52116 0-1.26058 10.08551 1.26058 10.08551 1.26058 12.60711l5.04276 5.04275v2.5229q5.04275 7.56436 0 10.08551l-2.52378-2.52028q-2.52116 0-10.08551-10.08594v20.17145a29.336205 29.336205 0 00-7.56435 5.04275l-10.08551 5.04275-2.52116 2.5216q0-2.52203 5.04275-2.5216a19.35378 19.35378 0 017.56392-2.52116v2.52116l-5.04276 2.5216-6.30333 2.52115h-2.5216l-1.26058-2.52115q-2.52115 5.04319-5.04275 5.04275a111.05022 111.05022 0 00-40.34247 73.11972 144.3158 144.3158 0 002.52116 50.42797 121.66512 121.66512 0 0068.07827 75.64218 31.540252 31.540252 0 0020.17101 2.5216 141.65574 141.65574 0 0127.73625-2.5216 49.877182 49.877182 0 0035.29971 2.5216 119.87427 119.87427 0 0057.99232-44.12464 112.43004 112.43004 0 0022.69258-66.81726 121.35194 121.35194 0 00-32.77808-80.68537l-2.5216-2.52115v-2.52116q-2.52115 0 0-2.52117a2.2276348 2.2276348 0 012.5216-2.52159q2.52116-2.52115 0-2.52159a3.151885 3.151885 0 000-5.04276 2.2276348 2.2276348 0 01-2.5216 2.5216q0-2.52204 5.04276-5.04275l-2.52116-2.5216a2.2276348 2.2276348 0 012.52116-2.5216h-5.04276v-2.52116a10.274201 10.274201 0 017.56434-2.52159h-5.04274v-2.52116l1.26057-1.26101 1.26015-3.78087v-7.56523l2.5216-2.52159a2.2276348 2.2276348 0 01-2.5216-2.52116v-5.04275l2.5216-10.08595a2.2276348 2.2276348 0 00-2.5216-2.52116l-1.26059-1.26101-1.26057-3.78174a7.2642736 7.2642736 0 01-2.5216-5.04319 41.276763 41.276763 0 0110.08551 2.5216l2.5216-2.5216q0-2.52115 1.26057-1.26058a29.172408 29.172408 0 013.78218 6.30377v2.52117a7.2634001 7.2634001 0 015.04276 2.52158 78.150236 78.150236 0 0115.1287 5.04276 209.37278 209.37278 0 0150.428 70.59768 179.99465 179.99465 0 0115.1287 45.38522 77.363139 77.363139 0 001.2606 10.08594 77.350471 77.350471 0 011.2605 10.08551v16.38928l-2.5211 13.86768a212.84832 212.84832 0 01-20.1715 65.55668 195.59508 195.59508 0 00-17.6498 30.25696 165.37742 165.37742 0 01-42.8641 37.82087 65.83622 65.83622 0 01-13.86769 10.08551 34.226518 34.226518 0 01-11.34652 5.04319l5.04319 5.04275h-10.08595v5.04276h-20.17101q7.56435 10.08507 45.38522 50.42797a98.649718 98.649718 0 0117.64986 16.38928q10.0859 11.34652 15.1283 16.38927a4.0381342 4.0381342 0 013.7821 2.52116l1.2611 2.5216 118.5062 118.50624q0 2.52117 5.0428 5.04275 5.0427 2.5216 5.0427 5.04276l22.6927 22.69261 5.0427 2.5216 7.5644 5.04275a20.74758 20.74758 0 001.2605 6.30377 15.824944 15.824944 0 003.7822 6.30334l25.2142 25.2142v2.52116l2.5212 2.52159 5.0432 2.52116 7.5639 7.56435 7.5643 5.04275v1.26189l2.5216 1.26059v5.04275h2.5212a29.328342 29.328342 0 017.5643 5.04276h2.5212v5.04275l2.5216 2.52159 2.5216-2.52159 2.5211 2.52159h2.5217v2.52159l2.5211 2.52116 2.5216 7.56435h2.5211q0 2.52116 5.0432 5.04276a7.2642736 7.2642736 0 015.0428 2.52159h2.521l10.086 10.08551v2.52116h5.0427v2.5216l5.0428 7.56435h2.5216l5.0428 5.04275v2.52116h2.5211a7.2647105 7.2647105 0 015.0428 2.5216 2.2276348 2.2276348 0 00-2.5212 2.52159l10.0855 5.04276v2.52116h2.5229l7.5639 7.56433a7.2642736 7.2642736 0 015.0432 2.5216v2.52116l5.0428 2.5216v5.04275a2.2276348 2.2276348 0 012.5211 2.52116 10.274201 10.274201 0 017.5644 2.52155l2.5216 2.5216v2.5212l7.5639 5.0428 2.5216 5.0427zm-695.90927-670.69503v2.5216h5.04319a7.2660209 7.2660209 0 00-2.5216-5.04319zm-30.25653 100.85508a10.273765 10.273765 0 007.56392 2.52116h12.6071q-15.12914-7.5626-20.17102-2.51985zm-37.8213 25.21421v-2.5216q2.52115 0 10.0855 7.56435-2.52116 5.04276-2.52116 2.52116-2.52159-2.52116-3.78217-2.52116h-3.78217zm393.3396-393.340049v-2.51984h5.0432l5.0427-2.5216a19.3564 19.3564 0 017.5653-2.52203h2.5216l2.5216-2.52116a5.1379743 5.1379743 0 003.7821-1.26058l1.2606-1.26102h2.5212q2.522 0 12.6071 17.64986a128.93244 128.93244 0 01-21.4321-2.52116 128.89052 128.89052 0 00-21.4333-2.52115zm-264.74785 40.342469-5.04276-2.52115zm-383.2541 22.69262h-5.04275q-2.5216-2.52116-3.78218-2.52116h-2.5216l-1.26057 1.26057v6.30377l-7.56435-7.56434a29.324848 29.324848 0 00-5.04276-7.56435h2.5216l2.52116 2.52159v5.04276a10.272454 10.272454 0 007.56435-2.5216 3.151885 3.151885 0 015.04275 0zm2.52159-10.08551q-2.52202 5.04319 2.52117 2.52159a2.2276348 2.2276348 0 00-2.52117-2.52029zm2.52117-15.12826 2.52158 2.52115zm121.02784-15.12871h-2.5216v2.5216a7.2625265 7.2625265 0 005.04275-2.5216zm60.51348 40.34248-2.52116-5.04276 2.52116-2.52116q2.52203 5.0445 0 7.56522zm0 52.95-2.52116-2.52159v-2.52029a10.274638 10.274638 0 00-7.56435-2.52116v2.52116l2.52159 1.26102 2.52116 3.78217zm-244.57641 141.20016v2.52116l-7.56434 2.5216a29.317422 29.317422 0 017.56434-5.04276zm279.87613 17.64986v7.56392h-2.52117l-2.52159 2.52159v5.04276h5.04276l-5.04276 7.56435-2.52116 2.52116a2.2276348 2.2276348 0 002.52116 2.52159v2.52116l-7.56391 2.52116-15.1287 17.64985a106.8365 106.8365 0 01-30.25697 10.08551 78.139316 78.139316 0 01-15.12826 5.04319 196.11049 196.11049 0 0150.42798-47.90682q22.69304-15.12914 22.69262-17.64942zm37.8213-173.9774h2.52159l2.52116-2.52117v-2.52159h-5.04275l-1.26058 1.26058zm5.04275 7.56434a7.265584 7.265584 0 00-5.04275 2.52116 7.265584 7.265584 0 015.04275-2.52116zm15.1287-20.17145a2.2276348 2.2276348 0 00-2.52159-2.52116 7.2638369 7.2638369 0 00-2.52116 5.04276h2.52116zm-52.94957 2.5216 5.04275 2.52116zm15.12826-10.08595h-5.04275a55.877819 55.877819 0 00-17.64986 2.5216q-5.04275 0-5.04275-2.5216h-2.52159a2.2276348 2.2276348 0 00-2.52116 2.5216 58.072257 58.072257 0 01-15.1287 7.56435l-5.04276-5.04276a30.974608 30.974608 0 0011.34652-2.52159 27.059212 27.059212 0 008.82318-5.04276h7.56392l5.04275-2.52159a37.406358 37.406358 0 0117.6503-10.08551v5.04275l12.60666-7.56435 1.26102 1.26101 3.78217 1.26059a36.87653 36.87653 0 0122.69261-7.56435 19.349848 19.349848 0 007.56392-2.52116 19.349848 19.349848 0 017.56435-2.5216l40.34246-10.08551q2.52204 0 35.29972-2.52159a345.67652 345.67652 0 01-45.38522 27.73624 35.118008 35.118008 0 01-15.12827 2.52116h-15.12869a21.643438 21.643438 0 01-11.34609 3.78217 107.91581 107.91581 0 01-11.34653 1.26059q-10.08594 2.52159-22.69261 5.04275h-5.04275q2.52116 0 5.04275-5.04275 2.5216-5.04276 0-7.56392l-2.52159 2.52116q-2.52116 0-5.04275 5.04276-2.5216 5.04275.002 5.04231zm2.5216 7.56435h2.52116l-2.52116-2.52116h-2.5216zm2.52116 22.69261a5.1366639 5.1366639 0 003.78217-1.26058q1.26058-1.26058-1.26058-1.26058v-2.5216q-2.52159-5.04318-5.04275 0v2.5216zm10.08594 302.56916a22.376811 22.376811 0 01-10.08594 2.5216q2.52159-2.5216 0-10.08551 7.56435 7.56435 10.08594 7.56391zm7.56391-2.52115h-2.52116v2.52115h2.52116zm12.60711 10.0855a2.2276348 2.2276348 0 00-2.52116-2.52159v2.52159zm317.69742 350.47598v-2.52159a3.151885 3.151885 0 000 5.04275zm-5.04276 0 2.5216 2.52116zm-50.42797-40.34247-2.51985-5.04318a5.1349168 5.1349168 0 013.78218 1.26101q1.25883 1.26058-1.26233 3.78217zm45.38522-587.48846a16.494107 16.494107 0 01-7.56435-7.56435q7.56479 2.52115 7.56435 7.56435zm90.77088 10.08551 5.0428 5.04275zm-821.97936-204.233939a8.0762684 8.0762684 0 017.56392 5.04276 16.48974 16.48974 0 017.56435 7.56434 19.349848 19.349848 0 002.52158 7.56391l5.04276 5.04275-5.04276 5.0432v-2.5216l-5.04275-10.08551q0-2.52159-5.04318-7.56435l-3.78175-3.78173zm0 7.56392q0 5.04275 2.52116 2.52158 2.52116-2.52116-2.52116-2.52158zm-123.549 7.56303q0 5.04319 12.60666 7.56435a14.815955 14.815955 0 00-12.60666-7.56435zm209.27844 15.13001 2.5216 2.52116a2.2276348 2.2276348 0 002.52115 2.52159l2.5216 2.52116q2.52116 2.52204 2.5216 0l-2.5216-2.52116a2.2276348 2.2276348 0 00-2.5216-2.52159l-2.52115-2.52116zm12.6071 5.04275q2.52116-5.04319-2.52115-2.52159a2.2276348 2.2276348 0 002.5194 2.52159zm-141.19842-2.52159v2.52159a7.2647105 7.2647105 0 005.04275 2.52116h2.5216l-5.04276-5.04275zm12.6071 7.56435 10.08551 10.08551h7.56435a60.505184 60.505184 0 00-22.69261-15.12827 2.2276348 2.2276348 0 00-2.5216-2.52159h-2.52334q5.04232 7.56435 10.08551 7.56435zm20.17102 5.04275a8.0767052 8.0767052 0 007.56435 5.04276q2.5216-2.52116-5.04275-7.56436a10.274201 10.274201 0 00-7.56435-2.52115 7.2634001 7.2634001 0 002.52159 5.04275zm287.4409 15.12826a19.349848 19.349848 0 012.52116-7.56391h2.5216q2.52116 2.52116 2.52159 1.26058v-3.78217q-2.52159-2.52116-2.52159-3.78217 0-1.26103-2.5216-1.26059v2.5216h-2.52334v-2.5216h-2.5216v5.04276q-2.52115 7.56435 2.5216 10.0855zm-252.14118-10.0855q0 2.52159 5.04318 5.04275a12.255487 12.255487 0 002.52116 6.30377 19.034922 19.034922 0 007.56435 6.303339h2.52116v2.52159h2.52159a22.727554 22.727554 0 0020.17146 15.12825 43.87043 43.87043 0 0017.64986 7.56435 51.98732 51.98732 0 00-20.17146-15.12869q-2.52115-10.08507-5.04275-10.0855h-7.56653q-2.52116 0-7.56435-5.042759a54.679264 54.679264 0 00-17.64986-15.12826zm93.29247 2.52159q0-2.52159-5.04276-2.52159v5.04275zm-148.76321 15.128269 2.52116-2.521159a29.332273 29.332273 0 00-7.56391-5.0432 11.188842 11.188842 0 01-5.04276-1.26058q-2.52159-1.26057-2.52159 1.26058a31.646829 31.646829 0 0012.60492 7.564359zm121.02741-10.085509a5.1357904 5.1357904 0 001.26101 3.78217q1.26058 1.26058 1.26058-1.26102 2.51897-2.52115-2.52378-2.52115zm32.77855 10.085509a2.2276348 2.2276348 0 002.52116 2.52159l2.5216-2.52159v-5.042759h-5.04494zm-113.46567-2.521159a2.2276348 2.2276348 0 002.52159 2.521159l2.52117 2.52159a19.352905 19.352905 0 007.56434 2.52116 15.156652 15.156652 0 00-10.08551-10.085509 2.2276348 2.2276348 0 00-2.52159 2.5216zm-45.38522 10.085509q0-5.0432-7.56436-7.56435l-2.52159 2.52159 2.52159 2.52116zm70.59942 2.52115-2.52159-2.52115a7.2634001 7.2634001 0 00-5.04276-2.5216 29.317422 29.317422 0 007.56435 5.04275zm365.60425 17.64985q0-2.52116 12.6071-10.08551a50.318341 50.318341 0 0135.29971-7.56434 76.495672 76.495672 0 0122.69261-2.52115h17.64986q-7.56391 0-40.34247-2.5216a228.36446 228.36446 0 00-40.34247 12.60709 41.296856 41.296856 0 01-6.30377 5.04276l-7.56391 5.04275-6.30377 2.5216zm-42.86406 0v-5.04275l-1.26059 2.52159zm-295.00482 0q2.52116-5.04231-2.5216-2.52116a2.2276348 2.2276348 0 002.5216 2.52116zm297.52641 22.69306q5.04319 2.52115 7.56392-5.0432 2.52158-2.52116-2.52117-7.56391 0-2.52204-2.52159 5.04275v2.52116a7.265584 7.265584 0 00-2.52116 5.0432zm-5.04275 0 1.26057-2.5216 1.26059-3.78217q1.26057-3.78174-1.26059-1.26059-2.52116 2.52116-2.52159 1.26059 0-1.26059-1.26058 3.78217v2.5216zm50.42797 10.0855q7.56391-2.52115 2.52159-10.0855h-2.52159q-7.56217 7.56565 0 10.0855zm-375.68975-2.51985a2.2276348 2.2276348 0 00-2.5216-2.52116q-5.04275-2.52159-5.04275 2.52116l2.52116 2.5216h5.04319zm234.4909 52.94783a2.2276348 2.2276348 0 00-2.5216-2.52116h-7.56391a2.2276348 2.2276348 0 00-2.5216 2.52116l7.56435 2.52159h5.04276l2.52159-2.52159zm-65.55668 37.82131 2.5216 2.52159v2.52117h2.52116a2.2276348 2.2276348 0 002.52159 2.52158 7.2625265 7.2625265 0 00-2.52159-5.04275v-2.52159a3.151885 3.151885 0 00-5.04276 0zm479.06773 20.17145a16.245573 16.245573 0 0012.60711 0l5.04275-5.0432q5.04276-2.52115 2.5216-5.04275a14.603676 14.603676 0 00-10.08595 2.5216 25.989073 25.989073 0 01-10.08551 5.04275zm-370.647 7.56391h2.52116q0 2.52203 2.5216 0 2.5216-2.52204 0-7.56391l-2.5216-2.5216q0-2.52116-2.52116 0-2.52115 2.52116 0 7.56435zm423.59657-10.08551a17.104741 17.104741 0 0012.6071 5.04275v-2.52115l-5.04275-2.5216h-2.5216l-3.78217-1.26057-1.26058-1.26103h-5.04275q0 2.52204 5.04275 2.5216zm-85.72769 35.29972h-2.52159a7.2651473 7.2651473 0 01-5.04275 2.5216 19.352905 19.352905 0 01-7.56435 2.52115q-5.04319 0-3.78218 2.5216a4.0390078 4.0390078 0 003.78218 2.52116h5.04275a27.375885 27.375885 0 0110.08594-5.04276l2.52116-2.52115zm-310.13351 17.64986h7.56479v-6.30334l-5.04275-1.26101h-2.5216l-2.5216 2.52159a2.2276348 2.2276348 0 002.5216 2.52159zm-40.34247-2.52117h5.04275l3.78218-3.78217 3.78217-1.26101a19.355527 19.355527 0 00-7.56435 2.52159q-5.04275.002-5.04275 2.52159zm25.21421 37.82088 2.52116-2.52116a5.1366639 5.1366639 0 003.78218-1.26101l2.52158-2.52116 1.26059-3.78218q5.04319-5.04276 7.56435-5.04276a48.871252 48.871252 0 0122.69261-17.64986h2.52116a7.2642736 7.2642736 0 015.04276-2.52158 2.2276348 2.2276348 0 01-2.52117 2.52158 7.2647105 7.2647105 0 00-5.04275 2.52117v2.52159a29.328342 29.328342 0 00-7.56435 5.04275 29.328342 29.328342 0 01-7.56435 5.04276 28.546049 28.546049 0 00-10.08551 10.08551l-5.04275 5.04319q-5.04276 5.04231-7.56435 5.04275a7.2647105 7.2647105 0 01-5.04276 2.52116 7.2647105 7.2647105 0 002.5216-5.04275zm-242.05568-5.04276a5.1362272 5.1362272 0 00-3.78174 1.26145 3.6341023 3.6341023 0 01-2.52159 1.26103h-3.78217l-2.52116-2.5216h-3.78218l-1.26102 2.5216q-5.04231 5.04231-5.04275 7.56391a41.268902 41.268902 0 0010.08595-2.52116l10.08551-2.5216a7.2647105 7.2647105 0 002.52115-5.04363zm65.55668 0-2.52116 2.5216h5.04275v-2.5216zm88.24927 7.56435a11.2845 11.2845 0 016.30378 7.56392 6.1273063 6.1273063 0 01-3.78218 7.56435l-6.30333-6.30334-2.52159-3.78217-1.26059-2.52248q0-2.52115 3.78218-2.52115zm47.90683 42.86362a164.64624 164.64624 0 0117.64986-15.12825 29.335767 29.335767 0 015.04318-7.56435l12.60667-12.6071h2.52159l-8.82318 8.82318-8.82318 10.08594q-8.82318 10.08551-5.04275 6.30333a22.376374 22.376374 0 00-2.5216 10.08551 36.875656 36.875656 0 01-7.56391 12.60711h-7.56784a12.560366 12.560366 0 012.52116-12.60537zm206.75552-12.60709-5.04275-2.5216zm-400.9022 12.60709h5.04275v-5.04274h-2.52291l-5.04275 5.04274v2.5216zm-15.12826 7.56435h2.52115l3.78217-3.78217-1.26057-3.78218-2.5216 2.5216v2.5216h-2.5229zm7.56391 0 5.04319-2.52115v-2.5216h-2.52334l-2.5216 2.5216zm171.4545 7.56479q-2.52159 5.04276 2.52116 2.52116 2.52204-5.04275-2.52116-2.52116zm-163.89015 37.82044h2.5216q5.04275 0 5.04275-7.56391h-2.52335l-1.26057 2.52116zm37.8213 17.65029q-2.52203-2.52159-5.04275 2.52116a2.2276348 2.2276348 0 002.52116 2.5216h2.52159q2.52116 0 0-2.5216l2.52116-2.52116zm2.52116 5.04276h2.51985l2.5216-2.5216h-2.5216zm315.17627 17.64986 2.5216 2.52115 5.04275 2.5216 2.52116 2.52116v-2.52116a7.2638369 7.2638369 0 00-2.52116-5.04275zm-22.69261 118.50624q0-2.5216-1.26058-2.5216h-3.78217a14.527237 14.527237 0 00-10.08551 5.04276v3.78217l2.52116 1.26058a8.2356971 8.2356971 0 0010.0855-2.52116q5.04276-2.52203 5.04319-5.04275zm2.52159 40.34247a41.254051 41.254051 0 0010.08551-2.5216v-7.56391h-7.56435a10.272891 10.272891 0 00-2.52116 7.56391zm7.56392 37.82086a3.151885 3.151885 0 010 5.0432q-2.52116 2.52116-3.78218 2.52116h-3.78174q-2.52203 2.52115-3.78217 1.26058l-1.26102-1.26058a7.2651473 7.2651473 0 012.5216-5.04276 16.491923 16.491923 0 017.56435-7.56435h2.52116zm95.81363-2.52115q2.52116 0 5.04275 7.56435v12.60666a7.265584 7.265584 0 00-2.52115-5.04275 19.349848 19.349848 0 01-2.5216-7.56391zm15.1287 7.56435h-1.26102l-1.26058 1.26058q-1.26058 1.26058 2.5216 3.78217 0 2.52116 1.26058 1.26059a5.1375375 5.1375375 0 001.26058-3.78218v-2.52116zm88.24754 5.04275a2.2276348 2.2276348 0 00-2.5216-2.52159 7.2647105 7.2647105 0 00-5.04275-2.52116q-7.56392 2.52116-5.04276 7.56391-2.52203 2.5216 5.04276 7.56435 10.08551 2.52116 10.08551-5.04275a7.2647105 7.2647105 0 00-2.52116-5.04276zm-68.07827 12.60711a7.265584 7.265584 0 01-2.52116-5.0432l-2.5216-2.52115v5.04275q2.52116 0 2.5216 1.26057v1.26103zm-27.73624 7.56391h-2.5216l-2.52115 2.5216v2.52115a7.2625265 7.2625265 0 005.04275 2.5216q2.52116 0 0-2.5216zm105.89914 7.56435q5.04319 0 2.52116-5.04275l-2.52116-2.5216-5.04275 2.5216zm-70.59943 17.64985v-2.52159a10.272017 10.272017 0 00-2.52159-7.56391v-2.5216l-2.52116-6.30333-2.5216-3.78217-2.52116-2.5216h-2.51853l2.52159 7.56435 3.78174 3.78217 2.5216 3.78218q2.52115 3.78173 1.26057 5.04276a26.214894 26.214894 0 001.26102 10.08549 19.746892 19.746892 0 003.78174 5.04276q0 7.56479 2.52159 7.56435a2.2276348 2.2276348 0 002.5216-2.52116 7.2660209 7.2660209 0 00-2.52509-5.04144zm-17.64985-10.0855q2.52115-7.56435 5.04275-5.04275v7.56391a2.2276348 2.2276348 0 00-2.5216 2.5216 41.267155 41.267155 0 01-2.52115 10.08549l-2.5216 2.5216q-7.56435 20.17102-10.08551 27.73625v7.56434a19.355527 19.355527 0 00-2.52159 7.56435v5.04057q-5.04232 0-5.04276-2.5216a5.1362272 5.1362272 0 011.26102-3.78217l1.26058-1.26058q7.56391-20.17145 15.12826-42.86406v-10.08551a7.2634001 7.2634001 0 012.52247-5.04144zm-57.99233 2.52116a2.2276348 2.2276348 0 002.52116 2.5216q2.5216-2.52117 1.26058-3.78219-1.26102-1.26101-3.78087 1.26059zm229.44639 20.17144a2.2276348 2.2276348 0 00-2.52159 2.5216 4.9833502 4.9833502 0 002.52159 7.56391h5.04275v-5.04275q-2.51853-5.04276-5.04013-5.04276zm-784.15848 22.69262v-5.04276l-2.51854-2.52334-5.04145-2.51941v-5.04275q2.52116-2.52204 2.52116-3.78217 0-1.26015-2.52116-3.78219-7.56479-5.04319-7.56435-7.56435-2.52116-2.52115-2.5216-3.78217-.00042-1.26101-2.52115-1.26058a10.272891 10.272891 0 00-2.5216-7.56434h-2.52246v10.08594a40.141107 40.141107 0 0012.60666 22.69261 2.2276348 2.2276348 0 002.5216 2.52116v2.52159l2.5229 2.5216 5.04276 2.52116a2.2276348 2.2276348 0 012.52115 2.5216zm110.94233 83.20653v2.5216a19.355527 19.355527 0 01-7.56435-2.5216l-2.5216-2.5216h-2.51854l-5.04275-2.52115h-5.04319a2.2276348 2.2276348 0 00-2.52116-2.5216h-5.04276a2.2276348 2.2276348 0 00-2.52158-2.52116h-2.52117l-5.04318-5.04275-5.0432-2.5216a54.096147 54.096147 0 01-12.6071-10.08551 107.14487 107.14487 0 01-15.12826-10.08594q-2.52116-5.04232-8.82318-15.12826a88.682144 88.682144 0 00-8.82319-12.6071q-10.09075-20.17102-7.56741-25.21596a29.335767 29.335767 0 007.56435 5.0432 29.324848 29.324848 0 017.56436 5.04275 133.98962 133.98962 0 0030.25696 42.86362 170.17034 170.17034 0 0027.73624 20.17146 41.254051 41.254051 0 0110.0855 2.52159l2.5216 2.52116v5.04494a11.184911 11.184911 0 015.04275 1.26101l2.52116 1.26059q5.04188 2.52071 5.04232 5.04231zm424.85714-84.46712q-1.26058 1.26059 1.26102 3.78219 2.52116-2.52204 1.26058-3.78219a1.5763792 1.5763792 0 00-2.51898 0zm-23.95319 31.51755q0-10.08508 5.04276-12.6071 2.52377 5.04275-5.04014 12.6071zm191.62684-5.04275q2.52202 5.04318 0 5.04275a3.151885 3.151885 0 01-5.04276 0h-2.52116a10.272454 10.272454 0 01-2.52159-7.56435v-2.52247q0-2.52204 2.52159 0h2.52116zm-572.35715-476.54658a29.317422 29.317422 0 007.56435-5.04275h-10.08551q-2.5216-2.52117-7.56435 0l-2.5216 2.52159q-5.04232 2.52116-2.52116 5.04275 0 2.52116 5.04276 2.5216l3.78217-3.78217 3.78218-1.26102zm36.55941 119.76814-3.78217 3.78173-2.5216 5.0432 5.04232-2.52247q0-2.52116 5.04275-5.04276v-2.52159h-1.25882zm200.45307-308.87381a2.2276348 2.2276348 0 002.52159 2.52159l2.52116-5.04275a3.1514482 3.1514482 0 000-5.04275h-2.52116zm186.58451 234.49133h-5.04319v2.52116h5.04319zm-418.55424 2.52116q-2.52116-2.52116-2.52116 0a2.5215953 2.5215953 0 105.04276 0zm587.48846 443.76801h-2.52159a2.2276348 2.2276348 0 002.52159 2.5216zm-199.19117 30.25697q-5.0432-17.64942 5.04275-25.21421 7.56391 10.08594-5.04275 25.21421zm204.23393-17.64986q2.52203 2.52115 3.78218 1.26058 1.26013-1.26058-1.26059-3.78174h-2.52159zm-141.19886 22.69261q7.56392-12.6071 2.5216-20.17102-7.56479 5.04276-2.5216 20.17146zm181.54133 6.30377q0-1.26058-2.52116-1.26102l-2.52159 2.5216v2.5216a7.265584 7.265584 0 005.04275 2.52116zm146.24208 195.40896 2.5211 2.5216 3.7822 8.8232q3.7826 8.8232 1.2606 8.8232a38.681788 38.681788 0 01-10.0855-17.6499zm-395.86124-325.26173h2.52116l3.78217-1.26058q3.78218-1.26057-1.26057-3.78217 0-5.04275-5.04276-2.5216zm5.04276 27.73624q0-2.5216-1.26102-2.5216a4.4552698 4.4552698 0 00-3.78174 3.78218v1.26058q5.04232 2.52072 5.04276-2.5216zm47.90681-42.86406v-2.5216l-2.52159-2.52115q0-2.52204-2.5216 0v2.52115l2.5216 5.04276q2.52116 5.04318 3.78217 1.26101 1.26102-3.78217-1.26058-3.78261zm7.56391-40.34247h-2.52115l-2.5216-5.0432a2.2276348 2.2276348 0 00-2.52116-2.52115q-2.52159-2.52116-2.52159-3.78217v-3.78219l-2.5216-2.52115q0-5.04276 2.5216-5.04318 5.04275 0 5.04275 10.08593v5.04276q5.04319 5.04275 5.04275 7.56391zm57.99277 32.77812v2.5216a3.1514482 3.1514482 0 000 5.04275 2.2276348 2.2276348 0 002.52115-2.5216zm242.05529 244.57683a4.038571 4.038571 0 00-2.5216-3.78217 11.190152 11.190152 0 00-5.0428-1.26058l2.5212 2.52116v2.52159a2.2276348 2.2276348 0 002.5216 2.52116q0 5.04319 2.5216 2.5216a3.151885 3.151885 0 000-5.0432zm-2.5216 37.82088v5.04275h2.5216v-2.52115zm-25.2143 25.21419v5.0428h1.2611l1.2605-2.5212q2.5212-2.522-2.5216-2.522zm-8.82314 34.0391a5.1366639 5.1366639 0 00-1.26057 3.7822h2.52159v-2.522zm182.80244-485.37145v-2.52116a2.2276348 2.2276348 0 01-2.5216-2.5216v-7.56478l2.5216-2.52116 2.5216 7.56435v2.52116a7.265584 7.265584 0 012.5211 5.04275 2.2276348 2.2276348 0 012.5216 2.5216v5.04275h-2.522v-2.52072zm-877.45062-486.632079h5.04275l2.5216 2.52116a2.2276348 2.2276348 0 002.5216-2.52116q0-2.52204-3.78218-2.5216-3.78217.00044-3.78393-2.52203h-5.04275a7.265584 7.265584 0 002.52291 5.04363zm930.40012 35.299709h2.5216a3.151885 3.151885 0 005.0428 0v-2.52159q-2.5216-7.56392-7.5644-5.04275a7.2651473 7.2651473 0 00-2.5216 5.04275q-2.5229 2.52116 2.5199 2.52159zm-254.66237-45.385659h1.26058l1.26101-2.52116q1.26059-2.52159-2.52159-2.52159-2.52116-2.52116-2.5216 0-2.52116 0 0 2.52159zm-756.42443 15.1287q2.52116 2.52116 2.52116-1.26102 0-3.78217-2.52116-1.26057zm5.04275 15.128269q-2.52117-5.042759-5.04275-2.521159-2.52204 0 0 2.521159a3.1514482 3.1514482 0 005.04275 0zm0 45.38521q0 2.52204 5.04276 2.5216 2.52202 0 2.52158-1.26059a3.6314817 3.6314817 0 00-1.26101-2.52158q-1.26057-1.26059-6.30333 1.26057zm40.34247-73.118839h2.52159a7.2625265 7.2625265 0 00-2.52159-5.04275 7.2634001 7.2634001 0 00-5.04276-2.52159q0 2.5194 5.04276 7.5626zm0-17.64985q2.52203 0 0-2.52159a2.2276348 2.2276348 0 00-2.52116-2.52116h-2.5216a4.4552698 4.4552698 0 005.04276 5.04275zm-113.46349 52.947829q-7.56435-2.52204-8.82318-1.26059-1.25884 1.26145 1.26057 3.78174l5.04276 5.04319h5.04275v-2.52159l-1.26233-2.5216zm-30.25697-80.684939a75.159964 75.159964 0 01-10.0855-7.56435 7.2638369 7.2638369 0 00-2.52116-5.04276 7.2642736 7.2642736 0 00-5.0432-2.52159 7.2647105 7.2647105 0 01-2.52115-5.04276 25.989073 25.989073 0 0110.08551 5.04276 12.252865 12.252865 0 016.30377 2.52159 61.667922 61.667922 0 006.30333 3.78174 27.049166 27.049166 0 016.30333 5.04319 10.32749 10.32749 0 006.30378 3.78218 7.2638369 7.2638369 0 012.52115 5.04275q0 2.52116-5.04275 2.52116a36.883955 36.883955 0 01-12.60711-7.56391zm7.56436 10.08551h-2.52116v2.52116l7.56391 7.56434a16.494107 16.494107 0 007.56435 7.56435q10.08594 7.56435 12.60711 2.52115a7.2642736 7.2642736 0 00-2.5216-5.04275l-10.08551-5.04406q0-2.52116-3.78218-3.78217a15.820139 15.820139 0 01-6.30333-3.78086zm272.3122 27.73623h2.52159l5.04276 2.5216q2.52116 0 0-2.5216a7.2647105 7.2647105 0 01-5.04276-2.52115 7.2642736 7.2642736 0 00-5.04275-2.5216l2.52116 2.5216zm12.6071 27.73624h2.5216v-2.5229a2.2276348 2.2276348 0 00-2.5216-2.5216q-2.52116 0-2.52159 1.26101-.00044 1.26103 2.52159 1.26059zm-126.07059 60.512169q2.5216 0 0-1.26058l-5.04275-2.52159-5.04276 1.26102q-2.52116 5.04231 5.04276 7.56391l2.52159-2.52116zm-115.98247-148.763199q2.52115 0 2.52159-1.26058.00044-1.26058-3.78435-3.78218-3.78218-2.52116-3.78218 2.52292 0 2.51984 5.04494 2.51984zm168.93204 103.377989a3.1523217 3.1523217 0 005.04319 0v-2.5216h-5.04319zm700.952 922.83576v2.5211a19.35771 19.35771 0 012.5216 7.5644 7.265584 7.265584 0 01-5.0432-2.5212q-5.0423-5.0427-5.0428-7.5643-5.0432-5.0428-5.0427-7.5644a22.380742 22.380742 0 01-2.5216-10.0855v-2.5216h2.5216l7.5643 10.086a25.989073 25.989073 0 015.0428 10.0855zm15.1282-20.1715q5.0428 5.0432 5.0432 7.5644v5.0427q-2.522 0-5.0432-5.0427a14.529858 14.529858 0 01-5.0427-10.0855 3.1514482 3.1514482 0 015.0427 0zm-45.3852-25.21418h-5.0428l2.5212 2.52116v2.52159h3.7822l-1.2606-2.52159zm-25.21421-17.64986q0-2.52202-5.04275-5.04318v3.78217l2.5216 3.78217 2.52115 2.52159zm27.73621-25.2142h2.5212v7.56435q-5.0432 2.52116-6.3033 0a17.559005 17.559005 0 01-1.2611-7.56435v-8.82318l2.5216-1.26058v6.30333zm40.3425 15.12826-2.5216-2.52115v-1.26103l-2.5211-1.26057a20583.382 20583.382 0 005.0427 5.04275zm-20.1714 10.08594a75.091388 75.091388 0 017.5643 10.08551 39.651901 39.651901 0 015.0428 13.86769q0 3.78217-5.0428 1.26057a26.556902 26.556902 0 01-10.0855-22.69261zm-70.59948 60.51354q2.52116-2.5212 5.04275 2.5216a27.111191 27.111191 0 015.04276 15.1282q-2.52116 0-5.04276-5.0427a24.507478 24.507478 0 01-5.04319-12.6067zm-12.60711-136.15615 5.04276 2.52159v2.52159a7.2625265 7.2625265 0 012.52159 5.04276q0 2.52116-1.26058 2.52116h-1.26101l-5.04276-5.04276a81362.958 81362.958 0 00-5.04275-10.0855q5.04231.00043 5.04231 2.52159zm17.64986 25.2142v-5.04057l-7.56391-7.56434v3.78217l1.26057 2.5216a9.6744872 9.6744872 0 011.26059 3.78217l2.52159 2.52115zm-37.82087-57.99232a19.355089 19.355089 0 002.52115 7.56435h2.5216l1.26058-1.26102v-2.52116l-2.52115-2.52159zm-27.73624-10.08551h-5.04101v2.52116l2.5216 2.52159v2.52204q2.52115 2.5216 3.78218 2.5216 1.26101 0 1.26057-2.5216 2.52116 0 0-5.04276zm-12.60667-12.60711v2.52116a2.2276348 2.2276348 0 002.52116 2.5216v-2.5216zm-277.35321-158.84827v5.04275l2.5216 2.52116v2.5216l-5.04275-5.04276v-2.52159zm234.49134 30.25652 2.52116 5.0432 2.52159 2.52116a11.190152 11.190152 0 00-1.26058-5.04276q-1.26101-2.52116-6.30377-2.5216zm5.04275 2.5216a7.2634001 7.2634001 0 00-2.52159-5.04275l-2.52116-2.5216a7.2638369 7.2638369 0 002.52116 5.04275zm60.51392 25.21421q0 5.04276 2.52116 5.04276a7.2647105 7.2647105 0 00-2.52334-5.04276zm12.60711-5.04275q0 5.04231 2.52115 5.04275a7.2638369 7.2638369 0 00-2.52115-5.04275zm-695.91139 105.89913a4.038571 4.038571 0 002.52158 3.78218 9.6744872 9.6744872 0 003.78218 1.26058h3.78174l2.52159 2.52116h2.5216a2.2276348 2.2276348 0 00-2.5216-2.52116 2.2276348 2.2276348 0 00-2.52159-2.5216h-5.04276a19.349848 19.349848 0 00-7.56391-2.52116zm-47.90683-12.6071a5.1379743 5.1379743 0 01-3.78217-1.26058 9.9697581 9.9697581 0 00-6.30334-1.26102 7.2634001 7.2634001 0 005.04276 2.5216q2.52116 2.52116 3.78218 2.52116h1.26057zm-63.03507-85.72812q-2.52116 0-3.78217-3.78218-1.26103-3.78217-3.78218-3.78173-2.52116-2.52204-2.52116 0v7.56391a19.354216 19.354216 0 017.56391 2.5216l5.04275 2.52115h2.5216zm171.45582-274.83336h-2.5216v2.52115l2.5216-1.26057zm-7.56435 2.52115 3.78217-3.78173-1.26058-1.26102-2.52159 2.5216zm7.56435-27.73623q0-2.52116-2.5216 0a2.2276348 2.2276348 0 01-2.52116 2.52159h2.52116a7.2647105 7.2647105 0 005.04275-2.52159zm-5.04276-80.68407a2.2276348 2.2276348 0 00-2.52159 2.52116v-2.52116a7.2638369 7.2638369 0 00-2.52116 5.04276 7.2625265 7.2625265 0 015.04275-2.52248zm-15.1287-35.29972a2.2276348 2.2276348 0 00-2.52116 2.52117zm22.69261 70.59943a2.2276348 2.2276348 0 00-2.52115 2.52117h-2.5216l7.56435-2.52117zm12.6071 45.38523a3.1514482 3.1514482 0 000-5.04275q-2.52116 0-2.52116 5.04275zm-12.6071 10.08551-5.04275 2.52159h2.5216zm-12.60666-42.86363q2.52116-2.52203 0-2.5216zm10.08551-45.38654a5.1375375 5.1375375 0 003.78217-1.26057q1.26058-1.26058-1.26102-3.78218zm80.68493 7.56435v-2.52071a2.2276348 2.2276348 0 00-2.52117 2.52159zm143.72044-57.99144q-2.52115-2.52204-2.52158 0zm45.38523-20.17146q5.04276 0 5.04276-2.52115zm-22.69261 47.90682-2.52116 2.52159a2.2276348 2.2276348 0 00-2.5216 2.52116h2.5216a7.2638369 7.2638369 0 002.52116-5.04275zm-60.51392 73.12102h-2.5229l2.52115 2.52116a2.2276348 2.2276348 0 002.5216-2.52116zm-27.73624-30.25695v2.52116a2.2276348 2.2276348 0 002.5216-2.52116zm93.29203-50.42842v-2.52116h-2.52115zm-73.11883-110.94189h2.52116v-2.52116zm-133.63582 52.94956q0 2.52204 2.5216 0zm-103.37755 2.5216 3.78393-3.78217-1.26277-1.26058q-1.26057-1.26102-7.56391 2.52115 0 2.52204 5.04275 2.5216zm-47.90681-75.64218 2.52116-2.5216h-2.52116zm716.08022 42.86363q2.52116 2.52202 7.56435 0l2.52116-2.52116v-1.26102l-2.52116-1.26057-2.52159 2.52159a7.2647105 7.2647105 0 00-5.04276 2.52116zm-15.1287 32.77855q-2.52116 0-7.56391 7.56391a5.1362272 5.1362272 0 003.78174-1.26057l3.78217-3.78218zm42.86407-50.42841h-2.51897a4.0376974 4.0376974 0 00-3.78219 2.5216q-1.26101 2.52115 2.52116 1.26057 3.78218-1.26057 3.78-3.78217zm98.33483-40.34246a8.9144706 8.9144706 0 00-7.564-7.56611v2.5216l2.5212 2.5216zm-2.5212 10.0855 2.5212 2.52159v-5.04275h-2.5212zm95.8137 0-2.5216-2.52116v2.52116q-2.5212 2.52159 0 2.52159 0 2.52116 2.5216 0h2.5211zm98.3348 312.65511v-2.5216l-5.0428 10.08551a75.134193 75.134193 0 01-7.5643 10.08595l-2.5212 2.52115a5.1366639 5.1366639 0 00-3.7822 1.26058l-3.7821 3.78218h-2.5216a7.265584 7.265584 0 005.0432-2.52116l5.0427-7.56435q7.5644-7.56391 10.0855-7.56435a29.33271 29.33271 0 015.0428-7.56391zm22.6926-378.21179a2.2276348 2.2276348 0 002.5216-2.52116q0-2.52202-1.2606-1.26057a5.13448 5.13448 0 00-1.261 3.78173zm0 10.08595a2.2276348 2.2276348 0 00-2.5212 2.52116l-2.5216 2.52159a4.4552698 4.4552698 0 005.0428-5.04275zm-935.44292-5.04275-2.52116 2.52115zm5.04319 7.56391 5.04276 2.52159a5.1357904 5.1357904 0 00-1.26102-3.78304 9.9736892 9.9736892 0 00-6.30333-1.26059zm10.08551 5.04275 2.52116 2.5216v-2.5216l-2.52116-2.52116q-2.5216 0 0 2.52116zm-20.1697 5.0432-3.78393-3.78219-3.78217-1.26101h-2.52115l5.04275 2.5216h2.52159a2.2276348 2.2276348 0 002.52291 2.5216zm-5.04276-7.56436q-2.52115 2.52116 0 2.52116h5.04276v-2.52116zm0 17.64986v2.52116h2.5216q2.52116-2.52116 0-2.52116zm-10.0855 7.56435-2.5216-2.52159a2.5215953 2.5215953 0 000 5.04275v-2.52116zm-10.0877-30.25696a7.2651473 7.2651473 0 002.5216 5.04275v-2.52159a2.2276348 2.2276348 0 00-2.5216-2.52116zm-65.55623-108.418549h2.52116a7.265584 7.265584 0 015.04231-2.52334 7.2642736 7.2642736 0 015.0432-2.5216h-7.56392q-5.04275 0-5.04275 2.5216zm-45.38567 12.60711-2.52115-2.52378a2.2276348 2.2276348 0 002.52115 2.52158zm-55.47072-2.52378v2.52158h5.04275l-2.52159-2.52158q0-2.52116-2.52116 0zm50.42798-25.21378q-2.52117-5.04275-2.5216-2.52159zm78.16377 37.82087a11.190152 11.190152 0 00-1.25883-5.04406q-1.26101-2.52116-3.78217 0l2.52116 2.5216zm52.94958 10.08595a19.349848 19.349848 0 00-7.56435-2.5216v2.5216a10.274638 10.274638 0 007.56435 2.52116zm15.12825-5.0432v-2.52115l-2.52116 2.52115zm-55.47247 65.556679a5.1362272 5.1362272 0 00-1.26102-3.78217q-1.26058-1.26059-1.26058 1.26101a2.2276348 2.2276348 0 002.52334 2.52116zm-75.64044-47.907249h2.52116a7.2647105 7.2647105 0 00-5.04057-2.52072zm143.71827 60.514349 2.5216 2.5216h2.52115q.002-5.04275-5.04275-2.5216zm-52.94782 2.5216v-10.08595a10.273765 10.273765 0 00-2.52116-7.56391 2.2276348 2.2276348 0 00-2.5216 2.52116v5.04275l5.04276 7.56435zm-42.86406-68.078269q2.52159-2.52116-2.52116-2.52116zm-52.94958 27.73623q2.52159 0 0-2.52158h-2.52116v2.52158zm12.6071-10.08593 2.5216 5.04275-2.5216-2.52115zm-73.11884-27.73625a2.2276348 2.2276348 0 00-2.52158-2.52158q-2.52117 0 0 2.52158zm128.59132 52.949579q0-2.52116-1.26058-1.26058a1.5750689 1.5750689 0 000 2.52116q1.26058 1.26058 1.26058-1.26058zm10.08551-10.08551h-2.52247a3.151885 3.151885 0 005.04275 0zm63.03552 30.25696h-5.04451a2.2276348 2.2276348 0 002.5216 2.52115h5.04275zm-15.13001-2.52028h-2.5216v2.52159a2.2276348 2.2276348 0 002.5216-2.52159zm289.96205-10.08551v-2.52248q2.52116 0 0-2.52115-2.52116-2.52116-2.52158 2.52115zm-73.11883-20.17146h3.78217l-1.26057-2.521159-2.52378 5.041889zm-2.52116 20.17146h2.52116v-2.52248a2.2276348 2.2276348 0 00-2.52116-2.52115q-2.52378 0-.002 5.04275zm-10.08551-5.04276h2.5181v5.04276h-2.52028q7.56391 2.52116 7.56391 0l-2.52115-2.5216v-1.26145l-2.52248-3.78217h-2.52028zm100.85508 40.34247a2.2276348 2.2276348 0 00-2.5216 2.52116q-2.52115 2.52159-1.26058 3.78217l1.26058 1.26059a5.1362272 5.1362272 0 011.26058-3.78174l1.26102-1.26102q2.52028-2.52203-.00088-2.52203zm237.01205-95.813629a5.1366639 5.1366639 0 013.78217 1.26057 5.1379743 5.1379743 0 003.78217 1.26103l-2.52202-1.26189zm22.69305 12.6071v2.51985h2.52115l-5.04275-5.04276v2.5216zm118.50624 161.370299v-3.78304l-2.5216-1.26102v2.52116zm7.56391 12.60667q0 2.52204 1.26102 1.26102a5.1375375 5.1375375 0 001.26058-3.78218l-5.04276-5.04275q-5.04318-2.52203-5.04275 0v2.52116l2.52116 5.04275zm-7.56391 17.64986h2.52116l-2.52203-5.04319q-2.52203 0-2.5216 5.04275zm-176.49901-17.64986a178.82229 178.82229 0 0022.69305-7.56391q7.56392-5.04318 7.56392-7.56435 0-2.52116-2.52116-1.26058l-20.17146 10.08551-3.78217 2.5216-1.26058 1.26057h-2.5216zm37.82131-20.17101a4.4552698 4.4552698 0 00-5.04275 5.04275h5.04275l2.52073-2.52247v-5.04275zm-115.98552 79.42348q0-1.26057-2.52159 1.26058a4.4552698 4.4552698 0 00-5.04276 5.04276v2.52334q2.52116 2.52116 7.56435-5.04276zm-15.1287 28.99638a10.274638 10.274638 0 007.56435-2.5216q5.04276-2.52116 5.04276-5.04275a7.2634001 7.2634001 0 01-5.04276-2.52159l-2.52072-2.52117a12.559493 12.559493 0 00-12.6071 2.52117 19.355089 19.355089 0 00-2.52116 7.56434 8.2365708 8.2365708 0 0010.08463 2.5216zm15.1287-15.12869a3.1523217 3.1523217 0 00-5.04319 0 4.1185038 4.1185038 0 00-1.26058 5.04275q1.26058 2.52159 3.78218 0a7.2651473 7.2651473 0 002.52159-5.04275zm-10.08594 0 2.52159-2.52117a3.1514482 3.1514482 0 00-5.04275 0l-2.5216 2.52117 2.5216 2.52158zm-10.08551 2.52158q2.52116-2.52202 0-2.52158l-2.5216 2.52158zm-12.6071 90.77045v2.52203h2.52159l1.26058-1.26058v-1.26145zm0 17.64986 1.26058-2.52116-1.26058-2.52159q-1.26058-2.52116-2.52116 2.52159-1.26058 5.04276 2.52116 2.52116zm-2.52116 15.1287-2.5216 2.52116a20.730545 20.730545 0 016.30334 1.26101 20.743649 20.743649 0 006.30377 1.26058q5.04275 2.52116 5.04275 1.26058 0-1.26058-5.04275-3.78217a14.602802 14.602802 0 00-10.08551-2.52116zm-30.25696 37.82087a5.1379743 5.1379743 0 003.78217-1.26058 1.5755057 1.5755057 0 000-2.52116q-1.26101-1.26101-3.78217 1.26058zm-2.5216-7.56391h-2.52116l-2.52159 2.52116 2.52159 2.52159zm-393.3396-320.21902v2.5229l2.52116-2.52116zm-40.3429-20.17146v2.5216l2.52159-2.5216zm7.56435-52.949559-2.52117-2.52116q-2.52203 2.52116 0 2.52116zm5.04274-5.04276-2.52116 2.5216h2.52116zm2.5216-25.21421q0 2.52204 1.26058 2.5216h1.26058a2.2276348 2.2276348 0 01-2.52116-2.5216zm-37.82131 15.1287h2.5216a2.2276348 2.2276348 0 00-2.5216-2.52159zm1021.17106 73.118839h2.5211v-2.51941q0-2.52204-5.0427-2.5216a7.2625265 7.2625265 0 002.5216 5.04276zm5.0427 2.5216v-2.51985a2.2276348 2.2276348 0 00-2.5216 2.52159zm-1066.55622 630.35209-2.5216-2.52115a2.2276348 2.2276348 0 01-2.52115-2.5216v-2.52116a3.1514482 3.1514482 0 00-5.04276 0v5.04276a2.2276348 2.2276348 0 002.52116 2.52115h2.5216a5.1357904 5.1357904 0 013.78217 1.26102 3.6319184 3.6319184 0 002.52115 1.26058q1.26102 0 1.26102-2.5216zm-70.59943-57.99057 2.52159 2.52159v2.52116l2.52116-2.52116zm90.77088 126.07059a2.2276348 2.2276348 0 002.52115 2.52116v-2.52116zm7.56391 17.64986q-2.52116-2.52116-2.52116 0 0 2.52115 2.52116 0zm5.04319-15.1287h-2.5229a2.2276348 2.2276348 0 002.52158 2.52159zm10.08551 5.04319q-2.5216-2.52204-2.5216 0zm-20.17146-2.5216v2.5216h2.5216zm10.08595 12.60711 5.04276 2.52115a2.2276348 2.2276348 0 00-2.5216-2.52115zm15.12826-5.04276v-2.52159l-2.52159 2.52159zm968.22101-242.05524h-2.5211l2.5211 5.04275zm-10.0855 10.08551v2.52159h2.5216zm-433.68256 73.11884-2.52115-2.5216v5.04275h2.52115zm2.5216 10.0855-2.5216 2.52116h2.5216zm47.90682 15.12827 2.52115 2.52159q0 2.52116 2.5216 0h-2.5216v-2.51941l-2.52115-2.52116zm-12.60711-22.69262v2.52378q2.52116-5.04275-2.52159-5.04275zm15.12826-52.9487-2.52115-2.52116zm-10.0855 0 2.52159 2.5216a2.2276348 2.2276348 0 002.52116-2.5216 3.151885 3.151885 0 00-5.04275 0zm272.31219 17.64986q0 2.52116-2.5211 1.26059a11.1919 11.1919 0 00-5.0432-1.26059h2.5216l2.5216 2.5216h5.0427zm-98.33478 115.98508 2.52115 2.52116v-2.51984zm-2.5216 103.37755h-2.52246v2.52378h2.52115z" style="stroke-width:43.6791"/></svg>