<svg height="960" style="" width="1200" xmlns="http://www.w3.org/2000/svg"><path d="m558.57753 0c-29.742 55.799875-45.29898 118.06008-45.29936 181.29151 0 212.86729 172.56303 385.43031 385.43031 385.43031 63.23302-.006 125.49332-15.56963 181.29152-45.31817-3.0443 35.27567-9.9679 70.10826-20.6454 103.8667-51.509 18.63882-105.86854 28.17212-160.64612 28.17329-50.8503.004-101.36732-8.2072-149.5989-24.31523 16.11241 48.22455 24.32959 98.73507 24.33405 149.58009-.00096 54.77757-9.53447 109.13714-28.17329 160.64615-33.75235 10.67614-68.57856 17.59973-103.84789 20.64535 29.742-55.79987 45.29898-118.06008 45.29936-181.2915.00039-212.58098-172.11575-385.0255-384.69633-385.43032h-.73396c-63.23301.006-125.49333 15.56964-181.29152 45.31817 3.04427-35.27567 9.96786-70.10826 20.64535-103.86669 51.509-18.63882 105.86857-28.17212 160.64615-28.1733 50.85031-.004 101.36732 8.20721 149.59891 24.31523-16.11242-48.22454-24.3296-98.73506-24.33406-149.58008.00096-54.77758 9.53448-109.13715 28.1733-160.646153 33.75234-10.676141 68.57855-17.599728 103.84788-20.645357zm101.26956 1.957258c25.54633 3.193603 50.79558 8.42974 75.50519 15.658108-43.46818 43.378992-67.89776 102.265874-67.90198 163.676144 0 127.72037 103.53782 231.25819 231.25818 231.25819 61.40756.00075 120.29402-24.42188 163.67612-67.88317 7.2274 24.70347 12.4636 49.94639 15.6581 75.48638-51.7219 38.839-114.65323 59.84032-179.33422 59.84709-164.97214 0-298.70849-133.73635-298.70849-298.70849.007-64.68099 21.00809-127.612284 59.8471-179.334252zm147.67927 43.24799c39.04954 18.638669 75.41024 42.452902 108.10116 70.800232-5.23252-1.3607-10.60968-2.08734-16.01568-2.16427-.30112-.002-.60223-.002-.90336 0-37.25177 0-67.4503 30.19852-67.4503 67.4503 0 37.25177 30.19853 67.45031 67.4503 67.45031 37.25178 0 67.45031-30.19854 67.45031-67.45031.002-5.70144-.71892-11.38013-2.14546-16.90022 28.33789 32.68042 52.14567 69.02825 70.78147 108.06353-30.4079 45.39543-81.44769 72.64113-136.08632 72.64457-90.46859 0-163.80788-73.33929-163.80788-163.80788-.00077-54.63508 27.23749-105.67416 72.62576-136.086262zm-444.63753 15.394627c-8.9202 39.610885-13.42056 80.088775-13.41854 120.691635.002 16.86438.78069 33.71973 2.33366 50.51245-16.79272-1.55296-33.64807-2.33168-50.51245-2.33366-40.59657-.00063-81.06808 4.49971-120.67282 13.41854.76503-1.35876 1.53665-2.71381 2.31485-4.06508.83931-1.45355 1.68621-2.90269 2.54068-4.34739 0 0 .35758-.60224.35758-.60224.17534-.29504.351-.5899.52698-.88456.8027-1.34642 1.61196-2.68891 2.42775-4.02743.18161-.29506.36354-.5899.54577-.88456.81532-1.33393 1.63714-2.66389 2.46541-3.98982.18161-.28878.36354-.57728.54577-.86567.83416-1.32777 1.67479-2.65143 2.52186-3.97098.18788-.28879.37606-.57728.56456-.86568.85304-1.3153 1.71248-2.62643 2.57832-3.93334.18787-.28879.37606-.57729.56455-.86568.86567-1.30281 1.73765-2.60139 2.61596-3.8957.19418-.28252.38866-.56485.58345-.84689 1.07589-1.58104 2.16119-3.15566 3.25583-4.72377 1.08859-1.56227 2.18643-3.11808 3.29346-4.66733.91594-1.27798 1.83812-2.55148 2.76653-3.82043.20045-.27625.40119-.55223.60223-.82809.92861-1.2592 1.86334-2.51388 2.80416-3.76397.20671-.27626.41373-.55233.62103-.82811.94112-1.25299 1.88843-2.50139 2.84178-3.74514.20669-.27.41376-.5397.62102-.80921.96001-1.24055 1.92615-2.4764 2.89826-3.70751.21305-.27.42628-.5397.63991-.80921.9664-1.22802 1.93877-2.45133 2.91709-3.66987.2193-.26999.4388-.5397.65869-.80922.98528-1.21555 1.97647-2.42631 2.97354-3.63222.2193-.26373.43881-.52717.6587-.79042.99789-1.20307 2.00163-2.40128 3.01117-3.59459.22558-.26373.45135-.52717.67749-.79042 1.01051-1.19058 2.02679-2.37626 3.04883-3.55695.23183-.26373.46396-.52718.69637-.79043 1.02311-1.17809 2.05194-2.35121 3.08646-3.51931.23184-.25747.46396-.51465.69637-.77163 1.04194-1.17194 2.08959-2.33878 3.14292-3.5005.23184-.2512.46397-.50211.69637-.75284 1.2902-1.41293 2.58879-2.81817 3.89571-4.21564 1.06721-1.14067 2.13994-2.27615 3.21819-3.40639.2381-.25121.47649-.50212.71517-.75275 1.08607-1.12823 2.17764-2.25116 3.27466-3.36875.2381-.24495.47649-.48959.71516-.73396 1.09868-1.11574 2.20279-2.22613 3.31229-3.33112.24437-.24493.48901-.48959.73396-.73394 1.10502-1.10323 2.21542-2.20106 3.33112-3.29348.25063-.24494.50154-.4896.75275-.73395 0 0 .56455-.54577.56455-.54577 1.17984-1.14152 2.3655-2.277 3.55696-3.4064 1.13649-1.07829 2.27825-2.15103 3.42521-3.21819.25698-.23867.51417-.47706.77163-.71516 1.14289-1.05948 2.29091-2.1134 3.44404-3.16173.25698-.23242.51415-.46455.77162-.69639 1.16171-1.05332 2.32855-2.10097 3.50049-3.1429.25698-.22605.51417-.45191.77163-.67748 1.17436-1.03456 2.35375-2.06339 3.53814-3.08646.26325-.22615.52669-.45191.79042-.67748 1.1807-1.02204 2.36636-2.03831 3.55695-3.04882 1.46065-1.23201 2.92863-2.45531 4.40384-3.66987.26325-.21989.5267-.43938.79042-.65869 1.21216-.99713 2.42919-1.98832 3.65105-2.97354.26951-.21362.53922-.42687.80922-.63991 1.21854-.9783 2.44185-1.95067 3.66985-2.91708.27578-.21362.55185-.42686.8281-.6399 1.23115-.96583 2.46701-1.92566 3.70752-2.87945.26951-.20726.53921-.41433.8092-.62102 1.2438-.9471 2.4922-1.88806 3.74516-2.82298.28203-.20732.56436-.41434.84688-.62105 1.25014-.93453 2.50481-1.863 3.76397-2.78533.28204-.20733.56437-.41435.84689-.62106 1.26277-.91577 2.52999-1.82541 3.8016-2.72887.28204-.20106.56436-.40179.84689-.60224 1.27538-.90335 2.55515-1.8005 3.83927-2.6914.2883-.20106.5769-.40181.86567-.60224 1.28177-.88448 2.56779-1.76276 3.85807-2.63477.2883-.19479.57689-.38926.86567-.58342 1.30062-.87207 2.60548-1.7378 3.91454-2.59714 1.59348-1.05086 3.19319-2.09224 4.79905-3.12409 1.10123-.70711 2.20534-1.40972 3.31229-2.10782.50752-.32089 1.01568-.64083 1.52441-.95981.29466-.18224.58951-.36418.88456-.54578 1.32593-.82827 2.65589-1.650078 3.98982-2.465396.29466-.182247.5895-.364176.88456-.54578 1.33856-.80951 2.68106-1.612502 4.02744-2.408947.29466-.175968.58952-.351619.88456-.526944.50135-.289478 1.00321-.578054 1.50559-.865718 1.15148-.676032 2.30579-1.347283 3.46285-2.013725.40114-.232694.80266-.464794 1.20448-.696336.50761-.289498 1.01574-.578064 1.5244-.865709zm-61.5597 419.400125c164.95745.0212 298.67086 133.75105 298.67086 298.7085-.007 64.68098-21.00809 127.61227-59.84709 179.33425-25.54633-3.19361-50.79559-8.42974-75.50519-15.65811 43.46818-43.379 67.89775-102.26588 67.90198-163.67614.005-126.92354-102.28829-230.13232-229.20683-231.25819h-.0193c-.67739-.003-1.35473-.003-2.03209 0-61.40755-.00076-120.29406 24.42187-163.67614 67.88317-7.22738-24.70348-12.46351-49.9464-15.6581-75.48638 51.72197-38.83901 114.65326-59.84032 179.33425-59.8471h.0375zm.0376 134.90061c90.43922.0415 163.73268 73.36865 163.73267 163.80789.005 54.63152-27.22582 105.66986-72.60694 136.08626-39.06274-18.63573-75.43626-42.45008-108.1388-70.80024 5.53147 1.43606 11.22301 2.16331 16.93786 2.16428 37.25177 0 67.4503-30.19853 67.4503-67.4503.003-36.90183-29.64843-66.95609-66.54695-67.45031-.30112-.002-.60224-.002-.90335 0-37.25178 0-67.45031 30.19854-67.45031 67.45031-.002 5.70143.71892 11.38013 2.14546 16.90021-28.33265-32.68735-52.1341-69.04153-70.76257-108.08234 30.4084-45.38273 81.43904-72.62026 136.06745-72.62576h.0752zm718.01457 102.21056c-.7651 1.35876-1.5367 2.71381-2.3148 4.06508-.8393 1.45355-1.6862 2.90269-2.5407 4.34738-.1941.32647-.3886.65264-.5835.97863-.3687.61563-.7388 1.2304-1.1103 1.84435-.7039 1.17612-1.4128 2.34924-2.1267 3.51931 0 0-.2069.33879-.2069.33879-.8709 1.42232-1.7492 2.84009-2.6348 4.25328-.8775 1.39092-1.762 2.77734-2.6536 4.15919 0 0-.075.13172-.075.13172-.4872.75419-.9765 1.50695-1.468 2.25838-.7417 1.13862-1.4882 2.2741-2.2395 3.4064-.8657 1.3028-1.73768 2.60138-2.61598 3.8957-.19416.28252-.38861.56475-.58345.84688-1.07588 1.58104-2.16118 3.15567-3.25582 4.72378-.96516 1.37893-1.93753 2.7528-2.91709 4.12155-.6057.84891-1.21426 1.69577-1.82551 2.54068-.53113.7355-1.06439 1.46945-1.59969 2.20191-.76122 1.03816-1.52653 2.07326-2.29602 3.10528-.33793.44604-.67672.8914-1.01627 1.33621 0 0-.43284.60223-.43284.60223-.94121 1.24672-1.88849 2.48884-2.84178 3.72634-.61226.7986-1.22708 1.59533-1.84436 2.39011-.76778.9879-1.53939 1.97282-2.31483 2.95472-1.13972 1.44943-2.28775 2.89232-3.44403 4.32856-.28811.34544-.57661.6905-.86568 1.03509-.91087 1.12076-1.82678 2.23742-2.7477 3.34993-.23184.28252-.46395.56485-.69637.84689-.81788.9819-1.63971 1.96054-2.4654 2.9359-.22557.26373-.45134.52717-.67749.79042-1.0105 1.19058-2.02678 2.37625-3.04882 3.55696-.23183.26373-.46387.52717-.69628.79041-2.2805 2.61573-4.58921 5.20675-6.9257 7.7726-1.14141 1.25445-2.28944 2.50284-3.44403 3.74516 0 0-.54577.58344-.54577.58344-1.02988 1.10897-2.06498 2.21307-3.10527 3.31229-.29446.31403-.58932.62777-.88456.94102-.54442.56591-1.09017 1.13053-1.63732 1.69379-.96185.99534-1.92791 1.98653-2.89826 2.97354-1.34068 1.36304-2.68945 2.71809-4.04627 4.06508-1.22925 1.22369-2.46512 2.44072-3.70751 3.65105-.7566.73646-1.51572 1.47045-2.2772 2.20192-.61322.59135-1.228 1.18101-1.84434 1.76906-.63201.5977-1.26559 1.19364-1.90081 1.78788-.78175.73656-1.56586 1.47058-2.35248 2.20194-.51966.47792-1.04032.95471-1.56204 1.43029-.88774.81885-1.77856 1.63441-2.67242 2.44659 0 0-.30113.28233-.30113.28233-1.16175 1.04704-2.32859 2.08842-3.50048 3.12409-1.03119.91404-2.06629 1.82369-3.10528 2.72887-.40094.352-.80236.70332-1.20447 1.05391-.26325.22616-.52668.45192-.79041.67749-1.18071 1.02203-2.36637 2.03831-3.55695 3.04882-1.46066 1.232-2.92863 2.45531-4.40385 3.66986-.26325.21988-.52669.43939-.79042.6587-1.21221.99083-2.42924 1.97575-3.65105 2.95471-.82588.66766-1.65395 1.33268-2.48422 1.99491-.66361.52872-1.32854 1.05566-1.9949 1.58086-.27578.21363-.55184.42686-.8281.63991-1.26232.98494-2.52954 1.9636-3.80162 2.9359-.83223.63635-1.66662 1.26992-2.50303 1.9008-.65118.49722-1.30358.99285-1.95726 1.48677-.28204.20726-.56437.41433-.84689.62102-1.33732.99814-2.67983 1.98933-4.02745 2.97353-1.07577.78233-2.15478 1.56025-3.237 2.33367-.4949.35854-.9905.71613-1.48677 1.07272-1.00104.7064-2.00478 1.40905-3.01118 2.10782-.53247.37118-1.06571.74138-1.59968 1.11037-.95115.66217-1.90471 1.32084-2.86062 1.97609-.68886.47225-1.3789.94277-2.07017 1.41149-.78262.52303-1.5668 1.04365-2.35249 1.56204-.74514.49769-1.49166.99327-2.23956 1.48677 0 0-.58345.39526-.58345.39526-1.30699.85325-2.61812 1.70016-3.93335 2.54068-1.10122.70707-2.20533 1.40972-3.31229 2.10782-.50751.32087-1.01568.64088-1.5244.95982-.29466.18221-.58952.36413-.88456.54577-1.33841.83465-2.68091 1.66274-4.02745 2.48421-1.46944.89873-2.94368 1.78952-4.42266 2.67242 0 0-.56456.31991-.56456.31991s-.77163.47051-.77163.47051c-1.35119.79081-2.70624 1.57494-4.06508 2.35248-.30093.17595-.60205.35161-.90336.52699-.90798.51734-1.81758 1.03178-2.72888 1.54323 8.91882-39.60479 13.41914-80.07633 13.41849-120.67293-.002-16.86439-.78068-33.71973-2.33367-50.51245 16.79274 1.55296 33.64807 2.33167 50.51246 2.33366 40.59656.00062 81.06806-4.49972 120.67276-13.41854z" style="stroke-width:.96"/></svg>