<svg height="960" style="" width="1198" xmlns="http://www.w3.org/2000/svg"><path d="m827.91081 433.44463c-3.5667 9.8084 1.3375 14.7126 8.0251 8.025 4.0125-4.0125 4.0125-6.6875 0-10.7001-4.0126-4.0125-5.7959-3.1208-8.0251 2.6751zm-466.7929-3.5668c-3.5667 3.5668 1.3375 15.1586 6.2418 15.1586 4.9042 0 5.35-12.0377 0-15.1586-1.7834-1.3375-4.9043-1.3375-6.2418 0zm-235.40269-19.6169c-7.57925 14.2669-7.57925 100.3137-.44584 144.0059 10.25429 61.0798 32.99205 124.3889 59.29653 164.9602 4.4584 7.1334 9.8084 16.496 11.5918 20.0627 5.7959 12.9294 40.5713 55.7299 64.2007 79.8051 135.0891 134.64325 333.0414 176.9979 510.0392 108.78461 175.2146-67.76741 299.15769-238.52361 306.73689-422.65491l.8917-22.2919-72.2258-1.3375c-82.92599-1.3375-72.22589-8.0251-81.58849 50.3798-15.6043 91.3968-75.3467 178.3353-156.0435 226.4859-15.1585 9.3626-28.9795 16.496-31.2086 16.496-2.2292 0-9.3627 2.675-16.4961 6.2418-58.8506 29.4253-184.5771 29.4253-243.4278 0-7.1334-3.5668-14.7126-6.2418-17.3877-6.2418-2.2292 0-13.3751-6.2417-24.5211-13.3751-10.7001-7.5793-21.4002-13.3752-23.1836-13.3752-6.6876 0-57.959-49.4881-74.9009-72.2258-42.3546-57.959-60.634-106.5554-69.9966-186.3605-.4458-5.3501-9.8084-7.1334-42.8005-8.9168l-42.3546-2.2292 1.7833-35.2212c1.7834-40.5713 0-42.8005-31.65452-42.8005-17.3877 0-21.84608 1.7834-26.30447 9.8084zm53.50059-158.2726c-3.5667 4.4584-10.2543 16.0502-14.71264 25.8586-4.45839 9.8085-9.80845 21.4003-12.03764 25.4128-5.7959 11.146-5.7959 11.5918 13.82099 21.4003 30.31699 15.6043 37.45039 12.9293 53.05479-20.0628 7.5792-16.0502 13.821-30.317 13.821-32.5462 0-3.5667-38.3421-27.642-44.138-27.642-1.7834 0-6.2418 3.5667-9.8085 7.5793zm79.8051-109.6763c-24.9669 25.8587-26.7503 38.3421-8.0251 50.8256 7.1334 4.9042 13.3752 10.2543 13.3752 12.0377 0 2.2291 3.5667 3.5667 8.0251 3.5667 9.8084 0 49.9339-40.5713 49.9339-50.3798 0-10.2543-26.3045-38.7879-35.2213-38.3421-4.0125.4458-16.496 10.2543-28.0878 22.2919zm337.4997-27.642c-4.9042 8.0251-10.7001 85.1552-11.1459 143.1142 0 28.0878-1.3375 68.2133-3.1209 88.276-3.5667 47.7047-8.9168 50.8256-37.4504 19.6169-12.0377-13.3752-22.7378-21.4002-24.0753-18.7252-6.2417 9.8084 26.7503 89.1677 54.3923 131.0765 8.0251 12.0376 13.3751 23.6294 12.0376 25.8586-3.1208 4.9043-15.1585 4.9043-15.1585 0 0-2.2292-4.4584-5.7959-10.2543-8.4709-16.9418-8.0251-59.7423-49.4881-82.0342-79.8051-11.5918-15.6043-22.7378-28.5337-24.967-28.5337-12.9293 0 17.8335 88.7219 47.2589 135.9808 13.821 22.2919 44.138 60.1882 56.6215 70.4425 13.3751 11.5918 17.3877 20.9544 8.9167 20.9544-2.2292 0-17.8335-6.2418-34.3295-14.2669-32.5462-15.1585-70.8883-42.8005-93.1803-66.8757-18.7252-20.0628-53.0547-66.43-56.6215-76.2384-3.5667-8.9168-12.0376-10.2543-12.0376-1.3375 0 7.1334 24.967 55.2839 33.8837 65.5382 3.5667 3.5667 6.2418 8.471 6.2418 10.2543 0 5.7959 26.3044 38.788 53.0547 65.9841 28.5337 29.8712 24.967 32.9921-12.9293 11.5918-3.5667-1.7833-11.1459-5.3501-16.496-8.0251-5.7959-2.2292-10.2543-6.2417-10.2543-8.9168 0-2.2291-2.675-4.4583-6.2417-4.4583s-7.5793-3.1209-8.9168-7.1335c-1.3375-3.5667-4.9042-5.35-7.5792-3.5667-11.5918 7.1335 65.0924 65.5383 107.447 81.1426 76.6843 28.5337 105.6638 28.9795 168.527 2.6751 8.0251-3.5667 16.496-6.2418 18.7252-6.2418 17.8335 0 108.3387-71.78 98.5303-77.5759-2.675-1.7833-6.2417 0-7.5793 3.5667-1.3375 4.0126-5.35 7.1335-8.9167 7.1335s-6.2418 2.2292-6.2418 4.4583c0 2.6751-4.4584 6.6876-9.8084 8.9168-5.7959 2.675-13.3752 6.2418-16.9419 8.0251-38.7879 21.8461-40.5713 18.2794-8.4709-16.0502 50.3797-53.5006 103.4345-143.56 84.2635-143.56-2.6751 0-6.2418 3.5667-7.5793 7.5793-9.3626 24.9669-59.7423 83.3718-94.9636 110.1221-27.642 21.4002-82.9259 49.0422-89.6135 44.5838-2.2292-1.3375 6.2417-13.821 19.6169-28.0878 37.0046-40.1254 63.7549-84.7093 86.0468-143.56 8.9168-24.5211 12.9293-53.0548 7.1334-53.0548-2.2292 0-9.3626 7.5793-15.1585 16.4961-24.9669 37.8962-95.4094 103.8803-110.1221 103.8803-6.2417 0-6.2417-14.7126 0-20.9544 8.9168-8.9167 48.5964-86.4926 48.5964-94.9636 0-2.2292 3.1209-11.1459 7.1334-19.6169 4.0126-8.4709 6.2418-18.7252 4.4584-22.7377-2.2292-5.7959-6.6876-2.6751-24.0753 16.0502-12.0376 12.9293-23.6294 22.2919-26.3044 20.5085-7.1335-4.4584-10.2543-38.3421-14.7127-155.1518-4.0126-100.7594-7.5793-128.4014-15.6044-115.918zm-182.7937-75.7925c-19.6169 6.6876-52.1631 24.5211-54.3923 29.8712-2.2292 5.7959 7.5792 24.0753 21.8461 40.1254l8.4709 9.3627 31.2087-15.6044c23.1836-11.5918 30.7628-17.3877 28.9795-22.7378-13.3752-42.8005-17.8336-47.7047-36.1129-41.0171zm131.5223-34.7753997c-30.7628 5.3501-37.8963 11.5917997-31.2087 28.0877997 2.2292 6.6876 4.4584 16.9419 4.4584 23.1836 0 11.146 0 11.146 39.2338 9.8085l38.7879-1.3375 1.3376-24.967c.8916-18.7252-.4459-27.1961-5.7959-32.5461997-8.0251-8.0251-11.146-8.0251-46.8131-2.2292z" style="stroke-width:.445838"/></svg>