<svg height="960" style="" width="1200" xmlns="http://www.w3.org/2000/svg"><path d="m380.8543 512.26655c-6.5738 7.4504-7.4503 16.2155-6.1356 66.1766.8765 45.1402 2.6296 58.2879 7.8886 61.3557 3.9443 2.6295 92.4719 3.9443 225.7014 3.0678l219.1277-.8765v-67.9296-67.9296l-219.5659-1.3147c-212.1155-.8765-219.5659-.8765-227.0162 7.4503zm112.1933-191.5175c-2.1912 3.0678-5.259 10.5181-6.1355 16.6537-.8766 6.5738-6.1356 13.1476-13.1477 16.6537-15.7772 7.4503-46.0168 42.0725-55.6584 64.8618-4.8208 10.0798-9.2034 28.9248-9.6416 41.6342l-1.753 23.6658h197.2148 197.2148l1.3148-15.339c2.6295-35.0604-28.4866-88.5275-64.4235-111.3168-10.9564-7.0121-17.9685-15.7772-20.598-25.4188l-4.3826-14.4624-107.8107-1.3148c-82.392-.8765-108.6873.4383-112.1934 4.3826zm-9.6416-313.7907369c-61.3557 16.2154399-94.6631 29.3630899-145.0625 56.9731699-29.8013 15.77717-89.404 85.459767-112.6316 131.038267-35.06041 69.2444-41.19591 94.2249-41.19591 168.29.4382 53.0289 1.3147 63.1088 11.3946 89.8424 13.1476 36.3751 28.48661 60.0409 53.90541 84.145l18.845 18.4067v46.455 46.4551l25.4188 37.2517c18.8449 28.0483 27.1718 37.2517 35.0604 37.2517 5.259 0 9.6416-1.753 9.6416-3.9443s-7.0121-20.1598-15.3389-39.8813c-13.586-31.1161-15.339-40.3194-15.339-71.8738 0-22.351 2.1913-38.1282 5.2591-41.196 4.3825-4.3825 4.3825-7.4503 0-14.0242-2.6295-4.8208-5.2591-17.0919-5.2591-27.61 0-16.2155 5.6973-28.4866 35.0604-77.133 19.2833-31.9926 39.0048-63.1087 43.8256-69.2443 6.1355-7.8886 8.7651-17.9684 8.7651-34.1839 0-17.9685 2.1912-24.5423 10.5181-32.4309 10.0799-9.6416 11.8329-9.6416 154.2658-10.5181l144.186-.8765 1.3148-49.0846 1.3147-49.0846-14.0241-15.3389-13.586-15.7772h-74.5033-74.5034l-14.9007 14.0242c-8.3269 7.8886-14.9007 16.6537-14.9007 19.7215 0 7.8886-8.7651 11.8328-14.4624 6.1355-2.6295-2.6295-11.8329-4.8208-20.1597-4.8208h-14.9007l9.2033-10.0798c10.9564-11.3947 54.7819-33.7457 86.3363-43.8256 12.2712-3.506 40.3195-9.2033 62.6705-11.8329 66.1766-8.3268 151.1981 6.5739 202.4739 35.4987 3.5061 2.1913 10.5181 5.6973 15.7772 7.8886 39.443 17.5302 111.7551 82.392 141.1182 127.5323 20.1597 30.2396 42.5107 76.6946 46.455 95.1014 1.7531 7.8885 5.2591 15.3389 7.4504 16.6536 6.1356 4.3826 4.8208 33.7457-1.3148 31.9927-3.0678-1.3148-6.1356-6.1356-7.0121-11.3947-3.9443-26.7335-57.4114-109.5638-91.5953-141.5564-39.0047-37.2517-110.0021-78.4477-134.1061-78.4477-6.5738 0-16.6537-3.0678-21.9128-6.5738-6.5738-3.9443-11.8329-4.8208-16.2154-2.1913-5.2591 3.0678-3.506 4.8208 7.8886 7.0121 7.4503 1.753 14.0242 4.3826 14.0242 6.5738 0 1.7531 4.3825 4.8208 10.0798 6.1356 21.9128 7.0121 60.041 34.1839 92.0336 66.1765 18.4067 18.845 33.7457 35.4987 33.7457 37.2517 0 2.1913 5.6973 11.8329 12.7094 22.3511 27.6101 41.6342 49.9611 120.5201 49.9611 178.3698.4382 74.9417-31.1162 167.8518-78.0095 230.5223-25.857 34.6221-42.0725 44.2637-24.5423 14.9006 13.1477-21.9127 34.184-65.7382 42.0725-87.651 15.339-42.949 25.8571-148.5685 15.7772-154.7041-3.9443-2.6295-11.3946 23.2275-17.9684 63.1088-3.5061 20.1597-15.7772 54.7819-26.7336 75.3799-3.506 6.1355-10.9564 20.598-17.092 31.9926-16.6536 31.9926-80.6389 95.1014-120.5201 119.2054-31.9927 19.2832-89.4041 44.2638-124.9028 53.9054-26.7335 7.4503-100.7987 10.9564-100.7987 4.8208 0-2.1913 7.4504-5.6973 16.6537-7.0121 56.9732-8.7651 125.341-36.8134 167.8518-68.806 8.7651-7.0121 18.4067-12.2712 21.0362-12.2712 2.6296 0 17.092-12.2711 32.4309-27.1718 30.6779-30.2396 48.6463-68.3678 46.0168-95.9779l-1.3148-14.9007-195.9-1.3147c-184.9437-.8766-196.3384-.4383-196.7766 6.5738-6.1356 75.3799 51.7141 136.2974 142.8712 149.8833 19.2832 3.0677 41.6342 6.1355 49.5228 7.4503 7.4503 1.3148 14.0242 3.9443 14.0242 6.1356 0 8.3268-25.4188 10.9564-98.6074 10.9564-76.6947-.4383-101.237-3.9443-166.537-24.9806-68.3678-21.9128-145.93901-70.9973-198.09139-124.4645-14.90068-15.3389-28.04834-28.0483-29.3631-28.0483-5.69732 0-1.31477 16.6537 8.32685 32.8691 6.13557 9.6416 12.27114 20.598 14.02416 24.1041 1.31477 3.506 14.02417 21.4745 28.04837 39.4429 42.0725 55.2202 88.08931 95.5397 155.14231 134.5444 8.7651 5.2591 37.69 19.2832 61.3557 29.3631 14.0242 6.1356 45.1403 15.7772 88.0893 26.7336 36.8135 9.2033 162.1545 9.2033 202.4739-.4383 41.6343-9.6416 81.9538-22.351 107.8108-34.1839 12.2712-5.6973 25.4188-11.3946 28.9249-13.1477 3.506-1.3147 12.7094-6.5738 19.7215-11.3946 7.4503-4.8208 16.2154-10.0799 19.7214-11.8329 14.9007-6.5738 60.9175-43.8255 87.6511-70.9973 63.9852-64.4235 101.6752-134.1061 128.847-239.7256 14.9007-56.0967 7.4504-185.382-13.1476-233.1518-3.5061-7.8886-6.1356-17.092-6.1356-20.1597 0-10.5182-44.2638-92.0336-66.6148-121.835-39.8812-54.3436-108.249-110.878597-172.2343-142.871187-43.3873-21.47451-79.7624-34.18391-134.5444-46.8933099-39.0047-8.7651-162.1544-8.7651-196.3383.43826zm223.5102 61.7939399c25.857 3.9443 3.0678 9.2034-43.8255 10.0799-26.2954 0-52.5907 3.5061-72.3122 8.7651-83.7067 23.227497-110.8785 41.195997-206.8564 138.926897l-66.6148 67.4913-1.753 35.9369c-.8765 19.7215-4.8208 43.8256-8.7651 53.4672-17.5302 43.3872-25.8571 66.6148-28.9249 78.4477-4.3825 18.4067-12.7094 18.8449-20.1597.8765-9.2034-21.4745-8.7651-97.2927.4382-129.2853 7.0121-23.2275 16.2155-47.3316 24.1041-61.794 2.1912-3.506 8.3268-15.3389 13.5859-26.2953 11.8329-23.2275 80.6389-94.2249 108.6873-111.7551 60.0409-38.566397 127.094-62.232197 188.4497-67.491297 34.6222-3.06778 88.0893-1.75301 113.9464 2.6295z" style="stroke-width:.438255"/></svg>