<svg height="960" style="" width="820" xmlns="http://www.w3.org/2000/svg"><path d="m191.00603 393.71017 2.24626-2.24626h2.24626v-2.24586q-13.47675-20.21514-15.72301-22.461a16.088373 16.088373 0 01-2.24587-17.96888q4.49213 4.49212 4.49213 5.61544 0 1.12332 6.73837-3.36918l6.73838 8.98423a52.009008 52.009008 0 016.73799 11.23051l6.73837 6.73837v-2.24625a24.999467 24.999467 0 012.24626-11.2305q2.24586-4.49173-4.49251-11.23011-2.24587 0-4.49212-6.73838-2.24587 0-3.36919-3.36919a14.093863 14.093863 0 00-3.3688-5.61505 19.42838 19.42838 0 00-15.72301-8.98463q0-4.49173-6.73799-8.98425a1.9843935 1.9843935 0 01-2.24626-2.24626q0-2.24587-15.72262-13.47636l-8.98425-8.98425a17.37317 17.37317 0 0115.72262 4.49213l6.73956 6.73838a12.804786 12.804786 0 0013.47636 4.49211h6.73721q0 2.24588 11.2305 8.98425 4.49173-4.49213 4.49212-6.73837a16.221055 16.221055 0 0113.47637 5.61544q4.49213 5.61545 6.73839-1.12333 8.98385-42.67574 8.98385-44.92161a142.84443 142.84443 0 0111.2305-35.93736 298.87262 298.87262 0 0111.2305-31.44525 142.58178 142.58178 0 017.85975-19.09181l3.3692-3.36919 11.23049-33.6915a10.173713 10.173713 0 002.24587-11.23011q-2.24587 0-4.49212-8.98463 4.49212-2.24587 0-8.98425a23.332187 23.332187 0 00-8.9823-15.72184q-2.24587-2.24586-6.73838-7.85975a56.149775 56.149775 0 01-5.61505-7.85976 19.276632 19.276632 0 00-5.61544-5.61544l-4.49213-3.37269a26.132906 26.132906 0 01-4.49212-6.73839 18.476649 18.476649 0 015.61505 1.12294 24.890909 24.890909 0 007.85975 1.12294 15.238586 15.238586 0 0111.23051-4.49212l-4.49212 4.49212q-4.49213 2.24664 0 4.49251 2.24626 0 6.73837 11.23011 2.24587 2.24626 6.73838 0l2.24587 2.24626h4.49212a6.47029 6.47029 0 002.24859-4.49213 13.00517 13.00517 0 00-2.24626-8.98424q-2.24586 0-2.24586-4.49251l8.98424 6.73837 4.49213 4.49213a7.3364195 7.3364195 0 008.98423-2.24587 51.007862 51.007862 0 0015.72302-26.95312 13.198941 13.198941 0 016.73565-11.2305l8.98463-8.984247a93.162217 93.162217 0 0020.21475-24.707643 199.91481 199.91481 0 0011.23049-20.214743 35.356056 35.356056 0 018.98542-13.475977 122.45576 122.45576 0 0022.4614-20.214753q4.49173-4.492113 4.49211-6.738372 11.2305-4.492507 11.2305-11.230495 6.73799 8.984631 8.98425 8.984237a12.942526 12.942526 0 014.49212 8.98463v2.245876q2.24587 0 10.10757 7.859749l12.35343 12.353439a21.64662 21.64662 0 018.98424 11.230495 102.11689 102.11689 0 0013.47676 24.707643q2.24585 0 2.24585 4.492124a28.629351 28.629351 0 0013.47676 13.476371 15.438192 15.438192 0 013.3688 7.859746q1.12332 5.61506 10.10757 5.61545 2.24586 8.98386 4.49212 8.98424a35.757992 35.757992 0 0011.2305 20.21474l2.24625 4.49213a9.7822817 9.7822817 0 0013.47638 2.24625l6.73876-4.48939a36.749412 36.749412 0 00-2.24626 8.98424q0 6.73838 6.73838 4.49213a12.039043 12.039043 0 0013.47637-8.98425 6.4714574 6.4714574 0 012.24625-4.49212l6.73838-4.49251a33.912118 33.912118 0 0020.21474-8.98425q0 2.24664-6.73838 8.98425l-33.69149 33.6915-2.24585 4.49212a19.933038 19.933038 0 00-2.24628 8.98424 7.1943991 7.1943991 0 01-4.49211 6.73838v8.98463h6.73839v2.24587l4.4921 35.93737a9.1507777 9.1507777 0 002.24627 6.73837 37.496088 37.496088 0 0111.23011 15.72263q6.73876 15.72262 17.96886 40.42948a27.636376 27.636376 0 014.49213 11.2305v2.24626a407.07304 407.07304 0 0011.23049 40.42948 69.658438 69.658438 0 004.49213 15.72263l4.49211 6.73837h2.24627q6.73837-4.49212 11.23049 0a9.7822817 9.7822817 0 0013.47638-2.24624l4.49212-2.24588a2.8077222 2.8077222 0 014.49251 0 7.3371977 7.3371977 0 008.98425-2.24625l5.61505-5.61505 5.61544-3.36919a21.831441 21.831441 0 0111.23051-4.49213 7.1947882 7.1947882 0 01-4.49252 6.73799 35.205475 35.205475 0 00-8.98425 6.73838 3.5971996 3.5971996 0 00-3.36918 2.24625 3.5971996 3.5971996 0 01-3.36919 2.24588q-4.49173 4.49211-4.49212 6.73837a8.8068162 8.8068162 0 00-6.73799 8.98425 9.1048643 9.1048643 0 00-11.2305 4.49212q0 2.24625-3.36919 4.49251-3.36918 2.24625-3.36918 4.49212a65.657356 65.657356 0 00-5.61507 6.73799 65.621169 65.621169 0 01-5.61543 6.73838 9.7826708 9.7826708 0 002.24624 13.47675l2.24587 4.49213a28.404064 28.404064 0 0113.47559-15.72224l4.49213-8.98463a26.125902 26.125902 0 004.49212 6.73837 14.096976 14.096976 0 003.36918-5.61505q1.12294-3.36919 3.36919-3.36919 0 2.24587 4.49212 6.73838l2.24587 2.24586a13.499323 13.499323 0 01-8.98424 8.98425 57.967636 57.967636 0 00-20.21475 24.70764 55.266526 55.266526 0 0022.461-8.98463v4.49251h-2.24625v2.24587q2.24625 4.49212-8.98424 17.96887-33.6915 40.42988-35.93738 44.92161-2.24586 4.49174-22.46099 38.18362l-2.24626 2.24626a48.70869 48.70869 0 00-13.47637 15.72263 121.84526 121.84526 0 01-13.47675 22.46061l-1.12293 2.24626-1.12294 3.36918q-1.12293 3.36881-11.23049 25.8298a123.17947 123.17947 0 01-6.73838 15.72263 34.483701 34.483701 0 00-4.49213 13.47675 278.89056 278.89056 0 00-13.47636 35.93736q-2.24626 0-4.49212 3.36919a36.808554 36.808554 0 01-4.49252 5.61506q-6.73799 17.96848-15.72262 38.18362a99.673751 99.673751 0 01-8.98425 17.96888q-2.24586 0-4.49212 4.49212l-1.12293 6.73838-3.36918 8.98424a263.77959 263.77959 0 00-11.23051 31.44525q-2.24586 8.98425-6.73837 24.70764a96.361759 96.361759 0 00-4.49212 24.70765 155.38696 155.38696 0 00-4.49213 17.96848 112.11396 112.11396 0 00-2.24626 13.47676 25.751591 25.751591 0 01-2.24586 7.85975 25.738751 25.738751 0 00-2.24626 7.85976v6.73799q-4.49212 29.19898-4.49212 33.6915v40.42948a135.10179 135.10179 0 01-2.24431 20.21787 145.85331 145.85331 0 00-2.24587 23.58393 78.472257 78.472257 0 01-2.24625 19.0918v20.2148a217.7082 217.7082 0 00-2.24587 40.4298v6.7384l-2.24624 6.738v26.9531a9.1523341 9.1523341 0 01-2.24587 6.7384v-4.4921a183.31594 183.31594 0 00-4.49251-31.4453v-26.9531l-2.24587-8.9846a70.595772 70.595772 0 00-1.12293-11.2302 88.912113 88.912113 0 01-1.12333-14.5996 28.012243 28.012243 0 00-2.24586-12.3535v-17.9688l-2.24626-8.9843q-2.24586-51.66036-2.24586-53.90623-4.49251-35.93736-6.73838-49.41529a63.10916 63.10916 0 00-1.12293-12.35342q-1.12332-5.61545-2.24626-10.10718-1.12293-4.49173-3.37036-11.23284a36.955244 36.955244 0 01-2.24586-11.2305q0-2.24586-6.73838-33.6915-8.98464-33.69072-15.72263-53.90585a234.48216 234.48216 0 01-15.72261-34.81444q-8.98464-23.58393-13.47677-34.81443-2.24586-6.73838-5.61505-14.59969-3.36919-7.86131-6.73838-14.59813-3.36879-6.73799-7.85976-14.59775a82.321591 82.321591 0 01-6.73836-14.59968 121.20908 121.20908 0 00-7.85977-20.21475q-7.85975-17.96849-12.35344-26.95312a14.103202 14.103202 0 01-3.36918-5.61544l-1.12605-3.37036a325.02265 325.02265 0 00-17.96848-31.44563q-6.73876-8.98425-35.93775-62.89049a241.05129 241.05129 0 00-31.44526-44.92161zm303.22312-170.70298q0 4.49213-2.24625 4.49213a371.4341 371.4341 0 00-17.96849 49.41529q-2.24664 4.49212-10.10756 21.33806a158.3511 158.3511 0 00-10.10718 25.8298 20.492171 20.492171 0 00-1.12333 11.2305 74.593741 74.593741 0 005.61545 13.47637 35.198082 35.198082 0 016.73799 8.98463 19.543941 19.543941 0 003.36919 7.85975 43.44421 43.44421 0 005.61544 7.85976 27.680733 27.680733 0 014.49212 15.72262 155.38696 155.38696 0 004.49213 17.96849v4.49251l2.24625 2.24586 2.24587 6.73839a69.658438 69.658438 0 004.49212 15.72262 21.649344 21.649344 0 008.98463-11.2305l8.98425-17.96888 4.49211-4.49212q6.73839 0 11.2305-11.23051a40.261009 40.261009 0 0113.47637-20.21474 7.1943991 7.1943991 0 004.49211-6.73837 83.348418 83.348418 0 00-8.98423-33.69111 32.745216 32.745216 0 01-4.49212-13.47676l-1.12177-3.36686-1.12527-5.61621q-8.98424-29.19899-11.23011-38.18364a51.497346 51.497346 0 01-4.49251-15.72184 6.4722356 6.4722356 0 00-2.24588-4.49212q-2.24624-4.49211-15.72262-26.95312zm-170.70297 0-4.49214 11.2305a148.69916 148.69916 0 00-6.73836 20.21474 85.513741 85.513741 0 01-8.98426 22.461q-2.24586 6.73799-6.73837 21.33807-4.49252 14.60008-6.738 21.33768l-13.47753 40.42948a12.944082 12.944082 0 004.49212 8.98464 118.02278 118.02278 0 0111.23051 17.96849 59.955531 59.955531 0 0011.2305 15.72262 35.200027 35.200027 0 016.73838 8.98464 111.08479 111.08479 0 0015.72262 22.46061l2.24586-2.24587q4.49214-17.96849 6.73838-17.96888 2.24588-6.73838 6.73838-29.19899a69.616804 69.616804 0 014.49213-13.47675l4.49212-4.49212a193.36475 193.36475 0 0113.47676-29.19899 14.471287 14.471287 0 000-11.2305 148.19373 148.19373 0 00-8.98463-24.70764l-2.24587-6.73799a204.25829 204.25829 0 01-8.98465-21.33807l-8.98424-24.70764-8.98424-21.33807zm78.61311-13.47637q6.73799 0 6.73836-4.49212a71.093037 71.093037 0 006.73839-15.72262 43.446544 43.446544 0 005.61505-7.85976q3.36919-5.61544 5.61544-10.10756a88.013688 88.013688 0 018.98425-20.21474v-2.24782a14.240942 14.240942 0 003.36919-6.73799 43.875719 43.875719 0 013.36919-8.98463l4.49211-8.98424a30.610632 30.610632 0 002.2451-20.21397 128.72916 128.72916 0 00-15.72263-40.43026 3.5983668 3.5983668 0 01-3.36957-2.24626 9.96827 9.96827 0 01-1.12293-4.49212l-13.47597-26.95429-8.98465-15.719509a84.726988 84.726988 0 00-8.98424 17.968877q-11.2305 24.707642-20.21474 40.429482a24.378079 24.378079 0 00-4.49212 8.98425l-8.98424 24.70764a9.5449327 9.5449327 0 000 8.98463q8.98384 24.70765 13.47636 33.69112a24.383916 24.383916 0 014.49212 8.98463 18.476649 18.476649 0 001.12294 5.61505 18.468867 18.468867 0 011.12332 5.61545q2.24586 4.49173 6.73799 15.72262zm6.73836 393.06555 4.49213-8.98423q15.72262-29.19939 29.19938-56.15212l4.49212-13.47675a11.94527 11.94527 0 00-1.12293-14.59969 56.452104 56.452104 0 01-7.85976-14.5993 79.834874 79.834874 0 01-6.73799-22.461 67.567043 67.567043 0 00-17.96887-29.19899q-2.24587-2.24625-6.73838 0a65.74568 65.74568 0 00-11.23012 17.96849 207.90997 207.90997 0 01-11.23048 29.19937 51.987997 51.987997 0 01-6.73839 11.23012 29.513379 29.513379 0 00-2.24624 29.19937q2.24664 2.24587 29.19937 60.64424zm199.90197-256.05407q-8.98424 0-8.98424 6.73837 2.24588 0 4.49212-3.36918 2.24625-3.36919 4.49134-3.36919zm71.87473 4.49213a24.150848 24.150848 0 01-4.49212 13.47636l-2.24586-2.24587a21.831441 21.831441 0 014.49213-11.23049zm-545.80042-67.38417a28.268658 28.268658 0 01-15.72263-11.22895 32.85144 32.85144 0 0115.72263 11.22895zm552.53801 49.41529a17.603905 17.603905 0 014.49212-3.36881l2.24626-1.12331q2.24586 2.24664 0 5.61543l-2.24626 3.3692zm2.24626-53.90586a18.394939 18.394939 0 0111.2305-6.73838 18.396106 18.396106 0 01-11.2305 6.73838zm-491.89379 74.12098a7.1947882 7.1947882 0 01-4.49212-6.73837v-4.49212a9.1048643 9.1048643 0 014.49212 11.23049zm453.71018 0q-4.49212-6.73876 0-8.98463l2.24626 2.24626zm13.47638-22.46099v6.73838q0-2.24665-4.49213-6.73838l2.24625-2.24625a1.9843935 1.9843935 0 002.24588 2.24625zm-530.07704-47.16942a4.439205 4.439205 0 016.73837 2.24587 4.439205 4.439205 0 01-6.73837-2.24587zm543.55377 2.24587a4.439205 4.439205 0 016.73837-2.24587 9.1527232 9.1527232 0 01-6.73837 2.24742zm-426.75704-186.42366q2.24587 4.49251 0 4.49212-2.24624 2.24587-2.24624 0a6.47029 6.47029 0 012.24624-4.49212zm435.7413 226.85509h-4.49212v-2.24626q4.49212-2.24586 4.49212 0zm-8.98424 2.24587a7.1947882 7.1947882 0 014.49212 6.73837 7.1943991 7.1943991 0 01-4.49212-6.73837zm-509.86112 20.21474q-4.49252 0-2.24626-2.24587l2.24626-2.24626a2.8077222 2.8077222 0 010 4.49213zm103.3188-222.36258q-2.24586 2.24587-3.36918 2.24587-1.12333 0-1.12294-2.24587 0-2.24664 1.12294-2.24625 1.12293.00039 3.36918 2.24625zm-83.10523 213.37833a3.968787 3.968787 0 01-4.49213-4.49212 3.968787 3.968787 0 014.49213 4.49212zm408.78819-287.49932-2.24589 2.24587-2.24624-2.24587a1.9843935 1.9843935 0 002.24624-2.24625zm-44.92162 71.87474v2.24625l-2.24625 2.24587v-4.49212zm107.8121 215.62458-2.24586 2.24626h-2.24626a6.4710683 6.4710683 0 002.24626-4.49212l1.12293 1.12293zm8.98463 11.23051 2.24586 2.24624-2.24586 2.24588q-2.24664 0-2.24626-1.12294.0004-1.12294 2.24626-3.36918zm-433.49542-280.76133v-2.24587h2.24586a1.9843935 1.9843935 0 01-2.24586 2.24587zm-71.87513 269.53082-2.24588 2.24626a1.9843935 1.9843935 0 01-2.24625-2.24626l2.24625-2.24586a1.9843935 1.9843935 0 002.24588 2.24586z" style="stroke-width:38.9097"/></svg>