<svg height="960" style="" width="1214" xmlns="http://www.w3.org/2000/svg"><path d="m515.25569 610.56845c-2.5295 4.6375-5.0591 9.275-5.0591 10.1182 0 3.7943 28.6682 18.55 40.4727 20.6579 61.1307 10.9614 61.9739 11.383 94.0148 4.6375 46.3749-8.8534 64.0817-18.1284 62.817-31.1977-1.6864-13.4909-18.1284-16.0204-37.9432-5.9023-19.8148 10.5398-100.7602 10.9614-120.1533.4216-17.7068-9.275-27.4034-8.8534-34.1489 1.2648zm81.7886-637.023409c-1.2648 2.10795-25.2954 17.7068-53.542 34.57043-27.825 17.28521-56.0715 34.57043-61.9738 38.36474-6.3239 4.21591-15.1773 9.275-19.8148 11.80454-4.6375 2.5295-13.9125 8.0102-21.0795 12.647699-6.7455 4.6375-16.8636 10.5398-21.5011 13.0693-8.8534 4.6375-24.0307 32.8841-70.8273 131.5363-10.5397 22.3443-27.8249 58.6011-37.9431 80.1022-10.1182 21.0795-25.2954 53.9636-34.1488 72.5136-14.7557 31.1977-33.7273 71.2488-80.1023 168.6362-30.7761 64.5034-35.8352 76.3079-35.8352 80.9454 0 2.5296 8.0103 10.9614 17.7068 18.55 34.5705 27.825 39.208 35.4136 25.7171 40.4727-10.1182 3.7943-80.52384 51.4341-83.47497 56.0716-1.68636 2.5295.84318 5.4807 5.05908 6.7454 4.21591 1.2648 13.4909 5.0591 20.23635 8.0102 7.16704 2.9512 21.07954 8.8534 31.61934 12.6478 10.5397 4.2159 25.717 10.1181 33.7272 13.9125 8.0102 3.3727 20.6579 8.8534 27.4034 11.8045 43.4238 18.55 143.7624 64.9249 158.0965 73.3568 3.3727 2.1079 21.5011 11.3829 40.0511 21.0795s39.6295 21.0795 46.375 25.717c7.167 4.2159 15.5988 9.275 18.9715 10.9614 14.3341 7.5886 66.6113 44.267 82.2102 57.75795 9.275 8.4318 19.3932 15.1772 22.3443 15.1772 3.3727 0 20.2364-12.2261 37.9432-27.40335 29.5113-25.2955 82.2101-63.6602 97.809-70.8273 3.3727-1.6863 12.2261-6.7454 18.9716-10.9613 16.8636-10.9614 142.4976-72.9352 166.5283-82.2102 10.5397-4.2159 22.7658-9.6966 26.9818-11.8045 4.6374-2.5296 13.0693-5.9023 18.9715-7.5887 5.9023-2.1079 21.5012-7.5886 34.14891-12.6477 12.6477-5.0591 29.0897-10.5397 35.8352-12.6477 7.167-2.1079 19.3931-5.9023 27.4034-8.8534 8.0102-2.5295 17.2852-5.9023 20.6579-6.7454 4.6375-1.2648 3.3727-4.216-3.7943-11.8046-5.4807-5.9023-11.383-10.5398-13.0693-10.5398-1.6864 0-15.1773-8.0102-29.933-18.1283-14.7556-10.1182-29.9329-19.3932-33.7272-21.0796-13.91251-5.0591-9.6966-12.2261 25.2954-40.4727 18.9716-15.1772 19.8148-21.9227 6.7455-46.7965-2.9512-5.9023-13.4909-28.6682-24.0307-50.5909-18.9716-40.0511-41.31591-87.2693-76.30791-161.0476-10.1182-21.5011-27.4034-58.1795-38.3647-81.367-20.658-43.8454-41.3159-87.2693-77.5727-162.734-13.4909-27.825-24.8739-46.3749-30.7761-49.3261-5.4807-2.9511-15.1773-8.8534-22.3443-13.4909-6.7455-4.637499-16.4421-10.118199-21.0796-12.647699-4.6374-2.52954-13.4909-7.58863-19.8147-11.80454-6.3239-3.79431-24.8739-15.59885-41.3159-26.13861-16.442-10.53977-34.992-22.34431-41.3159-26.13862-6.3238-4.21591-15.5988-9.275-20.6579-11.38295-4.6375-2.10795-10.1182-6.32386-11.8045-8.43181-3.3728-5.48068-17.7069-5.90227-20.658-.84318zm22.7659 16.86362c0 2.10795 3.3727 5.05909 7.5886 6.32386 8.0103 2.95114001 13.9125 6.32386 49.3261 29.93293 30.3546 19.81476 40.0511 26.13862 48.483 29.93294 12.6477 6.74546 53.1204 34.570459 58.1795 40.894259 4.6375 5.0591 1.6863 9.6966-16.8637 27.825-22.3443 21.5011-29.9329 25.2954-34.992 16.8636-1.6863-2.1079-7.167-5.9022-11.8045-8.4318-5.0591-2.1079-20.658-10.5397-34.5705-18.55-13.9124-8.0102-29.0897-16.8636-33.7272-18.9715-4.6375-2.5296-16.0204-8.8534-25.2954-14.3341l-16.8637-10.1182-1.2647-42.580649c-.8432-35.8352 0-42.58065 5.4806-42.58065 3.3728 0 6.3239 1.68636 6.3239 3.79431zm12.2261 138.281689c15.1773 8.8534 31.6193 18.1284 36.2568 21.0796 4.6375 2.9511 12.2262 7.167 16.8636 9.6965 4.6375 2.5296 14.3341 8.0103 21.0796 12.6478 7.167 4.2159 20.6579 12.2261 30.7761 17.7068 13.9125 7.167 20.6579 14.3341 28.6682 31.1977 5.4806 11.8045 10.1181 24.4522 10.1181 28.2465 0 3.7944-8.4318 13.4909-18.9715 22.3444-18.1284 14.334-19.8148 15.1772-26.5603 8.4318-10.9613-9.6966-21.5011-8.4318-26.9818 3.7943-3.3727 7.5886-3.3727 11.8045 0 16.0204 3.7944 4.6375 2.108 8.0102-8.8534 16.0205-10.9613 8.4318-17.2852 9.6965-34.5704 8.4318-53.542-4.6375-88.9556-2.5296-104.5545 5.9022l-15.1772 8.0103-16.0205-8.8534c-16.8636-9.6966-23.1874-24.8739-12.2261-29.0898 13.4909-5.0591 5.0591-26.9818-10.1182-26.9818-3.7943 0-10.5397 3.7943-14.7556 8.4318s-10.1182 8.4318-13.4909 8.4318c-9.275 0-38.7864-18.1284-41.3159-25.2954-1.2648-3.3727 4.2159-19.3932 12.2261-35.4136 13.9125-28.2466 15.1773-29.0898 64.0818-59.8659 27.825-17.2852 53.9636-32.884 58.6011-35.4136 4.6375-2.5295 14.3341-8.0102 21.0795-12.2261 7.167-4.6375 13.4909-8.4318 14.3341-8.4318.8432-.4216 14.3341 6.7454 29.5113 15.1772zm176.2249 0c1.2648 4.2159 10.9614 25.7171 21.5011 47.6398 10.1182 21.9227 27.4034 58.1795 37.9432 80.1022 10.1182 21.9227 27.4034 58.1795 37.9431 80.1022 10.1182 21.9227 27.4034 58.1795 37.5216 80.1022 10.5398 21.9227 21.5011 45.1102 24.8739 51.4341 6.7454 13.0693 7.5886 24.4522 1.6863 24.4522-2.5295 0-6.3238-4.2159-8.4318-9.6966-2.5295-5.059-8.0102-15.1772-12.2261-21.9227-13.0693-19.8147-28.2466-48.4829-75.4647-141.2328-24.0307-47.6398-53.9636-106.2409-66.6114-130.6931-27.4034-53.1204-29.0897-67.4545-9.275-67.4545 4.2159 0 8.8534 3.3727 10.5398 7.167zm-11.3829 154.3022c0 2.5295 6.7454 18.9716 15.1772 36.2568 8.4318 17.7068 25.7171 53.9636 38.3648 80.5238s31.1977 65.3465 41.3159 86.4261c9.6965 20.6579 24.8738 52.2772 33.3056 69.984s15.1773 34.992 15.1773 37.9432c0 3.3727-8.8534 13.4909-19.3932 23.1874l-19.8148 16.8637 34.1489 23.1875c18.9716 12.6477 33.7272 24.4522 33.3056 26.9818-.8431 2.1079-7.167 5.4806-13.9124 6.7454-6.7455 1.6864-22.7659 7.167-35.4137 12.2261-12.6477 5.0591-27.8249 10.5398-33.7272 12.6477-22.7659 7.5887-110.0352 46.7966-130.6931 59.0227-56.4931 32.8841-83.4749 50.5909-109.6136 71.6704-17.2852 13.9125-34.5704 25.2955-38.3647 25.2955s-18.9716-9.275-33.7273-20.2364c-56.4931-42.5806-149.243-91.0635-270.6611-141.6544-7.1671-2.9512-20.658-8.8534-29.5114-12.6477-8.8534-3.7944-18.55-6.7455-21.9227-6.7455-13.4909 0-5.0591-11.8045 18.9716-26.9818 27.4034-17.7068 28.2466-23.6091 6.3239-37.9431-5.9023-3.7944-10.5398-10.1182-10.5398-14.3341 0-3.7943 8.4318-24.8739 18.9716-45.9534 10.5397-21.5011 27.4034-56.9147 37.5215-78.4159 10.1182-21.0795 29.0898-60.709 41.7375-87.2692s29.0898-61.1306 36.2568-76.7295 15.1773-29.5113 17.7068-31.1977c2.5295-1.2648 9.275 2.5295 14.7557 9.275 10.1181 12.6477 13.0693 28.6681 6.3238 33.3056-5.4806 3.3728-16.442 25.2955-26.1386 53.5421-9.6966 27.8249-9.6966 59.4442.4216 61.1306 11.383 2.1079 16.8636-5.4807 23.6091-32.8841 8.4318-33.7272 22.3443-63.6602 28.6681-61.5522 2.5296.8432 9.275 9.6966 14.3341 20.2363 8.8534 16.0205 9.275 20.658 5.4807 33.7273-5.9023 19.8148-5.9023 57.7579 0 74.6215 3.7943 11.383 2.9511 16.4421-8.8534 39.6295-14.3341 28.2466-33.7273 55.65-70.8272 100.3386-12.6477 15.1773-26.5602 31.6193-30.7761 37.1-4.6375 5.0591-8.0103 10.1182-8.0103 11.3829 0 4.2159 9.275 2.108 14.3341-3.3727 14.3341-13.9125 83.0534-68.7193 101.6034-80.9454 36.6783-24.0307 56.0715-32.4625 64.5033-27.825 4.2159 2.108 20.2364 6.7455 35.8352 10.5398 26.1386 6.7454 30.3545 6.7454 51.0125.8432 31.6193-9.275 38.7863-8.4318 60.2874 5.9022 10.1182 6.7455 19.8148 12.6478 21.5012 12.6478 1.6863.4216 13.4909 8.8534 26.1386 19.3931 60.709 49.3261 88.534 69.1409 88.534 63.2386 0-3.3727-1.2648-6.7454-3.3727-7.5886-6.7455-2.9511-64.5034-72.9352-85.1613-102.8681-22.7659-33.7273-25.717-48.0613-13.9125-64.925 10.5398-15.1772 10.5398-86.426 0-102.4465-9.275-13.9125-9.275-28.2466.4216-44.6886 8.0102-14.7557 13.4909-16.0204 22.7659-5.9023 9.275 10.9614 28.6681 53.9636 31.1977 69.5625 5.0591 29.9329 6.3238 32.8841 13.9125 32.8841 13.4909 0 18.55-10.5398 15.5988-32.4625-1.6863-11.383-5.4807-26.9818-8.8534-34.992-2.9511-8.0103-6.7454-17.7068-8.0102-21.0796-3.3727-8.4318-10.5398-19.8147-24.4523-38.3647l-11.8045-15.1773 15.1773-15.5988c13.9125-14.3341 22.7659-16.4421 22.7659-5.4807zm-171.5874 127.3204c29.5113 12.2261 30.7761 55.6499 1.6863 70.8272-17.2852 8.8534-26.5602 7.167-45.1102-8.4318-22.7658-18.9716-14.7556-52.6989 14.7557-63.6602 7.1671-2.5296 13.0693-4.6375 13.0693-4.6375.4216-.4216 7.1671 2.5295 15.5989 5.9023zm359.1952 94.0147c0 7.5886-8.4318 6.3238-9.6966-1.6864-1.2648-4.2159.4216-6.3239 4.2159-5.0591 2.9511 1.2648 5.4807 4.2159 5.4807 6.7455z" style="stroke-width:.421591"/></svg>