<svg height="960" style="" width="1200" xmlns="http://www.w3.org/2000/svg"><path d="m529.3045 273.69694c-19.3887 27.5049-53.2063 63.577-82.064 87.9257-42.8356 35.6212-61.3225 63.577-73.0459 111.3725-12.1744 50.0501-5.4108 107.3145 18.4869 155.11 13.978 27.9559 46.8937 64.9297 68.0861 76.2023 64.0279 34.2685 110.4707 43.2865 167.2843 32.4649 35.6212-7.2145 50.5009-12.1744 73.4968-25.2505 3.6072-2.2545 10.8217-5.8617 15.7816-8.1162 13.9779-6.3126 63.577-59.519 74.3987-79.3586 4.9599-9.9198 11.2725-21.1924 13.0761-24.7996 18.4869-32.4648 31.1122-95.1401 34.7194-172.6951 2.7054-60.8716 2.7054-61.7734-6.7636-61.7734-4.9599 0-9.4689 2.2545-9.4689 4.509 0 2.7054-4.9599 6.7635-10.8216 9.018s-28.4068 20.7415-50.05 41.4829c-21.6433 20.7415-41.032 37.8757-43.2865 38.7775-9.4689 3.6072-3.6072-30.2104 16.6833-94.2383 10.3707-33.8176 7.2144-50.9518-6.7635-37.8757-8.5671 7.6653-41.4829 13.0761-47.7955 8.1162-5.4108-4.509-15.7815-30.6613-18.9379-47.7955-2.7054-14.8797-7.6653-15.3306-26.6031-.9018-8.1162 6.3126-16.2325 11.2725-17.5852 11.2725-1.8036 0-10.8216 5.86169-20.2905 13.5271-9.4689 7.2144-18.4869 13.527-20.2905 13.527-1.8037 0-10.8217 5.8617-20.2906 13.527-22.0941 17.5852-33.3667 18.0361-30.2104.9018.9018-6.7635 6.7635-23.4468 12.1744-36.9739 5.4108-13.527 10.8216-29.3085 12.1743-35.1702 3.6072-15.7816-8.5671-11.7235-22.0942 7.2144zm-37.4247-266.9334332c-58.6172 13.9779302-93.7875 27.5049602-153.3064 59.0680302-18.9379 10.3707-65.3807 58.617103-88.3766 92.434703-25.2505 36.9739-36.0721 59.9699-55.4608 119.0379-11.2726 33.3667-10.8217 139.3284.4509 170.8915 13.527 36.9739 35.6211 72.595 56.3626 88.8275 20.7414 16.6833 55.4608 32.4649 62.6752 28.4068 2.2545-1.8037-3.6072-12.1744-13.527-23.8978-18.036-22.0942-25.7014-35.1703-38.7775-67.6352-11.7234-27.054-11.7234-110.9216-.4509-145.1901 20.2906-61.7734 51.4027-111.3725 98.2964-156.0117 23.8978-22.996 68.0861-54.1082 89.2785-62.6753 3.6072-1.8036 10.3707-4.9599 14.4288-7.2144 13.0761-6.763503 44.1883-17.585103 79.8095-27.054103 35.1703-9.4689 122.6451-12.1743 160.5207-4.9599 14.8798 3.1563 9.0181 4.0581-33.8175 7.2144-103.7073 6.3126-181.7132 41.032003-243.4866 107.765403-20.2905 21.6432-49.5991 70.7915-49.5991 82.5149 0 9.9198 7.2144 7.2144 15.7815-5.8617 4.509-6.7636 21.1924-24.7996 36.523-39.6793 54.1081-52.3046 142.0338-85.6712 222.2942-84.3185 44.1883.4509 119.4888 16.6833 148.3465 32.4649 4.0581 2.2545 10.8216 4.9599 14.4288 6.3126 3.6072 1.8036 13.0761 6.7635 20.2906 11.7234 7.6653 4.9599 16.6833 10.3707 20.2905 12.1743 26.1523 11.7234 85.2203 69.4388 112.2744 110.0199 37.8757 56.3626 68.5369 137.5248 55.0099 145.641-2.7054 1.8036-5.8617-2.2545-7.2144-9.4689-1.8036-6.7635-4.509-15.7816-7.2144-19.3888-2.2545-3.6072-5.4109-9.9198-6.7636-13.527s-4.0581-9.9198-6.3126-13.527-8.5671-15.7816-14.4288-26.6032c-13.0761-24.7996-55.9117-71.6933-88.8275-96.9437-28.8577-22.0942-74.8496-47.7955-85.6712-47.7955-4.509 0-11.7234-3.1563-16.6834-6.7635-9.9198-7.2144-31.563-9.018-35.6211-2.2545-1.3527 2.2545 3.1563 5.4108 9.9198 7.2144 16.2324 3.1563 18.9378 4.509 35.1703 15.3306 7.6653 4.9599 18.036 10.8216 23.8977 13.5271 12.1744 4.9599 71.2424 63.1261 84.7694 83.4166 54.1081 78.4568 74.8496 173.5969 56.8136 259.2681-14.4289 68.537-38.3266 123.9978-75.3005 173.5969-19.8397 27.0541-32.4649 39.2284-35.6212 34.2685-1.8036-2.2545-.4509-5.8617 2.7054-8.1162 3.1563-1.8036 10.8216-13.527 17.1342-25.2505 6.3127-12.1743 13.978-27.5049 17.5852-33.81751 28.8577-54.10819 47.7955-155.56089 38.3266-203.80729-4.0581-18.03611-10.8217-9.46891-10.8217 13.9779 0 9.018-3.1563 26.1523-6.7635 38.3266s-6.7635 25.7014-6.7635 30.2104c0 13.9779-22.0941 61.7734-44.6392 97.8455-18.4869 29.3086-70.3406 82.064-101.9036 104.1581-35.1703 24.3487-93.3365 50.501-139.7794 63.1262-28.8576 7.66529-96.9437 10.8216-96.9437 4.509 0-2.2545 7.6653-5.8617 17.1343-7.2144 9.018-1.3527 26.1522-5.41081 37.4247-9.01801 11.7235-3.60719 23.4469-6.7635 25.7014-6.7635 4.509 0 56.3626-24.3487 81.1622-38.3266 13.527-7.2145 46.4428-34.7194 44.1883-36.9739-.9018-.9018-12.1743 3.6072-25.7014 10.3707-79.3585 38.7775-146.9937 51.4027-228.6068 42.3847-68.9879-7.66529-142.4847-27.9559-181.2622-50.05-3.6072-2.2545-11.2725-5.86169-16.6834-8.5671-26.1522-11.2726-77.5549-49.5992-112.2743-83.8676-21.19237-20.7415-39.22841-37.8757-40.13021-37.8757-5.86172 0-.90181 15.3306 11.27252 36.0721 7.21442 12.6252 13.52703 23.8977 13.52703 25.2504s12.17436 18.487 27.05406 37.8757c23.8978 31.56311 91.082 97.8455 105.06 103.7073 3.1563 1.3527 13.527 7.21441 23.4468 13.52701 59.068 37.4248 108.6672 57.2644 185.3203 73.94779 46.8938 10.3707 133.9177 9.4689 187.124-1.8036 103.2563-22.0942 161.4226-50.05009 249.3483-121.7433 12.1743-9.9199 70.7914-78.0059 73.9477-85.6712 1.3527-3.6072 7.6654-13.978 13.5271-22.5451 13.527-19.8396 41.4829-79.3586 41.4829-87.9257 0-3.6072 2.7054-13.0761 6.3126-21.1923 18.036-42.3847 27.054-162.7753 15.7815-203.8073-2.7054-9.4689-6.3126-26.6032-8.5671-38.3266-6.7635-38.7775-34.7194-102.3545-66.7334-151.5027-24.7995-37.8757-93.7874-107.7654-128.9577-130.310393-63.1261-40.58114-123.9978-64.9298-201.1018-81.1622302-42.3847-9.01802-139.7794-9.01802-178.1059 0z" style="stroke-width:.450901"/></svg>