<svg height="960" style="" width="1637" xmlns="http://www.w3.org/2000/svg"><path d="m1397.562 660.46929c-5.1422 14.14092 1.9282 21.21143 11.5698 11.56984 5.7849-5.78497 5.7849-9.64159 0-15.42645-5.785-5.78497-8.3561-4.49944-11.5698 3.85661zm-1085.63848-11.56983c-14.14095 8.35593-31.49573 17.99752-38.5662 21.21142-25.71079 12.85538-37.92342 26.35347-31.49572 32.78127 5.14215 5.14215 9.64154 3.85661 15.42647-3.2139 4.49939-5.14215 12.8554-9.64159 19.2831-9.64159s14.7837-4.49933 19.28309-9.64148c4.4994-5.14215 10.9271-9.64158 14.14094-9.64158 10.28432 0 43.06559-27.63912 39.85173-33.42409-4.49938-7.0704-8.356-5.78487-37.92341 11.56995zm-52.06438-309.81512c-1.9283 9.64158-1.28553 23.7825 2.57109 31.49572 5.78493 12.85538 6.4277 12.21267 10.92709-10.2843 5.78492-30.21019-6.4277-48.85054-13.49818-21.21142zm21.21142-68.77643c-6.4277 5.78497-5.14216 32.78126 1.28554 36.63787 6.4277 4.49944 13.49816-10.92701 13.49816-28.92465 0-12.21255-7.07046-16.06916-14.7837-7.71322zm19.2831-44.99382c-6.4277 6.42769-5.14216 34.0668 1.28554 34.0668 6.42769 0 13.49816-15.42656 13.49816-29.56747 0-9.64148-7.71323-12.21267-14.7837-4.49933zm342.59637 197.97313c0 23.13967 8.35605 30.21019 15.42645 12.21255 7.07052-17.99753 3.85662-34.70952-5.78486-34.70952-6.4278 0-9.64159 7.0704-9.64159 22.49697zm23.13968-44.35122c-2.57108 5.78498-2.57108 12.21266-1.28554 13.4982 5.14215 5.14215 16.71199-5.14215 16.71199-14.78374 0-12.21255-10.2843-11.56984-15.42645 1.28554zm148.47987-5.14215c-52.06433 18.64035-94.48718 71.99033-94.48718 120.19805 0 22.49696 19.92589 68.1336 36.63788 85.48841 26.9964 28.28183 47.565 35.99506 91.9161 35.99506 50.77879-.64272 77.7752-14.14092 106.69985-52.06433 16.06916-21.21143 17.99752-29.56748 17.99752-70.06197 0-41.78003-1.28553-47.56489-21.21142-72.63293-35.35234-44.99393-90.63057-63.63428-137.55275-46.92229zm-34.70951-77.77508c5.78486 1.28554 16.06916 1.28554 22.49685 0 5.78497-1.92836.64282-3.2139-11.56984-3.2139s-17.35481 1.28554-10.92701 3.2139zm-291.17489-410.72999c0 3.21378 7.07052 18.640234 16.06928 34.066798 24.42533 43.708278 25.06804 44.993815 16.7121 58.492016-7.07051 10.927126-6.4278 12.212666 3.85661 8.998766 13.49809-4.49933 40.49449 25.71086 40.49449 44.3511 0 5.78498 4.49933 11.56996 9.64148 13.49821 19.92589 7.71322 10.2843 32.78126-20.5686 55.92105-17.35481 12.85538-41.13732 33.42398-52.70715 45.63664-13.49821 13.4982-28.92466 23.13968-37.28059 23.13968-19.28318 0-71.99022-37.92342-72.63305-52.06433 0-5.78498 12.85538-23.7825 28.92465-40.49449 16.06928-17.35482 28.92466-33.42409 28.92466-36.63788 0-9.64159-34.06681 17.99753-47.56501 38.56613-22.49696 33.42409-33.42397 35.99516-61.06312 13.4982-14.14094-10.2843-26.99634-19.28307-30.21019-19.28307-2.57108 0-9.64154-4.49943-16.06924-10.28441-6.4277-5.78486-14.78371-8.35594-18.64033-5.78486-4.4994 2.57107-1.28554 9.64147 9.64155 19.92589 8.99878 8.35594 17.99755 15.42645 19.92587 15.42645 1.9283 0 13.49817 7.71322 25.71079 16.71199 23.13972 17.99764 28.28188 37.2807 12.21263 43.70839-5.14216 1.92836-9.64155 8.99876-9.64155 16.06927 0 6.42769-4.49939 13.49809-9.64154 16.06917-10.9271 3.85672-13.49818 29.56747-3.21386 29.56747 3.85663 0 9.64156-7.07051 12.8554-15.42645 3.21386-8.35605 8.99877-17.35481 12.21263-19.92589 3.85662-1.92836 7.07047-8.99876 7.07047-15.42645 0-17.35481 28.9246-21.21142 47.56496-6.42768 8.35605 7.0704 17.35481 12.21255 19.28306 12.21255 1.92836 0 9.64159 5.14215 16.7121 10.92712 14.14091 12.21267 16.71199 27.63912 6.42769 37.92342-3.85661 3.85661-13.4982 19.92589-21.85425 35.35234-17.3547 32.13855-41.13721 40.49449-61.70586 21.85414-6.4277-5.78487-15.42648-8.99877-18.64033-6.42769-10.28431 5.78497-8.35601 14.14102 4.49939 18.64035 24.42529 8.99876 46.27943 24.42521 46.27943 32.13855 0 5.14215-4.49944 18.64024-9.64159 30.8529-5.14215 12.21267-10.92701 48.85054-13.49808 81.63181-3.2139 44.3511-7.07052 60.42038-14.78375 64.27699-15.42648 7.71323-88.70225 21.85414-95.12995 17.99753-9.64155-5.14215-131.12506 6.42769-138.83829 14.14091-9.64156 9.64159 124.05458 9.64159 179.3328 0 48.85051-8.35594 73.2758 2.57108 73.2758 33.42409 0 35.99505 34.70951 124.05455 71.99022 182.54668 28.92465 44.99381 99.62933 112.4847 149.76541 142.69492 68.77631 41.78 174.19062 72.6329 245.53801 72.6329 40.49461 0 139.48111-18.6402 172.26237-32.1384 66.8481-27.6392 113.1275-57.84934 160.0497-102.84327 31.4958-30.21019 48.8506-39.85166 48.8506-25.71075 0 3.2139 3.8566 6.42769 8.9987 6.42769 5.1422 0 10.2843 4.49943 12.8554 9.64159 1.9284 5.14215 7.7132 9.64147 12.8554 9.64147 5.785 0 14.7837 7.07051 20.5687 16.06928 10.2843 16.06927 10.2843 17.35481-7.7132 37.2807-10.2844 10.92699-20.5687 21.21139-23.7825 22.49699-2.5711 1.2855-4.4995 7.0704-4.4995 12.8553 0 7.0704 10.2843 0 30.853-19.9258 32.1385-32.13859 42.4228-35.9952 48.8505-20.56864 1.9283 5.14215 7.0705 9.64144 11.5699 9.64144 5.1422 0 17.9975 8.3561 29.5674 19.2832 11.5698 10.2843 23.7825 19.2831 26.9963 19.2831 2.5711 0 6.4278 4.4993 8.9989 9.6416 4.4993 12.2125 29.5673 12.8553 29.5673.6427 0-5.1422-5.785-11.5699-12.8554-13.4982-7.0705-1.9283-12.8553-7.0704-12.8553-10.2843 0-3.2138-4.4995-5.7849-9.6416-5.7849-4.4995 0-11.5699-3.8566-14.1409-8.356-2.5711-4.4995-17.3549-17.35485-32.1386-29.5674-28.9246-21.85426-34.7095-35.35246-17.9975-41.78014 5.1421-1.92825 9.6416-7.71323 9.6416-12.85538 0-4.49933 4.4993-10.2843 9.6414-12.85538 5.1422-1.92836 9.6416-8.99876 9.6416-16.06927 0-6.42769 4.4995-13.49809 9.6416-16.06928 5.1422-1.92825 9.6415-10.2843 9.6415-19.28306 0-8.35594 4.4994-16.71199 9.6416-19.28307 11.5698-4.49943 13.4982-38.56624 1.9282-34.70962-4.4993 1.92836-9.6414 9.64158-10.2843 18.64035-1.2855 8.35605-6.4276 17.99752-11.5698 20.5686-5.1422 2.57107-8.9988 12.21266-8.9988 19.92589 0 8.35605-4.4994 16.7121-9.6416 19.28317-5.1421 1.92825-9.6414 8.99877-9.6414 16.06917 0 6.42769-4.4995 13.4982-9.6416 16.06927-5.1422 1.92837-9.6416 7.71323-9.6416 13.49821 0 16.71198-29.5674 10.92701-52.707-9.64159-11.57-10.92713-24.4254-19.28307-28.9247-19.28307-14.141 0-9.6416-17.35481 16.0692-59.13484 36.6378-61.70591 65.5625-140.12382 65.5625-179.33277 0-12.85549 1.9284-41.13732 4.4994-63.63428 3.2138-34.0668 7.0705-43.06557 25.7108-61.06309 22.497-21.85426 22.497-21.85426 84.8457-21.85426 64.9197 0 84.2028-3.85661 84.2028-14.78362 0-7.71334-143.3376-3.85661-161.3353 3.85661-13.4981 5.78486-57.2065-35.99516-57.2065-53.99269 0-14.78374-41.78-106.69984-51.4216-112.48471-10.927-6.4278-7.0704-33.42409 5.1422-37.92352 31.4957-11.56984 64.9198-38.56613 57.8493-46.27936-5.1422-4.49944-36.6379 10.2843-61.7059 28.28183-23.1397 17.35481-18.6404 19.28318-71.3474-30.8529-90.6306-86.13125-210.82866-134.98179-332.95484-134.98179-66.84818 0-154.90756 19.92589-206.972 46.27947-21.85414 10.92712-22.49697 10.92712-37.28059-2.57108-8.35605-7.71322-14.78374-17.35481-14.78374-21.85414 0-3.85661-4.49944-10.92712-9.64159-15.42645-5.14215-4.49944-9.64148-13.4982-9.64148-20.56872 0-7.0704-7.71322-23.782497-17.35481-36.637873-23.7825-30.852902-33.42409-46.279465-37.92341-60.420377-3.85662-10.92702-21.85426-15.42645-21.85426-5.78486zm413.94389 203.75799c46.27947 4.49944 64.91971 10.92712 128.55403 43.06568 54.6354 27.63911 86.7739 53.34986 120.1979 97.70097 34.7096 45.63664 70.062 109.91363 70.062 127.26844 0 7.07051 3.2138 17.99753 7.0704 25.06804 5.7849 11.56984 5.1422 12.85538-8.356 10.92713-10.9271-1.28554-16.0692-7.07052-17.9975-21.21143-8.356-45.63664-55.2782-118.26968-109.2709-169.04847-28.9247-27.63912-41.1373-35.99517-83.5601-55.92106-21.21141-10.2843-32.13853-14.14091-89.98784-28.92465-35.35234-9.64148-147.19433-7.0704-176.7617 3.2139-14.14091 5.14215-30.21019 9.64159-35.99516 9.64159-5.78486 0-14.14091 4.49932-18.64024 9.64147-8.99888 10.92713-38.56624 13.49821-38.56624 3.2139 0-7.71322 28.28183-26.35357 57.8493-37.92341 24.42522-9.64159 125.98291-25.71086 141.40936-23.13979 5.14215 1.28554 29.56748 3.85661 53.99269 6.42769zm-260.32186 68.77643c-.64272 11.56984-82.91723 82.91734-89.98775 78.4179-3.2139-1.92825-5.78497-7.0704-5.78497-12.21255 0-10.92712 38.56624-54.63551 48.85054-54.63551 3.85661 0 10.92712-4.49933 15.42645-9.64148 9.64159-11.56995 32.13855-12.85549 31.49573-1.92836zm-95.77272 95.13c0 3.85662-10.2843 23.13968-22.49685 42.42275-19.28318 30.21018-24.42533 34.70962-32.78127 27.63911-10.92712-8.99876-9.64159-14.14091 13.49809-50.13608 10.2843-16.71199 21.21143-26.35358 28.92465-26.35358 7.07052 0 12.85538 3.2139 12.85538 6.4278zm356.09458 16.06917c42.42286 1.92836 43.7084 1.92836 39.20896 9.64159-1.92837 3.21378-14.14092 6.42768-26.35358 6.42768-26.35358 0-28.92465 10.92713-3.85661 16.06928 9.64159 2.57108 21.85414 6.42769 26.99629 10.2843 5.14226 3.21379 15.42656 8.35605 22.49696 11.56984 17.35481 7.71322 61.70591 56.56377 77.13251 84.20288 16.712 30.8529 17.9975 137.55275 1.2855 162.62079-5.785 9.64158-10.9271 21.21142-10.9271 26.99629 0 5.78497-4.4994 11.56995-9.6416 13.4982-5.1422 2.57107-9.6415 6.42768-9.6415 10.2843 0 3.2139-8.9989 14.14091-20.56869 24.42532-10.92702 10.2843-18.64036 20.56861-16.06928 23.13968 5.78497 5.78498 73.27587-62.34863 75.84697-76.48965 1.2855-6.42769 5.7848-12.21256 8.9987-12.85538 10.2843-1.92825 11.5699 26.35358 1.9283 37.92341-28.2818 34.70963-65.56254 73.27576-71.34741 73.27576-3.85661 0-11.56984 3.85661-16.7121 8.35605-28.28183 23.7825-160.04971 41.13732-186.40317 24.42521-15.42657-10.2843 4.49932-14.78362 67.49078-16.06916 32.78126-.64282 62.34874-3.2139 64.91981-5.78498 1.92825-2.57107 1.28554-4.49943-1.92836-4.49943-3.21379-.64272-35.99505-1.92825-73.27575-3.85662-37.28071-1.28553-68.13361-5.78486-69.41915-8.99876-1.28553-3.21379-12.21266-10.92701-24.42521-16.71199-37.2807-17.35481-77.13248-68.1336-91.91611-116.34132-7.71333-23.13979-13.4982-54.63551-13.4982-70.06196 0-17.99753-3.2139-28.28183-9.64159-30.85291-5.78486-1.92836-9.64147-11.56995-9.64147-21.85425s4.49932-22.49696 9.64147-26.99629c5.14215-4.49944 9.64159-12.85537 9.64159-19.28306 0-14.78374 80.98898-96.41555 95.77272-96.41555 5.78486 0 14.78374-3.85661 18.64035-7.71322 8.99877-8.99876 73.27576-17.35481 97.05826-12.85538 8.35594 1.92825 30.21019 3.85662 48.20771 4.49933zm70.70468 19.92589c5.78498 1.92836 10.28431 6.42769 10.28431 10.2843 0 8.99876-27.63912 3.2139-30.85291-6.42769-2.57107-8.35594 4.49933-9.64148 20.5686-3.85661zm41.78005 31.49572c8.356 8.99877 13.4982 17.99753 11.5698 20.56861-4.4993 3.85661-36.63786-23.78239-36.63786-32.13844 0-8.99877 9.64159-4.49944 25.06806 11.56983zm-528.35687 46.27947c-11.56983 75.204-21.85413 120.84076-26.99629 119.55522-11.56995-3.2139-10.92712-73.91858.64272-109.91374 14.14091-40.49449 31.49572-46.92218 26.35357-9.64148zm753.96907 120.84076c0 39.85166-3.2138 69.41914-9.6414 84.84559-5.1423 12.21266-9.6416 27.63912-10.2845 33.42409 0 5.78486-7.0704 23.13968-15.4264 39.20895-8.3561 16.06917-17.9975 34.70952-21.2114 41.78003-3.2138 7.0704-12.2126 17.99753-19.9259 25.06804-23.1397 20.5686-23.7824-3.85661-1.2856-35.35234 10.9272-14.78374 19.9259-31.49573 19.9259-37.92341 0-5.78498 3.2139-13.49821 7.0705-17.35482 3.8567-3.85661 9.6416-18.64035 12.8554-32.13855 2.5711-13.49809 7.7132-35.99505 11.5699-50.13608 3.8566-14.14091 7.0705-44.99381 7.0705-69.41914 0-34.0668 1.9282-43.06557 9.6416-43.06557 7.7132 0 9.6414 10.92713 9.6414 61.06321zm-757.82568 77.13237c15.42645 62.34862 27.63912 89.34503 64.91971 140.12382 28.28194 38.56624 86.13124 90.63057 114.41307 102.84323l19.28306 9.64148c25.06804 14.78373 56.56377 26.35357 77.13248 28.92465 12.21255 1.92836 39.20895 7.07051 59.13484 11.56984 32.13844 7.07051 41.1372 7.07051 71.34739-2.57108 19.28318-5.78486 41.78003-10.92701 51.42162-10.92701 8.99876 0 24.42521-4.49944 34.70963-8.99877 9.64147-5.14226 22.49685-11.56995 27.63898-13.4982 21.8543-8.35605 96.4156-60.42038 96.4156-67.49089 0-7.0704 37.9234-25.71075 41.1373-19.92589 4.4993 7.07052-49.4933 62.99146-69.4192 71.99033-21.2114 9.64148-43.0656 23.13968-50.7789 30.8529-3.8566 3.85662-12.8553 7.07052-20.56857 7.07052-7.71322 0-16.71199 3.21378-21.21143 7.71322-3.85661 3.85662-21.21142 9.64148-37.92341 12.21267-17.35481 2.57107-48.20772 7.71322-69.41914 10.92701-28.92465 4.49944-46.92218 3.85661-72.63304-2.57108-18.64024-5.14215-42.42275-8.99876-52.70716-8.99876-9.64147 0-26.35346-3.85661-36.63788-8.99876-9.64147-5.14215-29.56736-14.78374-43.70827-21.21143-54.63552-25.06804-133.69614-95.77272-160.69254-143.33772-44.3511-79.06062-69.41914-177.40441-43.70828-172.26226 7.0704 1.28554 14.14092 16.06916 21.85414 46.92218zm156.1931 12.21266c-3.2139 8.35594-5.78498 8.99876-8.99876 3.21379-7.07052-10.2843 0-27.63912 7.71322-19.92589 3.21379 3.2139 3.85661 10.92712 1.28554 16.7121zm132.4106 122.76901c0 10.2843-22.49697 13.4982-28.28194 3.85661-5.14215-7.71323 2.57107-13.4982 16.7121-13.4982 6.42769 0 11.56984 4.49944 11.56984 9.64159z" style="stroke-width:.64277"/></svg>