<svg height="960" style="" width="1200" xmlns="http://www.w3.org/2000/svg"><path d="m574.08141 932.59835c-70.2158 2.3562-103.6744 6.5974-129.593 16.9649-17.9074 7.0687 26.3899 9.8962 161.1666 10.3674 110.2718.4713 156.9253-1.4137 195.5676-7.0687 56.5496-8.4824 72.1008-13.6662 53.2509-17.9074-17.4361-4.2412-188.9701-5.655-280.3921-2.3562zm291.7021-123.4668-19.3212 18.3786-105.5594 2.8275c-57.9634 1.4138-154.0978 3.2988-213.475 4.2412l-108.3868 1.885-19.7924-18.3786c-15.0799-14.1374-22.6199-17.9074-30.1599-15.5512-17.4361 5.655-11.7811 24.0336 15.08 49.481l24.5048 23.5624h52.7797c50.8947 0 292.1733-7.0688 382.6528-11.31 43.3547-1.885 44.2972-2.3562 60.3196-18.8499 8.9537-8.9537 16.0224-19.3211 16.0224-23.0911 0-7.0687-24.0336-31.5735-31.1023-31.5735-2.3562 0-12.7237 8.4824-23.5623 18.3786zm-131.478-147.5004c-50.4235 41.4698-135.248 56.5497-196.9814 34.8723-15.0799-5.1837-31.5736-12.2524-36.7573-15.5512-8.4824-5.1837-14.1374-.4712-59.3771 45.2398l-50.4235 50.8947 19.7924 19.3211 19.3211 19.7924 69.7446-1.4137c38.1711-.4713 110.2719-2.8275 159.2816-5.1838 49.481-2.8274 111.2144-4.7124 137.133-4.7124h48.0672l14.6086-16.4937c8.0112-9.4249 14.6087-18.3786 14.6087-19.7924 0-5.1837-114.9843-119.2255-119.6968-119.2255-2.8275.4712-11.3099 5.6549-19.3211 12.2524zm-47.1248-27.3323c-32.9873 16.9649-80.5832 19.3211-114.513 6.1262-29.6886-11.7812-42.8835-12.7237-46.1823-2.8275-4.7124 11.3099 6.1262 19.7924 37.2286 30.1598 34.401 11.7812 64.0896 12.7237 95.6632 2.3563 39.5847-12.2525 75.3995-35.8148 69.7445-44.7685-3.7699-6.5975-16.4936-3.77-41.941 8.9537zm-319.9768 38.171c-42.8835 43.3547-50.8947 53.2509-48.5385 62.2046 2.3562 9.425-8.4825 22.1486-72.1008 86.7095-77.75584 78.2271-85.76704 90.4795-65.5034 101.3182 8.9537 4.7125 17.4361-2.3563 88.5945-72.5721 49.0097-48.0672 82.4682-78.227 88.5945-78.227 10.3674 0 105.0881-94.2495 105.0881-105.0882 0-6.5974-35.3435-45.711-41.4698-45.711-1.885 0-26.3898 23.0912-54.6646 51.366zm388.3077-87.1808c0 3.77-3.2987 8.0113-7.54 9.425-3.7699 1.4137-5.6549 5.1837-4.2412 8.0112 2.3562 3.2987 7.54 1.4137 14.6087-5.655 13.1949-12.2524 14.6086-18.3786 4.2412-18.3786-3.77 0-7.0687 2.8275-7.0687 6.5974zm-292.1733-11.3099c-4.2412 7.54-2.3562 13.1949 10.3674 30.1598 18.8499 25.9186 26.3899 29.2174 37.6998 18.3787 8.4825-8.4825 8.0112-9.425-8.9537-33.4586-18.8499-25.9186-31.1023-30.631-39.1135-15.0799zm278.5071-153.6266c-3.77 4.2412-4.7124 15.0799-2.3562 30.1598 3.2987 24.5049-7.0687 70.6871-19.3212 85.767-10.8386 13.195-12.2524 23.5624-3.2987 23.5624 17.9074 0 58.4347-90.0082 50.8947-113.5706-.9425-3.77-3.2987-12.2524-4.7125-19.7924-3.2987-13.6661-12.7236-16.4936-21.2061-6.1262zm-164.4653-14.6087c-8.9537 2.8275-23.0911 13.6662-32.0448 24.5049-14.6086 17.9074-16.0224 22.6199-16.0224 49.0097 0 18.8499 2.8275 34.4011 7.54 42.4123 18.8499 32.0448 67.8596 46.6534 100.8469 30.1598 25.9186-13.1949 47.1247-45.2397 47.1247-70.2158 0-58.4347-50.8947-94.2495-107.4444-75.8709zm-104.6169-.4712c-32.0448 34.401-45.7109 106.0306-26.8611 142.3167 4.2413 8.9537 5.1838 8.9537 15.5512-3.2988 8.9537-10.3674 10.3674-15.0799 6.5975-24.9761-9.425-24.5048-.9425-77.2845 16.4936-101.7894 14.6087-21.2061 5.655-30.631-11.7812-12.2524zm-26.8611-43.3547c-1.4137 5.1837-4.2412 9.4249-6.5974 9.4249s-4.2412 4.7125-4.2412 10.3674c.4712 10.3675.4712 10.3675 5.6549 1.4138 2.8275-5.1837 8.0112-11.31 11.7812-13.1949 7.54-4.7125 8.4825-17.4362.9425-17.4362-2.8275 0-6.1262 4.2412-7.54 9.425zm248.3474-21.2062c-4.7125 5.655-2.8275 11.7812 11.3099 32.9873 17.9074 26.3899 25.9186 31.1024 35.3435 19.3212 6.5975-8.0112.9425-24.0336-16.0224-44.2973-13.6661-16.4936-21.6774-18.8499-30.631-8.0112zm373.22779-10.3674c-11.7812 28.7461-15.0799 78.6983-14.6087 229.4974 0 147.9716 3.2987 195.5676 10.8387 164.9365 1.4137-6.5974 5.1837-21.2061 8.0112-32.9873 7.0687-27.3323 11.3099-335.528 5.1837-358.1479l-4.2412-16.4936zm-522.14199-39.5848c-28.7461 8.9537-73.9858 37.2286-70.2158 43.3548 4.2412 6.5974 11.3099 5.1837 39.5847-8.4825 44.7685-21.2061 90.0083-20.2636 139.9605 4.2412 11.3099 5.1838 30.1598-1.8849 30.1598-11.7811 0-12.7237-64.0896-36.7573-95.6632-35.8148-10.8387.4712-30.6311 4.2412-43.826 8.4824zm299.7133 26.3899-49.481 49.4809 8.0112 15.0799c36.2861 72.1009 28.7461 162.1091-18.3786 228.555-6.1262 8.0112-10.8387 16.4936-10.8387 18.8498.4712 6.5975 112.1568 119.2256 118.7543 119.2256 3.77 0 12.2524-6.1262 19.3211-13.1949 12.7237-13.1949 12.7237-13.6662 16.9649-114.0419 2.8275-55.6071 6.1262-150.3278 7.54-209.705l2.8275-108.3869-16.4937-17.9073c-8.9537-9.425-19.3211-17.4362-22.6199-17.4362-3.2987 0-28.2748 22.1486-55.6071 49.481zm85.767-82.4683c-5.655 5.6549-10.3675 11.7812-10.3675 14.1374 0 2.8275 8.4825 13.6662 18.8499 24.0336l18.8499 19.7924-2.3562 179.5452c-1.4138 98.4907-3.77 196.9814-5.1837 217.7162-2.3563 37.2286-3.2988 39.1136-21.2062 56.5497-9.8962 9.8962-18.3786 20.2636-18.3786 23.5624 0 7.0687 26.8611 30.1598 34.401 29.6885 3.2988 0 13.195-8.9536 22.1487-19.3211 16.0224-18.8499 16.4936-20.2636 19.7923-71.6296 1.4138-28.7461 4.7125-137.1329 6.5975-240.8073l3.2987-188.9702-25.9186-26.8611c-14.1374-14.6086-26.8611-26.8611-27.8036-26.8611-1.4137 0-7.0687 4.2413-12.7236 9.425zm-794.5229 0c-1.41374 6.5974-5.18372 21.2061-8.0112 32.9873-7.06871 27.3323-11.30993 335.528-5.18372 358.1479l4.24123 16.4937 5.18372-13.195c11.78118-28.746 15.07991-78.6982 14.60866-229.4974 0-147.9716-3.29873-195.5676-10.83869-164.9365zm162.5803-11.7812c-6.1262 6.5975-12.7237 19.7924-15.0799 29.2173-1.885 9.8962-5.1837 105.5594-7.0687 212.5326l-3.2987 194.6251 15.5511 16.0224c8.9537 8.9537 19.7924 16.4936 24.0336 16.4936s26.8611-20.2636 49.481-45.711c33.4585-36.286 41.4697-47.5959 40.5272-57.4921-.9424-6.5975-3.7699-14.6087-6.1262-17.9074-9.8962-11.7812-24.0336-82.9395-20.7348-105.0882 7.5399-49.4809 21.2061-86.7094 42.8835-116.398 6.1262-8.0112 11.3099-18.3787 11.3099-22.6199 0-9.8962-103.6744-115.4556-113.0994-115.4556-3.7699 0-12.2524 5.655-18.3786 11.7812zm-53.2509-45.2397-21.2062 23.5623-3.2987 76.8133c-1.4137 42.4123-3.2987 150.3279-3.77 240.3361l-1.4137 163.9941 26.3898 26.3898c26.3899 25.9186 26.8611 26.3899 36.7573 17.9074 14.1374-12.2524 12.7237-17.9074-9.4249-41.941l-19.3212-20.7349 5.1838-156.9253c2.8274-86.2382 5.1837-183.7864 5.1837-216.7737 0-42.8835 1.885-60.7909 6.1262-63.6184 2.8275-2.3563 12.7237-11.31 20.7349-20.7349l15.5511-16.4937-18.3786-17.9074-17.9074-17.4361zm441.5586-32.5161c-43.826 1.885-134.3054 5.1837-200.28 7.0687l-120.1681 3.2987-15.0799 16.9649c-18.3786 19.7924-22.1486 12.7237 47.596 84.3533l50.8947 52.3085 16.4936-9.8962c36.2861-22.6199 45.2398-27.3324 71.1584-36.2861 35.8148-12.7237 89.0657-12.7237 128.6505 0 16.4936 5.655 32.0448 11.7812 34.401 14.1374 12.2524 12.2525 26.3899 3.2988 70.6871-43.3547 24.9761-25.9186 45.2397-49.0097 45.2397-50.8947 0-8.0112-40.5272-43.826-47.1247-41.4698-1.4137.4713-38.171 2.3563-82.4683 3.77zm-61.2621-57.9634c-20.7349.4712-97.0769 3.2987-169.649 6.1262l-131.9492 5.1837-17.4362 16.9649c-20.7349 20.2637-22.1486 28.2749-6.5975 42.4123 14.6087 14.1374 24.9762 13.6661 36.7573-.9425 16.4937-21.2061 30.1599-24.9761 92.8357-25.4474 32.5161-.4712 59.8484-1.885 61.7334-2.8275 1.885-.9424 70.6871-2.3562 152.6841-2.8274l149.8567-.4713 19.7924 18.8499c18.3786 17.9074 19.7923 18.3787 30.1598 11.7812 15.5511-10.8387 13.1949-18.8499-15.0799-46.6535l-25.4474-25.4473-69.7446.9425c-38.6423.4712-87.1807 1.4137-107.9156 2.3562zm317.1494 30.1598c-64.0896 65.9746-75.8708 75.8708-85.2958 73.0433-9.8961-2.3562-18.8498 4.7125-62.6758 49.481-28.2749 28.2748-52.3085 54.1934-53.251 56.5497-1.4137 5.1837 39.1135 46.6535 46.1823 46.6535 7.5399 0 108.8581-108.8582 108.8581-116.8694 0-4.2412 34.8723-42.8835 77.2845-85.2957 76.81329-76.8133 77.28459-77.2846 69.74459-88.1233-4.2412-6.12617-12.2524-10.83865-17.4361-10.83865-6.1263-.47124-36.28609 27.33235-83.41079 75.39955zm-545.2331-111.21434c-104.6169 16.49366-78.6983 21.20613 113.5706 21.20613 147.5004 0 186.1427-1.88499 227.6124-12.25243 49.481-11.78118 16.0224-15.07991-150.7991-15.07991-100.3756 0-163.994 2.35623-190.3839 6.12621z" style="stroke-width:.471247"/></svg>