<svg height="960" style="" width="1282" xmlns="http://www.w3.org/2000/svg"><path d="m686.94665-29.999688c-4.3023.047-11.4062 5.2835-22.4212 16.2985-9.3951 9.7248-13.8454 17.6364-18.4606 33.2949-2.9668 9.8896-3.6261 21.2626-1.3186 21.2626 1.8131 0 3.4614-4.1206 3.4614-8.5709 0-1.8131.9889-5.2745 2.3075-7.582 7.7469-15.1641 9.2303-17.6365 11.2082-17.6365 3.6262 0 1.9779 24.2295-2.9668 42.8549-2.3076 9.0654-4.9448 20.603298-5.6041 25.547998-1.6483 11.2082-4.6152 23.4054-8.0765 32.8005-2.8021 7.7468-15.164 22.5812-20.6033 25.0536-1.9779.8241-4.6151 2.1427-5.9338 2.9668-13.3509 7.7469-33.7893 11.3731-49.6127 8.4062-11.5378-1.9779-22.9108-7.0875-22.9108-10.0544 0-.8242 3.9558-1.4835 8.7358-1.4835 15.6585 0 32.9652-6.593 44.8327-17.1419 10.0544-8.9006 11.373-8.0765 4.9448 3.2965-4.9448 8.9007-5.1096 10.5489-.9889 10.5489 4.9447 0 14.0102-12.0323 19.9439-26.0425 2.8021-6.9227 6.2634-15.1641 7.582-18.1309 1.3187-2.9669 2.3076-6.5931 2.3076-7.9117 0-1.4834.989-4.9448 2.1428-7.7468 3.6261-8.570998 7.7468-21.592298 7.7468-24.723998 0-4.4503-3.1317-3.2965-4.2855 1.6483-1.1538 5.9337-1.6483 6.9227-5.6041 12.8564-1.8131 2.6373-3.791 6.0986-4.4503 7.4172-1.6483 3.790998-25.5481 35.107998-28.3501 37.415598-2.6372 2.1427-20.4385 11.0434-31.9763 15.9881-8.7358 3.791-21.0978 3.2966-38.2397-1.6482-23.4053-6.5931-36.9211-8.2413-42.8548-5.4393-2.6373 1.3186-5.1097 3.6262-5.4393 5.1096-.4945 2.9669 3.791 5.4393 21.0978 12.0323 11.2081 4.4504 23.2405 18.6254 35.7673 42.0307 7.7468 14.8344 9.7247 25.7129 7.2523 41.7011-1.1538 7.4172-3.1317 17.6364-4.4503 22.746s-2.3076 14.5047-2.3076 20.7681c0 7.7469-.9889 13.0213-2.9668 16.8123-3.6262 6.5931-7.2524 7.9117-51.7555 19.2847-67.4139 16.9771-105.4888 34.7783-157.9036 73.8421-25.3832 18.9551-63.1284 55.5465-78.7869 76.3146-9.7248 12.6916-11.5378 16.6475-9.2303 19.1199.6593.4944 5.4393-2.3076 10.7137-6.2634 10.2193-8.0765 15.3289-9.2303 17.8013-4.2855 3.4613 6.4282 6.4282 5.9337 21.2626-3.6262 9.7247-6.2634 20.7681-7.4172 27.8556-2.9669 4.9448 3.1317 5.4393 4.1207 5.4393 11.5379 0 11.7026-5.1097 21.5922-18.7902 36.2617-19.6144 20.933-21.5923 26.2074-9.0655 24.2295 7.0876-1.1538 8.9006.4945 8.4062 7.7468-.3297 4.4504-4.1207 12.1972-15.1641 30.8226-5.1096 8.7357-6.7578 14.9991-4.1206 15.9881.9889.3297 9.2303-6.9227 18.1309-16.153 27.6908-28.1853 40.2176-36.2618 59.5023-38.4045 14.6695-1.8131 16.3178.1648 16.3178 17.6364 0 7.7469.3296 14.3399.8241 14.8344.4945.3296 3.4613 1.3186 6.593 2.1427 5.2745 1.4835 5.9338 2.3076 7.2524 9.3951 2.3076 11.373 5.4393 10.2193 16.8123-6.4282 17.966-25.8777 27.0315-44.0086 27.0315-53.8982 0-7.7468 6.593-29.8335 9.7247-33.1301 3.1317-3.1317 3.4614-3.1317 6.5931-.3296 1.6483 1.4834 3.6262 5.4392 4.1206 8.5709 1.4835 7.2524 4.2855 7.0876 10.8786-.3296 5.6041-6.4282 10.8785-17.4716 15.4936-32.8004 5.6041-17.9661 13.1862-37.2508 16.9772-43.1845 5.604-8.4062 7.0875-2.4724 3.1317 11.7026-2.3076 7.9117-4.1207 15.6585-10.2193 42.1956-1.3186 5.9337-3.6262 14.5047-4.9448 19.1198-1.3186 4.6152-2.3075 9.7248-2.3075 11.373 0 1.6483-.989 6.7579-2.3076 11.373-5.4393 19.4495-7.582 30.9874-7.582 39.888 0 5.1096-1.1538 19.4495-2.6372 31.8115-2.4724 20.1088-3.1317 22.9108-7.0876 27.3611-5.7689 6.2634-14.175 17.3068-15.6585 20.6033-.4944 1.3186-3.6261 6.9227-6.593 12.362-8.4061 14.9992-22.0867 42.8548-23.2405 47.3051-.8241 3.2965 0 4.78 4.6151 7.9117 7.582 5.1096 10.0544 13.1861 10.3841 32.8004.1648 11.0434.8241 15.8233 2.1427 16.3178 1.1538.3297 6.2634-3.4613 11.5379-8.4061 5.1096-5.1096 12.1971-10.5489 15.8233-12.0323 3.4613-1.4835 7.2523-3.7911 8.4061-5.2745 3.1317-4.2855 5.2745-.8241 6.5931 10.8785.4945 6.0986 1.8131 12.8565 2.6372 15.1641.8241 2.3075 2.1427 7.0875 2.9669 10.7137 4.2855 20.6033 27.8556 71.0401 44.9975 96.4233 2.8021 4.1207 7.7469 11.5379 11.0434 16.4827 8.7358 12.8564 45.1624 49.4478 56.8651 57.0299 14.0102 8.9006 36.0969 19.4495 47.7996 22.5812 29.1742 7.7468 29.9984 7.9116 59.8319 7.9116 16.3178 0 32.6356-.6593 36.2618-1.6482 3.6262-.989 9.8896-2.4724 13.6806-3.2966 3.9558-.8241 11.373-3.1317 16.3178-5.1096 20.6033-7.9116 36.0969-13.1861 46.9755-15.6585 16.8122-3.791 46.8106-23.2405 84.0614-54.2278 18.7902-15.6585 30.8225-23.8998 56.0409-38.5694 22.2515-12.8564 31.4818-15.8233 44.00865-14.5047 8.571.8241 9.7247.6593 9.2303-1.8131-.3297-1.6482-2.8021-3.2965-5.4393-3.9558-7.74685-1.9779-17.30675-5.7689-19.28475-7.7468-1.1537-1.1538-2.802-1.978-3.791-1.978-.9889 0-3.9558-2.6372-6.593-5.7689-4.4503-5.6041-4.9448-5.9337-12.1972-4.7799-4.1206.6593-9.0654 1.8131-10.7137 2.802-3.9558 1.9779-20.2736 5.9338-25.0536 6.0986-1.9779 0-6.2634-1.8131-9.7247-4.1207l-6.0986-4.2855-12.0323 5.1097c-10.0544 4.1206-14.3399 4.9447-25.0536 4.9447h-12.8564l-8.0765 9.0655c-4.2855 4.9448-9.3951 10.8785-11.2082 13.1861s-4.2855 4.1206-5.4393 4.1206c-2.802 0-18.1309-20.2736-24.0646-31.3169-2.1428-4.1207-5.7689-10.0544-8.2413-13.1861-2.3076-3.1317-4.78-7.0876-5.2745-8.7358-.8241-2.3076-3.1317-2.8021-11.7026-2.8021-7.7469 0-12.6917-.9889-17.4716-3.4613-6.4282-3.4614-7.0876-3.4614-13.6806-.8242-9.2303 3.4614-12.8565 3.2966-21.7571-.8241l-7.582-3.4613-3.6262 4.1206c-2.1427 2.3076-7.582 5.1096-12.6916 6.5931-11.2082 3.2965-14.175 7.7468-15.8233 23.0756-.989 9.0655-.6593 11.0434 1.3186 11.0434 1.3186 0 3.4614-2.3076 4.78-5.2744 3.6261-8.0765 10.0544-11.8675 20.1088-11.8675 13.6806 0 24.7239 7.582 39.0638 27.0315 12.1971 16.4826 16.3178 25.548 17.4716 38.899.9889 10.0544.4945 13.3509-3.4614 24.7239-7.7468 22.0867-25.8777 37.5804-53.7333 45.8217-7.2524 2.1428-10.8786 2.1428-31.6467 0-34.6135-3.6262-40.7121-5.7689-53.8982-18.7902-6.0985-5.9337-12.0323-12.6916-13.3509-15.164-11.2082-21.4274-19.6143-39.888-19.6143-43.3493 0-1.3186-.989-4.78-2.3076-7.7468-5.1096-12.1972-8.571-30.3281-11.373-61.4802-1.9779-20.933-2.1427-21.4275-6.4282-23.5702-6.0986-2.9669-5.7689-5.2744.8241-5.6041 13.3509-.6593 19.4495 1.4834 34.4487 12.8565 7.0875 5.2744 7.9117 5.6041 9.2303 2.802.9889-1.8131.9889-6.0986.1648-11.2082-3.9558-22.4164-3.9558-25.0536.8241-31.1521 6.5931-8.571 5.6041-13.8454-5.7689-31.4819-1.6483-2.802-3.791-6.4282-4.78-8.2413-2.4723-4.6151-5.1096-8.9006-10.7137-16.9771-4.2854-6.593-4.4503-7.4172-1.9779-8.9006 2.6372-1.3186 15.3289-26.2074 18.2957-35.4376.989-2.9669 1.978-3.4614 5.9338-2.6373 3.4613.6593 6.0986-.1648 9.2303-2.6372 2.4724-1.8131 5.2744-3.4613 6.4282-3.4613 5.2744 0 15.164 15.164 22.4164 34.119.8241 2.4724 2.1427 3.6262 2.9668 2.802 2.9669-3.2965 6.7579-22.2515 6.7579-34.2838 0-18.7902 8.0765-31.9763 15.8233-25.5481 1.9779 1.6483 2.9669 1.4834 5.1096-.6593 2.1428-2.1427 2.9669-7.7468 3.9559-25.3832.8241-16.153 2.1427-26.0426 4.6151-34.2839 1.9779-6.4282 4.2855-14.6695 5.1096-18.6254.8242-3.791 2.4724-8.5709 3.6262-10.7137 2.6372-4.9448 2.802-41.5362.1648-44.1734-1.4834-1.4835-2.6372-.1648-5.2744 5.2744-1.9779 3.791-3.4614 8.2413-3.4614 9.8896 0 1.4834-1.1538 3.6262-2.4724 4.78-1.3186 1.1537-2.4724 3.4613-2.4724 5.1096 0 1.4834-.9889 3.9558-2.1427 5.1096-1.3186 1.1538-2.802 4.2855-3.4613 6.9227-.8242 3.4613-1.6483 4.2855-2.9669 2.9669s-.989-2.9669.9889-5.9338c1.4835-2.3076 2.6373-5.6041 2.6373-7.2523 0-1.8131 1.1537-4.1207 2.4724-5.2745 1.3186-1.1538 2.4723-3.791 2.4723-5.7689s.989-4.6151 2.3076-5.6041 2.6372-3.9558 3.1317-6.4282 2.1428-7.9117 3.6262-12.1972c2.4724-6.593 2.6372-9.8895 1.1538-19.7791-1.6483-12.0323-3.791-19.7792-7.9117-28.0205-1.3186-2.3075-2.3076-5.4392-2.3076-6.7579 0-1.3186-1.1537-3.2965-2.4723-4.4503-1.3187-1.1537-2.4724-3.2965-2.4724-4.9448 0-1.6482-1.1538-3.791-2.4724-4.9447-1.3186-1.1538-2.4724-2.9669-2.4724-4.2855 0-2.3076-6.7579-13.0213-15.9882-25.2184-7.2523-9.7248-4.7799-13.1861 3.791-4.9448 6.4282 6.2634 6.2634 5.7689 18.4606 30.6577 4.7799 9.8895 9.7247 19.9439 11.0433 22.4163 1.3186 2.6372 2.4724 6.4283 2.4724 8.4062s1.1538 5.1096 2.4724 6.9227c1.3186 1.6482 2.4724 5.1096 2.4724 7.4172 0 2.4723 1.1538 7.582 2.4724 11.5378 2.1427 5.9337 2.4724 13.6806 1.8131 45.9865-.4945 21.2626-.4945 43.3493.1648 48.9534.8242 9.0655 1.3186 10.3841 4.4503 10.3841 2.1428 0 4.6152-1.9779 6.2634-4.9448 3.6262-6.2634 11.5379-6.9227 16.3178-1.3186 2.6372 3.2965 2.9669 6.7579 3.1317 23.5701 0 20.1088 1.1538 25.5481 9.2303 44.5031l2.802 6.5931 5.769-6.9227c3.2965-3.9559 7.0875-10.2193 8.5709-14.0103 1.9779-5.7689 3.4614-7.2523 7.0876-7.582 6.0985-.6593 8.7358 2.6373 20.9329 26.8667 10.5489 20.7681 19.944 34.9432 24.0646 36.5914 1.3186.4945 4.1207-.6593 6.2634-2.6372 5.6041-5.2744 8.571-4.2855 15.3289 4.78 3.2965 4.4503 6.2634 7.9117 6.593 7.582.3297-.3297.8242-4.9448 1.1538-10.2192.8241-15.6585 11.0434-46.3162 15.6585-47.1403 3.4614-.8242 19.4495 4.1206 21.9219 6.593 1.1538 1.1538 2.802 1.9779 3.791 1.9779.8241 0 6.2634 4.4503 11.8675 9.8896 6.9227 6.9227 10.8785 9.5599 12.8564 8.9006 1.4835-.6593 2.3076-1.9779 1.8131-3.2965-.4944-1.1538-1.3186-4.9448-1.8131-8.4061-1.4834-8.7358-5.7689-22.4164-13.1861-41.7011-1.4834-4.1207-3.791-10.0544-4.9447-13.1861-4.4504-11.8675-13.0213-32.1411-14.3399-33.7894-2.1428-2.3075-1.4835-7.4172.8241-7.4172 1.1538 0 3.9558 1.3186 6.0986 2.8021 3.6261 2.6372 7.582 2.9669 30.4928 2.4724 14.5047-.1648 26.8667-.989 27.6908-1.8131.6593-.6593-2.4724-4.9448-7.2523-9.3951-24.0646-22.9109-32.8004-32.6356-50.9313-56.7002-10.8786-14.5048-19.7792-26.7019-19.7792-27.1964 0-.6593-15.164-21.5922-22.5812-31.317-.8241-.9889-3.9558-4.9448-7.0875-9.0654-10.3841-13.5158-31.9763-33.9542-46.9755-44.1735-20.7681-14.175-43.8438-31.9763-45.8217-35.2728-1.3186-1.8131-.989-5.9337.989-14.175 3.6261-15.1641 3.6261-38.2397-.4945-84.3911-5.1096-58.3485-10.2193-73.8422-30.6577-93.2917-5.7689-5.6041-10.5489-11.5378-10.5489-13.0212 0-1.4835-.9889-4.78-2.3076-7.0876-1.3186-2.4724-3.9558-8.2413-6.0985-12.6916-1.9779-4.6151-6.5931-12.361998-10.3841-17.306698l-6.7579-9.0655v-37.0859c0-20.4385-.6593-38.0749-1.3186-39.2287-.8756-1.3134-2.0652-1.9754-3.6213-1.9586zm-10.3461 88.0359c.4752 0 .6525 1.6515.9462 5.5662.3296 4.4503-.4945 8.735698-1.978 11.043298-1.4834 2.3076-2.6372 7.0875-2.6372 10.8785 0 3.6262-.9889 8.7358-2.3076 11.0434-1.3186 2.4724-2.9668 7.2524-3.4613 10.5489-.4945 3.4613-1.6483 6.2634-2.4724 6.2634-2.4724 0-1.8131-11.8675.8241-16.4826 1.3186-2.3076 2.4724-6.7579 2.4724-9.8896s1.1538-7.582 2.4724-9.8896 2.3076-6.2634 2.4724-8.735798c0-2.6372.989-6.2634 2.1428-8.2413.7365-1.3392 1.2011-2.107 1.5262-2.1048zm-15.6137 57.939698c.2421 0 .4893.1236.7365.3709 1.8131 1.8131.1649 8.5709-2.1427 8.5709-.8241 0-1.4834 1.3186-1.4834 2.8021 0 4.4503-12.6917 18.2957-19.944 21.9219-10.3841 5.2744-23.0757 3.791-18.1309-2.3076.9889-1.1538 6.9227-4.1207 13.1861-6.7579 12.6916-5.1096 24.0646-14.5047 25.8777-21.2626.4945-2.2251 1.1744-3.3377 1.9007-3.3377zm57.8701 2.6169c1.5806.069 3.5637 2.1425 7.4783 6.9842 7.582 9.0655 8.2413 16.6475.989 10.0544-2.3076-2.1427-3.2965-1.9779-8.7358 1.978-3.2965 2.3075-6.5931 5.7689-7.0875 7.7468-1.1538 3.2965-1.1538 3.2965-2.3076.3296-1.1538-3.4613 3.791-21.4274 6.9227-25.2184.989-1.2362 1.7925-1.9161 2.7409-1.8746zm16.9755 40.3342c2.0554-.1445-1.5546 6.8625-9.9917 16.922-7.4171 8.7358-10.5488 8.7358-14.0102-.3296-2.802-7.2524-3.6262-13.1861-1.3186-10.2192.6593.9889 3.2965 3.1317 5.7689 4.7799l4.78 2.9669 6.7579-7.4172c4.3061-4.5894 6.937-6.6271 8.0137-6.7028zm-139.9742 3.3219c2.1206.038 2.9015.8828 2.9015 2.7216 0 3.1317-9.3951 6.5931-15.3288 5.6041-10.8786-1.8131-16.6475-3.791-17.3068-5.9337-.6593-1.8131 1.3186-2.1428 9.7247-1.4835 5.769.4945 12.8565.3297 15.4937-.3296 1.9264-.3967 3.4048-.5985 4.5157-.5789zm-29.3771 21.5021c.7195.048 1.93.6278 3.2692 1.658 3.6261 2.6372 6.0985 6.0985 13.3509 18.4605 3.6262 6.0986 14.0102 19.2847 18.4605 23.4053 5.769 5.2745 17.9661 13.351 24.3943 16.153 7.7469 3.4614 29.0095 8.4062 36.2618 8.4062 6.0986.1648 6.4282.3296 3.4614 2.4723-2.1428 1.6483-7.2524 2.4724-14.8344 2.4724-33.6246-.1648-60.4912-20.4384-80.1056-60.656-2.6372-5.6041-4.9448-11.0434-4.9448-11.8675 0-.3709.255-.5331.6867-.5042zm547.17565 6.7702c-.6256.5038-1.6744.7815-3.2763 1.1512-8.9006 1.9779-17.966 6.4282-25.2184 12.1971-13.6806 11.2082-18.1309 13.1861-30.6577 13.3509-18.6253 0-25.3832 3.4614-40.7121 20.1088-13.6805 15.1641-19.77915 18.9551-40.71205 26.0426-10.8786 3.6262-28.1853 13.8454-28.1853 16.6474 0 .8242-7.582 7.0876-16.8123 14.0103-9.3951 6.9227-21.9219 17.3067-28.0205 23.0757-5.9337 5.9337-13.3509 11.7026-16.4826 12.8564-2.9669 1.3186-12.362 9.0655-20.9329 17.3068l-15.3289 14.9992 5.1096 6.9227c2.8021 3.9558 7.4172 9.7247 10.0544 12.8564s9.3951 12.6916 14.8344 20.9329c5.6041 8.571 11.2082 15.3289 12.6916 15.3289 1.4835 0 7.582-3.9558 13.5158-8.7358 16.8122-13.6806 62.3043-47.47 74.3366-55.2168 16.153-10.3841 21.0978-12.6916 35.43775-15.8233 14.5046-3.2966 21.9219-6.2634 30.4928-12.5268 14.6696-10.5489 18.955-11.373 39.2287-7.9117 10.5489 1.8131 12.0322 1.6483 24.5591-2.4724 15.164-5.1096 30.8225-5.7689 41.701-1.9779 3.791 1.3186 9.0655 2.4724 11.7027 2.4724.4977 0 .977.044 1.4393.1297a542.27843 542.27843 0 00-19.0619-60.7426c-2.1075.2938-4.9632.4513-8.2551.4513-9.2303 0-12.6916.8241-18.7902 4.4503-11.5379 6.7579-25.7129 10.7137-42.8548 11.8675-18.9551 1.3186-23.4054 2.6372-38.5694 11.5379-6.4282 3.791-12.8564 7.4171-14.1751 8.0764-1.3186.6593-5.4392 2.9669-9.0654 5.2745-3.6262 2.1427-7.7468 3.9558-9.2303 4.1206-5.60415 0-20.60335 5.769-26.37225 9.7248-13.6806 9.7247-53.5685 40.3824-55.2168 42.3603-.9889 1.3186-2.3075 2.3076-2.802 2.3076s-3.2965 2.1427-6.2634 4.78c-6.0986 5.6041-24.3943 15.6585-25.8777 14.175-1.3187-1.1538 8.0764-8.9006 10.8785-9.0654 1.1538 0 2.4724-1.1538 2.9669-2.4724.6593-1.3186 1.8131-2.4724 2.6372-2.4724 1.6482 0 13.0213-8.2413 17.966-13.0213 1.4835-1.4834 4.78-4.4503 7.4172-6.7579 23.735-20.4384 31.317-27.0315 31.9763-27.8556.4945-.6593 3.791-3.2965 7.4172-6.0986 7.2524-5.4392 14.5047-8.5709 29.5039-13.0212 5.27455-1.4835 15.16405-6.0986 21.92195-10.0544 6.7579-3.9559 12.5268-7.2524 12.8565-7.2524.3296 0 4.2854-2.1427 8.9006-4.78 6.9227-4.1206 11.373-5.2744 31.6466-7.582 21.7571-2.4724 24.724-3.1317 36.9211-9.3951 7.2524-3.791 16.9771-7.7468 21.4274-8.9006 3.6095-.9024 6.8908-1.6965 8.476-2.003a542.27843 542.27843 0 00-25.1437-53.376zm-364.34625 61.0913c.7185.015 1.0894.4687 1.0894 1.3752 0 .8242-2.3076 3.791-4.9448 6.7579-2.6372 3.1317-7.582 9.2303-11.0434 13.6806-4.4503 5.7689-7.2523 8.0765-9.5599 7.7468-5.7689-.8241-2.9669-6.593 9.2303-18.2957 7.788-7.4172 13.0727-11.3112 15.2284-11.2648zm-69.3182 25.1427c.8741-.038 1.3454.3796 1.8398 1.1213.8242 1.4834-7.582 8.571-10.0544 8.571-.6593 0-3.791 2.3075-6.9227 4.9448-2.9668 2.6372-6.0985 4.4503-6.9227 3.9558-2.6372-1.6483 3.9559-9.0655 12.362-14.0102 5.6659-3.1936 8.2413-4.5199 9.698-4.5827zm-148.1257 18.4815c.3728.014.7978.2762 1.2922.7707 1.3187 1.3186 1.3187 3.6262-.3296 8.9006-1.1538 3.9558-2.8021 10.3841-3.4614 14.5047-3.1317 17.4716-9.8895 42.8549-14.3398 52.7444-2.6373 5.9338-3.4614 6.7579-4.4504 4.4503-1.6482-3.791-1.1537-6.593 7.4172-41.5362 1.1538-4.6151 3.1317-10.7137 4.2855-13.6806 1.3186-2.9668 2.3076-6.7578 2.3076-8.5709 0-1.6483 1.1538-5.1096 2.3075-7.7469 1.3187-2.4724 2.9669-6.0985 3.4614-7.7468.4121-1.4422.8885-2.1118 1.5098-2.0893zm177.5685 2.0175c.9486-.033 2.4572.4839 4.0437 1.3904 2.1427 1.4835 4.7799 2.6372 5.7689 2.6372 1.8131 0 13.8454 9.0655 19.944 15.1641 2.3075 2.3075 2.4724 2.9668.6593 2.9668-1.3186 0-2.6372-.4945-2.9669-1.3186-.1648-.6593-4.1206-2.9669-8.4061-5.2744-15.8234-8.0765-21.5923-12.5268-19.944-15.164.1545-.2576.4699-.3864.9011-.4015zm-17.6928 5.7377c1.6277-.021 4.1001.5975 7.0669 1.9161 6.7579 2.9669 21.9219 14.8344 28.3502 22.0867 7.4171 8.571 24.8887 31.4819 24.8887 32.8005 0 .6593 1.1538 2.1427 2.4724 3.4613 1.3186 1.4835 2.4724 3.2965 2.4724 4.1207 0 3.2965-2.9669 1.1538-8.2413-6.2634-9.5599-13.351-34.4487-37.9101-46.6458-46.1514-6.2634-4.2855-11.8675-8.9006-12.362-10.0544-.4121-1.2362.3709-1.8955 1.9985-1.9161zm-31.5024 4.883c1.8131 0 1.3186 6.2634-.6593 7.582-.989.4945-1.3186 2.802-.8241 4.9448.8241 2.802.3296 3.9558-1.4835 3.9558-2.9669 0-3.2965-5.9337-.3296-12.0323.9889-2.4724 2.4724-4.4503 3.2965-4.4503zm-156.6262 3.4201c3.8322-.041 6.1398.7005 6.1398 2.184 0 2.3075-4.6151 4.1206-26.7018 9.8896-13.6806 3.4613-29.3391 7.7468-39.2287 10.5488-8.4061 2.3076-11.373 3.6262-23.4053 9.56-2.3076 1.3186-5.4393 2.3075-6.7579 2.3075s-3.2965 1.1538-4.4503 2.4724-3.2965 2.4724-4.9448 2.4724-3.791 1.1538-4.9448 2.4724-3.1317 2.4724-4.4503 2.4724-3.4614 1.1538-4.78 2.4724c-2.802 2.802-7.2523 3.2965-7.2523.8241 0-.8241 1.8131-1.9779 4.1206-2.6372 2.3076-.4945 4.1207-1.6483 4.1207-2.3076s1.9779-2.1427 4.6151-3.1317c2.4724-.9889 6.7579-3.2965 9.3951-5.1096 4.78-3.1317 5.6041-3.6261 10.7137-5.6041 1.3186-.4944 3.6262-1.6482 4.9448-2.4724 1.3186-.8241 3.6262-1.9779 4.9448-2.4724 1.3186-.4944 3.6262-1.6482 4.9448-2.3075 4.9448-2.9669 14.1751-6.4282 23.8998-9.3951 5.4393-1.4835 13.1861-3.791 17.3068-5.1096 4.1206-1.1538 11.5378-3.2966 16.4826-4.6152 6.0986-1.6482 11.4554-2.4724 15.2876-2.5136zm180.8557 4.8212c2.3075 0 23.0756 20.6033 23.0756 22.9109 0 .9889.8242 1.813 1.6483 1.813.989 0 2.4724 1.6483 3.2965 3.6262.989 2.1428 3.1317 5.9338 4.78 8.7358 1.8131 2.6372 3.2965 6.0986 3.2965 7.4172 0 1.6483-.4945 1.4834-1.8131-.8241-.9889-1.8131-2.802-4.1207-3.791-4.9448-.9889-.989-4.4503-4.9448-7.4172-9.0655-8.0765-10.7137-16.8122-19.7791-19.1198-19.7791-2.8021 0-7.7468-6.0986-6.4282-8.0765.4944-.989 1.6482-1.8131 2.4724-1.8131zm77.3035 16.4826c1.3186 0 4.7799 1.8131 7.7468 4.1207s5.9338 4.1206 6.4282 4.1206c.989 0 13.351 9.0655 15.6585 11.5379.4945.4945 4.6152 3.791 9.0655 7.2523 8.2413 6.4283 42.3603 40.0528 50.272 49.6127 11.373 13.5158 28.0205 37.086 28.0205 39.7232 0 1.9779-25.8778-26.2074-38.0749-41.3714-9.2303-11.7027-45.3272-46.3162-59.1726-56.8651-4.1207-3.1317-9.2303-7.4172-11.5379-9.3951s-5.6041-4.7799-7.4172-6.0986c-2.3075-1.813-2.4724-2.4723-.9889-2.6372zm-260.0109 3.3378c.9452-.021 1.3985.412 1.3985 1.2774 0 2.6372-9.0655 9.8895-27.1964 21.9219-18.7902 12.3619-34.9431 24.2294-42.0307 30.6576-6.0985 5.4393-14.9992 13.5158-23.735 21.7571-4.2854 3.9558-8.2413 6.7579-8.7357 6.0986-1.3187-1.1538 33.4597-35.2728 47.9644-47.1403 6.0986-4.9448 19.4495-14.6696 29.5039-21.5923 12.7328-8.777 19.9955-12.9182 22.831-12.98zm-122.0564 24.6827c1.6482 0 1.9779 2.3076.4945 3.791-1.6483 1.4834-4.1207-.4945-3.1317-2.3076.6593-.8241 1.6482-1.4834 2.6372-1.4834zm295.4694 7.9689c.1261.066.2959 1.4262.5586 4.2282.4944 3.4614 0 7.0876-.989 8.0765-.989.989-1.8131 4.4503-1.8131 7.582-.1648 3.2966-1.1538 7.7469-2.4724 10.0544-1.3186 2.3076-2.3075 6.0986-2.4724 8.4062 0 2.3075-1.1538 5.6041-2.4724 7.4172-1.3186 1.6482-2.4724 4.4503-2.4724 5.9337 0 1.6483-.9889 5.2744-2.3075 8.2413s-3.4614 8.4062-4.78 12.0323c-1.3186 3.6262-3.791 9.8896-5.2744 14.0103-1.4835 4.1206-3.9559 10.384-5.2745 14.0102-1.4834 3.6262-3.4613 8.7358-4.6151 11.5378-5.2744 12.5268-7.9117 18.4606-10.0544 22.7461-1.3186 2.6372-2.3076 5.7689-2.3076 6.9227s-.9889 4.2855-2.3075 6.9227c-2.6373 4.9448-11.5379 24.5591-14.9992 32.6356-3.9559 9.3951-7.4172 21.4274-7.4172 26.0425 0 2.4724-.989 6.5931-2.3076 9.0655-1.1538 2.4724-2.802 9.2302-3.6262 15.164l-1.3186 10.7137-1.1538-7.4172c-1.3186-8.4061 2.4724-34.4487 6.0986-41.701 1.3186-2.6373 2.3076-5.9338 2.3076-7.582 0-1.4835 1.1538-4.2855 2.4724-6.0986 1.3186-1.6483 2.4724-4.1207 2.4724-5.1096 0-1.1538 2.3075-7.0876 5.1096-13.1861 7.7468-17.142 9.0654-20.6033 12.1971-28.515 1.4835-4.1206 3.791-9.7247 4.9448-12.3619 1.1538-2.8021 3.2965-8.2414 4.9448-12.362 1.4834-4.1207 3.791-9.5599 5.1096-12.0323 1.3186-2.6373 2.3076-5.9338 2.3076-7.4172 0-1.4835 1.1538-4.2855 2.4724-5.9338 1.3186-1.8131 2.4724-4.6151 2.4724-6.0985 0-1.6483.9889-4.9448 2.3075-7.582 1.3187-2.4724 3.6262-7.9117 5.1097-12.0324 1.4834-4.1206 3.791-9.8895 5.1096-12.8564s2.3075-6.7579 2.3075-8.2413c0-1.6483 1.1538-4.4503 2.4724-6.2634 1.3186-1.6483 2.4724-4.9448 2.4724-7.2524 0-2.3075 1.4835-6.4282 3.2966-9.0654 1.813-2.8021 3.4613-7.2524 3.6261-9.8896.077-1.8543.1544-2.8031.2656-2.7448zm82.8738 2.0002c.1772 0 .376.024.5924.085 1.9779.8241 2.4724 3.1317.4945 3.2965-.6593 0-1.4835-.8241-1.8131-1.9779-.4018-.8035-.042-1.3893.7262-1.4039zm-24.4847 13.4269c1.2313-.037 2.9698 1.431 3.4848 3.8003.3297 1.6483 1.4835 4.1207 2.8021 5.4393 1.3186 1.1538 2.3076 3.9558 2.3076 6.2634 0 2.1427.6593 3.9558 1.6482 3.9558.8241 0 2.1428 1.9779 2.6372 4.4503.6593 2.6373 1.9779 6.0986 2.9669 7.9117 4.1207 7.582 12.8565 42.1955 11.7027 46.6458-1.1538 4.78-3.4614 3.4614-4.6152-2.4724-.3296-2.6372-1.4834-6.9227-2.4724-9.5599-.9889-2.802-2.9668-9.3951-4.4503-14.8344-1.4834-5.4392-3.4613-12.1971-4.4503-14.8343-.9889-2.8021-2.1427-7.2524-2.6372-9.8896-.3296-2.802-1.8131-6.4282-2.9669-8.2413-1.3186-1.8131-2.3075-4.6151-2.3075-6.2634s-1.1538-4.1207-2.4724-5.4393c-1.3186-1.4834-2.4724-3.6262-2.4724-5.1096 0-1.2362.5563-1.8002 1.2951-1.8224zm59.2502 42.4888c1.0101-.014 2.3925 1.524 3.0776 4.1664.4945 2.3075 1.6483 4.1206 2.3076 4.1206.8241 0 4.1206 5.7689 7.4172 12.6916 3.2965 7.0876 7.0875 14.9992 8.4061 17.4716 1.1538 2.6372 2.3076 5.9338 2.3076 7.582 0 1.4835 1.1538 4.4503 2.6372 6.4283 1.3186 1.9779 1.9779 4.4503 1.3186 5.4392-1.3186 2.3076-8.7358-6.2634-8.9006-10.2192 0-1.4834-1.1538-3.6262-2.4724-4.78s-2.4724-3.4613-2.4724-4.9448c0-1.6482-1.1538-5.2744-2.4724-8.0764-1.3186-2.8021-3.6262-7.4172-4.9448-10.2193-1.3186-2.802-2.4724-6.0985-2.4724-7.582 0-1.3186-1.1538-3.4613-2.4724-4.7799-1.3186-1.4835-2.4724-3.6262-2.4724-4.9448 0-1.6071.5168-2.3436 1.2079-2.3533zm-101.7519 69.2727c2.4724 0 1.9779 5.9338-.8241 8.2413-1.3186 1.1538-2.4724 3.2966-2.4724 4.9448 0 1.6483-1.1538 3.791-2.4724 4.9448s-2.4724 3.4614-2.4724 5.1096c0 1.6483-.8241 3.4614-1.8131 3.9559-.8241.6593-2.4724 2.802-3.2965 4.6151-.8242 1.9779-3.4614 6.9227-5.6041 10.8785-2.3076 3.9559-4.1207 8.9007-4.1207 10.8786s-2.1427 5.6041-4.9448 8.2413c-2.6372 2.6372-4.9447 5.9337-4.9447 7.4172 0 1.4834-.8242 3.4613-1.8131 4.4503-2.3076 2.3075-5.769 8.2413-8.2413 14.0102-.989 2.6372-2.4724 4.6151-3.2966 4.6151-.8241 0-1.4834 1.3187-1.4834 3.1317 0 1.6483-1.1538 3.9559-2.4724 5.1097-1.3186 1.1537-2.4724 2.9668-2.4724 4.2854 0 1.1538-.989 3.1317-2.3076 4.2855-1.3186 1.3186-2.4724 3.791-2.802 5.4393-.8241 3.791-4.78 5.2744-4.78 1.8131 0-2.4724 2.3076-7.0875 12.6916-25.3833 2.9669-5.2744 6.0986-11.373 7.2524-14.0102.989-2.4724 2.4724-4.4503 3.2965-4.4503.8242 0 1.4835-1.4834 1.4835-3.1317 0-1.8131.6593-3.791 1.6482-4.2855.8242-.4945 3.6262-5.1096 5.9338-10.0544 2.3075-4.9448 4.9448-8.9006 5.7689-8.9006s1.4834-1.6483 1.4834-3.791c0-2.1428.8242-4.6151 1.8131-5.6041 2.3076-2.3076 5.7689-8.2413 8.2413-14.1751.989-2.4724 2.4724-4.4503 3.2966-4.4503.8241 0 1.4834-1.3186 1.4834-3.1317 0-1.6482.989-3.9558 2.3076-4.9448 1.3186-1.1537 2.802-3.791 3.2965-5.9337.6593-2.3076 1.8131-4.1207 2.6372-4.1207zm141.4029 19.7586c1.1058-.01 2.6656 1.4319 3.6442 3.9764.8242 2.1428 2.3076 4.4503 3.1317 5.1096.989.4945 1.8131 4.1207 1.8131 7.9117-.1648 6.4282-.3296 6.7579-2.4724 3.791-1.3186-1.8131-2.4724-4.78-2.4724-6.5931 0-1.9779-1.1538-4.9447-2.4724-6.593-1.3186-1.8131-2.4724-4.2855-2.4724-5.4393 0-1.4731.544-2.1574 1.3006-2.1633zm-116.4192 15.1077c-1.4599-.053-2.7296 2.0136-5.0397 6.8348-2.8021 5.9337-3.4614 10.2192-3.4614 25.0536 0 12.8564-.8241 20.1088-2.802 25.2184-2.6372 7.0875-2.8021 7.0875-9.0655 6.0986-9.3951-1.6483-12.3619 2.802-13.6805 20.6032-2.1428 31.4819-6.0986 42.1956-13.8454 37.9101-5.769-2.9669-6.0986-2.3076-12.5268 20.6033-6.2634 22.9108-10.2193 44.0086-12.5268 65.9305-.8242 9.0654-2.8021 27.526-4.1207 41.2066-4.2855 41.3713-4.4503 44.8327-2.3076 81.589 2.3076 39.8879 1.8131 38.899 15.8234 45.492 9.2302 4.4503 13.8454 4.9448 13.8454 1.8131-.4945-45.1624 3.1317-89.5007 9.8895-124.7735 3.791-19.1198 7.0876-33.9542 9.0655-40.3824 1.1538-3.6262 3.2965-11.0434 4.6151-16.4827 7.2524-28.6797 8.571-32.9652 21.0978-70.0511 3.791-11.373 22.2515-50.272 31.1522-65.9305 4.2854-7.2524 4.2854-8.0765 3.791-31.9763-.4945-20.7681-.989-24.8888-3.2966-26.7019-3.2965-2.3075-7.2523-.3296-11.373 5.7689-2.9669 4.2855-6.9227 4.4503-8.4061.4945-.4945-1.4834-2.1428-4.1206-3.4614-5.7689-1.4165-1.6096-2.4305-2.5152-3.3664-2.5493zm-596.4676 81.5722a542.27843 542.27843 0 0022.6504 59.0796c2.6375-.2215 6.9589 1.2128 13.1481 4.3074 19.6144 9.8896 24.724 11.373 41.0418 11.373 17.4716 0 27.8556 2.3076 40.7121 9.2303 22.2515 12.0323 36.7562 18.6253 42.69 19.6143 14.9992 2.4724 23.8998 7.2524 40.5472 21.4274 7.582 6.4282 12.0323 10.0544 22.0867 18.1309 4.6152 3.6262 9.0655 7.4172 9.8896 8.4062 3.4614 3.6261 18.6254 14.175 24.724 17.1419 5.7689 2.6372 11.5378 7.9116 10.2192 9.2303-1.6483 1.813-11.7027-3.6262-26.8667-14.6696-35.6025-25.8777-40.2176-29.1742-41.0417-29.1742-.4945 0-2.6373-1.4835-4.6152-3.4614-8.7358-8.0765-22.0867-15.3288-33.9542-18.2957-11.0433-2.802-33.6245-13.1861-51.261-23.4053-4.4503-2.4724-10.2192-3.6262-25.548-4.4503-21.2626-1.3187-32.1411-3.791-45.4921-10.3841-4.6151-2.3076-9.3951-4.2855-10.5489-4.2855-.2502 0-.5077-.024-.7703-.069a542.27843 542.27843 0 0034.7332 61.8578c1.5872-.6518 4.2633-1.1654 8.2327-1.627 5.4392-.6593 12.0323-1.8131 14.3399-2.4724 2.4723-.8241 4.6151-1.4834 4.6151-1.4834.9889-.6593 15.164 5.4392 19.2847 8.4061 2.802 2.1428 7.0875 4.78 9.3951 6.0986 5.1096 2.802 25.7129 8.4061 30.9873 8.4061 4.4503 0 13.0213 3.791 22.5812 9.7248 10.0544 6.4282 13.0213 8.2413 15.6585 9.5599 4.6151 2.1427 38.5693 25.7129 54.3927 37.5804 13.8454 10.384 39.7231 27.1963 42.0307 27.1963.8241 0 11.7026 8.2413 28.5149 21.7571 12.8565 10.5489 28.8446 25.0536 38.7342 35.108 18.955 19.6143 29.3391 30.6577 36.0969 38.7342 5.283 6.2658 20.8178 28.368 28.3885 39.90269a542.27843 542.27843 0 0063.1841 8.1937c-4.7165-9.837-25.4261-45.55489-34.213-58.97499-45.3272-68.5677-106.313-135.652-150.8161-165.8152-3.6261-2.4724-7.582-6.0986-8.7358-8.0765-1.1537-1.8131-6.2633-5.2744-11.373-7.582-5.2744-2.4724-14.175-8.9006-20.9329-15.3288-6.4282-5.9338-16.4826-13.8454-22.2515-17.4716-5.9338-3.4614-14.8344-10.2192-19.7792-14.8344-9.2303-8.4061-26.0425-17.4716-36.097-19.2847-11.8674-2.3075-23.2405-9.5599-37.7452-24.0646-15.6585-15.6585-17.6364-16.6474-36.5914-16.6474-12.5268 0-21.0978-2.9669-31.4818-10.7138-4.9448-3.791-10.5489-7.7468-12.5268-8.7357-6.5931-3.4614-26.537-7.4172-43.1845-8.4062zm480.6646 31.9052c1.8131 0 4.1207 6.4282 2.9669 7.7468-1.6483 1.4834-4.4503-1.3186-4.4503-4.6151 0-1.6483.6593-3.1317 1.4834-3.1317zm-136.7713 11.5372c1.104.01 1.7735 1.3553 1.449 3.6268-.6593 4.4503-4.6152 5.9337-4.6152 1.6483 0-1.6483.4945-3.6262 1.1538-4.1207.7366-.7932 1.4341-1.1579 2.0124-1.1544zm112.4804 8.4174c.5585-.021 1.3183 2.0909 3.6876 8.0658.6594 1.3187 2.4724 4.6152 4.1207 7.4172 1.8131 2.6372 4.9448 8.2413 6.9227 12.362s4.6151 8.571 5.9338 10.2192c1.6482 1.8131 1.813 2.9669.4944 3.791-.9889.6593-2.1427.8242-2.3075.6593-10.5489-14.175-15.8234-23.4053-15.8234-27.3611 0-1.3186-1.1537-4.1207-2.6372-6.2634-1.6482-2.4724-2.1427-5.2745-1.4834-6.9227.4945-1.1744.7571-1.9548 1.0923-1.9673zm-5.1267 46.8847c.7919.01 1.9277 1.852 4.1992 6.1787 3.791 7.7469 5.4393 20.933 2.4724 20.933-1.8131 0-3.4613-4.1207-3.4613-9.0655 0-2.1427-1.3187-5.9337-2.8021-8.7358-1.6483-2.802-2.3076-5.9337-1.4834-7.9116.3399-.9066.6604-1.404 1.0752-1.3988zm-4.8556 36.009c1.5346.014 2.8326 5.4219 3.1211 13.3542 0 4.4503 1.1538 13.0213 2.4724 18.955 2.802 12.362 3.2965 29.6687.8241 29.6687-.8241 0-1.9779-1.9779-2.4724-4.6151-.6593-2.4724-2.1427-9.0654-3.4614-14.6695-2.3075-10.5489-3.2965-40.2176-1.1537-42.3604.2266-.2266.4507-.3348.6699-.3329zm207.054 38.91c1.4292-.069 3.9542 1.4654 6.5502 4.2778 5.9338 6.4282 12.0323 16.6474 12.0323 20.2736 0 1.6482 1.1538 5.7689 2.4724 8.9006 3.9559 9.5599 2.6372 62.1395-1.4834 55.8761-.6593-1.3186-1.3186-11.8675-1.1538-23.4053.1648-15.164-.4945-23.2405-2.3076-28.3501-1.3186-3.9559-2.4724-8.4062-2.4724-9.8896 0-3.1317-10.5488-21.9219-13.1861-23.5702-.9889-.4945-1.6482-1.6482-1.6482-2.6372 0-.9632.4479-1.4395 1.1966-1.4757zm128.9588 26.6948c.8458-.082.4024 1.7197-1.2613 5.4386-1.4834 3.1317-3.2965 5.7689-3.9558 5.7689s-1.3186.8241-1.3186 1.8131c0 3.2965-20.7681 27.8556-23.4053 27.8556-.989 0 .6593-2.9668 3.4613-6.4282 2.802-3.4613 5.1096-7.0875 5.1096-7.7468 0-.8241 2.3076-3.6262 4.9448-6.2634 2.8021-2.6372 4.9448-5.7689 4.9448-7.0875 0-1.1538 1.1538-2.6373 2.4724-3.1317 1.3186-.6594 2.4724-1.8131 2.4724-2.8021 0-.9889 1.3186-2.9669 2.9669-4.6151 1.8079-1.808 2.9901-2.7455 3.5688-2.8014zm-38.1463 10.609c.2313 0 .443.089.6232.2689 1.6483 1.6482 0 6.9227-2.1427 6.9227-.8241 0-1.4834 1.1537-1.4834 2.6372 0 2.1427-6.5931 12.1971-13.1861 19.944-.8242 1.1537-1.6483 2.6372-1.6483 3.2965 0 .8241-1.3186 2.6372-2.802 4.1206-1.6483 1.4835-5.4393 5.2745-8.571 8.571-2.9669 3.2965-6.2634 5.4393-7.0875 4.9448-.8242-.4945 1.6482-4.1207 5.6041-7.9117 7.4171-7.4171 10.2192-11.0433 12.8564-17.1419.8241-1.9779 2.3076-3.6262 3.1317-3.6262s1.8131-1.3186 2.4724-2.9668c.4945-1.4835 2.4724-5.1097 4.2855-7.7469 1.8131-2.802 4.1206-6.593 5.2744-8.7358.7726-1.5452 1.8472-2.5873 2.6733-2.5764zm-49.4376 5.5433c1.4989.062 1.9316 3.8322 1.4371 11.8675-.6593 12.5268-5.4393 28.3501-7.9117 26.7018-2.3075-1.3186-1.6482-10.8785.989-15.4936 1.3186-2.3076 2.3076-7.9117 2.4724-12.5268 0-4.6152.4945-8.9006 1.1538-9.3951.7417-.7829 1.3598-1.1744 1.8594-1.1538zm-24.2758 54.3927c1.9779 0 1.9779 11.0433 0 12.3619-2.4724 1.4835-3.791-2.1427-2.6372-7.4171.6593-2.8021 1.8131-4.9448 2.6372-4.9448zm45.371 2.4054c.3065-.01.5743.067.7804.2318 2.1427 1.1538.1648 3.9558-2.8021 3.9558-1.3186 0-2.3076.6593-2.3076 1.4835 0 1.6482-9.2302 6.7578-12.1971 6.7578-.989 0 .3296-1.8131 2.9669-4.1206 2.6372-2.3076 5.4392-4.1207 6.2634-4.1207.8241 0 2.6372-1.1538 4.1206-2.4724.989-.9889 2.2561-1.6997 3.1755-1.7152zm-186.923 58.5668c-1.9388.01-3.423.271-3.9896.8376-.3297.4945.1648 5.1096 1.3186 10.2192 4.1085 19.08449 6.297 30.38369 6.5692 34.85239a542.27843 542.27843 0 0025.4902-1.3575c-2.1759-5.9829-5.2548-17.6008-7.0058-27.23149-1.9779-10.7137-2.4724-11.7026-7.9117-14.3398-3.7395-1.8131-10.2055-3.003-14.4709-2.9804z" style="stroke-width:.164826"/></svg>