<svg height="960" style="" width="1368" xmlns="http://www.w3.org/2000/svg"><path d="m170.62916 705.39205c-2.1505 3.2257-1.61287 9.6772 1.07525 14.5158 4.30101 7.5268 5.37626 7.5268 8.06439 1.0753 3.76338-10.2149-4.30101-23.6555-9.13964-15.5911zm-18.27927-36.021c1.61288 18.8169 15.05352 27.9566 15.05352 10.7526 0-15.0536-5.37626-27.9566-11.82776-27.9566-2.68813 0-4.30101 7.5268-3.22576 17.204zm1059.66021-32.7951c-6.9892 2.6881-12.3654 6.9891-12.3654 10.2149 0 10.2148-48.3863 106.9875-69.8914 138.7074-43.5477 66.1279-129.0301 145.15885-193.54519 179.56685-50.5368 26.8813-66.128 41.9349-43.5477 41.9349 18.2793 0 81.1815-36.5586 140.85789-81.18145 69.3537-52.6873 124.1916-122.041 162.9006-204.8354 18.8169-41.3972 33.3328-83.8696 29.5694-87.0954-1.0752-1.0752-7.5267 0-13.9782 2.6882zm-1074.71373-10.7525c-1.61287 3.2257.53763 9.6772 5.37626 14.5159 8.06438 8.0643 8.60201 7.5267 8.60201-5.9139 0-14.5159-6.98913-19.3546-13.97827-8.602zm1078.47703-284.404c0 9.6772 3.7634 29.5694 8.0644 44.0853 11.8278 38.709 9.1397 117.2024-5.9139 181.7175-4.301 18.8169 5.3763 19.8921 19.8922 2.6881 8.602-10.2149 9.6772-21.505 10.2149-88.1706 0-45.6982-2.6882-82.2567-6.4515-91.3964-3.2258-8.0644-7.5268-25.806-9.1397-38.709-3.7634-29.0318-16.6664-37.0962-16.6664-10.2149zm-647.30129 396.2301c-1.6128 2.6881.5377 5.9139 4.8387 8.0644 8.0644 3.2257 15.5911-3.7634 9.6772-9.6773-4.8386-4.8386-11.2901-4.301-14.5159 1.6129zm-143.0084-147.8471c0 6.9892 3.7634 15.5912 8.0644 19.3546 4.301 3.7633 8.0644 10.2149 8.0644 14.5159 0 17.204 69.3537 93.0092 84.9448 93.0092 3.7634 0 8.0644 3.7634 9.6773 8.0644 2.1505 4.301 6.4515 8.0644 10.7525 8.0644s7.5268-3.7634 7.5268-8.0644-2.6882-8.0644-5.9139-8.0644c-20.4298 0-100.536-92.4716-109.138-125.2668-4.301-17.7416-13.9783-19.3545-13.9783-1.6129zm-12.3654-68.816c-4.8386 4.8386-4.8386 30.107-.5376 41.9348 5.3763 14.5159 12.903 9.6772 12.3654-9.1397-.5376-20.9674-6.4515-38.1714-11.8278-32.7951zm545.1524-58.6012c.5377 11.2901 2.1505 33.8704 4.301 49.9991l3.7634 29.5695 4.301-44.0853c2.1505-24.7308 2.6882-46.7735.5377-49.9992-6.9892-11.8278-13.4407-4.301-12.9031 14.5159zm-137.6321-224.7276c-1.6129 2.6881 2.1505 6.4515 8.0644 8.602 12.3653 3.7634 64.515 54.3002 64.515 61.827 0 3.2257 2.6882 5.3763 5.3763 5.3763 3.2257 0 8.0644 5.3762 10.7525 11.8277 3.2258 6.9892 10.2149 19.3545 16.1288 28.4942 10.7525 16.1287 13.9782 23.1179 18.8169 37.6338 1.0752 4.301 4.8386 8.0644 8.0644 8.0644 8.0643 0 6.4515-19.3546-2.6882-26.8813-4.301-3.7634-8.0644-10.7525-8.0644-16.1288s-3.7633-12.3654-8.0643-16.1288c-4.301-3.7633-8.0644-9.6772-8.0644-13.9782 0-8.602-65.5904-77.4181-73.6547-77.4181-3.2258 0-6.9892-3.7634-9.1397-8.0644-3.2257-9.1397-17.204-10.7525-22.0426-3.2258zm-198.9215 5.3763c-80.6439 24.1931-143.5461 84.4072-170.965 164.5134-18.8169 54.3002-10.2149 127.9549 20.9674 190.8572 16.6664 32.7951 71.5042 82.2567 112.3638 102.1488 35.4833 16.6664 41.3972 17.7417 96.7726 18.2793 58.0636.5376 83.332-4.8386 115.5895-24.1932 4.301-2.6881 12.903-6.9891 18.8169-9.6772 23.1179-10.2149 73.1171-67.2032 90.3211-102.1489 15.5912-32.2575 17.204-40.8595 18.8169-96.7726 2.1505-62.9022 1.0753-68.8161-25.2684-123.6539-12.3654-26.8813-74.1923-87.0954-102.6865-100.536-63.4398-30.1071-116.6647-36.021-174.7283-18.8169zm99.4607 34.9457c46.2358 14.5159 73.6547 33.3327 101.6113 70.4289 12.3654 16.1288 22.0426 31.1823 22.0426 33.8704 0 3.2258 3.7634 12.3654 8.0644 20.4298 10.7525 20.4298 9.6773 74.1924-1.6129 102.6865-11.2901 27.4189-38.709 60.7517-49.4615 60.7517-6.4515-.5376-6.4515-1.6129 1.6129-7.5267 4.8386-3.7634 9.1396-9.6773 9.1396-13.4407 0-3.2257 3.7634-12.3654 9.1396-19.8921 13.9783-21.5051 12.3654-100.536-2.6881-129.0302-20.4298-38.1714-46.7734-63.4398-83.8696-81.7191-29.5694-14.5159-41.3972-17.204-73.6547-17.204-20.9674 0-45.6982 3.2257-54.8378 7.5267-9.6773 4.301-20.9674 9.1397-25.2684 10.7526-12.3654 5.3762-30.1071 16.1287-39.7843 24.1931-4.8387 4.301-10.7526 5.9139-12.9031 3.2258-4.301-4.301 41.3972-45.6982 50.5369-45.6982 2.6881 0 8.602-3.2258 11.8277-6.4515 18.2793-18.2793 90.3211-25.2684 130.1054-12.903zm-168.8144 137.6321c-18.8169 37.6338-19.8922 106.4499-2.6882 141.3956 27.419 54.8378 70.429 88.7082 126.8797 100.536 52.6873 10.7525 110.7509-6.4515 154.2986-45.6982 11.8277-10.2149 22.5802-17.204 24.1931-15.5912 1.6129 2.1506 0 4.8387-3.2257 5.9139-3.7634 1.6129-6.9892 5.9139-6.9892 9.6773 0 10.7525-48.9239 51.0744-73.1171 60.7517-33.3328 12.903-112.3637 14.5159-138.7074 2.6881-56.4507-24.7308-94.0845-63.4398-115.5895-118.8153-20.4298-52.1496-10.2149-110.2132 26.8813-151.6104 10.2149-11.2901 19.3545-19.3545 19.8921-18.8169 1.0753 1.0753-4.301 14.5159-11.8277 29.5694zm188.7066-7.5267c18.2792 13.4406 39.2466 52.1497 39.2466 70.9666 0 14.5158-16.6663 49.9991-29.5694 63.4398-11.2901 11.2901-50.5368 29.0318-65.0527 29.0318-17.204 0-54.8378-22.0427-69.3537-40.322-27.4189-36.5585-17.204-103.2241 19.8922-125.8044 32.2575-19.8921 76.3428-18.8169 104.837 2.6882zm58.6012-187.0938c-1.6129 3.2258-.5377 7.5268 2.6881 9.1397 8.0644 5.3762 13.4406-1.6129 6.4515-8.6021-3.7634-3.7633-6.9891-3.7633-9.1396-.5376zm-186.0185-214.512608c-19.3545 2.150492-40.3219 6.989115-46.7734 10.214875-6.4515 3.76338-16.6664 6.45151-22.5803 6.45151-10.7525 0-26.3437 5.913883-73.1171 27.956533-28.4942 13.44069-37.0962 18.81689-75.2676 47.31109-43.5477 32.7951-106.4499 98.9231-117.74 123.6539-1.6129 4.301-8.0644 15.0535-13.9783 24.1931-5.9139 8.6021-11.82775 19.8922-13.97825 24.1932-1.61288 4.301-5.91388 15.0535-10.21489 24.1932-32.25754 72.5794-48.38631 190.8571-34.94566 255.3721 3.22575 13.4407 7.52675 34.9457 10.21488 48.3864 5.37626 25.806 16.12877 56.4506 24.73078 69.8913 2.68813 4.301 10.75252 18.2793 17.20404 31.7199 17.204 31.7199 55.9131 85.4825 86.0201 118.8153 54.3002 60.7517 147.3094 115.58945 213.975 126.34195 11.8278 2.1505 32.2575 5.9139 45.6982 8.0644 60.7517 11.8277 190.3195-1.6129 255.9098-25.806 121.5034-45.16055 213.97499-133.86875 273.11379-260.74845 10.7525-22.5803 19.3546-45.6982 19.3546-51.0744 0-4.8387 3.7633-20.9674 8.0643-35.4833 17.2041-55.9131 8.0644-187.0938-17.204-253.2217-32.7951-86.0201-58.6012-124.7292-125.8044-190.8571-59.13879-59.1389-120.42809-93.00927-214.51259-119.890563-34.9457-10.214865-138.1698-15.5911252-188.169-9.677245zm105.9122 140.857908c130.6431 17.7416 230.1038 101.0736 277.4149 232.2543 16.66639 47.3111 16.12879 146.2342-1.0753 197.3086-24.1931 69.3537-51.612 114.5143-92.4716 153.2233-54.3002 50.5368-109.138 77.4181-179.5669 88.1706-79.5686 11.8278-185.4809-20.9674-245.1573-75.8052-41.9348-38.1714-84.4073-110.7509-105.9123-178.4917-10.7525-35.4833-12.3654-153.7609-1.6129-180.6422 11.2902-29.5694 22.5803-55.9131 27.9566-64.5151 2.6881-4.301 7.5267-13.9783 10.7525-20.9674 2.6881-7.5268 24.1931-31.7199 46.7734-53.7626 37.6338-37.6338 82.2567-65.0527 132.7935-83.8696 8.6021-3.2257 60.7517-14.5159 84.4073-18.2793 2.1505 0 22.5802 2.1505 45.6981 5.3763zm-216.6631-196.770993c-5.3762 4.30101-14.5159 8.06439-19.3545 8.06439-7.5268 0-27.9565 8.60201-52.6873 22.58028-4.301 2.1505-11.8278 5.913881-16.1288 8.064391-53.7626 23.655519-155.9114 115.589532-196.23336 176.341232-26.34366 40.3219-66.66558 120.4281-67.20321 133.3312 0 5.3762-2.68813 15.0535-5.91388 21.505-12.36539 22.5803-26.88129 128.4925-25.26841 181.1798 1.07525 27.9566 3.76338 54.3002 5.91388 58.0636 9.67727 14.5159 14.5159-1.6129 14.5159-47.3111 0-217.2007 118.27768-416.1222 307.52188-518.271098 19.8921-10.752525 39.7843-19.354535 43.5477-19.354535 4.301 0 10.7525-3.76338 14.5159-8.06439 3.7633-4.301 12.3654-8.06438 18.8169-8.06438 16.1287 0 29.5694-5.37626 29.5694-11.29014 0-8.06439-40.322-5.37626-51.6121 3.22575zm63.9775-20.42977c-15.0536 5.91388-5.9139 12.36539 16.6664 12.36539 30.107 0 44.6229-4.83863 34.408-11.29014-7.5268-4.83863-40.3219-5.91388-51.0744-1.07525z" style="stroke-width:.537626"/></svg>