<svg height="960" style="" width="1413" xmlns="http://www.w3.org/2000/svg"><path d="m549.03314 620.57809c-10.6024 27.5663 37.1085 98.0723 80.5783 118.2169 80.0482 36.5783 214.6988 36.5783 283.6144-.5302 46.1205-25.4457 79.518-69.4457 79.518-107.0843v-19.6144h-219.9999c-200.9156 0-220.53.5301-223.7108 9.012zm-31.8072-154.265c-1.0602 2.6506-1.0602 31.2771-.5301 63.6145l1.5904 57.7831h251.8071 251.80716v-62.5542-62.5542l-251.27706-1.0603c-173.3493-.5301-251.8071.5301-253.3975 4.7711zm129.3494-190.8433c-2.1205 2.1205-3.7109 9.012-3.7109 14.8434 0 7.4216-6.3614 14.8433-19.0843 21.7349-31.2771 16.4337-57.7831 47.1807-68.3855 78.4578-16.9639 49.8313-33.3976 46.6506 215.759 45.0602l218.9396-1.5903 1.5904-16.9639c1.0602-9.5421-3.1807-25.9759-9.5422-38.6988-12.1927-24.3855-40.8192-58.3132-49.3012-58.3132-9.012 0-32.8674-22.2651-35.518-33.3976-3.1807-11.6626-4.7711-11.6626-125.1084-13.253-67.3253-.5301-123.518.5301-125.6385 2.1205zm-116.0964-94.3614c-10.6024 8.4819-32.8674 27.5663-48.771 42.4096-28.6265 25.9759-29.6868 27.5663-29.6868 54.0723 0 25.4458-3.1807 36.0482-23.8554 82.1686-31.2771 68.9157-34.4578 84.8193-34.4578 156.3855 0 42.4096 2.6506 74.2169 6.3614 81.1084 12.1928 23.8554 53.0121 72.6265 59.9036 72.6265 14.8434 0 13.253-11.1325-4.7711-45.0602-19.0843-33.9277-19.0843-34.4578-19.0843-99.6626v-65.735l31.2771-44.5301c17.494-24.3855 41.3494-57.253 53.012-73.1566 16.4338-21.7349 21.735-33.9277 21.735-48.771 0-27.0362 10.6024-33.3976 57.7831-36.5783l40.2891-2.6506v-42.4096-42.4097l-45.5903-1.5903c-42.9398-1.5904-46.1205-.5302-64.1446 13.7831zm145.253-37.1084c-16.9639 14.3132-16.9639 14.3132-16.9639 63.0843v49.3012h111.3253c70.506 0 111.3253-2.1205 111.8554-5.3012v-42.4096-47.1808c-.5301-5.8313-8.4819-15.3734-18.5542-21.2048-15.9036-10.0723-25.9759-11.1325-93.8313-11.1325-75.2771.5301-76.3373.5301-93.8313 14.8434zm-285.2047-121.927704c-2.1205 6.36144-5.3012 11.66264-7.9518 11.66264-3.1808 0-6.8916 4.24097-8.482 9.01205-2.1205 5.3012-10.0723 19.08431-17.4939 30.74701-24.3856 38.168604-26.5061 42.409604-31.8073 54.602404-2.6506 6.8915-11.6626 25.9759-19.0843 42.4096-36.04818 78.9879-51.42166 127.2288-63.08431 197.2047-19.61445 117.6867-1.06024 227.4217 59.37351 345.6385 6.3614 12.7229 9.5421 30.747 4.771 30.747-6.8915 0-67.85535-38.1687-90.65053-56.7229-8.48192-7.4217-32.33734-28.6265-51.95179-47.7108-24.91566-23.8555-38.16866-32.8675-41.87951-29.1567-3.71084 3.7109-3.18072 9.0121.53012 16.4338 3.71085 5.8313 7.95181 21.2048 10.60241 33.3976 11.66265 57.2529 48.77107 138.3614 93.30118 205.6866 32.86746 49.30125 99.13252 119.27705 145.25292 153.20471 38.1687 28.0964 104.4338 64.6747 108.6747 60.4337 1.5904-1.5903-19.0843-23.3253-45.5903-48.7709-48.7711-46.12046-97.0121-104.96386-125.6386-153.20481-8.4819-14.8434-14.3132-28.0964-12.7228-29.1566 1.5903-1.5904 10.0722 0 19.6144 3.7108 45.5904 19.0843 214.6987 56.19285 256.5782 56.19285 20.6747 0 16.9639-9.5423-9.5421-23.3253-100.7229-52.48195-201.4457-181.83135-243.8554-312.77105-34.9879-108.6747-35.518-239.0843-1.5903-358.3613 10.0723-34.4579 42.9397-117.156604 49.8313-124.578304 2.6506-2.6506 4.7711-9.0121 4.7711-13.7832 0-4.771 3.7108-11.6626 7.9518-15.3734 4.2409-3.7109 7.9518-10.07233 7.9518-14.84341 0-4.24096 4.2409-11.13253 9.5421-14.84337 7.4217-5.3012 7.9518-7.9518 2.1205-13.78313-5.3012-5.3012-7.4217-4.77108-9.5421 5.30121zm595.8552-121.92768c58.31316 59.9036 104.43366 117.15659 119.27706 149.49393 2.1205 4.24095 9.5421 18.55425 16.9639 31.27715 21.2048 37.638504 17.494 43.999904-18.5543 30.216804-73.6867-27.566204-203.56616-62.024074-234.31316-61.493954-12.7229 0-16.9638 10.07225-5.8313 14.31325 14.8434 5.3012 65.2048 45.590304 89.5903 71.566204 69.97586 73.6868 116.09636 164.8675 142.07226 277.7831 16.9638 74.2168 7.9518 230.6023-15.9036 287.3252-4.241 9.5422-7.4217 20.1446-7.4217 24.3855 0 8.482-34.9879 89.0602-48.241 111.3253-5.3012 9.012-15.3734 28.6265-22.7951 43.99995-7.42166 14.8434-15.37346 28.0964-17.49396 29.1566-5.8313 2.6506-23.8554 36.0482-19.6145 36.0482 9.5422 0 71.56626-81.63845 96.48186-127.22885 79.5182-144.1927 107.0845-233.2529 107.0845-344.0481 0-67.8554-5.8314-101.7831-30.2169-172.8192-20.6748-58.8433-22.7953-71.5662-13.7831-71.5662 16.9638 0 103.9035 75.8072 144.1927 126.1686 25.4458 31.8072 31.2771 23.3253 19.6144-31.8072-22.265-107.0843-48.771-173.3494-102.8433-256.048104-42.9397-65.7349605-164.8675-177.590336-194.02406-177.590336-4.7711 0-8.482-2.65061-8.482-5.30121 0-3.18072-3.7108-5.3012-7.9518-5.3012-4.771 0-.5301 7.42168 12.1928 20.144566z" style="stroke-width:.53012"/></svg>