<svg height="960" style="" width="1720" xmlns="http://www.w3.org/2000/svg"><path d="m1030.6206 278.74854c-1.7486 7.57723-3.4972 29.14321-3.4972 48.37772 0 19.81738-2.9143 38.46903-6.4115 41.96622-7.5773 7.57723-17.486 102.00119-11.0745 108.4127 8.1601 8.74296 13.4059-8.74294 15.7374-53.62348 1.7486-24.48029 6.4115-54.20636 11.0744-66.4465 4.6629-11.65729 8.1601-37.30331 8.1601-56.53782 0-34.97185-6.9944-46.62913-13.9887-22.14884zm-353.21558 18.06879c0 22.14883 4.08005 48.37772 8.74296 60.61787 4.66291 11.07441 8.74285 34.38898 8.74285 51.29204 0 41.38335 5.82864 67.02935 14.5716 67.02935 9.90869 0 5.82865-60.61785-6.4115-100.25261-4.66291-15.15446-8.1601-42.54908-8.1601-61.20073 0-21.56597-3.49707-39.05189-8.74285-46.04626-7.57723-9.90869-8.1601-7.57724-8.74296 28.56034zm-220.32268 363.70719c-61.78359 58.86928-55.95495 123.56719 15.73733 178.93928 19.23452 14.57161 37.3033 26.81175 40.21763 26.81175 2.91432 0 8.74296 4.08005 12.82301 8.74296 4.08004 4.66292 13.40587 8.74296 21.56601 8.74296 7.57723 0 15.15447 4.08005 16.90306 8.74297 4.08005 9.32582 34.38898 12.24014 39.63476 3.49718 3.49718-5.82864-9.32583-12.24015-23.89743-12.24015-4.66291 0-12.24015-4.08004-16.90306-8.74296-5.24577-4.66291-13.98874-8.74296-19.23456-8.74296-5.82864 0-13.98874-4.08005-18.06878-8.74296-4.08005-4.66291-10.49156-8.74296-14.57161-8.74296s-8.74296-4.08005-11.07442-8.74296c-1.74859-4.66292-7.57723-8.74297-13.40587-8.74297-16.32019 0-48.37772-58.28641-48.37772-87.42961 0-25.06316 15.15447-54.78923 37.88617-74.60661 11.07441-9.90869 20.40024-20.98311 20.40024-24.48029 0-12.24015-16.90306-5.24578-39.63476 15.73733zm733.24296 23.31457c0 2.91432 5.2458 11.07441 11.6573 19.23451s11.6573 23.31457 11.6573 33.80612c0 15.15447 2.3314 19.23451 10.4915 17.48592 16.3202-2.91432 15.7374-30.8918-2.3314-54.20636-13.9888-18.06879-31.4747-27.39461-31.4747-16.32019zm-340.97548 25.06315c-17.48592 6.41151-33.80612 27.39462-30.30893 37.88617 5.24577 13.40587 76.93806 12.82301 82.18384-1.16573 2.91432-6.4115-.58287-13.40587-9.32583-20.40024-22.14884-18.06879-30.30893-20.98311-42.54908-16.3202zm-156.79044-122.40147c-20.40014 1.74859-35.55461 5.82864-37.3032 10.49155-3.49718 10.49156 68.77786 8.1601 72.85791-2.91432 4.08004-11.07442 4.08004-11.07442-35.55471-7.57723zm-379.44447-693.60829c-2.33146 3.49718 0 18.651651 4.66291 33.806118 5.24578 15.154467 13.40587 44.297672 19.23451 65.28078 5.24578 20.983108 20.98311 76.938062 34.97185 125.315782 37.88617 130.56158 43.71481 149.21323 51.87491 174.85925 4.08005 12.82302 19.81738 62.36646 34.97184 110.74419 15.15447 47.79485 32.64039 102.58406 38.46903 120.65284 5.82865 18.65166 11.07442 34.38899 11.07442 36.13758 0 1.16573-13.98874 9.32582-30.30893 18.06879-55.95496 29.1432-103.16695 68.19511-117.73855 97.33831-13.40588 26.22889-23.89743 19.23452-50.12631-31.47466-21.56598-40.8005-120.07001-233.7285-133.47589-261.12311-2.33145-4.66291-7.57723-13.98874-11.07441-20.40024-4.08005-6.41151-8.74297-15.73733-10.49156-20.40025-1.74859-4.66291-5.82864-12.82301-8.74296-17.48592s-6.99437-13.40587-8.74296-19.23451c-2.33146-5.24578-7.57723-9.90869-11.65728-9.90869-9.90869 0-9.90869 2.91432-.58287 22.14883 4.66292 8.74296 12.24015 25.06316 16.90306 36.13758 8.74296 20.9831 20.40025 46.04626 48.37772 107.82986 8.74296 19.23449 47.212 98.50401 85.09816 176.02495 38.46903 77.52092 69.36083 143.96743 69.36083 147.46462 0 13.40587 37.3033 61.78359 64.11505 84.51529 35.55471 29.14321 118.90428 72.85802 139.88743 72.85802 8.74297 0 19.23452 4.08004 23.31457 8.74296 4.66291 5.82864 18.06879 8.74296 39.05189 8.74296 26.81175 0 30.8918 1.74859 29.72607 9.90869-1.74859 9.32581 4.08005 10.49154 61.78349 8.16009 46.04626-1.16573 62.36646 0 59.45214 4.66291-2.33146 3.49718-9.32583 6.4115-15.15447 6.4115s-12.82301 2.33146-14.5716 5.82864c-2.33146 3.49719 12.24015 5.82866 39.05189 5.82866 23.31457.5828 67.02938 1.7486 97.33831 4.08 56.53782 2.9144 132.893-2.3314 125.89865-8.74293-2.33146-2.33145-13.40588-6.99437-25.06316-10.49155l-21.56597-6.99437 32.05753-.58286c17.48592 0 41.96625 2.33145 54.20635 5.82864 12.2402 3.49718 30.3089 4.08005 39.6348 2.33145 13.9887-3.49718 16.903-6.4115 13.4058-15.73732-2.9143-9.32582-1.1657-11.07442 7.5773-8.16009 34.9718 10.49155 41.9662 9.90869 53.6235-1.7486 6.4115-6.4115 15.7373-10.49155 19.8173-8.74296 4.663 1.74859 31.4747-9.32582 60.035-23.89743 60.035-31.47466 118.3215-84.51529 136.9731-125.31578 6.4115-14.5716 36.7204-76.3552 66.4465-136.97307 86.8468-176.60783 113.0757-233.72849 139.3045-300.175 1.7486-4.66291 5.8287-12.82301 8.743-17.48592 19.8174-34.97185 24.4803-48.37773 19.2345-53.6235-6.9944-6.99437-15.7373 7.57723-76.3552 129.39583-68.1951 135.80732-132.3101 258.20879-139.8874 266.95175-9.9087 10.49155-17.4859 8.74296-23.3145-6.4115-13.9888-37.30331-111.9099-114.82425-144.5503-114.82425-3.4972 0-13.4059-5.82864-21.566-13.40587l-15.1545-12.82301 15.1545-46.62913c8.1601-25.64602 18.6516-61.20071 23.8974-78.68663 4.6629-17.48592 12.2402-43.71481 16.3202-58.28641 16.9031-58.28641 38.4691-132.89302 47.212-166.1163 5.2458-19.23451 12.823-46.62912 16.9031-61.20073 8.1601-29.1432 23.3145-85.68102 35.5547-134.0587409 4.6629-17.4859231 12.2401-44.2976721 16.903-58.8692751 10.4916-33.223254 11.0745-46.046264 1.1658-46.046264-6.9944 0-17.486 25.063156-27.3946 64.115051-2.3315 11.074418-7.5773 27.977478-11.0745 37.8861676-5.2457 14.5716027-95.0068 309.5008614-111.327 367.2044114-15.7373 55.95495-48.9606 159.12188-53.0406 167.28198-5.8287 11.07441-19.2346 10.49155-71.1095-4.66292-15.1544-4.08005-54.2063-10.49155-87.42956-13.98874-32.64039-3.49718-61.20074-8.74296-64.11506-11.07441-2.33145-2.33146-.58286-56.5378 4.66292-120.65285 10.49155-141.05312 11.65728-287.35203 2.33145-278.0262-4.08005 4.08004-8.74296 48.37772-11.65728 110.7442-2.33146 57.12068-7.57723 129.97869-10.49155 162.03622-3.49719 32.05753-6.99437 74.02374-8.1601 93.25826l-1.16573 34.97182-40.21762-1.16573c-22.14884-.58286-42.54908-3.49718-46.04627-6.99437-2.91432-2.91432-8.1601-40.2176-10.49155-83.34954-2.91432-42.54908-8.74296-106.66413-12.24015-141.63598-3.49718-35.55471-8.1601-102.5841-9.90869-150.37896-1.74859-49.54345-5.82864-86.263888-9.32582-87.429617-9.90869-2.331456-9.90869 74.606607-.58287 185.350807 9.90869 117.73855 15.15447 272.78038 9.32583 282.10621-1.74859 3.49718-25.64602 9.32582-53.04064 12.24014-52.45766 6.41151-123.56708 20.40025-156.79033 31.47467-11.07442 3.49718-22.7317 6.4115-25.06316 6.4115-4.66296 0-94.42403-264.03742-157.95622-466.291286-15.15446-48.37772-31.47466-96.172577-36.13757-106.664131s-8.1601-23.314565-8.1601-27.977477c0-9.325826-22.14883-60.617866-26.22888-60.617866-1.16573 0-4.08005 2.91432-5.82864 5.82864zm482.02855 655.13926c6.99437 10.49155 1.74859 18.06878-13.40588 19.81738-47.79485 5.24577-55.95495 18.65165-11.07441 18.65165 26.81175 0 29.1432 1.16573 29.1432 13.98874 0 19.23451-5.82864 22.14883-46.62913 21.56597-22.7317 0-36.13757 2.91432-40.80048 8.74297-4.08005 4.08005-14.57161 8.1601-23.31446 8.1601-8.74296 0-19.23452 4.08005-23.31456 8.74296-4.08005 4.66291-13.40588 8.74296-20.98311 8.74296-7.57724 0-15.73733 3.49719-18.06879 6.99437-5.24578 8.1601-30.8918 23.89743-33.80612 20.98311-.58286-1.16573-5.82864-9.90869-10.49155-19.81738-9.32583-17.48592-8.74296-18.06879 7.57723-30.8918 9.32583-6.41151 22.14884-12.24016 28.56034-12.24016 15.15447 0 29.72607-5.82864 29.72607-12.24014 0-8.74296-39.05189-5.82864-46.62913 3.49718-9.90869 12.24015-25.64602 11.07442-38.46903-3.49718-13.40587-14.5716-5.82864-29.14321 18.65165-36.13758 9.32583-2.91432 28.56034-8.74296 43.13195-12.82301 14.5716-4.08005 40.80049-9.32582 58.28641-11.07441 17.48581-2.33146 43.7147-5.82865 58.2863-8.74297 28.56034-5.24577 47.21199-2.91432 53.6235 7.57724zm97.92117-4.08005c7.57723 6.4115-12.24015 22.7317-31.47466 25.06315-24.4803 3.49719-26.22889 15.15447-2.33146 13.40588 18.06879-1.74859 45.4634 6.99437 45.4634 15.15447 0 9.32582-32.64039 18.65165-58.86927 16.90306l-25.64602-1.7486-3.49719-32.05752c-4.66291-46.04627-4.08005-46.62913 37.3033-42.54908 19.81738 1.74859 37.30331 4.66291 39.0519 5.82864zm75.18947-6.41151c26.22888 5.24578 22.14884 12.24015-9.32583 15.73733-28.56034 3.49719-41.38335-1.74859-34.38898-12.82301 4.66291-6.99437 16.90306-8.16009 43.71481-2.91432zm113.6585 17.48593c14.5716 5.82864 4.6629 13.98873-16.3202 13.98873-11.0744 0-22.7317 4.08005-26.8117 8.74297-9.3259 11.07441-29.1432 11.07441-29.1432 0 0-15.73733 49.5434-31.47467 72.2751-22.7317zm50.1263 22.7317c0 5.24577-5.2458 8.74296-14.5716 8.74296-17.4859 0-18.6517 6.99437-3.4972 18.06879 11.0744 8.16009 11.0744 8.74296-1.7486 46.04627-12.823 39.0519-24.4803 48.96059-38.469 32.05753-4.08-4.66292-10.4916-8.74296-14.5716-8.74296s-10.4915-4.08005-14.5716-8.74297c-8.743-10.49155-36.7204-11.65728-33.8061-1.74859 1.7486 4.08005 8.1601 8.1601 15.1545 9.32583 6.9943 1.16573 21.5659 9.90869 33.2232 20.40024 16.9031 15.15447 20.4002 21.56597 20.4002 41.96622 0 13.40587-4.08 29.1432-8.7429 35.55471-4.6629 5.82864-8.743 16.32019-8.743 22.14883 0 26.81175-46.0462 51.87491-54.7892 29.72607-4.08-11.07441-11.65729-11.07441-22.73171 0-5.24577 5.24578-23.31456 8.74296-48.37772 9.90869-36.13757 1.7486-40.21762 2.91432-41.96621 14.57161-1.7486 11.07441 1.74859 12.82301 31.47466 16.90306 34.97185 4.08004 75.77238-2.91433 74.02374-12.82302-.58286-2.91432 9.32584-4.66291 22.14884-3.49718 19.8174 2.33146 23.3146 4.08005 21.566 14.5716-2.3315 13.98874-11.6573 19.81738-41.3834 24.4803-26.22887 4.08004-22.73168 14.5716 5.2458 14.5716 13.9887 0 19.8174 2.91432 19.8174 8.74296 0 15.15447-18.0688 16.90306-59.45217 6.4115-22.14883-5.82864-41.96621-8.74296-44.29767-6.4115-7.57723 7.57723 23.31457 26.22888 43.13195 26.22888 27.97747 0 24.48029 9.90869-4.66292 13.40588-47.79485 5.24578-165.5334 4.66291-206.91675-1.16573-50.12632-7.57723-71.69218-16.32019-71.69218-29.72607 0-5.82864-5.82864-13.98874-12.82301-19.23451-12.82301-8.1601-12.82301-9.32583-2.33146-13.40588 6.41151-2.33146 12.24015-1.16573 15.73733 4.08005 5.82864 9.32583 6.99437 4.66291 1.74859-8.74296-1.74859-5.24578-6.99436-9.32583-11.65728-9.32583-15.73733 0-31.47466-22.7317-31.47466-44.29767 0-19.81738.58286-20.98311 15.73733-16.90306 20.98311 5.24578 22.7317 7.57723 14.5716 15.73733-13.40587 13.40588-6.99436 18.06879 18.65166 14.5716 23.31445-3.49718 25.64591-2.91432 22.73159 7.57724-2.33146 9.32582 0 11.65728 10.49155 11.65728 6.99437 0 18.06879-4.66291 23.89743-9.90869 10.49155-9.32583 9.90869-9.90869-15.73733-23.31456-15.15447-7.57724-32.05753-13.40588-37.88617-13.40588-6.41139 0-18.06868-6.4115-26.81164-14.5716s-21.56597-16.3202-29.1432-18.06879c-18.06879-4.66291-32.64039-35.55471-30.30894-62.94932 2.33146-27.97748 16.3202-36.13758 16.3202-9.90869 0 12.24014 2.91432 18.06879 8.74296 18.06879 4.66291 0 8.74296-2.91433 8.74296-5.82865 0-7.57723 18.65165-26.22888 32.05753-30.89179 9.32582-4.08005 9.90869-5.24578.58286-15.15447-11.07442-12.24015-6.99437-18.06879 11.65728-18.06879 7.57713 0 15.15436-2.91432 16.90295-5.82864 1.7486-3.49718 8.74297-5.82864 15.15447-5.82864 8.74296 0 11.07442 4.08005 11.07442 20.40024 0 11.65729 4.08005 30.30894 8.74296 41.96622 4.66291 11.07442 8.74296 36.13757 8.74296 54.78923 0 27.97747 2.33146 36.72043 15.15447 50.12631l14.5716 16.32019-3.49718-17.48592c-2.33146-9.90869-6.41151-32.64039-8.74297-50.70918-2.91432-18.65165-6.99436-36.72044-9.32582-40.80048-7.57723-12.24015-12.82301-71.10943-6.99437-78.68666s43.71481-3.49718 55.95495 5.82864c5.24578 4.08005 9.32583 4.08005 13.98874-.58286 8.1601-8.1601 66.44651-9.32583 71.10942-1.74859 1.7486 2.33145 16.3202 5.24577 32.64039 5.82864 36.72044.58286 54.78923 9.32582 48.96059 22.7317-2.33146 5.24577-6.41151 22.7317-9.32583 39.05189-18.06878 101.41836-18.06878 106.66413-1.16572 89.17821 5.24577-5.24578 11.07441-25.64602 13.98873-48.96058 5.24578-48.96059 11.07442-71.69229 20.40025-85.68103 5.82865-8.1601 5.82865-15.15446 1.16573-26.81175-8.74297-23.31457-2.33146-34.38899 23.31452-38.46904 12.2402-1.74859 26.8118-5.82864 32.0576-9.32582 5.8286-2.91433 19.2345-5.24578 30.3089-5.24578 12.2401 0 20.9831-3.49719 23.3146-8.74296 1.7485-4.66292 8.7429-8.74297 15.1544-8.74297s11.6573 4.08005 11.6573 8.74297zm-148.04747 6.4115c-1.74859 5.24578-3.49718 15.15447-3.49718 22.14884s-4.08005 18.06879-8.74297 24.4803c-8.16009 10.49156-9.32582 10.49156-15.15446.58287-2.91432-5.24579-12.24015-9.90871-19.81738-9.90871-16.3202 0-25.06316-19.23451-14.57161-32.05752 3.49719-4.66291 17.48593-9.32583 30.8918-10.49156 13.40588-1.16572 26.81175-2.33145 29.72607-2.91432 2.33146-.58286 2.91432 2.91432 1.16573 8.1601zm212.16257 11.07442c4.08 4.66291 11.0744 8.74296 15.7373 8.74296 23.8974 0 95.0068 54.78924 120.07 93.25827 23.8974 34.97185 5.2458 99.0869-40.8005 139.88739-29.1432 25.64602-102.5841 64.11505-122.4015 64.11505-6.4115 0-15.1544 3.49718-18.6516 8.1601-4.0801 4.66291-18.0688 9.90869-31.4747 11.65728-13.4058 2.33145-34.389 5.24577-46.0462 6.99437-12.2402 1.74859-22.1489 1.16573-22.1489-1.16573 0-12.82301 24.4803-43.13195 34.389-43.13195 6.4115 0 15.1545-3.49718 19.2345-7.57723 4.0801-4.66291 15.1545-9.90869 23.8975-12.24014 8.7429-1.7486 15.7373-6.41151 15.7373-9.32583 0-8.74296-20.9831-6.99437-29.1432 2.91432-10.4916 12.82301-34.9719 11.65728-34.9719-1.74859 0-12.82301 8.743-25.06316 43.132-61.7836 21.5659-22.7317 26.8117-32.64039 26.8117-48.96058 0-11.65729-4.08-25.64602-9.9087-31.47467-8.7429-9.90868-8.7429-13.40587 2.3315-49.54344 9.9087-33.80612 13.9887-39.63477 26.2289-41.38337 8.1601-1.16573 18.0688 2.33146 22.1488 6.99437 4.0801 5.24579 10.4916 9.32584 14.5716 9.32584 4.0801 0 19.8174 12.82301 35.5547 28.56034 50.1263 50.70918 51.2921 100.83549 4.0801 148.63035-25.646 26.22888-41.9662 37.88617-72.858 50.70918-9.3259 3.49718-16.3202 8.74296-16.3202 11.07441 0 2.91432-8.743 5.82864-18.6517 6.99437-10.4915 1.16573-19.2345 4.08005-19.2345 7.57724 0 2.91432 8.743 6.4115 19.2345 7.57723 13.9888 1.16573 18.6517-.58286 18.6517-6.99437 0-5.82864 5.2457-9.32583 13.9887-9.32583 7.5772 0 16.9031-4.08004 20.9831-8.74296 4.0801-4.66291 9.3258-8.74296 12.2402-8.74296 8.1601 0 53.6235-33.22325 69.9437-50.70918 8.7429-8.74296 19.8173-28.56034 25.646-44.29767 9.9087-26.22888 9.9087-28.56034 0-53.6235-15.7374-41.96621-31.4747-58.28641-99.0869-100.25263-6.4115-4.08005-16.3202-9.32583-21.566-11.07442-5.8286-1.74859-10.4916-7.57724-10.4916-11.65728 0-11.07442 19.8174-10.49156 29.1433.58286zm-664.46505 41.96623c0 10.49155-2.33146 19.23451-5.82864 19.23451-20.40025 0-61.20074 71.10942-54.78923 96.17258 4.66291 18.65165 19.81738 19.23452 19.81738.58286 0-34.97184 25.06316-78.68665 44.88054-79.26951 10.49155 0 14.57164 5.24577 22.14888 30.30893 4.66291 16.90306 10.49155 40.80049 12.82301 53.04063 1.74859 11.65729 5.24577 23.31457 8.16009 25.06316 5.24578 2.91432 28.56034 53.04063 28.56034 61.20073 0 2.91432-5.24577 5.24578-11.65728 5.24578-6.4115 0-11.65728-2.33146-11.65728-5.24578 0-8.1601-18.65165-13.40587-25.06316-6.99437-4.08005 4.08005-2.33145 7.57724 5.24578 10.49156 5.82864 2.33145 14.5716 7.57723 18.65165 11.65728s12.24015 7.57723 18.06879 7.57723c11.07442 0 23.89743 22.14884 23.89743 40.80049 0 9.90869-4.08005 11.65728-25.64602 11.65728-15.15447 0-27.97748-3.49718-32.64039-8.74296-4.08005-4.66291-12.82301-8.74296-19.81738-8.74296-13.98879 0-78.6867-30.8918-106.66418-50.70918-20.98311-15.15447-54.20636-64.69792-64.69791-96.17258-6.41151-18.65165-5.82865-24.48029 5.24577-47.79485 15.15447-32.64039 60.03501-74.60661 100.83549-93.84114 27.39462-12.82301 30.30894-13.40587 39.63476-4.66291 6.41151 5.24578 10.49156 17.48592 10.49156 29.14322zm113.65854 40.21762c7.57723 2.91432 8.1601 4.66291 1.74859 8.74296-11.07441 7.57724-16.32019 6.41151-16.32019-3.49718s1.16573-10.49156 14.5716-5.24578z" style="stroke-width:.582864"/></svg>