<svg height="960" style="" width="1405" xmlns="http://www.w3.org/2000/svg"><path d="m1250.1515 678.16016c-.5824 2.36605-.91 5.09611-.91 7.86257v.29121c.8008 3.27607 1.82 6.15173 3.1304 8.84539l-.1092-.2548c-7.8989 5.60572-17.1448 11.39345-26.6818 16.74436l-1.6016.80082c-17.9092 8.88179-33.3067 19.58363-46.8842 32.2147l.1091-.1092c-4.5136 4.8413-10.9565 7.86257-18.0911 7.86257-.2184 0-.4368 0-.6916 0h.036c-4.4409.32761-8.5178 1.05562-12.4855 2.18405l.4368-.10921-9.1366-16.59876-48.4131 9.64621c1.7473-13.7959 11.6119-24.60693 4.7321-38.62124-11.1022-9.79181-25.0437-16.63516-40.4049-19.25602l-.4731-.0728-26.3542 15.21553c-.4732-1.89284-.7644-4.04048-.7644-6.26093 0-.43681 0-.87362.036-1.31043v.0728c1.274-5.71492 3.1668-11.32065 4.8049-17.03557-9.5006-10.19222-21.4037-12.37627-32.79716-15.03353-3.02126-.61881-6.73415 1.52884-9.68262 3.20327-5.60567 3.20327-10.811 7.17096-16.38033 10.44703-2.07485.83722-4.51369 1.41963-7.02536 1.67444h-.10919c-1.12843-10.44703 7.75337-18.49161 3.53088-28.79303l-32.28751-12.95868-27.08219 17.83639-4.6229-3.27608c3.23968-10.66543 8.40859-20.49364 7.20737-32.94271l-23.33292-12.44907-43.89933 25.15294c-3.38528-11.35704 8.22657-19.40162 3.64008-30.39466-2.22045 0-5.09611-1.20122-6.87975-.2548-15.47035 8.11737-30.72227 16.45316-39.42206 33.12472-12.59468 23.91532-15.03354 47.02982 1.96563 70.21713 6.04254 8.99099 12.84949 16.81716 20.53005 23.66051l.1092.1092c14.01431-3.31247 24.09734-14.19631 39.27646-19.21962l-11.42985 31.45029c6.91616 10.59263 20.27524 9.82821 29.52103 17.14477 15.03354-7.20736 28.24701-18.05479 46.73862-25.84456l-12.74027 35.78198c6.95255 9.02739 18.41879 9.97381 27.84659 14.23271 13.86871-6.29734 24.86175-16.92637 40.58689-21.65847 0 12.74027-9.3186 20.93045-10.26504 32.79711 6.91619 7.06175 15.47035 5.31452 23.84255 1.63804 13.68663-6.00614 27.08213-12.52188 40.80523-18.71001 3.4217-1.56524 7.0618-2.54806 11.8303-4.25889 2.002 14.1599-9.2822 23.3329-8.627 35.89118 7.899 8.62698 18.7828 2.36605 28.793 5.02331l2.7665 5.31451c-3.7129 14.15991-6.1881 27.91941-10.9202 40.91449-11.4299 31.23188-32.506 54.01878-64.82987 63.55578-3.96764 1.1648-8.51774 1.82-13.21346 1.82-8.9546 0-17.36319-2.4024-24.60694-6.5885l.21841.1092c-30.39466-16.0892-61.73574-30.5403-92.67641-45.68299-14.77873-7.20736-29.15703-15.39754-44.29976-21.65847-18.92841-7.78977-38.65764-13.6503-59.58811-11.32065-28.79301 3.20327-57.69523 4.6593-86.56107 6.87975-31.55947 2.40245-63.04616 1.78364-94.49644 1.23763-.61881-.0364-1.34682-.0364-2.07484-.0364-12.19426 0-23.5877 3.45807-33.23391 9.4278l.25479-.1456c-2.00203 1.20123-3.96767 2.43885-8.00817 4.95051 12.55828-25.40776 28.61102-42.95294 54.85598-49.21387 13.39549-3.05767 24.38854-6.29734 35.12678-10.08302l-2.22046.69161c19.00122-7.06175 35.01757-18.23679 47.64863-32.54231l.1092-.1456c1.34684-2.36605 2.65727-5.16891 3.82209-8.11738l.1456-.47321c-4.00409 3.74929-8.26298 7.35296-12.74028 10.70184l-.40041.2912c-18.05479 13.32269-38.80323 20.27524-60.6073 23.62412-27.99221 4.29529-48.81345 19.58362-64.9754 41.4969-5.93333 8.44498-13.72311 15.21553-22.75051 19.83843l-.364.18201c-34.39875 17.39957-62.42734 42.9165-86.74307 72.474-12.04867 14.7423-23.33291 30.3218-35.92759 46.8478 4.2589-22.3501 15.25194-40.8781 21.73127-62.7914-46.66581 25.0802-79.60852 62.391-110.25798 104.5795-1.92924-3.2761-3.96769-7.2438-5.75133-11.3207l-.2912-.728c-6.00613-16.8171-11.61186-34.0347-12.95868-51.8347-2.07485-28.2106 4.6229-54.4192 24.09732-76.15045 7.60777-8.44498 78.4073-68.32428 78.91691-68.9067-.36401.76442-61.18972 46.01061-63.22817 47.83065-13.24989 11.35704-24.71614 24.2429-34.28954 38.4392l-.43681.6916c-1.85644 3.0213-4.2589 5.4966-6.80695 8.7362-25.08014-25.5897-55.6204-45.75576-89.72794-58.60524l-1.71044-.58241 23.40571-15.87075c.47321-35.59997-8.26298-68.32428-35.85478-97.62692 13.7959 3.02127 24.24292 5.56932 34.72635 7.89897 36.10959 8.08098 69.2343 2.43885 97.29931-23.36931q20.49365-18.71 41.64251-36.7284c22.96889-19.58362 49.97826-28.42901 79.97253-28.75662.2548 0 .54601.0364.8736.0364 3.49449 0 6.73416-.94642 9.53702-2.58446l-.0728.0364c-2.69366-1.12842-5.78773-2.03844-9.0638-2.54805l-.2184-.0364c-33.85274-.54601-65.48503 6.95255-92.4944 28.28341-15.03353 11.75746-28.97503 24.57054-43.13494 37.27441-10.92024 9.79182-22.24089 18.89201-36.9832 21.84048-6.37014 1.41963-13.7231 2.25685-21.25806 2.25685-.87362 0-1.71084 0-2.58446-.0364h.10921c-22.38649-.76442-43.38975-6.00613-60.20691-21.54927-4.07689-17.21758-6.55215-34.65356-12.48546-50.81551-5.71493-15.65234-15.03353-30.10345-23.00531-45.42819 9.60981-10.33782 22.27729-15.25193 34.65355-20.05683 16.01635-6.11533 34.65354-10.66543 53.98237-12.77668l1.01923-.1092c22.20448-2.80286 44.22695-6.69775 66.21303-10.73824 27.37339-4.9869 54.63758-10.51982 81.90177-16.08915 8.99099-1.78363 16.99917-4.6957 24.35213-8.66338l-.47321.2184-39.13084 6.00613c-18.0548 3.02127-36.29159 6.00613-54.56479 8.40858-23.69692 3.02127-47.43022 5.71493-71.19994 8.37219-11.86666 1.31043-23.80613 2.14764-35.70918 3.34887-18.3096 1.82004-34.61715 9.2094-50.01468 18.67361-11.42984 7.06175-22.27728 15.03352-34.21674 23.3329.182-3.02126.61881-5.82412 1.31043-8.55418l-.0728.3276c12.63107-37.96602 38.22083-64.82981 71.92795-85.03225 29.48464-17.65438 64.1746-29.92145 101.23059-34.54435l1.27403-.1456c18.27319-2.40245 37.09241-.40041 55.62041-1.31043 32.4331-1.60163 64.8662-3.02126 97.11729-6.18813 21.69487-2.18405 43.24414-6.84335 62.75496-17.65439 1.05563-.87362 2.00205-1.85644 2.73007-2.94846l.0364-.0364 1.67445-1.92924-1.27403 2.32965c-8.08098 2.07484-16.34396 3.78568-24.27934 6.33373-16.08914 5.02331-34.61713 7.93538-53.80035 7.93538-.2184 0-.40041 0-.61881 0h.0364c-41.0601.69161-82.12018-.29121-123.14387.2184-55.584.69162-105.70789 17.61799-149.17043 52.63555-7.93537 7.02535-15.17913 14.30551-21.91327 22.09528l-.25481.2912c-1.01922 1.63804-1.74724 3.53088-2.11124 5.56932v.10921l-3.23967-2.43886c1.23762-13.14068 2.62085-26.24497 3.67647-39.38565 1.27403-15.39754 3.71289-30.90427-1.49243-45.9742-3.02126-8.37218-6.73414-16.41676-10.84743-26.20857 5.27811-3.96769 11.28424-7.97178 17.54518-11.57545l.87362-.47321c42.58891-21.44007 78.9533-43.89936 113.20645-69.08871l-2.18405 1.52883c12.84947-9.2822 27.40979-16.23475 41.13289-24.31572 3.85848-2.07485 7.17094-4.2225 10.30142-6.58855l-.182.14561c-1.45603.91002-24.31573 8.22657-33.48873 12.81307-25.66255 12.99509-47.68503 27.00939-68.21508 42.88014l.98283-.72802c-9.0274 6.98895-18.81921 13.17709-27.95581 20.09324-15.72513 12.04866-33.99833 17.54518-53.50916 23.1873 10.73824-31.85069 13.5411-63.99259 18.63721-95.73408 4.22249-27.26419 9.97382-51.21591 17.47238-74.36682l-.94642 3.34888c10.01021-30.83147 32.10549-45.53739 61.51733-52.12594 9.5006-2.14764 19.32882-3.02126 30.10345-4.4773l-41.3877-28.64742c52.16234 15.54314 101.5946 29.01143 153.79334 34.58075 9.20939-9.82821 17.25396-19.58362 26.46336-28.02861 10.19222-9.3914 21.18526-18.346 32.76072-26.57257l1.01922-.69162c6.73413-4.36809 12.15786-10.19222 15.90714-17.10837l.10921-.25481c11.32064-22.78689 20.31164-46.1926 22.31368-72.25557 2.22045-23.2237 5.38731-43.86295 9.6826-64.10179l-.65521 3.64008c4.25889-22.42289 8.77259-44.88218 14.70592-66.94106 4.98691-18.67361 11.75744-36.9104 18.4916-55.0744 1.31043-3.56728 6.18814-5.78772 9.0274-8.33578 27.40979 6.00613 41.16929 25.26215 50.56069 48.15825 12.74027 30.79507 21.44005 63.22817 37.16519 92.78562 18.0548 33.88913 36.98321 67.26866 55.69323 100.86659 4.84129 8.69979 10.083 17.18117 15.06991 25.80816 8.44499 14.41472 20.20243 24.46133 36.98321 27.77381 15.25192 3.02126 27.08219 11.64825 38.54843 21.69487 18.78281 16.45316 38.73044 31.41388 61.62654 42.15212 27.40978 12.84947 51.17951 31.19547 73.09277 51.79832 10.51983 10.04662 22.24089 19.00122 34.90837 26.60898l.91001.50961c31.85069 18.71001 54.96519 45.865 73.38395 77.53369 9.82828 16.78076 18.96488 34.07114 33.85278 47.39383 3.4581 3.02127 5.1689 8.15378 8.7726 14.0143 4.9869 2.32966 11.7574 5.82413 12.0486 14.81513 9.6462 7.82617 18.6736 16.63516 29.0842 23.2601 15.98 10.19222 33.1248 18.4552 49.3232 28.31982 12.1213 7.64417 22.4593 15.03353 32.3239 22.9689l-.6552-.50961c20.4572 16.01635 40.6232 32.3603 63.8106 44.48177 16.7807 8.77259 33.1247 18.05479 49.687 27.5918 5.2417 2.94846 9.1366 7.75336 10.9203 13.46829l.036.182c4.9505 15.21553 4.0404 29.48464-5.0233 42.88014-.9465 1.41963-3.0213 2.11124-4.5865 3.02126 0 0 1.9292-7.02535 2.6936-10.55623-3.0213-5.82413-8.1174-5.82413-12.7403-3.49447-8.627 4.33169-16.9263 9.3186-22.7505 17.36317-.4732.65522-.9464 1.34683-1.4196 2.03845 3.4217-2.07485 7.3894-3.67648 11.6119-4.5501l.2548-.0364zm-566.94237 46.73862c-16.34395 14.70592-35.78197 22.7869-56.74882 28.46542-16.12554 4.8413-29.52105 9.97382-42.44332 15.90715l2.07484-.83722c-5.96973 3.16687-11.13864 6.69774-15.83435 10.77463l.10921-.0728c1.41964-.83722 7.38937-2.54806 8.62698-3.20327 15.47034-7.71697 33.41593-13.8323 52.23514-17.47238l1.34683-.2184c15.50674-3.05767 29.12063-9.64621 40.44127-18.92842l-.1456.14561c7.02535-5.82413 21.36726-21.76768 22.35008-22.7869s12.70388-16.63516 13.21349-17.25397c-.40041.83721-22.71409 23.2601-25.15295 25.51695zm281.23249 101.66741c4.98691 3.93129 18.05483 11.35705 18.78278 12.04866-.76441-.43681-45.79216-41.3513-46.44737-41.82451.76441.18201 19.83843 23.62412 27.59179 29.77585zm-769.25786-462.36286c8.77261-8.04457 17.76359-15.83434 26.24499-24.09732 28.1742-27.7374 61.91772-43.35334 101.41258-44.19056 28.57463-.25481 56.42122-2.62086 83.57622-7.02535l-3.16687.4004c11.72105-2.00204 23.3693-4.36809 35.05396-6.55214-1.67444-1.34683-3.82209-2.14765-6.15174-2.14765-.546 0-1.09202.0364-1.60164.14561h.0728c-14.26911 1.67443-28.46543 4.44089-42.77093 5.09611-21.98607.94642-44.04496 1.01922-66.03104.43681-24.35213-.61882-46.04699 7.09815-66.39504 19.18322-23.7697 13.9779-41.02369 35.05396-59.26047 54.85599-.80082.87362-4.62292 8.59059-5.13252 9.2094 1.31043-2.00204 2.69365-3.74928 4.2225-5.35092l-.0364.0364zm694.85465-49.65068c-.87362-.40041-18.71001-11.24784-24.49773-13.32269-25.18934-8.88179-51.17951-7.20735-77.02407-4.6229-9.86461.98282-19.80203 4.2953-29.52102 3.67648-20.56645-1.34683-39.64046-6.47934-56.93085-14.74232l.94642.40041c-1.85644-.72801-4.14969-1.41963-6.47934-1.96564l-.32761-.0728c12.04867 9.5006 26.49979 16.63516 42.26132 20.31164l.72802.1456c10.66543 2.18405 21.62207 5.16891 32.25109 4.5865 19.25602-1.12842 38.40284-4.8777 57.65886-7.06175 1.45604-.14561 3.16686-.21841 4.8777-.21841 4.07689 0 8.04458.40041 11.86666 1.20123l-.36401-.0728c12.15787 2.14764 43.86295 11.21144 44.59096 11.72105zm-336.27048 278.83007-6.00612 3.02126c-.18201 0-.40041 0-.61882 0-1.34683 0-2.62086.21841-3.85848.58242l.10921-.0364c-28.28343 14.66952-57.76806 16.08915-88.41752 9.02739-17.90919-4.11329-36.10959-6.95255-54.20077-10.04662-9.79183-1.63803-19.76564-2.25684-29.55745-3.93128-6.11532-1.23763-13.17708-1.92924-20.38443-1.92924-22.24088 0-42.91653 6.62494-60.17052 18.01839l.40041-.25481c-1.05561.65522-17.87279 13.97791-18.346 14.59672.29121-.76442 19.43802-10.84743 20.60286-11.53905 24.97093-14.70592 51.83473-16.19835 79.42651-11.02944 30.28546 5.67852 60.46172 11.75746 91.11118 15.57954 5.1325.69161 11.06583 1.09202 17.10837 1.09202 22.7141 0 44.11775-5.64212 62.86417-15.57954l-.72802.36401c1.85643-.94642 3.02126-3.45807 4.40449-5.27811l6.00613-3.02127 1.60163-1.78364zm444.41721 57.91366c-1.78359-.25481-39.85884-18.528-50.56068-22.38649-6.73414-2.40245-23.87892-7.35296-25.40775-8.22658 2.47525 2.22045 5.27812 4.18609 8.29938 5.75133l.21841.1092c10.22862 4.4045 20.49364 8.77259 30.90426 12.77668 5.31451 2.25685 36.29157 12.63107 36.54638 12.08506zm52.30796-166.67923 2.002 1.45603-2.366-1.09202c-7.9354-7.71697-11.0658-8.80899-20.4572-7.06175 6.2245 5.13251 12.7766 8.08097 20.8212 6.69774zm-259.21003 123.43509 44.40897-18.85561c-.98282-.0728-2.14765-.1092-3.34887-.1092-9.75542 0-18.92842 2.69365-26.71819 7.38936l.21841-.14561c-5.38732 3.02127-12.04866 4.95051-14.23271 12.04867-.80082.364-1.63804.76441-.69162.2912-.50961.94642-.0728.1456.32761-.61881zm126.41994-231.43624-2.18405-1.38323 2.51166 1.01923 45.13697 36.50999c-7.38935-13.7231-22.20447-28.79303-32.6151-33.12472-3.64008-1.23763-7.97177-2.29325-12.44907-2.94847l-.43681-.0364zm175.59739 158.27065c.8009.2912 6.0062 5.35091 8.263 6.84335 19.2561 12.44907 64.1747 19.43802 63.8834 18.96481l-.9828-.43681c-3.6037-2.29325-7.7533-4.4773-12.085-6.29734l-.546-.2184c-18.7829-6.04253-57.8773-18.3824-58.5326-18.85561zm-297.50363-70.65394c2.98487 2.40245 6.33374 4.5501 9.90102 6.29734l.3276.1456c16.38037 7.75337 35.45437 12.66747 55.62041 13.50469h.2912c14.26911.65522 28.97503 2.83926 46.047-4.9505-10.88384 0-18.3824-.21841-25.80816 0-21.51286.72801-42.62532-1.12843-63.22817-8.7726-5.71492-2.18404-21.65847-5.31451-23.1509-6.22453zm-242.42924-433.78824-1.82003-1.63803 2.22043 1.27402 50.9611 75.27684c-5.31451-29.01143-26.35417-61.00772-48.48584-75.02203-.65522-.29121-1.89284.1456-2.87566.1456zm-231.80022 601.59589c4.5501-1.78364 9.0274-3.45808 13.61389-5.38732 13.35909-5.75132 26.90018-9.355 41.8245-6.87975 19.14682 3.23967 38.25723 7.17096 57.87726 6.66135 4.04049 0 8.08098-.50961 13.90511-.87362-21.47648-4.6229-40.8417-8.84539-60.20692-12.84948-25.66254-5.31452-48.15824.29121-66.50424 19.72923l-1.60163 2.07484zm225.79409-318.61613c-.40041-.69162-.76441-1.41963-.43681-.83722l.91002.43681c16.05275 12.41267 34.98115 22.02248 55.54759 27.701l1.12843.25481c20.60285 5.78772 41.75171 7.28016 62.64575 10.70183 3.78568.36401 8.19018.58241 12.66748.58241 2.40245 0 4.7685-.0728 7.13455-.182h-.3276c1.34682.1092 2.94846.1456 4.51369.1456 5.13252 0 10.15582-.54601 14.99713-1.56523l-.47321.0728c-12.33987-2.36605-24.64334-3.31247-36.94679-4.7321-9.35501-1.05563-18.71001-2.32966-27.9558-4.11329-31.81431-6.66135-59.73371-15.79795-86.23348-27.519l2.73006 1.09202c-2.87566-.91002-6.26094-1.63803-9.75541-2.00204l-.21841-.0364zm-243.84888 2.47525c13.28629-3.42167 26.71817-3.02126 40.11366-2.43885 2.07485.0728 4.5137.1092 6.95255.1092 22.6777 0 44.51817-3.64008 64.97541-10.33782l-1.45603.40041c13.9051-4.2589 28.53822-7.71697 40.04087-17.72719l1.63804-1.96564-1.34684 2.36605c-3.34887.61881-6.73414.94642-10.0102 1.82004-12.37627 3.27607-24.57054 7.31656-37.05602 10.01022-26.17217 5.64212-52.96314 6.29733-79.46292 9.02739-12.30346 1.31043-41.53329 9.57341-45.64659 9.93742 4.4773 2.14765 17.47239-.18201 21.14887-1.12843zm536.76602-34.94476c-4.25889-.2912-49.17747-9.64621-68.25149-12.95868-14.66951-2.54805-29.44823-4.6229-43.93573-7.82617-26.49979-6.00613-50.45151-18.05479-73.89361-31.37748-3.60368-1.85644-8.00817-3.78568-12.55826-5.42372l-.83723-.25481-.36401-.80081c-.80082-.40041 3.56728 4.5137 5.49652 5.78772 10.44703 6.84335 20.78484 13.90511 31.63228 19.98404 26.82738 15.03352 54.7468 26.60898 86.26986 26.28137 3.02127 0 6.00614.61881 9.0274.83722 19.11042 1.63803 62.68216 7.78977 67.26866 5.82412zm-268.45582-124.4543.40042.69161c.91001.36401 0 0-.76443-.32761-3.02126-2.73006-6.26094-5.35091-9.6826-7.78977l-.3276-.2184c-23.40572-14.26911-40.15008-37.52922-45.501-64.86621l-.1092-.61882c-2.11125-9.6098-3.53088-20.78485-3.89487-32.2147v-.2912c-1.01923-31.41389-2.51167-62.90057 1.85643-94.24165.2184-2.83926.32761-6.15174.32761-9.50061s-.10921-6.66134-.36402-9.97382l.0364.43681c-3.67648 11.57545-6.69775 25.37135-8.51778 39.56766l-.10921 1.20123c-1.56524 11.35705-2.00205 22.8597-3.71288 34.14394-1.38323 8.55419-2.18405 18.3824-2.18405 28.39262 0 10.95664.94642 21.69487 2.76646 32.1419l-.1456-1.12843c5.86053 35.12677 23.1873 62.02695 54.85599 79.09893 4.84132 2.54805 8.77259 7.09815 15.06992 5.49652zm247.59816 242.97528c12.33987 12.95868 25.69896 24.78894 42.15212 32.76071 21.07605 10.22863 42.29771 19.76563 62.42735 33.81634-4.7685-9.53701-9.0274-17.87279-13.14069-26.17217-2.83926-6.33374-5.56932-11.50265-8.59058-16.52596l.40041.69162c-6.91616-10.51983-14.85153-20.78486-28.02861-22.8961-10.04662-1.60164-20.09323-4.4409-30.90427-1.49244-7.35296 1.92925-15.57954.0728-24.31573-.1456zm-156.30498-33.74353c-21.07606-3.74929-42.1521-6.00613-62.75496-11.64826-20.60285-5.64212-40.62328-14.19631-62.06333-21.91327 36.98319 32.2511 80.59133 35.23596 124.7819 33.56153zm332.04798 69.70751c-6.47929-36.47359-22.82329-67.26866-52.45352-90.56517 22.38647 27.4098 34.90835 60.38892 52.41713 90.56517zm29.52102 55.1836c-31.74146-21.40366-56.6396-26.06296-77.09684-14.88792 3.20327-.32761 6.95255-.50961 10.73824-.50961 14.2327 0 27.81024 2.65726 40.33208 7.49856l-.76444-.2548c8.77266 3.09406 17.83636 5.56932 26.75446 8.15377zm-209.0133-107.27313c-26.39057-4.22249-47.43023 3.02127-65.55781 19.91123zm98.35493 111.85963h-65.77622c23.2601 10.88384 44.51816 9.2822 65.70342 0zm270.45787 225.46651c-17.1083 3.74928-32.4694-1.27403-47.7214-7.20736-2.4024-.94642-4.9141-1.63803-9.719-3.20327 25.335 23.0417 39.8589 20.63925 57.3676 10.37423zm-189.90292 96.31649c10.37422 13.14069 25.88102 22.16809 30.50392 42.44333 1.5651-21.91328-6.3338-32.54231-30.54031-42.58893zm147.67792-239.3716c16.1257 12.92228 33.9621 4.07689 51.4345 1.20122zm-700.09628-308.05991c-1.52883-.50961-3.31247-.87361-5.16891-.98282h-.0728c-9.8282.65522-19.58361 1.63804-29.37544 2.29325-5.13251.32761-15.43393 2.36605-15.39753 3.34888h39.74969c3.16686-.14561 6.11534-.65522 8.95459-1.41963l-.29121.0728c.54601-.18201.80083-1.56524 1.60164-3.27607zm-6.98895-9.6098-33.59794 3.02126c11.39346.87362 23.15091 4.95051 33.59794-3.02126z" style="stroke-width:36.4008"/></svg>