<svg height="960" style="" width="1260" xmlns="http://www.w3.org/2000/svg"><path d="m134.68807 632.12596c0 4.005 2.5031 9.0112 5.0062 10.5131 3.00372 1.5018 5.0062-1.5019 5.0062-7.0087 0-6.0075-2.00248-10.513-5.0062-10.513-2.5031 0-5.0062 3.0037-5.0062 7.0086zm994.73173-58.5725c-2.0025 1.5019-3.5043 14.0174-3.5043 27.5341 0 34.5428 12.0148 29.5366 14.0173-5.0062 1.5019-24.0297-2.0025-31.0384-10.513-22.5279zm-1006.24599-10.0124c-4.50558 4.005-4.50558 38.0471-.50062 48.5601 6.00744 15.5193 12.01488 7.5093 12.01488-16.0198 0-24.0297-5.50682-39.0483-11.51426-32.5403zm452.05972-476.590096c-48.0595 6.0074-87.1078 15.519196-112.6395 27.033496-58.5725 26.5328-63.5787 29.5365-114.1413 67.5836-74.0917 55.0682-132.16359 144.6792-159.1971 245.8044-12.01487 45.0558-13.01611 169.2095-2.00248 200.248 4.00496 11.0136 7.5093 24.0297 7.5093 28.5353 0 15.0186 30.03718 81.1004 54.56758 119.1475 28.5353 45.0558 112.1388 126.6568 145.6804 141.6754 4.0049 2.0025 17.5217 9.0112 29.5365 16.0199 16.5205 9.5118 24.0298 11.0136 31.0385 7.5093 6.508-4.005 17.5217-2.0025 40.5502 6.0074 27.0334 9.5118 44.5551 11.5143 125.1549 13.0161 94.1166 2.0025 127.1575-2.0025 163.2021-20.0248 9.0112-4.5055 14.0174-4.5055 21.5267 0 8.0099 5.5069 14.0173 4.005 38.5477-9.5117 15.5192-8.5106 32.0397-19.0236 36.5452-22.5279 4.005-4.005 10.0124-7.0087 13.0162-7.0087 3.0037 0 6.508-1.5019 7.5093-4.005 1.0012-2.0025 14.5179-14.518 30.5378-28.0347 63.0781-52.5651 112.63937-133.6655 141.17477-230.7857 12.5155-41.5515 13.0161-180.7238.5006-209.7598-4.5056-10.513-8.0099-23.5291-8.0099-28.0347 0-5.0062-3.0037-15.5192-7.0087-23.5291-32.0397-65.5812-47.0583-93.6159-58.0719-107.6333-28.53527-37.0459-79.59857-86.6072-110.13637-106.632-34.0421-22.5279-105.6308-57.5713-117.145-57.5713-3.5044 0-14.518-3.0037-23.5292-7.008696-9.5117-3.5043-35.0433-8.5105-57.0706-10.0124-22.0273-2.0025-45.5564-4.005-52.5651-5.0062s-36.0446 1.0012-65.0806 4.5056zm158.1959 70.086796c10.0124 4.0049 21.5266 7.5093 25.5316 7.5093 12.0149 0 77.0955 34.5427 106.632 56.0694 35.0434 26.0322 69.5862 62.0769 91.6135 95.6184 18.5229 28.5353 48.56007 90.1116 48.56007 100.124 0 3.0037 3.5043 16.0198 8.0099 28.5353 8.0099 23.5291 11.0136 139.6729 4.005 167.207-5.5068 23.5292-12.0149 4.5056-12.0149-37.0458 0-45.5564-20.02477-127.6581-37.54647-155.1922-2.5031-4.0049-9.0112-16.0198-15.0186-26.0322-20.0248-36.5453-57.5713-78.5973-96.119-107.1327-49.5614-37.5465-77.5961-51.0632-139.1723-67.5837-48.0595-12.5155-127.6581-12.5155-176.7188.5006-161.7003 43.0534-270.3348 174.7164-284.3521 345.9284-6.0075 77.5961-16.0199 60.575-16.5205-28.0347-.5006-117.6457 40.0496-210.761 127.6581-292.8627 18.0223-17.021 38.0471-33.0409 44.0545-35.544 5.5069-2.5031 17.5217-9.0111 25.5316-14.518 8.5106-5.5068 18.523-11.0136 22.5279-13.0161 4.005-1.5018 14.518-5.5068 22.5279-9.0111 53.0657-23.0285 88.1091-28.0347 171.212-25.031 39.549 1.0012 68.0843 4.5056 79.5986 9.5118zm2.5031 157.6952c14.518 14.518 15.0186 15.5193 13.5167 58.5726l-1.5018 44.0545h-95.1178-95.1178v-46.5576c0-45.0558.5006-47.5589 14.0174-59.0732 13.5167-11.5142 17.5217-12.0149 81.601-12.0149h68.0843zm-196.7436 61.0757 1.5018 44.0545h-35.544c-33.0409 0-35.544.5006-40.0496 13.0161-3.0037 7.0087-5.0062 20.0248-5.0062 29.036 0 9.5118-3.5043 19.5242-7.5093 23.0285-4.0049 3.5043-15.0186 18.5229-23.5291 33.5415-9.0111 15.0186-20.5254 33.5416-25.031 41.0509-28.0347 44.0545-29.0359 48.0595-29.0359 114.6419 0 61.5762.5006 65.5812 15.0186 93.6159 8.5105 16.0199 15.0186 32.5403 15.0186 36.5453 0 15.0186-18.523 1.5018-40.0496-29.036l-22.5279-32.5403-1.5019-72.5899c-1.5018-58.5725 0-77.0954 6.5081-95.1177 4.5055-12.5155 9.5117-28.0347 11.0136-35.0434s6.0074-17.0211 9.5118-22.5279c4.0049-5.5068 7.0087-14.518 7.0087-21.026 0-6.0075 2.5031-12.5155 5.0062-14.0174 3.0037-1.5019 5.0062-17.5217 5.0062-35.0434v-31.539l41.5514-43.554 42.0521-43.0533 34.5427 1.5019 34.5428 1.5018zm221.274 72.5898c1.5018 6.0075 9.5117 16.0199 17.5217 22.5279 35.0433 27.0335 56.0694 61.5763 59.0731 96.1191l1.0012 15.5192-182.2256 1.5018c-104.1289.5006-184.7287-1.0012-187.2318-3.5043s-.5006-16.5205 5.0062-33.5415c7.0087-23.5292 15.5192-36.0447 40.5502-60.575 17.0211-17.5217 31.0384-33.041 31.0384-35.5441 0-14.5179 14.518-16.0198 112.1389-15.0186 98.1215 1.5019 100.1239 1.5019 103.1277 12.5155zm97.1202 164.704c12.0149 4.5056 12.0149 114.6419 0 119.1475-10.0124 4.005-399.4946 4.005-409.507 0-6.5081-2.5031-8.01-12.5155-8.01-59.5738 0-40.5502 2.0025-57.5712 6.5081-59.0731 9.0112-4.005 401.4971-4.005 411.0089-.5006zm-21.5266 145.1797c5.0062 6.5081 4.5055 12.5155-3.0038 36.0447-12.0148 35.544-23.0285 51.0632-51.0632 71.088-60.575 43.5539-183.7275 46.5576-248.8081 6.0074-31.0384-19.0235-47.5588-41.0508-58.5725-76.0942-9.5118-30.5378-9.5118-32.5403-1.0012-38.5477 6.508-5.0062 50.062-6.5081 182.2256-6.5081 151.6878 0 174.2157 1.0013 180.2232 8.0099zm-298.3695-750.9297757c-63.0781 15.0185997-124.1537 38.5477297-165.2045 63.5786797-51.5639 31.539096-117.6457 94.617196-150.6866 144.679196-36.54526 55.5688-65.08059 117.6457-70.08679 151.6878-1.50186 8.0099-6.00743 26.0323-10.01239 40.0496-6.00744 18.523-7.00868 29.5366-3.00372 42.5527l4.50558 17.5217 3.50434-25.031c2.00247-14.0173 7.00867-31.0384 11.01363-38.5477 4.00496-7.0087 7.00868-15.5192 7.00868-18.523 0-9.0111 34.54277-79.5985 53.56628-109.6357 39.04839-61.0757 125.65559-137.6705 191.73749-169.2095 88.109-42.052096 121.15-49.561396 220.2727-49.561396 100.6246 0 136.6692 8.5105 224.2777 52.064496 54.0669 26.5328 55.0682 27.0334 97.1202 63.0781 33.041 28.0347 80.09917 83.1029 102.62707 120.1487 16.5205 27.0335 41.5515 79.5986 41.5515 86.6073 0 4.5056 3.5043 13.0161 7.5093 18.0223 4.0049 5.5068 7.5093 18.0223 7.5093 27.5341 0 10.0124 2.0024 21.5266 4.5055 25.031 8.5107 13.5167 12.5156-19.5242 5.507-44.0546-3.5045-12.5155-8.0101-31.0384-10.0125-40.5502-5.5069-25.031-28.0347-81.1004-41.0509-102.6271-16.0198-26.5328-42.5527-66.0818-51.5638-77.596-13.0161-15.5193-61.57627-64.58-77.59607-77.5961-49.5614-40.049596-136.6692-82.602296-190.2355-93.115316-12.5155-2.00248-30.5379-6.5080597-40.0496-9.0111597-25.031-7.5093-137.1699-6.00744-172.7139 2.5031z" style="stroke-width:.50062"/></svg>