<svg height="960" style="" width="1507" xmlns="http://www.w3.org/2000/svg"><path d="m729.38919 1021.2941-19.4374 17.0814 14.7253 21.2044c15.9033 23.5605 30.6286 26.5056 51.2441 10.0132 16.4923-14.7253 16.4923-31.2176-1.1781-50.066-17.6703-19.4374-21.2044-18.8484-45.3539 1.767zm-563.09548-562.5064c-7.65716 7.6571-13.54728 17.6703-13.54728 21.7934 0 11.1912 25.91653 34.7517 37.69677 34.7517 12.95827 0 32.98468-21.2044 32.98468-35.3407 0-14.7253-20.02641-35.3407-33.57369-35.3407-5.89012 0-16.49234 6.4791-23.56048 14.1363zm1127.95799-5.3011c-9.4242 7.6571-16.4923 18.8484-16.4923 25.3275 0 14.7253 32.3957 44.7649 42.4089 39.4638 16.4923-10.0132 34.1627-28.8616 34.1627-38.2858 0-8.8352-31.8067-41.2308-40.6419-41.2308-1.767 0-10.6022 7.0681-19.4374 14.7253zm-584.88891-7.6572c-12.9583 15.3143-14.7253 22.3825-11.7802 39.4638 4.7121 27.0946 27.0945 47.71 51.833 47.71 20.6154-.589 31.8067-7.0682 47.121-29.4506 13.5473-20.0264 12.3692-33.5737-5.3011-57.1342-12.9583-16.4923-18.2594-19.4374-40.6419-19.4374-21.2044 0-27.6835 2.9451-41.2308 18.8484zm-341.627-523.631671c-3.534 7.65716 18.2594 53.01109 51.2441 107.200191 5.8901 9.42419 12.3692 21.79348 14.7253 26.50558 1.767 4.7121 11.1912 18.2593 20.6154 30.0396 8.8352 11.7802 16.4923 24.1495 16.4923 27.0945 0 2.9451-18.2593 23.5605-40.0528 45.943-22.3824 22.9714-51.833 60.6682-65.9693 84.2287-13.5473 23.5605-28.2726 41.8198-31.8067 40.6418-3.5341-1.767-22.38244-9.4242-41.81983-17.6704-44.1759-17.6703-91.88588-33.5736-101.89908-33.5736-4.7121 0-17.08135-4.1231-27.68357-9.4242-20.61542-9.4242-38.87479-9.4242-38.87479.589 0 2.945 4.7121 7.0681 10.60222 8.8352 5.89012 1.767 21.20443 9.4242 34.16269 17.6703 23.56048 14.7253 75.98255 41.2309 128.40462 65.3804 21.79345 9.4241 27.68357 14.7253 24.73851 22.3824-18.25937 45.3539-24.73851 164.9234-12.95827 227.3586 5.30111 25.9166 11.19123 51.2441 12.95827 56.5452 2.94506 7.6572-2.94506 12.9583-24.73851 22.9715-52.42207 24.7385-110.73426 54.1891-128.40462 65.3803-18.25937 11.1912-25.32751 14.7253-41.81985 20.0264-4.7121 1.767-7.06814 5.3011-5.30111 8.8352 4.7121 7.6571 30.62863 7.6571 35.34072.589 1.76704-2.9451 11.78024-7.0681 22.38246-9.4242 27.09455-5.3011 72.44848-20.0264 113.09031-36.5187 19.43739-8.2462 38.28573-15.9034 41.81983-17.6704 3.5341-1.178 18.2594 17.0814 31.8067 40.6418 14.1363 23.5605 43.5869 61.2573 65.9693 84.2288 21.7935 22.3824 40.0528 42.9978 40.0528 45.9429s-7.6571 15.3143-16.4923 27.0945c-9.4242 11.7803-18.8484 25.3276-21.2044 30.0397-1.7671 4.7121-12.9583 24.7385-24.1495 44.1759-37.6968 64.7913-46.532 85.4067-40.6419 91.2968 4.1231 4.1231 13.5473-3.5341 27.6836-22.3824 11.7802-15.3143 31.2176-38.2858 42.9979-51.2441 11.7802-12.9582 30.0396-37.1077 40.6418-53.0111 26.5056-41.2308 35.9297-48.2989 48.888-37.6967 11.1912 9.4242 38.8748 22.9714 74.8045 36.5187 71.2705 27.0946 175.5256 35.3407 230.3037 18.8484 15.9034-4.7121 35.3408-8.8352 42.4089-8.8352 7.6572 0 21.2044-3.5341 29.4506-8.2462 8.8352-4.123 32.3957-15.9033 52.4221-25.3275l36.5187-17.6703 11.78031 12.3692c7.0681 7.0682 12.3692 15.3143 12.3692 17.6704 0 5.3011 30.0396 44.1759 54.7781 71.2704 8.8352 9.4242 26.5056 30.0397 38.2858 45.354 28.8616 38.2857 40.0528 28.2725 16.4923-14.7253-36.5187-68.3254-42.9978-78.9276-66.5583-114.8574-14.1363-20.6154-25.3275-38.8748-25.3275-41.2308 0-2.3561 20.0264-23.5605 44.1759-47.71s44.1759-45.9429 44.1759-48.299c0-2.945 7.6571-16.4923 17.6703-30.6286 10.0132-14.7253 17.6704-28.8616 17.6704-32.3957 0-12.3692 15.3143-10.6022 53.0111 4.7121 42.4088 17.6704 87.1737 32.3957 116.0353 38.2858 10.6023 2.3561 20.6155 6.4791 22.3825 9.4242 4.7121 7.0681 30.6286 7.0681 35.3407-.589 1.7671-3.5341-1.178-7.6572-7.0681-9.4242-16.4924-5.3011-21.2045-7.6572-40.0528-18.8484-39.4639-24.1495-94.831-52.4221-108.9673-55.9561-8.2461-2.3561-20.6154-8.8352-28.2725-14.7253l-13.5473-10.6022 11.7802-58.3122c15.3143-72.4485 15.3143-109.5563.589-182.0047-6.4791-31.2177-11.1912-58.9012-9.4242-61.2573 1.1781-2.356 11.1913-8.2462 22.3825-13.5473 84.8177-40.6418 104.8441-50.655 125.4596-64.2023 12.9582-8.2461 28.2725-15.9033 34.1626-17.6703 5.8902-1.7671 10.6023-5.8902 10.6023-8.8352 0-10.0132-18.2594-10.0132-38.8748-.589-10.6022 5.3011-22.9715 9.4242-27.6836 9.4242-10.6022 0-59.4902 15.9033-104.8441 35.3407-37.6968 15.3143-53.0111 17.0813-53.0111 4.7121 0-3.5341-7.6572-17.6704-17.6704-32.3957-10.0132-14.1363-17.6703-27.6835-17.6703-30.6286 0-2.3561-20.0264-24.1495-44.1759-48.299s-44.1759-45.3539-44.1759-47.1209c0-2.3561 11.1912-20.6155 24.7385-41.2309 14.1363-20.6154 32.3956-50.65502 41.2308-67.14736 8.2462-15.90332 21.7935-40.641831 28.8616-54.778121 8.2462-15.31431 11.1912-27.09455 7.6572-30.03961-4.7121-5.30111-101.3101 104.844141-116.0354 132.527691-2.9451 5.8901-10.6022 17.0814-17.0814 23.5605l-11.19121 12.3692-33.5737-15.9033c-103.0771-50.65501-197.908-64.7913-292.1499-43.58687-57.1342 12.95827-117.8024 36.51877-140.1849 54.77817-12.9583 10.0132-22.9715 2.945-44.1759-30.6287-7.6571-12.36923-35.3407-47.70995-61.8463-79.516601-25.9165-31.21763-48.2989-58.31219-49.477-59.49021-1.178-1.17802-3.534 1.76704-5.3011 7.06814zm450.0052 163.745371c62.4353 10.0132 136.0618 41.2308 136.0618 57.7232 0 5.8901-9.4242 22.9714-20.6154 37.6967-11.1913 14.7253-20.6155 28.8616-20.6155 31.8067 0 2.356-8.2461 14.1363-17.6703 25.3275l-17.0814 20.6154-28.2725-11.1912c-15.3144-6.4792-41.2309-11.7803-57.7232-11.7803l-29.4506-.589-1.7671 48.299-1.767 48.299 23.5605 12.3692c31.2176 15.3144 45.3539 14.7253 56.5451-2.356 9.4242-14.1363 25.9166-24.1495 30.6287-18.8484 3.534 3.5341-11.1913 28.8616-20.0264 34.7517-12.3693 7.6572-8.8352 16.4924 12.9582 37.6968 19.4374 18.8484 21.7935 19.4374 42.4089 14.1363 11.7802-3.5341 22.3824-5.3011 23.5605-4.1231 5.3011 5.3011-6.4792 19.4374-23.5605 27.0945-18.2594 8.8352-18.8484 9.4242-20.0264 51.8331-.589 35.9297.589 43.5869 8.8352 45.9429 23.5604 7.0682 48.2989 22.3825 48.2989 30.0397 0 10.0132-17.6703 9.4241-31.8066-1.1781-14.7253-11.1912-44.7649-11.7802-44.7649-1.178 0 4.1231 3.5341 11.1912 7.6571 15.3143 5.8902 6.4791 4.1231 7.0682-9.4242 4.1231-19.4374-4.7121-27.6835 9.4242-14.7253 24.7385 24.1495 28.2726 12.3693 42.9979-12.9582 15.9033-16.4924-17.6703-26.5056-18.2593-51.8331-2.945l-19.4374 12.3692 2.9451 45.3539c1.767 24.7386 2.945 47.121 3.5341 49.4771 0 8.8351 40.0528 4.7121 67.1473-7.6572 15.3143-6.4791 32.3957-10.6022 37.6968-8.2462 13.5473 4.1231 34.7517 32.3957 39.4638 51.8331 3.5341 12.9583.589 15.9033-21.7934 26.5055-90.7079 41.8199-182.0048 41.8199-283.3148-1.767-20.0264-8.2462-22.3825-11.1912-19.4374-24.7385 5.3011-19.4374 26.5055-47.71 39.4638-51.8331 5.8901-1.767 23.5605 2.3561 39.4638 8.8352 17.6704 7.6572 38.2858 11.7803 51.833 10.6022l22.9715-1.767 1.7671-48.888c1.767-48.299 1.767-48.299-14.7253-54.7781-8.8352-3.5341-21.2045-8.8352-27.0946-11.7803-7.6572-4.123-15.3143-1.767-30.0396 9.4242-21.2044 16.4924-32.3957 12.3693-18.2594-6.4791 12.3693-15.9033 10.6022-24.7385-4.1231-27.0946-8.8351-1.178-14.1363-6.4791-15.3143-15.3143-2.356-16.4923-15.9033-22.9714-27.0945-13.5472-4.7121 4.123-16.4924 9.4241-26.5056 12.3692-27.6835 7.6572-23.5605-7.6571 7.0682-25.9165l25.9165-14.7253-2.356-34.1627c-3.5341-50.6551-5.8902-57.7232-22.3825-65.3804-22.3825-10.0132-12.3693-20.6154 15.3143-15.9033 15.9033 2.9451 22.9715 1.7671 22.9715-2.945 0-4.1231 6.4791-15.3143 14.7253-24.7385l15.3143-17.6704-15.3143-19.4374c-17.0814-22.9715-17.6704-26.5055-5.8901-26.5055 4.7121 0 14.1362 7.6571 21.7934 17.6703 15.3143 21.2045 23.5605 21.7935 57.1342 5.3011l25.3275-11.7802-2.9451-48.299c-1.767-26.5055-3.5341-48.888-3.5341-50.066-1.767-5.8901-44.1759 1.178-68.9144 11.1912-17.0813 7.0682-34.1627 11.1912-38.8747 9.4242-11.1913-4.1231-75.3936-100.132-75.3936-111.9123 0-14.1363 63.6133-41.8198 123.6925-53.6001 49.477-10.0132 92.4749-11.1912 140.7739-2.945zm-289.2049 105.4331c7.0682 9.4242 12.9583 18.8484 12.9583 20.6154 0 1.7671 10.6022 17.6704 23.5605 34.7517 12.9582 17.0814 23.5604 34.7518 23.5604 39.4639s-10.6022 19.4374-23.5604 31.8066c-12.9583 12.3693-23.5605 26.5055-23.5605 30.6286 0 4.7121-7.0682 7.6572-15.9034 7.6572-21.2044 0-66.5583-18.8484-66.5583-27.0946 0-3.534 6.4791-16.4923 14.7253-28.2725 8.2462-11.7803 14.7253-24.1495 14.7253-26.5056 0-2.945 4.1231-7.0681 9.4242-8.8352 4.7121-1.767 7.0681-6.4791 4.7121-10.0132-2.9451-5.3011-6.4792-4.1231-11.1912 2.3561-4.1231 5.8901-8.8352 10.0132-11.1913 10.0132-5.3011 0-44.7649 42.9979-44.7649 48.888 0 8.8352-25.3275 1.767-31.2176-8.8352-4.7121-7.0681-3.5341-15.3143 5.3011-31.2176 15.9033-30.6287 83.6397-103.0771 96.0089-103.0771 5.8902 0 15.9034 7.6571 22.9715 17.6703zm524.80971 21.7935c20.0264 21.7934 35.9297 42.9978 35.9297 46.5319s4.1231 10.0132 9.4242 14.1363c11.1913 10.0132 8.8352 35.3407-4.7121 43.5869-8.8351 5.3011-16.4923 0-46.5319-30.6286-20.0264-20.0264-37.6968-35.9298-38.8748-34.1627-1.767 1.178 8.2462 18.2593 21.2044 37.6967 13.5473 19.4374 24.1495 36.5188 24.1495 38.2858 0 1.7671-12.3692 8.8352-27.0945 15.9033-27.68361 11.7803-61.25731 15.9034-61.25731 6.4792 0-2.3561-10.6022-17.0814-23.5605-31.8067-12.9582-14.7253-23.5604-30.0396-23.5604-34.1627s10.6022-21.2044 23.5604-38.2858c12.9583-17.0813 23.5605-32.9846 23.5605-34.7517 0-1.767 5.8901-11.1912 12.9583-20.6154 20.0264-27.0945 34.16271-22.9714 74.80451 21.7935zm96.598 188.4838c10.6022 39.4638 12.9582 88.3518 4.7121 100.7211-6.4792 10.6022-12.3693-4.1231-12.3693-31.2177 0-18.8484-7.6571-42.9979-27.0945-81.2836-11.1913-22.3825-10.6022-32.3957 2.356-35.3408 14.7253-3.534 21.7935 6.4792 32.3957 47.121zm-751.57931-29.4506c-1.1781 9.4242-8.8352 31.2176-15.9034 48.888-7.0681 17.6704-14.7253 43.5869-17.0813 57.7232-5.8901 31.8066-10.6022 36.5187-15.9033 15.3143-2.3561-9.4242 0-37.6968 5.8901-67.1474 14.7253-71.2704 14.1363-70.6814 31.2176-70.6814 12.9583 0 14.7253 1.767 11.7803 15.9033zm63.6133 10.0132c6.4791 4.1231 18.8483 9.4242 28.2725 11.7803 8.8352 1.767 15.9034 7.0681 15.9034 11.1912 2.945 154.9101 1.767 162.5673-22.3825 163.1563-4.1231 0-14.1363 4.1231-22.3825 9.4242-18.2593 12.3693-22.3824 8.2462-34.1627-32.3957-11.7802-40.6418-11.7802-82.4616-.589-126.6375 12.9583-49.4771 14.7253-51.2441 35.3408-36.5188zm617.87361 19.4374c18.2593 54.1891 6.4791 184.3608-16.4924 184.3608-4.1231 0-12.3692-4.1231-18.8484-8.8352-5.8901-4.7121-15.3143-8.8352-20.0264-8.8352-22.9714-.589-25.32751-8.2462-25.32751-88.3518s2.35611-87.7628 25.32751-88.3518c4.7121 0 14.1363-4.1231 20.0264-8.8352 18.8484-14.1363 25.3276-10.6022 35.3408 18.8484zm-538.35701 209.6883c0 4.1231 10.6022 18.2594 23.5605 30.6286 12.9582 12.3693 23.5604 26.5056 23.5604 31.2176 0 12.3693-36.5187 60.0793-45.9429 60.0793-15.3143 0-83.6397-83.6397-83.6397-102.4881 0-3.5341 10.0132-10.6022 22.3824-16.4924 27.0946-11.7802 60.0793-13.5472 60.0793-2.945zm485.34591 4.1231c14.7253 7.0681 27.0945 14.7253 27.0945 17.0813 0 16.4924-73.62651 100.7211-88.35181 100.7211-10.6022 0-47.1209-47.121-47.1209-60.0793 0-4.712 10.6022-18.8483 23.5604-31.2176 12.9583-12.3692 23.5605-26.5055 23.5605-30.6286 0-11.7803 30.0396-9.4242 61.25731 4.1231zm-295.09501-725.07381c-17.0814 14.136279-17.0814 30.628619 0 46.531949 17.6703 16.49233 28.2725 16.49233 44.1759-.58902 16.4923-17.67036 16.4923-28.27257-.5891-44.175899-16.4923-15.90332-26.5055-15.90332-43.5868-1.76703z" style="stroke-width:.589012"/></svg>