<svg height="960" style="" width="1370" xmlns="http://www.w3.org/2000/svg"><path d="m552.25175 837.25296c-56.82749 16.57467-73.40218 41.43675-37.885 55.6436 23.67813 9.47126 317.28689 9.47126 340.96501 0 37.88501-14.20685 17.7586-39.06893-44.98844-56.82751-78.13781-22.49422-182.32157-22.49422-258.09157 1.18391zm-234.41344-179.95376c0 9.47125 15.39078 24.86203 35.51719 35.51719 28.41375 14.20687 88.79297 17.75859 331.49376 17.75859 242.70078 0 303.08001-3.55172 331.49374-17.75859 20.1264-10.65516 35.5172-26.04594 35.5172-35.51719 0-15.39078-52.09187-17.75859-367.01094-17.75859-314.91908 0-367.01095 2.36781-367.01095 17.75859zm62.74704-207.1836c-164.56297 3.55172-243.88469 10.65516-253.35594 20.12641-34.333287 34.33328 50.90797 40.25282 557.61985 40.25282 487.76944 0 581.29804-5.91954 562.35544-36.7011-3.5517-5.91953-23.6781-13.02297-44.9884-16.57469-60.3792-9.47125-561.17157-14.20687-821.63095-7.10344zm-36.7011-177.58593c-21.31032 13.02296-35.51719 29.59765-31.96547 35.51718 9.47125 16.57469 736.38972 16.57469 745.86092 0 3.5517-5.91953-10.6551-22.49422-31.9654-35.51718-36.70113-22.49422-59.19534-23.67813-340.96504-23.67813-281.76969 0-304.26391 1.18391-340.96501 23.67813zm163.37906-201.264047c-42.62062 27.22983 67.48266 71.034337 178.76986 71.034337 66.29875 0 170.4825-28.41375 183.50547-49.724057 4.73562-7.10343 0-16.57469-8.28735-22.49424-22.49422-14.20685-331.49376-13.02297-353.98798 1.18396z" style="stroke-width:1.18391"/></svg>