<svg height="960" style="" width="1134" xmlns="http://www.w3.org/2000/svg"><path d="m132.88142-119.99644c-.98916-.0519-1.77711.46667-1.89908 1.62546-.27881 2.36985-.13995 3.206 2.2299 32.48062 1.25462 13.80089 2.7882 33.17655 3.62461 43.21356.69701 9.897603 1.95096 20.352833 2.78738 23.001484.69701 2.64866 1.81374 16.17211 2.23194 29.97299.55762 16.31015 1.3939 26.76524 2.64853 29.83211 1.11522 2.50925 1.95014 6.69066 1.95014 9.06051 0 2.36986.97582 5.71525 2.09104 7.38809 2.92747 4.04269 4.323 15.19573 2.23194 17.56559-.83641 1.11522-2.92731 1.67147-4.73956 1.39266-2.64865-.55761-3.62502.41875-6.13427 6.13428-1.67284 3.62448-5.29841 14.21951-8.08645 23.420106-2.78808 9.20059-5.99312 19.79453-7.10834 23.69782-3.06687 10.03701-4.6007 18.54033-4.6007 26.20748-.13941 7.52776-1.67298 5.57776 21.46792 26.767 27.88059 25.51074 50.18561 46.28015 52.13725 48.51061.97582 1.39403 2.92692 2.3708 4.32095 2.3708 5.0185 0 19.51573-25.37067 19.51573-34.15305 0-2.50925.97582-5.29731 2.09104-6.27314 1.39404-1.11521 2.09106-4.18194 2.09106-8.92165 0-4.04269.83642-8.50466 2.09104-10.17749 1.11522-1.53344 2.37067-5.576 2.92828-8.92167s1.53289-7.24786 2.22991-8.64189c.69701-1.39404 1.81263-5.7162 2.50965-9.75889.55762-4.04269 1.53344-8.92165 2.09105-11.0127.69702-2.92747.27895-4.18318-2.64852-5.99541-5.15792-3.34567-22.58423-7.66581-31.64543-7.66581-5.85493 0-8.78211-.69782-11.57018-2.92827-4.60029-3.62448-4.59976-7.38754-.13886-15.89113 5.71554-10.455216 9.06052-21.608936 9.06052-29.415516 0-7.80656-8.22356-41.68134-15.4725-63.2888-2.36986-7.24896-4.88033-15.19425-5.43794-17.4247-.69702-2.36984-3.76321-11.43171-6.96948-20.214105-13.52208-37.359999-17.00783-46.978119-18.12306-50.881409-1.95164-6.97015-12.2661-35.1294-13.93894-38.19627-.94097-1.80353-2.54478-2.8125-3.81657-2.87927zm866.52156 4.05344c-.66338.0408-1.32666.46422-1.89302 1.33549-.41821.83642-2.23041 5.99405-4.18209 11.57017-1.8122 5.57612-4.59936 13.24369-5.99335 17.14698-10.03702 25.92895-19.23789 51.300296-28.15968 77.368644-2.23044 6.55194-5.01905 14.35783-6.13428 17.42469-3.34567 9.0612-14.9157 41.40269-16.30973 46.00298-.69701 2.36985-.97624 9.75915-.41862 17.00811 1.11522 16.03134-.41808 19.51492-17.28583 39.588936-6.83074 8.08538-12.68499 15.61409-13.24261 17.00812-.5576 1.67284.97556 4.46117 5.29705 9.34026 3.48507 3.9033 10.03647 12.82481 14.77616 19.93437 4.73971 6.97015 11.57032 16.58786 15.1948 21.18816 9.61881 12.40685 9.75862 12.96434 8.7828 25.65001-1.25463 16.58895.001 16.4509 22.16629-3.48372 10.17641-9.20059 23.83615-21.74821 30.24863-27.88195l11.7111-11.42927-1.1149-8.08647c-.5576-4.46089-1.8131-9.34041-2.9283-10.87384-1.1153-1.53342-1.9522-4.04186-1.9522-5.4359 0-1.53342-.835-4.59962-1.9501-6.96947-3.067-6.97015-8.22494-24.53642-9.89778-33.597596-1.11525-7.10956-2.09177-8.64244-5.57681-10.59409l-4.18209-2.3708.41863-13.10374c.13937-7.24895 1.25347-16.86761 2.36874-21.46791.97578-4.60031 2.2303-13.10389 2.64851-18.8194.41821-5.71553 1.81305-18.67864 2.9283-28.57626 6.2731-55.482374 7.6677-70.121044 8.2253-88.522244.2789-11.15224.2773-22.30351-.1409-24.81278-.4792-2.87518-1.9448-4.63133-3.40402-4.54148zm-282.55856 25.21506c-.92872.0605-1.71245.81191-2.18293 2.32792-.41822 1.39402-2.3693 10.03742-4.32095 19.23802-2.09105 9.20059-4.60098 20.21207-5.5768 24.39416s-2.78806 12.685664-4.18208 18.8194c-1.25464 6.133724-3.20574 14.777664-4.32096 19.099144-1.11522 4.46091-1.95218 12.68582-1.95218 18.26194 0 7.80656-1.81238 17.4251-7.80671 40.8448-4.18209 16.72834-8.22464 33.31648-8.92165 36.80156-.55762 3.48507-2.50925 11.292986-4.18209 17.426716-1.67283 6.13373-3.48508 14.21774-4.18208 18.12103-.55763 3.76388-1.95138 10.03769-3.206 13.94097-1.11523 3.76388-3.4848 13.24329-5.29704 20.91045-3.76388 16.72836-8.22505 25.37148-13.52236 26.62611-2.09105.5576-5.85493 2.23058-8.36418 3.62461-3.76388 2.36984-6.9688 2.78737-18.12102 2.78737-7.38837-.13939-38.33745-.1383-68.5879-.27772-49.34865 0-55.62043-.2792-59.94192-2.50965-5.85493-2.78806-8.36527-7.80683-12.26855-23.97759-6.13373-25.09253-15.89112-65.24127-17.98217-74.581256-1.25462-5.43672-3.0674-12.96447-4.04323-16.72835-.97582-3.90329-3.48425-14.21911-5.4359-23.00149-2.09104-8.78239-4.60097-19.23762-5.57679-23.00149-1.11523-3.90329-3.20559-12.68499-4.87843-19.51574-1.67284-6.97015-3.76524-16.03202-4.88046-20.21411-.97583-4.18209-2.78656-12.127371-4.04119-17.424693-1.25463-5.436716-3.34703-15.054841-4.88047-21.606781-1.53343-6.55193-3.20585-14.35986-3.76347-17.42672-1.95163-11.84926-6.13277-13.1028-8.08442-2.36877-3.48507 18.4012-3.067 130.898844.55747 140.238834.69702 1.95165 1.95151 12.54613 2.64853 23.55898.83642 10.873416 2.36849 24.117646 3.48371 29.554366 3.20627 14.6373 2.9291 40.98406-.41658 47.6754-1.39402 2.92746-3.06699 9.33906-3.62461 14.35756-.83642 8.22477-4.32217 21.46873-7.66784 28.57829-.69702 1.53343-2.92828 6.83143-5.01933 11.84993-4.4609 11.15224-21.88625 45.72418-27.18358 54.36715-4.46089 7.24896-6.27258 13.2418-4.32094 14.49642 3.62447 2.23045 13.24328-4.45968 31.36566-21.74564 9.20061-8.78238 12.40755-10.17696 13.94099-6.13427.4182.97582 7.52693 10.7343 15.89111 21.88654 8.22478 11.01283 18.81982 25.37174 23.42012 31.78428 4.60029 6.41254 9.89828 13.66013 11.84992 16.02998 1.95164 2.36986 4.7397 6.13523 6.27314 8.50508 4.4609 6.97015 16.3096 18.8194 18.95826 18.8194 3.06686 0 11.70958-9.7597 22.0254-25.23343 11.84926-17.42538 10.87356-17.0054 41.26341-17.70241 14.0797-.4182 30.25085-.1405 35.96637.27771 9.61881.97583 10.45414 1.25381 12.824 5.4359 1.39403 2.50925 5.15844 7.38878 8.22531 10.87385 3.20627 3.48508 7.52843 9.8972 9.75889 14.21869 5.29731 10.31583 11.01283 15.75268 14.63731 14.07984 1.53343-.69702 12.40658-14.4971 24.11644-30.52844 23.00149-31.50506 38.19669-51.16062 49.07012-63.84629 7.94597-9.06119 10.59408-8.78211 10.59408.9761 0 5.57612.55747 6.4124 8.92165 13.10374 4.87911 4.0427 9.34069 7.24922 9.75889 7.24922.55762 0 4.32095 2.64881 8.50304 5.71566 12.12805 9.2006 15.47386 4.32163 7.80671-11.01269-2.23046-4.4609-4.74039-10.59586-5.57681-13.80212-.83642-3.06687-2.50939-6.13264-3.6246-6.55086-1.25463-.41821-2.09105-2.50911-2.09105-4.73956s-.97583-4.88074-2.09104-5.85656c-1.11524-.97581-2.09105-2.78656-2.09105-4.04118 0-1.25463-.97582-4.0427-2.09104-6.27314-2.92747-5.57611-8.08375-21.74835-10.8718-33.5976-4.18209-18.4012-6.83158-94.79267-7.11037-206.315046-.27881-77.229224-.55803-86.988524-2.50967-91.728224-1.56828-3.39795-3.51843-5.21605-5.06629-5.1153zm146.69781 3.19579c-.52021-.0434-.94683.3519-1.25178 1.22317-.2788.97582-1.25517 5.29704-1.95217 9.47913-1.25463 7.10955-1.95274 10.5953-5.99543 26.48724-.83641 3.48508-2.64716 11.012839-4.04119 16.728363-1.25462 5.715524-3.06795 13.243279-3.90437 16.728351-3.90327 15.61314-7.2484 30.24909-10.59408 45.30461-.97582 4.6003-3.48425 15.6138-5.4359 24.3962-2.50925 10.45521-3.48588 17.98285-2.92828 21.46791.69702 4.6003-.14021 11.84967-2.92828 25.51115-.83641 4.042686-4.73956 4.180996-4.73956.277716 0-1.672826-1.11454-3.206406-2.78738-3.624616-2.36986-.697-2.78739-1.95-2.78739-8.78075 0-8.50358-2.09145-12.54627-6.69174-12.54627-1.25463 0-4.18154-.97581-6.412-2.09104-2.09104-1.11522-6.83073-2.09105-10.45522-2.09105-4.73969 0-7.10942-.69836-8.92165-2.78941-3.06686-3.62448-3.48508-3.62434-10.45522 1.53357-6.13373 4.4609-7.38999 8.36485-3.7655 11.84993 1.39401 1.39403 2.09103 4.87883 2.09103 9.47912 0 5.01852.69701 8.0862 2.09106 9.201416 1.25462.97583 3.76401 5.15669 5.71564 9.19936 1.95165 4.18209 4.04405 7.80712 4.88046 8.22532.69703.41822 2.92679-1.81249 4.87843-5.15817 4.04269-6.55194 12.40619-12.824256 15.33365-11.70903 2.78806 1.11521 2.37108 5.4359-.83519 9.61799-2.78806 3.48507-3.90492 10.73497-1.67447 10.73497 2.78806 0 9.89856-9.48048 10.73497-14.35959.55762-2.78806 1.53345-5.43631 2.09105-5.85451 2.09104-1.254616 5.57558 6.27272 6.41199 14.21869.55763 4.4609 1.95191 9.20005 3.06715 10.59408 2.92746 3.34567 4.04335 23.56101 1.3947 25.65205-.97582.83643-10.87316 4.73861-22.02539 8.64189-11.15224 4.04269-22.30557 8.22506-24.81482 9.34028s-5.15804 1.95218-5.71567 1.95218c-.697 0-6.27313 1.9511-12.54626 4.32095-12.26746 4.6003-13.80117 6.55207-11.43131 14.07984.83641 2.50925 2.92881 10.17682 4.88046 17.14697 1.81224 6.83075 5.15669 16.8664 7.10834 22.30312 2.09104 5.29731 4.74132 13.52276 5.85654 18.12307 2.09105 8.92178 21.88545 50.88167 26.34635 56.03958 1.39403 1.67284 7.8067 5.57652 14.07983 8.78279 8.78239 4.18209 13.10348 5.5768 18.40078 5.5768 6.41255 0 7.24816-.41929 11.70904-5.99541 2.64867-3.20628 6.27423-8.50277 8.08647-11.70904 5.71551-9.89762 19.93475-33.87437 22.44401-37.77766 1.39404-2.09104 2.92814-4.74133 3.48576-5.85656.69701-1.25462 6.13277-10.45427 12.2665-20.63069 6.13373-10.17641 12.12738-20.21411 13.24261-22.30515 4.18209-7.66716 6.6927-10.45495 9.06255-9.47913 1.39403.4182 1.95178 1.81197 1.53357 3.20599-1.81223 6.41254-2.37013 18.26276-.97609 19.09917.83641.55761 1.53356 2.09022 1.53356 3.34485 0 1.39403 1.25394 4.74039 2.78739 7.66784 1.53343 2.78807 2.78737 5.9931 2.78737 7.10834 0 2.36984 6.55261 6.83101 7.66785 5.15817.41821-.83641 1.39403-5.57652 2.09103-10.87384.69703-5.1579 1.81211-11.7089 2.64853-14.35755.83641-2.64865 1.53356-9.8983 1.53356-16.03201 0-10.45523-.27812-11.70836-4.87842-18.67851-2.64865-4.0427-4.88046-7.66879-4.88046-7.9476 0-.41821-3.48371-6.68999-7.6658-13.93893-4.18209-7.38837-7.66784-13.8005-7.66784-14.2187 0-.55763-3.76389-6.97179-8.36418-14.22074-13.38269-21.18925-16.72836-29.4124-16.72836-40.146416-.13941-5.15791-.6977-13.80185-1.3947-19.09916-1.53345-10.73404-2.50845-42.93543-3.34486-111.521691-.55762-36.523573-.97515-45.586393-2.78738-49.768483-1.72512-3.92943-3.31943-6.14501-4.46389-6.24046zm-593.4993 1.52744c-.52929.0785-1.1566.70694-1.47026 1.64791-.41821 1.25463-.83724 25.64865-.83724 54.22627 0 41.960284.41971 54.089974 2.23194 62.314754 2.92746 13.66149 2.92746 39.17222 0 46.00298-1.25462 2.92747-2.23194 6.41212-2.23194 7.94556 0 1.53343-.83492 4.87883-1.95015 7.38808-.97582 2.50925-3.20614 8.084426-4.73956 12.266516-4.4609 12.40685-14.3596 37.91732-16.45065 42.93582-1.11521 2.50926-1.95217 5.99502-1.95217 7.66786 0 1.67283-.97583 4.32162-2.09105 5.71564-1.11522 1.53345-2.09104 3.90303-2.09104 5.29705 0 1.25463-3.48373 12.82549-7.66582 25.51115-4.18209 12.82508-7.66784 23.97636-7.66784 24.81278 0 .97583 6.97098 10.17805 15.47455 20.49387 8.50359 10.31581 17.9819 22.02444 21.18818 25.92772 24.81372 30.25046 42.93691 51.85764 44.74916 53.39107 2.23045 1.81224 11.15236 1.11605 14.07983-1.25381 1.67284-1.25462 33.4559-15.33365 34.71053-15.33365.55761 0 2.78887-1.39429 5.01932-3.06713 2.92746-2.09104 7.52613-9.75916 15.05389-25.3723 16.72835-34.43252 19.5175-40.56654 20.63273-44.88802.55761-2.23045 3.06754-8.50277 5.57679-13.80008 2.50925-5.43672 5.01715-12.26678 5.57476-15.33365.41821-3.06687 1.95191-7.24923 3.06715-9.34026 1.81223-2.92747 1.81264-4.18169.41861-5.85453-2.09104-2.36985-15.61395-6.55262-32.2029-9.75888-26.48658-5.15792-37.49927-8.36336-48.65151-13.80008-17.98298-8.9218-20.77076-15.75362-11.57017-28.99691 7.80656-11.43104 10.8733-18.67959 8.92165-22.58288-.83641-1.67283-1.81168-7.10914-2.22989-12.127636-.27881-5.01851-1.67216-11.0142-2.78739-13.24464-1.25463-2.36985-2.23193-5.01755-2.23193-5.99338 0-1.11521-.83493-3.62515-1.95016-5.57679-1.95164-4.04269-3.20709-7.38768-9.20141-25.78888-2.23045-6.83073-4.46172-14.63662-5.01932-17.42468-.55761-2.78806-1.39403-5.85533-2.09105-6.69175-1.53344-1.95164-6.8306-18.40268-6.8306-21.05135 0-1.25462-.83493-5.01742-1.95015-8.64189-1.11523-3.48508-2.92746-10.87356-4.18209-16.170884-7.66716-35.54776-14.21924-60.082-16.17089-61.33662-.13939-.1045-.30547-.14049-.48191-.11435zm331.40606 111.166374c-4.75713.0871-10.0185.54018-13.08537 1.3069-2.64866.69702-13.66217 1.95096-24.3962 2.78739l-19.51574 1.3947-7.24922 7.10832c-7.38836 7.24896-11.57018 8.22464-11.57018 2.64852 0-1.53342-.97731-3.76266-2.23194-5.01728-2.78807-2.78805-4.59948-1.39525-9.61799 7.10832-1.95164 3.34568-4.1814 6.13429-4.87842 6.13429-2.23045 0-13.66203-5.29718-14.49846-6.83061-.55761-.83642-3.34513-1.53357-6.41199-1.53357-4.60031 0-5.71552.69729-8.36418 5.15817-5.99432 10.03702-5.01837 22.72283 3.62462 43.35447 1.11523 2.50925 1.95014 5.29731 1.95014 6.27313 0 2.78807 25.09254 26.764686 31.36567 29.970956 3.06687 1.53342 7.11092 4.46034 9.06255 6.41198 4.8791 5.29733 12.96393 8.78226 25.2314 11.01271 11.84925 2.23045 12.82398 1.95299 21.18816-5.57476 5.71553-5.15791 7.11118-5.43713 12.12969-2.50967 5.29731 3.06687 16.72726 2.50912 29.55234-1.53356 13.8009-4.18209 20.35257-7.2495 22.0254-10.31637 2.36985-4.46089 23.69987-70.257576 23.69987-73.045646 0-1.67284-1.53411-5.29786-3.48576-8.22533-3.62448-5.1579-3.6253-5.15817-13.38349-5.15817-7.80658 0-10.59327-.55789-13.93894-3.06714-3.48508-2.64865-4.74025-2.9276-8.22532-1.53357-3.76389 1.39403-4.32108 1.25599-5.85453-1.39266-.83641-1.67284-2.23071-3.48563-3.06712-4.04324-1.04553-.69702-5.29786-.97541-10.05499-.88828zm-216.26384 45.9601c-2.89315-.0648-4.58478 1.01842-7.87817 4.55578-5.15792 5.71551-7.66798 6.13317-11.29246 2.22989-5.71552-6.27313-8.36418-2.09199-6.27313 10.17547 1.25463 7.94597 6.13536 18.681086 12.12969 26.905856 1.81223 2.36984 3.206 5.57639 3.206 7.24923 0 1.53343.55625 3.34526 1.39267 3.76346 1.39402.83643 12.40794-4.46021 14.35959-6.96946.5576-.83643.69593-5.43672.27772-10.45522-.41821-5.01852-.69688-10.594616-.55748-12.546266.1394-1.95163.27922-8.22544.41861-13.94098l.13887-10.45522-4.59867-.41861c-.47048-.0523-.90992-.0847-1.32324-.0939zm-186.83606 206.219046c-2.47441.0174-6.02959 2.35255-10.35107 7.02256-9.61881 10.31582-8.9222 12.96462 3.76346 14.07983 4.18209.41821 4.18291.55803 5.01933 10.87384.83641 9.2006.55706 10.8737-1.95219 13.52237-2.50925 2.78805-2.64974 4.31958-1.81333 16.16883.55762 9.34001.27964 16.31191-1.25381 24.11849-3.20627 16.86775-2.09022 33.17668 2.92828 44.74713 1.11523 2.36985 1.95015 4.73942 1.95015 5.29704 0 .55761 2.09145 5.43659 4.6007 11.01269 2.50927 5.43672 6.41253 15.47387 8.36418 22.44402 2.09105 6.83075 4.73929 15.19601 5.85452 18.54169 3.20627 9.6188.27894 12.68444-6.83062 7.10832-2.09103-1.67284-4.73874-2.50925-5.99336-2.09105-2.78806 1.11523-1.9526 6.97138 3.90233 26.34839 9.6188 32.20209 11.57016 43.77294 9.47913 58.96786-1.95165 15.47374-.41754 22.44375 7.66785 31.92314 8.36416 9.89762 9.89856 14.77591 6.55288 22.16426-2.64865 5.85493-9.75942 13.80008-17.98421 20.07321-6.69134 5.01851-10.45386 18.54128-9.75684 34.85143.41821 10.87343.83574 12.82507 4.87841 18.8194 2.36986 3.76389 4.8783 8.78171 5.4359 11.15156.41821 2.50925 2.65002 6.6931 4.88046 9.48116 2.23045 2.78807 4.04121 6.13197 4.04121 7.2472 0 2.78806 9.20168 9.62015 12.26855 9.06255 1.39403-.27881 2.50857-1.9511 2.78738-4.32095.2788-2.64867 1.25435-3.76551 3.20599-3.76551 1.39404 0 2.64853.83696 2.64853 1.95217 0 1.11524 1.39484 4.32232 2.92827 7.11037 2.50926 4.18209 2.78806 6.27246 2.09105 13.24261-1.11523 9.20059.83696 15.61381 6.13426 20.21411 3.34568 3.06687 9.75686 14.77645 9.75686 17.84331 0 1.11523.83696 2.78765 1.95218 3.76347 1.11522.83642 2.23086 3.62353 2.50967 5.99338.55761 5.57612 5.29718 6.69174 11.0127 2.50965 2.09104-1.67283 4.59949-2.92623 5.4359-2.92623 1.25462 0 7.94733 3.06715 15.33568 7.24924 6.41254 3.62446 10.17506 4.04077 24.39417 3.62256 9.8976-.2788 16.86911-1.25449 19.51777-2.64852 3.90328-1.81223 4.18209-2.64838 4.18209-9.47914 0-4.32148.69715-7.8056 1.53357-8.08441 2.23044-.69702 6.13223 3.34513 6.13223 6.41199 0 1.39404.97582 3.34513 2.09104 4.32096 1.11522.97581 2.09105 3.48575 2.09105 5.57679 0 2.09105.97582 4.60098 2.09104 5.5768 1.11522.97583 2.09105 2.50789 2.09105 3.48372 0 1.11522 1.2545 4.60138 2.64851 8.08645 2.09105 4.87911 3.76389 6.55195 8.36418 8.36418 7.52777 3.06687 16.03189 4.32027 18.68056 2.92624 4.18209-2.50926 23.42065-24.81318 25.37228-29.41348 2.50925-5.85493 5.01728-5.43698 7.10833 1.11494.69702 2.64867 2.09185 6.27368 2.92828 8.22533 2.23045 5.43671.83682 7.24827-3.76348 4.87843-3.90328-2.09104-4.04254-1.95029-8.92165 4.88046-2.78806 3.90328-5.01932 7.5268-5.01932 8.08442 0 1.95164 5.43604 12.54654 6.96947 13.52235.69701.41822 1.39471 1.81252 1.39471 3.06714 0 1.11522 1.11564 3.76401 2.50966 5.71566 3.34567 4.87911 5.85451 19.23761 5.85451 33.45673 0 6.4125.69715 11.70947 1.53358 12.12767 4.04267 2.5092 15.33472-5.01948 12.96488-8.644-1.81224-2.92745 2.22922-15.75223 5.01729-15.75223 1.81223 0 8.36418 8.22573 8.36418 10.73498 0 .41821.83696 1.95189 1.95217 3.06715 1.11523 1.25462 2.37067 3.90231 2.92828 5.99335.83641 3.34565.4174 3.90315-2.92828 4.73955-2.09104.5576-4.8791.2795-6.27313-.6963-6.55194-4.04273-9.47899.837-5.85451 9.7589 2.36984 6.2731 6.13372 7.9452 10.45521 4.8784 4.6003-3.2063 9.89735-2.7889 13.66123 1.2537l3.34485 3.4859-5.99337 6.1343c-6.69135 6.8307-6.96934 10.0362-1.25381 13.2425 4.04268 2.3699 4.32039 2.2308 17.00607-3.2059l5.29704-2.3709-.83519 7.6679c-.55761 4.3214-.41875 7.8067.13885 7.8067 3.34567 0 6.41173-4.3215 7.52694-10.4552 1.53345-7.9459 4.04392-11.2922 9.62004-12.4075 5.57612-.9757 15.33364-7.3884 15.33364-9.8978 0-2.9274-4.59989-4.8778-12.12765-5.0172-14.0797-.2788-17.70458-4.1818-10.87383-11.5701 2.78806-2.92749 4.46062-3.76568 7.38809-3.20811 5.0185.9759 10.0366-1.25347 10.0366-4.45978 0-3.06682 3.48575-6.27397 5.57679-5.01934 1.81225 1.11527 1.81225 7.24892 0 8.36418-3.06685 1.95168-1.25449 7.38975 3.62462 11.15365 4.32148 3.3457 4.8791 4.3205 4.18209 8.0844-.97583 5.0185-7.10914 14.6368-14.21869 22.5829-9.2006 10.4552-12.68582 15.3342-11.9888 17.2858.27881.9758 3.76401 3.3459 7.80671 5.1582 10.17641 4.7396 23.28002 4.6014 32.48061-.2778 6.97015-3.6245 8.92179-3.7636 25.09254-1.1149 6.83074 1.1152 12.26651-1.6731 14.35756-7.2492 1.67284-4.0427 4.32284-5.2973 9.06254-4.1821 4.6003 1.1153 4.45955 3.6238-.69836 8.503-2.23046 2.2304-4.18209 5.1574-4.18209 6.412 0 2.2305.97554 2.371 7.38807 1.8134 14.77672-1.5336 13.52237.557 13.52237-20.7716 0-18.4012.97623-22.5827 4.60071-18.9583.83641.8364 1.95204 6.8306 2.50966 13.1037 1.25462 15.6131 1.81224 17.006 8.36417 19.6546 17.42537 6.9702 36.38336 4.0432 68.16724-10.594 5.01851-2.3699 11.85061-5.4361 15.33568-6.9695 10.59464-4.6003 10.45468-4.4621 10.59409-11.7111.1394-13.5221.5568-15.8904 3.34486-18.6785 4.73969-4.7396 6.9715-2.2312 6.9715 7.5269 0 4.8792.83546 9.7577 1.81129 11.1516 1.67284 2.3698 2.09104 2.2307 6.27313-1.115 8.08537-6.9701 14.2187-16.7268 14.2187-22.8605 0-5.85494-4.60003-15.47552-7.38809-15.75436-.97581-.13936-3.90219-.27717-6.55085-.41654-3.90328-.13947-5.01905-.83756-6.13427-3.9044-1.53344-4.46088.00081-8.08441 7.11037-16.44858 2.50925-2.92747 4.59866-5.71607 4.59866-6.13428 0-.55761-3.76333-5.01809-8.50304-10.0366-11.84925-12.82508-9.47994-18.26301 4.32096-9.62003 3.06685 1.95164 5.85641 3.48576 6.41402 3.48576.41821 0 3.20627-2.50994 6.27314-5.57681 3.06685-3.06686 8.78129-7.66622 12.82398-10.17547 3.90328-2.64864 8.50317-6.13386 10.03662-7.80669 1.53342-1.81225 4.74051-4.04351 7.11035-5.01932 2.36985-.97583 7.94502-5.01837 12.26651-8.92167 8.50358-7.80655 9.47954-8.08414 11.9888-5.01728.97582 1.11523 2.64974 2.09105 3.90437 2.09105 2.09104 0 11.29082-9.06092 15.89112-15.75226 1.39403-1.95165 5.7162-5.15874 9.75888-7.11036 4.04269-1.81225 8.64258-5.01783 10.03661-6.96948 3.06687-4.18209 5.8541-4.60152 7.52694-1.25584 1.67284 3.20627.00055 19.37836-2.22989 21.60882-3.90329 3.90328-1.95152 7.9446 5.71565 11.84788 14.49791 7.38836 27.88181 4.04283 34.71257-8.92165l3.20599-5.85451-3.3469-9.47914c-2.50925-7.52776-2.92596-10.45631-1.95013-14.35959 1.11521-4.4609 1.81141-5.01864 7.52694-5.71566 11.70985-1.53343 18.67931-7.80576 13.24259-11.70903-3.48507-2.64865-2.64742-5.85547 3.3469-12.40741 6.13373-6.55194 6.83047-9.75794 3.206-13.66121-1.95165-2.23046-2.0905-2.78753-.13886-4.32096 2.50926-2.09105 6.68971-8.78184 6.68971-10.59407 0-2.64866-12.96461.13939-20.35297 4.18207-7.80657 4.46091-10.31433 3.62422-10.31433-3.06712 0-5.29732 5.29637-9.06079 14.35756-10.03661 4.18209-.55762 9.75821-1.95192 12.54627-3.06714 3.06687-1.25463 9.47899-2.09105 16.30974-2.09105 11.01283 0 11.29313-.14049 12.68716-3.90437.83642-2.09104 1.25286-8.50317.97406-14.21869-.69701-12.68567-4.32027-19.09849-15.47251-28.15967-4.18209-3.34567-9.19992-8.50331-11.15156-11.57018-3.20627-5.29731-3.48657-6.96947-4.32299-32.06201-1.53342-41.68148-3.48466-66.07686-5.85451-71.65298-4.18209-9.7582-8.78308-23.28043-11.84993-34.99029-4.7397-17.42536-4.46103-48.2341.55747-72.49021 3.48508-16.44956 8.22614-31.08618 11.1536-34.15306.83641-.83642.97622 2.6473.41862 9.75686-.55761 6.13372-1.53494 20.91113-2.23195 32.76037-2.50925 41.68149-1.81061 50.04553 3.76551 44.46941 2.92747-2.92746 5.99338-.27948 5.99338 4.87843 0 3.62447.83615 5.29826 3.206 6.55289 1.67284.97582 3.48562 2.36957 4.04322 3.20599 1.81224 2.50925 1.25436 8.50386-.97608 11.43132-2.23045 3.06687-2.78739 7.52695-.69634 7.52695.69702 0 1.95151-2.36958 2.64852-5.29705.83642-2.78806 2.36848-6.55099 3.48372-8.08442 1.25462-1.67284 2.78874-5.43671 3.48575-8.36418.83641-3.06686 2.64812-9.89748 4.32095-15.19479 10.59463-35.40834 18.12306-83.50332 18.12306-115.2872 0-17.28597-3.34526-49.906-5.85451-57.57316-1.25463-3.90328-2.65002-5.71457-4.88048-5.99337-3.20626-.41821-3.9015 1.39307-9.33822 24.81277-3.76388 15.89195-3.62435 15.47414-6.83061 15.05594-2.64866-.41822-3.2079-1.53385-3.76551-8.7828-.69702-8.22478-.69675-8.36459-5.29704-8.78279-2.92746-.27882-5.29772-1.67244-6.69175-3.76348-3.06686-4.73969-5.57626-5.15695-11.9888-1.81128l-5.7136 3.06509-3.06715-3.90233c-2.23044-2.78806-3.90491-3.62475-5.85656-3.06714-3.06686.97582-19.93434 19.37784-19.93434 21.74768 0 .97582-.97583 3.3454-2.09105 5.29705-1.11522 2.09104-2.64731 6.27339-3.48372 9.34026-1.53343 6.41255-9.48089 16.72808-16.86925 22.0254-5.15791 3.76388-5.15737 3.76415-8.50303.97609-4.0427-3.06686-19.65501-6.69297-34.71053-7.9476-9.89762-.69701-10.73363-.55625-14.2187 2.78942-3.34566 3.06686-5.15955 3.48521-14.22072 3.62462-5.71554.1394-14.49724-.41794-19.51575-1.11496-13.94029-1.95164-20.21275 1.67215-15.33365 9.06052 3.06687 4.6003 2.64703 6.13427-1.67447 6.13427-7.24895 0-14.35755-1.81291-14.35755-3.48575 0-.97582 1.53411-4.04255 3.48575-6.83061 1.95165-2.78806 3.48373-5.99515 3.48373-7.11036 0-3.90329-6.82981-4.0416-16.44861-.27773-28.85642 11.15224-35.26962 13.52236-36.94246 13.52236-3.20627 0-13.10429 11.0123-17.14698 18.95827-4.32149 8.36418-4.73942 8.7832-11.57018 11.29245-5.85492 1.95164-10.45495.41644-15.75225-5.29908-2.09105-2.23045-4.60044-4.04119-5.71567-4.04119-1.11522 0-5.29704 1.81224-9.47913 4.18209-4.18209 2.23045-8.92069 4.18209-10.73293 4.18209-1.81225 0-6.13496 2.22977-9.62003 4.87842-3.48508 2.64865-7.52817 4.87842-8.78279 4.87842-1.25463 0-3.06538 1.67447-4.0412 3.76552-1.67284 3.76388-1.81386 3.7636-3.76551 1.11495-1.11523-1.39403-1.95015-3.06701-1.95015-3.62461 0-.55762-1.81224-1.67379-4.18209-2.37081-3.76388-1.39402-26.62664-19.3766-28.57829-22.58287-1.81223-2.92747-6.69106-1.11522-17.84331 6.27314-6.27313 4.18209-12.40712 7.66784-13.52236 7.66784-1.25462 0-4.60097 1.25394-7.66784 2.78738-3.06687 1.53343-6.55153 2.78737-7.94555 2.78737-1.25463 0-2.78779.5583-3.206 1.39472-1.25463 1.95164-5.85465 1.67297-9.47914-.55748-16.72836-10.45523-25.2318-16.30974-31.92314-22.58287-6.69134-5.99433-9.06241-7.38849-13.80212-7.80671-3.48507-.27881-6.273-1.25504-6.8306-2.50966-6.13374-13.24328-9.61826-18.95812-14.77618-23.69783l-5.99337-5.57679-10.45523.97609c-8.92178.69702-11.15237.41874-16.17088-2.2299-8.22477-4.32149-10.17805-3.90396-26.767 4.87843-1.95164 1.11521-4.59839 1.95217-5.71362 1.95217-1.25462 0-3.90383.97583-6.13427 2.09105-2.09105 1.11522-6.13414 2.92597-8.78279 4.04119-13.38269 5.43671-21.60815 9.47955-28.57829 14.07984l-7.66581 5.15818-9.47912-9.47913c-5.15792-5.15791-10.59627-11.43173-12.12969-13.94098-5.85493-9.4794-44.88668-51.29989-48.37175-51.85749-2.23044-.41821-2.50967.69769-2.50967 7.66784s.55762 8.78279 4.18209 12.96488c2.23045 2.64866 3.90288 5.43672 3.76348 6.27313-1.11522 3.06687-4.59949 1.11524-7.52694-4.18209-6.41253-11.57044-7.38918-12.9642-9.20143-13.66121-1.11522-.41821-2.78711-.13955-3.90232.55747-5.29732 3.34568-11.01271-.41929-8.92166-5.9954.4182-1.11524-.14008-2.92652-1.39471-3.90235-1.11522-.97581-2.09104-2.92746-2.09104-4.18209 0-4.6003-1.39321-6.90112-3.86762-6.88369zm170.95924 232.8615c3.33941-.0354 4.98392 1.19527 6.46508 3.8962 2.09104 4.18209 7.10956 6.13415 50.18507 19.23802 3.90328 1.25463 9.06092 3.06741 11.57018 4.04323 2.50926 1.11522 5.43767 1.95218 6.55288 1.95218 3.76388 0 31.92328 11.56923 37.63881 15.47251 11.15224 7.38835 20.21276 19.65676 23.69782 31.64543 1.39403 4.87911-7.24827 32.75833-15.33364 49.48669-5.43672 11.01284-19.23884 28.02054-22.16631 27.04472-.83641-.27881-2.08982-2.36972-2.92623-4.73956-.69701-2.23045-1.953-4.18154-2.78941-4.32096-.69702 0-8.22329 5.15711-16.58746 11.70903-8.22479 6.41255-15.89344 11.71108-16.86926 11.71108-.83642 0-2.36958-1.53411-3.20599-3.48575-.83643-1.95164-2.5094-3.48576-3.62462-3.48576-2.36985 0-5.01729 7.11079-5.01729 13.80213 0 7.52775-3.20694 11.29041-9.75888 11.29041-5.29732 0-5.5768-.27867-9.75889-8.92166-5.15791-10.31581-8.36282-12.40672-20.21208-13.10374-23.8379-1.11522-28.71754.27868-35.40889 11.0127-2.64866 4.3215-5.15778 6.83061-6.83061 6.83061-1.81224 0-5.29744-3.62312-9.89774-9.75685-6.83075-9.47939-7.38755-9.89896-11.70903-9.06254-5.57613 1.11522-6.9703-.27786-9.89775-10.17548-1.11523-4.18209-5.02-11.57152-8.50508-16.45063-6.83075-9.4794-7.24746-11.29042-10.31433-36.38295-1.53343-12.26747-4.18344-18.68096-11.15359-27.46334-5.01852-6.41253-5.29595-10.03715-1.39267-20.35297 1.53344-4.18209 3.48398-9.61744 4.4598-11.84789 2.92747-8.08537 10.59463-19.79618 16.72836-25.37229 8.92179-8.22479 14.91639-9.89803 40.70594-10.87384 12.26746-.41821 24.53493-1.39255 27.18357-1.95015 3.55478-.8887 6.16859-1.36734 8.17224-1.38858zm404.83562 11.57222c6.24699-.0262 17.12042.65507 28.62117 1.80516 9.34.83641 12.82398 2.9261 12.82398 7.66579 0 4.18209 4.04322 8.08646 8.22531 8.08646 1.95165 0 8.0862-2.2318 13.38351-4.88046 11.43105-5.57613 14.77536-5.99284 22.30312-1.95014 7.24896 3.90328 12.40713 8.78129 17.70444 17.00607l4.32095 6.69175-.8352 23.97758c-.97581 26.48657-6.41321 67.75012-9.75888 74.16265-6.41253 12.54627-23.83736 18.9584-37.77765 14.21869-6.41254-2.23044-6.55276-2.0905-15.47455 1.9522-4.87911 2.36984-12.685 4.73888-17.4247 5.4359-9.75819 1.39403-11.84925 2.78832-14.6373 9.34026-1.11524 2.50925-2.64784 4.60071-3.34487 4.60071-.83641 0-3.62502-3.3454-6.13427-7.38808-2.64865-3.90329-7.38781-10.59463-10.59408-14.63732-5.85492-7.24895-5.85506-7.24922-9.89775-5.15818-5.85492 3.06687-6.4124 2.78711-13.10374-4.46184-5.29731-5.57613-6.83155-6.5514-11.29245-6.412-2.78807.13941-6.13292 1.11414-7.52695 2.36877-5.29731 4.87911-13.52222.97717-16.17089-7.66581-1.11521-3.62447-4.60179-3.34635-10.59611.69633-10.03702 6.83076-16.02984 5.99366-24.95165-3.48575-12.40685-13.38269-16.86856-31.3658-11.29244-45.44551 4.32149-10.87343 17.14629-29.55328 26.20749-38.19627 9.6188-9.2006 17.84358-14.21883 29.27461-17.84331 4.7397-1.53343 11.29165-4.4598 14.63731-6.55085 12.54627-8.22478 17.98272-10.03674 38.75376-13.66122.90611-.17426 2.47549-.26287 4.55783-.27158zm-193.77081 164.16129c1.07468.0977 2.16169 1.06771 3.80839 2.83638 1.53343 1.67284 2.78738 4.59921 2.78738 6.55085s1.25394 5.15873 2.78739 7.11037c1.53342 1.95164 2.78941 4.18086 2.78941 5.01728 0 .83641.97583 2.37108 2.09104 3.34689 1.11523.97583 2.36863 3.76333 2.92623 6.412.41822 2.64866 1.39405 5.15859 2.09105 5.5768 1.67284.97582 8.22533 14.91544 8.22533 17.42469 0 1.11522-1.25449 3.90274-2.64852 6.412-4.6003 7.38836-.27868 8.22437 9.89774 1.67242 5.99434-3.90328 7.10941-4.18141 11.0127-2.78738 2.50926.83642 6.13428 1.53357 8.22532 1.53357 6.27313 0 19.79482 11.29123 24.67391 20.49182 8.78239 16.58897 8.64353 29.9726-.13885 42.10066-8.22478 11.29164-10.59543 17.42496-11.29246 28.856-.83642 15.61314-5.99513 19.23666-11.29245 8.08442-3.06686-6.41253-9.47777-9.33971-21.32702-9.47913-10.45523-.2788-12.68717-2.36957-12.68717-11.57017 0-6.27313 0-6.41145-8.36417-6.55085-3.20627-.1394-5.15792-.97664-6.27314-2.92828-8.36418-15.89194-14.63596-21.74687-20.21208-18.8194-1.53342.83642-5.57597 5.71593-8.92165 10.87384-14.0797 21.46806-29.97273 29.41376-56.18048 28.29853-7.24896-.2788-7.94502-3.06686-5.99338-25.09254.83641-10.31581 2.22923-19.93503 2.92623-21.32906.69702-1.25462 3.34526-2.50857 5.85453-2.78738 4.32149-.41821 4.46266-.55802 5.29907-8.78279.97582-11.70986 6.41091-22.02472 17.14494-33.17695 5.15791-5.15792 9.75875-9.34028 10.31637-9.34028.69701 0 2.92773 2.78806 5.15817 6.27313 4.73971 7.66717 8.36418 7.94584 8.36418.55748 0-2.78805.69716-5.85628 1.53358-6.97151 2.50925-3.20627 6.13304-11.15197 9.0605-19.93435 3.62448-10.73403 8.50346-20.21275 13.10375-25.78887 2.50926-2.90132 3.87241-4.21578 5.25416-4.09019zm283.99816.41657c.056.007.1055.0229.14907.0491.697.55762 1.25381 2.51021 1.25381 4.46185 0 2.09105-.97583 4.73876-2.09105 5.99338-1.11522 1.25463-2.0905 5.43725-2.22991 10.31636-.2788 6.69134.14037 8.64203 2.37081 10.17546 4.18209 3.06687 6.8306 1.67324 6.8306-3.76347 0-3.34567.69647-5.01824 2.22991-5.29704 1.81224-.2788 2.36958 1.53357 3.20599 9.89774.55762 5.71554.55762 11.29165 0 12.54627-1.11521 3.20627-5.15844 2.92706-8.22531-.41861-1.39403-1.53344-3.34458-2.78738-4.45982-2.78738-1.81223 0-2.09145.55639-2.50965 7.10832-.41821 6.13374-1.81143 8.22533-5.4359 8.22533-4.18209 0-6.41403-3.48507-6.41403-10.45522 0-6.27314-3.48345-13.24261-6.68971-13.24261-3.34568.1394-9.75999 6.13264-11.57222 10.73294-.83642 2.09104-2.0909 7.66825-2.64852 12.26855-1.11522 6.83076-1.95191 8.78171-5.15819 11.15156-2.09104 1.39403-6.41226 5.29677-9.47912 8.50303-3.06687 3.20627-8.36281 7.25032-11.84789 9.06255-3.48509 1.81225-6.41295 3.76335-6.69176 4.32095-.83641 1.95165-4.46184 1.11442-4.46184-.83723 0-3.76388 7.24882-10.59367 15.19478-14.35755 4.3215-1.95165 8.36405-4.32176 8.92165-5.15817.69702-.83643.83833-6.41364.55953-12.26856-.69702-11.43105.97459-16.17074 5.01729-14.63732 2.78805.97583 4.18181-.8356 9.47912-11.70903 2.36985-4.8791 5.01809-9.34013 5.85451-9.89774.97583-.55762 4.18236-.69593 7.24924-.27772 5.1579.69702 5.71605.55652 8.22531-3.90437 4.05139-7.15747 11.63588-16.01506 13.3733-15.80128zm-101.1788 76.11075c1.11904.0237 2.28096.54114 3.32648 1.58667 2.50926 2.50925 2.092 5.15654-1.81128 9.75684-1.95165 2.23045-3.48575 5.29718-3.48575 6.8306 0 3.06688-6.13306 7.38837-9.06052 6.27314-3.06686-1.11522-2.50912-5.29757 1.53358-11.43131 2.09104-2.92746 4.32229-7.10833 5.01932-9.19938.87126-2.52667 2.61312-3.85603 4.47817-3.81656zm31.94562 40.24853c-2.9142-.0266-7.12425 1.22318-10.49606 3.57561-7.66717 5.1579-11.15292 13.38254-5.57681 13.10374 3.34567 0 18.96017-11.43064 19.51778-14.2187.30495-1.64669-1.17833-2.43992-3.44491-2.46065zm-362.90651 11.24345c.83642 0 1.39471.97581 1.39471 2.09104s-.55829 2.09105-1.39471 2.09105c-.69701 0-1.3947-.97582-1.3947-2.09105s.69769-2.09104 1.3947-2.09104zm-27.80232 20.91248c-.65344-.037-1.2636.31189-1.89091.97405-1.95165 1.81224-.83629 11.01325 1.53357 15.05592 3.62447 5.85493 11.43145 13.38125 12.96488 12.40538 2.23044-1.39403 1.39293-5.01823-3.90438-15.75227-4.39119-8.99149-6.74281-12.572-8.70316-12.68308zm4.3475 75.31032c-.69702-.069-1.42901.2443-2.05632.9414-1.53345 1.3939-1.11482 15.4728.41861 16.4485.83642.5576 3.06618 3.3462 4.87843 6.1343 2.09104 3.4851 4.60057 5.5767 7.24922 6.1343 2.92746.5576 5.15885 2.7874 8.64394 8.5031 2.50926 4.3214 5.1575 7.3876 5.85452 6.9694.69701-.4182 1.25381-6.2715 1.25381-12.9628 0-10.7341-.41698-12.5473-2.92625-14.9171-1.67282-1.3941-4.87938-2.6485-7.24922-2.6485-4.04269 0-4.46157-.4173-5.5768-5.9934-.97582-4.8791-1.67175-5.8566-4.45981-5.8566-1.81224 0-3.76389-.6956-4.18209-1.3927-.48791-.8363-1.15103-1.2902-1.84804-1.3599zm339.70285 2.0848c-.92789.085-1.89337.7372-2.31158 1.7828-.69702 1.2545-1.67433 4.0432-2.23196 6.1342-.97581 4.1821-3.48465 4.8792-7.94555 2.0911-2.36985-1.394-3.06673-1.2543-4.73956.9761-1.53345 1.9517-1.6727 3.3448-.55748 5.4359.83642 1.5335 1.67188 5.9945 1.81129 9.8977.13939 6.2731.55842 7.1095 2.92828 6.8306 1.53343-.1393 3.48507-1.3939 4.18208-2.6485.83642-1.394 2.92787-4.0423 4.60071-5.8545 6.27313-6.552 9.61908-22.7229 5.15818-24.5351-.2788-.1039-.58511-.1384-.89441-.1106zm-31.12471 16.1812c-1.92115-.081-2.13596 1.0946-2.13596 7.0716 0 4.0426-.41698 10.734-.8352 14.6372-.83641 6.1337-.55748 7.5263 1.53356 8.2234 1.53345.6969 3.62449-.4185 6.27314-3.0672 5.43672-5.5762 6.412-15.6113 2.22991-21.8845-1.67284-2.5093-4.46145-4.6016-6.13427-4.8805-.34851-.052-.65673-.088-.93118-.1005zm-269.83256 6.9143c-.65344-.011-1.24564.2268-1.76839.7148-1.81225 1.8121-1.11496 25.5104.97609 30.3895 1.11521 2.5093 4.32176 6.4115 7.24922 8.6418 2.78807 2.2305 9.33851 8.2257 14.49642 13.3836 9.33999 9.6189 14.49763 11.84858 15.75226 6.9695 3.48508-12.5463 4.18359-21.4679 2.23195-29.8322l-1.95219-8.7828-5.99337-.8351c-3.20628-.4182-7.66786-2.0912-9.7589-3.6246-2.09105-1.5335-5.15777-3.2059-6.83061-3.7635-1.81223-.5577-4.87992-3.6244-7.11037-6.8306-2.82291-4.1821-5.33174-6.4042-7.29211-6.4304zm243.30243 1.6888c-.69701-.1394-5.01878 2.7884-9.34026 6.6917l-8.08647 7.1103v10.3165c0 7.9459-.4182 10.5939-2.09104 11.1515-4.04268 1.5334-6.69094-2.3693-5.85451-8.503.97581-6.6914.27866-7.9458-5.71567-11.0127-6.13373-3.0669-11.84938-3.2073-16.17088-.2798-6.13372 3.9033-8.22504 8.365-7.24922 15.4746.41821 3.485 1.25625 9.1995 1.67447 12.824.41821 3.7638 1.67215 8.6443 2.78737 11.1535 1.81225 3.9033 1.81278 5.1571-.13886 9.61808-2.64865 6.4125-2.78955 6.1342 1.95016 6.1342 3.90327 0 10.59447-5.9955 17.28581-15.89318 3.62449-5.2973 7.66814-4.7399 8.64395 1.115.55761 2.6487 2.23003 6.1345 3.76347 7.66778l2.64852 2.9284 4.04323-2.7895c5.71553-4.04268 11.9888-12.54548 16.17089-21.60678 3.20626-6.8307 3.62474-9.201 3.06713-19.238-.55761-11.1522-4.04242-21.7474-7.38809-22.8626zm-78.6633 17.8066c-.14661-.011-.27527 0-.37981.039-.27881 0-1.95069.5573-3.90233 1.1149-12.12806 3.7639-20.77051 12.5462-21.04931 21.4679-.4182 10.5946.27908 36.52278.9761 38.89258 1.25462 4.3215 7.10914 4.6017 16.30973.6984 19.51642-7.9459 24.95232-10.4559 26.34635-11.8499.97582-.9757.8371-3.3457-.69634-7.80668-1.53342-4.3215-1.81251-7.6672-.97608-10.4553 1.53343-5.4367-1.39322-17.8429-5.4359-23.6978-2.35244-3.3979-8.99313-8.2671-11.19241-8.4029zm-59.78263.4553c-2.27401-.026-3.9203.7323-6.11589 2.5097-2.09105 1.8121-5.4359 4.462-7.52695 5.9954-3.48509 2.7881-3.62584 3.4837-4.88047 24.3941-.69702 11.84928-1.53193 23.28178-1.95015 25.23358-1.25462 5.8549 1.81116 7.2488 14.91504 6.2731 12.26746-.8365 22.02662-1.952 27.46333-3.0672l3.34486-.6984-.83519-17.00608c-.83642-17.983-3.90398-32.0635-7.66785-36.385-3.20626-3.3457-8.36377-5.9936-14.2187-6.9695-.94097-.1742-1.77003-.271-2.52803-.2797zm-54.45497.8863c-.94484.058-1.64616.5865-1.70713 1.6234-.27881 2.3698-.55612 7.9458-1.95015 27.741-.97582 14.49798-.83629 16.58998 1.53357 20.63278 2.92746 5.0184 19.23747 14.0783 21.46792 11.8478 1.53343-1.5333 4.73862-29.41408 4.4598-39.17238-.27881-12.2674-5.15655-18.5395-13.93893-18.5395-2.23045 0-4.88074-.9759-5.85656-2.0912-1.17621-1.4113-2.79371-2.1163-4.00852-2.0419z" style="stroke-width:1.04552"/></svg>