<svg height="960" style="" width="1392" xmlns="http://www.w3.org/2000/svg"><path d="m649.17091 746.6884c-2.6284 7.0091 10.0755 106.8878 14.4561 113.8968 1.7523 2.6284 4.3807 12.7039 6.1329 22.7794 3.9426 21.0271 13.58 53.0058 24.5316 83.2322 9.6375 25.4078 21.4652 31.1026 25.4078 12.2658 1.7522-6.5709 4.8187-17.0845 7.4471-23.2174s6.1329-17.9606 8.3232-26.2839c1.7523-8.3232 5.2568-23.2174 7.8852-32.8548 10.9516-42.4923 17.9606-85.8606 18.8368-118.2774l1.3141-35.0452-56.0722-1.3142c-43.8065-.8761-56.5103 0-58.2626 4.8187zm293.9413-99.4406c-31.5406 33.731-44.2445 54.32-34.169 54.32 1.7522 0 8.3232 4.3806 14.4561 10.0755 18.3987 16.6464 74.909 56.0722 98.56449 68.7761 69.6523 37.2355 101.1929 51.6916 104.6974 48.1871 2.6284-2.6284 1.7523-7.009-2.1903-11.8277-3.5045-4.3807-13.1419-21.4652-21.4651-38.5497-8.3233-16.6465-23.6555-42.9303-33.731-58.2626-10.5136-15.3323-18.8368-28.9123-18.8368-30.2265 0-7.009-62.64319-80.1658-68.77609-80.1658-2.1903 0-19.2749 17.0846-38.5497 37.6736zm-557.2181 2.6284c-16.6464 22.3413-31.5406 43.8064-33.2929 47.3109-1.7522 3.5046-7.009 12.2658-11.3897 19.7129-14.8942 22.7794-53.0058 99.0026-53.0058 105.5736 0 8.7613 4.3807 7.8852 35.4832-9.1994 15.3323-8.3232 31.9788-17.0845 36.7975-19.2748s16.2084-9.1994 25.4077-15.3323c9.1994-6.1329 17.5226-11.3896 18.8368-11.3896 5.6948 0 89.8032-67.0239 94.1839-74.9091 4.3806-8.3232.8761-13.1419-31.5407-45.9967-20.151-20.151-39.8639-36.7975-43.8064-36.7975-3.9426 0-20.5891 17.9607-37.6736 40.302zm-64.8335-265.0291c-31.5407 2.1903-107.32581 19.7129-146.75167 34.6071-8.32322 3.0665-20.15097 6.571-26.28387 7.8852-15.77032 3.9426-34.6071 19.2748-26.28387 21.4651 3.50451.8762 16.64645 4.8188 28.47419 8.3233 76.22322 22.7793 119.15352 32.4168 173.03552 37.6735 52.5677 5.6949 52.5677 5.6949 52.5677-47.3109 0-53.4439-3.9426-66.1478-20.589-64.8336-7.009.4381-21.9032 1.3142-34.169 2.1903zm698.71289-.8761c-7.4471 8.7613-4.3806 102.069 3.5045 106.8877 14.4561 8.7613 143.6852-13.58 188.3678-32.8548 7.8851-3.5045 17.0845-6.1329 21.0271-6.1329 9.1993 0 42.4922-17.5226 39.4258-21.0271-3.9426-3.5045-32.4168-14.0181-50.8155-18.3987-8.3232-1.7523-21.0271-5.2568-28.4742-7.8852-21.9032-7.009-76.6613-17.9606-116.0871-22.7793-47.749-5.6949-50.3774-5.6949-56.9484 2.1903zm-350.88969-45.9968c-10.5135 17.0845-21.0271 34.6071-23.6555 38.5497-2.1903 3.9426-15.7703 24.9697-30.2264 46.4348-42.4923 64.3955-50.8155 84.5465-50.8155 123.0962 0 27.598 1.7522 35.9213 10.9516 49.9393 22.7793 36.7975 54.7581 59.1387 99.4406 71.4046 45.9968 11.8277 109.0781-19.713 141.4949-71.4046 9.1993-14.018 10.9516-22.3413 10.9516-49.9393 0-38.5497-8.3232-58.7007-50.8155-123.0962-14.4561-21.4651-27.598-42.4922-30.2264-46.4348-27.5981-46.8729-43.8065-69.2142-50.3775-69.2142-4.8187 0-14.8942 11.3897-26.7219 30.6645zm396.88649-275.542596c-16.6465 9.1994-34.6071 18.8368-39.4258 21.4652-4.8187 2.1903-12.7039 7.009-17.0846 9.6374-69.65219 45.120596-114.77289 80.165796-119.15349 92.869696-3.9426 11.3897 71.8426 84.1084 81.48 78.4135 10.5135-6.5709 46.43479-53.0058 67.02389-85.8606 25.8458-42.0542 64.3955-117.839396 64.3955-127.038726 0-10.07548-1.7523-9.63742-37.2355 10.51353zm-801.22009-14.01805c-1.3142 2.19033 2.6284 13.58005 8.7613 24.96965 21.9033 41.178096 33.2929 60.890996 41.6162 74.032896 4.3806 7.0091 9.6374 16.2084 11.3896 19.7129 3.9426 9.1994 50.3775 69.2142 66.5858 86.7368 7.4471 8.3232 15.3323 14.0181 17.0846 13.142 8.3232-3.9426 75.3471-77.0994 75.3471-82.7942-.4381-9.1994-91.5555-75.3471-131.4194-95.498096-10.9516-5.2568-28.4742-14.4561-38.9877-20.589-10.5136-5.6949-21.9033-10.5136-24.5317-10.5136-3.0664 0-7.8851-3.0664-10.9516-6.57096-6.1329-7.4471-11.3896-8.32323-14.8942-2.62839zm417.9136-68.77613c-2.6284 5.69484-7.8852 15.3322597-12.2658 21.9032297-3.9426 6.1329-13.1419 21.0271003-20.151 32.8548403-7.009 11.38968-25.8458 40.74001-41.6161 64.83351-15.7703 24.093596-29.7884 45.558796-30.6645 48.187096-.8761 2.1904-7.4471 11.3897-14.0181 20.151-7.009 8.7613-12.7039 17.0845-12.7039 18.3987s-10.5135 17.9607-23.2174 36.7974c-30.2264 44.2446-68.7761 109.5162-68.7761 116.5252 0 3.0665-1.7523 7.4471-3.9426 9.6374-12.2658 12.7039-22.3413 60.4529-22.3413 103.8213 0 45.5587 4.3807 64.3955 24.5316 103.8213 17.0846 33.731 97.2504 105.5736 117.4013 105.5736 10.5136 0 8.7613-3.5045-11.8277-23.2174-39.4258-38.5497-52.1297-67.462-52.5678-120.0297-.438-52.1297-1.3142-49.9394 77.9755-180.0445 2.6284-4.3807 12.7039-19.713 23.2175-35.0452 10.0754-15.3323 18.3987-28.9123 18.3987-30.2265s5.2567-9.6374 12.2658-18.3987c14.018-18.8368 21.4651-30.2264 26.7219-42.0542 2.6284-4.8187 9.1994-14.8942 15.3323-21.9032l11.3896-13.1419 11.3897 13.1419c6.1329 7.009 12.7039 17.0845 15.3323 21.9032 5.2568 11.8278 12.7038 23.2174 27.16 42.0542 6.5709 8.7613 11.8277 17.5226 11.8277 18.8368s8.7613 15.3322 19.7129 31.5406c10.9516 15.7704 19.7129 29.3504 19.7129 29.7884 0 .8762 8.3233 14.0181 18.8368 29.3504 22.3413 33.7309 34.6071 55.1961 49.5013 87.1748 9.6374 20.589 11.3897 30.2265 11.3897 65.7097.438 53.8819-11.8278 82.3561-52.1297 121.3439-20.589 19.7129-22.3413 23.2174-11.8277 23.2174 22.3412 0 102.5071-74.0329 118.7154-109.9542 22.3413-49.0632 23.2175-51.6916 23.2175-98.5645 0-44.2446-10.0755-91.9936-22.3413-104.6975-2.1904-2.1903-3.9426-6.5709-3.9426-9.6374 0-7.009-38.5497-72.2806-68.7761-116.5252-12.7039-18.8367-23.2175-35.4832-23.2175-36.7974s-5.6948-9.6374-12.7038-18.3987c-6.571-8.7613-13.142-17.9606-14.0181-20.151-1.7523-4.3806-53.8819-84.984496-69.2142-107.325766-4.3806-6.13291-8.7613-14.01807-10.5135-17.52258-1.7523-3.50452-7.0091-12.7038803-11.8278-19.7129103-4.8187-7.4471-10.5135-17.5225797-13.1419-23.2174197-2.1903-5.25677-7.8852-9.63742-13.142-9.63742-5.2567 0-10.9516 4.38065-13.1419 9.63742z" style="stroke-width:.438065"/></svg>