<svg height="960" style="" width="1723" xmlns="http://www.w3.org/2000/svg"><path d="m861.49998-120-70.69603 147.2727h141.39203zm-53.85298 194.0092a469.09091 469.09091 0 00-415.23793 465.9908 469.09091 469.09091 0 0071.82529 249.4495l87.15553-181.5766-67.87286-67.8729 193.18892-193.1889zm107.706.014 130.941 272.7913 193.189 193.1889-67.8729 67.8729 87.1555 181.5767a469.09091 469.09091 0 0071.8253-249.453 469.09091 469.09091 0 00-415.2379-465.9801zm-53.85302 291.4308a174.54544 174.54544 0 00-174.54545 174.546 174.54544 174.54544 0 00174.54545 174.5455 174.54544 174.54544 0 00174.54542-174.5455 174.54544 174.54544 0 00-174.54542-174.5455zm-594.54545 82.0313-147.27273 70.696 147.27273 70.696zm1189.09087 0v141.392l147.2728-70.696zm-595.16331 10.696a81.818182 81.818182 0 01.61818 0 81.818182 81.818182 0 0181.81818 81.8187 81.818182 81.818182 0 01-81.81847 81.8182 81.818182 81.818182 0 01-81.81818-81.8182 81.818182 81.818182 0 0181.20029-81.8182zm-199.8047 259.3791-116.37783 242.4396h633.60084l-116.3779-242.4396-200.42252 200.4226z" style="stroke-width:7.27273"/></svg>