<svg height="960" style="" width="3082" xmlns="http://www.w3.org/2000/svg"><path d="m539.83541 60.00006c-231.91631 0-419.99991 188.08366-419.99991 419.99994s188.0836 419.99994 419.99991 419.99994c231.91628 0 419.82642-188.08366 419.82642-419.99994-.26646-231.82746-187.99897-419.73348-419.82642-419.99994zm1001.85849 0c-231.9163 0-419.9999 188.08366-419.9999 419.99994s188.0836 419.99994 419.9999 419.99994 419.8264-188.08366 419.8264-419.99994c-.2664-231.82746-187.9989-419.73348-419.8264-419.99994zm1000.4707 0c-231.9163 0-419.8264 188.08366-419.8264 419.99994s187.9101 419.99994 419.8264 419.99994c231.9162 0 419.9999-188.08366 419.9999-419.99994-.2664-231.82746-188.1725-419.73348-419.9999-419.99994zm-2004.06405 43.89097h1.73486.34694c74.73716 0 144.28283 22.19913 202.627 60.02476v287.28618h-577.86855c14.4782-194.69954 175.9732-347.31094 373.15975-347.31094zm1002.72595 0h.8674c147.0018.3553 274.1252 84.81608 336.0347 207.65799l1.0408 2.08173-194.4733 160.64435-290.9292-339.85123c43.4343-19.36337 94.166-30.53284 147.4596-30.53284zm1001.5116.34695c207.5788 0 375.9354 168.35665 375.9354 375.93549s-168.3566 375.9355-375.9354 375.9355h-.1735-.5205c-52.3171 0-102.146-11.17489-147.2862-30.70631l-136.1833-591.40011c69.2818-79.67403 171.0033-129.76457 284.1635-129.76457zm-1206.5673 61.23913v629.04578c-103.1233-68.12707-170.1858-183.50929-170.1858-314.52289s67.0958-246.4166 168.7979-313.65545zm43.891 20.81784 270.8054 316.08422-270.8054 223.79175zm-592.78803 10.58244c72.30174 62.88653 119.87051 152.38516 127.50927 253.11019l.17348 1.21439h-127.68275zm1436.77793 83.44482h.1734l119.3556 518.53772c-106.9426-67.41649-177.1251-184.83053-177.1251-318.68646 0-73.44027 21.2283-141.98721 57.5961-199.85126zm-327.0136 75.6382c13.3234 36.95027 20.9913 79.45473 20.9913 123.86612 0 207.66766-168.2678 376.10896-375.9355 376.10896v.17348h-1.0408c-57.6814 0-112.3227-13.36304-160.9913-36.95171v-36.08424zm-1732.5647 139.13253h751.35052c-8.52699 201.00596-173.33904 360.74956-375.58851 361.01603-202.24951-.26647-367.23501-159.94203-375.76201-360.14858z" style="stroke-width:88.823"/></svg>