<svg height="960" style="" width="1292" xmlns="http://www.w3.org/2000/svg"><path d="m336.80626-29.996345c-7.32361.10987-13.52525 2.68611-17.94164 7.92036-4.18737 5.23425-5.23933 15.1777998-2.62221 29.8336898 6.2811 37.6865902 8.90127 240.2529852 3.14361 247.0575152-3.14055 3.14055-6.80812 22.50265-8.9018 42.39284-2.09368 19.8901-6.79992 41.87342-10.98733 49.20142-3.66396 7.32794-6.80859 20.41403-6.80859 29.31231 0 8.37474-3.664 20.41304-7.85138 25.64729-4.18741 5.75767-7.85138 16.75315-7.85138 24.60452s-3.66397 15.18084-7.85137 17.27454c-5.23425 2.0937-7.85137 9.94455-7.85137 25.6473 0 23.55412 6.80502 35.07047 21.46091 35.07047 4.71083 0 11.51742 3.66404 15.18137 7.85134 3.66397 4.1874 14.13248 7.8515 23.55412 7.8515s19.89016 3.6639 23.55412 7.8513 9.41858 7.8513 12.55913 7.8513c9.42164 0 72.23467 32.9743 85.84372 45.5365 6.80451 6.2811 17.2771 13.0821 22.51134 14.6524 14.65588 4.7108 89.50002 81.6594 101.53881 104.69 5.75764 10.4685 13.08918 20.9354 16.75314 21.9823 3.66399 1.5702 6.80097 6.8035 6.80097 12.0378 0 4.7108 8.37989 17.272 18.32495 27.7405 25.64784 26.6945 47.62914 26.6945 73.27694 0 9.945-10.4685 18.3173-23.0297 18.3173-27.7405 0-5.2343 3.1446-10.4676 6.8086-12.0378 3.6639-1.0469 10.9879-11.5138 16.7456-21.9823 12.0387-23.0306 86.8905-99.9792 101.5464-104.69 5.2342-1.5703 15.7068-8.3713 22.5113-14.6524 13.6091-12.5622 76.4144-45.5365 85.836-45.5365 3.1406 0 8.9029-3.6639 12.5669-7.8513s14.1324-7.8513 23.554-7.8513c9.4217 0 19.8902-3.6641 23.5541-7.8515 3.6641-4.1873 10.46298-7.85134 15.17378-7.85134 14.6559 0 21.4609-11.51635 21.4609-35.07047 0-15.70275-2.6171-23.5536-7.8513-25.6473-4.1874-2.0937-7.8515-9.42317-7.8515-17.27454s-3.6639-18.84685-7.8513-24.60452c-4.1874-5.23425-7.85138-17.27255-7.85138-25.64729 0-8.89828-3.1369-21.98437-6.8009-29.31231-4.1873-7.328-8.9013-29.31132-10.995-49.20142-2.0936-19.89019-5.7536-39.25229-8.8942-42.39284-5.7575-7.32796-3.1451-214.606745 3.136-240.777975 4.7108-20.4135702-8.8977-43.9646-25.6473-43.9646-13.0856 0-34.0175 13.0795-52.3373 32.9696398-7.328 7.8513702-16.2328 14.1385902-19.8968 14.1385902-4.1874 0-14.6538 6.80452-24.0755 15.70275-9.4216 8.37479-20.4095 15.70274-24.5969 15.70274s-8.3743 2.09061-9.9446 4.70774c-3.6639 5.75766-46.0654 26.697742-53.9168 26.697742-3.1405 0-8.3737 3.66398-12.0378 7.85138-3.6639 4.18739-11.5148 7.85137-17.7959 7.85137s-16.7496 3.65989-23.5541 8.894143c-18.3199 12.56219-113.58167 12.56219-131.90152 0-6.80455-5.234253-17.27302-8.894143-23.55412-8.894143-6.28109 0-14.13195-3.66398-17.79595-7.85137-3.66397-4.1874-8.89717-7.85138-12.03772-7.85138-7.85137 0-50.25287-20.940082-53.91687-26.697742-1.57027-2.61713-5.75713-4.70774-9.94454-4.70774s-15.1829-7.32795-24.60456-15.70274c-9.42164-8.89823-19.88807-15.70275-24.07547-15.70275-3.66397 0-12.56119-6.28722-19.88914-14.1385902-19.79198-21.5912798-41.31655-33.2804498-57.42847-33.0386298zm58.10321 103.478632c5.0911.42936 12.73547 3.82596 25.49395 10.69592 14.65588 7.85137 28.7904 17.269983 30.88412 20.410533 2.09369 3.66397 8.89667 6.8086 14.13094 6.8086 9.42165 0 31.40549 16.74959 31.40549 23.55412 0 5.75768-21.45737 23.55412-28.26188 23.55412-3.66399 0-21.9818 14.13247-39.77826 31.40549-18.8433 17.79644-36.11989 30.88258-40.30727 29.3123-8.89822-3.66397-9.94305-133.996273-.5214-143.417923 1.76656-1.76655 3.89962-2.5808 6.95431-2.32316zm501.73645.4907c12.6946-.0534 13.6861 18.97211 13.6861 75.109373 0 51.29568-1.5666 68.04731-6.8009 70.14101-4.1873 1.57028-21.464-11.51586-40.3072-29.3123-17.7965-17.27302-36.1143-31.40549-39.7783-31.40549-6.8045 0-28.2695-17.79644-28.2695-23.55412 0-6.80453 21.9838-23.55412 31.4054-23.55412 5.2343 0 12.045-3.14463 14.1386-6.8086 2.0938-3.14055 15.6992-12.559163 30.3551-20.410533 11.6135-6.21567 19.8003-10.18093 25.5707-10.20522zm-50.758 314.951983c7.7149.0561 16.2871 1.06575 25.7087 3.02859 10.992 2.09364 17.8 8.37118 24.6045 22.50365 12.0388 26.69467 10.9879 36.64282-6.8086 58.10322-13.609 16.7496-17.274 18.31733-42.9218 18.31733-37.6867 0-51.2946-13.08305-51.2946-49.7228 0-34.87317 17.2807-52.4726 50.7118-52.22999zm-390.54436.53672c10.73019-.13075 21.85708.65982 28.39986 2.49187 9.9451 2.61712 28.78329 34.54551 28.78329 49.2014 0 3.66398-4.18333 15.69814-8.89415 26.69005-8.37478 16.74961-12.56423 19.8922-30.88412 23.03275-47.10823 6.80449-70.14094-9.41909-70.14094-49.7228 0-26.17124 8.37786-41.35208 26.69773-48.68007 4.97251-1.83194 15.30814-2.8824 26.03833-3.0132zm-249.02037 51.69327c-7.85137 0-22.50676 9.94559-41.35005 29.31229-16.22617 15.70275-29.31229 32.97424-29.31229 37.685 0 4.7109-3.66398 13.6045-7.85138 18.8388-5.23424 6.8044-7.85137 23.0357-7.85137 49.7304 0 32.4524 2.61713 43.9677 15.70275 70.6624 8.37479 17.7965 24.60198 41.349 35.07048 53.3878 22.50727 24.0775 60.71778 54.4382 68.56915 54.4382 2.61714 0 6.27905 3.6639 8.37276 7.8514 1.57027 4.1874 8.3748 7.8513 15.70274 7.8513 6.80452 0 13.61109 3.137 15.18137 6.801 1.04684 3.664 13.08868 12.0362 26.69773 18.3172 13.08561 6.8046 25.11981 14.1341 26.69007 17.2746 2.09369 2.6171 6.80962 4.7155 10.47358 4.7155 4.18742 0 19.89118 11.5148 35.07051 25.6472l27.74047 26.1688-.52903 33.4986c-.52341 37.1632-5.23373 44.4926-41.35003 64.3828-10.46852 5.75773-19.36215 12.56233-18.8387 15.70283 0 2.617 23.03168 5.2327 50.77321 6.2795 38.73344 1.0469 53.38933-.5199 62.81097-6.801 6.80452-4.1873 15.17474-7.8513 18.8387-7.8513 4.18742 0 14.65384-6.80663 24.07549-15.18133 8.89824-8.3749 21.46349-16.7527 26.69773-18.8464 5.75768-1.5703 18.8438-16.7491 29.31231-33.4988 17.27302-28.7883 18.31733-33.4945 18.31733-73.7982 0-38.7334-1.57028-46.0675-15.70275-69.0982-8.37482-13.609-15.70274-26.6895-15.70274-28.7833 0-7.8513-121.95289-121.9569-130.85112-121.9569-5.23423 0-10.46745-3.1447-12.03773-6.8086-3.14054-8.8982-98.41101-56.0024-112.02007-56.0024-3.14055 0-15.17829-5.2332-27.74048-12.0378-32.97577-17.2729-60.1913-73.28555-41.87143-84.80085 8.3748-5.2343.52087-13.08054-13.08818-13.08054zm874.84521.19943c-5.1668-.20063-9.1333 1.30238-11.1944 4.50836-1.5702 2.61713-.5182 6.27905 2.6223 8.37275 18.3199 11.51536-8.9033 67.52795-41.8791 84.80095-12.5621 6.8045-24.5999 12.0377-27.7405 12.0377-13.60898 0-108.87178 47.1042-112.01228 56.0024-1.5703 3.664-6.8035 6.8086-12.0378 6.8086-8.8983 0-130.8588 114.1056-130.8588 121.957 0 2.0937-6.8045 15.1742-15.7027 28.7833-14.1325 23.0306-15.7028 30.3647-15.7028 69.0982 0 40.3037 1.052 45.0098 18.3249 73.7982 10.4686 16.7496 23.5547 31.9285 29.3124 33.4988 5.2343 2.0936 17.7919 10.4714 26.6901 18.8463 9.4216 8.3748 19.8881 15.18133 24.0755 15.18133 3.6639 0 12.0419 3.664 18.8463 7.8514 9.4217 6.2811 24.0775 7.8478 62.811 6.801 27.7415-1.0469 50.7732-3.6624 50.7732-6.2796.5235-3.1405-8.3778-9.9451-18.8463-15.70283-36.1164-19.8901-40.8266-27.2195-41.35-64.3827l-.5214-33.4987 27.7405-26.1688c15.1793-14.1324 30.8831-25.6472 35.0705-25.6472 3.6639 0 8.3722-2.0984 10.4659-4.7155 1.5703-3.1405 13.612-10.47 26.6978-17.2746 13.60888-6.281 25.65068-14.6532 26.69758-18.3172 1.5703-3.664 8.3692-6.801 15.1738-6.801 7.3278 0 14.1324-3.6639 15.7027-7.8513 2.0936-4.1875 5.7633-7.8514 8.3803-7.8514 7.8515 0 46.0543-30.3607 68.5616-54.4382 10.4685-12.0388 26.6957-35.5913 35.0704-53.3878 13.0857-26.6947 15.7028-38.21 15.7028-70.6624 0-26.6947-2.6171-42.926-7.8513-49.7304-4.1874-5.2343-7.8515-13.6085-7.8515-17.7959 0-9.42172-31.4064-45.53904-50.7732-58.62467-9.1272-5.88852-17.7545-8.95857-24.3975-9.21614z" style="stroke-width:.523424"/></svg>