<svg height="960" style="" width="1217" xmlns="http://www.w3.org/2000/svg"><path d="m474.30255 613.23285c-7.71665 20.25621 20.25622 71.37905 52.08742 94.52901 18.32705 13.50414 41.47701 18.32705 100.3165 18.32705 85.84778.96458 113.82065-12.53956 147.58101-69.44988 30.86662-53.052 15.43331-58.83949-150.47475-58.83949-123.46647 0-143.72269 1.92916-149.51018 15.43331zm-10.6104-122.50189c-8.68123 4.82291-11.57498 23.14996-9.64581 50.15825l2.89374 42.4416 154.33308 2.89375c197.73926 3.85832 197.73926 3.85832 197.73926-50.15826 0-35.68952-3.85832-43.40617-21.22079-48.22908-33.76037-8.68124-309.63075-6.75208-324.09948 2.89374zm91.63527-245.00377c-4.82291 9.64582-19.29163 14.46873-49.19367 14.46873-36.65411 0-46.29992 4.82291-72.34363 33.76036-16.39789 19.29164-29.90204 44.37076-29.90204 55.94574 0 11.57499-8.68123 44.37077-19.29163 72.34364-31.8312 81.98945-21.2208 214.13715 17.36247 214.13715 13.50414 0 15.43331-25.07913 1.92916-33.76036-13.50414-7.71666-12.53956-81.02487 1.92917-120.57272 5.78749-18.32706 23.14996-50.15826 37.61869-71.37905 14.46872-22.18538 27.00829-48.22909 28.93745-58.83949 2.89374-14.46873 12.53956-20.25622 40.51243-22.18538 41.47702-3.85833 44.37076 5.78749 13.50415 37.61869-35.68953 36.6541-57.87491 74.27279-51.12284 90.67068 3.85833 11.57498 29.90204 14.46873 148.5456 14.46873 161.08515 0 175.55388-4.82291 151.43933-51.12283-7.71665-14.46873-27.00829-39.54786-42.4416-55.94575-23.14996-23.14996-29.90203-37.61869-31.83119-79.0957l-2.89375-50.15825-68.4853-2.89375c-54.98116-1.92916-70.41447 0-74.2728 12.53956zm-104.17483-227.641291c-25.07913 8.68123-51.12283 20.25622-57.87491 25.07912-7.71665 5.78749-29.90203 18.32706-50.15825 27.97288-29.90203 15.4333-94.52901 78.131121-145.65184 140.828931-12.53957 15.43331-31.8312 56.91033-59.80407 124.43105-24.11455 58.83949-24.11455 229.57046 0 285.5162 47.2645 107.06858 62.69781 130.21854 125.39563 193.88094 64.62697 63.66237 92.59985 81.98947 198.70384 125.39567 59.80407 25.0791 240.18086 25.0791 300.94951 0 98.38734-41.4771 173.62472-95.49364 223.78297-162.04978 27.97283-36.65411 38.58323-54.98116 76.20193-128.28938 16.3979-30.86661 34.725-131.18311 34.725-183.27053 0-54.98116-22.1854-157.22683-36.6541-171.69555-5.7875-5.78749-10.6104-16.39789-10.6104-24.11455 0-36.65411-173.62475-214.13715-209.31428-214.13715-4.82291 0-13.50414-4.82291-19.29163-10.6104-6.75208-6.75207-34.72495-19.29163-62.69782-28.93745-67.52072-24.11455-243.0746-24.11455-307.70158-.000001zm78.13112 54.01658c0 7.71665-6.75207 14.46872-14.46872 14.46872-7.71666 0-14.46873 6.75208-14.46873 14.468731 0 16.39789 20.25622 19.29163 34.72494 4.82291 9.64582-9.645821 84.8832-30.866621 151.43934-42.441601 20.25622-3.85833 51.12283-3.85833 67.52072 0 27.00829 5.78749 28.93746 7.71666 11.57498 14.46873-10.61039 3.85832-33.76036 7.71665-50.15825 7.71665-38.58327.96458-41.47701 17.362471-4.82291 25.079131 99.35193 21.2208 169.76639 41.47701 172.66014 50.15825 1.92916 5.78749-8.68124 13.50414-23.14996 17.36247l-27.00829 7.71665 33.76036 13.50415c32.79578 14.46873 154.33307 130.21854 154.33307 147.58101 0 5.78749-6.7521 9.64582-14.4687 9.64582-7.71667 0-14.46874-4.82291-14.46874-9.64582 0-5.78749-6.75207-9.64582-14.46873-9.64582-16.39789 0-20.25621 24.11455-4.82291 33.76036 16.39789 9.64582 48.22908 93.56443 48.22908 126.36021 0 17.36248-5.7875 35.68953-13.5041 39.54786-11.57501 6.75207-22.18541 46.29992-42.44163 161.08515-7.71665 43.40618-30.86662 59.80407-30.86662 21.2208 0-27.97287-17.36247-43.40618-24.11454-21.2208-12.53956 38.58327-22.18538 55.94574-67.52072 116.71439-34.72495 46.29993-62.69782 71.37906-80.06029 72.34366-8.68124 0-6.75207-8.6813 6.75207-27.97289 19.29164-27.00829 26.04371-49.19367 14.46873-49.19367-2.89375 0-19.29164 10.6104-35.68953 22.18538-76.20196 55.94578-161.08515 82.95398-161.08515 50.15828 0-11.57501-13.50415-14.46876-66.55614-14.46876-111.89149 0-163.9789-18.32705-94.52902-33.76036l30.86662-6.75207-28.93745-10.6104c-15.43331-4.82291-34.72495-15.43331-41.47702-23.14996-6.75207-6.75208-19.29163-12.53957-27.97287-12.53957-35.68952 0-178.44763-117.67897-161.08515-133.11228 3.85832-3.85833 8.68123-.96458 10.6104 4.82291 2.89374 6.75207 8.68123 12.53956 14.46872 12.53956 4.82291 0 15.43331 6.75207 23.14996 14.46873 16.39789 16.39789 42.4416 19.29163 42.4416 5.78749 0-4.82291-17.36247-27.97287-38.58327-50.15825-21.2208-23.14997-38.58327-46.29993-38.58327-53.052 0-5.78749-6.75207-16.39789-14.46873-23.14996-18.32705-15.43331-19.29163-57.87491-.96458-57.87491 6.75207 0 15.43331 8.68124 18.32706 20.25622 2.89374 11.57498 9.64581 17.36247 15.4333 13.50414 6.75208-3.85832 5.78749-16.39789-3.85832-40.51243-9.64582-22.18538-14.46873-64.62698-13.50415-122.50188.96458-119.60814 11.57498-143.72269 27.97287-62.69782 10.6104 52.08742 13.50415 57.87491 20.25622 37.61869 3.85833-13.50415 7.71665-37.61869 8.68124-53.052 0-16.39789 11.57498-48.22909 24.11454-72.34363s27.97287-54.01658 33.76036-66.55614c7.71666-18.32706 12.53957-21.2208 22.18538-11.57498 8.68124 8.68123 8.68124 15.43331-.96458 29.90203-5.78749 10.6104-11.57498 27.00829-11.57498 35.68953.96458 16.39789.96458 16.39789 10.6104 0 25.07913-42.4416 145.65185-149.51018 170.73097-150.47476 5.78749-.96458 11.57498 5.78749 11.57498 13.504149zm400.30143 110.926901c2.89375 4.82291-2.89374 9.64582-14.46872 9.64582s-17.36247-4.82291-14.46873-9.64582c2.89375-5.78749 9.64582-9.64582 14.46873-9.64582s11.57498 3.85833 14.46872 9.64582zm108.03316 411.87641c-2.8937 9.64582-4.8229 1.92917-4.8229-16.39789 0-18.32705 1.9292-26.04371 4.8229-17.36247 1.9292 9.64582 1.9292 25.07913 0 33.76036zm-674.24265 231.49963c-9.64582 1.92916-25.07913 1.92916-33.76036 0-9.64582-2.89375-1.92917-4.82291 16.39789-4.82291 18.32705 0 26.04371 1.92916 17.36247 4.82291z" style="stroke-width:.964582"/></svg>