<svg height="960" style="" width="1200" xmlns="http://www.w3.org/2000/svg"><path d="m640.70442 766.53365c-1.8294 28.8133 1.8294 77.2926 7.775 106.5632 16.4647 80.4941 18.2941 83.6956 47.5647 76.8353 30.1852-6.8603 73.1764-20.1235 93.7573-28.8132l18.2941-7.775-12.3485-10.0618c-6.403-5.0309-23.7824-17.8368-37.9603-27.8985-28.8132-20.1235-85.525-78.2073-99.7029-101.9897-9.6044-16.0073-16.4647-18.7514-17.3794-6.8603zm-98.7882 6.8603c-14.1779 23.7824-70.8897 81.8662-99.7029 101.9897-14.1779 10.0617-31.5573 22.8676-37.9603 27.8985l-12.3485 10.0618 18.2941 7.775c20.5809 8.6897 63.5721 21.9529 93.7573 28.8132 29.2706 6.8603 31.1 3.6588 47.5647-76.8353 5.9456-29.2706 9.6044-77.7499 7.775-106.5632-.9147-11.8911-7.775-9.147-17.3794 6.8603zm96.0441-135.3764c-1.3721 3.6588-1.3721 20.1235 0 35.6735 2.2867 25.6118 5.9456 33.3868 30.1853 69.5176 32.0146 48.0221 65.4014 84.1529 103.3617 112.0515 36.5882 26.9838 53.9676 36.1308 67.6882 36.1308 11.8911 0 73.6337-42.9911 94.2146-65.4014l10.9765-12.3485-20.1235-9.1471c-10.9765-5.0309-22.4103-9.147-25.6118-9.147-2.7441 0-10.9764-3.2015-18.2941-6.8603-6.8603-3.2015-21.9529-10.5191-33.3867-16.0074-22.4103-10.5191-24.2397-11.4338-70.8897-40.7044-39.7897-25.1544-75.4632-52.5955-104.7338-80.0367-23.7823-22.8676-28.8132-24.697-33.3867-13.7206zm-100.1603 4.1162c-15.55 18.2941-70.4323 61.7426-109.3073 86.4397-50.7661 32.472-52.1382 32.9294-75.4632 43.9058-11.43378 5.4883-26.52642 12.8059-33.38671 16.0074-7.31764 3.6588-15.54999 6.8603-18.29411 6.8603-3.20146 0-14.63528 4.1161-25.61175 9.147l-20.12352 9.1471 10.97647 12.3485c20.58087 22.4103 82.32349 65.4014 94.21462 65.4014 13.7206 0 31.5574-9.6044 67.6882-36.1308 43.9059-32.9294 72.7191-64.9441 116.1676-130.3456 13.2633-20.1235 15.0927-26.5264 15.55-57.169.9147-38.4177-5.0309-45.7353-22.4103-25.6118zm100.6176-113.8808c-1.8294 6.4029-1.8294 22.4103-.4573 35.2161 3.2014 26.5265 7.775 32.0147 67.2308 84.1529 47.1074 41.6191 92.3853 71.8044 148.1823 98.7882 59.9132 29.2706 72.2617 34.3015 95.5867 37.5029l20.5809 3.2015 18.2941-24.697c10.0618-13.2633 23.78228-34.3015 30.18528-46.65 6.4029-12.3485 14.1779-25.1544 17.3794-29.2706 8.2323-9.6044-3.2015-16.4647-40.70438-22.8676-48.9368-9.1471-90.0985-20.5809-159.1588-45.2779-46.1926-16.4647-123.4852-58.0838-161.9028-86.8971-24.2397-18.2941-31.5574-18.7514-35.2162-3.2014zm-112.0514 3.2014c-38.4176 28.8133-115.7102 70.4324-161.9028 86.8971-69.97501 24.697-111.5941 36.5882-158.70143 44.8205-36.58822 5.9456-49.39409 13.7206-41.16174 23.325 3.20147 4.1162 10.97646 16.9221 17.3794 29.2706s20.12352 33.3867 30.18528 46.65l18.29411 24.697 20.58087-3.2015c23.32499-3.2014 35.21616-8.2323 97.41612-37.9602 54.42499-26.5265 99.24549-56.7118 147.72489-99.2456 57.6265-50.7661 62.6574-57.1691 65.8588-83.2382 3.2015-27.4411-.9147-47.1073-9.6044-47.1073-3.2015 0-15.0926 6.8603-26.0691 15.0926zm146.8102-32.472c0 5.0309 45.278 34.3015 96.0441 62.2 24.2397 13.2632 92.3852 42.0764 98.7882 42.0764 3.6588 0 12.8059 2.7441 21.0382 6.403 32.4721 13.2632 123.48518 34.7588 148.18228 34.7588 12.3485 0 14.6353-2.2868 21.0382-21.953 10.9765-31.5573 22.8676-96.9587 21.0382-112.9661l-1.372-13.7206-202.14988-1.372c-160.5308-.9147-202.6073 0-202.6073 4.5735zm-550.19527-2.2868c-8.23235 8.2324 0 65.4015 18.29411 124.4l7.77499 24.2397 22.86764-2.2868c95.12936-9.6044 231.87783-59.9132 320.14693-117.997 14.6352-10.0617 28.3558-17.8367 30.6426-17.8367s4.1162-3.2015 4.1162-6.8603c0-5.9456-25.1544-6.8603-200.32052-6.8603-110.222 0-202.14989 1.372-203.52195 3.2014zm469.70127-258.4042c-2.2868 3.2014-15.55 29.7279-30.1853 58.5411-27.4412 55.797-27.4412 65.8588.9147 45.7353 7.3176-5.4883 15.55-8.2324 18.2941-6.8603 2.7441 1.8294 4.5735 87.8117 4.5735 246.0557 0 253.3734-1.372 273.9543-21.0382 345.3013-3.6588 13.2633-5.4882 26.0691-4.1162 28.3559 4.1162 6.4029 74.0912 5.9456 78.2073-.4573 1.3721-2.7442 0-15.55-4.1161-28.8133-20.1236-66.3161-21.4956-91.9279-21.4956-344.8439 0-136.7485 1.8294-243.769 4.1162-245.1411 2.2867-1.372 13.7205 2.7442 25.1544 9.1471 11.4338 6.4029 21.0382 10.0617 21.0382 7.775-.4574-8.2324-57.6265-117.5397-62.6573-118.9117-2.7442-.9147-6.8603.9147-8.6897 4.1162zm-79.5794-230.9631609c-78.6647 17.8367599-145.4382 46.6499799-196.66168 84.6102499-61.74261 45.277921-120.28376 117.539651-151.84109 186.599911-24.69705 54.425-44.82057 128.9735-44.82057 166.9337v20.5809h58.54115c55.33967 0 59.45585-.4573 68.14555-10.5191 13.26323-14.1779 21.03822-30.1853 24.69705-51.2235 3.65882-20.1235 16.92205-56.2544 28.35586-77.75 4.11618-7.775 9.14706-17.8367 11.89117-22.8676 14.17794-29.2706 79.57936-94.67202 114.79556-114.33818 57.1691-32.01469 107.9352-45.27792 173.794-45.27792 59.9132 0 109.7646 11.43382 153.2132 35.21616 7.775 4.11617 17.8367 9.14705 22.8676 11.89117 28.8132 13.72058 95.5867 80.49407 113.4235 113.42347 21.0382 38.4176 34.7588 73.1764 39.3323 99.7029 3.6588 21.0382 11.4338 36.5882 24.697 51.2235 8.6897 10.0618 12.8059 10.5191 68.14558 10.5191h58.5411v-17.3794c0-21.4956-14.1779-90.0985-24.697-122.1132-66.31608-195.28958-252.91608-327.9218609-458.26738-326.54980094-30.6426 0-67.2309 3.20147004-84.1529 7.31764004z" style="stroke-width:.457353"/></svg>