<svg height="960" style="" width="2150" xmlns="http://www.w3.org/2000/svg"><path d="m1959.086.00212516c-14.5075.0635-29.9515 1.74570004-37.2963 4.35949004-41.6779 14.7877098-84.6162 30.6696198-101.6571 37.3472998-40.7189 15.72362-49.765 18.70718-65.6074 21.84121-8.8014 1.74113-21.0693 3.39369-27.0792 3.59768-6.0099.20398-14.3322.79573-18.5424 1.20651-3.8851.27611-9.0557-.24742-11.1248-1.10445-2.069-.85703-9.6338-2.10419-16.698-2.60622-12.5585-.89251-27.1748-7.2173-34.6171-14.60941-2.5125-2.3874-4.7327-2.2283-7.9608 1.01333-2.6173 2.41728-7.892 6.69662-12.0397 9.55735-9.4611 6.58526-20.4447 16.846767-22.0635 20.754977-3.809 9.19579 1.4539 28.347438 8.7153 31.624548 2.0691.85703 4.3942 3.7018 5.2416 6.20754.8475 2.50574 2.7099 5.16142 4.549 5.92323 5.0577 2.09496 9.6653 18.27985 6.9038 24.94679-1.4284 3.44842-1.7095 7.37457-.8457 8.54038 1.0937 1.26104 1.0644 3.93827.3026 5.77742-1.7141 4.13811-12.2923-.23971-23.4523-9.71044-18.5235-15.75281-32.3938-22.57633-74.4577-36.76773-24.1159-8.10374-32.4635-9.4073-56.083-8.95592-4.8046-.10479-12.9417.025-18.3966.18955-28.654.25136-28.002-.0179-34.5005 13.72001-5.7366 11.89874-6.1586 12.26344-13.1113 10.19159-3.7735-1.29372-13.7296-3.26105-21.9432-4.23921-20.3913-2.79025-42.0966-11.51316-51.5521-20.54721-10.9138-10.715428-20.1003-19.098338-28.2092-24.881188-3.6619-2.86353-7.4991-6.60788-8.3071-8.5586s-4.2392-4.71765-7.4578-6.050797c-3.2185-1.33316-7.2472-4.61855-9.0142-7.50518-1.8623-2.65675-5.6002-6.63054-8.5331-8.65338-5.731-3.72056-15.1484-12.19743-26.0622-22.91286-5.7541-5.6155-8.744-6.85395-15.9034-7.12609-4.7094-.33469-15.2222-2.26492-23.055-4.16266-20.779-5.10554-23.8702-1.54042-19.0345 22.54835 1.2582 6.71596 2.7508 16.76153 3.2405 22.08178.6243 5.64537 3.2712 16.167947 6.0435 23.780377 2.8675 7.38254 5.313 15.130688 5.566 17.120848.253 1.99017-7.1193 19.13487-16.1331 38.29502-9.2436 19.06492-16.5584 35.42761-16.2496 36.63286-.017 1.33993 5.2167 4.31489 11.1939 6.79075 10.8051 4.4756 11.0741 5.12792 16.3955 23.49242 2.9695 10.38752 7.9803 27.54665 10.9498 37.93415 13.1294 45.03113 20.2631 70.0702 25.0853 87.68924 6.7701 24.62068 18.0681 53.27057 27.9248 71.08964 8.4543 15.35277 23.406 43.6335 53.6007 102.73606l18.8158 37.15046-4.7605 11.49651-4.8589 11.72252 18.506 6.05081c10.0365 3.07988 26.6987 8.36489 36.8698 11.7699l18.6007 5.81752 9.1164 21.55325c5.0779 11.79954 13.5881 26.36959 18.8267 32.57956 5.2386 6.20996 9.6937 12.36139 9.9073 13.79656.2135 1.43514 3.2801 3.7836 6.9584 5.30721 6.8968 2.85675 10.6245.36065 14.624-9.29491 1.2379-2.98863 6.9803-11.65205 12.3822-18.84134 8.1703-10.62136 10.0197-14.43335 9.1492-18.83402-.3319-3.10019-.2525-9.80122.5978-15.10513 1.7957-10.83774 2.5562-23.72232 2.6244-36.89167-.125-4.89991.8767-11.21642 2.0194-13.97516 1.2379-2.98863 1.6497-6.59012 1.0716-8.44561-.9032-1.72083-.6463-7.54057.069-13.1696 1.891-11.06763 2.647-23.94805 2.8103-37.3473-.1386-11.36965 7.1009-28.84323 18.8013-44.73584 4.8469-7.14985 11.7552-16.67599 14.7698-21.35277 5.5529-8.20409 5.8772-8.34179 16.7381-4.6511 8.6965 3.06355 12.8101 2.88475 18.393-.18954 3.862-2.17105 7.7417-5.68399 8.5987-7.75305.9523-2.29895 4.0864-5.30803 6.973-7.07506 2.7914-1.53715 6.0176-4.78002 6.8746-6.84906.857-2.06906 4.1424-6.09409 7.5052-9.01061 15.9731-13.85342 20.859-20.44963 27.3343-36.08245 3.809-9.19579 10.7681-22.7419 15.3457-30.54198 9.0042-14.58536 14.3632-33.37528 17.3141-59.35618.9223-7.42875 2.9132-15.49274 4.611-18.29092 2.5941-4.3122 4.0292-4.52606 10.1806-1.17006 10.099 5.52984 22.8376 37.20144 18.7429 47.08691-.7618 1.83915.742 7.31162 3.317 12.14898 6.9961 13.67139 15.7475 15.95081 42.1515 10.72742 19.8228-3.64003 22.5197-4.94924 22.7197-9.98383.8068-16.90343 25.8042-54.49113 47.7248-70.9985 1.9112-1.36303 6.2091-5.23749 9.5719-8.154 10.0488-9.30454 53.8729-33.17046 84.4342-45.82936 2.2758-.94268 14.456-6.94209 27.1521-13.53411 12.6008-6.36213 28.6824-13.97497 35.3753-17.12814 12.4103-5.90234 21.8527-11.14718 30.0133-17.19376 16.9717-12.36249 37.1752-35.776008 42.6983-49.109908 3.1424-7.58652 2.8343-8.79283-2.2235-10.88779-11.0349-4.570827-5.2771-6.763397-246.9856 97.545478-11.8948 5.30788-22.3396 9.06344-23.2592 8.68254-3.2185-1.33316-17.8817-38.11283-16.5485-41.33135.857-2.06905 22.4262-12.52525 48.2059-23.39401 25.5498-10.96398 71.0276-30.372868 100.6693-43.412678 29.7764-12.714677 62.5739-26.874077 72.9778-31.183497 27.5004-11.772 36.0263-17.39621 39.3593-25.44253 2.8567-6.8968398 2.5865-7.5478698-5.5551-10.6508598-4.9231-1.76984-14.7835-3.97026004-22.1728-4.33763004-4.2932-.36427-9.0264-.520549-13.8622-.49937zm-872.398 226.71551484c-3.5804.076-6.8801 1.36283-12.6702 3.67786l-12.9109 5.15412-8.3799 20.2301c-7.2372 17.472-9.4498 20.86613-17.5547 26.1278-10.3412 6.75936-12.2302 10.01645-11.9011 20.9263.1809 4.115 16.7777 49.23651 37.1359 100.22459 81.5509 205.61739 74.7048 190.9297 91.6477 192.29158 5.4944.39048 11.0042-.55727 12.3604-1.88085 1.8719-1.91804 8.0018-.45735 23.6346 6.018l20.919 8.66429 12.4916-4.79324 12.488-4.78961 7.9025-19.0819c7.1419-17.24211 9.1671-20.17559 20.2702-28.77412 13.6252-10.78591 14.631-13.87065 9.8089-31.48969-3.1042-10.71262-80.0918-203.93582-102.0034-256.37537-10.5995-25.12948-16.9653-29.92059-32.5942-25.35141-7.7471 2.44714-12.0337 1.75009-29.5614-4.70213-11.4111-4.27216-16.4797-6.17402-21.083-6.07632zm-171.23766 73.20377c-13.98533.3969-23.45188 9.60941-33.30856 29.5651-7.20446 14.79214-11.43983 21.12029-17.91913 25.70861-16.3608 11.53815-15.7775 16.62719 7.06049 72.68252 7.00279 16.90625 29.32508 73.55763 49.99202 125.75097s39.10197 98.07215 41.27302 101.93414c4.51621 8.60413 20.97437 15.68997 29.23705 12.64837 4.45645-1.65547 10.35247-.28742 22.99667 4.94999 19.3111 7.99893 29.1127 7.74811 44.426-1.26119 8.1443-4.70666 10.0705-7.40971 17.1172-24.42191 6.1896-14.94316 9.2991-19.84987 13.946-21.96514 3.7667-1.94115 7.2428-6.42899 10.29-13.78562 5.4278-13.10401 9.1257-1.87578-53.6043-159.29648-59.01492-147.53243-53.47502-135.54122-64.73987-140.20727-5.84259-2.15075-12.0267-2.82849-16.61782-1.49814-5.66173 1.96427-10.64359.9809-23.74758-4.44697-10.5105-4.35358-19.07553-6.56489-26.40119-6.35698zm-167.06408 72.4711c-6.32604.0732-11.85414 2.36392-19.11836 6.89647-8.33479 5.16644-10.87167 8.69412-18.60804 25.42066-6.87933 14.65747-10.60109 20.3855-14.92287 22.36608-3.99668 1.84593-7.56493 6.56463-10.32647 13.23159-4.18991 10.11536-3.88093 11.31949 8.8174 42.4358 6.94703 17.69115 29.63492 74.7605 50.30186 126.95384 50.51448 128.38978 49.07211 125.36833 60.10706 129.93914 5.51746 2.28542 12.0267 2.82847 16.61784 1.49812 6.1215-1.7738 11.32987-.69474 23.51429 4.3522 17.93177 7.42759 27.12008 8.00145 39.76031 2.19434 10.72897-4.4441 12.65528-7.1453 23.38308-30.44355 5.69718-12.45376 9.65019-18.08938 13.87675-19.84007 3.44165-1.8065 7.33618-6.65992 9.90727-12.86707 3.90424-9.42569 3.55385-11.18415-15.97995-61.56144-11.1612-28.32491-36.44497-92.12696-56.58956-141.6799-31.80506-78.62329-37.11111-90.51754-43.95217-94.15921-4.08232-2.49898-10.25212-4.51617-13.25708-4.41418-3.23486.007-7.07861.83864-8.56954 1.83712-1.26104 1.09369-10.24518-1.27996-21.05022-5.75556-10.46021-4.33276-17.58557-6.47742-23.9116-6.40438zm-171.42359 70.93655-13.8075 6.67047-13.89861 6.90009-8.28524 20.00045c-6.18965 14.94316-9.5869 20.53897-12.97277 21.56053-5.24136 1.5997-13.42732 13.56266-14.54014 21.45119-1.00127 6.31873-.42142 8.17408 54.76704 147.38805 50.07104 126.85943 51.95401 131.41151 57.04156 138.63627 5.7609 8.85037 11.69932 10.77065 23.79132 8.23784 8.24633-1.70169 14.2395-.56703 30.94293 5.2744 20.61163 7.46027 20.93628 7.32726 32.83106 2.01938 11.56967-5.17321 12.08571-5.76742 21.48035-25.84713 8.25194-17.321 10.97978-21.30756 18.14876-25.61021 15.96357-9.27864 15.79911-14.73468-.23328-56.65883-39.24172-101.63471-97.11468-244.11766-101.48944-249.16182-6.83149-8.21647-12.08135-9.85188-24.49846-7.18442-9.4516 2.01048-13.41337 1.17769-30.19569-5.77378zm-196.82968 3.67786c-.38075-.0319-.72797-.0293-1.04612.007-4.95569.91001-15.28795 10.90548-20.99191 20.12438-6.60044 10.73292-14.0243 39.70908-21.37465 85.41472-4.02818 23.37994-17.49484 55.23913-30.43989 70.8855-10.97801 13.49845-15.73625 17.18418-18.09774 13.78199-.8638-1.16582-5.46456-3.06884-10.21346-3.95855-10.32216-2.39021-17.6945 3.71181-14.88279 11.87927 1.1168 3.15597.41492 7.44489-1.5127 10.14785-10.38354 14.014-22.01241 27.7821-33.14819 39.06046-3.55321 3.37631-6.92927 7.63072-7.69108 9.46987-.7618 1.83916-4.14151 6.09722-7.69472 9.47351-11.97647 12.00752-18.54547 20.0582-24.66978 29.64166-3.30021 5.36646-9.61374 15.41288-14.13554 22.42806-4.52181 7.01517-14.13745 22.42172-21.4439 34.20889-7.30645 11.78718-16.92209 27.19737-21.4439 34.21254-4.5218 7.01518-9.51819 15.18174-10.85134 18.40028-2.99144 6.57172-.55884 7.84784 24.01002 12.90717 31.11747 6.1558 42.68598 8.79378 58.06582 13.27895 8.98223 2.37388 17.59891 4.32544 19.12928 3.88199 1.76027-.34822 10.01315 1.18436 18.44037 3.59767 14.78538 3.9696 28.16749 5.47305 39.36302 4.45427 3.10019-.33188 8.92059-.076 13.2097.62331 4.05922.60402 14.26094 1.33082 22.30048 1.42886 8.03956.098 17.45856.76717 20.96276 1.41064 3.50419.64347 8.96085.47795 12.15628-.0838 7.69131-1.66225 16.42783 1.95666 16.22781 6.99122.1577 2.22006 2.47896 5.06803 5.46759 6.30597 6.43705 2.6663 13.06581-2.93556 18.01755-14.89009 3.71378-8.96588 10.295-10.55119 26.22984-6.10547 6.26295 1.78617 16.77842 3.71575 23.61272 4.12256 10.8935 1.01085 13.42273 2.06006 22.89462 9.7542 11.21582 8.68581 28.67488 20.49774 46.88279 31.81044 5.96093 3.81578 13.38279 9.31072 16.94953 12.40414 7.7674 7.25744 32.57105 15.64779 46.75519 15.86695 9.83927.30481 10.91217-.32987 15.50611-9.46986 4.4987-8.91012 4.33932-11.12721-1.12633-25.24206l-5.77378-15.31972 12.18908-29.42658c6.76102-16.32252 12.16391-31.32199 12.33124-33.67672.12784-2.90974-2.8425-5.48997-9.96923-8.44197l-9.88541-4.0934-16.14034-55.97355c-8.86903-30.60752-16.71444-57.82733-17.56189-60.33306-.84746-2.50574-3.72284-13.12314-6.69234-23.51064-2.87426-10.6174-7.80212-23.43212-10.97164-28.78505-3.16951-5.35293-8.2235-15.25746-11.28146-22.18021-3.15318-6.69286-8.11196-16.82727-11.28146-22.18018-7.5116-13.07693-40.56733-76.32985-44.4333-85.20332-1.75071-4.22656-1.85843-10.46521-.0328-16.17314l3.11653-9.48081-29.63799-13.62524-29.64164-13.62524-6.48092-14.26312c-3.78708-7.76343-7.39845-14.64768-8.31803-15.02858-7.94869-4.70648-12.28671-6.67982-14.95205-6.90375z" style="stroke-width:1.86627"/></svg>