<svg height="960" style="" width="1440" xmlns="http://www.w3.org/2000/svg"><path d="m775.07339 496.46909c-32.5195 23.0784-40.3871 37.2401-41.9607 75.0048-1.5735 41.4362-1.5735 41.9607 15.7353 41.9607 29.3725 0 73.4313-32.5196 73.4313-54.549 0-4.196 7.3431-15.2107 15.7352-24.1274 17.3088-17.3088 20.4559-38.8136 7.3432-44.0587-16.7843-6.2941-57.696-3.1471-70.2843 5.7696zm-185.1516-5.2451c-2.0981 1.5735-3.6716 11.5392-3.6716 20.9803 0 37.2402 50.3529 91.2646 92.8381 99.1322 28.3235 5.2451 33.0441 1.0491 33.0441-33.044 0-36.7157-11.5392-57.1715-47.2058-81.8234-12.5883-8.9167-67.6617-12.5883-75.0048-5.2451zm123.2596-31.4706c-3.6716 1.5736-8.9167 7.3432-12.0637 13.1128-4.1961 7.8676-3.6716 12.5882 3.6715 20.4558 4.7206 5.2451 11.5392 9.9657 15.2108 9.9657s10.4902-4.7206 15.2108-9.9657c7.3431-7.8676 7.8676-12.5882 3.6715-20.4558-6.2941-11.5392-15.7352-16.2598-25.7009-13.1128zm-40.3872-100.1812c-38.8137 10.4902-48.2548 16.7843-68.7107 47.7303-13.6372 20.4559-17.8333 32.5196-16.7843 45.1078 1.5735 15.2108 3.1471 16.7843 22.5539 18.3578 31.4705 2.6226 51.4019-2.6225 68.7107-18.8823 24.1274-22.0294 33.5686-38.2892 33.5686-58.745 0-21.5049-5.2451-42.4853-9.9657-41.4362-1.5735.5245-14.6863 4.196-29.3725 7.8676zm58.745-9.9657c-2.098 1.5736-3.6716 15.7353-3.6716 30.4216 0 22.0293 3.1471 31.4705 15.7353 49.3038 22.5539 30.4215 44.0588 42.4852 77.6273 42.4852 33.5686 0 36.7157-5.2451 22.0294-38.2891-20.9803-46.6813-93.8871-101.7548-111.7204-83.9215zm-43.0097-451.07774c-5.2451 11.014692-12.0637 26.749962-15.7353 35.666612-12.5882 30.42152-39.3382 134.798832-39.3382 154.205632 0 16.784296-16.2598 52.975396-23.6029 52.975396-3.1471 0-16.2598 7.3432-28.3235 15.7353-18.3578 13.6372-23.0784 14.6863-31.4705 9.4412-11.5392-7.3432-29.897 0-52.9754 20.9803-7.3432 6.2941-16.7843 13.1128-21.5049 14.1618-8.9167 3.147-39.8627-15.2108-79.7254-46.1568-11.0147-8.3922-21.5049-14.1618-23.0784-12.0637-2.6225 2.6225 20.4559 37.2401 29.897 45.1078 9.4412 7.8676 31.4706 41.4362 31.4706 48.2548 0 4.1961-7.8677 18.3578-16.7843 30.946-20.9804 28.3235-29.3725 41.4362-33.5686 51.9264-3.6716 8.9167-17.3088 40.3872-23.0784 52.4509-2.098 4.7206-18.3578 11.0147-37.2401 14.6863-56.1225 11.5392-102.8038 25.7009-150.53412 46.1568-9.44116 4.196-19.93134 7.3431-23.60291 7.3431-3.67156.5245-11.5392 4.7206-18.35781 10.4902-12.58822 10.4902-11.5392 20.9803 1.57352 20.9803 13.63724 0 13.63724 10.4902.52451 15.7353-18.35781 6.8186-17.3088 12.5882 4.72058 22.5539 49.30385 23.6029 82.34792 34.0931 152.10763 48.2548 73.4313 15.2108 67.1371 11.0147 83.9214 55.0735 4.7206 13.1127 11.0147 27.2744 13.6373 31.4705 2.6225 4.1961 6.2941 11.5392 7.8676 15.7353 2.098 4.1961 13.1127 19.4068 24.6519 33.0441 24.1274 29.897 23.6029 32.5195-14.6862 82.3479-13.1127 16.7843-23.6029 33.044-23.6029 35.6666 0 2.6225-3.6716 6.8186-8.3922 8.3921-4.196 1.5736-6.2941 5.2451-4.7206 8.3922 2.6226 4.196 73.4313-44.5833 95.9852-66.6127 9.9657-9.9656 12.5882-8.9166 46.6813 13.1128 37.7647 24.6519 72.9068 43.0097 82.8724 43.0097 15.7353 0 26.75 19.4068 33.5686 58.2205 6.8186 38.2892 15.7353 72.3822 29.897 110.6714 34.0931 93.88711 44.0588 108.04891 54.549 80.77441 6.2941-16.7843 9.4411-17.3088 15.7352-.5245 8.3922 22.5539 14.1618 16.7843 38.2892-39.3382 13.1127-30.94601 40.3872-136.89681 40.3872-157.35271 0-17.8333 15.7353-46.6813 27.2745-50.3529 13.1127-4.196 56.1224-32.5195 68.7106-45.1077 5.2451-5.2451 15.2108-13.1128 22.0294-17.8334 12.5882-8.3921 14.1618-7.8676 43.5343 11.5392 16.2598 11.5392 42.48521 29.8971 57.69601 40.9118 15.2107 11.0146 28.848 18.8823 30.946 17.3088 1.5735-2.0981-11.0147-22.0294-28.3235-44.0588-17.3088-22.5539-37.24011-50.3529-44.58331-61.8921-11.5392-18.8823-12.0637-22.5539-5.7696-35.6666 4.1961-7.8676 9.4412-14.1617 12.0638-14.1617 2.6225 0 5.245-5.2451 6.2941-11.5392 1.049-6.2941 4.72051-12.0637 8.39211-13.6373 9.9657-3.147 7.8676 23.6029-2.098 29.3725-5.24511 2.6226-7.34321 7.8677-5.24511 11.0147 8.39211 13.1128 30.94601-20.9803 53.49991-78.6763l9.4412-24.6519 45.1077-8.3922c63.4656-12.5882 109.6224-26.2254 161.5488-48.2548 9.4412-4.1961 19.9314-7.3432 23.6029-7.3432 3.6716-.5245 11.5392-4.7205 18.3578-10.4901 12.5883-10.4902 11.5392-20.9804-1.5735-20.9804-13.6372 0-13.6372-10.4902-.5245-15.7353 18.3578-6.8186 17.3088-12.5882-4.7206-23.0784-47.2058-22.5539-79.2008-33.044-152.1076-47.7303-89.1665-18.8823-86.0195-17.3088-100.7057-46.6813-7.3432-14.6862-24.652-42.4852-38.8137-61.8921l-26.22541-34.6176 9.4411-15.7352c18.35781-31.4706 56.64701-84.9705 60.84311-84.9705 2.098 0 3.6715-3.6716 3.6715-7.8676 0-4.1961-1.049-7.8677-2.6225-7.8677s-23.0784 15.2108-48.2548 34.0931c-24.65201 18.8824-47.20591 34.0931-49.82841 34.0931-2.6226 0-14.6863-7.8676-26.75-17.3088-34.6176-26.2254-49.3038-34.6176-87.593-48.2548-17.3088-6.2941-18.8823-8.3922-27.799-47.730296-16.7842-75.52934-24.6519-103.8528303-40.3872-143.715512-6.2941-15.73527-13.1127-33.56858-14.6862-39.33818-9.4412-28.323492-32.5196-43.009742-32.5196-20.980362 0 13.637232-10.4901 13.637232-15.7352.52451-6.8187-18.35782-12.5883-17.3088-23.6029 5.7696zm94.4116 314.70544c77.6273 25.7009 105.4263 46.1568 148.436 111.7204 43.0098 63.9901 44.0588 66.6127 51.4019 114.343 5.2451 35.1421 5.2451 50.3528-.5245 83.9214-7.8676 44.0588-18.8823 78.6764-27.2745 84.446-3.147 1.5735-7.3431 8.3921-8.9166 15.2107-3.1471 9.4412-5.7696 11.0147-11.0147 6.2941-7.3431-6.2941-18.3578-3.147-18.3578 5.2451 0 11.5392-59.794 73.4313-88.1175 90.7401-40.3872 25.1764-106.4754 37.7646-120.6371 23.6029-3.6716-3.6716-22.5539-6.8186-44.5833-7.3431-43.5342-.5245-65.0391-9.4412-120.1125-50.3529-40.9117-30.4215-60.8431-53.4999-82.8725-97.5587-17.3088-35.6666-21.5048-74.4803-7.8676-74.4803 9.9657 0 9.9657-19.4068 0-36.7156-4.1961-7.8676-7.3431-27.799-7.8676-48.7793 0-30.9461 2.6225-41.4362 19.4068-76.0538 28.848-59.2696 96.5097-123.2597 120.1126-114.343 4.196 1.5735 15.2107-1.5735 24.6519-7.3431 8.9166-5.7696 20.4558-12.0637 24.6519-13.6373 4.1961-1.5735 15.2108-6.2941 23.6029-10.4902 22.0294-9.9656 93.8871-9.4411 125.8822 1.5736z" style="stroke-width:.524509"/></svg>