<svg height="960" style="" width="1230" xmlns="http://www.w3.org/2000/svg"><path d="m613.13231 0c-14.24813 0-28.25969.864609-40.40406 2.490234v20.544437 275.793459 263.40454c0 12.1125-3.92212 24.05817-3.92212 36.17067.18547 21.51658 3.58789 41.47377 3.79761 61.38427.89251 13.6425 1.36964 27.37813 1.36964 41.27563 0 28.36875-1.916 56.33556-5.16725 80.49681-3.06001 14.75813-4.49687 30.19509-6.53686 44.76197l11.08154 12.07766c-.20407 5.89713-.31126 11.78785-.31126 17.7429 0 30.53625 2.81096 60.40261 7.71971 86.34886l25.02688-19.05028c-3.50624 8.415 8.43491 18.21857-3.48635 23.15919l1.43188-.56029c10.26376 23.205 2.29602 48.07744 6.59915 73.95994l20.48217-34.7388-3.67312-11.9531 15.81299-6.53686v-48.43505h4.10888l2.05446 24.40429c3.88874-6.375 7.59521-9.38071 7.59521-12.88696 3.6975-42.10688 9.40065-85.26212 9.40065-126.31712v-790.151386c0-3.920625-.9961-7.776501-.9961-13.322751h-45.38452c-2.19168-.030388-4.37707-.062263-6.59913-.062263zm109.01001 0c-2.6775 28.145625 3.07046 52.976749-.4358 77.0105-.5837 3.56372 1.98689 7.49251 2.17897 11.45508.85869 7.32094 1.30736 14.75257 1.30736 22.28759v2.36573c-.63751 11.28375-3.48633 22.58344-3.48633 33.86719-1.65748 23.205 0 46.64608 0 69.85108-1.02 58.33125 0 116.60772 0 174.93897v14.81687l3.73537 88.90138c0 3.28312-1.05834 6.36652-1.05834 9.64965v67.73437 19.54836c-.6375 9.62625-3.05054 19.2286-3.05054 28.88672.6056 20.55938 3.85984 41.10578 3.85984 61.63328v.49805c1.785 36.3375 13.06228 70.18827 30.81665 98.30202l.68481 1.2451c24.35249 40.8 59.10324 74.70403 101.97512 98.73778l42.33397-12.70018c-6.56624-7.17187-11.55516-11.49492-15.25266-16.43554-13.59469-16.99594-26.39839-34.7106-39.7815-55.46996-19.61963-37.15181-30.81665-79.46473-30.81665-124.44947v-1.80543c-2.25965-40.19613.23366-79.54056-.9961-120.52734-.15938-1.6575-.24903-3.32147-.24903-5.04272 0-21.5475 13.06429-40.02755 32.06178-48.1238h126.31712c14.37562-30.18562 36.96854-54.85537 50.73854-87.7185h-27.14356-132.85401c-.82241.0303-1.67057.0623-2.49022.0623-11.12439 0-21.38564-3.8957-29.32253-10.33445-10.55062-9.72188-17.1826-23.6677-17.1826-39.15895 0-6.94875 1.37809-13.62408 3.67309-19.36158l.0623-.31126c5.92875-17.1169 22.21289-29.38477 41.33789-29.38477 1.24312 0 2.49671.0289 3.54858.1245h114.79982c14.56688-29.99437 38.37904-54.00272 51.73464-88.71459h-26.0852-143.68654c-1.01379.0872-2.07067.12451-3.11282.12451-11.28475 0-21.61558-4.28857-29.32249-11.33057-3.64592-5.65518-6.70672-11.78241-9.27613-18.80127-10.90124-38.60063 6.14242-67.52669 42.89428-64.43481 27.92251 1.43437 55.02174 0 82.11549 0h87.90521l79.8743-127.93584h-388.28984zm-602.63671.06226 80.87035 128.49609h56.71508 115.42237c1.43439-.15937 2.89166-.24903 4.3579-.24903 12.33602 0 23.24467 6.01521 30.06958 15.37721l.0623.0623c6.58445 9.49617 10.45899 21.04642 10.45899 33.49366 0 9.02062-2.00414 17.54071-5.47852 24.84009l-.12451.24902c-6.27938 12.43125-19.16833 20.91797-34.05396 20.91797-2.4225 0-4.83853-.24007-6.9104-.62257h-150.28564-.37354c-7.20374.31875-14.24214 1.15747-20.17089 2.24122l54.59838 86.22436h116.85425.87158c23.67306 0 42.87701 19.04456 43.26784 42.64526v.31129c.26107 2.22787.43579 4.49973.43579 6.7859 0 14.12062-4.97598 27.03197-13.13599 37.10447-9.67152 7.31248-21.75014 11.64184-34.80102 11.64184-2.23125 0-4.40722-.0881-6.28785-.31126h-156.8848l55.84349 87.65625h99.79614c1.17938-.0637 2.3996-.0623 3.61085-.0623 17.16284 0 32.85123 6.22451 44.88647 16.43554 3.77507 6.96552 6.61517 14.51562 8.15552 23.03466-1.43437 59.73375 5.49147 119.69662-4.35791 179.04784l-.12451 1.24513c-5.51438 41.31-21.58285 79.23628-45.01098 110.4419-11.0925 13.77-22.60686 26.93836-35.5481 42.33399l41.08887 11.89087 1.36962-.62258c34.43248-17.94413 64.05644-43.82513 87.0337-75.88988 29.42062-39.6525 47.14012-88.52685 47.937-141.69432v-603.508311-59.516596zm493.81349 977.16794h2.86374v22.5989h-2.86374z" style="stroke-width:31.875"/></svg>