<svg height="960" style="" width="1707" xmlns="http://www.w3.org/2000/svg"><path d="m1178.8572 901.7941c-11.8866 18.4903 41.6032 118.2059 62.7349 118.2059 17.83 0 16.5092-11.2263-5.2829-53.4898-33.6788-65.3764-47.5465-81.2252-57.452-64.7161zm-178.95973 1.3208c-5.2829 14.5281 8.58483 42.2635 23.77323 46.2257 19.8111 5.283 23.7733-9.9055 9.2452-34.3391-12.547-21.7921-27.0751-26.4147-33.01843-11.8866zm-719.14065-209.3366c-34.9995 17.8299-62.73495 38.9617-62.73495 46.8861 0 11.8866 20.47141 10.5659 50.18796-3.3019 53.4898-24.4336 68.0179-40.9428 44.90502-50.1879-12.54699-4.6226-9.24515-5.9433-32.35803 6.6037zm-101.69665-228.4873c-48.86723 5.2829-68.67827 13.8677-53.4898 23.1128 11.88662 7.2641 200.09147 3.9623 207.35552-3.3018 3.9622-3.9622 2.64147-9.9055-2.64147-16.5092-9.24516-11.2262-63.39532-11.8866-151.22425-3.3018zm128.11137-132.0736c-7.26405 11.8866 4.62257 19.811 46.22575 30.3769 42.92392 11.2263 56.13127 9.2452 56.13127-9.9055 0-17.1696-1.9811-17.8299-53.4898-23.1129-31.03729-3.3018-45.56538-2.6415-48.86722 2.6415zm485.37043-124.8095c-12.547 7.9244-26.4147 19.1506-30.3769 24.4336-6.6037 9.2451-7.9245 8.5847-11.8867-3.3019-8.5848-27.0751-51.5087-25.7543-85.8478 3.3019-11.2263 8.5847-26.4147 18.4903-34.9995 21.7921s-17.1696 11.2263-19.1507 17.1696c-1.9811 6.6037-8.5847 22.4525-14.5281 34.9995-5.2829 12.547-13.8677 31.6976-18.4903 42.9239-9.9055 23.7732-36.3202 75.9423-56.7916 112.2625-12.547 22.4525-14.5281 34.9995-13.2074 81.8856.6604 43.5843-1.3207 58.1124-9.2451 67.3576-10.5659 11.2262-9.2452 13.8677 13.8677 33.6787 13.8677 11.8867 31.0373 27.0751 37.641 33.0184 6.6037 6.6037 16.5092 11.8867 21.7921 11.8867 4.6226 0 11.8867 3.9622 14.5281 9.2451 2.6415 5.2829 11.2263 9.9055 17.83 11.2263 7.264 1.3207 13.8677 6.6036 15.8488 10.5658 3.3018 11.2263-23.1129 11.2263-29.7166 0-2.6414-5.2829-9.9055-11.2262-15.1884-13.8677-27.0751-12.547-62.735-40.2824-85.1875-65.3764-5.2829-5.9433-14.5281-11.2263-20.4714-11.2263-11.2263.6604-39.6221 22.4525-39.6221 31.0373 0 11.8867 83.8668 85.1875 128.7718 112.2626 54.8105 33.0184 172.356 74.6215 210.6573 74.6215 25.094 0 35.6599-25.0939 20.4714-48.2068-10.5659-15.8488-9.9055-17.8299 2.6415-30.3769 7.9244-7.9244 13.8677-17.1696 13.8677-21.1318 0-13.8677 60.7539-78.5838 73.9612-78.5838 7.2641 0 24.4337-8.5848 37.641-18.4903 13.2074-9.9055 38.9617-25.094 56.7916-33.6787 56.79173-27.0751 73.30093-49.5276 98.39493-134.7151 11.8866-38.9617 9.2451-64.0557-5.9433-64.0557-6.6037 0-7.9245-14.5281-5.283-68.6782 3.3019-62.735 2.6415-69.3387-9.9055-81.8857-7.2641-7.264-21.7921-14.5281-32.358-15.8488-13.2074-1.3207-19.15073-5.9433-20.47143-17.1696-1.3208-9.2451-9.2452-17.8299-19.8111-21.7921-19.811-7.9244-71.3197-1.9811-77.9234 7.9244-2.6415 3.9622-9.9055 1.3207-19.1507-7.264-22.4525-21.1318-60.7538-23.7733-89.1496-5.9433zm95.093 86.5081c-5.283 16.5092-49.5276 77.9235-56.1313 77.9235-2.6415 0-5.9433 6.6036-8.5848 14.5281-2.6415 11.8866-5.2829 13.2073-11.2263 7.264-6.6036-6.6037-5.9433-10.5659 1.3208-19.811 5.2829-6.6037 15.1884-23.7733 22.4525-38.3014 15.8488-32.358 35.6599-56.1312 47.5465-56.1312 6.6037 0 7.9244 4.6225 4.6226 14.528zm-228.4873 446.4087c1.9811 5.9434-1.9811 8.5848-12.547 6.6037-7.9244-.6603-15.8489-5.9433-17.83-10.5659-1.9811-5.9433 1.9811-8.5847 12.547-6.6036 7.9244.6603 15.8489 5.9433 17.83 10.5658zm46.2257 19.8111c1.9811 6.6037-2.6415 8.5848-15.8488 6.6037-9.9055-1.3208-19.1507-5.9433-21.1318-10.5659-1.9811-6.6037 2.6415-8.5848 15.8488-6.6037 9.9056 1.3207 19.1507 5.9433 21.1318 10.5659zm62.735 17.8299c-2.6415 9.9055-43.5843 7.9244-46.8862-1.9811-1.9811-6.6037 3.9622-8.5848 22.4526-6.6037 14.528 1.3208 25.0939 4.6226 24.4336 8.5848zm-513.76626-795.082919c-4.62258 7.26405 27.07508 40.28244 72.64047 76.602719 151.22429 118.8662 148.58279 114.904 119.52659 170.3749-9.2452 17.1695-15.1885 33.6787-13.2074 36.9806 1.9811 3.3018 21.7922-11.2263 43.5843-33.0184 33.0184-32.3581 45.5654-39.6221 69.3386-43.5843 29.7166-3.9622 29.7166-4.6226 25.7544-26.4147-3.9622-19.8111-1.9811-23.7733 23.7732-44.905 15.8489-11.8867 33.0184-24.4336 38.3014-27.0751 5.2829-2.6415 17.1695-8.5848 26.4147-13.8677 14.5281-8.5848 17.8299-7.9245 29.7166 3.3018 21.1317 19.811 34.9994 16.5092 37.6409-7.9244 1.3208-17.1696 5.9433-22.4525 25.094-29.0562 35.6599-12.546999 128.1114-10.565899 182.2615 3.3018 42.924 11.8867 58.1124 17.83 88.48933 34.9995 5.283 2.6415 16.5092 8.5848 25.094 11.8867 17.1696 7.264 105.6589 93.1118 122.8284 118.8662 15.1885 23.1128 13.2074 34.3391-9.2451 49.5276-35.6599 23.7732-21.1318 36.3202 25.094 22.4525 5.2829-1.3208 15.1884 5.2829 23.1129 15.8488l13.8677 17.8299-21.1318 19.8111c-25.7543 23.1128-27.7354 35.6598-3.9622 31.0373 25.7543-4.6226 36.3202 11.2262 34.3391 50.1879l-1.9811 33.6788-33.0184 7.264c-41.6031 8.5848-45.5654 25.094-6.6036 29.7166 24.4336 3.3018 26.4147 5.2829 28.3958 25.094 1.3207 11.8866-2.6415 30.3769-7.9244 42.2635-5.9434 11.2263-10.5659 24.4336-10.5659 28.3958 0 15.8489-27.0751 42.9239-42.9239 42.9239-22.4525 0-56.1313 44.2447-51.5087 67.3576 2.6414 12.547-.6604 21.1317-10.5659 29.0562-17.1696 15.1884-19.8111 62.0745-3.9622 62.0745 5.2829 0 9.9055-2.6414 9.9055-5.9433 0-11.2262 44.2446-33.6787 65.3764-33.6787 15.8488 0 34.3391 10.5658 74.6216 40.9428 68.6782 53.4898 109.6211 79.2441 114.2436 70.6593 5.9433-8.5847-20.4714-39.622-59.4331-70.6593-71.3197-56.1313-75.9423-62.0746-75.9423-103.6778 0-27.0751 3.9622-44.2446 13.8677-60.0935 13.2074-22.4525 13.8678-22.4525 50.8484-18.4903 20.4714 1.9811 48.2068 6.6037 60.7538 9.9056 40.2825 9.9055 54.1502 7.9244 51.5087-8.5848-1.9811-15.1885-12.547-18.4903-107.64-36.9806-31.0373-5.9433-36.3202-19.8111-20.4714-56.1313l9.2452-23.1129 134.715-2.6415c95.7534-1.9811 139.3377-5.2829 152.545-11.8866 46.2258-23.1129 13.8677-28.3958-146.6017-25.7543l-136.0357 2.6414-5.283-55.4709c-6.6037-66.6971-13.2073-58.7727 99.0552-116.8851 78.5838-40.9428 118.8662-69.3386 111.6022-81.2252-6.6037-9.9055-48.8672 7.9244-159.1487 68.6782-29.0562 15.8489-56.1313 29.0562-60.0935 29.0562-4.6225.6604-12.547-7.264-19.1506-16.5092-16.5092-25.7543-17.1696-25.094 122.8284-96.4137 60.0935-30.3769 95.7533-70.6593 54.1502-60.7538-25.094 5.9433-35.6599 11.2262-104.3382 48.8672-89.81 49.5276-88.4893 48.8672-106.9796 32.358-7.9244-8.5848-15.1884-17.1695-15.1884-20.4714 0-11.2262-56.1313-71.3197-92.4515-99.7155-40.9428-31.6977-103.6778-63.395349-159.14873-79.904539-74.6216-21.79214-208.0159-12.54699-279.996 19.15067-10.5659 4.62257-24.4336 10.56587-29.7165 12.54697-10.5659 4.622599-27.0751 15.188499-76.6027 48.206899-46.8861 32.358-63.3953 29.7165-125.4699-18.4903-74.62159-58.112399-98.39484-71.980129-123.48882-71.980129-11.88662 0-27.73545-4.62257-34.9995-9.90552-15.18846-11.22625-20.4714-11.88662-25.75434-2.64147zm199.43106-42.26355c-9.2451 8.58479-3.3018 38.96171 11.8867 64.71606 9.2451 14.52809 19.1506 33.01841 22.4525 40.282409 7.264 17.1696 26.4147 25.7544 36.3202 15.8489 4.6226-4.6226-1.3207-21.7922-19.1507-56.791679-27.075-50.84833-44.2446-71.9801-51.5087-64.05569z" style="stroke-width:.660368"/></svg>