<svg height="960" style="" width="1520" xmlns="http://www.w3.org/2000/svg"><path d="m814.76045.01577c-48.22264 1.61433-96.5137-1.83715-144.76406 3.26882-11.38566 1.20493-22.54756 4.17891-34.11627 4.49065-4.42781.11951-8.61561 5.96767-13.13873 6.31548a91.011844 91.011844 0 00-12.77376 3.88766c-21.86797 4.46909-43.71893 8.90536-65.48737 13.91627a182.12541 182.12541 0 00-41.81227 15.32852 184.46159 184.46159 0 00-47.82625 35.3381c-8.30739 8.49897-16.98352 16.66345-25.1667 25.27778-18.20856 19.16724-41.262 31.53748-63.34518 45.17629-11.68294 7.21522-24.99271 11.85068-36.51235 19.27966-20.06483 12.93994-41.10948 23.92783-62.26615 34.83033-24.07123 12.40463-48.30277 24.47012-71.24747 39.03536a539.70817 539.70817 0 00-48.71486 37.05186 129.12583 129.12583 0 00-29.81603 38.0198c9.01723.10465 11.89128-6.58193 16.16952-10.61571 16.16064-15.23713 32.24459-30.35273 55.50638-33.97346 11.56725-1.80046 23.08501-3.89113 34.02107-5.74423l7.50557 8.21964h24.61132c-6.37833 5.09703-10.998 8.78712-15.86803 12.67856 5.05072 2.84193 13.45469-2.43949 17.20094 7.7912v12.85311c3.87796 3.39926 6.63356 7.85932 10.07621 8.47353 12.71123 2.26729 24.64385 9.02784 37.98807 7.3469a32.052105 32.052105 0 0119.39073 4.93496c5.87819 3.09744 11.65377 6.44547 17.21681 10.0762 14.05942 9.17581 28.43499 17.97309 41.81227 28.07054a172.1161 172.1161 0 0132.37079 28.92743 311.13977 311.13977 0 0134.52884 47.88972 98.252663 98.252663 0 0112.55161 29.72082c-10.16952-9.59812-18.58389-20.45044-27.91187-30.43488-11.75874-12.58564-24.69047-24.06664-36.35366-36.7345a159.80393 159.80393 0 00-66.9631-45.0176c-11.98028-4.01306-23.62232-11.14713-37.90873-8.37832l-5.52208 8.39419a57.815981 57.815981 0 0121.75508 29.75255l-8.61634 2.6817c10.17049 8.51839 17.9352 17.02611 18.96229 29.3876a195.13262 195.13262 0 00-70.72382 18.26411h53.77677c5.98681 5.34587 10.38725 9.27559 14.67793 13.10699-1.16992 11.76597-.8918 23.06963-2.98319 34.67165a234.56049 234.56049 0 00-.50778 51.53937 42.388008 42.388008 0 005.71249 18.89883 102.51897 102.51897 0 0043.95445 39.08296c22.32919 11.27558 46.5277 16.89909 69.85108 25.15083a75.017355 75.017355 0 0020.02546 3.31642 44.949805 44.949805 0 0130.73637 13.34501 47.243576 47.243576 0 01-16.91532-4.50651c-6.36143-3.40495-12.0871-1.15655-18.77188-1.23771 7.36496 10.21322 20.07429 10.92067 26.11878 22.12003a37.071786 37.071786 0 013.28469 35.16356 289.40244 289.40244 0 0178.41981 122.72333c8.55455 1.97472 15.65268 3.61683 22.73889 5.25236 3.08916-3.2579 5.93719-6.26199 8.99718-9.48909 2.49298-17.80347-11.1223-33.27247-9.86992-54.58602 9.45579 19.71572 17.48144 36.46487 25.75382 53.71329l23.86552-29.07024c-1.20948-15.41205-2.55578-32.68393-3.90354-49.95257-.0462-.59073.24927-1.44033-.0476-1.74549-6.90292-7.08945-1.97727-15.25451-1.5392-23.15145 8.08584 26.05562 16.17343 52.11635 24.54785 79.10214 6.28871-7.88517 12.03878-15.11722 17.72458-22.24698 3.64374 2.66237 5.08684 5.97439 7.94989 6.80739 1.71816-13.03622 3.94262-24.8762 4.6652-36.81384.78807-13.02623.17455-26.13583.17455-39.20991v-9.50495l8.18791 1.33291c-4.38988 14.26724 1.93146 26.95448 2.66583 40.19373.75557 13.62191 2.70299 27.18001 4.3637 42.9865 3.66575-5.63787 6.04284-9.29479 7.90228-12.15491h15.85217l.52364 8.87023c3.6486 1.50529 6.52417 2.68368 9.39388 3.87179 4.63864-3.13684 9.28021-6.26999 14.01148-9.47321a24.791787 24.791787 0 0015.82042 9.79058v-21.13622l7.33103.88861v23.57989c6.8034-5.60009 11.42191-9.38737 15.4396-12.69442l13.90039 9.40974 9.10825-4.72867.82514-8.74329h15.18571l8.34658 11.66301c3.32623-29.29021 6.40031-56.40021 9.52082-83.87842l5.66489 1.5868a139.72399 139.72399 0 01-.0793 14.50338c-2.51354 23.4242 4.82938 46.12848 3.74485 69.20049l7.98162-7.98162c6.89765 8.6487 12.6669 15.86454 18.94643 23.73858 8.47583-27.27998 16.4304-52.88282 24.38918-78.49916a64.283517 64.283517 0 01-.90448 25.59513 396.68265 396.68265 0 00-4.63347 48.82594c8.40643 10.1137 15.97826 19.22451 24.13528 29.03851 8.3758-17.4937 16.26748-33.96243 24.15111-50.42861 1.73976 18.46228-10.74544 34.11832-6.41067 51.19028l6.52181 9.6636c8.5144-1.92549 15.57462-3.51641 22.54847-5.09361a422.78247 422.78247 0 0118.99403-45.60473 272.16151 272.16151 0 0145.35087-61.52037c5.5771-5.56734 10.3785-11.91123 15.4237-17.77219-7.326-7.30322-2.5182-15.26722-4.332-22.31046a127.54758 127.54758 0 0113.821-19.07337 112.91873 112.91873 0 0118.7243-12.18665c-7.4485-1.21988-13.893-3.99589-20.549.93621a52.829285 52.829285 0 01-17.7405 3.96702 58.375267 58.375267 0 0134.8621-14.18603 63.042266 63.042266 0 0024.5637-5.4586c4.6619-1.62806 9.0661-4.14181 13.821-5.31579a189.29839 189.29839 0 0068.3277-28.72114 65.658821 65.658821 0 0032.1011-56.95037 225.06458 225.06458 0 00-.5395-39.13057 176.45382 176.45382 0 01-2.9356-36.00456c4.7503-5.45426 8.6203-9.90587 12.9007-14.82075h54.6019a342.24489 342.24489 0 00-33.8307-12.88484 195.25749 195.25749 0 00-36.7821-5.0619c2.658-6.93104 5.1837-13.49372 7.6643-19.96198 5.5669-1.17805 10.0372-3.12892 9.4415-9.86992l-6.0934-2.44368c3.5376-12.77282 13.2306-21.6221 21.5012-31.41871-2.6973-2.92772-4.6165-5.01864-6.6011-7.17234a152.76436 152.76436 0 00-61.5997 20.29521 144.92972 144.92972 0 00-41.5743 33.41808c-10.2827 11.50038-21.737 21.94662-32.6246 32.91029-2.8854 2.90587-5.7119 5.88468-8.3307 9.02891-3.6467 4.3785-6.8609 9.13012-10.6475 13.37676-3.9918 4.47656-8.4417 8.55279-15.4554 15.56653 22.2092-55.89195 55.8631-100.49841 148.7945-152.38071 10.1718-1.77364 20.2613.49972 30.8157-3.15774 10.1312-3.51097 21.069-3.98214 29.0068-14.18602v-16.26473l16.3599-3.57031c-4.7211-3.91297-9.0778-7.52053-15.7411-13.04352h25.4682l7.4421-7.45798a162.3624 162.3624 0 0129.9112 4.69695 72.680362 72.680362 0 0137.7501 16.45514c9.6645 8.35135 19.1641 16.83221 28.4514 25.59514a65.315238 65.315238 0 009.0607 5.60141 89.862318 89.862318 0 00-5.2206-12.21838 198.38987 198.38987 0 00-49.2227-48.52445 446.54741 446.54741 0 00-66.5664-41.20927c-28.0096-14.17608-56.7117-27.20085-83.6404-43.20866-20.0274-11.90546-40.7127-22.70252-60.3937-35.19529a235.16073 235.16073 0 01-43.7482-32.10103c-10.8155-11.03372-22.1615-21.56757-32.6722-32.87857-14.1595-15.23778-33.7339-22.49575-49.778-34.8938-13.90247-1.65308-25.76845-9.55725-39.62256-12.28186-13.53222-2.66124-27.18297-5.71699-40.70146-8.9337-8.6518-2.05881-17.3094-3.65811-25.81731-6.5535a154.25267 154.25267 0 01-18.43865-7.29929 128.14838 128.14838 0 00-19.78744-3.61791 104.9961 104.9961 0 00-26.57895-.55538c-8.57753-.0418-16.31897-4.12432-25.27778-3.8242zm321.67675 463.15613a83.045269 83.045269 0 0115.9633 38.92428c.5509 4.33959 2.8913 8.45509 3.3322 12.78964a66.971485 66.971485 0 01-5.76 27.84839c-7.1713 21.51537-22.5351 34.59901-45.4779 42.63741-13.2305 4.63564-26.3857 2.41098-37.6865 3.28468a94.603899 94.603899 0 01-45.8586-42.06615 176.64141 176.64141 0 00-.492 19.4066 91.388168 91.388168 0 01-3.8241 41.82813 57.061627 57.061627 0 01-37.7342 39.09884 80.602008 80.602008 0 01-47.30264 5.26819c-21.87095-4.19221-41.00195-15.11903-46.76308-39.92398-1.38358-5.95716-2.99622-11.86824-4.63346-18.32757-17.50531-3.23085-21.36055-2.40476-38.21022 7.91814a158.73151 158.73151 0 00-29.32413-9.47322 84.610522 84.610522 0 00-17.15334-1.07902 49.120319 49.120319 0 00-34.35429 23.40535c-8.24167-3.4498-9.84642-12.72953-17.32789-15.64588a125.46383 125.46383 0 00-17.56591-4.88735 55.668612 55.668612 0 00-21.50119-.90448 63.541756 63.541756 0 00-25.13496 9.29867 64.111279 64.111279 0 00-40.2096-10.3301 113.46656 113.46656 0 01-7.12474 26.83285 48.208189 48.208189 0 01-33.68783 30.06992 85.994194 85.994194 0 01-56.72822-1.77722 62.321791 62.321791 0 01-41.97095-54.98274c-.66254-6.80582-7.74894-13.59736-3.31641-19.59701 5.96983-8.08105 1.41305-15.44197 3.53857-25.40472-7.84276 9.22066-13.74393 16.10479-19.59702 23.04039-18.99387 22.5063-44.87969 22.88894-68.80379 13.34501-14.00189-5.58595-29.13737-12.34854-36.14738-28.21337a105.4414 105.4414 0 01-7.28342-14.75727 54.252199 54.252199 0 01-3.49097-24.9128c3.15341-12.22476 1.8653-25.76507 9.96512-36.79797a90.598473 90.598473 0 007.26756-14.78901 22.800895 22.800895 0 0121.67573 8.82263c11.4353 12.43477 22.54622 25.175 34.08454 37.51202a69.419539 69.419539 0 0031.30763 23.26254c23.21654 6.57689 47.28575 3.4319 70.99357 5.3158a91.658305 91.658305 0 0143.58948 14.59859c16.19785 10.96091 33.96594 19.29127 49.68282 31.21241h25.59513l6.37896-9.34627c6.66202 3.94523 14.05281 8.32468 22.69128 13.44023 6.2567 0 15.62674.40256 23.18319 0a261.4678 261.4678 0 0026.45201-4.14156c9.04249-2.83056 10.18065-15.08629 15.23331-23.02452 0-9.54344-2.82082-20.28789.6982-28.21336 4.4898-10.11135 1.74882-19.5045 2.66583-29.10197.89718-9.38722.19041-18.91682.19041-29.48281l5.39514-.66645a13.785618 13.785618 0 011.66614 4.09395 58.864195 58.864195 0 01.0159 10.66332c-2.67294 24.03028 4.83295 47.53552 3.58617 71.77111 3.41868 6.03141 7.21669 12.12571 10.40943 18.53386 3.62829 7.2825 13.63081 5.01164 22.12004 6.6011 7.20157 1.34865 42.85988 1.11032 54.79231-11.40911l5.34753 8.75915c23.05072 7.68019 38.07952-6.42043 54.77645-15.55067 14.48854-7.92287 27.07769-19.08817 43.95449-23.04039a124.00882 124.00882 0 0131.24413-6.22026 298.31397 298.31397 0 0035.60787-.17455c13.7846-1.34614 28.6239-2.77061 39.6384-11.28217a239.55596 239.55596 0 0030.1809-31.78367 126.99674 126.99674 0 0132.9579-30.48249 36.485202 36.485202 0 018.2831-1.79309zm-152.72984 40.52696c3.41429-.0128 6.12607.0772 7.90231.30149-46.73864 15.12363-137.07585 22.53658-171.18433 12.17078 13.78359-3.03472 27.34968-2.2914 38.33717-4.20503 9.58-1.66851 20.19388-1.06428 33.43394-2.17392 9.49469-.79577 67.61102-6.00364 91.51091-6.09332zm-445.27282 1.1901a973.67726 973.67726 0 0183.86255 3.79246 18.246582 18.246582 0 006.82325 1.49159c21.08859-2.63816 52.95015 5.55812 74.11958 5.04604-32.11222 3.93994-137.88684 8.4313-179.76894-10.25075a973.67726 973.67726 0 0114.96356-.0793zm219.12166 180.4354h4.82388c4.22657 7.25073-2.96985 16.75637 4.99843 23.29427-2.35438 6.43609-4.1314 11.31571-7.23583 19.8033-3.17364-8.35923-5.00901-13.17893-6.02984-15.86803 1.29332-10.23281 2.3477-18.56077 3.44336-27.22954zm-17.10574 95.76357c-7.0226 8.26458-16.46394 7.37924-26.76937 7.25169a40.955996 40.955996 0 00.0793 8.91783c4.48858 16.111 7.34915 32.58443 11.09175 48.8259a115.70427 115.70427 0 0013.86866 38.59106c1.13084 1.71913 3.41484 2.69154 7.04541 5.41103v-14.66208c0-14.22434-.53531-28.47874.15867-42.66912.69871-14.29014 2.62284-28.51831 3.87181-41.33622zm39.16231.42843-8.80677 8.52114c-1.40439 18.81977 5.32228 36.82507 3.729 55.61745-1.18357 13.95542-.23803 28.10282-.23803 41.93921l6.33135.85689a284.58579 284.58579 0 0011.2187-31.79952 203.92773 203.92773 0 007.72773-34.29087c.68066-11.28668 8.74689-21.63806 6.17267-34.24319a31.522149 31.522149 0 01-26.13465-6.60111zm61.26646 2.71344c-5.54419 7.75494-13.84567 1.63022-19.1051 4.85562-6.93648 22.4132-4.58861 45.34814-9.85405 67.58195a380.56971 380.56971 0 00-10.85373 68.21664 31.691543 31.691543 0 008.15616-5.82351 421.94411 421.94411 0 0051.53937-109.50532c-7.03852-8.95824-13.37002-17.0361-19.88265-25.32538zm-163.53594 2.12631-17.50244 22.75477c8.58972 34.2919 25.53456 63.92276 39.57488 94.76392 7.59382 5.6178 8.11728 18.12934 19.54941 20.45382a347.52171 347.52171 0 00-10.66331-67.31214c-5.39268-22.68285-2.49815-46.27872-10.23489-67.93106zm198.22347 12.72617a25.470909 25.470909 0 00-4.83976 6.74391c-2.74208 8.99979-4.91872 18.17885-7.28342 27.293-4.87393 18.78556-8.04173 37.92388-13.96387 56.53785a323.3906 323.3906 0 00-17.45484 70.15252 67.246579 67.246579 0 0021.07275-22.2152 111.8238 111.8238 0 0111.83756-19.94613 197.65071 197.65071 0 0030.68877-64.02752c1.55176-4.66724 4.08671-9.01787 7.4421-16.23302l-3.79246-21.24726c-4.80958-5.87975-9.13511-11.1551-13.96387-17.05815zm-242.40007.20628a82.592982 82.592982 0 01-4.37957 7.93402c-11.70187 16.46545-15.58089 24.5274-6.5059 41.38381a59.668839 59.668839 0 012.25326 6.1727 401.8662 401.8662 0 0018.15303 44.09723c9.09872 16.61292 21.36515 31.47966 30.9268 47.87387 3.84229 6.58753 10.07724 7.2851 14.83661 13.24981-1.35679-8.41943-2.39861-14.46198-3.26882-20.5332-.32944-2.29881.45063-4.99474-.47604-6.93437a216.51207 216.51207 0 01-13.9956-45.90621c-1.32477-5.78833-6.39601-11.05557-6.63284-16.69319-.79018-18.80181-9.88181-35.69786-11.36151-54.33214a53.271905 53.271905 0 00-7.37864-16.31233zm-39.27338 31.84713a26.6756 26.6756 0 00-20.39042 10.1397c13.7402 32.32135 28.50271 63.4207 56.82343 85.78256a16.097832 16.097832 0 001.28531-3.09428 6.3171526 6.3171526 0 00-.0159-3.50683 932.57055 932.57055 0 01-32.68815-88.9562 26.6756 26.6756 0 00-5.0143-.36495zm332.08619.0635a25.233594 25.233594 0 00-4.77628.55538c-5.24116 16.42192-10.88699 31.84266-15.4872 47.66759-4.64019 15.96159-15.72947 29.81813-17.61352 49.0481 29.90173-24.32488 45.44153-55.24875 58.26741-87.49633a25.233594 25.233594 0 00-20.39041-9.77474z" style="stroke-width:8.12443"/></svg>