<svg height="960" style="" width="1148" xmlns="http://www.w3.org/2000/svg"><path d="m240.96067 193.95637c-6.8521 6.3953-14.161 11.4202-16.9018 11.4202-2.284 0-4.1113 1.8272-4.1113 4.1113 0 2.284-9.1361 13.7042-20.5563 26.0379-11.4201 11.877-20.5562 23.2972-20.5562 25.1244s-2.7409 6.3953-5.9385 9.5929c-7.7657 7.3089-48.87833 92.275-48.87833 100.4975 0 3.1976-3.19764 14.161-6.8521 24.2107-10.50655 29.2356-9.13613 155.3142 2.28404 196.4268 9.59293 34.7173 20.55629 66.237 26.95158 79.0276 2.28403 4.1112 8.22251 15.9882 12.79061 26.0379 15.5314 32.8901 51.1623 82.682 82.682 114.6585 32.89 33.8037 70.3482 65.78009 76.2866 65.78009 2.2841 0 7.309 2.7408 10.9634 6.3953 10.0497 9.1361 87.2501 48.42149 94.559 48.42149 3.1976 0 12.7905 2.74084 21.0131 6.39529 46.5942 19.64269 158.9686 28.77882 200.0812 15.98823 8.6793-2.28403 25.1244-6.39529 36.5445-8.67932 90.4477-17.35865 195.97-88.62048 265.4046-179.06818 39.7422-51.6191 33.3469-56.1872-13.2473-9.5929-55.7304 55.2736-120.597 97.7566-188.6611 122.42409-65.3234 23.754-155.3143 31.51969-216.5263 18.2723-44.3103-9.5929-93.1886-25.1244-96.3862-30.1492-1.3704-2.2841-5.4817-4.1113-8.6793-4.1113-18.2723 0-112.8313-69.43459-141.6101-103.69509-20.5563-24.2107-42.9398-53.9031-51.1623-67.6073-13.2474-21.4699-37.9149-74.0027-37.9149-80.398 0-3.6544-1.8273-8.6793-4.1113-10.9633-7.3089-8.2226-20.0995-63.0393-23.7539-105.0655-4.1113-44.3103.9136-123.3378 9.1361-138.4124 2.7408-5.4817 5.0249-13.7042 5.0249-18.7291 0-18.2723 31.0628-82.2252 56.1872-115.1152 6.8521-9.1362 12.3337-18.2723 12.3337-20.5563 0-1.8273 3.1977-7.3089 7.7657-11.877 10.9634-12.3338 0-10.0498-14.161 3.1976zm332.0984 267.6887c-22.3835 8.6793-16.445 45.2238 7.3089 45.2238 15.9882 0 24.2107-9.1361 22.3835-25.5812-1.8272-15.5314-15.9882-25.1243-29.6924-19.6426zm-17.3587-42.9398c-27.8652 14.6178-43.3966 37.9149-43.3966 64.4097 0 16.9018 16.4451 47.5079 30.6061 58.0144 17.3586 12.3338 58.4712 12.3338 74.9162.4568 21.9267-16.9018 28.322-30.1492 28.7788-58.0144.4569-31.0629-8.6793-46.1375-36.5445-62.1257-21.0131-12.3338-35.6309-12.7906-54.36-2.7408zm44.7671 19.1858c13.2474 5.0249 30.606 31.5197 30.606 46.1375 0 23.2971-27.4084 50.2487-52.0759 50.2487-6.3953 0-18.7291-6.3953-27.8652-14.161-14.6178-12.7906-15.9882-16.445-15.9882-37.9149 0-19.1859 2.284-26.038 10.5065-33.3469 16.445-15.0746 34.2605-18.7291 54.8168-10.9634zm-113.288-332.5551c-17.3587 4.568-32.4333 10.9633-33.3469 13.2474-.9136 2.7408-7.3089 4.568-14.6178 4.568-6.8521 0-15.0746 3.1977-18.2723 6.8521-3.1976 3.6545-7.7657 6.8521-10.0497 6.8521-14.161 0-101.8679 70.3482-96.843 78.1139 1.3704 2.2841 7.7657 4.1113 14.6178 4.1113 25.1244.4568 101.411 24.2107 101.411 31.9765 0 5.9384-41.5693 32.89-47.051 30.606-3.1977-1.3704-20.5563-13.7042-39.2854-27.8652s-36.5445-25.5812-39.7422-25.5812c-23.7539 0-75.373 104.1519-90.9045 182.7226-8.2225 42.0262-7.7657 110.0904.4569 112.8313 2.7408.9136 12.7905-5.9385 22.8403-15.5315 20.0995-19.1858 72.6322-56.1872 79.4843-56.1872 2.7409 0 9.593-2.7408 15.0746-6.3953 5.4817-3.6544 16.4451-7.7657 24.6676-9.5929 16.9018-3.1976 18.2722 0 15.0746 40.199l-2.284 27.8652-27.4084 5.9385c-15.0746 3.1976-34.7173 6.8521-43.3966 8.6793-8.6794 1.3704-23.754 5.4817-33.3469 9.1361-9.1362 3.6545-24.6676 6.3953-33.3469 6.3953h-16.445l3.1976 26.038c3.6545 29.6924 10.0498 47.9647 32.8901 96.3862 8.6793 18.729 17.3586 31.9764 19.1859 29.6924 1.8272-1.8272 6.8521-12.7906 11.4201-24.2108 4.5681-11.4201 11.877-27.8652 15.9882-36.5445 14.1611-30.1492 60.7553-91.3613 69.8914-91.3613 1.8273 0 3.6545 19.1859 3.6545 42.9398v42.9398l-14.6178 11.4202c-18.2723 13.7042-29.2356 23.2971-58.9281 51.1623l-22.8403 21.0131 19.6427 21.0131c37.0013 39.2854 60.7553 61.2121 74.0027 68.521l13.2474 6.8521-3.6545-15.0746c-2.284-8.6793-4.1113-23.7539-4.1113-33.8037 0-21.9267 10.5066-61.6689 16.4451-61.6689 8.2225 0 44.767 28.7788 44.767 35.1741 0 3.1977-1.8272 9.593-4.1112 14.161-4.5681 9.593-15.5315 35.1741-22.8404 52.5328-2.7408 6.8521-8.2225 13.7042-11.8769 15.0746-3.6545 1.8272-6.8521 5.9385-6.8521 9.5929 0 4.5681 2.7408 5.9385 7.3089 4.1113 4.1112-1.3704 15.9882.9136 26.4947 5.9385 37.4582 16.9018 87.2501 32.4332 105.5224 32.4332 8.6793 0 8.6793-15.5314 0-22.8403-3.6545-3.1976-6.8521-8.6793-6.8521-12.3338 0-3.1976-3.1977-10.9633-6.8521-16.445-3.6545-5.4817-7.3089-17.3586-7.7658-26.038-1.3704-15.5314-.9136-15.9882 16.4451-17.3586 9.5929-.9136 19.1859 0 21.4699 2.284 1.8272 1.8272 4.1112 23.754 4.5681 48.4215.9136 42.9398 1.3704 44.7671 11.8769 47.05109 14.6178 3.6544 69.4346-.9136 104.1519-8.67929 35.1741-7.7657 36.5445-15.5315 8.2225-36.5446-26.9516-20.0994-49.7919-43.3966-45.6806-47.051 1.3704-1.8273 8.2225-3.6545 14.6178-4.5681 6.3953-.4568 14.6178-3.1976 17.8154-5.9385 10.5066-8.6793 18.2723-1.3704 33.3469 30.6061 24.6676 51.6191 22.8403 50.2487 54.36 32.89 41.5694-23.2971 89.0773-60.2984 87.7069-68.521-.9137-4.568-10.9634-8.2225-33.3469-11.8769-17.8155-2.7409-37.0014-7.3089-43.3966-10.0498-6.3953-2.7408-15.0747-5.9385-20.0995-7.3089-8.2226-2.7408-8.2226-3.1976 0-12.3338 5.0248-5.4816 12.7906-11.4201 17.8154-13.7041 5.0249-2.2841 12.3338-6.3953 16.4451-9.1362 5.9384-4.568 13.2473-1.3704 38.8285 17.8155 17.3587 13.2474 34.2605 26.0379 37.4581 28.7788 4.5681 3.6544 8.2226 1.8272 15.0747-6.8521 33.8036-42.9398 71.7186-115.1153 64.4097-122.4242-2.284-2.284-9.593-1.3704-17.3587 2.7409-21.4699 10.9633-75.8298 21.9267-100.0406 20.0995l-22.8403-1.3705-1.3704-30.1492c-1.3705-35.6309 1.8272-38.8285 31.9764-29.6924 16.9019 5.4817 72.1754 17.8154 102.3247 23.7539 5.4817.9136 12.3338-1.3704 15.5314-5.0248 12.3338-14.6179 24.2107-139.7828 14.161-146.1781-2.284-1.3705-18.2723 10.0497-35.6309 25.1243-16.9018 15.0746-39.2854 31.9765-49.3351 37.0014-10.0498 5.0248-21.4699 10.9633-25.1244 12.7905-47.9647 26.038-54.8168 24.2108-54.8168-11.8769 0-14.6178 1.8273-28.7788 3.6545-31.5197 5.4817-8.6793 24.2107-16.445 48.4215-20.0995 27.8652-4.1112 61.6689-12.3337 88.6205-21.4699 17.8154-6.3953 19.1858-7.7657 19.1858-23.2971 0-16.445-8.6793-48.4215-20.5563-76.2867-15.9882-36.5445-26.0379-57.1008-28.7788-57.1008-1.8272 0-6.8521 8.6793-11.4201 19.6427-21.0131 47.9646-43.3967 87.7068-60.2985 108.2631s-28.7788 30.1492-32.4333 26.038c-.9136-.9136-1.8272-18.7291-2.284-39.7422-.4568-38.3717-.4568-38.3717 14.6178-51.6191 34.2605-29.6924 81.7684-76.2867 81.7684-79.9412 0-6.8521-59.3849-68.5209-81.7684-85.4228-24.2107-17.8154-40.199-21.4699-34.2605-8.2225 5.4817 12.7906 7.7657 75.3731 3.1977 92.7317-5.0249 19.6427-14.6178 21.9267-33.3469 8.6793-15.5314-11.8769-17.3587-23.7539-5.9385-46.1374 4.1113-8.2225 9.1361-18.7291 11.4202-22.8403 5.0248-10.5066 17.3586-46.1375 17.3586-50.2488 0-4.568-55.7304-30.1492-84.0524-38.8285-15.5314-5.0249-47.0511-7.765705-91.8181-8.679305-56.644-.9137-74.0027.4568-100.4974 7.765705zm154.8574 42.9398c9.1361 19.1859 16.445 39.7422 16.445 45.6806 0 10.0498-1.8272 11.4202-16.445 11.4202-30.6061 0-33.8037-4.5681-33.8037-50.2487 0-37.4582.9136-41.1126 8.6793-41.1126 6.3953 0 13.2474 9.1361 25.1244 34.2605zm-121.0538 28.7788c12.3338 11.4202 18.7291 21.0131 15.9883 23.2971-2.2841 2.2841-15.0746 5.0249-28.322 5.9385-22.3835 2.284-24.6676 1.3704-28.322-7.7657-2.2841-5.9385-6.3953-11.877-8.6794-13.7042-2.7408-1.3704-5.0248-6.3953-5.0248-10.9633 0-4.5681-3.1977-10.9634-6.8521-14.1611-6.8521-5.9384-9.1362-23.2971-4.1113-28.7788 3.6545-3.6544 38.8286 21.0131 65.3233 46.1375zm92.275 59.3848c37.0013 3.6545 48.4215 9.593 115.1152 59.3849l26.038 19.6427v169.932c0 93.6453-1.8272 171.7593-3.6545 174.5001-3.6544 5.0249-26.9515 21.4699-37.4581 26.9516-7.7657 3.6544-17.8155 9.5929-44.3102 26.9516-19.1859 11.8769-21.0131 12.3338-89.0773 12.3338h-69.8914l-48.8783-32.4333c-26.9516-17.3587-50.7055-35.6309-52.5328-39.7422-5.9384-12.7906 0-344.8889 5.9385-346.7161 4.5681-1.3705 59.3849-40.6558 77.2003-54.8168 23.2972-18.7291 50.2488-22.3835 121.5106-15.9883zm-242.5643 125.6218c1.3704 14.6179.9136 29.2357-.9136 32.8901-4.1113 6.8521-26.038 5.0249-55.7304-5.4817-9.5929-3.1976-24.2108-5.9384-31.9765-6.3953-7.7657 0-21.4699-2.7408-30.1492-5.9384-18.2723-6.8521-24.6676-21.0131-9.1361-21.0131 5.4816 0 13.7042-2.2841 18.729-5.0249 12.3338-6.3953 71.2619-16.9019 90.9045-15.9882l15.9883.4568zm130.1899-354.4818048c-32.4333 7.7656998-81.3116 22.3834998-92.7318 27.8651998-40.6557 20.0995-71.2618 36.5445-92.2749 50.2487-33.3469 21.926705-101.8678 88.620505-120.1401 117.399305-18.7291 29.6924-18.7291 29.6924-10.5066 29.6924 4.1113 0 7.309-1.8272 7.309-4.1113 0-9.1361 88.6204-91.8181 98.2134-91.8181 1.3704 0 9.5929-5.0249 17.3586-10.9633 30.1492-22.3836 92.2749-47.507905 156.6846-63.953005 36.5446-9.5929 124.7082-9.5929 155.3143-.4568 12.3337 3.6545 26.9516 6.8521 32.4332 6.8521 10.0498 0 30.6061 7.7658 57.5577 21.0131 7.3089 3.6545 15.0746 6.3953 17.3586 6.3953 13.2474 0 84.966 50.248805 119.2265 84.052405 121.0537 119.6833 164.45043 280.0224 117.3993 435.3367-11.877 39.2853-40.6558 97.7566-58.0144 117.856-5.0249 5.9385-11.4202 15.0747-14.6179 20.0995-15.5314 29.6925 36.0878-15.0746 67.6074-58.0144 67.15063-91.8181 92.27493-197.7972 72.17543-306.974-10.5065-57.5576-30.1492-110.0904-58.01443-153.0302-4.568-7.7657-10.0497-16.9018-11.4201-20.5563-5.9385-13.2474-35.631-48.4215-67.6074-79.9411-32.4333-31.9765-77.2003-64.409705-116.9425-84.509205-11.4201-5.4817-26.038-13.2474-32.8901-16.4451-6.3952-3.6544-15.0746-6.3952-19.1858-6.3952-3.6545 0-13.7042-2.7409-21.9267-6.3953-50.2488-21.01309986-145.2645-27.4083998-202.3653-13.2473998z" style="stroke-width:.456807"/></svg>