<svg height="960" style="" width="1320" xmlns="http://www.w3.org/2000/svg"><path d="m857.1429 788.5714c0 4.5715 3.4285 8.5715 8 8.5715 4.5714 0 9.1428 4 11.4285 8.5714 3.4286 9.7143 14.8572 12 14.8572 2.8571 0-7.4285-21.1429-28.5714-28.5715-28.5714-2.8571 0-5.7142 4-5.7142 8.5714zm188.5714-21.7143c0 7.4286 26.8571 30.2858 30.2857 26.2858 2.2857-1.7143-2.2857-9.1429-9.1429-16.5715-12.5714-13.7143-21.1428-17.1428-21.1428-9.7143zm-85.7143-84c0 7.4286 21.1429 28.5715 28.5714 28.5715 9.1429 0 6.8572-10.2857-5.7143-22.8572-12.5714-12.5714-22.8571-14.8571-22.8571-5.7143zm-411.4286-3.4285c0 4.5714 29.1429 37.7143 65.1429 73.1428 151.4286 149.7143 233.1428 227.4286 238.8571 227.4286 3.4286 0-5.1428-11.4286-20-25.7143-14.8571-13.7143-26.8571-26.2857-26.8571-27.4286 0-5.1428-248-255.4285-252.5714-255.4285-2.2858 0-4.5715 4-4.5715 8zm34.2857-31.4286c0 9.7143 300 304 305.1429 299.4286 1.7143-1.7143-9.1429-15.4286-24-30.8572-14.8571-14.8571-80.5714-82.2857-146.8571-150.2857-108-111.4286-134.2858-134.8571-134.2858-118.2857zm37.1429-38.2857c-3.4286 8.5714 52 65.7143 238.8571 248.5714 62.2858 60.5714 90.2858 76 34.8572 19.4286-212-218.2857-270.8572-276-273.7143-268zm34.2857-34.2857c-2.2857 6.2857 22.2857 34.8571 77.1429 89.7143 74.8571 74.8571 91.4285 88.5714 91.4285 76 0-2.8572-37.1428-42.8572-82.8571-89.7143-59.4286-60.5715-83.4286-82.2857-85.7143-76zm-82.8571-42.2857c-19.4286 19.4285-39.4286 35.4285-45.1429 35.4285s-14.8571 9.1429-22.2857 21.1429c-18.8571 34.2857-75.4286 86.2857-95.4286 88.5714-14.8571 1.7143-17.1428 4.5714-18.8571 20.5714-1.1429 11.4286-5.7143 20.5715-11.4286 22.2858-5.1428 2.2857-16 8.5714-23.4286 14.2857-7.4285 5.7143-18.2857 10.2857-23.4285 10.2857-6.2857 0-16 11.4286-26.2857 32.5714-17.1429 34.2857-74.8572 96-96.00004 102.2857-15.42857 4.5715-32 18.8572-38.28572 33.7143-2.85714 6.2857-10.28571 18.8572-16 28.5714-16.57143 25.7143-34.85714 62.8572-34.85714 70.2858 0 4 2.85714 6.8571 6.85714 6.8571 7.42857 0 44.57143-18.2857 70.28572-34.8571 9.71428-5.7143 22.28574-13.1429 28.57144-16 14.8571-6.2858 29.1428-22.8572 33.7143-38.2858 6.2857-21.1428 68-78.8571 102.2857-96 21.1428-10.2857 32.5714-20 32.5714-26.2857 0-5.1428 4.5714-16 10.2857-23.4285 5.7143-7.4286 12-18.2858 14.2857-23.4286 1.7143-5.7143 10.8572-10.2857 22.2858-11.4286 16-1.1428 19.4285-4 20.5714-17.7143 2.2857-16.5714 75.4286-95.4285 89.1428-95.4285 10.2858 0 28-21.1429 24-28-2.2857-3.4286 12-21.1429 32-40l36-34.2858-18.2857-18.8571-18.8571-18.2857zm-251.4286 293.7142c0 10.8572-136 142.8572-142.85714 138.8572-8-5.1429 16.57143-35.4286 78.85714-96 49.1429-48 64-57.7143 64-42.8572zm432.5714-351.4285c-4 4 160 167.4285 168.5715 167.4285 2.2857 0 4.5714-2.2857 4.5714-5.1428 0-6.2857-158.8572-166.2857-165.1429-166.2857-2.2857 0-6.2857 1.7143-8 4zm30.2857-34.2857c0 4 234.2858 236 238.2858 236 1.1428 0 13.1428 11.4285 26.2857 25.7142 13.7143 14.2858 26.2857 24 28.5714 22.2858 3.4286-3.4286-34.8571-44.5715-186.2857-197.1429-79.4286-79.4286-106.8572-102.2857-106.8572-86.8571zm40-30.8572c0 6.8572 225.7143 232.5714 232.5715 232.5714 1.1428 0 13.1428 12 27.4285 26.8572 14.2858 14.2857 27.4286 25.1428 29.1429 22.8571 5.1429-4.5714-273.7143-289.7143-284-289.7143-2.8571 0-5.1429 3.4286-5.1429 7.4286zm28.5715-36.5714c0 4.5714 250.2857 252 254.8571 252 1.1429 0 14.2857 12 28 26.8571 14.2857 14.8572 25.7143 23.4286 25.7143 20 0-4-26.2857-33.7143-58.2857-66.2857-32.5714-33.1428-98.2857-100-146.2857-148.5714-76.5715-78.8572-104-100.5714-104-84zm-457.1429-51.4286c0 9.1429 160 166.2857 169.1429 166.2857 4.5714 0 8-1.7143 8-3.4285 0-5.7143-166.8572-168-172-168-2.8572 0-5.1429 2.2857-5.1429 5.1428zm-234.2857-34.8571c0 6.2857 85.1429 95.4285 227.4286 238.8571 57.7143 58.2857 81.1428 75.4286 81.1428 60 0-2.2857-56.5714-59.4286-126.2857-126.8571-69.1428-67.4286-138.85713-134.8572-154.2857-150.2857-15.42857-15.4286-28-25.1429-28-21.7143zm49.71429-18.2857c-4.57143 5.1428 272.00001 288 282.28571 288 16 0-5.7143-24.5715-110.2857-127.4286-63.4286-61.7143-116-112.5714-117.1429-112.5714-1.1428 0-13.1428-11.4286-26.2857-25.7143-13.7143-14.2857-26.2857-24-28.57141-22.2857zm116.00001-14.8572c0 3.4286 4 7.4286 8.5714 9.1429 4.5714 2.2857 8.5714 6.8571 8.5714 11.4285 0 4.5715 4 8 8.5715 8 12.5714 0 10.2857-10.8571-4-23.4285-14.8572-12-21.7143-13.7143-21.7143-5.1429zm-81.7143-19.4286c-1.7143 1.7143 18.8571 26.8572 46.2857 54.8572 192 197.7143 246.8572 248.5714 246.8572 229.1428 0-3.4285-234.2858-236-238.2858-236-1.1428 0-13.1428-11.4285-26.2857-25.7142-13.7143-14.2858-26.2857-24-28.5714-22.2858zm253.1429-16c0 5.7143 162.2857 172.5715 167.4285 172.5715 14.8572 0-6.2857-26.8572-76.5714-96.5715-74.2857-74.8571-90.8571-88.5714-90.8571-76zm-68.5715-67.4285c0 7.4285 21.1429 28.5714 28.5715 28.5714 9.1428 0 6.8571-10.2857-5.7143-22.8571-12.5715-12.5715-22.8572-14.8572-22.8572-5.7143zm-81.7143-87.4286c-1.7142 2.8571 2.8572 10.8571 10.2858 17.7143 7.4285 6.8571 14.8571 10.8571 16 8.5714 1.7142-2.8571-2.8572-10.8571-10.2858-17.7143-7.4285-6.8571-14.8571-10.85711-16-8.5714zm51.4286-17.14286c-4 3.42857-2.2857 5.14286 177.7143 188.57146 65.7143 66.8571 120.5714 121.7143 122.8571 121.7143 14.8572 0-6.8571-26.8572-78.2857-98.2858-162.2857-160.5714-219.4285-215.42853-222.2857-211.99996zm33.7143-34.28571c-1.7143 1.71428 9.1429 15.42857 24 30.85714 14.8571 14.85714 80.5714 82.28573 146.8571 150.28573 108 111.4286 134.2858 134.8571 134.2858 118.2857 0-9.7143-300-304-305.1429-299.42857zm48-16.57143c0 2.28571 7.4286 10.85714 17.1429 18.28571 9.1428 8 16.5714 16 17.1428 17.71429 0 5.71429 247.4286 256.5714 252.5714 256.5714 14.8572 0-2.8571-24-60.5714-81.1428-143.4286-141.7143-220-216.00003-223.4286-216.00003-1.7142 0-2.8571 2.28572-2.8571 4.57143zm-360-48.57143c0 4.57143 6.28571 19.42857 13.71429 33.14286 8 13.71428 19.42857 35.42857 26.28571 48 16.57143 30.85714 28 42.28567 48.57143 50.85717 25.71427 10.8571 78.28567 65.7143 94.28567 98.8571 10.2858 21.1429 20 32 34.2858 38.2857 40.5714 18.8572 48.5714 25.7143 51.4285 44.5715 2.2857 15.4285 5.7143 19.4285 18.8572 20.5714 16.5714 2.2857 95.4285 75.4286 95.4285 89.1428 0 9.7143 21.1429 28 27.4286 24 6.2857-3.4285 218.2857 207.4286 218.2857 217.1429 0 4 6.8572 12 15.4286 17.7143 8 5.7143 32.5714 26.8571 53.7143 46.8571 29.7143 27.4286 39.4286 40.5715 40.5714 54.2857 1.7143 15.4286 4.5714 18.2858 20.5714 20.5715 18.8572 2.8571 25.7143 10.8571 44.5715 51.4285 6.2857 14.2858 17.1428 24 38.2857 34.2858 31.4286 15.4285 92.5714 73.1428 98.8571 93.7142 4.5715 15.4286 18.8572 32 33.7143 38.2858 6.2857 2.8571 19.4286 10.2857 28.5714 16 25.7143 16.5714 62.8572 34.8571 70.2858 34.8571 4 0 6.8571-2.8571 6.8571-6.8571 0-7.4286-18.2857-44.5715-34.8571-70.2858-5.7143-9.7142-13.1429-22.2857-16-28.5714-6.2858-14.8571-22.8572-29.1428-38.2858-33.7143-20.5714-6.2857-78.2857-67.4285-93.7142-98.8571-10.2858-21.1429-20-32-34.2858-38.2857-40.5714-18.8572-48.5714-25.7143-51.4285-44.5715-2.2857-15.4285-5.7143-19.4285-18.8572-20.5714-16.5714-2.2857-95.4285-76-95.4285-89.7143 0-9.1428-16.5715-22.8571-28-22.8571-10.8572 0-88.5715-79.4286-85.7143-87.4286 5.7143-15.4286 80.5714-86.8571 90.8571-86.8571 7.4286 0 14.8572-7.4286 22.2857-21.7143 17.1429-32.5714 74.2857-85.7143 94.8572-88 14.8571-1.7143 17.1428-4.5714 18.8571-20.5714 1.1429-11.4286 5.7143-20.5715 11.4286-22.2858 5.1428-2.2857 16-8.5714 23.4286-14.2857 7.4285-5.7143 18.2857-10.2857 23.4285-10.2857 6.2857 0 16-11.4286 26.2857-32.5714 18.2858-36 70.2858-90.8572 96.5715-102.2857 20.5714-8.5715 32-20.00003 48.5714-50.85717 6.8571-12.57143 18.2857-34.28572 26.2857-48 14.8572-27.42857 17.1429-40.57143 6.8572-40.57143-7.4286 0-44.5715 18.28571-70.2858 34.85714-9.1428 5.71429-22.2857 13.14286-28.5714 16-14.8571 6.28572-29.1428 22.85715-33.7143 38.28572-6.2857 21.14285-68 78.85714-102.2857 96.00004-17.7143 8.5714-32.5714 20-32.5714 24.5714 0 5.1428-6.8572 20-15.4286 33.1428-12 18.8572-20 25.1429-33.1428 26.8572-13.7143 1.1428-17.7143 4.5714-18.8572 17.7143-2.2857 16.5714-76 95.4285-89.7143 95.4285-9.1428 0-22.8571 16.5715-22.8571 28 0 10.8572-79.4286 88.5715-87.4286 85.7143-12.5714-4.5714-86.8571-80-86.8571-87.4285 0-4.5715-6.8572-13.1429-15.4286-18.8572-8-5.7143-32.5714-26.8571-53.7143-46.8571-29.7143-27.4286-39.4286-40.5715-40.5714-54.2857-1.7143-14.8572-4.5714-17.7143-18.8572-19.4286-13.1428-1.7143-20.5714-8-32-25.7143-8.5714-13.1429-17.1428-29.1429-18.8571-35.4286-2.2857-6.2857-17.1429-17.7143-33.7143-25.7143-30.8571-14.8571-92.5714-73.14281-98.8571-93.71424-4.5715-15.42857-18.8572-32-33.7143-38.28572-6.2857-2.85714-18.85716-10.28571-28.57144-16-25.71429-16.57143-62.85715-34.85714-70.28572-34.85714-4 0-6.85714 3.42857-6.85714 7.42857zm150.2857 128.57143c48 49.1429 57.7143 64 42.8572 64-10.8572 0-142.85719-136-138.85719-142.85714 5.14286-8 35.42858 16.57143 95.99999 78.85714zm861.7143-57.14286c-24.5714 30.85715-118.2857 121.14286-125.7143 121.14286-3.4286 0-6.2857-3.4286-6.2857-7.4286 0-10.2857 136-142.28569 142.8571-138.28569 3.4286 2.28572-.5714 12-10.8571 24.57143zm-68 850.85716c62.2857 60.5714 86.8571 90.8571 78.8571 96-6.8571 4-142.8571-128-142.8571-138.8572 0-14.8571 14.8571-5.1428 64 42.8572z" style="stroke-width:.571429"/></svg>