<svg height="960" style="" width="1317" xmlns="http://www.w3.org/2000/svg"><path d="m499.78833 933.89842c0 7.38018 7.38013 15.99038 15.99029 18.45038 7.38013 2.46 44.28081 13.5301 79.95145 25.8304 60.2711 19.6803 67.65124 19.6803 129.15235 0 34.44063-12.3003 71.34131-23.3704 79.95146-25.8304 7.38013-2.46 14.76027-11.0702 14.76027-18.45038 0-9.84018-15.99029-11.07019-57.81105-4.92009-33.21061 6.15012-78.72144 9.84018-102.09186 9.84018s-68.88125-3.69006-100.86184-9.84018c-43.05078-6.1501-59.04107-4.92009-59.04107 4.92009zm489.54891-115.6221c-3.69006 3.69006-3.69006 20.91038 0 36.90067 4.92009 30.75056 59.04106 79.95146 134.07236 123.00221 44.2808 25.8305 66.4213 17.2203 43.0507-15.9903-8.61-11.0702-18.4503-29.5205-23.3704-39.36067-3.69-9.84019-23.3703-39.36073-44.2807-65.1912-25.8305-33.2106-44.2808-45.51083-68.8812-45.51083-18.4504 0-36.90069 2.46005-40.59076 6.15012zm-707.26288-8.61016c-30.75056 4.92009-82.41149 65.19119-130.38238 152.52274l-31.98057 57.8111 39.36071-23.3704c22.14041-13.5303 47.97088-28.2905 57.81105-33.2107 9.84019-3.69 39.36073-23.3704 65.19119-44.28074 33.21061-25.83047 45.51083-44.28081 45.51083-70.11128 0-40.59075-7.38014-46.74085-45.51083-39.36072zm307.5056-217.71397c-43.05078 20.91039-77.49141 41.82076-77.49141 47.97088 0 22.1404 125.46228 135.30247 148.83271 135.30247 46.74085 0 71.3413-46.74086 72.57132-138.99254 0-82.4115 0-82.4115-33.2106-81.18147-19.68037 0-68.88126 17.22031-110.70202 36.90066zm-114.39208-19.68035c0 12.30023 8.61016 18.45033 22.1404 15.99028 25.83047-4.92008 23.37042-27.06049-2.46005-31.98057-12.30022-2.46005-19.68035 3.69006-19.68035 15.99029zm323.49588-59.04107c-25.83046 4.92008-28.29051 12.30022-28.29051 77.4914 0 39.36072 4.92009 75.03137 9.84019 78.72144 6.1501 3.69007 31.98057-14.76027 56.58102-40.59074 35.67065-36.90068 45.51083-55.351 41.82076-82.41151-3.69006-36.90066-23.37043-44.28079-79.95146-33.21059zm-114.39208-20.91039c-14.76027 9.84019-13.53024 12.30022 9.84019 12.30022 14.76027 0 27.06049-6.1501 27.06049-12.30022 0-15.99029-13.53025-15.99029-36.90068 0zm196.80359-77.4914c0 22.1404 45.51083 102.09186 59.04108 102.09186 23.37042 0 17.2203-59.04108-9.84019-86.10158-24.60044-24.60044-49.20089-31.98057-49.20089-15.99028zm-476.01867-1.23003c-22.1404 23.37043-40.59074 55.35101-40.59074 71.3413 0 35.67065 51.66095 62.73114 86.10157 44.28081 12.30022-6.15012 36.90068-12.30022 54.12099-12.30022 33.2106 0 39.36071-11.07021 20.91038-46.74086-6.15011-11.07021-15.9903-38.1307-22.1404-57.81105-14.76027-51.66094-50.43093-50.43092-98.4018 1.23002zm703.5728-35.67065c12.3002 75.03137 12.3002 129.15235 0 202.9537-6.1501 43.05078-4.9201 59.04107 4.9201 59.04107 7.3801 0 15.9902-7.38014 18.4503-15.99029 2.4601-7.38013 13.5302-44.28081 25.8305-79.95145 19.6803-60.2711 19.6803-67.65124 0-129.15235-12.3003-34.44063-23.3704-71.34131-25.8305-79.95146-2.4601-7.38013-11.0702-14.76027-18.4503-14.76027-9.8402 0-11.0702 15.99029-4.9201 57.81105zm-921.28677-43.05078c-2.46003 8.61015-13.53024 45.51083-25.83046 79.95146-19.68036 61.50111-19.68036 68.88125 0 129.15235 12.30022 35.67064 23.37043 72.57132 25.83046 79.95145 2.46005 8.61015 11.07021 15.99029 18.45034 15.99029 9.84018 0 11.0702-15.99029 4.9201-59.04107-12.30023-73.80135-12.30023-127.92233 0-202.9537 6.1501-41.82076 4.92008-57.81105-4.9201-57.81105-7.38013 0-15.99029 7.38014-18.45034 14.76027zm583.03062 41.82076c0 66.42121 0 67.65124 34.44063 63.96117 23.37042-2.46005 34.44063-11.0702 36.90067-30.75056 3.69007-27.0605-41.82076-102.09186-61.50111-102.09186-4.9201 0-9.84019 30.75056-9.84019 68.88125zm-221.40402-36.90067c0 47.97087 39.36071 140.22255 60.27109 140.22255 8.61016 0 38.1307-17.22032 65.19119-38.13069 36.90066-30.75056 46.74085-45.51083 44.2808-71.3413-2.46004-25.83048-12.30022-33.21061-46.74085-39.36072-23.37042-4.92008-61.50112-12.30022-82.4115-17.22032-38.1307-8.61015-40.59073-7.38013-40.59073 25.83048zm49.20089-124.23227-28.29052 30.75056 46.74086 19.68037c100.86183 41.82076 146.37266 17.22031 89.79163-47.97088-35.67065-41.82076-71.3413-41.82076-108.24197-2.46005zm-12.30023-231.244214c-30.75056 11.070202-62.73114 20.910385-70.11127 23.370434-8.61016 2.460038-15.99029 11.070203-15.99029 18.450338 0 9.840173 15.99029 11.070191 59.04107 4.920086 31.98059-6.150116 77.49142-9.840183 100.86184-9.840183s68.88125 3.690067 102.09186 9.840183c41.82076 6.150105 57.81105 4.920087 57.81105-4.920086 0-7.380135-7.38014-15.9903-14.76027-18.450338-8.61015-2.460049-43.05078-13.530251-77.49141-24.600453-72.57132-23.370424-70.11128-23.370424-141.45258 1.230019zm-442.80806-3.690057c0 8.610154 8.61015 23.370424 18.45034 31.980578 9.84017 8.610154 18.45034 20.910375 18.45034 27.060491 0 7.380132 17.22031 34.440632 38.13069 61.501122 31.98058 40.59074 45.51083 47.97088 77.49141 44.28081 33.21061-3.69007 38.13069-7.38013 34.44063-34.44063-6.15012-40.59074-17.22031-52.89096-94.71173-104.55191-71.3413-46.740847-92.25168-52.890963-92.25168-25.830461zm1014.76847-15.9903c-19.6804 12.300233-45.5109 27.060491-55.351 31.980589-9.8402 3.690067-39.3607 24.600443-65.1912 44.280802-39.3607 30.75056-46.74084 43.05079-43.05077 75.03137 3.69007 33.21061 8.61017 38.13069 34.44067 34.44063 36.9006-4.92009 92.2516-66.42121 137.7623-150.062735 18.4504-34.440626 31.9806-61.501117 30.7507-60.271098-1.2301 0-18.4504 11.070202-39.3607 24.600442z" style="stroke-width:1.23002"/></svg>