<svg height="960" style="" width="1346" xmlns="http://www.w3.org/2000/svg"><path d="m277.23904 815.13241c0 8.58474 7.51164 16.09639 16.09639 16.09639 8.58474 0 16.09638-7.51165 16.09638-16.09639s-7.51164-16.09639-16.09638-16.09639c-8.58475 0-16.09639 7.51165-16.09639 16.09639zm80.48194-48.28917c-6.43855 10.73093 35.41206 76.18958 65.45866 101.9438 6.43854 5.36547 24.68113 28.97348 41.8506 50.43538l28.97351 40.77758h196.37594 196.37594l36.48515-45.06998c19.31567-25.75422 43.9968-53.65463 53.65464-64.38555 31.11968-31.11969 53.65468-71.89721 46.14298-83.70123-9.6578-15.02329-655.65958-15.02329-665.31742 0zm751.16482-32.19278c-19.3157 20.38876-18.2426 21.46185 1.0731 21.46185 11.804 0 26.8273-9.65782 34.339-21.46185 10.7309-17.16948 10.7309-21.46185-1.0731-21.46185-8.5847 0-23.608 9.65784-34.339 21.46185zm-887.44758-72.9703-24.68113 24.68113 41.85061 3.21928c43.9968 4.29238 79.40886-18.24257 66.53174-39.70442-12.87711-20.38876-59.02009-12.87712-83.70122 11.80401zm871.35118-34.33895c0 13.9502 42.9237 13.9502 64.3856 0 11.804-7.51165 5.3655-10.73093-23.6081-10.73093-22.5349 0-40.7775 4.29237-40.7775 10.73093zm-933.59055-107.30927c0 12.87712 96.57834 54.72773 108.38235 47.21608 20.38876-11.80402-37.55823-57.947-72.97029-57.947-19.31567 0-35.41206 4.29236-35.41206 10.73092zm955.05235-1.07309c0 20.38876 26.8274 33.26587 72.9704 33.26587 28.9734 0 31.1197-26.82731 3.2193-42.9237-35.4121-18.24258-76.1897-13.95021-76.1897 9.65783zm-91.2128-95.50524c-3.2193 5.36546 0 13.95021 9.6578 17.16948 22.535 8.58474 65.4587 1.07309 65.4587-11.80402 0-15.02329-66.5318-20.38875-75.1165-5.36546zm-527.96156-107.30925c-19.31568 7.51164-24.68113 18.24257-24.68113 48.28916 0 33.26587-9.65784 49.36226-61.16628 104.08998-62.23937 64.38556-62.23937 64.38556-62.23937 129.84421v66.53173h338.02417 338.02417v-72.97029c0-71.89721 0-71.89721-50.43536-122.33256-40.77751-39.70442-51.50844-57.94699-51.50844-84.77431 0-24.68113-8.58475-41.85062-27.90041-56.87391-26.82732-20.38876-41.85061-22.53495-201.7414-21.46185-94.43216 0-183.49884 4.29237-196.37595 9.65784zm101.94379 126.62491c3.21928 34.33897 2.14618 35.41206-32.19277 32.19279-23.60804-2.14619-36.48516-9.65784-38.63134-22.53495-6.43855-35.41206 6.43856-52.58154 37.55824-48.28917 25.75423 2.14619 31.11969 8.58475 33.26587 38.63133zm128.77111 0c3.21928 34.33897 2.14619 35.41206-32.19278 32.19279-23.60803-2.14619-36.48514-9.65784-38.63133-22.53495-5.36546-26.82731 18.24257-52.58154 45.06989-48.28917 17.16948 2.14619 23.60804 11.80402 25.75422 38.63133zm128.77112-1.07309c3.21928 33.26588 1.07309 35.41206-28.9735 35.41206-37.55824 0-48.28917-12.87712-39.70443-49.36226 5.36546-21.46185 12.87711-26.82731 36.48515-23.60804 23.60803 2.14619 30.04659 9.65784 32.19278 37.55824zm-255.39605 134.13658c0 28.9735-2.14618 31.11969-34.33895 27.90041-30.0466-2.14619-36.48516-8.58474-38.63134-33.26587-3.21928-22.53495 2.14618-31.11969 21.46185-38.63133 32.19278-11.80403 51.50844 4.29236 51.50844 43.99679zm257.54223 0c0 28.9735-2.14618 31.11969-34.33896 27.90041-30.0466-2.14619-36.48515-8.58474-38.63133-33.26587-3.21928-22.53495 2.14618-31.11969 21.46185-38.63133 32.19278-11.80403 51.50844 4.29236 51.50844 43.99679zm-130.9173-5.36546c3.21928 33.26587 1.0731 35.41206-28.9735 35.41206-37.55823 0-48.28917-12.87712-39.70442-49.36226 5.36546-21.46185 12.87711-26.82732 36.48514-23.60804 23.60804 2.14619 30.0466 9.65783 32.19278 37.55824zm-605.22422-266.12697c4.29237 6.43856 13.95021 11.80403 21.46186 11.80403 6.43855 0 18.24256 5.36545 25.75422 12.8771 16.09638 16.09639 89.06667 40.77752 100.8707 34.33897 17.16948-10.73093 7.51165-37.55825-18.24257-47.21607-46.14298-17.16949-138.42895-25.75423-129.84421-11.80403zm1012.99938 4.29237c-39.7044 32.19279-37.5582 39.70443 10.731 39.70443 28.9735 0 48.2891-7.51164 64.3856-24.68113 12.877-13.9502 20.3887-28.97351 16.0963-32.19277-15.0233-15.02331-63.3125-5.36547-91.2129 17.16947zm-974.36805-113.74781c1.07309 20.38876 35.41206 51.50844 69.75103 63.31246 34.33895 10.73093 37.55823 10.73093 37.55823-6.43856 0-25.75422-49.36226-64.38555-81.55504-64.38555-13.95019 0-25.75422 3.21928-25.75422 7.51165zm955.05235 0c-67.6048 51.50844-150.2329 129.8442-150.2329 142.72132 0 26.82731 53.6546 7.51164 97.6514-35.41206 61.1663-56.87392 120.1864-133.06348 109.4555-139.50204-5.3655-3.21928-30.0466 11.80401-56.874 32.19278zm-733.99528-8.58474c-59.02008 60.09318-63.31246 67.60483-62.23936 110.52853 3.21928 59.0201 16.09638 108.38236 31.11969 112.67473 18.24257 6.43855 56.8739-65.45866 56.8739-105.16308 0-24.68113 8.58474-45.06989 25.75422-61.16627 24.68113-22.53496 32.19278-23.60804 240.37274-23.60804h214.61852l5.36546-27.90041c2.14619-15.0233 2.14619-37.55824 0-48.28916-5.36546-19.31568-18.24257-20.38876-227.49562-20.38876h-222.13017zm653.51338-109.45545c-71.89719 37.55824-93.35904 78.33576-39.70441 78.33576 30.04661-1.07309 125.55191-76.18958 112.67481-90.13978-10.731-10.73093-38.6314-6.43856-72.9704 11.80402zm-689.99852 5.36546c2.14619 22.53495 8.58475 35.41206 19.31567 35.41206 20.38875 0 26.82731-34.33897 10.73093-53.65463-21.46185-25.754215-33.26588-18.24257-30.0466 18.24257zm563.37362-36.48514c-36.48516 40.77751-13.95021 62.23936 24.68113 23.60804 11.80401-11.80403 21.46185-26.82732 21.46185-32.192785 0-17.16947-27.90041-11.80401-46.14298 8.584745zm-430.31014-65.458652c-12.87711 12.877116-5.36546 40.777527 20.38877 72.970292 23.60803 27.90041 26.8273 28.9735 33.26586 11.80402 5.36547-12.87711 1.07309-24.68113-9.65783-33.265865-10.73093-7.51164-18.24258-20.38876-18.24258-30.04659 0-19.315671-15.02329-32.192777-25.75422-21.461857zm151.30606 3.219279c-7.51165 28.973498 6.43856 78.335753 23.60803 83.701223 9.65784 3.21928 11.80403-9.65784 9.65784-47.216065-3.21928-52.581544-23.60804-75.116491-33.26587-36.485158zm168.47553-24.681129c-3.21928 10.73093-13.9502 37.558247-23.60803 60.093187-21.46185 51.508445-5.36547 75.116485 28.9735 40.777515 16.09638-16.09639 22.53494-36.485145 22.53494-70.824108 0-48.289168-17.16948-65.458649-27.90041-30.046594z" style="stroke-width:1.07309"/></svg>