<svg height="960" style="" width="949" xmlns="http://www.w3.org/2000/svg"><path d="m458.59629 3.3729942c-4.99827 2.726359-10.45102 6.8158798-11.81417 9.0878438-1.36313 2.27194-9.54221 12.268563-18.6301 23.173964-24.53707 29.081053-85.42559 102.692508-105.87317 128.138428-20.90205 25.90031-26.35473 32.71622-50.4375 61.79726-9.99661 11.35976-29.08102 34.9881-42.71275 51.80064-13.63183 16.81244-32.71625 40.44079-42.71286 51.80066-69.06751 82.69923-72.2483 87.24317-62.25168 93.60467 2.27198 1.36314 20.44765-4.99836 39.98649-14.08615 73.61143-34.07938 102.69254-46.34797 110.41719-48.16552 5.90708-1.36316 7.27024 16.81251 9.0878 132.68232 2.27196 130.41043 2.72637 134.04555 11.35975 135.40869 7.27033.90883 15.90371-7.72465 36.35136-35.44254 14.54055-19.99322 28.17229-36.35134 30.44426-36.35134 1.81758 0 3.63512 76.33783 3.63512 169.9425 0 110.41713 1.81756 171.30559 4.54395 173.12316 2.72629 1.81755 25.4459-18.63004 50.43741-44.98478 25.44591-26.35472 49.52867-48.16553 54.07261-48.16553s28.6267 21.81081 54.07261 48.16553c24.99151 26.35474 47.71112 46.80233 50.43741 44.98478 2.72639-1.81757 4.54395-62.70603 4.54395-173.12316 0-148.1317.90883-169.9425 6.81591-169.9425 3.63511 0 6.81582 2.27197 6.81582 4.54394 0 2.7263 10.90544 19.08441 24.08277 36.80568 17.26685 23.17403 25.90032 31.35309 32.71624 30.44426 8.63338-1.36314 9.08779-5.90708 11.35975-135.40869 1.81756-115.86981 3.18072-134.04548 9.0878-132.68232 7.72465 1.81755 36.80576 14.08614 110.41719 48.16552 19.53884 9.08779 37.71451 15.44929 39.98649 14.08615 9.99662-6.3615 6.81583-10.90544-62.25168-93.60467-9.99661-11.35987-29.08103-34.98822-42.71286-51.80066-13.63173-16.81254-32.71614-40.44088-42.71275-51.80064-24.08277-29.08104-29.53545-35.89695-50.4375-61.79726-16.35804-20.44766-55.8901-68.158741-104.51004-127.229649-9.99661-12.268564-19.99323-24.537151-22.71961-28.1722768-6.36141-8.17905307-29.98977-11.359795-40.89521-4.99831zm31.80741 114.0522558c5.45268 5.45278 16.35812 19.0845 24.9915 30.44426 8.63348 11.35978 19.99324 25.44591 25.90034 31.80741 5.45276 6.36151 28.6267 33.62498 50.8919 61.34287 44.98474 54.52701 45.43915 60.88844 2.72629 40.89528-38.16882-18.17568-39.07764-16.81252-38.16882 47.71112.45432 29.98976-.45441 56.3445-2.27198 58.16206-1.81754 1.81756-7.72463-2.27196-12.72299-9.54221-4.99827-6.81591-10.90535-11.35975-13.17733-9.5422-2.27196 1.36314-4.08952 54.07262-4.08952 120.41373 0 113.59792-.45441 117.68745-9.08789 117.68745-4.54385 0-14.54047-7.27025-21.35637-15.90371-6.81582-8.63349-15.90372-15.90371-19.53883-15.90371s-12.72301 7.27022-19.53883 15.90371c-6.8159 8.63346-16.81252 15.90371-21.35637 15.90371-8.63348 0-9.08789-4.08953-9.08789-117.68745 0-66.34111-1.81755-119.05059-4.08952-120.41373-2.27198-1.81755-8.17906 2.72629-13.17733 9.5422-4.99836 7.27025-10.90544 11.35977-12.72299 9.54221-1.81757-1.81756-2.7263-28.1723-2.27198-58.16206.90882-64.52364 0-65.8868-38.16883-47.71112-44.53041 20.90197-42.71285 13.63173 12.26851-52.25506 28.1723-33.62497 58.61655-70.43072 67.25003-81.7905 24.08267-31.35299 33.62496-40.8952 40.8952-40.8952 3.63511 0 10.90544 4.54385 15.9037 10.45094z" style="stroke-width:.454392"/></svg>