<svg height="960" style="" width="1765" xmlns="http://www.w3.org/2000/svg"><path d="m777.2471 302.87262c5.9246 8.8868 5.9246 13.034 0 18.9586-3.5547 3.5547-7.1095 11.8491-7.1095 17.1812 0 6.517-8.2944 11.8492-27.253 16.5888-22.5133 5.9246-26.0681 8.8869-23.1058 18.3662s1.1849 11.8491-8.2944 11.8491c-7.1095 0-12.4416 3.5547-12.4416 8.2944 0 8.8868-12.4416 15.4039-29.0304 15.4039-5.9245 0-15.4038 5.3321-21.3284 11.8491s-14.8114 11.8491-20.1435 11.8491c-7.702.5925-7.702 1.7774 1.7773 8.8869 15.9964 11.8491 9.4793 16.5888-32.5851 21.3284-19.5511 2.3699-37.3248 5.9246-39.6946 8.2944-7.1095 7.1095 17.7737 20.1436 45.6192 23.6983 44.4342 5.9246 56.2834 9.4793 50.3588 14.8114-2.9623 2.3698-10.6642 5.9246-16.5888 7.1095-17.1812 2.9623-14.8114 13.6265 3.5548 15.4039 8.2943 1.1849 18.9586 5.9245 22.5133 10.6642 4.1472 4.7396 13.6265 8.2944 21.3284 8.2944 15.9964 0 23.6983 9.4793 14.8115 20.1435-4.7397 5.3321 2.3698 11.2567 30.8077 23.6983 43.8418 19.5511 52.1362 29.0304 47.3966 51.5437l-2.9623 17.1813h199.0654 199.658l14.2189-15.4039 14.8114-15.9963v-152.8539-152.2614l-15.4038-18.3661-15.4039-18.3662h-200.8428c-198.4731 0-200.8429 0-193.7334 11.8492zm-91.2383 134.4876c-5.9246 1.185-16.5888 1.185-23.6983 0-7.7019-1.1849-2.9623-2.3698 10.0718-2.3698 13.034-.5924 18.9586.5925 13.6265 2.3698zm131.5254-197.2881c-15.9964 19.5511-2.9623 27.2531 44.4342 27.2531h45.0267l-1.7773-16.5888c-1.7774-15.4039-2.9623-15.9964-40.8796-17.7737-29.6228-1.185-40.8795.5924-46.804 7.1094zm113.7517-232.2429873c-7.1095 7.1094803-42.6569 32.5851203-143.3746 101.9025873-21.3284 14.8114-61.023 42.6569-88.8685 62.2079-88.8685 62.8004-135.0801 87.0912-176.5521 93.6082-22.5134 3.5547-28.4379 10.6642-18.9586 22.5133 5.9246 7.702 4.7396 8.8869-10.6642 8.8869-9.4793 0-20.736 4.1472-24.8832 8.8868-4.1472 4.7397-16.5888 10.0718-29.0304 11.8492-11.84913 1.7773-29.03038 7.1095-39.10214 11.8491-9.47931 4.1472-24.29073 10.0718-32.58513 12.4416-13.6265 4.1472-12.44159 5.3321 11.25668 9.4793 39.10215 6.517 40.87952 13.6265 5.33211 22.5134-18.95861 4.7396-39.10214 11.2566-81.75903 27.253-11.25668 4.1472-28.43792 8.8868-37.32477 11.2567-26.66056 5.3321-12.44159 14.8114 23.10581 14.8114 23.69827 0 31.99266 2.3698 30.80775 7.1095-2.96228 7.7019-15.99633 11.8491-69.9099 22.5133-77.61182 15.4039-122.04607 25.4756-126.78573 27.8455-8.88685 5.9245 11.25668 13.6265 34.95495 13.6265 13.03405 0 39.6946 4.1472 59.24567 8.8868 19.55107 4.7397 43.84179 8.2944 53.91356 8.8869 10.07176 0 21.9209 4.1472 26.06809 8.8868 4.1472 4.7397 10.66423 8.8869 15.40388 8.8869 4.1472 0 9.47931 2.9623 11.84913 6.517 2.96229 5.3321-7.70193 5.9246-39.6946 3.5548-36.73232-3.5548-41.47197-2.9623-29.03038 3.5547 8.2944 3.5547 18.36616 10.0718 22.51336 14.219s13.03405 7.7019 18.95861 7.7019c6.51703 0 20.14353 3.5547 30.80776 8.2944 27.84546 11.2567 58.65321 21.9209 77.61183 26.0681 25.47564 6.517 21.9209 15.4039-7.70194 18.9586-33.77003 3.5547-34.36249 13.034-1.77737 18.9586 13.62651 2.3698 30.2153 7.1095 36.73232 10.0718 6.51698 3.5547 18.95858 6.517 28.43788 6.517 8.8869 0 20.736 2.9623 25.4757 5.9246 7.7019 4.7396 7.1095 6.517-2.3698 13.6265-10.0718 7.7019-8.8869 8.8868 17.7737 18.3661 15.9963 5.3321 37.9172 12.4416 49.1739 15.4039 10.6642 2.9623 22.5133 7.7019 26.0681 11.2567 3.5547 3.5547 11.8491 6.517 18.9586 6.517s15.4039 2.9623 18.9586 6.517c3.5547 3.5548 11.8491 9.4793 18.3662 13.6265 7.1094 3.5548 34.9549 22.5134 63.3928 42.0645 27.8455 19.551 55.691 37.9172 61.0231 41.4719 5.3321 2.9623 24.8832 17.1813 43.8418 30.8078 18.3661 14.219 34.9549 25.4756 36.7323 25.4756 3.5547 0 79.9817 51.5438 93.0157 62.8004 13.6265 12.4416 27.8455 10.0718 52.1362-7.7019 11.8491-9.4793 26.0681-19.5511 31.4002-22.5133 5.3321-3.5548 45.0267-30.2153 87.6836-59.2457 42.6569-29.6229 84.1289-57.4683 91.8308-62.208 7.7019-4.7396 37.3248-24.8832 65.1702-44.4342 28.438-19.5511 57.4683-39.6946 65.1703-44.4343 7.7019-4.7396 36.7323-24.8832 65.1702-44.4342 27.8455-19.5511 57.4683-39.6946 65.1703-44.4343 7.7019-4.7397 49.1739-33.1776 91.8308-62.208 42.6568-29.6228 82.9439-55.6909 89.4609-59.2456 18.3662-9.4793 11.2567-20.736-33.1776-51.5438-103.6799-71.6872-121.4536-84.1288-171.8124-120.2687-29.0304-21.3284-57.4683-40.287-62.208-42.6569-4.7396-2.3698-29.0303-18.9586-54.506-36.7323-24.8832-18.3662-62.8004-45.0267-84.1288-59.8381-21.9209-14.8114-55.691-39.1021-76.427-53.9136-20.1435-14.8114-39.6946-28.4379-43.2493-29.6228s-21.9209-13.626507-41.472-27.845507c-118.4913-85.3137403-121.4536-87.0911103-137.4499-71.0947803zm79.9816 98.3477873c25.4757 18.9587 50.3588 36.1399 55.0985 38.5097 4.7396 2.3699 33.1776 21.3285 62.208 42.6569 61.023 43.8418 107.2346 75.8345 253.5714 176.5521 20.736 14.219 49.7664 34.3625 63.9854 45.0267 14.2189 10.0718 42.6569 30.8078 63.3928 45.0267 20.1436 14.8114 36.7324 30.2153 36.7324 33.7701 0 6.517-17.7737 19.551-85.9063 63.9853-30.8077 19.5511-302.1529 204.3976-386.8742 263.0508-23.6983 16.5888-47.989 32.5851-53.3211 36.1398-5.3321 2.9623-20.1436 13.6266-32.5852 23.1059-27.253 20.1435-47.3965 21.3284-66.3551 3.5547-13.6265-13.034-14.8114-17.7737-15.9963-94.2006l-1.7774-80.5741-40.8795-1.7774c-29.0304-1.1849-42.6569.5924-45.6192 5.9246-2.9623 4.1472-5.3321 26.0681-5.3321 48.5814 0 47.989 2.3698 47.989-69.9099-1.1849-27.253-18.3662-55.6909-37.9172-63.3929-42.6569-36.7323-23.6983-87.0911-58.6532-127.3782-88.8685-24.2907-18.3662-53.9135-38.5097-65.1702-45.0267-36.1399-19.5511-37.3248-33.1776-1.7774-27.8455 16.5888 2.9623 20.736 1.7774 18.3662-4.7396-1.7774-4.7397-7.702-9.4793-14.219-10.6643-5.9246-1.1849-14.8114-4.7396-19.5511-8.2944-8.8868-7.7019-51.5437-20.7359-82.35145-26.068-10.66422-1.7774-20.73599-5.3322-21.9209-8.2944-4.1472-6.5171 40.28706-29.0304 58.06076-29.0304 7.10948 0 15.99629-2.3698 18.95859-5.3321 3.5548-2.9623 14.8114-7.702 26.0681-10.6643 28.4379-7.1094 30.8078-19.551 4.1472-19.551-24.8832 0-33.1776-9.4793-14.2189-17.7737 7.7019-3.5548 21.9209-11.2567 31.4002-17.7737 10.0717-6.5171 21.9209-13.6265 26.6605-15.9964 4.7397-1.7773 20.736-15.4038 34.3625-29.6228 14.219-13.6265 28.4379-25.4756 31.4002-25.4756s22.5134-11.8492 42.6569-26.6606c52.1362-38.5097 130.3405-93.6081 141.5972-100.7176 17.7737-10.6642 78.2043-52.7287 125.0083-87.6836 25.4757-18.366207 52.7287-33.770107 60.4306-33.770107 7.702 0 34.955 15.4039 60.4306 34.362507z" style="stroke-width:.592457"/></svg>