<svg height="960" style="" width="1200" xmlns="http://www.w3.org/2000/svg"><path d="m776.41993 880.89944c-53.062 19.21213-72.7316 24.24387-118.4748 31.5628-50.31746 8.23373-78.2208 7.77627-130.82546-2.2872-34.76494-6.86147-73.1892-17.83987-87.82694-25.61613-17.3824-9.14867-38.88173-7.7764-49.86013 3.202-11.43573 11.43573-8.6912 20.5844 8.23374 27.44586 6.8616 2.74467 18.29733 7.7764 25.15879 11.43587 6.404 3.65947 15.09534 6.404 19.21214 6.404 3.65946 0 13.72293 2.74453 21.9568 6.404 47.57293 20.12707 153.2396 26.98853 217.28013 13.72307 59.46613-11.89334 119.84707-32.47774 134.02747-45.28587 8.6912-7.77627 8.6912-8.6912 1.3724-17.3824-13.72307-14.63773-21.04187-16.46747-40.25414-9.606zm177.4836-276.74627c-5.94653 2.28707-10.52093 6.86147-10.52093 10.06347 0 3.65947-5.03173 15.55267-11.43573 26.53107-6.40414 10.97826-12.80814 23.32893-14.63787 26.9884-5.94653 13.72306-42.08373 57.6364-64.0404 78.22093-32.9352 31.10533-54.89187 46.658-93.7736 65.87013-29.73307 14.1804-35.67973 18.75467-35.67973 27.90334 0 15.09533 9.14866 14.1804 47.57293-5.03174 39.79667-20.12693 46.20067-23.7864 69.52973-42.08373 48.03027-37.50933 89.1992-87.82693 116.1876-142.71867 19.21227-38.88173 18.29734-53.97706-3.202-45.7432zm-720.91266-1.82973c-5.94653 5.4892-3.202 16.01013 13.2656 48.48773 40.254 80.96547 102.92213 143.17614 183.43013 183.43014 34.7648 17.3824 45.28573 19.6696 48.48787 10.52093 2.74453-8.6912-1.82974-21.4992-8.23387-21.4992-5.94653 0-48.9452-21.9568-76.39106-39.3392-22.8716-14.63787-82.7952-75.0188-97.8904-98.80533-6.40414-10.06347-18.7548-32.02014-27.446-48.48774-16.92494-33.39253-26.9884-42.99853-35.22227-34.30733zm773.51733-332.0956c-10.06347 10.52094-10.52093 23.78654-1.8297 39.79654 9.1486 18.29733 16.925 41.6264 21.4993 64.95533 2.2872 11.43586 5.9467 28.81826 8.2337 38.88173 7.319 27.44587 5.9467 103.83707-1.8297 140.88907-9.606 42.99853-25.1587 94.23093-30.1904 97.43293-14.63787 8.6912 8.2337 51.2324 24.2439 45.28573 10.0634-4.1168 32.0202-62.21066 47.1154-123.964 5.9467-26.53106 7.319-46.658 5.4892-105.20933-2.7446-88.2844-12.3506-129.91066-44.3709-198.52546-4.5743-10.06347-19.2121-10.06347-28.3608.45746zm-835.27053-3.65946c-5.4892 5.94666-10.0636 13.2656-10.0636 16.4676s-2.74453 11.43573-6.404 17.83986c-18.75467 36.59454-34.7648 118.01733-34.7648 176.56867 0 47.57293 9.606 112.52826 21.04187 139.05933 3.65946 8.23373 6.404 17.83973 6.404 21.04187 0 10.97826 22.8716 58.09373 29.2756 60.38093 10.0636 3.65947 25.61626-14.63787 25.61626-29.73307 0-7.31893-2.74466-19.21213-6.40413-26.53106-11.43573-22.8716-16.92493-43.91347-26.53093-95.14587-12.80814-70.4444-7.31894-134.02747 18.2972-205.84426 16.92506-48.0304 17.83986-61.75334 4.5744-74.56134l-10.9784-10.0636zm403.45493 140.43159c-36.59467 16.92494-51.68987 47.11547-45.7432 88.74174 3.65947 24.244 26.0736 48.9452 53.51947 57.63653 15.0952 5.03173 22.41413 5.03173 39.79653.45733 49.40267-13.26546 74.104-65.41266 51.68987-109.32613-10.9784-21.04187-20.5844-29.27573-45.28574-38.88173-24.24386-9.60614-30.648-9.60614-53.97693 1.37226zm-70.44453-13.72293c0 2.2872-2.2872 4.57427-5.4892 4.57427-8.23374 0-30.648 27.90333-40.71147 49.86013-11.43573 26.53107-11.8932 79.13573-.45747 103.83707 15.09534 33.39253 32.02027 55.3492 56.26414 73.18906 36.59453 26.53107 50.77493 31.10534 100.1776 31.5628 38.88173 0 46.20066-1.37226 69.5296-13.2656 35.22226-17.83973 81.42293-66.78506 63.1256-66.78506-2.28707 0-10.97827 6.8616-19.66947 15.5528-8.23387 8.23373-26.53107 21.04186-40.254 27.90333-21.49933 10.97827-30.19053 12.808-63.58307 12.35067-47.57293 0-74.104-10.52094-105.20933-42.08374-31.10533-30.648-42.08373-57.6364-42.08373-103.3796 0-37.96693 4.11693-49.86013 27.44586-83.25266 5.94667-7.77627 8.6912-14.63787 5.94667-14.63787-2.74467 0-5.03173 1.82973-5.03173 4.5744zm59.46613-91.94386c-37.50947 6.40413-73.64653 27.446-98.34787 57.6364-9.60613 11.43586-16.01013 22.41426-14.1804 24.24399 1.82974 1.82974 5.94667 0 8.6912-3.65946 6.86147-8.6912 37.052-31.5628 58.09387-43.45613 13.26547-7.3188 24.24387-9.14854 61.75333-9.14854 52.60467 0 71.8168 7.3188 104.75187 40.254 32.02027 32.02013 40.71147 53.97693 40.71147 99.26267 0 38.42426-3.65947 51.68986-25.61627 83.25266-10.97827 16.46747 2.2872 13.72294 17.3824-3.20213 26.07373-29.2756 34.30747-50.77493 34.30747-91.02893 0-30.1904-1.82974-39.33907-14.1804-63.58294-14.63787-29.73306-35.22227-54.43439-54.4344-64.95533-46.20067-24.70133-78.67827-32.02026-118.93227-25.61626zm-149.1228-95.6032c-35.22226 17.3824-65.4128 49.40266-86.91213 91.4864l-16.46747 32.93506 10.06347 19.21214 10.52093 18.75466-10.06346 37.50947c-11.43587 45.28573-12.80814 106.12413-2.74467 135.8572 9.60613 28.3608 9.60613 48.9452 0 63.58306-9.14853 14.1804-7.3188 25.1588 9.60613 61.29587 11.8932 25.1588 49.86 67.24253 67.24254 74.56147 5.48906 2.74453 13.26546 6.404 16.92493 8.6912 3.65947 2.28706 15.55266 7.77626 26.0736 11.8932 18.75466 7.77626 19.21213 7.77626 31.5628-1.82974 15.0952-11.8932 19.21213-11.8932 61.75333-.45746 44.82827 11.8932 95.14587 11.8932 142.71867-.45747l37.50946-10.06347 18.75467 10.06347 18.7548 10.0636 30.1904-14.63787c43.45613-21.04186 75.93373-51.68973 93.7736-88.2844 16.01013-32.4776 17.83987-50.31746 7.7764-64.0404-8.69133-11.43586-8.69133-28.3608 0-53.06213 9.606-26.9884 9.606-117.56 0-140.4316-9.60613-22.8716-10.0636-49.86-.91493-59.9236 4.57426-4.57426 7.7764-11.8932 7.7764-16.01 0-12.80813-26.98854-64.498-42.5412-81.42293-17.83987-18.75467-50.77494-45.28573-57.17907-45.28573-2.28707 0-10.52093-3.202-17.3824-6.86147-16.92493-8.6912-40.254-8.6912-47.57293 0-3.202 3.65947-11.43574 6.86147-18.2972 6.86147-6.86147 0-21.49934-3.202-32.02027-6.86147-13.26547-4.5744-37.052-6.86147-74.104-6.86147-37.9668 0-59.00867 2.28707-70.90187 6.86147-20.12706 8.6912-37.50946 8.6912-48.9452 0-13.2656-10.06347-33.85-7.7764-64.95533 6.86147zm274.91653 84.62493c43.456 20.5844 80.05054 57.6364 101.54987 102.92213 15.55267 32.4776 16.4676 37.052 16.4676 83.25253.45733 49.40267-1.37227 57.17907-23.78653 103.83707-10.97827 23.32907-59.00867 70.902-82.79507 81.42293-51.2324 23.32894-54.89187 24.24387-97.43307 24.24387-120.762 0-209.04639-87.82693-209.04639-208.13147 0-41.16893 5.03173-61.75333 25.61626-102.92226 12.35067-24.70133 60.8384-69.5296 91.02893-84.16747 53.06214-25.61613 123.964-26.0736 178.3984-.45733zm-263.02333-166.04787c-42.5412 23.78654-70.44453 43.45614-98.80533 71.35947-26.9884 26.53107-52.60467 56.72147-58.09373 69.5296-1.82974 3.65947-7.31894 12.80813-12.35067 20.5844-5.03187 7.31893-10.0636 16.92493-11.43587 20.5844-1.37226 3.65947-5.94666 12.80813-9.606 19.6696-10.0636 20.12707-8.23386 30.648 5.03174 30.648 8.6912 0 12.808-4.11693 18.75466-17.3824 16.01014-37.052 18.29734-41.6264 40.254-71.8168 20.12707-27.446 52.1472-60.38107 80.508-81.8804 29.2756-22.8716 74.104-48.48773 84.62493-48.48773 7.31894 0 16.92494-17.38241 12.80814-24.24388-4.11694-6.86146-27.446-1.82973-51.68987 11.43574zm300.07533-15.55267c-1.37226 1.37227-2.74466 6.86147-2.74466 11.8932 0 7.31893 8.69133 13.72307 38.4244 27.44601 46.20053 21.49933 86.912 53.51946 122.59173 96.06066 22.8716 26.98854 51.68973 77.306 60.38093 104.75187 4.11694 12.35067 28.3608 9.14867 26.53107-3.65947-1.82973-12.808-27.44587-64.0404-43.91347-89.1992-18.2972-26.9884-77.76346-86.912-103.83706-103.3796-43.456-28.3608-91.94374-49.86-97.43294-43.91347zm-217.7376-101.54987c-11.43573 3.202-25.1588 6.40414-30.64786 6.40414-5.4892 0-16.92507 2.74453-25.1588 6.403997-8.23374 3.659466-26.98854 11.435733-42.08373 17.3824-14.63787 5.4892-27.90334 13.265466-28.81827 16.4676-3.65947 9.606 16.92507 28.360666 31.10547 28.360666 6.86146 0 13.72293-1.829733 15.09519-4.1168 3.202-4.5744 51.2324-20.127066 94.6884-30.190533 33.85-7.7764 115.73027-9.148667 143.6336-1.829733 10.06347 2.2872 27.44587 5.946666 38.88174 8.233733 23.32906 4.5744 46.658 12.350667 64.95533 21.499333 16.92493 9.148667 29.73307 7.7764 40.71147-3.202 10.06346-10.063466 10.06346-21.9568-.45747-26.988533-3.65947-1.829733-13.72293-6.404-21.9568-10.520933-8.6912-4.1168-18.2972-7.776267-21.4992-7.776267-3.65947 0-13.2656-2.744667-21.49933-6.404133-8.23374-3.659467-29.73307-9.605997-47.57294-13.722937-42.5412-9.606-159.64373-9.606-189.3768 0z" style=""/></svg>