<svg height="960" style="" width="1260" xmlns="http://www.w3.org/2000/svg"><path d="m1048.2583 234.73473c0 2.6038 3.1246 11.4569 7.2907 19.7892 20.3101 41.1409 34.3709 79.6778 37.4955 103.1125 1.5623 14.0608 5.2077 34.8916 7.8115 45.8278 8.8531 34.3708 6.77 123.9432-3.1246 143.2117-6.77 13.0193-7.2908 19.2685-3.1246 23.4347s9.3739 2.6038 19.2685-7.8116c14.0608-13.54 14.0608-14.0608 13.54-93.7386-.5208-63.0132-3.1246-86.4478-10.4154-110.924-5.7285-16.6646-13.0192-31.767-16.1439-32.8085-3.1246-1.0416-5.7284-9.8946-5.7284-19.2685 0-18.7477-12.4985-50.5147-25.5178-66.6586-7.8115-9.3738-21.3515-11.9777-21.3515-4.1661zm-295.7974-232.7842506c1.5623 3.64539 9.8946 7.29078 19.7892 8.3323196 9.3739 1.04154 20.3101 5.2077 24.4762 9.37386 4.1662 4.16616 13.0193 7.29078 19.2685 7.29078 6.77 0 15.1023 3.64539 18.7477 7.81155s10.4154 7.81155 15.1024 7.81155c4.6869 0 11.4569 2.60385 14.5815 5.72847s9.8947 4.68692 15.1024 3.12462c9.3738-2.08308 9.3738-2.08308-.5208-6.24924-5.7285-2.60385-12.4985-7.29078-14.5816-11.45694-2.0831-3.64539-8.8531-6.77001-14.5815-6.77001-5.7285 0-14.0608-3.64539-18.227-7.81155-4.6869-4.16616-14.0608-7.81155-20.8308-7.81155-7.2908 0-16.6646-3.6453896-20.8308-7.8115496-9.8946-9.89463-40.0993-10.93617-37.4954-1.56231zm-161.9595 379.6413506c-69.2625 31.2462-87.4894 115.611-37.4955 170.2918 31.767 34.8916 78.1155 45.8278 115.611 28.1216 46.8693-22.3931 67.1793-52.5978 67.1793-99.9878 0-47.3901-20.31-77.5948-67.1793-99.9879-24.997-11.9777-49.994-11.4569-78.1155 1.5623zm-121.3395-.5207c-39.0577 42.1823-48.4316 66.1378-48.4316 127.5886 0 48.9524 1.0416 54.1601 18.227 88.0102 38.0162 77.0739 124.9848 133.3171 205.1834 133.3171 27.08 0 75.5116-13.0192 106.2371-28.6423 22.3931-11.457 79.157-64.0548 79.157-73.4286 0-4.1662 2.0831-7.2908 4.687-7.2908 5.7284 0 13.0192-20.31 8.853-24.4762-1.5623-1.5623-14.0607 9.8946-28.6423 25.5177-79.6778 86.9686-204.1419 96.8633-291.6312 21.8724-45.307-39.0578-64.0548-80.1986-66.6586-147.378-2.0831-39.0577-.5208-53.6393 6.77-70.3039 10.4154-22.9139 28.1216-51.5563 34.8916-54.1601 4.6869-2.6039 4.6869-16.6646-.5208-16.6646-2.0831 0-14.5815 11.4569-28.1216 26.0385zm92.1763-142.1703c-35.9331 10.9362-58.847 22.3931-83.3232 40.6201-23.9554 18.2269-54.6808 49.9939-54.6808 56.7639 0 2.6039-4.1662 9.3739-8.8531 14.5816-6.2493 7.2908-7.2908 10.9362-2.6039 15.6231 4.1662 4.1662 6.77 3.6454 9.3739-4.1662 6.2492-16.6646 48.9524-53.6393 84.8855-73.9493 66.1378-37.4955 172.8957-23.9554 228.0973 28.6423 20.31 19.7893 48.4316 56.2432 48.4316 63.534 0 3.6454 3.6454 11.9777 8.3323 18.7477 6.2493 9.3739 8.3324 25.5177 8.3324 60.9301 0 53.1186-5.7285 70.8247-36.4539 114.5694-18.7478 27.0801-18.227 29.6839 3.1246 16.1439 17.7062-11.4569 30.7254-27.08 50.5147-60.9301 14.5815-24.997 15.6231-29.6839 15.6231-81.2401 0-52.5978-1.0416-56.2432-18.227-90.614-48.4316-94.2594-160.9179-147.8987-252.5735-119.2564zm-406.20062-261.947321c-20.8308 8.8531-27.08004 17.1854204-33.32928 43.74469-5.72847 26.55927.52077 55.722428 15.6231 71.866228 13.01925 14.060803 45.82776 23.955503 65.617 19.789303 12.4985-2.6038 19.2685 0 32.8085 11.9777 19.2685 17.1854 18.7478 26.5593-2.6038 49.4732-7.2908 7.8115-13.0193 15.1023-13.0193 16.6646s-6.2492 11.457-13.54 22.3931c-52.07699 76.5532-85.40627 209.8704-74.99087 300.4844 4.68693 38.0162 11.45694 53.1185 21.87234 46.8693 2.08308-1.0416 3.64539-39.0578 3.64539-84.3648 0-60.9301 2.08308-87.4894 7.81155-104.6748 4.68693-12.4985 8.33232-26.0385 8.33232-30.2046 0-31.767 82.80247-173.4165 101.02937-173.4165 9.3739 0 29.1632 22.3931 29.1632 33.3293 0 5.2077-7.8116 18.7477-17.1855 30.7255-33.85 42.7031-76.5532 148.9402-76.5532 190.6018 0 5.2077 9.3739 19.2685 20.8308 30.7254 11.457 11.457 20.8308 23.9554 20.8308 28.1216s-9.3738 16.1439-20.8308 27.0801c-11.4569 10.9361-20.8308 23.9554-20.8308 29.6838 0 41.6617 42.7032 147.8987 76.5532 190.6019 9.3739 11.9777 17.1855 26.0385 17.1855 31.2462 0 11.9777-20.8309 32.8085-32.2878 32.8085-8.3323 0-35.4124-31.2462-35.4124-41.1408 0-3.1246-2.083-5.7285-4.6869-5.7285-2.6038 0-7.2908-6.2492-10.4154-14.5816-3.1246-7.8115-7.8115-17.7061-10.4154-21.8723-11.9777-20.31-30.72543-71.3455-36.97467-100.5086-4.68693-24.4762-6.24924-26.0385-18.22695-17.1854-8.85309 6.2492-9.37386 9.3738-3.12462 29.6839 10.93617 37.4954 33.32929 86.9686 52.59774 116.6525 7.2908 11.4569 15.1024 24.9969 17.1855 29.6839 1.5623 5.2077 5.7284 9.3738 8.853 9.3738 2.6039 0 5.2077 3.1246 5.2077 7.2908s3.6454 8.3323 7.8116 10.4154c26.0385 9.8946-11.4569 58.847-40.6201 53.1185-20.83078-4.1661-52.59775 6.2493-67.17931 21.3516-9.89463 10.9362-11.97771 18.7477-11.97771 48.4316 0 30.2047 2.08308 37.4955 11.97771 48.4316 24.47619 26.03865 74.47011 28.12165 101.55021 4.16625 15.1023-12.49855 25.5177-42.18245 21.8723-63.01325-2.0831-15.1023 0-20.8308 13.0192-34.8916 16.1439-18.2269 34.8916-22.3931 39.5786-9.3738 2.0831 4.1661 6.2492 7.8115 9.8946 7.8115s7.8116 2.6039 8.8531 6.2493c1.0415 3.1246 5.2077 4.6869 8.8531 3.6454 4.6869-1.5624 2.0831-7.8116-9.3739-18.7478-19.7892-19.7892-20.31-29.6839-2.6038-45.8277 18.2269-16.6647 24.4762-16.1439 50.5147 3.6454 42.7031 33.3292 95.3009 57.8054 151.0233 71.3455 36.9747 8.853 41.6616 7.8115 66.6586-15.1024 33.3292-30.2046 36.9746-30.2046 63.5339-1.5623l23.4347 24.4762 35.4123-6.77c52.5978-10.4154 110.9241-36.4539 154.6687-69.2624 14.5816-10.9362 30.2047-19.7893 34.8916-19.7893 9.8947 0 31.2462 20.8308 31.2462 30.2047 0 9.3738-57.2847 49.4731-101.5501 71.3455-27.0801 13.54-39.0578 22.3931-39.0578 29.1631 0 15.6231 6.2493 15.1023 46.8693-6.2492 21.3516-10.9362 42.7032-21.3516 46.8693-23.4347 4.1662-2.0831 21.3516-14.0608 37.4955-26.5593 16.1439-12.4984 31.767-22.3931 34.8916-22.3931 2.6038 0 11.4569 7.8116 19.2685 17.7062 11.4569 14.5816 14.0608 22.9139 14.5815 48.9524.5208 34.8916 9.3739 49.47315 38.0162 61.45095 33.8501 14.5815 69.2625 5.7284 89.5725-22.91395 16.1439-22.3931 18.227-40.6201 8.8531-65.0963-11.9777-31.2462-38.537-48.4316-73.4286-46.8693-24.4762 1.0416-28.6423-1.0415-43.7447-16.1439l-16.6646-17.1854 30.2046-41.1408c28.1216-36.9747 46.8694-71.8663 71.3455-128.6302 9.3739-21.8724 10.9362-50.5147 3.1247-50.5147-6.2493 0-26.0385 30.7254-26.0385 40.0993 0 6.2492-28.6424 68.2209-43.224 93.2178-14.0607 23.9554-43.2239 59.3678-51.5562 61.9717-5.2077 2.083-13.0192-1.0416-18.7477-6.77-18.7477-18.7478-17.7062-26.5593 6.2492-60.4094 23.9554-33.85 60.4094-106.7578 60.4094-121.8602 0-4.6869 3.6453-19.7892 7.2907-32.8085 7.8116-25.5177 4.687-35.4124-19.2685-59.3678-5.2077-5.2077-13.54-15.1023-18.2269-22.3931-8.3323-12.4985-7.8116-13.0192 19.2685-37.4954l27.6008-24.997-8.3323-28.6424c-4.687-15.6231-8.3323-32.2877-8.3323-36.9746 0-13.54-36.454-86.9686-60.4094-121.3394-12.4985-18.227-22.9139-35.9332-22.9139-39.5786s19.2685-25.5177 43.224-48.9524l42.7031-42.1823h29.1631c37.4955.5207 58.3263-13.540103 67.1794-45.307001 7.8115-27.60085 1.0415-52.0770396-18.7478-70.82476-11.4569-10.41541-18.7477-12.49849-47.39-12.49849-31.2462 0-34.8916 1.04154-48.9524 17.1854204-13.0193 14.58156-15.1023 20.8307996-15.1023 49.4731496v32.287778l-44.2655 44.265403-43.7447 43.7447-35.4124-23.9554c-63.0131-42.703203-85.4062-53.118603-157.2725-71.866301-43.2239-11.4569-42.1824-11.9777-72.9078 21.872398-17.1854 18.747703-27.0801 18.226903-41.1409-1.0416-21.8723-29.163098-30.7254-31.766998-68.7416-22.393098-66.1378 16.143898-115.0902 38.537001-159.8764 72.907801-11.9777 9.3739-24.997 17.1854-29.1632 17.1854-12.4984 0-35.9331-24.9969-32.2877-35.4123 7.8116-22.913903 98.4255-76.553241 167.1672-98.946351 31.767-10.4154 110.4033-26.0384996 142.1702-28.6423496 9.8947-.52077 18.7478-4.1661604 20.3101-7.8115504 1.5623-5.72848-8.3324-6.77002-54.1601-4.68694-55.2017 2.08309-81.2402 7.29079-124.4641 22.9138904-24.4762 8.8530896-54.1601 21.8723396-65.0962 28.1215796-4.1662 2.08308-17.1854 9.37386-28.1216 15.10233-11.457 6.24929-33.8501 21.35159-50.5147 34.370788-16.6647 12.4985-31.2462 22.913903-32.8085 22.913903-2.0831 0-10.4154-7.811503-18.7478-17.185403-13.54-14.0608-15.1023-19.268498-12.4984-36.453898 8.8531-57.2846996-49.4732-98.42554-104.67482-74.47012zm928.01232 32.2877504c17.7061 4.6869296 24.9969 28.6423496 15.1023 48.4315696-7.2908 13.540098-11.457 16.143898-27.6008 16.143898-24.4762 0-38.0162-12.498498-38.0162-34.370808 0-25.51773 20.8308-38.0162096 50.5147-30.2046596zm-872.2899 10.9361696c12.4985 11.45694 11.9777 27.08004-2.0831 41.6616-13.0193 14.060798-23.43465 15.102298-39.57853 3.6454-13.01925-8.8531-16.14387-36.97468-5.2077-47.91085 8.85309-8.8530896 35.41233-7.8115496 46.86933 2.60385zm508.2716 187.477201c68.2209 30.2047 82.2816 39.0578 94.7801 64.0547 5.7285 10.9362 16.1439 21.8724 24.997 25.5178 21.3516 8.8531 35.4124 29.6839 61.9716 94.2594 13.54 33.3292 13.54 143.7325 0 177.0618-26.0385 62.4924-42.7031 88.5309-56.2431 88.5309-11.9778 0-41.1409 29.6839-41.1409 41.6616 0 13.0193-22.9139 27.6008-88.0101 55.2016-32.2878 13.5401-138.0041 14.0608-174.9788.5208-34.8916-13.0193-34.3708-12.4985-52.077-24.4762-8.3323-5.7285-19.7892-11.9777-24.4762-13.54-5.2077-2.0831-9.3738-8.3323-9.3738-15.1023 0-12.4985-31.2462-44.2655-43.7447-44.2655s-34.3708-34.8916-58.3263-92.6971c-13.0192-31.767-13.0192-136.9625 0-168.7295 23.9555-57.8055 45.8278-92.6971 58.3263-92.6971s43.7447-31.7669 43.7447-44.2654c0-6.77 4.1661-13.0193 9.3738-15.1023 4.687-1.5623 16.1439-7.8116 24.4762-13.5401 8.8531-5.7284 19.2685-11.4569 23.4347-13.54 4.1661-1.5623 13.54-5.2077 20.8308-8.3323 38.537-16.1439 150.5025-16.1439 186.4357-.5208zm-508.2716 687.4165c19.7892 17.7062 5.7284 53.6393-20.83082 53.6393-27.60082 0-43.22392-35.4123-23.95543-54.1601 10.4154-10.9361 32.80855-10.4154 44.78625.5208zm876.456 1.5623c8.8531 9.8947 11.9777 35.9332 5.2077 46.8693-1.5623 2.6039-12.4985 5.2077-23.4346 5.2077-15.1024 0-22.3932-3.1246-28.1216-11.4569-10.9362-15.6231-10.4154-24.4762 3.1246-39.0578 13.54-14.5815 30.7254-15.6231 43.2239-1.5623z" style="stroke-width:.52077"/></svg>