<svg height="960" style="" width="1130" xmlns="http://www.w3.org/2000/svg"><path d="m121.35437-15.582992c-3.53398 8.8349422.88349 19.4368692 8.83494 25.621329 8.83494 6.18446 15.0194 16.78639 15.0194 23.85435 0 7.95145 6.18446 18.55338 13.25242 24.73784 7.06795 6.18446 22.08735 28.271824 32.68928 49.475683 10.60194 21.20386 22.08736 38.87374 26.50483 38.87374 3.53398 0 7.06796 7.06796 7.06796 15.9029 0 9.71844 7.95145 23.85435 16.78639 31.80579 9.71844 8.83495 15.0194 21.20387 13.25241 27.38833-2.65048 6.18445 3.53398 15.90289 13.25242 22.08735 10.60193 5.30097 18.55338 15.9029 18.55338 22.97085 0 7.06796 10.60193 27.38832 22.97085 44.17471 13.25241 16.78639 19.43687 30.9223 15.90289 31.8058-4.41747.88349-39.75724 1.76699-78.63099 1.76699l-70.67954.88349-2.65048 29.15531c-1.76699 19.43687 1.76699 30.0388 10.60193 33.57278 7.95145 2.65048 14.13591 12.36892 14.13591 21.20386 0 9.71844 12.36892 30.03881 26.50483 45.9417 15.0194 15.9029 26.50483 33.57279 26.50483 39.75725 0 5.30096 12.36891 23.85434 26.50482 39.75724 15.0194 15.90289 26.50483 35.33977 26.50483 43.29121 0 7.95145 5.30097 16.78639 11.48543 19.43688 6.18446 1.76699 20.32036 22.08735 30.92229 45.0582 11.48543 22.08736 24.73784 40.64074 29.15531 40.64074 4.41748 0 7.95145 7.95145 7.95145 17.66988 0 9.71844 6.18446 20.32037 13.25242 22.97085 7.06795 3.53398 13.25241 11.48543 13.25241 17.66989 0 7.06795 6.18446 15.0194 13.25241 17.66988 7.06796 3.53398 13.25242 13.25242 13.25242 22.08736 0 9.71844 12.36892 29.15531 26.50482 43.29121 15.01941 14.13593 26.50483 31.80582 26.50483 38.87377 0 7.06796 12.36892 26.50479 26.50483 42.40769s26.50483 33.5728 26.50483 38.8738c0 5.30093 6.18446 15.01943 13.25241 21.20383 10.60193 8.835 17.66989 3.534 40.64074-34.45623 15.90289-24.7379 31.80579-45.0582 35.33977-45.0582 4.41747 0 7.95144-7.06799 7.95144-15.90293s12.36892-28.27182 26.50483-44.17474c15.0194-15.90289 26.50483-35.33976 26.50483-42.40772 0-7.06795 12.36892-24.73784 26.50483-38.87374 14.1359-14.13591 26.50482-33.57278 26.50482-43.29122 0-8.83494 6.18446-18.55338 13.25242-22.08736 7.06795-2.65048 13.25241-10.60193 13.25241-17.66988 0-6.18446 6.18446-14.13591 13.25241-17.66989 7.06796-2.65048 13.25242-13.25241 13.25242-22.97085 0-9.71843 3.53398-17.66988 7.95145-17.66988s16.78639-16.78639 27.38832-37.99026c10.60193-20.32036 24.73784-40.64073 31.80579-44.17471 7.06795-3.53397 12.36892-14.13591 12.36892-22.08735 0-8.83495 12.36892-28.27182 26.50483-44.17472 15.0194-15.90289 26.50483-36.22326 26.50483-45.9417 0-8.83494 6.18445-17.66988 13.25241-21.20386 15.9029-6.18446 17.66988-35.33977 2.65048-47.70869-6.18446-4.41747-40.64073-7.95145-75.9805-6.18446-35.33977.8835-66.26207-1.76699-68.91255-6.18446-2.65049-4.41747 5.30096-21.20386 17.66988-37.99025 12.36892-15.9029 22.97085-36.22326 22.97085-43.29122 0-7.06795 7.95145-17.66988 18.55338-22.97085 9.71844-6.18446 15.9029-15.9029 13.25241-22.08735-1.76699-6.18446 3.53398-18.55338 13.25242-27.38833 8.83494-7.95144 16.78639-22.08735 16.78639-31.80579 0-8.83494 4.41747-15.9029 8.83494-15.9029 5.30097 0 8.83494-6.18446 8.83494-13.25241 0-7.95145 6.18446-15.9029 13.25242-18.55338 7.06795-3.53398 13.25241-12.36892 13.25241-21.203859 0-7.95145 7.95145-22.08736 17.66989-30.922304 9.71843-8.83494 17.66988-22.08736 17.66988-29.15531 0-7.06796 6.18446-17.66989 15.0194-23.85435 20.32035-15.0193978 8.83495-39.757237-18.55338-39.757237-22.97085 0-58.31062 39.757237-58.31062 65.378577 0 7.95145-6.18446 16.78639-13.25241 19.43687-7.06795 3.53398-13.25241 15.019404-13.25241 26.504834 0 12.36892-6.18446 23.854339-13.25242 26.504829-7.06795 3.53397-13.25241 12.36892-13.25241 21.20386 0 9.71844-3.53398 18.55338-7.95145 22.08736-5.30097 2.65048-17.66989 22.97085-29.15531 45.0582-10.60193 22.97085-24.73784 43.29122-30.9223 45.05821-6.18446 2.65048-11.48542 14.13591-11.48542 25.62133 0 12.36892-6.18446 23.85435-13.25242 26.50483-7.06795 3.53398-13.25241 15.0194-13.25241 26.50483 0 11.48542-7.95145 24.73784-16.78639 30.0388-23.85435 12.36892-27.38832 11.48543-27.38832-8.83494 0-9.71844 3.53397-17.66989 7.95144-17.66989 4.41748 0 10.60194-7.06795 13.25242-15.90289 11.48542-30.03881 32.68929-63.61159 41.52423-63.61159 4.41747 0 7.95145-9.71844 7.95145-22.08735 0-12.36892 6.18446-24.73784 13.25241-27.38833 7.06795-3.53397 13.25241-10.60193 13.25241-17.66988 0-6.18446 11.48543-29.15531 26.50483-50.35917 28.27182-42.407729 34.45628-76.864003 14.13591-76.864003-15.0194 0-34.45628 28.271814-83.93195 121.038713-10.60194 20.32037-25.62134 41.52423-32.68929 47.70869-7.06796 5.30096-12.36892 16.78639-12.36892 25.62133s-6.18446 20.32037-13.25242 26.50483c-7.06795 6.18446-13.25241 16.78639-13.25241 23.85434 0 6.18446-6.18446 21.20387-13.25241 31.8058-11.48543 18.55338-18.55338 19.43687-125.45619 19.43687h-113.08726l-2.65048-24.73784c-1.76699-13.25241-6.18446-23.85434-9.71844-23.85434s-15.9029-17.66989-26.50483-39.75725c-10.60193-21.20386-22.97085-41.52422-28.27181-44.17471-4.41747-3.53397-7.95145-12.36892-7.95145-21.20386s-7.95145-22.97085-17.66989-31.80579c-9.71843-8.83494-15.0194-19.43688-12.36891-23.85435 3.53397-4.41747-2.65049-15.90289-13.25242-25.62133s-18.55338-22.970849-18.55338-30.038799c0-12.368924-25.62133-30.922304-43.29122-30.922304-14.1359 0-11.48542 31.805794 3.53398 44.174714 7.06796 6.184459 13.25242 17.669879 13.25242 26.504829 0 8.83494 6.18445 17.66988 13.25241 21.20386 7.06795 2.65048 13.25241 10.60193 13.25241 17.66988 0 7.06796 10.60193 30.03881 24.73784 51.24267 41.52423 65.37857 45.9417 72.44653 53.89315 92.7669 5.30097 9.71843 13.25241 21.20386 17.66989 24.73783 18.55337 10.60194 9.71843 22.97086-14.13591 20.32037-17.66989-1.76699-25.62134-7.95145-27.38832-22.08735-1.76699-10.60193-8.83495-23.85435-15.9029-29.15531-7.06795-6.18446-12.36892-20.32037-12.36892-30.9223 0-11.48543-5.30097-22.08736-11.48543-24.73784-6.18445-1.76699-20.32036-22.08736-30.92229-45.05821-11.48543-22.08735-23.85435-42.40772-29.15531-45.0582-4.41748-3.53398-7.95145-12.36892-7.95145-22.08736 0-8.83494-6.18446-17.66989-13.25242-21.20386-7.06795-2.65049-13.25241-14.135909-13.25241-26.504829 0-11.48543-6.18446-22.970854-13.25241-26.504834-7.06796-2.65048-13.25242-11.48542-13.25242-19.43687s-7.95145-25.62134-18.55338-39.7572438c-20.32037-28.2718162-58.31062-35.3397702-67.14556-11.4854252zm343.67926 439.980142c26.50483 40.64073 49.47568 102.48533 38.87375 102.48533-14.13591 0-31.80579-12.36892-31.80579-22.08736 0-6.18446-6.18446-15.90289-13.25242-22.08735-7.06795-6.18446-13.25241-18.55338-13.25241-28.27182 0-8.83494-6.18446-18.55338-13.25241-21.20386-14.13591-5.30097-19.43688-56.54363-5.30097-56.54363 3.53398 0 21.20386 21.20386 37.99025 47.70869zm183.76681-34.45628c0 7.06796-3.53398 13.25242-8.83495 13.25242-4.41747 0-8.83494 9.71843-8.83494 22.08735s-6.18446 24.73784-13.25241 27.38832c-7.06796 3.53398-13.25242 14.13591-13.25242 24.73784 0 11.48543-8.83494 28.27182-20.32036 38.87375-21.20387 19.43687-32.68929 17.66988-32.68929-4.41747 0-7.06796-9.71844-25.62134-22.08736-42.40773-12.36892-15.90289-26.50482-41.52423-30.9223-56.54363l-7.06795-26.50483 71.56303-3.53397c39.75725-.8835 75.09702-3.53398 79.51449-4.41747 3.53397-.8835 6.18446 4.41747 6.18446 11.48542zm-286.25214 16.78639c2.65048 12.36892 10.60193 23.85435 17.66989 26.50483 7.06795 2.65048 12.36891 13.25241 12.36891 22.97085s6.18446 20.32037 13.25242 22.97085c7.06795 3.53398 13.25241 10.60193 13.25241 16.78639s-6.18446 15.9029-13.25241 22.08736c-7.06796 6.18446-13.25242 18.55338-13.25242 28.27181 0 8.83495 6.18446 18.55338 13.25242 21.20387 7.06795 3.53397 13.25241 12.36892 13.25241 21.20386 0 9.71843 12.36892 30.0388 26.50483 45.9417 15.0194 15.90289 26.50483 31.80579 26.50483 35.33977s12.36892 23.85434 26.50482 45.0582c14.13591 22.08736 26.50483 42.40773 26.50483 45.05821s8.83494 15.0194 19.43688 27.38832l19.43687 22.08736 20.32037-21.20386c11.48542-12.36892 20.32036-24.73784 20.32036-28.27182 0-2.65048 12.36892-22.97085 26.50483-45.05821 15.0194-21.20386 26.50483-41.52422 26.50483-45.0582s12.36892-19.43688 26.50483-35.33977c15.0194-15.9029 26.50482-36.22327 26.50482-45.9417 0-8.83494 6.18446-17.66989 13.25242-21.20386 7.06795-2.65049 13.25241-10.60194 13.25241-18.55338 0-7.95145-6.18446-15.9029-13.25241-18.55338-7.06796-3.53398-13.25242-14.13591-13.25242-25.62134 0-11.48542 6.18446-22.08735 13.25242-25.62133 7.06795-2.65048 13.25241-12.36892 13.25241-20.32037 0-8.83494 7.06795-22.97085 16.78639-30.9223 8.83494-7.06795 17.66989-18.55337 19.43688-23.85434 2.65048-7.06795 21.20386-7.95145 59.19411-4.41747 64.49508 7.06795 70.67954 20.32037 28.27182 65.37857-14.13591 15.9029-26.50483 32.68929-26.50483 38.87375 0 5.30097-11.48543 23.85434-26.50483 40.64074-14.13591 16.78639-25.62133 37.10675-26.50483 44.17471 0 7.06795-9.71843 23.85434-22.08735 37.10676-12.36892 13.25241-22.08736 27.38832-22.08736 31.80579s-11.48542 22.97085-26.50483 42.40772c-14.1359 18.55338-26.50482 38.87375-26.50482 44.17471 0 5.30097-7.95145 16.7864-17.66989 25.62134s-17.66988 20.32037-17.66988 25.62133c0 6.18446-11.48543 23.85435-26.50483 40.64074-14.13591 16.78638-25.62133 36.22328-26.50483 42.40774 0 6.18446-7.06795 19.43687-16.78639 29.15535-15.9029 17.6698-15.9029 17.6698-30.9223-4.4175-7.95145-12.36893-14.13591-24.73785-14.13591-26.50484 0-2.65048-19.43687-34.4563-44.17471-69.79606-23.85434-36.22327-44.17471-68.02906-44.17471-71.56304 0-3.53397-9.71844-16.78639-22.08736-30.0388-12.36892-13.25242-22.08735-30.03881-22.08735-37.10676s-12.36892-25.62133-26.50483-41.52423c-15.0194-15.9029-26.50483-32.68929-26.50483-38.87375 0-5.30096-11.48542-24.73784-26.50482-43.29121-14.13591-18.55338-26.50483-37.99026-26.50483-44.17472s-5.30097-15.90289-12.36892-21.20386c-6.18446-5.30096-22.97085-28.27182-36.22327-52.12616l-23.85434-41.52423h67.14556c63.61159 0 67.14556.88349 72.44653 21.20386zm348.09673 0c0 11.48543-6.18446 22.97085-13.25241 26.50483-7.06795 2.65048-13.25241 14.13591-13.25241 26.50483 0 11.48542-6.18446 22.97085-13.25242 26.50482-7.06795 2.65049-13.25241 13.25242-13.25241 22.97086 0 9.71843-6.18446 17.66988-13.25241 17.66988-21.20387 0-15.9029-33.57278 11.48542-74.21352 13.25241-19.43687 27.38832-43.29121 30.9223-52.12616 7.95145-22.08735 23.85434-18.55338 23.85434 6.18446z" style="stroke-width:.883494"/></svg>