<svg height="960" style="" width="1077" xmlns="http://www.w3.org/2000/svg"><path d="m793.84733-29.996343c-14.95016-.05438-29.45135.490689-37.75605 1.711967-6.14128.930503-16.93596 2.604491-24.19384 3.721088-14.14356 2.0471-45.96604 11.910549-52.47953 16.0047478-2.23319 1.488787-8.00318 6.700854-13.02787 11.539433-5.39689 5.396891-15.63163 12.0957492-25.30882 16.9343422-29.58983 14.701859-42.43178 32.196663-42.99008 58.2506-.1861 12.28257.37238 15.07425 4.83877 21.58774 3.722 5.582975 7.25934 8.371925 13.58672 10.419015 7.81618 2.79149 8.56095 2.79149 9.67754 0 .7444-1.6749-.18701-3.90682-1.86191-5.20951-4.28028-3.1637-5.58371-10.607485-2.60611-14.701675 5.58299-7.44399 33.31146-3.3487 46.15233 6.70067 10.42158 8.374475 12.6555 27.914565 5.39761 46.152315-5.58298 14.32967-17.49317 29.58928-25.86765 32.93907-7.63008 3.1637-49.31658 23.82093-55.08565 27.17072-35.35891 21.40144-68.8572 50.43243-101.79681 88.76894-15.81847 18.23776-32.56579 40.7558-37.40438 50.24688-.74441 1.4888-2.97978 5.21078-5.02686 8.37448-2.0471 2.97758-4.83842 8.00227-6.32721 11.16597-1.48879 2.97759-5.39688 9.67626-8.37448 14.88706-3.16368 5.02469-6.51166 10.98077-7.44216 13.02787s-4.46713 10.04847-8.18912 17.67855c-5.58299 12.28257-8.5613 19.16825-16.56358 39.08091-.9305 2.41929-3.5359 9.49198-5.58298 15.81936-2.0471 6.14129-5.76983 15.44663-8.18911 20.84351-2.41929 5.39689-5.39671 11.53818-6.3272 13.95747-1.1166 2.4193-4.8386 9.30461-8.37448 15.4459-3.5359 6.14128-7.25788 13.21198-8.37448 15.63127s-10.60586 17.49335-21.39964 33.49792c-18.79605 28.10103-20.09876 29.77792-44.6639 50.43497-14.14356 11.72427-26.42685 22.33104-27.72954 23.26154-1.1166 1.1166-6.70068 5.58389-12.28366 10.23638-5.58299 4.65249-10.60767 8.74577-11.16596 9.30407-.5583.5583-10.97899 9.11833-23.26155 18.98161-12.28258 9.86328-27.35664 21.96065-33.49792 26.98534-6.14128 5.02468-16.56196 12.83996-23.26154 17.67855-16.19066 11.53818-21.77582 17.68128-18.98433 20.47277 2.9776 2.97759 23.07762 2.60357 36.66288-.93232 6.14129-1.4888 17.86465-4.09273 26.05303-5.95374 15.07408-2.97758 20.4724-4.46657 49.87614-13.21324 13.21306-3.90809 16.93378-4.28174 19.16697-2.42075 1.4888 1.30271 2.42021 3.3507 1.86191 4.6534-.37219 1.1166-12.09701 17.12133-25.68227 35.54519-23.07636 30.89253-37.03256 50.43317-41.49895 57.87714-1.1166 1.6749-7.818 11.90892-14.88977 22.7027-7.25788 10.79377-13.39916 20.28575-13.95746 21.40235-3.34979 6.51349-10.5426 13.87607-14.88706 21.40235-20.0426 34.72164-47.36219 73.11348-50.93385 109.54438 16.48465 3.4343 100.2045-16.5244 144.91503-38.45398 24.85113-12.18893 49.50265-36.47625 66.25162-50.06151 19.54044-16.00456 49.12827-40.57116 50.05878-41.50164.5583-.5583 9.67899-8.56095 20.47276-18.05203 10.79378-9.30497 38.3365-35.54373 61.41285-58.24788 35.73111-35.35891 43.54511-42.24406 53.59449-46.89654 12.28257-5.58299 18.05365-5.58299 19.72856 0 .93049 3.16369 5.39633 51.92249 7.81563 86.35091l1.30305 18.23739h-6.70067c-7.07179 0-16.5634-3.90936-28.47377-11.53944-9.49107-6.14128-18.60976-8.00101-25.86766-5.20952-7.07178 2.6054-19.54045 14.70205-19.54045 18.79624 0 1.67489-1.30198 6.14019-2.97687 10.04829-3.3498 8.00227-2.23193 15.44517 3.16496 21.21425 5.95519 6.32738 9.48981 5.21278 8.00101-2.6034-1.30269-7.25788 2.79149-13.95746 8.37448-13.95746 1.67489 0 5.02559-2.23338 7.4449-4.83876 2.60539-2.6054 5.95336-4.28139 7.44216-3.90918 35.35891 10.79377 48.57198 12.84159 89.32778 13.77208 34.80061.9305 47.82959-.55775 67.18394-7.81564 15.44626-5.76908 25.12307-4.84075 32.19485 3.34762 2.79149 3.34979 3.34852 5.76927 2.41802 13.21325-.5583 5.02469-1.86027 10.04938-2.97686 11.16597-2.0471 2.0471-2.60595 10.42176-.55885 10.42176 2.97759 0 9.86292-8.37429 9.86292-11.91019 0-2.2332 2.04799-7.81582 4.65339-12.6544 4.2803-7.81618 4.46639-9.67628 2.7915-17.67856-2.2332-9.67717-12.46867-22.51949-22.33195-27.54417-9.67717-5.02469-23.63554-2.78968-40.9428 6.51528-21.58755 11.72428-32.00841 13.39953-42.05778 6.88606-8.93278-5.58299-12.28312-9.30643-17.3078-19.16971-4.09419-7.81618-5.76745-20.65578-9.48945-74.99685-2.41929-33.12571-2.7924-31.82501 14.88706-39.26899 14.14356-5.7691 29.77538-12.84105 35.73057-16.00475 10.04939-5.39689 11.16634-4.09273 9.67755 10.79522-1.3027 12.46868-1.11716 13.21362 2.23265 11.72482 1.861-.74439 6.32703-1.86244 9.86291-2.42074 6.32738-.9305 6.32956-.92978 5.02687 5.39761-2.6054 12.28257-3.53752 25.86766-1.67653 25.86766.9305 0 5.39725-1.67599 9.67753-3.90918 5.2108-2.41929 8.74632-3.16388 9.86292-2.04728 1.1166 1.11659 2.97922 8.00265 4.46802 15.26053 1.3027 7.44398 2.97541 13.95801 3.34762 14.51631.5583.37219 5.58298-4.28048 11.16597-10.42176 13.39917-14.32967 17.68001-15.63273 22.89079-6.88604 2.41929 3.90809 14.14392 27.91674 18.05201 37.22171 1.30271 2.9776 7.25879 15.26035 13.02789 27.17072 5.76908 11.91037 10.42174 23.44709 10.42174 25.49419 0 10.04938-9.30569 22.33358-30.52104 40.75743-5.76909 5.02469-6.14165 11.16434-1.30307 20.65542 1.86101 3.72198 4.09438 9.86272 4.83878 13.39862 1.67489 8.18837 16.19084 23.63446 24.37922 25.86765 7.25789 2.0471 15.63128.5583 15.63128-2.79149 0-1.30269-2.41931-3.72-5.58299-5.39489-6.88569-3.53589-10.04956-9.12106-7.63027-13.40135 1.1166-2.04708.74676-5.02451-1.30033-9.11869-2.6054-5.58299-2.60612-6.88495.18537-14.14284 4.28029-11.16597 15.44681-25.12235 25.68228-32.38023 9.49108-6.69958 26.98262-16.37713 32.5656-18.05203 1.86101-.55829 8.00175-2.60556 13.39862-4.83876 7.444-2.79149 16.75096-4.09365 36.47752-5.02414l26.42649-1.30307 5.02415 5.95374c9.30498 11.16597 8.74632 23.07634-1.30306 27.91493-4.6525 2.2332-5.02614 2.79295-2.42075 5.21224 6.51349 6.51348 23.07689-2.41893 28.47377-15.44589 1.4888-3.3498 3.35143-6.51513 4.46802-7.25952.93051-.5583 1.85919-3.72036 1.85919-6.69795 0-4.28029-2.41785-8.00429-11.53672-16.93706-11.16597-10.79377-18.79552-15.63037-21.7731-13.76936-2.6054 1.67489-30.33568 4.4662-33.12717 3.5357-4.28029-1.6749 2.23356-7.44543 12.46903-10.79522 7.63008-2.6054 10.60858-2.60522 21.40235-.74423 14.32967 2.7915 21.39964 7.25789 21.39964 13.95747 0 4.46639 2.60629 5.95592 4.65339 2.60612 4.65249-7.44397-2.79167-32.94089-10.42176-36.66288-1.86099-.74439-5.39633-5.20842-7.81563-9.67481-2.97759-5.95519-6.69923-9.67953-12.6544-12.65714-10.23549-5.21078-15.25999-5.21078-25.86767 0-6.51347 3.1637-9.49198 6.14147-13.02787 13.21326-3.34979 6.69958-8.37538 12.09774-18.61085 19.91392-15.44627 11.72427-26.79707 16.56358-38.70745 16.56358-10.97986 0-14.14301-2.23356-18.98161-12.46903-2.23319-5.02469-6.51529-13.95801-9.30678-20.09929-5.95519-12.65478-10.60677-23.07634-17.67855-39.08091-7.63009-17.49335-10.05029-22.8906-13.02787-29.21798-11.72428-24.93735-22.70234-53.03783-21.39965-55.27102.74441-1.48881 8.93115-6.51277 17.86393-11.35136 22.51805-11.72427 34.05785-18.23974 40.75743-22.52004 3.1637-1.86099 6.88569-4.09436 8.37448-4.83877 8.18838-3.90809 40.94009-27.72828 60.48055-44.10505 32.19521-26.98443 69.0431-68.67091 85.79206-96.95803 8.56059-14.70188 9.4918-16.37677 13.77209-25.12344 2.2332-4.6525 4.83787-9.86183 5.76836-11.53673 4.6525-8.74668 12.65586-37.59264 17.86664-64.76318 4.6525-24.00684 4.46712-110.73013-.18536-144.22805-6.88568-50.06078-13.40044-88.39675-17.12244-102.72641-1.48878-5.21079-2.60611-11.53817-2.60611-13.95746 0-2.2332-2.6054-11.724635-5.58298-20.843515-3.1637-9.11888-5.58299-20.470941-5.58299-25.123439 0-8.374479-4.27848-26.239673-10.23367-43.360821-3.72199-10.2354852-13.58509-22.5166032-23.07617-28.2856842-10.42158-6.5134888-33.31309-15.2610658-47.82885-18.6108578-8.47916-1.884258-28.44092-2.945109-47.66256-3.015036zm-.79329 43.32812c16.21392.06979 32.35751.536483 37.47526 1.373931 20.47094 2.977602 40.38559 10.048468 50.43496 17.678554 8.93278 6.885679 19.35236 17.866645 19.35236 20.658138 0 1.116598 1.3027 3.162609 2.7915 4.465301 1.48879 1.302692 2.79149 4.652665 2.79149 7.630267 0 2.791493.9314 5.768897 1.8619 6.327197 1.1166.5583 1.8599 2.97632 1.67381 5.20951 0 3.90809-.18555 3.91027-2.23265-.55612-1.1166-2.60538-3.16261-5.39742-4.4653-6.141826-1.3027-.744394-2.42075-2.791131-2.42075-4.279918 0-4.652498-15.25926-23.263718-23.26154-28.288405-18.23776-11.910366-44.29277-17.119711-84.86248-17.119711-36.66161 0-53.59576 5.210252-70.71692 21.773102-5.76908 5.582986-9.11778 7.63063-10.04828 6.141829-.74439-1.116597-.00036-3.537338 1.48844-5.212234 1.30268-1.674896 3.16278-4.466933 3.72109-6.141829 2.60537-7.816181 24.75068-20.656324 38.52206-22.517315 5.39688-.744407 21.68114-1.070258 37.89505-1.000471zm-131.24107 7.008714c1.3126-.074 2.64592 1.016829 3.274 3.110449.5583 1.860991 1.86101 4.653028 2.7915 6.141829.9305 1.488801 2.60721 5.024144 3.72381 7.815637 1.11659 2.977588 2.79058 5.212234 3.72108 5.212234.93049 0 1.67381 1.30198 1.67381 2.976876s7.25934 10.234926 16.37821 18.981609c16.93505 16.93505 29.03189 24.37994 48.75844 29.77683 13.95746 3.90809 70.15989 5.21096 90.63085 2.04728 12.65476-1.86101 16.74805-1.86173 23.26152.18537 12.46868 3.908085 16.3755 7.258785 16.3755 13.027865 0 10.23548-18.23776 24.19295-47.45538 36.28941-2.9776 1.30271-8.00229 3.34798-11.16597 4.65068-15.63236 6.51348-48.38625 14.33057-65.50741 15.81937-8.18838.5583-22.32977.55902-31.26255-.18537-20.65705-1.6749-26.98516-6.14274-30.52104-21.96121-3.34979-15.07406-1.48844-17.86592 15.26052-20.84351 8.00227-1.30269 18.05201-8.74686 18.05201-13.21325 0-4.09419-8.18982-14.514485-19.1697-24.749955-18.42385-16.935056-44.10432-55.830229-41.49892-62.715907.65134-1.546962 1.6588-2.308663 2.67972-2.366237zm110.80919 10.304546c10.06778.145743 21.32276 1.458987 26.08575 3.413033 9.30496 3.90809 8.74485 7.2577-.93232 6.327198-7.07179-.558299-8.18693-.185188-14.32822 7.444898-14.70186 17.865557-30.70733 22.145111-43.73429 11.351342-4.2803-3.535887-6.88604-7.257519-6.88604-9.862918 0-6.141284 13.77317-15.630728 26.05574-17.863923 2.55887-.465244 5.87305-.723122 9.51943-.79873 1.36739-.02835 2.7817-.03173 4.21995-.0109zm-130.0525 6.392617c5.39689 0 6.32702 3.163152 1.48844 5.024143-3.1637 1.116597-10.23531 7.070336-17.49319 14.328218-2.79149 2.791493-4.09346 3.166056-5.76835 1.49116-1.6749-1.674896-.002-4.281565 7.44216-11.539447 6.32739-6.141285 11.35335-9.304074 14.33094-9.304074zm124.31414 0c-9.67719 0-10.23458.186471-9.30408 4.094562 1.4888 5.955176-5.02541 14.515764-8.18911 11.165972-1.30269-1.116597-3.72071-2.235372-5.20951-2.235372-1.86099 0-1.48989 1.3036 1.67381 4.653392 2.41929 2.605398 5.95464 4.653391 7.81563 4.653391 7.63009 0 27.17-16.563939 24.5646-20.658138-.5583-.930489-5.58226-1.673807-11.35134-1.673807zm108.17036 731.354856c3.05954-.10051 6.27049.87633 9.44581 2.99322 8.37448 5.39688 4.27939 11.16579-4.65339 6.3272-2.6054-1.30269-6.32829-.18591-15.81937 4.83877-6.88569 3.53589-13.0257 5.95591-13.584 5.39761-1.30269-1.1166 5.2117-8.37448 7.4449-8.37448.93048 0 3.90718-2.60539 6.51256-5.58299 3.03575-3.55915 6.71977-5.47012 10.65349-5.59933z" style="stroke-width:1.39575"/></svg>