<svg height="960" style="" width="1140" xmlns="http://www.w3.org/2000/svg"><path d="m569.86361-120.0006-17.66185 35.786635-39.49268 5.739599 28.57836 27.856209-6.74529 39.333195 35.32146-18.572287 35.32366 18.572287-6.7453-39.333195 28.57614-27.856209-39.49267-5.739599zm-181.51838 31.757178-17.66184 35.786645-39.49267 5.739598 28.57614 27.856207-6.7453 39.3332 35.32367-18.572281 35.32366 18.572281-6.7453-39.3332 28.57615-27.856207-39.49268-5.739598zm363.03895 0-17.66404 35.786645-39.49047 5.739598 28.57614 27.856207-6.74529 39.3332 35.32366-18.572281 35.32367 18.572281-6.74751-39.3332 28.57837-27.856207-39.4927-5.739598zm-185.1934 146.32984c-10.03263.002-18.29003.45369-22.94731 1.47311v899.468772c173.30127 11.7879 359.38353-83.96706 440.37178-271.33616 39.25875-90.82662 47.14045-184.93475 25.05845-281.33776a439.48848 439.48848 0 00-67.51508-152.75172c-31.94486 21.6126-63.20251 42.76205-94.45857 63.90868 136.74968 203.19458 23.34259 463.12624-191.58205 516.53056v-767.021562c-12.75703-4.89706-58.8293-8.93971-88.92722-8.93392zm-85.62875 9.29943c-196.4416 38.116292-359.06006 212.775022-361.34654 437.000232-2.33493 228.97567 162.63379 408.13912 361.28229 446.46582v-116.97393c-158.97101-44.82004-232.69664-181.98979-242.75552-273.61775h242.66248v-113.47391h-242.54506c31.42082-134.1793 111.88014-221.54935 242.70235-263.5585z" style="stroke-width:1.13418"/></svg>