<svg height="960" style="" width="960" xmlns="http://www.w3.org/2000/svg"><path d="m467.27155 739.70911c-5.57692 3.25329-13.94239 7.43598-17.66043 9.29505-3.71794 1.85897-19.51939 12.08341-34.8561 22.30785-41.3627 27.88496-45.54539 30.20868-55.76983 34.8562-5.11226 2.32372-14.87196 9.29496-21.8432 15.80145-13.013 12.08342-13.013 12.54816-13.013 75.28923 0 60.88214.46475 62.74111 9.7597 62.74111 5.57701 0 17.66052-6.04166 27.42022-13.94238 9.7597-7.43604 19.05465-13.94253 20.91372-13.94253 1.85897 0 11.15393-6.04176 20.91362-13.94248 9.7598-7.90073 19.05475-13.94248 20.91372-13.94248 1.85898 0 11.61867-6.5064 22.30795-14.87197 24.63167-19.5194 42.29209-19.5194 66.92376 0 10.68928 8.36557 20.44897 14.87197 22.30795 14.87197 1.85897 0 11.15402 6.50649 20.91372 13.94248 9.75969 7.90072 19.05465 13.94248 20.91372 13.94248 1.85897 0 11.15392 6.04175 20.91362 13.94253 9.7597 7.43598 21.84321 13.94238 27.42022 13.94238 9.29496 0 9.7597-1.85897 9.7597-62.74111 0-62.74107 0-63.20581-12.54825-75.28923-7.43599-6.50649-17.19568-13.47773-22.30795-15.80145-10.22444-4.64752-14.40713-6.97124-57.16406-35.78569-16.26619-10.68918-31.13816-19.51939-32.99713-19.51939-2.32372 0-6.5065-2.78856-9.29496-6.5065-8.36546-9.7597-21.8432-11.61876-33.92671-4.64752zm-35.32085-455.45366c-16.26619 11.15402-30.20868 20.44898-30.67342 20.44898-.92948 0-34.39136 21.8432-74.82457 48.79858-39.96838 26.95538-74.35974 48.79859-75.28922 48.79859-1.39423 0-10.22444 6.04175-19.98424 13.94248-9.7597 7.43598-18.58992 13.94248-19.98415 13.94248-8.83021 0-85.04901 57.6288-87.83747 66.45901-1.39433 5.57701-2.78856 95.73829-3.2533 199.84196-.46474 160.33824.46474 189.61743 6.04176 191.94114 3.71794 1.39433 25.0964-9.75969 47.8691-24.63166 22.30795-14.87197 42.75683-27.88486 45.08065-28.81435 1.85897-.92958 17.19568-10.68928 33.46187-21.84321 16.2662-11.15402 30.67342-20.44898 32.06765-20.44898s15.80145-9.29495 32.99713-20.91372c16.73094-11.61867 31.13817-20.91362 32.06765-20.91362.92959 0 15.33671-9.29496 32.06775-20.91372 17.19568-11.61867 31.6029-20.91372 32.53239-20.91372 1.39423 0 15.80145-9.29496 32.53239-20.91363 33.46187-22.77269 40.43311-24.63166 49.26333-13.94248 3.25329 3.71795 7.90072 6.97124 10.22444 6.97124 2.78855 0 12.54825 6.04176 22.30795 13.94248 9.75979 7.43599 19.05475 13.94239 20.44897 13.94239 1.39423 0 16.2662 9.29505 33.46188 20.91372 16.73094 11.61876 31.6029 20.91372 32.99713 20.91372 1.39433 0 10.22454 6.5065 19.98424 13.94248s18.58991 13.94238 19.98423 13.94238c.92949 0 35.32085 21.84321 75.28922 48.79869 40.43312 26.95537 74.35984 48.79858 75.75407 48.79858 1.39422 0 6.04175 3.2532 10.68918 7.43598 4.64753 4.18269 11.61877 6.5065 15.80145 5.11218 6.04176-2.78846 6.97124-26.49064 6.97124-193.33537 0-109.21594-1.85897-195.19444-4.64752-202.16568-3.2532-8.83021-54.84034-49.26333-63.20581-49.26333-.92949 0-15.33671-9.29505-32.53239-20.91372-16.73094-11.61877-31.13816-20.91372-32.06765-20.91372-.46474 0-24.63166-15.80146-53.44611-34.85611-28.81435-19.05475-52.98127-34.8562-53.44611-34.8562-.92949 0-24.63167-15.80145-52.98127-34.8561-64.1353-42.75693-72.50087-44.15116-115.72244-13.47774zm130.12966 105.03325c43.22157 26.49063 84.11943 51.58704 91.09067 55.76982 6.97124 4.64743 16.73094 10.22445 21.84321 13.0129 5.11227 2.78856 15.80145 8.83021 23.23743 13.94248 7.90073 5.11227 18.12517 11.15403 23.23744 13.94248 5.11227 2.78846 15.80145 8.83022 23.23744 13.94248 7.90072 5.11218 17.19568 10.68919 20.91372 12.08342 3.71794 1.85897 11.61867 7.43598 17.66042 12.54825 10.22444 9.29495 10.22444 10.68918 10.22444 140.3541 0 72.03602-1.39423 131.98863-2.78846 133.38286-1.39422 1.85897-69.7123-41.82745-151.50812-96.66779-82.26046-54.84034-152.43751-99.45614-156.15555-99.45614-3.71794 0-13.94238 5.11217-22.30785 11.61867s-16.73104 11.61877-18.12527 11.61877c-1.85897 0-11.15392 6.04175-20.91362 13.94248-9.75979 7.43588-19.05475 13.94238-20.91372 13.94238s-11.15393 6.04176-20.91372 13.94248c-9.7597 7.43599-18.58991 13.94248-19.98414 13.94248-.92949 0-34.8562 21.84321-74.35983 48.33385-39.96838 26.49063-81.79573 53.91085-92.94975 60.88209l-20.91363 12.08341-2.32381-13.0129c-1.39423-6.97124-1.85897-65.52962-1.39423-129.66491.46474-133.8476-2.32371-123.62316 46.01013-155.69081 14.87198-10.22444 27.88497-18.12517 28.81446-18.12517.92948 0 14.87196-8.83021 31.13816-19.51949 16.26619-11.15392 32.99713-21.84311 37.17991-24.63166 8.83022-5.11217 67.3885-41.82735 86.44325-54.3756 6.97114-4.64743 15.33671-9.7597 19.05465-11.15393 3.2532-1.85897 16.73094-10.22444 29.27919-19.05475 13.0129-8.36546 26.49064-15.33661 30.20868-15.33661 4.18268 0 42.75683 21.37837 85.9785 47.40436zm-91.09077-420.132821c-5.11227.929495-17.66043 7.435973-27.88496 13.942461-10.68919 6.971221-22.7727 14.407204-26.95538 17.1957-4.18278 2.323724-22.77269 13.942491-40.89786 25.56116-18.12526 11.618766-36.71517 23.237435-40.89796 25.56115-4.18268 2.788554-20.91362 13.477738-37.17982 24.63176-16.26619 10.68919-30.20867 19.5194-31.6029 19.5194-5.11227 0-49.26344 34.8561-52.98138 41.82734-5.57701 10.22454-6.04175 217.96713-.92948 225.86786 2.32371 3.71804 7.43599 2.32381 17.19569-3.2532 7.90072-5.11227 17.19568-10.22444 20.91372-12.08351 3.71794-1.39423 14.40722-8.83021 23.70218-16.2662 9.29495-6.97124 18.5899-13.01289 20.44888-13.01289 1.85907 0 11.15402-6.5065 20.91372-13.94248 9.7597-7.90073 19.05465-13.94248 20.91372-13.94248 1.85897 0 11.15392-6.04176 20.44888-13.47774 9.29495-6.97124 19.05475-13.94248 21.37846-14.87197 2.78846-.92948 26.0259-15.80145 52.05189-33.46188 25.56115-17.19568 48.33384-31.13816 50.19281-31.13816s24.63166 13.94248 50.19281 31.13816c26.02599 17.66043 49.72817 32.5324 52.05189 33.46188 2.78845.92949 12.08351 7.90073 21.37846 14.87197 9.29496 7.43598 18.58991 13.47774 20.44888 13.47774 1.85907 0 11.15403 6.04175 20.91372 13.94248 9.7597 7.43598 18.59001 13.94248 19.98424 13.94248s15.80145 8.83021 32.06765 19.51939c46.93961 31.13816 48.79858 32.53239 52.05178 24.16692 4.64753-12.08341 3.2533-215.64332-1.85897-224.93837-3.71794-6.97124-47.8691-41.82734-52.98137-41.82734-1.39423 0-15.33671-8.83021-31.6029-19.5194-16.2662-11.154022-32.99714-21.843206-37.17982-24.63176-4.18279-2.323715-22.77269-13.942384-40.89796-25.56115-18.12517-11.618669-36.71507-23.237436-40.89786-25.56116-4.18268-2.788496-16.26619-10.224479-26.49063-16.730957-20.91372-13.477709-32.99714-17.1957-46.01013-14.407204z" style="stroke-width:.464749"/></svg>