<svg height="960" style="" width="1475" xmlns="http://www.w3.org/2000/svg"><path d="m692.94571-27.401056c-1.9018 2.37724-11.88624 5.70539-22.82157 7.60719-26.14973 4.75449-49.44676 14.7389301-52.77491 23.2970241-2.37724 5.229947-6.65629 5.7054-23.29702 1.9018-25.19883-5.7054-58.4803-2.377253-69.41563 7.1317469-8.55809 7.131746-59.90665 7.607186-87.48272.950893-10.93535-2.852693-13.31259-1.9018-15.21439 7.6072-1.42634 6.18084-2.37725 14.738933-1.9018 18.542533 0 3.803587-2.85269 14.26348-6.18084 22.821573-5.7054 13.788036-5.22994 16.165276 3.32815 25.198826l9.98444 9.98444 19.49343-9.98444c12.83713-6.65629 28.52697-9.98444 44.69225-9.98444 20.91979 0 27.10063 2.37725 37.08507 12.83713l11.88624 12.3617-16.64074-2.37726c-18.54253-2.85269-60.38209 4.27905-70.84198 12.36169-3.80359 2.8527-19.49343 7.60719-34.70782 10.93534-24.24792 4.7545-30.42877 4.7545-44.69225-1.90179-11.88624-6.18085-15.68984-9.98444-13.31259-16.64073 1.42635-4.75451-.9509-11.88624-4.75449-16.16529-4.27905-3.8036-7.6072-13.31259-7.6072-20.919776 0-19.017986-8.55809-22.346133-14.73893-6.180853-6.65629 17.591639-1.9018 51.823999 8.55809 62.759339 21.87068 22.34614 55.15215 29.95332 77.49828 17.11619 6.65629-3.8036 16.64073-6.65629 22.34612-7.13175 5.7054 0 10.93535-2.37725 11.88624-5.22994 2.85269-8.08264 49.44676-14.26348 64.66115-8.5581 9.98444 3.8036 10.93533 5.7054 5.70538 9.03355-3.8036 2.85269-11.41078 4.75449-16.64073 4.75449s-15.21439 2.8527-21.87068 6.6563c-6.65629 3.32814-19.96888 7.60718-29.47787 9.50898-14.26349 2.85271-17.59164 5.22995-17.59164 13.78804 0 6.18084 4.27906 14.73894 9.98444 19.01799 6.6563 5.70539 8.5581 11.41079 6.6563 16.64073-11.88624 28.05152-2.8527 44.69225 12.83714 24.24793 4.7545-6.18085 10.93534-13.78804 13.78803-16.16529 2.85271-2.85269 10.93535-9.98444 17.59164-16.64073 26.62517-25.19883 58.00484-37.56052 58.00484-22.82157-.47544 23.77246-21.39523 70.84197-48.97129 108.87794-30.90423 42.31501-54.20126 53.7258-73.6947 36.13416-4.27904-3.8036-15.68982-10.93534-24.72337-16.16528-37.08506-20.44433-46.59405-27.57608-57.05394-42.31501-5.70539-8.5581-21.39523-26.62518-34.23236-39.46231-19.96888-19.96889-23.29703-25.67428-20.44434-34.70782 1.9018-6.18084 4.7545-23.77248 5.70539-39.46231 1.42636-23.29703 0-30.42877-8.08264-39.93776-12.83713-14.73894-22.82157-10.45989-19.96888 8.55808 2.85269 19.49344-8.55809 23.77248-31.37967 11.4108-13.78804-7.6072-19.96888-8.55809-28.05152-4.75451-6.18085 2.37726-10.93534 7.6072-10.93534 10.93535s4.75449 6.65629 10.45989 7.60719c7.13175.9509 10.93533 4.7545 10.93533 10.93534 0 6.6563-7.13173 12.83714-25.19882 20.91978-19.49343 9.03354-24.72338 13.78804-24.72338 22.82158 0 12.36168 1.42635 12.83713 14.73894 6.18084 7.13174-3.8036 9.98444-3.32814 11.88624 1.9018 1.42634 4.27904 10.45989 11.88624 19.96888 17.59164 25.19882 15.21439 29.00242 20.91977 26.14973 43.74136-3.32815 24.24792-8.08264 30.42876-18.06708 22.34612-11.4108-9.50899-9.509 6.18085 1.90179 16.16529 8.08265 7.60719 11.88624 7.60719 27.57608 2.85269 9.98444-3.32814 22.82157-8.55809 28.52697-12.36169 9.50899-6.18084 11.41079-4.75449 27.10063 16.16529 28.05151 37.08507 61.80844 79.40007 73.21922 91.28631 13.78804 14.73893 11.41079 20.44433-9.03353 24.24793-9.03355 1.9018-22.34614 5.70539-30.42878 8.08264-31.85511 11.41079-49.44675 13.31259-77.49827 9.98444-35.18327-3.8036-41.83956-8.55809-48.97131-34.23237-5.7054-20.91977-35.18327-55.62759-47.06951-55.62759-12.36168 0-14.73893 5.70539-6.65629 14.73894 3.8036 4.27904 6.65629 13.31258 5.7054 19.49342-.95091 9.03355-4.75449 10.93535-20.91979 12.3617-21.87068 1.42634-38.03596 14.73893-33.28146 27.10062 2.37725 6.18084 4.27904 6.18084 12.36169 1.42635 8.08264-5.22995 10.45988-4.75449 14.26348.95089 8.08264 12.3617 5.22995 21.39526-11.88624 38.03599-9.03353 9.03353-16.64073 19.01797-16.64073 21.87068 0 11.41079 9.50898 11.88624 22.34613 1.9018 11.41079-9.03355 12.83713-9.03355 20.91977-1.9018 5.7054 5.22995 13.31259 7.13173 22.34614 5.22995 24.24793-4.75451 39.46232 2.37724 46.11861 21.87068 5.22993 14.73893 4.75449 18.54253-.95091 23.29702-6.18084 4.7545-6.18084 6.6563.95091 11.41079 15.21437 10.93533 41.36411-8.55809 47.54495-35.18327 3.8036-17.59164-.47546-17.11618 100.7953-10.93534l63.23479 4.27905 36.13417 24.72337c37.08507 25.19883 52.77489 37.56052 72.26833 56.10305l10.93534 10.45988-16.16528 15.68984c-9.03355 8.5581-23.29703 29.47787-31.37967 47.06951-8.55809 17.59163-19.01799 32.80601-23.29704 34.70781-4.75449 1.42635-24.72337-1.9018-44.2168-7.13173-19.01799-5.22995-40.41321-9.509-46.11861-9.509-10.93534 0-32.80602-9.98444-48.49586-21.87068-3.80358-2.85269-18.54253-6.65629-32.33055-8.08264-20.44434-2.37725-29.47788-6.65629-44.21682-19.96888-10.45989-9.50899-26.62517-20.44433-35.65872-24.72337-14.73893-7.6072-17.11618-7.6072-23.77248-.47546-8.55809 8.5581-5.22994 18.06708 5.7054 18.06708 9.03355 0 8.5581 21.87068-.95089 25.67428-4.27905 1.42635-10.93535 2.8527-15.68984 2.8527-12.36169 0-30.90423 21.39522-27.10063 31.37966 2.37726 6.18086 4.27904 7.13175 8.5581 2.85271 3.32814-3.32815 10.45989-5.7054 16.64073-5.7054 15.68984 0 19.49343 19.96888 6.65629 36.13417-5.7054 7.13174-9.98444 15.68983-9.98444 19.01798 0 8.55809 9.03355 12.83714 15.68984 7.6072 3.32815-2.85271 16.64074-5.7054 29.47787-7.13175 13.31259-1.42635 30.90423-4.27904 38.98687-5.7054 13.78804-2.85269 16.16528-1.90179 19.96888 8.55809 2.37724 6.6563 7.13174 13.31259 9.50898 15.21439 2.85271 1.42635 5.22995 9.03355 5.22995 17.11619 0 23.77248 19.01799 16.64073 33.28146-12.83714 5.7054-11.41078 11.88624-20.91978 13.78804-20.91978s13.31259 5.22994 24.72338 11.88624c11.41078 6.18084 32.33057 17.11618 45.64316 23.77248 13.78804 7.13174 26.14972 14.26348 27.57608 17.11618 1.90178 2.37724 16.16528 4.27904 32.33056 4.27904 29.95332-.47545 50.8731-9.98444 50.8731-24.24792 0-7.13174 23.29703-32.80602 29.95332-32.80602 2.8527 0 16.64074-5.70539 31.37967-12.36168 14.73895-6.6563 33.28148-15.68984 41.83956-19.49344l15.21439-7.13175 29.00242 28.05153c16.16529 15.21439 31.37967 31.37967 33.75692 36.13416 8.08264 13.78804.47545 26.14974-23.29703 37.56052-12.36169 5.70539-31.85512 19.01798-43.2659 28.52698-22.34613 19.49342-44.21681 27.57606-73.69468 27.57606-9.98444 0-26.14973 2.37725-36.13417 5.22995-14.26348 4.27905-20.44434 3.8036-32.33058-2.37724-8.55808-4.27906-26.14972-7.6072-43.74134-7.6072-24.72339 0-28.52698.9509-28.52698 9.03354 0 5.70539 4.27904 9.98444 11.41079 11.88624 18.54253 4.7545 19.96888 17.59163 3.32815 31.85512-10.4599 8.5581-14.73894 16.16528-14.73894 26.62518 0 19.01797 5.22994 22.82157 14.73894 10.45989 5.22994-7.13175 10.45988-9.03355 17.59162-7.13175 8.5581 2.8527 10.4599 7.60719 11.41079 29.95332 1.42636 28.527 10.93535 39.46229 16.16529 18.5425 1.9018-8.0826 7.13175-12.8371 16.16528-14.7389 7.13175-1.42634 19.01799-9.03354 26.14974-16.64073 13.78802-14.73895 36.60961-19.49344 42.79045-9.03355 1.9018 2.37726 8.55809 6.6563 14.73893 9.50899 9.98444 3.8036 10.93535 5.7054 6.6563 14.26349-4.7545 8.5581-4.27904 9.509 2.8527 8.0826 9.50899-1.90176 12.83714-8.0826 21.39523-38.51137 7.13175-25.67428.47545-21.87068 92.23721-50.39765 45.16771-14.26348 67.98928-27.57608 86.53181-51.824 11.41079-15.21439 15.68984-25.67428 15.68984-38.98687 0-9.98444-1.9018-19.49342-4.27905-21.39522-10.45988-6.18084-19.49343-34.23238-19.49343-60.3821 0-32.33057 6.6563-38.03596 30.42878-26.62517 48.0204 23.77248 96.9917 37.08507 135.97857 37.08507 23.77248.47544 38.51145 2.85269 44.69225 7.13173 12.3617 9.509 38.5114 9.03355 67.0384-1.42635 33.2815-11.41078 48.9713-23.77248 91.2863-71.31742 26.6252-29.95332 34.7079-41.83956 29.0025-42.79047-11.8863-2.37724-33.2815 10.45989-64.1857 38.03597-26.1498 24.24792-48.4959 39.46231-51.3486 36.13416-.4755-.95089 4.279-9.98444 10.9353-20.44433 15.6899-24.24792 29.4779-61.80844 29.4779-80.82643 0-23.77246-19.018-55.62758-40.4132-67.98927-39.9378-22.82158-108.40251-2.8527-141.68398 41.3641-9.50898 13.31259-17.59164 27.10063-17.59164 31.37968 0 10.45988-3.80358 9.03353-23.29702-10.93535-23.29703-23.29702-73.69468-54.20125-100.31986-60.85754-11.88624-2.85269-30.90421-9.98444-42.79045-15.21437-11.88624-5.7054-27.10063-10.4599-34.23237-10.4599-7.60719 0-13.31259-2.8527-13.31259-6.18085 0-6.65629 29.47787-19.01797 66.56293-27.57607 16.1653-3.8036 32.33058-11.88624 43.26591-20.9198 19.01799-16.64073 55.6276-28.05152 76.07193-23.77248 11.41079 2.85271 14.2635.95091 21.39523-12.83713 16.64073-32.80603 38.03597-46.11861 82.72821-50.87311l25.6743-2.85269 9.9844-26.14972c11.4108-30.42877 38.5114-54.20125 67.5139-58.95574 33.7569-6.18086 43.7414-12.3617 48.9713-30.90423 5.2299-19.96888 29.0024-48.0204 49.9222-58.95574 33.7569-18.06708 51.824-22.34614 95.5654-22.34614 41.3641 0 61.333-6.18084 41.3641-12.36168-4.7545-1.42634-12.3617-4.75449-16.6407-7.13174-16.6408-8.5581-89.86-33.28147-129.7978-43.74136-134.0768-34.707812-283.8434-28.526972-400.80399 17.11619-13.78804 5.70539-28.52697 13.78803-32.80601 19.01798-8.08264 8.55808-7.13175 9.50899 13.78804 28.52697 29.95332 27.57607 39.93776 61.33299 26.62517 92.23721-9.03355 21.87068-23.29703 34.70782-38.03597 34.70782-28.05152 0-69.41563 32.33057-107.4516 84.15457-11.88624 16.16528-24.24792 30.42877-27.57607 31.85512-7.6072 2.85269-16.64073-7.6072-16.64073-19.49343 0-19.96889 13.78804-72.26833 20.91977-79.87553 4.27906-4.27904 8.08266-11.41079 8.08266-15.68984 0-4.27904 3.32814-12.36168 7.13173-17.11617 3.8036-5.22995 7.13175-15.21439 7.13175-22.34614 0-6.65629 2.85269-15.21438 6.18083-18.06708 8.5581-7.13174 19.01799-53.25035 15.21439-68.46474-1.9018-6.65629-.95089-13.31259 1.9018-14.73893 7.6072-4.7545 6.18084-27.57607-1.9018-39.46231-7.13173-9.98444-6.18084-11.88624 13.78804-32.330569 29.00243-30.428773 32.80601-50.873106 7.60719-42.790453-13.31259 4.27904-17.11618-9.033546-7.60719-23.7724799 4.27904-6.180854 7.60719-14.7389341 7.60719-18.5425341 0-8.55809-8.08264-14.26349-11.41079-8.08264zm356.11169 597.640096c20.9198 13.78802 12.3617 37.5605-19.9689 55.15214-15.2143 9.03354-37.56047 10.93534-47.06946 4.7545-8.55809-5.22995 12.36169-44.21682 30.90416-56.5785 19.018-12.83714 21.3953-13.31258 36.1342-3.32814z" style="stroke-width:1.33333"/></svg>