<svg height="960" style="" width="1393" xmlns="http://www.w3.org/2000/svg"><path d="m1246.2838 883.95242c-47.1318 45.3014-50.3349 49.4197-35.6921 49.4197 11.4398 0 32.0313-16.4732 42.0983-33.8616 10.9822-18.7612 6.8639-28.3706-6.4062-15.5581zm4.1183-80.9934c-15.5581 16.0156-20.134 34.3192-9.1518 34.3192 8.2366 0 17.3884-11.4397 27.4554-33.4041 10.0669-21.9643 1.8303-22.4219-18.3036-.9151zm-123.0917-334.9559c-1.3728 4.1183.9151 13.2701 4.5759 21.0491 4.1183 7.3215 7.3214 17.3885 7.3214 21.5068 0 4.5759 2.7455 18.3036 6.4063 31.1161 18.3036 64.0626 22.4219 97.4667 22.8795 169.7659 0 63.605-1.3728 76.8751-9.6094 100.6698-16.9309 47.5893-25.6251 64.5202-48.0469 94.2635-15.558 20.5915-16.0156 26.9978-1.8303 26.9978 12.3548 0 60.4017-48.5045 73.6719-74.1296 22.8795-45.3014 26.9978-63.605 26.5402-125.3796-.4576-56.7412-4.1183-78.7055-20.5916-127.6676-2.2879-7.779-5.9486-20.134-8.2366-27.4554-2.2879-7.779-8.2366-25.1675-13.7277-38.8952s-10.9822-29.7433-12.3549-35.692c-1.3728-5.9487-5.4911-11.8973-8.6942-13.2701-3.6608-1.3728-6.4063-7.3214-6.4063-12.8125 0-12.8125-8.2366-19.6764-11.8973-10.067zm53.0804-45.3014c0 42.5559 1.8304 55.826 9.1518 73.2144 5.4911 11.4397 11.4398 21.0491 13.7277 21.0491 5.9487 0 10.5246-38.8951 7.3214-63.1474-1.3727-11.8973-5.9486-29.7433-9.1518-39.8103-3.6607-10.067-7.779-23.7947-9.1518-31.1161-1.8303-6.8639-5.0334-12.355-7.3214-12.355-2.7455 0-4.5759 21.0492-4.5759 52.1653zm-424.18584-50.7925c61.3171 63.605 112.1095 126.7524 131.3283 161.5293 5.4911 10.067 13.2701 24.2522 17.846 32.0313 12.8126 21.0491 38.4376 82.8238 48.047 113.9399 4.5759 15.1004 10.9821 33.404 14.6429 40.2679 3.6607 7.3214 6.4062 17.3884 6.4062 22.8795s1.8304 12.8125 4.1183 16.4732c8.2366 12.8125 10.067-11.4397 2.7456-38.8951-3.6607-14.6429-6.8639-30.6585-6.8639-35.692 0-26.0827-38.4375-125.3797-65.4353-169.7659-12.8126-20.5916-47.1318-65.4354-64.5202-83.739-21.5068-23.3371-68.1809-60.4019-75.5024-60.4019-2.7455 0-5.0335-2.2879-5.0335-4.5759 0-2.7455-4.1183-4.5759-9.1518-4.5759-8.2366 0-8.2366.4576 1.3728 10.5246zm245.72584-48.0469c0 4.5759 3.2031 12.3549 6.8639 17.3884 3.6607 4.5759 6.8638 12.8125 6.8638 17.846 0 5.4911 2.288 11.8973 5.0335 14.6429 2.7455 2.7455 6.4063 11.8973 8.6942 20.1339 1.8304 8.6942 6.4063 22.8795 9.6094 31.5737 2.7455 8.6943 7.779 23.3371 10.9822 32.0313 14.1853 41.1831 21.5067 67.7234 19.6763 75.96-2.2879 12.8125-10.5245 10.5245-11.8973-4.1183-.9152-6.8639-3.6607-12.355-5.9487-12.355-2.2879 0-6.8638-6.8638-10.5245-15.1004-5.0335-12.355-6.8639-13.2701-9.6094-6.4063-2.288 5.0335-.4576 10.9822 4.1183 16.4732 4.1183 4.5759 7.3214 13.2702 7.3214 19.2188 0 6.4063 1.8304 13.2701 4.1183 16.0157 2.7456 2.2879 6.4063 12.3549 9.1518 22.4219 2.288 10.067 6.4063 24.2523 8.6942 32.0313 15.1005 44.8438 21.0492 85.1117 21.0492 148.7167 0 57.1988-1.3728 70.4689-10.5246 96.0939-10.067 28.3706-27.913 70.9265-37.5224 88.3149-2.7455 5.0335-3.6607 9.6094-2.2879 10.9821 3.2031 3.2032 56.7411-51.7076 62.6898-64.0626 2.7455-5.491 8.6942-17.3884 13.2701-26.0826 22.8794-42.0983 29.2857-76.4175 29.2857-153.2926 0-72.7568-4.1183-101.585-23.337-169.3083-17.3884-61.7747-21.0492-74.1296-26.9978-88.3149-3.6607-8.2366-6.4063-19.2188-6.4063-24.2522 0-5.0335-8.6942-18.7612-19.6764-30.6586-30.2009-32.9465-48.9621-58.5715-48.9621-66.8081 0-4.1183-3.2031-7.3214-6.8638-7.3214-3.6608 0-6.8639 3.6607-6.8639 8.2366zm-118.97344-28.3706c0 11.4397 61.3171 85.5693 76.8751 92.8908 5.4911 2.7455 10.067 4.5759 10.067 3.6607-.9152-13.2701-16.9308-39.8104-34.7768-56.2836-28.3706-26.9978-52.1653-45.3014-52.1653-40.2679zm-526.2284-84.1966c0 2.7456 11.8973 22.8795 26.5402 44.3863 14.1853 21.5067 28.3706 42.5558 30.6585 47.1317 2.7455 4.1183 17.846 29.7434 34.3193 57.1988 38.8951 64.0626 34.3192 56.2835 70.0112 125.8372 16.9309 33.4041 30.6586 64.0626 30.6586 67.7233 0 4.1183 2.7455 10.067 5.9486 13.2701 2.7456 3.6608 0 2.7456-6.4062-1.3727-11.4398-7.3215-79.1631-78.2479-118.9734-124.9221-17.3885-20.5915-31.5737-30.2009-31.5737-21.5067 0 3.2031 14.6428 30.2009 18.3036 33.8616 4.5759 4.5759 22.8795 31.5737 22.8795 33.8617 0 1.3728 9.1518 16.0156 20.5915 32.9465 11.4398 16.4732 20.5916 30.6585 20.5916 31.5737s9.1518 15.1005 20.5915 31.5737c11.4398 16.9308 20.5916 31.1161 20.5916 32.0313 0 1.3728 9.1518 15.558 20.5915 32.0313 11.4397 16.9308 20.5915 32.0313 20.5915 34.3192 0 2.288 3.2032 6.4063 6.8639 9.6094 3.6607 3.2032 6.8638 11.4398 6.8638 18.7612 0 26.9978-34.7768 29.2858-71.384 4.5759-11.4397-7.779-21.5067-14.1853-22.4219-14.1853s-15.1005-9.1518-31.5737-20.5915c-16.9308-11.4398-31.5737-20.5916-32.9465-20.5916s-10.5246-6.4062-20.1339-13.7277c-9.6094-7.779-19.6764-13.7277-22.4219-13.7277-2.7456 0-5.0335-1.8303-5.0335-4.1183 0-5.4911-17.846-11.4397-21.9644-7.779-1.3727 1.8303 6.4063 11.8973 17.3885 23.3371 21.5067 21.5067 21.9643 30.6585.9151 20.5915-6.8638-3.2031-19.2187-8.6942-26.9978-11.8973-8.2366-3.6607-22.8795-9.6094-32.0313-13.7277-9.6094-4.1183-24.7098-10.5246-33.404-14.6429-8.6942-3.6607-21.9643-9.6094-28.8282-12.8125-13.7277-6.8639-30.6585-8.6942-30.6585-3.6607 0 4.1183 25.1674 32.0313 116.2278 127.21 43.0135 44.8438 79.6207 85.1117 81.451 89.6876 2.288 6.8639-.9151 8.2366-24.7098 10.9822-15.5581 1.3727-67.2657 2.7455-115.3127 2.7455-48.0469 0-90.14521 1.8304-93.34834 3.6607-7.77903 5.0335 3.20313 14.6429 35.69204 30.201 59.4867 29.2857 79.163 42.0982 68.1809 45.3014-11.4398 3.2031-126.75244 28.3706-155.12302 33.8616-9.60939 1.8304-10.06698 2.7456-3.66072 6.4063 4.5759 2.2879 168.85074 3.6607 409.54304 3.2031l401.764-1.3727-1.3728-25.1675c-2.2879-34.3192-18.3036-97.0091-38.4376-148.7167-9.1518-22.8795-44.8438-97.0091-55.3683-114.3975-64.5202-106.6185-156.0382-207.7459-298.3487-327.6344-7.779-6.8639-21.9643-18.3036-57.1987-46.6742-28.8282-23.7947-99.7547-75.5024-106.1609-77.7903-4.5759-1.3728-8.2366-5.0335-8.2366-7.779 0-2.288-3.2032-4.5759-6.8639-4.5759s-6.8638 2.2879-6.8638 5.491zm302.0093 340.447c74.1296 76.8751 120.8038 149.6319 157.8686 244.353 4.1183 11.4398 10.067 25.6251 12.3549 32.0313 4.1183 10.5246 17.3884 57.1988 17.3884 61.7747 0 8.2366-18.3036-3.6608-64.0626-42.0983-28.8281-23.7947-53.538-44.8438-54.9108-46.6742-5.491-6.4063-22.8795-14.1853-22.8795-9.6094 0 2.288 2.288 4.5759 4.5759 4.5759 2.7456 0 4.5759 3.2031 4.5759 6.8639 0 4.1183 5.0335 15.558 11.4398 25.625 6.4062 10.067 13.7277 22.8795 16.4732 28.3706 2.288 5.4911 8.2366 16.0156 12.8125 23.7947 15.1005 23.337 13.2702 25.1674-28.8281 25.1674-28.3706 0-39.8103-1.8304-43.9287-6.8638-3.2031-3.6608-7.3214-6.8639-9.6093-6.8639-1.8304 0-13.2702-6.4062-24.7099-14.1853-11.4398-7.779-22.4219-13.2701-23.7947-11.4397-1.3728 1.3727 2.7456 9.6094 9.1518 17.846 6.4063 8.6942 10.5246 16.9308 9.1518 18.7612-3.6607 3.6607-227.4222 3.6607-237.0316 0-10.9821-4.5759.4576-10.9822 18.7612-10.9822 7.779 0 23.3371-3.2031 33.8617-6.8638 10.5245-3.6608 25.1674-6.8639 32.0313-6.8639 14.6428 0 27.4554-4.1183 27.4554-8.6942 0-1.3728-11.4398-20.134-25.1675-41.6407-13.7277-21.0491-24.2523-38.8951-23.3371-40.2679.9152-.9152 14.6429 2.7455 30.6585 8.2366 44.8439 14.6429 64.9778 16.0157 89.6877 6.8639 37.0648-13.7277 63.1474-51.2501 68.6385-99.2971 3.6607-30.6585-10.5246-91.9755-32.9465-143.2256-3.2031-7.779-7.3214-16.9308-8.6942-20.5916-1.3728-3.6607-4.5759-10.0669-6.4063-13.7277-8.2366-14.6428-14.6429-27.4554-14.6429-30.2009 0-5.9487 27.913 18.3036 64.0626 55.826zm343.19254-363.3265c0 5.4911 2.7456 18.3036 6.4063 28.8282 3.6607 10.067 7.779 24.2523 9.6094 31.1161 1.3727 7.3215 12.3549 22.4219 24.2522 33.4041 33.4041 32.0313 36.6072 26.5402 13.2701-26.5402-8.2366-18.7612-20.5915-41.6407-27.4554-50.7925-6.8638-9.1518-12.3549-18.3036-12.3549-21.0492 0-2.7455-3.2031-5.0334-6.8638-5.0334-4.1183 0-6.8639 4.1183-6.8639 10.0669zm-192.18784-79.163c0 2.7455 8.6942 17.3884 19.6764 33.404 10.9822 16.0157 27.4554 41.1831 36.6072 56.2836 16.0156 25.625 72.2992 75.5024 75.5023 66.8081 1.3728-3.6607-7.3214-23.337-20.5915-48.5045-8.2366-15.1005-101.1274-112.1095-107.5336-112.1095-1.8304 0-3.6608 1.8303-3.6608 4.1183zm-135.9042-52.165297c-5.0335 13.7277 13.7277 31.5737 37.0648 36.1496 14.6429 2.7456 23.3371 2.288 26.5402-.9152 3.6607-3.6607 2.7456-5.9486-3.6607-8.2366-4.5759-1.8303-14.6429-7.779-22.4219-13.7277-25.1675-18.3036-34.3193-21.5067-37.5224-13.2701zm111.652-54.4532002c-9.1518 9.1518002 35.2344 43.4711002 46.6741 36.1496002 7.7791-4.5759-7.3214-23.7947-23.7946-30.2009002-8.2367-3.2031-16.0157-6.4063-17.3885-7.3215-1.3727-.91509996-3.6607-.45749996-5.491 1.3728zm65.4353-7.779c0 8.2366 27.4554 39.8103002 45.3014 51.7076002 29.2858 20.134 24.7099 4.5759-9.1518-28.3705-26.5402-26.0827002-36.1496-32.4889-36.1496-23.3371002zm-285.5361-103.4153028c5.0335 6.4062 15.558 16.015603 23.3371 21.506703 8.2366 5.4911 22.8795 17.846 32.0313 26.9978 17.3884 16.4732 68.1809 35.692 75.5023 28.3706 1.8304-1.8304-9.6094-16.0157-25.625-32.0313-27.4554-27.4554-43.9287-37.064803-78.2479-45.759003-7.3214-1.8304-18.7612-5.03352-24.7099-7.32147l-10.9821-3.20313z" style="stroke-width:.45759"/></svg>