<svg height="960" style="" width="1428" xmlns="http://www.w3.org/2000/svg"><path d="m706.93369 960.56617c-2.1191 3.1786-.5298 9.0061 2.6488 13.2443 10.5954 12.7145 2.1191 16.9526-37.0839 19.6015-20.6611 1.5893-38.6733 4.2381-40.7924 5.8275-3.1786 3.70833 39.203 63.04273 47.1496 66.22133 2.6489 1.0595 7.9466 5.2977 12.1847 10.0656 4.2382 4.2382 7.9466 5.8275 7.9466 3.1787 0-2.6489-2.1191-6.8871-5.2977-10.0657-2.6489-2.6488-5.8275-13.2443-6.3573-23.3099-1.5893-16.9527-.5297-18.542 14.3038-20.1313 25.429-2.6488 66.2214-17.4824 66.2214-23.8397 0-3.70843-10.0657-13.77403-22.2504-22.25033-32.316-23.3099-34.9649-24.3695-38.6732-18.542zm222.5036-58.8046c-1.5893 1.5894 2.1191 6.8871 8.4764 11.655 14.8335 11.1252 10.5954 18.0122-25.9588 46.6198-27.0183 21.7206-31.2565 32.316-12.7145 32.316 4.7679 0 13.774 3.7084 19.0718 7.94663 5.8274 4.2382 15.8931 7.9466 22.2503 7.9466 6.887 0 13.7741 2.119 15.3634 5.2977 1.5893 2.6488 9.5358 5.2977 17.4824 4.7679h14.3038l-13.2443-6.3573c-14.3038-6.887-31.7862-22.78013-31.7862-29.13733 0-2.1191 7.9466-9.0061 17.4824-15.3634 28.0779-19.0717 54.56641-48.7389 45.56031-50.858-36.02441-10.0656-74.16791-17.4824-76.28701-14.8336zm-443.9478-4.7679c-1.5893 4.2382-3.7084 12.7145-4.7679 18.542-2.1191 12.7145-7.4168 12.1847-50.3282-3.1786-18.542-6.8871-34.4351-11.1252-35.4947-9.5359-1.0595 1.0595 0 14.3038 3.1786 28.6076 2.6489 14.8336 6.3573 31.7862 7.4168 38.1435 3.1787 17.4824 10.5954 14.8336 14.8336-4.2382 2.6489-14.3038 4.7679-15.8931 14.8336-12.7145 13.2443 3.7084 53.5068 12.1848 70.4595 14.3038 12.1847 1.5894 12.1847-9.0061 0-35.4946-3.7084-9.0061-9.5359-21.7206-12.1847-29.1374-3.7084-10.0656-5.8275-11.1252-7.9466-5.2977zm677.57671-164.75875c-1.5893 2.1191-12.7145 5.8275-24.3694 7.9466-22.7802 3.7084-25.9588 10.0656-12.7145 24.8992 9.0061 10.0657 9.0061 10.5954-11.1252 46.6198s-18.542 39.2031 18.542 36.5542c34.9648-2.6488 53.5068-12.7145 32.8457-18.0122-14.3038-4.2382-14.3038-7.9466-.5297-44.5007 15.8931-41.8519 18.5419-58.2748 8.4763-58.2748-4.7679 0-9.5359 2.1191-11.1252 4.7679zm-933.45595-23.3099c-1.58931 5.8275-6.35725 19.6015-10.59541 30.7267-9.53587 25.429-10.06564 52.9771-.52977 50.3282 3.17862-1.5893 7.41679-6.887 7.94656-12.7145 3.70839-20.1313 10.59541-18.0122 43.97097 10.5954 18.54197 16.4229 36.55419 29.6672 39.73279 29.6672 7.9466 0 14.8336-74.1679 7.9466-81.0549-3.7084-3.7084-7.4168-.5298-10.5954 8.4763-3.1787 7.9466-8.4764 14.3038-11.655 14.3038-3.17863 0-18.54198-13.774-34.4351-30.1969-24.36945-26.4885-28.60761-29.1374-31.78624-20.1313zm981.13535-193.8961-25.9588 26.4886 18.0122 1.5893c20.1313 1.5893 24.3695 11.1252 25.429 52.9771.5298 14.3038 2.6489 25.429 5.8275 25.429 11.6549 0 74.1679-45.5603 74.1679-54.0367 0-6.887-12.1847-4.7679-21.7206 4.2382-15.8931 14.3038-25.9588 5.8275-26.4886-22.7801-1.0595-36.5542-6.3572-56.6855-15.3633-58.8046-4.2382-.5297-19.6015 10.5954-33.9053 24.8992zm-1055.30324-40.7923c-38.67326 40.7923-49.79845 72.0488-13.77404 38.6733 15.89312-14.8336 16.95266-14.3038 29.66716 18.5419 23.30991 59.3344 31.25647 68.3405 39.7328 46.0901 2.64885-6.3573 11.12518-20.6611 19.07174-32.316 9.53588-14.3038 12.18473-22.2504 8.47633-25.9588-3.70839-3.7084-6.35724-2.6488-9.0061 3.1786-9.0061 23.3099-33.90532-5.8274-33.90532-40.2625 0-15.8932-7.41679-30.197-15.89312-30.197-1.58931 0-12.7145 10.0657-24.36945 22.2504zm1029.34444-235.748c-2.1191 1.5894-3.7084 9.5359-3.7084 16.9527-.5298 7.4168-3.7084 19.6015-7.9465 27.0183-4.2382 7.4168-7.4168 16.4229-7.9466 19.6015 0 10.0657 14.3038 8.4764 18.0122-1.5893 3.1786-7.9465 4.2382-7.9465 14.3038 1.0596 5.8275 5.2977 16.9527 22.7801 24.3695 38.1434 12.7145 27.0184 13.774 28.0779 23.3099 19.0718 5.8274-5.2977 15.3633-20.1313 21.1908-33.3756 6.3572-13.2442 13.2443-28.6076 15.8931-33.3755 9.0061-17.4824 4.768-17.4824-10.5954 0-9.0061 9.0061-17.4824 16.9526-19.0717 16.9526-4.768 0-23.31-22.7801-23.8397-28.6076 0-6.3572-31.7863-45.5603-36.5542-45.5603-2.1191 0-5.8275 1.5894-7.4168 3.7084zm-943.52159-36.0244c-1.58931 2.6489-13.77404 7.4168-27.01831 10.5954-13.24426 3.1787-23.83968 7.9466-23.83968 10.5955 0 2.6488-7.94656 6.3572-16.95266 7.9465-14.30381 3.1786-15.89312 4.768-8.47633 9.0061 5.82748 3.1786 13.77404 2.6489 23.30991-.5297 22.25037-8.4764 24.89922-1.0596 17.48243 47.1495-3.70839 23.31-5.29771 43.971-3.70839 46.0901 2.11908 1.5893 11.12518-1.5893 20.13128-6.887 9.53587-5.2977 22.78014-12.7145 29.66716-16.4229 15.36335-8.4763 16.42289-14.8336 2.11908-18.542-13.24426-3.1786-14.3038-31.7862-2.64885-60.3938 8.47633-19.6016 7.41679-33.3756-2.11908-33.3756-2.64886 0-6.35725 2.1191-7.94656 4.7679zm476.79358-149.3953c-2.119 2.6489-13.774 4.2382-25.9587 4.2382-18.542 0-22.2504 1.5893-24.8993 13.2442l-3.7083 13.2443-2.1191-13.2443c-4.768-30.72667-70.9893-13.774-182.7709 46.6199-14.8336 7.9465-92.1801 83.7037-92.1801 90.061 0 2.6488-6.3573 10.0656-13.7741 17.4824-24.8992 23.3099-48.2091 69.4-71.519 141.4488-13.77403 43.4412-12.18472 55.6259 8.4763 59.8641 9.0061 2.1191 13.7741 4.2381 10.5954 4.7679-10.0656 2.6489-15.8931 4.2382-22.2503 4.7679-4.76796.5298-6.35727 10.5955-5.29773 33.3756l1.05955 33.3755 29.13738 3.1787 29.1374 2.6488-29.1374 2.6489c-24.8992 1.5893-29.13738 3.7084-29.13738 12.7145 0 7.4168 4.76798 11.6549 15.89308 13.774l15.8932 3.7084-14.8336.5298c-20.13131.5297-22.78016 12.1847-12.1847 47.6793 17.4824 58.2748 36.0244 98.0076 63.5724 138.2702 25.9588 36.5542 30.197 41.3221 66.7511 70.4595 19.0718 14.8336 38.6733 32.316 43.4412 38.1435 11.655 14.8336 89.5313 53.50685 129.2641 64.63205 46.09 12.7145 56.6854 12.1847 60.9236-3.7084 3.1786-12.1847 3.7084-12.1847 4.2382-1.5893.5297 13.2443 8.4763 15.8931 45.5603 15.3633l26.4885-.5297 3.1786-31.78635 2.6489-31.7862 2.6488 31.7862c1.5893 27.54815 3.7084 31.78635 12.7145 31.78635 7.9466 0 11.655-4.768 13.7741-18.542 2.6488-15.36335 3.7084-15.89315 4.2381-4.7679 1.0596 22.2503 11.1252 27.548 37.6137 18.0122 12.1848-4.2382 25.9588-7.9466 30.197-7.9466 15.3633 0 108.603-49.79845 116.5495-61.98325 4.2382-6.887 10.5954-12.1847 13.2443-12.1847 3.1786 0 13.2443-7.9465 22.2504-17.4824 9.00611-9.5359 20.66101-19.0718 25.42901-20.6611 9.5358-3.7084 55.6259-59.3343 60.9236-73.1083 1.5893-4.2382 5.8275-11.655 9.5359-15.8932 14.3038-18.5419 50.3282-120.7877 50.3282-143.038 0-2.1191-9.0061-6.3573-19.6015-9.5359-19.6016-5.2977-19.6016-5.2977-4.2382-5.8275 20.661-1.0595 31.2565-7.9465 27.5481-18.542-2.6489-6.3572-11.1252-8.4763-33.9054-9.5358l-30.7267-.5298 31.7863-3.1786 31.7862-3.1787v-31.7862c0-31.2565 0-31.7862-15.8931-33.3755-20.1313-2.1191-30.7267-11.655-12.7145-11.655 24.3695 0 28.0779-6.3573 20.6611-37.6137-8.4764-37.084-22.2504-74.6977-40.7924-110.7221-23.3099-45.5603-31.2565-54.5664-43.4412-51.3878-12.1847 3.1787-14.3038-1.5893-4.7679-11.1251 4.7679-4.768 2.6488-9.0061-8.4763-19.6016-7.9466-7.4167-15.8932-13.2442-18.0122-13.2442-2.1191 0-9.0062-8.4764-15.3634-18.542-19.60151-30.1969-90.59081-72.5786-164.75871-98.0076-41.3221-14.3038-60.3938-12.7145-64.632 5.2977-3.1786 12.7145-3.1786 12.7145-6.887-4.2381-3.7084-18.0122-16.4229-22.7802-21.7206-8.4764-1.5893 4.768-3.1786 19.0718-3.1786 32.316 0 13.7741-1.5894 22.7802-3.7084 20.6611-2.1191-2.1191-3.1787-11.655-2.1191-21.7206 2.6488-31.2565-9.0061-49.26867-22.7802-36.0244zm25.429 168.4671c-1.5893 39.7328-11.6549 94.2992-19.0717 98.5373-10.0657 6.8871-13.2443 5.8275-21.7206-6.3572l-7.9466-11.1252-3.7084 11.1252c-2.1191 7.9465-7.9465 11.1252-18.0122 11.1252-13.774 0-16.9526-3.7084-34.4351-45.5603-11.1252-24.8992-19.0717-49.2687-18.0122-53.5069 1.5893-7.9465 8.4764-11.1251 49.2687-22.7801 9.0061-2.6488 29.1374-4.2382 45.0305-3.7084l29.1374 1.0596zm81.0549.5297c6.3573 4.2382 14.3039 7.4168 17.4825 7.4168 7.4168 0 58.2748 37.084 58.2748 42.9115 0 9.0061-76.287 84.2335-85.2931 84.2335-4.768 0-11.655-3.7084-15.3634-7.9466-3.7084-4.2381-9.5359-7.9465-13.774-7.9465-3.7084 0-13.2443-5.2977-21.1908-12.1847l-13.7741-12.1848 8.4763-33.3755c4.768-18.0122 8.4764-38.6733 8.4764-45.5603 0-24.3695 4.7679-29.6672 25.9587-25.9588 10.5955 1.5893 24.3695 6.3573 30.7267 10.5954zm-205.0212 72.0489 17.4824 41.3221-30.1969 31.2565c-16.4229 17.4824-29.6672 34.435-29.6672 37.6137 0 7.9465-32.316 2.6488-52.977-7.9466-7.4168-3.7084-23.3099-11.1252-35.4947-15.8931-13.774-5.8275-22.7801-13.2443-22.7801-18.0122 0-10.0657 28.6076-53.5069 50.858-77.8763 8.4763-9.0061 27.5481-24.8992 41.8519-34.9649 26.4885-19.0717 26.4885-19.0717 34.9648-7.9465 4.768 5.8274 16.4229 29.6671 25.9588 52.4473zm321.5708 18.5419c9.0061 11.1252 21.1908 31.7863 27.5481 46.6199 6.887 14.3038 14.8335 31.7862 18.0122 38.6732 3.1786 7.4168 3.7084 13.7741.5297 16.9527-6.887 6.887-63.0427 20.1313-93.7694 22.2504l-25.429 1.5893-16.4229-30.7267-16.4228-30.197 39.203-41.8518c21.7206-22.7802 41.8519-41.8519 45.5603-42.3817 3.1786 0 12.7145 8.4763 21.1908 19.0717zm-447.6562 94.829c62.5129 25.429 67.8106 28.6076 67.8106 36.5542 0 4.2381-3.1786 12.7145-6.3572 18.5419-5.2977 7.9466-5.2977 11.655 0 16.9527 3.1786 3.1786 6.3572 9.5359 6.3572 13.2443 0 7.9465-42.9114 20.661-85.8228 25.429-30.197 3.1786-30.7267 3.1786-36.5542-11.655-4.2382-10.5954-4.2382-24.3694 0-49.7984 5.2977-34.9649 13.774-63.0427 18.542-63.0427 1.5893 0 17.4824 6.3572 36.0244 13.774zm239.9861 36.5542c22.2504 11.1252 30.7267 28.6076 23.3099 50.3282-6.3573 18.0122-18.542 26.4885-39.203 26.4885-20.1313 0-31.7863-7.9465-39.7328-26.4885-7.9466-19.6015-1.5893-35.4946 20.1312-49.2687 17.4825-10.5954 14.3039-10.5954 35.4947-1.0595zm259.5876 13.774c6.3573 20.1313-2.6488 99.0671-12.7145 111.7816-9.0061 10.5954-10.0656 10.5954-24.8992 3.1786-8.4763-4.7679-31.7862-15.3633-52.4473-23.8396-27.5481-11.655-37.0839-18.0122-37.0839-25.9588 0-6.887 4.7679-11.1252 15.8931-13.2443 9.0061-2.119 13.2442-3.7084 9.5359-4.2381-9.5359-1.0596-22.7802-16.4229-22.7802-26.4886 0-11.1251 54.5664-26.4885 112.3114-31.7862 4.7679 0 10.5954 4.7679 12.1847 10.5954zm-417.989 88.4717c3.1786 6.887 9.0061 15.3634 12.1847 18.542 12.7145 12.7145 5.2977 28.6076-33.3756 66.7511l-39.203 39.203-16.4229-18.0122c-19.0717-20.661-48.2091-76.8167-48.2091-92.7098 0-9.0061 5.8274-12.1848 33.3755-19.0718 18.0122-4.7679 44.5008-7.9466 59.3343-7.9466 21.7206 1.0596 27.0183 3.1787 32.3161 13.2443zm341.1723 34.9649c40.7923 16.9526 45.0305 20.1313 43.9709 32.316-1.0595 12.1847-22.2503 44.5007-43.9709 66.2213-13.7741 13.7741-51.3878 42.3817-56.1557 42.3817-2.1191 0-7.9466 3.7084-13.2443 8.4763-7.9465 7.4168-9.5359 6.3573-20.1313-10.0656-5.8275-10.0657-11.1252-20.6611-11.1252-23.8397s-3.1786-12.1847-7.4167-20.6611c-4.2382-7.9465-11.655-23.3099-16.9527-33.9053l-9.0061-19.0717 36.5542-34.4351c25.9587-24.8993 38.6732-33.3756 44.5007-30.7267 4.2382 2.6488 28.0779 12.7145 52.9771 23.3099zm-269.6533 36.0244c25.429 12.1847 25.9588 12.1847 25.429 36.0244 0 13.2443-4.2382 40.2626-9.5359 60.9236-9.5359 40.7924-12.1847 42.3817-48.2091 28.6076-27.0183-10.0656-72.5786-40.7923-76.287-50.8579-2.6489-6.3573 7.4168-20.1313 34.9649-47.6794 21.1908-21.1908 40.2625-38.6733 42.9114-38.6733 2.6488 0 16.4229 5.2977 30.7267 11.655zm119.1984 18.542c3.7084 11.6549 16.9527 41.3221 27.0183 60.9236 3.7084 7.9465 7.4168 23.3099 8.4763 33.9053l1.0596 20.1313-37.084 6.3572c-48.2091 9.0061-61.9831 9.0061-73.6381.5298-7.9466-5.8275-8.4763-11.1252-3.1786-52.9771 7.9465-65.6915 18.542-85.293 32.8458-62.5129 6.3572 10.0657 6.887 10.0657 18.5419-2.6488 13.7741-14.8336 22.2504-16.4229 25.9588-3.7084zm353.88681-583.2776c-5.2977 29.1374-5.8275 29.6672-27.5481 16.4229-68.3404-41.32209-76.2869-39.20301-58.8045 17.4825 7.9466 25.9587 12.7145 36.0244 15.8931 31.2564 2.6489-4.2381 4.768-11.6549 4.768-16.9526 0-13.7741 9.5358-11.1252 40.2625 12.1847 15.3634 11.6549 30.7267 21.1908 33.9053 21.1908 3.1787 0 5.2978-16.9526 5.2978-43.971 0-49.7984-7.4168-70.98922-13.7741-37.6137zm-772.40561-40.79231c-1.5894 2.64885 4.2381 7.41679 13.2442 10.59541 17.4825 5.82748 17.4825 6.88702-5.2977 37.6137-28.6076 38.1435-35.4946 61.4534-17.4824 56.6855 4.7679-1.5893 20.1313-4.2382 34.4351-6.3573 23.8397-3.1786 30.7267-9.0061 19.6015-15.8931-10.0657-6.3572-5.2977-20.1313 15.8931-42.9114 23.8397-25.95878 26.4885-36.55419 9.5359-41.32213-18.542-4.7679296-66.7511-3.7083896-69.9297 1.58932zm531.8897-108.602988c0 4.23816 2.1191 13.77403 5.2977 21.19082 4.2382 11.65496 3.7084 13.77404-4.2381 13.77404-95.8885 2.11908-99.0672 4.23817-70.4595 34.96487 11.1251 12.184718 21.7206 25.95875839 23.3099 30.7266984 5.2977 13.2442596 14.8336 4.76793 13.2442-11.65496l-1.5893-14.3038084h39.2031c22.7801 0 40.2625-2.11908 41.3221-5.82748 1.0595-2.64885-4.2382-15.89312-11.655-29.13738-6.887-12.7145-15.3633-28.60762-18.542-35.49464-5.8274-13.244272-15.8931-15.893122-15.8931-4.23816zm-286.0761-18.012212c0 3.17863 3.7083 6.88702 7.9465 8.47633 4.2382 2.11909 7.9466 6.35725 7.9466 10.595422 0 4.23816 2.6488 7.41679 5.2977 7.41679 18.542 0-7.4168 18.54197-61.9832 44.50073-19.0717 9.00611-14.8336 15.89312 18.542 31.256468 33.3755 15.3633504 50.3282 19.0717504 39.203 7.9465604-10.5954-10.5954104-7.4168-29.6671484 5.8275-33.3755484 27.5481-7.94656 56.6855-21.7206 56.6855-26.48853-.5298-5.82748-44.5008-39.732802-51.9176-39.732802-2.6488 0-7.9465-3.7084-11.6549-7.94656-7.4168-9.00611-15.8931-10.59542-15.8931-2.64886z" style="stroke-width:.529771"/></svg>