<svg height="960" style="" width="1686" xmlns="http://www.w3.org/2000/svg"><path d="m120.98468 923.4146c-7.02439 10.5366 17.56098 21.0732 30.73171 13.1708 4.39024-2.6342 8.78049-8.7805 8.78049-14.0488 0-10.5366-32.48781-10.5366-39.5122.878zm1365.36592-53.5609c0 11.4146 32.4878 21.0731 44.7804 13.1707 7.0244-3.5122 6.1464-7.9024-1.7561-13.1707-16.6829-10.5366-43.0243-9.6586-43.0243 0zm-1330.24397-789.3659c-6.14634 9.65854 36.87805 22.82927 46.53659 14.04879 6.14634-7.02439-14.92683-22.82927-30.73171-22.82927-5.26829 0-13.17073 3.51219-15.80488 8.78048zm1380.29267-56.19512c-12.2926 12.29269-6.1463 21.95122 11.4147 19.31708 10.5366-1.7561 18.439-7.02439 18.439-11.41464 0-10.53658-21.0732-15.80488-29.8537-7.90244zm-756.87803 420.58537c-30.73171 28.09756-31.60976 30.73171-18.43903 49.17073 40.39025 57.95122 101.85366 66.73171 150.14635 21.07317 30.73169-28.09756 31.60979-30.73171 18.43899-49.17073-40.39021-57.95122-101.85363-66.73171-150.14631-21.07317zm-381.95122-495.21951c0 5.26829 7.90244 11.41463 17.56098 14.04878 9.65853 2.63414 17.56097 7.90244 17.56097 12.29268s9.65854 12.29268 21.95122 16.68293c12.29268 4.39024 21.95122 12.29268 21.95122 17.56097 0 4.39025 5.26829 8.78049 12.29268 8.78049s14.04878 6.14634 17.56098 13.17073c2.63414 7.02439 10.53658 13.17073 16.68293 13.17073 6.14634 0 16.68292 9.65854 23.70731 21.07317 9.65854 19.31708 8.78049 23.70732-14.92683 46.53659-14.04878 13.17073-32.4878 36-41.26829 49.17073-13.17073 21.95122-18.43902 23.70732-47.41463 18.43903-17.56098-3.5122-38.63415-11.41464-46.53659-17.56098-7.02439-7.02439-21.95122-12.29268-31.60976-12.29268-9.65853 0-22.82926-6.14634-28.97561-13.17073-6.14634-7.02439-21.95121-13.17074-35.12195-13.17074-14.04878 0-26.34146-6.14634-29.85365-13.17073-5.2683-14.04878-57.95122-19.31707-57.95122-5.26829 0 9.65854 21.95122 18.43902 43.90243 18.43902 7.90244 0 20.19513 6.14635 26.34147 13.17074s20.19512 13.17073 30.73171 13.17073c11.41463 0 21.95121 6.14634 25.46341 13.17073 2.63415 7.02439 14.04878 13.17073 26.34146 13.17073 12.29269 0 24.58537 4.39024 27.21952 9.65854 3.51219 4.39024 15.80487 12.29268 27.21951 16.68292 19.31707 7.90244 21.07317 13.17074 21.07317 58.82927-.87805 47.41464-1.7561 50.04878-14.04878 33.36586-19.31708-25.46342-29.85366-3.5122-29.85366 62.34146 0 57.07317-5.26829 64.09756-46.53659 65.85366-14.04878.87805-11.41463 3.51219 9.65854 8.78049 27.21951 7.90243 28.97561 10.53658 23.70732 36.87804-3.5122 15.80488-11.41464 36.87805-17.56098 46.53659-10.53658 16.68293-9.65853 20.19512 9.65854 29.85366 15.80488 8.78049 21.07317 19.31707 21.07317 40.39024 0 16.6829 5.26829 32.4878 13.17073 36 7.02439 4.3902 15.80488 27.2195 18.43903 50.9268 3.51219 24.5854 8.78048 45.6586 12.29268 48.2927 3.51219 2.6342 8.78049 14.9268 12.29268 28.9756 4.39025 18.439 2.63415 25.4634-9.65854 28.9756-8.78048 2.6342-27.21951 10.5366-40.39024 17.561-14.04878 6.1464-29.85366 12.2927-36.87805 12.2927-6.14634 0-15.80488 6.1463-21.95122 13.1707s-17.56097 13.1708-26.34146 13.1708-20.19512 6.1463-26.34146 13.1707c-6.14635 7.0244-20.19513 13.1707-31.60976 13.1707s-23.70732 5.2683-27.21951 12.2927c-3.5122 7.0244-16.68293 14.0488-28.09756 15.8049-12.29269.878-22.82927 7.9024-25.46342 13.1707-4.39024 15.8049 28.97561 14.0488 45.65854-1.7561 7.02439-7.0244 22.82927-13.1707 34.2439-13.1707 12.29268 0 26.34146-6.1464 32.48781-13.1707 6.14634-7.0244 16.68292-13.1708 23.70731-13.1708s23.70732-5.2683 36-12.2927c118.53659-62.3414 159.80488-73.7561 159.80488-43.9024 0 7.0244 6.14634 14.9268 13.17073 17.561 7.02439 3.5122 13.17073 9.6585 13.17073 14.0488 0 4.3902 7.90244 14.9268 18.43903 23.7073 18.43902 14.9268 18.43902 14.9268-17.56098 39.5122-20.19512 14.0487-36 28.9756-36 32.4878 0 4.3902-6.14634 7.9024-13.17073 7.9024s-13.17073 4.3903-13.17073 8.7805c0 5.2683-9.65854 13.1707-21.95122 17.561-12.29268 4.3902-21.95122 12.2927-21.95122 16.6829s-7.90244 9.6585-17.56097 12.2927c-9.65854 2.6341-17.56098 8.7805-17.56098 14.0488 0 14.0487 23.70732 11.4146 29.85366-3.5122 2.63414-7.0244 13.17073-13.1708 22.82927-13.1708 9.65853 0 20.19512-6.1463 22.82926-13.1707 3.5122-7.0244 11.41464-13.1707 17.56098-13.1707 7.02439 0 14.92683-5.2683 17.56098-12.2927 2.63414-7.0244 11.41463-14.9268 19.31707-17.561 21.95122-7.0244 49.17073-25.4634 57.07317-38.6341 8.78049-13.1708 43.02439-14.0488 57.07317 0 5.26829 5.2683 33.36585 14.9268 60.58537 20.1951 39.51219 7.9024 50.04878 14.0488 48.29268 24.5854-2.63415 13.1707 8.78049 14.9268 93.95122 14.9268 54.43902 0 98.3415-3.5122 101.8537-8.7805 2.6341-5.2683 14.9268-8.7805 25.4634-8.7805 11.4146 0 25.4634-5.2683 30.73172-12.2927 6.1463-7.0244 20.1951-14.9268 31.6097-17.5609 12.2927-3.5122 21.9513-9.6586 21.9513-14.0488 0-12.2927 42.1463-10.5366 50.0487 2.6341 7.0244 10.5366 31.6098 28.0976 55.3171 38.6342 7.0244 2.6341 16.6829 10.5365 20.1951 17.5609 3.5122 6.1464 13.1708 11.4147 19.3171 11.4147 7.0244 0 13.1707 3.5122 13.1707 7.9024 0 4.3903 12.2927 12.2927 26.3415 17.561 14.9268 4.3902 26.3415 13.1707 26.3415 17.561 0 5.2683 6.1463 9.6585 13.1707 9.6585 19.3171 0 15.8049-18.439-4.3902-23.7073-9.6586-2.6342-17.561-7.9025-17.561-12.2927s-9.6586-12.2927-21.9512-16.6829c-12.2927-4.3903-21.9513-12.2927-21.9513-17.561 0-4.3902-3.5122-8.7805-7.9024-8.7805-5.2683 0-20.1951-10.5366-33.3659-22.8293-13.1707-12.2926-33.3658-26.3414-43.9024-30.7317-11.4146-4.3902-20.1951-14.9268-20.1951-24.5853 0-16.683 33.3658-44.7805 54.439-44.7805 6.1463 0 21.0732-10.5366 32.4878-21.9512 17.561-18.4391 25.4634-21.0732 52.6829-16.683 17.561 3.5122 37.7561 11.4147 45.6586 17.561 7.0244 7.0244 21.9512 12.2927 31.6097 12.2927 9.6586 0 22.8293 6.1463 28.9756 13.1707 6.1464 7.0244 21.9513 13.1708 35.122 13.1708 14.0488 0 26.3415 6.1463 29.8537 13.1707 5.2682 14.0488 57.9512 19.3171 57.9512 5.2683 0-9.6586-21.9512-18.439-43.9025-18.439-7.9024 0-20.1951-6.1464-26.3414-13.1708-6.1464-7.0244-20.1952-13.1707-30.7317-13.1707-11.4147 0-21.9513-6.1463-25.4635-13.1707-2.6341-7.0244-14.0487-13.1708-25.4634-13.1708-12.2927 0-26.3414-6.1463-32.4878-13.1707-6.1463-7.0244-20.1951-13.1707-31.6097-13.1707-28.9756 0-27.2195-20.1952 6.1463-72 17.561-26.3415 28.9756-58.8293 32.4878-84.2927 4.3903-48.2927 14.0488-63.21953 40.3903-64.09758 17.5609-.87805 17.5609-1.7561.878-5.26829-29.8536-7.90244-39.5122-21.07317-39.5122-56.19512 0-25.46342 4.3903-34.24391 18.439-38.63415l18.4391-6.14634-18.4391-12.29268c-9.6585-7.02439-22.8292-11.41464-28.0975-10.53659-18.439 4.39025-19.3171-28.09756-2.6342-46.53658 14.9269-16.68293 14.9269-17.56098-3.5122-22.82927-10.5365-2.63415-19.317-11.41464-19.317-20.19512 0-8.78049-6.1464-20.19513-13.1708-26.34147-17.5609-14.92683-16.6829-31.60975 2.6342-39.51219 14.0488-5.2683 14.0488-6.14634 0-16.68293-21.0732-15.80488-21.0732-57.95122 0-57.95122 8.7805 0 23.7073-6.14634 33.3658-13.17073 8.7805-7.02439 22.8293-13.17073 30.7317-13.17073 7.9025 0 19.3171-6.14634 25.4635-13.17073 6.1463-7.02439 17.5609-13.17074 26.3414-13.17074s20.1951-6.14634 26.3415-13.17073c6.1463-7.02439 20.1951-13.17073 31.6097-13.17073 11.4147 0 23.7074-5.26829 27.2195-12.29268 3.5122-7.02439 16.683-14.04878 28.0976-15.80488 12.2927-.87805 22.8293-7.90244 25.4634-14.04878 4.3903-14.92683-28.9756-13.17073-45.6585 2.63415-7.0244 7.02439-22.8293 13.17073-34.2439 13.17073-12.2927 0-26.3415 6.14634-32.4878 13.17073-6.1464 7.02439-16.6829 13.17073-23.7073 13.17073s-23.7074 5.26829-36 12.29268c-47.4147 25.46342-123.8049 57.95122-136.9756 57.95122-7.9025 0-14.0488-5.26829-14.0488-11.41463 0-7.02439-13.1708-26.34146-29.8537-43.02439l-30.7317-31.60976 35.122-31.60975c20.1951-17.56098 39.5122-31.60976 43.9024-31.60976s7.9024-4.39024 7.9024-8.78049c0-5.26829 9.6586-13.17073 21.9513-17.56097 12.2926-4.39025 21.9512-12.29269 21.9512-16.68293s7.9024-9.65854 17.561-12.29268c20.1951-5.2683 23.7073-23.70732 4.3902-23.70732-7.0244 0-13.1707 4.39024-13.1707 9.65854 0 4.39024-11.4147 13.17073-26.3415 17.56097-14.0488 5.26829-26.3415 13.17073-26.3415 17.56098 0 4.39024-6.1463 7.90244-13.1707 7.90244-6.1463 0-15.8049 5.26829-19.3171 10.53658-7.9024 13.17073-36 31.60976-57.0731 38.63415-8.7805 3.51219-15.8049 9.65854-15.8049 14.04878 0 5.26829-10.5366 7.02439-23.7073 4.39024-14.0488-3.51219-49.1708-10.53658-79.0244-16.68292-32.48782-7.02439-59.70732-17.56098-66.73172-28.09756-10.5366-14.92683-20.19515-15.80488-105.36589-9.65854-51.80487 3.51219-93.95122 9.65854-93.95122 14.04878s-11.41463 5.26829-26.34146 2.63415c-19.31707-4.39025-27.21951-1.7561-31.60976 8.78048-2.63414 7.90244-11.41463 14.04878-19.31707 14.04878-7.02439 0-20.19512 5.2683-27.21951 12.29269-12.29268 10.53658-19.31707 9.65853-53.56098-8.78049-21.95122-11.41464-46.53658-22.82927-54.43902-26.34146-7.90244-2.63415-16.68293-10.53659-19.31707-17.56098-2.63415-7.02439-10.53659-12.29268-17.56098-12.29268-6.14634 0-14.04878-6.14634-17.56098-13.17073-2.63414-7.0244-13.17073-13.17074-22.82926-13.17074-9.65854 0-20.19513-6.14634-22.82927-13.17073-6.14634-14.92683-29.85366-17.56097-29.85366-3.51219zm500.4878 138.7317c0 13.17074-50.04878 20.19513-69.36585 9.65854-27.21951-14.04878-22.82927-17.56098 25.46342-17.56098 24.58536 0 43.90243 3.5122 43.90243 7.90244zm-114.14634 31.60976c18.43903 21.95122.87805 27.21951-19.31707 6.14634-15.80488-15.80488-16.68293-19.31707-5.26829-19.31707 7.02439 0 18.43902 6.14634 24.58536 13.17073zm193.17077 13.17073c0 4.39025-14.0488 8.78049-31.6098 8.78049-18.439 0-28.9756-3.5122-25.46341-8.78049 2.63415-5.26829 16.68291-8.78049 31.60981-8.78049 14.0487 0 25.4634 3.5122 25.4634 8.78049zm-72.00004 23.70732c5.2683 8.78049 25.46344 16.68293 50.92684 20.19512 23.7073 3.5122 57.07322 11.41463 73.75612 17.56098 16.6829 6.14634 36 13.17073 43.0244 14.92683 9.6585 2.63414 7.9024 7.90243-7.0244 23.70731-28.9756 30.73171-57.0732 35.12195-95.70732 14.92683-68.48783-36-105.36588-47.41463-135.21954-41.26829-15.80488 3.51219-42.14634 5.26829-57.95122 5.26829-26.34146-.87805-28.97561 1.7561-24.58536 19.31708 2.63414 11.41463 2.63414 14.92682 0 8.78048-7.90244-17.56097-24.58537-12.29268-51.80488 15.80488s-51.80488 34.2439-63.21951 14.92683c-3.5122-7.02439-17.56098-19.31707-30.73171-28.09756-27.21951-16.68293-31.60976-36.87805-11.41463-44.78049 7.02439-2.63414 14.92682-12.29268 17.56097-21.95122 3.5122-8.78049 9.65854-16.68292 14.04878-16.68292 14.04878 0 8.78049 28.09756-7.02439 40.39024-14.92683 10.53658-14.04878 12.29268 5.26829 30.73171 17.56098 16.68292 22.82927 17.56097 25.46342 7.90244 6.14634-16.68293 80.78049-87.80488 92.19512-87.80488 5.26829 0 16.68293 7.02439 25.46341 14.92683 15.80488 14.04878 18.43903 14.04878 44.78049 0 15.80488-7.90244 37.7561-15.80488 50.04878-17.56098 12.29269-1.7561 24.58537-4.39024 28.09756-5.26829 3.5122 0 9.65854 5.26829 14.04878 14.04878zm168.58536 2.63415c0 4.39024-10.5366 8.78048-23.7073 8.78048-19.3171 0-21.9512-1.75609-11.4146-8.78048 17.561-11.41464 35.1219-11.41464 35.1219 0zm166.8293 84.29268c0 7.90244-4.3902 12.29268-10.5366 10.53658-15.8049-5.26829-18.439-24.58536-3.5122-24.58536 7.9025 0 14.0488 6.14634 14.0488 14.04878zm-335.41466 17.56097c31.60974 8.78049 21.95124 21.07317-15.80487 21.07317-33.36586 0-43.02439-7.02439-28.97561-20.19512 7.02439-7.02439 18.43902-7.90244 44.78048-.87805zm-294.14634 25.46342c22.82927-8.78049 24.58537 10.53658 5.2683 47.41463-14.92683 28.97561-23.70732 36-42.14635 36-13.17073 0-28.09756-4.39024-34.2439-10.53658-12.29268-12.29269-14.04878-42.14634-2.63414-42.14634 4.39024 0 12.29268-12.29269 17.56097-28.09757 8.78049-25.46341 10.53659-26.34146 26.34146-12.29268 8.78049 7.90244 21.95122 12.29268 29.85366 9.65854zm208.09756-13.17073c9.65854 4.39024 25.46342 12.29268 35.12196 17.56097 9.65853 4.39025 24.58536 8.78049 33.36585 8.78049s23.70732 6.14634 33.36585 13.17073c8.78046 7.02439 25.46346 13.17073 35.99996 13.17073 10.5366 0 21.0732 7.02439 24.5854 16.68293 2.6342 8.78049 13.1707 18.43902 22.82932 21.07317 14.0488 3.5122 16.6829 9.65854 12.2927 23.70732-5.2683 16.68292-3.5122 18.43902 12.2926 13.17073 19.3171-6.14634 26.3415 8.78049 7.9025 16.68293-8.7805 2.63414-7.0244 7.90244 4.3902 16.68292 18.4391 14.92683 18.4391 21.07317 1.7561 37.7561-14.9268 14.92683-17.561 52.68293-4.3902 60.58537 5.2683 2.63414 8.7805 18.43902 8.7805 33.36585-.8781 27.21952-.8781 27.21952-14.0488 10.53662-11.4146-14.92686-14.0488-15.80491-21.0732-4.39028-4.3902 7.02438-8.7805 21.95118-8.7805 33.36588 0 18.439-2.6341 20.1951-26.34142 14.9268-21.9513-4.3902-26.3415-2.6341-26.3415 10.5366 0 9.6585 4.3902 21.0732 9.6585 26.3415 5.2683 5.2682 7.9025 14.9268 5.2683 21.9512-3.5122 7.9024-7.0244 5.2683-10.5366-7.9025-7.9024-25.4634-37.75605-28.9756-68.48776-8.7805-23.70732 15.8049-25.46341 15.8049-41.26829 1.7561-15.80488-14.0487-18.43903-14.0487-38.63415-.878-12.29268 7.9024-36 14.0488-53.56097 14.0488-27.21952 0-30.73171-2.6342-30.73171-22.8293 0-21.9512-1.7561-22.8293-36.87805-17.561-33.36585 5.2683-35.12195 5.2683-23.70732-9.6585 6.14634-8.7805 19.31708-22.8293 29.85366-30.7317l17.56098-15.8049-19.31708-5.2683c-11.41463-3.51218-20.19512-10.53657-20.19512-16.68291s-6.14634-15.80488-14.04878-22.82927c-9.65854-7.90244-12.29268-19.31707-7.90244-39.51219 2.63415-17.56098.87805-29.85366-5.26829-31.60976-12.29268-4.39024-1.7561-94.82927 10.53658-94.82927 4.39025 0 7.90244 4.39025 7.90244 9.65854 0 17.56097 21.07317 2.63415 26.34147-19.31707 3.51219-14.92683 12.29268-21.95122 28.97561-23.70732 14.04878-1.7561 23.70731-7.90244 23.70731-15.80488 0-7.02439 9.65854-16.68293 21.95122-21.07317 12.29269-4.39024 24.58537-14.92683 27.21952-21.95122 6.14634-15.80488 7.02439-15.80488 29.85365-4.39024zm290.63414 1.75609c22.8293 18.43903 78.1464 91.31708 78.1464 102.73171 0 14.92683-18.4391 11.41464-31.6098-6.14634-8.7805-11.41463-13.1707-12.29268-21.0732-4.39024-7.9024 7.02439-6.1463 12.29268 7.9025 19.31707 10.5366 6.14634 18.439 19.31707 18.439 29.85366 0 11.41463 4.3903 24.58536 10.5366 30.73171 7.0244 7.02439 7.0244 13.17073-2.6342 24.58536-8.7804 10.53659-12.2926 40.39024-12.2926 102.73171 0 62.34143-3.5122 89.56093-10.5366 91.31703-7.0244 2.6342-11.4147-3.5122-11.4147-14.9268 0-24.5854-21.0731-18.439-24.5853 7.0244-1.7561 14.0488-8.7805 19.3171-24.5854 19.3171-18.439 0-21.0732-4.3903-21.0732-30.7317 0-24.5854 3.5122-31.6098 21.9513-36 26.3414-6.1464 43.9024-25.4634 30.7317-34.2439-4.3903-2.63418-8.7805-19.31711-8.7805-36.00003 0-16.68293-5.2683-37.7561-10.5366-47.41464-9.6585-14.92683-8.7805-19.31707 0-25.46341 14.9268-8.78049 10.5366-95.70732-4.3902-101.85366-6.1464-1.7561-11.4147-9.65854-11.4147-16.68293s-9.6585-20.19512-21.9512-29.85366c-27.2195-21.95122-27.2195-31.60975-1.7561-43.90244 26.3415-12.29268 35.122-12.29268 50.9268 0zm-529.4634 201.07317c-.87805 93.07318 0 98.34147 19.31707 113.2683 14.04878 10.5366 18.43902 20.1951 14.04878 30.7317-3.5122 9.6585 0 19.3171 8.78049 26.3415 21.07317 14.9268 9.65853 39.5122-14.92683 33.3658-20.19512-5.2683-78.14634-59.7073-78.14634-72.878 0-5.2683 6.14634-8.7805 13.17073-8.7805s13.17073 3.5122 13.17073 8.7805c0 4.3902 4.39024 8.7805 8.78049 8.7805 15.80488 0 8.78049-22.8293-13.17073-43.90248-12.29269-11.41463-21.95122-28.09756-21.95122-36.87805 0-8.78048-6.14634-18.43902-13.17074-21.07317-7.02439-3.51219-13.17073-12.29268-13.17073-21.07317s6.14634-21.95122 13.17073-29.85366c7.0244-7.02439 13.17074-22.82927 13.17074-34.2439 0-36 9.65853-50.04878 31.60975-50.04878h21.07317zm-112.39025-7.90243c0 16.68292-1.7561 17.56097-8.78049 7.02439-11.41463-16.68293-11.41463-26.34147 0-26.34147 5.2683 0 8.78049 8.78049 8.78049 19.31708zm592.68295 228.29263c12.2927 5.2683 21.9512 15.8049 21.9512 22.8293 0 16.6829-101.85362 115.9025-119.41462 115.9025-16.6829 0-15.8049-17.561 2.6341-31.6098 8.7805-6.1463 12.2927-14.0488 8.7805-18.439-4.3902-3.5122-12.2927 0-18.439 8.7805-14.9268 19.317-39.5122 19.317-53.56098.878-9.65854-14.0488-13.17073-14.0488-51.80488.8781-30.73171 12.2926-53.56098 14.0487-94.82927 9.6585-58.82927-6.1463-70.2439-10.5366-50.92683-22.8293 11.41464-7.0244 10.53659-10.5366-4.39024-21.9512-9.65854-7.0244-24.58537-17.561-33.36585-22.8293-12.29269-7.0243-13.17074-12.2926-6.14635-25.4634 12.29269-22.8292 23.70732-21.9512 30.73171 0 3.5122 12.2927 13.17073 17.561 28.97561 17.561 13.17073 0 33.36585 6.1463 43.90244 14.0488 14.92683 10.5366 32.4878 12.2927 70.2439 8.7805 27.21951-2.6342 59.70732-4.3903 71.12195-5.2683 25.46339 0 71.12199-18.439 71.12199-28.9756 0-5.2683 43.90242-28.9756 58.82922-32.4878.8781 0 12.2927 4.3902 24.5854 10.5365zm-120.29272 149.2683c-2.6341 6.1464-11.4146 11.4147-20.19511 11.4147-8.78048 0-17.56097-5.2683-19.31707-11.4147-2.63415-6.1463 4.39024-10.5365 19.31707-10.5365 14.92681 0 21.95121 4.3902 20.19511 10.5365z" style="stroke-width:.878049"/></svg>