<svg height="960" style="" width="1333" xmlns="http://www.w3.org/2000/svg"><path d="m977.65395 857.1138c-3.6699 4.1941-12.5823 8.3882-19.3977 9.4367-7.3397 1.0485-13.6309 3.6698-14.1551 6.8154-1.5728 8.3882 22.5433 9.4368 31.98 1.0486 4.7184-4.1942 13.1066-8.9125 18.3492-9.4368 5.2426-1.0485 9.96105-4.7183 10.48525-7.3397 1.5728-8.3882-20.44625-8.9124-27.26165-.5242zm-582.456-223.8602c0 10.4852 35.6499 75.4938 57.1446 103.804 48.2322 63.4358 98.5615 105.9011 157.8031 133.687 13.1066 6.2912 30.4073 14.6794 38.2712 18.3492 28.8345 14.6794 54.5234 7.3397 35.6499-9.961-11.5338-10.4852-47.7079-29.3587-56.0961-29.3587-3.1456 0-8.9125-3.6698-12.5823-7.8639-3.6699-4.1941-9.961-7.864-14.1551-7.864-8.9125 0-64.4843-41.4167-91.2217-67.6299-25.6889-26.2131-73.9211-91.746-81.2608-110.6194-6.8154-18.3492-11.5338-23.5919-22.5433-25.1647-5.7669-1.0485-11.0095 0-11.0095 2.6214zm322.4216-450.8661c2.0971 5.2427 5.7669 16.2522 8.3882 24.1161 2.0971 8.3882 6.2912 17.8249 8.9125 20.9705 2.6213 3.6699 6.2912 14.6794 7.8639 24.6404 1.5728 9.961 5.7669 28.8344 9.4368 40.8925 7.3397 23.0676 7.3397 23.0676-10.4853 38.7954-17.3007 15.7279-18.3492 15.7279-63.96 13.6309-27.2617-1.0486-46.6594 0-46.6594 2.6213s10.4852 14.6793 24.1161 26.2131c18.3492 16.2522 23.0675 23.5919 22.019 34.6014-1.5728 12.5823-4.1941 14.1551-30.4073 17.3006-15.7278 2.0971-35.6498 5.7669-43.5138 8.9125-8.3882 3.1456-30.9315 5.7669-50.8535 5.7669-19.3977 0-54.5233 3.6698-77.0666 7.8639s-59.766 7.864-82.8335 7.864c-23.0676.5242-60.8145 3.6698-83.88207 7.8639-23.06756 4.1941-67.6299 7.864-99.60993 8.3882-31.45577.5243-64.48433 2.6213-73.3968 4.7184l-15.72788 3.6698 20.44625 8.9125c15.20362 6.8154 44.56234 10.4853 104.85256 14.1551 46.65939 2.6213 96.46437 6.8154 110.61947 9.4367 14.6793 3.1456 46.1351 5.2427 70.7755 5.7669 24.6403 0 59.7659 3.6699 78.6394 7.864 18.8734 4.1941 49.805 7.3396 68.6784 7.8639 19.3977 0 45.0866 3.6698 57.1447 7.864 12.058 4.1941 27.7859 7.8639 34.6013 7.8639 9.961 0 12.5823 2.6213 12.5823 13.1066 0 13.1065-15.7279 31.98-40.3682 48.2321-6.8154 4.1941-10.4853 9.961-8.9125 12.5824 1.5728 2.6213 25.6889 4.7183 53.9991 4.7183 47.7079 0 51.902 1.0485 63.4358 13.1066 12.058 12.5823 12.058 14.6793 5.7669 35.6499-3.6699 12.058-7.864 29.3587-9.4368 38.7954-1.5727 9.4367-5.7668 19.922-9.961 23.0676-4.1941 3.1455-7.3396 11.5338-7.3396 18.3492 0 6.2911-2.0971 13.6308-5.2427 15.2036-8.9124 5.2426-5.7669 13.1066 5.2427 13.1066 12.058 0 48.2321-17.3007 71.824-35.1256 8.9124-6.2912 18.8734-12.0581 22.019-12.0581s24.1161-18.3492 47.1837-40.8925c45.0866-43.5138 79.1637-99.0857 79.1637-128.9686 0-8.9125 2.097-19.922 4.7183-24.1161 3.1456-4.1941 3.6699-9.961 1.5728-13.1066-2.097-2.6213-3.6698-37.2227-3.6698-76.0181 0-59.2417-1.5728-73.3968-8.9125-85.4549-5.2426-7.3396-9.4367-16.7764-9.4367-19.9219 0-13.6309-35.1256-61.8631-69.727-95.4159-19.922-19.3977-38.2712-35.1256-40.8925-35.1256s-14.6793-7.3397-26.7374-15.7279c-11.5338-8.9124-24.6403-15.7279-27.7859-15.7279-3.6699 0-9.4368-3.6698-13.1066-7.8639s-13.6308-7.8639-22.019-7.8639c-13.1066 0-15.2037 1.5727-12.0581 8.9124zm138.9297 187.6861c0 5.7669-9.4368 7.3397-47.7079 7.3397-36.1742 0-49.805 2.0971-56.6204 7.8639-5.2427 4.7184-13.1066 8.3882-17.825 8.3882-4.7183 0-8.9124 3.6699-8.9124 7.864s-3.6699 7.8639-7.864 7.8639-7.8639-1.5728-7.8639-3.1455c0-7.3397 27.2617-28.3102 36.1741-28.3102 5.7669 0 11.0095-3.6699 13.1066-7.864 4.1941-11.5338 97.5129-11.5338 97.5129 0zm31.4557 18.3492c5.7669 5.7669 10.4853 12.5823 10.4853 15.2036 0 2.6214 3.6698 5.7669 7.8639 7.864 4.7184 1.5728 6.2912 6.2911 4.1941 11.5338-2.6213 7.8639-3.6698 7.8639-8.3882-.5243-6.8154-12.5823-21.4947-26.2131-31.4557-30.4072-4.7184-1.5728-8.9125-5.7669-8.9125-8.9125 0-8.9125 15.2036-5.7669 26.2131 5.2426zm-178.2493 40.8925c0 6.8154-6.2912 11.5338-11.5338 8.3882s-.5243-12.5823 6.8154-12.5823c2.6213 0 4.7184 2.0971 4.7184 4.1941zm144.1723 8.9125c14.1551 11.5338 15.7278 16.2521 15.7278 41.4168 0 38.7954-15.2036 55.5718-49.2807 55.5718-37.2226 0-57.6689-29.3587-49.8049-70.7755 6.2911-35.6498 53.4748-50.3292 83.3578-26.2131zm91.746 99.6099c0 4.1941-2.0971 7.864-5.2427 7.864-2.6213 0-5.2426-3.6699-5.2426-7.864s2.6213-7.8639 5.2426-7.8639c3.1456 0 5.2427 3.6698 5.2427 7.8639zm-188.7347 18.3492c0 3.1456 5.7669 7.864 13.1066 10.4853s13.1066 7.3397 13.1066 10.4852c0 3.1456 20.4462 5.2427 52.9505 5.2427 39.844 0 52.4263 1.5728 50.8535 6.2911-1.5728 4.7184-17.8249 7.3397-50.3292 8.3882-39.844 1.0485-48.7565 0-51.3778-6.8154-1.5728-4.1941-7.3396-7.8639-12.058-7.8639-7.864 0-31.98-21.4948-31.98-28.3102 0-1.5728 3.6698-3.1456 7.8639-3.1456s7.8639 2.6213 7.8639 5.2426zm173.0068-1.5728c0 6.2912-24.1161 27.786-30.9315 27.786-9.961 0-6.2912-11.5338 4.7183-14.1551 5.7669-1.5728 10.4853-6.2912 10.4853-9.961 0-4.1941 3.6698-7.3397 7.8639-7.3397s7.864 1.5728 7.864 3.6698zm-277.8593-483.894599c-3.6699 4.7184-12.0581 8.3882-18.3492 8.3882-6.2912 0-14.6794 3.6699-18.3492 7.864-3.6699 4.1941-11.0095 7.8639-16.7764 7.8639-5.2427 0-11.0096 3.6699-12.5823 7.863999-2.0971 4.1941-7.864 7.8639-13.1066 7.8639-5.7669 0-11.5338 3.6699-13.1066 7.864-2.097 4.1941-5.7669 7.8639-9.4367 7.8639-8.3882 0-31.4558 25.6889-27.2617 30.4072 2.0971 2.0971 6.8154 0 9.961-4.7183 3.6699-4.1941 10.4853-9.4367 15.7279-11.5338 4.7184-1.5728 8.9125-5.7669 8.9125-8.9125 0-2.6213 4.7183-5.2426 10.4852-5.2426s12.0581-3.6698 13.6309-7.8639c2.097-4.1941 8.3882-7.864 15.2036-7.864 6.2911 0 14.6793-3.6698 18.3492-7.8639 3.6698-4.194099 12.5823-7.863999 20.4462-7.863999 7.864 0 16.7764-2.6213 19.922-5.7669 3.1456-3.1455 13.1066-7.3396 22.5433-9.4367 22.5433-4.1941 22.5433-13.106601-.5242-15.203611-12.0581-1.04852-20.9706 1.04851-25.6889 6.291111zm-48.2322-98.037101c-5.2426 1.04852-9.4367 4.1941-9.4367 6.81541 0 8.91247 16.7764 20.97051999 28.8344 20.97051999 10.4853 0 28.3102 6.81541001 55.0476 22.01904001 4.1941 2.09705 12.5823 6.29115 18.8735 8.91246 5.7669 2.62132 17.3006 12.05805 25.6889 20.97052 8.3882 8.3882 20.9705 17.30065 27.7859 18.873451 16.7764 4.1941 179.2979 154.657499 179.2979 165.667099 0 3.1455 5.7669 13.1065 12.5823 22.019 25.1646 34.0771 57.66895 109.5709 66.05715 153.0847 2.097 11.5338 6.8154 31.9801 11.0095 45.6109 5.2426 19.922 5.2426 28.3102-.5243 47.1837-3.6698 12.058-8.3882 31.98-10.4852 43.5138-8.3882 42.9895-40.89255 118.4834-66.05715 153.0847-6.8154 8.9125-12.5823 18.8735-12.5823 22.0191 0 5.2426-19.3978 24.6403-116.3864 115.862-42.4653 40.3683-47.1836 42.9896-67.6299 42.9896-27.2616-.5243-33.5528 2.6213-25.1646 12.5823 8.3882 10.4853 3.1456 19.922-17.3007 30.4072-9.4367 4.7184-20.9705 10.4853-25.1646 13.1066-29.883 15.7279-44.5623 21.4948-55.0476 21.4948-12.058 0-28.8344 12.058-28.8344 20.9705s37.7469 12.5823 54.5233 5.2426c8.9125-3.6698 25.6889-7.8639 37.2227-9.4367 11.5337-1.0485 25.6888-5.7669 31.4557-9.4367 5.7669-4.1941 15.2036-7.3397 21.4948-7.3397s14.1551-3.6699 17.8249-7.864c3.6699-4.1941 10.4853-7.8639 15.7279-7.8639 5.2427 0 12.0581-3.6698 15.7279-7.8639s10.4853-7.864 15.7279-7.864 12.058-3.6698 15.7279-7.8639c4.1941-4.7184 15.7279-7.864 30.9315-7.864 13.1066-.5242 29.883-3.6698 37.2226-7.8639 7.3397-4.1941 18.3492-7.3397 25.1647-7.8639 6.8154 0 11.5337-3.1456 11.5337-7.864 0-5.7669-5.7669-7.8639-20.9705-7.8639-11.5338 0-20.9705-2.0971-20.9705-5.2427 0-4.7183 31.4558-37.7469 88.0762-90.6974 49.28075-46.1352 68.15415-71.824 96.98865-132.1143 22.019-46.1351 29.883-67.6299 34.6013-94.3673 2.0971-11.5337 6.8154-26.2131 9.961-32.5043 3.6699-6.2911 6.2912-27.2616 6.2912-46.1351 0-18.8734-2.6213-39.844-6.2912-46.1351-3.1456-6.2912-7.8639-20.9705-9.961-32.5043-4.7183-26.7374-12.5823-48.2322-34.6013-94.3673-28.8345-60.2902-47.7079-85.9791-96.98865-132.1143-56.6204-52.9505-88.0762-85.979099-88.0762-90.697399 0-7.3397 11.5338-6.2912 23.0676 2.6213 5.7669 4.1941 15.7279 7.8639 22.019 7.8639 6.2912 0 14.1551 3.6699 17.825 7.863999 3.6698 4.1941 10.4852 7.8639 15.7278 7.8639 5.2427 0 12.0581 3.6699 15.7279 7.864 3.6699 4.1941 9.961 7.8639 14.1551 7.8639 9.43675 0 82.83355 56.0961 104.32835 79.688 20.4463 22.5433 54.5233 70.7754 54.5233 77.0666 0 2.6213 3.6699 7.3397 7.864 11.0095 4.1941 3.6699 7.8639 10.4853 7.8639 15.7279s3.6699 12.058 7.864 15.7279c4.1941 3.6698 7.8639 11.5338 7.8639 17.8249 0 6.2912 3.6699 16.2522 7.864 22.0191 4.1941 5.2426 7.8639 18.8734 7.8639 29.3587 0 23.0675 4.7184 36.6984 11.0095 32.5043 7.864-4.7184 5.2426-66.5814-3.1456-77.5909-4.1941-5.7669-7.8639-14.1551-7.8639-18.3492 0-15.7279-40.8925-90.6975-65.5328-120.5805-47.1837-56.0961-96.4644-96.4643-149.41505-121.104699-13.1065-6.2911-30.4072-14.6794-38.2711-18.3492-8.3882-4.194101-21.4948-7.863931-28.8345-7.863931-7.8639-.52427-19.922-3.66984-27.2617-7.86395-7.3396-4.1941-24.116-7.33968-37.2226-7.86394-15.2036 0-26.7374-3.14558-30.9315-7.86394-3.6699-4.1941-10.4853-7.86394-15.7279-7.86394s-12.0581-3.66984-15.7279-7.86395c-3.6698-4.1941-10.4852-7.86394-15.7279-7.86394-5.2426 0-12.058-3.66984-15.7279-7.86394-3.6698-4.1941-11.5337-7.86394001-17.8249-7.86394001s-16.2521-3.66983999-22.019-7.86393999c-5.2427-4.19411-18.3492-7.86395-28.3102-7.86395s-24.1161-3.66984-31.4558-7.86394c-12.5823-7.33968-35.1256-8.91247-53.4748-4.1941z" style="stroke-width:.524263"/></svg>