<svg height="960" style="" width="1145" xmlns="http://www.w3.org/2000/svg"><path d="m525.69181-29.999974c-8.9938 0-29.5757 10.5503-27.5002 13.8365.5189.8648 6.3994 1.5566 13.3177 1.5566 10.8963 0 12.7988.5189 17.1227 4.6699001 3.1133 2.9403 4.8428 6.3994 4.8428 9.51259996 0 10.20450004-11.761 25.42469994-26.4624 34.24559994-8.129 4.8428-11.7611 2.7673-7.0912-4.151 2.0754-3.4592 2.4214-5.1887 1.0377-6.5724-2.5944-2.5943-6.3994.8648-14.3554 12.4529-3.2862 4.8428-6.9183 8.6479-8.129 8.6479s-4.151-4.151-6.5724-9.3397c-8.129-17.1228-19.5442-23.3492-36.321-19.5442-6.3994 1.5566-10.3774 3.9781-17.4687 11.0693-8.3019 8.4749-11.934 16.085-7.2642 16.085.8648 0 6.0535-2.4214 11.2422-5.1887 7.9561-4.4969 10.0316-5.0158 13.3177-3.2862 16.258 8.4749 12.453 24.9058-9.8585 42.7204-24.5599 19.5442-44.9689 43.412304-54.6545 64.167104-9.3397 20.236-7.956 31.9971 4.6699 39.4343 4.1509 2.2484 7.4371 4.8428 7.4371 5.5346s-3.4591 4.6698-7.7831 8.8208c-4.3239 4.151-7.783 8.4749-7.783 9.6856 0 1.0378-1.2107 2.9403-2.5944 4.151-1.7296 1.3836-2.5943 5.3617-2.5943 11.4152 0 7.0912-.8648 10.2044-3.4592 12.7988-1.9025 1.9025-4.151 3.4591-5.1887 3.4591-2.7673 0-1.9025 6.3994 1.0377 7.6101 8.4749 3.2862 26.6354-1.2107 43.4123-10.3774 13.1447-7.4371 18.3335-11.934 32.343-28.5379 13.4906-15.5662 16.4309-17.2957 22.6574-12.7988 3.1132 2.5943 3.1132 2.9402.5188 11.761-5.8805 18.8524-8.3019 28.365-8.3019 31.9971 0 4.8428-5.3617 7.4372-12.4529 6.0535l-5.7076-1.0377 4.151 4.4969c2.2484 2.4214 5.7076 4.6698 7.783 5.0157 3.2862.5189 3.6321 1.5566 3.6321 11.2422 0 5.8806.5189 11.0693 1.2107 11.7611 2.9403 2.9403 20.409-9.1667 31.1323-21.6196 6.2265-7.0913 14.7014-15.5662 18.8524-18.6794 6.7453-4.8428 8.1289-7.0912 10.7233-17.2957 12.28-45.1418 32.8619-69.5288 58.8054-69.5288 18.1605 0 35.8022 13.6636 46.6985 36.321 5.1887 10.7234 5.5346 12.28 5.5346 31.9971 0 19.8901-.173 21.2737-5.7076 32.5159-9.1667 19.0253-30.2675 38.0506-51.3683 46.5255-14.3554 5.7076-47.3902 13.4907-57.0758 13.4907-6.7454 0-31.8241 4.4968-44.1041 8.1289-8.129 2.2485-17.4687 6.3995-38.2235 17.2958-6.7454 3.2861-31.3053 25.7706-40.645 36.8398-20.4089 24.387-26.2895 31.9971-30.0945 39.4343-2.0755 3.978-4.4969 7.783-5.3617 8.3019s-1.5566 2.4214-1.5566 4.151-1.0377 3.978-2.2484 4.6698c-1.0378.6919-3.8051 5.0158-6.0535 9.5127-2.2485 4.4969-4.6699 8.6478-5.7076 9.1667-.8648.6918-1.5566 2.9403-1.5566 5.0158 0 2.2484-1.2107 5.0157-2.5944 6.2264s-2.5944 3.978-2.5944 6.0535-1.2107 4.8428-2.5943 6.0535c-1.3837 1.2107-2.5944 4.151-2.5944 6.3994 0 2.4214-1.0377 6.3994-2.4214 8.8208-1.3836 2.5944-3.1132 7.6102-3.6321 11.0693-.5188 3.6321-1.7295 6.5724-2.5943 6.5724-2.7673 0-1.9026-11.5882.8648-14.5284 1.3836-1.3837 2.5943-4.8428 2.5943-7.4372 0-2.7673 1.2107-6.5724 2.5944-8.4749 1.3836-1.7296 2.5943-5.0157 2.5943-7.0912s1.2107-4.8428 2.5944-6.3994c1.3836-1.3837 2.5943-3.8051 2.5943-5.1888 0-3.1132 6.5724-16.2579 8.8209-17.6416.8647-.5189 1.5566-2.0755 1.5566-3.6321s1.0377-4.151 2.4214-5.5346c1.3836-1.5566 2.9402-4.8428 3.6321-7.2642 1.0377-4.324.5188-4.6699-11.5882-8.302-6.9182-2.2484-15.7391-5.0157-19.5441-6.2264-3.8051-1.2107-11.5881-2.7673-17.2957-3.4592-13.3177-1.5566-37.3588-8.9937-40.1261-12.6258-1.2107-1.5567-2.2484-4.6699-2.2484-7.0913-.173-5.1887-2.9403-9.3397-7.6101-11.0692-3.6321-1.3837-17.1228 4.4968-23.1763 10.2044-4.3239 4.151-3.978 4.8428 4.3239 6.5724 6.0535 1.3837 10.0315 5.1887 8.302 7.956-1.5566 2.5944-5.5347 2.0755-6.7454-.8648-1.0377-2.9402-7.2642-3.4591-8.8208-.8647-.5188.8647-2.2484 1.7295-3.6321 1.7295-3.2862 0-3.2862-9.3397.173-12.107 1.3836-1.2107 2.5943-3.2862 2.5943-4.4969 0-1.3836.6919-2.4214 1.5567-2.4214.8647 0 2.7673-1.9025 4.1509-4.1509 2.7673-3.978 2.5944-4.151-5.7076-8.4749-4.6698-2.4214-8.8208-3.978-9.3396-3.2862-.5189.5189-1.0378 20.236-1.0378 43.7581v42.7205l4.8428 3.1132c2.5944 1.7296 7.4372 3.4591 10.7234 4.151 7.0912 1.0377 8.8208 5.5346 4.1509 10.5504-2.9402 3.2861-2.9402 3.6321 0 6.3994 2.2485 2.2484 6.7454 3.1132 20.5819 3.4591 20.0631.6918 23.3492 2.2485 19.3712 8.4749-1.5566 2.2485-2.2484 4.8428-1.7295 5.5346.5188.8648 6.7453 2.0755 14.0095 2.7674 12.7988 1.2107 12.9718 1.3836 15.912 7.6101 2.7674 5.7076 3.6321 6.2264 9.5127 5.8805 5.8805-.3459 6.3994 0 6.3994 4.151 0 2.4214-1.0377 8.4749-2.4214 13.3177s-3.6321 13.4906-5.0158 19.1982c-8.8208 36.1481-9.8585 44.1041-5.8805 44.1041 2.7673 0 13.3177-10.5504 13.3177-13.3177 0-1.0377 1.2107-2.7673 2.5944-3.978 1.3836-1.2107 2.5943-3.4592 2.5943-5.1887 0-1.7296 1.2107-4.151 2.7673-5.3617 2.7673-2.2484 2.7673-12.107-.3459-26.9813-.5189-3.1132-.5189-7.7831.3459-10.3774 1.2107-4.151 1.5566-3.1133 2.5944 6.3994.6918 6.2264 2.2484 14.5284 3.4591 18.5064 1.9026 6.2264 1.9026 7.7831-.5188 10.3774-1.3837 1.7296-3.1133 5.1887-3.8051 7.7831-.5189 2.7673-1.9025 4.8428-2.7673 4.8428-1.0378 0-1.7296 1.0377-1.7296 2.2484 0 1.3837-1.5566 4.151-3.2862 6.2265-1.9025 2.2484-3.6321 4.4969-3.978 5.0157-.3459.6919-3.805 3.8051-7.6101 6.9183-5.3617 3.978-8.9938 5.5347-13.8366 5.5347-3.805 0-10.7233 1.0377-15.7391 2.4214-5.0157 1.3836-16.6039 2.7673-25.9435 2.9402l-16.9498.6919-3.9781-7.2642c-5.0157-9.1668-10.8963-11.2423-16.6038-5.8806-5.8806 5.5346-7.9561 1.9025-7.9561-14.8743 0-16.085-1.3836-17.2957-11.934-11.4152-5.0158 2.9403-5.3617 3.8051-5.3617 13.1448 0 12.107-2.0755 13.4906-12.9718 8.129-6.0535-2.9403-8.8208-3.4592-12.4529-2.2485-3.1132 1.0378-6.5724 1.0378-9.6856-.1729-6.0535-2.2485-12.4529.8647-17.9875 9.1667-6.9183 10.2045-4.4969 17.4687 3.6321 11.4152 4.6698-3.6321 9.1667-3.2862 11.4151.8647 1.0378 1.9026 3.4592 3.4592 5.3617 3.4592 6.2265 0 10.2045 3.2862 10.2045 8.4749 0 6.0535-3.2862 7.6101-8.9938 4.6698-3.805-2.0755-5.1887-1.7295-13.1447 3.1133-10.3775 6.3994-13.6637 12.107-10.5504 18.8523 2.4214 5.5346 5.0157 6.0535 6.2264 1.2107 1.0378-4.151 4.324-4.3239 10.0316-.6918 2.7673 1.9025 5.8805 2.4214 9.5126 1.5566 5.3617-1.2107 10.3774 1.2107 10.3774 5.0157 0 1.0378-3.978 6.0535-8.6478 11.0693-9.5127 10.2045-10.3775 13.4906-5.3617 19.5441 3.2862 3.9781 3.4591 3.9781 4.6698.6919 1.7296-4.4969 3.9781-6.0535 9.5127-6.0535 2.4214 0 5.8805-1.2107 7.7831-2.5944 4.1509-3.1132 8.6478-3.2862 9.6856-.5189.3459 1.2107.8647 17.4687 1.0377 35.9751.173 18.5065 1.2107 51.8872 2.4214 74.0257 1.9025 38.5694 1.9025 40.6449-1.2107 46.6984-5.0158 9.6856-14.0095 20.0631-21.6196 25.4247-3.8051 2.5944-6.9183 5.7076-6.9183 6.9183s2.2484 5.1887 4.8428 8.8208c9.3397 13.1448 17.6416 32.516 28.192 66.4156 4.8428 15.2202 8.6478 24.214 10.3774 24.214.8648 0 1.9025-2.0755 2.4214-4.6699 1.0378-4.8428 10.5504-34.7644 15.5662-48.7739 4.1509-11.2422 12.107-27.8461 16.9498-34.9373 7.2642-10.7234 7.2642-12.6259-.346-17.8146-3.6321-2.5944-10.3774-9.3397-14.7013-15.0473-4.4969-5.7076-8.8208-9.8585-9.6856-9.3397-1.0378.5189-1.7296 7.7831-1.7296 16.085 0 13.8366-1.9025 35.1103-4.4969 50.3306-1.3836 8.8208-4.6698 3.978-4.4969-7.0913 0-5.0157 1.0378-16.2579 2.2485-24.7328 1.5566-10.8963 2.2484-41.3368 2.4214-102.7366v-87.3434l12.4529-.1729c15.3932-.3459 17.6416.6918 14.5284 6.5724-2.9403 5.5346-1.2107 8.1289 5.0158 8.1289 5.8805 0 22.4844-4.1509 27.5001-6.7453 5.0158-2.7673 12.28-2.4214 12.28.5189 0 1.3836-.6918 3.1132-1.7296 3.6321-.8648.5189-1.7295 1.7296-1.7295 2.7673 0 2.0755 27.1542 2.0755 28.3649 0 .5189-.8648 3.1133-2.0755 5.7076-2.7673 2.5944-.5189 7.956-3.2862 11.9341-5.8806 6.3994-4.3239 7.4371-4.6698 11.2422-2.5943 2.2484 1.2107 5.0157 2.2484 6.2264 2.4214 1.2107 0 9.3397-6.9183 18.1605-15.2202 16.9498-16.0851 36.1481-31.4782 39.2613-31.4782 1.0377 0 1.9025-.6919 1.9025-1.5567 0-1.7295 1.3837-2.5943 18.1605-11.4151 4.8428-2.4214 11.0693-6.0535 13.8366-7.7831 10.0315-6.2265 18.1605-10.3774 18.1605-8.9938 0 1.5566-6.9183 7.9561-10.3774 9.5127-1.3837.6918-4.8428 2.7673-7.7831 4.6698-2.7673 1.9025-6.3994 3.8051-7.7831 4.4969-1.3836.5189-3.805 1.7296-5.1887 2.5944-1.3836.8647-3.805 2.0754-5.1887 2.7673-1.3836.6918-2.9403 1.5566-3.4591 2.0755-1.5566 1.9025-11.9341 8.8208-12.9718 8.8208-2.2485 0-22.1385 16.2579-32.516 26.6354-15.3932 15.3932-23.8681 20.7548-30.9593 19.3712-3.978-.6919-7.6101 0-12.28 2.4214-3.4591 1.9025-8.1289 3.4591-10.3774 3.4591-2.2484 0-4.6698.6918-5.7076 1.7296-.8648.8648-4.6698 2.2484-8.4749 3.1132-6.9183 1.3837-6.9183 1.3837-8.129 10.7234-2.9402 25.7706.173 84.2301 5.3617 97.3748 1.0378 2.7674 1.9025 7.0913 1.9025 10.0316 0 2.7673 2.4214 10.0315 5.1888 15.912 2.9402 6.0535 5.1887 11.9341 5.1887 12.9718 0 2.7673 12.9718 31.1323 19.7171 42.7204 5.1887 9.1667 18.1605 27.1543 27.5002 38.0506 12.7988 15.0473 22.8303 24.5599 38.3965 36.321 12.6258 9.6856 44.45 26.8084 49.8116 26.8084 1.7296 0 4.6699.8647 6.5724 1.9025 11.4152 6.0535 60.1891 8.6478 81.9817 4.3239 17.2957-3.4591 46.6984-14.3554 52.9249-19.5441 1.3836-1.2107 3.1132-2.2485 3.6321-2.2485 2.5943 0 20.236-12.7988 27.5002-19.8901 8.4749-8.3019 15.2202-19.7171 21.1007-36.321 3.1133-8.4749 3.8051-14.1825 3.8051-31.1323 0-25.4247-3.1132-34.9373-18.8523-61.3997-10.2045-16.9498-18.1605-35.2833-19.7172-45.8337-3.6321-22.4844 7.7831-46.8714 27.5002-58.9784 9.1668-5.5346 10.7234-5.8805 25.2518-5.8805 13.8365 0 16.7768.5189 25.7706 5.1887 21.7926 10.8963 31.4782 23.5222 32.8619 42.8934 1.2107 14.8743-2.2485 22.4844-11.9341 26.1165-8.129 2.9403-15.7391.8648-25.7706-7.2642-7.7831-6.2265-10.2045-5.1887-4.8428 2.2484 6.7453 9.5127 16.7768 14.5284 28.8838 14.7014 9.3397 0 11.4152-.6918 17.1228-5.3617 17.2957-13.8365 19.1982-42.0286 4.4969-63.3023-10.2045-14.7013-25.0788-27.8461-37.5317-32.8619-11.5882-4.8428-43.4123-7.6101-56.3841-4.8428-24.214 4.8428-41.8556 17.6417-51.5412 37.3588-2.0755 4.6698-4.6698 9.8586-5.5346 11.5881-8.6479 16.431-10.8963 44.1041-5.1887 63.4753 4.8428 16.7768 8.8208 24.5599 20.063 39.7801 22.4844 30.6135 14.5284 66.4156-18.3335 81.8088-26.8083 12.6258-40.4719 12.9718-70.3935 2.0755-16.7769-6.0535-29.7486-14.8744-45.8337-31.3053-7.4371-7.4371-18.5064-21.9655-18.5064-24.041 0-.5189-2.2484-5.7076-5.1887-11.5882-7.956-16.9498-10.3774-29.2297-10.3774-51.5412 0-42.8934 16.6039-90.8025 47.3902-136.9821 15.0473-22.3114 60.0162-63.9941 78.8685-72.8149 1.3837-.6918 5.0158-2.7673 7.7831-4.6699 6.7453-4.3239 25.2517-13.3177 33.3807-16.2579 35.8021-12.7989 55.0004-16.9498 90.6296-19.5442 21.1007-1.3836 52.233 3.1132 86.1326 12.7988 58.2866 16.431 119.1675 56.3841 160.8502 105.6769 3.2861 3.978 6.5723 7.2642 7.4371 7.2642 1.7296 0 1.5566-6.5724-.3459-7.6102-4.3239-2.7673-13.1447-37.3587-13.1447-51.3682.1729-17.9876 7.4371-27.6732 27.3272-35.9751 13.8366-5.7076 41.6827-7.2642 54.3085-2.9403 4.4969 1.5566 9.5127 2.7673 11.2423 2.7673 3.978 0 4.1509-3.2862.1729-4.6698-7.956-2.7673-39.0883-31.3053-49.6387-45.4877-10.2045-13.8366-13.1447-19.5442-13.1447-26.8084 0-21.7926 37.1858-42.2015 76.61999-42.3745 14.7013 0 20.236-2.4214 10.3774-4.3239-2.7673-.5189-7.0912-2.0755-9.6856-3.4592-2.7673-1.3836-5.7076-2.5943-6.5724-2.5943-.8647 0-6.74529-2.4214-13.14469-5.3617-49.2928-22.4844-58.2866-33.2078-41.5097-48.9469 7.0912-6.5724 9.8585-8.3019 25.4247-15.2202 5.5346-2.4214 18.3334-6.2265 31.99709-9.3397l5.1887-1.2107-4.324-1.2107c-2.4214-.8648-8.47489-1.3837-13.66359-1.5566-23.6951-.5189-84.576-13.6636-96.683-20.9278-8.6479-5.1887-10.3775-10.5504-5.5347-17.2957 3.8051-5.3617 26.2895-20.7549 38.0506-26.1166 3.2862-1.3836 8.8208-3.978 12.107-5.3616 3.2862-1.5567 8.129-3.2862 10.8963-3.8051 7.4372-1.7296 5.3617-4.4969-3.4591-4.4969-10.8963 0-58.8055 8.302-75.9282 13.1448-4.8428 1.3836-10.3774 2.4214-12.28 2.4214-1.9025 0-6.7453 1.0377-11.0692 2.4214-4.151 1.2107-12.6259 3.805-18.8524 5.3616-6.2264 1.7296-17.1227 5.0158-24.214 7.4372-7.0912 2.2484-15.2202 4.8428-18.1605 5.5346-2.7673.8648-11.761 3.978-19.89 6.9183-8.129 3.1132-17.8146 6.7453-21.4467 8.129-15.2202 5.5346-68.3181 31.3052-77.8307 37.7046-3.4592 2.4214-6.7454 4.324-7.0913 4.324s-4.6698 2.7673-9.6856 6.0535c-5.1887 3.2862-10.3774 6.0535-11.5881 6.0535-1.3837 0-5.7076-2.7673-9.6856-6.0535-4.151-3.2862-8.302-6.0535-9.5127-6.0535-1.0377 0-3.805-1.0378-5.8805-2.4214-2.0755-1.3837-6.7453-2.9403-10.3774-3.4592-3.6321-.6918-6.0535-1.9025-5.5347-2.9402 1.9026-2.9403 13.6637-1.3837 21.6197 2.7673 4.3239 2.2484 9.5126 5.0157 11.7611 5.8805 2.0755 1.0378 3.805 2.5944 3.805 3.6321 0 6.7453 19.8901-7.2642 35.6292-25.4247 21.1008-24.041 33.7267-46.5255 44.7959-79.5603 4.151-12.6258 4.3239-45.3147.3459-62.7834-4.4969-19.0253-8.129-31.1323-11.5881-38.0506-14.1825-27.5002-24.387-41.3368-44.277-61.2268-5.7076-5.5347-9.3397-10.3775-8.4749-10.7234 1.0377-.3459 4.3239-2.2484 7.6101-4.3239 7.7831-4.6698 5.3617-6.745304-9.6856-8.647904-13.6636-1.5566-21.2738-3.4591-30.2675-7.4371-8.302-3.6321-8.9938-8.9938-1.3837-11.7611 6.3994-2.2484 10.0315-7.7831 6.0535-9.3397-1.3836-.6918-5.5346-.5189-9.1667.173-15.5662 2.7673-31.6512 2.9402-37.5317.1729-7.2642-3.4591-6.5724-7.783 2.7673-14.1825 7.4372-5.1887 8.129-6.7453 3.978-8.9937-3.2862-1.9026-13.8366.6918-18.1605 4.3239-1.5566 1.3837-5.0157 2.5944-7.7831 2.7673-4.8428.3459-5.0157.173-5.5346-8.9938-.3459-5.7075.5189-11.5881 1.9025-14.7013 4.6699-9.8586 6.2265-20.4089999 4.4969-29.05679994-2.2484-9.85859996-13.1447-23.00330006-23.1762-27.50020006-3.8051-1.7296-9.1668-3.1132-12.107-3.1132zm-339.0265 27.6785001c-2.5205.02-5.0988 1.2377-7.5797 3.6267-3.978 3.4591-3.978 4.3239-2.5943 18.5063999 1.7296 18.3335 1.7296 62.4376.6918 272.580504l-.8648 164.3093 3.6321.5189c2.0755.3459 6.5724-1.2107 10.0315-3.1133l6.2265-3.805v-223.4607c0-214.466804-.173-223.8065039-3.1132-226.40090394-2.0269-1.86469996-4.2059-2.77949996-6.4299-2.76189996zm292.8064 107.2064039c3.2915-.02 5.5751.4216 5.5751 1.4053 0 .8648-3.2861 2.0755-7.2642 2.7673-6.9182 1.0378-10.7233 2.4214-25.2517 9.3397-7.4372 3.6321-11.4152 9.6856-12.4529 19.0253-.5189 4.3239-1.7296 7.956-2.7673 8.3019-2.9403 1.0378-6.3994-8.9937-5.0158-15.0472 2.4214-10.7234 8.6479-15.5662 30.2675-23.0033 5.1347-1.7458 12.0985-2.76 16.9093-2.789zm-5.7887 15.7364c1.3864-.01 2.4565 2.8781 1.6782 6.2508-1.5566 7.0912-9.6856 23.0033-12.2799 24.041-1.2107.5189-3.6321.346-5.1887-.1729-2.4214-1.0378-2.0755-1.9025 2.5943-5.8806 3.1133-2.7673 6.5724-8.3019 8.129-13.1447 1.5566-4.6698 3.1132-9.1667 3.6321-10.0315.4756-.7351.9729-1.0594 1.435-1.0621zm-21.544 9.3975c4.403.013 8.6938 3.6608 8.6938 8.6144 0 4.8428-2.0754 5.3617-5.3616 1.3836-1.2107-1.5566-4.324-3.4591-6.7454-4.4968-4.1509-1.5567-4.1509-1.7296-1.2107-3.9781 1.4242-1.0566 3.0314-1.5278 4.6239-1.5231zm15.2145 32.0153c7.7645.032 15.2503 2.9102 20.9795 8.4232 4.6699 4.4969 9.3397 16.7769 8.129 21.4467-1.2107 4.8428-4.4969 6.2265-4.4969 1.7296 0-6.9183-7.2642-19.0253-13.1447-22.3115-6.5724-3.4591-17.1228-4.151-20.236-1.0377-1.0377 1.0377-3.2862 1.9025-4.8428 1.9025-3.2862 0-19.3712 15.2202-33.8996 31.9971-4.8428 5.7075-9.5126 9.8585-10.2045 8.9937-.6918-.6918 1.2107-3.6321 4.151-6.3994 3.1132-2.7673 5.5346-5.5346 5.5346-6.0535 0-2.0755 16.258-22.4844 21.9656-27.5002 3.1132-2.7673 8.4749-6.3994 12.107-8.129 4.5401-2.0754 9.2991-3.0808 13.9578-3.0615zm3.6855 66.2071c3.3613-.045 4.5601.881 5.0141 2.9241.6918 3.6321-5.3617 5.1887-13.1448 3.6321-7.6101-1.5566-7.2642-4.4969.8648-5.7076 3.1511-.5351 5.5052-.8251 7.2659-.8486zm-303.9739 111.1952c-1.1242.043-2.6808.7784-5.4481 2.2485-6.2265 3.2862-13.1448 12.6259-11.4152 15.3932.6918.8648 3.1132.8648 6.2265-.3459 4.3239-1.7296 5.5346-1.3837 9.1667 1.9025l4.151 3.978 1.2107-5.5346c.5188-2.9403 1.0377-7.0913 1.0377-9.1668 0-2.0754-1.0377-5.1887-2.0755-6.5723-1.0377-1.2972-1.7296-1.9458-2.8538-1.9026zm-4.9941 35.4563c-1.3188-.043-2.789.7783-5.6427 2.4214-2.4214 1.2107-5.8806 2.4214-7.9561 2.4214-5.0157 0-9.3397 5.3616-9.3397 11.5881 0 7.0912 1.9026 8.3019 5.5347 3.6321l3.1132-3.978 4.3239 4.8428c5.8806 6.7453 14.7014 9.1667 17.8146 5.1887 3.6321-4.8428 1.7296-19.5442-3.1132-23.3492-2.2485-1.8161-3.4159-2.7241-4.7347-2.7673zm665.3675 25.7256c5.0577 0 8.7114.4449 8.7114 1.4286 0 1.7296-10.0316 3.6321-19.5442 3.6321-3.6321 0-8.3019.8648-10.3774 1.9026-1.9026 1.2107-8.6479 2.5943-14.8743 3.4591-12.453 1.3837-27.8461 4.151-39.9531 7.0912-4.324 1.0378-12.107 2.4214-17.2958 3.1133-5.1887.6918-11.761 2.2484-14.3554 3.2862-2.7673 1.0377-8.129 1.9025-12.107 1.9025-3.978.173-9.1667 1.2107-11.5881 2.5944-4.8428 2.7673-19.0253 3.4591-19.0253 1.0377 0-2.0755 4.4969-3.6321 11.0692-3.6321 3.1133 0 6.3995-.8648 7.4372-1.9025 1.0377-1.0378 6.0535-2.4214 11.0693-3.2862 5.1887-.6919 11.761-2.0755 14.5284-3.1133 6.5723-2.2484 22.8303-5.5346 36.321-7.2642 5.7075-.6918 12.6258-2.2484 15.2202-3.2861 2.7673-1.0378 8.4749-1.9026 12.9718-1.9026 4.4969-.1729 12.4529-1.2107 17.6416-2.5943 6.367-1.5404 16.7584-2.4713 24.1505-2.4664zm-659.7346 12.3695c-1.6422 0-4.0547 1.3472-7.8165 3.9334-3.2862 2.4214-6.9183 4.324-8.3019 4.324-2.7674 0-7.2642 10.0315-6.0535 13.3177.6918 1.5566 2.2484 1.9025 4.6698 1.2107 1.9025-.6918 7.0912-1.3837 11.4152-1.3837 6.7453-.1729 7.956-.6918 9.3397-4.6698.8647-2.4214 1.0377-7.2642.3459-10.7234-.7567-4.0672-1.6167-6.0135-3.5987-6.0089zm221.6328 18.8078c1.362 0 2.4862.5188 3.1781 1.5566 1.2107 1.9025-7.2642 4.4969-9.1668 2.7673-.5188-.6918 0-1.9025 1.3837-2.7673 1.6431-1.0378 3.2429-1.5566 4.605-1.5566zm278.3637 2.0305c2.4247.01 3.3294.3152 2.0647.7368-1.7296.3459-4.8428.3459-6.9183 0-2.2485-.3459-.8648-.6918 2.9403-.6918.7134-.032 1.3538-.047 1.9133-.045zm-298.064 8.2148c.7734.0009 1.2587.4294 1.2587 1.3428 0 .8648-1.9025 2.4214-4.3239 3.4591-2.4214 1.0378-4.3239 2.7674-4.3239 3.8051 0 .8648-.6919 1.7296-1.5567 1.7296-4.1509 0-34.7643 29.7486-34.7643 33.8996 0 1.3836-1.2107 2.9402-2.5944 3.4591-1.5566.6918-2.5944 3.4592-2.5944 7.4372 0 7.783-1.7295 14.0095-3.6321 14.0095-2.7673 0-1.7295-16.7768 1.0378-19.7171 1.3836-1.3837 2.5943-3.6321 2.5943-4.8428 0-2.9403 3.8051-7.956 14.7014-19.3712 7.4372-7.7831 23.3492-20.063 26.1165-20.063.5189 0 2.0755-1.2107 3.4592-2.5944 1.7458-1.6431 3.4915-2.5548 4.6218-2.5535zm414.7178 9.6714c28.4051-.043 56.0439.8489 62.346 2.3947 5.0158 1.2107 3.9781 1.3837-6.2264 1.7296-82.3276 1.7296-126.9506 3.6321-138.3657 5.3617-10.0315 1.5566-17.1228 1.7296-25.0788.5189l-11.2422-1.7296 15.5661-1.2107c8.6479-.6918 19.5442-2.0755 24.214-3.2862 4.8428-1.0377 23.5222-2.4214 41.5097-3.1132 11.2963-.4324 24.366-.6455 37.2773-.6652zm-592.5815 15.0787c-1.7558.019-4.0824.6337-6.8065 1.8444-7.0913 3.1133-10.7234 7.4372-8.129 10.0316 2.4214 2.4214 18.5064-5.3617 18.5064-8.9938 0-1.9458-1.3136-2.9065-3.5709-2.8822zm.7685 20.3333c-1.9138.029-4.7861 1.2553-9.3046 3.8226-6.9183 3.978-9.5126 8.8208-6.3994 11.9341 1.0377 1.0377 4.4969.1729 9.6856-2.2485 7.6101-3.805 11.0693-8.3019 8.8208-11.934-.6324-1.054-1.493-1.5942-2.8024-1.5742zm489.9278 6.8402c7.5407-.037 18.1149.8739 24.4819 2.517 5.5346 1.3837 13.6636 2.5944 18.1605 2.5944s11.934 1.2107 16.6039 2.5944c4.6698 1.3836 11.4151 2.5943 14.8743 2.5943 3.6321 0 9.8585 1.2107 13.8365 2.5944 3.9781 1.3836 10.0316 2.5943 13.3177 2.5943 3.2862 0 7.6102.8648 9.6856 2.0755 2.0755 1.2107 7.7831 2.5944 12.453 3.2862 4.8428.5189 11.0692 1.9025 13.8365 3.1132 2.9403 1.0378 8.129 2.2485 11.7611 2.7673 3.4592.5189 6.3994 1.7296 6.3994 2.5944 0 2.5944-15.912 1.9025-20.7548-.8648-2.4214-1.3836-7.6101-2.4214-11.4152-2.5943-3.978 0-10.5504-1.2107-14.5284-2.5944s-9.8586-2.5944-12.7988-2.5944c-2.9403 0-9.1668-1.2107-13.8366-2.5943-4.6698-1.3837-11.5881-2.5944-15.2202-2.5944s-9.5127-1.2107-12.9718-2.5943c-3.2862-1.3837-9.8586-2.5944-14.3555-2.5944-4.4968 0-11.5881-1.2107-15.5661-2.5943-3.978-1.3837-10.7233-2.5944-14.7014-2.5944-9.5126 0-18.1605-1.7296-18.1605-3.6321 0-.9837 3.7394-1.4536 8.8989-1.4793zm-489.6106 16.2019c-1.3908-.038-3.3629.7138-6.1626 2.2272-11.9341 6.2265-15.0473 12.6259-6.2265 12.6259 2.9403 0 5.7076-.8648 6.2265-1.9026.6918-.8647 3.1132-2.4214 5.5346-3.4591 2.9403-1.0377 3.978-2.5944 3.6321-5.3617-.3892-2.724-1.2161-4.0803-3.0041-4.1297zm653.6689 16.9286c3.2862 0 4.6698.3459 3.1132.8647-1.7296.346-4.4969.346-6.0535 0-1.7296-.5188-.3459-.8647 2.9403-.8647zm-653.5781 5.6964c-1.5343.01-3.7942 1.0056-7.1182 2.9514-8.302 4.6699-11.0693 7.6101-9.5127 10.0315 3.1133 5.0158 20.409-3.1132 19.5442-9.1667-.3676-2.5727-1.1744-3.8275-2.9133-3.8162z" style="stroke-width:.172957"/></svg>