<svg height="960" style="" width="1710" xmlns="http://www.w3.org/2000/svg"><path d="m608.27474 898.70899c15.49239 1.72135 38.73098 1.72135 51.64131 0 12.91032-1.72142 0-3.44277-28.40272-3.44277s-38.73098 1.72135-23.23859 3.44277zm-128.24257-469.0752c-25.82066 34.42753-55.94476 80.9047-66.27301 103.2826-11.18896 23.2386-22.3779 41.31305-25.82066 41.31305-22.3779.86069-137.71016 37.00961-178.1625 55.94472-85.20816 40.45235-112.75019 92.09365-70.57646 131.68533 40.45235 37.87032 176.44113 96.39708 223.779 96.39708 12.04962 0 35.28822 6.02485 51.6413 12.91038 34.42754 13.77099 89.51159 17.21375 107.58606 5.16411 14.6317-8.60687-13.77102-18.07449-55.94475-18.07449-15.49239 0-40.45237-5.16411-55.94476-12.04963-15.49239-6.88545-47.33785-19.79584-69.71575-28.40272-80.90472-30.98472-118.77501-78.32258-89.5116-114.47149 24.95996-31.84555 104.1433-67.13371 113.61087-50.78064 3.44275 4.30344-4.30344 20.65651-16.35308 36.14891-21.51721 28.40271-21.51721 28.40271-5.16413 55.08407 30.12409 50.78055 191.07283 106.72538 337.38987 117.91427 32.70615 2.58208 66.27301 8.60695 74.8799 13.77105 9.46756 4.30343 72.29773 8.60687 143.73493 8.60687 228.0824 0 517.2738-46.4772 608.5067-97.25776 87.7902-49.05929 104.1433-86.92954 55.9448-132.54606-32.7062-30.12407-124.7999-74.87987-172.1377-83.48675-55.0841-10.32826-93.8151-30.1241-104.1433-55.08406-16.353-37.87029-93.815-139.43153-106.7254-139.43153-6.0248 0-26.6814 9.46757-45.6165 21.51722-18.9351 12.04963-43.0344 21.51721-53.3627 21.51721-11.1889 0-47.3378 6.02481-80.0439 12.91031-76.6013 16.35309-181.6053 16.35309-258.20658 0-32.70616-6.8855-71.43714-12.91031-86.06884-12.91031-13.77101 0-33.56685-6.02483-42.17373-12.91033-9.46758-6.88551-24.09928-12.91033-32.70617-12.91033-8.60687 0-18.07445-6.02482-20.65652-12.91033-11.18895-27.54203-37.0096-11.18895-81.76539 49.05925zm940.73243 199.6797c35.2882 22.37793 41.313 30.9848 41.313 54.2234 0 18.93509-6.8854 32.70615-23.2386 45.61645-28.4026 22.37793-93.815 51.64131-115.3322 51.64131s-20.6565-17.21375.8607-23.2386c9.4675-2.5821 24.9599-17.21374 34.4275-33.56681 18.9352-30.12413 15.4924-48.19855-12.0496-72.29782-7.7462-6.02486-13.771-21.51726-13.771-35.28824 0-23.23859 1.7214-24.95997 24.0992-19.79584 12.9104 2.58207 41.3131 17.21377 63.691 32.70615zm-827.12157-312.4299c-15.49239 13.77102-26.68134 29.26341-24.95996 34.42755 7.74619 23.23858 105.86468 45.61648 256.48523 58.52681 124.7997 10.32826 327.0615-24.95996 327.0615-56.80544 0-5.16413-14.6317-21.51721-32.7061-35.28822l-32.7062-25.82066-29.2634 24.95996c-18.0745 14.63171-40.4523 24.95998-55.9447 24.95998-14.6318 0-30.1242 3.44274-35.2883 8.60687-13.771 13.77102-124.7998 19.79584-166.97353 8.60689-21.51721-6.02482-54.22337-12.04963-73.15851-14.63171-18.93516-2.58205-42.17374-11.18894-51.64131-19.79583-38.73098-34.42753-50.78062-35.28822-80.90472-7.7462zm96.39711-55.08405c-11.18895 1.72138-19.79584 7.7462-19.79584 12.04964 0 20.65652 19.79584 42.17373 37.87029 42.17373 11.18896 0 37.00961 6.02482 56.80544 12.91032 20.65652 6.88552 66.27297 12.91034 103.28267 12.91034 39.5915 0 79.1833-5.16414 97.2577-12.91034 17.2138-6.8855 41.313-12.91032 53.3627-12.91032 15.4924 0 21.5173-4.30344 21.5173-16.35308 0-36.14891-62.8304-50.78062-95.5365-22.3779-13.7711 13.77102-30.9848 16.35308-90.3723 15.49239-61.96953 0-75.74055-2.58206-92.09363-18.93514-19.79584-17.21378-32.70616-19.79584-72.29783-12.04964zm105.00398-14.6317c-2.58205 4.30344 0 11.18894 6.88548 13.77101 19.7959 6.88551 109.3074 0 111.8895-9.46757 2.5821-12.04964-111.0288-16.35309-118.77498-4.30344z" style="stroke-width:.860687"/></svg>