<svg height="960" style="" width="949" xmlns="http://www.w3.org/2000/svg"><path d="m120.55384 0v38.78777h707.39425v-38.78777zm-.6226 78.94525v668.29517c0 40.16496 18.65798 67.72506 46.07214 92.20656 85.36647 76.53654 185.82069 128.57368 289.13387 176.07032 5.57846 2.8371 12.13265 4.4827 19.1137 4.4827 7.93162 0 15.42012-2.1817 21.79089-5.9147l.1868-.062c100.98731-46.07424 199.15966-98.36569 283.96629-172.08569 29.96433-24.70463 48.87383-61.78348 48.87383-103.35102 0-2.31828-.07-4.65091-.18679-6.91082v-.31131c-1.5266-231.63368-1.12067-438.92275-1.12067-652.41916zm113.68613 212.679h123.77221v42.14978h-35.36349v252.58744h36.23512v42.58562h-124.64384v-42.21206h36.48416v-252.58743h-36.48416zm166.66911 0h135.66379v42.14978h-37.91613l58.95992 86.16737 58.46181-86.16737h-39.41035v-42.14978h129.7491v42.14978h-41.96299l-82.68083 121.59311 89.90292 131.36789h43.70629v42.1498h-138.15416v-42.1498h38.91228l-61.76159-90.96137-61.88609 90.96137h41.0291v42.1498h-135.10345v-42.1498h45.6986l85.98057-126.2626-85.85606-126.32483h-43.33273z" style="stroke-width:31.8769"/></svg>