<svg height="960" style="" width="1023" xmlns="http://www.w3.org/2000/svg"><path d="m467.99175 798.36181c-15.65074 15.65074 5.21692 31.30149 44.34378 31.30149 24.78034 0 37.82263-6.52115 37.82263-19.56343 0-19.56343-65.21143-28.69303-82.16641-11.73806zm-24.78034-436.91657c-43.03954 35.21417-49.56068 46.95223-49.56068 96.51291 0 49.56069 6.52114 61.29874 48.25645 96.51292 56.08183 46.95223 76.94949 49.56068 133.03132 16.95497 46.95223-24.78035 58.69028-58.69029 54.7776-148.68206-1.30423-27.3888-14.34652-44.34377-53.47337-69.12411-65.21143-41.73532-74.34103-40.43109-133.03132 7.82537zm-138.24823-1.30423c-23.47611 31.30148-28.69303 54.7776-28.69303 133.03131 1.30423 82.1664 5.21692 101.72983 36.5184 146.0736 48.25646 69.12412 131.72709 112.16366 219.11041 112.16366 79.55794 0 161.72434-40.43108 161.72434-79.55794 0-20.86766-3.91269-22.17189-35.21417-9.1296-20.86766 9.1296-41.73532 19.56343-48.25646 26.08457-19.56343 15.65074-122.59749 11.73806-155.2032-6.52114-59.99452-32.60572-91.296-62.60297-114.77212-106.94675-29.99725-56.08183-33.90994-165.63703-5.21691-189.11314 20.86766-16.95497 27.3888-65.21143 9.1296-65.21143-6.52114 0-23.47611 16.95497-39.12686 39.12686zm422.57006-149.98629c22.17189 35.21417 57.38606 44.34377 57.38606 15.65074 0-10.43382-14.34652-24.78034-32.60572-32.60571-46.95222-22.17189-49.56068-19.56343-24.78034 16.95497zm-273.888-49.56068c-20.86766 3.91268-45.648 14.34651-56.08183 24.78034s-26.08457 18.2592-35.21417 18.2592c-10.43383 0-24.78034 9.1296-33.90994 19.56343-24.78035 29.99725-43.03955 23.47611-36.5184-11.73806 5.21691-28.69303 3.91268-29.99726-24.78035-16.95497-36.5184 15.65074-39.12685 43.03954-5.21691 52.16914 18.2592 3.91269 23.47611 14.34652 18.2592 33.90994-9.1296 35.21418 1.30423 35.21418 53.47337-5.21691 23.47612-18.2592 52.16914-32.60571 63.9072-32.60571s24.78034-6.52115 28.69303-13.04229c13.04229-20.86766 78.25371-15.65074 142.16092 11.73806 86.07908 37.82263 138.24822 114.77211 138.24822 203.45966 0 45.648-6.52114 74.34102-19.56342 84.77485-22.17189 18.2592-26.08458 46.95223-6.52115 58.69029 7.82537 3.91269 16.95497-2.60846 22.17189-15.65074 3.91268-13.04229 16.95497-33.90995 26.08457-45.648 11.73806-13.04229 19.56343-53.47338 20.86766-99.12138 2.60845-100.4256-28.69303-160.42011-114.77212-216.50194-69.12411-45.648-118.6848-59.99451-181.28777-50.86491zm13.04229-172.158175c-14.34652 10.4338294-37.82263 19.5634294-53.47338 19.5634294-15.65074 0-32.60571 5.2169136-39.12685 11.7380566-7.82537 6.521141-33.90995 18.259201-58.69029 24.780341-58.69028 16.95497-129.11863 41.735321-165.63703 58.690288-26.08457 11.73806-29.99726 23.47611-29.99726 82.1664 0 37.82263 6.52115 97.81714 14.34652 133.03131 6.52114 35.21418 18.2592 116.07635 24.78034 179.98355 22.17189 226.93577 49.56069 275.19223 250.41189 431.69962 87.38331 69.12422 113.46789 74.34114 147.37783 36.5184 7.82537-9.1296 50.86491-44.3437 97.81714-79.55791 161.72435-121.29325 189.11315-170.85394 209.9808-388.66011 5.21692-63.9072 16.95497-144.76937 23.47612-179.98355 32.60571-151.29051 13.04228-230.848447-58.69029-232.152677-14.34651 0-37.82263-9.1296-52.16914-19.563431-13.04229-10.43383-36.5184-19.56343-50.86492-19.56343-14.34651 0-41.73531-7.82537-61.29874-18.2592-19.56343-10.433829-52.16914-22.1718866-74.34103-27.3888006-22.17188-5.216914-43.03954-14.3465144-46.95223-20.8676574-11.73805-16.954971-48.25646-13.042285-76.94948 7.825371zm101.72983 78.253717c14.34651 10.433831 37.82262 19.563431 53.47337 19.563431 15.65074 0 39.12685 9.1296 53.47337 19.563427 13.04228 10.43382 39.12686 19.56342 57.38606 19.56342s46.95223 9.1296 62.60297 20.86766c23.47611 16.95497 28.69303 31.30149 28.69303 93.90446-1.30423 40.43108-6.52115 114.77211-14.34652 165.63703-6.52114 49.56068-16.95497 126.51017-23.47611 169.54971-14.34652 103.03406-49.56069 159.11589-148.68206 236.06538-44.34377 33.90994-86.07909 70.42834-91.296 79.55794-16.95497 27.3888-46.95223 19.56343-105.64252-24.78034-148.68205-113.46789-195.63428-185.20046-208.67657-310.4064-3.91268-39.12686-13.04228-113.46789-20.86766-163.02858-20.86765-157.81166-16.95497-224.32731 15.65075-246.4992 15.65074-11.73806 41.73531-20.86766 57.38606-20.86766 15.65074 0 45.648-9.1296 65.21142-19.56342 20.86766-10.433827 49.56069-19.563427 63.9072-19.563427 14.34652 0 37.82263-9.1296 50.86492-19.563431 32.60571-24.78034 71.73257-24.78034 104.33829 0z" style="stroke-width:1.30423"/></svg>