<svg height="960" style="" width="1292" xmlns="http://www.w3.org/2000/svg"><path d="m623.51767 489.65703c0 27.68735 8.23138 37.41534 29.93227 37.41534 34.42209 0 35.91869-5.98646 14.21783-45.64671-21.7009-40.40857-44.1501-36.66703-44.1501 8.23137zm-163.87917-344.96941-184.83177 184.83177 71.08914 81.56543c38.91195 45.64671 91.29342 97.27988 116.73585 116.73586l46.39502 34.42211-95.78326 26.939c-206.53266 58.368-362.928771-84.55862-169.11732-154.89946 50.88485-18.70767 61.36115-32.92549 35.17041-49.38824-22.4492-14.21783-118.98077 37.41533-145.17151 77.8239-34.422111 52.38147-5.98645 104.0146 79.32052 141.43 50.13655 22.4492 64.35438 35.1704 52.38147 47.1433-52.38147 52.3815 14.21783 130.9537 128.70876 151.9063 50.88486 9.728 51.63316 10.4763 25.44243 39.6602-35.91873 39.6603-17.21106 70.3409 69.59252 114.491 155.64781 80.06881 455.71877.7483 407.07887-107.0079-15.7144-33.6738-11.9729-37.4153 49.3882-60.6129 87.55187-33.6738 118.98077-76.3272 89.79687-121.2256-20.2043-31.4289-17.9594-34.4222 38.9119-60.6129 78.5722-35.1704 112.246-84.55865 91.2934-131.70198-17.211-37.41534-134.6952-103.26633-157.8927-88.3002-8.23137 5.23815 11.9729 20.20429 44.8984 32.9255 204.2877 80.81713 51.6332 236.46498-169.11727 172.11058l-84.5587-23.9458 113.7426-114.49098 113.74267-113.74262-175.10377-179.59362c-96.5316-99.52479-183.33515-184.83176-191.56653-190.81822-8.97968-5.98645-95.78326 69.59253-200.5462 174.35547zm228.23353-10.47629c22.4492 25.44243 20.2043 26.93904-34.42209 26.93904s-56.87131-1.49661-34.42211-26.93904c13.46952-14.21783 28.43566-26.19074 34.42211-26.19074s20.95259 11.97291 34.42209 26.19074zm-19.45595 80.06882c0-17.21105 6.73476-31.42888 14.96615-31.42888 8.2314 0 14.9661 18.70767 14.9661 41.15687l.7483 41.15687 30.6806-37.41534 29.9323-37.41533-9.728 50.13655c-8.9797 47.14332-8.2314 48.63993 23.1975 32.17719 29.9323-15.71444 30.6806-14.96614 15.7144 13.46952-8.9797 17.21105-13.4695 31.42888-9.728 31.42888 3.7416 0 17.2111 3.74153 29.9323 8.97968 16.4628 5.98646 23.9458.74831 23.9458-17.21105 0-24.69413 1.4966-24.69413 29.9323.7483 29.184 26.19074 29.184 28.43566 3.7415 56.12301-22.4492 25.44243-26.939 26.19073-30.6805 5.23815-3.7416-17.95937-14.9662-21.7009-44.8984-14.21783-55.3747 12.72121-57.6197 17.21105-16.4628 33.6738 36.667 14.96614 17.9594 23.19751-38.9119 16.46275-29.184-2.99323-29.184-2.99323-1.4967 28.43566 31.4289 35.17041 23.1975 40.40856-23.9458 14.96613-26.939-14.96613-29.9322-13.46952-23.1975 11.2246 3.7415 14.96614 9.728 36.66703 13.4695 47.89163 2.9933 11.2246-6.7347 27.68738-20.9526 37.41538-32.92545 21.7009-77.07555-2.9933-79.32047-44.15014-5.23814-90.54511-4.48984-89.79681-29.93227-57.61962-22.4492 27.68735-23.19751 27.68735-14.96613-11.9729 8.97968-43.4018-3.74154-53.12978-33.67381-23.19751-27.68734 27.68735-21.70089-4.48984 6.73477-35.17042 23.1975-26.19074 22.4492-27.68735-13.46953-27.68735-23.94581 0-41.15687 9.72799-44.15009 23.94582-3.74154 20.95258-8.23138 20.20428-30.68058-5.23815-25.44243-27.68735-25.44243-29.93227 3.74153-56.12301 26.93905-23.94581 29.93227-24.69412 29.93227-2.24492 0 30.68058 15.71444 31.42889 53.12978 2.99323 25.44243-19.45598 26.19074-22.4492 3.74154-22.4492-13.46953-.74831-29.93227-8.23138-35.91873-17.95936-6.73476-11.2246 4.48984-14.96614 36.66703-9.72799 50.13655 7.48307 58.36793-.74831 29.18397-29.93227-22.44921-22.4492-4.48985-23.19751 35.17041-1.49661 27.68735 14.21782 29.18396 12.72121 20.95259-18.70767l-9.72799-35.17042 30.68058 35.17042c29.93227 34.42211 30.68058 35.17041 30.68058 3.74153zm-111.49771 409.32384c26.93904 20.2042 23.19751 22.4492-48.63994 22.4492-87.55188.7483-121.22569-23.9459-45.64671-33.6738 26.93904-2.9933 52.38147-6.7348 56.87131-8.2314s21.7009 7.483 37.41534 19.456zm349.45926 2.9932c3.7415 2.9932-14.2178 5.2381-38.912 5.2381-25.4424 0-68.0959 4.4899-95.7832 9.728-46.395 9.728-49.3883 8.2314-29.9323-14.9661 18.7077-23.1975 139.1851-23.1975 164.6275 0zm-402.58904 45.6467c45.64671 4.4898 97.27988 17.211 115.23924 28.4356s36.66703 14.9662 41.15687 7.4831c4.48984-6.7347 53.12973-17.211 109.25283-23.1975 55.3747-5.9864 127.2121-17.211 158.641-25.4424 47.1433-11.9729 62.8577-10.4763 85.30697 10.4763 83.062 74.8306-90.54517 135.4435-279.11847 97.2798-77.07556-15.7144-104.76291-14.9661-184.83173 5.2382-96.53157 24.6941-174.35547 16.4627-242.45138-25.4424-63.60607-39.6603-11.97291-107.7562 69.59253-92.0418 24.69412 4.4899 82.31374 11.9729 127.21214 17.2111zm362.18044 181.0902c57.6196 57.6196-70.3408 114.491-235.7166 104.0147-165.37579-10.4763-252.92768-58.368-200.5462-110.7494 20.20428-20.2043 415.3102-14.2179 436.2628 6.7347z" style="stroke-width:.748307"/></svg>