<svg height="960" style="" width="1248" xmlns="http://www.w3.org/2000/svg"><path d="m962.16204 431.95095c-3.18885 0-6.3777-3.18886-6.3777-6.37771s3.18885-3.18885 6.3777-3.18885c15.94426-3.18885 76.53246-31.88852 76.53246-95.66555v-35.07736c0-3.18886 3.1888-6.37771 6.3777-3.18886 3.1888 0 3.1888 3.18886 3.1888 3.18886v35.07736c0 63.77703 60.5882 92.4767 76.5325 95.66555 3.1889 0 3.1889 3.18885 3.1889 3.18885 0 3.18885-3.1889 3.18885-3.1889 6.37771-25.5108 6.3777-73.3436 47.83277-76.5325 79.72129 0 3.18885-3.1888 3.18885-6.3777 3.18885-3.1888 0-3.1888-3.18885-3.1888-3.18885-3.1889-28.69967-51.02164-73.34359-76.53246-79.72129zm-299.75206-239.16388c0-3.18885 3.18885-9.56655 6.3777-9.56655l22.32197-6.37771c12.7554-3.18885 19.13311-19.13311 15.94425-31.88851-3.18885-12.75541-19.13311-19.13311-31.88851-15.94426l-9.56656 3.18885c-3.18885 0-6.3777 0-6.3777 0-3.18885 0-3.18885-3.18885-6.37771-6.3777-41.45507-117.9875241-169.00913-184.953404-290.1855-143.498334-35.07737 12.7554099-63.77703 31.88852-89.28785 57.39933-6.3777 3.18885-9.56655 6.3777-12.75541 12.75541-3.18885 3.18885-9.56655 6.3777-15.94425 3.18885l-15.94426-15.94426c-9.56656-9.56656-25.51082-6.3777-31.88852 3.18885-9.56655 9.56656-9.56655 22.32196 0 31.888524l25.51081 22.32196c3.18886 3.18885 3.18886 6.3777 3.18886 12.75541-9.56656 19.13311-12.75541 38.26622-15.94426 60.58818 0 6.3777-6.37771 9.56656-9.56656 9.56656h-25.51081c-12.75541 0-22.32196 9.56655-22.32196 22.32196 0 12.7554 9.56655 22.32196 22.32196 22.32196h25.51081c6.37771 0 9.56656 3.18885 9.56656 9.56655 3.18885 22.32197 12.7554 47.83278 22.32196 66.96589 3.18885 3.18885 0 9.56656-3.18885 12.75541l-22.32196 19.13311c-9.56656 9.56655-9.56656 22.32196-3.18886 31.88851 9.56656 9.56656 22.32197 9.56656 31.88852 3.18885l63.77704-54.21047c3.18885-3.18885 3.18885-9.56656 0-12.75541-54.21048-70.15474-44.64393-175.38684 25.51081-232.786174 70.15474-57.39934 172.19799-47.83278 229.59732 22.321964 41.45507 51.02162 47.83278 117.98751 22.32196 175.38684-3.18885 6.37771 0 9.56656 3.18886 12.75541l89.28784 44.64392c12.75541 6.37771 28.69967 0 31.88852-12.7554 3.18885-9.56656 3.18885-22.32197-6.3777-28.69967-3.18885-3.18885-3.18885-3.18885-31.88852-15.94426-3.18885-3.18885-6.3777-6.3777-6.3777-12.75541 6.3777-19.13311 9.56655-41.45507 6.3777-60.58818zm220.03077 191.3311s-3.18885 3.18885-3.18885 3.18885l-3.18885 28.69967 6.3777-19.13311 12.75541-12.75541h3.18885v3.18885 3.18885l-9.56656 15.94426c-3.18885 25.51082 6.37771 70.15474-9.56655 89.28785l-181.76455 207.27537c-12.75541 15.94426-35.07737 19.13311-54.21048 12.7554-35.07737-9.56655-73.34359-15.94425-111.60981-19.13311-3.18885 0-6.3777 0-6.3777 3.18886-3.18886 3.18885-3.18886 3.18885-3.18886 6.3777v274.2412c0 6.3777-3.18885 9.5666-9.56655 9.5666h-350.77369c-3.18885 0-6.3777-3.1889-9.56655-6.3777-12.75541-31.88852-22.32197-66.96589-28.69967-102.04326-6.3777-31.88851-3.18885-63.77703 3.18885-95.66555l63.77704-290.18551c3.18885-19.13311 15.94426-38.26622 31.88851-51.02163l60.58819-47.83277c6.3777-6.37771 12.7554-12.75541 19.13311-22.32196 0 0 31.88851-66.96589 31.88851-86.099 0-9.56655-3.18885-19.13311-9.56655-28.69966-9.56656-12.75541-12.75541-28.69967-15.94426-47.83278 0-79.72129 35.07737-117.98751 98.8544-117.98751 76.53245 0 162.63144 38.26622 153.06488 140.30947l-6.3777 15.94426v3.18885l9.56656 63.77704v3.18885h-3.18886-19.13311l-25.51081 60.58818c0 3.18885-6.3777 6.3777-9.56655 6.3777l-63.77704-3.18885c-3.18885 0-9.56655 3.18885-9.56655 6.3777-9.56656 28.69967-15.94426 41.45508-19.13311 47.83278-3.18885 3.18885 0 9.56656 3.18885 12.75541 25.51081 19.13311 47.83277 41.45507 66.96589 63.77703 9.56655 12.75541 22.32196 22.32196 35.07736 28.69967 35.07737 15.94426 76.53244 38.26622 130.74292 66.96589 3.18885 3.18885 6.37771 6.3777 6.37771 9.56655v35.07737c0 3.18885 0 3.18885 3.18885 6.37771 3.18885 0 3.18885 0 6.3777-3.18886v-38.26622c0-3.18885 0-6.3777 3.18885-6.3777l162.63144-140.30948c3.18885-3.18885 6.37771-9.56656 6.37771-12.75541l19.13311-89.28785c0-3.18885 3.18885-6.3777 6.3777-9.56655l57.39933-44.64392h3.18885s3.18885 0 3.18885 3.18885v6.3777l-9.56655 12.75541v3.18885c0 6.37771-3.18885 9.56656-6.3777 12.75541zm-653.7146 433.68384c0-3.18885 0-3.18885 0 0l-28.69967 28.69966 25.51082 82.91015z" style="stroke-width:31.8885"/></svg>