<svg height="960" style="" width="1690" xmlns="http://www.w3.org/2000/svg"><path d="m119.7644.000071c4.80499 5.076957 8.88539 9.639 13.19174 13.900022 34.11837 33.665072 68.14397 67.349277 102.08102 101.195667 2.81046 3.08244 6.84483 5.0465 11.3325 5.0465h.53121c90.8413-.0604 181.66985-.0886 272.51116-.0886h168.12824c3.30909 0 6.13369-.2904 8.85349-3.0102 37.71455-37.80522 75.40314-75.608312 113.14793-113.413523.99726-1.13324 1.83798-2.270039 2.74459-3.629937zm758.3035 0c-.36264.543964-.61337 1.133952-.88534 1.859241l.17705.08848c1.72254 1.178584 3.37355 2.492448 4.86944 3.807014 36.41508 36.263986 72.72273 72.658064 108.98672 109.163834 2.90117 3.21843 7.1062 5.31211 11.77523 5.31211h.7082c137.0477-.0906 274.0512-.17708 411.0687-.17708 10.2899 0 20.6089-.13599 30.8988 0h.5312c2.5385 0 4.7426-1.02204 6.3746-2.74459l114.7415-113.590528c.9972-1.178585 1.9696-2.313248 2.9216-3.718481zm-43.82491 10.978357-489.51079 489.510802 489.51079 489.51077v-6.1975c0-52.50791-.004-104.99599.17707-157.50396v-.0885-.44271c0-4.30635-1.87766-8.21534-4.86944-10.8898-103.14084-103.02-206.23116-206.08436-309.34178-309.16474-1.76786-1.81321-3.66535-3.62002-5.93185-5.93184 2.2665-1.99452 4.25465-3.45787 5.93185-5.13503 103.20128-103.26172 206.46232-206.52489 309.78446-309.69595 2.67448-2.40248 4.33822-5.88581 4.33822-9.73886v-.44267c-.0906-52.99077-.0885-105.929826-.0885-158.920584zm21.33696.08858c0 53.806693.004 107.811012-.17705 161.753702v.7968c0 4.89565 2.13473 9.31249 5.48915 12.39494 102.98978 102.83862 205.91145 205.7042 308.81065 308.63351 1.8131 1.76787 3.4471 3.66534 5.5776 5.93185-2.2211 2.03984-4.0776 3.54634-5.7547 5.22355-103.0502 103.08036-206.11244 206.17495-309.25326 309.16469-2.94645 2.67448-4.78091 6.49492-4.78091 10.80128v.61975c.13598 52.99076.0885 105.97514.0885 158.92052v3.8956l489.06817-489.06813zm163.08175 130.766412-.088.0885c1.3599 1.49589 1.8897 2.1553 2.479 2.74459 37.3217 37.23103 74.5889 74.5565 111.8199 111.9084 1.7226 1.72254 4.188 2.83312 6.8172 2.83312.3173 0 .5701-.0885.7968-.0885 54.6982-.0907 109.3574-.0907 164.0556 0h.5313c2.9464 0 5.6215-1.23592 7.5254-3.27579 36.8382-36.53599 73.6256-73.04244 110.4033-109.51798 1.2692-1.26923 2.3933-2.74316 4.1612-4.69235zm-754.67355.2656c9.38331 9.79127 18.63487 19.6973 28.15418 29.2166 27.87794 27.78729 55.92162 55.43363 83.75424 83.31158 2.53847 2.85579 6.23358 4.69234 10.35861 4.69234h.35414c53.85203-.13599 107.72459-.0886 161.57663-.0886h5.84332l-.97389-1.32802 115.71542-115.80395zm570.25484 69.94272-288.7131 288.89014 285.52582 285.6144c.63462.5893 1.26783 1.13819 1.94778 1.68214.13599.0906.43844-.0432.61975-.0885h.0885c.22665-.0906.43843-.17497.61975-.26559v-5.93188c0-51.22289-.0928-102.38558.0886-153.60847v-.53118c0-4.07974-1.79336-7.73162-4.60381-10.27009-37.50305-37.41239-74.99707-74.87836-112.43964-112.35117-1.63188-1.63188-3.18162-3.31118-5.31213-5.57772 2.08518-1.76782 3.85944-3.06259 5.40065-4.6038 37.38215-37.503 74.93451-74.91062 112.52817-112.26254 2.71981-2.49319 4.33822-6.104 4.33822-10.09304 0-.3173 0-.57015 0-.7968-.22664-22.07571-.0885-44.19181-.0885-66.31284zm21.33696.53121c.0906 53.15697.0626 106.2927-.0885 159.5403v.61976c0 4.07969 1.75015 7.73161 4.51528 10.27009l111.90842 111.64283.0885.0885c2.2855 2.01121 4.70756 3.96306 7.43697 5.93184l-.26559.17706c-2.40249 1.54121-4.73204 3.27863-6.81722 5.04649-37.23102 37.38215-74.55438 74.59099-111.99695 111.73137-3.0371 2.81044-4.86944 6.8016-4.86944 11.24395v.79682c.13599 50.99624.0886 101.99247.0886 152.98871v5.2236l287.65068-287.7392c-95.4503-95.48048-191.35457-191.29615-287.65075-287.56212z" style="stroke-width:45.33"/></svg>