<svg height="960" style="" width="1568" xmlns="http://www.w3.org/2000/svg"><path d="m746.31425-59.999996c-3.94902 0-14.00047 7.179949-22.2574 16.154858-9.33389 9.693001-18.30881 16.154857-23.3348 16.154857-9.33391 0-20.10399 14.359466-18.30892 24.0523594.71798 3.58991999 13.28249 12.564721 29.79634 21.1806376 15.79586 8.256925 29.79709 15.437306 31.23306 15.437306 1.07698.358992 7.53873-3.949129 14.00069-9.334009 11.12896-9.692894 11.48807-10.051778 9.33411-35.540536-2.15395-29.437779-10.0522-48.105473-20.46308-48.105473zm61.80139.209628c-2.7742.07128-4.94521 2.280312-9.38779 7.328664-6.46197 7.538941-8.61571 15.436874-10.41067 37.694704-2.15406 27.642819-2.15384 28.719903 7.53905 36.258845 5.38499 4.667004 12.20541 8.257356 15.07735 8.257356 8.61602 0 57.7989-25.4890826 59.95285-31.2329546 2.15395-5.74398-5.74431-22.9754914-11.48829-24.4114584-1.79495-.718093-7.89738-2.154709-13.28237-3.231685-5.74398-1.435968-11.48786-6.102648-14.3599-11.846521-2.51295-5.384989-9.33401-12.205621-14.719-15.43655-4.24062-2.19888-6.76339-3.436236-8.92123-3.3804zm-119.95842 96.719518c-15.07789 0-17.94992 1.076976-21.53985 8.974914-3.23092 7.53894-2.51316 10.76944 5.02578 22.25739 6.10297 9.3339 8.97491 18.66791 8.97491 29.0789 0 8.256926 2.15373 17.232146 4.66668 20.463076 8.61592 10.41088 19.38644 5.74334 44.5162-19.386426 20.46287-20.82186 23.69348-25.48833 20.82154-31.23231-2.15395-3.94891-4.66711-9.693-5.74409-12.92403-2.15406-7.53883-33.74536-17.231514-56.72117-17.231514zm185.07961.301536c-1.666-.0108-3.51702.01188-5.58122.05724-24.41178.3591-49.90108 7.180598-53.13201 14.001558-1.43597 2.87194-4.30779 9.33378-6.82084 14.00068-4.30791 7.89794-3.23072 10.05178 12.92414 26.56563 9.3339 10.051886 20.46309 21.180646 24.05301 24.770666 14.71888 14.0008 30.87309 3.94923 30.87309-19.026576 0-9.3339 3.23115-19.02669 9.33412-28.36059 8.25693-12.56483 8.97513-15.79586 5.74409-23.3348-3.14118-6.910598-5.73253-8.59972-17.39438-8.673376zm-94.80381 43.399808c-11.34152-.14246-19.21676 6.6029-27.09223 22.353946-5.026 10.05189-11.84706 22.6166-14.719 28.36059-6.10298 11.84685-3.59003 21.53974 7.17995 26.92473 10.41088 5.02599 15.79533 5.02632 18.66737.71831 2.87193-4.6669 21.89905-4.66754 31.23295.35845 11.84696 6.46185 28.00149-2.15362 28.00149-15.07745 0-15.07789-25.12933-59.952326-34.82223-62.465266-3.02907-.74045-5.83103-1.14048-8.4483-1.17331zm-3.15058 122.061296c-2.52547 0-4.56386 2.9646-5.99421 9.06756-1.43597 5.38499-3.58993 11.84577-5.38488 13.64084-3.59003 5.02589-12.56213 31.9505-22.25502 66.05529-6.46197 23.3347-7.54143 37.33701-7.54143 96.57146 0 46.66961-1.07309 68.57136-3.58603 67.85337-2.15406-.71798-4.66971-6.1034-6.10568-11.84738-2.51294-12.92382-19.38319-48.82735-31.58903-67.85414-5.02599-7.89793-10.05599-16.15518-11.13296-18.66813-10.052-22.61682-96.21149-104.82264-104.82741-99.43777-4.66689 2.87204-3.2266 29.79408 2.87637 53.12888 10.05188 39.13067 20.10226 70.3645 23.33319 72.51845 1.79496 1.07697 3.22855 4.30639 3.22855 7.17844 0 10.41087 33.74676 75.03073 50.9786 98.00654 9.3339 12.56494 17.23237 24.41136 17.23237 25.84733 0 7.17995-10.77148 2.15298-30.51627-14.71976-20.82196-17.59093-77.54087-53.84956-84.00284-53.84956-1.79496 0-7.89761-2.14996-13.64159-5.02189-36.25862-18.30892-104.46938-33.03073-112.7263-24.7738-6.46197 6.46196 42.00099 63.54375 82.56763 98.00742 20.46286 17.23184 72.87775 50.25716 80.41669 50.25716 2.15396 0 7.53754 2.51294 11.12757 5.38499 3.94891 2.87193 10.05221 5.38499 13.28314 5.38499 3.59002 0 7.54261 1.79733 8.61958 3.59229 4.66701 7.17994-10.05274 7.89555-36.25949 1.79259-30.15576-7.17995-96.57156-6.10308-128.88127 1.43586-32.6687 8.25691-57.4411 15.43697-68.21097 20.10398-5.74399 2.51294-13.6377 5.74376-17.22762 6.82085-14.71889 4.6669 0 15.79857 41.63908 31.59443 56.00352 21.18086 115.59997 29.43476 170.16741 23.69088 20.10388-2.15406 39.48707-2.87182 42.359-1.43586 7.17995 2.51295 3.59262 9.33412-4.6643 9.33412-3.23093 0-10.76846 2.51295-16.51244 5.38487-5.38499 2.87194-12.20606 5.38499-14.719 5.38499-7.53894 0-74.3147 35.90073-95.13646 50.9786-35.89974 26.56574-84.72471 78.98074-80.41669 85.80169 2.87193 5.02589 33.39036 3.94783 62.46914-2.51413 49.18256-10.76986 99.07921-29.79807 127.44002-48.10687 6.10287-3.94902 14.36086-8.61192 18.66888-10.40688 3.94891-1.79507 8.61872-5.38813 10.05469-7.18309 1.07698-2.15395 3.58852-3.94988 5.74258-3.94988 3.94891 0 4.3051 9.69549.71518 11.49055-8.25693 3.58993-51.33619 78.25832-51.33619 88.31021 0 2.15395-2.14996 8.25984-5.022 14.00382-11.12887 22.25783-29.44188 98.0035-25.85196 106.9784 3.23104 8.975 10.05361 6.1056 34.46539-15.4343 45.23365-39.4895 81.49044-80.77445 101.59432-115.59711 12.56483-21.89883 24.05311-46.67058 24.05311-52.41457 0-2.51294 1.79507-5.74301 3.94902-6.81998 1.79507-1.43597 5.38888-6.46456 7.18384-11.49055 5.74398-15.79587 7.89404-5.74387 3.58614 16.15485-3.23104 13.64192-3.94794 39.84898-2.87097 77.90269 1.79507 62.82437 7.89675 94.41997 25.84657 136.42257 2.51305 6.103 5.74786 13.9994 7.18383 17.9483.9423 2.9842 1.60585 4.6636 2.75011 4.7961 1.47118.1703 3.73292-2.2154 8.37735-7.6677 4.66701-5.385 8.61354-12.2046 8.61354-15.0767 0-2.8719 2.15525-10.4135 5.0273-16.8754 6.10297-14.3599 14.3626-43.43752 20.82455-72.87529 6.10298-28.3607 6.10298-110.57053 0-128.16136-2.87193-7.89793-3.59305-15.79618-1.79809-18.66822 2.87205-5.38488 3.94794-4.3065 24.41071 42.7221 2.51305 6.10287 5.74387 13.28291 6.82085 16.15485s5.3851 10.41088 9.33401 16.15486c3.9489 6.10287 8.26113 13.28293 9.6971 16.15486 14.00091 31.23263 108.05358 120.6231 117.02849 111.6481 3.58992-3.59-6.10125-61.74755-13.99918-84.72337-2.87194-8.25693-5.0274-16.87575-5.0274-19.38881 0-5.38488-6.81794-21.53682-23.69077-56.00049-16.15486-32.30972-17.95004-35.54215-36.25884-58.87696-13.64192-16.87285-19.38612-29.08116-13.28325-29.08116 1.07698 0 14.36022 9.3367 29.4381 20.82455 27.28372 20.46288 63.18174 43.79487 67.84863 43.79487 1.07698 0 12.56656 5.02589 25.13137 10.76987 12.206 6.10298 25.1296 10.76998 28.3606 10.76998 2.872 0 8.2541 1.43964 11.4852 3.2346 8.6159 4.66701 76.1102 15.79619 78.6233 13.28324 6.1028-5.74397-13.283-30.87493-53.8496-71.08258-28.3609-28.0018-67.1335-56.36272-94.05834-68.56856-7.89793-3.59002-18.66813-8.9762-24.05312-11.84814-5.02589-2.87193-12.56342-5.0274-16.51244-5.0274-9.69289 0-13.64451-6.46207-6.10556-9.33401 3.23093-1.43597 22.9798-.35651 43.44268 2.15644 53.84958 6.10297 113.44048-1.07655 164.77708-20.46234 25.8477-9.69288 44.873-19.02678 44.873-21.53984 0-2.51294-10.4109-7.89674-37.6948-19.02571-60.3113-24.77077-149.3387-34.82666-202.82924-23.33869-24.05269 5.02589-37.69601 1.79496-21.18216-5.38499 4.6669-1.79496 11.12638-5.02503 13.99843-6.81999 2.87193-1.79496 12.56482-6.10384 21.53973-9.33488 8.97491-3.23092 18.66791-7.53905 21.53985-9.33401 2.87194-1.43596 11.84847-6.46195 19.74639-10.76986 41.2846-22.25783 90.8261-64.61803 119.9048-102.67172 13.6419-17.94982 12.2088-23.69111-6.1002-20.81917-69.2863 11.48786-97.6497 20.10237-146.11431 43.43717-24.77077 12.20595-70.72132 42.71919-72.87527 48.82216-2.15395 5.026-11.49056 3.22985-11.49056-2.51402 0-2.87205 1.43576-5.38499 2.87172-5.38499 1.79496 0 10.77268-10.77019 20.82456-24.05311 19.38579-26.56573 22.25686-31.22852 33.74483-54.92233 4.3079-8.97491 10.05436-20.46697 12.9263-25.85196 2.87204-5.02589 5.02189-11.84555 5.02189-15.07658 0-2.87194 2.15546-10.77117 5.0274-17.23314 12.92393-30.51464 21.18054-89.38577 13.64159-94.05278-3.59003-2.15395-67.48975 50.61723-78.6186 64.97702-4.30802 5.38499-13.64473 16.51353-20.82468 24.41147-7.17984 7.89792-14.71738 17.59092-16.51245 21.53984-1.79496 3.94902-6.45926 12.20357-10.04917 17.94755-9.6929 14.71878-29.80067 57.08167-34.10857 71.08258-1.07698 3.23093-3.58863 6.10557-5.74258 6.10557-4.667 0-4.667-22.25935 0-41.28614 8.25692-34.10478 3.59121-110.21207-9.6917-156.1637-11.8637-41.39122-22.56736-64.00296-29.54946-63.99529zm-499.74715 39.54182c-.0821 0-.15714.0184-.22443.041-2.51294 1.07698-3.94912 17.94971-3.94912 51.6954 0 47.0286.35899 50.97817 8.97491 66.05604 5.02599 8.97491 10.4112 20.82165 11.48818 26.56563 2.51305 10.05188 12.56493 20.46244 28.71979 29.79634 10.41088 6.10297 12.56494 5.74398 10.76987-1.79496-1.43597-5.38499 1.79453-20.82186 11.48741-53.84957 5.38499-18.66779-18.66736-72.15825-45.59209-100.51906-9.38995-10.08547-19.11751-18.14972-21.67452-17.99107zm1016.94711 0c-2.557-.15865-12.2837 7.90561-21.6737 17.99107-26.9248 28.36081-50.9771 81.85127-45.5921 100.51907 9.6929 33.02771 12.9233 48.46457 11.4873 53.84956-1.7949 7.53895.3591 7.89794 10.7699 1.79496 16.1549-9.3339 26.2069-19.74445 28.7199-29.79633 1.0769-5.74398 6.4622-17.59072 11.4881-26.56563 8.616-15.07788 8.9749-19.02744 8.9749-66.05604 0-33.7457-1.4361-50.61842-3.9489-51.6954-.067-.0227-.1429-.0367-.2254-.041zm-1101.53574 96.25286c-14.00091 0-74.67186 34.10413-71.08183 39.84811 1.43597 1.79496 7.53948 3.23158 14.00145 3.23158 6.82095 0 17.59039 2.51294 24.05235 5.38488 20.46276 8.61591 41.64405 6.82042 56.72193-4.66744 7.17995-5.74398 15.79554-11.84652 19.02647-13.64159 9.334-5.02589-26.20652-30.15554-42.72037-30.15554zm1182.80324.62175c-8.1535-.0767-13.6404 2.67592-26.4744 12.30152l-18.3091 13.64235 15.4365 10.41077c8.616 5.74398 16.5139 11.84663 17.9499 13.64159 2.8721 5.02589 32.669 3.94956 47.0289-2.15341 6.8208-2.87194 17.9496-5.38488 24.7705-5.38488 6.462 0 12.5648-1.43662 14.0008-3.23158 3.231-5.38499-52.4136-36.97639-68.2095-38.77146-2.2885-.26925-4.3119-.43729-6.1936-.4549zm-134.2186 149.16908c-18.4435-.0896-36.3936 1.88513-42.6761 6.01365-10.7699 7.17995-19.3853 7.18006-21.8983.3591-1.795-4.30791-3.2309-4.30823-10.7699 1.07676-11.4878 8.25692-11.4878 16.51353 0 13.64159 5.385-1.43608 10.0517-.35888 11.8466 2.15406 6.821 11.12886 20.8221 19.02734 36.2589 20.8223 21.5398 2.87194 71.0814.35867 86.1593-4.30823 19.3858-5.74398 14.3595-19.38557-13.2832-33.38648-8.2569-4.12841-27.194-6.283-45.6373-6.37275zm-910.99965.13478c-18.57806.0454-37.6043 2.10956-45.68174 6.23797-16.87284 8.61602-24.77131 16.15486-24.77131 23.33481 0 8.61592 7.89782 11.48796 41.28462 14.3599 51.6955 4.308 86.51882-3.23115 92.98077-20.10399 2.51295-6.46197 16.15432-3.59014 22.2573 5.02578 2.51294 3.23104 4.66733 3.94902 6.1033 1.79496 1.43596-2.15395-3.59003-9.69311-10.76998-16.87306-10.76988-10.76998-13.64181-12.2053-16.15476-7.5384-3.94902 6.82096-11.48828 6.82085-22.25815-.3591-6.28247-3.94902-24.412-5.92379-42.99005-5.87887zm450.18033 52.90758a70.004375 70.004375 0 0170.00432 70.00442 70.004375 70.004375 0 01-70.00432 70.00431 70.004375 70.004375 0 01-.28436 0 70.004375 70.004375 0 01-69.72005-70.00431 70.004375 70.004375 0 0170.00441-70.00442zm486.76232 181.37361c-9.5575.108-19.975 6.0562-23.7445 15.71551-1.795 5.38488-7.1794 8.97491-14.7183 10.76987-14.3599 2.87193-24.7715 11.84674-24.7715 21.18063 0 8.25693 9.6931 20.4632 16.155 20.4632 2.513 0 12.924 4.66679 23.6939 10.41066 23.3349 12.92393 24.0532 12.92361 36.618 2.87172 9.6929-8.25692 9.693-8.61602 7.539-39.84876-1.7949-19.38579-4.3079-33.38627-7.539-36.6173-3.4554-3.45536-8.2261-5.0018-13.2326-4.94553zm62.7396.65598c-3.8753.1026-7.4371 1.35011-10.0174 3.93045-6.4619 6.46196-11.4881 29.7971-11.4881 52.77291 0 14.35979 1.4363 17.23129 11.4881 24.05225 6.4621 3.94892 11.8471 7.89826 12.565 7.89826.359.35899 10.0517-4.3078 21.1806-10.41077 11.1289-5.74398 22.2577-10.76987 24.7706-10.76987 7.18 0 15.7957-10.41088 15.7957-19.74489 0-8.61591-18.6674-23.3347-29.7964-23.3347-3.2309 0-8.2572-4.66765-11.4882-10.41152-4.4425-8.88517-14.4843-14.20665-23.0099-13.98212zm-1042.37778 2.84991c-11.22348.0108-11.26614 1.12579-16.98765 34.10857-2.15396 14.0009-5.02546 28.00126-6.10255 31.23219-1.07697 4.30802 1.43608 7.53927 7.17995 9.69322 5.026 2.15406 10.05146 5.38499 11.48743 7.17995 3.59003 6.46197 12.20605 4.66722 39.84887-8.6157 16.15486-7.89794 26.92461-15.43709 28.36058-20.10399 3.23093-10.05188-7.17995-24.41199-19.74488-27.28393-6.10286-1.07698-14.35979-7.17974-19.74478-14.00069-7.53894-9.6929-11.84631-12.20574-21.89819-12.20574-.85266 0-1.65056 0-2.39878 0zm-65.32911.45025c-7.35815-.0259-10.74707 2.67224-17.71383 11.75937-5.38488 7.17995-12.56472 12.92404-15.79565 12.92404-3.59003 0-10.052 2.5124-14.3599 5.74333-10.05188 6.82096-11.12875 29.43778-1.43586 32.30971 3.23103 1.07698 15.07745 6.8215 25.84732 12.20649 24.05279 12.56494 26.56606 12.56472 42.00292 3.23082 13.64192-8.25693 13.6417-10.76976 3.23082-57.08028-4.3079-19.0269-5.02567-19.74543-17.2315-20.8224-1.68286-.16816-3.18179-.26633-4.54432-.27108zm980.12359 87.15958c-1.868-.0335-3.416.0788-4.4929.3483-7.18 1.79496-8.2574 4.30779-8.2574 17.5906 0 9.6929 2.154 17.23206 5.3848 20.10399 3.2311 2.87205 5.385 10.76934 5.385 20.10323 0 11.12897 2.154 17.95047 7.1801 22.97647 3.9488 3.94891 9.6928 7.17984 12.5648 7.17984 5.385 0 49.5421-37.69482 53.132-45.23375 1.0769-2.51295-1.436-10.77031-5.3849-19.02723-5.744-11.48786-9.3342-14.71825-16.8731-14.71825-5.0261 0-17.2321-2.51305-27.284-5.38499-7.2698-2.42319-15.7507-3.83723-21.3544-3.93821zm192.5774.46429c-5.0013-.0464-10.7958.92718-17.2129 3.11471-9.3338 3.23104-21.1811 5.7442-26.2071 5.7442-13.6419 0-17.591 3.94891-20.104 19.74478-2.154 13.64192-1.4355 15.43656 19.0274 36.9764 11.8468 12.20584 24.0528 22.25805 27.2837 22.25805 6.4621 0 19.7445-12.20617 20.4625-18.66813.3589-2.51295-.0002-8.25693-.3593-12.56483-.3589-4.66701 3.9491-13.64159 8.9749-20.82154 15.1621-19.73916 7.7555-35.60317-11.8652-35.78364zm-1037.12285 2.1721c-3.23093-.0454-7.53883.76301-14.00068 2.37847-8.61592 2.51306-21.18118 4.30834-27.64315 4.30834-14.35979 0-17.23184 2.15363-25.12976 19.02648l-6.10319 14.00069 23.6939 24.77066c13.28292 13.64192 26.92462 24.77143 30.15555 24.77143 10.76997 0 19.74499-14.00124 20.10398-31.23307.35899-11.12886 2.51349-17.59082 6.4624-19.74477 7.53894-4.30802 7.89794-29.07869 0-35.54055-2.15395-1.79507-4.30812-2.69286-7.53905-2.73768zm-191.99788.26254c-10.27328-.14105-20.88774 8.08456-20.88774 17.19414 0 3.23104 3.94913 11.48732 9.33412 18.30828 6.82095 9.3339 8.6158 14.71888 6.82074 23.3348-1.43597 7.89793.00021 13.64213 5.74419 20.46309 3.94891 5.38488 9.33368 9.69322 12.20573 9.69322 2.51294 0 15.43677-10.05221 28.71969-22.25816 22.61682-20.82175 24.053-22.97603 21.89894-34.82298-2.51294-16.87285-8.25638-21.53931-31.23219-25.84733-10.76998-1.79496-24.05312-4.66711-29.43811-5.74409-1.04328-.20196-2.10254-.30639-3.16537-.32097zm1132.45263 45.9957c-12.9213-.0929-18.3829 5.90878-27.167 24.6888-5.385 11.84685-11.4883 22.61693-13.2832 23.69401-6.462 3.94891-3.5897 19.38552 4.3083 24.7706 10.0518 7.17997 17.5906 7.18007 26.5655.35915 8.9749-6.82099 15.0779-6.82099 21.5398 0 7.898 7.89782 21.5397 6.46152 30.1556-2.51336 8.616-9.33395 8.616-9.69271 1.795-22.9756-22.6168-41.64362-25.8478-46.31095-35.8997-47.38791-2.9729-.39258-5.6215-.61852-8.0143-.63569zm-1040.25637 3.50815c-13.64181 0-15.43623 1.07666-21.89819 13.6416-3.58992 7.17995-10.41099 19.38557-14.719 26.56552-9.69288 16.15482-10.05209 20.10389-2.15417 28.71974 6.46197 7.18007 26.20696 8.61617 32.66892 2.15421 3.23093-3.23106 6.46143-3.23106 13.28239 0 12.92393 6.10296 29.07944 5.38506 35.54129-1.43581 7.53894-7.53899 7.53883-8.61605-5.74408-34.46392-16.51386-32.30972-19.38633-35.18134-36.97716-35.18134z" style="stroke-width:.981818"/></svg>