<svg height="960" style="" width="1590" xmlns="http://www.w3.org/2000/svg"><path d="m792.32244 30.003271a199.35227 199.35227 0 00-27.58745 2.07939 231.88492 231.88492 0 00-56.84843 17.57508 322.88555 322.88555 0 00-90.40344 57.410999 270.41197 270.41197 0 00-54.39872 66.29823c-3.46955 6.09177-3.88352 8.98352-1.03971 13.77949.84774-.405 1.69406-.81724 2.53513-1.23908 6.03935-3.02589 12.04435-6.14284 18.04509-9.25755 13.25644-6.88133 26.96164-13.99428 40.93256-20.02477a414.61749 414.61749 0 0180.64031-24.9099 472.50552 472.50552 0 0177.51411-9.42845c4.18628-.16433 8.48745-.24924 12.78253-.24924a444.87931 444.87931 0 0169.97989 6.13846 450.60663 450.60663 0 0173.60457 18.16614 462.09631 462.09631 0 0183.31072 37.58562 5.4805915 5.4805915 0 002.6918.5056 15.68759 15.68759 0 005.0205-.89727 10.695386 10.695386 0 00-.1425-5.01331 286.01442 286.01442 0 00-66.02046-78.924099 318.5819 318.5819 0 00-60.60842-40.19196c-28.28913-14.29805-52.49042-22.78331-76.15396-26.70445a199.35227 199.35227 0 00-33.85412-2.69893zm136.63417 15.01858a30.50928 30.50928 0 0010.85272 14.86191c10.26559 7.61405 20.57522 15.16633 30.93441 22.65961 19.30997 14.05664 39.28326 28.594999 58.46496 43.524689 19.7967 15.40925 38.3626 32.25448 57.2187 49.59905 9.1621 8.42846 17.779 17.65486 26.1134 26.57626 2.9286 3.13425 5.8545 6.26742 8.8089 9.37148 3.4122 3.58633 6.8408 7.15654 10.283 10.71739 10.0972 10.48807 20.5349 21.33543 30.2508 32.54381 14.6583 16.91037 30.1363 35.03251 44.0872 54.29192 18.4969 25.53585 35.7075 51.10532 51.1515 75.99728a167.21714 167.21714 0 0125.5152 110.54928 188.7449 188.7449 0 01-16.1793 54.84737c-12.4105 27.59904-29.1516 52.21985-50.4679 80.69726l-5.056 6.76513c-14.0971 18.88014-28.6769 38.40669-44.5786 56.32143-19.58 22.0588-41.6331 44.95047-69.4031 72.04505-19.7616 19.27982-40.85 37.79069-61.2422 55.69478l-4.1161 3.61757c-14.4194 12.66491-28.7899 24.4217-42.7128 34.93653-7.74464 5.84932-15.84186 11.43637-23.67083 16.8416-8.21622 5.67256-16.71107 11.53948-24.73897 17.66765a93.661689 93.661689 0 00-12.82527 12.79678l-.057.057c.83305-.23444 1.66781-.45711 2.50665-.66938a629.62421 629.62421 0 00110.65612-40.71894c18.1882-8.41872 37.0406-18.0619 56.0366-28.66989 21.8678-12.21196 42.7153-24.64662 61.9614-36.95184 28.7625-18.38902 66.107-43.37578 99.8675-73.61879l5.2697-4.72134c20.3231-18.19093 41.3405-37.00168 60.7864-56.63481 19.5729-19.76117 39.5196-41.80309 59.2839-65.5149 18.449-22.13431 35.4435-45.44341 49.6346-65.32975 9.1315-12.79548 17.789-26.30576 26.1633-39.37301 3.5943-5.60762 7.1895-11.21775 10.8313-16.79175v-4.18727c-1.0702-1.82073-2.1209-3.65465-3.1689-5.49044-2.5459-4.46028-5.181-9.07213-8.0826-13.30238l-7.3633-10.77436c-11.6337-17.02926-23.6643-34.6369-36.1756-51.40073-7.5456-10.11049-16.0537-19.86178-24.2761-29.28943-3.2493-3.72575-6.495-7.45015-9.699-11.20875-5.0816-5.96034-10.0807-11.9977-15.0827-18.03796-11.7306-14.16675-23.863-28.81383-36.845-42.08621-20.1043-20.55429-41.9761-40.14037-63.1293-59.07735l-6.2595-5.59725c-13.2054-11.83627-26.9567-22.98695-40.8685-33.14199-15.8263-11.55206-36.7736-26.54254-58.4935-39.9997-26.0567-16.14553-52.9222-31.7669-79.8427-46.43725-35.1886-19.176779-73.0351-34.399189-109.63774-49.121929-5.56598-2.23901-11.13135-4.48876-16.69204-6.73664a198.20216 198.20216 0 00-21.47751-6.82922c-1.50407-.41742-3.01554-.84066-4.5362-1.26757zm-268.06986.10682a81.857613 81.857613 0 00-11.41526 3.26862c-7.91239 3.15201-15.83748 6.27162-23.78476 9.35012-22.82393 8.90452-46.42949 18.11045-68.95444 28.52035-33.6855 15.568249-66.28903 32.290259-96.90509 49.698739a668.27354 668.27354 0 00-93.98539 63.52097c-5.6619 4.63522-11.34089 9.251-17.04812 13.84359-19.70346 15.9244-40.08129 32.3886-58.67857 49.99784-22.42603 21.23458-43.35005 44.9223-63.58506 67.82928l-2.81998 3.19742c-19.4466 22.0064-37.65518 44.72462-52.89617 64.04795-11.20703 14.2112-21.57734 29.37157-31.24064 43.68132-5.05531 7.48617-9.79086 15.43652-14.37055 23.1225-1.91975 3.22219-3.84005 6.43942-5.78952 9.64207v4.18016l5.44771 8.5098c4.3377 6.78985 8.67686 13.57755 13.08161 20.32387a903.66538 903.66538 0 0082.23545 109.63064l8.88724 9.99815c12.99928 14.6437 26.4403 29.78693 40.34151 43.94482 13.09787 13.34089 27.41801 26.00933 41.26726 38.26213l4.62877 4.1018 6.07438 5.40497a430.7476 430.7476 0 0034.77986 28.90491c35.03592 25.14066 64.3377 45.94168 95.88676 65.76415 26.81168 16.84539 55.35746 31.52014 82.96182 45.71088a640.4697 640.4697 0 00109.08943 43.39649c5.86083 1.75229 11.74781 3.40628 18.10203 5.19135l.705.1994a69.370122 69.370122 0 00-18.8925-17.8172 772.23823 772.23823 0 01-85.66073-64.85975l-9.14359-8.00424c-16.92801-14.80623-34.43297-30.11576-50.90224-46.00997-12.69867-12.25546-24.93531-25.34258-36.7738-37.99863-5.30046-5.66723-10.62205-11.31907-15.95858-16.94842-2.73089-2.8616-5.52749-5.6668-8.32466-8.47422a256.21827 256.21827 0 01-17.98812-19.34826c-15.88841-19.64216-34.56105-43.03819-52.56859-67.65837-15.96479-21.82702-33.98409-48.24085-46.61527-78.66062-12.86074-30.97316-16.91239-60.40008-12.38374-89.96193a186.01084 186.01084 0 0130.03716-76.20379c17.24995-25.61228 32.93863-48.66681 50.31117-71.41125 19.71632-25.81474 40.43745-50.18462 58.10175-70.62079 9.97605-11.54141 20.93973-22.47697 31.54685-33.04941 2.52897-2.52064 5.05735-5.0375 7.57695-7.5627 10.38062-10.43302 19.85797-19.49052 28.98322-27.68005 3.63387-3.26127 7.25593-6.53935 10.8669-9.83436 12.87321-11.69597 26.18817-23.79054 40.19198-34.6232 24.31599-18.80908 49.765-36.938909 74.37366-54.469939l8.56679-6.10286a34.19536 34.19536 0 0012.64011-15.94433zm127.96768 174.355089c-6.63668 35.15668-8.4188 71.09599-20.42355 104.73839-28.17629-14.3628-31.63879-40.09982-33.07078-67.71535-2.48058 3.00362-5.05827 5.9407-7.4274 9.02967-6.60109 8.60605-11.90084 17.9814-11.00934 29.15413a45.114432 45.114432 0 0014.399 30.34337 194.61802 194.61802 0 0131.46852 36.50319c14.37217 22.21183 42.17335 16.33872 54.32755-.7406a153.11766 153.11766 0 0124.5111-29.19686c13.37844-11.2463 22.55722-23.21203 20.33812-41.50939-1.64276-13.54484-9.06885-23.84184-18.30147-34.28138-2.87331 47.45246-8.11698 50.90314-32.56518 68.33489-12.47335-33.74442-13.94817-69.90667-22.24657-104.66006zm-112.82094 60.5728c-7.16466 14.16416-12.5525 26.89709-7.08558 42.05772a67.594534 67.594534 0 0041.02517 41.55212 14.053322 14.053322 0 019.45693 11.8995c2.04183 9.97485 7.98703 13.7285 18.97793 13.1101 6.6672-.37507 12.3749-6.92611 13.39496-15.38176 1.59179-13.19508-5.24422-22.63382-15.10404-29.41762a196.61478 196.61478 0 00-27.09611-13.98601c-9.40454-4.4971-18.17211-9.55792-22.18958-19.93931-3.65976-9.45679-7.22045-18.9566-11.37968-29.89474zm227.57172 1.4456c-2.21129 6.0018-4.30933 11.9514-6.58709 17.83145a54.020448 54.020448 0 01-31.66792 32.202c-11.79711 4.7602-23.9834 9.97882-31.68929 21.12143-6.16947 8.92133-9.37482 19.95301-4.20859 27.40232a19.596006 19.596006 0 0018.11629 9.72754c9.30417-.73213 13.51579-4.91719 15.65237-14.44176 1.20425-5.36855 2.09754-10.80505 3.31845-17.19766 14.63658-6.70771 31.49149-11.10854 40.74031-28.01475 8.593-15.70746 4.03158-39.87025-3.67453-48.63057zm62.50265 54.19222c-1.94863 2.5685-3.67664 4.69009-5.24119 6.92892-8.51002 12.17655-19.07276 21.67661-34.18169 24.29036-9.09576 1.57356-18.36579 2.26081-27.58748 2.94817-10.22454.76209-20.31446 2.84146-28.00762 9.52102-10.14122 8.80517-15.23231 15.96229-5.41923 30.27215a16.713988 16.713988 0 011.65924 2.55649c2.71405 6.14779 7.19938 5.94375 12.78964 4.2941 11.1335-3.28531 16.63305-11.92753 21.27811-21.32795 8.84538-.92803 17.42242-1.86712 26.00656-2.7203 27.78357-2.76085 44.14422-27.57614 38.70366-56.76296zm-351.86487.22076a59.369526 59.369526 0 00-1.26048 19.6972c2.17104 16.03243 10.5781 28.05271 26.09203 33.40547 7.99869 2.75981 16.81804 3.10395 25.23749 4.69286 7.36968 1.3908 14.70236 2.99864 22.70233 4.643l-10.3827 12.28404a50.843027 50.843027 0 0029.5387 4.27273c8.51287-1.58227 14.41038-12.33946 11.99918-20.79386a29.017208 29.017208 0 00-20.57311-20.23841 114.95537 114.95537 0 00-30.71364-4.95634c-20.21653-.41117-34.52241-10.43385-46.54409-25.26596-2.06756-2.55107-4.06588-5.15915-6.09571-7.74073zm384.63656 65.19443c-3.95352 2.37092-7.84221 4.5347-11.56482 6.95743-17.40999 11.33125-35.46696 16.82767-56.39979 9.75602a44.064771 44.064771 0 00-38.49 3.37543c-11.72795 7.22235-17.18444 18.29703-4.43647 30.40745.90619.86101 2.17844 1.62548 2.5565 2.6918a22.95788 22.95788 0 011.75892 7.51286c-.0375 6.51957-1.69946 13.24069-.5768 19.49782 1.10413 6.15424 1.20563 10.38886-3.79561 15.12537-8.33424 7.89325-9.82446 16.96141-3.84545 23.46432a39.951593 39.951593 0 0015.1183 10.01951c12.13021 4.46816 24.81087 2.83955 36.82365-.64804 18.08953-5.25177 34.36781-3.06662 49.27147 8.5953 4.40486 3.44679 8.90908 6.76618 14.56993 11.05207-.66807-4.09884-.84545-6.50589-1.46695-8.79466-4.10232-15.11068-10.89895-28.43453-26.26295-34.87247-11.50244-4.81993-23.45939-3.00394-35.21425-.59817-12.71573 2.60233-18.9792 1.96588-25.00247-7.79769 42.9703-13.56767 87.77248-13.54484 131.01554-22.26794l-124.66344-20.23129c2.22745-5.23485 3.8876-9.14002 5.58301-13.12435 13.70239 2.75532 26.88963 5.17655 40.61211 2.65619 18.52943-3.4033 35.75332-24.09046 34.40957-42.77696zm-417.94236.36319-1.32453.99697c1.48127 4.82595 2.74718 9.73199 4.48635 14.46314a39.463278 39.463278 0 0020.43066 23.39307c13.1709 6.39181 26.42155 5.10082 39.75758 2.59923 11.55947-2.16837 17.13485-1.15853 22.53855 6.50878a17.190709 17.190709 0 01-4.32968 3.00514 153.74015 153.74015 0 01-18.85688 5.03468c-23.8096 3.9902-47.7091 7.45748-71.51808 11.45085-8.3376 1.3984-16.51667 3.74558-24.76749 5.66136l.0997 2.0509c40.04311 5.13236 80.6375 7.54433 118.98786 23.21504-7.74595 7.56288-17.16909 6.11336-25.85699 4.5647-11.79438-2.10231-23.12939-2.7128-34.35973 2.07938-17.50584 7.46987-22.84704 23.0269-27.39519 40.605 2.58534-1.49882 4.18449-2.32217 5.66133-3.32559a28.394792 28.394792 0 002.79863-2.47819c11.48745-10.27824 24.63491-16.4013 40.33439-14.77644a220.71588 220.71588 0 0124.09807 4.37241c11.99983 2.61385 23.66602 3.09725 34.28852-4.34393 4.99162-3.49671 9.72791-7.35441 14.31358-10.84557v-13.18844l-13.60856-10.46102v-34.49503l-2.3571-1.13224c2.88792-2.36734 5.61404-4.97522 8.69495-7.05711 7.15219-4.83305 6.64521-17.79285.31334-23.04414a56.350162 56.350162 0 00-15.28208-8.73772c-12.33436-4.83294-24.54548-.61549-36.58151 1.97259-16.46796 3.54111-31.74544 2.25723-45.60406-8.28907-4.73144-3.60044-9.96162-6.55118-14.96163-9.79875zm309.1805 127.56179a212.18898 212.18898 0 00-20.69416 6.33785 14.506016 14.506016 0 00-8.1324 18.99222 38.460214 38.460214 0 0010.81709 14.47736c11.56442 9.95228 26.34615 9.28648 40.3415 9.96964a49.328642 49.328642 0 0129.28231 9.42135c8.95196 7.10855 16.91234 15.46445 25.40128 23.36459 0-.87994.0956-2.47592-.0143-4.05907-.36953-5.33329-.92548-10.65685-1.20349-15.99419-.86823-16.67224-15.94216-31.94104-31.58246-34.91516-10.44848-1.98687-21.17781-2.50844-32.15215-3.72436-3.5639-7.05543-7.44574-14.72897-12.06327-23.87023zm-198.67396.0498c-5.51483 8.59428-10.14823 15.80539-15.10401 23.52841-6.93908.84384-14.19679 2.08055-21.50599 2.5565-30.65144 1.99599-47.5039 26.50461-40.73319 58.40085 4.4496-6.07177 8.3307-11.70334 12.5618-17.06237 7.445-9.42963 15.97653-17.16442 28.99744-17.55371 8.88294-.26554 17.75833-1.05429 26.64035-1.15365a39.542106 39.542106 0 0032.33019-16.41432c7.30628-9.65298 5.66643-19.60217-3.06924-25.25886-5.8557-3.79182-13.48709-4.83699-20.11735-7.04285zm153.02716 30.07277a17.313216 17.313216 0 00-17.42555 16.72056 31.369674 31.369674 0 0014.36342 27.00353c9.15949 5.75543 18.81947 10.75533 28.44916 15.71643a48.956818 48.956818 0 0124.73901 27.73704c2.548 7.06039 5.24914 14.06609 8.3175 22.26794 1.82077-3.76202 2.9871-6.34277 4.2941-8.85165 10.69684-20.53348 4.43213-48.13019-17.52523-59.44051-8.7216-4.49252-17.32153-9.23107-26.10628-13.92903a80.620035 80.620035 0 01-1.50968-10.90256c-.0803-11.92294-9.1052-15.75081-17.15495-16.31464a17.313216 17.313216 0 00-.4415-.007zm-116.23199.93999a158.10425 158.10425 0 00-6.05298.15667c-1.07336 5.33792-2.01543 10.13856-3.00515 14.92601a22.430479 22.430479 0 01-15.10404 18.42963 81.380783 81.380783 0 00-13.42343 5.99604c-25.63076 14.41351-30.63697 43.05944-14.93315 66.91775 2.39957-5.41518 4.72327-10.7682 7.13546-16.07961a68.150264 68.150264 0 0138.72499-37.79926c13.68175-5.19194 24.83847-13.56435 29.43898-28.44912 3.76393-12.17772-1.67288-22.7129-12.73269-23.84886a158.10425 158.10425 0 00-10.04799-.24925zm60.43038 12.96768a33.064466 33.064466 0 00-25.59353 12.69706c-4.89967 5.50211-8.8436 11.85356-13.65842 17.43981-7.69375 8.92633-16.1813 17.18969-23.54267 26.36974a38.632235 38.632235 0 00-8.08967 30.88457c1.41124 9.85647 6.71941 17.38355 12.21284 25.00962 1.3008 1.80585 2.86163 3.43064 5.49043 6.54436.89478-28.24228 5.65447-52.8182 31.64656-67.73673 7.28771 36.56555 14.43269 72.42132 21.37068 107.23082 8.20521-34.87856 10.00705-72.67949 22.58128-107.99277 26.41936 14.35573 32.94834 38.92585 33.43396 67.2311 10.47753-11.64934 18.40542-24.89335 17.60355-37.62834a41.946637 41.946637 0 00-11.87098-27.49487c-11.33717-11.74166-23.27793-22.8306-32.03111-36.90911a31.216795 31.216795 0 00-23.87023-15.23224 33.064466 33.064466 0 00-5.68269-.41302zm-226.80263 200.22641a11.146402 11.146402 0 00-.25635 11.77845 308.13408 308.13408 0 0069.15384 79.20894 333.88067 333.88067 0 0095.96508 53.68661 179.99599 179.99599 0 0062.26762 12.0348c3.36206 0 6.7562-.11715 10.08362-.34896 2.74879-.19095 5.50648-.34127 8.2677-.49134a172.03076 172.03076 0 0024.47551-2.49244 246.67595 246.67595 0 0065.68579-23.564 473.58559 473.58559 0 0050.83814-31.06971 315.9897 315.9897 0 0033.01383-27.94352l1.88712-1.74471a141.87442 141.87442 0 0017.52525-19.93932c9.7563-13.19249 19.5173-27.17934 29.0046-41.58061a3.8056706 3.8056706 0 00.5483-3.82404 2.9193896 2.9193896 0 00-2.7488-1.38864 5.6301524 5.6301524 0 00-.7335.0498 39.071984 39.071984 0 00-13.8578 4.99906 400.75475 400.75475 0 01-78.11938 34.16747 502.00062 502.00062 0 01-64.00522 15.60249 579.67796 579.67796 0 01-62.73052 7.37045c-3.67916.26645-7.59585.39877-11.63603.39877-10.05332 0-19.98431-.83393-27.51624-1.55953-22.39275-2.15729-41.82997-4.59876-59.41915-7.46302-35.75678-5.82532-72.10039-18.02164-114.36624-38.39028-8.39072-4.0446-16.40991-8.38131-24.90279-12.96768-2.78343-1.50363-5.59118-3.01138-8.42438-4.52908z" style="stroke-width:3.64605"/></svg>