<svg height="960" style="" width="1462" xmlns="http://www.w3.org/2000/svg"><path d="m1128.352 662.47858c0 14.8908-63.4063 79.2579-112.8824 115.2842-49.4762 36.0263-151.3105 80.6989-184.9351 81.6596-6.7249 0-21.6158 5.2839-33.6246 11.5284l-21.6158 12.0088 39.3888-.9607 39.8691-1.441-11.048 10.0873c-10.0874 9.1267-28.3407 16.332-85.0221 32.1835-43.2316 12.4892-97.0309 22.57645-117.686 22.57645-23.0568 0-36.5067 6.7249-24.0175 11.5284 14.8908 5.7643 110.4807 2.8822 151.3105-4.3231 172.4459-31.22275 278.1231-104.23605 356.4203-246.41995 19.2141-35.0656 22.0962-48.9958 11.0481-48.9958-3.8428 0-7.2053 2.4018-7.2053 5.2839zm-199.8259-252.6646c-4.3232 16.3319 1.9214 40.3495 8.1659 30.7425 5.7642-9.1267 5.7642-36.5067-.4803-40.3495-2.4018-1.4411-5.7642 2.8821-7.6856 9.607zm-25.4586 9.607.4803 24.0176 4.3232-18.7337c2.8821-12.4891 2.8821-20.6551-.4804-24.0175-3.3624-3.3625-4.8035 2.8821-4.3231 18.7336zm-29.3014-4.8035c0 12.9695.9607 22.0962 2.4017 20.6551 3.8428-3.8428 4.3232-36.987.9607-40.8298-1.9214-1.4411-3.3624 7.2053-3.3624 20.1747zm-27.38-4.8035c0 10.5677.9607 14.4105 1.9214 8.166.9607-5.7642.9607-14.4105 0-19.2141-1.4411-4.3231-2.4018.4804-1.9214 11.0481zm-17.2927-80.6989c-4.3231 3.8428-4.3231 26.8996-.4803 37.4673 4.8035 12.0088 11.5284-.9607 11.5284-23.0568 0-16.8123-3.8428-22.0961-11.0481-14.4105zm-29.3014 3.8428c-1.441 3.8428-.9607 14.4105.4804 23.0568 3.3625 14.8909 3.3625 14.8909 6.7249 3.3625 4.8035-17.2927 4.8035-33.6246 0-33.6246-2.4017 0-5.2839 3.3625-7.2053 7.2053zm-25.9389 7.2052c0 9.1267.9607 12.9695 2.4018 8.166.9607-4.3232.9607-12.0088 0-16.8123-1.4411-4.3231-2.4018-.4803-2.4018 8.6463zm-47.0744-74.9347c-1.441 6.7249-.9607 16.8123.9607 23.0568 3.3625 10.5678 3.3625 10.5678 7.2053 1.4411 5.2838-13.9302 5.2838-36.0263-.4804-36.0263-2.4017 0-5.7642 5.2838-7.6856 11.5284zm-28.3407-6.7249c-1.9214 5.2839-1.441 16.8123.4804 25.4586 2.8821 13.4498 3.8428 14.4105 7.2052 5.7642 5.2839-13.4498 5.2839-35.0656 0-38.4281-2.4017-1.441-5.7642 1.9214-7.6856 7.2053zm-24.9782 9.607c0 12.0088.9607 16.8123 1.9214 10.5677.9607-5.7642.9607-15.3712 0-21.6158-.9607-5.7642-1.9214-.9607-1.9214 11.0481zm51.3975-187.817199c-69.1705 8.6463-143.1445 48.515499-205.1098 110.961099-13.9302 13.9301-25.4586 27.38-25.4586 29.7817 0 2.8821-6.2446 12.9695-14.4105 23.0569-7.6856 10.0873-14.4106 22.5765-14.4106 27.8603 0 5.2839-3.3624 12.0088-7.2052 15.3712-7.6856 6.725-9.607 26.8997-2.8821 30.7425 4.8035 3.3625 10.0873-8.166 10.0873-21.6158 0-4.8035 2.4018-9.1267 5.7643-9.1267 2.8821 0 14.4105-9.607 25.9389-21.6157 11.0481-12.0088 23.5372-21.6158 27.38-21.6158s9.607-3.3625 12.9695-7.2053c3.3624-3.8428 13.4498-8.166 23.5372-10.0874 9.607-1.9214 19.6944-5.2838 23.0568-7.6856 3.3625-2.4017 8.166-3.3624 10.5677-1.9214 2.8821 1.9214 9.607.4804 14.8909-2.8821 8.6463-5.2838 11.0481-4.8035 16.3319 2.4018 5.7642 7.2052 6.7249 7.6856 9.607.9607 4.3232-11.5285 14.8909-8.6463 20.6551 5.7642l4.8035 13.4498 3.8429-13.4498c1.9214-7.2053 6.2445-12.9695 9.607-12.9695 3.8428 0 7.2052 5.7642 8.1659 12.9695 1.9214 15.3712 10.0874 16.3319 13.4499 1.441 2.8821-12.9694 11.5284-14.4105 13.4498-1.9214 3.3624 21.6158 6.2445 24.0176 13.4498 10.0874 7.6856-13.9302 16.3319-13.4498 16.3319 1.441 0 13.4499 9.6071 17.2927 12.9695 5.2839 1.4411-5.7642 5.2839-9.607 8.166-8.6463 8.6463 2.8821 9.1266 18.2533.4803 24.4979-5.2838 3.8428-7.2052 11.0481-6.2445 23.5372 1.9214 24.9782 10.5677 22.5765 12.4891-3.8428.9607-14.4105 3.8428-21.6158 8.1659-21.6158 3.3625 0 7.2053-2.4018 8.166-5.7642.9607-2.8821 4.8035-3.8428 8.166-1.9214 4.3231 2.8821 3.8428 5.2838-1.9214 9.607-5.7642 4.3231-7.2053 11.5284-6.2446 28.3407 1.9214 29.3014 10.5677 29.3014 13.4498.4803 3.3625-33.1442 13.4499-32.6638 15.3713 0 1.9214 32.6639 10.5677 36.0264 12.4891 5.2839 1.9214-30.2621 12.4891-25.4586 14.4105 6.2446 1.9214 31.2228 13.9302 35.5459 16.3319 5.7642 1.9214-24.4979 10.5678-25.4586 12.4892-1.4411.9607 12.4891-.9607 19.6944-6.2446 23.5372-5.7642 4.3232-7.2053 11.5284-6.2446 27.8604 1.9214 29.7817 10.5678 28.3407 12.4892-1.9214.9607-16.332 3.3624-24.0176 8.1659-24.0176 3.3625 0 7.2053-5.2838 8.166-12.0088 1.9214-15.8515 10.5677-17.7729 12.4891-2.8821.9607 7.2053-1.441 13.4499-5.7642 15.8516-8.6463 4.8035-11.0481 48.9958-3.3624 53.7993 5.7642 3.8428 10.0873-9.1267 10.0873-31.2228 0-12.9695 1.9214-18.7337 7.2053-18.7337 4.8035 0 7.2052 7.2053 8.1659 27.38 1.4411 30.2621 10.0874 36.0263 12.4892 8.6463 1.9214-22.0961 12.4891-19.6943 14.4105 2.8821.9607 9.1267 5.7642 20.1748 10.5677 24.4979 6.7249 6.2446 8.166 12.9695 6.2446 31.2228-1.4411 12.4892-5.2839 24.9783-8.166 27.8604-3.3624 2.4017-7.2053 8.6463-9.1267 12.9695-1.441 4.8035-6.2445 8.6463-10.0873 8.6463-4.3232 0-10.5677 5.7642-14.4105 12.9695-13.9302 26.8996-112.4022 112.4021-175.8085 153.2319-33.6245 21.6158-34.5852 22.0961-89.8256 48.9958-28.3407 14.4105-58.1224 28.821-65.3277 32.6638-7.6856 3.8428-16.8123 6.7249-20.1747 6.7249-3.8428 0-13.9302 2.8821-22.5765 6.725-15.3712 6.7249-35.0656 12.0087-105.6772 28.821-44.1923 10.5677-151.31053 10.5677-183.97439 0-35.06561-12.0088-53.7993-21.6158-70.13122-37.4674-27.86035-27.38-34.58527-50.4368-26.4193-94.1487l3.8428-21.6158-11.04806 12.0088c-29.30141 30.7424-37.46737 107.5985-16.81229 154.1926 11.04807 24.9782 47.07439 66.7687 57.16176 66.7687 2.8821 0 8.64631 2.8822 12.48912 6.2446 13.44982 11.0481 54.27965 21.6158 103.75578 27.38 79.2579 8.6463 188.7779-7.2053 282.4463-41.3102 61.4849-22.5765 117.686-48.5154 144.5856-66.7687 9.607-6.7249 18.7337-12.0088 20.1748-12.0088 1.441 0 19.6943-12.9695 40.3494-28.8211 36.987-27.8603 78.7776-74.9347 73.9741-82.6203-1.4411-1.9214-19.6944 9.1267-40.3495 24.9782-20.6551 15.8516-39.8691 28.8211-42.2709 28.8211-2.4017 0-7.2052 3.3624-10.5677 7.2053-3.3625 3.8428-9.607 7.2052-14.4105 7.2052s-11.0481 3.3625-14.4106 7.2053c-6.7249 8.1659-24.0175 9.607-24.0175 2.4017 0-2.8821 3.8428-6.7249 8.6463-8.1659 17.773-6.7249 101.354-74.4544 135.459-110.4807 58.6028-61.4849 88.8649-97.0309 91.2666-107.5986 3.3625-12.9695 10.5677-12.9695 17.2927 0 5.2838 10.0873 5.7642 10.0873 8.6463-6.2446 1.9214-9.607 5.2838-17.2926 7.6856-17.2926 7.2052 0 11.0481 32.6638 5.2838 48.5154-2.8821 8.6463-5.2838 23.5372-5.2838 33.6246 0 27.38-30.2621 109.0396-42.7512 117.2056-2.8821 1.441-11.5285 12.9695-19.6944 25.4586-8.6463 12.4891-21.6158 27.38-29.3014 33.6245-14.4106 11.5285-18.7337 24.9783-8.166 24.9783 11.5284 0 68.6902-30.7425 96.0702-51.3976 41.3102-31.7031 83.581-80.2185 99.4326-115.2842 2.4018-5.2838 7.2053-11.5284 9.607-13.4498 2.8821-1.441 5.2839-8.1659 5.2839-14.8909 0-6.7249 2.4017-16.8122 5.2838-22.0961 10.5678-19.214 19.6944-73.974 19.6944-114.3235 0-122.4895-65.3277-236.813-171.9656-301.18-14.4105-8.6463-29.3014-15.8516-33.1442-15.8516s-7.6856-1.9214-9.1267-4.3231c-10.5677-16.331999-127.2929-32.183499-185.4154-24.978299zm-141.7035-63.8866c-15.8516 3.8428-38.9084 10.0873-50.9172 13.9301-12.4891 3.8428-24.9782 7.2053-27.8603 7.2053s-18.7337 6.2446-35.0656 13.9302c-16.8123 7.6856-33.6246 14.8908-37.4674 16.8123-3.8428 1.9214-11.5284 5.7642-16.8123 9.1266-96.0702 59.563499-150.34982 116.725299-195.98315 206.070499-37.94772 74.4544-69.17052 197.9046-46.59403 183.9744 2.40175-1.441 4.80351-8.1659 4.80351-13.9302 0-6.2445 3.36245-13.9301 7.20526-17.2926 3.84281-3.3624 7.20526-9.607 7.20526-14.4105s3.36246-11.0481 7.20527-14.4105c3.8428-3.3625 7.20526-8.166 7.20526-10.5678 0-8.1659 32.18351-53.7993 55.24035-77.3364 30.74247-32.1836 35.06557-28.8211 30.26207 21.1354-5.28383 49.9565-.4803 144.1053 8.6463 170.0442 3.3625 10.5677 6.725 23.0568 6.725 27.38 0 10.5677 10.5677 34.1049 55.2403 123.9305 2.4018 5.2839 6.2446 9.607 8.6463 9.607 1.9214 0 5.7642 5.7642 8.166 12.4892 2.8821 6.7249 6.7249 10.5677 9.607 9.1266 7.2053-4.3231 5.7642-14.8909-2.4017-21.6158-3.8429-3.3624-7.2053-10.5677-7.2053-16.3319s-1.9214-12.4891-3.8428-14.8909c-6.2446-7.2052-23.0569-66.2884-31.7032-112.8824-4.3231-22.5765-7.6856-60.5242-7.6856-84.0614.4804-57.1618 18.2533-142.1839 37.9477-179.1709 2.4018-4.3232 5.7642-11.5284 7.6856-15.3712 9.1267-23.0569 51.8779-81.6597 75.4151-103.7558 23.5372-22.5765 78.2972-64.366999 83.5811-64.366999 1.9214 0 7.2052-2.8821 11.048-6.2446 17.773-14.8909 116.7253-49.4761 150.8302-52.3582 7.2053-.9607 13.9302-3.8428 14.4105-6.2446 1.4411-7.6856099-100.3933-7.2052999-133.5375.4804zm706.1158-27.86039c-69.1706 72.53299-136.9 121.048389-169.0835 121.048389-7.6856 0-18.7337-3.3624-24.4979-7.6856-10.5677-7.205299-11.0481-10.567699-9.607-47.074399 1.9214-36.987 6.7249-56.2010199 21.1354-85.50243 10.5677-22.57649-.4804-19.21403-29.7818 9.60702-36.0263 35.54601-71.5722 61.96531-96.5505 73.01331-6.2445 2.4018-11.0481 6.2446-11.0481 8.166 0 2.4017 16.8123 15.8516 36.5067 30.2621 34.5853 24.978199 107.5986 97.511199 107.5986 106.157499 0 12.0088 15.8516.9607 38.9084-26.8996 40.8298-48.9958 45.6334-37.9477 11.5284 27.8603-12.0087 23.0569-21.6157 44.6727-21.6157 47.5548s5.7642 17.2926 12.4891 31.7031c12.0088 25.4586 24.0175 63.8867 30.2621 96.0702 1.441 8.6463 4.3231 16.3319 5.7642 16.8123 1.9214.4803 12.0088-10.0874 22.5765-23.5372 21.6158-27.8604 47.0744-48.9958 76.3758-64.367 11.5284-5.7642 19.214-12.4891 17.773-14.8909-1.4411-2.4018-12.9695-4.3232-25.939-4.3232-24.4979 0-38.4281-8.1659-38.4281-23.0568 0-4.3232 14.4106-21.6158 32.1835-38.4281 25.4586-24.0175 30.7425-31.2228 25.4586-34.5852-3.8428-2.8821-10.5677-4.8035-14.8908-4.8035-11.0481 0-25.4586-23.5372-25.4586-41.3102 0-23.5372 32.1835-115.764599 47.5547-136.4196689 2.8821-3.8428 9.607-15.8515701 14.4105-26.4192901 5.2839-10.56772 12.4892-22.57649 15.8516-27.38 3.3625-4.32316 4.8035-8.64632 2.4018-10.08737-1.9214-.9607-25.4586 20.65509-51.8779 48.51544z" style="stroke-width:.480351"/></svg>