<svg height="960" style="" width="1403" xmlns="http://www.w3.org/2000/svg"><path d="m315.42515 689.43585c-2.62467 6.8241 3.67454 20.4724 21.52224 47.7689 37.2703 56.1679 130.1835 137.5326 181.627 160.1047 6.8241 2.6247 16.2729 7.3491 20.4724 9.9738 25.1968 14.1732 75.5904 32.0209 105.5116 37.2702 13.6483 2.6247 33.5958 6.8242 44.6194 9.9738 30.9711 8.3989 133.3331 6.8241 174.2779-2.6247 44.0944-9.9737 97.1127-26.2467 112.8607-34.6456 53.01831-27.2965 69.29121-37.2703 98.16251-59.3175 30.4462-23.622 99.7374-95.0129 99.7374-102.8869 0-2.0998 6.8241-14.6982 15.748-27.2966 8.9239-13.1233 15.748-28.8713 15.748-35.1705 0-11.0236-1.5748-11.5486-49.8687-9.4488l-49.3437 1.5748-22.5722 21.5222c-39.8949 38.3202-76.1153 60.3674-138.05751 86.0891-22.0472 8.9239-89.2386 20.9974-120.7347 20.9974-29.9212 0-102.362-14.1732-109.711-21.5223-6.8242-6.2992-29.3963-6.2992-29.3963.5249 0 3.1496 5.2493 7.874 12.0735 10.4987 6.2992 3.1496 15.223 7.3491 19.4225 9.9737 18.3727 11.0236 53.0183 21.5223 99.2124 29.9212 43.0446 7.874 55.118 8.399 94.488 2.6247 24.6719-3.6745 54.0682-7.874 65.0918-9.4488 12.5984-1.5748 19.4225-.5249 19.4225 3.1496s-3.1496 6.8241-6.2992 7.874c-3.6745 1.0499-15.2231 4.7244-25.1968 7.874-30.9711 11.0236-95.0129 21.5223-133.858 21.5223-106.0366 0-221.5219-46.1942-288.7134-114.9604-15.748-16.7979-24.6719-21.5223-38.3202-21.5223-9.4488 0-24.1469-3.6745-32.0209-7.874-8.3989-4.1995-16.2729-6.2992-17.8477-4.1995-3.6746 3.6746 22.5721 53.0183 37.7952 71.9159 3.6745 4.1995 5.7742 11.0236 4.7244 14.1732-2.0998 6.2992-61.9422-56.1679-61.9422-64.5668 0-6.2992-21.5222-36.2204-34.1207-47.244-5.7742-4.7244-17.3228-9.9738-26.2466-11.5486-45.66924-7.349-55.64297-7.349-58.26764-1.0498zm710.23495 140.1572c-7.349 4.1995-11.5485 4.1995-15.748 0-4.1994-4.1995-1.5748-5.7743 9.9738-5.7743 13.1233.525 14.1732 1.0499 5.7742 5.7743zm84.5143-235.1702c-17.8477 6.8242-19.4225 19.4226-2.0997 19.4226 7.349 0 15.748-5.2494 20.9973-13.1234 9.4488-14.6981 5.2494-15.748-18.8976-6.2992zm111.2859-51.9684c-7.3491 4.1995-19.4225 9.9737-27.8215 14.1732-14.1732 6.2992-35.1705 35.6955-35.1705 48.8188 0 7.874 63.5169 17.3228 72.9657 11.0236 6.8242-3.6745 21.5223-52.4933 21.5223-69.2912 0-14.1732-11.0236-15.748-31.496-4.7244zm-138.5824-218.8972c-4.7244 4.7244-3.6746 45.1442 1.5748 53.0182 5.7742 9.9738 11.0236-4.1994 11.0236-30.4461 0-19.4225-5.2494-29.3963-12.5984-22.5721zm52.4933-58.2677-25.7217 28.3464 7.874 19.9475c15.748 37.2703 22.5721 77.6902 22.5721 129.6586v52.4933l18.3727-1.5748c17.3228-1.5748 46.1941-3.6745 80.3148-5.2493 13.6483-1.0499 14.1732-2.6247 14.1732-26.7716 0-70.3411-60.3673-228.3461-86.0891-225.7214-3.1496.5249-17.3228 13.1233-31.496 28.8713zm-244.61901-207.87362c0 2.62466-2.0997 5.24933-5.2493 5.24933-2.6247 0-9.4488 3.14959-14.1732 7.34909-50.3936 40.4199-71.391 56.6928-88.7138 68.2413-18.3726 12.0735-48.2938 35.1706-77.1652 58.7926-5.2493 4.1994-22.0472 16.7978-36.7453 27.2965-15.2231 10.4987-28.3464 20.4724-29.9212 22.5722-1.5748 1.5748-118.1101 89.7636-259.8421 195.8002-141.20709 106.0365-257.74232 195.8001-258.79218 199.4747-1.04987 4.1994 2.62466 8.9238 7.874 11.0236 38.32014 14.6981 1170.07669 14.1732 1154.85359-.525-2.0997-2.6246-103.4119-9.4488-219.9471-15.748-53.0183-2.6246-67.19151-4.7244-67.19151-10.4986 0-4.1995 4.1995-8.9239 9.44881-10.4987 12.5984-3.6745 25.7218-9.9737 144.3567-64.5668 17.8478-8.399 37.2703-16.7979 42.5196-18.3727 7.874-2.6247 8.9239-4.7244 4.1995-9.4488s-21.5223-4.7244-70.866.5249c-35.1706 3.6746-94.488 8.9239-132.28321 11.0236-37.2703 2.6247-86.6141 7.3491-109.7111 10.4987-22.5722 3.1496-44.6194 4.7244-49.3438 2.6247-5.7743-2.0998 20.9974-32.021 100.2623-111.8109 198.42491-199.9996 266.14131-269.2908 266.14131-274.5402 0-7.349-22.5722-5.2493-33.5958 3.1496-5.7742 4.1995-14.6981 7.874-19.4225 7.874-5.2493 0-15.748 3.1496-24.1469 7.3491-7.8741 4.1995-25.1969 11.5485-38.3202 16.2729-43.0445 16.273-65.6167 24.6719-85.03921 32.021-11.0236 4.1995-29.9212 11.0236-41.9947 15.748-12.5984 4.7244-31.496 11.5485-41.9947 15.748-11.0236 4.1995-29.3962 11.0236-40.9448 15.2231-11.5485 4.1994-29.9212 11.0236-40.4199 15.223-19.9474 7.3491-42.5196 15.7481-85.5641 32.021-13.1233 4.7244-30.4461 12.0735-38.3201 16.2729-17.8478 8.9239-29.9213 9.4488-29.9213 1.5748 0-4.7244 28.3465-42.5196 45.6693-61.4172 3.6745-3.6745 17.8477-21.5223 31.496-39.37 13.6482-17.8478 26.2466-33.5958 28.3464-35.1706 3.6745-2.6246 15.223-17.3228 87.6639-109.711 21.5222-27.8215 29.9212-42.51966 24.6718-42.51966-4.1994 0-7.874 2.09974-7.874 5.24934zm73.4907 251.96812c0 5.7742-96.0628 111.2858-176.3776 194.2253-26.7716 27.2966-61.4172 63.517-76.6403 80.3148l-28.3464 29.9213h-213.6479c-182.15195 0-213.64795-1.0499-213.64795-7.3491 0-4.1995 4.19946-8.9239 9.4488-10.4987 4.7244-1.5748 15.22307-8.3989 22.57214-14.6981 7.874-6.8242 25.1968-20.4724 38.84507-30.4462 59.84244-44.6193 85.03924-63.5169 154.33044-117.0601 40.4199-30.9711 76.1154-56.1679 79.265-56.1679 2.6246 0 5.2493-2.6247 5.2493-6.2992 0-3.1496 1.5748-4.7244 3.1496-3.1496 4.1995 4.7244-6.8241 23.622-34.1207 59.3175-36.2204 46.1941-49.3437 66.1416-46.1941 68.7663 2.0997 2.0997 33.5957-9.9738 85.0392-32.021 8.9239-3.6745 34.6456-14.6981 57.7427-23.622 23.097-8.9239 49.3437-19.4225 57.7426-23.622 8.9239-3.6745 26.2467-10.4987 39.3701-15.748 26.7716-10.4987 47.244-18.8976 73.4906-29.9212 9.9738-4.7244 28.8714-12.0735 41.9947-17.3228 13.1234-5.2493 30.9711-12.0735 39.37-15.748 8.9239-3.6745 26.2467-11.0236 39.37-15.748 13.1234-4.7244 27.2966-11.0236 31.496-13.1233 10.4987-6.2992 10.4987-6.2992 10.4987 0zm26.2467 278.2147c0 3.1496-4.1995 6.8241-8.9239 8.3989-5.2493 1.5748-17.3228 6.8242-27.2965 11.5486-19.4226 9.4488-103.4119 12.5984-123.8843 4.1994-10.4987-4.1994-10.4987-4.1994 0-8.3989 5.7742-2.6247 20.9973-4.7244 34.1207-5.2493 13.1233-.525 35.6954-4.1995 49.8686-7.874 32.5459-8.399 76.1154-9.9738 76.1154-2.6247zm-52.4934-537.00696c0 2.62467-9.4488 14.69816-20.9973 27.82146-19.9475 22.5722-27.2965 41.9947-15.748 41.9947 3.1496 0 25.1968 17.8477 49.8687 39.37 25.1968 22.5721 48.8188 39.37 55.11801 39.37 6.2992 0 16.2729-5.7743 22.5721-12.5984 7.874-8.3989 14.6982-11.5485 18.8976-8.9239 11.0236 7.3491 55.643-11.5485 55.643-23.097 0-9.4488-64.0419-64.5668-89.2387-76.6403-5.7743-2.6247-20.99731-11.0236-33.59571-17.84776-22.5722-12.5984-42.5197-16.79787-42.5197-9.4488zm-296.5874-43.5694692c-14.1732 4.1994592-33.0708 8.9238592-41.4697 10.4986592-26.7716 6.29921-4.7244 13.64827 40.4199 13.64827 39.8949 0 91.3384 9.44881 129.6585 24.14694 58.7926 21.52226 54.0682 22.04716 86.6141-2.62466 30.4461-23.09708 34.1206-33.59574 12.5984-36.22041-6.8242-1.04987-26.7716-4.7244-44.6194-8.9238692-39.37-9.97374-146.9814-9.97374-183.2018-.52493z" style="stroke-width:.524933"/></svg>