<svg height="960" style="" width="912" xmlns="http://www.w3.org/2000/svg"><path d="m428.37523-120-.0239 823.85898c1.52128 28.96755 11.67918 56.81655 29.16564 79.96086 16.51944-23.51858 24.81098-51.83371 23.58699-80.54805l.0239-823.27179zm337.04493 44.67968c1.7283 22.23789-1.68771 44.575066-9.98289 65.28016l-127.3306 142.89211 34.54862 74.67582c18.48999-26.59801 15.73568-26.90984 15.65941-26.91462v-.0977c.14532-22.66489 3.30676-45.20963 9.39565-67.04185 0 0 45.47803-56.68314 67.72692-78.98214 22.24888-22.29901 9.98288-109.8116 9.98288-109.81161zm-618.93817 2.0553c-.48301 3.53285-11.60259 85.92604 10.17862 107.7563 22.228 22.27807 67.64173 78.97369 67.72694 79.08002 6.12678 21.79088 9.28714 44.30843 9.39564 66.94398v.0977s-3.18198-.0446 15.65943 26.91461l34.4507-74.57777-127.23271-142.98998c-8.0537-20.055419-11.53106-41.65515-10.17862-63.22486zm157.47494 226.86569-33.86348 77.12259 45.11868 50.99093v260.14316l62.14828-47.95697v-142.11031l9.39565 10.66799v-103.44997zm304.08615 0-82.79913 105.40742v103.44997l9.39565-10.66799v142.11031l62.14829 47.95697v-260.14316l45.11867-50.99093zm-400.82725 130.49166c-.74955 43.32903-8.39721 86.26924-22.6619 127.20469-25.81223 29.57749-47.62832 62.4168-64.88868 97.67558h6.55738s30.98057-33.89403 51.67605-7.53612l82.79913 95.03308 35.72303-37.58258-77.1226-90.33525c-9.98975-59.04112-12.08241-184.4594-12.08241-184.4594zm485.48594 184.4594-77.12259 90.33525 35.72302 37.58258 82.79913-95.03308c20.69549-26.3078 51.67605 7.53612 51.67605 7.53612h6.55737c-17.27808-35.27862-39.0923-68.1481-64.88869-97.77345-13.26089-37.87187-20.83373-77.4783-22.49042-117.52808 0 0-4.7266 136.98525-12.25387 174.88066zm-315.34137 53.53558-66.8461 48.93568-31.90605 33.86346v11.25524l26.22951 30.14434v150.44383c3.68691 29.25417 16.53367 56.59209 36.70174 78.10131 20.3812 21.99713 32.93756 50.10273 35.72303 79.96093v84.6892l16.0509 40.5187v-204.19008c-1.34907-18.61601-3.7343-37.14242-7.14461-55.49304-8.57562-39.85061-11.40801-80.72659-8.02544-121.36042zm157.2792 0-.88084 176.86915c3.46046 41.65688.58965 83.59759-8.51481 124.39439-3.05195 16.77241-5.20817 33.69549-6.4595 50.69735l-.0977 1.66365v204.19015l15.95285-40.4207v-84.7871c2.77717-29.8603 15.33468-57.9685 35.72303-79.9609 20.15727-21.47769 33.004-48.78129 36.70174-78.00344v-150.5417l26.32738-30.04647v-11.25524l-32.0039-33.96132z" style="stroke-width:50.1101"/></svg>