<svg height="960" style="" width="1432" xmlns="http://www.w3.org/2000/svg"><path d="m1264.5547 776.17763c-8.3017 9.48757-21.3471 17.78927-29.6488 17.78927-22.5331 0-91.3182 85.3884-79.4587 97.2479 28.4628 28.4629 155.3596-64.0413 156.5455-112.66527 0-24.90497-27.2768-26.09092-47.438-2.3719zm-59.2976-182.63647c-7.1157 15.41737-26.0909 52.18185-41.5083 80.64468-32.0206 55.7397-39.1363 107.92156-14.2314 107.92156 26.091-1.186 78.2728-84.20254 86.5745-138.75629 9.4876-62.85541-10.6736-96.06204-30.8348-49.80995zm-355.78526-170.77695c0 11.85951 8.30166 32.02068 17.78927 43.88019 9.48761 13.04546 17.78927 35.57853 17.78927 49.80994 0 15.41737 5.92975 30.83473 13.04546 34.39258 7.1157 4.74381 9.48761 15.41737 5.92975 24.90498-8.30165 21.34712 101.99181 161.28934 116.22321 147.05793 5.9298-5.92975 2.3719-27.27687-9.4876-50.9959-10.6736-22.53307-18.97523-53.36779-18.97523-66.41326 0-22.53307-27.27687-77.08682-47.43804-96.06203-3.55785-3.55786-21.34712-28.46283-40.32234-56.92566-35.57853-53.3678-54.55375-62.8554-54.55375-29.64877zm432.87216-78.27278c-4.7439 7.11571-5.9298 15.41737-2.372 18.97522 8.3017 8.30166 32.0207-7.11571 32.0207-21.34712s-20.1611-14.23141-29.6487 2.3719zm-247.8638-137.57032c-11.8595 32.02068-8.3016 226.51666 5.9298 263.28114 7.1157 17.78927 16.6033 67.59921 20.1611 110.29345 9.4876 85.38848 26.091 97.24799 42.6943 27.27688 5.9297-24.90498 22.533-61.66946 37.9504-83.01658 15.4173-20.16117 28.4628-43.88019 28.4628-52.18185s8.3017-24.90497 18.9752-36.76448c17.7893-18.97522 17.7893-21.34712 1.186-27.27688-9.4876-4.7438-35.5786-5.92975-58.1116-3.55785-33.2066 3.55785-39.1364 8.30166-42.6942 39.13639-9.4877 84.20252-20.1612 41.50828-20.1612-80.64468 0-129.26867-16.6033-202.79763-34.3926-156.54554zm-113.85129-24.90498c0 16.60332 4.7438 32.02068 10.67356 36.76449 14.23141 8.30166 29.64878-36.76449 18.97522-53.3678-13.04547-21.34712-29.64878-11.85951-29.64878 16.60331zm-569.25652-53.36779c0 5.92975 7.1157 26.09092 16.60331 45.06614 9.48761 17.78926 26.09092 53.3678 35.57853 77.08682 10.67356 24.90497 28.46283 65.22731 39.13639 88.94633 10.67356 24.90497 26.09092 59.29755 35.57853 77.08682 14.23142 27.27688 21.34712 80.64467 11.85951 80.64467-7.1157 0-68.78516-34.39258-109.1075-59.29755-18.97521-11.85951-61.66945-36.76448-94.87608-53.3678-32.02068-17.78927-74.71493-39.13638-92.50419-49.80994-18.97522-9.48761-35.57854-15.41737-37.95044-13.04547-4.7438 3.55786 20.16117 58.11161 45.06614 98.43394 28.46283 47.43805 160.1034 273.95471 185.00838 316.64894 21.34712 39.13639 22.53307 45.06616 4.7438 45.06616-21.34712 0-93.69013-17.78928-171.96291-43.8802-85.38848-27.27688-88.94633-9.48761-15.41737 69.9711 67.59922 72.343 72.34303 92.5041 24.90498 92.5041-15.41737 0-34.39258 8.3017-42.69424 17.7893s-24.90497 17.7893-36.76449 17.7893c-11.85951 0-24.90497 4.7438-28.46282 11.8595-4.74381 8.3016 151.80174 11.8595 461.33498 11.8595 258.53733 0 469.6366-3.5579 469.6366-8.3017 0-8.3016-90.13225-131.6405-117.40913-158.9174-10.67356-10.6735-48.62399-55.73966-84.20253-99.61985-105.54964-130.45462-260.90924-317.83489-288.18611-349.85557-14.23141-15.41736-45.06614-53.3678-67.59921-84.20252-90.13229-118.59511-142.31413-166.03316-142.31413-130.45462zm109.1075 457.77712c10.67356 5.92975 58.1116 37.95043 104.36369 68.78516 47.43805 32.02068 87.76038 54.55375 92.50419 50.9959 3.55785-3.55786 0-21.34712-8.30166-37.95044-24.90497-54.55375 3.55785-60.4835 48.62399-9.48761 21.34712 23.71902 45.06615 49.80995 50.9959 56.92566 36.76448 37.95043 124.52487 152.98767 124.52487 162.47527 0 5.9297-66.41327 10.6735-148.24389 10.6735h-148.24389l-39.13638-54.5537c-36.76449-52.1818-93.69014-145.87195-111.47941-182.63643-4.7438-9.48761-20.16116-35.57854-35.57853-58.11161-40.32234-59.29755-35.57853-80.64467 10.67356-46.25209 21.34712 15.41736 47.43805 32.02068 59.29756 39.13639zm794.58721-626.182179c-7.1157 11.85951-15.4174 45.06614-20.1612 74.71492-9.4876 64.041359-26.0909 126.896769-43.8802 162.475299-16.6033 34.39258-18.9752 119.78106-3.5578 124.52486 7.1157 2.37191 13.0454-13.04546 15.4173-32.02068 2.3719-20.16116 11.8595-52.18184 21.3471-73.52896 8.3017-20.16117 16.6034-47.43805 16.6034-59.29756s4.7438-27.27687 10.6735-34.39258c11.8595-11.85951 60.4835-149.429839 60.4835-170.776959 0-20.16117-46.2521-13.04546-56.9256 8.30166z" style="stroke-width:1.18595"/></svg>