<svg height="960" style="" width="1410" xmlns="http://www.w3.org/2000/svg"><path d="m576.77505-30c-4.0727 0-7.0347 1.1108-7.5901 2.7768-1.8512 4.6281.7405 8.3306 5.5537 8.3306 2.4066 0 4.8132 1.2959 5.5537 2.7768.5554 1.481 2.962 2.7769 5.5537 2.7769 2.4066 0 4.8132 1.2959 5.5537 2.7768.5554 1.481 2.962 2.7769 5.5537 2.7769 2.4066 0 4.8132 1.2958 5.5537 2.7768.5554 1.8513 3.5173 2.7769 8.3305 2.7769 4.6281 0 7.5901.9256 8.3306 2.7768.7405 2.0364 3.8875 2.7768 11.1073 2.7768s10.1818.7406 11.1074 2.7769c.7405 2.2215 4.443 2.7768 16.6611 2.7768 12.033 0 15.7354.5554 16.6611 2.7769.7405 2.0364 4.0727 2.7768 13.8842 2.7768 9.6264 0 12.9586.7405 13.8842 2.7769.5554 1.8512 3.5174 2.7768 8.3306 2.7768 4.628 0 7.59.9256 8.3305 2.7769.5554 1.8512 3.5173 2.7768 8.3305 2.7768 4.6281 0 7.5901.9256 8.3306 2.7769.5553 1.8512 3.5173 2.7768 8.3305 2.7768 4.6281 0 7.59.9256 8.3305 2.7768.5554 1.481 2.962 2.7769 5.5537 2.7769 2.4066 0 4.8132 1.2959 5.5537 2.7768.5554 1.8513 3.5174 2.7769 8.3305 2.7769 4.6281 0 7.5901.9256 8.3306 2.7768.5554 1.481 2.7768 2.7769 4.8132 2.7769 2.2215 0 6.1105 2.4066 8.7022 5.5537 2.5918 3.1471 6.2946 5.5536 8.8863 5.5536 2.2215 0 4.6262 1.2959 5.3667 2.7769.5554 1.481 2.962 2.7768 5.5537 2.7768 2.4066 0 4.8132 1.2959 5.5537 2.7769.5554 1.481 2.962 2.7768 5.5537 2.7768 2.4066 0 4.8132 1.2959 5.5537 2.7769.5554 1.481 2.962 2.7768 5.5537 2.7768 2.4066 0 4.8132 1.2959 5.5537 2.7769.5554 1.481 2.962 2.7768 5.5537 2.7768 2.4066 0 4.8132 1.2959 5.5537 2.7769.5553 1.481 2.9619 2.7768 5.5537 2.7768 2.4066 0 4.8132 1.2959 5.5536 2.7768.5554 1.4811 2.962 2.7769 5.5537 2.7769 2.4066 0 4.8132 1.2959 5.5537 2.7768.5554 1.481 2.962 2.7769 5.5537 2.7769 2.4066 0 4.8132 1.2959 5.5537 2.7768.5554 1.8513 3.5173 2.7769 8.3305 2.7769 4.6281 0 7.5901.9256 8.3306 2.7768.5553 1.8513 3.5173 2.7769 8.3305 2.7769 4.6281 0 7.5901.9256 8.3306 2.7768.5553 1.481 2.7768 2.7769 4.8131 2.7769 2.2215 0 6.1106 2.4066 8.7023 5.5536 2.4066 2.962 6.1098 5.5537 8.1461 5.5537 4.6281 0 10.9201 6.4794 10.9201 11.1074 0 2.0364 1.2959 4.2578 2.7768 4.8132 1.481.7405 2.7769 3.3322 2.7769 6.2942s-1.2959 5.5537-2.7769 6.2942c-1.8512.5554-2.7768 3.5173-2.7768 8.3305 0 4.6281-.9256 7.5901-2.7768 8.3306-1.481.5553-2.7769 2.7768-2.7769 4.8132 0 5.1834-6.4782 11.1073-12.0319 11.1073-4.2578 0-4.6292-.7412-4.6292-8.1461 0-5.5537.9257-8.5149 2.7769-9.2554 2.2215-.7405 2.7768-4.2593 2.7768-15.5518 0-12.7735-.5549-14.9932-4.2574-18.5105-2.4066-2.2215-6.1098-4.0731-8.1462-4.0731-2.2214 0-4.2571-1.2958-4.9976-2.7768-.5553-1.6661-3.3311-2.7769-7.2187-2.7769-5.1834 0-7.7751 1.664-13.8842 8.1433-4.2578 4.628-9.4413 8.5164-11.8479 8.8866-2.5917.3703-4.4429 2.0378-4.8132 4.4444-.3702 2.2215-14.2559 17.586-30.917 34.247l-30.5453 30.1736 4.0731 4.2604c2.2215 2.4066 5.7395 4.2575 8.1461 4.2575 2.2215 0 4.4419 1.2959 5.1824 2.7768.5554 1.8513 3.5173 2.7769 8.3305 2.7769 4.6281 0 7.5901.9256 8.3306 2.7768.5553 1.8513 3.5173 2.7769 8.3305 2.7769 4.6281 0 7.59.9256 8.3305 2.7768.5554 1.8513 3.5174 2.7768 8.3306 2.7768 4.628 0 7.59.9257 8.3305 2.7769.5554 1.8512 3.5173 2.7768 8.3305 2.7768 4.6281 0 7.5901.9257 8.3306 2.7769.5553 1.6661 3.3337 2.7768 7.2212 2.7768 5.1835 0 8.3288 2.0367 18.5105 12.4036 6.8496 6.6645 12.4036 13.8825 12.4036 15.7337s1.2959 3.8893 2.7769 4.4447c1.8512.7405 2.7768 3.7025 2.7768 8.3306 0 4.8132.9256 7.7751 2.7769 8.3305 1.8512.7405 2.7768 3.7014 2.7768 9.2551 0 7.4049-.3684 8.1461-4.6263 8.1461-2.5917 0-5.1852 1.2959-5.7406 2.7769-.9256 2.0363-3.8876 2.7768-11.1074 2.7768s-10.3669.7405-11.1073 2.7769c-.7405 1.4809-2.9609 2.7768-5.1824 2.7768s-7.0354 3.1467-10.923 7.0343c-7.0347 7.2198-9.0714 15.1805-4.0731 15.1805 1.6661 0 2.7769 1.6664 2.7769 4.073 0 2.2215 3.5173 7.2188 8.3305 12.0319 4.6281 4.2579 8.3306 9.4409 8.3306 11.2922 0 1.8512 2.4066 5.3678 5.5536 7.7744 3.5174 2.962 5.3686 6.4797 5.5537 9.6268 0 3.3322.9257 5.1849 2.7769 5.1849 2.0363 0 2.7768 2.2215 2.7768 8.3305 0 6.1091.7405 8.3305 2.7769 8.3305 2.0363 0 2.7768 2.4048 2.7768 10.18 0 9.6264-.3691 10.3669-9.255 19.4379-5.1835 4.9984-10.1818 9.258-11.1074 9.258-3.8876 0-1.4821-4.0734 6.4782-11.6635 7.7752-7.59 8.3305-8.6997 8.3305-17.5856 0-7.4049-.7405-9.6268-2.7768-9.6268-2.0364 0-2.7769-2.2214-2.7769-8.3305 0-6.109-.7405-8.3305-2.7768-8.3305-1.6661 0-2.7769-1.6658-2.7769-4.2575 0-2.4066-2.4065-6.1101-5.5536-8.7019-2.962-2.5917-5.3686-6.2949-5.5537-8.1461 0-2.0363-3.7025-7.2205-8.3306-11.6635-5.5537-5.1834-8.3305-9.4409-8.3305-12.588 0-2.5917-.9256-4.6262-2.0364-4.6262-1.1107 0-4.0712-2.5917-6.6629-5.5537-2.4066-3.1471-6.1098-5.5537-8.1462-5.5537-1.8512 0-6.8495-3.7025-11.1074-8.3306-4.2578-4.628-9.2561-8.3305-11.1073-8.3305-1.8513 0-6.8496-3.7024-11.1074-8.3305-4.8132-5.1835-9.2558-8.3306-11.8475-8.3306-2.4066 0-4.6288-1.2958-5.3693-2.7768-.5554-1.481-2.7772-2.7769-4.8136-2.7769-2.2215 0-6.1076-2.5917-8.6993-5.5536-2.4066-3.1471-6.1098-5.5537-8.1462-5.5537-4.628 0-10.9229-6.4793-10.9229-11.1074 0-2.0364-1.2959-4.2578-2.7769-4.8132-1.481-.7405-2.7768-3.1471-2.7768-5.5537 0-2.5917-1.2959-4.9983-2.7769-5.5537-1.8512-.7405-2.7768-3.7046-2.7768-9.2583 0-9.2562-1.2955-9.9949-7.0343-3.8858-3.7025 3.8876-4.0731 6.2924-4.0731 24.0642 0 15.9206.5554 20.1809 2.7768 20.9214 1.8513.7405 2.7769 3.7025 2.7769 8.3306 0 4.8131.9256 7.7751 2.7768 8.3305 1.8513.7405 2.7769 3.7024 2.7769 8.3305 0 4.8132.9256 7.7752 2.7768 8.3306 2.0364.9256 2.7769 3.8875 2.7769 11.1073s.7405 10.3669 2.7768 11.1074c1.8513.7405 2.7769 3.7025 2.7769 8.3306 0 4.8132.9256 7.7751 2.7768 8.3305 1.481.7405 2.7769 3.1471 2.7769 5.5537 0 2.5917 1.2958 4.9983 2.7768 5.5537 2.0364.9256 2.7768 4.2578 2.7768 13.8842 0 9.8115.7405 13.1437 2.7769 13.8842 2.0363.9256 2.7768 4.2579 2.7768 13.8843 0 9.8115.7405 13.1437 2.7769 13.8842 2.2215.9256 2.7768 4.998 2.7768 20.178 0 15.1801-.5553 19.2528-2.7768 20.1784-2.0364.7405-2.7769 3.8876-2.7769 11.1074s-.7405 10.1818-2.7768 11.1074c-1.6661.5554-2.7769 3.5173-2.7769 7.5901 0 5.1834-1.2958 7.7737-5.5536 11.4761-2.962 2.4066-5.5537 6.1105-5.5537 7.9618 0 1.6661-7.405 10.5512-16.6611 19.6223-11.4776 11.1074-16.6611 17.5877-16.6611 20.5497 0 3.1471-1.1103 4.2575-4.2574 4.2575-4.9984 0-23.511 17.9547-23.511 22.7679 0 1.8513-2.4066 5.5545-5.5537 8.1462s-5.5537 6.2949-5.5537 8.8866c0 2.2215-1.2959 4.6288-2.7769 5.3693-2.0363.7405-2.7768 3.8876-2.7768 11.1074s-.7405 10.1818-2.7768 11.1074c-2.2215.7405-2.7769 5.3678-2.7769 25.176 0 20.1784.3703 24.0667 2.7769 24.0667 2.0363 0 2.7768-2.0378 2.7768-7.2212 0-4.0727 1.1107-8.144 2.7768-9.4399 1.481-1.2958 2.7769-4.2596 2.7769-6.4811 0-2.4066 1.2958-4.6259 2.7768-5.3664 1.481-.5554 2.7769-2.5935 2.7769-4.4447 0-1.8513 6.8499-10.18 15.1804-18.5105 12.9586-12.9587 16.1068-15.1805 21.2903-15.1805 3.8876 0 6.6633-1.1107 7.2187-2.7768 1.6661-4.0727 27.5829-4.0727 29.249 0 .5554 1.4809 2.962 2.7768 5.5537 2.7768 2.4066 0 4.8132 1.2959 5.5537 2.7769.5554 1.4809 2.5932 2.7768 4.4444 2.7768 2.0364 0 11.8465 8.3305 22.5836 19.4379 17.7718 17.957 19.8085 19.4379 26.2878 19.4379 7.405 0 8.8856-1.8512 4.2575-5.5537-1.481-1.2958-2.7769-3.7024-2.7769-5.5536 0-1.8513-2.4066-5.5552-5.5536-7.9618-2.962-2.5917-5.5537-6.4778-5.5537-8.6993 0-2.0364-1.2959-4.2578-2.7769-4.8132-1.481-.7405-2.7768-3.1471-2.7768-5.5537 0-2.5917-1.2959-4.9983-2.7769-5.5537-4.0727-1.6661-4.0727-55.3514 0-57.0175 1.481-.5554 2.7769-2.5928 2.7769-4.6292 0-2.0363 4.9983-8.3316 11.1074-14.2555 6.109-5.7389 11.1073-11.8468 11.1073-13.5129 0-4.0727 62.944-66.8287 66.8316-66.8287 1.8513 0 5.3679-2.4066 7.7745-5.5537 2.5917-2.962 6.4778-5.5537 8.6993-5.5537 2.0363 0 4.2582-1.2959 4.8136-2.7769.7405-1.8512 3.7024-2.7768 8.3305-2.7768 4.8132 0 7.7752-.9256 8.3305-2.7768.7405-1.481 3.1471-2.7769 5.5537-2.7769 2.5918 0 4.9983-1.2958 5.5537-2.7768.7405-1.481 3.1471-2.7769 5.5537-2.7769 2.5917 0 4.99835-1.2958 5.55375-2.7768.7405-1.481 3.1471-2.7769 5.5537-2.7769 2.5917 0 4.9983-1.2958 5.5537-2.7768.7405-1.481 3.1478-2.7769 5.3693-2.7769 2.5917 0 6.2945-2.4066 8.8862-5.5537 2.5918-3.147 6.4779-5.5536 8.6994-5.5536 2.0363 0 4.2582-1.2959 4.8135-2.7769.7405-1.481 2.9634-2.7768 5.1849-2.7768s7.0325-3.1468 10.9201-7.0344l6.8499-7.0368v-17.0302c0-24.8065-.3702-24.4355 36.8395-24.4355 24.4362 0 29.6197.5553 30.5453 2.7768.5554 1.481 2.5932 2.7769 4.4444 2.7769 4.443 0 28.1372 23.6943 28.1372 28.1372 0 1.8512 1.2959 3.8894 2.7769 4.4448 1.8512.7404 2.7768 3.5158 2.7768 7.9588 0 5.5537 1.4807 8.1461 7.0344 13.6998l7.2216 7.0344 7.7744-8.515c4.2578-4.6281 8.5168-8.3305 9.4424-8.3305 1.1107 0 1.8494 5.9232 1.8494 13.3281 0 12.9586-.1851 13.6998-5.5537 17.2172-7.0347 4.6281-7.2191 8.3305-.1844 8.3305 2.962 0 5.7381 1.1107 6.4786 2.7769.5553 1.4809 2.7768 2.7768 4.8132 2.7768 2.0363 0 4.2582-1.2959 4.8135-2.7768.7406-1.8513 3.7025-2.7769 8.3306-2.7769 4.8132 0 7.7751-.9256 8.3305-2.7768.7405-1.481 2.9634-2.7769 5.1849-2.7769 2.5917 0 12.5862-8.7004 30.358-26.4722l26.2878-26.2878v-18.1417c0-14.8099-.5553-17.9573-2.7768-17.9573-2.0364 0-2.7769 2.0352-2.7769 7.2187 0 4.0727-1.1107 8.1465-2.7768 9.4423-1.481 1.2959-2.7769 3.7025-2.7769 5.5537 0 3.3322-12.0311 16.6611-14.9931 16.6611-.9256 0-1.6679-3.3329-1.6679-7.4056 0-4.9984-.9256-7.9596-2.7769-8.515-2.2214-.9256-2.7768-4.4444-2.7768-16.2922 0-13.6991-.3692-15.7355-4.4419-19.438-5.9239-5.5537-16.6607-4.8128-17.4012 1.2963-.3702 2.4066.5547 4.6295 2.2208 5.1848 2.2214.9257 2.9612 3.7025 2.9612 11.1074 0 7.2198.7405 10.3669 2.7769 11.1074 1.8512.7405 2.7768 3.7014 2.7768 9.2551 0 5.9239-.7405 8.1461-2.7768 8.1461-1.6661 0-2.7769-1.6668-2.7769-4.6288 0-2.5917-1.2958-5.1827-2.7768-5.7381-1.8513-.7405-2.7769-3.7024-2.7769-8.3305 0-4.8132-.9256-7.7752-2.7768-8.3305-1.6661-.7405-2.7769-3.5192-2.7769-6.4812 0-5.9239-2.0363-6.8477-5.5537-2.5899-1.2958 1.481-3.7002 2.7769-5.3663 2.7769-3.8876 0-22.4021-17.9591-22.4021-21.6616s-13.5136-17.2143-17.4012-17.2143c-3.3322 0-10.3673-6.296-10.3673-9.2579 0-2.962 4.9984-2.2197 6.2942.9274.5554 1.481 2.7769 2.7768 4.8132 2.7768 2.2215 0 9.258 5.5523 17.5885 14.2531l13.6973 14.2559 3.7043-4.6292c3.1471-3.7024 3.7006-7.2183 3.8858-19.8067 0-16.8462 1.2973-18.3275 8.7022-9.6267 2.4066 2.9619 5.9239 5.5536 7.59 5.5536 3.7025.1852 11.4762 6.2942 11.4762 9.0711 0 1.1107 1.2959 2.0363 2.7769 2.0363 1.4809 0 2.7768-1.2958 2.7768-2.7768s-1.2959-2.7769-2.7768-2.7769c-1.6662 0-2.7769-1.6657-2.7769-4.2574 0-4.8133-34.4314-40.1721-39.2446-40.1721-3.8876 0-16.2923-12.404-16.2923-16.4767 0-1.6661-12.4032-15.5496-27.7685-30.7297-15.18-15.18-27.7684-28.8791-27.7684-30.5453 0-2.7768-23.6954-27.7684-26.4722-27.7684-2.4066 0-1.2963 8.7008 1.4806 11.1074 2.0363 1.6661 2.7768 6.1083 2.7768 16.8454 0 12.2182-.5542 15.179-3.7013 18.3261-5.924 5.9239-7.4061 4.4441-7.4061-6.4782 0-7.4049-.7404-10.5513-2.7768-11.2918-1.481-.7405-2.7768-3.1478-2.7768-5.3693 0-2.4066-2.2193-6.2949-5.3664-8.8866-2.962-2.4066-5.7396-6.4797-6.1098-8.8863-.3703-3.3322-1.6676-4.4418-5.1849-4.4418-4.443 0-4.6266.5554-5.182 12.4032-.5554 11.4777-1.1104 12.9583-7.0343 18.8822-5.924 5.9239-7.7759 6.6655-16.4767 6.6655-7.0347 0-10.1825-.7405-10.923-2.7768-.5553-1.481-3.1463-2.7769-5.7381-2.7769-3.7024 0-4.6291-.9263-4.6291-4.6288 0-2.5917-1.2959-5.1827-2.7769-5.7381-2.0363-.7404-2.7768-3.8883-2.7768-10.9229 0-8.8859.7415-10.5528 6.6655-16.4767 5.3686-5.3686 8.1454-6.663 13.8842-6.663 3.8876 0 7.2187-.9256 7.2187-2.0363 0-3.1471-7.9585-8.8859-12.2163-9.0711-2.2214 0-4.4443-1.2958-5.1849-2.7768-.5553-1.481-2.9619-2.7769-5.5537-2.7769-2.4065 0-4.8131-1.2958-5.5536-2.7768-.5554-1.481-2.962-2.7769-5.5537-2.7769-2.4066 0-4.8132-1.2958-5.5537-2.7768-.5554-1.481-2.962-2.7768-5.5537-2.7768-2.4066 0-4.8132-1.2959-5.5537-2.7769-.5554-1.481-2.96205-2.7768-5.55375-2.7768-2.4066 0-4.8132-1.2959-5.5537-2.7769-.5554-1.481-2.9619-2.7768-5.5537-2.7768-2.4066 0-4.8132-1.2959-5.5537-2.7769-.5553-1.8512-3.5173-2.7768-8.3305-2.7768-4.6281 0-7.59-.9256-8.3305-2.7769-.5554-1.4809-2.962-2.7768-5.5537-2.7768-2.4066 0-4.8132-1.2959-5.5537-2.7769-.5554-1.4809-2.962-2.7768-5.5537-2.7768-2.4066 0-4.8132-1.2959-5.5537-2.7768-.5554-1.8513-3.5173-2.7769-8.3305-2.7769-4.6281 0-7.5901-.9256-8.3306-2.7768-.5553-1.481-2.9619-2.7769-5.5537-2.7769-2.4065 0-4.8131-1.2958-5.5537-2.7768-.5553-1.8513-3.5173-2.7769-8.3305-2.7769-4.628 0-7.59-.9256-8.3305-2.7768-.5554-1.8512-3.5166-2.7769-8.515-2.7769-5.3685 0-7.406-.7405-7.406-2.7768 0-2.0364-2.2215-2.7769-8.3305-2.7769-6.1091 0-8.3305-.7404-8.3305-2.7768 0-2.0363 2.2214-2.7768 8.3305-2.7768 6.109 0 8.3305.7405 8.3305 2.7768 0 2.2215 2.4073 2.7768 10.923 2.7768 7.9603 0 11.1067.7405 12.0323 2.7769.5553 1.8512 3.5173 2.7768 8.3305 2.7768 4.6281 0 7.5901.9257 8.3306 2.7769.5553 1.8512 3.5173 2.7768 8.3305 2.7768 4.6281 0 7.59.9256 8.3305 2.7769.5554 1.8512 3.5174 2.7768 8.3306 2.7768 4.628 0 7.59.9256 8.3305 2.7769.7405 2.0363 3.8876 2.7768 11.1074 2.7768s10.1817.7405 11.1074 2.7769c.7404 2.0363 3.8875 2.7768 11.1073 2.7768s10.1818.7405 11.1074 2.7768c.5554 1.8513 3.51735 2.7769 8.33055 2.7769 4.628 0 7.59.9256 8.3305 2.7768.5554 1.481 2.962 2.7769 5.5537 2.7769 2.4066 0 4.8132 1.2958 5.5538 2.7768.5553 1.481 2.9618 2.7769 5.5536 2.7769 2.4067 0 4.8133 1.2958 5.5537 2.7768.5553 1.481 2.962 2.7769 5.5537 2.7769 2.4065 0 4.8132 1.2958 5.5537 2.7768.5553 1.481 2.962 2.7769 5.5536 2.7769 2.4067 0 4.8133 1.2958 5.5538 2.7768.5554 1.481 2.962 2.7768 5.5537 2.7768 2.4066 0 4.8132 1.2959 5.5537 2.7769.5554 1.481 2.962 2.7768 5.5537 2.7768 2.4066 0 4.8132 1.2959 5.5537 2.7769.5553 1.481 2.7768 2.7768 4.8132 2.7768 2.2215 0 6.1105 2.4066 8.7022 5.5537s6.2946 5.5537 8.8863 5.5537c2.2215 0 4.6262 1.2959 5.3667 2.7769.5554 1.4809 2.962 2.7768 5.5537 2.7768 2.4066 0 4.8132 1.2959 5.5537 2.7768.5554 1.481 2.5932 2.7769 4.4444 2.7769 2.0364 0 4.6266 1.2959 5.9225 2.7768 3.7025 4.6281 5.5537 3.1475 5.5537-4.2574 0-6.1091-1.4806-8.3306-12.588-19.438-7.59-7.4049-14.0701-12.4036-16.4767-12.4036-2.0363 0-4.2571-1.2958-4.9976-2.7768-.5553-1.481-2.9619-2.7768-5.5537-2.7768-2.4065 0-4.8131-1.2959-5.5537-2.7769-.5553-1.481-2.9619-2.7768-5.5536-2.7768-2.4066 0-4.8132-1.2959-5.5537-2.7769-.5554-1.481-2.962-2.7768-5.5537-2.7768-2.4066 0-4.8132-1.2959-5.5537-2.7769-.5554-1.481-2.962-2.7768-5.5537-2.7768-2.4066 0-4.8132-1.2959-5.5537-2.7769-.5554-1.8512-3.5173-2.7768-8.3305-2.7768-4.6281 0-7.5901-.9256-8.3306-2.7769-.5553-1.4809-2.962-2.7768-5.5537-2.7768-2.4065 0-4.8132-1.2959-5.5538-2.7768-.5553-1.8513-3.5173-2.7769-8.3305-2.7769-4.628 0-7.59-.9256-8.3305-2.7768-.7405-2.0364-3.8876-2.7769-11.1074-2.7769-7.21975 0-10.18175-.7405-11.10735-2.7768-.5554-1.8513-3.5173-2.7769-8.3305-2.7769-4.6281 0-7.59-.9256-8.3306-2.7768-.7404-2.0364-3.8875-2.7769-11.1073-2.7769s-10.1818-.7405-11.1074-2.7768c-.7405-2.0364-3.8876-2.7769-11.1074-2.7769s-10.1817-.7404-11.1074-2.7768c-.5554-1.8512-3.5173-2.7768-8.3305-2.7768-4.6281 0-7.59-.9257-8.3306-2.7769-.5553-1.8512-3.5173-2.7768-8.3305-2.7768-4.628 0-7.59-.9256-8.3305-2.7769-.7405-2.0363-3.8876-2.7768-11.1074-2.7768s-10.1818-.7405-11.1074-2.7769c-.5554-1.8512-3.5173-2.7768-8.3305-2.7768-4.6281 0-7.59-.9256-8.3306-2.7769-.5553-1.8512-3.5173-2.7768-8.3305-2.7768-4.6281 0-7.59-.9256-8.3305-2.7768-.5554-1.8513-3.5174-2.7769-8.3306-2.7769-4.628 0-7.59-.9256-8.3305-2.7768-.5554-1.8513-3.5173-2.7769-8.3305-2.7769-4.6281 0-7.5901-.9256-8.3306-2.7768-.5553-1.8513-3.5173-2.7769-8.3305-2.7769-4.6281 0-7.59-.9256-8.3305-2.7768-.5554-1.8513-3.5174-2.7769-8.3306-2.7769-4.628 0-7.59-.9256-8.3305-2.7768-.5554-1.8512-3.5173-2.7769-8.3306-2.7769-4.628 0-7.59-.9256-8.3305-2.7768-.7405-2.4066-6.2942-2.7768-33.3221-2.7768-26.8429 0-32.3965-.3703-33.3222-2.7769-.7405-2.2215-4.8132-2.7768-19.4379-2.7768s-18.5123-.5554-19.4379-2.7769c-.7405-2.0363-3.8876-2.7768-11.1074-2.7768s-10.1817-.7405-11.1074-2.7769c-.5553-1.8512-3.5173-2.7768-8.3305-2.7768-4.6281 0-7.59-.9256-8.3305-2.7769-.7405-2.0363-4.0727-2.7768-13.8843-2.7768-9.6264 0-12.9586-.7405-13.8842-2.7769-.5554-1.6661-3.5177-2.7768-7.5904-2.7768zm86.0822 55.5369c-16.476 0-20.7338.5554-21.4743 2.7769-.9256 2.0363-4.2578 2.7768-13.8842 2.7768-9.8115 0-13.1437.7405-13.8842 2.7768-.9256 2.0364-3.8876 2.7769-11.1074 2.7769s-10.3669.7405-11.1074 2.7768c-.9256 2.0364-4.2578 2.7769-13.8842 2.7769-9.8115 0-13.1438.7405-13.8842 2.7768-.7405 1.8513-3.7025 2.7769-8.3306 2.7769-4.8132 0-7.7752.9256-8.3305 2.7768-.9256 2.0364-3.8876 2.7769-11.1074 2.7769s-10.3669.7405-11.1074 2.7768c-.7405 1.8513-3.7024 2.7768-8.3305 2.7768-4.8132 0-7.7752.9257-8.3306 2.7769-.7404 1.8512-3.7024 2.7768-8.3305 2.7768-4.8132 0-7.7752.9257-8.3305 2.7769-.7405 1.8512-3.7025 2.7768-8.3306 2.7768-4.8132 0-7.7751.9257-8.3305 2.7769-.7405 1.8512-3.7025 2.7768-8.3305 2.7768-4.8132 0-7.7752.9257-8.3306 2.7769-.7405 1.481-3.1471 2.7768-5.5537 2.7768-2.5917 0-4.9983 1.2959-5.5537 2.7769-.7404 1.481-3.147 2.7768-5.5536 2.7768-2.5918 0-4.9984 1.2959-5.5537 2.7768-.7405 1.4811-3.1471 2.7769-5.5537 2.7769-2.5917 0-4.9983 1.2959-5.5537 2.7768-.7405 1.481-3.1471 2.7769-5.5537 2.7769-2.5917 0-4.9983 1.2959-5.5537 2.7768-.7405 1.481-3.1471 2.7769-5.5537 2.7769-2.5917 0-4.9983 1.2959-5.5537 2.7768-.7405 1.481-3.1471 2.7769-5.5537 2.7769-2.5917 0-4.9983 1.2958-5.5537 2.7768-.7404 1.481-3.1452 2.7769-5.3667 2.7769-2.5917 0-6.2945 2.4066-8.8863 5.5536-2.5917 2.962-6.4793 5.5537-8.3305 5.5537-2.0364 0-5.9239 2.4067-8.3305 5.5537-2.5918 2.962-6.4793 5.5537-8.3306 5.5537-2.0363 0-5.9239 2.4066-8.3305 5.5537-2.5917 2.962-6.4793 5.5537-8.3305 5.5537-2.0364 0-5.924 2.4066-8.3306 5.5537-2.5917 2.962-6.2949 5.5537-8.1461 5.5537-2.0364 0-11.8486 8.5157-22.7709 19.4379-10.3669 10.7372-20.3613 19.4379-22.0274 19.4379-3.8876 0-22.4021 18.5116-22.4021 22.3992 0 1.6661-7.4049 10.3669-16.6611 19.4379-9.071 8.8859-16.6611 17.7711-16.6611 19.6223 0 1.6661-3.7024 6.6652-8.3305 10.923s-8.3305 9.2554-8.3305 11.2918c0 2.0363-2.4066 5.7388-5.5537 8.3305-2.962 2.4066-5.5537 6.2942-5.5537 8.3305 0 1.8513-2.5917 5.7388-5.5537 8.3306-3.1471 2.5917-5.5537 6.2949-5.5537 8.8866 0 2.2215-1.2959 4.6288-2.7768 5.3693-1.481.5554-2.7769 2.962-2.7769 5.5537 0 2.4066-1.2958 4.8132-2.7768 5.5537-1.481.5554-2.7769 2.7768-2.7769 4.8132 0 2.2215-2.4066 6.1076-5.5537 8.6993s-5.5537 6.2949-5.5537 8.8866c0 2.2215-1.2958 4.6288-2.7768 5.3693-1.481.5554-2.7768 2.962-2.7768 5.5537 0 2.4066-1.2959 4.8132-2.7769 5.5537-1.481.5554-2.7768 2.962-2.7768 5.5537 0 2.4066-1.2959 4.8132-2.7769 5.5537-1.481.5554-2.7768 2.962-2.7768 5.5537 0 2.4066-1.2959 4.8132-2.7769 5.5537-1.481.5553-2.7768 2.9619-2.7768 5.5537 0 2.4066-1.2959 4.8132-2.7769 5.5537-1.4809.5553-2.7768 3.1463-2.7768 5.7381 0 3.5173-.9253 4.6287-4.2575 4.6287-.9573 0-2.8498-1.1299-5.8697-3.548l579.2529 579.2528c-1.6815-2.0838-2.6493-3.5176-2.6493-4.0463 0-1.8512-1.2958-3.8861-2.7768-4.4415-1.481-.7405-2.7769-2.9628-2.7769-5.3693 0-2.5918-3.147-7.0346-8.3305-11.8479-4.6281-4.2578-8.3305-9.2562-8.3305-11.1074 0-1.8511-3.7025-6.8495-8.3306-11.1073-4.628-4.2579-8.3305-9.2562-8.3305-11.1074s-4.9983-8.1455-11.1074-13.8842c-6.109-5.924-11.1074-12.0331-11.1074-13.8843s-6.2941-9.2561-13.8842-16.661c-7.59-7.405-13.8842-14.9943-13.8842-16.8455 0-1.6661-4.9983-7.961-11.1074-13.6998-6.1091-5.924-11.1074-12.2174-11.1074-14.0687 0-1.8512-2.4066-5.5551-5.5537-7.9617-3.1471-2.5917-5.5537-6.4793-5.5537-8.3305 0-2.0364-2.4066-5.924-5.5536-8.3306-3.1471-2.5917-5.5537-6.4793-5.5537-8.3305 0-2.0364-2.4066-5.924-5.5537-8.3306-2.962-2.5917-5.5537-6.4793-5.5537-8.3305 0-2.0363-2.4066-5.9239-5.5537-8.3305-2.962-2.5917-5.5537-6.4793-5.5537-8.3306 0-2.0363-2.4066-5.9239-5.5537-8.3305-2.962-2.5917-5.5537-6.4793-5.5537-8.3305 0-2.0364-2.4066-5.924-5.5537-8.3306-2.9619-2.5917-5.5537-6.4793-5.5537-8.3305 0-2.0364-2.4066-5.9239-5.5537-8.3305-2.9619-2.5918-5.5536-6.2942-5.5536-8.3306 0-2.0363-3.7025-7.0339-8.3306-11.2918-4.6281-4.2578-8.3305-9.2561-8.3305-11.1073 0-2.0364-2.4066-5.7396-5.5537-8.1462-2.962-2.5917-5.5537-6.2942-5.5537-8.3305 0-2.0364-3.7025-7.034-8.3305-11.2918-4.6281-4.2578-8.3306-9.2561-8.3306-11.1074 0-2.0363-2.4066-5.7395-5.5537-8.1461-6.6644-5.7388-7.035-8.6993-1.2962-8.6993 2.962 0 14.8099 10.7374 41.6527 37.3952 20.5487 20.5486 37.3952 38.8754 37.3952 40.3564 0 1.6661 7.5901 10.3651 16.6611 19.251 9.2561 9.071 16.6611 17.7736 16.6611 19.6249 0 1.8512 3.7024 6.6626 8.3305 10.9204s8.3305 9.2562 8.3305 11.1074c0 2.0363 2.4066 5.7395 5.5537 8.1461 2.962 2.5917 5.5537 6.2942 5.5537 8.3306 0 2.0363 3.7025 7.0339 8.3305 11.2917 4.6281 4.2579 8.3306 9.2562 8.3306 11.1074s3.7024 6.8496 8.3305 11.1074 8.3305 9.2561 8.3305 11.1074c0 1.8512 3.7025 6.8495 8.3306 11.1074 4.6281 4.2578 8.3305 9.2561 8.3305 11.1073 0 1.8513 3.7025 6.8496 8.3306 11.1074 4.628 4.2579 8.3305 9.2562 8.3305 11.1074 0 2.0364 2.4066 5.7392 5.5537 8.1458 2.9619 2.5918 5.5537 6.4807 5.5537 8.7022 0 2.0364 1.2958 4.2582 2.7768 4.8136 1.481.7404 2.7769 3.1449 2.7769 5.3664 0 2.5917 2.4066 6.2945 5.5537 8.8862 3.147 2.5918 5.5536 6.4808 5.5536 8.7023 0 2.0364 1.2959 4.2581 2.7769 4.8135 1.481.7405 2.7768 3.1449 2.7768 5.3664 0 2.5918 2.4066 6.2945 5.5537 8.8863 3.5174 2.9619 5.5537 6.4808 5.5537 9.4427s1.1108 4.8132 2.7769 4.8132 2.7768-1.6669 2.7768-4.6288c0-2.5918-1.2959-5.1827-2.7768-5.7381-1.8513-.7404-2.7769-3.7025-2.7769-8.3305 0-4.8133-.9256-7.7752-2.7768-8.3306-1.8513-.7404-2.7769-3.7025-2.7769-8.3305 0-4.8132-.9256-7.7752-2.7768-8.3305-1.8513-.7405-2.7769-3.7047-2.7769-9.2584 0-5.9238-.7405-8.1432-2.7768-8.1432-1.6661 0-2.7769-1.6669-2.7769-4.6288 0-2.5918-1.2958-5.1827-2.7768-5.7381-3.1471-1.2958-3.8865-6.2942-.9245-6.2942 3.5173 0 9.255 7.4043 9.255 12.0323 0 2.9619 1.1108 4.6288 2.7769 4.6288s2.7768 1.665 2.7768 4.4419c0 2.7768 2.2215 6.2938 5.5537 9.0707 3.1471 2.5917 5.5537 6.2959 5.5537 7.962 0 3.3322 6.8499 11.8476 9.6268 11.8476 2.7768 0 1.6657-14.8099-1.2963-15.9206-2.0363-.9257-2.7768-3.8876-2.7768-11.1074s-.7405-10.3669-2.7768-11.1074c-1.8513-.7404-2.7769-3.7025-2.7769-8.3305 0-4.8132-.9256-7.7752-2.7768-8.3306-2.0364-.9256-2.7769-3.8875-2.7769-11.1073s-.7405-10.3669-2.7768-11.1074c-2.2215-.9256-2.7769-4.8132-2.7769-19.4379 0-14.6248-.5553-18.6975-2.7768-19.438-2.2215-.9256-2.7769-6.109-2.7769-30.5453 0-24.6213-.5553-29.8048-2.7768-30.5453-2.0364-.9256-2.7769-3.8875-2.7769-11.1073s-.7404-10.3669-2.7768-11.1074c-1.8512-.7405-2.7768-3.7025-2.7768-8.3305 0-4.8132-.9257-7.7752-2.7769-8.3306-1.8512-.7405-2.7768-3.7024-2.7768-8.3305 0-4.8132-.9257-7.7752-2.7769-8.3306-1.481-.7404-2.7768-3.147-2.7768-5.5536 0-2.5918-1.2959-4.9984-2.7769-5.5537-1.8512-.7405-2.7768-3.7025-2.7768-8.3306 0-4.8132-.9256-7.7751-2.7769-8.3305-1.8512-.7405-2.7768-3.7025-2.7768-8.3305 0-4.8132-.9256-7.7752-2.7769-8.3306-1.4809-.7405-2.7768-3.1471-2.7768-5.5537 0-2.5917-1.2959-4.9983-2.7768-5.5537-1.8513-.7405-2.7769-3.7024-2.7769-8.3305 0-4.8132-.9256-7.7752-2.7768-8.3305-1.8513-.7405-2.7769-3.7025-2.7769-8.3306 0-4.8132-.9256-7.7751-2.7768-8.3305-2.0364-.9256-2.7769-3.8876-2.7769-11.1074s-.7405-10.3669-2.7768-11.1074c-2.0364-.9256-2.7769-4.2578-2.7769-13.8842 0-9.8115-.7405-13.1437-2.7768-13.8842-2.0364-.9256-2.7769-3.8876-2.7769-11.1074s-.7404-10.3669-2.7768-11.1074c-2.2215-.9256-2.7768-4.6281-2.7768-16.6611 0-12.2181-.5554-15.9205-2.7769-16.661-2.2215-.9256-2.7768-4.8132-2.7768-19.4379 0-14.6248-.5554-18.6975-2.7769-19.438-2.4066-.9256-2.7768-8.3305-2.7768-50.7237 0-42.3931.3702-49.798 2.7768-50.7237 2.2215-.7405 2.7769-4.4429 2.7769-16.661 0-12.033.5553-15.7355 2.7768-16.6611 1.8512-.5554 2.7769-3.5173 2.7769-8.3306 0-4.628.9256-7.59 2.7768-8.3305 1.8512-.5554 2.7768-3.5173 2.7768-8.3305 0-4.6281.9257-7.5901 2.7769-8.3306 1.481-.5553 2.7768-2.9619 2.7768-5.5537 0-2.4065 1.2959-4.8132 2.7769-5.5536 1.481-.5554 2.7768-2.962 2.7768-5.5537 0-2.4066 1.2959-4.8132 2.7769-5.5537 1.481-.5554 2.7768-2.962 2.7768-5.5537 0-2.4066 1.2959-4.8132 2.7769-5.5537 1.4809-.5554 2.7768-2.962 2.7768-5.5537 0-2.4066 1.2959-4.8132 2.7769-5.5537 1.4809-.5554 2.7768-2.7768 2.7768-4.8132 0-3.8876 6.1109-11.1074 9.258-11.1074s2.2196 16.1057-.9275 17.4016c-2.0363.7405-2.7768 3.8876-2.7768 11.1074s-.7405 10.1817-2.7769 11.1074c-1.8512.5553-2.7768 3.5173-2.7768 8.3305 0 4.6281-.9256 7.59-2.7768 8.3305-1.8513.5554-2.7769 3.5174-2.7769 8.3306 0 4.628-.9256 7.59-2.7768 8.3305-2.0364.7405-2.7769 4.0727-2.7769 13.1437 0 9.0711.7405 12.4033 2.7769 13.1438 1.4809.7405 2.7768 3.1452 2.7768 5.3667 0 2.5917 2.4066 6.2949 5.5537 8.8866 3.1471 2.5918 5.5537 6.4793 5.5537 8.3306 0 2.0363 2.5917 5.9239 5.5537 8.3305 3.1471 2.5917 5.5537 6.4804 5.5537 8.7019 0 2.0364 1.2958 4.2578 2.7768 4.8132 1.8512.7405 2.7769 3.7025 2.7769 8.3305 0 4.8132.9256 7.7752 2.7768 8.3306 2.4066.9256 2.7769 8.7008 2.7769 53.5005 0 44.7998-.3703 52.575-2.7769 53.5006-1.481.5553-2.7768 2.4058-2.7768 4.2571.1851 3.3322 6.109 11.6635 8.3305 11.6635 2.5917 0 8.1454-8.5168 8.3305-12.2193 0-2.2214 1.2959-4.4418 2.7769-5.1823 1.481-.5554 2.7768-2.962 2.7768-5.5537 0-2.4066 1.2959-4.8132 2.7769-5.5537 2.0363-.7405 2.7768-3.8876 2.7768-11.1074s.7405-10.1817 2.7769-11.1074c2.4066-.9256 2.7768-7.7751 2.7768-46.4658s-.3702-45.5403-2.7768-46.4659c-2.0364-.9256-2.7769-3.8876-2.7769-11.1074s-.7405-10.3669-2.7768-11.1074c-1.8513-.7405-2.7769-3.7024-2.7769-8.3305 0-4.8132-.9256-7.7752-2.7768-8.3305-4.0727-1.6662-4.0727-66.4592 0-68.1253 2.0363-.7405 2.7768-4.0727 2.7768-13.8842 0-9.6264.7405-12.9586 2.7769-13.8843 2.2214-.7404 2.7768-4.26 2.7768-15.3674 0-12.0329-.5557-14.808-4.073-18.5105-3.5174-3.7024-5.737-4.2574-18.5105-4.2574-14.0694 0-14.8099-.1851-19.4379-5.5537-2.4066-3.1471-6.1084-5.5537-7.7745-5.5537-1.8512 0-12.0352-8.7008-22.4021-19.4379-12.9586-12.9586-20.5468-19.4379-23.3236-19.4379-2.2215 0-4.4444-1.2959-5.1849-2.7769-.5554-1.4809-2.962-2.7768-5.5537-2.7768-2.4066 0-4.8132-1.2959-5.5537-2.7769-.5554-1.4809-2.962-2.7768-5.5537-2.7768-2.4066 0-4.8132-1.2959-5.5537-2.7769-.5554-1.4809-2.9619-2.7768-5.5537-2.7768-2.4066 0-4.8132-1.2958-5.5537-2.7768-.7405-2.4066-7.2201-2.7769-40.9125-2.7769s-40.1717.3703-40.9122 2.7769c-.9256 2.2214-5.1835 2.7768-22.2148 2.7768-17.2164 0-21.4743.5554-22.2148 2.7768-.7404 1.481-3.147 2.7769-5.5536 2.7769-2.5918 0-4.9984 1.2959-5.5537 2.7768-.7405 1.8513-3.7025 2.7769-8.3306 2.7769-4.8132 0-7.7751.9256-8.3305 2.7768-.7405 1.481-3.1471 2.7769-5.5537 2.7769-2.5917 0-4.9983 1.2959-5.5537 2.7768-.7405 1.481-3.1471 2.7769-5.5537 2.7769-2.5917 0-4.9983 1.2958-5.5537 2.7768-.7405 1.481-3.1471 2.7769-5.5537 2.7769-2.5917 0-4.9983 1.2958-5.5536 2.7768-.7405 1.481-3.1471 2.7768-5.5537 2.7768-2.5918 0-4.9984 1.2959-5.5537 2.7769-.7405 1.481-3.1453 2.7768-5.3668 2.7768-2.5917 0-6.2945 2.4067-8.8862 5.5537-2.5918 2.962-6.4793 5.5537-8.3306 5.5537-2.0363 0-5.9239 2.4066-8.3305 5.5537-2.5917 2.962-6.2942 5.5537-8.3305 5.5537-1.8513 0-9.4406 6.2942-16.8455 13.8842-7.4049 7.5901-14.995 13.8842-16.6611 13.8842s-20.5508 17.5868-41.84 38.8759c-22.2147 22.3999-40.1702 38.8758-42.0214 38.8758-1.8513 0-3.8891 1.2959-4.4445 2.7769-.7404 1.481-2.2207 2.7768-3.7017 2.7768-3.5173 0-3.3329-8.1454.1844-11.1074 1.481-1.2958 2.7769-4.2596 2.7769-6.4811 0-2.4066 1.2958-4.6263 2.7768-5.3667 1.481-.5554 2.7768-2.962 2.7768-5.5537 0-2.4066 1.2959-4.8132 2.7769-5.5537 1.481-.5554 2.7768-2.7769 2.7768-4.8132 0-2.2215 2.5918-6.1102 5.5537-8.7019 3.1471-2.4066 5.5537-6.1101 5.5537-8.1465 0-1.8512 3.7025-6.8495 8.3305-11.1074 4.6281-4.2578 8.3306-9.2561 8.3306-11.1074 0-4.4429 6.4808-10.92 10.7386-10.92 1.8512 0 9.4405-6.2942 16.8454-13.8843 7.405-7.59 14.9943-13.8842 16.8455-13.8842 1.6661 0 6.6652-3.7024 10.923-8.3305s9.2561-8.3306 11.1074-8.3306c2.0363 0 5.7395-2.5917 8.1461-5.5537 2.5917-3.147 6.4793-5.5536 8.3306-5.5536 2.0363 0 5.9239-2.5918 8.3305-5.5537 2.5917-3.1471 6.2942-5.5537 8.3305-5.5537 2.0364 0 7.034-3.7025 11.2918-8.3306 4.2578-4.628 9.2576-8.3305 11.4791-8.3305 2.0363 0 4.0709-1.2958 4.6262-2.7768.7406-1.8513 3.7025-2.7769 8.3306-2.7769 4.8132 0 7.7752-.9256 8.3305-2.7768.7405-1.481 3.1471-2.7769 5.5537-2.7769 2.5918 0 4.9983-1.2958 5.5537-2.7768.7405-1.8512 3.7025-2.7769 8.3305-2.7769 4.8133 0 7.7752-.9256 8.3306-2.7768.7405-1.481 3.1471-2.7769 5.5537-2.7769 2.5917 0 4.9983-1.2958 5.5537-2.7768.7405-1.8512 3.7024-2.7769 8.3305-2.7769 4.8132 0 7.7752-.9256 8.3305-2.7768.9257-2.0363 3.8876-2.7768 11.1074-2.7768s10.3669-.7405 11.1074-2.7769c.9256-2.0363 3.8876-2.7768 11.1074-2.7768s10.3669-.7405 11.1074-2.7769c.7405-1.4809 2.2211-2.7768 3.5169-2.7768 1.2959 0 2.7769 1.2959 3.5174 2.7768.5553 1.6661 3.5173 2.7769 7.59 2.7769s7.035-1.1108 7.5904-2.7769c.7405-1.4809 2.9627-2.7768 5.3693-2.7768 2.5917 0 7.0343-3.1471 11.8475-8.3306l7.5904-8.3305h14.9961c11.4776 0 14.9931-.5554 15.7336-2.7768.7405-1.8513 3.7021-2.7769 9.0707-2.7769 5.3685 0 8.3305.9256 9.071 2.7769.7405 2.2214 4.443 2.7768 16.6611 2.7768 12.033 0 15.7354.5554 16.661 2.7768.5554 1.8513 3.5174 2.7769 8.3306 2.7769 4.6281 0 7.59.9256 8.3305 2.7768.5554 1.481 2.962 2.7769 5.5537 2.7769 2.4066 0 4.8132 1.2959 5.5537 2.7768.5554 1.481 2.962 2.7769 5.5537 2.7769 2.4066 0 4.8132 1.2959 5.5537 2.7768.5554 1.6661 3.3329 2.7769 7.4056 2.7769 4.8132 0 7.9614 1.6646 12.9597 6.663 3.7025 3.7024 6.6626 7.9606 6.6626 9.6267s4.2582 7.4063 9.6268 12.7749c7.7752 7.9603 10.9234 9.8112 15.7366 9.8112 3.8875 0 6.6633-1.1107 7.2187-2.7768.7405-1.481 2.9612-2.7769 4.9976-2.7769 2.4066 0 8.8866-4.9987 16.4766-12.4036l12.588-12.4036v-11.1074c0-10.3669-.5557-11.6624-6.8499-18.1417-5.5537-5.7388-8.1454-7.0343-13.8842-7.0343-4.9983 0-7.0343-.7405-7.0343-2.7768 0-2.2215 2.7775-2.7769 13.6998-2.7769 10.3669 0 13.8835.7405 14.8091 2.7769.5554 1.481 2.962 2.7768 5.5537 2.7768 2.4066 0 4.8132 1.2959 5.5537 2.7769.5554 1.481 3.1489 2.7768 5.7406 2.7768 3.7025 0 4.6263.9238 4.6263 4.6263 0 2.5917 1.2959 5.1852 2.7768 5.7406 2.0364.9256 2.7769 4.0727 2.7769 11.8479 0 7.7751-.7405 10.9222-2.7769 11.8478-1.4809.5554-2.7768 2.5896-2.7768 4.6259 0 4.9984-23.8812 27.9558-29.0647 27.9558-2.5917 0-4.2574 1.1107-4.2574 2.7768 0 2.2215 2.4076 2.7769 10.1828 2.7769 7.4049 0 10.5513-.7405 11.2918-2.7769.7405-1.8512 3.7025-2.7768 8.3305-2.7768 4.8132 0 7.7752-.9256 8.3306-2.7769.7405-1.6661 3.5166-2.7768 7.7744-2.7768 7.7752 0 15.1804-5.925 15.1804-12.2192 0-2.2215 1.2959-4.4419 2.7769-5.1824 2.0363-.7404 2.7768-4.0727 2.7768-13.1437s-.7405-12.4032-2.7768-13.1437c-1.481-.7405-2.7769-3.1478-2.7769-5.3693 0-2.5917-2.4066-6.2949-5.5536-8.8866-2.962-2.5918-5.5537-6.2928-5.5537-7.9589 0-4.8132-12.9569-17.4016-17.77-17.4016-2.2215 0-4.4444-1.2958-5.1849-2.7768-.5554-1.481-2.962-2.7769-5.5537-2.7769-2.4066 0-4.8132-1.2958-5.5537-2.7768-.5554-1.481-2.9619-2.7768-5.5537-2.7768-2.4066 0-4.8132-1.2959-5.5537-2.7769-.5554-1.481-2.9619-2.7768-5.5537-2.7768-2.4066 0-4.8132-1.2959-5.5537-2.7769-.5553-1.8512-3.5173-2.7768-8.3305-2.7768-4.6281 0-7.59-.9256-8.3305-2.7769-.7405-2.0363-3.8876-2.7768-11.1074-2.7768s-10.1818-.7405-11.1074-2.7769c-.5554-1.8512-3.5173-2.7768-8.3305-2.7768-4.6281 0-7.5901-.9256-8.3306-2.7768-.7404-2.2215-4.9987-2.7769-21.4746-2.7769zm180.4949 22.2148c6.1091 0 8.3306.7405 8.3306 2.7768 0 2.0364-2.2215 2.7769-8.3306 2.7769-6.109 0-8.3305-.7405-8.3305-2.7769 0-2.0363 2.2215-2.7768 8.3305-2.7768zm-172.1644 116.6275c-1.481 0-2.7768 1.2959-2.7768 2.7768 0 1.481 1.1114 2.7769 2.5924 2.7769s2.9613 1.2958 3.7018 2.7768c.5553 1.481 2.5931 2.7769 4.4444 2.7769 2.0363 0 4.6266 1.2958 5.9225 2.7768 1.2958 1.481 3.7024 2.7768 5.5536 2.7768 1.8513 0 4.2579 1.2959 5.5537 2.7769 1.481 1.6661 5.5537 2.7768 11.1074 2.7768s9.6264 1.1108 11.1074 2.7769 5.5537 2.7768 11.1074 2.7768 9.6264-1.1107 11.1074-2.7768c1.2958-1.481 5.1849-2.7769 8.7022-2.7769 3.8876 0 6.6633-1.1107 7.2187-2.7768.7405-1.6661 3.5192-2.7769 6.4811-2.7769 3.5174 0 5.3664-.9256 5.3664-2.7768 0-1.6661-1.6643-2.7768-4.6262-2.7768-2.5918 0-5.1853 1.2958-5.7407 2.7768-.9256 2.2215-5.5519 2.7768-24.8046 2.7768-18.6975 0-24.0679-.5553-25.9191-2.7768-1.2958-1.481-4.9983-2.7768-8.3305-2.7768s-7.0347-1.2959-8.3306-2.7769c-1.2958-1.6661-5.3667-2.7768-9.4394-2.7768-5.1835 0-7.2216-.7405-7.2216-2.7769 0-1.4809-1.2959-2.7768-2.7769-2.7768zm313.7835 38.8758c3.7025 0 5.5537.9256 5.5537 2.7769 0 2.2214 3.3333 2.7768 18.51335 2.7768 14.8099 0 18.8819-.5554 19.6223-2.7768.9257-2.0364 4.4448-2.7769 14.8117-2.7769 10.9223 0 13.6969.5554 13.6969 2.7769 0 2.2214-2.4048 2.7768-10.1799 2.7768-7.4049 0-10.5539.7405-11.2943 2.7768-.9257 2.2215-5.3679 2.7769-23.1397 2.7769-18.32715 0-22.03035-.5554-22.03035-2.7769 0-1.8512-1.8512-2.7768-5.5537-2.7768-3.7024 0-5.5536-.9256-5.5536-2.7768 0-1.8513 1.8512-2.7769 5.5536-2.7769zm83.30535 0c3.7025 0 5.5537.9256 5.5537 2.7769 0 1.8512-1.8512 2.7768-5.5537 2.7768s-5.5537-.9256-5.5537-2.7768c0-1.8513 1.8512-2.7769 5.5537-2.7769zm-333.26985 16.9011v.0004c-.6051 0-1.1736 0-1.7087.01-6.4215.087-8.054.956-10.8308 4.0105-4.0727 4.2578-4.0716 5.1823-3.7014 44.0582l.5557 39.6159 5.1824.5561c4.2578.5554 4.9976 0 4.9976-4.073 0-4.8132 5.7406-12.2167 9.2579-12.2167 1.1108 0 1.8495 2.0345 1.8495 4.6262 0 4.6281-5.7378 12.0349-9.2551 12.0349-.9256 0-1.8523 2.0345-1.8523 4.6262s-1.2959 5.1856-2.7769 5.741c-1.481.7405-2.7768 2.2211-2.7768 3.517 0 1.2958 1.2958 2.7768 2.7768 3.5173 1.6661.5554 2.7769 3.5174 2.7769 7.5901s1.1107 7.035 2.7768 7.5904c1.481.7405 2.7769 3.1471 2.7769 5.5537 0 2.5917 1.2958 4.9983 2.7768 5.5537 1.8512.7404 2.7769 3.7024 2.7769 8.3305 0 4.8132.9256 7.7752 2.7768 8.3305 1.8512.7405 2.7769 3.7025 2.7769 8.3306 0 4.8132.9256 7.7751 2.7768 8.3305 2.0363.9256 2.7768 3.8876 2.7768 11.1074s.7405 10.3669 2.7769 11.1074c2.2215.9256 2.7768 4.628 2.7768 16.661 0 12.2182.5554 15.9206 2.7769 16.6611 2.2215.9256 2.7768 5.5533 2.7768 25.7317s-.5553 24.8065-2.7768 25.7321c-2.2215.7405-2.7769 4.8132-2.7769 19.438 0 14.6247-.5553 18.5123-2.7768 19.4379-3.3322 1.1107-3.8872 15.9206-.7401 15.9206s8.8855-7.9614 9.0706-12.2192c0-2.2215 1.2959-4.4416 2.7769-5.182 1.481-.5554 2.7768-2.962 2.7768-5.5537 0-2.4066 1.2959-4.8132 2.7769-5.5537 1.4809-.5554 2.7768-2.962 2.7768-5.5537 0-2.4066 1.2959-4.8132 2.7768-5.5537 1.8513-.5554 2.7769-3.5173 2.7769-8.3305 0-4.6281.9256-7.5901 2.7768-8.3306 2.4066-.9256 2.7769-8.1458 2.7769-49.2431s-.3703-48.3171-2.7769-49.2427c-2.0363-.9256-2.7768-3.8876-2.7768-11.1074s-.7405-10.3669-2.7769-11.1074c-1.8512-.7404-2.7768-3.7024-2.7768-8.3305 0-4.8132-.9256-7.7752-2.7768-8.3305-1.481-.7405-2.7769-3.1471-2.7769-5.5537 0-2.5917-1.2958-4.9983-2.7768-5.5537-1.8513-.7405-2.7769-3.7025-2.7769-8.3305 0-4.8132-.9256-7.7752-2.7768-8.3306-1.481-.7405-2.7769-3.1471-2.7769-5.5537 0-2.5917-1.2958-4.9983-2.7768-5.5537-1.8512-.7405-2.7769-3.7031-2.7769-8.1461 0-5.5537-1.1107-8.1461-5.5536-11.6635-5.924-5.1834-7.5901-13.1419-2.7769-14.9931 2.2215-.7405 2.7769-4.443 2.7769-16.6611 0-12.033.5553-15.7354 2.7768-16.6611 1.8512-.5553 2.7768-3.5173 2.7768-8.3305s.9278-7.5901 2.9642-8.3305c1.6661-.5554 2.591-2.7783 2.2207-5.1849-.5553-3.8876-1.6657-4.2582-15.3648-4.8136-2.5686-.07-4.7142-.1198-6.5296-.1284zm386.02995 60.8506c20.9189 0 24.9916.3702 24.9916 2.7768s-4.0727 2.7769-24.9916 2.7769-24.9916.3702-24.9916 2.7768c0 1.8512-1.8513 2.7769-5.5537 2.7769-3.7025 0-5.5537-.9257-5.5537-2.7769s1.8512-2.7768 5.5537-2.7768c3.7024 0 5.5537-.9257 5.5537-2.7769 0-2.4066 4.0727-2.7768 24.9916-2.7768zm36.099 5.5537c3.7024 0 5.5536.9256 5.5536 2.7768s-1.8512 2.7769-5.5536 2.7769c-3.7025 0-5.5537-.9257-5.5537-2.7769s1.8512-2.7768 5.5537-2.7768zm-62.5713 105.5201c-22.3998 0-24.0659.1848-27.7684 4.2574-2.2215 2.4066-4.0731 4.8133-4.0731 5.5537 0 2.4066 8.8859 1.2963 11.1074-1.4806 1.8512-2.2215 6.8506-2.7768 23.3266-2.7768 17.5867 0 21.1029-.5554 21.1029-2.7769 0-2.4066-3.8872-2.7768-23.6954-2.7768zm32.026 5.5537c-1.481 0-2.7769 1.2958-2.7769 2.7768s1.1115 2.7769 2.5925 2.7769c1.4809 0 2.9612 1.2958 3.7017 2.7768.5554 1.481 3.1489 2.7769 5.7406 2.7769 2.962 0 4.6263 1.1107 4.6263 2.7768 0 1.481 1.2958 2.7768 2.7768 2.7768s2.7769-1.2958 2.7769-2.7768-1.2959-2.7768-2.7769-2.7768-2.7768-1.2959-2.7768-2.7769c0-1.8512-1.8512-2.7768-5.5537-2.7768s-5.5537-.9256-5.5537-2.7769c0-1.481-1.2959-2.7768-2.7768-2.7768zm26.4722 22.2147c-.7405 0-1.4806 6.1069-1.4806 13.697 0 10.3669-.7405 13.8864-2.7769 14.812-1.481.5554-2.7768 2.962-2.7768 5.5537 0 2.4066-1.2959 4.8132-2.7769 5.5537-1.481.5553-2.7768 2.5906-2.7768 4.4418 0 2.0364-1.2959 4.6292-2.7769 5.9251-2.9619 2.4066-4.073 22.2147-1.2962 22.2147.9256 0 3.888-2.5917 6.8499-5.5537 2.962-3.147 6.6666-5.5537 8.5179-5.5537 1.6661 0 5.3678-2.5917 7.7744-5.5537 2.5917-3.147 5.5522-5.5536 6.663-5.5536 1.1107 0 2.0363-1.2959 2.0363-2.7769 0-1.8512 1.8513-2.7768 5.5537-2.7768 3.7025 0 5.5537-.9256 5.5537-2.7769 0-1.4809 1.2959-2.7768 2.7769-2.7768 1.4809 0 2.7768-1.2959 2.7768-2.7769 0-1.4809 1.2959-2.7768 2.7769-2.7768 1.4809 0 2.7768-1.2959 2.7768-2.7769 0-1.4809-1.2959-2.7768-2.7768-2.7768-1.481 0-2.7769 1.2959-2.7769 2.7768 0 1.481-1.2959 2.7769-2.7768 2.7769-1.481 0-2.7769 1.2959-2.7769 2.7768 0 1.6661-1.6643 2.7769-4.6262 2.7769-2.5917 0-5.1853 1.2959-5.7407 2.7768-.7405 1.481-2.2207 2.7769-3.7017 2.7769s-2.5925 1.2958-2.5925 2.7768c0 1.6661-1.6642 2.7769-4.6262 2.7769-2.5917 0-5.1853 1.2958-5.7406 2.7768-.7405 1.481-2.2208 2.7768-3.7018 2.7768s-2.5924-1.2958-2.5924-2.7768 1.2958-2.7768 2.7768-2.7768c1.8512 0 2.7769-1.852 2.7769-5.3693 0-2.962 1.1107-5.7381 2.7768-6.4786 1.481-.5554 2.7769-2.5932 2.7769-4.4444 0-2.0364 1.2958-4.6266 2.7768-5.9225 1.481-1.2958 2.7768-3.7024 2.7768-5.5537 0-1.8512 1.2959-4.2578 2.7769-5.5537 2.5917-2.2215 2.036-3.3326-4.0731-9.6268-3.7024-3.8875-7.59-7.0343-8.3305-7.0343zm-209.74395 49.9833c-1.6661 0-2.7769 1.6657-2.7769 4.2574 0 2.4066-2.4066 6.6648-5.5537 9.6268-2.9619 2.9619-5.5537 7.2201-5.5537 9.6267 0 3.7025-.9252 4.2575-7.0343 4.2575-6.4793 0-8.7007 1.8509-33.3221 26.4722-17.4016 17.4016-26.2878 27.5841-26.2878 30.3609 0 2.0364-1.2959 4.2575-2.7769 4.998-1.8512.5554-2.7768 3.5173-2.7768 8.3305 0 4.6281-.9257 7.5901-2.7769 8.3306-1.6661.5553-2.7768 3.5173-2.7768 7.59s1.1107 7.035 2.7768 7.5904c2.0364.9256 2.7769 3.8876 2.7769 11.1074s.7405 10.3669 2.7768 11.1074c1.481.7404 2.7769 3.1471 2.7769 5.5537 0 2.5917 1.2958 4.9983 2.7768 5.5537 1.481.7404 2.7768 2.9605 2.7768 5.182 0 4.8132 45.5418 51.095 50.355 51.095 1.6661 0 3.8883-1.2959 4.6288-2.7768 1.1107-1.8513 5.9217-2.778 17.2142-3.1482 15.5504-.5554 15.7369-.555 16.2923-5.7385.5554-4.0727 1.4795-4.9976 5.9225-4.9976h5.5537l.3717 32.7661.5557 32.9508 11.8479.5561 11.8475.5557 9.99545-9.8112c8.3306-8.1454 9.8112-10.7378 9.8112-16.4766 0-4.443.9256-7.2184 2.7768-7.9589 2.0364-.7405 2.7769-4.0727 2.7769-13.8842 0-9.6264.7405-12.9586 2.7768-13.8842 2.0364-.7405 2.7769-3.7028 2.7769-10.3673 0-8.3305.7427-10.1828 5.741-14.2555 3.5173-3.1471 5.3678-6.1076 4.9976-8.6994-.5554-3.7024-1.8527-3.8893-19.0692-4.4447-13.8842-.3703-18.88025-1.1093-19.99105-3.1457-.7404-1.6661-4.0727-2.7768-7.59-2.7768-4.9983 0-7.9614-1.8523-15.7365-9.4424-5.1835-5.3685-9.4424-11.1063-9.4424-12.7724 0-1.8512-1.2959-4.2578-2.7769-5.5537-1.6661-1.4809-2.7768-5.5537-2.7768-11.1073 0-5.5537-1.1107-9.6264-2.7769-11.1074-2.2214-1.8513-2.7768-8.5168-2.7768-37.2108 0-29.8048.3702-34.9872 2.7768-34.9872 1.481 0 2.7769-1.2959 2.7769-2.7768 0-1.481-1.2959-2.7769-2.7769-2.7769-1.4809 0-2.7768 1.1086-2.7768 2.5895 0 1.481-1.2959 2.9642-2.7768 3.7047-2.4066.9256-2.7769 7.4038-2.7769 43.3177 0 35.5436.3703 42.9496 2.7769 44.8008 1.6661 1.2959 2.7768 5.3672 2.7768 9.4399 0 5.1834.7405 7.2212 2.7768 7.2212 2.0364 0 2.7769 2.2215 2.7769 8.3306 0 6.109-.7405 8.3305-2.7769 8.3305-2.0363 0-2.7768-2.2215-2.7768-8.3305 0-6.1091-.7405-8.3306-2.7768-8.3306-1.6661 0-2.7769-1.6668-2.7769-4.6288 0-2.5917-1.2958-5.1827-2.7768-5.7381-2.0364-.9256-2.7769-4.2578-2.7769-13.8842 0-9.8115-.7405-13.1437-2.7768-13.8842-2.2215-.9256-2.7769-4.9983-2.7769-20.1784s.5554-19.2528 2.7769-20.1784c2.2215-.7405 2.7768-4.9998 2.7768-21.1055 0-15.7355.5554-20.7323 2.7769-22.5836 1.6661-1.2958 2.7768-5.3696 2.7768-9.4423 0-5.1835-.7405-7.2188-2.7768-7.2187zm-22.2148 33.3221c1.481 0 2.7768 1.2959 2.7768 2.7768 0 1.481-1.2958 2.7769-2.7768 2.7769s-2.7768-1.2959-2.7768-2.7769c0-1.4809 1.2958-2.7768 2.7768-2.7768zm133.99795 44.6074c-.05 0-.1013 0-.1533.01-1.2959.1851-9.0718 7.5908-17.2172 16.4767-9.8115 10.7371-16.2894 16.2887-19.0662 16.4738-2.2215 0-4.6295 1.4831-5.1849 2.9641-.7405 1.481-3.1471 2.7769-5.5537 2.7769-2.2215 0-4.9976 1.1085-5.7381 2.5895-.9256 1.6661-5.18415 2.9627-11.66345 3.333-13.1437.7404-14.2534 4.628-4.4418 14.6247l7.0343 7.2212h16.84545 16.8483l9.6239-9.8112c7.9603-8.1454 9.6267-10.9229 9.6267-16.4766 0-4.2579.9257-7.0343 2.7769-7.7748 1.8512-.5554 2.7768-3.5173 2.7768-8.3306 0-4.628.9256-7.59 2.7769-8.3305 3.4624-1.2756 3.8758-15.6471.7094-15.7427zm-133.99795 22.0369c1.8512 0 2.7768 1.8512 2.7768 5.5537 0 3.7024-.9256 5.5537-2.7768 5.5537s-2.7768-1.8513-2.7768-5.5537c0-3.7025.9256-5.5537 2.7768-5.5537zm5.5537 22.2147c1.481 0 2.7768 1.2959 2.7768 2.7769s-1.2958 2.7768-2.7768 2.7768-2.7769-1.2958-2.7769-2.7768 1.2959-2.7769 2.7769-2.7769zm5.5537 11.1074c1.481 0 2.7768 1.2959 2.7768 2.7769s-1.2958 2.7768-2.7768 2.7768-2.7769-1.2958-2.7769-2.7768 1.2959-2.7769 2.7769-2.7769zm5.5537 16.6611c1.481 0 2.7768 1.2959 2.7768 2.7768 0 1.481-1.2958 2.7769-2.7768 2.7769s-2.7769-1.2959-2.7769-2.7769c0-1.4809 1.2959-2.7768 2.7769-2.7768zm22.2147 11.1074c1.8513 0 2.7769 1.8512 2.7769 5.5537 0 3.7024-.9256 5.5537-2.7769 5.5537-1.8512 0-2.7768-1.8513-2.7768-5.5537 0-3.7025.9256-5.5537 2.7768-5.5537zm-416.5268 5.5537c1.481 0 2.7769 1.2958 2.7769 2.7768s-1.2959 2.7769-2.7769 2.7769c-1.4809 0-2.7768-1.2959-2.7768-2.7769s1.2959-2.7768 2.7768-2.7768zm399.8658 0c1.8512 0 2.7768 1.8512 2.7768 5.5537 0 3.7024-.9256 5.5537-2.7768 5.5537-1.8513 0-2.7769-1.8513-2.7769-5.5537 0-3.7025.9256-5.5537 2.7769-5.5537zm-394.3121 11.1074c1.8513 0 2.7769 1.8512 2.7769 5.5536 0 3.7025.9256 5.5537 2.7768 5.5537 1.8513 0 2.7769 1.8513 2.7769 5.5537 0 3.7025-.9256 5.5537-2.7769 5.5537-1.8512 0-2.7768-1.8512-2.7768-5.5537 0-3.7024-.9256-5.5537-2.7769-5.5537-1.8512 0-2.7768-1.8512-2.7768-5.5537 0-3.7024.9256-5.5536 2.7768-5.5536zm394.3121 5.5536c1.8512 0 2.7768 1.8513 2.7768 5.5537 0 3.7025-.9256 5.5537-2.7768 5.5537-1.8513 0-2.7769-1.8512-2.7769-5.5537 0-3.7024.9256-5.5537 2.7769-5.5537zm-383.2047 22.2148c1.8512 0 2.7769 1.8512 2.7769 5.5537s.9256 5.5537 2.7768 5.5537 2.7769 1.8512 2.7769 5.5537c0 3.7024.9256 5.5537 2.7768 5.5537s2.7768 1.8512 2.7768 5.5537c0 3.7024.9257 5.5537 2.7769 5.5537s2.7768 1.8512 2.7768 5.5536c0 2.962.9267 5.5537 1.8524 5.5537 3.147 0 9.255 7.2198 9.255 11.1074 0 2.0364 1.2959 4.2582 2.7769 4.8136 1.4809.7404 2.7768 3.1471 2.7768 5.5537 0 2.5917 1.2959 4.9983 2.7768 5.5536 1.481.7405 2.7769 3.145 2.7769 5.3664 0 2.5918 2.4066 6.295 5.5537 8.8867s5.5537 6.4804 5.5537 8.7018c0 2.0364 1.2958 4.2582 2.7768 4.8136 1.481.7405 2.7769 3.1449 2.7769 5.3664 0 2.5917 2.4066 6.2949 5.5537 8.8866 3.147 2.5917 5.5536 6.4793 5.5536 8.3306 0 2.0363 2.5918 5.9239 5.5537 8.3305 3.1471 2.5917 5.5537 6.4804 5.5537 8.7019 0 2.0363 1.2959 4.2581 2.7769 4.8135 1.6661.7405 2.7768 3.5163 2.7768 6.4783 0 2.9619.9267 5.3692 1.8523 5.3692 3.5174 0 9.2551 7.4042 9.2551 12.0323 0 2.5917.9267 4.6288 1.8523 4.6288 3.5173 0 9.2551 7.4042 9.2551 12.0323 0 2.5917.9267 4.6288 1.8523 4.6288 3.1471 0 9.2551 7.2198 9.2551 11.1074 0 2.0363 1.2958 4.2581 2.7768 4.8135 2.962 1.2959 3.8894 6.2939.9274 6.2939-3.7024 0-14.8116-13.1456-14.8116-17.5886 0-2.5917-.7387-4.6262-1.8494-4.6262-3.5174 0-9.258-7.4067-9.258-12.0348 0-2.5917-.7387-4.6263-1.8494-4.6263-3.5174 0-9.258-7.4067-9.258-12.0348 0-2.5917-.7387-4.6263-1.8494-4.6263-3.1471 0-9.258-7.2205-9.258-10.9229 0-2.0364-2.4066-5.7396-5.5537-8.1462-2.9619-2.5917-5.5536-6.4793-5.5536-8.3305 0-2.0364-2.4066-5.924-5.5537-8.3305-2.962-2.5918-5.5537-6.4779-5.5537-8.6994 0-2.0363-1.2959-4.2578-2.7769-4.8132-1.481-.7405-2.7768-3.1478-2.7768-5.3693 0-2.5917-2.4066-6.2949-5.5537-8.8866-2.962-2.5917-5.5537-6.4779-5.5537-8.6993 0-2.0364-1.2959-4.2579-2.7768-4.8132-1.481-.7405-2.7769-3.1471-2.7769-5.5537 0-2.5917-1.2958-4.9983-2.7768-5.5537-1.481-.7405-2.7769-3.1471-2.7769-5.5537 0-2.5917-1.2958-4.9983-2.7768-5.5537-1.6661-.7405-2.7769-3.5192-2.7769-6.4811 0-3.5174-.9256-5.3668-2.7768-5.3668s-2.7769-1.8512-2.7769-5.5537c0-3.7024-.9256-5.5536-2.7768-5.5536s-2.7768-1.8513-2.7768-5.5537c0-3.7025-.9257-5.5537-2.7769-5.5537s-2.7768-1.8513-2.7768-5.5537c0-3.7025-.9257-5.5537-2.7769-5.5537s-2.7768-1.8512-2.7768-5.5537.9256-5.5537 2.7768-5.5537z" style="stroke-width:.185123"/></svg>