<svg height="960" style="" width="1267" xmlns="http://www.w3.org/2000/svg"><path d="m974.95446 791.4879c-9.14 4.0386-19.5553 16.5795-22.5311 27.2073-4.0386 15.7293 4.8888 34.6469 20.4055 43.5743 30.82094 17.4297 68.86864-16.3669 55.26504-48.8882-3.6135-8.7149-14.4539-20.193-21.6809-22.9562-7.43954-2.7633-24.01904-2.1256-31.45854 1.0628zm-715.2556-714.8306c-23.3813 14.0288-27.8451 42.299-9.7777 61.4291 24.8692 26.5697 67.1682 9.14 67.1682-27.6324 0-10.8405-2.7633-17.4297-11.4781-27.2074-9.9902-11.4781-32.5213-14.6664-45.9124-6.5893zm258.0446 164.5195c-1.913 13.3911.2126 24.4441 7.8647 41.2361 3.6134 7.6521 8.7148 18.7051 11.4781 24.6567 2.5507 5.739 7.8646 17.0046 11.4781 25.0817 3.6134 7.8647 6.5893 14.6665 6.5893 15.0916s3.6134 8.9274 8.2897 18.7051c4.4637 9.565 10.8404 23.8064 14.0288 31.4585 3.1883 7.652 6.5893 14.879 7.8646 16.3669 1.2753 1.7004 1.2753 4.0386-.2126 6.8018-6.3767 11.6907-18.705 6.5893-81.622-34.6468-32.0962-21.0432-37.1975-19.7679-15.0916 4.0386 42.299 45.6998 40.3859 52.2891-9.7776 34.0091-4.0386-1.4879-18.9176-6.3767-32.9464-10.6278-14.0288-4.2512-27.6325-8.5023-30.3957-9.7777-5.9516-2.3381-15.3041-2.5507-15.3041-.2125 0 .8502 8.9274 6.3767 19.7678 12.1157 10.6279 5.7391 21.4683 11.6907 23.8064 13.1786s5.7391 3.1884 7.4395 4.0386c3.8261 1.913 41.6613 22.5311 54.8398 29.9706 8.9274 5.1014 9.14 5.3139 5.5265 9.3525-1.913 2.3381-6.1641 5.3139-9.1399 6.8018-12.966 6.5893-65.8928 35.2846-79.9216 43.3618-4.6763 2.5506-10.4153 5.739-12.7535 6.8018-2.3381 1.2753-6.5892 4.0386-9.565 6.3767-8.0772 6.5893-.6377 5.5265 23.3813-2.9758 7.0144-2.5507 18.705-6.3767 66.3179-21.0432 20.8306-6.5893 28.0575-6.5893 28.9078-.2125.6377 4.0386-5.5265 11.4781-38.6855 47.1877-5.1013 5.7391-5.739 7.0144-2.9758 8.0772 2.1256.8502 14.0288-5.5265 31.8836-16.792 53.5645-34.4343 61.8542-38.6855 70.5691-36.5599 6.8018 1.7004 8.7148 8.2897 4.6763 15.5167-3.1884 6.1641-3.6135 7.2269-24.6567 54.8398-7.4395 16.3669-17.0046 37.6226-21.4683 47.4003-4.6763 9.7776-8.2897 18.0674-8.2897 18.4925 0 .6376-2.3382 5.9516-5.1014 12.1157-5.9516 13.1786-8.0772 25.0818-6.1642 36.3474 1.7005 11.0529 6.8019 10.4153 20.6181-2.7633 9.14-8.7148 12.7534-14.4539 20.4055-32.3087 5.1014-12.1158 12.7534-29.5455 17.0046-38.898 4.4637-9.3525 10.2027-22.3185 12.966-28.6953 18.9176-44.2119 26.3571-46.9751 32.5213-12.1157 8.9274 49.7384 10.4153 58.0281 12.1157 59.7286 2.3382 2.7632 5.1014-5.3139 8.0772-24.2315 9.3526-57.6031 9.7777-59.5161 17.4297-59.5161 3.6135 0 11.2656 13.8162 26.9948 48.8882 2.3382 5.3139 8.0772 17.8548 12.7535 27.845 4.6762 9.9902 9.1399 20.6181 9.9902 23.3813 2.1255 6.5893 12.966 27.4199 16.3669 31.6711 4.8888 5.9516 17.8548 14.879 21.4683 14.879 2.9758 0 3.6135-2.5507 3.6135-15.7293 0-15.9418-2.5507-23.8064-19.3428-60.3663-12.966-28.4827-20.1929-44.4245-36.1347-80.9843-11.6907-26.7823-12.3284-28.9078-8.9274-32.5213 1.913-2.1256 5.5265-3.826 7.8646-3.826 5.9516 0 23.5939 9.1399 46.9752 24.4441 10.6278 6.8018 25.7194 16.5794 33.584 21.6808 8.7149 5.7391 15.9418 8.9274 17.8549 8.2897 3.826-1.4879 3.6134-1.7004-14.4539-21.4682-19.9804-21.6809-27.6325-31.4585-26.9948-34.8595.8502-4.2511 10.6278-5.5265 18.4925-2.5506 2.9758 1.0627 15.5167 5.1013 27.845 8.7148 12.3283 3.826 25.7194 7.8646 29.758 9.3525 21.2558 7.8647 31.8836 11.053 42.5115 13.1786l5.3139 1.2753-5.3139-4.6762c-2.9758-2.3382-7.227-5.314-9.5651-6.5893-2.3381-1.0628-7.0144-3.6135-10.6279-5.7391-3.4009-2.1255-19.3427-10.8404-35.0719-19.5552-30.3957-16.5795-49.5259-27.2074-56.1152-31.0334-6.8018-4.0386-6.8018-4.0386 44.4245-31.6711 22.5311-12.1157 48.4631-26.5696 52.0766-28.6952 1.7004-1.2754 5.3139-2.9758 8.0772-4.2512 5.5265-2.3381 6.1641-6.3767.8502-6.3767-2.1256 0-12.3283 2.7633-22.7436 6.1642-10.6279 3.4009-29.1204 9.1399-41.4487 12.966-12.3284 3.6135-25.5069 8.0772-29.333 9.7776-8.0771 3.4009-18.705 3.826-20.618.8502-2.1256-3.4009 2.5507-9.7776 23.5938-33.1589 11.053-12.3283 19.9804-23.1688 19.9804-24.2316 0-4.6762-7.652-1.2753-30.3957 13.6037-31.4585 20.6181-49.5258 31.4585-60.3663 36.1348-8.5023 3.826-9.3525 3.826-14.4539.4251-2.9758-1.913-5.3139-4.2512-5.3139-5.3139 0-1.9131 12.5409-31.246 24.2315-56.1152 4.2512-9.14 7.6521-17.0046 7.6521-17.4297s3.826-9.14 8.7149-19.5553c28.4826-61.4291 27.4199-58.2407 27.4199-76.0955 0-19.7679-2.3382-21.0432-17.6423-8.5023-9.7776 7.8646-12.7535 12.1157-19.3427 27.4199-4.2512 9.9902-11.053 25.5069-15.3042 34.6468-10.6278 23.3813-14.2413 31.4585-21.8934 48.4631-16.792 37.4101-23.1687 38.2604-28.9078 4.2512-13.3911-79.4965-13.1785-79.4965-25.7194-3.1884-4.0386 23.8064-5.5265 27.6325-11.6907 27.6325-4.4637 0-8.5023-8.0772-42.0863-82.2597-5.9517-13.1786-10.8405-24.4441-10.8405-24.8693 0-.6376-2.3381-6.3767-5.3139-12.7534-4.8888-10.8404-14.2414-20.4055-25.932-26.5697-6.5893-3.4009-6.5893-3.4009-8.2898 7.227zm146.027 191.9393c15.0916 7.4395 35.9222 29.3329 35.9222 38.0478 0 6.1641-19.3427 25.7194-32.0962 32.5213-12.3283 6.5892-15.0916 7.2269-31.671 7.2269-15.0916 0-19.9804-.8502-29.7581-5.5265-12.966-6.1641-22.9562-14.879-31.2459-27.4199-4.8888-7.4395-5.1014-8.9274-2.7633-14.6664 3.6135-8.9275 21.4683-24.8693 34.6469-31.0334 14.6665-6.8019 41.8738-6.3767 56.9654.8502zm294.1794-429.5784996c-24.2315 7.4394996-66.5304 26.9947996-85.6606 39.7481996-11.2656 7.4395-22.7437 9.9902-27.2074 5.7391-6.8018-6.5893-65.2551-26.7822-94.3754-32.9464-41.2362-8.5022996-55.0524-9.7776996-102.0276-9.7776996s-60.7914 1.2754-102.0275 9.7776996c-28.0576 5.9516-59.091 15.5167-81.8346 25.5069-20.6181 8.9274-73.3323 36.1347-75.4579 38.898-1.7005 2.1256-10.4153 6.5893-12.7535 6.5893-1.0627 0-5.3139-7.227-9.3525-15.7293-16.5795-36.1347-50.3761-58.6658-87.9988-58.6658-47.4003 0-85.448 29.9706-97.3512 77.1583-8.2898 32.3087 3.6134 68.4435 30.8208 94.1629 5.9516 5.7391 10.8404 10.8405 10.8404 11.6907s-5.5265 10.8404-12.3283 22.5311c-15.3042 25.5069-26.9948 50.1635-37.4101 78.2211-4.4637 11.6907-9.3525 24.4441-11.053 28.2701-1.7005 3.8261-2.9758 8.2898-2.9758 9.9902 0 1.7005-1.2754 6.1642-2.9758 9.9902-1.4879 3.8261-4.0386 11.2656-5.3139 16.5795-1.2754 5.3139-4.2512 16.1544-6.3768 24.4441-14.6664 54.2021-23.3813 124.9838-25.0817 200.8667-1.0628 59.9412 1.7004 132.8484 5.3139 136.4619 4.2511 4.2511 4.6763 2.3381 12.1158-70.5691 3.4009-32.5212 6.8018-58.0281 12.7534-93.5252 1.7005-9.9902 3.6135-21.6809 4.2512-26.1446 1.2753-7.8646 4.0385-10.2027 5.9516-5.1014.6376 1.7005 2.1255 12.3284 3.6134 24.019 9.7777 82.2597 39.5357 157.0799 88.2114 221.91 8.5023 11.0529 16.792 21.4683 18.705 23.1687 5.5265 4.4637 4.4637 9.7777-5.3139 26.3571-5.1014 8.5023-10.8405 19.1302-13.1786 23.8065-2.1256 4.6762-4.8888 10.4153-5.9516 12.7534-1.2753 2.1256-3.6135 9.3525-5.1014 15.9418-9.7776 41.0236 4.8889 62.4919 42.7241 62.4919 25.0817-.2126 53.5644-9.5651 90.9745-29.9706 8.9274-5.1014 17.2172-9.14 18.28-9.14.8502 0 13.1785 5.5265 26.9948 12.5409 56.3277 27.845 111.1675 42.5115 177.0603 47.1877 67.8058 4.6763 127.5344-3.826 195.7653-28.2701 30.6083-11.053 58.2408-24.4441 90.1244-43.5743l18.705-11.4781 17.4297 17.6423c26.7823 27.4199 52.9268 37.1976 85.87324 32.0962 26.7823-4.0386 48.6757-17.2172 65.0426-38.898 17.0046-22.7437 23.1687-50.8012 17.2171-78.0086-4.8888-22.5311-12.1157-34.8594-30.6082-53.1393l-15.9418-15.7293 4.6762-8.9274c2.5507-4.8888 7.6521-14.6665 11.4781-21.6809 13.8163-25.0817 30.8208-66.3179 42.2989-102.0275 2.1256-7.0144 5.1014-16.1544 6.5893-20.193 1.2754-4.0385 2.9758-10.4153 3.8261-13.8162.8502-3.6135 3.826-14.0288 6.3767-23.3813 11.2655-41.4487 22.7436-112.6554 28.0576-175.3599 3.6134-42.0863 3.826-147.5148.2125-151.1283-3.6135-3.6134-6.3767 3.1884-7.8646 21.4683-1.7005 18.7051-8.9274 74.6077-11.9032 91.3997-1.0628 6.3767-3.4009 21.2558-5.314 32.9464-4.8888 29.5455-6.1641 34.0092-9.565 34.0092-2.3382 0-4.0386-4.2512-5.7391-13.8162-13.8162-78.6463-48.8882-154.3167-99.6894-215.1081-10.84044-13.1786-19.98044-25.0818-19.98044-26.1446 0-1.2753 5.3139-10.2027 11.9032-19.9804 41.02364-62.4919 45.91244-107.1289 13.17864-123.7083996-9.77774-5.1014-36.13484-5.3139-51.65154-.4251zm-288.0153 18.7050996c44.6371 5.5264 82.8974 14.6664 111.5927 26.7822 32.9464 13.6037 44.4245 19.7678 45.0621 23.5939.4252 1.4879-4.2511 6.5892-9.9901 11.0529-17.4298 13.8163-25.5069 21.4683-25.5069 24.2316 0 3.1883 7.4395 1.7004 12.5408-2.3381 2.9759-2.5507 9.7777-6.5893 15.0916-9.3526 1.7005-.8502 10.4153-5.739 19.1302-10.8404 19.7678-11.6907 57.8156-31.0334 70.3565-35.4971 11.9032-4.4637 35.2845-9.5651 42.9366-9.5651 20.6181 0 26.5697 17.6423 12.1158 35.9222-6.1642 7.8647-9.14 16.5795-11.6907 35.2846-2.5507 18.2799-19.9804 49.1007-40.811 71.4192-7.0144 7.4396-16.3669 20.8307-20.8306 29.5455-14.6665 28.4827-54.6273 63.5547-88.2114 77.5835-17.2171 7.2269-19.1301 8.7148-29.9706 27.4199-5.1013 8.2897-17.0046 23.1687-26.7822 33.1589-15.7292 16.1544-21.4683 25.5069-15.5167 25.5069 5.1014 0 85.2355-60.1537 120.5201-90.5494 29.3329-25.2944 85.2355-79.9216 99.2643-97.1388 4.4637-5.5265 9.3525-9.9902 10.8404-9.9902 5.739 0 39.1106 47.4003 56.32774 79.7091 19.9804 37.8352 35.072 82.2597 45.9124 134.9739 5.5265 26.1446 5.5265 116.2689 0 142.4135-13.3911 64.4049-29.3329 106.0661-58.8784 154.1041-18.70504 30.3957-21.68094 33.1589-32.73384 30.8208-11.053-2.3381-24.019-7.2269-37.8353-14.0288-10.4153-5.3139-88.4238-52.0765-127.5344-76.7332-9.5651-5.9516-18.0674-11.053-18.9176-11.053-4.2511-.4251-.6377 7.8646 12.966 29.9706 46.3375 75.6704 68.2309 112.4429 72.9072 122.8582 6.3767 13.6037 14.4539 36.985 14.4539 41.2361 0 1.7005-5.9516 7.0144-12.966 11.9032-13.6037 9.14-58.4533 33.159-67.8058 36.1348-2.9758 1.0628-10.6279 3.826-17.0046 6.3767-21.2558 8.5023-55.9026 17.0046-87.1485 21.4683-52.0766 7.6521-120.9452 3.1884-172.1715-10.8404-33.7967-9.3525-68.0184-22.9562-68.0184-26.9948 0-.8502 4.0386-5.5265 8.9274-10.6279 4.8888-4.8888 8.0772-9.7776 7.227-10.6278-1.4879-1.7005-8.5023 1.7004-32.0962 15.5166-56.5403 32.9464-79.709 43.5743-110.1047 50.5887-15.5167 3.6135-17.0046 3.6135-25.7195.4251-14.4539-5.5265-15.9418-16.5795-4.2511-31.8836 6.1641-8.0772 8.0771-13.1786 10.4153-27.4199 4.4637-27.6325 21.4683-59.9412 42.2989-80.5593 6.1642-6.1641 14.879-18.0673 19.3427-26.1445 4.2512-8.2897 11.2656-19.5553 15.7293-25.0818 14.6664-19.3427 51.6514-47.4003 75.0327-56.5403 6.8019-2.7632 13.8163-6.3767 15.9418-8.5022 4.2512-3.8261 13.3912-16.367 13.3912-18.28 0-3.6135 14.0287-20.8306 28.4826-35.072 14.6665-14.4539 18.4925-20.4055 14.8791-23.8064-1.4879-1.7004-22.106 12.5409-61.8542 42.2989-46.125 34.6469-74.8202 59.7287-119.4573 104.1532-21.4683 21.4683-39.9608 38.898-41.0236 38.898-2.7632 0-12.966-11.2656-29.3329-33.159-39.3231-52.2891-68.8686-115.8438-81.622-175.1473-9.3526-44.637-10.2028-53.1393-9.14-103.3029.4251-26.7822 2.1256-54.4147 3.4009-61.4291 5.1014-25.2943 9.14-42.724 12.3283-53.1393 14.0288-47.1878 43.1492-107.1289 53.5645-110.5299 4.8888-1.4879 40.3859 8.2898 59.9412 16.7921 13.3911 5.9516 51.4389 28.0575 100.7522 58.6658 25.5069 15.9418 52.7142 31.8836 54.4147 31.8836 3.826 0 1.7005-4.2511-15.5167-32.7338-9.7776-15.9418-18.9176-31.0334-20.4055-33.7966-1.4879-2.5507-4.4637-7.227-6.3767-10.4154-13.6037-21.2557-35.4971-58.8784-40.1734-68.2309-2.9758-5.9516-6.1641-12.7534-7.2269-14.6664-2.9758-5.9516-9.7777-27.4199-13.6037-43.7869-3.6135-14.6664-3.6135-15.5167 0-19.5552 7.6521-8.2898 33.7966-23.8065 59.5161-35.072 3.6134-1.4879 12.7534-5.7391 20.8306-9.3525 7.8646-3.6135 15.0916-6.5893 16.3669-6.5893 1.0628 0 5.1014-1.2754 8.9274-2.9758 18.7051-7.8646 57.8156-16.1544 100.5397-21.2558 17.2171-1.913 60.3663-.8502 83.9601 1.9131zm-371.5503 19.3427c19.7679 7.2269 31.6711 16.3669 40.5985 30.6082 26.1445 41.8738 6.5893 93.5253-40.811 108.4043-16.1544 5.1014-23.8065 5.314-37.6227.8502-14.879-4.6762-21.8934-8.7148-32.3087-18.705-39.1106-37.4101-24.4441-101.6024 27.845-120.5201 13.6037-4.8888 30.3957-5.1013 42.2989-.6376zm723.12034 720.1444c25.7194 12.3284 41.6612 37.1976 41.6612 65.2552 0 29.9706-16.3669 54.6272-44.2119 66.9555-10.6279 4.6763-14.4539 5.314-30.18324 4.6763-29.5454-1.2753-49.1007-13.8162-61.6416-39.3231-15.3041-30.6083-9.14-62.2793 16.1544-85.8732 21.2557-19.5553 52.0765-24.2315 78.22114-11.6907z" style="stroke-width:.212557"/></svg>