<svg height="960" style="" width="1440" xmlns="http://www.w3.org/2000/svg"><path d="m1144.934 56.29095c-5.3901 42.51791-39.4647 68.67697-60.0829 102.48775-27.1768 41.57558-53.0343 76.89408-80.588 110.81794l1.9223-2.45005c-12.81566 16.13268-21.14585 31.88842-10.25252 56.23822 29.85302 30.75763 58.80132 7.95326 91.59442-6.29476l43.3095-96.87147 41.2363-22.05051 59.4421 17.79118-58.2736 24.83981c-17.4143 47.41801-23.8221 87.63663-45.3449 116.69807-19.2235 25.63136-54.9567 40.10554-89.6721 63.28685 96.6076 24.72672 192.1598 35.09235 284.9228 58.16057-93.7807 30.3807-192.1599 37.65548-288.3905 60.19601l-6.6717 38.44704 43.1586 38.44704c59.8191 18.95967 100.6785-43.30946 164.38-13.8334l42.4048 60.98756-67.7723-32.67998c-40.7463 19.71353-73.6525 44.70411-109.5364 50.09423-32.793 5.12627-68.79-10.89333-108.51865-18.69582 2.33698 9.72484 5.65398 18.2435 10.02635 26.15907l-.2638-.5277c44.0633 62.53298 89.6721 124.53825 133.0946 187.0335 4.2593 8.2925 7.6517 17.8666 9.7248 27.9684l.1131.7161 1.2816-1.3946c-10.7426-2.4124-20.1659-5.8424-29.0238-10.3279l.7162.3392c-67.8854-47.26723-135.28081-95.17526-208.55635-146.928l-47.64417 21.63589 21.25895 76.2156c20.76894 8.21711 42.5179 15.37881 63.02299 25.63131 20.50509 10.2526 38.44704 22.5406 62.26918 36.2609-5.7671 30.4938-10.62952 56.5021-15.64272 82.5104l-9.61176-.7539c-.71617-12.5518-2.07312-24.1236-4.10855-35.4693l.26385 1.7716c-3.50547-12.1372-7.23709-22.239-11.64719-32.0015l.60309 1.5454c-78.40181-12.8157-162.72145-17.942-176.55485-128.11911-26.38522 49.83039-26.76215 98.15301-38.44704 143.12101-11.68488 44.968-15.75574 94.7983-28.19449 142.7064-20.61817-43.0456-22.6913-89.6721-32.15228-135.1678-9.9887-47.418-17.30117-95.4391-26.38523-146.43797l-35.73313-15.4919-43.79947 47.15417c-14.85111 56.2382 39.84169 89.0313 33.05691 138.6355-14.58726 27.6668-42.06558 46.8149-74.21786 49.5665l-.33924.038 38.44704-51.2627c-12.81568-19.4874-26.76216-38.447-38.44704-57.6328-23.55824-39.8417-38.44704-80.58807-8.8579-125.02832 4.9755-11.27026 8.97098-24.46287 11.38334-38.1455l.15077-1.05541c-15.22804 6.52092-27.85525 12.96646-39.99246 20.20355l1.54542-.86695c-60.72371 42.78176-120.91971 86.46813-181.79419 129.02373-8.33019 4.1086-18.01734 7.0863-28.23219 8.4056l-.49001.038 1.54542 1.5454c45.23181-68.79003 89.67207-137.84393 136.18545-205.99319 11.00641-16.28346 23.82209-30.49378 13.94647-56.76593l-32.67998-17.79118-46.36261 14.85111c-43.15869 31.77535-29.21221 93.4037-76.85639 121.18357-7.35017 2.37467-15.83113 3.76932-24.65134 3.76932-22.20128 0-42.40482-8.74482-57.25593-22.99284l.0377.0377 57.63287-6.29476c6.33245-14.32341 12.09951-31.43611 16.35884-49.11421l.45231-2.14851c9.34791-61.8922 37.01471-107.35017 100.82925-124.65134 7.99096-3.95778 14.88881-8.48096 21.18357-13.72031l-.18847.15077c-49.83038-20.76954-97.51225-21.52341-143.34715-29.8536s-94.94911-18.2058-149.00113-28.45835c50.09423-27.93064 101.0931-26.76215 149.64191-35.46928 48.54882-8.70712 95.0622-17.79118 145.79722-27.40294l5.23935-41.76404-64.04071-44.85488-110.44101 42.29175c-31.77535-12.81568-59.96985-25.63136-56.99209-65.96306l-1.39464 1.28156 45.60874 21.14588 130.79533-64.04071 96.45684 40.36939c-3.8824-15.00188-8.89559-28.04372-15.11497-40.3317l.52771 1.1308c-39.46476-58.0475-80.21108-115.30343-119.67584-173.08708-4.33472-8.21711-7.80249-17.79118-9.98869-27.81756l-.15077-.75386c56.61515 20.35431 100.03769 62.00527 149.75499 93.51677 23.33208 14.73803 44.70411 32.41613 64.04071 46.77723 27.93064 6.52092 45.23181 0 53.93894-29.96607l-15.4919-51.26272c-33.81078-43.15869-93.78063-33.05692-120.69356-76.85639-2.94006-8.14173-4.63626-17.56502-4.63626-27.36525 0-21.40973 8.06634-40.93479 21.33434-55.71052l-.0754.0754 8.70712 51.26272c10.44101 7.99095 22.23897 15.26574 34.75311 21.37203l1.24387.52771c31.5115 11.91104 69.05391 14.3611 94.30833 33.58462 25.25443 19.22352 37.65549 54.05201 58.16058 85.97814 31.13456-43.30946 22.05051-96.23069 34.86619-142.48021 12.81568-46.24953 15.37881-93.13985 22.42744-139.91708h12.81568l51.26272 284.80965 38.44704 12.1749 41.65096-48.81267c8.70713-49.45345-29.853-79.04259-34.82849-118.13042 10.62947-34.07463 38.44704-44.70411 73.91632-57.14285l-26.27215 53.93893c19.97739 38.44704 45.23182 68.41312 51.26272 102.48775 4.74934 30.22993-12.81568 64.04071-21.25895 102.48775 10.93102-2.71391 20.4674-6.33245 29.43837-10.96871l-.75386.33924c62.64606-43.95025 124.65136-88.76744 187.29736-132.71768 8.1795-4.4101 17.6404-8.06634 27.6291-10.47871l.8293-.15077z" style="stroke-width:37.6932"/></svg>