<svg height="960" style="" width="1430" xmlns="http://www.w3.org/2000/svg"><path d="m716.7583 646.49547c-1.6907.7245-4.6709 2.738-4.6709 2.738s-.1103 4.2844 2.2367 5.2406c4.3274 1.6227 2.1637 5.9501-5.0035 9.6014-6.4911 3.3807-13.1174 7.7081-18.6618 12.4412-10.548 9.1957-16.3629 13.2526-22.1779 16.0924-3.7864 1.758-7.8433 3.7865-8.9252 4.4626-1.0818.8114-4.3274 2.4342-7.1672 3.6513-6.8968 2.975-24.0711 19.338-27.4518 25.829-2.9751 5.8149-12.5765 16.6334-14.8754 16.6334-.8114 0-2.2989.8114-3.1103 1.8932-1.8933 2.299-18.3914 10.2776-21.3665 10.2776-5.8149 0-22.854 14.064-30.1564 24.8824-1.8932 2.7046-5.9502 8.3843-9.0605 12.5765-3.2455 4.1921-5.8149 8.249-5.8149 9.0604s-1.4875 3.7865-3.3807 6.4911c-1.8933 2.7046-3.3808 5.8149-3.3808 6.8968 0 .9466-1.4876 3.7864-3.3808 6.3558-4.4626 6.0854-4.3274 10.4128.8114 18.1209 4.0569 5.9502 18.2561 17.0391 22.0426 17.0391 3.6512 0 25.5586 17.4447 44.8966 35.8361 3.6512 3.516 8.9252 7.9786 11.9003 10.0071 10.1423 6.7615 11.0889 7.5729 16.9038 12.9821 3.1103 2.9751 8.2491 7.032 11.3594 9.0605 8.6548 5.5444 20.1494 14.7401 29.3451 23.2596 11.765 10.8185 14.8753 12.306 25.2881 12.306 8.1138 0 10.1423.4057 12.8469 2.9751 1.8932 1.758 3.9217 3.1103 4.7331 3.1103s6.7615 5.5445 13.2526 12.306c10.9537 11.4946 11.9003 12.306 15.0106 10.8185.8044-.3713 2.7311-1.5069 2.7311-1.5069s.5144-1.4842.5144-2.1444c0-1.217 3.3808-5.274 7.4377-9.0604 5.274-4.8683 7.4377-7.7082 7.4377-10.2775 0-5.815 1.8932-7.3025 7.032-6.3559 3.516.6762 6.2206 0 11.0889-2.5694 3.516-1.8932 7.4377-3.3807 8.79-3.3807 3.3808 0 15.822-10.2776 17.8505-14.7402 2.7046-5.8149 31.9144-31.644 41.2453-36.377 5.5445-2.8399 10.9537-8.3843 19.4732-19.8789 7.032-9.7367 22.0426-24.4768 30.0212-29.6156 4.057-2.4341 9.1957-6.3558 11.6299-8.6547 2.4341-2.2989 5.6797-4.5979 7.032-5.0036s4.3274-4.3273 6.3558-8.5195c3.516-7.3025 3.7865-8.9252 4.1922-29.0746l.5409-21.2312-4.1922-6.2206c-4.4626-6.8968-19.4732-17.0391-28.6689-19.4732-2.8398-.8114-5.274-1.8933-5.274-2.4342s-3.516-2.7046-7.7081-4.7331c-7.5729-3.516-10.8185-6.3558-37.9998-34.0781-5.274-5.4092-9.0605-7.9786-13.9288-9.3309-3.6512-1.0819-7.9786-2.9751-9.6014-4.0569-1.6227-1.2171-4.0569-2.1637-5.274-2.1637-1.217 0-3.2455-1.2171-4.5978-2.7046-1.3523-1.4876-5.274-4.3274-8.6548-6.3559-3.3807-1.8932-7.7081-5.0035-9.6014-6.8967-6.6263-6.4911-20.555-16.4982-22.8539-16.4982-1.3523 0-4.1922-1.6228-6.2206-3.516-2.5694-2.2989-4.8684-3.2455-6.8968-2.8398-2.1637.4057-4.1922-.5409-6.0854-2.5694-1.758-1.758-3.7865-3.2455-4.7331-3.2455-.8113 0-2.5693-1.4876-3.7864-3.3808-1.6228-2.5694-3.3808-3.3808-6.8968-3.3808-2.4341 0-5.0035-.6761-5.4092-1.3523-1.0819-1.758-1.758-1.6228-7.032.6762zm9.0604-247.7426c-10.4127 5.5444-15.9572 10.548-25.1529 23.2596-2.7046 3.6513-7.7081 8.9253-11.0889 11.4947-9.4661 7.4376-11.4946 9.4661-20.8255 21.0959-10.4128 12.9822-18.5266 20.6903-21.5017 20.8256-1.2171 0-2.9751.9466-4.0569 2.1637-.9466 1.0818-3.9217 3.2455-6.4911 4.5978-2.7046 1.3523-12.1707 9.7366-21.096 18.5266-14.6049 14.3345-19.7436 18.5266-36.9179 29.3451-2.4342 1.6227-5.815 5.274-7.3025 8.249-1.4875 2.9751-8.6548 11.2242-15.9572 18.2562-7.1672 7.032-15.6868 16.3629-18.7971 20.555-6.3558 8.3843-19.4732 20.0142-22.854 20.0142-2.7046 0-4.0569 1.217-17.1743 14.7401-25.5586 26.37-31.6439 32.9963-32.3201 34.8895-.5409 1.0819-2.0284 3.6513-3.516 5.6797-1.6228 1.8932-5.274 6.7616-8.2491 10.6832-4.8683 6.4911-11.4946 11.7651-20.1493 16.0925-7.032 3.6512-12.7117 8.79-17.3096 15.4163-6.3558 9.4661-8.249 11.7651-15.0106 17.9857-11.765 10.9537-19.0675 19.0675-19.0675 21.3664 0 2.8399 5.4092 7.8434 15.9572 14.8754 8.5196 5.6797 10.6833 6.0854 14.605 3.1103 4.4626-3.3808 9.8718-2.4342 14.8753 2.5694 5.274 5.274 5.6797 7.5729 1.8933 10.9537-1.4876 1.3523-2.7047 3.7864-2.7047 5.4092 0 3.2455 2.299 4.7331 7.4377 4.7331 6.6263 0 8.5196 12.1707 2.7046 17.58-2.1636 2.0284-3.3807 4.5978-3.3807 7.1672 0 2.4341-1.4876 5.6797-4.0569 8.6547-2.1637 2.4342-4.057 5.9502-4.057 7.7082 0 2.1637-.9466 3.516-2.8398 3.9217-2.2989.6761-2.7046 1.6227-2.2989 5.9501.2704 4.057.9466 5.1388 3.1103 5.1388s2.8398-1.0818 3.1103-5.8149c.4057-5.0036.8114-5.6797 3.7864-5.6797 1.758 0 4.1922-1.0819 5.274-2.4342 6.7616-7.7081 9.8719-12.0355 10.2776-14.4696.4057-1.4876 1.758-2.8399 3.2455-3.1104 3.7865-.6761 8.79-5.6796 8.79-8.5195 0-1.3523 1.6228-3.3808 3.7865-4.4626 2.0284-1.2171 5.1387-4.1921 7.032-6.7615 2.0284-2.9751 4.5978-4.8683 6.3558-4.8683 1.4875 0 5.4092-2.1637 8.5195-4.7331 9.8719-8.2491 25.8291-25.1529 26.37-27.8575.2705-1.3523 4.5979-7.1673 9.6014-12.5765 5.0035-5.5444 10.8184-12.7117 12.9821-15.9572 4.7331-7.032 27.9928-27.9928 30.9679-28.128 3.3807 0 14.1992-9.3309 19.4732-16.6334 2.4341-3.6512 7.8434-9.0604 11.765-11.9003 7.4377-5.5444 17.1743-15.8219 17.3096-18.1209 0-1.758 15.4163-18.2561 17.039-18.2561.6762 0 6.6263-5.5445 12.9822-12.1708 6.4911-6.7615 12.4412-12.1707 13.3878-12.1707s4.5979-3.1103 7.9786-6.7616c5.274-5.6797 7.032-6.7615 11.0889-6.7615 3.6513 0 5.4093-.8114 7.032-3.3808 1.2171-1.8932 3.1103-3.3807 4.1922-3.3807 1.0818 0 2.5694-1.2171 3.3808-2.7046.8113-1.4876 2.2989-2.7047 3.516-2.7047 1.0818 0 9.3309-7.5729 18.3913-16.9038 9.005-9.3628 14.1178-14.5967 18.2493-16.3627 1.0987-.4696 3.2282-1.3694 3.2282-1.3694s1.9908.9485 3.0656 1.4384c2.8525 1.3 6.0178 4.2468 10.6169 8.5856 5.4092 5.0035 13.9288 12.7116 19.0675 17.039 5.0036 4.3274 11.9003 11.4946 15.2811 15.9572 3.9217 5.0036 8.3843 9.0605 11.9003 10.6833 10.4128 5.0035 13.6583 7.032 21.096 13.2526 14.3344 11.9003 23.8006 20.8255 29.7507 28.2632 4.7331 5.8149 32.3202 34.619 55.8503 58.4196 15.0106 15.1459 20.9608 20.2846 23.3949 20.2846 4.0569 0 12.4412 8.2491 22.9892 22.5836 10.1423 13.7935 29.6155 27.7223 34.4838 24.6119 1.0819-.6761 3.516-1.217 5.6797-1.217 3.9217 0 4.8683 2.7046 2.299 6.7615-.8114 1.2171-.6762 2.2989.4056 2.9751 2.5694 1.6227 7.4377 1.2171 8.6548-.6762.5409-1.0818 3.2455-3.7864 5.9502-6.2206 5.274-4.4626 8.6547-4.4626 10.007 0 1.2171 3.7865 4.1922 3.1103 6.0854-1.3523 1.8932-4.7331 20.4198-23.3949 27.1814-27.4518 2.5694-1.4876 7.1672-4.8683 10.4127-7.4377 8.9253-7.3025 8.2491-9.4662-7.7081-24.7472-7.3025-7.032-15.822-16.7686-18.9323-21.5017-3.7865-5.9501-7.5729-9.8718-12.5765-12.9821-3.9217-2.5694-8.79-5.815-10.8184-7.3025-1.8932-1.6228-4.0569-2.8398-4.7331-2.8398-3.7864-.1353-15.2811-14.064-15.2811-18.6619 0-3.7864-1.6227-5.8149-17.8504-20.6903-5.0035-4.5978-11.9003-12.1707-15.4163-16.7686-4.7331-6.491-7.5729-9.0604-12.1708-10.8184-6.2206-2.299-20.555-16.4982-24.6119-24.3416-2.4342-5.0035-3.7865-5.9501-15.822-12.3059-15.0106-7.8434-24.3416-15.9573-29.0746-25.0177-1.3523-2.7046-4.8683-6.8968-7.7082-9.3309-2.8398-2.4342-11.6298-10.6833-19.4732-18.3914-7.8434-7.7082-14.8754-14.064-15.6868-14.064-.8113 0-3.6512-1.8932-6.491-4.0569-2.8399-2.2989-5.8149-4.0569-6.6263-4.0569-2.299 0-12.8469-10.548-21.7722-21.6369-8.1138-10.2776-10.007-12.0356-20.8255-20.9608-3.2455-2.7046-8.1138-7.7081-10.6832-11.2241-7.5729-10.2776-14.064-16.363-21.3665-20.6903-4.4488-2.5313-8.8786-4.4216-8.8786-4.4216s-3.1369 1.2044-5.1854 2.2579zm5.1366-221.1526s-4.923 1.7494-8.1119 4.1064c-2.7046 2.0285-8.9248 8.6566-13.7931 14.742s-12.4406 13.7918-16.9032 17.1726c-4.4626 3.516-9.4664 8.2489-11.0892 10.6831-8.3843 11.9003-23.3963 27.8591-26.5066 27.9943-.8114 0-3.379 1.4862-5.5426 3.3795-2.1638 1.8932-5.2748 3.7868-6.8976 4.463-1.6228.5409-9.8718 7.7077-18.2562 15.8216-8.3843 8.249-16.9031 16.3629-18.9316 18.2561-3.6512 3.1103-6.7618 7.167-13.1176 17.3093-1.6228 2.4341-4.3278 4.7348-6.4915 5.1404-1.8932.4057-4.4627 1.3523-5.5446 2.0285-1.0818.6762-3.7855 2.2985-5.814 3.6508-2.0284 1.2171-6.2223 4.5971-9.1974 7.3017-2.9751 2.8398-5.95 5.1385-6.6261 5.1385-.6762 0-4.0571 3.7874-7.5731 8.3852-3.516 4.7331-7.9777 9.7364-9.8709 11.2239-4.5979 3.6512-19.0683 18.5273-19.0683 19.6091 0 2.8399-14.875 17.5801-19.8785 19.7438-2.4342 1.0819-4.463 2.5686-4.463 3.2448 0 .8114-.9467 1.3529-2.0285 1.3529-2.9751 0-15.9559 12.17-33.8064 31.6432-4.4626 5.0036-10.8184 10.2786-14.1992 11.9014s-7.5736 4.3274-9.4668 6.0854-3.7874 3.11-4.3283 3.11c-.6762 0-1.0816.6763-1.0816 1.4877 0 1.758-11.2235 15.0104-20.9601 24.8823-3.7864 3.6512-9.06 9.4655-11.7647 12.8462-8.9252 11.2242-20.0147 21.5008-25.6944 24.0702-7.4377 3.2455-19.3383 14.201-27.3169 24.8843-3.3808 4.733-9.1945 11.0883-12.981 14.3339-3.6512 3.2455-9.6021 10.2762-12.9829 15.5502-3.516 5.4092-7.5726 11.2249-9.1954 12.9829-3.3808 3.7865-15.9564 13.3877-19.4724 14.7401-5.815 2.2989-13.5234 9.331-17.1746 15.6868-2.2989 3.7865-10.5489 13.2534-18.5275 21.0968-17.58 17.1743-18.1205 18.7964-7.7078 27.0455 3.7865 2.9751 7.4377 5.4099 8.1139 5.4099 1.8932 0 20.2847 17.1743 23.8007 22.313 2.9751 4.3274 3.7863 4.7315 8.6546 4.4611 6.6263-.2705 9.3317 1.8948 6.8976 5.6812-4.3274 6.8968.4053 7.3018 7.7077.6755 6.3559-5.8149 11.4941-7.4383 22.4478-7.4383 6.4911 0 8.5191-.5408 9.7362-2.5693.8114-1.3523 3.2453-2.8385 5.1385-3.3794 4.3274-1.0819 11.6309-8.1156 20.0152-19.3397 3.516-4.7331 10.8174-12.8455 16.4971-18.1195 5.5444-5.274 10.1423-10.1436 10.1423-10.8197 0-.6762 2.0283-3.9215 4.5977-7.167 4.0569-5.4092 7.8433-8.9243 22.8539-22.0417 2.1637-1.8932 6.0867-4.328 8.7913-5.4099 5.274-2.1637 19.8791-16.498 21.2315-20.8254.5409-1.3523 2.5687-3.5158 4.7324-4.5977 3.6512-1.8932 12.1703-10.0064 25.9639-25.017 4.1921-4.4626 7.4378-6.7628 9.6015-6.7628 3.2455 0 15.8216-8.5194 15.8216-10.6831 0-1.758 12.0368-16.3627 20.962-25.4231 12.7117-12.847 26.37-28.6679 26.37-30.6964 0-.3829.6051-2.1272.6051-2.1272s-2.0455-.8814-2.7702-1.5256c-2.8399-2.2989-1.4877-12.4407 2.5692-18.3908 1.6228-2.2989 9.196-8.2493 17.1746-13.1176 7.8434-5.0036 18.5272-12.0357 23.666-15.6869 5.274-3.6513 13.6577-9.6017 18.9317-13.1177 5.1387-3.6512 14.3344-11.3591 20.2846-17.3092 10.548-10.4128 21.7729-19.0666 31.239-24.0702 2.5694-1.2171 5.4087-3.5157 6.2201-5.1385 2.7046-4.1921 10.0068-8.2502 13.2524-7.3036 2.1636.6761 4.3271-.6754 9.1954-5.2732 8.1138-7.8434 16.0941-14.0648 19.3397-15.0114 1.3523-.5409 2.5692-1.2162 2.5692-1.7571s1.6229-2.8401 3.5162-5.0038c7.9364-9.3498 12.2883-13.7176 14.8846-15.0708.6331-.33 1.6125-.7825 1.6125-.7825s.7845.4626 1.345.7587c2.0109 1.0622 5.3243 3.868 8.3912 7.2522 3.9216 4.3273 9.3314 8.7899 12.036 10.1423 8.6548 4.3273 14.4706 8.3837 20.556 14.3339 3.2455 3.2455 8.5197 7.3022 11.63 9.1954s7.1669 5.5445 9.1954 8.1138c2.0285 2.5694 5.002 5.4093 6.4895 6.0854 2.8398 1.2171 5.5446 2.974 19.7438 12.4402 2.9751 2.0284 5.5446 4.3276 5.5446 5.0038 0 .6761 1.8932 3.3818 4.0569 5.816 2.2989 2.5693 4.0569 5.274 4.0569 6.0853 0 1.3523 14.1993 16.2275 24.3416 25.4231 6.7615 6.0854 9.8732 9.6009 12.3074 14.334 4.8683 9.3309 24.6112 29.7506 37.7286 39.0815 5.5444 3.9217 12.9816 9.6018 16.3623 12.5768 3.516 3.1104 9.6021 8.2493 13.5238 11.63 3.9217 3.3808 10.1414 8.9247 13.9278 12.3055 3.7865 3.3807 8.9269 7.5726 11.2259 9.1954 2.4341 1.6228 7.7077 7.4376 11.7646 12.7115 4.057 5.4093 9.6014 11.9018 12.1708 14.336 2.7046 2.5693 4.8671 5.4092 4.8671 6.0853.1352 2.299 22.7201 21.6358 27.0475 23.1233 5.8149 2.0285 22.1765 15.957 29.7494 25.4231 11.2241 14.064 12.5762 15.4168 21.3662 24.2068 4.7331 4.7331 10.6849 11.6305 13.2543 15.5522 6.6263 9.8719 14.4694 16.6338 19.3377 16.6338 5.5445 0 14.4684 7.5732 15.5502 13.1176.5444 2.6439 4.1901 7.013 4.1901 7.013s2.5898.154 4.6013.154c1.6227 0 4.056 1.8931 5.8139 4.5977 12.306 18.2561 22.5845 21.7723 22.5845 21.7723s1.6223-9.4675-1.8938-12.8483c-1.8932-1.758-3.3814-4.5962-3.3814-6.4895 0-1.758-1.2164-4.7349-2.7039-6.6281-1.8933-2.4342-2.704-5.5435-2.704-9.8709 0-3.516-.9466-9.06-2.0284-12.3055-2.0285-5.5445-1.8948-6.0866.404-9.3321 2.299-2.8398 3.7867-3.3795 9.6015-3.3795 2.319 0 6.0577 1.3725 6.0577 1.3725s1.9978-3.2587 3.5439-5.8355c2.975-4.8683 8.1137-5.8158 12.7115-2.2998 3.7865 2.8398 9.3321 2.57 13.3891-.6755 1.8932-1.4875 3.9215-2.704 4.5977-2.704 1.8932 0 9.8709-7.8449 9.8709-9.7381 0-.9466-6.6262-8.113-14.7401-15.9563-7.9786-7.8434-16.6326-17.3098-18.9316-21.2315-3.9217-6.2206-16.3637-17.9848-19.0683-17.9848-2.299 0-14.6044-9.0611-18.3908-13.5237-2.1637-2.5694-6.3551-8.3837-9.3301-12.8463-2.9751-4.4626-10.6836-13.5235-17.1746-20.1498-6.6263-6.4911-11.9014-12.5772-11.9014-13.5238 0-1.758-10.1416-11.6293-22.9885-22.4477-4.8683-4.057-9.6013-8.6548-10.6831-10.1423-4.7331-6.8968-18.1203-18.2568-22.9886-19.6091-6.2206-1.6228-7.7086-2.9754-20.1499-17.1746-5.4092-6.0854-12.9815-14.1992-16.9031-18.2561-3.9217-3.9217-10.1425-10.6821-13.6585-15.0095-3.6512-4.1921-7.3039-7.7077-8.2505-7.7077-1.0819 0-2.974-1.3521-4.3263-3.1101-2.299-2.975-6.0851-5.5457-13.2524-8.7913-4.3274-2.0284-11.7661-9.6008-20.0152-20.4193-4.1921-5.5444-10.9525-12.8469-15.0094-16.2277-4.0569-3.3807-9.1969-8.6549-11.3605-11.6299-8.5196-11.3594-11.7647-14.6044-15.8216-16.3624-2.299-.9466-6.8968-4.1919-10.1423-7.167-3.3808-3.1103-7.3018-5.5446-8.7894-5.5446-3.6512 0-8.7913-3.6527-8.7913-6.222 0-1.0819-.5396-1.8918-1.351-1.8918-.6761 0-2.2996-1.8947-3.3814-4.1936-2.5694-4.8683-41.6513-43.408-45.573-44.8955-1.4875-.541-4.5972-2.4351-6.7609-4.3283-2.1637-1.8933-4.5985-3.3795-5.4099-3.3795-2.5694 0-11.6303-8.9268-22.1783-21.9089-5.9502-7.1673-14.7398-16.2268-19.8785-20.0133-5.0036-3.7864-9.0607-7.4377-9.0607-8.1138 0-2.2989-13.2512-17.7146-18.1195-20.9601-3.0976-2.109-7.8464-3.7023-7.8464-3.7023zm-438.9101 527.2035c-1.121-.043-2.3337 1.0981-2.9654 2.0661-.6425.9844-1.3067 2.7921-.3744 3.5082 1.4212 1.0916 4.2575-.3086 5.0177-1.9314.5298-1.1312-.036-3.1063-1.2044-3.5478-.1545-.058-.3133-.089-.4735-.095zm437.0203-734.8038s-4.4901 1.7221-6.4915 2.3712c-2.0285.6762-4.8698 2.1624-6.2221 3.3795-2.5693 2.2989-8.1125 5.5442-15.5502 9.1954-2.1637 1.0818-10.6845 8.6554999-18.9336 17.0397999-8.1138 8.2491001-15.4163 15.0114001-16.2277 15.0114001-1.3523 0-10.1423 9.872-10.1423 11.63 0 .4057-1.8932 3.1094-4.0569 5.814-2.2989 2.7046-4.7332 5.6801-5.5446 6.4915-.6761.9466-2.7045 1.757-4.5977 1.757-1.758 0-4.5968 1.2184-6.3548 2.706-1.6227 1.4875-7.033 5.2724-11.9013 8.5179-4.7331 3.1103-12.9822 10.2791-18.2562 15.8236-28.3984 30.1564-51.6581 53.0092-64.9107 63.6925-8.1138 6.7615-26.5047 23.5303-40.7039 37.4591s-31.5093 29.4812-38.406 34.7552c-17.7153 13.3878-21.5018 16.7689-23.8008 21.2315-1.217 2.2989-8.2486 10.2771-15.8216 17.8501-7.5729 7.5729-16.4982 16.9037-19.7438 20.8253-3.2455 3.9217-6.4908 7.0323-7.1669 7.0323-2.5694 0-25.2872 20.0135-42.3263 37.1878-9.7366 9.8718-19.2041 18.3907-20.9621 18.9316-4.5978 1.4876-10.4113 6.4922-16.091 13.9298-2.5694 3.516-9.7382 11.4942-15.8236 17.8501-6.0853 6.3558-14.3334 15.4163-18.5255 20.2846-9.6014 11.3594-16.3637 17.5806-19.0683 17.5806-1.0819 0-4.192 1.8933-6.6262 4.0569-2.5694 2.1638-5.274 4.057-6.0854 4.057s-5.2745 4.732-10.0076 10.4117c-4.5978 5.8149-13.2519 15.1457-18.9316 20.8254-5.8149 5.6797-10.5484 10.8191-10.5484 11.4952 0 1.3524-5.2732 9.1965-11.3586 17.0399-3.3808 4.5978-18.2565 15.9563-20.6907 15.9563-3.1103 0-12.3049 8.6554-18.5255 17.5806-4.0569 5.6797-10.8193 13.3881-15.0114 17.1746-6.3559 5.6797-7.437 7.3025-6.7609 10.1423.5409 2.2989-.0005 3.9213-1.8938 5.6793-1.7579 1.6228-2.8406 4.3267-2.8406 6.7609 0 2.5694-1.0812 5.1386-2.7039 6.6261-2.1637 1.758-2.7045 3.787-2.5693 10.0076.2705 6.7616-.1359 7.979-3.3814 10.5484-2.1637 1.758-3.5161 4.1911-3.5161 6.3548 0 2.4776 1.0974 5.1623 1.0974 5.1623s3.1954-.9827 4.9879-3.1338c1.758-1.8933 4.4641-3.6518 6.2221-3.9223 2.2989-.2704 4.0555-2.1622 5.9487-5.9486 3.516-7.3025 5.6807-9.7368 11.9013-13.6585 7.7082-4.8683 10.5475-2.4352 14.334 12.4402 1.8932 7.4377 6.7607 12.3072 13.387 13.389 3.9217.5409 7.439 2.7048 12.8483 7.5731 4.0569 3.6512 7.8428 6.7608 8.2485 6.7608 0 0 .8122-1.2164.8122-2.7039 0-3.516 1.8921-4.1926 12.4401-4.463l8.52-.2714.6755-5.9487c.5409-5.1388 1.2184-6.2213 4.7343-7.4383 6.4911-2.299 12.3049-7.3018 17.0379-14.8748 2.4342-3.7864 9.8728-12.442 16.4991-19.0683 6.6263-6.7615 12.9821-13.6589 14.1992-15.5522 5.5445-8.5195 11.0889-14.605 22.3131-23.8007 6.6263-5.5445 12.9826-10.0056 14.0645-10.0056 2.8399 0 10.6826-7.0332 16.9032-15.4175 2.8398-3.7865 8.3838-9.3304 12.3054-12.3055 7.032-5.274 14.0644-12.5772 16.6338-17.0398 2.4342-4.4626 12.9825-12.0341 16.6338-12.0341 2.7046 0 5.9491-2.2988 12.4401-8.6546 4.7331-4.7331 10.8197-9.6013 13.3891-10.6831 5.274-2.2989 13.5217-9.7366 13.5217-12.1708 0-2.5694 11.2252-13.1176 13.9298-13.1176 2.8399 0 41.1088-37.7302 48.0056-47.4668 2.4342-3.2455 8.9261-9.8708 14.4706-14.4686 5.5445-4.5979 11.0898-10.1423 12.4422-12.1708 4.5978-7.4377 11.6287-13.7939 16.497-14.6053 6.6264-1.3523 12.7115-6.3563 19.3378-16.093 8.3843-12.1707 29.752-32.8617 35.1613-33.8083 3.1103-.5409 6.0844-2.8396 9.8709-7.1669 5.6797-6.8968 13.1177-12.4402 16.6337-12.4402 1.8933 0 24.611-22.3136 24.611-24.2068 0-.541 3.6527-4.8685 8.2505-9.6015 4.5978-4.8683 9.3293-10.9544 10.5464-13.5238 5.5445-11.765 16.4983-24.4755 29.8861-35.294 3.3808-2.7046 9.6024-10.1432 13.9298-16.4991 6.7616-10.007 17.3098-20.285 23.26-22.7191 3.7864-1.6228 15.5502-9.736 15.5502-10.8178 0-.6941 1.0459-1.4401 1.0459-1.4401s6.0046.9944 7.0679 2.9278c.8114 1.4875 2.164 2.7039 2.9754 2.7039.8113 0 3.3803 1.4887 5.6793 3.2467 2.2989 1.758 5.5461 3.516 7.1689 4.057 3.1103.9466 20.6887 17.9847 20.6887 20.0132 0 2.8398 11.7652 16.4985 19.7438 22.7191 9.3309 7.3025 24.8823 26.9117 24.8823 31.2391 0 1.6228 1.8947 4.4616 4.1936 6.3548 2.299 2.0285 6.8963 7.0323 10.277 11.0892 11.9003 14.6049 26.6398 29.7514 29.074 29.7514 3.2455 0 10.2783 5.003 17.0398 12.3055 3.2456 3.5159 7.4364 6.6265 9.4649 7.0322 3.516.6762 31.3737 25.9643 31.3737 28.3984 0 1.6228 9.0606 12.8463 13.6585 16.9032 2.5693 2.1637 6.7622 4.3282 9.4668 4.8691 4.8683.8114 11.3591 6.6261 17.3092 15.2808 1.6228 2.4342 7.4371 8.1142 12.8463 12.5769 5.5445 4.5978 11.6314 10.8175 13.7951 13.9278 5.6797 8.79 17.9842 19.7434 26.2333 23.3947 4.0569 1.8932 8.9265 4.8681 10.8198 6.6261 1.8932 1.758 6.6247 4.4632 10.5464 5.9507 3.7864 1.6228 10.0072 4.0571 13.6584 5.5446 14.6049 5.8149 41.2466 21.6368 41.7875 24.8823.1251.563.2711 1.5154.2711 1.5154s-1.8335 3.2104-2.7057 4.3006c-4.733 6.0854-3.3807 8.6541 16.2277 29.0739 4.0569 4.1922 9.6014 10.6832 12.1708 14.1992 5.9501 8.1139 8.9245 10.8191 14.8747 13.5238 6.6262 2.975 24.7479 18.2554 31.7799 27.0454 4.4626 5.4093 6.0853 8.6544 6.0853 11.7647 0 5.1388 2.0294 7.5731 6.3568 7.5731 2.1637 0 4.0558 1.6225 6.3548 5.1385 1.758 2.975 5.0033 5.9509 7.1669 6.8975 2.1637.9466 6.0851 5.0032 9.1955 9.7362 2.975 4.5979 8.3853 11.0893 11.9013 14.6053 3.6513 3.3808 8.5184 8.1128 10.9525 10.4117 2.299 2.1637 8.2499 6.7621 12.983 10.0076 4.7331 3.2456 10.683 7.9796 13.2523 10.4137 2.4341 2.4342 6.7622 5.9498 9.4668 7.7078 2.7047 1.758 6.3564 4.7334 7.9792 6.4914 1.6227 1.6228 4.7319 5.1375 6.8955 7.4364 3.5161 3.7865 9.7362 6.0865 9.7362 3.7875 0-1.6227-4.7323-8.25-7.3016-10.4136l-2.8407-2.2979 3.1101-3.112c2.9751-3.3808 3.9227-6.4895 1.759-6.4895-1.6227 0-10.9545-9.0609-10.9545-10.5484 0-.6762-1.2163-2.8392-2.7039-4.7324-3.1103-3.9217-2.2994-7.7098 1.6224-7.7098 1.6227 0 8.519-5.408 16.3623-12.9809 7.573-7.1672 17.0394-15.146 21.2315-17.7154 9.1958-5.9501 13.5238-14.1992 13.5238-14.1992 0-1.758-5.1379-7.8443-13.9278-16.4991-7.7082-7.4376-16.4988-17.4443-19.6092-21.9069-5.4092-8.1139-7.9783-10.2774-25.4231-20.8254-5.6797-3.3808-10.0072-7.7074-15.6869-15.4155-4.3274-5.9502-7.8444-11.4956-7.8444-12.4422 0-.8114-3.921-5.1379-8.7893-9.3301-4.8683-4.3274-11.0895-10.9536-14.0646-14.74-6.0854-8.1138-15.1453-17.4456-22.4477-23.1253-5.274-4.0569-11.8997-10.5489-20.9601-20.5559-7.5729-8.1139-19.0675-17.1737-24.3415-18.9317-2.5694-.9466-5.9508-3.2452-7.4384-5.1385-1.4876-2.0284-7.3017-8.3837-12.8462-14.3339-5.5445-5.9501-12.847-13.9284-16.2277-17.85-3.3808-3.7865-7.5736-8.3844-9.4668-10.1423-5.1388-4.8683-23.1245-19.2037-28.3985-22.5845-2.5694-1.758-6.4904-5.4087-8.7893-8.2485-2.1637-2.7047-9.8726-10.9543-17.0399-18.1215-7.1672-7.3024-15.4157-16.4976-18.3908-20.4193-3.3808-4.4626-11.495-11.9001-20.6907-18.7969-8.3843-6.3559-25.2873-21.5014-37.7286-33.537-12.3059-12.1707-26.3707-25.5592-31.239-29.7514-4.8683-4.3273-9.0611-7.9795-9.4668-8.3852s-4.057-3.2445-8.1139-6.3548c-6.7615-5.274-33.9417-32.1862-59.6355-59.5028-5.6797-6.0854-13.9288-13.2512-18.2562-16.091-4.4626-2.8398-9.7362-6.6277-11.7646-8.2505-2.1637-1.758-5.2743-3.1101-7.0323-3.1101-2.1637 0-4.8688-2.027-7.9791-5.9487-2.7047-3.1103-4.8691-6.3561-4.8691-7.0322 0-.6762-2.5685-3.7873-5.814-6.8976-30.4269-29.8859001-37.3246-36.2425-40.8406-37.8652-5.6797-2.7046-13.522-7.5729-16.4971-10.1423-1.8662-1.7039-9.3301-4.8038-9.3301-4.8038zm530.6067 592.7918c-1.1285.029-2.5784 2.3153-2.6001 3.444-.023 1.1956 1.0638 3.5796 2.2375 3.8085 1.1631.2268 3.0881-2.3346 3.2627-3.5066.2327-1.5623-1.321-3.7862-2.9001-3.7459z" style="stroke-width:.135231"/></svg>