<svg height="960" style="" width="1200" xmlns="http://www.w3.org/2000/svg"><path d="m600 0-95.99959 95.99959 77.86238 77.96824 114.1368 114.13681 95.9996 95.99959 96.00162 95.9996-96.00162 95.99959-78.07004 78.07207-113.92915 113.82532-95.99959-96.00162-95.9996-95.9996-88.59935-88.59935-7.40227-7.40024 107.77891-107.77891 84.22231-84.22028-95.9996-96.00162-96.00162 96.00162-95.9996 95.9996-95.99959 95.99959 95.99959 95.99959 95.9996 95.9996 96.00162 96.00162 95.9996 95.9996 95.99959 95.99959 95.99959-95.99959 95.9996-95.9996 96.00162-96.00162 95.9996-95.9996 95.99959-95.99959-80.5741-80.5741-8.2329-8.2329-7.08877-7.08877-95.99959-95.99959-95.99959-95.99959-106.00774-106.11156zm0 384.00041-95.99959 95.99959 95.99959 95.99959 95.99959-95.99959z" style=""/></svg>