<svg height="960" style="" width="1273" xmlns="http://www.w3.org/2000/svg"><path d="m985.3401 1020c-17 0-22.0005-2.5002-34.0005-18.5001-32.00002-43.0001-27.99952-41.4998-93.49951-41.4998h-58.5l-40.0005-27.50035c-22.00005-14.99994-42.49946-27.50013-45.4995-27.50013s-17.00021-10.00008-30.50021-22.5c-13.5-12.5001-33.4998-24.49962-44.49983-27.4995-10.49996-3.00006-20.00025-7.00038-21.50021-9.50031-2.49998-3.50001-36.50029-10.49976-98.00033-18.99981-26.49993-3.99994-27.4995-4.50023-28.99946-20.00025-1.49996-13.5.99979-17.49994 17.49971-28.49997 16.50004-11.49997 24.0003-12.99981 62.00033-12.99981 23.50001 0 50.49979 2.49974 59.49979 5.49978 11.99992 4.5 22.99972 4.49977 44.49971-.50029 39.00004-7.99999 63.00022-24.99941 75.50021-52.99943 11.49998-24.99997 11.00025-28.50006-12.99971-130.5-3.49999-16.99998-7.00054-36.50028-7.00054-44.00032 0-11.99993-10.49974-34.0002-44.49971-92.00025-7.50004-12.49998-15.0003-26.49949-17.00021-30.49943-2.00003-4.00005-7.99977-14.5-12.99983-22.5-13.5-21.00003-12.49976-31.00026 3.50033-39.50032 9.9999-4.99994 16.4997-5.50023 23.49967-2.00025 12.00004 6.50002 77.49979 73.00057 77.49979 79.00054 0 2.49997 9.50029 18.49995 21.50021 36 30.49999 46.49997 33.0003 50.50002 38.00025 61.50003 6.50003 14.99997 20.00003 24.99999 25.50004 19.49997 3.00004-3.00003 1.99946-29.49997-2.50054-72-7.99999-71.50005-19.49951-125.5005-30.49942-143.5005-9-14.50001-9.00034-19.00001.99967-28.49997 13.00005-13.5 31.00028-9.4995 50.00029 10.00047 9.49995 10.00001 16.99954 21.99971 16.99954 26.49971 0 4.00006 3.00048 16.49981 7.00042 27.99979 4.00005 11.00002 10.99958 33.50025 15.49958 50.00028 4.5 16.49993 10.49993 36.49995 13.49999 45 2.50002 7.99999 7.00002 23.50002 9 34.49993 3.50001 17.50006 11.50002 27.49984 20.99998 27.99979 2 0 5.0002-8.49972 6.5002-18.99979 2-9.9999 6.4998-27.49973 9.9998-38.49974 4-10.99992 6.5-34.0002 6-51.50026-1.0001-36.49994 5.0002-44.49994 27.5002-32.99996 19.0001 10.00001 31.5 34.50003 31.5 64.49996 0 23.50001 1 24.99975 13.5 26.49982 17 2.00004 33.9998 22.99996 33.9998 41.99997 0 7.99998 3.5 22.50056 7.5 32.50047 4 9.50005 8.5005 33.99974 10.0005 53.49981 11.5 153.49995 15.4994 171.49973 54.4995 228.99972 6.5 9.99999 8.0005 18 5.5004 30.00006-11.9999 54.99999-118.9999 154.00044-166.4999 154.00044zm-316.31247-286.13081c-1.38758-.0113-2.78179-.13478-4.18804-.36922-14.99996-2.49999-43.49981-12.50022-57.99971-20.00026-5.50002-2.99993-16.49982-6.99998-24.99975-9-17.0001-4.5-87.00008-28.99969-127.50008-44.49971-14.99996-5.99997-34.0002-12.49998-42.50025-14.99997-7.99999-2.49997-27.50029-9-42.50025-15.00006-14.99996-5.99997-34.49947-12.50045-42.49946-14.50047-8.50005-2.00003-20.50009-6.99998-27-10.49997-10.50008-5.50001-13.00028-4.9995-18.50029 2.50044-5.99996 8.0001-8.00021 7.49958-29.00025-7.00044-38.00002-26.50005-43.99975-18.49972-14.49979 20.00025 10.00002 13.5 20.50009 24.50025 22.5 24.50025 2.00003 0 3.99983 2.49975 3.99983 5.49968 0 3.50011 4.0005 9.00034 8.5005 12.50032 4.99995 3.49999 6.99952 7.99999 4.9995 10.49997-2.49998 2.00002-6.99998-.00023-10.50008-5.00029-3.49998-4.5-7.99965-8.49971-9.99967-8.49971-4.00005 0-99.99979-71.49994-116.49978-86.99997-6.50001-6.00006-11.5005-14.50023-11.5005-20.00025 0-5.00006-2.49999-18-5.99999-28.50007-14.5-49.99994 19.99999-104.50024 73.50003-116.00021 22.99995-4.99995 56.50019-2.9997 62.0002 3.50021 3.00004 4.00006 12.00004 8.00032 19.49996 9.50029 16.50004 3.00003 43.99977 12.49953 62.49983 21.49953 7.99999 3.99994 19.50019 7.00044 26.00021 7.00044 6.50003 0 13.5 2.49951 14.99996 4.9995 5.50002 9-11.99992 11.50008-40.5 6.00006-14.99996-3.00003-30.49998-4.5-34.49992-3.00003-10.50008 4.00005-9.50006 16.50027 1.49996 20.00025 22.99995 7.50004 57.49976 25.00032 62.49971 32.00029 5.00007 6.99998 98.00033 64.49996 123.50025 76.49999 4.00005 2.00003 14.50002 7.99999 22.5 13.5 8.50005 5.50002 19.49985 11.99994 24.99987 14.99997 5.4999 3.00003 17.00043 9.50006 25.00042 14.99997 8.50005 5.00006 20.49953 12.5001 27.4995 16.50003 6.99998 3.49998 35.00033 19.49997 62.00033 36l49.5 28.99946-14.00029 12.00004c-8.01563 7.17188-15.31924 10.42818-22.81196 10.36969zm23.85641-136.8252c-3.55961-.20025-9.73148-5.35702-22.54399-17.54449-12.99994-12.49998-40.50045-36.99945-61.00042-54.4995-20.50009-17.49993-39.49954-34.50003-42.49958-37.49996-2.49997-3.00004-37.50052-33.50002-77.50046-67.5-39.49999-34.50004-81.49984-71.00032-92.49975-81.50029-11.00003-10.49996-34.99976-29.00025-53.49983-41.00028-19.00001-12.49999-34.00042-24.49992-34.00042-27 0-1.99992-7.99999-12.49999-18-22.5-13.5-13.5-19.50008-16.99943-22.5-12.49943-3.49999 5.99996 11.99992 52.49993 20.99992 61.49993 7.00009 7.50003 5.50002 18-2.99992 18-4.00005 0-7.50004-3.49999-7.50004-7.49993 0-4.00005-2.00002-7.50004-4.5-7.50004-2.49997 0-9.4995-8.00055-15.49946-17.5005-6.00008-10.00001-13.50023-20.49997-17.00033-23.99996-13.49999-14.50001-38.00024-48.00004-38.00024-52.50004 0-2.49997-3.49999-7.49947-7.49992-10.99947-12.00005-10-10.00002-65.50008 2.99992-91.50007 13.00005-24.49991 23.00006-33.00041 53.99999-44.5005 26.0001-9.49995 53.5005-9.4995 52.00054-.4995-1.00001 3.49999 2.49998 10.9998 7.50004 15.99975 4.5 5.50001 12.49976 15.50002 17.49971 22.5 10.00001 15.00007 17.49971 16.49982 21.99971 5.49979 3.49999-10.00002-11.99947-27.4995-24.49946-27.4995-10.49996 0-12.00026-9.00045-2.00025-13.0005 6.50003-2.49997 16.50026 3.50021 75.50021 45.50028 14.00007 10.00002 29.99959 21.50022 36.4995 26.00022 21.5001 14.99996 6.50025 23.50001-15.99975 9-13.99995-9.49995-48.50021-12.00004-51.50025-4.5-1.00001 3.49998 8.50005 11.9997 21.00004 18.99978 16.99999 10.49997 22.00028 15.99998 20.00025 22.5-3.00004 9.49995 3.00026 18.49995 50.00029 73.49997 16.49992 19.49996 38.99947 46.49973 49.9995 59.49978 11.00002 13.5 28.00001 33.49992 37.49996 45 9.50006 11.49998 26.50005 31.50045 37.50008 44.5005 10.49996 12.99994 23.99996 28.99969 29.99992 35.49972 30.49999 34.50003 53.50028 63.50028 62.00033 78.50025 12.49998 21.49998 23.00017 65.49997 18.50017 76.5-1.125 3.00003-2.32031 4.66402-4.45601 4.54399zm-507.75806-12.26812c5.15779-.0743 9.58905-1.43214 11.21412-4.2759 1.49995-2.49999-5.00007-9-15.00008-14.99997-20.49997-12.49998-37.00045-13.5-37.00045-3.00003 0 4.00005 3.00048 7.50003 7.00049 7.50003 3.5 0 9.49976 3.49998 12.99974 7.50003 4.1562 4.74999 13.24767 7.38429 20.78618 7.27584zm76.66188-137.63892c5.78824 0 6.17693-4.80937 1.55194-14.63748-4.5-9.49995-9.49972-12.49943-21.99971-12.49943-24.00007 0-24.50047 7.49993-1.00058 19.49996 10.125 5.0625 17.22443 7.6329 21.44835 7.63695zm525.05202-42.13698c-1.00002 0-20.50032-19.00002-42.50025-41.99997-31.00005-31.99995-46.49985-53.50028-66.99983-93.50022-40.5-77.50001-51.50025-99.50006-63.50017-126-16.00009-35.99999-25.49982-31.50033-23.49979 11.49975 1.00001 20.49998-.50029 35.00022-3.50021 35.00022-2.50009 0-5.49957-5.00029-6.49958-11.00025-1.00001-6.50003-4.50022-18.49973-8.00021-26.49972-10.49996-23.50001-19.00024-48.50031-21.50021-65.00025-1.50008-8.50005-5.99952-16.99976-9.4995-18.99978-10.00002-5.50001-8.50028-45.999788 2.49975-72.999753 4.99995-12.000005 15.99997-29.00052 25.49992-38.5005l16.50004-16.999497h51.50025c28.00001 0 52.49947 1.999494 54.4995 4.9995 1.49996 2.500011.50029 8.500005-2.49975 13.5-4.5 7.000008-3.49976 14.500013 5.00029 32.999997 5.99996 13.000015 12.49942 22.499965 15.49946 21.000003 7.99999-5.500013 5.00029-30.000003-5.49979-39.000003-11.49997-9.499996-13.00027-18.499503-3.50021-18.499503 6.50002 0 88.50004 105.999486 88.50004 114.499536 0 2.49999 3.49998 5.50002 7.49992 7.49994 7.50004 2.50008 10.50053 13.00049 4.0005 13.00049-2.49997 0-14.00017-9.00022-26.00021-20.00024-28.00001-24.99998-54.49973-41.000182-57.99971-35.00022-1.50008 3.000042 3.99993 14.99997 11.99992 27 17.50005 25.50003 18.4995 28.00046 7.99954 28.00046-9.50006 0-9.4995 15.99952-.4995 42.49957 3.99994 10.99992 10.99946 33.50025 15.49946 50.00019 5.00006 16.50003 12.00026 37.9998 15.50025 47.49975 12.49999 33.50002 13.49978 50.00005 3.99983 70.50003-9 20.49998-8.99978 22.00027 11.00025 60.50025 6.49991 12.49999 9.9999 44.00022 4.5 44.00022zm-544.49055-183.09151c2.06122-.0113 3.67796-.58838 4.49043-1.90867 1.50008-3.00004-4.50022-13.00005-14.00017-22.5-9.50006-9.50007-19.49951-17.49982-22.99949-17.49982-8 0-7.00055 13.49955 1.99945 16.99953 4.00005 1.49997 7.50005 6.0003 7.50005 9.50029 0 6.7734 14.92323 15.45165 23.00973 15.40867zm331.00121-139.28254c1.86547-.10237 2.81767-1.84489 3.98959-5.12617 1.99991-4.5 0-11.49997-4.5-16.50003-4.00005-4.5-8.50005-12.99995-9-18-3.5001-19.00002-14.50058-15.000195-14.50058 5.49978.50006 14.50001 3.50033 21.00048 12.50033 28.00046 6.10931 4.25002 9.39656 6.24172 11.51066 6.12596z" style="stroke-width:.499999"/></svg>