<svg height="960" style="" width="1230" xmlns="http://www.w3.org/2000/svg"><path d="m1108.9864-59.999967c-2.2915.01672-8.2472 6.708904-19.2198 21.42824-8.7424 11.775471-17.3057 22.835882-18.9114 24.441628-2.8547 3.211492-10.8834 13.38174-40.1437 51.384394-8.3855 10.704976-17.4863 22.481316-20.341 25.871216-6.9582 8.385569-19.98209 24.978279-39.60788 50.848619-9.09923 11.77548-17.30514 22.12188-18.37564 23.19238-1.2489.89208-7.31698 8.56572-13.56154 16.95128s-12.31072 15.87818-13.38122 16.94867c-1.07049.89208-8.38555 10.1706-16.05745 20.51873-7.67191 10.34814-16.23449 21.40786-19.08915 24.61935-4.28199 4.99566-4.99704 7.31612-4.99704 17.12901v11.24074l6.9598 3.21201c12.31071 5.5309 25.1551 21.4089 25.1551 31.04338 0 7.49348 4.28165 5.1739 22.83692-12.66772 10.52658-10.16972 21.23293-20.3391 23.73076-22.83693s24.26461-23.37166 48.17234-46.38736c23.9078-23.01568 49.7785-47.99481 57.4504-55.30989 15.3438-14.80855 16.4129-16.94867 19.0891-43.7111.7137-7.8503 2.3193-20.16154 3.3898-27.29821 1.0705-6.958229 2.855-18.734569 3.9255-25.871219 1.0705-6.958231 2.6761-18.911594 3.3897-26.22666.7137-7.315064 2.3212-19.447366 3.5701-26.762431 5.7093-37.110573 7.1349-47.458365 7.1349-49.599359 0-1.42733-.3547-2.164343-1.1186-2.158768zm-987.75851.240445c-.92175-.01289-1.33289.952888-1.33289 2.809532 0 1.605746 1.07119 10.34936 2.49852 19.091756 5.88774 36.575324 6.77912 43.532858 8.20645 56.378825.71367 7.315066 2.31924 19.268429 3.38974 26.22666 1.07049 7.13665 2.855 18.91299 3.9255 25.871219 1.0705 7.13667 2.67607 19.44791 3.38974 27.29821 2.67624 26.76243 3.74796 28.90255 19.09175 43.7111 7.6719 7.31508 32.29368 31.04529 54.77413 52.63366 40.50047 38.89473 47.27942 45.49526 75.82601 73.14977l14.63049 14.27244 3.56744-4.28095c1.78417-2.31942 3.38975-5.35144 3.38975-6.95719 0-4.63882 12.31089-17.84406 20.69644-22.12605 4.46041-2.14099 8.38539-4.45919 8.74223-4.99443.35682-.53526.00087-6.78034-.8912-13.91699-1.60576-12.66756-2.14048-13.38122-18.19795-34.79117-8.92081-11.95387-17.30776-22.65833-18.37825-23.55041-1.0705-1.07049-7.13666-8.56311-13.38122-16.94867-6.24457-8.38556-12.31002-16.0592-13.55895-16.95128-1.07049-1.0705-8.20783-10.16799-15.87972-20.51613-7.67191-10.34813-14.80664-19.62665-15.87714-20.51873-1.2489-1.0705-7.31698-8.56311-13.56154-16.94867-6.24457-8.38556-11.95215-15.522219-12.4874-16.057469-.71366-.53525-9.10114-11.24161-18.91403-23.730745-28.5466-36.932157-34.61275-44.60266-40.14365-51.20406-2.85466-3.389908-12.13248-15.701846-20.69646-27.120484-10.77188-14.362505-16.47219-20.796809-18.82779-20.829744zm490.42157 47.341278c-5.36921.05018-10.83268.252119-16.27438.60895-15.52221 1.070497-25.87121 2.85466-44.60492 8.02873-4.81723 1.427329-10.8834 2.854486-13.38122 3.389735-4.28199.713664-7.6719 1.782941-24.08618 7.670676-28.18977 10.348141-38.00179 17.485313-51.73984 38.003174-4.28199 6.42299-12.66756 16.41344-18.7337 22.30116-11.24022 11.061809-15.7008 17.484789-18.02021 26.762439-.71368 2.85466-3.03377 9.81375-5.17476 15.16625-7.31508 18.9121-9.09923 24.08618-10.70498 29.43867-.71368 2.85465-3.21149 9.81375-5.35249 15.16625-7.31507 18.91212-9.09923 24.08618-10.70497 29.43867-.71367 2.85466-3.38922 9.81116-5.53022 15.16365-3.74674 8.74239-4.10251 12.84771-4.28094 38.36121-.17841 36.75375-2.49956 42.10433-19.62752 45.31582-4.63882.89208-9.45606 2.67659-10.70496 3.92549-4.46042 4.81725-8.20751 36.93181-9.27801 81.71429-.53524 24.2646-.53524 46.21032 0 48.70815 1.60575 5.70932 9.63657 15.70202 12.84806 15.70202 1.42733 0 4.28042-3.74866 6.42142-8.20906 2.31942-4.46041 4.81915-8.56311 5.53282-8.91995 1.60575-1.07049 8.56189 12.13161 8.56189 16.23519 0 1.42732 2.14238 3.56849 4.99704 4.63899 2.67625 1.07049 6.42159 2.85501 8.38418 3.92551 1.96257 1.0705 6.7798 2.31871 10.70498 2.85396 8.02872 1.24891 9.99303 4.99599 6.24628 11.95423-1.78415 3.21149-1.78606 6.60158-.18031 15.34397 1.07049 6.24458 3.39199 17.66286 4.81932 25.51317 2.85466 14.98697 6.59948 29.6171 10.52464 40.14365 1.24892 3.38991 3.74675 11.06354 5.3525 16.95128 1.78415 5.88774 4.10356 13.55877 5.35248 16.94867 1.24891 3.3899 3.21306 9.1001 4.28355 12.49 1.24892 3.38992 2.85309 8.92047 3.74518 12.13196 1.78416 6.95824 8.20801 14.63048 12.49 14.63048 1.60575 0 4.46144 1.24892 6.42403 2.67624 1.78416 1.42733 4.63796 2.67625 6.2437 2.67625 1.60575 0 6.60001 1.60487 11.0604 3.56745 7.85032 3.56833 8.20733 3.74552 7.31524 10.34692-.53524 3.56833-1.78415 9.99306-2.67623 14.27504-3.38991 14.98696-.533 19.62597 28.19202 47.4589 24.97826 24.2646 26.22615 25.15703 33.71963 25.33544 4.28198 0 9.09922 1.24891 10.70496 2.67624 6.06615 4.99566 19.26983 8.56364 44.60493 12.13196 22.30202 3.21149 56.19954-2.31977 73.32749-11.95424 2.14101-1.24891 6.95824-2.14047 10.70498-2.14047 6.24458 0 8.56328-1.96431 34.96888-27.65625l28.01171-27.47593v-9.4557c0-5.17408-1.24892-13.3807-2.67625-18.19794-1.42734-4.81723-2.67625-9.45553-2.67625-10.16919 0-1.78417 15.34501-8.74223 19.09175-8.74223 1.42734 0 4.81742-1.07189 7.31525-2.3208 2.67624-1.42734 7.13681-3.56712 9.99149-4.99444 3.92515-1.96258 6.06597-4.99635 8.74221-13.2035 1.96259-5.88773 4.45901-13.55875 5.70794-16.94867 1.24891-3.3899 3.74674-11.06353 5.35248-16.95127 1.78416-5.88774 4.28391-13.37913 5.53281-16.59062 1.42734-3.2115 2.49592-6.95946 2.49592-8.38679s1.07119-5.17529 2.49851-8.38678c1.42734-3.21149 3.74675-11.9518 5.35249-19.26686 1.42734-7.31506 3.92448-19.44737 5.53022-26.76244 3.21149-15.34378 3.39164-25.33614.89381-27.83397-2.85465-2.85466-.18033-7.84944 5.17216-8.91994 2.49783-.53525 7.31576-2.14273 10.52725-3.57006 3.21151-1.42733 6.95754-2.49592 8.20646-2.49592 3.21149 0 8.56415-8.20802 9.99148-15.16624 1.42732-7.13665 6.42333-8.02838 9.27798-1.42699 2.67625 6.24457 6.78018 11.24075 9.278 11.24075 1.07049 0 4.63952-3.74727 7.85101-8.56451l5.70793-8.38677v-29.43867c0-16.23589-.89035-35.50484-1.78244-42.8199-1.07049-7.31507-2.67797-22.30115-3.57005-33.00613-1.60575-17.84162-2.14012-19.98139-6.24371-23.72813-2.49783-2.141-6.77946-3.92552-9.4557-3.92552-15.70063 0-23.19358-16.59393-20.87419-45.85418 1.78417-24.62144 1.78243-24.62022-6.2463-45.13809-7.31506-18.91212-9.09923-24.08619-10.70497-29.43868-.71367-3.03306-3.21149-9.81376-5.35249-15.16624-7.31507-18.91212-9.09922-24.08619-10.70497-29.43868-.71368-3.03307-3.2115-9.81376-5.35249-15.16624-2.14099-5.35249-4.63813-12.48793-5.53022-15.69942-1.07049-3.3899-7.13699-11.24022-14.63047-18.733709-6.95823-7.13664-15.3438-16.95074-18.73371-21.76798-14.98695-22.302034-31.22143-33.18368-61.90903-41.926076-2.85465-.713664-7.67189-2.319236-10.70498-3.389733-6.06614-1.962578-21.05398-5.710189-39.25242-9.813763-11.24023-2.408619-26.49533-3.613451-42.60298-3.462913zm4.31231 57.821485c1.0891.12055 1.71448 3.02908 1.71448 8.79973 0 6.6014 4.10549 20.698359 8.20905 28.905519 1.42733 2.49782 2.49593 5.52863 2.49593 6.59913 0 5.35248 19.98313 34.43571 32.65069 47.81693 16.41428 16.94954 40.85713 34.43278 54.23835 38.53635 1.78416.53524 8.92221 3.03499 15.70201 5.53282 6.95824 2.49782 15.3438 4.63899 18.7337 4.63899 9.09923 0 13.02422 3.03133 6.06599 4.45867-9.63447 2.31941-24.80055 6.60174-31.93721 9.27799-40.50048 15.34379-76.89738 48.70814-93.66852 86.17555-8.38557 18.37687-12.48999 31.58054-12.48999 39.25243 0 12.48915-3.03204 11.95355-6.95719-1.24925-2.141-6.95824-3.74779-13.38226-3.74779-14.45276 0-2.31941-3.56624-10.70359-11.23813-27.11788-6.06617-12.66754-17.30656-28.54641-28.72518-40.85713-7.13664-7.49349-31.40143-26.94154-36.75393-29.26097-1.42732-.71366-3.92515-1.96187-5.35248-2.85396-1.42732-.89208-5.88861-3.03324-9.81376-4.63899-3.92515-1.78416-8.7424-4.10496-10.70497-4.99704-1.96258-1.0705-6.42386-2.49835-9.81375-3.21201-17.84164-4.10358-25.87002-6.423-25.51318-8.02874.17841-.89209 4.63969-2.14099 9.81375-2.67624 5.3525-.53525 11.24023-1.96119 13.38122-3.03169 2.14098-1.24891 5.17442-2.14047 6.60175-2.14047 4.4604 0 25.51369-10.34866 39.43015-19.26947 28.72502-18.55528 48.52888-43.35514 65.65684-82.96355 1.78414-3.74674 3.03167-7.494 3.03167-8.56449 0-1.070509 1.7852-7.494529 3.74779-14.452769 2.18001-6.9192 4.0084-10.36332 5.24271-10.2267zm-457.31351 151.790569c-.69825-.0751-1.20571.25525-1.81901.8128-1.42733 1.60575 1.06858 23.55076 7.84839 67.61958 1.0705 6.7798 2.67607 18.55615 3.38974 25.87122.71366 7.31507 2.31923 18.91298 3.38973 25.87122.89208 6.77982 2.67659 18.91021 3.92551 26.5821 1.0705 7.85032 2.31941 15.16729 2.67624 16.23778.53525 1.24893 6.60262 5.17391 13.73926 8.74223 7.13666 3.74675 17.6627 9.2759 23.55042 12.48739 15.87905 8.56399 48.52835 26.04947 59.76857 31.93721 5.35249 2.85465 13.20315 6.95858 17.30672 9.27799 4.28198 2.3194 8.02925 3.56833 8.5645 2.67624 1.42734-2.3194 3.38937-98.66434 2.14047-103.66-.71366-2.31941-6.06579-8.38625-12.13196-13.20349-6.06614-4.99566-12.84683-10.52482-15.16624-12.4874-2.141-2.14099-7.84858-6.95823-12.48739-10.70498-4.63882-3.92515-14.62997-12.31072-22.12345-18.7337s-24.80159-20.87469-38.36122-32.11492c-13.55963-11.24022-28.72397-24.26669-33.71962-28.90552-6.50104-6.01038-8.95452-8.14045-10.49066-8.30575zm912.88384.43384c-1.3022.115-5.985 3.52303-10.6684 7.87191-4.9957 4.63883-20.1626 17.6653-33.7222 28.90552-13.5597 11.24023-30.86518 25.69194-38.35866 32.11492s-17.48462 14.80855-22.12343 18.7337c-4.63883 3.74675-10.34901 8.56399-12.49002 10.70498-2.3194 1.96258-10.34639 8.74206-17.83988 14.8082l-13.56152 11.41846v51.56212c0 45.85296.35872 51.74087 2.85656 52.81137 1.60575.53524 4.99443-.17998 7.67068-1.60732 2.49783-1.60575 11.95407-6.5993 20.69646-11.23813 20.69628-10.88339 47.10271-24.98018 60.66241-32.29525 5.8877-3.21149 16.4137-8.74064 23.5504-12.48739 7.1366-3.56832 13.2014-7.4933 13.7367-8.74223.3568-1.07049 1.6057-8.38746 2.6762-16.23778 1.2489-7.67189 3.0334-19.80228 3.9255-26.5821 1.0705-6.95824 2.6761-18.55615 3.3897-25.87122.7137-7.31507 2.3212-19.44736 3.5701-26.76243 7.6719-50.13497 9.2768-66.19173 6.2437-67.08381-.056-.0223-.1275-.0311-.2143-.0235zm-880.78199 224.22424c-1.80647-.15612-3.05503.33523-3.7687 1.49493-.53525.71367-.17859 6.24491.7135 11.95424 1.60574 10.16971 3.92341 27.29663 9.81114 71.18702 3.03308 23.01569 8.03048 55.84619 8.92256 59.05768.35683 1.0705 9.09957 2.8524 19.98296 3.92289 10.52655 1.24892 26.94049 3.03534 36.21814 4.10584s26.9405 2.67537 38.89439 3.56746c12.1323.89207 22.65833 1.96326 23.55041 2.49851.71366.53525 11.77477 1.60574 24.26391 2.67624 12.66755.89209 27.65487 2.31873 33.36419 2.85398l10.1692 1.24925v-5.17477c0-2.85465-1.06858-8.74309-2.49592-13.20348-1.42733-4.46042-3.74674-12.48741-5.35248-17.8399-7.31507-27.11925-13.5605-48.3513-15.16625-51.38439-1.42734-3.21149-10.34919-7.67137-30.51021-15.52169-4.46042-1.78415-10.70359-4.2832-13.73666-5.71052-3.21149-1.24893-8.74205-3.56711-12.13197-4.99445-3.3899-1.42732-8.92114-3.74743-11.95422-5.17476-3.21149-1.24892-9.45659-3.74604-13.91698-5.53021-4.46041-1.78416-10.7062-4.2839-13.73928-5.53282-3.21149-1.42733-8.56311-3.5678-11.59617-4.81671-3.21149-1.42733-8.74206-3.74744-12.13196-5.17477-3.3899-1.60575-12.66843-5.3504-20.51873-8.56189-17.12796-6.95823-24.97706-10.35005-31.75687-13.56154-2.94387-1.42734-5.30754-2.23004-7.114-2.38614zm849.52169.14112c-2.1867-.16727-5.3238.64119-8.6691 2.42535-5.7093 2.85466-13.3821 6.24457-31.2237 13.38121-7.85029 3.21149-16.59181 6.77982-19.62489 8.02873-24.44303 10.52655-29.61621 12.66756-38.35862 16.05746-4.4604 1.78417-10.70619 4.28129-13.73925 5.53021-3.21149 1.42733-8.56312 3.5678-11.59618 4.81671-3.21149 1.42734-8.74205 3.74744-12.13197 5.17476-3.38991 1.60575-9.81462 4.10411-14.27504 5.88826-4.46041 1.60575-10.16919 4.10289-12.84544 5.53022-2.49783 1.42732-5.53125 2.49852-6.60176 2.49852-1.0705 0-5.17318 1.96083-8.91993 4.45866-4.99566 3.03308-7.31436 5.88983-8.20644 10.17182-.53527 3.2115-2.14276 9.45396-3.57007 13.91438-1.24891 4.46039-3.56711 12.48999-4.99444 17.84249-3.56832 13.02438-8.38608 29.43763-11.24074 39.07211-1.42734 4.46039-1.96361 8.56623-1.07154 9.45832.71367.71366 8.9229.17806 18.20054-1.24927 9.27764-1.42732 21.40994-2.67625 26.76243-2.67625 5.35248 0 14.6284-.89294 20.51613-1.78503 5.88773-1.07049 19.98349-2.67606 31.22371-3.38972 11.24022-.89209 28.18975-2.49696 37.46741-3.56746 9.27763-1.0705 25.69159-2.85692 36.21819-4.10584 10.8833-1.07049 19.6261-2.85239 19.9829-3.92289.8921-3.21149 5.8869-36.04199 8.92-59.05768 5.8877-43.89039 8.208-61.01731 9.8137-71.18702.8921-5.70933 1.2487-11.24057.7135-11.95424-.4683-.80288-1.4374-1.25346-2.7494-1.35381zm-24.899 188.93389c-.6314-.0502-1.2989.22632-1.968.82848-.5353.53525-9.992 1.60383-21.23223 2.49592-11.24022.89209-28.01204 2.49957-37.28968 3.57006-9.27764 1.0705-25.69019 2.85501-36.57359 3.92551-21.94519 2.3194-27.65625 3.92394-27.65625 7.67067 0 1.60575-1.06857 5.35302-2.49591 8.56451s-3.92707 9.45658-5.53281 13.91698c-2.85468 7.6719-19.44565 41.56976-23.19238 47.81434-19.62578 31.93649-43.89039 58.87665-72.25856 80.46501-16.94955 13.02438-27.29769 19.80403-37.46742 24.79968-4.4604 2.31942-9.27763 4.81915-10.70496 5.53282-2.67625 1.60575-10.52777 4.99461-21.76799 9.63343-9.8129 4.10357-18.02057 6.95945-24.62196 8.38677-3.38992.71367-9.81203 2.31925-14.27244 3.38975-47.28029 11.59704-97.94963 9.27607-148.0846-6.9598-26.76243-8.74241-58.16541-25.15477-81.18111-42.63957-25.51351-19.09053-63.69249-61.3771-72.79172-80.46762-.71367-1.42733-2.85676-5.17408-4.81932-8.02873-4.28199-6.95824-12.66582-24.08445-17.8399-36.5736-2.14099-5.35248-4.99669-12.49051-6.42402-15.70201-1.42732-3.21149-2.49852-7.3135-2.49852-9.09766s-1.06928-4.10428-2.3182-5.17477c-2.67624-2.141-37.28933-7.49296-49.42163-7.49296-4.99565 0-16.76991-1.07119-26.40438-2.49851-9.45606-1.42734-24.44338-2.85519-33.36419-3.21201-15.70061-.53526-16.05798-.53422-16.59322 3.74777-.71367 3.92516 3.39078 23.19341 7.13752 34.96889 1.07049 2.85465 2.49573 8.20627 3.2094 11.59619 3.21149 13.91646 14.63048 43.35687 25.33545 65.12365 5.70932 11.59705 13.38278 25.33511 17.66478 32.11491 1.78415 2.85467 3.92532 6.60141 4.63899 8.02873 2.85466 6.06616 21.40786 31.93651 32.64807 45.49614 11.95389 14.45171 51.02704 51.56247 66.90608 63.51635 21.05311 15.87905 50.67108 34.61275 63.33863 40.14365 1.42734.53524 7.49348 3.38972 13.38122 6.06597 5.88773 2.67625 14.2733 6.24457 18.7337 8.02873 4.46041 1.60574 9.99218 3.92464 12.49 4.81671 2.49784 1.07051 6.95649 2.49832 9.81116 3.21202 3.03307.8921 7.8503 2.3173 10.70498 3.2094 23.37251 8.0287 47.99586 12.4914 83.14386 14.8108 60.83993 3.9252 117.75453-3.2129 166.64057-21.05448 18.19845-6.77982 51.56142-22.30274 62.44481-29.26096 3.03308-1.78416 6.95736-4.10167 8.91994-5.17217 6.06616-3.03306 27.29769-17.3081 29.43868-19.62751.53524-.53525 6.06701-4.99393 12.49001-9.81116 35.68324-26.94085 72.79415-69.22566 100.27024-114.36496 3.74675-6.24457 25.5144-51.02775 28.54748-58.69963 5.53092-13.91647 8.20712-21.5875 10.70502-30.32989 9.6344-32.11493 14.2727-52.99014 12.8454-56.73689-.6691-1.89566-1.6186-2.88532-2.671-2.96895z" style="stroke-width:1.33812"/></svg>