<svg height="960" style="" width="2476" xmlns="http://www.w3.org/2000/svg"><path d="m2088.4423 59.999945v126.204245h122.1977v-89.144271a37.059973 37.059973 0 00-37.0599-37.059974zm145.5402 0v126.204245h122.1978v-89.144271a37.059973 37.059973 0 00-37.06-37.059974zm16.0259 16.552177h62.8068a27.339376 27.339376 0 0127.3391 27.339168v65.76071h-90.1459zm106.1719 145.037448-247.7075.004c-19.9519.0697-39.4577 1.90467-56.4097 4.90442l-1.4985.13889c-106.1573 16.08024-192.3457 97.61553-211.1914 204.24458-7.5946 42.97042-7.0022 79.23519-7.0838 119.0853-.089 43.71943-.7778 90.40836 4.3645 130.66654 15.5184 121.49078 118.6662 215.53694 244.0278 219.09479h275.4986v-139.52471l-265.1479.41278c-65.8548 0-116.8827-52.30913-122.0843-117.58677-4.5159-56.67248-.2116-108.93969 0-162.55799.1829-46.32132 26.8007-86.26558 66.3555-105.86859 20.8743-10.83452 44.5518-17.09592 69.7613-17.44033h251.1154zm-579.7567 1.49852-133.9374.004v389.95519h-214.8711v-389.27448h-134.6183v389.95723h-105.3227-.4128c-34.6018-3.34856-63.2875-26.49863-74.9378-58.58896-7.6552-20.04111-11.8512-41.73996-11.8512-64.44805v-267.46407h-139.52456v263.37543c.76738 27.34652 4.82632 53.96263 11.17433 76.98395l.27193 1.36158c21.27727 105.13071 114.2254 184.35106 225.6347 184.35106l578.3949-.13889zm-862.20969.13694-561.10921.006c-57.91275 2.84252-117.28795 15.60016-161.0947 55.65451-50.15147 42.68651-75.90552 109.61349-71.75674 174.8748-.11924 148.74704.1497 297.4926.15064 446.23972h399.62913v-270.0563h395.54246v-137.48029h-394.17892v-64.17417-.14085c1.32233-27.49081 18.72574-50.81545 43.32793-61.17713 15.32082-7.19901 32.39392-11.30932 50.41361-11.30932h299.0758zm-521.59409 16.55608h131.00301c-.73785.26418-1.48448.52194-2.21452.7923-79.49158 29.66842-136.12849 106.19793-136.12849 196.03013l.13107 446.84421h-133.9179c.17755-152.82329-.48456-305.66206.36583-458.47241 3.87742-82.25942 61.58886-158.33911 139.50507-184.74428.41717-.15488.83794-.29772 1.25593-.44995z" style=""/></svg>