<svg height="960" style="" width="1976" xmlns="http://www.w3.org/2000/svg"><path d="m391.52151 150.00765c-.43418 0-.84038.10601-1.16603.10601-87.38033.10854-174.80108.106-262.14522.106-2.82226 0-5.70976-.83191-8.58626.74202l.10602.106c.43416 3.31068 2.97906 4.98556 4.77011 7.10218l129.00557 152.00823c139.73617 164.5934 279.36832 329.27168 418.92359 493.97363 2.76794 3.58205 7.0937 5.83017 11.97832 5.83017h.95402c85.7168-.14464 171.55237-.14453 257.26917 0 .3454.0408.7146 0 1.06 0 5.1017 0 9.6836-2.34902 12.6143-6.14816 182.6484-215.35725 365.317-430.69697 547.9292-645.98187 1.7368-2.11666 4.6717-3.62359 4.3461-7.31419-1.4111-.10855-2.7256-.31801-4.0282-.31801-89.7683.0724-179.5151.0749-269.2473-.106-4.6676 0-7.3566 1.99201-10.0703 5.19413-61.8357 72.94359-123.6334 145.88267-185.5052 218.79005-73.414 86.29486-146.6894 172.66522-219.85003 259.17718-4.28761 5.04744-6.35678 6.12526-11.02431.31799-12.75427-15.79359-26.24466-31.01307-39.43312-46.5353-121.89826-143.57148-243.67472-287.25801-365.39208-430.90189-2.93077-3.74487-7.40664-6.14817-12.50835-6.14817zm1189.56479.10601c-4.3418 0-6.7773 1.83682-9.3282 4.87615-10.8547 12.86282-21.8459 25.72222-32.7549 38.58504-172.3365 203.01908-344.6759 406.03758-516.9763 609.09282-1.5739 1.89962-4.3664 3.30308-3.4981 7.10222h9.6463c84.9381 0 169.893-.27647 254.831.212 10.5292.0542 17.0716-3.36919 23.6387-11.1303 170.2741-200.84816 340.5516-401.70874 510.9341-602.52062 12.5915-14.81667 25.2287-29.62232 38.7971-45.6873-3.0936-.27137-4.1629-.53256-5.1941-.42401-90.0217.0724-180.0377.0387-270.0956-.106zm-1116.21076.63602c1.19402 4.9389 5.29591 6.55522 7.73821 9.54026 13.24274 16.06496 26.6661 32.28003 39.96312 48.01935 13.297 15.73932 27.0901 30.95625 40.38711 46.64128 16.49914 19.48419 32.52594 39.34742 49.07936 58.83161 16.55341 19.48418 33.69196 38.55117 50.24538 58.08957 16.55342 19.53847 32.52594 39.50519 49.07936 59.04366 13.45983 15.9564 27.56328 31.32091 41.02311 47.27731 22.30641 26.37693 44.32284 53.0142 66.35788 79.60822 3.25641 3.96196 5.64016 4.55387 9.22226.21199 10.90897-13.13419 22.21307-25.98345 33.28487-39.00908 27.8605-32.99829 55.7372-66.00846 83.7423-99.00676 26.3408-30.86348 52.7038-61.81664 78.9722-92.75253 28.3308-33.36013 56.6137-66.67049 84.9084-100.06676 21.2752-25.12864 42.575-50.4311 64.5558-76.42812z" style="stroke-width:54.2735"/></svg>