<svg height="960" style="" width="1200" xmlns="http://www.w3.org/2000/svg"><path d="m875.18212 825.60057c-7.21173 5.73989-13.24608 11.77424-13.68763 13.54035-.44146 1.76621-.58864 12.80454-.44146 24.57888.44146 18.25015.73582 21.34092 2.7964 21.78237 2.06048.29437 32.8208-21.19364 39.59098-27.81673 1.17747-1.17737 5.00406-4.26814 8.53638-6.91736 3.38514-2.7964 6.18145-6.03435 6.18145-7.35891 0-3.09077-24.87315-28.25829-27.96392-28.25829-1.17737 0-7.94765 4.7097-15.0122 10.44969zm-581.50252 2.64921c-7.06455 7.35892-12.80453 13.83473-12.80453 14.71783 0 3.8266 49.45202 42.82893 54.45608 42.82893 2.35485 0 2.94359-5.00406 2.94359-26.05062v-21.34082l-5.5928-5.44562c-10.74406-10.3025-20.75219-17.8086-23.54859-17.8086-1.61893 0-8.24202 5.73989-15.45375 13.0989zm18.39734-158.06982c-11.62716 6.91736-21.34093 12.51016-21.78248 12.51016-1.32456 0-20.605 12.36299-21.48801 13.83483-1.47184 2.20766 2.20767 7.94765 17.66142 28.40546 15.8953 20.89937 45.18378 51.95406 49.01047 51.95406 2.7964 0 2.7964-2.06058 2.50203-59.16579-.44155-51.36541-.73592-59.31296-2.64922-59.60733-1.17747-.29437-11.62715 5.15125-23.25421 12.06861zm549.71191-12.95172c-1.76611 1.61893-1.17737 119.36186.58874 120.39205 3.97387 2.50203 41.79874-39.00234 61.66782-67.4078 8.3892-12.06862 8.68357-14.27628 2.06048-17.8086-1.47175-.88301-5.59271-3.38504-9.12503-5.73989-3.53232-2.20776-6.62309-3.97388-7.06455-3.97388-.58873 0-27.0809-15.45375-32.96807-19.13315-3.23786-2.06058-13.09881-7.35902-13.68754-7.35902-.29437 0-1.03029.44156-1.47185 1.03029zm46.94999-150.85799c-.29437 2.64921-1.47174 10.74395-2.35485 18.10296-.8831 7.21173-2.7964 17.8086-3.97377 23.54849-2.35495 10.59687-11.77435 42.38748-13.83483 46.36125-3.82669 7.80047-10.15531 24.43169-10.15531 26.63936 0 1.61893 3.09077 4.41533 8.53638 7.5061 4.56252 2.64921 9.71377 5.5928 11.3327 6.62309 1.61902 1.03019 3.97387 2.20766 5.15125 2.7964 1.17747.58864 6.91736 3.97378 12.80453 7.5061 5.73999 3.53222 11.03842 6.32862 11.62716 6.32862.58864 0 2.20766.88311 3.38504 2.06048 3.6795 3.09077 16.18967 9.71387 18.54452 9.71387 3.6795 0 18.83889-34.29264 27.66954-62.55093 8.09484-25.60906 15.30657-64.75858 16.04249-86.0995l.44155-12.51017-42.24029-.44155-42.24019-.29437zm-700.42282-5.00407c-3.53232.73582-3.67951 2.64922-1.76612 22.37111 2.94359 29.73003 11.47988 68.73237 20.605 92.7225 7.80047 20.89937 20.45782 48.56892 22.22393 48.56892.58874 0 15.15938-8.24202 25.60907-14.42346 10.59686-6.32873 39.44388-22.95985 43.41766-25.02043 4.7097-2.50203 4.56261-4.12096-.58864-15.30657-8.24202-17.80859-17.80869-45.18377-17.80869-51.07094 0-1.76612-.58864-4.56252-1.47175-6.03436-1.17747-2.35485-6.62299-34.58691-7.65328-46.36125l-.44155-4.41533-39.88535-.73592c-21.92966-.44145-40.91563-.58864-42.24028-.29427zm727.50373-193.09829c-6.03436 3.67941-12.36308 7.21173-13.98201 8.09474-1.61893.73592-4.26814 2.20776-5.88717 3.23795-1.61893 1.03029-10.74405 6.32873-20.31063 11.77435-19.7219 11.62706-19.7219 11.62706-13.0989 26.34489 9.41949 20.75218 12.36298 29.58294 19.86918 60.78481 1.17737 4.85688 2.94348 15.15938 3.97377 22.81266 2.64922 22.07675 2.94359 23.25422 5.29844 24.13723 4.12096 1.61902 77.12156 1.03028 80.21233-.58864 2.64922-1.47184 2.7964-2.7964 2.06048-13.68764-.8831-12.2158-3.97377-33.99827-6.91736-47.39154-.73592-4.12096-2.06048-10.3025-2.7964-13.98191-1.32466-6.91736-7.5061-27.81673-10.89124-36.79467-11.77424-32.08488-20.89937-51.5125-24.13732-51.5125-1.32456.14718-7.35891 3.09077-13.39317 6.77027zm-689.23732-3.38513c-7.35892 11.33269-21.34092 47.68581-28.1111 73.14769-1.47174 5.29843-3.53232 12.95172-4.7097 17.07277-1.17747 4.12097-2.06048 9.27222-2.06048 11.47988 0 2.35485-.8831 7.94765-2.06048 12.51016-1.17747 4.56262-2.50203 14.1292-3.09077 21.48811-.44155 7.21173-1.17747 15.0122-1.61902 17.07278-.44145 2.50203.14719 4.85688 1.61902 6.32862 2.06048 2.06048 7.21173 2.35485 39.73816 2.35485 20.75218 0 39.00234-.58874 41.06282-1.47174 3.23795-1.17748 3.82669-2.35485 3.82669-6.91746 0-7.5061 4.12096-33.40954 6.62299-42.53456 1.17747-4.12097 2.20767-8.38921 2.20767-9.56658 0-5.88717 16.92559-51.95406 20.89936-56.81094 3.38514-4.26824-.14718-8.53639-13.0989-15.8953-7.06454-4.12106-15.74802-9.12513-19.42752-11.33279-3.82669-2.20767-7.80047-4.56251-8.97794-5.15125-1.17738-.58874-7.65329-4.26815-14.27628-8.09484-6.47581-3.82659-12.95172-7.06454-14.12919-7.06454-1.17738 0-3.09067 1.47184-4.41533 3.38514zm313.93189-51.80687c-19.13316 3.53232-32.52643 7.35891-44.88941 12.51016-30.46595 12.65735-55.48638 28.9942-76.38575 49.74639-35.76438 35.47001-55.48628 71.2344-66.5247 121.56952-2.64921 11.92143-2.7964 22.66548-2.7964 237.69333v225.18326l14.71793 9.71376c19.72189 13.0989 37.97205 22.66548 40.91563 21.48811 2.35485-.88311 2.50203-12.51017 2.50203-147.47296 0-99.49268.44156-146.44267 1.47175-146.44267.8831 0 3.53232 2.35485 6.03435 5.15125 6.32863 7.06455 24.72596 22.22393 38.85516 31.79061 41.21 27.96391 94.48861 41.50427 144.67655 36.79457 30.31876-2.94358 55.78065-10.00813 80.50661-22.37111 24.87324-12.51016 38.26641-21.63529 56.81093-39.2967 7.80047-7.35892 14.57075-13.0989 15.15939-12.51017.44155.44155.8831 66.96625.8831 147.62014 0 80.65379.44155 147.03141.8831 147.62005.44156.44155 2.64922 0 4.7097-.88301 7.06455-3.09077 36.20594-20.45782 44.15359-26.34499l7.65328-5.73999v-222.53394c0-212.37873-.14718-223.12278-2.7964-236.51605-5.15125-25.90344-9.12512-37.67768-21.19374-63.28675-21.04655-44.30077-67.11343-87.57125-114.65206-107.7347-20.01636-8.53638-29.43576-11.33278-53.42589-16.04248-19.42753-3.67951-56.95812-3.67951-77.26875.29437zm75.797 92.42813c10.74406 3.23795 11.47988 3.38514 23.54859 8.97794 30.31876 13.98191 57.39957 43.71203 69.3211 75.79691 6.91736 18.54452 8.3892 27.66955 8.3892 50.04076 0 25.60906-2.35494 36.5003-12.95172 60.34316-8.09483 18.54452-30.76031 44.44795-48.56901 55.92792-41.06281 26.34489-91.54503 30.0244-134.52114 10.00814-35.91157-16.77841-65.34732-51.65969-75.64982-89.48465-7.21173-26.78644-5.44562-62.10927 4.41533-86.83533 18.10296-45.77251 59.9017-80.35952 105.52703-87.71844 13.68764-2.20766 49.01047-.44155 60.49044 2.94359zm306.42579-169.40252c-7.06455 7.06455-12.80453 13.98191-12.80453 15.45375 0 1.32456 2.20766 5.00407 4.85688 7.94765 11.33279 12.80454 40.76845 54.16172 40.76845 57.39958 0 .58874.8831 2.06058 2.06048 3.23795 3.38514 4.12106 18.54452 33.99827 25.90341 51.65969 16.0425 38.70797 25.0205 71.82313 31.6434 117.15419 2.7965 19.28034 3.238 84.92203.736 101.40598-.8831 5.5928-1.9134 13.54045-2.3549 17.66141-.7359 7.5062-2.502 16.33686-7.9476 39.73826-8.8308 37.23622-26.93376 82.71437-45.33109 113.76905-2.64922 4.26815-4.7097 8.09484-4.7097 8.38921 0 2.64921-31.05469 46.06688-40.76845 57.1052-2.64922 2.94359-4.85688 6.62309-4.85688 8.09484 0 3.23795 25.02033 28.25828 28.1111 28.25828 1.32456 0 3.38514-1.17737 4.41533-2.7964 1.17747-1.47174 7.06464-8.83066 13.0989-16.48394 6.03435-7.5061 12.80453-16.33686 15.15938-19.72199 8.68357-12.36299 20.16341-30.0244 23.10701-35.47002 1.7662-3.09077 4.2683-7.80047 5.74-10.15532 3.8267-6.47581 13.982-26.63935 18.2502-36.05875 22.0767-49.5992 35.0284-98.16812 40.7684-151.88828 1.9133-18.69171 1.9133-75.35546-.1472-96.10764-3.5322-37.5305-15.1594-87.27688-27.8167-119.9505-1.7661-4.41533-3.6795-9.71376-4.4153-11.77424-2.0605-6.62309-18.8389-41.79874-25.6091-53.72026-19.1333-34.14536-56.95812-86.09941-62.55092-86.09941-1.32466 0-8.24202 5.73998-15.30657 12.95171zm-704.69097-11.62715c-1.17748 1.47184-7.35901 9.2723-13.83482 17.21996-10.44969 12.95171-19.13325 24.72596-25.75625 35.17564-17.95578 28.25828-31.64342 53.86735-43.1233 81.68408-10.3025 24.72606-20.31063 56.51657-25.16761 79.47642-8.68347 41.79874-10.3025 57.69404-10.15531 105.23276 0 40.47408 1.17747 58.57705 5.73998 82.42 3.53233 17.8086 10.74406 49.15756 13.39327 57.39958 15.60094 48.27464 30.0244 79.32923 58.28268 125.10184 1.03029 1.47175 8.3892 11.77425 16.48404 22.81267 15.74811 21.4881 25.16751 32.37924 27.81673 32.37924.8831 0 7.35891-5.73989 14.42346-12.80453 13.0989-13.0989 15.30666-17.21986 10.74405-21.04655-3.38504-2.79631-27.52236-35.02847-33.99817-45.33097-10.00823-16.18967-10.59687-17.07268-14.42356-23.84295-3.67941-6.32863-18.10296-35.47001-22.37111-44.88941-6.91746-15.60093-17.21996-46.50844-21.63529-65.49451-11.03842-46.65562-12.06861-55.19191-12.06861-105.96858 0-52.83707.88311-60.49035 12.65735-109.648 3.53232-15.0122 15.60093-52.24842 17.66142-54.45609.73592-.73592 1.32465-2.20766 1.32465-3.38513 0-2.50204 20.605-44.88941 26.93362-55.3391 9.56658-15.8953 23.4014-36.05875 34.43982-50.04076 17.51423-22.07674 17.36705-18.39733.73583-35.17564-7.80037-7.80047-14.71783-14.27638-15.15938-14.27638-.58864 0-1.9133 1.32466-2.94349 2.79641zm573.84924-14.1291c-1.17747 1.03019-6.18154 8.68348-11.03842 17.21986-4.85688 8.53639-13.24609 22.95985-18.69171 32.23216-5.29843 9.12503-10.15531 18.25015-10.59686 20.01627-.73583 2.94358 1.32465 5.00406 14.42355 14.86501 19.13316 14.42346 47.39145 42.97611 60.78472 61.37345 5.73998 7.80047 11.1856 14.27637 12.36298 14.27637 1.17747 0 8.83075-3.82669 16.92559-8.68357 8.24202-4.7097 17.51423-10.15531 20.75218-11.92143 3.23786-1.76621 11.33269-6.4759 18.10297-10.44968 6.62299-3.97388 12.80453-7.21173 13.54036-7.21173.73592 0 1.61902-1.32466 2.20776-2.7964.58864-1.9134-1.47184-6.03436-6.03436-12.80454-24.2845-35.91156-65.05295-76.82729-100.96452-101.1117-7.80046-5.44562-10.15531-6.32872-11.77424-5.00407zm-439.76965 7.65329c-37.08895 26.34498-73.88362 63.58111-97.28502 98.3153-6.18144 9.41939-7.21173 13.83472-3.09077 15.30657 1.32466.58873 10.44969 5.73998 20.16355 11.47987 9.71376 5.73999 18.6916 10.89124 19.86908 11.47997 1.17737.58874 3.53232 1.9133 5.15125 2.94359 10.89123 6.62299 22.95985 12.95172 24.13732 12.51017.73582-.14719 6.03426-6.6231 11.77424-14.1292 11.03842-14.57064 16.63113-20.89936 29.43576-33.85108 10.00813-10.00813 32.8208-29.43566 40.3269-33.99817 2.94358-1.76621 5.44561-4.41543 5.44561-5.73999 0-1.47184-2.64921-7.21173-6.03435-12.80453-3.38514-5.73999-6.62299-11.62716-7.35892-13.24609-.8831-1.61893-2.20766-4.26814-3.23795-5.88717-1.03019-1.61893-4.41533-7.5061-7.65328-13.24609-3.23796-5.5927-6.623-11.62706-7.65329-13.24598-.8831-1.61903-2.7964-5.00407-4.12096-7.65329-4.56251-8.68357-5.15125-8.53638-19.86917 1.76612zm245.78826-29.58295c0 25.46189.58873 42.24029 1.47174 42.82903.73592.44155 7.21183 1.47175 14.27638 2.35485 15.45375 1.76611 29.73002 4.7097 50.48221 10.44968 16.77841 4.56252 19.28044 5.44562 38.56078 13.68754 6.91746 2.94359 13.83482 5.15126 15.15938 4.85698 1.32466-.14718 4.85698-4.70979 7.80047-10.00823 6.77028-11.92142 23.25422-40.47408 28.69984-49.74629 5.44561-9.41949 5.88717-10.3025 5.00406-12.65735-1.17737-3.09077-19.42752-11.33278-52.54269-23.69577-24.72606-9.272304-77.26875-19.869084-98.3153-19.869084h-10.59687zm-73.58925-39.296614c-22.66558 3.8266-41.21 8.09475-65.49451 15.159394-18.6917 5.44562-59.60733 23.69577-59.60733 26.49207 0 .88311 1.61902 4.41543 3.38514 7.80047 17.07267 30.46605 27.81673 49.15765 28.9942 51.07105.73582 1.17737 2.50203 4.26814 3.82659 6.91736 3.97388 8.09483 5.29844 8.3892 14.86502 4.12096 19.42762-8.97784 27.0809-11.92143 42.38747-16.18957 18.98607-5.44562 31.64342-7.94765 49.5992-10.15532 8.68348-1.03029 16.77832-2.7964 18.10297-3.82669 1.9133-1.61893 2.20767-7.65328 2.20767-40.47408 0-21.34092-.44156-39.738264-.88311-41.062824-1.17737-2.94359-19.13316-2.94359-37.38331.14718zm10.3025-87.7184302c-38.11933 3.532225-86.24669 14.5706462-120.68651 27.8167312-4.41533 1.766113-9.71377 3.679409-11.77425 4.41533-18.10296 5.88717-63.72829 30.024395-87.57125 46.36125-14.12909 9.566579-18.25015 12.657349-32.37924 23.695773-16.18967 12.80454-21.34092 17.66142-21.34092 19.7219 0 2.35485 25.90343 27.96391 28.25828 27.96391 1.03029 0 8.53639-5.29843 16.63113-11.92142 13.0989-10.44969 48.12746-35.17565 50.04075-35.17565.44156 0 3.53232-1.76621 7.06455-3.97387 7.5061-4.709714 37.08904-19.427538 48.12746-23.990051 4.41533-1.76621 10.15532-4.268243 12.80453-5.298435 2.50204-1.177473 5.29844-2.060577 6.18144-2.060577.88311 0 3.67951-.883008 6.32873-2.060481 18.83879-7.800467 53.27861-16.042487 90.22047-21.635192 20.45781-3.09077 74.9139-3.385138 98.46248-.735921 24.4316 2.796402 56.95803 9.125028 73.73643 14.276278 15.74812 4.856881 40.3269 13.540453 52.5427 18.691704 15.60093 6.770178 44.74232 21.635291 48.42183 24.726065 1.17737 1.17737 2.64921 2.06048 3.23785 2.06048 3.23796 0 43.71204 28.84702 58.28278 41.50437 3.53222 3.09067 7.5061 5.5927 8.68347 5.5927 3.09077 0 28.25829-25.02033 28.25829-28.1111 0-1.32456-3.53223-5.29843-7.65329-8.83065-4.26814-3.38514-8.3891-6.91746-9.27221-7.80047-2.06048-2.20767-15.60093-12.510174-27.22799-20.605014-24.13732-16.778401-61.37355-37.530586-86.09951-47.833086-6.47581-2.649217-12.80453-5.445618-14.27628-6.034257-2.06057-1.177473-20.31073-7.358915-40.91573-13.834823-21.488-6.770178-62.69801-14.4234612-91.39784-17.0726782-19.7219-1.76620896-66.37752-1.61902496-86.68815.147184z" style="stroke-width:.147178"/></svg>