<svg height="960" style="" width="1220" xmlns="http://www.w3.org/2000/svg"><path d="m1041.3362 757.54881c-.6544 8.50723-.6544 26.83037 0 41.2272 1.3087 22.90395-1.9633 28.79354-21.5952 44.49908-17.0144 13.08801-27.48476 17.01434-39.26396 13.74236-16.35999-3.92633-43.19026 6.54406-43.19026 17.01445 0 26.17589 66.74862 35.99189 99.46862 14.39669 34.0287-22.90391 46.4623-45.80787 46.4623-87.03506 0-40.57264-8.5071-58.24144-28.7935-58.24144-8.5072 0-12.4336 5.23514-13.088 14.39672zm-90.96152-47.1167c0 3.92644-5.23514 9.16158-11.12474 11.12484-15.70553 5.8896-34.68314 26.83028-34.68314 37.30067 0 4.58079-4.58079 12.43366-9.81593 17.01444-13.74247 11.7791-12.43366 34.68315 4.58079 62.82223l14.39672 24.21276 18.32315-20.94078c20.28642-22.24948 28.13919-24.8671 34.02879-10.47038 5.23514 13.74247 47.11668 13.08801 52.35188-.65436 12.4336-32.71998-1.9632-68.05747-28.13913-68.05747-7.19841 0-15.05117-3.27198-17.01434-6.54395-3.92643-6.54406 8.50712-9.16158 30.75667-7.19842 13.088 1.30881 26.176-20.28643 20.9408-34.68314-3.272-7.85277-13.088-10.47039-39.26391-10.47039-19.63197 0-35.33761 3.27198-35.33761 6.54395zm13.08802 61.51353c0 5.23514-2.61763 11.12473-5.8896 13.74235-7.85277 4.58079-15.70553-7.85276-10.47039-16.35998 5.8896-9.81593 16.35999-7.85276 16.35999 2.61763zm-766.95544-52.35195c-3.9264 20.28643 5.23519 30.10236 27.48476 30.10236 24.86716 0 49.07991 13.08801 57.5871 32.06561 9.81598 20.28633 9.81598 33.37434 1.3088 33.37434-3.272 0-6.54399-7.19841-6.54399-16.36 0-9.81603-3.92639-16.35999-9.16159-16.35999-5.23519 0-10.47037-4.58078-13.08798-9.81602-5.23518-13.74238-27.48474-12.43355-43.19032 3.27207-13.74238 13.74237-18.32318 52.35185-6.544 52.35185 3.9264 0 6.544 3.27198 6.544 7.85276 0 3.92643-7.85279.65445-17.01437-8.50712-13.08799-12.43356-15.70558-19.63197-13.08799-34.02879 5.2352-24.21275-1.96319-50.38868-13.08797-50.38868-15.05117 0-28.79355 28.1392-28.79355 58.24144 0 54.96957 43.84472 98.81427 99.46863 98.81427 52.35191 0 62.1679-36.64628 11.12479-40.57271-32.06556-2.61763-43.84473-18.32317-13.74238-18.32317 11.12478 0 20.94077-3.92643 23.55836-9.81602 5.23519-14.39672 12.43357-11.7791 26.83036 9.81602 15.70557 22.90395 18.97756 23.55841 35.99193 6.54396 21.59516-21.59513 17.66877-64.7855-7.85279-96.85102-28.79355-35.33749-50.38871-47.1167-85.72624-47.1167-25.52157 0-29.44796 1.96317-32.06556 15.70554zm581.76052-206.78994c-5.8895 13.74236-11.12474 27.48473-11.12474 30.10225 0 11.12485-30.10236 43.19037-40.57275 43.19037-6.54395 0-15.70553 7.19841-19.63196 16.35998-3.92633 9.16157-15.05115 18.32316-24.21272 20.94078-28.13915 6.54396-53.00631 21.59513-53.00631 31.41106 0 14.39683 37.95513 12.43366 68.71191-3.27197 18.32315-9.81593 32.71987-12.43356 48.42551-9.81593 20.94078 3.92633 21.59513 3.27197 17.66869-13.08802-3.27197-13.74236.65446-25.52156 18.32326-51.04313 24.86711-38.60947 34.02869-84.41737 17.01435-88.34379-6.54406-1.30881-14.39683 7.1984-21.59524 23.5584zm-366.46329-20.94079c-9.16159 9.16158 5.88959 54.31511 28.79355 88.99826 14.39677 20.94068 22.24956 39.26394 18.97756 41.22709-3.92639 1.96317-6.54399 8.50712-6.54399 14.39672 0 7.85288 4.58079 9.16158 21.59517 5.8896 15.05116-2.61752 29.44795 0 47.11672 9.16158 25.52154 13.08801 56.27829 17.01444 64.13108 8.50722 7.85278-7.19841-16.35997-28.13919-41.22713-34.68314-15.70557-3.92644-26.83035-12.43356-31.41115-22.90395-3.92639-9.16157-13.08797-16.35998-19.63196-16.35998-10.47038 0-40.57273-32.06552-40.57273-43.19037 0-2.61752-5.23519-16.35989-11.12478-29.4479-11.12477-23.5584-20.94076-30.75671-30.10234-21.59513zm176.68768-44.49915c-14.39677 15.70562-13.74238 29.44798.6544 42.53589 15.70557 14.39683 29.44794 13.74237 42.53592-.65435 14.39678-15.70553 13.74238-29.448-.65439-42.53594-15.70557-14.39679-29.44795-13.7424-42.53593.6544zm45.80792-177.34211c-2.6176 1.9632-4.58079 6.54399-4.58079 9.16158 0 4.5808 41.22713 25.52156 66.74864 34.02874 5.8896 1.9632 11.7792 10.47039 13.08801 18.97757 1.30881 10.47038 7.19841 15.70557 17.6688 17.01437 17.01434 2.61759 39.26393 24.86715 39.91829 39.26392 0 15.70558 26.83038 60.85913 32.71998 56.93274 17.01434-10.47041 2.61762-68.05751-25.52157-103.39505-5.8896-6.54398-9.16158-20.28636-8.50722-30.75675 1.30881-17.66876 0-18.97756-24.86711-18.32316-15.05118 0-32.06552-3.9264-37.95512-9.16158-12.43361-11.12478-62.16792-20.94077-68.71191-13.74238zm-86.38064 0c-10.47039 1.9632-24.86716 7.85279-30.75675 13.08797-6.54399 5.88959-22.90396 9.81599-38.60953 9.81599-24.86716-.6544-26.17596.6544-22.90396 14.39677 2.61759 9.81598-.6544 20.94077-9.16158 32.06555-7.19839 9.16158-13.08798 19.63197-13.08798 22.90395 0 3.272-4.58079 9.81599-9.81598 14.39677-11.12479 9.16159-13.74238 62.16789-3.272 68.71191 5.88959 3.9264 32.71994-41.22715 32.71994-56.93273.6544-14.39677 22.90396-36.64633 39.91833-39.26392 10.47038-1.3088 16.35997-6.54399 17.66877-17.01437 1.3088-8.50718 7.19839-17.01437 13.08797-18.97757 26.17596-8.50718 66.74869-29.44794 66.74869-34.68313 0-4.58079-18.97756-15.05118-21.59517-12.43358-.65439.6544-9.81598 2.61759-20.94075 3.92639zm-27.48476-267.6491312c-11.12478 7.19838 29.44795 50.3887102 52.35191 56.2783002 20.94076 5.2352 17.66877 17.01438-4.58079 17.01438-15.05118 0-56.2783-37.30074-56.2783-51.04312 0-17.0143702-25.52155-21.5951602-57.5871-11.12478-118.44618 40.57274-232.96598 138.732551-282.04591 242.127571-64.78548 136.11496-70.02067 261.75962-17.66877 405.72733 4.58079 14.39671 15.70558 30.10236 22.90397 35.3375 12.43357 7.85276 15.70557 7.85276 25.52155-1.96317 6.54399-5.8896 21.59518-10.47038 32.71995-10.47038 11.77918 0 20.94077-1.96317 20.94077-4.58079 0-1.96317-9.16159-23.5584-20.28638-47.1167-19.63196-40.57274-20.94076-47.77116-21.59516-121.71824 0-77.21906 0-79.18227 22.90397-124.33578 17.01437-34.02874 32.71994-53.0063 60.20469-75.25588 20.28637-16.35996 34.02874-32.06554 31.41114-34.68313-2.61759-2.61759-18.32317-.6544-34.02874 4.58079-15.70557 5.88959-30.75674 10.47039-33.37434 10.47039-26.83035.65439 51.69751-64.1311 112.5566-92.92464 54.31511-26.17596 129.57098-44.49912 181.26848-44.49912 39.26393 0 58.24149-7.85279 37.30074-15.70558-5.88959-1.96319-51.04311-3.92639-101.43183-3.92639-54.96949 0-90.96144-2.61759-90.96144-6.54399 0-3.27199 6.544-7.85278 15.05118-9.16158 7.85279-1.30879 30.75675-5.88959 50.3887-9.81599 19.63197-3.92639 56.27831-8.50718 81.14546-10.470371 24.86716-1.9632 49.73431-6.54399 54.31511-11.12479 8.50718-6.54398 9.16158-5.88958 11.12477 9.16159 0 4.580791 12.43359 11.124781 26.83036 14.396771 62.16791 13.08798 128.26222 51.04311 175.37891 99.46863 30.75671 32.06554 69.36629 101.43182 70.02064 126.95337.65446 9.16158 3.27198 22.24956 6.54396 29.44795 4.58078 11.77917 5.23524 11.77917 9.81603-4.5808 7.85277-30.10234 1.30881-69.36627-20.94078-126.29897-10.47038-26.83035-61.51352-96.19663-88.34379-120.40938-13.74247-11.77918-15.05118-20.286371-3.27208-20.286371 22.24959 0 115.82863 118.446191 115.82863 146.585341 0 3.92639 3.27198 11.12478 7.19841 15.05117 8.50712 8.50719 25.52157 92.92464 25.52157 125.64457 0 11.77919-3.27198 33.37435-7.19842 47.11672-8.50722 27.48479-3.27197 54.96956 7.19842 38.60956 3.92633-5.23514 6.54395-19.63196 6.54395-31.41116 0-35.99194 16.35999-21.59517 18.32315 17.01441 2.61763 41.88149-18.32315 113.21093-43.19026 144.62211-43.84472 57.58709-136.76941 124.9902-172.76136 124.9902-15.70553 0-31.41117 7.19841-31.41117 13.74236 0 3.27198 7.19842 5.8896 15.70564 5.8896 20.28632 0 36.64631 6.54396 36.64631 13.74238 0 3.27198-6.54396 5.8896-14.39672 5.8896-26.83038 0-33.37433 9.81593-13.74237 18.9776 17.01435 7.85277 17.01435 8.50712 5.8895 15.05107-7.19831 3.92644-51.04307 7.19843-99.46858 7.19843-92.27024 0-98.15983-1.30882-179.30529-39.91829-37.30072-18.32315-102.08621-73.94707-111.90219-96.19666-3.272-7.19842-8.50718-17.66881-11.77918-22.90395s-7.85279-15.05117-9.81598-21.59513c-5.88959-19.63197-17.01438-11.7792-17.01438 11.7792 0 28.79354 25.52156 80.49103 55.62391 113.86536 25.52155 28.13909 32.71994 64.7855 11.77917 56.27828-20.94075-7.85277-23.55835-6.54396-29.44794 14.39682-3.27199 11.7791-8.50719 21.59513-11.77917 21.59513-11.12479 0-7.1984 36.64631 5.23518 47.11667 15.70557 13.7424 79.18226 42.5359 126.95337 57.5871 53.6607 17.0143 220.53241 18.9776 258.48752 3.2719 12.43356-5.2351 27.48474-9.8159 32.06552-9.8159 14.39683 0 95.54232-39.2639 111.9022-54.3151 15.05118-13.74231 15.05118-37.30071 0-68.71188-5.23514-11.12474-5.23514-18.32316.65446-27.48473 4.58079-7.19831 7.85276-20.28632 7.85276-28.79354 0-8.50712 5.23525-17.6687 11.12474-19.63197 7.85288-3.27198 9.16169-5.8896 3.27209-11.7792-12.43366-12.43356-9.16158-19.63197 5.8896-15.05118 11.77909 3.92643 13.0879 2.61762 9.16157-9.16158-2.61762-7.85276-1.30881-13.74236 2.61752-13.74236 3.92644 0 7.19841 2.61762 7.19841 6.54406 0 9.81593 20.94078 7.85276 35.3375-3.27208 16.35999-12.43356 52.35194-12.43356 62.82234 0 29.448 35.3376 78.5279-102.74062 78.5279-221.18677-.6544-71.32949-17.6688-142.65897-53.0063-217.26044-39.9184-83.76305-126.95341-168.834891-221.84126-216.606021-77.87341-39.26393025-111.9022-40.5727202-120.40942-6.54398-1.96317 9.16158-9.81593 17.66877-16.35993 20.28636-7.19839 1.9632-14.39677 7.85279-16.35997 13.08798-3.92639 11.12478-43.19032 13.74239-43.19032 3.27199 0-3.27199 7.85278-8.50718 17.66877-10.47038 22.90395-5.88959 63.47669-49.0799202 52.35195-56.2783002-13.74243-9.16158-49.07996-5.88959-53.00635 4.58079-2.6176 7.1983802-13.08798 9.8159902-36.64634 9.8159902s-34.02874-2.61761-36.64633-9.8159902c-3.92639-10.47038-39.26393-13.74237-53.00631-4.58079zm-129.57097 138.7325612c2.6176 3.9264-4.58079 6.54399-17.66876 6.54399-16.35998 0-18.97757-1.96321-11.77918-6.54399 12.43358-8.5072 24.21276-8.5072 29.44794 0zm405.72732 628.22288c11.12474 4.58079 9.16158 5.8896-8.50722 5.8896-13.08802.65445-20.28632-1.96317-17.66881-5.8896 4.58079-7.85276 8.50723-7.85276 26.17603 0zm-246.054-874.93125c-34.68313 30.102345-49.73431 72.638274-28.13915 81.145456 5.23518 1.963197 16.35997-2.617592 24.86715-10.470378 19.63197-18.323176 22.24957-17.66877 24.86716 7.19838 1.3088 17.014371 5.88959 22.2495708 21.59516 26.83036075 30.75674 8.50718005 55.6239-3.92639995 55.6239-28.13915075 0-23.55836 3.9264-24.212766 23.55836-5.88959 29.44792 27.4847508 47.11672-1.963197 24.21278-38.609537-22.90399-37.300731-41.22715-46.462311-87.03507-46.462311-34.68313 0-45.80792 2.61759-59.55029 14.39677zm83.10865 30.756751c5.23519 0 9.16159 2.617592 9.16159 5.235184 0 3.271997-14.39678 5.235194-32.71995 5.235194-17.66877 0-32.71993-1.963197-32.71993-4.580789 0-5.889589 26.17595-11.779179 37.95513-8.507192 5.23518 1.308801 13.08797 2.617603 18.32316 2.617603z" style="stroke-width:.654399"/></svg>