<svg height="960" style="" width="928" xmlns="http://www.w3.org/2000/svg"><path d="m463.99994 990c-34.96451-.137-37.29534-.4114-58.95974-7.5413-8.77538-2.8795-25.3663-10.0095-27.5602-11.9292-1.09688-.9598-2.60515-1.7823-3.2908-1.7823-4.3877 0-32.90788-21.5273-44.69988-33.8676-7.95269-8.0899-21.66416-25.5035-26.87454-34.0047-3.29068-5.3475-15.49415-30.714-15.49415-32.2223 0-.9598-.8227-3.2907-1.91959-5.2103-1.09689-2.0568-4.25055-8.364-6.99296-13.98579-5.48457-11.5178-5.34755-11.38075-15.76834-27.42329-9.3239-14.67144-33.18184-38.94074-44.56248-45.38518-24.40657-13.84874-39.90085-17.68793-71.84875-17.68793-21.66427 0-23.44671-.13716-24.8178-2.60526-2.05675-3.97634-1.6454-107.77311.41135-113.25769 2.33095-5.7589 4.93608-9.18675 10.55783-13.02593l4.79892-3.42796 54.84636-.8227c30.16547-.41135 56.3546-1.23393 58.2742-1.91959 20.01888-6.71864 30.43966-32.22223 21.39009-51.9669-4.38771-9.46093-10.83215-14.80837-29.89116-24.54361-8.50121-4.3877-16.59117-8.5012-17.82522-9.32377-4.11339-2.05675-6.71864-3.42808-23.03537-11.79212-8.63835-4.52485-26.18913-13.57431-39.07802-20.29307-12.75173-6.71864-24.81792-12.88901-26.73763-13.84874-8.50107-4.3877-15.08256-14.94564-15.08256-24.26953 0-10.9693 7.81554-22.76118 16.86524-25.50347 2.60513-.8227 36.0614-1.23393 85.97156-.95973 69.38053.27419 82.54373.68554 87.75413 2.4681 3.42783 1.09689 9.87227 3.15364 14.39714 4.52485 10.28362 3.15364 25.77764 10.2835 32.63345 14.9454 2.87945 1.9197 5.62185 3.56522 6.0332 3.56522 1.78245 0 13.84863 10.42068 23.72091 20.43011 17.55089 17.82509 31.12533 40.7233 37.43262 63.21028 5.89593 20.70453 5.7589 19.60775 5.7589 80.89844 0 52.10405-.2742 60.46809-2.33095 65.81552-5.89594 16.31685-8.36417 19.88184-26.18924 38.25531-14.80849 15.49415-20.15592 24.26954-25.6405 41.54612-3.56499 11.38064-3.83931 37.56965-.54851 48.95029 6.17025 20.97873 20.70454 40.86032 38.80382 52.78952 25.09223 16.728 56.76594 19.7445 84.73751 8.2268 16.59103-6.9928 37.43249-26.3261 45.38519-42.23149 7.81565-15.76834 9.87227-24.40657 9.87227-42.643 0-28.10873-6.71863-43.87695-28.79426-67.04959-16.04253-16.86522-18.78482-20.70441-22.48686-29.61696-1.37121-3.42784-3.15376-7.6785-4.1135-9.5982-.95986-2.33095-1.64528-21.25281-1.91959-59.50812-.41135-59.50824.13703-66.91266 6.71852-87.89139 4.25066-13.57444 12.20334-29.61686 20.97873-42.50574 7.95268-11.65484 35.78734-39.0779 39.76368-39.0779.41135 0 3.01648-1.64552 5.89593-3.56522 10.14647-6.8558 24.26953-12.61458 47.03071-19.19606 8.227-2.4681 14.80847-2.60526 91.18195-2.60526 80.76117 0 82.40668 0 86.65722 2.87933 10.83214 6.85579 15.35687 19.88184 11.24337 32.22234-1.78244 5.2104-8.36404 12.88877-13.57443 15.49403-1.91959.95973-13.84874 7.1301-26.73763 13.84874-12.75174 6.71876-30.43967 15.76833-39.0779 20.15604-16.59104 8.63835-19.05902 9.8724-22.89832 11.92915-1.37109.82257-9.46093 4.93607-17.96213 9.32377-19.05902 9.73524-25.50358 15.08268-29.89128 24.54361-9.18673 20.01888 1.0969 44.97407 21.38997 51.9669 1.9197.68566 28.10896 1.50824 58.27442 1.91959l54.84612.8227 4.79916 3.42796c5.62175 3.83918 8.22688 7.26703 10.55782 13.02593 2.05675 5.48458 2.4681 109.28135.41135 113.25769-1.37108 2.4681-3.15364 2.60526-24.81803 2.60526-18.92187 0-25.77766.54839-34.96452 2.74229-16.59091 4.11338-34.00453 11.92903-45.79641 20.97861-11.65484 8.7754-27.42318 26.18913-36.19856 39.90072-10.14659 16.17968-9.8724 15.6313-15.21984 26.87478-2.7424 5.62179-5.89606 11.92899-6.99295 13.98579-1.09689 1.9196-1.9197 4.2504-1.9197 5.0731 0 1.5083-12.34039 27.1491-15.49403 32.3595-6.0331 9.7353-21.52724 28.9313-30.02843 37.1582-21.25293 20.5674-47.8534 36.7472-72.39701 44.2885-4.9362 1.5083-12.6147 3.8392-17.13943 5.2104-6.99295 2.0568-13.16332 2.468-41.82044 2.468zm0-513.49841c-1.50836 0-4.79893-3.56488-8.36392-9.18663-7.67849-11.79199-34.27907-38.80393-48.81337-49.63607-6.3073-4.66189-11.38053-8.91254-11.38053-9.46105 0-.68554 5.34743-4.93609 11.79188-9.73513 16.17968-12.06618 34.14193-29.89127 45.79676-45.79665 5.48459-7.26714 10.42068-13.30011 10.96918-13.30011.54839 0 5.48471 6.03297 10.9693 13.30011 11.65483 15.90538 29.61696 33.73047 45.79653 45.79665 6.44444 4.79904 11.79211 9.04959 11.79211 9.73513 0 .54851-5.07336 4.79916-11.24348 9.46105-14.94565 11.10633-41.27193 37.98124-48.95042 49.63607-3.56499 5.62175-6.85579 9.18663-8.36404 9.18663zm-258.46306-100.09439c-62.25054 0-82.81804-.41135-84.05209-1.6454-2.33095-2.33094-2.33095-102.83691 0-109.55554 2.05675-6.0331 5.62174-10.6951 11.10645-14.12306 4.25053-2.74229 6.85579-2.87933 59.23393-3.70203 30.16547-.41135 56.35459-1.23405 58.27419-1.91959 1.91959-.68554 6.44444-3.42785 10.00955-6.03298 18.51052-13.84874 19.74468-43.19163 2.60526-57.86307-3.01661-2.60515-12.47766-8.36405-21.11588-12.75174-8.5012-4.38769-22.89833-11.79199-31.94791-16.45388-42.64301-22.21278-68.96942-35.78709-73.49427-38.11816-9.73512-5.07323-16.31661-14.94563-16.31661-24.81792 0-10.96929 7.81554-22.89832 16.86524-25.50358 2.60513-.68554 62.79904-1.23393 149.0448-1.09689l144.65709.27419.41135 87.06869c.2742 75.96212 0 88.57669-1.91959 98.7233-6.17025 32.08505-19.47049 57.31433-42.91732 81.30955-23.30967 23.99521-48.12772 36.88411-83.64062 43.46559-13.30023 2.60525-20.56726 2.74252-96.80357 2.74252zm516.92624 0c-76.23632 0-83.50357-.13727-96.80382-2.74252-35.5129-6.58148-60.3307-19.47038-83.64037-43.46559-13.9859-14.25998-22.07574-25.64062-29.75423-41.54599-6.71865-13.9859-9.18663-21.11578-12.61459-37.70681-2.4681-11.38066-2.60537-19.33334-2.74241-99.546 0-47.99056.41135-87.61696.95986-88.02831 1.50824-1.6454 287.12029-1.09713 292.74204.54827 9.59808 2.60526 17.55089 14.12306 17.55089 25.22939 0 6.71863-3.01648 14.12282-7.40418 18.37348-4.52485 4.38769-7.54146 6.17025-34.41625 19.88183-8.22688 4.25054-26.189 13.57443-39.76344 20.56738-13.57443 7.13-31.53667 16.45389-39.90071 20.70455-8.36404 4.25053-17.96225 9.87215-21.11589 12.61457-17.41374 14.94552-16.31661 44.28841 2.33107 58.13715 3.56511 2.60513 8.08972 5.34744 10.00932 6.03298 1.9197.68554 28.10895 1.50824 58.27442 1.91959 52.37813.8227 54.98339.95974 59.23393 3.70203 5.4847 3.42796 9.0497 8.08996 11.10645 14.12306 2.33095 6.71863 2.33095 107.2246 0 109.55554-1.23405 1.23405-21.80155 1.6454-84.05209 1.6454zm-258.46318-386.59788c-8.46699 0-16.93387-.89133-22.21278-2.67377-20.70454-7.12998-34.9644-20.84158-43.32843-41.820304-3.97635-9.735243-4.38782-12.066305-4.38782-25.366546.13704-18.64767 3.56499-29.34265 14.12294-43.60274 7.81565-10.42079 21.25293-19.88173 36.60991-25.50358 1.0969-.41135 9.46094-.8227 18.51064-.8227 13.16308-.13705 17.82509.41146 23.44683 2.60525 22.89832 8.63835 36.06141 22.21267 44.56261 45.93369 1.78256 4.9362 2.46798 10.96941 2.60514 21.39008 0 13.300241-.41135 15.631303-4.3877 25.366546-8.36403 20.978724-22.62412 34.690324-43.32867 41.820304-5.2789 1.78244-13.74578 2.67377-22.21267 2.67377z" style="stroke-width:.137116"/></svg>