<svg height="960" style="" width="1256" xmlns="http://www.w3.org/2000/svg"><path d="m161.02835 990-20.51318-20.5211-20.51317-20.5132 482.62114-479.37887c265.06545-263.44592 486.40586-481.550916 491.26446-484.250136 6.4782-4.3188 12.9522-2.15363 25.3687 8.6433498 9.1774 7.55789 16.7411 16.7342262 16.7411 20.5131862 0 3.77893-45.8897 52.36053-102.5738 108.50476-56.14421 56.14418-102.57381 105.81286-102.57381 110.6715 0 4.3188 36.7097 44.80741 80.97731 89.07495l80.9772 80.97724v70.18285 70.1751l-92.85501 92.8549c-72.3396 71.7998-97.1658 92.8565-109.0425 94.4761-12.9563 1.0797-16.7421 4.8602-20.5211 17.8165-5.9383 24.8331-186.7827 202.44307-205.6774 202.44307-8.6375 0-16.1965-4.3182-19.9754-10.2566-3.2391-6.4782-5.4011-56.69087-5.4011-125.79147v-114.4436l110.6715-110.6715c61.0028-61.0028 110.6715-112.8277 110.6715-115.527 0-9.7172-77.7387-84.75718-86.9161-84.75718-17.2751 0-25.9153 21.05303-21.5966 52.90405 5.3985 37.78943 1.0797 85.84273-8.0977 93.40063-4.3187 3.2391-7.5599 8.6307-7.5599 11.8698 0 8.0977-27.5276 36.1709-35.6253 36.1709-3.2391 0-9.1822 3.7789-12.9611 8.0977s-10.797 8.0977-16.1954 8.0977c-5.3985 0-16.7332 3.7789-24.831 8.0977-19.9743 10.2572-35.0901 10.2572-48.5863 0-16.19545-12.4165-48.04225-10.2581-57.75952 4.3178-7.55789 11.3368-6.47871 13.4983 26.45202 48.0486l34.54975 35.6331-1.08336 126.3213-1.62112 125.78357-15.64982 1.6211c-13.49619 1.6196-25.37551-8.6386-102.57379-84.75717-52.90513-52.9051-91.23224-86.9161-97.71042-86.9161s-51.29085 40.4886-116.07264 105.2704zm151.16014-302.85797c-2.69925 0-44.80846-39.4053-92.85495-87.9916l-87.45383-87.9995v-66.94064-66.94064l93.39269-93.3927c74.49905-75.03889 96.09034-93.3927 107.967-93.3927 11.33681 0 16.19597-3.7805 22.13431-17.81657 3.77893-10.2571 48.04385-57.76268 99.86928-109.58811 80.97724-79.357676 95.55788-91.233846 110.13378-91.233846h17.27094l1.62113 125.783596 1.08335 125.78359-111.20924 111.20923-111.20926 110.67155 49.12408 49.66184 49.12408 49.6697-71.79612 71.2584c-39.94877 39.4089-74.498 71.2584-77.19724 71.2584zm313.0513-87.1217c7.9657-.1772 15.275-2.6308 21.6519-7.3544 5.9384-4.3188 16.1997-8.0977 23.2177-8.0977 7.0181 0 14.0303-3.779 15.6498-8.0977 2.1595-4.3188 5.94-8.0978 9.7189-8.0978 10.2571-.5398 38.3308-44.8048 42.1097-67.4784 4.3188-25.9127-.5419-72.87949-7.5599-72.87949-2.6993 0-38.8712 34.00989-80.4395 75.03839l-75.0384 75.0384 17.2788 11.3399c11.84292 7.288 23.1694 10.8165 33.411 10.5888zm-130.04591-96.4294c-7.55789 0-12.95848-4.3198-15.65772-11.8777-2.1594-7.018-3.77209-29.689-3.77209-51.28292.53985-35.09014 2.15255-41.02585 19.96754-67.4784 19.97437-30.77135 44.26965-46.42854 88.53723-58.30519 19.43453-4.85863 28.61085-4.31564 52.90405 3.24225 16.1954 4.85863 30.7734 10.79382 31.8532 12.9532 1.0797 1.61954-3.7821 9.71884-11.34 17.81657-12.4165 13.49619-16.1913 14.57695-41.5641 11.8777-23.21349-2.69922-31.84894-1.08388-49.1241 9.17322-33.4706 19.43453-43.19103 37.25268-43.73086 76.12175-.53984 37.78932-10.25816 57.75952-28.07315 57.75952zm209.46531-210.54076c-4.8586 0-25.3776-16.73427-45.352-36.70864l-36.1709-36.70863 1.0834-123.62471 1.6211-124.162466 18.8921-1.62112c17.815-1.61954 23.7533 3.24014 113.3681 92.854966l93.9304 94.46816-69.0995 68.02404c-38.3292 37.24952-73.4141 67.4784-78.2727 67.4784z" style="stroke-width:.539847"/></svg>