<svg height="960" style="" width="1210" xmlns="http://www.w3.org/2000/svg"><path d="m636.09487 830.97849c-.9017 2.7052-1.6531 7.815-1.6531 11.4219 0 3.7573-1.0521 10.8209-2.2544 15.9307-4.0578 17.1329-6.763 32.6127-6.763 38.474 0 3.1561-1.052 8.2659-2.2543 11.422-1.6532 3.7572-2.4046 11.1214-2.5549 23.5954l-.1503 18.1849 5.4104 4.9596c6.3121 5.8612 9.9191 6.3121 25.8497 2.8555 5.8613-1.2023 14.578-2.2544 19.6879-2.2544 4.9595 0 12.474-1.052 16.5318-2.2543s10.2196-2.2543 13.6763-2.2543c13.3757 0 27.5029-7.5145 27.5029-14.4278 0-3.9075-3.0058-5.4104-9.0174-4.0578-5.2601.9017-5.7109-.7514-1.9537-6.4624 2.2543-3.607 2.2543-4.0578-.3006-8.5665-1.6532-2.7052-12.3237-14.2775-23.896-25.8497-18.3352-18.3353-32.4624-36.0694-32.4624-40.8787 0-.7514-1.2023-2.4046-2.5549-3.7572-1.5029-1.3526-5.711-6.6127-9.4682-11.5723-7.6648-10.2196-10.9711-11.4219-13.3758-4.5086zm-58.0115-4.9596c-2.4047 1.8035-14.4278 18.0347-23.5954 32.0116-4.659 7.0636-11.5723 16.3815-15.3295 20.8902-3.7573 4.5087-6.9133 8.5665-6.9133 9.1676 0 .7515-3.0058 3.3064-6.6127 5.711-10.37 7.2139-33.6648 31.2601-36.37 37.422-1.9538 4.9595-1.9538 6.1618-.1503 10.2197 2.5549 5.2601 8.5665 7.5144 23.7457 9.1676 5.2601.4509 12.1734 1.8035 15.4798 3.0058 6.1618 2.104 13.2254 2.5549 14.8786.9017.6011-.4509 0-2.104-1.2023-3.4566-1.8035-1.9538-1.9538-3.4567-.9018-6.4625 3.3064-8.7167 7.6648-6.1618 7.6648 4.5087 0 5.5607.4508 6.4624 3.156 6.4624 1.8035 0 10.0694 1.0521 18.6359 2.5549 14.7283 2.4047 15.4798 2.2544 19.0867-.3005 6.6127-5.1099 8.7168-13.2255 8.7168-32.9133 0-10.9711-.9018-20.8902-2.1041-25.5492-2.7052-9.3179-6.9133-33.2139-6.9133-38.6243 0-2.2543-1.052-6.4624-2.2543-9.3179-1.2023-3.0058-2.2543-8.4162-2.4046-11.8728-.3006-11.2717-2.7052-16.3816-6.6127-13.5261zm-30.0579-44.9364c-3.3063 1.6532-7.0636 3.3064-8.2659 3.7572-1.2023.4509-3.3063 1.5029-4.5086 2.1041-1.2024.7514-4.9596 2.5549-8.2659 4.2081-5.4104 2.5549-6.0116 3.4566-5.5607 7.815.6011 5.711-3.0058 6.763-6.0116 1.8035-2.2543-3.607-8.7168-3.9075-14.4278-.9018-2.2543 1.2023-8.7167 3.607-14.578 5.4104-5.711 1.8035-11.1214 3.7573-12.0231 4.3584-.7515.7515-3.1561 1.6532-5.2601 2.1041-2.1041.4508-7.5145 2.2543-12.0232 4.0578-4.5086 1.8034-9.919 3.6069-12.0231 4.0578-2.104.4508-4.659 1.6532-5.8613 2.5549-2.104 1.6532-10.8208 5.1098-16.2312 6.4624-1.8035.4509-4.2081 1.6532-5.1098 2.8555-.9018 1.2023-2.7052 2.1041-3.9075 2.1041-1.3526 0-7.8151 3.3063-14.5781 7.5144-12.0231 7.3642-42.6821 35.318-48.2428 44.0347-2.4046 3.7573-2.4046 4.3584-.1503 6.9133 1.3526 1.5029 7.6648 5.2601 14.1272 8.4162 6.3122 3.1561 15.3295 7.6648 19.9885 9.9191 4.6589 2.4046 9.4682 4.3584 10.8208 4.3584 1.2023 0 3.0058 1.052 4.0578 2.2543s3.1561 2.2543 4.8092 2.2543c1.6532 0 4.8093.9018 6.9133 2.1041 7.8151 3.9075 15.4798 6.9133 18.0347 6.9133 1.5029 0 4.0578 1.052 5.711 2.2543 4.0578 3.0058 23.5954 3.1561 26.1503 0 1.052-1.2023 2.7052-2.2543 3.6069-2.2543 1.0521 0 4.0579-2.4046 6.9133-5.2601 4.8093-4.9596 4.9596-5.4104 2.555-7.9653-1.3526-1.5029-2.555-4.0579-2.555-5.4105 0-2.104.7515-2.5549 3.7573-1.8034 6.4624 1.6532 21.9422-9.9191 43.4335-32.3122 18.9364-19.9884 29.3064-34.5665 29.4567-41.6301 0-1.9537.9017-5.2601 2.104-7.5144 2.8555-5.5607 4.659-21.3411 2.4047-21.3411-.9018 0-3.607 1.0521-6.1619 2.2544-5.2601 2.7052-7.3642 1.9537-7.3642-2.8555 0-1.9538-1.052-4.3584-2.2543-5.4104s-2.2543-3.1561-2.2543-4.659c0-4.2081 5.4104-3.6069 8.4161.9018 1.9538 2.8554 3.0058 3.4566 5.1099 2.2543 1.5029-.9017 3.0058-3.0058 3.3063-4.8093.3006-1.9537 1.6532-3.6069 3.4567-3.9075 4.9595-.9017 5.711-2.7052 3.0058-6.9133-3.1561-4.6589-2.8555-4.6589-10.5203-1.052zm-44.3352 31.8613c0 1.5029-1.0521 2.8555-2.2544 2.8555-2.2543 0-3.1561-4.659-1.3526-6.4625 1.6532-1.5028 3.607.4509 3.607 3.607zm0 23.1445c0 1.2023-1.0521 2.2543-2.2544 2.2543s-2.2543-1.052-2.2543-2.2543 1.052-2.2543 2.2543-2.2543 2.2544 1.052 2.2544 2.2543zm-44.3353 12.7746c.7514 1.2023 1.6532 1.052 3.156-.1503 2.4047-1.9538 4.9596-.4509 9.7688 6.3121 2.4047 3.4567 2.5549 4.8093 1.2023 7.9653-1.052 2.1041-2.7052 3.9076-3.7572 3.9076-4.0578 0-6.6127-1.9538-6.6127-4.9596 0-1.6532-2.104-4.8092-4.8093-7.0636-2.8554-2.4046-4.208-4.6589-3.6069-5.7109 1.3526-2.2544 3.4567-2.2544 4.659-.3006zm3.0058 67.7804c1.5028 2.2543-.1503 3.4566-3.0058 2.2543-1.3526-.4509-1.9538-1.5029-1.5029-2.4046 1.2023-1.9538 3.3063-1.9538 4.5087.1503zm194.6243-134.9596c0 3.6069.7515 7.2138 1.6532 8.1156.9017.9017 2.5549 5.8612 3.7572 11.1214 2.1041 9.4682 3.1561 13.3757 6.763 26.9017 2.1041 8.1156 10.6706 25.3989 15.1792 31.2601 1.8035 2.2544 17.8844 18.6359 35.7688 36.37 36.0694 35.7688 41.7804 39.9769 53.3527 38.3237 3.6069-.6011 7.5144-1.9537 8.4162-3.1561.9017-1.2023 3.0057-2.104 4.6589-2.104s5.1098-.9017 7.6648-2.1041c2.7052-1.052 7.815-3.156 11.5722-4.6589 9.1677-3.4567 13.8266-5.5607 27.0521-12.0231 12.0231-5.8613 13.8265-6.9133 23.2948-12.7746 3.3063-2.1041 7.2138-4.3584 8.7167-4.9596 1.3526-.4508 3.0058-1.9537 3.4567-3.156 1.3526-3.4567-12.7746-21.0405-24.0463-29.7573-16.3815-12.9248-27.052-20.4393-28.8555-20.5896-.9017-.1503-2.5549-1.2023-3.6069-2.4046s-2.8555-2.2543-4.2081-2.2543c-1.2023 0-3.4567-.9018-4.659-1.9538-1.3526-1.052-5.4104-3.1561-9.1676-4.659-3.7572-1.5028-8.5665-3.6069-10.8208-4.8092-2.1041-1.2023-4.9596-2.1041-6.3122-2.1041-1.2023 0-4.5086-.9017-7.2138-2.104s-7.3642-3.1561-10.5203-4.5087c-3.0058-1.3526-6.6127-2.4046-7.9653-2.4046s-4.3584-.9017-6.4624-2.104c-2.2544-1.2024-8.1156-3.3064-13.0752-4.8093-4.9595-1.5029-10.3699-3.6069-12.0231-4.659-1.6532-1.052-4.659-1.9537-6.763-1.9537-2.1041 0-5.1098-.9017-6.763-1.9538-1.6532-1.052-5.711-2.8555-9.0174-3.9075-7.2138-2.4046-16.5318-6.4624-28.104-12.3237-4.8093-2.4046-9.318-4.3584-10.2197-4.3584-.7514 0-1.5029 2.8555-1.5029 6.4625zm63.1214 32.0115c0 1.2023-1.052 2.1041-2.2543 2.1041-2.2543 0-3.1561-3.1561-1.3526-4.9596 1.5029-1.3526 3.6069.3006 3.6069 2.8555zm40.5781 15.9307c0 1.3526-.6012 2.8555-1.3526 3.3063-1.6532 1.0521-7.9653-9.3179-6.763-11.2716 1.2023-1.9538 8.1156 4.8092 8.1156 7.9653zm-158.1041-78.9018c-1.5029 1.5029-5.5607 5.1098-9.318 7.9653-7.2138 5.711-17.4335 21.1908-17.4335 26.6012 0 1.8035-.9017 5.5607-2.104 8.2659-2.5549 6.0116-6.1619 21.9422-5.1099 22.9942.3006.4509 4.9596-3.6069 10.2197-9.0173 5.1098-5.4104 10.2197-9.6185 11.1214-9.3179 3.4566 1.052 7.2139 11.7225 7.815 23.1445.4509 6.4624 1.6532 16.0809 2.8555 21.4913s3.3064 16.8324 4.659 25.5492c1.3526 8.7167 2.7052 16.682 3.0058 17.7341 1.052 3.4566 3.6069.3005 3.6069-4.3584 0-2.4046.9017-8.7168 2.104-13.8266 3.607-15.7804 5.5607-28.1041 6.4625-39.2255.4508-5.8612 2.104-14.8786 3.7572-20.1387 4.0578-12.3237 6.6127-12.3237 18.0347 0 7.2139 7.815 8.7168 8.8671 9.6185 6.6127.6011-1.5029 0-4.9595-1.5029-7.815-1.3526-2.8555-2.4046-6.9133-2.4046-8.8671 0-1.9537-.9018-5.8612-2.1041-8.5664s-2.5549-6.6128-3.0058-8.7168c-1.3526-6.6127-9.4682-17.133-19.3872-25.2486-10.5203-8.4162-16.3816-9.9191-20.8902-5.2601zm-405.48-7.815c0 2.104 1.052 4.2081 2.2544 4.6589 1.2023.6012 2.2543 1.5029 2.2543 2.2544 0 2.2543 14.4277 22.5433 27.6532 38.9248 12.6243 15.6301 47.4913 50.948 61.7688 62.37 4.0578 3.3064 8.5665 7.0636 9.9191 8.2659s4.6589 4.2081 7.3641 6.763c4.8093 4.2081 5.711 4.5087 17.133 4.3584 15.3295-.3006 18.7861-2.2543 39.9769-21.9422 8.5665-8.1156 16.2312-14.7283 16.9827-14.7283.7514 0 3.9075-1.8035 6.9133-4.2081 6.4624-4.9596 10.6705-7.5145 13.6763-8.7168 1.2023-.4509 6.1618-2.8555 10.9711-5.2601 4.6589-2.4046 9.7688-4.3584 11.2716-4.3584 1.5029 0 3.9076-.9017 5.5607-1.9538 1.6532-1.052 7.0636-3.3063 12.0232-4.8092 4.9595-1.6532 10.3699-3.7572 12.0231-4.8093 1.6532-1.052 4.8093-1.9537 7.0636-1.9537s4.3584-.6012 4.8092-1.3526c.6012-.7515 6.6128-3.1561 13.6763-5.4104 7.0636-2.2544 13.2255-4.659 13.6764-5.4104.4508-.7515 2.104-1.3526 3.9075-1.3526 1.6531 0 5.4104-1.0521 8.4162-2.4047 3.156-1.3526 7.815-3.3063 10.5202-4.5086s6.1618-2.1041 7.6647-2.1041 3.607-1.052 4.659-2.2543 3.0058-2.2543 4.3584-2.2543 7.2139-2.7053 12.9248-6.0116c5.8613-3.1561 13.2255-7.2139 16.5318-9.0174 3.4567-1.8034 8.8671-5.4104 12.0232-8.2659 9.6185-8.1156 7.0636-8.7167-25.6995-6.0115-35.1676 2.8555-66.2775 2.8555-126.0925 0-28.1041-1.2023-82.2081-2.1041-136.3122-2.1041l-89.8729-.1503zm291.2603 11.5722c1.052 1.0521 1.8034 5.711 1.8034 10.37 0 7.815-.4508 9.0173-4.6589 12.474-4.9596 4.2081-5.1099 4.2081-9.9191 3.0058-2.2543-.6012-3.4567-2.1041-3.4567-4.3584 0-1.8035-1.052-4.2081-2.2543-5.2601-3.7572-3.1561-2.5549-6.4625 4.659-12.474 7.3641-5.8613 10.8208-6.7631 13.8266-3.7573zm-168.4741 2.4047c4.2081 3.3063 5.4104 10.8208 1.6532 10.8208-2.7052 0-8.7168-6.1619-8.7168-9.0174 0-4.9595 2.2543-5.5607 7.0636-1.8034zm215.9654.7514c2.7052 1.9538 2.5549 2.2543-1.3526 5.2601-2.2543 1.8035-5.1098 3.3064-6.1618 3.3064-2.555 0-5.5607-5.5607-4.5087-8.4162 1.052-2.7052 8.4162-2.7052 12.0231-.1503zm-90.3237 1.9538c1.2023 1.2023-.4509 5.1098-2.1041 5.1098-.7514 0-1.3526-1.3526-1.3526-3.0058 0-2.8555 1.6532-3.9075 3.4567-2.104zm10.6705 5.8612c3.3064 2.5549 1.9538 5.2602-2.8555 5.2602-4.2081 0-5.711-1.8035-4.3584-5.1099 1.052-3.0058 3.4567-3.0058 7.2139-.1503zm-32.1619 5.1099c0 1.5029-1.052 3.6069-2.2543 4.6589-1.8035 1.5029-2.4046 1.3526-3.1561-.6011-.4508-1.3526-.6011-3.4567 0-4.659 1.2023-3.1561 5.4104-2.8555 5.4104.6012zm29.3064 15.9306c0 3.7572-4.9595 4.659-9.0173 1.6532-3.0058-2.1041-3.0058-2.2544.7514-3.7572 5.2601-2.1041 8.2659-1.3526 8.2659 2.104zm-137.5145 14.578c0 4.3584-1.9538 8.7168-3.7572 8.7168-2.5549 0-4.0578-4.2081-3.0058-7.6647 1.052-3.1561 6.763-3.9075 6.763-1.0521zm650.0003-64.7745c-69.4336 1.3526-142.6244 3.7572-177.9423 5.8612-29.0058 1.8035-78.7515 1.3526-128.1966-.9017-10.8208-.4509-19.237-.3006-19.237.4509 0 1.3526 9.7688 10.9711 11.1214 10.9711.6012 0 3.7572 1.8034 7.3642 4.0578 9.1676 5.8612 28.4046 15.1792 43.1329 20.7399 3.7573 1.5029 8.8671 3.6069 11.5723 4.6589 2.5549 1.2023 5.8613 2.1041 7.5145 2.1041 1.5029 0 4.2081.9017 5.8612 2.104 1.6532 1.2023 8.5665 2.5549 15.3295 3.1561 10.0694.9017 12.3237 1.6532 13.0752 3.9075 1.2023 3.9075 3.6069 3.6069 5.1098-.6012 2.104-5.1098 7.6647-10.3699 10.2197-9.4682 1.2023.4509 3.156.9018 4.3583.9018 3.7573 0 2.2544 3.6069-3.156 7.3641-7.9654 5.4104-6.9133 8.2659 4.2081 12.1734 5.1098 1.8035 11.1214 4.2081 13.3757 5.4105 2.104 1.2023 4.659 2.104 5.5607 2.104 1.9537 0 21.7919 9.6185 27.9538 13.526 2.5549 1.6532 5.5607 3.4567 6.763 4.0578 2.8555 1.2023 19.3873 13.8266 22.8439 17.2833 1.5029 1.5029 3.1561 2.7052 3.9075 2.7052.6012 0 4.0578 2.8555 7.6648 6.3121 9.4682 8.7168 20.289 14.7283 26.6011 14.7283 4.2081 0 7.9654-1.9537 17.5839-9.3179 14.578-11.1214 51.5491-46.7399 63.7225-61.7688 4.8093-5.711 10.9711-12.9249 13.5261-15.9306 3.9075-4.2081 4.9595-6.763 4.9595-11.7226 0-6.1618 1.9538-9.4682 3.7572-6.4624.4509.7514 1.5029 1.5029 2.2544 1.5029 1.5028 0 12.02313-14.4278 12.02313-16.5318 0-.9018.6011-1.5029 1.5029-1.5029 1.9537 0 6.4624-10.8208 4.9595-11.8728-.7514-.4509-22.84393-.4509-49.29483 0zm-188.6128 25.3988c0 1.6532-.6012 3.0058-1.3526 3.0058-1.6532 0-3.3064-3.9075-2.1041-5.1098 1.8035-1.8035 3.4567-.7515 3.4567 2.104zm-6.763 5.2601c0 2.1041-1.2023 3.1561-4.0578 3.4567-4.5087.6011-5.711-2.1041-2.4047-5.4104 2.7053-2.7052 6.4625-1.5029 6.4625 1.9537zm30.8092 5.2601c0 3.9076-2.2543 4.9596-4.5086 2.2544-1.5029-1.8035-1.5029-2.7052 0-4.5087 2.2543-2.7052 4.5086-1.6532 4.5086 2.2543zm-1.6531 18.6359c3.9075 4.8092-2.8555 9.4682-9.7688 6.9133-4.0578-1.6532-4.2081-2.1041-2.1041-6.1619 1.9538-3.3063 9.3179-3.9075 11.8729-.7514zm64.474 23.4451c.6011 3.7572-7.6648 12.6243-10.8208 11.5722-3.7573-1.2023-2.7052-7.3641 2.104-11.8728 5.4104-4.9595 7.9653-4.8092 8.7168.3006zm-582.3702-249.029c.6011 4.2081 5.711 14.4277 13.526 27.3526 5.711 9.4682 22.0925 28.8555 30.9595 36.9711 11.5723 10.2197 30.8093 23.896 33.9654 23.896 1.052 0 2.7052 1.052 3.7572 2.2543s2.4046 2.2543 3.1561 2.2543c.7514 0 5.5607 1.9538 10.8208 4.3584 12.7746 5.8613 19.6879 8.2659 35.6185 12.3237 3.7572.9018 10.2197 2.5549 14.2775 3.7573 4.2081 1.052 15.63 3.0057 25.5491 4.3583 9.9191 1.2023 22.3931 3.0058 27.8035 3.9076 5.4104.9017 13.526 2.104 18.0347 2.7052 4.5087.6011 10.6705 1.8034 13.526 2.7052 9.0173 3.0057 23.896 6.4624 27.3526 6.4624 1.9538 0 4.8093 1.052 6.3122 2.2543 1.6531 1.2023 5.1098 2.2544 7.815 2.2544 2.5549 0 7.3642.9017 10.5202 2.104 3.3064 1.052 11.1214 2.5549 17.5838 3.0058l11.5723 1.2023v-5.1098c0-7.6648-3.3064-10.9711-18.4856-18.4856-7.5144-3.9075-19.237-9.6185-25.8497-12.9248-6.6127-3.3064-13.0751-6.6128-14.2774-7.5145-1.9538-1.2023-4.659-2.4046-15.7804-7.5145-1.6532-.7514-4.0578-1.9537-5.2601-2.7052-5.2601-3.156-22.6937-10.6705-24.6474-10.6705-1.052 0-2.8555-.9017-3.7572-2.104-.9018-1.2023-3.607-2.4047-5.8613-2.8555-2.2544-.4509-8.7168-2.5549-14.4278-4.659-5.711-2.104-11.8728-3.9075-13.6763-3.9075-1.6532 0-4.5087-1.052-6.1618-2.2543-1.5029-1.2023-4.2081-2.2544-5.711-2.2544-3.607 0-17.8844-4.0578-24.6474-6.9133-2.7052-1.2023-6.6127-2.104-8.5665-2.104s-5.8613-.9018-8.5665-2.1041-9.3179-3.3063-14.7283-4.8092c-5.4104-1.3526-11.2717-3.4567-13.0752-4.659-1.8034-1.052-4.2081-1.9537-5.4104-1.9537-2.104 0-22.5433-8.7168-26.6011-11.2717-1.2024-.7515-4.659-2.7052-7.5145-4.3584-2.8555-1.5029-7.2139-3.9075-9.7688-5.2601-4.2081-2.2544-14.1272-8.8671-28.4046-18.6359-3.1561-2.2543-7.2139-4.0578-8.8671-4.0578-2.5549 0-2.8555.7515-2.104 4.9596zm654.5089-9.6185c-1.3526 3.6069-31.2601 24.1965-47.0404 32.4624-4.0578 2.1041-8.5665 4.3584-9.7688 5.1098-1.2023.6012-4.9596 2.4047-8.2659 3.9076-3.3064 1.3526-7.8151 3.6069-10.0694 4.6589-2.104 1.2023-5.1098 2.1041-6.4624 2.1041s-4.3584.9017-6.4625 2.104c-2.2543 1.2023-8.4162 3.3064-13.8266 4.8093-5.4104 1.3526-11.5722 3.4566-13.8266 4.6589-2.2543 1.052-6.1618 1.9538-8.5664 1.9538-2.5549 0-6.763.9017-9.4682 2.104s-9.318 3.3064-14.7284 4.659-12.0231 3.4566-14.7283 4.659c-2.7052 1.2023-6.0116 2.104-7.2139 2.104-1.3526 0-4.8092 1.052-7.815 2.4046-3.1561 1.3526-7.815 3.3064-10.5202 4.5087-2.7053 1.2023-6.1619 2.104-7.5145 2.104-1.5029 0-4.0578 1.0521-5.711 2.2544-1.5029 1.2023-3.7572 2.2543-4.659 2.2543-1.052 0-6.3121 1.9538-11.4219 4.5087-5.2601 2.4046-10.5203 4.5087-11.5723 4.5087s-3.1561.9017-4.3584 1.9537c-1.3526 1.052-5.4104 3.3064-9.1676 4.8093s-7.815 3.7572-9.1676 4.8092c-1.2023 1.052-3.3064 1.9538-4.3584 1.9538s-5.5607 1.9537-10.0694 4.5087c-4.3584 2.4046-9.0173 4.5086-10.2196 4.5086-1.2024 0-2.2544.6012-2.2544 1.2023 0 .7515-5.2601 3.9076-11.5722 7.0636-6.4625 3.1561-13.5261 7.3642-15.7804 9.4682-5.1098 4.659-5.711 11.422-1.2023 13.8266 3.4566 1.9538 18.0347.6012 26-2.4046 3.0058-1.2023 7.5145-2.104 9.7688-2.104 2.4046 0 5.5607-1.0521 7.2139-2.2544 1.5029-1.2023 4.3584-2.2543 6.3121-2.2543 3.7572 0 18.3353-3.4567 28.8555-6.9133 3.7572-1.2023 9.9191-2.1041 13.8266-2.1041s8.8671-.7514 11.2717-1.6531c4.0578-1.6532 6.9133-2.1041 37.2717-5.8613 8.2659-.9017 17.2832-2.7052 19.9884-3.9075s7.0636-2.1041 9.7688-2.1041c4.8093 0 15.1792-2.8555 24.7977-6.9133 2.7052-1.2023 6.1619-2.104 7.6648-2.104s3.6069-1.052 4.6589-2.2544c1.0521-1.2023 2.7052-2.2543 3.7573-2.2543 1.9537 0 12.7745-4.8092 18.0347-7.9653 1.6531-.9017 6.4624-3.7572 10.5202-6.1619 17.4335-10.5202 44.3353-36.9711 52.7515-52 1.5028-2.8555 3.3063-5.5607 3.9075-6.0116 1.8034-1.3526 11.7225-21.0404 11.7225-23.2948 0-1.052 1.052-2.7052 2.2544-3.7572 2.8554-2.4046 3.0057-9.0173.1502-9.0173-1.2023 0-2.4046.6011-2.7052 1.3526zm-58.3121 72.289c0 1.6532-.9018 3.0058-2.1041 3.0058-2.7052 0-4.3584-2.4046-3.156-4.5087 1.6531-2.7052 5.2601-1.6532 5.2601 1.5029zm-331.5377-163.0636c-9.9191 11.8728-12.9249 30.0578-7.3642 44.7861 3.3063 8.8671 6.0116 9.6185 18.4855 5.1098l9.4683-3.4566 8.4161 2.7052c4.659 1.6532 11.7226 3.3064 15.7804 3.7572l7.2139.9018v-5.5607c0-4.5087-7.5145-23.5954-10.5203-26.4509-.4508-.4509-2.7052-3.7572-5.2601-7.2139-2.4046-3.6069-8.2659-9.6185-12.9248-13.2254-11.1214-8.5665-16.9827-8.8671-23.2948-1.3526zm33.5144 19.6878c.6012 1.8035-5.1098 9.6185-7.0636 9.6185-.7514 0-2.104-1.3526-3.0057-3.0057-1.2024-2.4047-.9018-3.607 1.5028-6.0116 3.3064-3.3064 7.5145-3.607 8.5665-.6012zm71.5376-20.7399c-10.3699 7.8151-18.0347 16.5318-24.3468 27.8035-3.9075 7.3642-9.1676 21.9422-9.1676 25.8497 0 1.5029 10.2196.6012 17.1329-1.5029 9.7688-3.0057 22.0925-2.8554 31.1099.3006 8.7167 3.1561 10.2196 2.2544 14.1271-8.5664 4.0578-10.8209 4.2081-14.4278 1.5029-22.844-5.5607-16.5318-11.2717-24.6474-18.0347-26-3.6069-.7514-6.0115.1503-12.3237 4.9595zm-71.237-14.8786-3.4567 2.8555 4.9596 5.711c2.8555 3.1561 7.5144 8.2659 10.3699 11.422 5.1099 5.5607 7.6648 9.3179 10.5203 15.4797.9017 1.6532 2.8555 4.2081 4.5086 5.711 2.8555 2.5549 3.0058 2.5549 6.3122-3.7572 4.2081-8.1156 10.5202-16.3815 19.8381-26.1503 7.6648-7.9653 8.2659-11.5723 2.2544-13.2254-1.8035-.4509-14.2775-.9018-27.5029-.9018-21.6416 0-24.6474.3006-27.8035 2.8555zm-41.9307-16.9826c-12.1734 4.0578-26.1503 15.63-22.8439 18.9364 2.5549 2.5549 2.2543 4.2081-1.052 4.2081-1.5029 0-3.607.9017-4.5087 2.104-2.2543 2.7052-3.7572 31.4104-2.104 39.0752 1.5028 6.9133 5.1098 9.9191 9.1676 7.5144 1.9538-1.3526 2.7052-4.8092 3.6069-16.3815.6012-9.0173 1.9538-15.9306 3.4567-18.185 1.2023-1.9537 2.2543-4.3583 2.2543-5.4104 0-1.052 3.7572-5.5607 8.2659-10.0693 15.3295-15.0289 17.2833-26 3.7572-21.7919zm-16.5318 30.8092c0 3.3064-.7514 4.3584-2.8554 4.3584-1.5029 0-3.7573-1.052-4.8093-2.4046-1.6532-2.1041-1.5029-2.8555 1.5029-5.2601 4.3584-3.4567 6.1618-2.555 6.1618 3.3063zm149.8383-32.3121c-3.3064 3.4566.9017 11.2716 12.9248 23.8959 9.4682 9.9191 13.0752 19.237 13.0752 33.9654 0 13.0751 1.2023 16.3815 6.0115 16.3815 1.3526 0 3.7573-1.3526 5.4104-3.1561 4.2081-4.659 4.0578-34.4162-.1502-42.8324-6.9133-13.526-18.185-24.1965-28.1041-26.6012-2.1041-.6011-4.8093-1.3526-6.0116-1.8034-1.2023-.4509-2.5549-.3006-3.156.1503zm-56.0579-14.1272c-1.3526 2.2543-1.8034 8.4162-.6011 10.2196 1.052 1.8035 29.7572 6.4625 32.6127 5.4105 2.1041-.9018 1.6532-1.8035-1.9537-5.5607-6.6128-6.9133-16.081-11.8729-22.9943-11.8729-3.3063 0-6.4624.7515-7.0636 1.8035zm-33.6647 2.8555c-8.5665 4.6589-13.526 9.0173-13.526 12.0231 0 1.8035 4.8092 1.5029 25.2485-1.6532l12.474-1.9537-.4508-6.1619-.4509-6.1618-7.5145-.3006c-6.0115-.3006-9.1676.6011-15.7803 4.2081zm414.0464-132.1041c-.3006 1.052-.9017 12.0231-1.2023 24.4971-.7514 22.6936-2.7052 36.5202-6.4624 45.3873-1.2023 2.5549-2.1041 5.8613-2.1041 7.2139s-.9017 4.3584-2.104 6.4624c-1.2023 2.2543-4.659 9.3179-7.8151 15.7804-8.867 17.7341-25.0982 37.5722-44.9364 55.1561-12.1734 10.6705-17.133 16.0809-16.5318 17.7341 1.2023 3.156-.6012 7.815-3.1561 7.815-1.2023 0-2.104-1.3526-2.104-2.8555 0-4.0578-3.0058-5.711-4.8093-2.5549-.7514 1.3526-2.104 2.4046-3.0057 2.4046-.7515 0-4.0579 1.9538-7.2139 4.5087-3.1561 2.4046-6.4625 4.5087-7.3642 4.5087s-2.7052 1.6531-4.0578 3.7572c-1.3526 2.104-3.3064 3.7572-4.3584 3.7572-2.7052 0-7.9653 2.4046-13.526 6.0116-2.4046 1.6532-5.5607 3.4566-6.763 4.0578-1.2023.4509-4.9595 2.7052-8.2659 4.8092-3.3064 2.1041-8.7168 5.2602-12.0231 7.0636-3.3064 1.6532-8.4162 4.659-11.2717 6.3122-2.8555 1.8034-6.6127 3.9075-8.2659 4.6589-1.6532.7515-5.5607 3.1561-8.7168 5.2601-3.156 2.1041-6.1618 3.9076-6.763 3.9076-.6011 0-5.711 3.0057-11.2717 6.763-5.711 3.7572-10.6705 6.763-11.1214 6.763-.4508 0-3.7572 1.9537-7.5144 4.5086-3.607 2.4047-6.9133 4.5087-7.2139 4.5087-.9017 0-20.289 13.3758-30.8093 21.3411-17.4335 13.2254-42.6821 36.6705-57.8613 53.9538-8.2659 9.3179-16.2312 18.0346-17.5838 19.237-1.5029 1.3526-2.7052 2.8554-2.7052 3.6069 0 .7514-2.8555 5.1098-6.4624 9.7688-13.6763 18.0347-13.9769 21.0405-1.6532 14.4277 10.0694-5.4104 45.3873-22.9942 50.948-25.3988 10.5202-4.3584 16.8324-7.2139 20.5896-9.1677 2.1041-1.2023 5.2601-2.104 6.9133-2.104 1.8035 0 3.4567-.6012 3.9075-1.3526.4509-.6012 5.711-2.8555 11.7226-4.659 6.0115-1.9537 12.3237-4.3583 13.9769-5.5607 1.6531-1.052 4.8092-1.9537 7.2138-1.9537 2.4047 0 6.1619-.9018 8.2659-2.1041 2.2544-1.2023 8.4162-3.156 13.8266-4.6589 5.4104-1.3526 11.8729-3.1561 14.2775-4.0578 2.5549-.7515 7.2139-1.9538 10.5202-2.5549 7.2139-1.3526 30.0579-8.7168 35.6185-11.5723 2.1041-1.2023 4.659-2.1041 5.5607-2.1041 1.6532 0 19.6879-7.9653 24.1966-10.5202 1.2023-.7514 5.2601-2.8555 8.867-4.659 7.2139-3.6069 25.0983-14.8786 28.7053-18.1849 1.2023-1.0521 5.1098-3.9075 8.7167-6.1619 9.7688-6.1618 50.0463-46.8902 56.8093-57.4104 8.2659-12.7746 9.1676-14.2775 12.0231-20.7399 1.3526-3.0058 3.7573-8.1156 5.2601-11.1214 1.6532-3.1561 2.8555-7.6647 2.8555-10.2197 0-2.5549 1.95383-9.3179 4.50873-15.0289 2.4046-5.8612 4.5087-12.3237 4.5087-14.4277 0-2.2544 1.2023-6.6127 2.5549-9.7688 2.2543-5.1098 2.5549-11.422 2.7052-47.9422 0-36.37-.3006-42.5318-2.4046-45.8382-1.3526-2.104-2.8555-6.0116-3.4567-8.7168-.4508-2.7052-2.5549-8.4162-4.6589-12.9248-2.1041-4.3584-3.75733-8.7168-3.75733-9.6185 0-2.4047-3.0057-2.2544-3.7572 0zm-45.237 177.9422c2.7052 1.0521 1.8035 3.607-1.5029 3.607-1.2023 0-2.104-1.052-2.104-2.2543 0-2.555.3005-2.7053 3.6069-1.3527zm-248.8787 151.3412c.6011 4.6589-1.8035 5.2601-6.4625 1.6531-3.0057-2.2543-3.0057-2.2543 0-4.5086 3.9076-2.8555 5.8613-1.9538 6.4625 2.8555zm-484.2315-324.6245c-1.5029 3.4567-3.7572 8.1156-4.8092 10.37-1.2023 2.104-2.1041 5.4104-2.1041 7.2139 0 1.8034-.7514 4.6589-1.8034 6.4624-7.3642 13.8266-7.5145 79.9538-.3006 96.9364 1.2023 2.7053 2.104 6.9133 2.104 9.318 0 2.4046.9018 6.6127 2.1041 9.3179 2.7052 6.4624 6.9133 21.0405 6.9133 24.1965 0 1.2023 1.2023 4.5087 2.5549 7.3642l4.3584 8.7168c4.9595 9.919 7.5144 14.4277 9.3179 15.4797.9017.6012 1.8035 1.9538 1.8035 2.7052 0 2.7053 13.6763 19.3873 23.7456 28.8556 5.2602 5.1098 13.8266 13.2254 18.9365 18.1849 15.0289 14.2775 36.8208 30.3584 52 38.0232 3.7572 1.9537 7.815 4.0578 9.0173 4.8092 5.4104 3.1561 22.6937 10.6705 24.4972 10.6705 1.052 0 3.3063 1.0521 4.9595 2.2544 1.5029 1.2023 4.3584 2.2543 6.1619 2.2543 1.8034 0 5.5606.9018 8.2659 2.1041 7.5144 3.156 16.3815 5.8612 22.9942 7.0636 3.3063.6011 8.1156 1.8034 10.5202 2.7052 2.5549.9017 8.5665 2.7052 13.526 4.0578 4.9596 1.3526 10.6706 3.156 12.7746 3.9075 2.1041.9017 6.1619 2.104 9.0174 2.8555 4.9595 1.052 25.0982 8.1156 33.0636 11.4219 2.104.9018 9.1676 3.7573 15.7803 6.4625 6.6127 2.5549 13.0752 5.4104 14.2775 6.1618 1.2023.7515 3.3063 1.8035 4.5086 2.2544 1.2024.4508 13.9769 6.6127 28.1041 13.6763 14.2775 7.0636 26.6012 12.474 27.5029 12.1734 4.2081-1.3526-26.3006-41.0289-48.5434-63.1214-13.526-13.3758-37.8728-34.5665-46.1387-40.2775-2.8555-2.1041-5.8613-4.2081-6.763-4.8093-8.8671-7.0635-27.8035-19.5375-44.0347-29.0058-1.3526-.9017-5.4104-3.4566-8.8671-5.7109-3.6069-2.2544-6.763-4.0578-7.0636-4.0578-.4508 0-3.3063-1.8035-6.4624-3.9076-3.1561-2.104-7.0636-4.5086-8.7168-5.2601-1.6532-.7514-4.9595-2.7052-7.5144-4.3584-2.4047-1.6531-5.8613-3.6069-7.5145-4.5086-1.6532-.9018-4.9595-2.8555-7.5144-4.5087-2.4047-1.6532-5.8613-3.6069-7.5145-4.3584-1.6532-.7514-5.5607-3.1561-8.7168-5.2601-3.156-2.1041-6.0115-3.9075-6.3121-3.9075s-3.1561-1.8035-6.3121-3.9075c-3.1561-2.1041-7.0636-4.5087-8.7168-5.2602-1.6532-.9017-4.3584-2.2543-6.0116-3.3063-1.6531-1.052-5.711-3.607-9.0173-5.5607-3.4567-2.1041-7.5145-4.5087-9.0174-5.5607-1.6531-1.052-5.5607-3.1561-8.5664-4.8093-11.5723-6.3121-39.9769-34.5664-55.0058-54.5549-7.0636-9.6185-12.1735-15.0289-14.5781-15.6301-2.104-.4508-3.7572-1.3526-3.9075-1.9537 0-.4509-.3006-4.9596-.4509-9.9191s-1.3526-12.474-2.7052-16.5318c-6.4624-20.8902-7.3641-25.8497-7.6647-49.4451-.1503-13.9769-.9017-24.1966-1.8035-24.4971-.9017-.1503-2.7052 2.4046-4.3584 6.0115zm75.896 226.4857c3.0058 1.6532 3.9075 8.1156 1.2023 9.7688-1.8034 1.2023-11.8728-5.2601-11.8728-7.6648 0-3.7572 5.4104-4.8092 10.6705-2.104zm100.5434 15.1792c0 2.104-3.7572 5.8613-5.8613 5.8613-.9017 0-1.6531-1.6532-1.6531-3.7573 0-3.0058.7514-3.7572 3.7572-3.7572 2.104 0 3.7572.7514 3.7572 1.6532zm393.7574-440.346999c-5.5607 1.8034-9.7688 4.6589-12.9248 8.265899-5.711 6.6127-9.0174 18.9364-7.5145 27.2023 2.8555 14.8786 3.7572 18.3353 6.9133 26 1.8035 4.5087 3.6069 9.7688 4.0578 11.5723.4509 1.8034 1.6532 4.2081 2.8555 5.1098s2.1041 2.5549 2.1041 3.6069c0 .9018 1.6531 4.8093 3.7572 8.4162 1.9537 3.607 4.3584 7.9653 5.2601 9.6185s2.8555 4.9596 4.5087 7.5145c1.6532 2.4046 3.4566 5.4104 4.0578 6.6127.4508 1.2023 6.9133 11.1214 14.2774 22.0925 7.2139 11.1214 13.2255 20.4393 13.2255 20.7399 0 .4508 1.8034 3.6069 4.2081 7.2139 6.6127 10.3699 7.2138 11.5722 16.6821 30.5086 10.9711 22.2428 15.1792 32.0116 15.1792 35.1677 0 1.3526.9017 3.7572 1.9537 5.4104s3.3064 8.4162 4.8093 15.0289 3.7572 15.0289 4.9595 18.6358c1.8035 5.1099 2.4046 13.8266 2.4046 39.0752.1503 28.5549-.1503 32.9133-2.4046 36.2197-1.5029 1.9537-2.7052 4.6589-2.7052 6.0115 0 1.2024-3.0058 7.5145-6.763 14.1272-7.0636 12.3237-8.1156 15.9307-4.659 15.9307 3.607 0 40.7284-25.5492 58.7631-40.5781 6.9133-5.8613 29.3063-28.7052 29.3063-30.0578 0-.6012 2.7052-5.2601 6.0116-10.2197 7.5145-11.2716 16.5318-28.2543 16.5318-31.2601 0-1.3526.7514-3.7572 1.8035-5.5607 4.6589-8.4162 7.2138-28.7052 7.2138-58.6127 0-29.7573-2.104-45.9885-6.6127-52.1504-.9017-1.2023-3.0058-4.6589-4.5086-7.5144-3.0058-5.4104-6.6128-10.5202-20.7399-29.3064-14.4278-19.0867-67.1793-69.5838-83.4105-79.9538-2.2543-1.3526-7.9653-5.2601-12.474-8.7167-4.5086-3.3064-10.6705-7.3642-13.526-9.0174-2.8555-1.5029-7.9653-4.3584-11.2717-6.3121-10.9711-6.161899-24.0462-12.023199-28.5549-12.924899-2.7052-.4509-7.9653.3006-12.7746 2.1041zm21.4914 37.572199c1.2023 4.3584-3.9076 19.3873-7.0636 21.1908-3.607 1.9538-4.9596.3006-2.7052-3.3064 1.052-1.6531 1.8034-6.0115 1.8034-9.6185 0-9.1676 6.1619-15.4797 7.9654-8.2659zm146.9827 127.5955c4.2081 2.4046 3.7572 7.5144-.7515 7.5144-1.9537 0-4.6589-.4508-6.0115-.9017-2.1041-.7515-2.1041-1.2023.1503-4.5087 2.7052-4.0578 2.7052-4.2081 6.6127-2.104zm7.3642 72.7399c0 3.1561-3.1561 4.6589-4.5087 2.2543-.7515-1.052-.9018-2.5549-.6012-3.156 1.3526-2.1041 5.1099-1.3527 5.1099.9017zm-70.6359 105.2023c0 3.7573-3.3064 7.6648-4.9596 5.8613-1.3526-1.2023-1.3526-7.2139 0-8.4162 2.1041-2.2543 4.9596-.9017 4.9596 2.5549zm-486.9367-341.306499c-6.1618 2.7052-14.1271 6.762999-17.5838 9.017399-3.6069 2.2543-6.763 4.0578-7.2139 4.0578-.3005 0-5.8612 3.6069-12.0231 7.815-6.3121 4.3584-12.6243 8.5665-13.9769 9.4682-9.1676 5.4104-35.9191 28.4047-54.4046 47.1908-21.6416 21.7919-33.3642 35.6185-35.1677 41.6301-.4508 1.6532-3.0057 4.5086-5.4104 6.3121-2.5549 1.9538-4.5086 4.0578-4.5086 4.9596 0 1.3526-1.0521 3.0057-6.0116 8.5664-3.0058 3.3064-6.763 11.422-9.6185 20.2891-1.9538 5.7109-2.4046 14.578-2.4046 42.9826 0 36.5203.6011 41.7804 7.5144 61.7689 6.0116 17.2832 23.7457 45.0867 37.422 58.6127 18.4856 18.185 68.6821 55.607 74.6937 55.607 2.4046 0 2.8555-3.1561.7514-5.4104-2.8555-3.0058-12.1734-21.792-12.1734-24.1966 0-1.5029-.9017-4.0578-2.104-5.711-1.0521-1.6532-2.8555-9.0173-3.9076-16.3815-2.104-15.3295.1503-51.3989 3.9076-61.4682 1.2023-3.0058 2.104-7.5145 2.104-9.9191 0-2.2543 1.9538-9.7688 4.5087-16.6821s4.5087-13.6763 4.5087-15.0289c0-1.5029 1.052-3.4566 2.2543-4.5087 1.2023-1.052 2.2543-2.8555 2.2543-4.0578 0-3.0058 12.6243-29.0058 21.6417-44.0347 4.0578-7.0636 8.2659-14.1272 9.1676-15.7803 1.8035-3.4567 20.7399-32.6128 24.948-38.6243 1.5029-2.2544 2.8555-4.5087 2.8555-4.9596 0-.6011 1.6532-3.156 3.6069-5.711 2.1041-2.7052 4.5087-6.4624 5.4104-8.5664.9018-2.1041 4.2081-8.8671 7.5145-15.0289 3.3063-6.1619 6.0115-12.1735 6.0115-13.3758s.9018-3.3063 1.9538-4.5086c4.2081-4.9596 7.815-21.6417 7.815-35.4683 0-13.0751-.1503-13.8266-4.8092-19.8381-5.2601-6.462499-18.4856-13.976899-24.6474-13.976899-1.9538 0-8.7168 2.2543-14.8787 4.9595zm-124.5896 128.046299c-.1503 2.2544-3.6069 1.8035-4.3584-.4508-.4509-1.3526.3006-1.9538 1.8035-1.5029 1.5029.1503 2.5549 1.052 2.5549 1.9537zm-18.3353 6.6128c2.8555 1.8034.6012 4.6589-3.7572 4.6589-2.5549 0-3.6069-.7514-3.6069-3.0058 0-3.156 3.6069-4.0578 7.3641-1.6531zm47.1908 4.0578c-.4509 1.2023-1.3526 2.104-1.9538 2.104-2.104 0-3.3063-3.0058-2.4046-5.5607.7515-1.8035 1.3526-1.9538 3.1561-.4509 1.052.9018 1.6532 2.7052 1.2023 3.9076zm-30.5087 2.104c0 2.5549-3.9075 4.0578-7.0636 2.8555-1.9537-.7514-3.4566-1.6532-3.4566-2.1041 0-.4508 1.5029-1.3526 3.4566-2.104 3.4567-1.3526 7.0636-.6012 7.0636 1.3526zm25.6994 54.2544c2.4047 3.4566 3.0058 5.4104 1.8035 7.0636-2.104 3.6069-4.8092 3.9075-5.8613.7514-.4508-1.5029-1.5028-3.9075-2.2543-5.2601-4.0578-7.8151 1.052-9.7688 6.3121-2.5549zm-4.0578 16.8323c1.9538 1.3526 2.4047 3.0058 1.8035 5.2602-1.3526 4.0578-11.1214 11.8728-15.9306 12.474-3.1561.4508-3.9075-.1503-4.2081-3.607-.3006-2.4046-1.5029-4.6589-2.7052-5.1098-2.5549-.9017-2.8555-7.3642-.3006-8.8671.9017-.6011 3.3064.9018 5.5607 3.7573 2.104 2.5549 4.5087 4.6589 5.1098 4.6589.6012 0 2.2544-2.4046 3.4567-5.2601 2.4046-5.8613 3.3063-6.1619 7.2138-3.3064zm-36.9711 9.4683c-.6011 3.156-7.2138 4.9595-7.2138 1.9537 0-1.052 1.2023-3.1561 2.5549-4.6589 2.8555-3.1561 5.5607-1.5029 4.6589 2.7052zm31.5607 98.5896c-.6011 4.659-8.7167 6.0116-8.7167 1.3526 0-3.0058 1.8034-4.3584 6.4624-4.5087 2.104-.1503 2.7052.7515 2.2543 3.1561zm263.3065-367.757399c-7.0636 1.052-15.6301 2.1041-19.0867 2.1041-4.9595.1502-6.9133 1.052-9.9191 4.6589-4.2081 4.9596-8.1156 5.8613-9.4682 2.2543-1.2023-2.8554-8.4162-3.0057-13.8266-.1502-2.2543 1.052-6.4624 2.4046-9.3179 3.0057-14.2775 2.555-20.289 5.1099-24.4971 10.37-6.0116 7.2139-7.5145 14.8786-7.8151 37.872799-.1503 10.6706-.7514 22.844-1.3526 27.0521-1.6531 10.0693-6.9133 27.6532-8.5664 28.7052-.7515.4509-1.3526 1.8035-1.3526 3.1561 0 2.4046-8.7168 20.289-13.6764 28.2543-1.5028 2.4046-3.4566 5.8613-4.3583 7.5145-2.4047 4.5086-4.3584 7.5144-20.2891 32.3121-3.4566 5.4104-6.763 10.8208-7.3641 12.0231-1.2023 2.555-3.0058 5.711-8.8671 14.5781-2.2543 3.6069-4.0578 7.0636-4.0578 7.9653 0 .7514-.6011 1.5029-1.3526 1.5029-.7514 0-2.7052 2.5549-4.2081 5.5607-13.8266 26.9017-20.289 40.578-21.9422 46.289-.4509 1.6532-2.5549 8.1156-4.659 14.2775-2.2543 6.1618-3.9075 12.6243-3.9075 14.4277 0 1.8035-1.052 5.8613-2.5549 9.0174-3.7572 8.7168-3.9075 71.3873-.1503 78 1.3526 2.4047 3.9075 7.5145 5.711 11.2717 12.0231 24.948 33.9653 49.7457 48.5434 55.0058 1.3526.4509 2.5549 1.5029 2.5549 2.1041 0 .7514 1.3526 1.8034 3.1561 2.2543 1.6532.6012 6.0115 3.0058 9.6185 5.4104 3.6069 2.4046 7.0636 4.3584 7.9653 4.3584s1.8035.6011 2.104 1.2023c.3006.6012 3.7573 3.1561 7.8151 5.5607 19.237 11.8728 24.948 15.6301 43.7341 29.7572 23.4451 17.5839 22.8439 17.133 51.8497 46.1388 21.6417 21.7919 36.8209 39.9769 43.7342 52.6012 1.2023 2.104 2.7052 4.2081 3.3063 4.6589.6012.4509 2.7052 3.7573 4.659 7.5145 1.9537 3.6069 4.5087 6.763 5.8613 7.0636 2.8554.6011 3.9075-21.3411 4.3583-85.8151l.1503-47.7919-4.2081-3.607c-7.5144-5.8612-36.8208-6.763-45.3873-1.2023-4.5086 3.0058-7.6647 1.6532-17.4335-6.9133-7.2139-6.3121-9.4682-7.3641-16.9827-8.4162-13.0751-1.6531-18.9364-6.0115-24.6474-18.6358-5.8613-12.9249-3.4566-39.8266 5.2601-56.9596 3.4567-6.9133 15.4798-18.6358 21.792-21.4913 13.6763-6.3122 16.9826-7.3642 21.4913-7.3642 6.9133 0 29.4567-7.5144 34.2659-11.5722 1.2023-1.0521 3.4567-1.9538 4.9595-1.9538 1.3526 0 4.659-1.2023 7.3642-2.5549 6.9133-3.607 35.0174-3.607 40.2775 0 1.9537 1.3526 5.2601 2.5549 7.5144 2.5549 2.2544 0 4.8093 1.052 5.8613 2.2543s2.8555 2.2544 4.0578 2.2544c2.5549 0 15.3295 3.9075 22.6937 6.9133 2.7052 1.2023 7.2138 2.104 10.2196 2.104 2.8555 0 9.6185 2.1041 15.0289 4.8093 30.2081 14.7283 44.0347 56.0578 28.8555 86.4162-4.0578 8.1156-9.919 11.8728-20.7399 13.2254-9.3179 1.2023-12.0231 2.5549-19.9884 9.4682-8.8671 7.6648-12.1734 8.7168-17.133 5.4105-3.4566-2.4047-6.9133-2.8555-20.1387-2.7053-14.4277.1503-16.3815.6012-22.0925 4.2081l-6.3121 3.9076v69.1329c0 67.029.6011 76.948 4.5086 67.029.7515-2.1041 1.9538-3.9075 2.7052-3.9075.6012 0 1.9538-1.8035 2.8555-4.0579 2.555-6.0115 8.5665-16.2312 11.1214-18.9364 1.2023-1.3526 3.7573-4.8092 5.8613-7.815 4.2081-6.0116 5.711-7.9653 18.7861-22.6937 9.7688-11.1214 22.3931-23.4451 48.3931-47.341 7.3642-6.9133 31.4104-25.3989 32.763-25.3989.6012 0 3.607-1.9537 6.7631-4.5087 3.156-2.5549 6.0115-4.5086 6.4624-4.5086s5.2601-3.0058 10.6705-6.763c5.5607-3.7573 10.2197-6.763 10.6705-6.763.3006 0 3.1561-1.8035 6.3122-3.9076 3.156-2.104 7.0636-4.5086 8.7167-5.2601 8.2659-3.7572 28.7053-19.0867 38.9249-29.4566 8.4162-8.5665 23.4451-29.1561 23.4451-32.1619 0-.9017.9017-3.4566 2.1041-5.5607 6.4624-12.3237 9.0173-24.948 8.867-44.6359 0-12.9248-2.5549-34.7167-4.6589-39.8266-.7515-2.104-2.7052-9.1676-4.0578-15.7803-1.5029-6.6127-3.607-13.8266-4.659-16.0809-1.2023-2.1041-2.1041-4.8093-2.1041-5.8613 0-4.3584-6.6127-17.8844-8.867-18.0347-1.3526-.1503-3.7572-.3006-5.4104-.4509-3.7572-.1503-5.1099-6.4624-1.6532-7.815 1.3526-.4509 2.4046-1.9538 2.4046-3.1561 0-2.8555-9.0173-20.1387-18.0347-34.2659-2.104-3.3064-4.3583-7.0636-4.9595-8.2659s-2.4046-4.3584-4.0578-6.763c-1.6532-2.5549-3.4567-5.5607-4.0578-6.763-2.1041-4.3584-20.289-30.8093-23.896-34.7168-1.9537-2.104-3.6069-4.8092-3.6069-6.1618s-4.0578-10.9711-9.0174-21.3411c-4.9595-10.5202-9.0173-19.8382-9.0173-20.8902 0-.9017-1.052-3.156-2.2543-4.6589-1.2024-1.6532-2.2544-4.8093-2.2544-7.0636 0-2.4047-1.052-8.1156-2.2543-12.9249-1.2023-4.659-2.2544-12.3237-2.2544-16.8324 0-5.4104-.7514-9.0173-2.4046-10.8208-2.2543-2.5549-2.2543-3.0058.7515-6.913299 3.7572-4.6589 3.3063-12.3237-1.3526-21.4913-4.0578-7.8151-7.3642-10.2197-19.6879-13.6763-6.1619-1.6532-14.1272-4.0578-17.8844-5.2601-3.7572-1.2024-9.3179-2.1041-12.3237-2.1041-3.1561 0-8.2659-.9017-11.2717-2.104-16.9827-6.1619-98.4393-9.1677-128.1966-4.659zm51.8497 65.075199c2.1041 3.156 6.0116 8.5665 8.7168 12.3237 7.3642 10.0693 7.5145 10.6705.9018 19.6879-3.1561 4.5086-7.2139 10.2196-9.0174 12.9248-5.2601 8.2659-7.0636 7.815-15.9306-3.6069-6.9133-8.8671-10.9711-15.7804-10.9711-18.6359 0-1.8034 3.0057-7.2138 6.763-12.0231 3.7572-4.9595 6.763-9.3179 6.763-9.9191 0-1.9537 6.4624-7.815 7.815-7.0636.7515.4509 3.0058 3.3064 4.9595 6.3122zm-64.1734 56.9595c.7515 2.7052-4.2081 4.3584-5.711 1.8035-.7514-1.052-.9017-2.5549-.4508-3.3064 1.052-1.8034 5.2601-.7514 6.1618 1.5029zm17.133 3.0058c1.3526 2.4046 6.9133 9.6185 12.3237 16.081 5.4104 6.4624 9.9191 12.4739 9.9191 13.0751 0 1.5029-2.7053 4.2081-10.37 10.6705-3.3064 2.8555-4.659 5.2601-4.659 8.5665 0 2.7052-1.3526 6.0116-3.156 7.815-3.7573 3.7573-4.0578 3.4567-15.7804-10.8208-8.4162-10.3699-11.5722-12.3237-13.2254-8.1156-.4509 1.2023-2.5549 2.2544-4.659 2.2544-2.7052 0-3.7572-.7515-3.7572-3.0058 0-1.6532.4509-3.0058 1.2023-3.0058 2.7052-.1503 6.6127-4.5087 6.9133-7.9653.3006-1.9538 2.2543-6.0116 4.3584-8.8671 2.2543-2.8555 4.0578-6.763 4.0578-8.5665 0-1.9537 1.3526-3.7572 3.4566-4.5086 1.8035-.7515 4.3584-2.7052 5.5607-4.5087 2.8555-4.2081 4.8093-3.9075 7.8151.9017zm98.1387 9.0174c5.4104 7.0636 9.7688 13.9769 9.7688 15.3295 0 2.4046-9.3179 16.8323-13.8266 21.4913-1.5029 1.5029-2.7052 3.3064-2.7052 4.2081 0 .7514-1.2023 2.104-2.7052 2.8555-2.4046 1.2023-4.2081-.6012-12.7745-11.8729-10.37-13.8266-11.7226-17.7341-7.8151-21.0404 1.2023-1.0521 2.2544-2.8555 2.2544-4.0578 0-1.0521.9017-2.4047 1.9537-2.7052.9018-.4509 4.2081-4.5087 7.0636-9.0174s6.1619-8.1156 7.0636-8.2659c1.052 0 6.3121 5.8613 11.7225 13.0752zm100.6937 12.1734c-.6011 3.1561-.1503 4.9595 2.2544 7.0636 3.9075 3.4566 3.9075 6.3121 0 7.5144-3.607 1.052-6.9133-1.052-8.2659-5.4104-1.9538-6.1618-6.763-2.2543-6.763 5.5607 0 2.8555-.7515 3.607-3.4567 3.607-4.5087 0-7.5144-5.711-5.1098-9.9191 3.156-5.711 13.3757-12.474 18.7861-12.6243 3.1561 0 3.4567.6011 2.5549 4.2081zm-20.289 22.5433c0 1.3526 1.052 3.9076 2.2543 5.4105 2.555 3.3063 3.0058 7.815.9018 9.0173-2.4047 1.5029-9.1677-5.1098-9.1677-9.0173 0-7.5145 5.8613-12.7746 6.0116-5.4105zm-217.4683 27.5029c5.5607 7.5145 10.0694 14.5781 10.0694 15.6301 0 3.4567-19.8382 29.1561-21.9422 28.2544-1.0521-.3006-6.6128-6.9133-12.1735-14.4278l-10.3699-13.8266 5.1098-7.5144c2.8555-4.0578 5.5607-7.8151 6.1619-8.2659.4508-.4509 3.156-3.607 6.0115-7.2139 2.7052-3.4567 5.4104-6.3122 6.0116-6.3122s5.5607 6.1619 11.1214 13.6763zm91.9769.9018c5.4104 7.0636 9.7688 13.6763 9.7688 14.7283 0 1.8035-18.3353 26.9018-20.8902 28.4046-1.3526.9018-5.4104-3.4566-12.1734-13.3757-2.104-3.0058-4.9595-6.6127-6.3121-7.9653-4.659-4.2081-3.3064-10.2197 4.3583-20.289 9.6185-12.9249 12.7746-16.081 14.2775-15.1792.7515.4508 5.711 6.6127 10.9711 13.6763zm90.9249-.6012c10.2197 13.6763 11.8728 16.8324 9.3179 17.8844-1.6531.6012-14.578 18.0347-15.7803 21.0405-.4509 1.3526-2.1041 3.1561-3.7572 4.0578-2.4047 1.2023-3.607.4509-7.9654-5.5607-12.0231-16.3815-14.7283-20.7399-14.8786-22.5434 0-1.2023 2.8555-5.8612 6.4624-10.5202 3.607-4.659 7.8151-10.8208 9.318-13.526 1.6531-2.5549 3.7572-4.8093 4.8092-4.8093s6.6127 6.3122 12.474 13.9769zm64.3237 35.1677c.3006 2.2543-.6011 3.4566-2.7052 4.2081-4.5086 1.5029-6.763-1.0521-4.5086-5.2602 2.104-3.9075 6.6127-3.3063 7.2138 1.0521zm-34.7167 5.5607c-.6012 1.3526-1.6532 2.4046-2.555 2.4046-1.6531 0-2.104-4.9595-.4508-6.6127 1.6532-1.5029 3.9075 1.6532 3.0058 4.2081zm49.7456.3005c-.6011 3.1561-2.7052 4.0579-5.7109 2.1041-1.8035-1.052-1.6532-1.8035.7514-4.5087 3.0058-3.3063 5.8613-2.104 4.9595 2.4046zm19.6879 3.607c3.1561 1.5029 5.4104 10.5202 3.9075 15.0289-2.4046 7.3642-14.2774.3006-14.2774-8.4162 0-6.763 4.8092-9.7688 10.3699-6.6127zm-150.5896 9.1676c.4508 1.5029 1.3526 2.8555 1.9537 2.8555.4509 0 3.4567 3.6069 6.4624 7.9653 7.0636 10.0694 7.2139 15.7804 1.0521 23.5954-5.5607 6.9133-5.711 12.474-.7515 18.3353 4.2081 5.1098 4.659 7.9653 1.6532 11.1214-3.0058 2.8555-4.9595 2.7052-6.1619-.7515-.4508-1.5029-3.4566-4.6589-6.763-6.9133-3.3063-2.2543-6.0115-4.8092-6.0115-5.7109 0-.7515-3.0058-5.1099-6.763-9.4683-3.7573-4.2081-6.763-8.5664-6.763-9.3179 0-.7514-1.0521-2.2543-2.2544-3.3063-3.9075-3.3064-2.5549-7.2139 7.8151-21.0405 8.867-11.7226 10.3699-13.0752 12.9248-11.7226 1.6532.7515 3.3064 2.8555 3.607 4.3584zm-85.5145 8.1156c9.6185 13.0752 10.9711 16.9827 7.0636 20.2891-1.2024 1.052-2.2544 2.7052-2.2544 3.9075 0 1.052-.9017 2.5549-1.9537 3.156-1.0521.6012-3.0058 2.8555-4.3584 4.9596-1.3526 2.104-4.2081 5.711-6.1619 8.2659-4.3584 5.1098-4.0578 5.2601-15.9306-10.37-9.1677-12.0231-9.7688-16.6821-3.1561-24.948 2.5549-3.156 4.5087-6.4624 4.5087-7.3641 0-.9018.6011-1.6532 1.5029-1.6532.7514 0 2.4046-2.104 3.7572-4.5087 1.3526-2.5549 3.4566-4.5086 4.9595-4.5086 1.5029.1502 6.6128 5.5607 12.0232 12.7745zm199.8844-10.2196c.3006 1.2023-.7514 1.9537-2.5549 1.9537-1.8034 0-3.156-.9017-3.156-2.4046 0-2.7052 4.6589-2.2543 5.7109.4509zm19.0868-.9018c1.5029 2.4047-3.7573 7.3642-7.8151 7.3642-4.3584 0-4.5086-2.4046 0-6.1619 3.7573-3.156 6.4625-3.6069 7.8151-1.2023zm-277.7343 11.422c1.0521 2.7052-4.9595 8.5665-7.2138 7.0636-2.2544-1.3526-1.5029-5.4104 1.3526-7.5145 3.4566-2.7052 4.6589-2.5549 5.8612.4509zm-17.1329 1.5029c1.8034 1.6532-2.2544 4.9595-6.0116 4.9595-4.3584 0-9.4682-2.5549-9.4682-4.5086 0-1.6532 13.9769-2.1041 15.4798-.4509zm8.5665 38.1734c0 3.7573-4.9596 3.3064-5.711-.6011-.3006-1.8035.4508-2.5549 2.5549-2.5549 2.2543 0 3.1561.9017 3.1561 3.156zm244.9712 23.1445c1.5029 1.8035 1.5029 3.1561.3005 6.0116-2.104 4.5087-4.9595 4.8093-7.5144.7515-1.5029-2.4047-1.5029-3.607 0-6.0116 2.2543-3.6069 4.6589-3.7572 7.2139-.7515zm-178.0926-367.1561981c-4.0578.7515-14.578 1.9538-23.2948 2.7052-8.7168.7515-18.4856 1.9538-21.7919 2.8555-3.3064.9017-11.7226 2.5549-18.7862 3.9074991-7.0636 1.3526-14.7283 3.1561-17.2832 4.0578-2.4046.9018-7.5145 2.1041-11.2717 2.7052-3.7572.6012-8.4162 1.8035-10.5202 2.5549-2.1041.9018-7.8151 2.8555-12.7746 4.2081s-10.9711 3.4567-13.2254 4.659c-2.4047 1.2023-5.2602 2.104-6.3122 2.104-1.2023 0-4.6589 1.0521-7.815 2.4047s-7.6648 3.4566-10.2197 4.3584c-2.4046 1.052-8.4162 3.7572-13.0751 5.8612-4.659 2.1041-10.0694 4.659-12.0231 5.4104-1.9538.7515-4.5087 2.1041-5.711 2.8555-1.2023.6012-4.659 2.4047-7.5145 4.0578-2.8555 1.5029-7.9653 4.2081-11.2717 6.1619-3.3063 1.8035-7.3641 4.0578-9.0173 4.9595-1.6532.9018-4.9596 2.8555-7.5145 4.5087-2.4046 1.6532-5.5607 3.4566-6.763 4.0578-1.2023.4509-4.6589 2.8555-7.6647 5.2601-3.0058 2.2544-6.3122 4.2081-7.2139 4.2081s-1.6532.7515-1.6532 1.5029c0 .9017-1.5029 2.1041-3.3063 2.8555-1.9538.7514-6.4625 3.9075-10.2197 7.2139-3.7572 3.155999-11.1214 9.167599-16.5318 13.225399-12.1734 9.3179-52.1503 48.844-64.3237 63.8729-5.1099 6.1618-10.0694 12.3237-11.1214 13.526-11.1214 13.2254-12.474 15.7804-12.474 22.5434 0 5.7109-.4509 6.763-3.0058 6.763-1.6532 0-3.9075.6011-4.9595 1.2023-2.8555 1.8034-13.5261 18.4855-20.4393 31.8613-3.9076 7.2138-5.2602 9.7688-8.4162 15.3295-.9018 1.5028-2.2544 4.208-3.0058 6.1618-.7515 1.9538-3.3064 7.3642-5.4104 12.0231-2.1041 4.659-4.8093 10.5203-5.8613 13.0752-1.052 2.4046-3.0058 6.9133-4.3584 10.0694-1.3526 3.0057-2.4046 6.763-2.4046 8.4161 0 1.6532-1.052 3.7573-2.2543 4.8093-1.2024 1.052-2.2544 2.8555-2.2544 4.2081 0 3.0058-4.2081 17.7341-6.9133 24.0462-1.2023 2.7052-2.104 6.9133-2.104 9.318 0 2.4046-.9018 7.0636-2.1041 10.0693-1.2023 3.1561-3.3063 11.7226-4.6589 19.237-1.3526 7.3642-3.4567 16.9827-4.659 21.1908s-2.104 11.7225-2.104 16.6821c0 5.1098-1.0521 14.578-2.2544 21.0405-3.0058 15.63-3.0058 54.7052 0 68.8324 1.2023 5.8612 2.2544 16.3815 2.2544 23.4451 0 7.0635 1.052 16.2312 2.2543 20.289s2.2543 9.3179 2.2543 11.8728c0 6.0116 4.2081 25.6995 6.9133 32.0116 1.2023 2.7052 2.1041 6.9133 2.1041 9.3179s.9017 6.6127 2.104 9.3179c3.1561 7.6648 6.9133 19.6879 6.9133 22.3931 0 1.3526 1.052 3.3064 2.2544 4.3584 1.2023 1.052 2.2543 3.1561 2.2543 4.659s1.052 5.2601 2.4046 8.4162c1.3526 3.156 3.4567 7.6647 4.5087 10.2196 1.052 2.4046 3.6069 8.4162 5.8613 13.0752 2.104 4.6589 4.5086 10.0693 5.2601 12.0231.7514 1.9537 2.104 4.6589 3.0058 6.0115.7514 1.5029 2.2543 3.9076 3.0057 5.2602.9018 1.5029 2.2544 4.3584 3.0058 6.3121.9018 1.9538 3.0058 5.5607 4.659 7.815l3.0058 4.3584h57.711c40.7283 0 58.9133-.4508 61.6185-1.8034 2.8555-1.2024 10.9711-1.2024 34.2659.1502 34.5665 1.9538 188.0117 3.0058 189.8151 1.2024.7515-.6012.4509-2.4047-.4508-3.9076-2.1041-3.3063-1.2023-4.6589 3.4566-4.6589 3.7572 0 6.0116 2.2543 3.607 3.7572-.7515.4509-1.5029 1.9538-1.5029 3.1561 0 1.8034 3.3063 2.104 20.289 1.8034 12.474-.3005 20.1387-1.052 19.9884-1.9537-.3005-1.6532-9.4682-4.5087-20.7399-6.4624-3.7572-.7515-8.1156-1.9538-9.7687-2.8555-1.6532-.9018-6.7631-2.4047-11.2717-3.3064-4.5087-.9017-10.9711-2.4046-14.2775-3.3064-13.8266-3.6069-14.2775-3.6069-14.2775.6012 0 10.8208-5.7109 11.5723-12.1734 1.5029-4.5086-7.3642-10.0693-10.6705-18.0347-10.8208-2.2543-.1503-4.8092.9017-5.8612 2.104-2.4047 3.0058-3.9076 2.8555-7.2139-.4508-1.5029-1.5029-7.0636-3.607-12.474-4.659-5.2601-.9017-12.6243-2.5549-16.3815-3.4567-3.7572-.9017-10.5203-2.104-15.0289-2.7052-4.5087-.6011-9.9191-1.6531-12.0232-2.5549-2.104-.9017-8.2659-3.156-13.9768-4.8092-5.5607-1.6532-11.2717-3.7572-12.7746-4.3584-1.3526-.7514-9.1676-4.5087-17.2833-8.4162-14.1271-6.9133-14.8786-7.0636-16.8323-4.5087-1.0521 1.6532-2.5549 2.2544-3.3064 1.6532-.6011-.7514 0-2.2543 1.6532-3.3063 2.7052-1.9538 2.2543-5.2602-.7515-5.2602-2.7052 0-19.6878-13.6763-30.6589-24.7977-15.6301-15.4797-38.3237-46.5896-38.3237-52.4509 0-1.052-.9018-2.8554-2.1041-3.7572-1.2023-.9017-2.4046-3.3063-2.8555-5.1098s-2.2543-7.0636-4.0578-11.5723c-1.8035-4.5086-3.6069-10.3699-4.0578-12.7745-1.3526-8.4162-6.6127-16.9827-17.8844-29.607-13.0752-14.4277-20.4393-25.0983-27.052-38.7746-6.9133-14.1272-14.1272-32.4624-14.1272-35.6185 0-1.6532-.7515-3.6069-1.6532-4.5087-1.9537-1.9537-5.2601-18.3352-7.2139-35.7688-.7514-6.6127-2.104-16.8323-3.0057-22.5433-3.0058-20.4393-1.2024-42.6821 5.2601-64.474 1.052-3.9076 2.104-8.8671 2.104-10.8209 0-1.8034.6012-3.9075 1.5029-4.3583.7515-.4509 2.2543-3.7573 3.1561-7.2139 1.5029-5.711 16.8324-38.3237 21.1907-45.3873 1.0521-1.6532 4.9596-7.0636 8.5665-11.8729 5.8613-7.9653 6.3122-9.1676 4.0578-10.6705-2.7052-2.104-3.4566-14.8786-.9017-16.5318.7514-.4509 3.4566.1503 5.8613 1.5029 7.0635 3.6069 7.0635 3.4567 15.4797-6.9133 23.4451-28.8555 51.5492-57.711 72.2891-74.0925 14.2775-11.1214 47.4913-34.115599 55.9075-38.473999 3.3064-1.8035 10.0694-5.5607 15.0289-8.4162 4.9596-2.7052 10.0694-5.4104 11.2717-6.0116 1.2023-.4508 6.6127-3.0058 12.0231-5.4104 10.9711-5.1098 15.7804-7.2139 25.5492-10.9711 3.7572-1.3526 9.0173-3.4566 11.7225-4.6589 2.7052-1.2024 6.3122-2.1041 7.9654-2.1041 1.8034 0 4.9595-.9017 7.0635-2.104 3.9076-1.9538 13.3758-4.659 24.3469-6.763 2.8555-.6012 6.763-1.9538 8.5665-2.8555 1.8034-1.0521 5.5607-1.8035 8.2659-1.8035s9.3179-1.052 14.7283-2.2543c19.9884-4.5087 41.1792-6.0116 83.4104-5.8613 41.3295.1503 61.6186 1.9537 73.3411 6.4624 2.4046.9017 6.763 1.6532 9.7688 1.6532s8.1156.9017 11.5723 2.104c3.3063 1.2024 11.7225 3.3064 18.7861 4.659s15.0289 3.4567 17.7341 4.659 6.1619 2.104 7.6647 2.104c2.7053 0 9.7688 2.8555 30.2082 12.3237 15.1792 6.9133 21.6416 9.9191 24.0462 10.8208 1.2023.6012 6.3121 3.3064 11.2717 6.1619 4.9595 2.8555 10.5202 5.8613 12.474 6.6127 5.4104 2.5549 28.2543 17.884399 44.6358 30.057799 36.37 27.0521 65.9769 56.9596 96.1851 96.9365 4.9595 6.4624 9.919 12.1734 10.9711 12.6243 1.052.3005 2.7052 2.104 3.4566 3.9075.7515 1.6532 2.8555 5.5607 4.5087 8.4162 3.6069 5.8612 10.52023 18.4855 15.17923 27.8034 1.6532 3.3064 3.6069 7.0636 4.3584 8.2659 1.5029 2.4047 1.8034 3.0058 5.4104 12.7746 1.2023 3.3064 3.156 7.9653 4.3584 10.2197 1.2023 2.4046 2.104 6.3121 2.104 8.7167 0 2.555.7514 6.0116 1.8035 7.8151 2.8555 5.2601 5.711 27.5029 5.5607 43.8844 0 17.7341-3.1561 49.2948-5.711 55.3064-.9018 2.4046-1.6532 9.1676-1.5029 15.0289.1503 18.9364 0 19.8381-2.7052 21.341-4.3584 2.5549-9.4682 8.7168-10.5203 12.474-.7514 3.0058.1503 4.659 4.8093 8.5665 3.4566 2.8555 5.2601 5.4104 4.659 6.4624-1.3526 2.2544-8.7168 2.4047-10.8209.3006-2.2543-2.2543-6.3121-.3006-7.5144 3.3064-1.65323 5.5607-15.32953 24.1965-26.15033 35.7688-5.711 6.1618-10.5202 12.0231-10.5202 12.9248 0 .9018-1.0521 2.555-2.2544 3.607s-2.2543 3.7572-2.2543 6.0115c0 2.2544-1.8035 8.7168-3.9075 14.4278-2.1041 5.711-4.2081 11.5723-4.659 13.2254-1.5029 4.9596-11.1214 22.3931-17.5838 31.711-8.8671 12.9249-11.7226 16.2313-28.7052 33.0636-12.9249 13.0752-21.9422 20.1388-36.0694 28.8555-6.1619 3.7573-24.948 12.474-26.9018 12.474-1.2023 0-2.8555 1.0521-3.9075 2.2544s-3.0058 2.2543-4.3584 2.2543-7.0635 1.8035-12.9248 3.9075c-5.711 2.2544-14.2775 4.5087-18.7862 5.1098-4.5086.6012-9.919 1.8035-12.0231 2.7052-4.8092 1.9538-22.5433 4.5087-40.7283 6.1619-7.8151.6012-15.6301 1.9538-17.4336 2.8555-1.8034 1.052-5.7109 1.8035-8.867 1.8035-4.9596 0-12.3237 1.6531-27.3526 6.3121-2.8555.7514-8.5665 2.1041-12.7746 2.7052-4.3584.6012-9.7688 1.9538-12.3237 2.7052-2.4046.9017-8.8671 2.7052-14.2775 4.2081-14.8786 3.7572-14.2774 3.4567-12.3237 5.4104 2.4047 2.4046 186.6591 2.1041 227.9886-.1503 15.7803-.9017 56.9595-1.9537 91.6763-2.5549 34.7168-.4509 63.57233-1.052 64.02323-1.5029.6011-.3006 2.104-2.7052 3.4566-5.4104s3.1561-6.0116 3.7572-7.2139c.7515-1.2023 3.607-7.0636 6.3122-12.7745 2.7052-5.8613 5.4104-11.5723 6.1618-12.7746.6012-1.2023 1.6532-3.3064 2.1041-4.5087 1.3526-3.6069 5.2601-12.474 7.5144-16.9826 1.2023-2.4047 2.1041-5.711 2.1041-7.5145s1.052-4.659 2.2543-6.1619c3.3064-4.2081 2.8555-10.9711-.6011-11.8728-2.4047-.6012-2.7052-1.8035-1.9538-8.7168.6012-8.2659 5.5607-18.6358 7.9653-16.9826.7515.4508 1.3526 3.156 1.3526 6.0115 0 7.6648 3.607 5.711 4.659-2.5549.4509-3.6069 1.5029-9.0173 2.4046-11.8728 3.4567-10.5203 5.2601-18.6359 6.4624-29.9075.7515-6.3122 2.1041-14.1272 2.8555-17.4336 4.8093-19.3873 7.6648-80.4046 4.659-100.5434-1.052-6.763-2.4046-18.4855-3.0058-26.3006-.9017-12.0231-1.5029-14.578-4.3584-16.8323-1.8034-1.5029-2.5549-3.0058-1.6531-3.607 2.2543-1.3526 1.8034-18.185-.7515-24.3468-1.2023-2.8555-2.2543-6.9133-2.2543-8.7168s-1.0521-5.8613-2.2544-8.7167c-1.2023-3.0058-2.2543-7.2139-2.2543-9.1677 0-2.104-.9017-6.0115-2.104-8.7168-1.2024-2.7052-3.607-9.919-5.5607-15.9306-1.8035-6.0116-3.9076-11.2717-4.5087-11.7225-.7515-.4509-1.3526-2.4047-1.3526-4.3584 0-1.9538-.9018-5.4104-2.1041-7.8151-1.2023-2.2543-3.156-6.6127-4.3583-9.4682-5.5607-12.474-16.2313-35.4682-17.5839-37.5722-.7514-1.2024-3.156-5.711-5.2601-9.7688-4.5087-8.7168-5.2601-10.0694-13.8266-22.9943-3.6069-5.2601-6.4624-9.919-6.4624-10.3699s-1.9538-3.3064-4.2081-6.3122c-2.4046-3.0057-4.80933-6.6127-5.26013-8.1156-1.3526-3.6069-5.4104-4.9595-8.8671-2.7052-3.6069 2.2544-4.9595-.7514-3.6069-8.2659 1.052-4.8092.4508-6.1618-6.1619-13.8266-9.3179-11.1214-53.3526-55.1561-62.0694-62.2196-12.9248-10.5203-31.4104-24.497199-39.0751-29.757299-4.2081-2.8555-8.7168-6.1618-9.7688-7.2139-1.052-.9017-2.5549-1.8034-3.0058-1.8034-.6012 0-3.9075-1.9538-7.3642-4.2081-3.3063-2.2544-7.2138-4.659-8.4162-5.2601-1.2023-.6012-4.9595-2.7052-8.2659-4.5087-3.3063-1.9538-8.4161-4.659-11.2716-6.1619-2.8555-1.6531-6.3122-3.4566-7.5145-4.0578-1.2023-.7514-3.7572-2.104-5.711-2.8555-1.9537-.7514-7.3641-3.3063-12.0231-5.4104-4.659-2.104-10.5202-4.8092-13.0752-5.8612-2.4046-.9018-7.0635-3.0058-10.2196-4.3584s-6.9133-2.4047-8.4162-2.4047-3.6069-1.052-4.659-2.2543c-1.052-1.2023-3.0057-2.2543-4.5086-2.2543-1.3526 0-8.5665-1.9538-15.9307-4.5087-7.3641-2.4046-14.8786-4.5087-16.6821-4.5087-1.8034 0-5.5607-.9017-8.2659-2.104s-11.7225-3.3064-19.9884-4.659c-8.2659-1.3525991-18.4856-3.4565991-22.6937-4.6588991-4.2081-1.2024-12.3237-2.1041-18.0347-2.1041-5.7109 0-17.1329-1.052-25.3988-2.2543-16.5318-2.40460005-55.7573-2.70520005-67.6301-.4509zm-268.4163 138.5664981c1.3526 1.6532 1.3526 2.8555-.1503 5.2602-2.104 3.4566-3.9075 3.4566-6.3121-.1503-1.0521-1.8035-.9018-3.1561.4508-4.8093 2.5549-3.0058 3.7573-3.0058 6.0116-.3006zm761.51483 250.2314c-1.6532 2.7052-5.4104 1.9537-5.4104-1.052 0-1.5029.4508-3.3064 1.052-3.9076 1.5029-1.5029 5.5607 3.0058 4.3584 4.9596zm12.6243 31.5607c0 1.6532-.6012 3.3063-1.3526 3.7572-1.8035 1.2023-5.1099-3.1561-3.9075-5.1098 1.6531-2.5549 5.2601-1.6532 5.2601 1.3526zm-844.92533 153.7457c-1.052 2.8555-5.711 3.3064-5.711.6012 0-1.5029 1.3526-2.4047 3.1561-2.4047s2.8555.7515 2.5549 1.8035zm784.80963 8.2659c0 2.8555-7.2138 4.0578-9.919 1.8035-2.1041-1.6532-1.9538-2.2544 1.052-4.5087 2.7052-1.9537 4.0578-2.104 6.1618-.9017 1.5029 1.052 2.7052 2.5549 2.7052 3.6069zm-773.53793 25.2486c1.2023 2.7052-1.6532 4.6589-3.7572 2.5549-1.6532-1.6532-.4509-4.8093 1.8035-4.8093.6011 0 1.5028 1.0521 1.9537 2.2544zm-23.2948 7.6647c2.7052 1.2023 4.8093 3.1561 4.8093 4.3584 0 2.1041-9.318 9.7688-11.8729 9.7688-1.052 0-1.6532-3.4566-1.6532-8.2659 0-9.1676.9018-9.7688 8.7168-5.8613zm-4.5087 32.6128c.3006 2.8555-.1503 4.0578-1.8034 4.0578-2.555 0-4.659-5.1099-3.1561-7.5145 1.6532-2.7052 4.5087-.7514 4.9595 3.4567zm506.0234 62.0694c2.104 1.3526 3.3063 3.0057 2.8555 3.7572-1.052 1.8034-8.1156 1.8034-8.1156 0 0-.7515-.4509-2.4046-.9018-3.7572-1.2023-3.1561 1.5029-3.0058 6.1619 0zm-199.1331 2.7052c0 2.7052-5.8612 4.6589-7.815 2.7052-2.2543-2.2544 0-4.8093 4.2081-4.8093 2.1041 0 3.6069.9017 3.6069 2.1041z" style="stroke-width:.150289"/></svg>