<svg height="960" style="" width="1200" xmlns="http://www.w3.org/2000/svg"><path d="m599.82422-.0002-479.85372 479.79512 480.20528 480.20528 479.85372-479.85372zm.46878 18.51676 461.3369 461.33695-461.51271 461.51272-461.33694-461.33694zm-.586 140.98523-24.20069 22.91156c3.1202 3.39021 5.74956 6.79542 9.19977 9.37557 2.64016-2.43015 5.05063-4.67606 8.32083-7.67625l-.0586 406.31405h13.4188v-406.25545l8.43802 7.61765 9.25836-9.19978c-8.1305-7.71047-16.186-15.34688-24.3765-23.08735zm-48.51859 110.92478-24.25931 22.97016c3.09019 3.2702 5.99521 6.34258 8.96539 9.49277l8.9068-8.08643v295.79943h13.1844v-295.44785l8.49661 7.73485 8.96542-9.55136zm97.09581 0-24.1421 22.97016 8.90677 9.49277 8.90683-8.08643v295.56505h13.00859v-295.09627c3.60022 2.31014 5.57518 5.73317 8.96539 7.38327l8.67242-9.31698zm117.13611 24.61089-37.73671 62.52338 11.19209 6.73868 26.48602-43.77221c8.91055 14.76091 17.57544 29.0113 26.48599 43.77221l11.30928-6.73868zm-336.05582 5.68395c-8.99305.10501-17.67952 3.63491-24.02491 10.43032-12.45076 13.41083-11.7101 36.53943 1.64072 48.87019 13.17081 12.18074 35.81611 11.67023 47.75684-1.23053-3.00018-2.84018-6.00379-5.67506-9.02398-8.55523-12.87079 7.53046-23.41878 7.28012-30.52922-.82035-3.39021-3.93027-5.44956-9.03901-5.44956-14.64936 0-4.8903 1.60885-9.43699 4.21901-13.06721v-.0586c2.46015-3.48022 6.08005-6.0674 10.43032-7.20747 8.1005-2.01012 15.12048.60049 21.27085 4.98079l9.43417-8.67242c-7.45545-6.82542-16.73118-10.12514-25.72424-10.02014zm-95.86526 128.32818v12.59843c40.7125.87006 75.8231 14.94047 104.65487 43.77224 28.83178 28.83178 43.08217 64.11394 43.77221 105.00646h12.71562c1.28582-88.86919-74.09663-162.84689-161.1427-161.37713zm532.70852.11722c-91.23561-1.83012-164.35994 78.54341-160.84973 161.3185h12.36403c.51187-83.2871 68.39974-149.07307 148.4857-149.01307zm-.0586 48.34281c-63.15388-1.5901-115.08707 54.5321-112.50691 112.97569h12.36403c.78038-55.32565 44.26808-99.56058 100.20148-100.67026.19297-1.90562.29297-3.84005.29297-5.80112.00003-2.28014-.11155-4.55419-.35156-6.50431zm-532.76713.17578v12.36406h.0586c27.7217.81005 51.25862 10.26765 70.60981 29.70884 19.35119 19.4412 28.96726 43.21673 29.35728 70.66842h12.71562c1.5601-64.38396-55.49779-115.26148-112.74131-112.74132zm10.66472 49.63196c-3.63632-.33899-7.21076-.10219-10.66472.82037v13.36018c13.65084.63004 25.18327 5.31597 34.51384 14.76655 9.33058 9.45058 13.72913 21.02565 14.23916 33.98645h14.00476c1.07632-29.48057-26.63882-60.56065-52.09304-62.93355zm522.10241.46878c-34.62213-1.80011-64.59913 30.71861-62.28899 62.64058h13.59458c.45003-13.23082 4.87575-24.67886 14.35634-34.27948 9.48058-9.60059 21.13725-14.07789 34.33807-14.70792zm-161.3185 95.27928c-1.89011 28.86178-13.05971 53.04935-34.63104 72.25053-21.57132 19.20118-47.0818 27.98329-75.88357 26.60321h-.17578c-23.70149-.99006-45.37359-10.06421-62.05461-24.43509-22.92141-19.35119-35.082-44.24381-37.09212-74.12565h-13.30159c2.79017 40.26247 20.21044 71.99128 54.20253 93.05258 40.98252 25.41156 83.78579 26.03224 125.39835 1.64074 35.52218-20.82128 53.89783-53.10515 56.89801-94.92772v-.0586zm-270.54399.23441c.12003 86.3753 72.96355 161.48774 158.79883 163.01783v-12.59843-.0586c-40.26248-2.52018-74.73085-17.87032-102.66256-46.70209-27.93172-28.83178-42.0007-63.72626-43.83081-103.65871zm318.6524.0586c-1.74011 40.20247-15.9863 75.06131-43.94802 103.89311-27.96169 28.83178-62.43429 44.00614-102.48675 46.52629v12.53984c84.36518-1.86011 157.77313-73.88377 159.0332-162.95924z" style="stroke-width:30.0018"/></svg>