<svg height="960" style="" width="1220" xmlns="http://www.w3.org/2000/svg"><path d="m754.20455 180 36.81818 36.81818-36.81818 36.81818-36.81819-36.81818zm-288.4091 0-36.81818 36.81818 36.81818 36.81818 36.81819-36.81818zm181.02273 36.81818 36.81818 36.81818 36.81819-36.81818-36.81819-36.81818zm-110.45454-36.81818-36.81819 36.81818 36.81819 36.81818 36.81818-36.81818zm36.81818 36.81818 36.81818 36.81818 36.81818-36.81818-36.81818-36.81818zm-36.81818 61.36364c-3.06819 0-6.13637 3.06818-6.13637 9.20454 3.06818 46.02273 39.88637 79.77273 85.90909 76.70455 42.95455-3.06818 73.63637-36.81818 76.70455-76.70455 0-3.06818-3.06818-9.20454-6.13637-9.20454-33.75-3.06818-61.36363-3.06818-73.63636-3.06818-15.34091 0-42.95454 3.06818-76.70454 3.06818zm457.15909 346.70454c33.74997-33.75 46.02277-70.56818 70.56817-95.11363 18.4091-18.40909 36.8182-18.40909 36.8182-33.75s-18.4091-15.34091-36.8182-33.75c-24.5454-24.54546-36.8182-61.36364-70.56817-95.11364-27.61364-30.68182-76.70455-49.09091-125.79546-64.43182-3.06818 0-3.06818 0-6.13636 0s-3.06818 3.06818-3.06818 6.13637c-21.47728 98.18181-101.25 193.29545-227.04546 205.56818-3.06818 0-6.13636 3.06818-6.13636 9.20454v187.15909c0 3.06819 3.06818 9.20455 9.20455 9.20455 76.70454-3.06818 279.20454-15.34091 358.97727-95.11364zm-408.06818 95.11364c3.06818 0 9.20454-3.06818 9.20454-6.13636v-187.1591c0-3.06818-3.06818-6.13636-6.13636-9.20454-125.79546-9.20455-205.56818-104.31818-227.04546-205.56818 0-3.06818-3.06818-3.06818-3.06818-6.13637-3.06818 0-3.06818 0-6.13636 0-49.09091 15.34091-98.18182 33.75-125.79546 64.43182-33.75 33.75-46.02272 70.56818-70.56818 95.11364-18.40909 18.40909-36.81818 15.34091-36.81818 33.75s18.40909 15.34091 36.81818 33.75c24.54546 24.54545 36.81818 61.36364 70.56818 95.11364 79.77273 76.70454 282.27273 88.97727 358.97728 92.04545zm30.68181-227.04546c125.79546 0 205.56819-95.11363 217.84091-187.15909 0-3.06818-3.06818-9.20454-6.13636-9.20454-33.75-6.13636-64.43182-12.27273-98.18182-15.34091-3.06818 0-3.06818 0-6.13636 3.06818-3.06818 0-3.06818 3.06818-3.06818 6.13637-3.06819 61.36363-55.22728 104.31818-116.59091 101.24999-55.22728-3.06818-98.18182-46.02272-101.25-101.24999 0-3.06819 0-3.06819-3.06819-6.13637-3.06818 0-3.06818-3.06818-6.13636-3.06818-33.75 3.06818-67.5 9.20455-98.18182 15.34091-3.06818 0-6.13636 6.13636-6.13636 9.20454 12.27273 95.11364 92.04545 187.1591 217.84091 187.1591z" style="stroke-width:30.6818"/></svg>