<svg height="960" style="" width="1080" xmlns="http://www.w3.org/2000/svg"><path d="m924.71309.00021h-769.42619l-35.2869 167.63965 81.17046-109.428841h113.68204v742.944031c0 103.22924 153.54644 158.84474 153.54644 158.84474-90.00114-89.99954-90.00114-145.58087-90.00114-145.58087v-561.64389c17.33241 75.05125 84.04321 128.30027 161.06937 128.56673 77.02616.26645 144.10377-52.51975 161.95501-127.44929l.21618-1.11744v561.64388s0 55.57934-90.00154 145.58087c0 0 153.54683-55.57975 153.54683-158.84515v-742.944023h113.64588l81.17047 109.429253zm-546.35146 177.80274v-119.591931h108.133c-53.79673 18.522491-94.46437 63.156201-107.91521 118.439531l-.21617 1.11744zm161.62048 143.38335c-42.83132.00016-81.44558-25.80088-97.83557-65.37112-16.38995-39.57017-7.32763-85.11621 22.95855-115.4024 30.2862-30.2862 75.83224-39.34851 115.40241-22.95855 39.57024 16.38998 65.37128 55.00424 65.37111 97.83556-.003 58.48383-47.41267 105.89362-105.8965 105.89651zm53.52486-262.939528h108.09522v119.556178c-13.0174-55.35405-53.31855-100.27363-106.94162-119.196955z" style="stroke-width:40.1813"/></svg>