<svg height="960" style="" width="1522" xmlns="http://www.w3.org/2000/svg"><path d="m790.30034-30.000002c-1.73214 0-2.15307.891093-2.88792 2.675722-.62987 1.67966.21179 5.880424 1.89145 9.029777 1.88962 3.149352 5.87818 11.5462045 8.81757 18.47478049 9.02814 20.15585751 13.64761 30.65573651 20.36623 45.14275751 3.56926 7.558447 9.23811 19.733908 12.5974 27.292353 3.35933 7.55844 7.13732 15.11894 8.18709 16.79858 1.0498 1.67967 2.9392 5.45766 3.98899 8.1871 3.14936 7.138542 28.97405 32.334382 37.79223 36.743482 3.98918 2.09956 12.17852 5.45784 17.84735 7.34745 9.65802 3.56927 17.6374 5.45848 58.78894 14.27666 8.18832 1.67966 20.15626 4.40991 26.66494 6.08957 23.09519 5.66883 26.87359 3.14772 19.10519-12.17914-5.03891-10.07793-5.2505-10.70534-18.47778-41.569-6.50867-15.326842-12.59639-29.604742-13.64617-31.284382-.83982-1.88961-2.93981-6.71985-4.61946-10.709024-22.46539-53.329045-31.07219-60.8870805-84.61118-74.1143615-29.81387-7.3484965-34.01506-8.3966325-41.99342-9.8663405-11.96754-2.099564-27.71245-6.09099-39.05012-9.660262-5.98378-1.784629-9.02918-2.675722-10.76133-2.675722zm-60.33285 6.055733c-2.92255-.02834-6.63006.729721-10.57987 2.29128-2.93939 1.259741-9.44908 2.939197-14.69798 3.988971-5.24895.839838-14.0661 2.728425-19.94489 4.198119-11.75759 2.729433-29.39294 7.1387315-48.28906 11.7577935-25.82468 6.508657-35.90221 10.286652-45.77017 17.6351455-9.23811 6.71861-24.56741 26.246233-24.56741 31.075246 0 1.259741-1.25749 4.827785-2.93714 8.187089-3.14936 6.088753-7.97817 17.006093-13.43704 30.023423-1.67965 3.98917-3.77963 8.81941-4.61946 10.70903-1.04978 1.67964-7.14058 15.956722-13.64924 31.493532-6.71862 15.53679-12.80635 28.97281-13.64617 30.23255-3.14936 4.40909-3.7782 11.75983-1.04876 12.80962 1.4697.62987 8.39766-.2118 15.11627-1.89146 6.71862-1.67966 19.73656-4.82738 28.97466-6.71699 9.23811-1.8896 23.51518-4.83042 31.49352-6.72004 31.7035-6.71862 43.45902-11.12832 58.78588-22.67595 18.4762-13.85715 30.02382-30.23378 44.09095-62.987054 1.67964-3.569271 5.66965-12.597001 9.2389-20.575367 3.56927-7.768397 9.44949-20.365808 13.01876-28.344174 3.35931-7.768398 7.76841-16.7955285 9.44806-19.94488051 1.67966-3.35930399 2.93715-7.13791399 2.93715-8.81757399 0-1.469693 1.4697-3.7802475 3.14936-5.2499395 1.67964-1.469694 3.14935-4.408275 3.14935-6.507839 0-2.598216-2.45813-3.934077-6.21567-3.970531zm248.96493 44.638391c-1.181.112762-2.03395.849868-2.55884 2.162109-.62987 1.889611.21179 6.089557 1.89146 9.238909 2.93939 5.668835 13.43558 27.924885 19.31439 41.572068 7.13857 16.16668 17.21607 37.582072 26.87407 57.527982 17.2165 35.06279 38.4225 52.69793 73.9052 61.72609 26.4546 6.71861 34.0145 8.3997 44.5123 9.86939 5.8788 1.04979 11.9681 2.30953 13.2279 3.14936 1.2597.83983 7.558 2.3087 14.2766 3.35849 6.5087 1.04978 14.485 2.51949 17.8443 3.14936 7.3484 1.67964 7.3507-1.67843.2122-17.63515-5.2489-11.75758-8.3987-19.31808-14.0675-32.54536-1.6796-3.56927-4.4091-10.07834-6.2986-14.06752-1.6798-3.98918-4.6192-10.70575-6.2988-14.69494-1.6797-3.98917-4.6191-10.70882-6.2987-14.69799-17.2165-40.311722-22.4664-48.079502-39.8928-59.207223-11.3377-7.348494-23.5146-11.759431-49.7592-17.638217-8.6082-1.889612-19.9467-4.829013-24.9857-6.298706-5.2489-1.67966-11.1275-2.937149-13.437-2.937149s-9.0283-1.26056-14.9071-2.940204c-5.8788-1.67966-14.48624-3.987963-19.10529-5.037736-4.61904-1.04979-10.07731-2.730882-11.96693-3.570705-.94479-.393669-1.77334-.550522-2.48196-.482858zm-435.75476 5.917334c-.24758-.0091-.5087-.0016-.78427.02461-1.46969.209951-7.7688 1.678825-14.06751 3.358485-6.2987 1.67966-16.79552 4.200781-23.09424 5.880424-6.2987 1.469709-16.16668 3.987144-22.04546 5.246885-5.66884 1.469693-14.27708 3.361351-18.89612 4.201173-34.01301 6.298706-55.63856 15.116075-69.28576 28.553325-9.44806 9.02813-20.57455 31.072382-39.68061 77.472852-2.93941 6.92857-6.5101 15.11832-19.31747 44.51227-2.09957 4.4091-4.41012 9.65905-5.24994 11.54866-1.0498 2.09957-1.88839 5.66761-1.88839 8.18709 0 3.3593.84044 4.19994 3.77984 2.9402 1.88961-.62987 6.50701-1.88982 9.86634-2.30972 3.56926-.62987 11.96753-2.30932 18.89612-3.98898 6.92857-1.4697 20.15791-4.40909 29.39599-6.2987 51.64938-10.70781 71.3835-19.73676 89.43978-40.73244 9.86798-11.33767 14.90653-20.15668 26.87406-47.03116 2.30954-4.82902 6.51092-14.48641 9.66028-21.414982 3.14934-6.92859 8.39766-18.68515 11.96691-26.24359 3.35933-7.55845 7.55846-17.007531 9.44806-20.996706 1.67966-3.989175 4.61907-9.868591 6.29871-13.227895 2.95252-5.511367 2.39738-9.544933-1.31632-9.681803zm624.68514 43.143676c-1.24-.03937-2.0009.07894-2.3158.341386-2.0996 2.30952-.8397 6.93042 5.459 20.78757 3.5693 7.97835 9.2373 20.364372 12.8065 27.922832 7.3485 16.16668 11.9681 26.03566 19.5267 43.04216 2.9394 6.92858 6.2976 14.06713 7.3474 15.74677 1.0498 1.67965 3.9884 7.3485 6.5079 12.5974 5.8788 11.54765 27.2941 33.3813 38.6318 39.05014 12.5975 6.2987 37.1644 13.22913 73.487 20.78757 9.2381 1.88961 20.9947 4.40848 26.2435 5.66822 15.5369 3.77922 25.1949 4.40869 25.1949 1.67925 0-3.14935-29.1832-71.80401-31.7027-74.3235-1.0497-1.25974-1.8914-3.36196-1.8914-4.83166 0-2.51949-4.8292-13.85614-18.0565-41.99034-11.7576-25.19482-34.2228-39.470462-73.2748-46.818962-4.6191-.83982-13.0173-2.73147-18.8961-4.20117-5.6689-1.25974-15.7468-3.77717-22.0455-5.24689-6.2987-1.46969-16.1667-3.99019-22.0455-5.24993-13.2272-3.30682-21.2562-4.842746-24.9764-4.960846zm-814.60281 5.523666c-2.52932.0525-6.07439.64546-10.74592 1.53777-4.61906.83983-13.01733 2.72842-18.89612 4.19812-5.66884 1.25974-15.74677 3.78024-22.04547 5.24994s-15.74472 3.77717-20.99365 5.24688c-5.24891 1.25974-13.64718 3.15139-18.89611 4.20116-43.46107 8.818202-58.15845 21.203602-77.05457 65.084602-6.50865 15.11689-9.02814 21.20706-12.59741 28.76551-1.88961 4.40909-4.61986 10.70738-6.08957 14.27665-2.51948 6.29871-5.03937 11.96652-14.06752 32.5423-14.0671 31.49352-14.0667 31.70389 4.61947 26.66492 6.50866-1.67965 19.31521-4.82737 28.55332-6.71699 9.23808-1.8896 20.99772-4.41154 26.24664-5.67128 5.24893-1.25975 13.22523-2.93693 17.84429-3.77678 19.52599-3.35929 43.04299-14.48681 55.43045-26.03443 8.60822-7.97837 20.99404-24.98712 25.61309-34.85508 10.49785-22.25544 27.08423-58.36698 32.33316-70.33453 1.46969-3.56928 5.66965-12.38643 9.23891-19.944892 7.55845-15.90422 9.09499-20.59134 1.50701-20.43387zm543.75543 100.813122c-2.78848.0739-3.36463.92472-3.36463 2.76182 0 1.88962 2.93939 9.65926 6.29871 17.00774 3.56926 7.13854 6.2987 14.48702 6.2987 15.74676 0 1.46971 1.26056 6.2983 2.9402 11.12731 6.08876 17.84633 13.22647 59.83872 15.95592 93.43182.83982 10.91777 2.72923 29.39396 3.98897 40.94159 1.4697 11.54763 3.77942 33.17216 5.45909 48.28905 1.67964 14.90694 3.98938 36.74142 5.45907 48.28905 1.25974 11.54762 3.14915 30.02383 3.98898 40.94159.83983 10.91775 2.72924 28.97506 3.98898 39.89281 1.25973 10.91776 3.77942 32.12341 5.45908 47.2403 1.67964 14.90694 3.98938 37.16339 5.45907 49.34088 1.46972 12.1775 3.14916 30.44375 3.98899 40.94158 1.67964 20.9957 4.829 48.50003 9.44806 85.03252 1.67964 13.22729 3.14935 28.55353 3.14935 34.0124 0 5.45888 1.0508 10.49744 2.10059 11.12731 1.25974.83982 5.45888-1.88818 9.44806-5.87736 6.92857-6.92857 7.34747-8.19015 7.34747-20.78757 0-7.13854 1.25974-26.87304 3.14935-43.6696 1.67965-16.79654 4.40907-47.45127 6.29867-68.23699 1.6797-20.78573 4.1994-48.28906 5.4591-60.88646 1.2597-12.80737 3.1491-34.01302 3.989-47.24029.8398-13.22729 2.7292-34.85346 3.989-47.87078 1.2597-12.80737 3.3597-34.22297 4.6194-47.24029 1.2598-12.80737 3.1492-34.43435 3.989-47.66163s2.7292-34.64288 3.989-47.24029c10.2879-106.65809 10.0789-100.77846 5.2499-116.73519-5.039-16.79655-9.2364-24.35581-19.3144-34.43374-8.3983-8.60824-23.72632-17.84429-29.60511-17.84429-1.46971 0-7.13855-1.26056-12.59741-2.94021-19.31603-6.08876-33.17483-9.65721-37.37397-9.65721-2.30951 0-7.9761-1.26056-12.38519-2.9402-4.61906-1.4697-13.22953-3.3583-19.10834-4.19812-3.62175-.4724-6.08957-.7086-7.76266-.66431zm-268.07942 3.80753c-2.50348-.0144-7.04708.7412-13.47701 2.31586-4.61904 1.04979-13.64618 3.35891-19.94488 4.8286-6.29871 1.67965-18.68718 4.61824-27.29541 6.50785-41.36151 9.44806-54.79894 16.16666-68.44614 34.64288-3.98918 5.45887-9.02917 15.74574-11.54865 23.09422-4.61904 14.48702-4.61904 26.66432 0 73.27474 1.25974 12.1775 3.77943 39.05198 5.45909 59.83771 7.34848 83.35286 9.65821 110.22734 11.75777 132.27281 1.25975 12.5974 3.14916 34.01301 3.98899 47.24029 2.09956 30.02382 5.45887 67.60712 9.44806 106.02922 1.88961 16.16669 3.14936 34.01404 3.14936 39.89282 0 5.66884 1.46969 21.83449 3.14935 35.69165 1.67964 13.6472 3.14935 30.44394 3.14935 36.95261 0 10.28788.83982 12.80819 6.29871 18.68698 7.55844 7.97836 11.34013 7.34828 11.97-2.30973.62986-7.34849 5.4566-51.6502 9.23583-84.82339 1.25974-10.49784 3.14915-27.92323 3.98899-38.841.83982-10.91775 2.72923-29.39394 3.98896-40.94158 1.4697-11.54763 3.77943-34.01465 5.4591-49.97137 7.13852-66.1364 9.658-89.86194 12.59741-114.84679 1.8896-14.48703 3.14935-29.18299 3.14935-32.54229 0-3.56928 1.25974-17.63638 3.14935-31.49353 5.24892-42.41128 7.7684-66.34738 9.44806-87.13311 2.51949-30.86366 9.87021-73.69485 15.95896-91.33122 1.67967-4.82902 2.93716-9.65763 2.93716-11.12732 0-1.25973 3.36134-9.44826 7.35052-18.0565 3.98919-8.60821 7.34747-16.37479 7.34747-17.00466 0-.55113-.76765-.83716-2.26975-.84575zm451.7599 35.56553c-1.6009-.0263-2.491.65591-3.3308 2.02064-.6299 1.04977.2079 4.83083 2.0975 8.19015 3.9892 7.97836 3.9892 24.77306 0 51.64754-1.6797 11.54762-4.6191 32.75328-6.2987 47.24029-1.6797 14.48703-4.6191 35.69266-6.2987 47.24029-1.6797 11.54763-3.1494 23.72614-3.1494 27.29542 0 3.3593-1.2575 15.74778-2.9371 27.2954-4.6191 30.44376-7.7707 54.37781-9.6603 73.48388-.8398 9.23811-2.7284 24.77491-4.1981 34.64287-1.2597 9.86798-3.7794 28.55556-5.4591 41.36295-1.4697 13.01731-4.4076 34.4329-5.8773 47.24029-1.6797 13.01731-4.1994 31.70102-5.4591 41.56899-1.4697 9.86796-3.3614 25.40478-4.2012 34.64288-2.0996 19.52599-5.2481 44.51085-9.6572 72.43512-1.6796 10.91775-2.9402 23.51762-2.9402 27.71676 0 8.18831 3.3595 10.91591 5.4591 4.40725.6298-2.09958 2.3093-7.13813 3.989-11.12731 2.9393-8.39827 7.5584-24.14504 12.5974-44.09093 1.8896-7.55846 4.8312-18.68474 6.5109-24.77348 1.6796-5.8788 4.1977-15.95673 5.8773-22.04547 1.6797-5.8788 4.6183-17.00896 6.5079-24.5674 1.8896-7.55846 4.8312-18.68473 6.5109-24.77348 1.6796-5.8788 4.1977-15.95673 5.8773-22.04548 1.6797-5.87879 4.6183-17.00589 6.5079-24.56434 1.8896-7.55844 4.829-18.47721 6.2987-24.14605 1.6796-5.87879 4.4099-15.95733 6.0896-22.67595 1.8896-6.50867 4.8304-17.42438 6.72-24.14299 1.6797-6.50867 4.4069-16.79799 6.0865-22.46682 1.4697-5.87879 4.4091-16.58761 6.2987-24.14605 1.8896-7.55845 4.829-18.47417 6.2987-24.14301 1.6797-5.87878 4.4099-15.95733 6.0896-22.67595 6.7186-24.14504 9.4494-34.22439 13.0188-47.66162 3.9891-15.95674 8.3982-32.33091 12.5973-47.86771 1.6797-5.8788 4.1977-15.95673 5.8774-22.04547 1.6796-5.87881 4.4099-16.16812 6.0895-22.46682 1.6797-6.2987 4.1986-15.74779 5.6683-20.9967 1.4697-5.24893 2.9409-15.1169 3.5707-22.04547.8398-11.54764.4188-13.01569-5.2499-19.31439-3.3593-3.56928-9.8676-7.55866-14.2767-8.60845-22.2555-5.66883-30.0257-7.34786-39.6837-8.81757-5.6688-1.04978-13.2248-2.72924-16.3742-3.98897-3.6742-1.46969-5.9864-2.2066-7.5873-2.23284zm-638.62662 6.48016c-4.48412-.14353-11.76598.92266-18.7208 2.891-5.24892 1.67965-17.00549 4.40827-26.24359 6.50786-32.54331 6.92857-38.84406 11.75634-38.84406 30.23255 0 6.2987 1.26056 15.74779 2.9402 20.9967 1.67967 5.24892 4.61826 15.53579 6.50786 23.09424 1.88961 7.55844 4.83125 18.68861 6.51091 24.56741 8.81819 32.12339 14.06486 51.43695 18.68392 69.91317 1.8896 7.55844 4.83042 18.89611 6.72003 25.19482 1.67967 6.29871 4.40992 16.58802 6.08957 22.4668 1.67967 6.08875 4.19772 16.16668 5.87736 22.04548 4.19914 15.5368 8.60824 31.91405 12.59742 47.87077 7.13854 26.66452 14.27788 53.74897 18.68698 69.28576 1.8896 6.29871 4.82737 17.63637 6.71699 25.19482 1.8896 7.55845 4.82898 18.2642 6.2987 24.143 1.67964 5.66883 4.40992 15.95814 6.08956 22.46681 7.55844 27.50435 9.44724 34.85346 12.80655 47.87078 1.88962 7.55844 4.83126 18.68555 6.51091 24.56433 1.67966 6.08875 4.19771 16.16668 5.87736 22.04547 1.67966 6.08875 4.61824 17.21504 6.50785 24.77348 2.09956 7.55845 4.829 17.00754 6.2987 20.9967 1.4697 3.98918 3.35911 9.02774 3.98898 11.12731 2.09956 6.50866 5.45908 3.78107 5.45908-4.40725 0-4.19914-1.4697-17.63678-3.14934-29.81429-8.39829-56.8983-9.44806-64.4588-9.44806-70.33758 0-3.56927-1.46972-15.74472-3.14936-27.29235-1.67966-11.54762-4.61906-32.75327-6.2987-47.24029-1.88961-14.48703-4.19935-33.38519-5.45909-41.99341-1.25975-8.60824-3.14915-23.30418-3.98897-32.54229-1.04979-9.23811-2.72842-24.77491-4.19812-34.64288-1.25974-9.86798-3.57029-28.34417-5.24994-40.94159-1.67966-12.80736-3.9894-30.65473-5.45909-39.89281-1.25974-9.23811-3.14914-24.35296-3.98897-33.59107-1.04979-9.23809-2.72842-24.7749-4.19811-34.64287-1.25975-9.86796-3.5703-28.34418-5.24994-40.94159-1.67967-12.80736-4.4091-33.59412-6.29872-46.19152-3.98918-28.97405-3.98918-46.61022 0-54.37861 1.67965-3.14936 3.14936-6.71904 3.14936-7.76883 0-1.02354-1.68294-1.54392-4.37343-1.63003zm762.06642 24.78577c-1.9735-.0243-3.5922.42443-4.5764 1.4086-.6298.83983-.6298 4.20037 0 7.55967 1.2597 6.71863-2.9394 33.59168-6.2987 40.52025-1.2598 2.30951-2.94 7.55947-3.7798 11.54864-.8398 3.98918-3.149 11.96857-4.8287 17.84735-3.7791 11.7576-7.5596 24.77287-13.8583 46.18847-2.3095 7.97836-5.6686 18.89714-7.1383 24.14606-1.6797 5.24892-4.4069 14.06608-6.0865 19.94488-1.6797 5.66884-4.6214 15.74677-6.5109 22.04547-2.0996 6.2987-4.4094 14.90693-5.4591 18.89612-.8398 3.98917-2.7284 10.70882-4.1981 14.69799-5.6688 16.79656-6.7196 20.36683-8.3994 27.29542-.8398 3.98918-2.7269 10.0769-3.7767 13.64617-1.2597 3.35931-3.7808 11.96754-5.8804 18.89612-1.8897 6.92857-4.8298 16.37765-6.0896 20.9967-1.4697 4.61906-4.4091 14.06507-6.2987 20.99365-2.0996 6.92857-5.039 16.37765-6.2987 20.9967-1.4697 4.61905-4.1991 14.06813-6.2987 20.9967-1.8896 6.92858-4.829 16.37459-6.2987 20.99365-1.2597 4.61905-4.1991 14.06813-6.2987 20.9967-1.8896 6.92858-4.829 16.37766-6.2987 20.99671-1.2597 4.61906-4.1992 14.06507-6.2987 20.99364-1.8896 6.92858-5.0373 16.79818-6.717 21.62719-7.7684 22.04547 4.4075 10.28624 28.7625-27.92589 2.9393-4.61906 6.7186-10.2879 34.6428-50.38965 10.2879-14.69699 37.5827-55.42779 42.4117-63.1962 3.7792-5.87878 16.3786-32.12319 19.9479-41.7812 7.3485-18.68617 13.2248-44.72184 16.3742-71.38635.8398-8.18831 2.7292-21.41457 3.9889-29.39293 1.2598-8.18832 3.5695-26.45456 5.4592-40.94159 1.8896-14.48702 4.619-35.69267 6.2987-47.24029 1.8896-11.54762 3.1493-24.35582 3.1493-28.13504 0-3.98918 1.0522-15.11709 2.522-24.35519 3.1493-22.25543.2087-34.22093-10.7091-43.03911-4.7634-4.04167-10.8177-6.39584-15.1593-6.44941zm-888.70484 6.44941c-5.45888 0-8.607 1.67843-14.48579 8.18708-3.98919 4.4091-7.98082 11.12792-8.82065 14.90715-1.4697 6.71862 1.6821 46.61144 5.6713 71.38635 1.25974 7.55844 2.93693 21.2036 3.77676 30.4417 2.09957 21.62555 5.66884 47.66142 9.44806 70.54673 1.67964 9.86796 3.14936 21.20563 3.14936 25.19482 0 16.16667 17.00773 78.31472 23.30643 84.82337 1.04977 1.04979 1.88838 3.14977 1.88838 4.61947s4.83105 10.49681 10.49988 19.94487c14.69699 24.355 14.69495 24.35356 24.14301 37.3709 4.61904 6.2987 9.4501 13.22974 10.49988 15.11934 1.25973 1.88962 7.13833 10.91673 13.43705 19.94487 6.2987 9.02816 20.36355 29.60351 31.2813 45.7702 10.91776 16.16668 20.36602 29.81488 21.20585 30.44475s2.30953 2.93818 3.14935 5.03774c1.04979 2.9394 2.101 3.35809 3.5707 1.88838 1.67966-1.67964 1.46991-5.03692-.83963-11.54557-1.67964-4.82902-4.83043-14.69861-6.72003-21.62719-2.09959-6.92858-5.03897-16.37459-6.29872-20.99365-1.4697-4.61905-4.40908-14.06812-6.2987-20.9967-2.09957-6.92858-4.82901-16.37766-6.2987-20.99671-1.25974-4.61906-4.19915-14.06506-6.29871-20.99364-1.88961-6.92858-4.82901-16.37766-6.2987-20.99671-1.25975-4.61904-4.19689-14.06813-6.0865-20.9967-2.09957-6.92857-4.62069-15.53681-5.88043-18.89611-1.04979-3.56927-2.94001-9.657-3.77983-13.64618-.83985-3.98918-2.72925-10.49744-3.98899-14.27666-1.25974-3.56926-3.35972-9.86694-4.61946-13.64616-1.25974-3.56928-3.14915-10.07834-3.98897-14.06753-1.04979-3.98918-3.35809-12.17851-5.03774-17.84736-1.88961-5.87878-4.82819-15.53619-6.50785-21.41498-1.88961-6.08875-4.61904-15.53783-6.2987-20.9967-1.67965-5.66883-5.04101-16.79512-7.35053-24.77348-4.4091-15.32685-8.18587-27.71492-13.22483-44.72143-1.67966-5.45887-4.62131-15.11628-6.51092-21.41498-2.09957-6.2987-4.4093-14.90693-5.45908-18.89612-.83983-3.98917-2.72842-10.70882-4.19811-14.698-5.45888-16.16668-6.71781-20.5768-9.65719-33.59411-1.67967-7.55844-2.94023-18.0567-2.94023-23.51559 0-10.07792.00021-10.07546-7.13832-10.07546zm949.68664 6.45555c-3.7792-.15747-6.1418.47097-6.1418 1.94068 0 1.04977 1.05 6.7186 2.3097 12.59742 2.3095 11.1277 1.6794 19.52802-5.4591 64.03887-1.6797 10.28789-3.3592 22.25441-3.989 26.24358-.8398 9.65802-4.8283 34.64391-8.8176 55.63959-1.6796 9.2381-2.9401 20.1538-2.9401 24.14299-.21 3.98918-1.4698 13.01937-3.1494 19.94794-3.5693 14.27708-3.9874 28.34417-1.2579 28.34417 1.0498 0 5.4572-5.4605 9.8663-12.17913 4.4091-6.50865 11.7574-17.21686 16.5864-23.51556 4.829-6.29871 9.4486-13.01529 10.0785-14.69494.8399-1.67964 7.5579-11.75757 15.1163-22.04547 13.0173-18.05628 22.0455-31.07361 44.091-62.98705 13.8571-20.15586 29.184-41.99116 37.7923-54.37862 9.2381-12.59741 9.6584-18.0565 1.47-18.0565-3.3593 0-10.0765-1.26056-15.3254-2.94021-11.3377-3.35931-27.5042-7.55988-38.6318-9.8694-11.5477-2.30954-25.405-5.87879-36.9527-9.44806-5.6688-1.67966-10.8665-2.62283-14.6457-2.7803zm-1006.63949 4.85321c-1.11733-.0403-2.49241.1341-4.14582.44903-2.30952.62987-9.65638 2.30932-16.16504 3.98897-6.71863 1.67966-17.84796 4.61906-24.77654 6.2987-6.92857 1.67966-18.47458 4.61825-25.6131 6.50785-7.3485 1.67965-18.05815 4.61905-23.93693 6.29872-5.87879 1.67964-12.17483 2.9402-14.06444 2.9402-6.08875 0-6.08875 4.1977 0 12.17607 3.35931 4.19913 9.02814 11.96794 12.59741 17.21686 8.18832 12.1775 22.0426 32.33336 36.94953 53.539 6.50867 9.23811 19.94631 28.55515 29.81429 43.04217 9.86796 14.48703 23.72757 34.22298 30.86612 44.09094 6.92857 9.86797 15.53679 22.25482 18.89611 27.71369 10.49783 16.16668 12.17503 11.12854 6.92612-19.10525-1.67966-9.86798-4.4091-27.71615-6.29871-39.68368-6.92857-47.24029-9.65802-65.297-12.5974-83.35327-6.71863-43.46108-7.97837-55.63695-6.29872-63.40534 2.72944-14.32956 2.68895-18.54007-2.15288-18.71466zm1141.76029 56.66375c-1.2114.11482-3.3475 1.83671-5.0008 4.04126-1.8897 2.51949-7.7668 10.91857-13.0157 18.68696-5.2489 7.76842-10.7072 15.32584-11.967 16.79554-1.8895 2.30953-33.5943 45.14236-67.3973 90.91295-3.3593 4.61906-18.6856 25.40273-34.0125 46.18846-28.3442 38.63206-38.0029 53.11908-43.8817 66.13641-4.8291 10.91775-10.0786 27.71634-10.0786 32.54534 0 2.30954-1.4696 11.12609-3.1494 19.3144-1.6796 8.39827-4.619 22.25645-6.2987 30.44476-3.5692 17.42643-3.9873 26.87408-1.2579 26.87408 1.6797 0 29.6033-26.8749 119.045-114.8468 13.2273-13.01733 27.9247-29.39499 32.9636-36.74348 13.8571-20.57576 24.9832-49.75732 28.7625-76.21189.8398-5.87878 2.7292-17.63841 3.989-26.24664 1.4696-8.60823 3.7794-24.77389 5.4591-35.69164 1.6796-10.91776 3.9894-27.08341 5.459-35.69164 3.1494-20.57576 3.3591-25.61596.8396-26.4558-.1312-.0525-.2852-.0686-.4582-.0523zm-1278.56337 4.01971c-.68072.043-1.31941.73199-1.71308 1.913-.83982 1.88962-.21098 7.34623 1.04876 12.38519 1.46971 4.82901 3.14833 16.16832 4.19812 24.77656 3.77922 35.06278 12.80737 89.02088 18.89611 113.58583 6.29871 25.61474 21.62699 52.48921 41.36293 72.43512 31.70349 32.12339 129.96187 126.8129 131.85147 127.02287 1.25974.20995 2.52031-1.46808 2.94022-3.56764.62986-3.3593-.41991-9.6576-9.44806-52.06889-1.67966-8.18832-2.94022-16.58659-2.94022-18.89611s-1.88858-10.07835-4.19811-17.21687c-3.56927-11.75759-5.8792-17.00712-10.91816-25.82531l-3.14935-6.29871c-1.46971-3.14934-10.49786-15.53578-78.73382-108.12676-18.68616-25.40476-37.37295-51.0195-41.57207-56.68834-15.32686-21.20563-44.72102-60.8883-46.40067-62.7779-.39367-.47241-.81563-.67786-1.22407-.65204zm1228.78267 261.06104c-2.1158.0859-5.6537 2.59475-10.8566 7.28597-5.6689 5.03897-13.8589 12.59721-18.4779 16.58638-4.409 3.98918-9.2363 8.3997-10.7059 9.86941-1.4698 1.4697-10.0794 9.02712-19.3176 16.79551-14.9068 12.80739-30.4423 26.87552-37.3709 33.59414-1.4696 1.46969-10.499 9.23685-20.1571 17.63514-20.7857 17.63638-29.1849 26.66574-33.594 35.90385-3.9892 7.97835-10.2877 28.76122-10.2877 33.80018 0 7.55844-12.1757 28.13463-23.3033 39.26235-4.6191 4.829-37.1622 29.39599-38.6319 29.39599-.6298 0-7.3495 4.40746-14.698 9.86635-7.5585 5.66883-20.1558 14.69738-28.3442 20.36621-13.8571 9.86798-18.4776 17.21688-6.72 10.91818 3.1493-1.46971 9.0296-4.40992 13.0187-6.08957 3.9892-1.88962 14.0671-6.29707 22.0455-9.86635 8.1883-3.56925 17.6374-7.97834 20.9967-9.44806 29.184-13.01731 40.3107-17.84734 60.8865-27.2954 6.9285-3.14935 16.3776-7.34849 20.9967-9.44806 4.619-2.09956 14.487-6.71923 22.0454-10.07854 7.5585-3.56928 19.315-8.81757 26.2436-11.96693 26.6645-11.96754 31.7029-14.69554 40.311-21.62411 14.0672-10.91778 26.2445-30.65617 29.1839-46.61288 1.2597-6.92858 6.2988-36.95241 9.4481-56.68835 1.2597-8.60823 3.1492-21.83449 3.989-29.39294s2.7314-19.52558 4.2011-26.87407c2.244-10.97024 2.1912-16.0199-.9011-15.8944zm-1178.64215 3.86596c-.81682.0187-1.21688.76889-1.67617 1.94989-.83982 1.88962.21099 11.33644 2.1006 20.7845 1.8896 9.44806 3.3585 19.94714 3.3585 23.30644 0 5.87881 2.93938 24.98528 9.44806 61.30782 1.67964 9.44806 3.14934 18.68492 3.14934 20.7845 0 3.56925 4.82921 15.95672 8.60843 22.04547 1.0498 1.67964 2.51949 4.61905 3.14936 6.2987 3.14934 7.34849 26.03465 27.08648 37.79223 32.54535 14.69699 6.92858 28.7645 13.22749 67.60653 30.65392 4.82898 2.09956 12.80838 5.87837 17.84734 7.97795 4.82901 2.30951 14.48641 6.50784 21.41498 9.65719 6.92858 3.14935 18.68515 8.39766 26.2436 11.96692 7.55844 3.35931 16.58863 7.35013 19.94793 9.02979 13.01733 5.66883 35.90017 16.16586 41.569 19.10526 3.35933 1.67964 7.76903 2.9402 10.07854 2.9402 2.09958 0 3.98899.83779 3.98899 2.09753 0 1.04977 1.47195 2.10059 3.36156 2.10059 2.72943 0 2.30912-1.05082-1.47011-5.24994-2.72944-2.72945-5.88023-5.24688-6.72006-5.24688-1.04979 0-7.1375-3.99082-13.64617-9.02978-6.50865-4.82902-14.69636-10.70616-18.26563-13.0157-3.35931-2.09956-7.13955-4.6215-8.3993-5.67128-1.04978-1.04978-12.17769-9.23748-24.3552-18.26564-32.5433-24.14503-39.05279-33.59125-47.03114-67.3943-6.29871-26.2446-9.23708-30.23501-48.28906-64.24803-17.21646-14.69696-31.07259-27.29356-35.69164-31.70266-1.4697-1.46969-10.07937-9.03018-19.31746-16.79859-14.48701-12.59742-27.08279-23.93365-38.21051-34.22153-10.97025-10.24852-14.79555-13.74885-16.59254-13.70769zm1003.80695 41.0031c-1.2597 0-6.7163 6.50662-12.3852 14.69494-12.8074 18.26624-31.7029 44.51084-34.0124 47.24029-1.0498 1.25974-3.5709 5.03999-5.8804 8.3993-3.3593 5.66883-21.204 30.4427-25.6131 35.69163-.8398 1.04979-5.2489 7.35054-9.4481 13.64924-15.5368 22.67533-32.7547 46.81793-63.4084 88.80929-18.6861 25.8247-34.64284 49.76161-34.64284 52.28109 0 1.25975 3.14996-.21076 6.92919-2.9402 3.56925-2.72944 10.07835-7.34829 14.06755-10.28769 3.9891-2.72943 9.0269-6.71799 11.3364-8.81758 2.3095-1.8896 4.8292-3.57068 5.4591-3.57068 1.2597 0 28.1342-19.3146 34.6429-24.77349 1.2597-1.04977 5.04-3.56864 8.3993-5.66822 3.5692-2.30951 15.5372-10.91918 26.6649-19.31745 11.1277-8.39828 21.204-15.32542 22.4637-15.32542 1.0498 0 7.1392-5.03856 13.2279-11.1273 10.9178-10.91777 24.7735-35.06465 24.7735-42.83304 0-2.09958 1.2605-10.49642 2.9403-18.47478 1.6796-8.18832 4.619-22.25543 6.2987-31.49352 1.6796-9.2381 4.1993-22.46743 5.459-29.396 3.7792-18.68617 5.0375-36.74041 2.728-36.74041zm-827.25559 6.6647c-1.81088 0-2.70339 2.88691-2.70339 8.66073 0 4.82899 1.0508 12.17892 2.10059 16.16809 1.25974 3.98919 3.14833 13.43521 4.19812 20.99365 4.40909 31.70348 12.1779 68.02704 17.21687 80.83441 9.44805 23.51516 18.26562 31.4925 90.70073 82.93194 12.1775 8.60821 32.12341 23.09666 44.09095 31.91485 33.80305 24.98488 35.2752 22.8847 8.82064-13.22789-8.18832-11.33767-20.78655-28.76531-28.13504-39.0532-7.13853-10.07793-20.36479-28.76327-29.39293-41.15072-8.81819-12.38746-23.30664-32.54393-31.91487-44.72142-8.60824-12.17749-21.41642-29.81121-28.13505-39.25927-17.21645-23.72513-31.91323-44.93261-38.63185-55.43044-3.67424-5.77382-6.40389-8.66073-8.21477-8.66073zm963.50499 174.21087c-1.8425.0193-5.1048 1.2622-11.9546 4.09662-5.6688 2.51948-13.8551 5.66863-17.8442 7.13832-11.5477 4.19915-25.6168 9.65803-32.5454 12.59741-6.0887 2.72945-17.2169 6.92776-32.9636 12.80656-4.4092 1.67964-11.9665 4.4091-16.7956 6.2987-5.0389 1.67965-11.7577 4.61905-14.9071 6.29871-3.3593 1.67965-7.3478 2.94021-8.8176 2.94021-1.4696 0-5.4582 1.25749-8.8175 2.93714-5.459 2.93941-13.2269 5.87941-33.1728 13.2279-4.6191 1.67966-11.1273 4.40991-14.2767 6.08957-3.3593 1.67964-7.3509 2.94021-8.8206 2.94021s-5.4583 1.25749-8.8176 2.93715c-3.1493 1.67965-9.869 4.61904-14.698 6.2987-5.0389 1.88961-13.0152 4.83044-17.8442 6.72006-5.039 1.67964-11.7578 4.61905-14.9072 6.2987-3.3593 1.67965-7.3479 2.94021-8.8176 2.94021s-5.4613 1.25748-8.8206 2.93715c-5.4589 2.72943-11.7566 5.25035-32.5423 13.01876-14.27705 5.24892-25.82529 9.65883-32.12399 12.38826-3.35932 1.67966-10.91674 4.6166-16.79553 6.92613-7.7684 3.14934-12.38705 6.71902-17.42601 14.06752-3.77923 5.45887-6.5103 11.1277-5.88043 12.5974 1.46969 4.1991 15.11915 5.0412 100.99146 6.5109 90.2815 1.4697 87.9701 1.8874 114.6346-15.95895 6.9286-4.61906 13.0194-8.39623 13.6492-8.39623.4199 0 6.9266-4.19913 14.6949-9.44806 7.5585-5.24892 14.069-9.44806 14.4889-9.44806s6.7191-3.99163 14.0675-8.82064c14.907-10.07793 20.1545-13.43498 24.7735-15.53455 15.7468-7.55844 53.9587-43.25193 66.9761-62.77791 8.8181-13.22729 19.5262-36.32234 18.0564-38.63186-.7348-1.28599-1.3103-2.0111-2.7434-1.99603zm-1101.30454 5.48369c-1.60542-.0406-2.37246.58127-2.84487 1.76228-1.25974 3.35931 8.18729 22.46313 19.94487 40.72938 11.96754 18.26624 37.37498 42.20337 61.52002 57.74017 11.96753 7.76841 24.3552 15.74697 27.50456 18.0565 3.14934 2.09956 6.29706 3.98897 6.71696 3.98897.62987 0 7.34788 4.19914 15.11628 9.44806 7.55845 5.24893 14.06814 9.44806 14.69801 9.44806.41991 0 6.92961 4.19914 14.698 9.44806 7.55846 5.24892 14.4856 9.44802 15.32542 9.44802 1.04979 0 2.93837 1.2575 4.19811 2.9372 1.25975 1.4697 9.4497 4.4113 18.47784 6.5109 14.27707 3.3593 21.83388 3.5695 72.85339 2.3097 73.4849-2.0995 109.80866-3.9908 111.48832-5.8804 5.24892-5.2489-18.68759-30.86222-28.76552-31.07219-1.88962 0-6.08874-1.26055-9.44806-2.94021-5.45887-2.93939-13.22687-5.87941-33.17277-13.22789-4.61906-1.67966-11.12731-4.40992-14.27665-6.08957-3.35931-1.67966-7.34789-2.93715-8.81759-2.93715-1.46969 0-5.45826-1.26056-8.81757-2.94021-3.14935-1.67966-9.869-4.61906-14.69799-6.2987-5.03896-1.88961-13.01836-4.83044-17.84737-6.72006-5.03897-1.67966-11.7547-4.61904-14.90406-6.29871-3.35932-1.67965-7.35095-2.93714-8.82064-2.93714-1.46971 0-5.45827-1.26056-8.81758-2.9402-3.14935-1.67967-9.869-4.61906-14.69801-6.29872-5.03897-1.8896-12.80695-4.82819-17.426-6.50784-4.61906-1.67965-12.38787-4.6213-17.21688-6.51092-5.03897-1.88961-11.75614-4.61679-15.32541-6.08649-3.35931-1.4697-10.28727-4.19995-15.11628-6.08956-8.60824-3.14936-13.22728-4.83045-34.64288-13.01876-5.03897-1.88962-11.75923-4.6168-15.32849-6.0865-6.50867-2.72944-18.2646-7.3493-31.9118-12.38827-13.43724-4.82901-26.66513-10.07875-32.12402-12.38828-9.84171-4.19915-14.84561-6.10187-17.52134-6.16953z" style="stroke-width:1.57468"/></svg>