<svg height="960" style="" width="1187" xmlns="http://www.w3.org/2000/svg"><path d="m591.71294 160.94621c-.7397-.4931-2.589-4.4382-4.0684-8.7532-8.63-25.6434-23.6709-45.9855-43.15-58.3141-9.6163-6.041-25.6434-13.3148-29.5885-13.3148-3.6986 0-8.9999-5.178-7.8903-7.8903.863-2.2192 10.1094-6.904 13.6847-6.904 2.3424 0 16.397-7.1506 25.027-12.6984 14.7942-9.493 28.3557-25.273605 36.2459-42.040405 5.0547-10.6026 6.7807-22.9311 6.904-47.0951 0-14.5477.4932-21.4517 1.4794-22.438 2.3425-2.3424 8.1369-1.8492 9.6163.863.7397 1.4795 1.2329 12.4519 1.2329 26.9996 0 20.712.3698 25.7667 2.3424 31.8077 5.0547 16.1504 18.123 35.2596 30.3283 44.875905 2.7122 2.0959 5.7944 4.5616 6.9039 5.4246 3.2055 2.589 17.1367 10.6025 18.4929 10.6025.7397 0 2.8355.7397 4.5615 1.6027 1.8493.9863 6.6575 2.8356 10.7259 4.1917 6.6574 2.0959 7.3971 2.7123 7.3971 5.7945 0 3.9451-2.3424 5.4245-13.5614 8.8765-24.7804 7.3972-47.2184 26.9996-59.4236 51.6567-5.9177 11.8354-7.767 16.5202-7.767 19.4791 0 5.7944-5.3013 9.9861-9.493 7.2738zm195.0377 577.9627c-17.5065-1.2328-30.8213-3.6985-51.1635-9.493-17.8764-5.0547-44.0129-16.2736-56.3415-24.1639-2.9588-1.8493-5.5478-3.3287-5.7944-3.3287-.863 0-16.2737-10.6026-24.7804-17.0134-10.7258-8.1369-38.3418-36.246-47.2184-47.9581-4.1917-5.5479-7.6437-10.4793-7.6437-10.8491 0-.4932-1.4794-2.9589-3.3287-5.4246-4.0684-5.178-5.178-7.2739-12.2052-20.5887-5.4246-10.4793-14.0546-29.8351-14.0546-31.5611s-8.3834-18.8627-11.5888-23.5475c-1.726-2.589-3.2055-5.178-3.2055-5.6712 0-.6164-5.0547-6.4108-11.2189-12.945-12.8217-13.5614-28.1091-24.4105-39.698-28.3556-1.2328-.3699-2.0958-1.4795-1.726-2.3425.3699-1.1095 20.9586-1.6027 96.286-1.8493 86.0533-.2465 95.7929-.1232 96.5326 1.726.3699 1.1096-.3698 2.589-2.2191 3.8219-20.4654 13.808-29.8351 45.1225-20.5887 68.7933 6.041 15.2874 26.8762 37.8487 48.2046 52.1498 3.2055 2.2192 6.1643 3.9452 6.5342 3.9452.2466 0 2.7123 1.3561 5.178 2.9588 15.534 9.7396 42.1636 17.9997 66.4509 20.4654 31.1912 3.2054 62.1359-2.7123 91.2313-17.3832 43.7664-22.1914 75.2042-61.273 87.4095-108.368 9.6162-37.109 5.7944-78.1631-10.6026-112.9296-16.7668-35.8761-44.1362-63.4921-79.5192-80.5055-13.1915-6.4108-21.2051-9.2464-36.3692-12.8217-15.7806-3.8218-36.1227-4.5615-131.4224-4.5615-59.7935 0-96.4093-.4932-99.2449-1.2329-7.1506-1.9726-15.2874-10.1094-18.3695-17.9997-2.3425-6.5341-2.4658-8.8766-2.2192-54.3689.2466-30.9447.863-47.8348 1.6027-48.0814s2.3425 1.726 3.6986 4.1917c3.8218 7.3971 9.9861 14.5477 16.1504 18.7394 11.3423 7.3972 8.8766 7.2739 119.4637 7.8903 88.2725.4931 102.4503.7397 111.5734 2.589 28.9721 5.6711 36.9857 7.8903 55.8484 15.0408 12.4518 4.8082 36.2459 16.397 38.0952 18.6161.7397.863 1.8493 1.6028 2.4657 1.6028 1.6028 0 14.5477 8.8765 26.5064 18.1229 45.12256 35.0131 79.88906 89.6286 91.97106 144.614 5.4245 23.9174 5.7944 28.3557 5.7944 59.1771s-.3699 35.2596-5.7944 59.177c-17.3833 78.9028-74.83436 147.0797-151.39466 180.2435-35.9994 15.534-80.2589 22.5613-123.2856 19.4791zm-199.476 30.0817c-.4931-.4931-.863-1.726-.863-2.7123 0-3.5753-10.2327-15.0408-17.1367-19.2325-3.8218-2.3424-9.9861-4.8082-13.6847-5.5479-4.4383-.863-40.1911-1.4794-106.0256-1.8493-95.1764-.3698-99.8613-.4931-113.2994-3.0821-7.767-1.3561-16.2737-3.2054-19.1092-3.9451-8.8766-2.2192-18.4929-5.0547-21.4517-6.1643-1.6027-.6164-6.4109-2.3424-10.4793-3.6986-12.945-4.315-39.0815-17.7531-52.6429-27.1228-21.6983-14.9175-45.8623-37.4788-60.1634-56.3415-21.4517-28.1091-37.9719-61.3962-45.7389-92.0943-7.0273-27.616-6.904-26.0133-6.904-67.1906 0-40.9308-.2466-38.0953 6.4108-65.3414 4.1917-17.26 13.3149-41.1774 20.0956-53.0128 1.726-3.0821 3.5753-6.4108 3.9451-7.6437 1.3561-3.452 14.4244-23.1777 22.3147-33.5336 17.26-22.8079 47.7115-49.5608 72.6152-63.9853 30.6981-17.7531 54.8621-26.3831 94.0669-33.6569 15.6572-2.8356 60.903-2.8356 76.437 0 39.5747 7.3971 61.2729 15.1641 95.5463 34.1501 19.9723 11.0957 45.4924 33.0405 63.9852 54.8621 18.986 22.4379 32.4241 44.3828 42.6568 69.533 1.726 4.4383 3.6986 9.1231 4.1917 10.4793.6165 1.3561 2.0959 4.9314 3.3287 8.0136 8.8766 21.8215 30.5749 45.6156 52.2731 57.5743 3.6986 2.0959 7.8903 3.9451 9.2464 4.1917 1.3562.3699 2.4658 1.3562 2.4658 2.3424 0 1.6028-11.9587 1.8493-95.5464 2.0959-62.629.2466-96.1627-.1233-97.3955-.863-1.6028-1.1096-1.2329-1.726 1.726-3.9451 11.8354-8.8766 19.2325-19.4792 23.0544-32.9173 4.1917-14.4244 2.0958-29.9584-5.9178-44.7526-4.6848-8.7533-24.1639-28.8489-38.0952-39.3281-6.2876-4.6849-11.7121-8.5067-12.082-8.5067-.3698 0-3.3287-1.6027-6.5341-3.452-26.3831-15.4107-64.1085-23.1777-96.1627-20.0956-8.0136.7397-17.8765 2.3424-21.9449 3.452-15.534 4.0684-22.9311 6.5342-29.3419 9.6163-3.6986 1.726-6.904 3.0821-7.3972 3.0821-1.4794 0-20.3421 11.7122-27.3694 17.0134-4.0684 3.0822-12.6984 10.8492-19.2325 17.3833-30.9447 31.068-47.9581 72.4919-47.9581 116.6281 0 24.164 3.8219 43.0267 13.5614 66.9441 11.9587 29.5885 39.2048 60.7798 68.4235 78.163 8.7533 5.3013 25.6434 13.3149 30.8214 14.671 2.0958.4932 7.6437 2.0959 12.3285 3.5753 17.0135 4.9314 23.9174 5.3013 132.7786 6.041l105.5324.7397 5.3013 3.6986c2.9589 2.0958 7.0273 6.1643 9.1231 9.1231l3.6986 5.3013v50.6703c0 48.4513-.3699 53.7526-3.452 50.6704zm-.863 247.80399c-.7397-1.726-1.2328-13.3149-1.2328-25.7667 0-24.6571-.9863-30.9447-7.0273-43.2732-12.4519-26.13659-35.8761-45.86229-65.0948-54.86209-8.3834-2.589-10.4793-5.0547-8.0136-9.7396.7398-1.3561 2.8356-2.7122 4.6849-3.2054 26.3831-5.5478 54.2456-27.3694 66.8208-52.2731 1.4794-3.0821 3.3287-6.5341 3.9451-7.767.6164-1.2328 2.2191-6.0409 3.6986-10.4792 2.8355-9.3697 4.0684-11.3423 7.1505-11.3423 2.7123 0 6.1643 3.8219 6.1643 6.904 0 1.2329.863 3.9451 1.8493 5.9177.9863 1.8493 1.8493 4.1917 1.8493 5.0547 0 2.3424 8.5067 17.8764 13.5614 24.6571 12.5751 17.0134 26.0132 26.9996 49.6841 36.8624 2.589 1.1096 5.6711 1.9726 6.7807 1.9726 4.0684 0 7.767 3.6985 7.3971 7.1505-.3698 2.9589-1.4794 3.6986-9.7396 6.5342-29.3419 9.9861-51.5333 28.8488-63.6153 54.12229-7.0273 14.671-7.767 18.986-7.767 45.4924 0 26.1365-.2466 27.2461-6.4108 27.2461-2.589 0-3.8219-.7397-4.6849-3.2054z" style="stroke-width:.123286"/></svg>