<svg height="960" style="" width="1728" xmlns="http://www.w3.org/2000/svg"><path d="m824.39724-30-248.65138.31666c-27.77328.81064-34.2237 5.25237-37.572 12.30143s1.94124 20.23162 1.94124 20.23162 52.1275 131.74936 52.58569 132.9477 2.14774 2.92564 2.14774 2.92564l2.64339 3.09773s27.56073-72.4968 33.23522-85.29084c5.63924-12.79404 14.80249-21.60922 25.86951-25.0985 11.06702-3.48929 26.92627-3.5942 36.75971 2.60897 9.83343 6.20317 13.32409 16.39319 14.62817 24.49961 1.30407 8.10641 3.7035 44.86202 3.7035 44.86202.00004 0 41.76623 558.00449 41.09657 558.00449s-38.35128 3.00026-95.27242-31.61061c-56.92114-34.61088-66.92583-60.87193-80.38953-86.21329-13.49894-25.30612-16.2872-69.46487-16.2872-69.46487-2.00898-21.3234 3.73685-70.88186 3.49013-82.971-.24672-12.08913-3.4871-16.03632-7.43457-19.98379-3.94747-3.94748-91.56891-60.19924-91.56891-60.19924l-344.30927-223.27751-1.48003 2.18218 704.86444 900.1316zm79.23307 0v1020l704.83689-900.1316-1.48-2.18218-344.3093 223.27751s-87.6214 56.25176-91.5689 60.19923c-3.9475 3.94748-7.1878 7.89467-7.4346 19.9838-.2467 12.08913 5.4922 61.6476 3.4833 82.971 0 0-2.7814 44.15875-16.2803 69.46487-13.4637 25.34136-23.4753 51.60241-80.3965 86.21329-56.9211 34.61087-94.59582 31.61061-95.26548 31.61061s41.13098-557.97007 41.13098-557.97007 2.3994-36.7556 3.7035-44.86202 4.7879-18.29644 14.6213-24.49961 25.6996-6.09826 36.7666-2.60897c11.067 3.48928 20.2302 12.30445 25.8695 25.09849 5.6745 12.79404 33.2352 85.29085 33.2352 85.29085l2.6434-3.09773s1.6896-1.7273 2.1477-2.92564c.4582-1.19834 52.5858-132.9477 52.5858-132.9477s5.2895-13.18256 1.9412-20.23162-9.7988-11.49079-37.572-12.30143z" style="stroke-width:3.52453"/></svg>