<svg height="960" style="" width="1200" xmlns="http://www.w3.org/2000/svg"><path d="m600 0-480 480 480 480 480-480zm0 120.05859 178.41798 178.35938h-103.18362l-75.23436-75.23438-75.23436 75.23438h-103.125zm181.58202 181.52343 178.47657 178.41798-178.47657 178.47657v-103.24221l75.23439-75.23436-75.23439-75.23436zm-363.16405.0586v103.125l-75.23438 75.23438 75.23438 75.23436v103.18362l-178.35938-178.41798zm181.58203 22.26563c86.22 0 156.09375 69.87375 156.09375 156.09375s-69.87375 156.09375-156.09375 156.09375-156.09375-69.87375-156.09375-156.09375 69.87375-156.09375 156.09375-156.09375zm-178.41798 337.67577h103.18362l75.23436 75.23439 75.23436-75.23439h103.24221l-178.47657 178.47657z" style="stroke-width:30"/></svg>