<svg height="960" style="" width="1330" xmlns="http://www.w3.org/2000/svg"><path d="m665.96442-60c-1.49835 7.62797-2.63008 13.66129-3.92414 19.62064l-.19952 1.13068c-4.76749 20.94288-13.5921 40.31823-25.34058 56.8001-8.89408 12.76406-18.46357 25.02176-27.86795 37.4455l-.0665.13302c-7.54335 9.649-12.57267 21.36056-14.16678 34.45252-2.24753 20.50018 1.76336 39.64195 14.49935 56.60057 13.8257 18.42292 27.21773 37.27417 40.77101 55.93546 5.24423 7.18528 10.39856 14.38013 15.09794 20.88434l-13.16912 14.03375c2.55401 2.24753 4.71 3.94435 6.65105 5.91945 1.56646 1.94104 3.96086 3.19251 6.65108 3.19251.0326.49231.13301 1.00743.13301 1.52975 0 .54485-.099 1.05299-.13301 1.52974-2.9286 15.69864-7.8387 30.6811-16.7607 44.03005-6.12962 9.16038-12.57955 18.12015-19.28808 26.80378-16.17539 20.80666-18.09461 44.37434-2.32786 66.57716 8.30904 11.669 16.71847 23.27343 25.14102 34.8516 4.35884 5.95936 8.86721 11.75856 13.63469 18.02439 1.83889-2.07726 3.5937-3.58252 4.92178-5.38736 11.95277-15.97107 24.14125-31.80807 35.58321-48.15373 12.8722-18.42291 14.41207-38.05313 2.52741-57.53171-6.368-10.42035-14.06568-20.08513-21.2169-30.06279-11.20359-15.69865-18.44529-32.90257-20.35229-52.21088 4.63127.23837 6.42814-3.45802 8.84593-6.31851v-.0665l.19952-.13303 3.65809-1.19719c-2.55401-6.84474-7.3848-10.93169-12.96956-14.16676l.0665-.26605c.68107-1.32808 1.47972-2.56837 2.19484-3.65808 18.52508-24.88173 37.03402-49.72213 55.53642-74.55845 12.08898-16.17539 16.61063-34.48604 14.49931-54.3392-1.15781-10.69279-4.07418-21.10516-10.44218-30.12933-10.79495-15.25595-21.59095-30.50657-32.59021-45.6263-13.21346-18.02416-22.41811-39.23374-26.40474-63.05211-.64702-3.81398-1.99584-7.529-3.39204-12.63702zm.13302 51.34622c5.4145 9.12633 10.53048 18.84221 16.69419 27.93448 9.84087 14.55772 20.34313 28.68169 30.7279 42.89937 6.23178 8.41121 10.47198 18.39366 12.03844 29.59724 2.62212 17.98023-2.17462 33.65014-12.96956 48.02069-15.05167 20.02343-29.7473 40.39751-44.62866 60.59121-.47674.47675-1.0498.88752-1.66279 1.33021h-.0665c-1.08971-.85133-2.03946-1.8043-2.99296-2.85996-9.6939-13.21274-19.35016-26.44871-28.99866-39.70686-5.23119-7.15492-10.56335-14.29507-15.62999-21.54945v-.0665c-.0353-.0506-.0977-.0824-.13302-.13302-7.407-10.28309-11.77241-22.90983-11.77241-36.51435 0-3.23508.28894-6.35363.73164-9.11196 1.70267-13.11058 7.57209-23.77091 15.0979-33.98694 10.3182-14.03003 20.69013-27.99514 30.39537-42.4338 5.09715-7.57777 8.85584-16.05647 13.16911-24.01035zm-379.11072 108.07982c.97809 4.31896 1.68231 7.46086 2.46089 10.57519 2.62211 10.11388 2.61414 10.11866 13.1026 12.57051 3.71183.88539 7.24753 1.72556 10.17613 4.72226 14.7792 15.05163 29.78294 29.87712 44.56214 44.89469 1.83889 2.00916 3.33564 4.32585 4.32319 7.05013 2.96265 7.86635 5.5539 15.87636 8.38034 23.81082 12.49762 35.14316 25.18626 70.24057 37.4455 105.4859 5.24423 15.11974 13.0164 28.38781 25.20754 38.84222 10.93116 9.33065 23.07015 15.8902 37.64502 17.55882 11.71439 1.36213 23.30588 3.18505 34.91811 4.92177 15.39216 2.28159 30.66565 4.76854 46.09186 7.05013 4.67779.71185 9.45416 1.05644 14.23329 1.52974.26156-.86659.49882-1.76206.53209-2.72693-1.53241-10.62468-3.12335-21.20147-4.65576-31.7921-2.96265-19.68289-6.01629-39.31206-8.97894-58.99495-4.66533-31.02269-22.47368-51.41379-51.14669-62.71954-13.28085-5.24423-26.88677-9.73183-40.37197-14.49932-31.26106-11.16953-62.60496-22.29011-93.97954-33.25532h-.13302c-3.06481-1.12377-5.7678-2.97117-7.98128-5.32086-12.15708-12.22519-24.01513-24.6994-36.58086-36.44784-7.18528-6.70852-12.95521-13.69534-13.56817-23.87732-.20432-3.09886-1.89263-4.37534-4.85528-4.9883-5.21018-1.08971-10.32299-2.65297-16.82719-4.3897zm755.62758.33255-18.8226 4.85528c-1.1517 3.73205-2.2039 7.49434-3.126 12.10494-.647 4.35884-2.8871 7.3465-5.9859 10.30915-13.7349 13.48517-27.3297 27.14645-40.83758 40.90405-2.96265 3.03076-6.51804 5.41716-10.77472 6.98362-5.75503 2.07726-11.60422 4.14228-17.35926 6.18549-37.54962 13.30355-75.11787 26.51682-112.73556 39.70686l-.53208.19953c-8.99012 2.9967-17.29225 7.51784-24.40942 13.1026-14.91541 12.22519-25.63054 27.14539-28.86561 46.62399-1.25998 7.52581-2.13526 15.12024-3.25906 22.68011-1.95238 13.37167-3.98813 26.73428-5.98595 40.10594-1.32808 8.81985-2.63008 17.65137-3.92411 26.47122-.34054 2.4859-.55817 5.01546-.86465 8.11429v.0665c1.04993.21903 2.14618.29981 3.25902.33253 11.13547-1.53241 22.22042-3.02115 33.32185-4.65575 19.68289-2.89451 39.278-6.22378 58.99495-8.8459 15.86891-2.07726 29.09548-9.46315 40.57149-20.01972l.0665-.0665c9.60307-9.12633 16.9895-20.53584 21.41642-33.98695 7.92311-22.6115 15.92993-45.20666 23.94387-67.84086 7.25338-20.50018 14.73237-40.92161 21.81546-61.45585l.13304-.19953c1.3962-4.08641 3.6868-7.67905 6.71756-10.6417 11.51007-11.37385 23.18724-22.56787 34.18654-34.45252 7.7982-8.37715 16.0854-14.87923 27.8679-15.69652.4427-.034.8439-.55177 1.7293-1.13068.8513-6.23178 4.5823-12.33001 3.4586-19.75366zm-18.8226 4.85528c.082-.26482.1161-.60066.1996-.86464l-.2661.86464zm-194.14454 7.5157-4.98832.66511c-1.15782 3.03076.56028 6.12483-2.06184 8.71289l-6.8506-5.32085-2.92645 3.99064 5.05479 7.18315-9.11195.46558.33256 6.05247c3.23508 1.63456 6.39725-.57147 8.71289 2.5274l-5.91945 5.65341 4.3897 3.7911 7.24967-5.6534h.13301c.47675 4.25668.79175 6.98628 1.06417 9.71055h4.85528c.47674-3.09886.95084-5.90136 1.52975-9.51102l7.71525 5.85294 3.45854-3.7246-5.25435-6.8506c1.32277-.42211 2.70756-.73338 4.25668-.93115 2.72428 0 5.42301-.11493 5.32085-3.72459-.0681-3.13292-2.53643-3.28988-4.98828-3.39204l-.13302-.0665c-1.60051-.23837-3.1622-.62147-4.45623-1.06417l5.58691-7.24966-3.92415-2.92647-7.91474 5.38737c-.47674-3.81399-.75612-6.47867-1.13067-9.57754zm-326.10174.39907c-.4427 3.09886-.78698 5.63531-1.26373 9.24498l-7.38268-5.45388-3.85761 3.05949c1.12376 2.99671 4.73503 4.00501 4.19017 7.64873l-7.5822 1.33021c.10216 2.11131.26602 3.84698.26602 5.71992l8.24734 1.52974h.0665c-2.00916 2.79238-3.61498 4.96489-5.45387 7.38268l4.25668 2.85996 7.5157-5.52038c.40864 3.9502.69119 6.61009.99767 9.77707l5.1213-.53209c.37458-3.16697.68798-5.76674 1.13067-9.44451 3.13292 2.45185 5.26661 4.11461 7.58224 5.91945l3.12597-3.85762-4.92178-7.11664 9.24501-1.06417c-.37459-2.45185-.62468-4.37428-.93116-6.45154-1.80483 0-3.13132.0681-4.32319 0s-2.39491-.29531-3.7911-.46557c4.76748-7.15123 4.77599-7.2071 1.06417-10.44217l-7.11666 5.12132c-.4427-3.64372-.72364-6.31639-1.06417-9.24498zm-183.23687 187.89258-4.78877.39907c-.40864 3.13292-.75449 5.83485-1.19719 9.44452l-7.5157-5.58691c-.88539 1.02164-2.5987 2.24862-2.39438 2.79347l.19953.53209c1.22593 2.86049 2.56359 5.63319 3.85762 7.91477l-8.84592 1.86228.19953 4.98829 9.44451.46557.0665.0665c-2.58806 3.40532-4.40992 5.6949-6.38502 8.1808l4.45622 2.59392 6.9171-5.25434c.57891 3.74588 1.053 6.54517 1.52975 9.64404l4.92179-.33257c.13621-1.73673.16229-2.79395.33255-4.19014.17027-1.39619.49005-2.83975.86464-5.12133l7.91477 5.65338 3.52506-3.19251-5.38736-7.44919 8.44685-1.39671-.46557-5.12133-6.38502-.46558c-1.69217-3.58739 1.02203-5.22363 2.72693-7.31614v-.0665c.32617-.6665.59903-1.39936.73162-2.19488l-3.92413-2.46088-7.31617 5.32086c-.61296-3.77994-1.053-6.61172-1.52975-9.71058zm692.57545.33256c-.4768 3.13292-.9168 5.93382-1.5298 9.57754l-7.0501-5.71993-3.9241 3.52508c3.2691 4.05236 3.2755 4.06833 3.9906 7.84826-7.7301.91945-7.71148.93007-6.4515 6.65105l8.2473.73164-6.25197 7.84823 4.12367 3.0595 7.4492-5.38736 1.5297 9.71055 4.7223-.39904c.4427-3.167.7869-5.83485 1.2637-9.44452l7.2496 5.58688 3.9907-3.0595c-.9876-3.09887-4.9426-4.00179-4.0572-7.78173l7.1832-1.19718v-5.91948h-8.4469l4.9883-8.97891-2.86-3.32555-8.1807 6.38502v-.0665c-.5109-4.25668-.8243-6.91976-1.1307-9.64404zm25.008 104.02268c-11.9996.8258-23.8241 4.80205-35.3172 12.03841-6.47013 4.01831-12.5923 8.77302-18.75597 13.30213-21.21531 15.59648-42.45189 31.28075-64.38232 47.42209 9.24538 6.93444 17.77056 13.46096 26.33824 19.88671 16.65214 12.2933 33.49849 24.41738 50.08252 36.84689 19.95533 14.91541 42.03583 19.17901 66.11163 13.90072l.532-.13301c8.8199-2.17942 16.8656-6.03172 23.7444-11.17379 12.6203-8.90849 25.2238-17.96085 37.5784-27.26936 18.1846-14.16624 39.6676-24.29288 64.0498-29.26469 6.8448-1.32808 13.7417-2.19859 21.9485-3.45857-5.755-.88539-10.009-1.61594-14.2998-2.19484l-.7316-.0665c-21.1131-2.69022-40.7806-9.99524-57.3987-20.55181-15.6732-9.95232-30.3656-21.28735-45.6928-31.8586-5.1761-3.91615-10.7561-7.40823-17.2262-10.57517-12.3614-5.36342-24.5813-7.67639-36.5809-6.8506zm-749.70809.6651c-17.60564 0-33.81987 5.8907-46.62397 15.62999-13.65543 9.94361-27.14646 20.12239-40.90405 29.92982-21.72611 15.49432-45.7306 24.93084-72.49662 26.80378h-.33255c-2.73569.43905-5.4778 1.08814-7.64872 1.72927 7.3896.9535 12.93924 1.57712 18.48996 2.3944l.86464.0665c21.69205 3.40535 41.86925 11.47336 58.86192 22.81316 14.33651 9.3647 28.17977 19.61159 41.83521 29.92978 18.83156 14.2003 39.69622 19.72918 62.85257 15.09791l.46557-.0665c10.45441-2.07726 20.06334-6.44407 28.134-12.43748 17.67375-13.07653 35.5997-25.8338 53.34155-38.84222 8.68363-6.29989 17.17944-12.87486 26.27171-19.75366-3.03076-2.62212-5.39162-4.97606-8.04779-6.91711-22.47528-16.54998-45.03303-33.00045-67.50832-49.55043-13.99596-10.28415-29.48869-16.65694-46.89001-16.82721zm754.56339 12.43748c3.0307 0 6.0583.224 8.6464.59859 13.2808 1.63457 24.1976 7.63703 34.652 15.23095 10.7609 7.86635 21.1595 16.28501 32.1247 23.81083 7.5939 5.21017 15.8407 9.37161 23.8773 13.90072 3.3372 1.87294 6.8245 3.41226 10.7747 5.38736-1.0676.86046-2.1592 1.59492-3.4586 2.32786-16.3456 7.15122-30.3943 18.04462-44.6286 28.53308-9.4669 6.98096-18.6187 14.56-28.7326 20.48526-24.2801 14.20033-48.4171 12.71846-71.2329-3.52504-19.81911-14.03002-39.21469-28.72674-58.79543-43.16541-1.25998-.88539-2.28638-2.12568-4.05716-3.65809l.0665-.0665c1.5324-1.60051 3.08449-3.0909 4.85527-4.58925 19.7887-14.49359 39.63737-29.00714 59.52702-43.29842.05-.0361.083-.0969.133-.13301 10.1484-7.44092 22.678-11.83892 36.2483-11.83892zm-752.56807.53208c11.71864.39162 23.26436 4.47061 34.51903 12.37101 20.94287 14.67701 41.35153 30.17402 61.98793 45.29375.85133.61296 1.63084 1.23975 2.99297 2.26136-3.77993 2.96265-6.90699 5.49697-10.17612 7.91477-18.7294 13.72354-37.46892 27.64926-56.33453 41.23659-19.751 14.3365-51.52554 14.13538-70.83384-.13302-11.15266-8.26371-22.27358-16.60518-33.58788-24.67544-12.32735-9.16038-25.87052-16.81178-41.56917-23.14572 7.79825-4.25668 14.91702-7.31778 21.2169-11.50632 12.736-8.54742 25.04845-17.68226 37.51201-26.60426 6.26584-4.46101 12.21615-9.48815 18.82252-13.30217 11.8506-6.84474 23.73153-10.10216 35.45018-9.71055zm253.60511 9.64404c-12.12834-.49803-23.43889 3.28191-33.98695 11.17379-11.03332 8.30905-22.21082 16.58193-33.72089 24.2099-12.56572 8.27499-26.69737 12.39917-41.17009 14.03373-3.57561-4.66532-6.73993-8.81184-10.04311-13.10257l-.26604.19952c-2.9967 2.11131-5.89125 4.33544-8.51337 6.65108-4.76748 4.66532-4.9005 9.26625-.13302 14.03373 2.72799 2.45138 5.61705 4.82929 8.91243 7.18314l9.64405-11.9719h5.45387c1.08971 0 2.14005.12821 3.05949.33256l.86464.13302c16.89049 3.91614 32.51412 11.2456 45.6928 20.95084 7.25339 5.27828 14.09337 11.08811 21.48297 16.16211 20.36396 13.99597 42.34758 14.1045 63.05208-.26606 15.97107-11.06737 31.39252-23.03982 47.02305-34.65205 1.96383-1.4898 3.68663-3.32242 6.45153-5.78643l-.13301-.0665c-.9535-.37459-1.87723-.75449-2.66046-1.19718-15.93702-11.61223-31.92137-23.20052-47.68812-35.05112-6.4361-4.9037-13.1542-8.99757-20.88434-11.04078-4.21411-1.13227-8.39472-1.76281-12.43751-1.92882zm244.82571 0c-11.51432-.0426-22.89403 3.84113-32.92277 11.63937-10.3182 8.07067-21.07003 15.41559-31.59255 23.14573-6.81069 5.00586-13.49954 10.08408-20.68482 15.43047 3.71183 2.55401 6.74473 4.63553 9.84359 6.91711 14.81326 10.96521 29.48124 22.09218 44.3626 32.98928 19.10399 13.96192 43.1968 13.37821 61.72188.19952 5.83448-4.15452 11.59449-8.4112 17.29279-12.77005 11.81655-9.02416 23.97203-17.4859 38.37664-22.01501 7.28744-2.28158 14.46472-5.10325 21.61595-4.45623 3.26913 4.39289 6.10888 8.11112 9.37801 12.50402l.0665.0665c3.06481-2.24753 5.89605-4.1375 8.31384-6.38503 4.78386-4.04269 5.20729-10.27825.79811-14.56582 0 0-.0665-.0665-.0665-.0665s-.0665-.0665-.0665-.0665c-2.75169-2.40689-5.62859-4.67186-8.97894-6.98361-3.54156 4.56316-6.64094 8.48091-9.9101 12.70353-17.67375-1.56646-33.60807-8.15685-48.35322-17.69182-8.78579-5.68693-16.99587-12.3231-25.40708-18.62299-10.62467-7.9685-22.2731-11.92936-33.78743-11.97193zm-122.3796 16.76071c-18.52508-.34054-35.05057 17.12834-33.65438 32.65671-1.53241 16.10729 13.85284 34.05026 32.92278 34.18651 17.2651.13618 33.28139-15.58481 33.58787-33.12234.30648-18.11643-15.96576-33.4144-32.85627-33.72088zm-.93112 71.49894c-11.61223 15.90296-22.43115 30.51775-33.05583 45.16073-4.05236 5.58477-8.54527 10.99607-11.43981 17.15974-8.07067 17.12889-7.48591 34.3046 2.59392 50.5481 4.15452 6.74259 9.40246 12.68491 14.03373 19.15507 8.23433 11.57531 16.98447 22.72666 21.74899 36.44786 2.72285 7.6533 4.74746 15.62781 5.78643 24.47592-2.55401 1.70267-4.63873 2.85408-6.78409 4.5227-2.14537 1.66862-4.14227 3.51762-6.18547 5.25435 1.73672 2.21347 3.58572 4.40355 5.25434 6.65108 4.89631 6.65224 11.60154 7.03432 17.09324.79811 0 0 .0665-.0665.0665-.0665s.0665-.0665.0665-.0665c1.89722-2.34169 3.65022-4.77671 5.52037-7.64871l-12.37098-9.9101v-.19952c.71512-14.94948 5.44695-28.89437 12.83655-40.43849 7.42365-12.22519 15.99661-23.70655 24.47592-35.25067 14.81325-20.12559 14.03002-43.56394 0-63.45116-8.10472-11.44196-16.56435-22.64874-24.9415-33.92044-4.56316-6.12962-9.31839-12.17251-14.69883-19.22157zm-99.16741 61.2563-12.57049 1.79581c-12.36141 1.70268-24.7856 3.31807-37.11295 5.0548-9.60308 1.32808-19.23009 2.75993-28.79911 4.19017-8.07067 1.22593-16.34515 1.77878-24.14339 3.92415-22.37311 6.19773-39.29874 19.73078-49.61694 40.57149-5.00586 10.01172-8.52453 20.80241-12.30447 31.39303-13.07652 37.09555-26.14365 74.19785-39.17477 111.33883l-.0665.13301c-1.0897 3.37129-2.96956 6.42653-5.38736 8.91243-14.68839 14.39328-29.17121 28.89879-43.56448 43.56449-2.45184 2.4859-5.66776 4.30401-9.31148 5.1213-3.91616.91947-7.85305 1.57711-11.90541 2.3944l-5.45388 20.95084.0665-.0665c4.63127-1.19187 7.99884-2.11077 11.50635-2.85994 10.01171-2.4178 10.16868-2.45505 11.9054-12.63703v-.0665c.4427-3.88209 2.1342-7.35289 4.72226-10.04311 14.91541-14.7792 29.7441-29.817 44.76167-44.56215 2.31563-2.24753 5.07875-3.99593 8.31383-5.18781 17.09484-6.09556 34.25139-11.82986 51.34623-17.89137 28.19626-9.97767 56.57874-19.53392 84.46852-30.32886 24.1439-9.2966 39.90745-27.28373 46.95652-52.21086 2.4859-8.75174 3.29361-18.01162 4.65575-27.06984 1.22592-8.07067 2.16771-16.20573 3.32552-24.2764 1.25998-8.81985 2.66418-17.65137 3.92415-26.47122 1.19187-8.24093 2.23262-16.54681 3.45854-25.67314zm198.86686.19956c.71513 5.4145 1.31746 9.87284 1.86232 14.29979 1.19187 8.8539 2.39808 17.68383 3.65806 26.53772 1.8616 13.12196 3.76753 26.25239 5.71992 39.37431 1.12376 7.5599 1.64574 15.36025 3.7911 22.61364 7.52582 25.36982 23.49263 43.44158 48.41976 52.94246 18.15049 6.91285 36.41751 13.3825 54.73827 19.88671 26.94762 9.60307 53.92773 19.11162 80.94346 28.53308h.13302c3.09889 1.05563 5.9333 2.87217 8.18083 5.18781 12.42951 12.63383 24.77283 25.32089 37.64508 37.51202 6.3679 6.02747 11.1514 12.42791 12.1049 21.34992v.26603c.3746 1.9751.9168 3.85338 1.5297 5.45389l20.6183 5.25432c-1.941-7.662-3.6847-14.24392-5.3873-20.88434l-10.1761-2.26135h-.066c-4.1205-.64702-7.8137-2.59658-10.7083-5.32086-14.5748-14.81325-29.42109-29.38227-44.03002-44.22958-2.07726-2.11131-3.73151-4.68609-4.85528-7.64871-15.46026-43.31599-30.83594-86.64425-46.09189-130.02835l-.13302-.6651c-2.41779-7.28744-5.72949-14.12687-9.57753-20.08622-10.96521-16.34566-25.48581-28.23137-44.82821-32.59021-15.39212-3.47346-31.16047-5.23092-46.75696-7.64875-9.84144-1.49832-19.68929-2.89454-29.53074-4.25668-8.58147-1.19184-17.19114-2.26347-27.20286-3.59155zm-446.02044 41.96822c-.13622 0-.32936.0665-.46557.0665h-.0665c-1.80484 0-3.25903 1.45419-3.25903 3.25902v.13301c-.20432 1.80483-.5225 3.65915-.93115 6.45153l-7.38268-5.78643-3.05949 3.99066 4.92179 5.52037c-1.70267 4.80153-6.43132 1.43824-8.7129 3.92415v4.58921l9.31149 1.06417c-2.0432 2.96265-3.65223 5.29746-5.32085 7.71525l3.52507 3.39203 6.05247-5.38735c4.35884 2.28158 1.75535 5.54751 2.06183 8.64637.91852.22261 1.88306.43299 2.92647.46558h.13302c1.15781-.13621 2.30552-.42512 3.25902-.7316.23837-2.96265.45919-5.37568.73162-8.71292l7.11664 5.91948 4.05715-3.19251-5.85294-7.98132 9.71055-1.52971-.39906-4.45624c-2.86049-1.90699-6.84794.75929-8.38034-3.25901l4.85528-6.18547-3.59158-3.39207c-2.96265.98755-3.8656 4.77229-7.78175 4.05716-.13621-1.94104-.12823-3.65063-.33255-5.38735 0-1.73673-1.35522-3.19252-3.126-3.19252zm695.56846.13302c-1.907 0-3.4586 1.48503-3.4586 3.39203v.26606c.068 1.66862.4283 3.32287.5986 4.85527-4.7334 1.63457-5.5316-3.99066-9.3115-3.99066l-2.3279 2.993c1.1238 3.23507 5.4858 4.15612 4.1237 8.44685l-8.04781.93116c.23838 4.35884.19956 4.3615 8.71291 6.98362l-5.32084 7.11662 3.65804 3.99066 7.3827-7.05016h.067c.8514 4.12047 1.4149 6.9102 2.0619 10.04312l4.7887-.19952c.5449-3.23508 1.0498-5.99872 1.6628-9.71055l7.3162 6.18547 3.259-2.99296-5.853-8.04782 9.5776-1.13067c-.1362-1.83889-.2304-3.45588-.3326-4.98829l-9.1119-1.59625c2.2816-3.16698 3.8161-5.29743 5.5869-7.71522l-3.3256-3.59159-7.5157 5.52037c-.3065-2.92859-.4916-4.84304-.7981-6.78409v-.0665c-.2724-1.63456-1.6553-2.85994-3.392-2.85994zm-349.18097 111.53834-.0665.19956c-.5108 1.36213-1.08228 2.60083-1.7293 3.72459-18.28912 24.87186-36.75025 49.58585-54.80478 74.62495-4.01831 5.75503-7.41299 11.93573-10.37564 19.15507-3.50158 7.93694-5.45387 16.68912-5.45387 25.93916 0 1.12376-.002 2.30552.0665 3.25902v.13301c.78323 16.00512 6.31212 30.78272 15.09791 42.63332 5.55071 7.3896 10.87902 14.89148 16.36163 22.28108 11.74844 15.83485 24.0114 31.38719 31.06046 50.08249 5.03991 13.383 9.33439 27.0624 9.77709 41.5692v.1995c.13621 1.7368.32616 3.4267.59859 4.7888l1.3967-.133c.71512-4.7334 1.44727-9.4658 2.12834-14.2333l.13305-.7981c3.16697-21.2494 10.91679-41.0126 21.882-57.6648 9.60307-15.0516 20.5688-29.2588 31.19347-43.69747 8.99012-12.22519 15.0043-25.68376 16.16211-40.83755 1.36214-17.60563-2.41619-34.17901-12.83655-48.68578-16.41376-22.88392-33.1984-45.5263-49.81649-68.23995-3.06481-4.29074-6.34777-8.47666-10.77472-14.2998zm1.06417 22.8797c6.09557 8.20688 11.87189 15.88114 17.55882 23.61127 10.25009 14.03002 20.37568 28.27234 30.72793 42.23425 15.8008 21.31747 14.04861 54.89206-2.19488 75.29008-9.70524 12.19114-18.7512 24.97075-27.46888 37.91106-5.4145 8.03659-9.73183 16.79479-14.49935 25.27409-1.18322 2.1298-2.27613 4.3199-3.7911 7.1166-2.46476-4.6944-4.51917-8.6451-6.65105-12.5705-8.37715-15.63056-19.6829-29.25885-29.79678-43.69751-6.26583-8.99012-13.96406-17.08578-18.35695-27.33587-8.68363-20.15965-8.15846-40.0708 3.65809-58.59588 9.33064-14.64299 20.17933-28.30323 30.39536-42.3673 5.28966-7.19662 10.60483-14.41932 15.96256-21.61598 1.19187-1.63456 2.6514-3.10898 4.45623-5.25431zm162.61853 52.6764-5.58688 1.19722c-1.49835 2.62212.41716 5.95881-3.19251 7.11663l-5.98595-4.4562-2.72693 4.32319 5.32085 7.31618-9.71058 1.52971.39907 4.7888 9.37802 1.13068-5.4539 7.44919 3.126 4.12364 7.84827-6.11896c.20432 3.57561.36182 6.04394.53208 9.24496l6.38503-.39907c.34053-3.26913.62467-5.71138.93115-8.9124l6.7841 5.38736 3.85761-3.32553c-1.90699-2.58806-3.44315-4.72175-5.52041-7.58224l9.64404-.99763c-.13621-1.9751-.23037-3.52242-.33253-5.05482l-9.245-1.3302 5.4539-7.64875-3.39207-3.92411-7.18313 6.11896c-.44269-3.67777-.81943-6.60528-1.33023-9.97661zm-323.77384.93116c-.61297 3.06481-1.31106 5.83486-2.12835 9.44452l-7.18316-6.38502-3.59155 3.92412 5.32085 7.51573-9.51103 1.19718c.10216 1.907.19792 3.45588.26603 4.98829l9.37801 1.26372-5.38736 7.24964c1.12377 1.66862 2.07035 3.05685 3.12601 4.58925l6.85057-6.31851c1.6506 3.55354 1.76036 3.77594 1.39673 6.78409v.0665c.0341.88539.1607 1.67924.39908 2.39436l6.05245-.53208c.10216-1.80483.0617-3.09727.26606-4.32319l.0665-.19952c.34053-1.29403.72203-2.56998 1.13067-3.59158l7.18317 5.45386 2.79344-4.32319-5.32085-7.18313 9.64404-1.52975c-.13621-1.90699-.26286-3.25636-.39907-4.78877l-9.31148-1.19718c2.21348-2.92863 3.78045-5.09634 5.65339-7.58224l-3.12601-3.99062-7.5157 5.32085c-.57891-3.26913-.954-5.62522-1.3967-8.24734z" style="stroke-width:34.0535"/></svg>