<svg height="960" style="" width="1544" xmlns="http://www.w3.org/2000/svg"><path d="m1220.1088 680.53204c-16.4277 2.3468-23.7029 21.3561-13.6115 36.1411 4.4589 7.2752 29.57 29.57 32.6208 29.57 1.1734 0 4.9284 2.8162 8.4486 6.1018 3.5202 3.2855 13.3769 11.2648 22.0602 17.8359 8.4485 6.5711 15.9584 12.6728 16.6624 13.6116 3.0509 4.2242 22.2949 16.4277 26.2845 16.4277 5.163 0 19.7133-8.9179 31.9168-19.4786 4.6937-4.2243 19.7133-15.9584 33.3249-26.0498 32.3862-24.407 41.0695-32.8555 44.5897-43.6509 3.2856-10.0914 2.1122-18.0706-3.9896-25.5804-4.2243-4.9284-5.163-4.9284-96.9239-5.6324-50.9261-.2347-96.6892 0-101.3829.704zm-996.46221-.2347c-2.8162.7041-7.9792 4.2243-11.7341 7.5099-3.5202 3.2855-9.3873 7.9792-13.3769 10.326-3.7549 2.3468-7.9792 5.6324-9.3873 7.0405-1.1734 1.4081-11.2648 9.3873-22.2949 17.6012-43.1815 32.1515-52.5689 45.9978-44.355 64.303 5.8671 12.6729 10.0914 13.1422 108.8928 13.1422 62.4255 0 92.2302-.704 95.7504-2.5815 11.0301-5.867 15.7238-11.9688 15.7238-21.3561 0-11.9688-7.5099-21.8255-30.5088-39.6613-9.6219-7.5099-22.2948-17.6012-28.1619-22.2949-5.6323-4.459-14.0809-11.0301-18.5399-14.5503s-11.2648-9.1526-15.2544-12.4382c-7.9792-6.5711-18.3052-9.3873-26.7538-7.0405zm515.5976-703.5783c-13.1422 9.3873-16.1931 13.1422-16.1931 20.8866998 0 4.6937-3.0508 8.918-11.7341 16.1931002-17.1318 14.5503-19.7133 19.0093-16.6624 30.0394 1.4081 5.163 5.163 11.7341 8.4485 14.785 5.6324 5.3977 5.8671 6.5711 5.8671 34.733005v29.100695l-11.0301 14.3156c-6.1017 7.9792-11.7341 15.0197-12.4382 15.7237-.704.7041-6.8058 7.9792-13.8462 16.4278-22.9989 27.4579-65.7112 68.058-71.8129 68.058-.9387 0-4.6937 2.1121-8.4486 4.6936-5.867 4.459-6.5711 6.3364-7.2751 20.6521l-.7041 15.7237-59.844.7041-59.6094.4693-6.8058 6.3364c-7.7445 7.5099-13.3769 18.0706-13.3769 25.3458 0 2.5815-1.6428 7.0404-3.5203 9.622-4.4589 6.1017-4.4589 26.5191.2347 33.3249 1.8775 2.8162 5.3977 5.163 7.5099 5.163 10.0913 0 18.3052 34.4983 12.2035 50.6914-1.8775 4.459-1.8775 7.0405 0 8.918 1.1734 1.1734 2.3468 8.9179 2.3468 17.1318 0 11.7341-1.1734 16.8971-5.8671 24.1723l-5.867 9.3873h-27.6926c-38.4879.2347-38.9573.4694-39.896 35.9064-.7041 20.6521 0 27.2232 2.3468 29.3354 2.1121 1.6427 14.785 2.8162 32.6209 3.2855l29.1006.7041.7041 199.9495.4693 200.1843-7.9792 3.2855c-4.2243 1.6428-10.5607 6.1018-13.8462 9.622-6.5712 7.2752-14.5504 29.80467-12.4382 35.20237 1.1734 3.0509 44.5897 3.5202 358.595 3.0509l357.42151-.7041-.704-9.622c-1.1734-19.00927-13.3769-36.37577-27.4579-38.95727-4.6936-.704-4.6936-2.8162-5.163-199.0108-.4694-109.1274.2347-199.7149 1.4081-201.5923 1.4081-2.3469 8.6832-3.0509 29.57-2.8162 17.8359.2347 28.6313-.4694 30.7434-2.3469 2.3468-1.8774 3.2856-9.3873 3.2856-28.3965 0-23.9377-.2347-25.8151-5.8671-31.2128-5.3977-5.6324-7.0405-5.8671-32.6209-5.8671h-27.2232l-7.2751-10.0913c-6.8058-9.1527-7.0405-10.7954-5.8671-25.1111 1.6428-19.244 1.6428-21.3561 0-38.9573-1.1734-12.9075-.704-15.489 4.9284-24.407 3.5202-5.6324 9.3873-11.0301 13.1422-12.4382 6.5711-2.5815 6.8058-3.0508 6.8058-19.7133 0-9.3873-.9388-17.1318-2.1122-17.1318s-2.8162-3.5203-3.7549-7.7445c-2.5815-12.6729-7.9792-22.2949-16.1931-28.6313-7.5098-5.8671-7.7445-5.8671-66.1805-6.3364l-58.43591-.7041-.7041-15.9584c-.704-14.3156-1.1734-16.1931-7.0405-19.7133-20.4173-12.4382-27.4578-18.0706-49.518-40.3654-22.2948-22.5296-35.6717-38.0186-59.3747-68.5274l-8.9179-11.2647v-28.865995c.2347-28.631305.2347-28.865905 6.8058-35.437005 14.5503-14.3157 11.0301-29.5701-10.5607-45.7632-8.2139-6.1017002-10.3261-9.1526002-10.3261-14.7849002 0-7.5098998-6.3364-14.7849998-20.4174-23.4682998-12.2034-7.5098-14.785-4.9283-14.785 14.3156v16.4277998h-14.0809-13.8463l-.704-16.8970998c-.9388-20.4174-3.2856-21.8255-18.54-11.0301zm-101.1481 616.9805c.2346 21.3561 0 41.0694-.7041 44.1203l-1.1734 5.163-53.5076-.4694-53.273-.704-.704-44.1203-.4694-43.8857 54.4464.4694 54.681.704zm189.3888 44.5897v83.3123h-55.1504-55.1504l-.7041-80.9655c-.2346-44.5897 0-82.3736.7041-84.0164.704-2.3468 13.1422-2.8162 55.6198-2.3468l54.681.704zm188.91951 42.0081c0 113.117-.4694 126.4939-3.755 127.902-7.2751 2.8162-100.67881 1.6428-103.72971-1.4081-2.1121-2.1121-2.8161-33.3249-2.8161-126.2592 0-68.0579.704-124.3817 1.6427-125.0858.7041-.9387 25.5804-1.6428 55.1504-1.6428h53.50771zm-380.18581.2347c1.6428 3.0509 2.1121 45.5284 1.8775 128.3714l-.7041 123.9124h-53.977-53.977l-.704-125.3205c-.2347-90.5875.2347-126.2592 2.1121-128.3714 2.1122-2.5815 13.3769-3.2855 52.8036-3.2855 47.1712 0 50.2221.2347 52.5689 4.6936zm190.0929 82.1389c1.6428 2.8162 2.1121 32.8556 1.8774 87.3019l-.704 82.843h-55.1504-55.1504l-.7041-82.843c-.2346-54.4463.2347-84.4857 1.8775-87.3019 2.3468-4.4589 5.163-4.6936 53.977-4.6936s51.6302.2347 53.977 4.6936zm188.91951 125.5552v44.5897h-53.97701-53.977l-.7041-42.2429c-.2347-22.9989 0-43.4162.7041-45.059.704-2.5815 12.2035-3.0509 54.4463-2.5815l53.50771.704z" style="stroke-width:.234683"/></svg>