<svg height="960" style="" width="1200" xmlns="http://www.w3.org/2000/svg"><path d="m303.43002 716.93987c-3.4728 2.6714-12.0212 7.7469-18.9667 11.2197-7.2127 3.7399-12.8226 8.2812-12.8226 10.1512 0 5.877 34.4606 42.2076 62.7771 66.2498 37.1319 31.255 105.2517 68.6541 141.5823 77.4696 2.9385.8014 11.4868 2.9385 18.6995 5.0756 61.9756 17.3638 163.7546 17.3638 216.3805 0 5.877-1.87 14.6925-4.2742 19.2338-5.3428 4.8085-1.0685 9.3498-2.9385 10.1512-4.2741 1.0685-1.3357 4.007-2.4043 7.2127-2.4043 2.9385 0 8.5483-1.6028 12.2882-3.7399 4.0071-1.8699 16.2954-8.0141 27.248-13.3568 10.9525-5.6099 23.7751-12.2883 28.0493-14.9596 4.5413-2.9385 9.884-6.1442 12.0211-7.2127 2.1371-.8014 9.3498-5.877 16.0282-10.6855 6.6784-4.8084 15.761-11.4868 20.0352-14.6925 16.0282-11.4868 68.3869-66.2498 67.5855-70.524-.5342-2.4042-7.4798-8.0141-15.4939-12.2883-8.0141-4.2741-15.761-8.8155-17.0967-10.4183-5.877-5.6098-13.624-1.3357-34.4606 19.2338-18.1653 18.4325-54.763 47.5503-75.5996 60.3729-16.8296 10.6854-45.6803 23.2408-73.1954 32.5906-104.4503 34.7277-222.5246 18.4324-315.7552-43.5432-18.9667-12.5554-56.0986-44.6118-70.524-61.1743-12.2883-13.891-16.0282-14.9596-25.3779-7.7469zm383.8749-145.8565c-7.4798 12.5554-6.4112 16.2953 7.747 22.7066 4.5413 1.87 11.754 5.877 16.0282 8.8155 4.5413 2.9385 9.884 6.1442 12.0211 7.2127s15.4939 8.5484 29.385 16.8296 27.2479 15.761 29.385 16.8296c2.1371 1.0685 7.747 4.2742 12.0212 7.2127 4.5413 2.9385 9.884 6.1441 12.0211 7.2127 2.1371 1.0685 13.8911 7.7469 25.9122 14.6925 11.754 6.9455 22.9738 12.8225 24.8437 12.8225 3.7399 0 18.6996-16.2953 18.6996-20.5695 0-1.87-10.4184-9.3498-23.2409-16.8296-13.0897-7.4798-25.378-14.6925-27.5151-16.0282-2.137-1.6028-5.877-3.4728-8.014-4.5413-2.1371-1.0685-14.6925-8.2812-28.0494-16.2953-13.0896-8.0141-26.1793-15.4939-29.385-16.8296-2.9385-1.6028-7.7469-4.0071-10.6854-5.877-25.1108-14.9596-49.6874-28.5836-51.8245-28.5836-1.3357 0-5.6098 5.0756-9.3498 11.2197zm-196.0781-13.3568c-3.4727 3.4728-24.8436 16.5625-33.9263 20.5695-4.8084 2.1371-76.9353 44.6118-86.8193 51.0231-2.1371 1.6028-6.4113 4.007-9.3498 5.3427-20.0352 10.1512-37.3991 21.3709-38.2005 24.5765-1.0685 5.877 10.6855 23.2409 16.0282 23.508 2.4042 0 9.6169-3.4727 16.0282-7.7469s16.2953-10.4183 22.1723-13.624c5.877-3.2056 14.4254-8.0141 18.6995-10.9526 4.5414-2.6713 10.4184-6.1441 13.3569-7.7469 2.9385-1.3357 7.2126-3.7399 9.3497-5.3428 8.2813-5.3427 72.6611-42.7418 73.4625-42.7418 2.1371 0 25.378-16.5624 25.378-17.8981 0-.8014-2.6714-6.1441-5.877-11.754-6.1441-10.9526-13.8911-13.624-20.3024-7.2127zm34.1935-26.1794c0 5.877 20.8366 22.9738 37.132 30.4536 12.5554 5.877 18.6995 6.9455 37.6662 6.9455 19.2338 0 25.1108-1.0685 37.3991-7.2126 17.3638-8.5484 38.7348-26.7137 36.3305-30.9879-1.3357-2.1371-24.3094-2.9385-75.3324-2.9385-60.64 0-73.1954.5343-73.1954 3.7399zm197.1466-20.5695c-5.0755 5.877-10.1511 15.4939-10.1511 19.2339 0 1.3356 8.0141 7.2126 17.8981 12.8225 10.1512 5.6099 20.5695 11.4869 23.508 13.3568 2.9385 1.87 7.2127 4.0071 9.3498 5.3428 2.1371 1.0685 14.6925 8.2812 28.0493 16.2953 13.0897 8.0141 26.1794 15.4939 29.385 16.8296 2.9385 1.3356 9.0826 4.8084 13.3568 7.4798 4.5413 2.9385 12.8226 7.7469 18.6996 10.9526 5.877 3.2056 15.761 9.3497 22.1723 13.6239s13.0897 7.747 14.9596 7.747c4.8085 0 9.6169-5.6099 9.6169-11.2197 0-2.6714 1.3357-4.8085 2.6714-4.8085 1.6028 0 2.6714-2.6714 2.6714-6.1441 0-4.5414-3.7399-8.0141-15.2268-14.6925-34.7277-19.2339-45.9475-25.6451-67.0512-38.2005-12.0212-7.2127-22.7066-13.0897-23.2409-13.0897s-13.0897-7.2127-27.5151-16.0282c-14.6925-8.8155-27.515-16.0282-28.5836-16.0282-.8014 0-3.4727-1.8699-5.6098-4.007-5.3427-5.3428-9.8841-5.0756-14.9597.5342zm-298.6584 14.4254c-24.3094 14.6925-46.4818 27.7822-49.4203 29.385-2.9385 1.3357-8.8155 4.8085-13.3568 7.747-4.2742 2.9385-9.884 6.1441-12.0211 6.9455-9.8841 4.5413-53.4273 31.255-56.3658 34.7277-2.4042 2.9385-2.1371 4.8085 1.0685 8.5484 2.1371 2.4042 4.5414 6.9455 5.0756 9.884 1.6029 9.617 9.8841 7.2127 43.009-12.2882 17.8981-10.6855 35.5291-21.1038 39.269-22.9738 3.74-2.137 10.4184-6.1441 14.6925-8.8155 4.5414-2.9385 10.4184-6.4112 13.3569-7.7469s9.884-5.6099 15.4939-9.3498c5.6098-3.7399 10.6854-6.9455 11.2197-6.9455.8014 0 9.884-5.0756 20.5695-11.4869s21.6381-12.2883 24.3094-13.3568c2.4042-.8014 5.3427-3.4728 6.1442-5.6099 1.6028-4.5413-12.0212-25.6451-16.2954-25.3779-1.3356 0-22.4394 12.0211-46.7488 26.7136zm180.0499-135.9724c-.8014 1.3357 1.8699 7.4798 5.877 13.6239 4.007 6.1442 10.4183 16.5625 14.1582 23.2409 10.4183 19.501 13.624 24.8437 18.9667 33.3921 2.9385 4.2741 6.6784 10.9525 8.0141 14.6925 1.6028 3.4727 3.7399 7.2126 4.8084 8.014 1.0686.8015 4.8085 6.9456 8.2813 13.8911 3.7399 6.6784 8.5483 15.2268 11.2197 18.4324l4.5413 5.877 4.8085-9.0826c6.1441-10.9526 7.2127-56.0986 1.8699-61.7085-1.8699-1.6028-3.4727-4.8084-3.4727-6.4113 0-5.3427-14.9597-26.1793-24.3095-33.9263-16.2953-13.3568-51.023-26.1794-54.7629-20.0352zm-29.1179 1.6028c-23.508 8.0141-35.7963 16.8296-50.4888 35.7963-15.4939 20.5695-20.8366 60.3728-10.9525 83.3465l4.2741 10.1512 5.3428-5.6099c2.9385-2.9385 6.4112-8.2812 7.7469-11.4868 1.6028-3.4728 5.0756-9.8841 7.747-14.1582 5.3427-8.2813 11.754-19.2339 20.5695-36.0635 2.9385-5.0755 5.877-9.884 6.9455-10.6854 1.0686-.8014 3.2057-4.5413 4.8085-8.0141 1.3357-3.7399 5.0756-10.4183 8.0141-14.6925 2.9385-4.5413 6.1441-9.8841 7.2127-12.0211 1.0685-2.1371 3.4727-5.6099 5.3427-7.747 4.007-4.007 3.7399-11.4869-.5343-12.5554-1.3357-.2671-8.5484 1.3357-16.0282 3.7399zm41.9404-243.0941c-2.4042 1.6028-3.2056 25.1108-2.6713 107.656l.8014 105.2517h14.6925 14.6925l.5343-102.8475c.5342-56.6329-.2672-104.1832-1.3357-106.0532-2.6714-4.007-22.1723-6.9455-26.7137-4.007zm-52.6258-.2671c-2.9385.8014-6.4113 2.137-7.4799 3.2056-1.6028 1.6028-2.6713 128.7597-1.8699 209.4349 0 1.0686 6.4113 1.87 14.1582 1.3357l13.8911-.8014v-106.8546-106.8545l-6.6784-.5343c-3.7399 0-9.0826.2671-12.0211 1.0686zm-50.7559-76.133905c-5.877 1.3357-16.0282 4.007-22.7066 6.1441-6.6784 1.87-16.0282 4.2742-20.5695 5.3427-4.8085 1.0686-9.3498 2.9385-10.1512 4.2742-1.0686 1.3357-3.4728 2.4043-5.6099 2.4043-10.1512 0-91.8949 43.810305-99.909 53.427205-.8014.8014-8.5484 7.2127-17.3639 13.8911-18.1652 13.8911-49.4202 45.4132-63.0441 63.5785-4.8085 6.6784-9.617 12.5554-10.4184 13.3568-3.2056 2.6714-26.4465 39.2691-29.385 45.6803-1.3357 3.4728-3.7399 8.2813-5.3427 10.4183-5.0756 8.0141-18.6995 39.2691-18.6995 43.5433 0 2.4042-1.0686 4.8084-2.4043 5.877-1.3357.8014-3.2056 5.3427-4.2742 10.1512-1.0685 4.5413-3.4727 13.8911-5.3427 20.5695-12.2883 40.6047-13.3568 50.4887-13.0897 114.8686.2672 51.0231 1.0686 64.9142 4.5414 74.7982 2.4042 6.6784 4.5413 15.4939 4.5413 20.0352 0 4.2742 1.8699 10.9526 4.007 14.6925s3.7399 9.3498 4.0071 12.5554c0 7.4799 8.0141 24.8437 11.4868 24.8437 1.3357 0 5.6099-2.1371 9.3498-5.0756 4.007-2.6713 13.624-8.2812 21.3709-12.2882 14.6925-7.747 16.2953-10.9526 10.1512-22.1724-2.1371-4.007-5.6099-14.9596-8.0141-24.5765-17.0967-71.3254-10.9526-157.3433 16.2953-221.7232 6.1442-14.4254 12.0212-27.5151 14.4254-32.0564 1.3357-2.1371 3.7399-6.4113 5.0756-9.3498 1.6028-2.9385 5.0756-9.0826 8.0141-13.3568 2.9385-4.5413 6.1441-9.884 7.2127-12.0211.8014-2.1371 2.4042-4.5413 3.2056-5.3427s4.8084-6.1442 8.8155-12.0212c8.5484-12.5554 43.8104-48.8859 62.5099-64.1127 25.9122-21.1038 62.7771-42.7418 98.5733-57.4343 7.4799-2.9385 28.8508-9.8841 49.4203-15.4939l17.3638-4.8085v-25.378005c0-24.8436 0-25.1108-6.6784-25.3779-3.7399-.2671-11.4868.5343-17.3638 2.1371zm145.5893-4.0071c-1.0686 22.1724-.5343 48.351705 1.0685 51.023105 1.0686 1.8699 4.2742 3.2056 7.2127 3.2056 7.2127 0 51.2902 12.5554 67.8527 19.2338 89.2235 36.0635 157.3433 99.9091 197.4137 185.1256 15.7611 33.392 15.2268 32.3235 24.3095 66.7841 9.884 38.7347 13.3568 83.8808 9.6169 121.0127-3.4728 32.3235-12.2883 74.7982-16.5625 79.0724-1.3357 1.6028-2.4042 5.3427-2.4042 8.5484 0 4.5413 4.8084 8.8155 20.0352 18.1652 21.9052 13.3569 28.0493 14.9597 28.0493 7.4799 0-2.6714 1.0686-5.877 2.4043-7.4799 1.6028-1.3356 3.73988-7.2126 5.34268-13.0896 15.761-61.9757 16.8296-70.524 16.8296-123.417 0-47.8175-3.7399-83.6137-11.754-106.3203-1.3357-4.5413-3.7399-12.2883-4.8085-17.3639-1.0685-5.0756-4.80838-16.0282-8.01408-24.0423-3.2056-8.0141-6.4112-17.3638-7.2126-20.5695-.8015-3.2056-2.9385-7.4798-5.0756-9.0826s-3.7399-5.0756-3.7399-7.747c0-2.6713-1.87-6.1441-4.0071-8.0141-2.1371-1.8699-4.007-4.8084-4.007-6.9455 0-4.8085-30.1865-49.6874-46.4818-69.1883-24.5765-29.385-77.7367-76.9353-95.1005-84.9494-2.1371-1.0685-9.8841-5.6099-17.3639-9.884-7.2127-4.5414-20.0352-11.2198-28.0493-14.9597s-17.631-8.281205-21.3709-10.151205c-3.7399-1.8699-13.8911-5.6098-22.7066-8.0141-8.8155-2.6713-20.0352-6.6784-24.8437-8.5483-4.8085-2.1371-12.2883-3.7399-16.8296-3.7399s-10.1512-1.0686-12.5554-2.4043c-6.6784-3.4727-27.2479-6.4112-27.2479-3.7399zm-116.2043-66.2497998c-13.0897 1.0686-29.385 3.4728-36.0635 5.0756-15.4939 3.7398998-33.392 8.0140998-46.7488 11.4868998-5.877 1.6028-11.754 3.7399-13.0897 5.3427-1.6028 1.3357-4.8085 2.4042-7.2127 2.4042-6.4113 0-63.5784 26.1794-83.8808 38.2005-53.9616 32.5907-103.6489 77.202405-140.7809 126.622705-10.9526 14.4253-20.5695 28.0493-21.638 30.1864-1.0686 2.1371-4.2742 7.4798-7.2127 12.0211-12.5554 19.7681-40.0705 78.8053-40.0705 86.5522 0 2.4042-1.3357 5.877-2.9385 7.4798s-4.007 7.747-5.3427 13.3569c-2.1371 9.884-4.2742 19.5009-10.4183 43.5432-9.8841 39.269-9.8841 149.8635-.2672 188.8654 3.2057 12.2883 7.2127 28.5836 10.9526 43.5432 2.1371 9.0827 8.5484 27.5151 13.0897 38.7348 3.7399 9.0827 19.2338 42.4747 21.9052 46.7489 1.3357 2.1371 4.007 7.4798 5.877 12.0211 4.5413 9.6169 37.3991 58.2358 47.016 69.4555 28.8507 33.392 93.7649 92.162 101.5118 92.162 1.6028 0 2.9385.8014 2.9385 1.87 0 4.5413 48.886 31.2549 81.7438 44.8789 13.0896 5.3427 27.7821 11.4869 32.5906 13.624 4.8085 2.137 11.754 3.7399 15.2268 3.7399s6.9455 1.0685 8.0141 2.4042c.8014 1.6028 7.2127 3.4728 14.1582 4.2742 6.9455 1.0685 18.6995 3.4727 25.9122 5.3427 19.2338 5.3427 88.4222 10.4183 111.3959 8.2812 56.0986-5.0756 71.0583-6.9455 78.271-9.3497 4.5413-1.3357 14.1582-4.0071 21.3709-5.6099 24.5765-5.3427 34.7277-8.2812 37.1319-10.9526 1.6028-1.3357 4.2742-2.4042 6.4113-2.4042 6.4113 0 67.3184-28.8508 84.6822-40.0705 4.5414-2.9385 9.8841-6.1441 12.0212-7.2127 11.2197-5.0756 59.0371-44.0775 80.1409-64.9141 25.1108-25.378 62.24278-72.6611 72.12678-92.1621 1.6028-2.9385 5.0756-9.0826 8.0141-13.3568 2.9385-4.5413 6.1441-9.884 6.9456-12.0211 2.4042-6.1442 17.3638-37.9334 21.3709-45.9475 2.1371-3.7399 3.7399-8.8155 3.7399-10.9526s1.8699-7.4798 4.007-11.4868c2.1371-4.2742 4.0071-9.8841 4.0071-12.5554 0-2.6714 1.3356-7.4799 2.9385-10.4184 1.6028-2.9385 4.007-11.754 5.0756-19.2338 1.3356-7.4798 3.4727-18.4324 5.0755-24.3094 1.3357-5.877 4.0071-28.3165 5.8771-49.6874 3.4727-43.2761.2671-103.6489-7.2127-129.5611-1.87-7.4798-3.7399-17.0967-3.7399-21.3709s-1.87-11.2197-4.0071-15.4939c-2.1371-4.0071-4.007-9.8841-4.007-12.5554 0-2.6714-1.6029-8.8155-3.7399-13.624-2.1371-4.8085-5.877-14.1582-8.2813-20.8366-9.3497-24.8437-39.0019-80.9424-49.95448-94.8335-1.0685-1.6028-7.4798-9.884-13.8911-18.9666-14.9596-20.8367-55.5643-63.3114-78.5381-82.0109-44.6117-36.597705-108.1902-71.325405-156.809-86.017905-8.8155-2.6714-20.5695-6.4113-26.1794-8.2813-5.3427-2.137-13.3568-3.7398998-17.3639-3.7398998-4.007 0-13.0896-1.8699-20.3023-4.007-15.4939-4.8085-104.4503-7.2127-141.8494-4.2742zm97.5047 12.5553998c21.3709 2.4042 44.6118 5.877 51.8245 8.0141 6.9455 2.1371 15.761 3.7399 18.9667 3.7399 3.4728 0 9.6169 1.3357 13.8911 2.9385 4.007 1.6028 11.2197 4.0071 15.4939 5.0756 23.7751 6.6784 63.0442 24.0423 89.4907 39.8033 5.0756 2.9385 10.9526 6.4113 13.0897 7.4799 16.5624 7.7469 62.2427 43.810305 86.0179 67.318305 23.508 23.508 59.3043 69.4555 67.5855 86.0179.8014 2.1371 4.00698 7.2127 6.67838 11.754 2.9385 4.2742 9.6169 17.0968 14.9596 28.0494 5.3428 10.9526 11.2198 23.508 13.3568 27.515 2.1371 4.2742 4.0071 9.3498 4.0071 11.754 0 2.1371 1.6028 7.2127 3.7399 10.9526 3.2056 6.6784 7.2127 18.9667 14.9596 48.6188 1.6029 6.6784 4.2742 21.1038 5.3428 32.3235 1.3356 10.9526 3.7399 25.378 5.0756 32.0564 5.877 25.6451 1.6028 95.6348-8.0141 134.6367-1.6029 5.877-3.7399 16.0282-5.0756 22.7066-2.1371 12.0212-5.6099 23.2409-12.2883 39.5362-2.1371 4.8085-3.7399 9.8841-3.7399 11.2197 0 1.6029-3.4728 10.1512-7.747 19.2339-4.2741 9.3497-8.2812 18.6995-9.3497 20.8366-.8014 2.1371-5.3428 9.884-9.6169 17.3639-4.5414 7.2126-9.61698 16.2953-11.48688 20.0352-1.6028 3.7399-4.0071 7.7469-5.3427 9.3498-1.0686 1.3356-10.4184 14.1582-20.8367 28.0493-22.1723 30.1864-59.8385 67.8526-89.2235 90.0249-43.5433 32.3236-99.6419 61.7086-138.911 72.9283-4.2741 1.0685-11.4868 3.4728-16.0281 5.0756-12.8226 4.2742-33.1249 8.5483-54.763 11.2197-10.9526 1.3357-25.9122 3.4728-32.8578 5.0756-16.8296 3.4728-60.9071 3.4728-80.1409 0-8.2812-1.6028-23.7751-4.0071-34.4606-5.3427-10.6854-1.3357-24.8437-3.7399-31.5221-5.6099-22.7066-5.6099-41.4061-11.2197-49.9545-14.9596-4.5413-1.87-9.6169-3.4728-10.9526-3.4728-1.6028 0-6.1441-1.87-10.4183-4.0071-4.007-2.137-16.5624-8.014-27.515-13.3568-10.9526-5.3427-22.4395-11.2197-25.378-12.8225-53.1601-32.0564-89.7578-62.5099-124.2184-103.3818-8.0141-9.3498-16.2953-18.9667-18.1653-20.8366-4.8084-5.3428-27.515-40.0705-31.7892-48.6189-1.0686-2.1371-4.8085-9.3497-8.8155-16.0281-14.6925-25.6451-40.0705-93.2306-40.0705-106.8546 0-3.7399-1.6028-12.0211-3.7399-18.6995-4.007-12.2883-13.0897-90.5593-11.2197-96.7034.5343-1.87 2.4042-19.7681 4.2742-39.5362 1.8699-19.7681 4.8084-41.4061 6.9455-47.8174 2.1371-6.6784 3.7399-15.4939 3.7399-19.501 0-4.2742 1.3357-10.4183 3.2057-13.6239 1.6028-3.2057 4.007-9.3498 5.0756-13.8911 4.007-16.0282 10.4183-32.5907 24.3094-61.4414 45.4131-95.6348 126.6226-176.31 222.5246-221.456105 11.754-5.3427 23.508-10.9525 25.9122-12.5554 2.6714-1.3356 6.4113-2.4042 8.5484-2.4042 1.8699 0 7.2126-1.8699 11.2197-4.007 4.2742-2.1371 9.884-4.0071 12.2883-4.0071 2.6713 0 8.5483-1.6028 13.3568-3.7399 12.0211-5.0756 33.392-9.3498 61.1742-12.2883 12.5554-1.3357 29.385-3.7399 37.3991-5.0756 21.3709-3.4726998 26.9808-3.4726998 69.1883 1.3357z" style="stroke-width:.267136"/></svg>