<svg height="960" style="" width="722" xmlns="http://www.w3.org/2000/svg"><path d="m361-30c-36.2905 22.886842-67.0592 53.100917-93.95446 86.368357-68.00603 88.171053-104.31078 197.200083-123.86174 305.977293-25.47108 145.37431-28.58066 295.83685-16.02951 442.5786h233.84571 233.84571c12.55115-146.74175 9.44158-297.20426-16.02951-442.5786-19.55097-108.77719-55.85571-217.80625-123.86174-305.977293-26.89526-33.267452-57.66397-63.481515-93.95446-86.368357zm0 80.198844c47.7962 37.620496 80.64492 91.807346 106.14451 146.334316 49.46815 113.60366 65.24919 238.78567 67.83784 361.72275-.37646 62.02854 3.17099 123.59818-2.58408 185.39327h-171.39827-171.39828c-5.75507-61.79509-2.20761-123.36229-2.58407-185.39083 2.58865-122.93709 18.36969-248.12155 67.83783-361.72519 25.4996-54.527 58.34832-108.71382 106.14452-146.334316zm-233.84571 785.988206v63.77609h467.69142v-63.77609zm0 90.03684v63.77611h467.69142v-63.77611z" style="stroke-width:1.25051"/></svg>