<svg height="960" style="" width="985" xmlns="http://www.w3.org/2000/svg"><path d="m454.26055 921.2103c-.9978 1.1225-1.372 7.4835-1.1225 20.2056l.3741 18.5841h33.0524 33.0523v-19.9561-19.9561l-31.9298-.3742c-26.1924-.2495-32.1792 0-33.4265 1.4967zm16.3391-22.7001c-.7484.9978-.8731 3.7418-.3742 6.6105l.7483 4.989h14.9671 14.9671l.6236-5.1137c.3742-2.8687.4989-5.7374.2495-6.6105-.6236-1.9956-29.4353-1.8709-31.1814.1247zm-.1248-14.094c-.873 1.6214-.7483 2.8687.2495 4.3654 1.372 1.8709 3.7418 2.1204 14.5929 2.1204 7.2341 0 13.7198 0 14.4682-.1248 1.7461 0 3.1181-4.4901 2.1203-6.9846-.4989-1.372-3.8665-1.7462-15.466-1.7462-13.0962 0-14.8423.2495-15.9649 2.3698zm14.3435-17.5863c-14.7176.3742-17.7111 1.372-15.5907 5.3632 1.1225 2.2451 2.4945 2.3698 17.0874 2.1203 15.2165-.3741 15.8402-.4989 16.2143-3.1181.6237-3.9912-2.4945-4.7396-17.711-4.3654zm37.0435-13.8446c-6.361 1.2473-2.245 2.8687 6.9847 2.8687 10.9758 0 17.5863-.9978 17.5863-2.6192 0-1.1225-19.2078-1.2473-24.571-.2495zm-77.7041.1248c0 1.4967 6.1116 2.7439 12.722 2.7439 3.3676 0 4.7396-.4989 4.4902-1.6214-.6237-1.7462-17.2122-2.8687-17.2122-1.1225zm26.9408-2.8687c-1.1226 1.1225-1.9956 2.4945-1.9956 3.1181s.873 1.9956 1.9956 3.1182c1.6214 1.6214 4.4901 1.8708 15.9649 1.6214l13.8445-.3742v-4.3654-4.3654l-13.8445-.3742c-11.4748-.2494-14.3435 0-15.9649 1.6215zm-.6237-15.0918c-1.1225 1.3719-1.2472 2.4945-.1247 4.3654 1.2473 2.3697 2.4945 2.6192 15.5907 2.6192 12.8468 0 14.3435-.2495 15.5907-2.3698.6237-1.372.8731-3.3676.4989-4.3654-1.1225-2.744-29.3105-2.9934-31.5556-.2494zm0-18.7089c-1.7461 2.1203.1248 6.9846 2.744 6.9846 6.9846.2495 27.4397.1248 27.6891-.2494.4989-.4989.9978-3.7418.7484-6.361-.1248-1.8709-1.7462-2.1204-14.9671-2.1204-11.3501 0-15.0918.3742-16.2144 1.7462zm.3742-17.4616c-.3742.9978-.4989 2.8687-.2494 4.1159.3741 1.9957 2.1203 2.2451 15.7154 2.6193l15.2165.3742v-4.4902-4.3654h-14.967c-11.9737 0-15.2166.3742-15.7155 1.7462zm-33.5512-98.658c-.4989 1.6214-.6236 5.8621-.3742 9.6038l.3742 6.8599 6.8599 3.2429c6.6105 3.1182 19.9561 15.5907 19.9561 18.4594 0 .7484.4989 1.372 1.1226 1.372 2.7439 0 4.4901 9.105 5.1137 28.0633l.6236 19.9561h14.9671 14.9671l.6236-20.5797.6237-20.5798 4.6148-6.8599c6.2363-9.6039 14.2188-16.7132 21.9518-20.0808l6.6104-2.8687-.3742-9.4792-.3741-9.3544-48.2689-.3742-48.3936-.2494zm169.0033-12.7221c-2.8686 3.6171-5.8621 7.4836-6.7351 8.7308-1.372 2.1204-3.9913 2.3698-27.0655 2.6193l-25.4441.3741-.3741 9.8534c-.3742 9.7286-.4989 9.978-4.8643 13.8445-2.744 2.3698-4.2407 4.4902-3.6171 5.3632.6236 1.1226 9.105 1.4967 30.8073 1.4967 31.6803 0 31.805 0 39.9122 6.3611 4.2407 3.3676 5.3632 3.617 15.9649 3.617h11.35l-.2494-29.0611-.3742-28.9364-12.0984-.3741-12.0984-.3742zm-264.7927-5.4879c-.4989.3742-.873 13.5951-.873 29.3105v28.4375h10.1027c9.2298 0 10.477-.2494 14.7177-3.617 8.1072-6.3611 8.2319-6.3611 38.7897-6.3611 24.1968 0 28.9363-.2494 29.4353-1.8708.4989-1.1226-.7484-3.1182-3.1182-5.1138-3.617-2.9934-3.8665-3.7418-3.8665-11.7242 0-12.722.6236-12.4726-27.1902-12.4726-25.8182 0-23.6979.6236-30.0589-8.7308-5.3632-7.733-7.2341-8.7308-17.711-8.7308-5.2385 0-9.8534.3742-10.2276.8731zm-169.2528-87.6822c0 4.3654.6237 7.4836 1.8709 8.7308 1.1226.9978 1.8709 4.116 1.8709 7.3588 0 3.3676.7484 6.1116 1.8709 7.1094.9978.8731 1.8709 3.617 1.8709 6.2363 0 2.6192.8731 5.3632 1.8709 6.2363s1.8709 3.3676 1.8709 5.6126c0 2.2451.873 4.7396 1.8708 5.6127.9979.8731 1.8709 3.2429 1.8709 5.2385s.7484 3.8665 1.8709 4.2406c.9978.4989 1.8709 2.2451 1.8709 4.2407 0 1.8709.8731 4.116 1.8709 4.989.9978.8731 1.8709 2.8687 1.8709 4.3654 0 1.4968.8731 3.4924 1.8709 4.3654.9978.8731 1.8708 2.4946 1.8708 3.7418 0 1.2473.8731 2.8687 1.8709 3.7418s1.8709 2.4945 1.8709 3.617c0 1.1226.6236 2.744 1.372 3.4924 1.4967 1.4967 4.1159 5.7373 5.9868 9.978.6237 1.372 1.8709 2.9934 2.4946 3.4923.7483.3742 1.3719 1.8709 1.3719 3.2429 0 1.2473.6237 2.3698 1.2473 2.3698.7483 0 1.8709 1.2472 2.4945 2.744 1.8709 4.2406 4.116 7.733 5.9868 8.8555.7484.4989 1.4967 1.6214 1.4967 2.3698 0 1.2472 6.7352 10.6017 9.3545 12.8467.7483.6236 2.4945 2.8687 3.7417 4.8643 3.6171 5.488 7.6083 9.8534 23.199 25.5688 16.0896 16.0896 21.3281 20.8292 29.3106 26.5666 2.9934 2.1203 5.4879 4.3654 5.4879 4.989 0 .4989.7484.9978 1.7462.9978s1.9956.8731 2.4945 1.8709c.3742.9978 1.2472 1.8709 2.1203 1.8709.7484 0 3.4923 1.6214 6.1116 3.7418 2.6192 1.9956 5.1137 3.7417 5.6126 3.7417s2.9935 1.6215 5.6127 3.7418c2.6192 1.9956 5.6127 3.7418 6.6105 3.7418s2.1203.873 2.6192 1.8709c.3742.9978 1.7462 1.8708 2.9934 1.8708 1.372 0 3.1182.8731 3.9912 1.8709.8731.9978 2.2451 1.8709 3.1182 1.8709s2.245.8731 3.1181 1.8709 2.4945 1.8709 3.7418 1.8709 2.8687.8731 3.7418 1.8709c.873.9978 2.8687 1.8709 4.3654 1.8709 1.6214 0 3.1181.873 3.617 1.8708.3742.9978 1.9956 1.8709 3.6171 1.8709 1.7461 0 3.7417.8731 4.6148 1.8709s3.1182 1.8709 4.989 1.8709c1.8709 0 4.116.8731 4.9891 1.8709.873.9978 3.1181 1.8709 4.989 1.8709s4.1159.873 4.989 1.8709c.8731.9978 3.3676 1.8708 5.6127 1.8708 2.245 0 4.7396.8731 5.6126 1.8709.8731.9978 3.6171 1.8709 6.1116 1.8709s5.6127.8731 6.8599 1.8709c1.372.9978 4.989 1.8709 7.9825 1.8709 3.1181 0 6.2362.7483 7.2341 1.8709 1.3719 1.2472 4.4901 1.8709 10.2275 1.8709 7.6082-.1248 8.1071-.2495 5.9868-1.8709-1.4967-1.1226-5.2385-1.8709-9.3544-1.8709-4.116-.1247-7.9825-.8731-9.3545-1.8709-1.3719-.9978-4.8643-1.8709-7.733-1.8709-3.1181 0-5.8621-.7483-6.7351-1.8709-.8731-.9978-3.6171-1.8709-6.2363-1.8709-2.6193 0-5.3632-.873-6.2363-1.8708-.8731-.9979-3.3676-1.8709-5.6127-1.8709-2.245 0-4.7396-.8731-5.6126-1.8709-.8731-.9978-2.8687-1.8709-4.6149-1.8709-1.6214 0-3.8665-.8731-4.8643-1.8709-1.1225-.9978-3.2429-1.8709-4.7396-1.8709-1.6214 0-3.617-.8731-4.4901-1.8709s-2.8687-1.8708-4.3654-1.8708-3.4923-.8731-4.3654-1.8709-2.4945-1.8709-3.7418-1.8709c-1.2472 0-2.8687-.8731-3.7417-1.8709-.8731-.9978-2.6193-1.8709-3.8665-1.8709-1.2473 0-2.6193-.6236-2.9934-1.372-.499-.6236-2.1204-1.8709-3.4924-2.4945-1.4967-.6236-4.3654-2.2451-6.4857-3.617-1.9956-1.372-4.8643-2.9935-6.2363-3.7418-1.372-.7484-4.1159-2.3698-6.2363-3.7418-1.9956-1.372-4.7396-2.8687-5.8621-3.2428-1.1225-.3742-2.3698-1.4968-2.744-2.4946-.3741-.9978-1.4967-1.7461-2.4945-1.7461-.873 0-1.9956-.8731-2.4945-1.8709-.3742-.9978-1.372-1.8709-2.245-1.8709-.9978 0-3.4924-1.6214-5.7374-3.7418-2.2451-1.9956-4.6149-3.7417-5.3632-3.7417-.6237 0-1.1226-.4989-1.1226-.9978 0-.6237-2.4945-2.8687-5.6126-5.1138-6.9847-4.989-31.9298-29.6847-38.665-38.1661-2.6192-3.4923-5.4879-6.8599-6.2363-7.4835-2.8687-2.6192-13.0962-16.7133-13.0962-17.9605 0-.7484-.6236-1.372-1.2472-1.372-.7484 0-1.8709-1.2473-2.4946-2.8687-1.6214-3.617-4.1159-7.4835-5.3632-8.4813-1.2472-.8731-3.7417-5.1138-5.7373-9.4792-.6237-1.372-1.8709-2.9934-2.4946-3.4923-.7483-.3742-1.3719-1.8709-1.3719-3.2429s-.8731-2.7439-1.8709-3.1181c-.9978-.4989-1.8709-1.9956-1.8709-3.6171 0-1.6214-.8731-3.1181-1.8709-3.617-.9978-.3742-1.8709-1.9956-1.8709-3.7418 0-1.6214-.8731-3.2429-1.8709-3.7418-.9978-.3741-1.8709-1.9956-1.8709-3.617 0-1.7462-.873-3.7418-1.8708-4.6149-.9978-.873-1.8709-2.8686-1.8709-4.6148 0-1.6214-.8731-3.2429-1.8709-3.6171-.9978-.4989-1.8709-2.245-1.8709-4.2406s-.8731-4.3654-1.8709-5.488c-.9978-.9978-1.8709-3.4923-1.8709-5.4879s-.873-4.3654-1.8709-5.2385c-.9978-.873-1.8708-3.3676-1.8708-5.7374 0-2.245-.8731-4.8643-1.8709-5.9868-.9978-.9978-1.8709-3.9912-1.8709-6.6104 0-2.744-.8731-5.9869-1.8709-7.3589-.9978-1.2472-1.8709-4.6148-1.8709-7.3588s-.3742-6.2363-.7483-7.8577c-1.372-4.989-2.9935-2.8687-2.9935 3.9912zm644.3331-11.4747c-.3742 1.6214-.7483 5.6126-.7483 9.1049s-.8731 7.3588-1.8709 8.6061c-.9978 1.372-1.8709 4.8643-1.8709 7.733 0 3.1181-.7484 5.8621-1.8709 6.7352-.9978.8731-1.8709 3.617-1.8709 6.2363 0 2.6192-.8731 5.3632-1.8709 6.2363-.9978.873-1.8709 3.3676-1.8709 5.6126 0 2.2451-.873 4.7396-1.8708 5.6127-.9979.8731-1.8709 3.1181-1.8709 4.989s-.8731 4.116-1.8709 4.989c-.9978.8731-1.8709 2.8687-1.8709 4.3654s-.8731 3.4924-1.8709 4.3654c-.9978.8731-1.8709 2.4945-1.8709 3.7418s-.8731 2.8687-1.8709 3.7418-1.8708 2.8687-1.8708 4.4901-.4989 2.9934-1.1226 2.9934c-.6236 0-1.7461 1.4967-2.4945 3.3676-.7483 1.9956-1.8709 4.4901-2.6192 5.6127-2.8687 5.1137-3.8665 6.7352-4.9891 9.1049-.7483 1.372-2.3697 4.116-3.7417 6.2363-1.372 1.9956-2.9934 4.9891-3.7418 6.4858-.6236 1.6214-1.7462 2.8687-2.3698 2.8687s-1.4967.9978-1.8709 2.1203c-1.6214 4.3654-4.6148 9.105-5.8621 9.105-.6236 0-1.1225.7483-1.1225 1.7461s-.8731 1.9956-1.8709 2.4946c-.9978.3741-1.8709 1.3719-1.8709 2.245s-1.8709 3.7418-4.1159 6.2363c-2.1204 2.4945-7.1094 8.1072-10.8512 12.4726-8.4813 9.8533-23.5731 24.9451-31.805 31.805-3.3676 2.8687-8.4814 7.2341-11.2253 9.6039-2.744 2.4945-5.7374 4.4901-6.6105 4.4901s-1.8709.8731-2.2451 1.8709c-.4989.9978-1.4967 1.8709-2.4945 1.8709s-1.7461.4989-1.7461 1.1225c0 1.2473-4.7396 4.2407-8.9803 5.8621-1.2473.3742-2.2451 1.2473-2.2451 1.8709 0 .6237-1.2472 1.7462-2.7439 2.3698-1.6215.7484-4.4902 2.3698-6.6105 3.7418-1.9956 1.372-4.8643 2.9934-6.2363 3.7418-1.372.6236-3.3676 1.7461-4.3654 2.3698-.9978.6236-2.7439 1.4967-3.7418 1.8708-.9978.4989-3.4923 1.8709-5.6126 3.2429-1.9956 1.372-4.6149 2.744-5.6127 3.1182-.9978.3741-3.4923 1.6214-5.3632 2.6192-1.9956.8731-4.2406 1.7462-5.2385 1.7462-.873 0-2.245.873-3.1181 1.8708s-2.8687 1.8709-4.3654 1.8709-3.4923.8731-4.3654 1.8709-3.1181 1.8709-4.989 1.8709-4.116.8731-4.9891 1.8709c-.873.9978-3.3675 1.8709-5.6126 1.8709s-4.7396.873-5.6127 1.8709c-.873.9978-3.617 1.8708-6.2363 1.8708-2.6192 0-5.3632.8731-6.2362 1.8709-.8731 1.1226-3.6171 1.8709-6.7352 1.8709-2.8687 0-6.361.8731-7.733 1.8709s-5.2385 1.7462-9.3545 1.8709c-4.1159 0-7.8577.7483-9.3544 1.8709-2.1203 1.6214-1.6214 1.7461 5.9869 1.8709 5.7373 0 8.8555-.6237 10.2275-1.8709.9978-1.1226 4.1159-1.8709 7.2341-1.8709 2.9934 0 6.6104-.8731 7.9824-1.8709 1.2473-.9978 4.3654-1.8709 6.8599-1.8709s5.2385-.8731 6.1116-1.8709 3.3676-1.8709 5.6126-1.8709c2.2451 0 4.7396-.873 5.6127-1.8708.8731-.9979 3.1181-1.8709 4.989-1.8709s4.116-.8731 4.989-1.8709c.8731-.9978 3.1182-1.8709 4.9891-1.8709s4.1159-.8731 4.989-1.8709 2.8687-1.8709 4.3654-1.8709c1.6214 0 3.1181-.8731 3.6171-1.8709.3741-.9978 2.1203-1.8708 3.8664-1.8708 1.7462 0 3.4924-.8731 3.8665-1.8709.4989-.9978 2.1204-1.8709 3.7418-1.8709 1.7462 0 3.3676-.8731 3.7418-1.8709.4989-.9978 1.9956-1.8709 3.617-1.8709 1.6215 0 3.1182-.8731 3.6171-1.8709.3742-.9978 1.7461-1.8709 2.9934-1.8709 1.372 0 3.1181-.873 3.9912-1.8708.8731-.9979 2.3698-1.8709 3.2429-1.8709.9978 0 1.7461-.4989 1.7461-1.2473 0-.6236 1.372-1.4967 3.1182-1.9956 1.7462-.3742 3.1181-1.2473 3.1181-1.8709s1.2473-1.7461 2.8687-2.3698c3.7418-1.6214 6.7352-3.7417 11.3501-7.8577 2.1203-1.8709 4.4901-3.3676 5.4879-3.3676.8731 0 1.8709-.8731 2.2451-1.8709.4989-.9978 1.4967-1.8709 2.4945-1.8709s1.7461-.3741 1.7461-.9978c0-.4989 3.4924-3.617 7.8578-7.1093 10.1027-8.1072 36.794-34.9232 42.0325-42.2821 2.3698-3.1181 4.6149-5.7373 5.2385-5.7373.4989 0 .9978-.7484.9978-1.7462s.8731-1.9956 1.8709-2.4945c.9978-.3742 1.8709-1.372 1.8709-2.2451 0-.9978 1.4967-3.3676 3.4923-5.4879 3.9912-4.6149 6.1116-7.6083 7.733-11.4748.6236-1.4967 1.7462-2.7439 2.3698-2.7439s1.4967-1.372 1.8709-3.1182c.4989-1.7461 1.372-3.1181 1.9956-3.1181.7483 0 1.2472-.7484 1.2472-1.7462 0-.8731.8731-2.3698 1.8709-3.2429.9978-.873 1.8709-2.6192 1.8709-3.9912 0-1.2472.8731-2.6192 1.8709-2.9934.9978-.4989 1.8709-1.9956 1.8709-3.617 0-1.6215.8731-3.1182 1.8709-3.6171.9978-.3742 1.8709-1.7461 1.8709-2.9934 0-1.372.873-3.1181 1.8708-3.9912s1.8709-2.8687 1.8709-4.3654.8731-3.4923 1.8709-4.3654 1.8709-2.4945 1.8709-3.7418.8731-2.8687 1.8709-3.7418c.9978-.873 1.8709-3.1181 1.8709-4.989s.873-4.1159 1.8709-4.989c.9978-.8731 1.8708-3.1182 1.8708-4.9891 0-1.8708.8731-4.1159 1.8709-4.989s1.8709-3.3676 1.8709-5.6126c0-2.2451.8731-4.7396 1.8709-5.6127 1.1225-.8731 1.8709-3.617 1.8709-6.4857 0-2.744.8731-5.7374 1.8709-6.7352 1.1225-1.1226 1.8709-4.2407 1.8709-7.733 0-3.2429.873-6.9847 1.8708-8.2319 1.1226-1.4967 1.8709-5.2385 1.8709-9.7286 0-7.2341-1.6214-9.6039-2.9934-4.4901zm-648.0748-10.9759c0 9.6039.7483 13.2209 2.6192 13.2209 1.2473 0 1.4967-12.722.3742-18.5841-1.372-6.9847-2.9934-4.116-2.9934 5.3632zm652.9391-24.1968c-1.7461 2.744-2.4945 31.8051-.8731 30.6825 2.1204-1.2472 2.8687-7.733 2.4945-20.7044-.2494-8.1072-.7483-11.2254-1.6214-9.9781zm1.8709-20.7045c0 1.7462.6236 3.2429 1.2473 3.2429.7483 0 1.2472-1.1225 1.2472-2.3698 0-1.372-.4989-2.8687-1.2472-3.2429-.7484-.4989-1.2473.6237-1.2473 2.3698zm-657.8034-23.3237c-.9978 6.2363-.9978 39.5381 0 47.0216 1.8708 13.0962 2.9934 4.116 2.9934-22.9495 0-26.5666-1.1226-35.2974-2.9934-24.0721zm654.0616-16.838c0 12.8468 1.1226 22.2012 2.744 22.2012 1.8709 0 .7483-29.4352-1.1225-31.4309-1.2473-1.2472-1.6215.6237-1.6215 9.2297zm-650.3199-14.4681c-.3741 1.1225-.7483 6.4857-.7483 12.0984 0 7.733.3742 9.7286 1.4967 8.606 1.8709-1.8709 3.1181-22.7 1.2472-22.7-.6236 0-1.6214.873-1.9956 1.9956zm386.4003-265.7905c1.372 1.1225 5.2385 1.8708 8.7308 1.8708 3.6171 0 7.3588.8731 8.7308 1.8709s4.4901 1.8709 7.1094 1.8709c2.4945 0 5.2385.8731 6.1115 1.8709.8731.9978 3.4924 1.8709 5.8621 1.8709 2.3698 0 5.1138.8731 6.1116 1.8709 1.1225.9978 3.7418 1.8709 6.1116 1.8709 2.4945 0 4.3654.7483 4.8643 1.8708.3741 1.1226 2.245 1.8709 4.2406 1.8709 1.9957 0 4.3654.8731 5.2385 1.8709s2.8687 1.8709 4.3654 1.8709 3.4923.8731 4.3654 1.8709 2.8687 1.8709 4.3654 1.8709c1.6215 0 3.1182.8731 3.6171 1.8709.3741.9978 1.9956 1.8708 3.7417 1.8708 1.6215 0 3.2429.8731 3.7418 1.8709.3742.9978 1.7462 1.8709 2.9934 1.8709 1.372 0 3.1182.8731 3.9912 1.8709.8731.9978 2.6193 1.8709 3.9913 1.8709 1.2472 0 2.6192.8731 2.9934 1.8709.4989.9978 1.8709 1.8709 3.1181 1.8709 1.2473 0 2.3698.4989 2.3698 1.2472 0 .6236 1.372 1.4967 3.1182 1.9956 1.7461.3742 3.1181 1.2473 3.1181 1.8709 0 .9978 3.8665 3.3676 9.7286 5.9868 1.4967.7484 2.744 1.8709 2.744 2.6193 0 .6236.6236 1.2472 1.2472 1.2472 1.7462 0 13.7199 8.9803 13.7199 10.2276 0 .4989.873.9978 1.8709.9978.9978 0 1.8708.4989 1.8708.9978 0 .6236 2.4946 2.8687 5.488 4.989 7.4835 5.3632 30.9319 28.8116 39.4133 39.2886 3.7418 4.7396 8.7308 10.6017 10.8511 13.0962 2.2451 2.6192 4.116 5.1138 4.116 5.7374 0 .4989 1.7461 3.1181 3.7418 5.7374 2.1203 2.6192 3.7417 5.1137 3.7417 5.6126s1.4967 2.9934 3.4923 5.488c4.2407 5.6126 6.1116 8.7308 7.6083 12.2231.7484 1.372 1.8709 2.9934 2.4945 3.4923.7484.3742 1.372 1.7462 1.372 2.9934 0 1.2473.8731 2.9934 1.8709 3.8665s1.8709 2.4945 1.8709 3.7418c0 1.2472.8731 2.8687 1.8709 3.7418.9978.873 1.8709 2.4945 1.8709 3.7417 0 1.2473.873 2.8687 1.8708 3.7418s1.8709 2.6192 1.8709 3.8665c0 1.1225.8731 2.9934 1.8709 4.1159.9978.9978 1.8709 3.2429 1.8709 5.1138 0 1.7462.8731 3.4923 1.8709 3.8665.9978.4989 1.8709 2.2451 1.8709 4.2407s.873 4.3654 1.8709 5.4879c.9978.9978 1.8708 3.4923 1.8708 5.4879s.8731 4.3654 1.8709 5.2385 1.8709 3.6171 1.8709 6.2363.8731 5.3632 1.8709 6.2363c1.2473.9978 1.8709 3.7418 1.8709 7.6082 0 3.6171.7483 6.6105 1.8709 7.8578 1.1225 1.1225 1.8709 4.1159 1.8709 7.8577 0 6.9846 1.1225 11.5995 2.6192 11.5995 1.8709 0 1.2473-14.2187-.7484-16.9627-.9978-1.2473-1.8708-4.989-1.8708-8.2319 0-3.4923-.7484-6.6105-1.8709-7.733-.9978-.9978-1.8709-3.9912-1.8709-6.7352 0-2.8687-.7484-5.6127-1.8709-6.4857-.9978-.8731-1.8709-3.3676-1.8709-5.6127s-.8731-4.7396-1.8709-5.6126c-.9978-.8731-1.8709-3.1182-1.8709-4.9891s-.873-4.1159-1.8708-4.989c-.9979-.8731-1.8709-3.2429-1.8709-5.2385s-.7484-3.8665-1.8709-4.2407c-.9978-.4989-1.8709-1.9956-1.8709-3.617 0-1.4967-.8731-3.4923-1.8709-4.3654s-1.8709-2.8687-1.8709-4.6149c0-1.6214-.8731-3.2428-1.8709-3.617-.9978-.4989-1.8708-1.7462-1.8708-2.9934 0-1.2473-.8731-2.8687-1.8709-3.7418s-1.8709-2.4945-1.8709-3.7418c0-1.2472-.8731-2.8687-1.8709-3.7417-.9978-.8731-1.8709-2.4946-1.8709-3.7418 0-1.2473-.8731-2.4945-1.8709-2.9934-.9978-.3742-1.8709-1.6215-1.8709-2.744s-1.6214-4.1159-3.7417-6.7352c-1.9956-2.6192-3.7418-5.1137-3.7418-5.6126s-1.6214-2.9935-3.7418-5.6127c-1.9956-2.6192-3.7417-5.2385-3.7417-5.9868 0-.6237-.8731-1.4967-1.8709-1.9956-.9978-.3742-1.8709-1.4967-1.8709-2.6193 0-.9978-.4989-1.8709-.9978-1.8709-.6237 0-2.8687-2.4945-4.9891-5.4879-9.2297-12.8467-35.921-39.7875-50.1397-50.6386-3.1181-2.3698-7.2341-5.8621-9.2297-7.733-2.1203-1.8709-4.2407-3.4924-4.7396-3.4924-.9978 0-9.1049-5.6126-14.094-9.7286-.6236-.4989-2.1203-1.3719-3.1181-1.8708s-3.4923-1.9957-5.6127-3.3676c-1.9956-1.372-4.8643-2.9935-6.2363-3.7418-1.3719-.6236-3.4923-1.7462-4.6148-2.4945-1.2473-.6237-3.2429-1.8709-4.3654-2.4945-1.2473-.7484-3.4923-1.7462-4.989-2.3698-1.372-.7484-2.9935-1.8709-3.4924-2.4945-.3741-.7484-2.1203-1.372-3.617-1.372-1.6214 0-3.6171-.8731-4.4901-1.8709-.8731-.9978-2.4946-1.8709-3.7418-1.8709-1.2473 0-2.8687-.8731-3.7418-1.8709s-2.8687-1.8709-4.6148-1.8709c-1.6215 0-3.8665-.8731-4.8643-1.8709-1.1226-.9978-3.2429-1.8708-4.7396-1.8708-1.6214 0-3.6171-.8731-4.4901-1.8709-.8731-.9978-3.3676-1.8709-5.6127-1.8709s-4.7396-.8731-5.6127-1.8709c-.873-1.1225-3.617-1.8709-6.4857-1.8709-2.744 0-5.7374-.8731-6.7352-1.8709-1.1225-.9978-4.1159-1.8709-6.8599-1.8709-2.8687 0-5.8621-.873-6.8599-1.8708-1.372-1.2473-4.3654-1.8709-9.6039-1.8709-7.1094.1247-7.4835.2494-5.3632 1.8709zm-14.2187-44.1529c-.8731 1.3719-1.7462 6.8599-2.1204 11.9736-.6236 7.1094-1.3719 9.9781-3.2428 11.5995-2.3698 2.2451-2.2451 2.3698 5.9868 4.8643 4.6149 1.4967 10.477 2.6193 12.9715 2.6193 2.4945.1247 6.7352.873 9.4791 1.8708 2.744.9978 6.1116 1.8709 7.4836 1.8709s4.989.7484 8.1071 1.7462c3.1182.9978 8.9803 2.744 13.0962 3.8665 4.116 1.2472 9.7287 2.9934 12.4726 3.9912 2.744.9978 7.2341 2.744 9.9781 3.7418 2.7439.9978 6.7352 2.6192 8.7308 3.4923 6.6104 2.744 37.293 18.21 41.1595 20.5797 2.1203 1.372 4.8643 2.9935 6.2363 3.7418 4.1159 2.1204 9.978 6.1116 26.816 18.21 4.6148 3.3676 13.3456 10.3522 15.466 12.4725.7483.6237 5.8621 5.2385 11.4747 10.1028 10.2275 8.9803 28.9364 29.6847 39.4134 43.4046 6.1115 8.1071 17.2121 24.1968 17.2121 24.9451 0 .2495 1.4967 2.8687 3.4923 5.8621 1.8709 2.9934 3.9913 6.4858 4.8643 7.8577 1.7462 2.8687 13.3457 26.4419 16.3391 33.0524.9978 2.3698 2.6192 5.8621 3.617 7.733.8731 1.7461 1.6215 4.1159 1.6215 5.2384 0 1.1226.4989 2.9935 1.2472 4.2407 1.7462 2.9934 4.9891 12.5973 6.1116 17.8358.4989 2.3698 1.4967 5.2385 1.9956 6.1116.6236.9978 1.4967 3.9912 1.9956 6.8599.4989 2.7439 1.4967 7.4835 2.2451 10.6017.7483 3.1181 1.9956 8.1071 2.744 11.2253.7483 3.1181 1.8708 9.8533 2.3697 14.9671.4989 5.1137 1.6215 14.8423 2.4946 21.5775 1.7461 13.7198 1.1225 51.387-.9978 65.1068-4.8644 31.0567-5.8622 36.5447-7.6083 42.1573-.6236 2.1204-1.7462 6.4858-2.6193 9.6039-2.4945 9.8533-3.4923 13.2209-8.1071 26.1924-6.8599 18.9583-21.7023 49.3914-30.6826 62.8618-2.6192 3.9912-4.8643 7.4835-4.8643 7.8577s-6.1115 8.9802-9.7286 13.4704c-.4989.6236-3.7417 4.8643-7.1093 9.3544-8.3567 11.1006-10.2275 13.0962-28.188 31.1814-8.6061 8.6061-20.3303 19.3325-26.1924 23.6979-5.7374 4.3654-10.7265 8.2319-11.1006 8.6061-1.6215 1.7461-22.4507 15.8401-28.687 19.4572-10.7264 5.9868-14.7176 8.1072-19.9561 10.6017-3.1181 1.4967-6.4857 3.2428-7.4835 3.8665-.9978.6236-2.744 1.4967-3.7418 1.8709-.9978.3741-3.8665 1.6214-6.2363 2.7439-2.3698.9978-5.9868 2.6193-8.1071 3.4923-1.9956.7484-5.8621 2.3698-8.4814 3.4924-2.6192 1.1225-5.7374 1.9956-6.8599 1.9956-1.2473 0-3.3676.8731-4.7396 1.8709-1.2472.9978-3.3676 1.8709-4.7396 1.8709-1.2472 0-5.1137.873-8.7308 1.9956-13.8445 4.3654-14.2187 4.4901-33.8006 7.9824-23.6979 4.3654-28.188 4.989-35.5469 4.989-9.978 0-13.4703 1.7462-8.1071 3.7418 5.1137 1.9956 5.6126 2.9934 5.6126 14.4682 0 10.7264 1.6215 14.094 5.7374 12.4726 1.7462-.6237 1.8709-2.744 1.4967-13.5951l-.3742-12.7221h6.86 6.8599l1.1225 5.2385c.7484 2.9934 1.9956 5.3632 2.8687 5.3632 1.6214 0 5.3632-6.2363 5.3632-9.105 0-1.7461 3.7418-5.8621 5.3632-5.8621 1.8709 0 4.7396 7.9825 5.4879 15.2166.7484 8.6061 1.9957 10.9758 5.488 10.9758 1.9956 0 2.3698-.9978 2.3698-5.3632 0-2.9934-.8731-8.3566-1.9957-11.9736-2.3697-8.2319-1.4967-11.1006 3.8665-12.0984 6.4858-1.2473 8.4814-.2495 9.4792 4.2406.4989 2.3698 1.4967 4.8643 2.1203 5.488 2.1204 2.1203 5.2385.1247 5.2385-3.3676 0-1.7462.8731-4.989 1.9956-6.9847 2.4945-4.989 6.8599-4.6148 8.3567.7484.6236 1.9956 1.6214 5.3632 2.3697 7.4835.6237 1.9957 1.4968 5.1138 1.9957 6.86.7483 3.7417 2.245 4.8643 5.3632 4.1159 2.8687-.7484 2.9934-4.6148.4989-9.105-.9978-1.7461-1.8709-4.4901-1.8709-6.2363 0-1.7461-.8731-4.2406-1.8709-5.4879-2.6192-3.4923-2.3698-3.9912 2.3698-6.8599 6.4857-4.116 8.9802-3.4923 11.8489 2.9934 3.3676 7.6083 5.8621 7.3588 6.8599-.9978 1.4967-10.9759 6.361-14.094 9.7286-6.2363 6.86 16.7133 9.4792 19.9561 12.8468 16.4638 1.7462-1.7461.4989-5.2385-6.6105-19.5819-2.1203-3.9912-2.1203-4.116.9978-6.6105 5.8621-4.4901 12.4726-4.1159 12.4726.7484 0 2.3698 4.8643 6.2363 6.2363 4.8643.6236-.6237 1.2472-4.4902 1.4967-8.6061.3742-6.4857.7484-7.4835 2.9934-7.8577 2.744-.3742 4.8643 1.9956 10.3523 12.2231 3.1181 5.8621 4.6148 7.4835 7.3588 7.4835 3.7417 0 2.9934-5.1137-2.1204-13.0962-1.3719-2.1203-3.617-5.8621-4.989-8.4813l-2.6192-4.7396 2.9934-1.1225c1.6214-.6236 3.3676-1.7462 3.8665-2.3698 1.6214-2.6192 6.361-1.372 9.105 2.3698 4.6148 6.1115 6.361 4.989 6.7351-4.7396.3742-7.3588.7484-8.3566 2.8687-8.7308 1.8709-.2494 4.116 1.7462 8.4814 7.6083 7.6083 10.4769 8.7308 11.35 11.9737 9.6039 2.6192-1.372 2.4945-1.4968-2.2451-8.4814-2.6192-3.8665-5.9868-8.2319-7.4836-9.4792-3.3675-2.9934-3.2428-5.7373.2495-8.9802 4.8643-4.4901 6.6105-4.4901 12.2231.2494 6.7352 5.6127 8.3566 4.2407 5.488-4.3654-2.4946-7.4835-1.8709-10.1027 2.3697-10.1027 2.1204 0 4.9891 2.245 9.6039 7.4835 4.4901 4.8643 7.733 7.4836 9.6039 7.4836 5.1138 0 3.3676-5.1138-4.7396-13.0962-4.1159-4.116-7.4835-8.3567-7.4835-9.3545 0-2.245 4.3654-6.7352 7.733-7.8577 1.372-.4989 3.617.3742 5.8621 2.2451 2.1203 1.8709 4.4901 2.8687 5.6126 2.3698 2.2451-.8731 2.6193-3.1182.8731-4.8643-2.1203-2.3698-2.7439-9.9781-.9978-12.3479 1.6215-2.1203 2.2451-1.7462 10.6017 5.3632 8.9803 7.733 13.3457 9.3544 14.8424 5.4879.6236-1.4967-.4989-2.9934-3.3676-5.2384-2.3698-1.7462-6.2363-5.1138-8.6061-7.2341-2.4945-2.2451-4.8643-4.116-5.3632-4.116-1.8709 0-.9978-3.8665 1.7461-7.4835 2.9935-4.116 8.3567-4.9891 10.9759-1.8709 1.6214 1.9956 5.7374 2.4945 6.7352.8731.2495-.4989-.7484-3.7418-2.3698-6.9847-2.2451-4.6148-2.6192-6.7352-1.7461-8.4813.6236-1.2473 1.8708-2.2451 2.4945-2.2451 1.3719 0 8.2319 4.3654 15.9649 10.1028 3.2428 2.3698 4.2406 2.6192 7.1093 1.2473 3.1182-1.372 3.2429-1.4967 1.1226-3.8665-1.2473-1.372-5.9869-4.8643-10.7265-7.733-9.8533-6.2363-10.6016-8.4814-4.8643-14.7177 3.4924-3.7417 3.9913-3.8665 5.9869-2.245 2.8687 2.6192 6.7352 3.617 8.7308 2.4945 1.2472-.8731 1.1225-1.8709-.3742-4.989-1.1225-2.1204-2.4945-4.2407-3.2429-4.6149-.6236-.4989-1.1225-2.4945-1.1225-4.4901 0-4.3654 2.8687-5.9869 5.9868-3.4923 1.1226.9978 5.9869 3.7417 10.6017 6.1115 7.2341 3.7418 8.6061 4.116 9.6039 2.4945 2.2451-3.4923.6236-5.3632-8.7308-10.2275-12.2231-6.361-13.2209-7.3588-10.9759-11.1006 4.116-7.4835 7.8578-9.3544 10.9759-5.4879 1.7462 2.1203 5.7374 2.4945 6.8599.6236.3742-.6236-1.2472-4.1159-3.7418-7.6082-2.3697-3.4924-4.3654-7.1094-4.3654-8.1072 0-2.8687 7.6083-2.6192 12.0984.2494 1.4967.9978 3.6171 1.7462 4.7396 1.7462s3.3676.8731 4.989 1.9956c3.8665 2.4945 6.86 1.4967 6.86-2.245 0-2.2451-1.2473-3.3676-5.9869-5.1138-17.3369-6.8599-17.0874-6.6105-16.7132-11.1006.3742-4.3654 3.3676-8.4813 6.1115-8.4813.8731 0 2.744.6236 3.9913 1.4967 2.4945 1.4967 6.361.6236 6.361-1.4967 0-.6237-1.9956-3.3676-4.3654-6.1116-2.3698-2.6192-4.3654-5.9868-4.3654-7.4835 0-2.1204.7483-2.6193 4.2406-2.6193 2.3698 0 5.8622.6236 7.8578 1.372 6.4857 2.6192 12.722 3.3676 14.094 1.7462 1.9956-2.3698.1247-5.6127-3.6171-6.3611-1.7461-.3741-6.8599-1.6214-11.35-2.8686-7.733-2.2451-8.1072-2.4946-7.733-5.8622.8731-9.4791 3.1181-11.7242 9.6039-9.2297 7.4835 2.8687 7.4835-1.9956 0-8.2319-5.6127-4.6148-6.9847-7.4835-3.9913-8.7308.8731-.2494 6.6105 0 12.7221.6237 9.3544 1.1225 11.4747.9978 12.9714-.4989 3.3676-3.3676-.873-5.8621-11.35-6.6105-4.989-.2494-10.1028-1.1225-11.2253-1.7462-2.4945-1.2472-2.8687-5.3632-.9978-10.2275.9978-2.8687 1.8709-3.2428 7.4835-3.2428 5.488 0 6.361-.3742 5.9869-2.2451-.2495-1.1225-2.9935-3.8665-6.2363-5.8621-4.116-2.6192-5.9869-4.6149-5.9869-6.4857 0-3.6171 3.1182-4.4902 14.7177-3.8665 9.4791.3741 9.6039.3741 9.6039-2.744 0-2.9934-.2495-3.1181-11.5995-3.8665-12.7221-.7484-14.094-1.6214-13.3457-7.733.6236-4.8643 2.744-7.1094 6.8599-7.1094 9.2297 0 9.8534-3.617 1.2473-7.3588-3.3676-1.4967-6.7352-3.7417-7.4836-5.1137-1.2472-2.2451-.873-2.744 2.9935-4.3654 2.4945-.9978 7.733-1.8709 11.7242-1.8709 8.2319 0 12.0984-1.9956 10.7264-5.4879-.7484-1.9957-1.8709-2.1204-10.3522-1.372-16.4638 1.4967-15.466 1.7461-16.5886-3.1182-1.6214-7.2341-.4989-9.3544 5.488-10.7264 4.1159-.8731 5.3632-1.7461 5.3632-3.617 0-1.7462-1.2473-2.744-4.3654-3.4924-2.3698-.4989-5.7374-2.1203-7.4836-3.3675-2.4945-1.9957-2.8687-2.744-1.7461-4.6149.7483-1.2473 3.2428-2.3698 5.6126-2.6192 5.7374-.6237 17.5864-3.7418 18.8336-4.9891.6236-.6236.7484-2.1203.2495-3.2428-.6237-1.7462-1.7462-2.1204-4.7396-1.4967-23.8226 4.1159-24.4463 3.9912-24.4463-4.3654 0-5.2385 1.372-6.7352 7.2341-7.9825 2.744-.4989 3.9913-1.4967 3.7418-2.744-.3742-1.8708-8.3566-5.3632-12.4726-5.3632-2.1203 0-4.3654-4.4901-2.9934-5.9868 1.2473-1.1225 9.6039-4.1159 14.7177-5.1138 5.7373-1.2472 8.4813-3.3675 8.4813-6.6104 0-2.2451-.4989-2.4945-5.8621-1.6214-3.2429.4989-7.3588 1.6214-9.105 2.4945-4.3654 2.1203-10.4769 3.1181-12.3478 1.9956-.8731-.6237-1.8709-3.2429-2.2451-5.9869-.4989-4.2406-.2494-5.3632 2.2451-7.1093 1.6214-1.1226 3.8665-1.9956 5.1137-1.9956 2.4945 0 2.9934-3.1182.7484-4.4902-.7484-.4989-4.6149-1.6214-8.3566-2.3697-5.488-1.1226-6.9847-1.8709-6.9847-3.7418 0-2.3698 3.4923-4.4901 16.4638-10.2275 3.8665-1.6215 5.3632-2.9934 5.3632-4.9891 0-4.4901-2.245-4.4901-10.9759-.3741-4.6148 2.245-9.7286 4.6148-11.35 5.3632-2.4945 1.2472-3.2429.9978-5.2385-1.4967-1.2472-1.6215-2.3698-4.6149-2.3698-6.86 0-3.1181.9978-4.4901 4.4902-6.7351 3.617-2.3698 4.1159-3.2429 2.9934-4.6149-1.1225-1.2473-2.9934-1.6214-6.7352-1.1225-4.4901.6236-5.7374.3742-8.1072-2.1204-2.4945-2.7439-2.6192-2.9934-.4989-4.989 1.2473-1.2472 4.7396-3.4923 7.8577-5.1137 9.2297-4.9891 11.2254-6.4858 11.2254-8.8556 0-4.2406-3.7418-3.617-13.9693 2.2451-11.2253 6.4857-12.3479 6.4857-16.4638-.4989-2.6193-4.4901-1.7462-6.361 4.4901-9.6039 5.8621-2.9934 3.6171-4.8643-5.9868-4.8643-8.2319 0-8.6061-.1247-8.9803-3.1181-.2494-2.6193 1.372-4.2407 9.105-9.9781 9.3544-6.7352 10.7264-9.105 6.7352-11.5995-1.6214-.9978-4.116.3742-11.9737 6.361l-9.978 7.6083-3.9913-4.116c-4.8643-4.989-4.8643-6.9846 0-11.2253 1.9956-1.8709 3.4924-4.1159 3.2429-4.8643-.4989-1.4967-6.7352-1.7461-12.0984-.2494-1.9956.4989-3.9912.1247-5.6126-1.1226-2.3698-1.8708-2.1204-2.245 7.234-11.4747 7.8578-7.6083 9.4792-9.7286 8.2319-11.2253-2.6192-3.1182-5.4879-1.8709-13.5951 6.361-4.3654 4.4901-8.7308 8.1071-9.4791 8.1071-.8731 0-3.2429-1.9956-5.3632-4.3654-4.2407-4.8643-3.9912-6.6104.9978-11.1005 4.989-4.6149 2.4945-8.2319-3.4923-5.1138-4.2407 2.1203-12.0984 2.4945-13.221.6236-.9978-1.6214 1.2473-4.989 6.86-11.2253 5.8621-6.361 7.8577-9.7286 6.9846-11.8489-1.1225-3.1182-5.1138-2.1204-8.4814 2.1203-1.8708 2.2451-5.4879 6.6105-8.2319 9.6039l-4.8643 5.4879-4.4901-3.3676c-5.8621-4.4901-6.1115-5.7374-2.6192-10.1028 3.3676-4.2406 3.8665-8.1071 1.1225-8.1071-1.8709 0-2.8687.3742-10.1028 4.1159-3.7417 1.9956-3.9912 1.8709-6.1115-.3742-2.1204-2.3697-2.1204-2.6192 1.1225-6.7351 1.7462-2.3698 3.2429-4.7396 3.2429-5.1138 0-.4989 1.7461-3.1181 3.8665-5.7374 3.7417-4.7396 3.8665-5.1137 1.7461-7.3588-1.2472-1.372-2.6192-2.4945-3.1181-2.4945s-3.9912 4.7396-7.6083 10.6017c-3.7418 5.7374-7.3588 10.4769-8.1072 10.6017-2.7439 0-9.1049-3.9913-9.8533-6.2363-.3742-1.2473.1247-4.116 1.1225-6.1116 2.8687-5.4879 2.6193-7.9824-.7483-6.9846-1.6214.4989-4.4901 1.9956-6.361 3.2428-4.3654 3.2429-10.3523 2.744-9.8534-.6236.6237-3.1181 1.9957-6.361 6.6105-14.3434 3.3676-5.9869 3.617-6.9847 1.8709-8.6061-2.9934-2.9934-5.1138-.9978-10.7264 9.978-2.8687 5.6127-5.3632 10.477-5.488 10.7264-.7483.6237-9.1049-3.4923-10.6016-5.2384-1.2473-1.4967-1.2473-2.744 0-6.1116.873-2.3698 1.1225-5.2385.7483-6.4857-.7483-1.7462-1.6214-1.4967-7.1094 2.4945-3.3675 2.4945-7.234 4.3654-8.3566 4.1159-2.9934-.4989-3.4923-4.4901-1.2472-9.1049 4.1159-8.3567 6.1115-14.2188 5.6126-16.3391-.4989-3.2429-5.7374-3.8665-6.7352-.8731-1.2472 3.9912-4.3654 12.0984-6.7352 17.4616-2.3697 5.1138-2.3697 5.1138-6.4857 3.6171-6.9846-2.3698-7.3588-2.8687-6.4857-9.3545.9978-8.1071-.9978-9.105-6.7352-3.4923-9.105 8.7308-14.3435 5.7374-9.7286-5.4879.8731-2.3698 2.1203-6.8599 2.4945-10.2275.8731-5.6127.7483-5.8621-2.1203-5.8621-3.2429 0-5.8622 4.1159-5.8622 9.3544 0 2.9934-3.2428 12.722-4.8643 14.5929-.873 1.1225-9.6038-1.7462-11.5994-3.7418-1.1226-1.1225-1.1226-2.6192 0-5.9868 2.6192-8.6061-1.2473-9.105-7.733-1.1225-2.8687 3.3676-5.7374 5.6126-7.2341 5.6126-2.4945 0-2.6193-.3742-1.8709-13.0962.7483-12.3478.6236-13.0962-1.6215-13.0962-1.3719 0-2.9934 1.1225-3.7417 2.6193zm-116.7433-.7484c-.4989 1.1225-.2495 4.989.4989 8.4813 1.7462 8.1072 2.2451 16.0897.9978 18.0853-.9978 1.6214-7.8577 1.9956-11.2253.7483-1.1225-.4989-2.3698-2.8687-2.744-5.6126-1.372-8.2319-6.2363-4.9891-7.8577 5.1137-.6236 3.4923-1.372 4.4902-3.9912 4.7396-2.8687.3742-3.6171-.3742-5.3632-4.7396-1.1226-2.7439-1.9956-6.2363-1.9956-7.8577 0-1.4967-1.1226-4.4901-2.3698-6.7352-1.8709-2.9934-3.1182-3.7418-5.1138-3.2428-2.1203.4989-2.4945 1.3719-1.8709 3.3675.4989 1.372 1.2473 4.6149 1.7462 6.9847s1.6214 5.6126 2.3698 7.1094c2.744 4.989 1.8709 8.8555-2.3698 11.1005-5.3632 2.744-9.7286 1.372-10.7264-3.2428-1.7462-8.8556-7.8577-7.3588-7.8577 1.9956 0 5.2385-2.6193 9.8533-5.2385 8.9802-1.372-.4989-4.8643-6.8599-8.2319-15.3412-2.744-6.6105-6.9847-9.105-8.6061-4.8643-.7483 1.8709 0 3.7417 5.2385 14.2187 3.617 7.2341 3.3676 9.6039-1.1225 12.3478-2.2451 1.4968-4.8643 2.6193-5.7374 2.6193-1.8709 0-4.6149-3.1182-6.2363-7.2341-1.372-3.2429-4.3654-3.6171-5.4879-.7484-.3742 1.1226-.7484 4.2407-.7484 7.1094 0 6.2363-1.372 8.7308-4.3654 8.1072-2.3698-.3742-4.6148-3.6171-9.978-14.4682-3.4924-6.9846-3.9913-7.3588-7.4836-4.7396-2.3698 1.7462-2.3698 1.8709.6236 7.6083 4.7396 8.7308 5.8621 10.7264 7.3589 12.2231 2.4945 2.4945 1.3719 5.6127-3.1182 8.2319-4.989 2.9934-8.7308 2.4945-9.8533-1.2473-.9978-2.8686-5.1138-5.3632-6.9847-4.1159-.873.4989-1.1225 3.1181-.7483 7.1094.7483 5.9868-.4989 10.8511-2.8687 10.8511-.6236 0-4.6149-4.4901-8.7308-9.9781-7.733-10.2275-10.477-11.8489-11.849-7.4835-.873 2.8687-.7483 3.3676 6.4858 12.722 2.9934 3.8665 5.3632 8.1072 5.3632 9.3545 0 2.3697-6.1116 7.8577-8.7308 7.8577-.7484 0-2.8687-1.7462-4.8643-3.9912-4.3654-4.8644-8.2319-4.2407-6.7352 1.1225.4989 1.9956.9978 5.7374.9978 8.4813 0 6.7352-3.2429 7.3588-8.3566 1.6215-12.3479-13.7199-12.2231-13.5951-14.7177-12.2232-1.3719.7484-2.4945 1.8709-2.4945 2.6193 0 .7483 3.6171 5.2385 7.9825 10.1028 8.6061 9.4791 8.8555 10.7264 3.4923 15.5907-4.1159 3.7418-4.989 3.617-9.7286-.9978-5.1138-4.9891-7.2341-3.8665-6.1116 3.1181.4989 2.744 1.4967 6.1116 2.1204 7.4836.8731 1.6214.7483 2.8687-.7484 4.2406-2.4945 2.6193-5.1137 1.2473-13.8445-7.1093-6.361-6.1116-7.2341-6.6105-10.1028-5.3632-1.6215.873-2.9934 1.9956-2.9934 2.6192 0 .9978 11.1006 11.1006 16.339 14.8424 3.3676 2.3698 2.9934 5.4879-1.1225 9.3544-4.2407 3.9912-6.361 4.2407-9.9781.8731-1.4967-1.372-3.617-2.4945-4.7395-2.4945-1.6215 0-1.8709.7483-1.1226 4.4901.3742 2.6192 1.6215 5.9868 2.744 7.6083 1.4967 2.245 1.6214 3.2428.3742 4.7395-2.6193 3.1182-5.488 2.2451-14.094-4.3654-4.4902-3.4923-8.8556-6.2363-9.4792-6.2363-1.1225 0-3.8665 3.8665-3.8665 5.3633 0 .3741 4.7396 3.8665 10.6017 7.8577 5.8621 3.8665 10.477 7.4835 10.3522 7.8577-3.4923 6.8599-5.6126 8.8555-9.2297 8.8555-2.1203 0-4.6148-.8731-5.4879-1.8709-1.7462-2.1203-4.4901-2.4945-5.6127-.6236-.3741.7484.7484 3.9912 2.4946 7.3588 4.2406 7.6083 3.8665 10.8512-1.2473 10.3523-1.9956-.2495-4.3654-.9978-5.1138-1.6215-.7483-.6236-4.4901-2.7439-8.2318-4.8643-6.2363-3.2428-7.2341-3.4923-8.6061-1.7461-2.4945 2.9934-.1247 5.3632 10.6017 11.1005 5.3632 2.744 9.7286 5.3633 9.7286 5.6127-.1248 3.1181-2.1204 7.733-3.9913 9.3544-1.9956 1.7462-2.9934 1.8709-7.3588.4989-7.9824-2.3698-8.9802-.2494-3.4923 7.3589 4.2407 5.6126 4.3654 6.2362 2.6192 8.7308l-1.7461 2.6192-8.1072-3.617c-4.4901-1.9957-10.1028-3.9913-12.4726-4.4902-3.7417-.6236-4.3654-.4989-4.3654 1.6215 0 2.8687 3.7418 6.6104 6.4858 6.6104 1.1225 0 3.617.7484 5.6126 1.7462 1.8709.9978 4.9891 2.3698 6.9847 3.1181 3.9912 1.4967 4.6148 6.4858 1.372 11.2253-1.8709 2.6193-2.744 2.8687-8.1072 2.1204-5.3632-.7484-6.1116-.6237-6.1116 1.4967 0 1.2472 1.9956 4.1159 4.3654 6.4857 4.7396 4.6149 5.2385 6.361 2.4945 8.7308-1.8708 1.4967-2.3697 1.372-16.5885-3.1181-7.1093-2.1204-10.2275-1.2473-10.2275 2.9934 0 1.9956 3.6171 3.3676 17.2122 6.361 7.6082 1.7462 8.1071 2.1203 7.3588 7.8577-.8731 5.9869-2.2451 7.1094-9.8533 7.1094-7.6083 0-7.6083 1.6214-.2495 8.1072 3.9912 3.4923 5.4879 5.6126 4.8643 7.1093-1.2473 3.2429-4.1159 3.6171-12.0984 1.4967-4.1159-.9978-9.2297-1.7461-11.4748-1.4967-3.2428.2495-3.8665.8731-3.8665 3.4924 0 2.9934.4989 3.1181 8.6061 4.1159 15.2166 1.6214 16.3391 2.1203 16.7133 7.8577.4989 6.361-1.9956 8.6061-8.9803 8.6061-7.2341 0-7.4835 3.1181-.3742 7.2341 5.488 3.2429 7.733 6.2363 6.361 8.4813-.3741.6237-6.4857 1.1226-13.7198 1.1226h-13.0962l.3742 3.3676.3742 3.4923 12.4725.6236 12.4726.6236v6.86 6.8599l-5.4879.6236c-8.6061.9978-8.2319 3.7418 1.1225 8.6061 2.9934 1.6214 4.4901 3.2428 4.7396 5.4879.4989 3.9912-1.1225 4.4901-15.3413 4.8643-9.7286.3742-9.978.4989-9.978 3.4923 0 3.1182 0 3.1182 12.4725 3.2429 6.86 0 13.0962.1247 13.8446.2494.8731.1248 1.7462 2.3698 1.9956 4.8644.6236 5.2384-2.2451 9.1049-6.8599 9.1049-1.6214 0-3.9912.7484-5.2385 1.7462-2.245 1.6214-2.1203 1.8709 3.1182 4.2407 3.1181 1.4967 6.4857 2.8687 7.6082 3.1181 1.1226.3742 2.3698 1.8709 2.744 3.3676.8731 3.2429-2.1203 4.6149-14.7176 6.7352-7.4836 1.372-8.7308 1.8709-9.105 4.2407-.6236 4.1159 2.4945 4.6148 12.8467 2.1203 12.0984-2.744 13.4704-2.3698 14.8424 3.9912 1.2472 6.1116-.3742 9.105-4.8643 9.105-1.4967 0-3.4923.8731-4.3654 1.8709-2.2451 2.744.4989 5.6126 5.4879 5.6126 4.3654 0 9.4792 2.9935 9.4792 5.488 0 1.6214-7.1094 5.7374-9.6039 5.7374-.4989 0-4.2407.9978-8.1072 2.1203-7.3588 2.2451-9.105 4.7396-5.4879 7.733 1.6214 1.372 6.7352.1247 18.5841-4.6149 6.1116-2.4945 8.6061-1.1225 9.8534 5.3632 1.1225 5.3633 0 7.4836-4.6149 8.6061-1.6214.3742-3.617 1.8709-4.3654 3.2429-1.6214 2.9934-.9978 3.2429 7.9824 4.1159 5.7374.6237 8.1072 2.1204 8.2319 5.3632 0 1.2473-4.6148 3.8665-13.7198 7.733-7.6083 3.2429-8.1072 3.6171-8.4813 6.361-.3742 2.1204.2494 2.6193 3.2428 2.6193 2.1204 0 5.6127-.9978 7.9825-2.1203 2.245-1.1226 5.6126-2.744 7.4835-3.7418 5.6127-2.8687 8.3566-2.1204 10.477 2.8687 2.3698 5.6126 1.372 8.7308-3.3676 10.3522-2.9934.9978-3.7418 1.9956-3.3676 4.116.3742 2.6192 1.1225 2.8686 7.8577 3.2428 8.2319.3742 10.2275 1.4967 8.4814 4.6149-1.2473 2.1203-3.3676 3.4923-13.7199 8.7308-5.2384 2.6192-6.6104 3.8665-6.6104 6.361s.6236 2.9934 3.617 2.9934c2.1204 0 4.116-.6236 4.4901-1.372.4989-.6236 2.1204-1.8709 3.4924-2.4945 3.8665-1.7462 7.733-4.1159 10.1027-5.9868 2.744-2.2451 4.8644-1.1226 8.1072 4.2406l2.6193 4.6149-4.9891 4.6149c-7.2341 6.6104-6.6104 7.6082 4.3654 7.6082 8.3567 0 9.3545.2495 9.3545 2.3698 0 1.372-3.4924 4.989-9.4792 9.3544-6.2363 4.7396-9.2297 7.8578-8.9802 9.2297.7483 4.116 5.3632 2.8687 14.5929-3.9912 9.978-7.4835 11.4747-7.6083 15.7154-.4989 2.2451 3.8665 1.7462 5.2385-3.7418 9.9781-2.245 1.8709-2.3698 2.245-.4989 4.1159 1.4967 1.4967 2.6193 1.6215 5.7374.4989 5.3632-1.7461 10.8512-.9978 11.3501 1.6215.4989 2.245-1.372 4.3654-11.3501 13.0962-4.7396 4.1159-5.8621 5.7373-5.2385 7.733 1.2473 4.2406 4.6149 2.9934 11.849-4.2407 10.1028-10.1028 10.7264-10.3523 15.7154-5.488 5.1138 4.9891 5.2385 6.1116.9978 10.2276-4.3654 4.4901-3.2428 7.6082 2.2451 6.4857 2.245-.3742 5.3632-1.372 6.9846-2.1203 2.2451-1.2473 3.2429-.9978 4.8643.6236 2.6193 2.6192 1.372 5.2385-7.3588 14.4682-4.989 5.3632-6.1115 7.2341-5.1137 8.7308 2.245 3.617 5.8621 2.9934 8.8555-1.4967 4.8643-7.2341 10.8511-13.3457 12.9715-13.3457 3.1181 0 8.4813 5.4879 8.4813 8.6061 0 1.372-1.1225 3.7418-2.6192 5.2385-2.6193 2.6192-2.4945 6.1115.3741 6.1115.7484 0 3.8665-1.1225 6.86-2.6192 10.6016-5.1138 12.2231.6236 3.3676 12.5973-5.8622 7.9824-6.6105 11.4747-2.4946 12.2231 2.1204.4989 8.1072-5.1138 8.2319-7.6083 0-.4989 1.8709-3.4923 4.116-6.4857 3.9912-5.4879 6.2363-6.7352 7.733-4.2407.4989.6236 2.245 1.7462 3.8665 2.3698 3.4923 1.372 3.9912 5.6127 1.1225 9.4792-.9978 1.2472-1.8709 3.3676-1.8709 4.7395 0 1.8709.6237 2.1204 3.4923 1.372 1.8709-.3742 4.2407-1.6214 5.2385-2.4945s3.4923-1.8709 5.6127-2.1203c6.361-.6237 5.8621 1.9956-3.3676 19.3325-2.744 5.2384-2.744 6.7351.1247 7.4835 2.6193.6236 4.989-1.372 7.733-6.8599.9978-1.8709 3.1181-5.8621 4.6149-8.9803 1.6214-3.1181 3.3676-5.7373 3.9912-5.7373 2.8687 0 9.7286 3.9912 10.2275 5.9868.3742 1.372-.1247 4.2407-1.1225 6.4857-1.372 3.3676-1.372 4.3654-.1248 5.2385 2.3698 1.4967 2.6193 1.372 8.8556-3.3676 5.1137-3.9912 5.8621-4.1159 7.6082-2.3698 2.2451 2.2451 2.4945 3.3676.8731 6.4858-3.2429 5.9868-6.4857 15.7154-6.1116 18.0852.6237 4.7396 4.4902 3.9912 6.7352-1.2473 1.1226-2.6192 2.744-6.361 3.7418-8.2319.9978-1.9956 1.7462-4.6148 1.7462-5.8621 0-3.4923 3.1181-5.2385 7.9824-4.3654 6.8599 1.372 8.1072 4.116 5.6127 13.0962-.9978 3.4923 4.3654 2.744 8.2319-1.2472 3.4923-3.7418 8.4813-4.9891 9.978-2.4945.3742.7483.2495 3.1181-.3742 5.3632-.7483 2.1203-2.245 7.2341-3.4923 11.2253-1.1225 3.8665-1.8709 7.3588-1.6214 7.733.3742.2494 1.8709.7483 3.4923.873 2.2451.3742 3.1182-.7483 5.1138-6.4857 1.372-3.7418 2.3698-8.3566 2.4945-10.2275 0-5.1138 3.1181-7.4835 8.4813-6.4857 6.4858 1.1225 6.4858 1.1225 6.4858 8.7308 0 8.4813 1.7461 8.7308 7.9824 1.1225 4.8643-5.8621 6.9847-6.7352 9.4792-3.8665 1.1225 1.4967.9978 4.1159-.7484 12.4726-2.1203 9.978-2.1203 10.8511-.2494 12.722 3.4923 3.617 5.6126 1.372 6.4857-7.2341.3742-4.2407 1.372-9.9781 2.1203-12.722l1.372-4.7396 5.6127.7484c7.3588.9978 9.4791 2.7439 8.6061 7.234-.6237 2.9935.9978 5.8622 2.4945 4.4902 1.4967-1.6215 2.4945-12.2231 1.2472-13.221-.7483-.6236-6.9846-2.1203-13.8445-3.2428-6.8599-1.2473-15.5907-2.744-19.3325-3.4923-3.7418-.6237-9.8533-1.7462-13.5951-2.2451-3.6171-.6236-7.2341-1.6214-7.9825-2.3698-.7483-.7483-3.1181-1.372-5.1137-1.372-2.1204 0-5.488-.8731-7.4836-1.8709-1.8708-.9978-4.6148-1.8708-5.8621-1.8708-1.2472 0-4.1159-.7484-6.361-1.7462-2.245-.9978-6.6104-2.744-9.7286-3.8665-3.1181-1.1225-7.2341-2.8687-9.105-3.8665-1.9956-.9978-4.1159-1.7462-4.8643-1.7462-.6236 0-8.606-3.617-17.711-8.1071-16.7133-8.3567-17.4616-8.7308-26.6913-14.7177-2.9934-1.8709-5.6127-3.3676-5.8621-3.3676-.8731 0-14.8424-9.7286-21.9518-15.2165-26.816-20.7045-47.1463-40.5359-63.1112-61.4898-10.1028-13.2209-21.5775-29.56-23.199-33.0523-.4989-.9978-1.9956-3.617-3.3676-5.6127-2.4945-3.9912-17.9605-34.7984-20.5797-41.1594-.8731-2.1204-2.4945-5.8621-3.617-8.4814-1.1226-2.6192-1.9957-5.7374-1.9957-6.8599 0-1.2473-.4989-2.744-1.1225-3.3676-1.6214-1.9956-7.9824-22.5754-10.2275-33.6759-.4989-2.744-1.4967-7.4836-2.2451-10.6017-5.6126-25.943-7.4835-54.6299-5.6126-88.3058 1.2472-22.7001 2.3698-31.3062 5.6126-46.398.7484-3.1181 1.7462-7.8577 2.2451-10.6017s1.4967-6.9846 2.2451-9.3544c.7483-2.3698 2.3698-7.733 3.4923-11.849 1.2472-4.1159 2.8687-9.4791 3.7418-11.8489 3.1181-8.4814 5.8621-15.5907 7.733-19.9561.9978-2.3698 2.7439-6.361 3.7417-8.7308s2.3698-5.2385 2.9934-6.2363c.4989-.9978 3.2429-6.361 6.1116-11.849 2.744-5.4879 6.2363-11.7242 7.4835-13.7198 1.372-2.1203 2.8687-4.6148 3.3676-5.6126 1.1226-2.6193 16.2144-24.6957 17.8358-26.1924.3742-.3742 3.7418-4.6149 7.4836-9.3545 14.094-18.2099 37.0435-40.6606 56.7502-55.6276 12.0984-9.105 29.0611-21.0787 29.9341-21.0787.2495 0 4.4902-2.3698 9.6039-5.3632 9.8533-5.8621 29.3106-15.466 38.4155-18.9583 3.1182-1.1225 7.1094-2.8687 8.9803-3.8665 1.7462-.9978 4.3654-1.7462 5.6126-1.7462 1.2473 0 2.8687-.4989 3.6171-1.1225.6236-.7483 3.3676-1.7461 6.1116-2.4945 2.7439-.6236 6.7351-1.7462 8.7308-2.3698 12.4725-4.2407 14.094-4.6148 31.1814-7.733 13.7198-2.6192 14.9671-2.9934 15.3412-5.8621.3742-2.1203-.3741-2.744-3.1181-3.1181-3.1181-.3742-3.617-.9978-4.3654-6.6105-1.4967-11.35-3.9912-18.7089-6.361-19.083-1.1225-.2495-2.4945.4989-2.8687 1.6214zm55.1288-271.7773c-4.4902 9.6038-6.361 13.7198-9.8534 22.0764-.873 2.1203-2.6192 5.9868-3.617 8.3566-1.8709 4.3654-4.4901 10.8512-8.1072 20.5798-1.1225 2.7439-2.7439 7.2341-3.7418 9.978-6.6104 17.5864-8.8555 25.3194-9.8533 33.9254-.6236 6.6105-.3742 8.3567 1.8709 12.2232 3.1181 5.2384 3.3676 9.2297.7484 12.5972-1.4968 1.9957-1.7462 15.7155-1.8709 96.7872v94.2926l-3.7418.8731c-1.9956.4989-3.9912 1.372-4.3654 1.9956-.4989.6237-4.116 1.1226-8.1072 1.1226-4.8643 0-7.9824.6236-9.2297 1.8709-.9978.9978-3.9912 1.8708-6.8599 1.8708-2.744 0-5.7374.8731-6.8599 1.8709-.9978.9978-3.9912 1.8709-6.7352 1.8709-2.8687 0-5.6127.7484-6.4857 1.8709-.8731.9978-3.1182 1.8709-4.8643 1.8709-1.8709 0-4.4902.8731-5.8621 1.8709-1.2473.9978-3.6171 1.8709-4.9891 1.8709-1.4967 0-3.3676.873-4.2406 1.8708-.8731.9978-3.1182 1.8709-4.9891 1.8709s-4.1159.8731-4.989 1.8709-2.4945 1.8709-3.7418 1.8709c-1.2472 0-2.8687.8731-3.7417 1.8709-.8731.9978-2.8687 1.8709-4.3654 1.8709-1.4968 0-3.4924.8731-4.3654 1.8709-.8731.9978-2.4946 1.8708-3.7418 1.8708-1.2473 0-2.4945.8731-2.9934 1.8709-.3742.9978-1.7462 1.8709-3.1182 1.8709s-2.8687.6236-3.2428 1.372c-.499.6236-2.1204 1.8709-3.4924 2.4945-1.4967.6236-4.3654 2.2451-6.4857 3.6171-1.9956 1.3719-4.6149 2.8687-5.6127 3.3676-.9978.3741-3.8665 2.245-6.2362 4.1159-2.3698 1.8709-5.3633 3.7418-6.4858 4.116-1.2472.4989-2.245 1.3719-2.245 2.1203 0 .6236-.8731 1.2472-1.8709 1.2472s-1.8709.4989-1.8709 1.1226c0 .6236-2.1204 2.4945-4.6149 3.9912-2.6192 1.6214-6.1115 4.1159-7.8577 5.6127-22.2012 19.9561-24.571 22.2011-38.2908 37.1682-4.989 5.3632-9.105 10.2275-9.105 10.8512 0 .6236-.4989 1.1225-1.2472 1.1225-.6237 0-1.9956 1.4967-2.9934 3.3676-.9978 1.9956-3.7418 5.7374-6.2363 8.4813-2.4945 2.744-4.4902 5.488-4.4902 6.1116 0 .4989-1.6214 3.1181-3.4923 5.6127-1.9956 2.4945-3.9912 5.3632-4.3654 6.361-.4989.9978-1.9956 3.4923-3.3676 5.6126-1.3719 1.9956-2.9934 4.989-3.617 6.4858-.6236 1.3719-1.8709 2.9934-2.4945 3.4923-.7484.3742-1.372 1.8709-1.372 3.2428 0 1.372-.8731 2.744-1.8709 3.1182-.9978.4989-1.8709 1.9956-1.8709 3.617 0 1.6215-.8731 3.1182-1.8709 3.6171-.9978.3742-1.8709 1.9956-1.8709 3.7418 0 1.6214-.873 3.2428-1.8708 3.7417-.9978.3742-1.8709 1.9956-1.8709 3.6171 0 1.7461-.8731 3.7417-1.8709 4.6148s-1.8709 2.8687-1.8709 4.3654-.8731 3.4923-1.8709 4.3654-1.8709 3.1182-1.8709 4.9891c0 1.8708-.873 4.1159-1.8709 4.989-.9978.8731-1.8708 3.3676-1.8708 5.6126 0 2.2451-.8731 4.7396-1.8709 5.6127s-1.8709 3.617-1.8709 6.2363c0 2.6192-.8731 5.3632-1.8709 6.2363-1.1225.9978-1.8709 3.7417-1.8709 7.1093 0 3.2429-.7483 6.361-1.8709 7.3588-1.9956 2.1204-2.7439 15.466-.7483 15.466 1.7461 0 2.6192-3.3676 2.6192-9.7286 0-3.2428.8731-6.9846 1.8709-8.2319.9978-1.3719 1.8709-4.6148 1.8709-7.3588 0-2.6192.8731-5.6126 1.8709-6.6104.9978-1.1226 1.8709-3.7418 1.8709-5.9869 0-2.3698.873-4.8643 1.8708-5.7374.9979-.873 1.8709-3.2428 1.8709-5.2384 0-1.9957.8731-4.4902 1.8709-5.488.9978-1.1225 1.8709-3.2428 1.8709-4.7396 0-1.6214.8731-3.617 1.8709-4.4901s1.8709-2.8687 1.8709-4.3654.8731-3.4923 1.8709-4.3654 1.8708-2.1203 1.8708-2.8687c0-1.8709 4.9891-11.9736 6.3611-12.8467.6236-.3742 1.1225-1.6215 1.1225-2.8687 0-1.2473.8731-2.9934 1.8709-3.8665s1.8709-2.6192 1.8709-3.9912c0-1.2473.873-2.6193 1.8708-2.9934.9979-.499 1.8709-1.6215 1.8709-2.6193s1.4967-3.9912 3.4924-6.4857c4.4901-5.9869 6.361-8.9803 7.234-11.7242.4989-1.1226 1.2473-2.1204 1.8709-2.1204.7484 0 1.6215-.9978 1.9956-2.245 4.116-10.9759 55.503-65.2316 65.3563-69.0981 1.372-.4989 2.3698-1.4967 2.3698-2.2451 0-.6236.4989-1.2472 1.1225-1.2472.7484 0 3.1182-1.7462 5.3632-3.7418 2.2451-2.1203 4.7396-3.7418 5.6127-3.7418.7484 0 1.9956-.7483 2.4945-1.6214.9978-1.4967 4.4901-3.9912 7.8577-5.4879.9978-.3742 3.8665-2.3698 6.361-4.3654 2.4946-1.8709 5.488-3.4923 6.6105-3.4923s2.3698-.8731 2.744-1.8709c.4989-.9978 1.7461-1.8709 2.9934-1.8709s2.8687-.8731 3.7418-1.8709c.873-.9978 2.4945-1.8709 3.7417-1.8709 1.2473 0 2.8687-.8731 3.7418-1.8709s2.4945-1.8709 3.7418-1.8709c1.2472 0 2.8687-.873 3.7418-1.8708.873-.9978 2.4945-1.8709 3.7417-1.8709 1.2473 0 2.8687-.8731 3.7418-1.8709s2.8687-1.8709 4.3654-1.8709 3.4923-.8731 4.3654-1.8709 3.1181-1.8709 4.989-1.8709 4.116-.8731 4.9891-1.8709c.873-.9978 3.1181-1.8708 4.989-1.8708s4.1159-.8731 4.989-1.8709 3.3676-1.8709 5.4879-1.8709c2.2451 0 5.1138-.8731 6.4858-1.8709 1.2472-.9978 4.3654-1.8709 6.8599-1.8709 2.3698 0 5.4879-.8731 6.8599-1.8709 1.2473-.9978 5.1138-1.8709 8.6061-1.8709 3.617 0 7.4835-.873 9.105-1.9956 1.4967-.9978 4.3654-1.7461 6.2362-1.4967l3.3676.3742.6237 238.8498.6236 238.8497 16.2143.3742c8.9803.1247 16.9627-.2495 17.8358-.7484 1.372-.8731 1.7462-66.1046 2.4945-357.7133.6237-236.6047 1.2473-356.4661 2.1204-356.3414.7483.1247 1.7461 2.3698 2.3698 4.989.4989 2.6193 1.3719 163.266 1.8708 357.0897l.7484 352.3502 15.5907.3742c8.6061.1247 16.838 0 18.3347-.3742l2.8687-.6236.2494-239.224.3742-239.0992 13.0962.3742c11.9737.3742 12.8468.2495 10.7264-1.6214-1.7461-1.2473-5.2385-1.8709-12.0984-1.8709-6.361 0-10.1027-.4989-10.7264-1.6214-.4989-.7484-1.372-43.654-1.7461-95.041-.4989-51.5118-1.2473-95.9141-1.7462-98.9075-.6236-3.9912-.3742-5.9869 1.1225-8.3566 2.2451-3.3676 2.6193-12.0984.7484-15.7155-.7484-1.2472-1.7462-4.7396-2.3698-7.6083-1.372-6.2362-3.4923-12.722-5.8621-17.4616-.9978-1.7461-1.7462-4.1159-1.7462-5.1137 0-1.1225-.7483-3.4923-1.7461-5.4879-.9978-1.8709-2.744-5.9869-3.8665-9.105-2.2451-5.6127-3.4923-8.7308-7.4836-18.0853-1.2472-2.7439-2.9934-6.9846-4.1159-9.3544-.9978-2.3698-2.6193-5.8621-3.4923-7.733-.9978-1.7461-1.7462-4.1159-1.7462-5.1137s-.8731-2.4945-1.8709-3.3676-1.8709-2.4945-1.8709-3.6171c0-1.1225-1.372-3.617-2.9934-5.6126l-2.8687-3.7418z" style="stroke-width:.124726"/></svg>