<svg height="960" style="" width="1185" xmlns="http://www.w3.org/2000/svg"><path d="m509.03437-.0000925 12.63611 83.5528555h139.59778l-.57678 1.53809c5.37469-12.69656 9.66014-25.964018 13.04077-41.251832l-.0384.823976c.36188-5.991563.54565-12.031188.54565-18.114626 0-9.345939-.43353-18.5919005-1.19385-26.5484635zm-19.68567 27.8521745-369.6277 571.116968h42.98035l337.39198-511.719387zm206.30311.344239-11.34522 58.194582c113.58125 172.550627 226.24444 343.323077 337.99261 512.319967h42.9804zm-166.50147 83.981329c-.945 24.4125-.59992 24.32803 10.6604 40.31615 13.15218 3.61032 32.31955-5.84575 38.07861 12.20581v694.89995h-46.24511l-12.46583 11.86157 1.71937 36.87744h146.13098c-4.98563-17.36344 6.53351-36.1874-15.04212-49.7699h-44.95789l.17396-685.87467c9.19781-28.8825 28.02276-13.41077 39.45557-21.49109 14.78531-11.69062 11.5181-25.96026 8.59497-39.02526zm150.17029 11.77734c-7.56469 41.43281-6.96233 41.00337 11.34705 68.1665 29.48344 43.49531 61.11699 87.50564 85.95886 131.86158 24.84188 44.35594 55.52933 85.27417 81.31715 128.94105 28.28156 46.93407 58.45294 92.74996 87.50794 138.73902h41.77734c-41.0025-53.03719-69.71482-108.39575-105.21607-158.51075-35.50125-50.11501-62.40654-107.02029-98.59497-156.01685-36.18844-48.99657-61.37542-105.21524-104.0973-153.18055zm-177.34314 3.53943c-.81447-.005-1.2605.0719-1.45387.32959-99.71344 153.3525-199.5122 306.87668-300.85877 462.80825h40.40039l269.56972-423.52481v-39.3695c-3.92168 0-6.30005-.23524-7.65747-.24353zm-15.63721 190.55787-174.67164 273.69508.13.66285c5.69719 24.58593 20.63216 45.63241 41.3031 59.50928 45.81657 34.38469 92.06387 68.16684 139.51356 103.15247 10.23-.60094 23.8985 3.86802 34.38538-12.80823l-.002-424.21144zm172.00562.002v425.32838l11.51916 11.51917h26.56129c18.73875-15.81656 37.90673-34.38546 58.79516-50.20203 26.99157-20.28656 56.04696-37.73571 82.95228-58.10852l.28382-.17944c18.04687-12.11625 30.79691-31.51149 34.09972-54.4043l-173.29285-273.95343zm-465.47243 300.85861v10.57251l23.20862 32.406 30.43029-14.26941-9.7998-28.7091zm798.73905 0-44.78577.3424-7.04773 29.2273 30.94482 13.40882 20.88868-22.60621zm35.24418 8.85315-25.2722 47.27784 34.0393 9.62768 28.5388-56.90552zm-906.53328.85877 30.08606 56.13282 32.75024-10.05799-24.15527-46.07483zm803.80923 36.5332-239.13941 178.28066v46.07482c51.83344-31.80468 91.28825-69.97151 136.24512-104.87183 44.95688-34.90031 90.77426-68.76594 136.33301-103.15063zm-667.48355 6.15052c-9.1458-.24449-18.6566 2.90806-29.13208 10.86914l.41199.11902c5.85188 1.93594 11.29529 4.76773 16.00342 8.2196 23.55375 23.55376 52.60916 39.80041 77.36573 60.94666 42.89344 36.61875 89.31035 68.42281 132.29004 104.87 13.4068 12.65159 29.44639 22.544 48.13843 29.05517v-39.28345c-27.67875-22.26374-52.78054-46.07398-81.31898-64.46961-43.49625-28.02375-83.46599-60.51616-124.12537-91.89148-13.67777-10.46262-26.26535-18.07771-39.63318-18.43505zm-78.81775 24.96643-4.21142 7.47803c46.07531 41.77688 99.28298 74.78628 147.5061 113.98316 49.85719 40.74469 102.37909 78.05102 155.41628 118.10852l17.19177-1.11694v-23.55286l-281.51918-214.89991zm795.47062.002-280.05616 213.35267v25.78675h15.21422c25.44469-18.13782 49.34075-34.03921 72.37794-51.23108 30.34407-23.38125 60.25855-48.13791 90.51636-71.94947 17.19188-13.84032 35.15798-26.4755 52.34985-39.62769 28.36688-21.06 56.99123-42.37743 85.01412-64.03931 1.6331-1.46062 0-7.47781 0-12.29187zm-462.6343 232.09168 1.63147 31.63144h161.17493v-31.63144z" style="stroke-width:.9375"/></svg>