<svg height="960" style="" width="1340" xmlns="http://www.w3.org/2000/svg"><path d="m997.57036 446.28169c-13.6056 10.64788-28.3943 23.07043-33.1268 27.80282-17.7464 17.74648-83.4084 70.98591-170.3661 138.42249-30.7606 24.2535-64.4789 52.6479-74.53524 63.2958-20.11268 22.4789-33.71831 59.7465-30.76057 84.5916l1.77465 16.5634 29.57746-23.0705c29.5775-23.662 73.3522-43.1831 94.6479-43.1831 13.0141 0 65.6619-15.9718 79.8592-24.2535 4.7323-2.9577 14.1971-7.6902 21.2957-10.6479 17.155-7.6901 56.1972-53.831 70.986-84.5915 23.07044-47.32398 31.94364-70.3944 31.94364-81.04229 0-5.91549 4.1408-20.70422 8.8733-31.94366 10.6478-26.02817 11.2393-51.46479 1.7746-50.87323-4.1409 0-18.338 8.87323-31.94374 18.92957zm-706.30984-4.73239c0 8.28169 4.14085 24.84506 8.87324 36.67605 4.7324 11.23944 8.87324 26.02817 8.87324 31.94366 0 10.64789 8.87324 33.71831 31.94366 81.04229 14.78874 30.7605 53.83099 76.9014 70.98592 84.5915 7.09859 2.9577 16.56338 7.6902 21.29577 10.6479 14.19719 8.2817 66.84508 24.2535 79.85916 24.2535 21.29577 0 65.07042 19.5211 94.64789 43.1831l29.57746 23.0705 1.77465-16.5634c2.95775-24.8451-10.64789-62.1127-30.76056-84.5916-10.05634-10.6479-43.77465-39.0423-74.53521-63.2958-87.5493-68.02813-152.61973-120.67601-170.95775-139.01404-18.33803-17.74648-58.56338-46.7324-65.07042-46.7324-3.5493 0-6.50705 6.50705-6.50705 14.78874zm637.69014-177.46479c-4.1408 7.69014-31.3521 49.09859-60.9295 91.69014-28.986 42.59155-57.3803 84-62.1128 91.69014-4.7323 7.69014-24.845 36.67605-44.3662 65.07042-69.80276 99.97179-80.45065 120.08449-78.676 146.70429 1.77464 23.6619 16.56338 39.6337 16.56338 17.7465 0-13.0142-2.3662-10.648 147.88732-134.87332 69.8028-57.97184 94.0563-89.9155 108.2535-142.56338 11.831-41.40846 12.4226-72.76057 3.5493-114.16902-7.0985-33.71831-18.9296-42-30.169-21.29577zm-547.18309-10.05634c-8.87325 5.91549-18.92958 49.69014-19.52113 83.40845 0 37.85916 16.56338 94.05634 37.85916 125.40845 10.05633 15.38028 46.14084 50.87324 80.4507 79.26761 150.25352 124.22532 147.88732 121.85912 147.88732 134.87332 0 21.8872 14.78873 5.9154 16.56338-17.7465 1.77465-26.6198-8.87324-46.7325-78.67605-146.70429-19.52113-28.39437-39.63381-57.38028-44.3662-65.07042-4.7324-7.69014-32.53521-49.09859-62.11267-91.69014-28.98592-42.59155-56.19719-82.81691-59.74648-89.32395-8.87325-15.97183-10.64789-17.15492-18.33803-12.42253zm577.94369-185.15493c4.1408 4.7324 5.9155 12.42254 3.5492 17.74648-3.5492 10.05633-46.7323 6.50704-79.8591-6.50704-23.0704-9.4648-63.2958-10.64789-68.6197-2.3662-1.7747 2.95774 4.1409 7.09859 13.0141 8.87324 17.7464 3.54929 43.7746 14.78873 81.6338 34.30985 13.014 7.0986 29.5774 15.38029 36.676 18.92959 21.8874 10.05633 16.5634 20.70422-10.0563 20.70422-24.2535 0-32.5352 9.46479-13.0141 15.38028 47.324 14.19718 132.50704 72.76056 173.91554 120.08451 49.6902 57.38028 66.2536 102.92957 66.2536 183.97183 0 81.0422-16.5634 126.5916-66.2536 183.9718-41.4085 47.324-126.59154 105.8874-173.91554 120.0846-19.5211 5.9154-11.2394 15.3802 13.0141 15.3802 26.6197 0 31.9437 10.6479 10.0563 20.7042-7.0986 3.5493-23.662 11.831-36.676 18.9296-37.8592 19.5212-63.8874 30.7606-81.6338 34.3099-8.8732 1.7746-14.7888 5.9155-13.0141 8.8732 5.3239 8.2817 45.5493 7.0986 68.6197-2.3662 33.1268-13.0141 76.3099-16.5634 79.8591-6.507 2.3663 5.3239.5916 13.0141-3.5492 17.7465-4.1409 4.7324-5.324 8.8732-2.3662 8.8732 11.2394 0 42.5915-23.662 81.63374-61.5212 28.3944-27.2112 43.7747-38.4506 50.8733-36.0844 7.0986 2.3661 13.6057-2.3662 21.2958-13.0141 38.4507-56.7887 81.0422-150.8451 88.1408-192.8451 2.3662-13.6056 6.5071-21.8873 11.831-21.8873 7.6902 0 8.8733-15.97184 8.8733-94.6479 0-78.67605-1.1831-94.64788-8.8733-94.64788-5.3239 0-9.4648-8.2817-11.831-22.47888-5.3239-32.53521-42-117.12676-70.9859-165.6338-20.7042-34.90141-28.9859-42.59156-38.4507-39.6338-7.0986 2.36619-22.4789-8.87325-50.8733-36.08451-39.04224-37.85916-70.39434-61.52113-81.63374-61.52113-2.9578 0-1.7747 4.14084 2.3662 8.87324zm-612.25355 2.3662c-9.46479 5.91549-36.08451 28.98591-58.56339 50.28169-28.39436 27.21126-43.77464 38.4507-50.87323 36.08451-7.0986-2.3662-13.60564 2.36619-21.29578 13.01408-38.4507 56.78873-76.9014 141.97183-90.50704 198.76056-8.28169 36.08451-8.28169 185.15493 0 221.23942 10.64789 45.5493 44.3662 124.8169 73.35212 172.1408 20.70422 34.9015 28.98591 42.5916 38.4507 39.6339 7.09859-2.3662 22.47887 8.8732 50.87323 36.0844 39.04226 37.8592 70.39437 61.5212 81.63381 61.5212 2.95775 0 1.77465-4.1408-2.3662-8.8732-4.14084-4.7324-5.91549-12.4225-3.54929-17.7465 3.54929-10.0564 46.73239-6.5071 79.85915 6.507 23.07043 9.4648 63.29578 10.6479 68.61972 2.3662 1.77465-2.9577-4.14085-7.0986-13.01408-8.8732-17.74648-3.5493-43.77465-14.7887-81.63381-34.3099-13.01408-7.0986-29.57746-15.3803-36.67605-18.9295-21.88733-10.0564-16.56339-20.7043 10.05634-20.7043 24.25352 0 32.53521-9.4648 13.60563-15.3802-47.91549-14.1972-133.09859-72.7606-174.50705-120.0846-49.69014-57.3802-66.25352-102.9296-66.25352-183.9718 0-81.04226 16.56338-126.59155 66.25352-183.97183 41.40846-47.32395 126.59156-105.88733 174.50705-120.08451 18.92958-5.91549 10.64789-15.38028-13.60563-15.38028-26.61973 0-31.94367-10.64789-10.05634-20.70422 7.09859-3.5493 23.66197-11.83099 36.67605-18.92959 37.85916-19.52112 63.88733-30.76056 81.63381-34.30985 8.87323-1.77465 14.78873-5.9155 13.01408-8.87324-5.32394-8.28169-45.54929-7.0986-68.61972 2.3662-33.12676 13.01408-76.30986 16.56337-79.85915 6.50704-2.3662-5.32394-.59155-13.01408 3.54929-17.74648 10.05634-12.42254.59155-11.23944-20.70422 2.3662z" style="stroke-width:.591549"/></svg>