<svg height="960" style="" width="1290" xmlns="http://www.w3.org/2000/svg"><path d="m343.94196 860.4184c-8.23863 5.664-20.0816 10.2982-26.26046 10.2982-16.47714 0-18.5368 5.664-6.17897 19.0517 14.93246 15.9622 19.56663 14.9324 41.70777-7.7237 28.83509-29.8648 23.17097-43.2525-9.26834-21.6262zm321.30446-243.03806c-31.92458 21.11143-344.47543 342.41586-344.47543 353.74386 0 16.992 18.5368 5.1492 65.90857-42.7376 188.45737-189.48717 289.38-293.49929 289.38-298.13346 0-3.08948 3.60434-6.69383 7.72366-8.75348 9.26834-3.60435 10.29817-13.38766 1.54468-13.38766-3.60434 0-12.8728 4.11931-20.08148 9.26834zm192.06171-26.26045c-5.664 2.05965-57.66994 53.03588-126.66811 124.0936-16.47715 17.50697-24.2008 28.83497-22.14115 33.98411 5.14915 13.38766 18.5368 2.57451 94.22869-74.1472 68.4832-69.51291 86.50514-96.8032 54.58057-83.93051zm-51.49109-69.51292c-145.71977 145.20492-196.18102 201.33017-186.39771 207.50914 7.20869 4.1192 10.29817 1.54469 119.97417-105.5568 102.46732-100.40765 230.16526-234.79942 230.16526-242.52308 0-16.992-34.49909 12.35794-163.74172 140.57074zm280.11156-203.38983c-28.32 29.34995-33.9841 37.0736-31.4095 47.88675 14.9324 66.42342 14.4175 190.00205-.515 225.53097-4.1193 9.78331-7.2087 21.11131-7.2087 24.71565 0 6.69395-29.8649 72.08755-42.7376 92.16915-84.44544 136.45144-251.7915 218.83714-404.2051 198.24064-24.71577-3.0894-54.06571-8.7534-65.39371-12.8728-51.49109-17.5069-52.00595-17.5069-88.04972 21.1115-18.02194 19.5666-32.9544 37.0736-32.9544 39.1331 0 7.7237 67.96835 34.4991 119.45943 47.3719 47.37177 11.328 177.12937 11.328 224.50114 0 43.25258-10.8131 93.19886-28.8351 119.45932-43.7674 4.11931-2.0597 16.47714-8.7535 27.80526-14.9325 10.81314-5.664 37.58845-24.2008 59.21474-40.6779 176.09964-133.87694 249.21704-372.28071 180.73384-585.45386-3.6044-11.328-7.2087-23.17097-8.2385-26.77531-3.6045-12.8728-16.9922-5.14914-50.4615 28.32011zm-389.2727-71.57268c-12.35783 8.75348-247.67211 247.67223-261.05977 265.1792-9.26846 11.328-8.23863 19.05165 1.54469 19.05165 12.8728 0 285.26068-275.47737 285.26068-288.35005 0-7.72366-11.328-6.17897-25.7456 4.1192zm-164.77143-12.87269c-4.11931 3.60434-37.0736 37.07349-73.11737 73.63223-61.2744 62.81909-76.72171 84.44537-58.69988 84.44537 10.29828 0 150.35405-140.57063 153.9584-153.9584 3.08948-12.35783-9.26846-14.41748-22.14115-4.1192zm100.40766-46.85691c-8.23863 6.17885-31.92457 27.80514-52.00606 47.37177-20.08148 20.08148-45.31211 43.76743-55.6104 53.03588-10.29817 8.75349-18.5368 16.992-18.5368 18.5368 0 1.02972-45.31211 48.4016-100.40765 105.04183-97.31818 99.89269-133.8768 141.60046-127.69783 147.77943 6.69383 6.17886 58.69977-42.7376 202.36-188.97234 136.96628-140.05577 175.06971-181.76354 175.06971-191.032 0-5.664-7.72366-3.08949-23.17097 8.23863zm406.77967-40.16309c-14.4176 15.96229-31.9246 25.23063-36.0438 18.5368-1.5448-2.57451-13.90261-5.14914-27.80524-5.14914-21.62629 0-26.26046 2.05966-46.85692 23.17097-24.2008 24.71577-41.1928 29.86491-41.1928 12.8728 0-5.664-2.57462-10.29817-5.66411-10.29817-3.60434 0-30.89463 25.23063-61.78926 56.12526-52.52091 53.03588-86.50503 82.90068-93.71383 82.90068-7.20868 0 20.59646-39.13326 46.34206-65.39371 25.74549-26.77532 32.43932-37.58846 23.17097-37.58846-4.11931 0-58.18491 48.4016-89.59451 80.84103-10.81314 10.81314-19.56663 24.71566-19.56663 30.89463 0 7.72365-3.08949 11.84297-9.26834 11.84297-10.29829 0-52.00606 45.82708-61.27452 67.45326-3.08937 7.72377-13.38765 18.02194-22.14114 22.65611-14.41749 7.2088-34.49897 27.29029-97.83303 95.25851-33.46926 36.55875-113.28046 135.93658-113.28046 141.60058 0 5.14914-22.14114 28.32011-26.77531 28.32011-2.57463 0-4.11931-3.60446-4.11931-7.72366 0-4.11931 2.57451-7.72365 5.14914-7.72365 3.08937 0 7.72366-5.14915 10.29817-11.84298 6.17897-13.38765 14.93246-27.29028 25.7456-40.16308 17.50697-20.59646 20.59634-25.23063 20.59634-29.8648 0-3.08949 4.11932-7.2088 9.26846-10.29829 6.69383-3.60434 7.20869-6.69383 2.57451-11.328-16.992-16.99211-212.65817 217.80732-212.65817 255.91076 0 10.2982 2.57452 12.3578 16.47715 12.3578 9.26834 0 23.17097-5.664 32.95428-12.8727 19.05166-14.9324 27.80514-16.4772 27.80514-5.1491 0 5.1491 5.14915 7.7236 16.47715 7.7236 14.93245 0 27.29028-10.8131 107.10148-90.10944 93.19897-93.19886 111.2208-109.16103 117.39977-102.98217 2.05966 2.05965.51486 5.14914-2.57462 6.17897-3.60435 1.54468-6.69383 5.14914-6.69383 8.75348 0 3.08949-28.83497 36.04377-63.84892 72.6024-35.52891 37.0736-62.30423 67.45337-59.72971 68.4832 4.11931 1.54469 48.40171-21.62628 61.78937-32.43943 4.11931-3.08948 11.328-7.72365 15.44731-9.26834 15.96229-6.17897 122.03395-98.86297 185.88286-163.22674 54.58057-54.06572 70.02789-66.93852 81.35589-66.93852 22.65611 0 55.09554-35.01394 59.21474-63.84891 4.11931-24.71577 0-47.88674-9.7832-59.72971-5.14914-6.17886-2.57463-10.81315 14.93234-26.77532 35.01395-31.92446 90.62435-71.05771 100.40766-71.05771 5.14914 0 12.35783 3.60434 16.47714 8.23851 11.328 13.38777 34.49909 23.17109 61.78937 24.71577l26.26046 2.05966 40.6779-38.61829c37.0737-35.52891 46.342-50.46137 37.0737-59.72971-1.5448-2.05966-6.179-1.02983-9.7833 2.05966-10.2983 8.23851-23.171 2.05965-19.0518-9.26846 1.5448-5.14903 13.3878-19.05166 25.7456-30.89463 20.5965-20.59646 29.35-42.7376 16.4772-42.7376-3.0895 0-14.9325 8.23852-26.2605 18.02183-11.843 9.78331-23.171 16.47714-25.2307 14.93246-8.2386-5.14915-4.6342-26.26046 5.664-35.5288 12.8729-11.84297 13.3877-28.32012 1.5447-28.32012-5.149 0-13.9025 5.664-19.5665 12.35783zm-41.7079 75.69189c26.7754 12.35794 30.8947 62.30423 5.6641 78.78137-19.56661 12.8728-42.22273 10.29828-59.7297-6.69383-19.56663-20.08149-19.56663-40.67794 0-61.78926 15.96229-16.99211 31.92446-20.0816 54.0656-10.29828zm-292.46937 130.27245c1.54469 4.11932 7.72366 8.75349 13.90263 10.29829 8.23851 2.05966 9.78331 4.11931 5.14903 8.75349-4.1192 4.11931-9.26835 3.60434-19.05166-3.60446-13.38766-9.7832-18.02194-22.656-8.23863-22.656 3.08949 0 6.69394 3.08948 8.23863 7.20868zm35.01394 49.9464c16.47715 7.72366 31.4096 35.52892 27.29029 52.00606-2.05966 7.20869-10.81314 20.08149-20.08149 29.34983-22.14125 21.62629-42.73771 21.62629-64.87885 0-23.17098-22.656-22.14115-40.16297 4.11931-66.42343 21.62629-21.62628 32.43943-24.71577 53.55074-14.93246zm-166.31623 142.63029c22.65612 18.5368 8.75349 62.8192-20.0816 62.8192-12.87268 0-31.92445-21.11131-31.92445-35.52891 0-15.96218 4.11931-22.656 18.02194-30.37966 14.41749-8.23863 20.08149-7.72366 33.98411 3.08937zm292.46938-530.35829c-18.5368 11.84298-297.61852 295.044-322.33418 326.96846-14.4176 18.5368-4.63428 25.23074 14.93235 9.78332 22.14114-16.47715 315.64045-316.67018 317.18514-323.364 1.02983-4.11932 4.11931-7.2088 6.69383-7.2088 2.57463 0 4.63428-3.60435 4.63428-7.72366 0-9.78332-4.11931-9.26834-21.11142 1.54468zm-292.98435-136.45136c0 73.63228-2.57451 80.84108-25.23063 80.84108-36.55862 0-151.38377 48.91646-203.90468 86.50503-66.9384 48.4016-135.93657 129.75748-167.34606 196.696-6.17897 12.87268-14.41748 29.8648-18.02194 37.58845-4.1192 8.23852-7.72363 18.02183-7.72363 21.62629 0 4.11931-3.08947 14.93234-7.20876 24.2008-12.87276 30.37977-23.6859 103.49714-23.6859 158.0776 0 75.692 16.99206 149.32423 52.00606 224.50126 22.14114 47.88674 30.89463 60.24457 38.10331 55.09543 8.23863-5.664 59.21486-76.20686 59.21486-81.87086 0-2.57452-5.66411-16.992-12.8728-31.40949-7.2088-14.93245-12.8728-29.86491-12.8728-33.98423 0-3.60434-4.11931-15.96217-8.75348-26.77531-6.69383-15.96229-8.75349-36.55863-8.75349-105.04183 0-73.11737 1.54469-89.59451 10.81314-119.45931 39.64812-122.5488 117.39966-217.29246 217.80732-265.1792 52.00605-25.23063 73.11737-32.43943 95.25851-33.98412l20.59646-1.02983 1.54468 60.75955c1.5448 69.51291-2.57451 67.45325 54.06572 26.26045 16.47714-12.35794 33.46926-22.65611 36.55863-22.65611 8.23863 0 117.39977-112.25063 115.34011-118.42949-2.57463-7.2088-195.66617-200.81531-200.81531-200.81531-2.05966 0-4.11932 30.89466-4.11932 68.48315z" style="stroke-width:.514911"/></svg>