<svg height="960" style="" width="1240" xmlns="http://www.w3.org/2000/svg"><path d="m613.92694-29.991679c-1.9497-.01286-3.93692-.0105-5.95665.0049-26.92972.205884-59.60772 2.907891-85.43388 7.651499-27.99767 5.228476-43.5161 9.782972-76.74224 22.6011789-5.05982 2.023928-15.17831 5.901647-22.43073 8.600214-26.64838 9.9509831-57.00762 23.9506451-69.48852 32.0463571-2.69856 1.686602-6.24044 3.710695-7.58973 4.385333-10.79428 4.891164-49.08107 32.551849-75.05481 54.309079-17.70937 14.842128-57.84898 54.644578-67.46263 66.788138-3.71053 4.55384-10.45696 12.65136-15.17946 17.87984-4.55385 5.22847-11.46892 13.66118-15.17947 19.05833-3.71053 5.39713-10.62677 15.17781-15.51792 21.92424-11.46893 16.02276-32.21452 57.00813-34.06979 67.46508-1.18062 6.07179-.84165 10.45614.84495 16.02195 2.86723 9.445 3.03392 16.86655.50401 23.27566-9.27634 23.6125-5.90116 44.1886 9.61563 57.68146 7.42107 6.57776 19.56464 7.42189 22.76919 1.68742 1.51794-2.86722 1.34814-3.87919-.33848-5.05982-1.34928-.84329-2.8664-1.51696-3.37238-1.51696-.67465 0-1.51745-1.51893-2.02344-3.54286-1.68661-6.24044 13.8282-20.57577 30.86293-28.67148 8.77036-4.04786 30.02242-12.64939 39.63608-15.85395 4.7225-1.6866 11.13243-4.04901 14.33698-5.39828 3.20456-1.51795 8.43271-3.7112 11.4686-4.89182 2.86723-1.34929 7.92623-3.54073 10.96212-4.72135 2.86723-1.34929 9.61317-4.38419 14.67299-6.57678 8.26437-3.71054 23.1065-10.45828 37.94865-17.37337 13.66151-6.24044 58.52557-14.50579 61.89879-11.13259 2.86723 2.86724-3.7107 25.13077-11.97508 39.12961-11.46892 19.90196-31.70705 49.92437-45.1999 67.46509-6.74643 8.77035-19.39713 25.29943-28.16749 36.59969-16.69741 21.75722-25.80426 38.28581-31.20139 56.3325-7.08375 24.11847-9.10669 37.27384-9.10669 58.86241 0 20.40793 1.34747 28.50282 7.41925 46.38086 1.01196 2.69857 2.52975 7.25241 3.2044 10.11964.84329 2.69857 4.21651 12.65037 7.58973 21.92671 3.3732 9.27633 6.74708 18.89097 7.42172 21.25223.8433 2.36125 2.19309 5.73446 3.03638 7.58973 1.85527 3.37321 6.23996 13.49187 9.61317 21.75624 3.71054 8.77035 24.6238 50.42954 27.99702 55.65802 1.85526 2.69856 4.04785 6.57694 5.05982 8.43221 1.85526 3.54188 3.03638 5.73578 10.62611 17.37336 2.52991 4.04786 4.55335 7.75822 4.55335 8.26421 0 .67465 1.01262 2.36158 2.3619 3.71087 1.18063 1.51794 4.38534 6.40761 6.91525 11.13012 2.52991 4.55384 7.7574 13.66283 11.6366 19.90327 26.14241 43.3458 75.39115 111.82153 99.34096 138.63858 19.22732 21.58857 44.86375 43.17697 60.71784 51.27267 4.21653 2.1926 4.89314 2.1934 7.08573-.8425 3.8792-5.0598 3.03507-20.40792-1.68743-35.41871-2.36125-7.42108-6.57793-20.91459-9.44516-30.19092-2.86723-9.27634-6.24045-19.39483-7.58973-22.43072-2.69857-6.24045-3.20373-13.83051-.84248-13.83051.8433 0 2.36042 2.02344 3.37239 4.55335 1.01196 2.69857 6.74577 13.82903 12.81756 24.96063 5.90311 11.13161 12.48104 23.4458 14.50497 27.325 2.02393 3.87919 6.07211 9.78034 8.77069 13.15356 4.38517 5.39713 5.73594 6.07228 11.63907 5.5663 6.24044-.50599 6.91458-1.01246 9.61316-8.09621 1.6866-4.21652 4.04654-10.28749 5.39582-13.49203 1.68661-4.38519 2.36191-14.84197 2.36191-41.15304 0-26.14241.50549-35.41923 2.02344-35.92521 1.18062-.50599 3.20405 1.85591 4.55334 4.89181 1.34929 3.03589 3.87904 7.42123 5.73429 9.44516 4.04786 5.22848 10.62694 4.55417 12.31356-1.34896.50598-2.36124 2.36091-8.2642 3.87886-13.32402 1.85527-6.40911 2.69792-15.68676 2.69792-32.55282v-23.44368l7.25372 1.01295c6.91509 1.01196 7.42173.84134 9.95164-4.55581 1.51794-3.03589 4.04588-11.63726 5.56383-19.05832 1.51794-7.42107 3.87918-18.04587 5.05982-23.61167 1.85526-7.75839 1.8569-17.03474.84494-40.47856-3.87919-77.58391-6.07278-103.89546-11.1326-137.12162-1.34927-8.60169-2.36189-22.09406-2.36189-29.85244v-14.16647l31.70786-31.37187c33.9008-33.56347 52.45397-54.14073 68.81405-75.7293 9.95098-13.49285 31.03341-44.35709 31.03341-45.70638 0-.50598 3.20471-5.90264 6.91524-12.14308 3.8792-6.40911 11.97606-21.42039 18.04785-33.3953 10.11964-20.23928 12.14192-24.7923 16.86441-36.26123 1.01197-2.36124 3.37503-7.9277 5.2303-12.48154 2.02393-4.55383 3.5404-9.44418 3.5404-10.96212 0-1.51795 1.18062-4.21816 2.52991-5.90477 1.34927-1.85526 2.52991-4.89132 2.52991-6.91525s.67611-4.21586 1.51942-5.22783c1.01197-.84329 2.36042-4.55367 3.37238-8.2642.84331-3.71053 2.36109-9.1085 3.2044-11.80707 1.6866-4.89116 3.87935-12.64955 9.44515-32.88883 1.34929-5.05982 3.03688-13.15553 3.54287-17.70937 1.34928-10.28831.16702-11.63594-16.0244-19.39434-10.7943-5.22847-14.50483-6.91689-27.82901-12.82001-3.71055-1.51795-8.7707-3.87854-11.30061-5.22782-2.36124-1.18063-5.90311-2.19145-7.58973-2.19145-1.6866 0-3.87803-.67612-4.72134-1.51942-1.6866-1.34928-36.59821-12.64972-45.1999-14.50498-7.58973-1.51794-3.54286-4.21488 6.57678-4.21488 8.60169 0 9.10669-.16948 9.10669-4.21733 0-5.22848 2.53171-5.39764 5.23028-.50648 1.18062 2.19259 3.03425 4.72414 4.21487 5.90477 1.85527 2.02393 12.65021 6.40894 20.07128 8.26421 1.85527.50598 4.89199 1.68479 6.74725 2.35944 1.85527.8433 7.58973 3.20636 12.64955 5.23029 22.09455 8.77035 54.30841 24.62314 57.00698 28.16502 1.18062 1.6866 1.68512 5.06015 1.01048 8.77068-1.18062 7.58973-5.39715 26.31221-7.58973 33.2273-1.01196 3.0359-2.36109 9.10686-3.20438 13.49203-.67466 4.55383-3.0359 12.31108-5.05982 17.3709-2.02393 5.05982-4.04737 10.79428-4.55335 12.64955-.50598 1.85526-1.85511 5.73479-3.2044 8.77068-1.34927 2.86724-2.36189 6.07129-2.36189 7.08326 0 1.01196-1.17998 4.55433-2.69793 8.0962-3.03589 6.91509-3.37386 7.75806-9.95162 24.11815-16.86608 41.49053-52.11434 101.19706-80.78666 136.44713-15.68544 19.39599-25.97423 30.52759-61.22431 65.77766-18.0467 17.87804-32.38367 33.5643-32.04635 34.57627 1.85526 5.05982 7.5894 45.20039 8.93868 63.41575 2.36125 30.35892 6.40944 60.54918 8.77069 65.77766 3.37321 7.2524 67.46492 72.01727 88.37884 89.38933 8.43304 6.91508 18.04702 15.01079 21.42024 17.70937 9.10768 7.75839 17.87819 14.50645 34.74426 26.14404 34.57544 24.28714 40.81473 28.16551 62.90928 38.79114 15.8541 7.75838 22.26272 8.60153 22.26272 3.20438 0-2.86722-12.98655-31.03339-19.05833-41.15303-6.9151-11.63759-14.84181-22.60136-19.05834-26.98653-7.08374-7.08375-22.09519-23.949-30.1909-33.73131-3.71055-4.55384-7.92722-9.27617-9.44517-10.79412-4.21651-4.21652-8.76986-11.97507-7.08325-11.97507 1.01196 0 7.25388 4.89165 14.16897 10.62611 25.97374 22.26321 63.5836 48.91094 81.96761 58.35593 14.50482 7.25242 18.89048 3.20571 15.68593-14.84098-5.90313-32.88883-17.03358-53.29693-55.31954-100.52193-11.46893-13.99883-8.77234-18.88999 5.56383-10.11964 3.71053 2.1926 8.09768 4.21488 9.61563 4.21488 4.04785 0 8.09374-6.57645 8.09374-12.98556 0-7.75838-7.08375-25.63692-15.17946-38.45512-9.95099-15.51679-10.11964-14.84296 2.52991-16.86689 9.10767-1.51794 16.0244-5.39681 16.0244-8.93869 0-6.07178-4.89231-25.13044-7.9282-30.35892-1.68661-3.20455-3.8792-7.25076-5.05982-9.27469-2.69858-4.89116-.33667-8.26553 7.42172-10.45811 5.39715-1.51795 6.57793-2.53074 6.91526-6.74725 1.18062-10.28831-7.08375-36.59822-12.64955-40.14009-3.20455-2.02393-2.69923-3.37255 2.6979-10.28764 2.69858-3.37322 5.39814-9.27749 6.07278-12.98803.67465-4.04785 3.87854-9.95163 7.75774-15.01145 3.54187-4.55384 6.57678-8.93918 6.57678-9.44516 0-.67464 1.01262-2.52958 2.36189-3.87887 5.05982-5.90312 8.2657-24.62314 7.25374-40.81456-2.52991-33.73214-14.67348-85.84976-27.82901-117.89529-1.01197-2.36125-3.37437-8.43221-5.3983-13.49203-1.85527-5.05982-4.38633-11.13078-5.3983-13.49204-1.01196-2.36124-2.86623-6.57859-4.04687-9.27715-8.43302-19.39597-9.78297-24.62545-7.42171-26.31205 4.21651-2.86724 50.26268-.33568 60.8883 3.37486 8.26437 2.69857 10.11783 4.38336 20.06882 17.53889 18.384 24.45581 33.39563 45.70902 59.87535 85.51293 37.78 56.66999 43.5136 63.07877 53.9706 62.0668 7.2524-.67464 9.6135-6.23978 8.2642-20.40728-.6746-6.57776-.5055-11.3006.5065-11.3006.8433 0 5.5663 4.38403 10.6261 9.78118 17.5407 18.38401 51.4419 40.81702 61.8988 40.81702 3.7106 0 3.8779-.5073 2.8659-7.25372-2.0239-15.17946-9.1076-47.22449-12.6495-57.68145-1.012-2.86724-2.5298-7.42108-3.2044-10.11964-1.5179-5.39715-4.7217-13.66234-8.4322-21.92671-1.1806-2.86723-4.0482-9.2747-6.2408-14.33452-10.7943-24.28713-17.8786-37.27465-33.3953-60.54983-20.408-30.69624-71.00634-92.59404-95.46213-116.54387-12.48089-12.31222-52.62032-45.707198-63.07729-52.453628-18.04668-11.80625-27.15518-17.709694-29.51643-18.890327-1.34929-.674638-4.55334-2.530732-7.08325-4.217334-47.73097-30.864902-78.93287-43.8504621-153.14356-63.58376-6.07179-1.517946-14.3378-3.879187-18.55431-5.05982-13.49286-4.047856-27.49154-7.421061-41.15305-10.119635-8.13524-1.54957-19.93763-2.338577-33.58554-2.428615zm72.54714 107.839891c2.1926 0 15.68511 9.10965 21.58824 14.67545 5.73446 5.39714 16.02195 18.045538 16.02195 19.900808 0 .50598 1.18062 2.19291 2.52991 3.71086 1.34927 1.34929 2.0254 3.20538 1.51942 4.21734-.67465 1.01197-1.85642.50385-2.86838-1.35142-1.01197-1.85527-10.45681-11.80575-20.91376-22.262718-10.62562-10.28829-18.72067-18.89032-17.87738-18.89032zm-65.44165 5.05982c1.85527 0 10.62579 3.71053 11.97508 5.05982.50598.50599 4.21634 3.03754 8.2642 5.90476 8.26437 5.5658 22.60152 19.562668 21.25223 20.743288-.50598.50598-2.86773-.16767-5.56629-1.51696-7.08375-3.54187-32.55217-23.105508-35.25075-26.816058-1.34927-1.85526-1.68643-3.37485-.67447-3.37485zm-359.07675 70.837478c3.20456 0 1.68562 7.58973-3.54286 17.70937-5.56581 10.62563-12.4799 17.03571-34.40579 31.37187-29.34696 19.22732-51.44315 53.97092-51.44315 80.45065 0 6.40909-.67415 8.76953-2.02343 8.4322-3.54188-1.18062-5.22767-12.64889-3.3724-22.93719 3.54188-19.56464 11.97393-34.74295 29.34598-52.78963 11.80624-12.14357 36.0942-31.70854 42.16598-34.06979 3.37322-1.18062 17.70822-18.72216 19.90082-24.45662.84329-2.02393 2.36288-3.71086 3.37485-3.71086zm45.97815 28.3503c1.61413-.0511 1.35061 4.13993-1.28471 11.62425-2.52991 7.08375-2.19227 11.46695 1.18095 25.80311 2.52991 10.62562 4.8905 12.64939 17.87736 15.85394 13.15554 3.37321 24.79493 7.25306 30.5294 9.95164 3.71053 1.85526 11.97507 12.81804 11.97507 15.85393 0 .84331-5.06015 2.86674-11.30059 4.55335-19.05866 5.39714-39.63657 14.84328-55.32201 25.63757-10.45697 7.08375-61.22284 32.72082-64.76471 32.72082-1.18064 0-4.21735 1.18064-6.74726 2.52991-4.55384 2.1926-5.05998 2.1926-9.44515-2.52991-6.07179-6.40909-13.15521-6.57875-24.11815-1.01295-7.75839 4.04786-17.5399 5.05933-38.79114 4.55335-8.77035-.16866-8.09588-3.5404.67448-3.5404 6.91508 0 25.80541-4.38698 34.06979-7.76019 3.03589-1.34929 6.7456-2.35945 8.43221-2.35945 8.77035 0 37.10485-26.14404 47.56182-43.85341 3.54187-6.07178 8.94098-13.32272 12.14554-16.18994 6.74642-6.40911 21.41842-14.67414 31.3694-17.54137 7.58973-2.36126 8.76986-5.22831 4.55335-10.79412-5.39715-7.25241-2.35978-25.29893 6.57924-38.62313 2.21367-3.28889 3.85664-4.84635 4.82511-4.877zm-99.13097 52.20411c1.51737.11052.95366 2.84367-2.5052 7.48843-3.54188 4.7225-3.54171 5.05818-.67448 9.27469 1.85527 3.03589 2.86526 8.26536 3.03392 16.19241.16866 11.13161.001 11.80592-5.39583 16.52842-6.57776 5.90312-16.02309 6.74725-18.89032 1.68743-2.69857-5.05982-2.02426-18.21683 1.34896-24.28862 4.7225-8.77035 10.62579-16.8654 17.03489-22.93719 2.59315-2.52991 4.57063-3.77806 5.717-3.93322.11942-.0162.2299-.0197.33106-.0123zm-10.09493 18.95702c-2.86723 0-4.72381 1.68497-7.25372 6.74479l-3.3724 6.91525 3.71087 1.85543c6.91508 3.71053 8.09391 8.94017 2.35944 10.45812-2.86723.67464-3.37091 1.34796-1.85296 2.86591 1.34928 1.34929 3.03375 1.1803 6.2383-1.18095 5.05982-3.8792 6.74823-10.2883 5.23029-20.23928-.8433-6.40911-1.68661-7.41927-5.05982-7.41927zm-63.41822 67.46263c2.36125 0 3.87936 5.39779 1.85543 7.42172-2.36125 2.36125-5.90263-1.34812-4.55334-4.72134.67464-1.51795 1.8546-2.70038 2.69791-2.70038zm5.423 18.43079c.87756-.10575 1.49225.69275 1.49225 2.65343 0 3.20456-5.56531 14.16585-7.08325 14.33452-1.85527 0-1.68678-2.36125.67447-10.11964 1.26496-4.00569 3.45392-6.69208 4.91653-6.86831z" style="stroke-width:1.26496"/></svg>