<svg height="960" style="" width="1330" xmlns="http://www.w3.org/2000/svg"><path d="m119.33944 272.8493c0 3.1203 3.64036 21.3221 8.32082 40.044 27.04266 113.8912 36.40359 146.6544 46.80461 171.6169 4.16041 9.3609 7.28072 21.3221 7.28072 26.0025 0 5.2006 3.64036 14.0414 7.80077 19.762 4.16041 5.2005 7.80077 13.5213 7.80077 17.6817.52005 11.4412 41.08407 91.009 65.00637 127.4126 23.4023 35.8835 81.128 95.6894 104.0103 108.1707 65.0064 34.3233 110.7709 50.4449 192.4189 68.1267 133.1332 29.1228 172.6571 47.3246 228.3025 107.6506 15.6016 16.6416 32.2432 30.683 36.4036 30.683 16.1216 0 17.1617-56.1655 2.0802-109.2108-15.0815-53.0452-65.5264-117.0115-121.1719-154.9752-11.4411-7.8008-21.8422-15.6016-23.4023-17.1617-1.5602-1.5602-31.7231-24.4424-67.6067-51.4851-35.8835-26.5226-67.0866-50.965-70.2069-54.0853-2.6002-3.6404-19.7619-17.1617-37.4437-30.6831-17.6817-13.5213-35.3635-27.5627-39.0038-31.203-5.7206-5.7206-99.8499-82.1681-154.9753-125.8524-44.2044-35.3635-89.96887-73.3273-124.8123-103.4902-45.24446-39.0039-67.60666-52.0052-67.60666-39.0039zm1037.50226-13.5213c-11.4411 3.6404-35.8836 10.401-54.6054 15.6015-18.7218 4.6805-36.9236 9.881-40.0439 10.9211-10.9211 3.1203-7.2808 22.8823 6.2406 35.3635 7.2807 6.7607 13.0013 14.0414 13.0013 16.6416 0 2.6003-52.5252 57.2057-117.0116 121.692-64.4863 64.4864-117.0115 121.172-117.0115 125.8524 0 4.6805 6.2406 15.6016 13.5213 24.4424l13.5214 16.1216 125.3323-125.3323 125.3324-125.3324 14.5614 16.1216c7.8008 8.8409 17.6817 16.1216 21.3221 16.1216 9.881 0 19.2419-10.9211 19.2419-22.3622 0-5.7206 3.1203-20.8021 7.2807-34.3234 21.8422-70.727 24.9625-83.7282 22.3622-91.009-4.1604-9.8809-23.9223-10.401-53.0452-.52zm-49.4049-277.187343c-9.881 2.60026-28.6028 7.80077-41.6041 11.96118-13.0013 3.64036-31.7231 8.32082-41.084 9.88097-9.881 2.08021-23.9224 6.760673-30.6831 11.441133l-11.9611 7.80077 13.0012 17.68174c7.2808 9.88095 13.5214 20.80205 13.5214 25.48255 0 4.1604-67.6067 75.4074-150.8149 158.0955-82.6881 83.2083-150.8148 154.4553-150.8148 158.6157 0 4.6805 6.2406 15.6015 14.0413 24.4424l13.5214 16.6416 156.5354-156.5354c86.3285-86.3285 160.1758-156.5354 164.8562-156.5354 4.6805 0 11.4412 3.6403 15.0815 8.3208 4.1604 4.1604 10.9211 9.881 16.1216 13.0013 11.4411 6.2406 24.9625-11.9612 30.683-41.0841 2.0802-10.401 8.8409-37.4437 15.0815-59.28582 5.7206-22.362203 10.9211-41.604103 10.9211-42.644203 0-7.28072-20.282-11.44113-36.4036-7.28072zm-806.0794-55.64548c-3.1203 3.64036-7.8008 20.80205-10.401 37.44369-2.6003 16.64164-6.7607 42.6442-9.881 58.245743-12.4813 62.92619-3.1203 183.05799 18.7218 242.34389 33.8034 92.0491 77.4877 144.5743 196.5794 239.2236 14.5614 11.4411 28.6028 22.8822 31.7231 26.0025 9.3609 8.3209 28.6028 24.4425 56.6856 46.8047 40.044 32.2431 158.0956 130.5328 188.2586 156.5354 15.0814 13.0013 34.8434 36.4036 44.7244 52.5252 9.3609 16.1215 19.7619 30.1629 22.8822 31.203 3.6404 1.5602 7.2807-8.3208 9.3609-25.4825 4.1605-32.7632-10.401-100.3699-28.0827-128.9727-5.7206-9.881-12.4813-21.8421-14.5615-26.0025-1.5601-4.1605-13.0012-20.8021-24.4424-36.4036-11.9611-16.1216-23.4023-32.7633-26.5226-37.4437-2.6002-4.6805-17.1617-25.4825-31.7231-46.8046-38.4838-55.6455-71.7671-103.4902-99.3298-143.5342-27.0427-39.0038-94.1293-136.7735-118.0516-172.657-8.3208-13.0013-24.9625-36.4036-36.4036-52.0051-11.9612-16.1216-23.4023-32.7633-26.5226-37.4437-5.2005-8.3209-32.2432-47.8447-87.8887-127.932643-14.5614-20.80205-28.6028-42.6442-31.7231-47.84471-6.7607-13.52134-16.1216-16.64164-23.4023-7.80077zm514.8507-9.36092c-40.564 13.52133-69.6869 21.84215-82.6881 23.4023-6.7607 1.0401-15.0815 5.72057-18.2018 10.40103-4.1604 7.28071-2.0802 12.48123 11.4411 26.52261l17.1617 17.68174-68.1267 68.126763c-36.9237 37.4436-76.9676 79.0477-88.4087 92.049-19.762 22.8823-20.282 24.4424-13.5214 38.4838 16.6417 31.7231 15.6016 32.2432 112.3311-64.4863 49.9249-49.925 93.6092-91.009 97.2496-91.009 3.1203 0 10.401 5.7206 16.1216 13.0013 10.921 13.5213 31.203 17.6817 34.3234 6.2406 7.8007-26.52262 20.802-72.807183 27.5627-95.169393 15.0815-50.44497 4.1604-61.88609-45.2445-45.24445z" style="stroke-width:.520051"/></svg>