<svg height="960" style="" width="1210" xmlns="http://www.w3.org/2000/svg"><path d="m587.70968.00262291a462.04882 462.04882 0 00-201.63118 47.02865909 441.81702 441.81702 0 00-87.03096 54.937538l.82663-.6479a472.57487 472.57487 0 00-171.21339 281.12197 499.70879 499.70879 0 00-6.47901 147.37506 456.71039 456.71039 0 00108.05423 259.81945 480.42514 480.42514 0 00143.76697 116.34291 464.04358 464.04358 0 00126.79865 44.8727l3.02727.50274a498.6873 498.6873 0 00101.17306 8.56794 498.70538 498.70538 0 00101.1619-8.56794 474.74263 474.74263 0 00132.40635-46.62656l-2.56927 1.25117a480.4506 480.4506 0 00143.75583-116.3429 456.69987 456.69987 0 00108.06534-259.81945 499.70862 499.70862 0 00-6.4901-147.37506h.011a472.57452 472.57452 0 00-171.2133-281.12203 437.99903 437.99903 0 00-83.59035-53.139058l-2.61394-1.15058a462.08606 462.08606 0 00-218.9235-46.76056909 462.04882 462.04882 0 00-17.29227-.26807zm17.29227 16.45443909c18.76856.12777 37.62353 1.12559 56.54611 2.79268a429.54021 429.54021 0 01156.50156 45.09613c129.54546 65.079818 209.38438 170.125988 244.30338 310.098778a244.45914 244.45914 0 015.3395 30.28377l.1116 1.22876c1.5484 12.43283 2.3193 24.96827 3.7757 41.39868-12.7361-13.68281-23.3149-24.56003-33.3557-35.91384h-.011c-61.09156-69.07453-124.4799-135.86359-196.40337-193.90109a482.73538 482.73538 0 00-141.38759-81.84775 269.08637 269.08637 0 00-90.3822-15.31504c-1.68579 0-3.36055.0143-5.03799.0446-1.49923-.0292-3.26778-.0446-5.03799-.0446a273.9593 273.9593 0 00-92.29237 15.90708l1.91022-.60322a482.71388 482.71388 0 00-141.38761 81.85893c-71.92352 58.03601-135.31315 124.82668-196.40333 193.90109-10.04081 11.35387-20.61959 22.23257-33.35572 35.91384 1.45616-16.43047 2.22717-28.96579 3.77569-41.39868a265.96043 265.96043 0 015.81994-33.32221l-.36861 1.80968c34.91904-139.97267 114.75801-245.01896 244.30329-310.098778a429.60015 429.60015 0 01156.50158-45.09613c18.92253-1.66554 37.76629-2.66491 56.53491-2.79268zm0 182.216548c9.63913.002 19.33455.31651 29.08853.93834 67.57958 4.20376 126.30255 30.82629 182.7639 64.72306 43.59122 26.16957 82.53484 58.52431 120.93404 91.71148 39.95574 34.53104 75.78288 73.08987 115.61678 113.11458h-102.08908c-12.17277-13.39483-24.00507-26.9155-36.37178-39.9241a671.63878 671.63878 0 00-102.03326-89.70079 412.36799 412.36799 0 00-144.43716-64.16452l-2.81504-.53619a171.90442 171.90442 0 00-32.66315-3.64165h-.15614c-9.60213-.29094-18.22608-.0315-27.83741-.0114-9.61134-.02-18.22407-.27979-27.8262.0114a178.40881 178.40881 0 00-33.99246 3.84273l1.16172-.2011a417.08021 417.08021 0 00-148.58174 65.58322l1.32931-.88249a671.63918 671.63918 0 00-102.03322 89.70079c-12.36666 13.01009-24.18787 26.52904-36.36064 39.9241h-102.08907c39.83391-40.02477 75.65012-78.58359 115.60563-113.11458 38.3992-33.18717 77.34277-65.54196 120.93404-91.71148 56.46131-33.89523 115.18429-60.5177 182.76387-64.72306 9.7561-.60752 19.45151-.92195 29.08853-.93834zm26.68684 90.21461c3.14384.15631 6.10923.33447 8.02054.59204a226.30616 226.30616 0 0146.11267 9.19349 430.56221 430.56221 0 01137.71247 71.76063 613.03831 613.03831 0 0173.99475 66.67792l.29054.31285c10.01467 10.7058 21.96021 25.51441 31.65774 37.22077a8.4884486 8.4884486 0 01-.96063 12.66756c-101.17316 104.18409-162.05029 149.48918-238.6286 171.38099-15.29065 4.37128-37.65883 10.06082-58.2664 11.82978a192.67517 192.67517 0 00166.0525-190.82919 192.67517 192.67517 0 00-165.98547-190.80678zm-54.66947.17873a192.67517 192.67517 0 001.307 381.44603c-20.59116-1.77462-42.93285-7.45135-58.21052-11.81857-76.57831-21.89032-137.46661-67.1969-238.63978-171.38099a8.4883914 8.4883914 0 01-.94951-12.66756c9.69753-11.70635 21.64316-26.51497 31.65778-37.22077a612.22393 612.22393 0 0172.85533-65.91832l1.42985-1.07239a430.59458 430.59458 0 01137.71243-71.76063 220.18812 220.18812 0 0147.11802-9.19349c1.48419-.17799 3.70549-.28557 5.7194-.41334zm8.73553 51.70918a73.846214 73.846214 0 017.43968 13.48304c3.13252 10.06855 5.25699 20.44222 8.65729 34.17119 14.47403-15.65772 15.06719-32.87677 23.61489-47.43081v43.93437c20.95291-3.69125 22.36246-21.44816 33.71318-38.23731-2.7353 20.94367-4.78102 36.59395-7.56259 57.89775 14.94039-14.94039 25.82944-25.8279 39.42142-39.42143-.21676 13.47342-6.59452 20.20944-11.30473 27.8151a104.3666 104.3666 0 00-6.62421 16.07461c19.97385 7.73652 28.65665-11.7854 49.36328-15.66132-14.26464 14.26161-24.41309 24.40502-38.46068 38.44958 14.65253.56051 23.09351 2.85707 30.01564.56966 6.43587-2.12579 11.88617-6.18668 19.59341-4.22252-9.06645 12.33434-27.69071 12.77394-33.29984 31.09924h45.85576c-12.86866 16.17641-33.90473 7.62396-46.33613 22.11795 12.66069 14.09381 32.44868 9.28785 48.64842 21.59297h-48.67073c3.0894 6.2588 3.89812 10.88219 6.62421 12.84635 8.89407 6.40499 18.48179 15.90806 30.10504 23.14567a98.076284 98.076284 0 01-14.30965-.56965c-8.51385-.21562-19.68618-7.72823-32.64079-7.02634a98.338862 98.338862 0 0011.37177 14.44372c5.42908 6.90223 7.33341 7.96014 13.08089 14.61129 1.96879.69268 2.0857 4.65977 3.56348 5.92044-.5708.56965-1.13965 1.13862-1.70913 1.70913-1.26061-1.47772-2.5262-.24422-3.78687-1.72028.35231-.35232-3.35901-2.06042-3.00492-2.4129-5.59844-.39579-20.1002-12.00588-33.46747-16.4991 0 6.33109 15.25433 33.87738 15.3821 43.95674-9.99751-10.00089-20.88342-20.89006-32.41739-32.4286-14.05531 20.36793 5.4105 35.60904-2.13362 53.08318-7.71336-13.12087-14.99679-25.49199-22.54245-38.32667-2.32894 2.80153.83732 9.59149-2.82618 13.99691 0 11.06602-5.41782 20.27728-5.41782 33.55676l-2.54691.70377c-2.69063-6.86059-5.54427-13.66582-8.03175-20.59876-2.6999-7.52868-5.06064-15.17432-8.54559-25.72616-15.4314 14.74187-6.8058 36.2999-23.26858 48.42503v-50.26816c-18.85635 7.98125-18.04031 28.24154-33.93658 40.6837 4.25461-16.41045 7.68184-29.60293 11.53929-44.48178-3.79768-.59265-7.81344-1.22464-11.56165-1.80962-9.07412 7.56568-17.76789 14.81359-26.46338 22.06213a15.699755 15.699755 0 01-3.21717 4.92629c-.57079-.56965-1.13964-1.13862-1.70913-1.70913 1.47773-1.26067 18.81718-27.7555 19.53759-43.4317.56965.23564-30.8258 12.34871-43.01841 19.61578-1.881-1.68854-1.33634-3.53539-1.78732-4.25604-.28311-.4524 1.04917-2.86696 1.37398-3.19486 10.48411-10.57951 18.31197-18.40131 31.52373-31.61307a161.71766 161.71766 0 00-30.00449.42438c-7.11465 1.50392-13.11247 4.67281-22.22971 2.68097a205.1072 205.1072 0 0043.67746-27.24534c-20.51257-5.29204-37.33642-1.31597-53.69756-6.6019 14.57709-4.81185 30.50791-12.33727 46.57067-17.63858a61.975426 61.975426 0 00-22.06218-11.28238 123.09048 123.09048 0 01-25.13408-8.22164l.78195.32372c15.90703-4.93012 32.53596-1.05837 51.88795-4.45713-13.15325-13.49344-40.6221-26.89742-45.37544-29.98218a75.966854 75.966854 0 0111.38298-.82663c1.19948 0 2.38665.0343 3.57463.0892a370.51033 370.51033 0 0039.39906 5.25024 169.72224 169.72224 0 00-18.39816-19.70516c-5.15822-5.3783-10.51346-10.5694-18.47636-18.53218a69.554662 69.554662 0 0133.1882 10.1095 45.72924 45.72924 0 0017.8061 5.42897c-4.40543-13.36258-17.10942-33.24459-16.95711-35.7351-1.96873-.69268-2.08575-3.3081-3.56348-4.56883l1.70913-1.70913c1.2601 1.4767 2.51545 2.95705 3.77567 4.43477-.35232.35231.65418.70875.30141 1.06123 8.60924 6.2449 19.44247 13.05505 28.28421 20.47592 2.97552 0 1.8067 1.35166 7.65193 1.35166-3.75765-14.28008-5.92673-29.02178-9.4504-42.41518l2.70328-1.51921c8.50154 12.8793 17.00412 25.7543 28.84276 43.68863v-53.21725c1.32896-.50176 2.65804-1.00519 3.98797-1.50804zm-427.84916 149.43051h99.37459c26.67442 27.29939 51.05496 53.83558 77.13371 78.58594a448.89763 448.89763 0 00142.63873 94.40363 352.58064 352.58064 0 0092.67214 23.61483l1.70912.15614c8.15673.81587 17.6201 1.28464 27.20067 1.28464 2.23818 0 4.47566-.0286 6.70245-.0784l-.33515.0114c1.89483.0457 4.12918.0669 6.36729.0669 9.1785 0 18.24627-.44383 27.21188-1.28464l1.18409-.0892c-.37004.0343-.74672.0458-1.11705.0784a363.30423 363.30423 0 0096.72707-24.64255l-2.424.8825a448.85491 448.85491 0 00142.63871-94.40362c26.07715-24.75031 50.4593-51.28656 77.13373-78.58595h99.37463c-3.842 4.34543-6.1617 7.35865-8.8584 9.97544-39.2566 38.08372-77.41709 77.39705-118.16376 113.81831-48.31389 43.18799-100.59442 81.39005-159.71873 109.03729-30.21633 14.1292-60.99009 27.08605-94.31423 32.04871a419.85486 419.85486 0 01-66.04123 6.17741 419.67087 419.67087 0 01-66.03003-6.17741c-33.3242-4.96441-64.09944-17.91959-94.31423-32.04868-59.12432-27.64724-111.41454-65.8493-159.72992-109.03729-40.74501-36.42115-78.90706-75.73465-118.16372-113.81831-2.69681-2.61679-5.0163-5.63001-8.85836-9.97544zm-19.0684 22.18504c26.81146 28.96642 51.40142 55.18867 75.6145 81.75838 59.46907 65.25996 121.57822 127.76106 195.14104 177.30142 47.77663 32.17586 98.07613 58.39634 157.28353 64.89061a337.6526 337.6526 0 0038.12559 2.08895 352.24977 352.24977 0 0039.72307-2.24532l-1.58628.15614c59.20723-6.49576 109.49552-32.71629 157.27237-64.89061 73.56293-49.5407 135.67202-112.04169 195.14103-177.30142 24.21306-26.57125 48.80306-52.79196 75.61446-81.75838a428.31237 428.31237 0 01-49.9889 183.59054c-52.56382 100.42043-132.07362 171.02014-236.84126 214.08655a463.21295 463.21295 0 01-179.33449 32.96473 463.27083 463.27083 0 01-179.3345-32.96473c-104.76744-43.06618-184.26627-113.66577-236.83008-214.08633a428.28589 428.28589 0 01-50.00008-183.59053z" style="stroke-width:5.7194"/></svg>