<svg height="960" style="" width="1160" xmlns="http://www.w3.org/2000/svg"><path d="m714.12221 623.55746c-4.18374 8.36748-1.39458 19.52413 6.97291 23.70787 20.9187 13.9458 34.86451-4.18374 16.73496-22.31329-9.76206-9.76206-18.12954-9.76206-23.70787-1.39458zm-185.47919-138.06347c-40.44284 34.86452-44.62658 125.51224-6.97291 158.98218 41.83742 37.65367 107.3827 30.68077 140.85263-16.73497 39.04825-54.38864 36.25909-73.91276-11.15665-125.51224-46.02115-48.81032-78.0965-52.99406-122.72307-16.73497zm-87.85857-472.762766c-11.15665 6.97291-50.2049 26.49703-87.85857 43.232-69.72902 33.46993-168.74423 129.695976-207.79249 206.397896-27.89161 50.2049-33.46993 112.96102-11.15664 112.96102 16.73496 0 16.73496 78.0965 1.39458 118.53934-11.15664 26.49703 18.12955 175.71713 41.83741 216.15997 6.97291 11.15664 18.12955 33.46993 25.10245 48.81031 16.73497 36.25909 93.43689 118.53929 110.17186 118.53929 6.9729 0 20.9187 9.7621 30.68077 20.9188 9.76206 11.1566 34.86451 20.9187 54.38863 20.9187 20.91871 0 50.2049 9.762 65.54528 20.9187 34.86452 26.497 182.69004 26.497 228.7112 0 19.52412-11.1567 48.81031-19.5242 66.93986-20.9187 54.38864 0 167.34965-90.64777 199.425-160.37679 6.9729-15.34038 18.12955-37.65367 25.10245-48.81031 26.49706-44.62658 55.78326-199.42501 41.83746-224.52746-16.735-32.07535-16.735-110.17185 1.3946-110.17185 20.9187 0 16.7349-59.96696-9.7621-112.96102-32.07538-66.93986-139.45807-171.533386-213.37084-207.792476-34.86451-16.73497-73.91276-36.25909-86.46398-43.232-30.68077-15.3403803-248.23532-15.3403803-276.12693 1.39458zm6.9729 97.620636c-4.18374 6.9729-16.73497 13.9458-27.89161 13.9458s-23.70787-6.9729-27.89161-13.9458c-5.57832-8.36749 6.9729-13.945806 27.89161-13.945806s33.46993 5.578316 27.89161 13.945806zm320.7535 0c-4.18374 6.9729-16.73496 13.9458-27.89161 13.9458-11.15664 0-23.70786-6.9729-27.89161-13.9458-5.57832-8.36749 6.97291-13.945806 27.89161-13.945806 20.91871 0 33.46993 5.578316 27.89161 13.945806zm-408.61207 44.62657c-12.55122 12.55122-20.91871 12.55122-33.46993 0s-9.76206-16.73497 16.73497-16.73497c26.49702 0 29.28619 4.18375 16.73496 16.73497zm386.29878 30.68077c13.94581 12.55122 30.68077 22.31329 40.44284 22.31329 19.52412 0 128.3014 128.3014 128.3014 152.00926 0 11.15665 9.76206 30.68077 22.31329 44.62658 16.73496 18.12954 19.52412 39.04825 12.55122 83.67483-11.15664 65.54528-34.86451 50.20489-34.86451-23.70787 0-23.70787-9.76206-51.59948-20.91871-61.36154-11.15664-9.76206-20.9187-25.10245-20.9187-33.46993 0-51.59948-198.03043-161.77133-292.8619-161.77133s-292.86189 110.17185-292.86189 161.77133c0 8.36748-9.76206 23.70787-20.91871 33.46993-11.15664 9.76206-20.9187 37.65367-20.9187 61.36154 0 59.96696-20.91871 90.64773-32.07536 47.41573-15.34038-52.99405-11.15664-90.64773 11.15665-108.77727 11.15664-9.76206 20.91871-27.89161 20.91871-41.83741 0-29.28619 107.38269-153.40385 132.48514-153.40385 9.76206 0 25.10245-8.36749 34.86451-19.52413 22.31329-27.89161 69.72902-34.86451 199.425-29.28619 75.30735 2.78916 117.14476 11.15664 133.87972 26.49703zm-553.64843 126.90682c0 6.9729-6.9729 15.34038-15.34039 18.12955-8.36748 2.78916-15.34038-5.57833-15.34038-18.12955s6.9729-20.91871 15.34038-18.12955c8.36749 2.78916 15.34039 11.15665 15.34039 18.12955zm451.84406 0c13.94581 11.15664 36.25909 20.91871 47.41574 20.91871 27.89161 1.39458 85.0694 52.99405 118.53934 104.59353 20.9187 32.07535 26.49702 65.54528 25.10244 142.24721-1.39458 92.0423-4.18374 103.19895-44.62657 142.2472-23.70787 23.70787-43.23199 48.81032-43.23199 57.1778 0 22.31329-41.83742 16.73496-50.2049-6.9729-6.9729-15.34039-30.68077-20.91871-87.85857-20.91871-69.72902 0-85.06941-5.57832-115.75018-39.04825-18.12954-20.91871-46.02115-61.36154-58.57237-90.64773-23.70787-51.59948-23.70787-54.38864 0-80.88567 16.73496-19.52412 19.52412-32.07535 9.76206-41.83741-11.15664-11.15664-20.91871-1.39458-37.65367 30.68077-25.10245 50.2049-29.28619 104.59353-8.36749 117.14476 8.36749 4.18374 13.94581 18.12954 13.94581 29.28619 0 20.9187 48.81031 75.30734 68.33444 75.30734 6.9729 0 15.34039 9.76206 19.52413 19.52413 5.57832 13.9458 34.86451 22.31328 89.25315 25.10244 99.01521 5.57833 107.38269 30.68077 11.15664 36.2591-89.25315 5.57832-179.90088-40.44284-232.89494-117.14476-32.07535-46.02116-37.65367-69.72902-39.04825-147.82553 0-51.59948 6.9729-97.62063 15.34039-101.80437 6.9729-5.57832 20.9187-25.10245 27.89161-44.62658 11.15664-30.68077 19.52412-34.86451 65.54528-27.8916 27.89161 4.18374 40.44283 4.18374 27.89161 1.39458-32.07535-9.76207-32.07535-46.02116-2.78917-57.1778 13.94581-5.57832 27.89161 0 36.2591 13.9458 8.36748 15.34039 30.68077 23.70787 61.36154 23.70787 51.59947 0 145.03636 58.57238 145.03636 90.64773 0 9.76206 9.76207 25.10245 20.91871 34.86451s20.91871 34.86451 20.91871 57.1778c0 47.41573 22.31328 54.38864 34.86451 11.15664 18.12954-54.38864-62.75612-193.84668-111.56644-193.84668-12.55122 0-25.10245-9.76206-29.28619-20.91871-5.57832-11.15664-23.70787-20.9187-40.44283-20.9187-18.12955 0-43.232-4.18374-55.78322-8.36749-18.12955-6.9729-19.52413-11.15664-4.18374-20.9187 27.89161-18.12955 72.51818-15.34039 103.19895 8.36748zm354.22339 0c0 11.15664-5.5783 20.91871-12.55118 20.91871-18.12954 0-30.68077-22.31329-19.52412-33.46993 15.34038-15.34039 32.0753-8.36749 32.0753 12.55122z" style="stroke-width:1.39458"/></svg>