<svg height="960" style="" width="780" xmlns="http://www.w3.org/2000/svg"><path d="m280.38649-89.9994a172.20364 172.20364 0 00-24.17138 2.27065h-.0733a15.682321 15.682321 0 00-13.77036 12.81816l-.0733.21973a34.229439 34.229439 0 01-8.78959 15.74803 9.2383072 9.2383072 0 01.95221 13.9901 9.4408193 9.4408193 0 00-1.39169 7.6909 100.30992 100.30992 0 0012.01244 30.25084v.0732a106.8642 106.8642 0 0011.06024.58597 105.94989 105.94989 0 0030.47059-4.3948 434.54283 434.54283 0 0189.94683-14.20984 18.958519 18.958519 0 0114.64932 3.51584c5.51283.30002 7.5778-4.47097 10.84049-7.47116v-.29297a5.2128143 5.2128143 0 013.66234-4.98079c5.47533-6.03785 9.82969-13.33087 20.14281-13.33087 6.6379-.075 7.46647-7.90009 9.22907-13.03789 1.5751-4.65029-1.84698-7.10551-5.85972-8.64311a102.13328 102.13328 0 01-21.38801-13.47737 144.37471 144.37471 0 01-43.28875-4.39479 39.813526 39.813526 0 00-.14649-.0733 144.37471 144.37471 0 00-.0733 0 39.813526 39.813526 0 00-13.84361-2.41714c-.52503 0-1.08815-.0375-1.53818 0a660.09718 660.09718 0 01-68.33903-.43949zm119.7582 128.32806a9.4726963 9.4726963 0 00-7.03168 3.1496v-.0732a29.326769 29.326769 0 01-17.65243 6.51894 232.31751 232.31751 0 00-57.42534 9.22907l-.43948.29299c-.26251.86255-.57718 1.12507-.9522 0l-1.97766-.87896c-17.21354 1.5376-34.53783 2.92518-51.63886 4.68778a122.17262 122.17262 0 00-45.33965 8.56986c-5.55033 2.73766-10.73736 5.55678-12.01244 12.23218-1.27507 6.6754-7.19282 8.75443-12.81815 10.25453-6.11287 1.6501-11.77454 2.91346-10.98699 11.42646.33752 3.86274-3.55628 4.30749-6.51895 4.90752l-1.68467 3.73559c1.5376 2.58765.38322 4.18267-1.90441 5.42025-2.92518 3.30019-1.20476 5.44954 1.75791 7.32465a6.6003981 6.6003981 0 011.68467-.21973 6.317631 6.317631 0 014.76104 2.12414c1.16257 3.60023-1.59972 4.50614-3.66234 6.00622-1.05006 6.03788-8.76908 5.60659-11.20673 11.71946 8.86181-.89739 16.64339 2.65622 24.90385 2.41715a9.9485999 9.9485999 0 015.20051-1.46494 9.1198 9.1198 0 012.71012.43948 53.446349 53.446349 0 0030.39734-2.92987 200.47134 200.47134 0 0135.89084-5.42024 239.80221 239.80221 0 0037.722-6.00622h-.21974a24.232836 24.232836 0 018.27687-1.39169 22.971261 22.971261 0 014.3948.36624h5.49349a63.450826 63.450826 0 0120.72879-2.41715c38.55232-2.43765 77.03609-4.8665 115.3634-9.74179h-.43948a91.754533 91.754533 0 0112.08569-.73246 88.658722 88.658722 0 0132.30177 5.93297 24.390721 24.390721 0 0022.63318-3.58909 12.284991 12.284991 0 015.71325-2.63688l.14648-.21974c1.8001-6.78791 3.51055-13.66429 13.11113-11.93919 3.63775-.97506 8.34485-.11838 8.56986-6.00622a4.0817462 4.0817462 0 012.56366-2.27065c14.519-3.49051 28.34499-9.16731 43.14223-11.64621a68.791899 68.791899 0 0110.84052-2.41713 10.158238 10.158238 0 0010.76723-11.20674 4.8377917 4.8377917 0 000-.0732 4.8377917 4.8377917 0 01-.43949-.87897 4.1008723 4.1008723 0 00.43949.87897h.0733l.36625-.65923a13.395433 13.395433 0 00-1.0987-.9522c-7.23794.56253-13.26936 5.4097-20.5823 5.85972a111.69074 111.69074 0 01-43.94796 4.3948l.0733.0733c-1.16257 1.38759-2.21379 1.54111-3.07634-.14649l-16.77349-.95221a6.4878913 6.4878913 0 01-3.22282.95221 6.6454008 6.6454008 0 01-3.95534-1.31845l-7.32468-.36622c-12.48825-2.32515-24.98001-4.33327-37.35575-6.95843a385.74413 385.74413 0 01-69.29129-27.54072h-.0732a11.546196 11.546196 0 01-3.66233-2.41715 9.4726963 9.4726963 0 00-7.39791-3.44258zm-83.20815 18.67789a.72716885.72716885 0 00-.36623.14648c.37502 1.16258.68969.93757.95221 0a.72716885.72716885 0 00-.58598-.14648zm102.03253 110.01639c-14.55088 9.11306-6.01795 25.1816-13.33089 36.7698-6.75041-9.03804-13.89576-15.29683-24.17138-7.98388-3.18769-.67504-4.28463-3.07167-5.85972-4.83427-3.52522-3.90024-6.92796-5.82751-11.35323-.95221a6.9202924 6.9202924 0 01-10.54751.1465 18.020587 18.020587 0 00-8.56985-5.34701c-4.20025 13.3133-16.40783 12.6992-27.32098 14.64932l-3.36935.36623a82.879999 82.879999 0 01-30.61708 5.78648c-1.20007 0-2.35678-.0358-3.36934-.0732a52.353157 52.353157 0 00-18.60464 5.2005c-9.67558 3.07518-19.98754 4.98898-29.73813 7.76414l-.80571 1.68468c5.10031 14.9259-9.47987 17.80537-15.96775 25.34332.37502 6.33788 4.85537 5.33645 8.64309 5.78648a13.780956 13.780956 0 019.44882 6.88518c-1.16257 6.33788-6.55118 7.81981-11.42648 8.56986h-.0733a22.54261 22.54261 0 00-15.16205 8.93608 358.69 358.69 0 00-39.33342 44.3142 65.159429 65.159429 0 00-8.20362 18.16517c-2.17514 10.76315-11.28936 17.05355-17.13971 25.41655a48.926201 48.926201 0 00-9.37557 19.55687 372.16119 372.16119 0 00-9.88829 70.46323v.21972a91.12487 91.12487 0 002.63688 19.63011 422.60961 422.60961 0 018.49661 63.43155 86.765607 86.765607 0 0012.8914 35.30485c7.57546 13.38831 17.64481 24.56927 25.78281 37.28254 3.60021 5.55034-.57543 12.31481 3.66232 18.16515l.58597-.14651a11.914093 11.914093 0 0114.06336 9.37556v.0733a10.811527 10.811527 0 008.64309 7.17815l.1465.0733a16.409489 16.409489 0 019.08258 5.64001 454.20527 454.20527 0 0051.41911 37.42898 9.2450575 9.2450575 0 004.17506 1.75796 67.662706 67.662706 0 0132.44824 20.21604 17.25104 17.25104 0 009.37557 5.20051c10.05061.33753 19.78771 10.02601 30.25085 1.02546 1.83761-1.50008 4.67079.0896 6.95842.95219a33.774537 33.774537 0 0029.81137-.95219 20.187468 20.187468 0 019.00934-2.12416h.80576a61.357076 61.357076 0 0016.55373-4.54144c12.75077-3.71273 21.03174-14.00066 33.10746-18.2384 10.98817-3.82524 16.38908-.8192 15.60153 10.69399-.15001 2.21264-.44944 5.30072 1.53818 5.71325 8.85053 1.87511 13.51253 9.44063 21.38801 16.04102-1.31258-8.06302-8.48723-11.49328-7.32466-18.01867.71254-1.23758 1.84054-2.20619 3.00311-1.83116a88.302075 88.302075 0 0135.2316 19.55683 53.981131 53.981131 0 0011.86597 8.3501 133.32467 133.32467 0 0131.49602 21.46127c2.10013.15001 3.78481 3.39512 6.37246.73246-.82505-5.17532-6.57167-5.40911-9.00932-9.00932l-.14648-.0733a29.073254 29.073254 0 01-11.20673-7.98389 1.3148293 1.3148293 0 01-.87897-.58596 352.11623 352.11623 0 01-31.49605-21.38804 9.2308067 9.2308067 0 01-3.36934-8.56983 9.2308067 9.2308067 0 010-.14648c8.78099 3.09746 13.11936 12.63425 23.07269 16.84669-1.38759-7.95048-7.65631-9.70428-10.694-14.42956-3.03768-4.72529-7.79462-8.55988-8.05713-15.23529a13.76033 13.76033 0 0115.23529 2.49037 143.62503 143.62503 0 0036.84305 17.35946c-.26251-3.18769-3.47717-3.68988-5.12727-5.64-7.38795-5.28781-16.93168-5.94235-24.24462-11.7927a22.850878 22.850878 0 01-9.30232-12.96465c5.92536-1.95011 4.41061 5.20637 8.42334 6.51895a14.529126 14.529126 0 0115.5283.87895c7.53796 4.08774 15.16674 8.13798 22.77966 0 .45003-.48754 2.28003.21623 3.4426.36623 2.36264-2.36263 1.61496-5.31771 1.46495-8.13037l-6.00621-4.24829c-11.85072 7.42544-16.24614 6.09296-19.99636-5.42025 9.33811-1.35007 19.55042-6.95197 26.07581 5.27376 5.32532.37502 8.23644 6.24237 14.64932 7.10492-2.51264-6.26288-7.61528-8.87513-10.84048-13.03789-5.25032-1.76264-8.25053-7.16237-14.06335-7.83741-.15004-2.88767-.28947-5.24447-.43949-8.05713-8.85053-.63754-18.21792 2.60347-25.3433-5.347 3.60017-.60003 7.05098 2.90234 10.91371.95222 2.66267-2.10013-.96684-6.01619 2.78338-8.71635 8.43802 1.20006 17.80596-3.10977 26.88152 3.0031 2.10012-6.26287-4.60694-11.94915 1.31842-14.64931 1.16257-9.60058-13.78148-8.79368-10.18127-19.55684 12.00073-1.12506 20.37019-9.85372 30.98329-12.8914-.60003-7.42545-6.54707-4.3245-10.03478-7.32468l.51273-1.0987a186.84301 186.84301 0 0110.1813-18.09188 31.696912 31.696912 0 010-.0733 31.696912 31.696912 0 006.59218-19.3371 30.158944 30.158944 0 00-.58597-6.29918 39.95116 39.95116 0 015.85973-32.961c1.91261-1.01256 3.03769 1.1614 4.68779 1.61143 5.51283 1.6126 7.4764-.29709 7.25139-6.37246l.0733-.73246a12.185985 12.185985 0 00-4.02852-9.00931l-.36625-.29301a15.989465 15.989465 0 01-3.80885-22.26697c-3.30019-6.7504-11.28525-7.09085-15.74797-12.37867l4.61449-11.35321c3.45021-1.80011 8.67768 2.42707 10.32778-4.24833-7.83797-5.13781-18.02336-1.68291-25.63632-6.4457-1.53758-5.28782 5.50759-5.78645 4.90755-10.47423-1.01256-3.45021-6.30507-1.87924-7.61764-6.07949 4.12524-3.2252 11.92219-.27835 14.20982-8.71635-11.62569-.67504-25.08023 4.53484-33.18072-7.69089.67505-4.53778 5.25092-5.06281 6.22598-9.37557-.48754-3.67522-7.62586-4.89168-5.71324-10.25451 2.28763-4.16275 5.90015.80454 8.86283-2.27065 1.57509-9.41307-8.0706-16.74712-5.93297-27.24776a13.84996 13.84996 0 01-14.57608-7.10491c2.51265-7.42545 10.11739-7.37741 15.96775-9.81506 1.57514-2.58766 9.01873-.50628 5.49352-7.03167a17.523682 17.523682 0 01-8.49663 2.1974 18.380233 18.380233 0 01-3.36931-.29296 18.291728 18.291728 0 01-.65925-19.33711c-7.87544-5.32532-7.82331-5.33294-3.73557-15.30857-1.23758-2.88763-4.05961.19573-5.85972-1.90441-.97507-2.73766 3.11561-3.92247 3.00311-6.88514-.18752-.33753-.35744-1.05419-.73247-1.39171-8.25049-7.50046-18.54547-13.02266-22.63322-24.61086v-.0733a21.076271 21.076271 0 00-6.8119-8.20362c-7.12544-5.88785-11.12411-14.82453-19.3371-19.84982a15.282921 15.282921 0 013.66232-8.93607l1.83116-5.27376c-1.98762-1.80011-2.57652.35567-3.58908.80571l-8.35011 13.03789c-6.30038.37502-9.77403-4.65087-14.64933-6.22596-.67504-6.03787 8.1087-12.32886-1.90441-17.57919 3.71272-.22501 6.23417 2.03978 9.00934.95222 1.38758-4.50028 7.09788-8.14679 2.71012-13.69712-2.96268-1.83761-5.18352-.0709-7.47115 1.39169-1.12508 1.7626-1.41747 4.11293-3.4426 5.20051-9.30056 4.98779-9.46639 5.33938-4.02856 13.47736a22.439104 22.439104 0 01-20.21606-5.93297c-5.51284-7.12543 1.39813-12.16304 4.2483-18.23841-6.78791-3.00017-11.84837 2.41187-17.2862 2.63688-2.96268-3.18769-.59183-6.86702-1.90441-10.76725-5.81285 3.97525-5.91481-3.77717-9.81505-5.12726-6.00035 4.42527 1.5792 10.79948-3.29609 15.67478-1.95012-.63754-.6352-4.57176-3.22285-4.83429-2.81267-.93755-3.93481 2.67966-6.37246 2.41714-8.25049-10.42562 4.92042-20.34731 1.2452-31.93552zm-72.66064 3.66234a3.0155568 3.0155568 0 00-.65922 1.90441 2.8760484 2.8760484 0 001.02546 2.1974c1.7626-2.17514 1.77139-2.1892-.36624-4.10181zm252.18808 62.47935a4.6855326 4.6855326 0 00-3.80885 2.0509v.0732a13.647073 13.647073 0 01-19.55683 5.64 15.735574 15.735574 0 01-.0733-.0733 15.735574 15.735574 0 00-14.2831 0c8.288 6.41288 7.54207 17.74208 15.45505 23.29242h.14649a21.21878 21.21878 0 0012.74492-11.13349 33.83454 33.83454 0 018.86283-12.45192c.93756-2.13764 4.39947-3.28321 2.63686-6.95843a4.958174 4.958174 0 00-1.97764-.43948 4.6855326 4.6855326 0 00-.14648 0zm-60.94119 18.31165c-5.2503.18751-7.33229 3.40509-8.56986 8.13037 4.68778.82505 5.53218-3.71623 8.56986-4.54128zm11.9392 5.05401c-.67974-.12656-1.66358.1922-2.56363.58597-.86255 2.32515-3.183 4.36199-1.75792 7.32467h.0732a6.9454188 6.9454188 0 004.98075-5.71324c.35627-1.50009-.0527-2.07083-.73245-2.1974zm37.35577 7.61766-.14649.0732a13.802707 13.802707 0 00-9.4488 9.96154c2.66262 1.20007 3.98634-.80571 5.78644-.80571l3.80885-9.15583zm-232.92421 30.9833a149.85904 149.85904 0 0137.50226 3.95532l1.31844.21973a194.76687 194.76687 0 0153.25028 20.14283 95.453006 95.453006 0 0115.52828 13.3309c.26252 4.05024-4.04438 5.86498-3.36934 10.32775 2.47515 3.33769 5.82164 2.21263 9.00933 0a21.22853 21.22853 0 0133.54695 16.48047 93.786781 93.786781 0 009.74181 27.10128 397.70736 397.70736 0 0123.80512 57.20557c2.10013 8.73803 1.93843 9.41367-7.32464 10.91376a5.4794554 5.4794554 0 00-5.05402 3.58908c2.58765 6.82541 8.33018 1.83701 12.30543 3.14959 1.38758 3.11269-2.56715 3.99223-2.41714 7.10492h.0733a14.293237 14.293237 0 016.51895 10.54751c-8.06299-1.5751-12.04468 2.24837-12.23219 9.44884a96.946346 96.946346 0 01-22.63318 55.5209 19.730314 19.730314 0 00-3.66235 7.32468c-1.35009 5.85035-3.71857 9.9498-10.694 7.32464-7.23793 7.42545-19.6213 7.96807-24.6841 18.01868a8.8362828 8.8362828 0 01-7.10492 6.00621 9.7637138 9.7637138 0 00-7.32466 3.44259c-6.90042 10.31313-16.85551 5.2351-25.85606 6.88519-1.23757-6.82541 2.97206-11.8431 1.17195-17.50594-5.28781.97506-4.59871 5.26967-5.27375 8.56987-.82505 4.20025-2.37788 7.56608-7.17817 8.20362s-6.61798 4.72821-8.6431 7.69089a8.6896491 8.6896491 0 01-1.75793.21972 7.4351984 7.4351984 0 01-4.90752-1.9044 15.199666 15.199666 0 00-9.59531-3.44259 14.787892 14.787892 0 00-6.00622 1.24518 47.042837 47.042837 0 01-40.87161-6.73867c-4.12524-1.98762-7.53385-7.94462-12.67166-3.36935a18.919891 18.919891 0 00-7.5444 16.62697c.15001 1.7626 1.27156 3.47364.14649 5.27375a36.386945 36.386945 0 01-31.12985-17.06645c1.38758-3.52522 5.98571-.31641 8.42336-5.56673-12.00073 4.20026-20.03031-3.16192-29.51838-7.32467.56253-2.81268 3.58556-1.50478 3.73557-2.92987-9.67558-18.2636-29.90922-24.88976-42.92251-39.55315 5.62534-7.61296 15.07416-11.21085 14.1366-21.974a58.70529 58.70529 0 01-23.29242-22.19372h.0733a13.308803 13.308803 0 01-2.49039-5.78649 223.5161 223.5161 0 017.10492-106.7203 123.48407 123.48407 0 0172.14791-71.34219 149.85904 149.85904 0 0156.61962-12.45192zm243.54496 2.92986c-1.65947-.33752-3.59437.31585-5.71324 1.68467-1.05006 6.37539 4.37958 5.33646 6.59222 5.7865 6.37538 6.71289-5.49 9.21209-.95223 16.18751 3.86274-7.91298 12.03062-8.6056 17.50595-13.3309 1.23758-8.62552-.54086-9.49216-13.40414-6.07945-.9938-2.60644-2.36908-3.91081-4.02856-4.24833zm24.83059 14.79584c-1.67823-.50159-3.64534.0246-5.93298 1.31844-1.76261 3.56271-6.01382 4.8536-7.25139 8.71634-.18751 3.33771 2.5929 4.3526 4.46806 6.15269h.0733a18.588372 18.588372 0 007.83737-2.12412c3.56272-2.10012 6.78438-4.19853 4.83427-9.44884-.97506-2.62516-2.35035-4.11295-4.02857-4.61451zm-3.36931 32.66796c-1.20477.75943-2.18159 2.25426-2.85663 3.7356.22501 2.58766 2.20149 3.12322 3.58907 4.2483l2.92987-.65921c1.68761-2.21264 4.1809-4.85831.80569-6.95844-1.81884-1.18132-3.26326-1.12567-4.468-.36625zm-4.02858 10.10802-2.12416.58601c.075 1.38755-1.5001 2.73939 0 4.61451 3.82522-.30002 4.2993-2.0878 2.12416-5.20052zm-19.11737.0733c-3.1502 8.58801-12.45484-1.21534-15.45503 6.88515a19.869448 19.869448 0 0112.37868 2.78338 11.209051 11.209051 0 0013.33089-3.1496c-2.92518-2.77516-7.66689-1.53113-10.25454-6.51893zm-177.40328.73245a8.440259 8.440259 0 00-6.88518 7.32464c.33752 2.70017 2.05735 4.58934 4.90752 4.10181 3.86274-.67504 7.14946-2.56714 6.81194-7.10492a4.3528875 4.3528875 0 00-4.32155-4.32153zm209.92478 8.71635a7.29644 7.29644 0 00-2.78337.36621v.0733c-1.35009 2.58761-5.77242 4.71763-1.68468 8.13034 3.3179 2.79601 6.03344.37213 8.3501-2.05089a14.913899 14.913899 0 001.83116-3.14963 7.29644 7.29644 0 00-5.71321-3.36931zm-223.03592 6.22598c-4.31276.67504-5.8984 2.79275-4.2483 8.64311 5.17531-1.68761 8.78607-2.94277 4.2483-8.64311zm179.82041 8.20362c-1.71103-.13126-3.45664.0733-5.2005.0733-7.38795 6.82541-7.06566 8.9519 2.19741 12.96465 2.02512-2.06263 2.82027-5.39392 5.93297-6.51899 1.27507-1.27507 2.80621-2.28936 1.83116-4.6145-1.42509-1.31258-3.04999-1.77318-4.76104-1.90444zm-162.24123 2.27065a1.5049658 1.5049658 0 00-1.46493 1.53819v.29297a2.4327717 2.4327717 0 002.41714 2.41713h.0732c.45003-.63754 1.35594-1.30084 1.31844-2.05089v-.14648a2.0168717 2.0168717 0 00-2.05091-2.05092zm3.36935 9.52208c-1.66885.0234-3.5926.97502-5.78648 2.34389 1.83761 4.38773 2.98729 8.53878 8.35011 6.73867a3.8901096 3.8901096 0 002.63688-3.66232 3.9328621 3.9328621 0 00-.87896-2.41713c-1.25633-2.13763-2.6527-3.02655-4.32155-3.00311zm212.19542 1.53816c-3.96587.52503-7.61472 5.0001-11.64622 13.55061h.0733c.56254 6.07537 7.38855 5.99688 10.91377 9.52209-5.66284 3.75019-14.55501.29473-15.45506 9.59529a25.77718 25.77718 0 0029.15215-10.69399c-6.56289-4.20025 2.08255-7.47994.73246-11.7927-5.49408-7.27548-9.80448-10.70633-13.77034-10.1813zm-152.35294 14.72256c-2.92518 2.47515-6.08592 4.5788-4.24831 9.22908 3.67522 2.47515 7.64519 2.67088 9.59531-1.9044 1.7251-4.27526-1.22176-6.57463-5.347-7.32468zm24.09813 16.99321c-6.37539 2.32514-7.39027 5.35758-1.46496 9.59533 3.48771-2.73766 8.06536-5.28257 1.46496-9.59533zm10.47427 3.4426c-2.28763.18751-2.93692 1.96947-2.6369 3.88208a2.4969006 2.4969006 0 002.49041 2.05089 2.8145447 2.8145447 0 00.95219-.14649 3.0185571 3.0185571 0 002.41712-3.0031v-.21976-.0732a3.2979489 3.2979489 0 00-3.14958-2.49038zm125.2517 5.42024a12.27749 12.27749 0 00-5.20051 1.17194c-4.27526 1.72511-10.77369 2.20386-8.93612 9.74182 11.88825 4.80028 19.07871 3.94711 25.41659-3.51584l-.14647-.36625a12.27749 12.27749 0 00-11.13349-7.03167zm-44.16772 21.09502a3.3782037 3.3782037 0 00-3.29608 2.78338v.0732a2.5797806 2.5797806 0 00-.14652.65922 2.9293016 2.9293016 0 002.92986 2.92986h.58598a3.3065744 3.3065744 0 003.22287-2.78334h-.0733c.22164-2.36407-1.02355-3.34509-2.56365-3.58908zm32.88771 16.55376c-6.93792 1.08757-15.95837-3.13849-19.48358 7.32464 3.15018 4.83779 8.28915 5.29427 12.45191 7.54441l.80574.0732a10.722272 10.722272 0 0011.35321-10.03478c-.75004-2.81267-3.13965-3.66994-5.12728-4.90751zm-112.65326 1.97764a13.350805 13.350805 0 00-11.86595 7.9839c9.8256 2.47515 11.51143 1.65066 14.13659-7.83741a13.350805 13.350805 0 00-2.27064-.14649zm-113.89847 106.72025a3.6658461 3.6658461 0 00-3.44259 4.02857 4.5614001 4.5614001 0 004.61454 4.5413h.0732l.58597.0732a3.3452017 3.3452017 0 003.2961-3.36935l-.0732-.65922a4.7481613 4.7481613 0 00-4.46805-4.61454 3.6658461 3.6658461 0 01-.0733 0 3.6658461 3.6658461 0 00-.51272 0zm65.11623 145.32126c-.60003 1.80011.51859 2.40484 1.83117 2.92988.48753.60003.97213 1.34306 1.68467.293l-.95221-1.02547h.0733c-.37502-1.31257-.68676-2.72243-2.63688-2.19741zm6.22596 6.8852c-1.12506 1.23757-.19981 1.98878.51273 3.07635.71254 1.08756 1.22468 2.93807 3.66233 1.02546-1.50009-1.38759-1.73741-3.50178-4.17506-4.10181zm-236.0738 10.91375a289.95961 289.95961 0 00-43.72823 2.71011c-2.32513 1.16256 2.03919 3.87563-.58597 5.71324-6.22537 1.16257-13.82719-2.03919-17.65243 5.27375.93755 4.57528 5.36751 4.57468 7.61765 7.83737-3.45021 4.42528-3.7473 8.99294 3.00311 12.81817-4.80029 2.66266-10.25453 3.44143-10.25453 9.74182 4.68778 1.98761 10.70279.61057 15.01556 4.24828-2.73767 4.27526-5.18001 8.33196-7.61766 12.23219h.0733c3.63773 7.31295 8.22121 11.2952 16.84673 9.08256a9.1321758 9.1321758 0 0112.30543 6.29922v.0733a4.2643822 4.2643822 0 003.80882 3.4426c15.26341.78755 25.34332 13.04494 39.40667 17.4327a56.802425 56.802425 0 0050.7599-2.49038 5.0871818 5.0871818 0 00.0733 0 5.0871818 5.0871818 0 012.56363-.65921l.87896.0732c7.50045 1.5001 15.47378.42951 22.48671 2.41714a26.270335 26.270335 0 0027.17449-10.47427 14.049847 14.049847 0 0114.28309-4.98078 61.69347 61.69347 0 0115.74802 4.24832l.0733.0732a16.191602 16.191602 0 0016.26074-1.02546 55.291835 55.291835 0 0128.27319-7.76414l1.61143.0732c9.45057.22502 18.89586.0323 28.34643.21973 7.27544.1125 14.69035 1.43682 19.19062-6.73867 1.12506-2.10012 4.15454-2.1101 6.59219-2.71014a19.573556 19.573556 0 0010.03479-4.17504 31.625282 31.625282 0 0122.26698-10.98701 48.302912 48.302912 0 01.21973-15.30854c2.17512-7.61295-.18515-10.97293-7.91062-11.57296-34.05207-2.58766-67.97697-6.16207-102.17904-7.32465-38.1773-1.27507-75.91395-5.71324-113.67873-10.40103a289.95961 289.95961 0 00-61.30739-7.39788zm128.47454 126.71662a19.032772 19.032772 0 00-10.47426 3.51584v-.0732a27.138512 27.138512 0 01-13.62387 6.59218c-2.17513.48753-4.48445.75474-5.347 2.92986-2.70017 6.78791-8.36828 5.85973-13.84361 5.85973-3.2252-.0375-6.66134-1.45673-9.96154 1.31843a15.57844 15.57844 0 01-8.71635 12.96465h-.0733c-.90005 4.12525 2.28705 8.21358-1.53817 10.91378-3.45021 2.4376-2.86248 6.4791-4.17506 9.7418-2.92518 7.4254.46819 14.3715.80571 21.5345a17.56606 17.56606 0 0015.0888 17.6524 252.43635 252.43635 0 0027.9802 4.468 90.059431 90.059431 0 0049.36822-1.6846 32.952112 32.952112 0 0122.34021-.9522l-.58597-.073a85.517532 85.517532 0 0010.40101 1.8311h.65923a246.92765 246.92765 0 0153.68976 9.0094l.43948.1465a58.8583 58.8583 0 0018.75114 3.0763h.21972c6.11287-.3 12.94414-.6797 15.38179-7.6176a15.665445 15.665445 0 00-4.83427-18.8976c-5.36282-4.2753-11.63741-8.7322-7.32465-17.4327l.0733-.8057a5.0253031 5.0253031 0 00-1.31847-3.4426 96.074419 96.074419 0 00-26.735-24.39111l-.43948-.14652a76.259723 76.259723 0 01-19.04411-13.03822c-5.73785-5.55033-10.03771-12.74255-17.72568-15.96775a87.051374 87.051374 0 01-36.25707-1.02546c-7.80047-2.85017-14.14714-8.75737-23.07268-3.88208-.86255.48753-2.71246-1.12915-4.17505-1.39167a19.032772 19.032772 0 00-5.93298-.73246zm89.50735 138.50927a9.4130677 9.4130677 0 00-4.54129 1.2452 70.806895 70.806895 0 01-34.20616 2.6369c-13.57582-1.4251-28.70388-7.4846-38.45447 8.7164a4.6056528 4.6056528 0 01-2.41713 1.4649c-5.38509 1.8811-6.09761 5.6467-4.90753 10.694a51.424976 51.424976 0 012.12415 14.7958 45.087094 45.087094 0 01-.21974 4.6878c-5.10031 1.5001-8.11631-7.576-13.40412-1.5382 2.02511 5.4003 9.48982 6.9467 9.30231 13.6971-.22501 3.5627-4.78271 3.5065-5.42025 7.0317.11251 2.0626 2.08548 3.084 3.73558 4.3216l.65922.1465a95.405753 95.405753 0 0140.13914 21.681 10.575638 10.575638 0 00.0733.073 10.575638 10.575638 0 011.46493 3.0031l5.20051 2.7101c3.18769.375 4.37136 4.3555 8.49661 4.468a13.529691 13.529691 0 0120.65554 1.9777 51.790624 51.790624 0 0026.44203-11.7927 45.081094 45.081094 0 001.75792-19.0441c.1875-8.1005 1.43035-9.1822 9.15582-8.0571 3.11269.45 6.06599 1.3436 8.20362-2.8566-7.12543-13.2758-18.95681-25.3967-14.86906-43.4353-6.30038-.8251-7.86669-5.1003-9.7418-9.3756a9.4130677 9.4130677 0 00-9.22907-7.2514z" style="stroke-width:37.5022"/></svg>