<svg height="960" style="" width="970" xmlns="http://www.w3.org/2000/svg"><path d="m537.20797 959.99772c-4.6511-.0893-5.43513-2.8153-7.72713-13.55156-10.96302-50.49169-16.67617-86.31448-14.51445-90.32911 1.69853-2.93376 3.2426-.15446 11.11749 18.99226 1.85289 4.63229 4.63228 10.34535 6.33072 12.97038 2.47056 4.16899 2.93376 4.32345 3.70588 1.69843.61757-1.69843.30874-7.87479-.46329-13.74231-.9264-5.86762-2.00727-17.91149-2.62493-26.86714-.61766-8.95574-1.69853-17.13946-2.62493-18.22032-2.00736-2.47046-88.32184-2.77931-89.866-.15437-3.7058 5.86752-7.10276 60.065-3.86016 60.065.9264 0 2.00726-1.23523 2.47056-2.77929.4632-1.3897 2.93376-7.41169 5.40422-13.27921 2.47056-5.86752 4.47792-11.42621 4.47792-12.50707 0-.9265 1.8529-3.39706 4.01462-5.55879l4.169-3.70579-.9264 5.40432c-.4633 2.93376-1.3897 9.57331-1.8529 14.6688-.9265 9.11022-3.39706 23.77902-7.72051 44.77863-1.23523 5.86752-3.39696 16.985-4.78666 24.70542-1.54406 7.56605-3.39696 14.82327-4.32345 15.90413-1.08087 1.54407-3.7058 1.8529-10.03652 1.08087-14.6689-1.853-29.3377-7.41168-50.02849-19.14672-16.5218-9.26459-53.73428-22.85253-85.23371-31.03624-10.19098-2.62493-21.30845-6.17635-24.55104-7.87478-5.71306-2.93376-18.68344-12.50717-27.02152-19.7644-3.86025-3.39696-4.47782-6.48518-11.73504-55.74154-1.23533-8.95575-3.39705-22.08048-4.63229-29.3377-1.23523-7.25722-3.24259-20.84515-4.63228-30.10974-3.2426-22.69805-6.63956-44.93299-9.26448-61.76353-3.08823-18.99226-6.48519-41.69041-9.26458-60.9915-1.3897-8.95574-3.39696-22.08048-4.63229-29.33769-3.24249-19.14673-3.70579-24.24222-2.77929-25.32309 1.69843-1.69843 12.8159-.9264 17.91139 1.23533 4.94112 2.00727 5.24995 2.77939 7.87488 15.74967 5.86752 30.7274 10.34534 54.66077 14.05123 75.50594 2.47046 14.05123 4.78666 26.71276 9.11011 49.41082 1.23523 6.79402 3.39696 18.99235 4.78666 27.0216 1.38969 8.02925 3.55142 18.99227 4.78665 24.24213 1.23524 5.24995 2.16174 11.11747 2.16174 12.97036 0 2.00736.9264 7.72042 2.16173 12.81591 1.23523 5.24995 3.39696 16.36733 4.78666 24.85988 1.38969 8.49245 3.55142 19.91875 4.63229 25.47744 1.23523 5.55869 2.62492 13.2792 3.08812 17.13936.4633 4.01462 2.16173 8.18372 3.55143 9.41895 3.24259 2.93376 17.44819 7.56605 19.30108 6.33082 1.54416-.9265.15447-9.57342-2.62492-16.5218-2.93376-6.79402-5.55869-15.44083-5.55869-18.06586 0-1.23523 2.93376-3.55133 6.48518-5.24985 5.71306-2.7794 24.08776-22.23485 24.39659-25.78629 0-.61766 2.00726-4.01462 4.47782-7.72041 2.47056-3.70589 7.41168-12.19834 10.96301-18.99235 3.55143-6.79392 8.18371-15.28647 10.34544-18.99226l3.70579-6.4852h16.83053c9.11012 0 17.75704-.4632 19.14673-.9264 1.69853-.61766 2.47056-2.93376 2.47056-7.56604 0-3.7058.9264-7.41168 2.16173-8.33808 1.3897-1.23533 29.49206-1.54407 102.21861-1.3897l100.21135.4632.77203 8.49254.77213 8.49245 17.91139.4632c20.84516.4633 19.45546-.4632 29.49208 18.8379 17.91139 33.96999 35.82288 57.90337 45.55065 60.83713 1.69845.61757 3.70581 2.00727 4.16901 3.24259.4632 1.23524-1.69853 9.26448-4.6323 17.9114-3.08813 8.80129-4.94102 16.21297-4.16899 16.985 1.38969 1.38969 7.10276-.15447 16.985-4.16909 4.16899-1.69843 5.09549-3.08813 6.48509-10.19099 2.47056-12.04387 6.48518-33.35232 7.87488-42.1536.61766-4.32345 2.31609-13.27911 3.55142-20.07313 5.86752-30.26409 9.11011-48.48442 10.34535-56.35921.61766-4.63229 2.00736-11.58067 2.77939-15.44093.92649-3.86025 2.77939-13.58793 4.16909-21.61719 2.62492-14.82326 5.24985-29.95536 9.26449-50.95498 1.23523-6.33073 3.39696-17.9114 4.63228-25.47745 1.3897-7.72041 3.55143-18.83788 4.63229-24.7054 1.23523-6.02199 2.47047-14.05125 3.08813-17.91141.4632-4.16908 2.16173-8.33808 3.86026-9.88214 3.08812-2.77939 20.69078-5.09549 22.08038-2.93386.77213 1.23533-.4632 9.72778-5.86752 43.08011-2.93376 18.22022-6.33072 40.91838-9.26448 60.9915-2.77939 18.99225-6.17635 41.53594-9.41894 60.9915-1.23533 7.56604-3.2426 21.15399-4.47783 30.10974-5.24995 35.35958-10.19107 67.16785-13.12484 84.92487-1.69843 9.57331-5.40422 13.74241-23.16125 26.40395-9.57341 6.79392-14.05123 8.64681-37.05812 14.6688-27.79363 7.25721-65.93262 21.61718-84.61604 31.80826-19.7644 10.96301-32.27147 15.44084-47.7124 17.4482-2.02656.27014-3.63216.45177-4.9344.42672zm154.78007-119.00307c-2.39482-.048-10.65093-5.54908-18.90693-12.82561-10.19097-9.11011-24.08784-32.27145-34.74201-58.2122-2.62493-6.63955-1.3897-6.17635-22.54369-6.33072l-16.21296-.15437-.4632-33.81561-.30884-33.81553 12.66154 1.08086c41.69041 3.55142 46.63144 3.86026 48.32996 2.47056 1.23533-.9264 2.16173-12.19834 2.93376-31.96263.61767-16.83053 1.69853-35.66842 2.3162-41.99924l1.08086-11.4262 11.58058-10.49982 11.42631-10.49981 12.3527-.4632c6.79402-.30883 13.58794.15437 15.1321.77203 3.70579 1.69853 4.01462-1.85289-10.49981 86.77778-1.23533 7.56605-3.39705 20.84515-4.63229 29.3377-1.38969 8.49245-3.39696 21.61719-4.78665 29.33761-5.71315 35.66851-6.94839 42.61691-9.11011 55.43281-1.23533 7.72042-1.8529 14.36006-1.23533 14.97763.77203.61767 3.39705 1.3897 5.86752 1.69853 4.01472.4632 4.63229 1.08086 4.47792 5.09549-.30883 7.10285-3.08823 23.77902-4.16909 24.85988-.11578.11578-.30077.16896-.54854.16406zm-412.15343-1.35772c-.17616 0-.34167-.0125-.49613-.0413-2.62493-.4632-6.63955-16.67617-6.02189-23.62456.30883-3.70579 1.23523-4.78665 5.09549-5.40432 4.47782-.77203 4.63229-1.08086 4.16899-9.26448-.15437-4.63229-1.08086-11.58067-1.8529-15.44093-.77203-3.86016-2.77929-16.67617-4.63228-28.56558-1.69844-11.8895-4.169-27.4848-5.40423-34.74201-3.70588-21.92612-6.63964-40.14635-9.26457-57.13125-3.24259-21.15408-6.48519-40.91837-9.41896-56.97688-2.31609-12.3527-2.31609-13.2792.30883-15.13209 2.93378-2.16173 20.07313-2.62493 26.40395-.77204 1.8529.61767 8.49245 5.86752 14.6688 11.88951l11.4263 10.80855 1.69844 40.764c1.3897 29.95528 2.3162 41.22712 3.86026 42.77118 2.00727 1.8529 11.27184 1.54416 47.71229-1.69843 11.42632-1.08087 11.73515-1.08087 12.66155 2.47046 1.69853 6.02199 1.23533 56.51368-.4632 60.9915l-1.69853 4.16909-16.21287-.9265-16.0586-.9264-3.86016 6.02189c-2.16172 3.39706-3.86025 6.79403-3.86025 7.56606 0 2.93376-11.58067 24.70541-19.45555 36.59491-8.22702 12.41539-23.8445 26.56974-29.30478 26.59998zm224.1633-95.43612c-6.34944 0-12.90691-.0107-19.60444-.0307-76.74118 0-97.89516-.4632-98.97603-1.8529-.61766-1.08086-1.23532-16.67616-1.23532-34.58756v-32.42582l6.33081-19.3011c6.79392-20.84525 8.64682-23.77901 15.90403-25.94074 2.62503-.77203 8.33809-2.77939 12.50718-4.47782 4.32346-1.69853 8.49245-3.24259 9.57331-3.24259 2.62493-.15447 6.63956 6.02188 6.63956 10.34534 0 2.00736 1.08086 7.87488 2.31619 13.12483 1.23523 5.24986 2.62493 11.42621 3.08813 13.74231 1.69852 8.80138 2.16172 8.95575 44.4698 8.95575 21.46282 0 39.68305-.61766 40.60955-1.23524 1.54406-1.08087 3.86016-9.11011 9.26448-32.42592 1.38969-6.17635 3.08822-11.58067 3.86025-12.04387.77203-.30884 4.63229.30883 8.64691 1.54406 21.15399 6.63965 26.71268 9.72778 26.71268 14.97773 0 1.54406.92649 5.09549 2.16173 7.87478 7.72042 17.75703 8.64692 24.70542 8.64692 60.68267 0 20.22759-.61767 34.89649-1.54407 35.51406-.67555.40531-34.92538.81062-79.37167.80227zm-312.3636-47.43371-9.11012-1.23533c-10.96301-1.3896-25.63191-8.18361-33.35232-15.74966-13.12475-12.81591-19.3011-37.52132-26.71278-106.69653-5.24986-49.87403-1.54407-90.32921 10.03661-108.08614 1.23523-1.85299 3.55142-3.39705 4.94112-3.39705 3.7058 0 4.01463 2.31619 5.09549 37.83014 1.08087 32.42593 4.169 54.35195 9.26448 64.07974 1.54407 2.93376 7.41168 10.65417 12.97037 16.98499 11.42621 12.8159 10.49981 10.03651 17.75703 54.04302 5.86753 35.35969 7.10276 43.0801 8.02925 52.34468zm591.48778-.74246c-5.91379.0893-5.92598-3.0985-3.19008-17.16893 1.23524-6.94848 3.55143-19.60993 4.94112-28.10247 1.3896-8.49245 3.39696-20.99962 4.6322-27.79354 1.08087-6.79402 2.62503-15.90414 3.08823-20.07323 1.23523-9.26448 2.3161-11.27184 9.26448-18.83788 9.11011-9.72768 16.98499-20.99952 18.99235-26.71269 3.08813-9.26457 6.48519-39.8375 7.41159-67.16785.4632-14.51443 1.08086-27.17597 1.54406-28.25683.9265-3.08813 3.39706-2.16173 7.41168 3.08822 15.74968 20.84516 16.83054 79.05726 3.08813 163.36448-5.09549 30.88186-11.11738 45.24184-22.85251 54.04312-9.88215 7.25721-20.53632 12.04387-30.41848 13.2792-1.51997.19296-2.8176.32179-3.91277.3384zm-179.70684-16.49981c-.23914-.0125-.38516-.13238-.43575-.36038-.46329-1.23524-1.85289-7.72042-3.39705-14.51445-4.94103-22.23484-8.49245-35.51395-11.73504-44.16086-1.69853-4.63229-3.7058-10.03662-4.47783-12.19835-3.24259-10.03651-13.43358-26.40393-19.91876-32.11699-7.10285-6.17635-19.14672-10.65427-46.16823-17.29383-10.03661-2.47056-8.02925-5.71316 6.63956-11.11748 6.79401-2.47046 15.90413-5.55868 20.07312-6.63955 19.60992-5.71315 60.83713-13.12473 71.9545-13.12473 3.70589 0 15.90414-1.08087 26.86715-2.3161 11.11747-1.3897 29.18333-3.55142 40.14634-4.78666 54.96952-6.48518 97.89525-20.07322 120.59331-37.83025 11.73504-9.26448 12.19833-8.64681 11.58067 15.5953-.61766 31.03623-7.72042 61.14596-16.52179 70.56492l-3.86016 4.16899-54.35195.15446c-62.22674.15437-59.13861-.46329-76.27797 15.132-4.94112 4.47792-11.27184 10.34544-14.2056 12.81591-2.77939 2.47056-6.48518 6.33081-8.02925 8.64691-2.93376 4.01463-7.56605 24.24222-7.56605 32.88913 0 6.02189-7.10286 15.90413-20.38196 28.41121-5.5201 5.26925-9.10368 7.98998-10.41898 8.07965-.0384 0-.0739 0-.10828 0zm-238.66843-1.98288c-2.78419-.0461-7.24369-3.8735-14.84343-11.81108-12.66154-13.27911-14.36007-17.13936-16.21296-38.13898-1.08087-12.19824-3.2426-15.90404-15.5953-27.63918-29.64654-28.10236-23.77892-26.40384-88.63068-26.40384-60.065 0-56.82241.61757-63.30759-12.19833-6.63965-13.12475-12.04387-45.39621-12.04387-73.03538 0-6.48519.61756-11.27184 1.54406-11.27184.77203 0 4.94102 2.47056 9.11011 5.40432 20.53632 14.82316 52.03576 26.55831 90.48358 33.81553 18.99225 3.55142 87.24097 11.73504 97.89524 11.73504 11.73505 0 53.88865 7.41158 68.86629 12.04387 20.53642 6.33081 37.83014 13.2792 37.36694 14.82326-.61756 1.69853-5.24985 3.39696-22.69804 8.02926-17.60266 4.78666-28.87451 10.80864-35.66853 19.60992-12.8159 16.0585-25.47744 50.95489-31.96262 87.54981-.83952 4.96762-1.99632 7.52573-4.3032 7.48762zm120.26306-126.38182c-1.69843 0-10.8071-4.169-24.08622-10.96301-3.55142-1.8529-31.96233-11.11776-43.54301-14.36035-20.07313-5.24986-31.50001-6.9481-101.13842-14.05085-48.02113-4.94112-85.5413-11.89105-101.59979-18.68507-2.7794-1.23523-5.71469-2.16019-6.64109-2.16019-4.01463 0-30.88062-14.5153-39.06424-21.15485-15.13209-12.19833-15.44265-13.12416-13.43539-41.8442 2.47056-35.97726 6.33255-65.47028 13.43539-104.53577 4.47783-24.55094 6.94839-37.21133 9.26448-44.93175 1.23533-4.32346 2.16029-9.11126 2.16029-10.65542 0-1.54407.92669-6.32986 2.16202-10.65332 1.23523-4.32345 3.39667-12.35299 4.78638-17.91168 6.17635-24.08775 12.97152-41.99981 19.30224-50.80109 3.55142-5.24997 14.51385-10.654 26.24889-13.4333 5.71315-1.23523 9.30442-1.85232 13.0488-1.85232 3.74439 0 7.64266.61709 13.97339 1.85232 14.36006 2.93376 35.20397 10.80952 71.02686 27.02248 14.36006 6.33072 132.33016 65.62196 143.13881 71.64385 8.64692 4.94112 13.1233 5.25206 20.07168 1.23744 8.49245-5.09549 32.42555-17.4479 77.66737-39.99159 43.69768-21.92612 60.37443-29.80157 89.55766-42.77194 5.24995-2.3161 24.55162-10.03739 33.97057-13.58881 13.12483-4.78666 26.71181-6.33053 38.44694-4.1688 11.58068 2.00736 28.41179 9.72835 29.95595 13.74299.4632 1.38969 1.69757 3.55084 2.62397 4.78608 2.62492 3.24259 10.65427 24.85987 13.89686 37.05811 1.3896 5.55878 3.39696 13.43425 4.63219 17.7577 1.08087 4.169 3.08851 12.9697 4.47821 19.30042 1.38971 6.33082 3.55105 15.74976 4.78638 20.84525 5.09549 22.69806 10.19126 51.88196 13.74269 77.97707 1.23523 9.72778 3.08841 23.62397 4.01491 30.88119 1.08086 7.25723 2.16288 23.62513 2.62617 36.28667l.92496 23.16135-7.56604 7.25626c-11.11748 10.65417-15.59444 13.74211-31.49857 21.46252-19.30109 9.41895-47.40405 16.83092-82.60926 21.92641-27.48481 4.01463-55.12456 7.25808-61.7642 7.25808-8.18363 0-51.41694 5.55783-64.07849 8.33722-27.17587 5.86752-48.33025 12.81648-67.01367 21.92659-7.72052 3.70589-14.8248 6.79431-15.90567 6.79431zm48.44132-70.21441c1.24848-.0134 2.04164-.18576 2.36007-.5042 1.54416-1.54416-.77203-14.3616-5.86752-33.81706-1.23523-4.32346-2.16202-9.72807-2.16202-12.04416 0-4.94112-4.01366-13.12359-6.6386-13.12359-.9265 0-7.7208-2.47171-14.97802-5.40547-7.25721-2.93385-14.51443-5.40432-16.21296-5.24995-1.69843 0-10.19126 2.77968-18.99254 6.3311-13.58795 5.40432-15.90472 6.94839-16.67675 10.34535-.46329 2.16173-1.85261 8.184-2.93347 13.27949-2.00736 8.64691-6.32957 28.2577-7.87363 35.66938-.9265 4.94103 2.62397 5.55687 15.2855 2.77747 15.59531-3.55142 46.16766-3.39696 62.68945 0 5.5732 1.21604 9.61701 1.76775 12.00049 1.74164zm-280.50246-17.32935c.7536 0 1.52094 0 2.30257-.01 18.99235-.15446 26.40269-.92525 40.91712-4.32221 23.77902-5.40432 27.79489-6.32995 33.19912-8.33722 2.62502-.9264 11.57952-4.17053 20.07196-7.10429 23.00689-8.33808 26.09569-10.03536 27.02219-15.43968 1.3897-7.72042-1.54349-31.49972-4.78608-39.8378-4.32346-11.11748-12.97153-22.08077-20.53758-26.5586-8.08857-4.73481-25.66944-9.95952-39.18182-12.40156a57.903319 57.903319 0 0132.99126 52.27095 57.903319 57.903319 0 01-57.90327 57.90337 57.903319 57.903319 0 01-57.90337-57.90337 57.903319 57.903319 0 0147.8514-57.02325c-.76234-.19325-1.64343-.29405-2.78871-.29405-2.89516 0-7.44931.61699-15.86457 1.85223-16.83064 2.62503-28.25752 8.18372-39.22052 19.14672-8.80128 8.80128-17.13812 23.00669-19.45431 33.66087-.61757 2.47057-2.00822 7.41255-3.24345 10.80951-1.08087 3.55143-2.16173 12.04416-2.3162 18.99255-.4632 13.89686 1.08096 16.67654 12.816 24.2425 12.56496 8.07754 22.66743 10.35696 46.02826 10.3512zm460.96531-.15897h1.47447c25.01425 0 33.50669-1.85328 48.02113-10.34573 13.12473-7.72043 15.13296-14.66824 10.8095-37.82958-8.02925-42.30798-27.64003-63.46235-63.46292-68.86667-9.07152-1.35102-12.71395-1.91866-15.30154-1.85223-.95664.025-1.77533.14707-2.66448.33715a57.903319 57.903319 0 0145.63966 56.58905 57.903319 57.903319 0 01-57.90338 57.90327 57.903319 57.903319 0 01-57.90328-57.90327 57.903319 57.903319 0 0129.13045-50.24718c-11.46778 2.29996-24.61297 5.95622-29.93569 8.76268-7.56605 3.86026-17.44973 15.12999-21.61872 24.2401-4.63229 10.34544-7.71927 26.86782-7.25607 38.60286.4633 11.27184.15408 10.96301 17.44791 17.44819 44.53489 16.87163 72.61067 23.11988 103.52296 23.16376zm-228.74855-199.49832c-2.93376 0-5.24986-1.08086-34.58757-16.36733-36.90375-19.45556-114.41694-57.7489-116.57867-57.7489-.4632 0-5.09549-2.00736-10.49981-4.47783-20.2276-9.57342-23.93339-10.96311-41.22721-16.985-19.76429-6.63965-29.33761-8.02925-46.16824-6.48518-8.64681.77203-11.4262.61766-12.04387-.9265-.9264-2.16173 15.44093-23.16125 34.27883-44.16087 22.23485-24.705411 67.78542-62.226835 92.64529-76.123605 21.46283-12.043874 39.37422-20.381956 61.76353-28.874405 3.39697-1.235329 7.72043-2.3161928 9.72779-2.4705608l3.39696-.154464v61.7635238 61.763641l4.01462 1.54407c2.3161.9264 26.24947 1.54406 56.82241 1.54406 42.46244 0 53.42555-.4632 54.81515-2.00726 1.08086-1.54416 1.85299-21.15409 2.00736-62.998871l.4632-60.8371318 4.63229.1544638c2.62492.154368 7.10284 1.080865 10.0366 2.161729 55.43272 20.536324 102.83628 52.498951 149.00452 100.52018 18.52905 19.14664 37.83015 43.54331 37.83015 47.55793 0 .77203-7.87488 1.3896-18.8379 1.3896-22.08048-.15437-30.26409 2.00736-64.54282 16.36743-31.03623 13.12474-119.20371 56.20474-160.89412 78.59407-7.25721 4.01462-14.51443 7.25721-16.05849 7.25721zm13.79337-140.72854c-4.53302 0-9.63398-.0346-15.33744-.0922l-43.0801-.4632-.4632-58.984241-.30884-59.1385048 3.39706-.617664c2.00726-.4632 6.63955-1.544065 10.49971-2.316097 16.98501-3.397056 67.93998-1.08086402 75.50594 3.551329 2.7794 1.698528 2.47056 114.2625878-.4632 116.5786778-1.12905 1.00368-10.10708 1.4977-29.74993 1.48205z" style="stroke-width:1.06667"/></svg>