<svg height="960" style="" width="1090" xmlns="http://www.w3.org/2000/svg"><path d="m531.83393-30-410.90537 402.76462 410.90537 404.84755-.42973-138.93601-269.53428-265.91154 269.96401-269.2538zm26.33213 0v133.51082l269.96401 269.2538-269.53431 265.91154-.4297 138.93601 410.90537-404.84755zm-26.33213 170.25763-224.18716 232.50699 224.18716 226.84304v-124.21818l-101.63416-105.45383 101.63416-105.45983zm26.33213 0v124.21819l101.63413 105.45983-101.63413 105.45383v124.21818l224.19314-226.84304zm-437.73287 276.84545v572.89692l94.15587-94.14988v-384.70457zm849.13362 0-94.15587 94.04247v384.70457l94.15587 94.14988zm-722.48634 126.33097v341.38068l94.12006-97.19373v-149.34472zm595.83904 0-94.12006 94.84223v149.34472l94.12006 97.19373z" style="stroke-width:3.05577"/></svg>