<svg height="960" style="" width="1020" xmlns="http://www.w3.org/2000/svg"><path d="m512.17104-30c-11.90896 0-23.81253 2.625639-36.18552 7.884154-22.27134 9.898367-55.06272 21.659352-80.42732 28.464469-9.89839 3.093251-46.40168 15.466225-80.42735 27.8392-34.02569 12.372974-69.90127 24.745948-80.4183 27.839184-19.17811 5.567844-43.30662 13.609673-87.84932 30.313193l-26.60672 9.89597v52.58814c-.61866 79.18703 26.60854 334.68292 47.02394 442.32779 11.75432 63.10214 27.21812 115.06932 37.73515 127.44222 4.33054 4.94926 8.03821 12.37841 8.03821 14.85305 0 12.37289 138.5761 140.42899 209.10204 193.63277 41.4495 31.55104 77.95034 56.91986 81.0436 56.91986 9.27973 0 179.41117-128.06333 228.90301-173.22456 77.94971-69.90743 94.65321-99.60248 120.63644-213.43382 5.56793-24.1273 9.89614-50.10756 9.89614-58.76866 0-8.66105 4.33046-43.31142 9.27973-77.33708 14.84753-101.45839 27.83908-243.74519 27.83908-306.84735 0-51.34785-1.2325-60.00711-10.51224-63.10035-17.32202-5.56784-65.57556-22.88759-79.18576-28.455432-19.79679-8.042434-54.4411-19.79736-74.2379-25.365202-9.8984-3.093236-34.02864-11.135671-52.58811-18.559461-18.55947-7.423776-42.0712-15.466211-52.58811-18.559462-24.1273-6.805117-56.29288-17.947451-82.27611-28.464469-12.37295-5.258515-24.28557-7.884154-36.19458-7.884154zm-2.85458 62.792236c3.01591 0 6.56587.467613 9.96847 1.395587 6.80511 2.474591 21.04006 6.186487 30.93843 9.279723 23.50869 6.186501 56.29107 17.940818 80.41837 27.839204 25.98324 10.51702 58.77456 21.65269 80.42732 27.83918 53.82246 15.46623 123.11406 42.68133 126.82601 50.1051 4.94913 8.66109-3.71563 116.30838-22.27497 277.77568-18.55947 164.56058-38.97195 250.55692-68.04833 288.91319-25.36459 34.02566-179.4112 161.45941-228.9031 189.91728l-19.17568 11.13741-29.69695-22.89107c-76.71243-58.15306-150.33584-123.72563-186.83613-165.79371-29.07648-34.02566-44.53485-78.57262-60.00108-168.27664-16.70351-99.60244-46.40649-387.89092-42.07595-406.45038 2.47459-9.27973 28.45905-21.02983 78.56959-35.8774 10.51703-3.09323 58.77464-19.79675 108.26654-37.11892 49.49191-17.322159 98.97956-34.025673 110.11523-37.118924 11.75436-2.474592 22.27437-6.805131 24.74899-9.279723 1.23728-.927974 3.71732-1.395587 6.73324-1.395587zm-1.44091 84.668484c-22.50698.12694-44.80552 4.41511-64.06096 13.23085-28.45782 12.99163-82.2851 70.5296-82.2851 87.2331 0 12.99163 12.37177 14.22349 42.0669 3.70646 18.55946-6.80514 21.65453-6.80393 29.69695 4.33174 4.9492 6.18649 8.6635 19.80099 8.6635 29.08073 0 15.46621 1.23671 16.69866 11.75371 10.51217 16.70352-11.13567 30.31684-2.47277 34.02871 20.41723 10.517 70.52595 12.99223 177.55401 6.80572 261.69023-3.7119 51.34785-8.66044 96.5049-11.7537 100.83551-5.56783 9.27974-23.5141 9.8984-33.41246 0-5.56784-5.56792-7.42198-3.09145-7.42198 11.13741 0 10.51705-3.70767 23.51059-8.03819 29.69704-6.80515 9.27973-11.76159 9.89952-35.27023 4.33173-15.46621-3.71181-29.69636-6.80566-32.17094-6.80566-9.27973 0-4.94919 19.17983 9.27971 38.97662 25.36461 36.5003 49.49192 53.82175 92.79731 67.4321 41.44949 12.37288 43.92468 12.37231 81.04359 2.47406 41.44943-11.75451 79.19433-40.21408 100.22829-76.09572 14.22901-25.98323 6.79916-35.25872-21.65871-26.59765-27.83918 8.04243-43.9246-1.24028-43.9246-24.74889 0-19.17813-10.51164-24.12443-22.26597-12.37005-19.79675 19.79678-33.41244-61.86487-33.41244-194.87434 0-132.39079 14.22769-220.23951 32.78711-201.68005 12.37304 12.37297 22.8913 7.42198 22.8913-11.13749 0-25.98324 14.22824-35.26782 39.59285-26.60672 27.22056 9.89837 34.64502 9.28033 34.64502-2.474 0-9.89838-31.54818-54.43323-49.48894-69.2808-25.51926-21.26604-63.60481-32.62707-101.11645-32.41561z" style="stroke-width:1.41666"/></svg>