<svg height="960" style="" width="1200" xmlns="http://www.w3.org/2000/svg"><path d="m574.95652 669.91304c-12.52174 40.69566-14.60869 110.6087-4.17391 121.04348 13.56522 13.56522 49.04348 16.69565 75.13043 6.26087 20.86957-8.34782 21.91305-31.30435 2.08696-38.60869-7.30435-3.13044-24-27.13044-37.56522-53.2174-24-51.13043-29.21739-56.34782-35.47826-35.47826zm-24-506.08695c-17.73913 6.26087-16.69565 31.30434 1.04348 37.56521 7.30435 3.13044 25.04348 27.13044 37.56522 54.26087 12.52174 27.13044 27.13043 44.86957 31.30435 39.65218 13.56521-14.6087 18.7826-115.82609 6.26086-128.34783-10.43478-10.43478-53.21739-12.52174-76.17391-3.13043zm17.73913-153.39131c0 13.56522-424.69565 438.26087-438.26087 438.26087-5.21739 0-10.43478 9.39131-10.43478 20.86957 0 20.86956 459.13043 490.43478 480 490.43478 12.52174 0 480-466.43478 480-480 0-20.86957-469.56522-480-490.43478-480-11.47826 0-20.86957 4.17391-20.86957 10.43478zm86.6087 99.13044c43.82608 41.73913 44.86956 44.86956 20.86956 62.60869-16.69565 12.52174-16.69565 14.6087 0 39.65218 9.39131 15.65217 17.73913 45.91304 17.73913 69.91304 0 56.34783 20.86957 54.26087 46.95653-5.21739 11.47826-26.08696 25.04347-45.91304 31.30434-43.82609 17.73913 6.26087 17.73913 67.82609 1.04348 92.86957-18.78261 27.13043-21.91304 60.52174-5.21739 60.52174 6.26087 0 30.26087-14.6087 53.21739-32.34783 28.17391-22.95652 43.82609-30.26087 52.17391-21.91304 7.30435 7.30434 7.30435 14.60869-1.04347 25.04348-73.04348 88.69565-73.04348 87.65217-6.26087 92.86956 40.69565 4.17391 41.73913 3.13044 44.86956-30.26087 2.08696-20.86956 9.39131-33.3913 18.78261-33.3913 8.34783 0 14.6087 4.17391 14.6087 8.34782 0 5.21739 13.56521 22.95652 31.30434 39.65218 16.69566 16.69565 31.30433 36.52174 31.30433 43.82608 0 15.65218-71.99998 96-85.5652 96-4.17391 0-8.34782-16.69565-8.34782-36.52174 0-41.73913 0-41.73913-69.91305-20.86956-82.43478 24-80.34782 57.3913 2.08696 57.3913 19.82609 0 38.6087 5.21739 41.73913 10.43479 11.47826 18.7826-49.04348 33.3913-106.43478 26.08695-64.69565-8.34782-74.08696 8.34783-24 41.73913 17.73913 11.47826 30.26087 28.17392 28.17391 36.52174-4.17391 21.91305-59.47826 14.6087-83.47826-11.47826-10.43478-10.43478-22.95652-19.82609-28.17391-19.82609-15.65218 0-11.47826 55.30435 5.21739 77.2174 27.13043 35.47826 18.78261 72-25.04348 113.73913-22.95652 20.86956-46.95652 38.60869-55.30435 38.60869-8.34782 0-33.3913-18.78261-55.30434-42.78261-39.65218-39.65217-40.69566-42.78261-21.91305-56.34782 17.73913-13.56522 17.73913-15.65218 2.08696-38.6087-9.39131-12.52174-16.69565-43.82609-16.69565-67.82609 0-59.47826-20.86957-58.43478-46.95653 2.08696-11.47826 26.08696-25.04347 44.86957-31.30434 43.82609-17.73913-6.26087-18.78261-85.56522 0-101.21739 17.73913-14.6087 21.91304-52.17392 5.21739-52.17392-12.52174 0-74.08696 41.73913-85.56522 57.39131-5.21739 6.26087-12.52174 5.21739-19.82609-2.08696-10.43478-10.43478-9.3913-16.69565 4.17392-32.34782 9.3913-10.43479 17.73913-22.95653 17.73913-27.13044s14.60869-19.82609 31.30435-34.43478c28.17391-22.95652 41.73913-55.30435 24-55.30435-3.13044 0-31.30435 8.34783-62.6087 17.73913-50.08696 15.65217-55.30435 20.86957-55.30435 46.95652 0 15.65218-4.17391 29.21739-10.43478 29.21739-15.65217 0-82.43478-76.17391-82.43478-93.91304 0-18.78261 66.78261-93.91304 83.47826-93.91304 8.34782 0 10.43478 14.60869 6.26087 42.78261-4.17392 32.34782-2.08696 43.82608 10.43478 48 9.3913 4.17391 19.82609-1.04348 26.08696-10.43479 5.21739-10.43478 17.73913-17.73913 28.17391-17.73913s32.34783-10.43478 46.95652-21.91304c34.43478-27.13044 21.91304-40.69565-37.56522-40.69565-20.86956 0-41.73913-5.21739-44.86956-10.43479-11.47826-18.7826 49.04348-33.3913 107.47826-26.08695 62.60869 7.30435 68.86956-2.08696 22.95652-39.65218-43.82609-36.52174-42.78261-64.69565 2.08696-55.30434 17.73913 3.13043 41.73913 15.65217 52.17391 27.13043s24 20.86957 29.21739 20.86957c16.69565 0 11.47826-58.43479-5.21739-73.04348-29.21739-24-18.78261-74.08696 22.95652-116.86957 20.86957-21.91304 45.91305-39.65217 55.30435-39.65217 8.34783 0 33.3913 16.69565 55.30435 36.52174z" style="stroke-width:1.04348"/></svg>