<svg height="960" style="" width="1114" xmlns="http://www.w3.org/2000/svg"><path d="m909.27075 557.97703c-8.749 3.8725-13.482 6.5976-19.3625 11.0438-6.5976 4.8765-16.494 16.7809-16.494 19.7928 0 1.1474-.7171 2.7251-1.4342 3.4422-2.4383 2.4383-5.7371 17.3546-5.7371 25.6733 0 31.8405 22.5179 57.9441 53.7848 62.5337 15.0597 2.1514 26.6772.1434 42.1672-7.1713 6.4542-3.0119 21.6573-18.2151 24.6692-24.6693 6.7411-14.3426 7.0279-15.7768 7.0279-30.6931 0-14.1992-1.1474-19.9362-5.8804-27.9681-.7172-1.1474-1.8646-3.4422-2.5817-5.1633-1.7211-3.7291-18.6454-20.6533-20.7968-20.6533-1.004 0-2.4382-.7172-3.2988-1.5777-1.004-1.004-5.1633-2.8685-9.3227-4.3028-9.7529-3.5857-35.1393-3.7291-42.7409-.2869zm-745.8149-64.5416c-3.5856 1.2908-7.4581 2.7251-8.6055 3.4422s-3.4422 1.8645-5.1634 2.5817c-6.741 3.0119-20.3664 17.4979-24.8126 26.3903-4.3028 8.749-4.4463 9.4661-4.4463 28.5418 0 22.231.8606 24.9561 11.0438 38.5816 6.1674 8.3187 16.2072 15.7768 27.6813 20.7967 8.8924 3.8725 40.4461 4.016 45.8963.1435 1.8645-1.2909 4.4462-2.4383 5.4501-2.4383 3.2988 0 18.502-12.6215 23.6653-19.6493 9.1793-12.7649 11.3307-19.506 11.4741-36.4302.1434-14.7729-1.2908-21.5139-6.3107-29.976-.7172-1.1475-1.8646-3.4423-2.5817-5.02-2.8685-6.1673-20.6533-21.5138-28.1115-24.2389-16.494-5.8805-33.2748-6.8845-45.1792-2.7251zm748.6834-77.45c-47.0437 16.3505-61.0994 70.4221-27.3943 105.5615 3.5856 3.8725 7.8884 7.6015 9.4661 8.3187 1.5777.7171 3.8725 1.8645 5.0199 2.5816 11.3306 6.4542 11.9043 6.5976 30.8366 6.5976 18.0716-.1434 18.9322-.1434 28.2549-4.733 12.478-6.1674 24.3824-17.9283 30.2629-30.2629 4.0159-8.4621 4.5896-11.0438 5.0199-25.0995.5737-16.0638.1434-17.6414-6.7411-32.2709-3.0119-6.4542-18.215-21.9442-24.5258-25.0995-16.3505-8.0319-36.4302-10.3267-50.1991-5.5936zm-791.8546-.7172c-.7171 10.9004.7172 18.3586 4.8765 26.8207 15.2032 30.1194 52.9242 42.8843 84.9082 28.6852 9.0358-4.016 23.6652-16.9243 26.6772-23.5219.7171-1.5777 1.8645-3.8725 2.5817-5.0199 3.1553-5.1633 5.737-14.1992 6.1673-20.7967l.4302-7.1713-62.6771-.4303c-49.7688-.2869-62.8206 0-62.964 1.4342zm54.0716-37.0039c-3.0119 4.5897-2.8685 6.5976.5737 10.6136 4.0159 4.733 12.1912 4.0159 15.49-1.5777 2.1514-3.5857 2.1514-4.3028.2869-7.8884-1.7212-3.012-3.4423-4.016-8.0319-4.3028-5.0199-.4303-6.3107.1434-8.3187 3.1553zm749.544-8.7489c-3.8725 4.1593-4.016 8.7489-.2869 12.478 8.3187 8.3187 20.3665-2.8685 13.482-12.6215-2.8685-4.1593-9.1792-4.1593-13.1951.1435zm-749.544-42.8844c-3.0119 4.5896-2.8685 6.5976.5737 10.6135 4.0159 4.7331 12.1912 4.016 15.49-1.5777 2.1514-3.5856 2.1514-4.3027.2869-7.8884-1.7212-3.0119-3.4423-4.0159-8.0319-4.3028-5.0199-.4302-6.3107.1435-8.3187 3.1554zm749.544-8.749c-5.5937 6.0239-3.1554 13.1952 4.8764 14.7729 8.4622 1.5777 13.4821-7.4582 8.3187-14.9163-2.8685-4.1594-9.1792-4.1594-13.1951.1434zm-749.544-42.8843c-3.0119 4.5896-2.8685 6.5976.5737 10.6135 4.0159 4.733 12.1912 4.0159 15.49-1.5777 2.1514-3.5856 2.1514-4.3028.2869-7.8884-1.7212-3.012-3.4423-4.016-8.0319-4.3028-5.0199-.4303-6.3107.1434-8.3187 3.1554zm749.544-8.749c-3.8725 4.1593-4.016 8.749-.2869 12.478 8.3187 8.3187 20.3665-2.8685 13.482-12.6214-2.8685-4.1594-9.1792-4.1594-13.1951.1434zm0-55.9361c-6.3108 6.5976-2.1514 15.3465 7.1713 15.3465 7.8884 0 11.1872-9.3226 5.4501-15.49-3.8725-4.0159-8.7489-4.0159-12.6214.1435zm-51.0597 1.1474c-4.4462 5.3067-4.5896 5.5936-.7171 10.4701 5.737 7.3147 17.0677 3.5856 17.0677-5.5936 0-3.8725-5.7371-9.3227-9.6096-9.3227-1.7211 0-4.733 2.0079-6.741 4.4462zm-51.4899-1.1474c-4.5896 3.8725-4.8765 8.6055-1.004 12.478 2.8685 2.8685 9.3227 3.7291 12.3347 1.7211 3.8725-2.5816 5.0199-7.3147 2.8685-11.6175-3.5857-6.741-8.4622-7.6015-14.1992-2.5816zm-52.3505 0c-6.1673 6.5976-2.1513 15.3465 6.8845 15.3465 5.0199 0 7.0279-1.5776 8.0318-6.5975.5737-3.012 0-5.3068-2.2948-8.1753-3.729-4.7331-8.4621-5.0199-12.6215-.5737zm-51.6333-.4303c-2.5817 2.1514-3.2988 3.8725-2.8685 8.1753.2868 4.4462 1.1474 5.5936 4.4462 6.741 2.4382.8605 5.3068.8605 7.8884 0 3.2988-1.1474 3.8725-2.2948 4.3028-7.3147.2868-4.7331-.1434-6.3108-2.8685-8.1753-4.1594-3.012-6.8845-2.8685-10.9004.5737zm-335.4733-.4303c-4.3027 3.012-4.5896 12.4781-.5737 14.7729 3.8725 2.0079 9.1793 1.8645 12.3347-.5737 3.8725-2.7251 3.4422-10.6135-.5737-14.0558-4.016-3.1553-6.8845-3.1553-11.1873-.1434zm-52.6373.2869c-1.7211 1.8645-2.2948 4.5896-2.0079 8.1752.2868 4.5897 1.1474 5.7371 4.4462 6.8845 2.4382.8605 5.3067.8605 7.8884 0 3.1554-1.1474 4.0159-2.2948 4.3028-6.741.4302-4.3028-.2869-6.0239-2.8686-8.1753-4.1593-3.5857-8.6055-3.5857-11.7609-.1434zm-52.4939.1434c-5.8804 5.8805-2.4382 15.7768 5.4502 15.7768 9.4661 0 13.6255-9.3226 7.0279-15.49-4.1594-3.8725-8.749-4.0159-12.4781-.2868zm-52.3504.7171c-4.016 3.8725-4.3028 5.3068-2.008 9.753 2.2948 4.1593 4.0159 5.3067 8.6055 5.3067 4.016 0 9.8964-5.3067 9.8964-9.0358 0-3.2988-6.741-9.6095-10.1832-9.6095-1.5777 0-4.4462 1.5777-6.3107 3.5856zm-48.7649 0c-4.4462 4.5897-4.5896 7.8884-.2868 11.9044 4.1593 3.8725 10.1832 4.0159 13.9123.2868 3.8725-3.8725 3.5856-7.3147-.7171-12.0478-4.3028-4.733-8.1753-4.733-12.9084-.1434zm136.3981-329.4494c-.4303.7172.7171 3.4423 2.4382 6.1674 5.7371 9.1792 6.5976 10.6135 7.745 12.764904.5737 1.1474 3.7291 6.5976 6.8845 12.1912 3.2988 5.4502 6.3107 11.0438 6.8844 12.1912s2.2948 4.0159 3.8725 6.4541c1.5777 2.2949 3.4423 5.5937 4.3028 7.1713.8606 1.5777 2.7251 4.7331 4.3028 7.1713 1.5777 2.2948 3.2988 5.3068 3.8725 6.4542s3.7291 6.741 7.1713 12.3346 6.1673 10.6136 6.1673 11.0438c0 .5737 1.7211 3.2988 3.7291 6.310796 2.0079 3.0119 4.3028 6.741 5.0199 8.3187s2.5817 4.733 4.1593 7.1713c1.5777 2.2948 3.4423 5.5936 4.3028 7.1713.8606 1.5777 2.2948 4.1593 3.2988 5.737s5.3068 9.0358 9.6096 16.494c4.3027 7.4581 8.6055 14.9163 9.6095 16.494s2.4382 4.3028 3.1554 6.0239c.7171 1.5776 2.1513 3.4422 3.0119 4.0159 4.7331 2.8685-3.8725 3.5856-45.1792 3.5856-24.8127 0-45.3226.4303-45.6094 1.004-.2869.7171.5737 3.012 2.0079 5.4502 1.4343 2.2948 3.2988 5.5936 4.1594 7.1713s2.7251 4.7331 4.3028 7.1713c1.5777 2.2948 3.2988 5.3068 3.8725 6.4542 1.1474 2.5816 16.9242 29.8326 19.0756 32.9879.8606 1.1474 2.1514 3.4423 2.8685 5.0199.8606 1.5777 2.7251 4.7331 4.3028 7.1713 1.5777 2.2949 3.4422 5.5936 4.3028 7.1713s2.7251 4.7331 4.3028 7.1713c1.5777 2.2948 3.2988 5.3068 3.8725 6.4542s3.7291 6.5976 6.8844 12.1912c3.2988 5.4502 6.3108 11.0438 6.8845 12.1912s2.2948 4.0159 3.8725 6.4542c1.5777 2.2948 3.4422 5.5936 4.3028 7.1713.8605 1.5777 2.725 4.733 4.3027 7.1713 1.5777 2.2948 3.2988 5.3067 3.8725 6.4541s3.7291 6.7411 7.1713 12.3347 6.1673 10.6135 6.1673 11.0438c0 .5737 1.7212 3.2988 3.7291 6.3107 2.008 3.0119 4.3028 6.741 5.0199 8.3187.7172 1.5777 2.5817 4.7331 4.1594 7.1713 1.5777 2.2948 3.2988 5.3068 3.8725 6.4542s5.5936 9.8964 11.1872 19.3625 10.6135 18.2151 11.1872 19.3625 2.2948 4.0159 3.8725 6.4541c1.5777 2.2949 3.4422 5.5937 4.3028 7.1713.8606 1.5777 2.2948 4.1594 3.2988 5.7371s5.3068 9.0358 9.6095 16.494c4.3028 7.4581 8.6056 14.9163 9.6096 16.4939 1.004 1.5777 2.4382 4.1594 3.2988 5.7371.8605 1.5777 2.7251 4.733 4.3027 7.1713 1.5777 2.2948 3.4423 5.5936 4.3028 7.1713.8606 1.5777 2.7251 4.733 4.3028 7.1713 1.5777 2.2948 3.2988 5.3067 3.8725 6.4541s3.7291 6.5976 6.8845 12.1912c3.2987 5.4502 6.3107 11.0438 6.8844 12.1912.5737 1.1475 2.2948 4.016 3.8725 6.4542 3.2988 4.8765 3.4422 5.4502 5.5936 12.0478s2.2948 384.9552.1434 388.9711c-1.4342 2.4383-3.2988 2.7251-23.3784 2.7251-15.2031 0-22.5179.5737-23.6653 1.7211-1.1474 1.1475-1.7211 8.6056-1.7211 24.3825v22.6613h-67.2668c-53.7847 0-67.5536.4302-68.701 1.8645-1.004 1.1474-1.8645 10.1832-2.0079 21.94417l-.4303 19.9362h-76.7329-76.7329v-73.14727-73.1472l5.7371-.8605c9.6095-1.2909 21.6573-8.1753 31.2668-17.498 8.6056-8.6056 11.6175-12.3346 13.3386-16.7808.4303-1.1475 1.8646-4.5897 3.1554-7.6016 1.5777-3.8725 2.1514-9.8964 2.1514-20.7968 0-14.3426-.4303-16.0637-4.7331-25.2429-3.1553-6.7411-7.6015-12.765-13.6254-18.6454-8.3187-8.3187-10.9004-10.0398-24.0956-15.7769-7.1713-3.0119-34.5656-3.2988-41.4501-.2868-2.5816 1.1474-5.737 2.4382-6.8844 3.0119-8.1753 3.2988-16.7809 10.3267-23.3785 19.0757-10.3266 13.7689-11.0438 16.494-11.0438 38.725 0 21.0836.2869 21.9441 8.8925 35.5696 7.6015 11.9044 29.4023 26.3904 39.5855 26.3904 2.1514 0 4.7331.7171 5.7371 1.7211 1.2908 1.2908 1.7211 25.6732 1.7211 101.1153v99.39417l380.509-.2869 380.3656-.4303.4302-100.11127c.2869-78.454.7172-99.9679 2.1514-99.9679.8606 0 13.3386-.2868 27.5378-.4302l25.8167-.2869-.1434-7.8884c-.1435-9.3227-2.1514-15.0597-9.1793-25.8167-5.4502-8.1753-21.9442-22.8047-25.8167-22.9481-1.2908 0-3.8725-1.1474-5.737-2.4383-2.8685-2.0079-6.8845-2.4382-21.5139-2.4382-17.498 0-18.2151.1434-27.6812 4.8765-9.1793 4.5896-23.9521 16.7808-25.9601 21.5139-.4303 1.1474-2.4382 4.8764-4.3028 8.1752-3.7291 6.4542-7.745 24.0956-6.0239 25.8167.5737.7171 13.6255 1.2908 28.8286 1.5777 27.1075.4303 27.6813.5737 28.5418 3.5856.4303 1.7211.8606 33.8486.8606 71.4262 0 51.05957-.4303 68.55747-1.7211 69.84837-1.2909 1.2908-20.2231 1.7211-76.5895 1.7211-41.1632 0-75.8723-.4303-77.1632-.8606-2.0079-.7171-2.2948-3.8725-2.2948-20.5099 0-13.33857-.5737-20.22297-1.7211-21.37037-1.2908-1.2909-18.5019-1.7211-68.8444-1.7211-52.6373 0-67.1234-.4303-67.1234-1.8646-.1434-.8605-.1434-11.0438 0-22.231.1435-13.7689-.4302-21.227-1.5777-22.6613-1.2908-1.5777-6.4541-2.008-23.5218-2.008-18.6454 0-22.0876-.2868-22.8047-2.2948-.4303-1.2908-.8606-90.3583-.8606-197.9278v-195.7764l4.1594-7.4581c2.2948-4.1594 5.5936-10.0398 7.3147-13.1952s4.3028-7.745 5.8805-10.0398c1.4342-2.4383 3.2987-5.5936 4.1593-7.1713s2.7251-4.8765 4.3028-7.1713c1.5777-2.4383 3.2988-5.3068 3.8725-6.4542 1.1474-2.5817 16.9242-29.8326 19.0756-32.988.8606-1.1474 2.1514-3.4422 2.8686-5.0199.8605-1.5777 2.725-4.8765 4.3027-7.1713 1.5777-2.4382 3.2988-5.3067 3.8725-6.4541s5.5936-9.8964 11.1873-19.3625c5.5936-9.4661 10.6135-18.2151 11.1872-19.3625s2.2948-4.1594 3.8725-6.4542c1.5777-2.4382 3.2988-5.3068 3.8725-6.4542s5.5936-9.8964 11.1872-19.3625 10.6135-18.2151 11.1872-19.3625 2.2948-4.1593 3.8725-6.4541c1.5777-2.4383 3.4422-5.5937 4.3028-7.1713.8606-1.5777 2.7251-4.8765 4.3028-7.1713 1.5777-2.4383 3.4422-5.5936 4.1593-7.3148.7172-1.5776 3.8725-7.1713 6.8845-12.1912 3.1553-5.0199 6.0239-10.1832 6.5976-11.3306s2.2948-4.1594 3.8725-6.4542c1.5777-2.4382 3.4422-5.5936 4.3027-7.1713.8606-1.5777 2.7251-4.8765 4.3028-7.1713 1.5777-2.4382 3.2988-5.3067 3.8725-6.4541s3.5857-6.7411 6.8845-12.1912c3.1553-5.5937 6.3107-11.0438 6.8844-12.1912.5737-1.1475 2.2948-4.1594 3.8725-6.4542 1.5777-2.4383 3.4422-5.5936 4.3028-7.1713s2.7251-4.8765 4.3028-7.1713c1.5777-2.4383 3.4422-5.5936 4.3028-7.1713.8605-1.5777 3.1553-5.737 5.3067-9.3227 2.008-3.5856 4.7331-8.4621 6.0239-10.7569 1.2908-2.4383 3.5856-6.0239 5.0199-8.1753s2.1514-4.5896 1.5777-5.4502-15.9203-1.4343-45.1792-1.4343c-24.3824 0-44.6054-.5737-45.0357-1.2908s.1434-2.008 1.2908-3.0119c1.1474-1.004 2.1514-2.4383 2.1514-3.1554 0-.8606 2.7251-6.1673 6.1673-11.7609 3.4422-5.5937 6.5976-11.1873 7.1713-12.3347s2.2948-4.1593 3.8725-6.4541c1.5777-2.4383 3.4422-5.5936 4.3028-7.1713.8605-1.5777 2.7251-4.8765 4.3028-7.1713 1.5777-2.4383 3.2988-5.3068 3.8725-6.4542 1.1474-2.5817 12.7649-22.661296 14.7728-25.816696.8606-1.1474 2.1514-3.4422 2.8686-5.0199.8605-1.5777 2.7251-4.8765 4.3027-7.1713 1.5777-2.4382 3.4423-5.5936 4.3028-7.1713.8606-1.5777 2.7251-4.8765 4.3028-7.1713 1.5777-2.4382 3.2988-5.3067 3.8725-6.4541s4.5896-8.3187 9.0358-15.7769c4.4462-7.4581 8.4622-14.6294 9.0359-15.7768s2.2948-4.1594 3.8725-6.4542c1.5776-2.438204 3.4422-5.593604 4.3027-7.171304.8606-1.5777 2.7251-4.8765 4.1594-7.1713 1.4343-2.4382 2.2948-4.7331 2.008-5.4502-.8606-1.4342-484.9231-1.2908-485.7837.1434zm109.8643 190.6131c1.1474 1.4343 4.3028 6.4542 7.0278 11.1872 2.7251 4.7331 5.5937 9.8964 6.5976 11.4741 1.004 1.5777 2.4383 4.1594 3.2988 5.737.8606 1.5777 2.7251 4.7331 4.3028 7.1713 1.5777 2.2949 3.4422 5.5937 4.3028 7.1713.8605 1.5777 2.7251 4.7331 4.3028 7.1713 1.5777 2.2949 3.2988 5.3068 3.8725 6.4542s3.729 6.5976 6.8844 12.1912c3.2988 5.4502 6.3108 11.0438 6.8845 12.1912s2.2948 4.0159 3.8725 6.4542c1.5776 2.2948 3.4422 5.5936 4.3027 7.1713.8606 1.5777 2.7251 4.733 4.3028 7.1713 1.5777 2.2948 3.2988 5.3067 3.8725 6.4541.5737 1.1475 3.7291 6.7411 7.1713 12.3347s6.1673 10.6135 6.1673 11.0438c0 .5737 1.7211 3.2988 3.7291 6.3107 2.008 3.012 4.3028 6.741 5.0199 8.3187s2.5817 4.7331 4.1594 7.1713c1.5776 2.2948 3.2988 5.3068 3.8725 6.4542s3.4422 6.3107 6.5976 11.3306c9.6095 15.9203 9.6095 15.49 9.6095 84.4779v62.1034l-2.8685-1.5776c-1.7211-.8606-3.5857-3.012-4.4462-4.7331-.7172-1.7211-2.5817-5.1633-4.1594-7.4581-1.5777-2.4383-3.2988-5.3068-3.8725-6.4542s-4.5896-8.3187-9.0358-15.7769c-4.4462-7.4581-8.4621-14.6294-9.0359-15.7768-.5737-1.1474-2.2948-4.1594-3.8725-6.4542-1.5776-2.4382-3.4422-5.5936-4.3027-7.1713-.7172-1.5777-2.2948-4.1593-3.1554-5.737-3.4422-5.3068-8.8924-14.3426-11.3306-18.6454-1.2909-2.4382-4.016-7.1713-6.0239-10.7569-2.1514-3.5857-4.4462-7.745-5.3068-9.3227s-2.7251-4.8765-4.3028-7.1713c-1.5777-2.4383-3.4422-5.5936-4.3028-7.1713-.8605-1.5777-2.725-4.8765-4.3027-7.1713-1.5777-2.4383-3.2988-5.3068-3.8725-6.4542s-3.7291-6.741-6.8845-12.1912c-3.2988-5.5936-6.3107-11.0438-6.8844-12.1912s-2.2948-4.1593-3.8725-6.4542c-1.5777-2.4382-3.4422-5.5936-4.3028-7.1713-.8606-1.5776-2.7251-4.8764-4.3028-7.1713-1.5777-2.4382-3.2988-5.3067-3.8725-6.4541s-5.5936-9.8964-11.1872-19.3625-10.6135-18.2151-11.1872-19.3625-2.2948-4.1594-3.8725-6.4542c-1.5777-2.4382-3.4422-5.5936-4.3028-7.1713-.7171-1.5777-2.008-3.8725-2.8685-5.0199-2.1514-3.1554-17.9283-30.4063-19.0757-32.988-.5737-1.1474-2.2948-4.1593-3.8725-6.4541-1.5777-2.4383-3.4422-5.5936-4.3028-7.1713-.8605-1.5777-2.725-4.8765-4.3027-7.1713-1.5777-2.4383-3.4423-5.5936-4.3028-7.1713-.8606-1.5777-2.4382-4.4462-3.5857-6.3108-1.0039-2.0079-1.7211-4.1593-1.2908-4.733s17.6414-1.1474 38.4382-1.1474c34.1353 0 37.8644.2868 39.8724 2.4382zm343.9354.2869c0 1.4342-1.004 3.4422-2.1514 4.4462s-2.1514 2.2948-2.1514 2.8685c0 .7171-3.7291 7.6016-8.3187 15.3466s-8.749 15.0597-9.3227 16.2071-2.2948 4.0159-3.8725 6.4542c-1.5777 2.2948-3.4422 5.5936-4.3028 7.1713-.7171 1.5776-2.0079 3.8725-2.8685 5.0199-2.1514 3.2988-22.231 37.721-23.3784 40.1592-.5737 1.1474-2.2948 4.016-3.8725 6.4542-1.5777 2.2948-3.4422 5.5936-4.1594 7.1713-.7171 1.5777-3.0119 5.3068-5.0199 8.3187-2.0079 3.0119-3.7291 5.737-3.7291 6.3107 0 .4303-2.725 5.4502-6.1673 11.0438-3.4422 5.5936-6.5976 11.1873-7.1713 12.3347s-2.2948 4.0159-3.8725 6.4541c-1.5777 2.2948-3.4422 5.5936-4.3027 7.1713-.8606 1.5777-2.7251 4.7331-4.3028 7.1713-1.5777 2.2948-3.2988 5.3068-3.8725 6.4542s-3.5857 6.5976-6.8845 12.1912c-3.1553 5.4502-6.3107 11.0438-6.8844 12.1912s-2.2948 4.0159-3.8725 6.4542c-1.5777 2.2948-3.4422 5.5936-4.3028 7.1713-.8605 1.5777-2.7251 4.733-4.3028 7.1713-1.5777 2.2948-3.4422 5.5936-4.3027 7.1713-.8606 1.5776-3.4423 6.0239-5.7371 10.0398-2.4382 3.8725-5.3067 9.0358-6.4542 11.4741-1.2908 2.2948-3.4422 6.1673-5.0199 8.6055-1.5776 2.2948-3.4422 5.5936-4.3027 7.1713-.8606 1.5777-2.7251 4.7331-4.3028 7.1713-1.5777 2.2948-3.4422 5.5936-4.3028 7.1713s-2.8685 5.1633-4.5896 7.8884c-1.5777 2.7251-4.4462 7.6016-6.0239 10.757-5.1634 9.4661-8.3187 13.6254-9.6096 12.7649-.7171-.4303-1.2908-28.8286-1.2908-64.6851 0-70.2787-.4303-65.6891 8.749-80.0317 1.4343-2.4382 3.2988-5.5936 4.1593-7.1713.8606-1.5777 2.7251-4.8765 4.3028-7.1713 1.5777-2.4382 3.7291-6.3107 5.0199-8.6055 1.1474-2.4383 4.016-7.6016 6.4542-11.4741 2.2948-4.0159 4.8765-8.4621 5.737-10.0398.8606-1.5777 2.7251-4.8765 4.3028-7.1713 1.5777-2.4383 3.4422-5.5936 4.3028-7.1713.8605-1.5777 2.7251-4.8765 4.3028-7.1713 1.5777-2.4383 3.2988-5.3068 3.8725-6.4542 1.1474-2.5817 16.9242-29.8326 19.0756-32.988.8606-1.1474 2.1514-3.4422 2.8685-5.0199.8606-1.5776 2.7251-4.8764 4.3028-7.1713 1.5777-2.4382 3.2988-5.3067 3.8725-6.4541s5.7371-10.1833 11.4741-19.9362c5.737-9.6096 10.4701-17.9283 10.4701-18.3586 0-.2868 1.1474-2.1513 2.5817-4.0159l2.4382-3.4422 38.4381-.1434c36.5737 0 38.2948.1434 38.2948 2.7251z" style="stroke-width:.143426"/></svg>