<svg height="960" style="" width="1062" xmlns="http://www.w3.org/2000/svg"><path d="m597.79309 848.10568c-.74253 3.54387-1.55255 7.02023-2.43008 11.1041l5.13016 9.55154-2.59883 2.39633-23.86199-21.1619c-7.66149 20.41938-7.66149 20.41938 11.1041 64.66699-5.36642-2.29507-10.12532-2.80133-11.57661-5.26516-6.85147-11.40785-14.10794-22.10694-26.22456-28.62088l-9.7878 2.86884c-7.999-11.27285-16.16676-22.71445-24.77327-34.83108l-34.08855 17.41554c1.14753 7.15522 2.16006 13.26416 3.57761 22.10693l-19.2381 6.10894c-7.72898-23.65949-11.88037-47.18396-29.56592-66.2533-15.72798-4.42139-25.81954-16.87552-32.70475-33.34603-6.10894-14.64795-19.57561-23.11947-32.36725-36.51862v155.05228c-55.35171 37.19362-112.55973 71.856-171.48905 105.607 1.5863-2.7339 3.20635-5.0964 4.99516-7.324l-.0676.1017c23.08571-24.6383 46.7452-48.63528 69.29089-73.88104 10.19281-11.44161 19.64311-24.03076 28.01337-37.39617l.67502-1.18128c6.5477-9.88906 10.42907-22.00568 10.42907-35.03358 0-.87753-.0338-1.72131-.0675-2.56509v.13501c-.33751-7.32397-2.59883-16.06549.43877-21.83693 12.11662-23.22072 3.3751-46.98144 4.42139-70.47217.67502-17.44929 2.73383-34.89858 4.01637-52.34786.30376-4.4214 0-8.57277 0-13.26417-7.02022 2.39633-50.62656 34.12231-58.32181 39.99499-19.13683 14.5467-39.04995 28.14837-58.38929 42.45881-19.33936 14.31002-38.4087 28.85672-58.18681 43.77468-11.77911-13.46666-20.38562-30.03843-24.43575-48.29774l-.135-.74252 166.08888-128.22022 6.95271-20.9594 30.37594 1.41755c-.40501-20.92565 3.1726-42.35756-2.53133-65.30827 1.4513-4.42138 3.40885-10.73283 5.53517-17.31428-1.14753-5.90644-2.39632-12.25163-3.54386-18.22556l-7.66149-5.90644c-1.51879-17.68555-3.13884-35.3711-4.42138-53.05664-1.28254-17.68555-14.58045-33.24478-12.8254-52.17911 31.15222 0 67.9071 46.23892 72.15973 88.934l37.22741-45.39516-1.99131-8.30275 2.70007-2.12632c.70878-11.71161 1.28254-21.49941 1.89006-31.25346h1.82256l-4.96141-35.94487c-14.37794 15.25548-17.68553 35.91112-9.24778 51.16659l-15.55923 20.01436c-8.84278 0-10.56407-8.84277-12.38663-14.81671-1.82256-5.97393.23626-13.80417.70877-22.78195l-178.88044-138.818c6.4127-12.52164 12.21788-23.79449 18.96808-37.05865 17.24678 11.3066 33.24478 21.0269 48.36524 31.99599 15.12048 10.96908 29.66718 23.69323 44.82139 35.37109 4.42139 3.3751 11.00285 4.05013 15.39047 7.52649 17.68555 13.93917 34.66233 28.48587 53.32665 43.9101 7.83025-4.42139 5.29892-14.27669 3.81387-21.73567-1.58629-8.23526-7.08772-15.69423-11.67786-25.14453l10.59783-5.97393v-55.0817c.84378-11.1716 1.75506-22.71446 2.80134-36.21487 20.65564-35.64111 42.76257-72.53099 62.81069-110.60216 7.15522-12.7579 11.4416-27.94587 11.71162-44.14637v-.0675c0-18.15806 5.70392-36.85613 2.97008-54.372925-1.89005-15.694231-3.00384-33.886046-3.0376-52.347871v-.06755c.16876-2.53133.43877-4.893904.91129-7.188967l-.0675.337511 8.57277-10.024062c14.27669 4.151371 14.44544 13.264157 12.18412 20.689389-5.0289 16.740518-3.67887 32.704759 0 49.512777 2.43008 11.272849.87753 23.524474.54001 35.371098-1.01253 32.94102-2.32881 65.81453-3.3751 93.72664l-39.79247 77.35739 13.26416 5.73768-8.40401 8.23526c2.16006.67502 4.42138 2.22757 5.56892 1.58629 4.79265-2.80133 8.91028-5.56891 12.79164-8.64026l-.23626.16875c13.73668-10.42907 31.15222-16.67301 49.9853-16.67301 1.48504 0 2.93634.0338 4.42138.10122h-.2025v53.73166l-14.07419 4.42139c-1.01253 2.59883-2.56507 6.58145-4.42138 11.57661-16.50426 7.86399-27.10209 22.68069-37.26115 39.25245v31.9285l-6.88521 8.84277c-2.09257 17.31429 17.21303 22.10693 21.1619 38.34119l30.9497-42.62757 6.37895 3.81386-28.01337 56.22924c11.0366 4.72514 22.51196 10.29407 34.42607 14.5467 26.0558 9.24779 46.77895.54001 67.73835-16.53801 13.26415-10.66533 17.95555-26.25832 30.10593-36.68738 2.22756-1.89006 1.85629-6.85147 3.17259-12.45413-1.78881-1.28255-3.20635-2.9701-4.08388-4.96141l-.0338-.0675c-.47251-1.48505-.74252-3.17261-.74252-4.92766 0-2.09256.37127-4.11763 1.08003-5.97393l-.0338.10122c8.84277-18.66433-1.04628-32.70476-11.57661-46.03643-7.59398-8.84277-15.25547-16.87551-23.32197-24.4695l-.16876-.135-20.99314-5.97394c-13.26416-41.9188 1.68755-82.31879-1.62005-123.02256 5.70392 5.53518 6.10894 12.85916 11.03659 18.93434 7.02022 9.28154 11.27285 21.0269 11.27285 33.75105 0 3.10509-.23626 6.14269-.74252 9.11278l.0338-.33751c35.6411 11.7116 61.89942 34.89858 81.47502 67.73834 2.02506-5.70393 3.81387-10.66533 6.24394-17.68554-5.80518-12.38664-12.25162-26.02206-17.68554-38.07118l-21.53317-19.81186c-5.60267-15.42423-8.84278-26.52833-13.60167-36.85614-5.60268-12.25163-5.83893-25.14453-5.56892-37.80118.27001-10.96908-.74252-21.53315-1.55254-32.29973-.57378-9.3153-.91129-20.21689-.91129-31.21972 0-16.03176.70877-31.894742 2.05882-47.588973l-.13501 2.025053c1.51879-21.263156 3.13885-42.222545-1.62005-64.464487l10.15903-12.656643 10.80034 7.560243v37.058641l15.45798 7.526477v60.380569l-9.24779 6.85146c-6.71645 16.30175 12.15037 27.67586 7.45898 43.13383l12.9604 14.78295c-2.02506 16.43676 7.59399 30.00469 15.12047 44.21388 9.28154 17.31428 20.65564 33.68353 29.26215 51.33533 4.42139 8.84277 4.42139 19.64311 7.29023 34.0548l7.22272 6.17644c-1.95756 9.14653-3.71261 20.72315-4.8939 32.46851l-.10122 1.41754c.10122 11.74536.97878 23.18696 2.59883 34.39231l-.16876-1.38379-7.83024 11.3066c1.68755 9.95656 3.54386 21.29691 5.60268 33.54853l94.46917-70.16841 3.81386-16.43676c22.10693 2.56508 27.97962-20.41938 47.25146-27.54086l-11.98162-10.69907c2.83509-7.83024 9.88905-6.24394 19.40685-6.71646l13.70292 16.74052c1.91257 11.25035 4.06137 24.05324 6.44645 38.40869-11.4416 8.84277-22.8157 16.43675-33.21103 25.41453-10.39531 8.97778-18.52931 18.22556-29.97092 29.63341l-9.55155 1.3838-26.86582 29.29591-16.87553 11.03658c-2.59883 7.52649-4.01637 11.57661-5.87268 16.84177l-5.4002-7.72883c-14.07418 8.40401-27.97961 17.21303-42.45881 25.07703-5.0964 2.29507-11.07034 4.25263-17.28053 5.60267l-.60752.10122-15.35672-30.9497-2.70008 10.32781c-16.84178 1.11379-21.12816 16.53802-30.94971 29.53217l22.51194 18.79933c.30376 6.37895.67502 13.66917 1.11379 23.55823l21.36441 17.41554 11.5091 28.68838c2.09257-3.71261 4.11763-8.10024 5.77143-12.65664l.20251-.60752c6.6827-27.23709 14.64795-53.83291 38.03743-72.19347 6.7502-5.29892 14.20918-9.72031 21.73566-14.85047l11.00284 8.23526c0 3.13885.74252 5.70392 0 7.42523-12.55538 24.23325-16.94302 51.03157-24.67201 76.74987-.70877 2.49758-1.11378 5.33267-1.11378 8.26901v.57376-.0338 110.87218l13.50041-2.73383 15.01922 12.65664 14.24293 2.32882c1.41756 1.4513 2.32883 1.95756 2.39633 2.53133 1.89006 17.14553 17.68555 22.10694 28.11462 31.75974 12.45414 11.23909 25.7858 21.53316 39.35372 32.70475 6.10893 15.15422 6.10893 15.15422 44.21386 44.78763l4.15138-5.60267c12.31913 10.15907 24.70576 20.25063 36.92364 30.27469 3.54387 20.41938-6.04143 34.35856-19.10309 47.79148l-172.40025-136.3879c-4.15138 12.38664-1.62005 21.66818 6.51394 28.72214 1.3838 22.10693-9.95655 42.93132 0 64.86951-10.86783 12.45414-8.84277 26.15706-3.3751 40.67 2.29507 5.87268 3.61136 12.65665 3.61136 19.74436 0 .50627 0 1.04629-.0338 1.55255v-.0675c-.0338 1.14753-.0674 2.46382-.0674 3.81386 0 27.10209 10.80032 51.7066 28.31712 69.72966l-.0338-.0338c29.56592 31.62471 58.96307 63.38439 89.84528 96.62919-4.42138-.3038-8.84278.7088-11.27285-.945-32.80601-20.4531-65.37577-41.345-97.97928-62.16938-20.28437-12.9604-40.50124-26.08959-60.61687-39.08373-8.84277-15.28922-7.29023-31.86099-7.45898-48.09524v-80.59749c-9.18028-6.81771-10.73283 4.69139-16.57176 6.14269l-5.90643-2.43008c-26.22456 17.88805-31.21972 22.81571-40.50126 40.26499l37.22741 30.94971-4.05013 4.32014-52.41537-24.70577c-.70878-.94502-1.3838-1.82256 0 0-1.99131-1.04628-.94503-.47251 0 0-4.15138 8.37026-11.74536 3.2401-17.68555 4.42139l-3.10509-1.88998zm-215.83792-210.20149c1.28254 6.51395 2.43007 12.8929 3.81386 19.27184 8.84278 40.40001 24.87453 76.58113 61.52816 99.53183 18.42807 12.48788 40.4 21.2294 64.12697 24.57076l.81003.10123c53.05664 5.83895 119.37744-28.62086 138.91929-80.36121 6.10894-16.23425 11.98163-32.50226 18.25932-49.54653l-18.69808-27.00084v-23.38947c-10.29406-40.97377-45.2264-63.11444-70.06717-91.90409l-28.51963-5.43391c-.47251 2.70007-.94502 5.13016-1.75505 9.8553-30.44344-10.46282-60.95438-2.73383-91.60032 0-39.04996 27.13584-39.04996 27.13584-44.65264 50.35656l-7.86399 2.73383c-16.67302 22.34319-18.56307 47.55522-24.26701 71.24845zm240.23992-632.899549-.70877 1.113776h1.14753zm-141.75438 850.593779.70877-1.11379h-1.11378z" style="stroke-width:1.05882"/></svg>