<svg height="960" style="" width="1316" xmlns="http://www.w3.org/2000/svg"><path d="m1078.3459 351.82649c0 .9904 2.3768 1.9807 5.5459 1.9807 4.1594 0 4.7536-.3961 2.3768-1.9807-3.9614-2.5748-7.9227-2.5748-7.9227 0zm-127.35743-66.1545c-2.3768 2.3768 27.1352 28.5217 31.8888 28.5217.9904 0 2.3769 1.3865 3.1691 2.971.5942 1.5846 2.773 2.971 4.7536 2.971 2.1788 0 4.9517 1.3865 6.3382 2.9711 1.3865 1.5845 3.56523 2.971 4.95173 2.971 1.5845 0 5.5459 1.5845 9.3092 3.3671 3.5652 1.7826 8.913 4.3575 11.884 5.942 2.773 1.3865 7.3285 2.5749 9.9034 2.5749 2.3768 0 6.3381 1.3865 8.3188 2.971 2.1788 1.5846 5.942 2.971 8.3189 2.971 2.3768 0 6.9323 1.3865 9.9033 2.971 6.3382 3.1691 14.657 3.9614 14.657 1.1885 0-2.3769-5.1497-4.1595-11.884-4.1595-3.1691 0-5.942-.9903-6.3382-2.1787-.3961-.9903-4.3575-2.5749-9.1111-3.1691-4.5555-.5942-8.3188-1.7826-8.3188-2.7729 0-.7923-3.3672-2.1788-7.3285-2.971-4.1594-.7923-9.3092-2.5749-11.4879-3.9614-2.1788-1.5845-5.3479-2.7729-7.1305-2.7729s-4.3574-1.3865-5.7439-2.971c-1.3865-1.5846-4.1594-2.9711-6.1401-2.9711-2.17883 0-3.76333-.7922-3.76333-1.9806 0-.9904-2.1787-2.3768-4.7536-3.1691-2.773-.5942-5.3478-2.3768-5.942-3.9614-.5942-1.5845-2.1788-2.7729-3.3672-2.7729-1.9807 0-17.4299-11.4879-21.5893-15.8454-4.1595-4.3575-9.5073-7.7246-10.4976-6.7343zm-596.7774 483.0866c-1.9806 1.5845-5.5459 2.971-7.9227 2.971-2.1787 0-5.7439 1.3865-7.9227 2.971-1.9806 1.5846-4.9517 2.971-6.5362 2.971s-6.9324 3.3672-11.884 7.3285c-19.4107 16.0435-21.7875 22.3817-10.8938 28.7198 5.9421 3.5652 6.3382 3.5652 10.4976.1981 2.971-2.5749 4.7536-6.9324 5.942-14.4589 1.5846-12.8744 3.1691-15.8454 7.9227-15.8454 1.9807 0 4.7537-1.3865 6.1401-2.971 1.3865-1.5846 4.1595-2.9711 6.3382-2.9711s6.3382-1.1884 9.1111-2.7729c2.971-1.5845 6.9324-3.3672 8.913-3.9614 4.3575-1.3864 2.5749-5.1497-2.3768-5.1497-1.7826 0-5.1497 1.3865-7.3285 2.971zm52.2899-1.5845c-2.5749 5.3478-4.9517 9.9033-5.5459 10.4975-3.1691 3.1691-9.9034 14.0628-9.9034 15.8454 0 4.3575 4.5555.7923 8.715-6.9323 2.1787-4.3575 5.3478-8.715 6.7343-9.5073 1.1884-.7922 2.3768-2.971 2.3768-4.5555 0-1.7826 1.3864-4.3575 2.971-5.942 1.5845-1.7826 2.971-4.3575 2.971-5.9421 0-5.5459-3.7633-2.5748-8.3188 6.5363zm370.3862-557.56c-9.7054 4.3575-12.0822 8.1207-6.1401 10.2995 4.3574 1.7826 18.6183-8.1208 17.0338-11.8841-.5942-1.5845-1.1884-2.7729-1.3865-2.5748 0 0-4.3575 1.9806-9.5072 4.1594zm36.0482-47.9324c0 .9904 1.9807 1.9807 4.5556 1.9807 3.5652 0 3.7633-.3961 1.3865-1.9807-3.7633-2.5748-5.9421-2.5748-5.9421 0zm-63.3816-21.3912c-20.0048 8.5169-25.7487 15.4492-25.7487 31.2946 0 8.715.7922 10.4976 8.913 18.6184 4.7536 4.9517 9.9034 9.1111 11.2899 9.1111 1.3864 0 1.1884-.9904-.7923-2.5749-5.1498-3.7633-13.4686-20.401-13.4686-26.5411 0-7.9227 11.4879-20.2028 21.1932-22.5796 9.1111-2.1788 29.314-.1981 36.8406 3.3671 2.971 1.5845 7.9227 4.1594 11.0917 5.744 3.1691 1.5845 6.7343 2.971 7.9227 2.971 3.7633 0 2.3769-3.9614-2.1787-5.9421-2.5749-1.1884-5.942-2.7729-7.5266-3.5652-19.6086-11.0917-36.4444-14.657-47.5362-9.9033zm-10.2995-35.058c-1.9806 2.5749-3.5652 6.5362-3.5652 8.715 0 6.5362-4.3575 4.7536-10.4976-3.7633-6.1401-8.715-13.2705-11.4879-8.913-3.5652 4.5556 7.9227 14.0628 17.4299 17.8261 17.4299 1.9807 0 3.5652.7923 3.5652 1.9807 0 .9903 2.7729 1.9807 5.942 1.9807 3.3672 0 5.942-.9904 5.942-1.9807 0-1.1884-2.5748-1.9807-5.942-1.9807-3.1691 0-5.942-.3961-5.942-.7922 0-.5942 2.7729-4.9517 5.942-9.7054 3.3672-4.9516 5.942-9.9033 5.942-11.0917 0-3.9614-6.9323-2.1788-10.2995 2.7729zm-23.9661-19.8067c-1.7826 1.5845-9.7053 3.5652-18.6184 4.5555l-15.4492 1.7826 15.2512.3962c8.3188 0 15.8454-.7923 16.4396-1.7826.5942-1.1885 6.7343-1.9807 13.2705-1.9807 14.2608 0 28.3236 6.1401 33.0772 14.2608 3.9614 6.9324 8.1208 7.1305 8.1208.3962 0-3.3672-2.7729-7.9227-7.7246-12.8744l-7.7246-7.7246h-16.8358c-12.2802 0-17.8261.7922-19.8067 2.971zm-93.0918-112.700399c.3962 1.1884-3.169 3.7633-7.7246 5.7439-19.6087 8.5169-26.343 21.58939994-16.8357 33.0773 7.1304 8.715 27.1352 17.4299 39.8115 17.4299 11.8841 0 13.2706-1.3864 7.1305-6.9323-2.1788-1.9807-3.9614-4.7536-3.9614-6.1401 0-3.7633 3.7633-5.3478 6.7343-2.971 5.5459 4.7536 25.1546 14.0628 26.9372 13.0724 1.1884-.7922 1.9807-7.5265 1.9807-15.2512 0-16.4396001 3.9613-24.5603 15.4492-31.6908 10.6957-6.5362 31.0966-6.1401 41.9903 1.1884 4.3575 2.773 7.9227 6.7343 7.9227 8.3189 0 2.7728999-1.7826 3.1689999-10.2995 2.3767999-11.884-1.1883999-16.8357.5942-21.9855 7.5265-4.9516 6.7343-3.169 12.8744001 6.7343 22.5797001 6.5363 6.3382 10.4976 8.1208 23.1739 11.0918 35.4541 7.7246 67.9372 21.5894 88.9323 38.028999 20.9952 16.4396 26.9372 27.5313 21.3913 40.6038-1.5845 3.9614-3.9613 7.3285-4.9517 7.3285-1.1884 0-1.9806 1.7826-1.9806 3.9613 0 3.9614 5.3478 7.9227 10.8937 7.9227 6.5362 0 23.7681 13.4686 27.5314 21.5894 3.3671 7.3285 5.942 9.1111 17.628 12.8744 4.7536 1.5845 4.1594 3.7633-1.9807 8.3188-6.7343 4.9517-11.4879 6.3382-28.3237 8.715-19.2125 2.7729-43.7729-2.1787-66.7487-13.4686-19.4106-9.5072-26.9372-10.1014-29.314-2.3768-.9903 2.971.7923 6.5362 6.3382 13.2705 4.1594 4.9517 11.2898 14.0628 16.0434 20.2029 10.4976 13.6667 13.0725 15.2512 18.6184 11.2898 4.7536-3.3671 11.4879-4.1594 11.4879-1.5845 0 .7923-2.5749 3.7633-5.942 6.3382-5.744 4.9517-7.7247 12.4782-3.9614 14.855 1.1884.7923 3.3672 4.5556 4.9517 8.3189 2.3768 5.7439 2.5749 7.5265.5942 8.913-4.5555 3.1691-23.7681-.5942-38.4251-7.5266-7.7246-3.5652-18.6183-7.5265-23.7681-8.7149-16.0435-3.3672-19.2125-5.3479-34.2657-21.9855-21.3913-23.372-38.0289-34.6618-58.4299-39.4155-33.4734-7.7246-66.5506 26.145-66.5506 68.3333 0 11.686.5942 13.2706 8.913 24.5604 4.7536 6.5362 12.2802 14.0628 16.2415 16.6377 11.0918 6.9323 57.0435 29.1159 60.4106 29.1159 1.5845 0 4.5556 1.3865 6.7343 2.971 1.9807 1.5845 4.9517 2.971 6.3382 2.971 1.3864 0 6.1401 2.3768 10.8937 5.3478 9.5072 6.1401 12.6763 7.9227 33.0772 18.8164 28.1256 14.8551 36.6425 19.8068 51.8937 30.7005 18.0242 12.8744 39.0193 33.0773 51.6956 49.7149 8.9131 11.488 27.1353 40.6039 27.1353 43.3768 0 .5942 2.5749 7.9227 5.7439 16.2416 9.3092 24.3623 12.8744 49.5168 12.6764 90.3187 0 39.2174-1.7826 48.7246-13.2706 72.2947-6.1401 13.0724-28.9178 44.5652-41.198 57.4395-6.1401 6.5363-25.1546 21.5894-34.2657 27.1353-5.3478 3.1691-29.7101 15.2512-39.2173 19.2125-4.1595 1.7826-10.1015 3.1691-13.4686 3.1691-3.1691 0-9.1111 1.3865-13.0725 2.971-3.7633 1.5846-12.0821 2.971-18.2222 3.1691s-13.2705.9903-16.0435 1.7826c-3.9613 1.1884-2.7729 1.7826 5.9421 2.1788 15.8454.7922 23.9661.198 26.9371-2.3769 1.5846-1.1884 4.9517-1.5845 7.5266-.9903 3.9614.9903 5.1498 2.773 5.942 9.7053.3962 4.5556 1.7826 16.4396 2.971 26.343 2.773 23.372 9.5073 38.227 23.9662 53.4782 8.9131 9.3092 17.0338 13.6667 31.8889 16.8358 5.7439 1.1884 12.4782 4.7536 17.628 9.1111 5.942 5.1497 8.715 6.5362 10.2995 4.9516 2.7729-2.7729 2.5749-12.6763-.1981-18.0241-2.7729-5.1498-2.5748-12.2802.3962-16.2415 5.942-7.5266 21.5893-13.0725 27.1352-9.7053 2.3768 1.3864 2.1788 2.5748-1.5845 6.5362-5.744 5.942-5.9421 15.2512-.3962 15.2512 2.5749 0 4.9517-2.3768 6.7343-6.7343 6.3382-15.2512 17.43-19.0145 32.8792-11.0918 9.5073 4.7536 10.1015 7.5266 1.7826 9.3092-3.5652.5942-7.9227 3.7633-11.0917 7.9227-4.9517 6.3381-4.9517 7.1304-2.3768 15.0531 2.971 9.1111 4.7536 11.0918 10.6956 11.2899 2.1787 0 5.942 1.7826 8.3188 3.7632 5.3479 4.3575 11.2899 18.8165 9.7053 22.9759-1.3864 3.7633-5.942 3.7633-9.1111 0-1.3864-1.5846-5.7439-2.971-9.7053-2.971-6.3381 0-8.913 1.7826-23.9661 17.4299-27.3334 28.1256-47.9324 41.7922-63.5797 41.5942-3.9614 0-10.1014 1.5845-13.8647 3.3671-5.9421 3.1691-8.3189 3.3672-21.7875.9904-14.0627-2.1788-15.6473-1.9807-23.1738 1.7826-6.9324 3.56521-8.1208 3.76321-9.1112.9903-3.7632-9.7053-.3961-15.0531 14.2609-22.3816 6.3382-3.1691 8.3188-5.3478 8.3188-8.9131 0-4.9517-4.5555-11.0917-8.3188-11.0917-3.1691 0-15.4493 7.9227-15.4493 10.1014 0 3.3671-7.3285 1.7826-11.2898-2.7729-2.1787-2.3769-6.3382-8.5169-9.3092-13.8648-5.5459-9.7053-9.1111-10.6956-9.1111-2.1787 0 2.7729-1.1884 4.7536-2.7729 4.7536-3.3672 0-13.8647-12.8744-15.8454-19.2125-2.3768-7.5266-11.0918-8.1208-11.0918-.5942 0 8.5169-8.3188 6.7343-13.4686-2.773-6.5362-12.4782-8.3188-20.4009-8.3188-40.2077v-20.2029l-23.5701-20.4009c-12.8743-11.2899-26.7391-22.9759-30.7004-25.9469-5.3478-4.1594-7.1304-6.9323-7.1304-11.2898 0-2.971.7922-5.942 1.5845-6.3382 2.5749-.9903 22.1835-26.541 22.1835-28.7198 0-1.1884 1.3865-4.7536 3.1691-8.3188 2.3768-4.7536 2.5749-7.1304.9904-8.715-1.5846-1.5845-2.3768-.3961-3.3672 3.9614-.5942 3.5652-2.3768 6.7343-3.9613 7.3285-1.5846.5942-2.773 2.3768-2.773 4.1594s-4.9517 9.7053-10.8937 17.628c-8.5169 11.2899-13.2705 15.6473-21.9855 19.8068-14.4589 7.1304-36.8405 12.8743-49.5169 13.0724-9.5072 0-10.8937.5942-22.7777 11.686-26.343 24.1642-30.5024 48.3285-11.8841 69.5217 10.2995 11.686 24.7585 25.7488 26.343 25.7488 4.1594 0 21.9855-15.2512 24.9565-21.3913 1.7826-3.7633 5.744-8.715 8.715-10.8937 5.1497-3.9614 5.5459-3.9614 14.4589-.5942 15.6473 6.14 20.401 14.855 8.1208 15.0531-6.7343 0-13.0725 7.7246-13.0725 16.0435 0 10.8937 4.3575 14.2608 16.0435 12.6763 11.0918-1.5846 16.4396.7922 20.599 8.7149 3.5652 7.3285 4.7536 22.1836 1.5846 23.372-1.1885.3961-3.9614-.9903-6.1401-3.3671-1.9807-2.1788-6.9324-4.5556-10.6957-5.1498-5.3478-.9903-7.9227-.1981-13.0724 4.1594-6.3382 5.1498-8.5169 13.2705-4.3575 15.8454 1.1884.5942 1.9807 3.9614 1.9807 7.3285 0 7.52661-7.7247 18.22221-16.2416 22.57971l-6.1401 3.1691 1.1884-7.5266c1.7826-10.6956-5.7439-20.59901-15.4492-20.59901-3.7633 0-10.2995-1.1884-14.2609-2.7729-28.7198-10.6957-81.2077-10.2995-94.2801.5942-3.7633 3.169-3.7633 8.913-.3962 19.60861 1.1885 3.1691.5942 4.3575-1.5845 4.3575-10.4976 0-25.1546-16.83571-25.1546-28.71981 0-5.942 1.5846-8.913 9.1111-16.0434 12.6764-12.4783 10.6957-21.7874-3.5652-15.8454-4.5555 1.9807-5.942-3.7633-3.3671-13.6667 3.5652-13.8647 3.5652-13.8647-4.5556-13.0724-7.3285.3961-7.5265.198-7.5265-5.9421 0-3.3671.9903-11.884 2.3768-18.8164 2.3768-13.4686 1.5845-16.8357-3.3672-12.6763-6.1401 5.1498-8.5169 1.1884-7.5265-13.2705.5942-7.3285 1.7826-14.4589 2.5748-15.4493.7923-1.1884 2.3768-4.9517 3.5653-8.3188 1.9806-5.744 1.5845-6.7343-2.1788-9.5073-2.3768-1.5845-4.9517-2.971-5.7439-2.971-2.3769 0-1.9807 7.5266.3961 8.9131 2.5749 1.5845 2.5749 11.4879-.1981 14.2608-1.1884 1.1884-2.5749 9.7053-2.971 19.0145-.7923 17.2319.7923 21.7874 5.942 17.43 1.3865-1.1885 3.1691-1.5846 3.7633-.7923 6.1401 5.942-12.6763 24.5604-36.4444 36.0483-20.401 9.7053-41.198 14.0628-67.1449 14.0628-31.8888 0-50.3091-7.5266-73.08691-30.1063-20.9951-20.7971-28.3236-35.6521-31.6908-64.1739-2.1787-19.6086.7923-45.9516 6.7343-62.1932 6.9324-19.0144 21.3913-40.4057 39.61351-58.826 9.9034-10.1014 20.2029-19.2126 22.9758-20.401 2.5749-.9903 6.3382-2.7729 8.1208-3.9613 8.5169-4.7536 22.5797-11.8841 29.314-14.657 1.5845-.5942 4.3575-1.9807 5.942-2.7729 1.5846-.9904 6.3382-3.1691 10.4976-4.9517 3.9613-1.7826 10.2995-4.5556 13.8647-6.1401 3.3672-1.5846 11.2899-4.3575 17.2319-5.942 41.5942-12.0822 54.4685-16.4397 66.5507-22.1836 5.5459-2.5749 10.6956-4.7536 11.4879-4.7536.7922 0 6.7343-2.5749 13.4686-5.9421 13.2705-6.5362 18.6183-7.1304 24.1642-2.971 2.1787 1.5846 5.942 2.971 8.3188 2.971s5.3479 1.3865 6.7343 2.9711c1.3865 1.5845 4.7537 2.971 7.7247 2.971 2.7729 0 6.9323 1.3864 8.913 2.971 2.1787 1.5845 6.7343 2.971 9.9034 2.971 3.3671 0 7.9227 1.3865 9.9034 2.971 2.1787 1.5845 7.1304 2.971 11.2898 2.971 3.9613 0 10.4976 1.3865 14.2609 2.971 3.9613 1.5846 11.6859 2.971 17.0338 2.971 5.5459 0 16.8357.9904 25.1545 2.1788 11.686 1.7826 20.7971 1.7826 38.2271 0 28.7197-3.1691 31.8888-3.7633 31.8888-6.5362 0-1.5846-5.3478-1.7826-19.2125-.3962-31.6908 2.773-87.7439.5942-93.0917-3.5652-1.1884-.9903-6.5363-2.5749-11.8841-3.5652-14.2609-2.5749-26.7391-6.1401-32.6811-9.1111-2.773-1.5845-6.7343-2.773-8.9131-2.773-1.9806 0-5.3478-1.3864-7.3285-2.971-2.1787-1.5845-5.5459-2.971-7.3285-2.971-1.9806 0-5.942-1.1884-9.1111-2.7729-2.971-1.3865-9.1111-4.3575-13.4686-6.3382-9.7053-4.5555-22.7777-12.2802-43.5748-25.5507-22.5797-14.657-63.5797-54.0724-59.8164-57.6376.3962-.5942 6.1401 1.3864 12.4783 4.3575 15.2512 6.9323 34.6618 7.7246 39.2173 1.7826 4.1594-5.3479 3.7633-14.459-.7922-22.7778-1.9807-3.7633-4.5556-8.715-5.744-10.8937-.9903-2.1788-5.1498-7.5266-9.1111-11.8841-8.3188-9.1111-5.942-11.6859 3.9613-4.1594 3.5653 2.773 7.1305 5.1498 7.7247 5.1498s4.7536 2.5749 9.5072 5.5459c4.7536 3.169 13.6667 7.3285 20.0048 9.1111 10.4976 3.3671 11.686 3.3671 16.2416.3961 5.5459-3.7633 6.3381-9.3092 1.9806-13.0724-3.7632-3.1691-3.7632-7.9227-.198-7.9227 1.5845 0 6.7343 2.5748 11.4879 5.5458 20.0048 13.2706 49.7149 16.4396 79.227 8.715 29.512-7.9227 47.1401-20.2029 49.913-34.8599 1.3865-7.7246-1.3865-31.6908-4.9517-40.8019-3.9613-10.2995-16.8357-29.314-28.3236-41.5941-19.0145-20.401-29.116-36.8406-35.6522-58.4299-1.9807-6.5363-4.5555-14.0628-5.5459-16.8358-3.7633-9.5072-4.1594-35.8502-.7922-49.1207 1.7826-6.9324 3.169-15.0532 3.169-18.0242s1.3865-7.1304 2.971-9.3091c1.5846-1.9807 2.9711-4.9517 2.9711-6.1401 0-1.3865 2.3768-7.5266 5.1497-13.4686 3.9614-8.3189 4.7536-11.686 2.971-13.4686-2.5749-2.5749-2.971-9.3092-.3961-9.3092 6.7343 0 41.7922-29.7101 41.7922-35.4541 0-2.971-6.9323-6.1401-13.6666-6.1401-3.1691 0-6.5363-.7922-7.1305-1.9806-1.5845-2.5749 10.6957-9.9034 16.4396-9.9034 9.1111 0 36.0483-15.8454 36.0483-20.9952 0-4.3574-7.1304-8.7149-14.0628-8.7149-8.7149 0-10.6956-2.1788-7.7246-7.9227 1.7826-3.3672 4.1594-3.9614 18.0241-3.9614 11.686 0 16.0435-.7922 16.8358-2.7729 1.5845-4.357499-4.5556-14.855099-16.4396-27.531399-5.744-6.3382-11.8841-14.8551-13.4686-18.6183-8.3188-19.6087001 1.5845-45.3575 20.7971-54.6667 7.7246-3.7632 31.8888-3.9613 33.0772-.198zm240.2559 231.936999c4.9517 1.7826 10.2995 4.3575 11.8841 5.5459 8.1207 6.3381 27.9275 13.6666 41.5941 15.0531 24.3623 2.773 43.1787 8.5169 55.657 17.0338 2.971 1.9807 11.884 9.9034 19.8067 17.43 16.24163 15.4492 45.55563 36.4444 65.16433 46.7439 12.6763 6.7343 22.9758 10.1014 51.2994 16.6377 31.4927 7.3284 46.1497 18.6183 52.4878 40.6038 2.1788 7.1304 5.5459 16.0435 7.3285 20.0048 4.1594 8.3188 16.0435 18.4203 24.1642 20.401 8.3189 1.9806 4.3575 5.1497-6.5362 5.1497-9.3092 0-10.2995-.5942-22.1835-12.4782-6.9324-6.7343-16.2416-16.8358-20.7971-22.3817-9.7053-11.884-19.6087-17.628-33.6714-19.6087-12.6763-1.5845-14.657.9904-6.3382 8.3189 5.9421 5.3478 19.6086 31.2946 19.6086 37.2367 0 6.1401 10.1015 18.8164 23.5701 29.512 12.8743 10.2995 18.2222 17.628 15.0531 20.599-.5942.5942-2.773.1981-4.5556-1.1884-4.7536-3.3671-17.2318-9.3091-31.0966-14.657-13.6665-5.3478-27.5312-17.826-34.4636-31.2946-5.1498-10.1015-25.1546-30.5024-28.1256-28.7198-.9903.7923.9903 4.5556 4.5556 8.5169 12.6763 14.0628 25.5507 32.0869 31.2946 43.7729 5.5459 11.2899 5.942 13.0725 5.942 36.8406 0 27.3333.5943 29.7101 15.6473 52.2898 3.9613 6.1401 8.3188 14.855 9.5072 19.6087 3.9614 15.8454-1.9807 12.8744-31.2945-15.8454-9.7054-9.5073-20.7971-29.5121-22.7778-41.7923-3.9614-22.1835-15.4493-45.1594-29.9082-59.2222-8.715-8.5169-30.5024-21.3912-36.6425-21.3912-1.3865 0-4.3575-1.3865-6.3381-2.9711-2.1788-1.5845-5.34793-2.971-7.32853-2.971-1.7826 0-3.7633-1.3864-4.5556-2.971-.5942-1.5845-1.9807-2.971-3.1691-2.971-6.9323 0-62.9854-51.4975-67.3429-61.797-1.1884-2.5749-2.773-5.9421-3.7633-7.5266-.9903-1.5846-3.3671-6.9324-5.1498-11.8841-6.9323-18.4202-10.8937-24.9565-20.0048-33.6714-26.9371-25.3527-34.0676-33.4734-38.8212-43.5749-2.971-6.1401-7.5266-13.4686-10.2995-16.4396-2.773-2.971-5.1498-6.3381-5.1498-7.5265 0-2.9711 16.0435-1.9807 25.7488 1.5845zm197.27523 81.0096c11.0918 2.7729 15.2512 2.971 30.5024.9903 18.0242-2.5748 23.7681-2.1787 39.2173 2.971 13.0724 4.3575 18.6183 7.7247 26.1449 16.0435 12.8744 14.0628 15.4493 23.1739 4.1594 14.8551-12.2802-9.1111-19.6087-10.6957-50.7052-11.2899-24.1642-.3961-31.2946-1.1884-37.6328-4.1594-11.2898-5.3478-26.7391-16.8357-26.7391-20.0048s-.3961-3.1691 15.0531.5942zm-133.89363 52.4879c0 2.1787 12.4783 16.2415 21.3913 24.3623 15.4493 13.8647 19.4106 17.0338 20.9952 17.0338.7922 0 4.9516 2.5749 8.913 5.5459 3.9613 3.1691 8.5169 6.3381 10.1014 6.9323 1.5846.7923 5.744 3.1691 8.9131 5.3479 3.3671 1.9806 11.48793 6.5362 18.22223 9.7053 15.0531 7.3285 26.541 17.4299 32.0869 28.1255 3.7633 7.1305 4.1594 11.2899 4.1594 41.3962 0 34.2656 2.1788 47.7342 9.1111 55.6569 6.9324 7.9227.9904 10.1015-9.9033 3.5652-13.8648-8.1207-22.5797-23.7681-24.1643-43.7729-1.9807-26.343-6.9323-33.6715-41.39613-61.9951-5.3478-4.3575-10.8937-9.1111-12.2802-10.6956-1.5845-1.3865-3.169-2.1788-3.9613-1.5846-.5942.5942 7.3285 9.7053 17.4299 20.2029l18.22223 18.8164-.3961 31.2947c-.1981 24.5603.3961 32.285 2.7729 36.8405 3.9614 7.3285 3.7633 9.1111-.7922 9.1111-2.1788 0-6.33823-2.971-9.11113-6.7343-4.3575-5.7439-5.1498-9.3091-6.1401-26.1449-1.9807-31.8888-5.5459-41.9903-23.5701-68.5313-14.855-21.7875-16.6376-25.7488-14.0627-29.7102.9903-1.7826 1.1884-4.1594.3961-4.9516-.9904-.7923-2.1788-.3962-2.5749.7922-1.5845 4.5556-4.7536 2.773-3.5652-1.9806.7923-3.1691-.5942-6.5363-5.3478-12.2802-9.3092-10.8937-12.6763-16.8358-17.43-29.1159-4.7536-12.4783-5.1497-19.4107-.9903-19.4107 1.5845 0 2.971.9904 2.971 2.1788zm-640.7483 29.7101c31.0966 12.8744 56.8453 31.0966 65.9565 46.942 3.5652 6.3382.198 5.3478-10.6957-3.3671-15.0531-11.8841-22.3816-15.2512-48.1304-22.1836-11.884-3.1691-19.2125-3.7633-37.6328-3.3672-13.8647.5942-25.7488 1.9807-29.9082 3.5653-35.85021 14.657-59.42031 51.4975-59.42031 92.2994 0 15.2512 5.744 44.9613 10.8938 57.2415 7.5265 17.628 24.7584 35.256 45.55551 46.5459 4.3575 2.3768 11.4879 6.3381 15.8454 8.913s9.1111 4.7536 10.2995 4.9517c2.3768 0 13.6666 4.9517 39.6135 17.0338 5.7439 2.5749 12.2802 5.744 14.8551 6.7343 8.913 3.9613 24.1642 13.0725 24.7584 15.0531.7923 2.1788-12.6763 8.715-17.628 8.715-1.7826 0-4.1594 1.3865-5.5459 2.971s-3.7633 2.971-5.3478 2.971c-2.5749 0-9.7053 3.1691-18.4203 8.3189-1.5845.7922-5.3478 2.5748-8.3188 3.7632-3.1691 1.1884-5.5459 2.773-5.5459 3.5653 0 .7922-3.1691 2.5748-6.9324 3.7632-6.7343 2.5749-6.9324 2.3768-31.0966-14.0628-13.46861-9.1111-30.50241-20.797-38.22701-26.1449-18.4203-12.4782-23.1739-17.0338-36.6425-35.0579-17.8261-23.7681-25.3526-41.7923-30.7005-72.8888-13.0724-76.256 18.0242-143.599 73.285-159.0482 16.8357-4.7537 20.7971-5.1498 48.52651-4.3575 22.9759.3961 26.145.9903 40.6039 7.1304zm669.6662 60.6087c6.9323 14.855 8.1207 28.3236 3.7632 46.1497-3.3671 13.4686-3.169 23.9661.1981 35.256l1.3865 4.7536-4.9517-4.7536c-2.5749-2.5749-6.3382-7.5266-8.1208-11.0918-1.7826-3.3671-4.9517-9.1111-6.7343-12.6763-2.3768-4.5556-3.3671-11.686-3.3671-25.1546-.1981-21.7874.9903-49.913 2.3768-52.2898 1.3865-2.7729 9.7053 7.9227 15.4493 19.8068z" style="stroke-width:.198067"/></svg>