<svg height="960" style="" width="1338" xmlns="http://www.w3.org/2000/svg"><path d="m298.28299-30c-6.86663 0-13.57343.41184-20.24714 1.20678-16.03059 1.95819-30.56486 5.51012-44.44985 10.39175-14.79462 5.42355-27.56239 12.95281-38.6841 22.39253-11.87695 7.97391-22.02599 17.19656-30.70593 27.75601l-.26818.20114c-8.2383 9.92029-15.61202 21.14123-21.72209 33.05245l-.46931 1.00565c-5.08029 9.74866-10.02542 21.50434-14.21322 33.65584l-.60339 1.87722c-3.7759 11.19037-5.96688 24.05575-5.96688 37.47732v1.0727c-.74949 4.82589-1.20678 10.38303-1.20678 16.0234 0 8.36196.94489 16.44109 2.74878 24.26975 2.93474 12.71534 6.40085 24.94659 10.3247 36.67281 6.69363 15.27519 14.63051 28.38032 24.00158 40.36019 10.11808 12.90052 21.72172 24.04943 34.72854 33.32062l.53635.33523 71.06612 47.39975c7.72341 7.75774 15.98907 14.95984 24.60497 21.72211l.53635.46931c9.23377 7.20852 17.48495 14.43366 25.20836 22.19139l29.63323 29.63323c9.71434 9.71433 18.45788 20.41504 26.14697 31.84569l.46931.73746c7.89504 9.86308 14.78944 19.25632 20.71644 28.15826 5.92701 8.90197 11.83953 18.22815 17.76653 28.09125 9.2681 12.83803 17.67267 27.46103 24.53793 42.90785l.67043 1.60905c6.91103 15.79008 13.31449 31.54262 19.24149 47.33271 7.89504 21.7171 14.78946 42.95827 20.71644 63.69134 5.4922 18.39889 9.67304 40.00567 11.73262 62.28342l.13408 1.40789c1.85361 5.28625 2.94993 11.34913 2.94993 17.69952 0 6.35033 1.09308 12.4706 3.08401 18.16877l-.13412-.3352c0 8.37561.57926 16.5383 1.60905 24.60497l-.13408-.93861c.92681 7.10554 1.47497 15.32507 1.47497 23.66635l5.96686 35.53305c2.25407 13.22609 5.29562 24.73782 9.05088 35.93533 4.34049 14.76932 10.23335 27.75478 17.63245 39.62272 8.20398 13.18129 18.00304 24.38291 29.36507 33.85697l.26816.20115c23.03293 20.73307 52.5353 34.67438 85.14526 38.41588l.73747.067c7.9637 1.785 17.14385 2.847 26.54925 2.95h.067c8.40994 0 16.61175-1.0588 24.40382-3.084l-.67043.134h1.00566c11.2652 0 21.96082-2.1838 31.84566-6.1009 9.79699-3.942 20.56027-8.7608 32.31499-14.6155 20.63006-12.8037 37.48698-29.7684 49.94741-49.74629l.40224-.67043c9.47405-11.29334 16.98025-24.56635 21.92323-39.08637l.26819-.87158c4.5654-13.18129 8.16537-28.68763 10.19062-44.71801l.20112-1.20677c.0329-6.55666.55395-12.97077 1.47496-19.24149l.067-.80454c.82733-5.5958 1.37501-11.95756 1.40793-18.43696 1.96803-11.85399 3.44083-23.70195 4.42486-35.53305.91047-11.67354 2.40548-22.21638 4.42486-32.58315l.13408-.93862c.055-.2776.0783-.59429.13412-.87158 1.87297-11.31985 3.73792-23.00842 5.63163-35.19782 2.10132-13.49442 5.09231-25.47439 8.9168-37.00802l.067-.13408c.15893-.47823.24022-.99835.40227-1.47497l14.28025-45.72366 17.83356-47.39979c7.89505-15.79009 15.77135-31.05169 23.66639-45.85774 8.71043-16.18611 17.31758-29.89105 26.6833-42.97489 11.85403-13.82206 23.21101-27.11992 34.05812-39.95795 10.8471-12.83803 22.20406-26.20293 34.05806-40.02499 7.8951-5.92698 15.2804-11.83951 22.1915-17.76653 6.911-5.92698 13.3144-11.83951 19.2414-17.76652l23.6664-17.83357c6.8653-5.28625 14.6922-10.19223 22.8618-14.41436l.8716-.40227 29.6332-20.71642 29.5662-23.66637c7.9637-8.03235 15.3342-16.71046 21.8562-26.01288l.4023-.67044c6.625-9.37107 12.1445-20.11091 16.0234-31.64453l.2681-.87157v2.94992c5.3893-12.0142 9.5014-25.97266 11.7327-40.56133l.067-.93861c.9611-6.6593 1.4749-14.36501 1.4749-22.1914 0-7.69055-.6135-15.26674-1.609-22.66071-1.9543-7.78919-3.8773-16.53793-5.8328-26.21401-1.9107-9.82167-4.8744-18.54264-8.8497-26.68332l-.067-.13409c-7.6914-15.53112-15.8809-28.81188-25.0743-41.2988l-.1341-.20113c-9.6467-12.51485-20.887-23.1674-33.4547-32.0468l-.4693-.33522c-9.3711-7.55178-20.1437-14.03194-31.7116-18.90627l-.8716-.33522c-11.156-4.73703-24.1539-8.36971-37.6784-10.25766l-.8045-.13408c-9.3711-1.88795-20.2236-2.94992-31.2423-2.94992h-1.3409-.067c-12.105.004-23.9688 1.06801-35.533 3.01696l-1.2739.13409c.3695-.0646.7697-.004 1.1398-.067-16.52924 4.15967-30.98438 9.55616-44.58397 16.35862-14.46922 7.21988-26.57448 14.3165-38.2148 22.05732-.27385.18239-.53068.35448-.8045.53635-.11822.079-.28419.12195-.40227.20113-11.45255 7.59602-22.82804 14.77651-34.25924 21.45392-10.53817 6.24738-23.19224 12.70609-36.27055 18.36992l-2.27947.87157-2.9499 1.47496v312.42275.7375c0 11.6015-1.09477 22.91777-3.08401 33.92401-2.15645 11.54922-5.17356 21.86787-9.11792 31.64454l.3352-1.13973c-9.72107 21.59857-22.13163 40.18103-37.07506 56.31655 0 0-.067.067-.067.067-15.21385 15.89886-33.30487 28.842-53.56777 37.94663l-1.0727.46931c-6.89958 3.53561-15.18454 7.00469-23.80043 9.92242l-1.40793.40227c-8.27263 2.81476-17.73594 4.42487-27.62191 4.42487h-.46931c-3.81021 1.27007-8.14016 2.01131-12.67123 2.01131-2.23197 0-4.43431-.18169-6.57026-.53635-6.48767-.92682-13.96757-1.47497-21.588-1.47497h-.60339c-12.17563-1.99656-22.61206-4.48971-32.85135-7.50888-10.94908-3.41992-20.5301-7.77868-29.36503-13.20758l-.33523-.20112c-.0674-.0417-.13384-.0923-.20112-.13408-17.77583-10.04401-32.82385-22.79776-45.12031-37.8796l-.26816-.26815c-12.46044-15.30948-22.88275-32.94193-30.57184-51.95869l-.46931-1.34089c-1.99092-5.93844-3.97594-11.38129-5.96687-16.3586-1.88794-4.66837-2.94989-10.09141-2.94989-15.75524v-.46931-.067l-2.94993-22.19139v-319.79759c0-.96114-.95901-1.47496-2.94994-1.47496-9.86307-5.92701-18.72121-10.88054-26.61625-14.81662-9.06214-4.63404-16.82578-9.55826-24.06862-15.08479l.33521.26818c-11.854-5.92701-23.211-11.83953-34.0581-17.76654-10.84711-5.927-21.22222-11.83952-31.10819-17.76653-13.69619-7.13986-29.51041-12.76079-46.19298-16.09044l-1.13974-.20113c-9.06214-1.71631-19.46139-2.68174-30.10254-2.68174zm918.36201 160.7033c.036.14133.099.32861.1341.4693l-.1341-.87156c.018.13048-.018.27165 0 .40226zm-552.90783-72.07178c-4.81611 0-9.54912.50871-14.07913 1.47496h-.067c-10.46904 2.43205-19.42576 5.39141-28.09126 8.91679 0 0-.067.067-.067.067-20.69517 9.06379-37.77655 23.20664-50.01445 40.96359l-.20112.40226c-11.15604 16.88853-17.76656 37.5921-17.76656 59.86985 0 .82384-.0343 1.65678 0 2.48061v195.29774.60339c0 5.56089.57926 10.97264 1.60908 16.22456l-.13411-.53635c.85815 3.98185 1.40631 8.57189 1.47496 13.27459v.0671c5.24839 18.64195 13.83215 34.86966 25.14132 48.80768v.067c10.86812 12.79862 26.15 23.13059 45.85775 31.04115 10.77845 5.59518 23.51779 8.84972 37.00802 8.84972 13.91735-.10037 27.34006-2.17271 40.02499-5.89983l1.00566-.26815c-.2164.0652-.45363.0698-.67043.13407 8.82302-2.39501 16.56833-5.83557 23.59931-10.39173h.067c7.70128-4.82534 14.41577-10.19273 20.44827-16.15747 10.50384-10.12625 19.38148-21.82183 26.28106-34.72851l.40227-.80454c5.62951-11.53363 8.84973-25.04047 8.84973-39.35453 0-.67719.0284-1.4012 0-2.07836v-.13407-208.63943-.67043c0-8.51108-1.11987-16.74815-3.08401-24.67201-7.49192-23.14124-20.77904-42.65817-38.2148-57.4563l-.20112-.13408c-17.75818-14.80606-39.42324-23.17327-65.0993-25.14131-4.22213-.96114-9.10182-1.47496-14.07913-1.47496zm117.59432 84.20666c.0156.0482.0515.0858.0671.13408l-.13411-.73748c.0491.19307.0191.40994.067.6034z" style="stroke-width:34.3263"/></svg>