<svg height="960" style="" width="1200" xmlns="http://www.w3.org/2000/svg"><path d="m508.39973 703.69593c-5.7721 2.4737-37.1065 35.1274-37.1065 38.7556 0 2.9685 30.6747 34.3029 36.6117 37.4363 3.4633 1.8141 12.5337 2.3088 39.0855 2.3088 18.9655 0 36.4468.6597 38.5907 1.4843 2.3088.9895 4.4528 3.4633 5.1124 6.1019 1.4843 5.6072 1.3194 141.66424 0 151.22944-.6596 3.7932-2.1439 8.5758-3.2983 10.5548-1.3194 1.979-2.3089 4.4527-2.3089 5.6072 0 3.7931-15.8321 21.4393-26.3868 29.3553-10.2249 7.7511-29.0255 18.30583-32.6537 18.30583-.8245 0-2.4737.9895-3.4632 2.3089-2.144 2.6387-.4948 4.2878 8.0809 7.5862 23.7482 9.4003 51.6192 35.2924 62.5038 58.2159 5.4423 11.2144 9.2354 9.4003 17.1514-7.916 7.0915-15.5023 33.3134-38.5908 55.2474-48.6507 6.4318-3.1335 11.8741-6.4318 11.8741-7.4213s-5.7722-4.6177-12.6987-7.9161c-16.3268-7.75113-17.3163-8.41083-29.8501-19.13043-15.3373-13.0285-23.5832-26.7166-26.5517-43.5382-1.1544-6.4318-1.8141-36.2819-1.8141-77.67624 0-56.8966.3298-67.7811 2.4738-71.9041 1.4842-2.8036 2.8036-5.1124 2.9685-5.2773s17.976-.6597 39.4153-1.1544l39.2504-.9895 18.9655-18.9656c10.3898-10.3898 18.9655-19.6252 18.9655-20.6147 0-2.3088-34.4678-36.2818-39.0855-38.5907-5.6072-2.8036-174.4827-2.4737-181.0794.4948zm297.3463-106.042c-2.1439 1.1544-2.9685 3.7931-2.9685 9.895 0 7.2564.4948 8.4108 4.2879 9.7302 2.3088.9895 13.3583 1.6492 24.4078 1.6492 15.832 0 20.7796-.4948 22.4288-2.4738 2.8036-3.4633.4947-5.7721-5.9371-5.7721-3.958 0-7.2564-1.4843-11.7091-5.6072-3.4633-2.9685-7.9161-6.2669-9.8951-7.4213-4.4528-2.3089-16.8216-2.3089-20.6147 0zm-435.0525 1.3193c-3.1334 1.8141-7.5862 5.1125-9.7301 7.4213-2.9685 3.1335-5.6072 4.2879-10.2249 4.2879-6.9266 0-9.4003 2.1439-6.4318 5.7721 1.6492 1.979 6.7616 2.4738 23.2534 2.4738 26.3868 0 29.5202-1.1545 29.5202-10.8846 0-4.1229-.9895-8.081-2.6387-9.5652-3.4632-3.6282-16.4917-3.2984-23.7481.4947zm465.8921-23.913c-5.2774 3.958-1.4842 8.2459 7.7511 8.9055 5.4423.3299 7.9161-.3298 10.06-2.6386 2.4738-2.8036 2.6387-3.4633.4948-5.1125-4.123-3.4633-14.5128-4.1229-18.3059-1.1544zm-107.5262-.1649c-2.144.8246-3.7931 2.6386-3.7931 3.7931 0 3.7931 5.937 5.6072 17.976 5.6072 14.3478 0 18.9655 1.6491 21.4393 7.916 2.4737 5.7721 1.4842 9.7301-3.2984 14.8426-2.9685 3.2983-4.9475 3.6282-18.8006 3.6282-15.6672 0-19.2954 1.3193-15.6672 5.7721 1.6492 1.979 6.9266 2.4738 25.0675 2.4738 26.2219 0 31.994-1.6492 37.2714-10.3898 4.9475-7.7512 4.6177-14.183-.9895-21.9341-5.9371-7.916-8.081-9.7301-14.3479-11.3793-7.7511-1.979-40.8995-2.3088-44.8575-.3298zm-302.4588.3298c-22.5937 6.5967-27.0465 33.1484-7.0915 41.3943 3.7931 1.6492 12.6987 2.3089 28.5307 2.3089 19.4603 0 23.0885-.3299 23.9131-2.6387 1.8141-4.7826-.6597-5.6072-15.6672-5.6072-13.8531 0-15.0075-.3299-18.8006-4.2879-4.9475-5.2773-5.2773-11.5442-.8246-17.1514 2.8036-3.6282 4.6177-4.1229 18.3059-4.9475 11.874-.6597 15.5022-1.4843 16.9865-3.6282 3.4633-5.4423-1.1544-6.9266-20.9445-7.0915-10.3899 0-21.2744.6597-24.4078 1.6492zm-80.15-.6597c-8.0809 3.1335-2.4737 9.7302 8.2459 9.7302 6.9265 0 10.8846-3.9581 8.2459-7.9161-1.8141-3.1334-10.8846-4.1229-16.4918-1.8141zm465.7272-8.7406c-13.6881 13.8531-12.2039 18.9655 4.9475 18.1409l9.5653-.4947.8245-12.039c.4948-6.5967.6597-12.6987.3299-13.5232-1.3194-3.7931-6.7616-.9895-15.6672 7.916zm-440.9895-6.9265c-.9895 2.8036.4947 21.4392 2.1439 23.913 1.3193 2.1439 19.4603 1.8141 21.7691-.4947 3.6282-3.6282 1.979-7.0915-7.5862-16.6567s-14.5127-11.5442-16.3268-6.7616zm512.8936-38.4258c-2.8036 1.1544-6.7617 3.958-8.5757 6.4318-3.2984 4.1229-3.4633 6.2668-3.4633 44.8575 0 45.6822-.6597 48.9805-12.6987 57.0615l-5.937 4.1229-76.8516.8246c-89.0555.9895-82.6237-.3298-100.9295 19.4603-14.1829 15.1724-15.6672 18.3059-12.8636 24.9026 2.6387 5.7721 8.4108 8.4108 18.9655 8.4108 12.6987 0 20.12 4.7826 38.5907 24.7376 9.5652 10.2249 20.2849 20.7796 23.7482 23.4183l6.4317 4.6177h71.2444 71.0795l5.2774-5.9371c2.8036-3.1334 5.937-5.4422 6.9265-4.7826.9895.6597 1.6492 8.2459 1.6492 18.3059 0 15.3373-.3299 17.1514-2.9685 17.1514-1.6492 0-4.7827-2.3088-7.2564-4.9475l-4.2879-4.9475h-73.5532c-69.2654 0-74.048.1649-79.8201 3.1334-3.2984 1.8141-13.3583 10.5547-22.099 19.6252-14.5127 14.8426-16.9865 16.6567-25.7271 19.1304-5.7721 1.6492-15.8321 2.6387-25.3973 2.6387-13.0285 0-16.1619.4947-18.3058 2.9685-2.4738 2.6387-2.8036 8.9056-2.8036 53.4333v50.29994l3.7931 3.4632c3.7931 3.6282 4.6176 3.6282 61.0195 3.6282 49.4752 0 58.0509-.3298 64.1529-2.8036 10.06-3.7931 15.8321-8.2459 20.2848-15.3373 3.6282-5.7721 3.9581-8.081 4.4528-33.14844.4948-26.057.6597-27.3764 5.2774-36.4468 3.4632-6.9266 7.0914-11.0495 13.1934-15.3374 10.3898-6.9265 14.5127-7.5862 62.009-7.916 38.7556-.3298 43.5382-1.3193 52.1139-10.5547 9.5653-10.2249 10.5548-14.5128 10.5548-43.5383 0-22.2638.4947-27.3763 2.9685-31.6641 5.937-10.8846 12.5337-17.9761 20.2848-21.7692 7.7512-3.958 8.9056-4.1229 46.67167-4.1229 42.3838 0 47.991-.9895 57.5562-9.7301 9.7302-8.9056 11.0495-13.8531 11.0495-42.7137 0-37.4363 1.8141-34.1379-42.2189-76.1919-15.997-15.3373-27.3763-24.7376-30.015-24.7376-.9895 0-1.979-.6597-2.3088-1.3194-.8246-1.979-14.18287-8.5757-17.48127-8.5757-1.6492 0-3.7931-.8246-4.7826-1.8141-3.1334-3.1334-21.934-5.1124-58.2159-5.6072-25.2324-.4947-36.9415-.1649-40.7346 1.3194zm76.6866 135.0675c1.1545 1.1544 1.979 3.1334 1.979 4.6176 0 2.3089-1.979 3.7931-10.2248 7.9161-2.4738 1.1544-1.3194-8.5757 1.4842-11.5442 3.1334-3.4633 4.1229-3.6282 6.7616-.9895zm13.6882-.3299c1.979 1.1544 4.1229 1.1544 5.937.1649s3.958-.9895 5.9371.165c2.1439 1.1544 3.7931.9895 4.9475-.165 3.1334-3.1334 9.23537-1.979 12.03897 2.3089 3.2983 5.1124 4.6177 5.1124 6.7616.3298 1.4842-3.1334 2.9685-3.6282 10.5547-3.4633 10.2249.165 13.1934 2.8036 10.06 9.5653-2.4738 5.6072-7.4213 5.4422-10.06-.165-1.8141-3.958-2.3088-4.2878-3.958-1.979-3.2984 4.2879-9.4003 6.9266-11.7092 4.9476-1.4842-1.1545-2.6386-1.1545-3.958.1649-2.63867 2.6387-10.22487.1649-11.70907-3.958-1.3194-3.4633-1.3194-3.4633-2.4738.9895-.8246 3.4632-1.979 4.4527-4.7826 3.958-2.3089-.3298-3.7931-1.8141-4.1229-4.2879-.6597-4.6177-2.144-4.6177-6.9266.4948-3.7931 4.1229-8.2459 5.4423-8.2459 2.6387 0-3.1335 3.4633-10.8846 5.4423-12.039 2.4738-1.6492 2.4738-1.6492 6.2669.3298zm70.74957.6597c2.4738 3.2983 1.4843 9.2354-1.979 11.5442-2.1439 1.3194-3.6282.9895-6.1019-1.3193-4.123-3.7931-4.2879-6.4318-.8246-9.8951 3.1334-3.2983 6.2668-3.2983 8.9055-.3298zm-235.17237 113.2984c4.6177 5.4422 9.2354 5.4422 9.2354 0 0-3.9581 4.7826-5.7722 10.0599-3.7932 2.4738.9896 5.4423.8246 7.5862-.1649 2.8036-1.1544 4.7827-.9895 7.9161 1.1545 3.958 2.6386 4.6177 2.6386 7.0914.4947 2.3089-2.1439 3.2984-2.1439 5.9371-.3298 2.1439 1.6491 4.1229 1.8141 7.0914.6596 2.144-.8245 6.4318-1.4842 9.5652-1.4842 4.2879 0 5.6072.8246 6.4318 3.958 1.979 8.081.1649 9.2354-14.5127 8.7406-7.2564-.1649-14.3478-.9895-15.5023-1.8141-1.1544-.6596-3.1334-.4947-4.6177.6597-3.1334 2.6387-34.7976 2.4738-37.931-.1649-1.8141-1.4843-2.9685-1.3193-4.7826.1649-3.7931 3.1334-7.916.8246-6.5967-3.6282 1.3193-4.1229 5.6072-9.5652 7.5862-9.5652.6597 0 3.1334 2.3089 5.4423 5.1125zm-130.4498 111.97904 2.3088 3.2983 2.9686-3.2983c3.7931-4.28794 6.5967-4.12304 9.7301.1649l2.3088 3.4633 3.4633-3.4633c4.6177-4.61774 8.081-4.45284 10.2249.4947 1.3193 2.8036 1.3193 4.7827 0 7.4213-2.4738 4.4528-6.4318 4.4528-11.0495 0l-3.6282-3.4632-1.1544 3.4632c-1.3193 4.4528-6.4318 4.4528-10.5547 0l-3.1334-3.4632-1.1545 3.6282c-.8246 2.6386-2.1439 3.2983-5.4423 2.9685-3.4632-.3299-4.6176-1.4843-4.9475-5.1125-.3298-2.6387-.1649-5.7721.3299-7.0914 1.3193-3.46334 7.0914-2.80364 9.7301.9895zm45.3523-1.81414c1.979 1.15444 1.8141 2.30884-.3298 6.26684-1.3194 2.8036-3.7931 5.6072-5.2774 6.102-4.9475 1.979-5.937-1.4843-2.3088-7.916 3.7931-6.26694 4.4528-6.76174 7.916-4.45284zm14.8426 2.47374c.8246 4.123-4.1229 10.8846-7.916 10.8846-4.123 0-4.123-1.6492.1649-9.0705 3.6282-6.10194 6.7616-6.76164 7.7511-1.8141zm-505.9671-361.00454c-13.3583 2.1439-29.1904 6.9265-30.6746 9.2354-.4948.8246-1.8141 1.4843-3.1335 1.4843-3.958 0-17.6461 9.895-29.6851 21.6042-6.2669 6.1019-13.6882 13.1934-16.4918 15.5022-15.3373 13.8531-27.3763 26.5517-30.3448 32.3238-3.1334 5.9371-3.4633 9.4003-3.4633 36.117 0 28.3658.1649 29.8501 3.958 35.2923 5.1125 7.5863 7.5862 9.8951 14.1829 13.5233 5.1125 2.8036 10.8846 3.2983 48.6507 3.958 47.8261.9895 48.4858 1.1544 59.7002 13.1934 9.5652 10.06 12.039 19.955 12.039 48.1559 0 27.7062 1.8141 33.4783 12.8635 42.3839 9.0705 6.9265 19.7901 8.5757 57.2264 8.2458 18.141 0 35.9521.3299 39.5802 1.1545 13.3584 2.4737 26.2219 14.5127 30.18 28.0359 1.1544 3.7931 1.979 15.997 1.979 27.2114 0 28.53084.6596 31.16954 9.7301 40.89964 12.2039 13.0285 14.018 13.3583 80.1499 13.3583 52.2789 0 56.5668-.1649 59.8651-2.9685 3.4633-2.9685 3.4633-4.2879 3.6282-53.43334.1649-32.6537-.3298-51.6192-1.4843-53.7631-1.4842-2.8036-3.958-3.2984-21.934-3.958-13.8531-.6597-22.2639-1.8141-26.5517-3.6282-3.2984-1.4843-12.6987-9.0705-20.6147-16.9865-7.9161-7.7512-17.3164-16.3269-20.7796-18.9656l-6.4318-4.6176h-74.5428-74.3778l-4.7826 4.9475c-7.7511 8.0809-8.7406 6.7616-9.4003-11.2144-.6597-20.12.4948-22.2639 8.5757-14.3478l5.9371 5.7721h70.5847c82.4588 0 73.5532 2.1439 94.9925-21.7691 25.2324-28.036 26.7166-29.0255 46.012-31.0045 13.8531-1.4843 18.3058-4.7827 18.3058-13.3584 0-5.7721-15.6671-24.0779-28.2009-32.6536l-8.4108-5.9371-75.2024-.4947c-78.006-.4948-81.7991-.8246-88.5607-7.5862-9.0705-9.0705-9.0705-8.7407-9.0705-52.7737 0-57.5562 1.8141-55.5772-50.4647-55.2473-17.1515.1649-36.7766 1.1544-43.5383 2.3088zm-70.9145 136.057c4.2878 4.2879 4.1229 5.937-.8246 9.2354-3.958 2.6387-4.4528 2.6387-7.4213-.1649-3.958-3.6282-4.1229-6.2669-.6597-9.7302 3.2984-3.4632 4.9476-3.2983 8.9056.6597zm26.8815 1.3193c1.9791 4.4528 3.9581 4.6177 5.2774.3299 1.3193-4.123 7.5862-5.7721 12.2039-3.2984 2.4738 1.1544 4.4528 1.3194 6.5967.1649 2.3089-1.3193 3.6282-1.1544 5.1125.6597 1.814 2.3089 2.4737 2.3089 4.9475 0 3.4632-3.1334 5.7721-3.1334 8.9055.1649 2.8036 2.6387 3.6282 12.2039 1.1544 12.2039-.6596 0-3.2983-1.8141-5.7721-4.1229-2.4737-2.3089-5.1124-4.123-6.1019-4.123-.8246 0-1.4843 1.8141-1.4843 4.123 0 3.1334-.8246 4.1229-3.4632 4.1229-1.9791 0-3.7931-1.3193-4.2879-3.1334-.8246-3.1334-.8246-3.1334-3.7931-.1649-4.1229 4.1229-19.7901 3.6282-24.7376-.8246-3.1335-2.8036-3.2984-2.8036-6.2669.8246-3.7931 4.6177-8.081 3.6282-9.5652-2.4738-1.4843-6.2669 1.3193-8.2459 11.0495-8.081 7.2563 0 8.9055.6597 10.2248 3.6282zm56.2369-.9895c2.4738 3.4633 3.6282 11.2144 1.8141 11.2144-1.979 0-8.9055-5.2773-9.7301-7.5862-1.1544-3.1334.4947-7.2564 3.2983-7.2564 1.1545 0 3.2984 1.6492 4.6177 3.6282zm107.5263 110c2.9685-2.4737 21.934-3.2983 25.0674-.9895.9896.8246 1.9791 2.9686 1.9791 4.6177 0 1.979 1.1544 3.1335 3.2983 3.1335 1.8141 0 3.2984-.9895 3.2984-2.144 0-3.4632 6.1019-8.2458 8.9055-7.2563 3.958 1.4842 8.2459 11.0494 6.102 13.1934-1.4843 1.4842-2.8036 1.3193-5.2774-.165-2.4738-1.6491-3.958-1.6491-5.4423-.3298-1.3193.8246-4.7826 1.6492-7.7511 1.4843-3.1334 0-10.5547.1649-16.6567.3298-6.9265.3298-11.874-.3298-13.5232-1.6492-1.4843-1.1544-3.4633-1.4842-4.6177-.8246-1.1544.8246-8.2459 1.6492-15.8321 1.8141-15.0075.4948-16.4918-.4947-14.5127-8.7406 1.1544-4.2879 1.3193-4.4528 11.3793-3.2983 5.6072.4947 11.3793.3298 12.6986-.6597 1.6492-.9895 3.2984-.6597 5.2774 1.1544 2.4737 2.1439 3.2983 2.3089 5.6072.3298zm114.4528 116.59684c3.6282 6.2668 2.6386 10.2248-2.3089 8.4108-3.6282-1.4843-8.0809-8.9056-6.9265-11.8741 1.4842-4.28794 5.4423-2.80364 9.2354 3.4633zm13.3583-1.4843c.9895 2.4738 2.4738 5.1124 3.4633 5.6072 2.1439 1.3193.1649 4.7826-2.8036 4.7826-3.1335 0-9.5653-9.4003-8.4108-12.3688 1.4842-3.95804 5.937-2.80364 7.7511 1.979zm17.8111-1.6492c3.6282 2.4738 4.1229 2.4738 5.937 0 2.6387-3.62824 5.1125-3.46324 9.0705.4948l3.4632 3.4632 2.9686-3.6281c2.1439-2.63874 3.7931-3.29844 6.5967-2.30894 2.9685.9895 3.6282 2.14394 3.1334 7.09154-.4948 5.2773-1.1544 6.1019-4.9475 6.5967-3.2984.3298-4.6177-.3299-5.4423-2.9685l-1.1544-3.6282-3.6282 3.4632c-4.4528 4.2879-8.5757 4.4528-10.7197.6597-1.4842-2.8036-1.6491-2.8036-4.6176 0-4.4528 3.958-8.4108 3.4633-10.5548-1.1544-1.3193-2.8036-1.3193-4.7826 0-7.4213 2.3089-4.12294 4.7826-4.28794 9.8951-.6597zm507.12147-396.79164c-1.1544 2.1439 5.6072 8.0809 9.0704 8.0809 1.6492 0 3.9581 1.1545 5.1125 2.4738s2.8036 2.4738 3.6282 2.4738c4.4527 0 24.9025 15.997 44.5277 35.1274 3.6282 3.4633 7.4213 5.937 8.4108 5.6072 1.3193-.3298 2.1439-6.5967 2.4738-18.4708.4947-16.6566.1649-18.1409-3.7931-24.0779-6.7617-10.3898-10.5548-11.3793-41.3943-12.039-15.0075-.1649-27.5413.1649-28.036.8246zm-122.69867-.4948c-7.2564.9895-11.5442 6.5967-11.5442 15.1724 0 13.1934-.6597 13.0285 51.1244 13.6882 30.6747.3298 47.8261 1.3193 52.7736 2.8036 8.9056 2.4738 19.7902 6.4318 23.0885 8.4108 1.31927.6597 5.44227 2.9685 9.07047 4.7826 8.4108 4.6177 17.6461 12.2039 35.1274 28.8606 7.5862 7.2563 17.3164 16.3268 21.4393 20.2848 4.7826 4.6177 8.5757 6.9266 10.8846 6.5967 3.1334-.4947 3.4632-1.6491 3.958-15.8321l.4947-15.3373-16.1619-15.8321c-16.6567-16.1619-36.1169-31.8291-43.3733-34.9625-2.3089-.9895-5.2774-2.4738-6.5967-3.2983-1.3194-.9895-6.5967-3.4633-11.7092-5.7722-16.49167-7.4212-30.34477-9.2353-74.21287-9.7301-22.0989-.1649-42.0539 0-44.3628.1649zm-645.6522.4948c-19.7901 1.6492-39.5802 6.5967-44.033 11.0495-1.1544 1.1544-2.9685 1.979-4.123 1.979-3.958 0-24.2428 12.3688-32.4887 19.6252-2.6387 2.3088-12.039 11.2143-20.9445 19.7901l-16.3269 15.5022v15.1724c0 19.2954 1.6492 21.4393 11.0495 13.6882 3.4633-2.9685 13.8531-12.6987 22.7586-21.4393 28.8606-27.8711 45.3523-38.2609 72.069-44.8576 8.7406-2.1439 19.6252-2.6387 53.2684-2.6387 41.889 0 42.3838 0 45.5172-3.7931 4.4528-5.4422 4.1229-15.1724-.9895-20.1199-2.1439-2.3088-5.2774-4.1229-6.9265-4.1229-24.4078-.8246-68.6057-.6597-78.8306.1649zm-97.6312 0c-7.0915 1.4842-11.5443 4.2878-16.1619 10.3898-4.123 5.2773-4.2879 6.4318-3.7931 24.2429.3298 12.3688 1.1544 18.8006 2.4737 19.1304.9895.3298 6.9266-4.2879 13.1934-10.3898 17.6462-17.3163 42.7137-35.2924 49.3104-35.2924 2.1439 0 7.2563-5.2773 7.2563-7.5862 0-1.8141-44.0329-2.1439-52.2788-.4947zm934.58777-61.5143c-1.3194.4948-7.2564 5.6072-13.1934 11.5443-14.018 13.6881-31.0045 26.3868-45.0225 33.1484-6.102 3.1334-10.8846 6.4318-10.5547 7.4213.3298 1.1544 9.2353 1.979 26.5517 2.3088 29.8501.4948 34.4678-.8246 42.3838-11.7091 4.6177-6.2669 4.7826-7.4213 4.7826-24.4078 0-9.7302-.4947-18.141-1.1544-18.4708-.8246-.3298-2.4738-.3298-3.7931.1649zm-953.88317-.1649c-.4947.4948-.9895 9.2354-.9895 19.2954 0 15.997.4948 18.8006 3.7931 23.5832 6.9266 10.3898 13.6882 12.2039 43.0435 11.7091 15.3373-.3298 25.8921-1.1544 26.2219-2.1439.1649-.9895-4.6177-4.2879-10.7196-7.4213-6.102-3.1334-12.039-6.7616-13.1935-7.916-.9895-.9895-2.6386-1.9791-3.4632-1.9791-2.1439 0-12.039-8.4107-26.7167-22.2638-12.3688-11.7092-16.3268-14.5128-17.976-12.8636zm929.64027-26.8816c-32.6537 31.8291-48.3208 42.2189-73.55317 48.8156-10.2249 2.8036-17.8111 3.2984-54.9176 3.2984-42.7136 0-43.0435 0-46.5067 3.7931-2.4738 2.6387-3.6282 5.937-3.6282 10.5547 0 5.6072.9895 7.5862 5.1124 11.0495l5.1125 4.2879h38.0959c50.2999 0 65.1425-2.3089 88.06597-13.5233 23.4183-11.2144 28.6957-15.3373 57.7212-43.5382l13.6881-13.3583v-13.3584c0-15.3373-.8246-18.4707-5.1124-18.4707-1.6492 0-12.5338 9.2354-24.078 20.4497zm-214.22787-18.1409c-8.2459 6.2669 8.081 12.5337 17.1514 6.5967l4.2879-2.8036-3.7931-2.9685c-4.6177-3.7931-13.1934-4.1229-17.6462-.8246zm-29.8501-.6597c-6.1019 2.4738-4.6177 7.7512 4.9475 17.1515 14.018 14.018 16.6567 13.5232 16.162-2.9685-.4948-15.3374-.8246-15.8321-9.7302-15.6672-4.2878 0-9.4003.6597-11.3793 1.4842zm-433.4033 0c-.6597.9896-1.4843 7.2564-1.979 13.8531-1.3194 16.8216 1.3193 17.4813 15.3373 3.958 11.3793-10.8845 13.0285-15.3373 6.2669-17.8111-5.6072-2.1439-18.3059-2.1439-19.6252 0zm-26.7167 0c-4.7826 1.9791-4.9475 5.9371-.4947 8.2459 4.7826 2.6387 15.0075 1.3194 16.9865-1.979 3.958-6.1019-6.7616-10.2249-16.4918-6.2669zm-225.2774-.4947c-.6596.4947-1.1544 7.916-1.1544 16.1619v15.1724l7.0915 7.2564c16.6566 16.9865 37.931 35.6222 44.033 38.2609 1.3193.6596 4.7826 2.6387 7.4212 4.4527 2.8036 1.8141 6.102 3.7932 7.4213 4.2879 1.3194.6597 6.2669 2.8036 10.7197 4.9475 17.8111 8.081 28.3658 9.4003 76.1919 10.2249l45.0225.6597 4.9475-4.9475c6.4318-6.4318 6.9266-15.997 1.1544-21.4393-3.4632-3.2984-5.4422-3.4633-49.8051-4.123-48.4857-.6596-52.2788-1.1544-70.0899-9.0704-15.8321-6.9266-29.8501-17.6462-53.5982-40.5697-21.2744-20.6147-26.3868-24.2429-29.3554-21.2744zm707.1665-34.6327c-25.7271.6597-25.5622.6597-25.5622 10.06 0 4.2878.8246 8.7406 1.979 9.895 1.1544 1.1545 6.102 1.979 11.2144 1.979 9.4003 0 12.3688-1.3193 22.7586-10.2248 3.6282-3.1335 7.2564-4.6177 11.0495-4.6177 6.9266 0 7.9161-4.123 1.4843-6.5967-2.3089-.9895-4.2879-1.4843-4.4528-1.3194s-8.4108.6597-18.4708.8246zm-99.4453.9895c-7.0914 3.2984-2.8036 5.2774 13.1934 6.102 16.9866.8245 21.4393 2.9685 23.4183 10.8845 1.3194 5.1125-2.8036 13.1934-7.5862 14.8426-2.1439.6597-8.2458 1.1544-13.6881.8246-15.1724-.4948-24.4078 5.1124-15.8321 9.7301 4.6177 2.3089 40.2399 2.144 45.8471-.3298 10.7196-4.6177 18.6357-14.6777 18.6357-23.5832 0-5.6072-6.4318-15.1724-11.5443-17.1514-6.1019-2.3089-47.8261-3.4633-52.4438-1.3194zm-295.2024-.4947-16.9865.8245-4.7826 5.7722c-7.0915 8.4108-6.9265 18.4707.4947 26.7166 8.4108 9.4003 15.3374 11.3793 38.2609 10.8846 16.6567-.4948 19.6252-.9895 21.2744-3.4633 2.9685-4.9475-2.9685-7.916-14.6777-7.5862-13.6881.4947-19.7901-1.1544-22.0989-6.102-2.9685-6.5967-2.144-10.3898 2.9685-15.6671 4.6177-4.6177 5.6072-4.7826 18.9655-4.7826 13.8531 0 18.1409-1.6492 14.3478-5.4423-2.1439-2.1439-12.3688-2.3089-37.7661-1.1544zm-87.901.3298c-4.9476 1.979-2.8036 5.4423 3.4632 5.937 3.4633.3299 9.4003 3.4633 15.3374 7.9161 8.4108 6.2668 10.7196 7.2563 17.976 7.2563 11.874 0 14.5127-1.979 14.5127-10.7196 0-5.2774-.8246-7.7511-2.8036-8.9055-3.6282-1.8141-44.033-3.1335-48.4857-1.4843zm303.4483-8.9056c-10.7197 10.8846-14.6777 16.3269-16.8216 22.4288-2.4738 7.4213-2.8036 19.9551-2.8036 124.5128 0 105.3823.3298 117.0915 2.8036 123.8531 1.4842 4.1229 3.7931 8.0809 4.9475 8.7406s2.1439 2.1439 2.1439 2.9685c0 2.8036 23.7482 24.4078 26.8816 24.5727 3.6282 0 6.7616-6.7616 5.6072-11.874-.6597-2.144-5.7721-8.9056-11.5442-15.0075-6.5967-6.9266-11.0495-13.0285-11.7092-16.1619-1.3193-6.7617-1.3193-226.4319.1649-234.5128.6597-4.9475 3.1335-8.5757 10.5548-15.6672 11.7091-11.2144 14.1829-16.4917 11.3793-23.4183-1.1545-2.8036-3.2984-4.9475-4.7826-4.7826-1.4843 0-9.0705 6.5967-16.8216 14.3478zm1.6491-21.6042c-1.4842 1.6492-7.916 8.081-14.5127 14.183-6.4318 6.2668-11.7092 12.2039-11.7092 13.3583 0 1.3193-.9895 3.1334-2.3088 4.1229-1.3193 1.1544-2.8036 4.9475-3.4633 8.5757-.6596 3.4633-1.8141 6.7616-2.6387 7.4213-.8245.4948-1.4842 49.4753-1.4842 119.0705.1649 110.3298.3298 118.9056 3.1334 126.9865 1.6492 4.7826 3.7931 9.5652 4.9476 10.7197.9895.9895 1.814 2.8036 1.814 3.958 0 1.8141 28.8606 31.8291 30.8396 31.8291s7.0915-3.6282 7.0915-5.1125c0-1.4842-6.2669-7.916-16.8216-17.1514-7.916-6.9265-16.1619-18.8006-16.1619-23.2534 0-2.1439-.6597-4.2878-1.6492-4.7826-2.1439-1.3193-2.3088-242.5937-.1649-243.9131.8246-.4947 1.979-3.6281 2.4737-6.7616.8246-4.4528 4.6177-9.4003 14.018-18.9655 6.9266-7.2564 13.5233-13.1934 14.5128-13.1934 1.979 0 4.1229-6.4318 2.8036-8.5757-1.4843-2.3089-8.081-1.4843-10.7197 1.4842zm-112.4737-1.6491c-2.4738 2.3088-.9895 6.7616 2.9685 9.4003 12.3688 8.0809 26.8815 25.892 29.3553 36.1169 2.3088 8.7406 3.2984 114.4528 1.1544 118.081-.9895 1.6492-1.6491-19.1304-1.6491-55.4123 0-31.994-.6597-58.3808-1.4843-58.8756-.8246-.4947-1.979-2.8036-2.4738-5.2773-.6596-2.3089-1.979-5.4423-3.1334-6.7617-4.6177-6.1019-28.5307-28.3658-30.3448-28.5307-1.1545 0-2.8036 1.4843-3.7931 3.1334-3.6282 6.7617-1.8141 11.0495 9.895 24.2429l11.5442 12.8636v120.5547c0 136.2219 1.4843 121.2144-14.5127 137.2114-5.937 5.9371-8.5757 10.06-8.5757 13.0285 0 5.4423 2.8036 10.5547 5.7721 10.5547 4.2879 0 31.6642-28.5307 32.9835-34.3028.4948-2.8036 1.8141-5.6072 2.6387-6.102.8246-.6596 1.4843-25.5622 1.6492-59.0404 0-35.6222.6596-56.5668 1.4842-54.4228 2.144 5.1124 1.1544 108.5157-1.1544 116.7616-.9895 3.6282-2.8036 8.5757-3.958 10.8845-2.9685 5.1125-23.5832 26.2219-25.8921 26.2219-1.6491 0-3.6282 3.7931-3.6282 7.4213 0 4.123 6.5967 3.9581 11.2144-.3298 17.8111-16.3268 25.5623-24.9026 29.5203-33.1484l4.6177-9.4003v-125.3374-125.3373l-4.123-8.2459c-2.4737-4.9475-10.0599-14.1829-18.8006-22.7586-13.3583-13.1934-18.3058-16.1619-21.2743-13.1934zm89.3853.9895c-7.7511 7.4213-15.997 16.1619-18.141 19.2953-7.7511 10.7197-8.0809 18.8006-7.916 151.0645 0 124.5128.6597 139.0255 6.102 144.4678.9895.9895 1.979 2.8036 1.979 3.958 0 2.1439 25.892 27.2114 32.6536 31.6642 3.4633 2.3088 4.123 2.3088 7.2564-.8246l3.2984-3.4633-15.5023-15.5022c-15.0075-14.6777-22.7586-25.8921-22.7586-32.6537 0-1.6492-.6597-3.6282-1.6492-4.1229-2.4737-1.4843-2.3088-243.7482.3299-251.3344 4.2878-13.5232 8.7406-20.4498 20.4497-32.3238 6.5967-6.7617 12.8636-12.3689 13.5233-12.3689 2.6386 0 5.1124-7.7511 3.1334-9.7301-3.958-3.958-8.9055-1.3193-22.7586 11.8741zm-78.8306-11.3793c-1.4843 1.8141-1.6492 3.2983-.1649 5.7721.9895 1.979 2.3088 3.4632 2.9685 3.4632 3.6282.165 23.913 22.5938 29.8501 32.9836 5.4422 9.5652 5.7721 17.8111 5.7721 137.7061 0 118.7407-.4948 131.6042-5.4423 136.5518-.9895.9895-1.8141 3.1334-1.8141 4.7826 0 1.6491-1.1544 3.4632-2.4738 3.958-1.3193.6597-2.4737 1.6492-2.4737 2.4738 0 1.3193-10.06 11.5442-22.9236 23.4182-2.8036 2.6387-5.1124 5.6072-5.1124 6.5967 0 2.8036 6.4318 6.4318 8.7406 4.9476 6.4318-3.7931 28.5308-25.7272 33.8081-33.4783l6.102-9.0705v-140.3448c0-131.4393-.1649-140.6747-2.8036-143.6432-1.6492-1.8141-2.9685-3.958-2.9685-4.9475 0-2.9685-32.8186-33.4783-36.117-33.4783-1.6492 0-3.958.9895-4.9475 2.3089zm99.1154-248.695699c-3.6281 2.4737-3.6281 2.6387-3.6281 53.433299 0 62.1739-1.9791 57.7211 24.9025 57.7211 25.0675 0 28.036 1.4843 50.2999 23.0885 10.3898 10.2249 20.4497 18.4707 23.0884 19.2953 2.6387.6597 37.2714 1.3194 77.1814 1.3194h72.2339l4.4528-5.4423c2.4738-2.8036 5.7721-5.2774 7.2564-5.2774 2.4737 0 2.8036 2.144 2.8036 17.1515 0 11.0494-.6597 17.6461-1.8141 18.4707-.9895.6597-4.2879-1.4842-7.4213-4.9475l-5.4423-5.937h-70.09c-67.6162 0-70.2548.1649-75.862 3.2983-3.1335 1.979-13.3584 11.7092-22.5937 21.9341-9.4003 10.2248-18.4708 19.6251-20.4498 21.1094-5.1125 4.2879-18.3059 8.081-27.2114 8.081-7.0915 0-8.4108.6596-11.5442 4.9475-2.4738 3.4633-3.2984 6.4318-2.6387 9.2354 1.4842 5.4422 17.4812 23.0884 27.871 30.3448l8.081 5.7721 76.8516.8246c52.4438.4948 78.3358 1.4843 81.1394 2.6387 4.4528 2.1439 9.2354 7.0914 13.6882 14.1829 2.4737 3.958 2.8036 10.06 2.8036 46.5067v41.8891l5.1124 4.2879c2.8036 2.3088 6.7616 4.7826 8.7407 5.2773 5.937 1.4843 78.5007-.4947 86.7466-2.3088 16.9865-3.7931 39.58017-14.6777 47.99097-23.2534 1.4843-1.4843 13.8531-13.3583 27.5412-26.3868 31.994-30.1799 31.6642-29.3553 31.6642-65.6372 0-22.7586-.4947-28.036-2.8036-32.3238-4.1229-7.4213-10.5547-14.3479-15.3373-16.4918-2.4738-1.1544-21.4393-2.1439-47.0015-2.8036-39.41527-.8246-43.37327-1.1544-49.47527-4.4528-9.4003-4.9475-14.8426-10.3898-19.6252-19.955-4.1229-8.081-4.2878-9.7301-4.2878-34.7976 0-30.6747-1.4843-35.2924-14.5128-46.012l-7.4213-6.1019-43.868-.9895c-51.7842-1.1545-53.7632-1.6492-65.4723-14.183-9.5652-10.2248-12.2039-20.7796-12.2039-47.826099 0-19.6251-.4948-24.7376-2.8036-29.0254-4.2879-7.5862-13.3583-15.3374-20.2849-17.4813-3.958-1.1544-26.2219-1.8141-64.4827-1.8141-50.2999 0-59.0405.3298-62.174 2.6387zm31.4993 18.8006 2.3088 3.2983 2.9686-3.2983c6.1019-6.7616 12.3688-1.979 10.0599 7.5862-1.3193 4.9475-6.2668 5.2774-10.7196.4947l-3.1334-3.4632-1.1545 3.6282c-.8246 2.6386-2.1439 3.2983-5.4423 2.9685-3.4632-.3299-4.6176-1.4843-4.9475-5.1125-.3298-2.6386-.1649-5.7721.3299-7.0914 1.3193-3.4633 7.0914-2.8036 9.7301.9895zm30.6747.6597c4.4527 8.0809-4.2879 14.5127-10.3898 7.7511-2.3089-2.4738-2.4738-3.958-1.1545-6.4318 3.2984-6.102 8.7407-6.7616 11.5443-1.3193zm12.5337 1.1544c4.7826 5.937 4.6177 8.7406-.4948 9.4003-2.3088.3298-3.6281-.3299-3.6281-1.979 0-1.3194-1.1545-3.6282-2.6387-5.1125-2.6387-2.6387-2.144-7.4213.8246-7.4213.8245 0 3.4632 2.3089 5.937 5.1125zm13.5232-1.4843c4.6177 4.2879 5.1125 11.2144.8246 11.2144-3.2983 0-9.5652-10.3898-7.916-13.0285s2.8036-2.3088 7.0914 1.8141zm66.9566 112.143999c.4947 1.6491 1.4842 1.6491 4.6177.1649 4.7826-2.3089 36.1169-2.4738 39.0854-.1649 1.3194 1.1544 2.8036.9895 4.4528-.3299 1.8141-1.4842 3.6282-1.6491 6.2669-.4947 1.979.8246 5.4422.9895 7.7511.3298 11.2144-3.2983 17.4812 0 15.5022 8.081-1.3193 4.6177-4.7826 5.6072-12.6986 3.4632-5.1125-1.3193-7.5862-1.3193-10.7197.3299-3.4632 1.979-4.2878 1.8141-6.2668-.8246-1.979-2.8036-2.4738-2.9685-5.1125-.6597-2.1439 1.6492-6.4318 2.3089-14.5127 2.3089-10.2249-.165-11.5442-.4948-12.039-3.4633-1.1544-6.4318-3.4633-6.5967-8.4108-.8246-4.1229 4.7826-5.2774 5.4423-7.916 3.958-3.6282-2.1439-7.5862-9.895-6.2669-12.2039 1.4843-2.3088 5.4423-1.979 6.2669.3299zm158.4857 119.0704c-1.4842 4.6177-1.6491 4.7826-5.4422 3.4633-3.6282-1.1544-6.102-7.4213-4.4528-11.5442 1.6492-4.2879 11.2144 3.6282 9.895 8.0809zm25.3973-6.1019c1.1545 2.9685 1.8141 3.6282 1.8141 1.6492.165-3.9581 8.2459-6.9266 12.36877-4.4528 1.9791 1.3193 3.6282 1.3193 4.6177.3298 1.9791-1.979 7.7512.6597 10.06 4.2879 1.1544 1.6492 2.3089 1.1544 5.2774-1.979 2.1439-2.3089 4.7826-4.2879 5.6072-4.2879 2.8036 0 5.4423 6.5967 4.4527 10.7197-.8245 3.4632-1.814 3.7931-10.7196 3.6281-8.9055 0-9.895-.3298-10.8846-3.958-.9895-4.4528-4.1229-4.9475-5.2773-.8246-1.3194 5.2774-6.59667 7.4213-12.03897 4.7826-3.4633-1.8141-5.1124-1.979-6.4318-.6596-1.4842 1.4842-2.6387 1.3193-4.9475 0-1.8141-1.1545-3.7931-1.3194-5.2774-.3299-4.6177 2.9686-8.2459 1.4843-10.7196-4.2878-1.1544-3.1335-2.3089-6.102-2.3089-6.5967 0-2.144 6.4318-.4948 9.0705 2.4737 3.7931 4.123 5.7721 4.2879 5.7721.3299 0-6.7616 7.2564-7.4213 9.5652-.8246zm58.05097-.9895c2.8036 5.1124.6597 11.3793-3.7931 11.3793-7.7511 0-10.3898-7.916-4.1229-12.2039 4.7826-3.4633 5.7721-3.2984 7.916.8246zm-620.91457-243.913099c-7.4213 2.6387-14.8426 8.7406-19.1304 15.6672-3.4633 5.6072-3.958 8.5757-4.2879 29.3553-.6597 32.323799-2.4737 38.920599-12.8636 49.475299-12.3688 12.6986-18.1409 14.018-63.823 14.018-20.12 0-39.4153.8246-42.7137 1.6491-7.4213 1.9791-15.5022 9.2354-19.6252 17.4813-2.8036 5.4423-3.2983 9.7301-3.2983 31.4993 0 19.6251-.6597 26.7166-2.8036 32.1589-3.9581 10.2249-11.0495 18.4707-19.9551 23.7481l-7.7511 4.6177-41.2294.4948c-49.4752.8245-51.2893 1.3193-62.009 15.997l-4.7826 6.4317v29.5203c0 39.4153-2.3088 34.7976 39.5802 74.2129 21.1095 19.6252 27.0465 24.5727 31.3344 26.5517 1.3193.6597 4.9475 2.6387 8.0809 4.6177 15.8321 9.5652 27.8711 11.5442 74.2129 12.5337 42.7137.8246 45.8471.3299 51.2894-8.5757 3.1334-4.9475 3.2983-8.0809 3.2983-45.8471 0-36.4467.3299-41.2293 2.9686-45.5172 3.1334-5.1124 8.7406-10.06 14.3478-12.6987 1.8141-.8245 37.7661-1.814 79.985-2.3088l76.6867-.8246 6.5967-4.2878c6.7616-4.4528 18.8006-16.4918 25.2324-25.2324 7.916-10.3898 2.4737-20.7796-11.0495-20.7796-14.5128 0-22.7586-4.123-37.1065-18.8006-7.0914-7.4213-15.6671-16.4918-18.8006-20.4498-3.1334-3.958-8.9055-8.9056-12.6986-11.2144l-6.9266-3.958h-69.7601-69.925l-5.9371 5.7721c-4.6177 4.6177-6.4318 5.4423-7.5862 3.7931-2.1439-2.9685-.8246-34.3029 1.3194-34.3029.9895 0 4.6177 2.6387 8.2458 5.9371l6.4318 5.7721 72.8936-.4948c68.6057-.4947 73.2234-.6596 77.8411-3.6282 2.8036-1.8141 12.3688-10.7196 21.4393-19.7901 19.2953-19.4602 22.5937-20.7796 48.4857-20.7796 25.3973 0 23.5832 4.4528 23.2534-56.8965-.1649-44.527799-.4948-51.454299-2.8036-53.928099-2.4738-2.8036-7.0915-2.9685-62.1739-2.8036-36.9416 0-61.3494.8246-64.4828 1.8141zm46.012 17.4813c.4948.8246-.4947 4.1229-1.979 7.4213-1.979 4.4527-3.7931 5.937-6.1019 5.6072-4.7827-.4948-4.7827-4.7826-.165-9.8951 4.2879-4.6177 6.7617-5.4423 8.2459-3.1334zm14.8426 0c.4947.8246-.4948 4.1229-1.979 7.4213-1.979 4.2878-3.958 5.937-6.4318 6.1019-5.1124 0-4.9475-4.9475.3298-10.5547 4.123-4.4528 6.5967-5.2774 8.081-2.9685zm12.5337 1.1544c1.1544 1.3193 3.1335 2.4738 4.4528 2.4738 1.1544 0 2.6387-1.1545 3.1334-2.4738 1.4843-3.4633 4.9476-3.1334 9.2354 1.1544 1.979 1.979 3.7931 2.9685 4.123 1.979 1.6491-4.7826 3.6281-5.937 7.916-4.9475 3.7931.9895 4.2879 1.8141 3.7931 7.2564-.4948 5.2773-1.1544 6.1019-4.9475 6.5967-3.2984.3298-4.6177-.3299-5.4423-2.9685l-1.1544-3.6282-3.6282 3.4632c-4.4528 4.2879-8.5757 4.4528-10.7197.6597-1.4842-2.8036-1.6491-2.8036-4.6176 0-4.2879 3.7931-8.2459 3.4633-10.5548-.6597-1.3193-2.6386-1.3193-4.4527.3299-7.4212 2.3088-4.6177 5.1124-5.1125 8.0809-1.4843zm-148.5907 114.287899c.9895 1.6491 1.6492 1.6491 3.2984-.3299 2.4737-2.9685 31.1694-3.4632 38.5907-.4947 3.6282 1.3193 5.1124 1.1544 6.1019-.4948.6597-1.1544 2.4738-1.6491 4.123-1.1544 3.1334 1.3193 2.1439 6.5967-2.144 11.3793-3.6282 4.2879-6.2668 3.6282-10.5547-1.979-4.4528-6.1019-7.916-6.4318-7.916-.8246 0 4.7826.8245 4.4528-13.1934 4.9475-7.7512.165-11.5443-.4947-13.6882-2.3088-2.8036-2.3088-3.2984-2.3088-5.2774.4947-1.6491 2.144-3.1334 2.6387-5.2773 1.6492-1.6492-.6596-7.7512-1.3193-13.6882-1.3193-9.895-.1649-10.7196-.4948-11.2144-3.958-1.1544-7.7512.1649-8.4108 15.3374-7.9161 9.2353.1649 14.6776.9895 15.5022 2.3089zm-184.2129 113.1334c1.8141 2.6387 1.6492 3.7931-1.3193 6.5967-6.4318 6.5967-14.8426-.4947-9.7302-8.2459 2.3089-3.4632 3.1334-3.7931 6.2669-2.1439 1.979 1.1544 4.1229 2.8036 4.7826 3.7931zm13.6881-1.3193c3.1335 3.2983 4.123 3.6282 5.2774 1.8141 1.979-3.6282 7.7511-6.102 10.3898-4.4528 1.1544.6597 3.2984.6597 4.7826-.3298 3.6282-2.144 11.7092.9895 11.8741 4.7826 0 1.979.6597 1.3193 1.8141-1.6492 2.4737-6.7616 6.9265-5.2774 7.5862 2.6387.4947 6.4318-2.9685 10.0599-6.5967 6.4318-1.1544-1.1545-3.4633-.9896-7.2564.6596-5.1124 2.144-5.7721 2.144-8.9055-.9895-1.8141-1.8141-3.2984-4.1229-3.2984-4.9475 0-2.9685-2.8036-1.6492-4.4528 1.979-1.3193 3.1334-2.9685 3.7931-10.8845 3.958-8.5757.3299-9.5652 0-10.3898-3.4632-.9895-4.123 1.6492-10.7197 4.4528-10.7197.8245 0 3.4632 1.979 5.6071 4.2879zm70.09.3298c0 2.8036-1.6492 6.2669-3.958 8.4108-3.958 3.7931-3.958 3.7931-5.7721.4948-2.4738-4.6177-2.4738-4.6177 2.6387-9.4003 5.7721-5.2774 7.0914-5.2774 7.0914.4947zm-13.1934.4948c0 5.6072-3.1334 9.7301-7.5862 9.7301-6.2669 0-6.9265-4.6177-1.3193-9.2354 5.937-4.7826 8.9055-4.9475 8.9055-.4947zm359.5203-412.129c-.9895 2.1439-3.1334 5.937-4.9475 8.7406-1.8141 2.6387-3.7931 6.2669-4.2879 7.7511-.6597 1.6492-1.4843 2.9686-2.1439 2.9686-.6597 0-3.7931 3.6281-7.0915 7.916-7.5862 10.2249-26.7166 24.5727-43.0435 32.1589-7.4213 3.6282-12.3688 6.9266-11.874 7.9161.6596.8246 6.4318 4.2878 12.8635 7.4213 19.6252 9.5652 20.7797 10.5547 33.1485 22.098901 12.8635 12.3687999 21.4393 26.8815999 23.0884 39.5802 1.4843 10.5547 1.4843 146.941599 0 150.569699-1.979 5.2774-8.0809 6.102-42.3838 6.102-28.2009 0-34.1379.4948-39.0854 2.9685-6.7617 3.2984-37.9311 34.7976-37.9311 38.4258 0 2.6387 31.994 34.7976 37.4363 37.6012 2.4738 1.3194 30.3448 1.8141 91.5292 1.8141 82.6237 0 88.2309-.1649 92.5188-3.1334 5.7721-3.7931 35.6222-34.9626 35.7871-37.2714 0-2.8036-35.1274-36.7766-40.075-38.5907-2.8036-1.1544-19.1304-1.8141-39.2503-1.8141h-34.6327l-3.958-4.2879-4.123-4.4527v-68.770699c0-69.5952.8246-82.4587 6.2669-94.0030001 9.4003-19.7900999 30.8396-38.0959009 58.5457-49.9700009 3.2984-1.4842 6.102-3.6282 6.102-4.7826s-3.4633-3.6282-7.9161-5.2773c-26.2219-10.8846-51.2893-33.8081-62.6687-57.5563-4.2878-8.5757-9.2353-10.3898-11.874-4.1229z" style="stroke-width:.164918"/></svg>