<svg height="960" style="" width="1070" xmlns="http://www.w3.org/2000/svg"><path d="m535.92908-29.999957a257.06049 257.06049 0 00-.66398 514.082727 255.07884 255.07884 0 00254.54805-255.33909c.56832-142.74145-112.97176-258.591747-253.58741-258.743637a257.06049 257.06049 0 00-.29671 0zm.25427 589.928687c-100.9453-.0145-201.88854.14104-302.83289.4658a108.24267 108.24267 0 00-107.4331 88.58821c-5.54788 28.47715-4.03358 58.33471-5.72129 87.89599 139.94805 84.75758 277.99903 168.36176 417.95091 253.12127l411.42449-252.10409c0-23.8658.59148-45.4244-.11251-66.94623a112.6905 112.6905 0 00-110.44247-110.45621c-100.94624-.35658-201.88757-.54969-302.83289-.56488z" style="stroke-width:8.03649"/></svg>