<svg height="960" style="" width="1797" xmlns="http://www.w3.org/2000/svg"><path d="m831.06853 894.24275c-20.4578 19.7271-28.4948 33.6092-26.3029 45.2994 2.1919 16.80465 3.6532 16.80465 93.5215 16.80465s91.3295 0 93.5215-16.80465c2.1919-11.6902-5.8451-25.5723-26.303-45.2994-26.3029-26.30304-32.148-29.22554-67.2185-29.22554-35.0706 0-40.9157 2.9225-67.2186 29.22554zm-141.0128-138.82104c2.1919 2.9226-6.5758 20.4578-19.7272 39.4544l-22.6498 34.3399 16.8047 17.5353c9.4983 10.2289 24.111 18.2659 32.148 18.2659 8.7676 0 21.9191 5.1145 29.2255 10.9595 26.3029 19.72724 40.9156 11.69024 67.9492-40.185 1.4612-2.1919-10.9596-21.9191-27.0336-43.8382-25.5723-33.6092-33.6093-40.185-54.7977-40.9156-13.8821 0-23.3804 1.4613-21.9191 4.3838zm344.86037 21.9191c-36.53177 48.222-38.72367 55.5284-20.4578 67.2186 8.7676 5.1144 15.3434 14.6127 15.3434 21.9191 0 18.99654 10.9595 21.91914 37.9931 8.7676 85.4845-42.3769 84.7539-40.9156 53.3365-87.6764-10.229-14.6127-16.8047-29.2254-14.6128-32.148 2.1919-3.6532-2.1919-4.3838-10.2289-2.1919-7.3064 2.1919-16.074 0-18.2659-4.3838-8.7677-13.8821-14.6128-9.4983-43.1076 28.4948zm-125.66947-78.9087c-1.4612 5.1144-3.6532 26.3029-5.8451 47.4913-2.1919 32.148-.7306 40.9157 12.4209 53.3365 8.7676 8.037 25.5722 16.074 37.2624 18.9966 19.7272 3.6531 24.8417 0 48.22197-31.4174 40.9157-55.5284 41.6463-64.296 7.3064-82.5619-32.87857-16.8047-94.25207-19.7272-99.36657-5.8451zm-122.0163 6.5757c-15.3433 8.7676-27.7642 21.1885-27.7642 27.7642s12.4209 29.2254 27.7642 50.4139c22.6498 31.4174 30.6868 37.2625 49.6833 37.9931 36.5318 0 47.4914-18.9965 45.2995-77.4475l-2.1919-50.4139-32.8787-1.4613c-21.9191-.7306-42.3769 3.6532-59.9122 13.1515zm-396.00499-172.4302c-6.57573 9.4982-11.69019 19.7272-11.69019 22.6497 0 6.5757 36.53183-28.4948 36.53183-35.8012 0-10.9595-13.15146-4.3838-24.84164 13.1515zm906.72006-292.9853c-7.3064 18.2659-6.5758 33.6093 1.4612 33.6093 9.4983 0 13.8821-16.074 8.0371-32.148-4.3839-13.1515-5.1145-13.1515-9.4983-1.4613zm-810.27607 2.1919c-4.3838 16.074 0 31.4174 9.4983 31.4174 8.037 0 8.7676-22.6497 0-35.0706-4.3838-8.037-6.5757-7.3063-9.4983 3.6532zm393.8131-347.0524c-2.1919 9.498297-6.5757 97.9053-9.4982 197.2719l-5.1145 180.4672-22.6497 7.3064c-12.4208 4.3838-38.7238 9.4983-59.1816 12.4208-43.8382 5.8451-154.1643 40.9157-179.0059 57.7203-13.1515 8.7677-44.5689 25.5723-47.4914 25.5723-4.3838 0-30.6868-55.5284-35.8012-75.2556-2.1919-10.9595-8.037-19.7271-11.6902-19.7271-10.9595 0-8.037 44.5688 3.6532 65.7572 5.8451 10.229 10.2289 27.0336 10.9595 37.9931 0 34.34-23.3803 24.8417-70.87171-29.2254-24.11101-27.0336-59.18156-65.7573-78.90875-85.4845-91.32957-97.1747-176.0834-189.2349-181.19786-198.0025-2.92254-5.8451-8.76764-10.2289-12.42082-10.2289-10.22891 0-8.76764 18.9965 2.19191 30.6867 5.11446 5.1145 11.69019 14.6127 14.61273 20.4578 8.037 16.074 18.99655 32.8787 74.52492 116.9019 28.49483 42.3769 52.60583 79.6394 54.06711 83.2926 1.46127 2.9225 16.80464 27.0335 34.33991 52.6058 17.53528 25.5723 32.14801 48.222 32.14801 50.4139 0 4.3838 43.10756 68.6799 67.21857 99.3666 24.11098 31.4174 25.57228 50.4139 5.84509 68.6798-26.30292 24.111-84.0232 154.1643-94.25212 214.8072-6.57573 33.6093-18.99655 47.4913-37.26246 39.4543-24.84164-10.2289-151.24176-54.7977-171.69958-60.6428-11.69019-2.9225-28.49483-8.037-36.53183-11.6902-30.686744-12.4208 32.87864 43.1076 149.78048 132.24524 26.30292 19.7272 48.95265 37.9931 51.14456 40.9157 14.61273 18.26585 46.03011 21.18845 225.03604 21.18845h189.9655l4.3838-16.8047c2.192-8.76755 4.3839-18.26585 4.3839-21.18845 0-7.3063-50.414-35.0705-63.5654-35.0705-6.5757 0-18.2659-5.1145-25.5723-11.69024-16.074-15.3434-32.148-4.3838-40.9156 29.22554-7.3064 25.5723-16.8047 27.0335-63.5654 9.4982-19.7272-7.3063-29.9561-16.074-31.4174-26.3029-2.9225-18.99654 21.9191-92.79084 42.3769-125.66954 8.037-13.8821 16.8047-30.6867 18.9966-37.2624 2.1919-6.5758 11.6902-17.5353 20.4578-23.3804 15.3434-9.4983 17.5353-8.7676 37.2625 14.6127 33.6092 40.1851 46.7607 28.4949 15.3433-13.8821-26.3029-36.5318-27.0335-38.7237-9.4982-57.7202 91.3295-101.5585 278.3725-132.2453 414.27087-67.9492 58.451 27.7641 102.2892 59.9122 102.2892 75.2555 0 3.6532-11.6902 21.9191-25.5723 40.185-38.7238 50.414-33.6094 68.6799 7.3064 24.8417 38.7237-41.6463 46.0301-46.0301 58.4509-29.9561 5.8451 7.3063 16.8047 27.0335 24.8417 43.1075 32.8786 69.4105 37.9931 88.4071 35.8012 130.784-2.192 42.37694-2.192 42.37694-31.4174 53.33644-52.6059 18.9966-54.0671 18.9966-59.1816 5.1145-18.9965-58.45094-24.111-62.83474-59.9123-43.83824-10.9595 5.84514-29.2254 13.88214-40.185 18.26594-24.8416 9.4983-31.4174 25.5723-21.1885 48.95265l8.7677 17.5353h188.5043c170.2383 0 189.9655-1.4613 203.117-13.1515 7.3063-7.30635 35.0705-29.22545 61.3735-48.95265 78.9087-59.91224 127.1307-99.36654 146.1273-119.09374 14.6127-16.074 15.3433-18.2659 3.6531-13.1515-8.037 3.6532-24.111 8.7677-36.5318 11.6902-31.4174 8.7676-112.518 37.2625-154.1643 54.7978-12.4208 5.1144-25.5723 7.3063-29.9561 5.1144-8.7676-6.5757-24.111-49.6833-24.111-69.4105 0-21.1884-70.8717-161.4706-91.3296-180.4672-10.2289-9.4983-18.2659-23.3804-18.2659-30.6867 0-17.5353 29.2255-56.9897 41.6463-56.9897 5.1145 0 9.4983-5.8451 9.4983-13.8821 0-7.3063 8.037-25.5723 18.2659-40.185s18.2659-28.4948 18.2659-29.9561c0-2.1919 14.6127-24.8416 32.148-50.4139s32.8787-49.6833 34.3399-52.6058c3.6532-8.037 96.4441-151.2418 116.9019-179.7366 7.3063-10.9596 13.8821-23.3804 13.8821-27.7642 0-3.6532 2.9225-7.3064 6.5757-7.3064 8.7676 0 18.2659-28.4948 12.4208-34.3399-2.1919-2.9226-13.1514 5.1144-24.8416 17.5353-58.4509 65.0266-95.7134 105.9423-143.2048 155.6256-28.4948 29.9561-74.5249 80.37-102.2891 111.7874-66.4879 73.7942-97.1747 74.5249-66.4879 0 12.4208-29.2255 14.6127-67.9492 3.6532-67.9492-3.6532 0-9.4983 8.7676-11.6902 19.7271-5.1145 18.9966-31.4174 75.2556-35.0706 75.2556-6.5757 0-48.9526-24.111-51.8752-29.9561-2.9225-3.6532-12.4208-6.5757-21.1884-6.5757-9.4983 0-21.1885-5.1145-26.303-10.9596-5.1144-5.8451-15.3433-10.9595-23.3804-10.9595-7.3064 0-22.6498-4.3838-33.6093-10.2289-10.9596-5.1145-40.185-11.6902-65.0267-14.6128-25.57217-2.9225-55.52827-8.037-66.48787-12.4208l-21.1884-7.3064-5.1145-169.5076c-2.9226-93.5215-8.037-181.197903-10.9596-195.080003-5.845-29.956107-26.3029-37.993107-32.148-13.151497zm-12.4208 443.4964c0 27.0336-10.2289 35.0706-54.7977 40.9157-50.4139 6.5757-100.0972 22.6497-163.6626 54.0671l-53.3365 25.5723-14.6127-16.8047c-15.3434-19.7272-15.3434-43.8382 1.4613-52.6058 40.185-21.1885 111.7874-50.4139 123.4775-50.4139 7.3064 0 24.8417-5.1145 37.9931-10.9596 13.8821-5.8451 46.7608-10.2289 74.525-10.9595h48.9526zm196.54127-9.4982c22.6497 6.5757 50.4139 16.074 61.3735 21.9191 11.6902 5.8451 27.0336 10.2289 34.3399 10.2289 6.5758 0 16.8047 4.3838 21.9191 10.2289 4.3839 5.8451 15.3434 11.6902 24.111 13.1514 21.9191 2.9226 24.8417 34.34 6.5758 57.7203l-14.6128 16.8047-53.3364-25.5723c-64.2961-31.4174-113.9794-47.4914-162.93207-53.3365-43.8382-5.1144-55.5284-14.6127-55.5284-41.6463v-21.1884h48.9527c26.30287 0 66.48787 5.1144 89.13767 11.6902zm-526.78897 179.0059c-1.4613 4.3838-10.2289 2.1919-19.7272-5.8451-10.9595-8.7676-15.3434-18.2659-12.4208-23.3803 4.3838-6.5758 9.4983-5.1145 20.4578 6.5757 8.037 8.037 13.1515 18.2659 11.6902 22.6497zm740.13487-7.3063c-23.3803 18.9965-35.0705 9.4982-14.6127-12.4209 11.6902-12.4208 18.9965-15.3433 24.111-9.4982 5.8451 5.1144 2.9225 11.6901-9.4983 21.9191z" style="stroke-width:.730637"/></svg>