<?xml version="1.0" encoding="UTF-8" standalone="no"?>
<svg
   xmlns:dc="http://purl.org/dc/elements/1.1/"
   xmlns:cc="http://creativecommons.org/ns#"
   xmlns:rdf="http://www.w3.org/1999/02/22-rdf-syntax-ns#"
   xmlns:svg="http://www.w3.org/2000/svg"
   xmlns="http://www.w3.org/2000/svg"
   xmlns:sodipodi="http://sodipodi.sourceforge.net/DTD/sodipodi-0.dtd"
   xmlns:inkscape="http://www.inkscape.org/namespaces/inkscape"
   height="960"
   width="1560"
   inkscape:version="1.0.1 (3bc2e813f5, 2020-09-07)"
   sodipodi:docname="uF001C-electrostatic_mind.svg">
  <metadata
     id="metadata10">
    <rdf:RDF>
      <cc:Work
         rdf:about="">
        <dc:format>image/svg+xml</dc:format>
        <dc:type
           rdf:resource="http://purl.org/dc/dcmitype/StillImage" />
      </cc:Work>
    </rdf:RDF>
  </metadata>
  <defs
     id="defs8" />
  <sodipodi:namedview
     pagecolor="#ffffff"
     bordercolor="#666666"
     borderopacity="1"
     objecttolerance="10"
     gridtolerance="10"
     guidetolerance="10"
     inkscape:pageopacity="0"
     inkscape:pageshadow="2"
     inkscape:window-width="1752"
     inkscape:window-height="1057"
     id="namedview6"
     showgrid="false"
     inkscape:zoom="0.5"
     inkscape:cx="720"
     inkscape:cy="397.92353"
     inkscape:window-x="160"
     inkscape:window-y="-8"
     inkscape:window-maximized="1" />
  <path
     d="m 962.03295,447.27721 c 0,3.70238 11.72413,18.5119 26.53354,33.32131 18.51181,18.51179 43.19421,33.32131 82.06911,49.36481 30.2359,12.34123 64.1742,26.53365 75.2814,31.47012 122.7951,53.06718 132.0509,56.76956 177.0963,70.96198 20.363,6.17056 49.9819,16.04361 65.4085,20.98008 56.7695,17.8948 70.345,6.78766 22.2141,-18.51179 -51.833,-27.76774 -128.9656,-66.02551 -150.5627,-75.28146 -11.1071,-4.31937 -29.6189,-11.72413 -40.109,-16.6606 -11.1071,-4.93647 -52.4502,-21.59718 -91.3249,-37.64068 -80.218,-33.32131 -107.3686,-44.42845 -130.81686,-56.76957 -19.74599,-9.87305 -35.78949,-10.49004 -35.78949,-1.2342 z m -401.08948,2.46829 c -20.363,9.87294 -43.8113,20.36298 -129.58273,55.53548 -38.87482,16.0435 -80.21789,32.70421 -91.32497,37.64068 -10.49003,4.93647 -29.00185,12.34123 -40.10895,16.6606 -21.59712,9.25595 -98.72969,47.51372 -150.56279,75.28146 -48.13073,25.29945 -34.5554,36.40659 22.21418,18.51179 15.42652,-4.93647 45.04543,-14.80952 65.40843,-20.98008 38.25776,-12.34123 56.76958,-19.74599 95.6444,-36.40658 11.72415,-4.93647 30.85303,-12.95822 41.96012,-17.89469 10.49004,-4.31948 29.00185,-11.72424 40.10895,-16.66071 10.49002,-4.93647 44.42836,-19.12889 74.66433,-31.47012 40.10894,-16.6606 62.94018,-30.85302 84.53731,-52.45009 16.66063,-16.04361 28.38478,-30.85302 25.91655,-32.70421 -5.55355,-6.17067 -21.59713,-4.31948 -38.87483,4.93647 z M 1381.6341,116.53278 c -11.7241,4.31942 -37.0236,12.34122 -55.5354,18.51182 -18.5119,5.55355 -43.8113,14.80942 -55.5354,19.74591 -11.7243,5.55355 -31.4702,13.57533 -43.1943,18.51183 -11.7241,4.93648 -29.6189,12.95826 -40.109,17.27768 -9.8729,4.31943 -30.853,12.34122 -46.2795,18.51183 -34.5554,13.57533 -66.0255,27.15067 -87.6226,38.25775 -8.6388,4.31943 -19.746,8.0218 -24.6824,8.0218 -4.3195,0 -22.8313,15.42651 -41.3431,33.93833 -27.15064,27.76773 -30.85302,34.5554 -22.83127,37.6407 6.17067,2.46824 19.12889,0 30.23603,-5.55355 24.68234,-11.72415 62.94014,-28.38478 89.47374,-39.49188 10.4901,-4.31942 29.0019,-11.72415 40.1089,-16.66064 10.49,-4.31941 41.9602,-17.27769 69.1108,-28.38478 72.1962,-29.00186 81.452,-33.32128 134.5192,-59.23783 96.8785,-48.1307 108.6027,-54.91836 109.2198,-62.94015 0,-9.25591 -27.1507,-8.63885 -55.5355,1.85118 z M 122.83042,114.6816 c 0.61706,8.02179 12.34121,14.80945 109.21974,62.94015 53.06721,25.91655 62.32311,30.23597 134.51921,59.23783 27.15067,11.10709 59.23782,24.06537 70.96197,29.6189 11.72416,4.9365 31.4701,12.95828 43.19425,17.89477 11.72415,4.93648 30.23598,12.95826 40.10895,17.27769 59.85488,25.29949 70.34491,29.00185 76.51551,24.68243 8.63885,-4.93649 -53.06721,-70.96197 -66.02548,-70.96197 -4.9365,0 -16.04358,-3.70237 -24.68243,-8.0218 -21.59712,-11.10708 -53.06722,-24.68242 -87.62261,-38.25775 -28.3848,-11.1071 -45.66248,-18.51183 -89.47379,-37.02364 -53.06722,-23.4483 -62.94019,-27.15064 -95.6444,-37.02361 -18.51183,-6.1706 -45.04543,-14.80945 -58.62076,-19.12888 -31.4701,-10.49003 -52.45016,-11.10709 -52.45016,-1.23412 z m 707.76853,811.43468 c -9.25591,8.63885 -3.70236,14.19242 14.19239,14.19242 12.34122,0 18.51182,-3.08539 18.51182,-9.25595 0,-9.25595 -24.68242,-12.95833 -32.70421,-4.93647 z m -133.90214,4.31937 c 0,6.78766 6.17061,9.87305 19.12888,9.87305 23.44828,0 21.59711,-14.80952 -2.46824,-17.2777 -11.72415,-1.2342 -16.66064,0.61699 -16.66064,7.40465 z m 352.95869,-19.74587 c 3.0853,9.25583 48.1308,14.8094 48.1308,6.17055 0,-8.02174 -15.4266,-13.57531 -35.1725,-13.57531 -9.2559,0 -14.1925,3.08528 -12.9583,7.40476 z m -89.47374,-40.10893 c -8.63889,8.02175 -3.70238,14.19238 11.10703,14.19238 17.2777,0 20.98008,-9.25591 5.55357,-14.80948 -11.72413,-4.31937 -11.72413,-4.31937 -16.6606,0.6171 z m 82.68614,1.23409 c -7.4048,7.40476 -20.9801,12.95829 -31.4701,12.95829 -9.873,0 -18.51183,2.46818 -18.51183,6.17056 0,3.08528 -9.25595,8.02186 -19.74599,11.10714 -23.4483,6.17056 -24.6825,16.04349 -1.85119,18.51178 9.87294,1.23409 16.66071,-1.23409 19.12889,-7.40475 2.46829,-6.17056 11.10712,-9.87294 24.06532,-9.87294 11.1072,0 23.4484,-3.70238 27.7678,-8.63885 3.7023,-4.93647 14.8094,-9.87294 23.4482,-11.10714 9.8731,-1.23409 16.6607,-5.55342 16.6607,-11.10699 0,-14.19242 -25.2995,-14.80952 -39.4918,-0.6171 z m 64.7913,-18.51179 c -7.4048,11.10714 83.3032,18.51179 99.9638,7.40476 6.1707,-3.70238 4.9365,-6.17067 -6.1705,-8.63885 -21.5972,-6.17067 -90.0909,-4.93647 -93.7933,1.23409 z M 955.86224,834.79136 c -14.19242,4.31937 -12.95822,4.93647 9.25599,8.63885 35.17237,6.17056 89.47377,5.55346 89.47377,-1.2342 0,-11.72413 -66.6425,-16.6606 -98.72976,-7.40465 z m 21.59722,-74.04727 c -1.85119,3.08528 -0.6171,7.40465 2.46818,9.25584 8.02186,4.93647 25.91656,-2.46818 21.59716,-9.25584 -4.31946,-7.40476 -19.12887,-7.40476 -24.06534,0 z M 1105.191,722.48631 c -13.5754,5.55357 -1.2342,14.19242 20.363,14.19242 25.2994,0 41.3431,-5.55357 36.4066,-12.95833 -3.0854,-5.55357 -43.1943,-6.78766 -56.7696,-1.23409 z m -114.15622,0 c -5.55357,5.55357 7.40465,20.36298 17.89472,20.36298 8.6388,0 13.5754,1.85119 50.599,20.36298 25.2994,12.95833 38.2578,13.57532 38.2578,1.85119 0,-13.57532 -24.6825,-28.38473 -46.8967,-28.38473 -11.7241,0 -20.98,-3.70238 -23.4482,-9.25595 -3.0854,-9.25595 -29.00197,-12.95833 -36.40662,-4.93647 z M 470.23556,907.6045 c -16.66064,6.17056 -6.78767,14.8094 14.80946,12.95821 27.15067,-2.46829 36.40657,-17.27769 9.87297,-16.66059 -9.25592,0 -20.98007,1.85119 -24.68243,3.70238 z m 111.07092,-37.02365 c -13.57533,4.93647 -8.63885,14.19238 8.02178,14.19238 9.25592,0 14.80946,-3.08528 13.57534,-7.40472 -3.0853,-8.63885 -11.1071,-11.10714 -21.59712,-6.78766 z m -103.66619,-4.31948 c -6.17061,9.87305 2.46824,18.51186 17.89475,18.51186 8.0218,0 17.89476,4.31937 22.21419,9.25584 4.31942,4.93658 16.66064,9.25595 27.76772,9.25595 12.95828,0 21.59713,3.70238 24.06537,9.87294 2.46825,6.17066 9.25591,8.63884 19.12888,7.40475 21.59713,-2.46829 20.363,-12.95821 -2.46824,-19.12888 -10.49003,-2.46818 -19.12888,-7.40476 -19.12888,-10.49004 0,-3.70238 -8.02178,-6.17056 -18.51181,-6.17056 -10.49004,0 -24.06537,-5.55353 -30.85304,-12.34119 -12.95827,-12.95833 -33.93834,-16.04361 -40.10894,-6.17067 z M 354.84522,853.30315 c -11.10709,4.31937 -11.10709,4.93647 -1.23412,8.63885 24.06536,9.25595 105.51737,1.85119 98.72971,-8.63885 -3.70237,-6.78766 -80.83495,-6.78766 -97.49559,0 z m 164.7552,-19.74599 c -8.0218,1.2342 -14.1924,5.55357 -14.1924,8.63885 0,6.17067 53.68428,7.40476 89.47379,1.2342 22.21419,-3.70238 23.4483,-4.31948 9.25591,-8.63885 -16.66064,-4.93647 -62.94018,-5.55357 -84.5373,-1.2342 z m 38.87481,-72.81307 c -4.31943,6.78766 13.57534,14.19231 21.59712,9.25584 3.0853,-1.85119 4.31943,-6.17056 2.46825,-9.25584 -4.93649,-7.40476 -19.74595,-7.40476 -24.06537,0 z m -25.91654,-33.93841 c -2.46825,6.17067 -11.1071,9.87305 -23.4483,9.87305 -22.2142,0 -46.89662,14.80941 -46.89662,28.38473 0,11.10714 12.34122,11.10714 35.17246,0 9.25591,-4.93647 25.91654,-12.34123 35.78952,-16.04361 30.85303,-12.34112 35.78952,-15.42651 35.17245,-21.59707 -1.23412,-10.49004 -32.08715,-11.10714 -35.78951,-0.6171 z M 398.03946,723.7204 c -4.93648,7.40476 11.1071,12.95833 36.40658,12.95833 22.83125,0 33.32128,-8.63885 17.89477,-14.80952 -14.80947,-5.55357 -50.59898,-4.31937 -54.30135,1.85119 z m 485.62671,-29.00183 c 1.23412,4.31937 6.1706,8.02175 10.49002,8.02175 4.31943,0 9.25591,-3.70238 11.1071,-8.02175 1.23412,-4.31948 -3.0853,-7.40476 -11.1071,-7.40476 -8.02178,0 -12.3412,3.08528 -10.49002,7.40476 z m -228.31241,0 c 1.23412,4.31937 6.1706,8.02175 10.49002,8.02175 4.31943,0 9.25591,-3.70238 11.1071,-8.02175 1.23411,-4.31948 -3.08531,-7.40476 -11.1071,-7.40476 -8.02179,0 -12.34121,3.08528 -10.49002,7.40476 z M 775.06349,14.717783 c -11.72416,56.76958 -16.66064,107.368547 -16.66064,177.713427 0,106.13443 -5.55354,120.32682 -30.23594,78.3667 -13.57534,-23.44831 -16.66064,-24.68243 -40.726,-15.42651 -14.1924,5.55355 -15.42652,7.40473 -8.63885,19.74593 4.31942,8.0218 9.2559,15.42652 11.10708,17.2777 1.85119,1.85118 7.40473,9.25591 11.72416,16.66065 9.87297,18.51181 0.61706,18.51181 -39.49188,1.85118 -30.23597,-12.95828 -38.25776,-12.95828 -29.61891,1.23412 3.0853,4.31942 4.31942,13.57533 3.70237,20.98006 -1.85119,12.34116 1.23411,14.19235 54.30133,39.49191 4.93648,2.46818 9.25591,8.02175 9.25591,12.34112 0,4.31948 -4.31943,9.87305 -9.25591,12.34123 -54.9184,25.91655 -54.30133,25.29956 -57.38664,48.74782 -3.08531,25.91655 -1.85119,28.38484 9.25591,21.59718 11.10709,-7.40476 49.36485,-20.98008 58.62076,-20.98008 4.31942,0 0,12.34123 -10.49003,29.00183 -19.12888,30.23592 -18.51182,34.5554 4.31943,41.34306 13.57533,4.31937 27.15066,-4.93647 43.19421,-30.85302 6.17061,-9.87294 8.0218,-10.49004 13.57533,-2.46829 8.0218,11.72413 8.63885,86.3885 0.61707,107.36858 -5.55355,16.0436 -6.1706,16.0436 -78.98374,16.0436 -47.51367,0 -83.92025,3.08528 -103.66619,9.25584 -16.66063,4.93647 -39.49188,9.25595 -50.59897,9.25595 -11.10709,0 -30.23597,4.31937 -42.57718,9.25595 -11.72416,4.93647 -27.15067,9.25584 -33.32128,9.25584 -27.76773,0 -131.43392,53.06719 -161.66989,82.68612 -53.68427,52.4502 -51.83309,103.6662 6.78767,162.28692 17.89476,17.8948 35.78952,32.7042 39.49188,32.7042 3.70237,0 11.72415,3.70238 16.66064,8.02186 15.42651,12.95822 91.94204,41.96005 145.62631,55.53537 100.58088,25.91657 151.79691,30.85307 290.01848,30.85307 138.22158,0 189.43762,-4.9365 290.01852,-30.85307 119.7098,-30.23592 220.9077,-96.26143 243.1219,-158.58453 17.2777,-49.36481 -21.5971,-106.75148 -98.1126,-143.15807 -61.0891,-29.61882 -85.7714,-39.49187 -98.1127,-39.49187 -6.1706,0 -21.5971,-4.31937 -33.3213,-9.25584 -12.3412,-4.93658 -32.0871,-9.25595 -43.8113,-9.25595 -11.7241,0 -29.0018,-3.08528 -38.8748,-7.40476 -9.25593,-3.70238 -56.15249,-8.63885 -103.6662,-10.49004 l -86.38849,-3.70227 -1.85118,-63.55733 c -1.85119,-66.64251 2.46823,-75.89846 20.98006,-44.42834 13.57533,22.21417 22.83124,25.91655 42.57718,18.51179 19.74594,-7.40465 19.12888,-10.49004 -3.70236,-41.96005 -11.72415,-16.04361 -16.04358,-25.91655 -10.49003,-25.91655 9.87296,0 48.13073,13.57532 59.23782,20.98008 11.1071,6.78766 12.34119,4.31937 9.25591,-21.59718 -3.08528,-23.44826 -2.46829,-22.83127 -57.38664,-48.74782 -4.93648,-2.46818 -9.25591,-8.02175 -9.25591,-12.34123 0,-4.31937 4.31943,-9.87294 9.25591,-12.34112 54.91835,-25.91655 54.30136,-25.29956 57.38664,-48.74782 1.23409,-12.34122 1.85119,-22.83125 1.23409,-24.06537 -0.61699,-0.61706 -14.19236,4.31942 -30.23594,11.1071 -45.66249,19.12887 -50.59897,16.66063 -27.76773,-15.42653 21.59712,-29.6189 20.36301,-36.40657 -8.02179,-43.19423 -14.80945,-3.70237 -18.51182,-1.23413 -30.23597,17.89475 -6.78766,12.34121 -15.42651,22.21418 -18.51182,22.21418 -3.0853,0 -5.55354,-36.40658 -5.55354,-80.83494 0,-73.43019 -11.1071,-164.138097 -24.68243,-199.927609 -4.31942,-11.72415176 -4.93648,-11.10709476 -8.02179,3.085302 z m -68.4937,670.744837 c 16.66063,33.32131 33.93831,65.40842 38.87479,70.96199 7.40473,9.25595 7.40473,11.10714 -1.85118,14.80952 -5.55355,2.46818 -15.42649,-0.6171 -21.5971,-6.17067 -6.17061,-5.55357 -13.57533,-9.87294 -17.27769,-9.87294 -3.70237,0 -9.87297,-4.31948 -14.1924,-9.25595 -4.31942,-4.93647 -12.95827,-9.25584 -19.74594,-9.25584 -6.17061,0 -12.95828,-4.31948 -14.80946,-9.25595 -2.46824,-4.93647 -8.63885,-9.25595 -14.80945,-9.25595 -6.17061,0 -14.1924,-4.31937 -18.51182,-9.25584 -4.31943,-4.93647 -12.95828,-9.25595 -19.12888,-9.25595 -6.17061,0 -12.95828,-2.46829 -14.80946,-6.17056 -1.85118,-3.08539 -19.12888,-13.57532 -37.6407,-22.21417 -18.51181,-8.63885 -32.70421,-17.2777 -30.85303,-19.12889 6.1706,-6.17067 100.58089,-25.29956 127.73156,-25.91655 l 29.00185,-0.6171 z m 48.13071,-52.45009 c 15.42651,56.15247 14.19238,114.77323 -1.85119,75.28136 -3.70236,-9.87294 -13.57534,-29.00183 -22.21416,-42.57715 -19.74594,-32.70421 -19.12888,-40.10897 3.0853,-40.10897 10.49001,0 19.74592,3.70238 20.98005,7.40476 z m 90.09084,0 c -0.61706,4.31937 -7.40473,19.12889 -15.42651,32.70421 -8.63885,13.57532 -17.89477,30.85302 -21.59712,38.25778 -9.87298,24.06536 -14.1924,15.42651 -9.87298,-21.59718 6.78767,-53.06719 8.63885,-56.76957 29.00186,-56.76957 10.49002,0 17.89475,3.08528 17.89475,7.40476 z m 140.68987,4.31937 c 28.38489,6.78766 53.06719,12.95833 54.91839,14.80952 1.8512,1.85119 -11.7241,10.49004 -30.2359,19.74588 -17.89483,8.63885 -45.04547,22.83127 -59.85503,31.47012 -14.80941,8.02175 -30.85299,14.80941 -35.78947,14.80941 -4.31943,0 -8.02179,2.46829 -8.02179,5.55357 0,3.08528 -12.95827,11.72413 -29.00185,19.74599 -16.66064,7.40465 -34.5554,17.89469 -40.10895,22.83116 -6.1706,4.93658 -15.42651,7.40476 -20.98005,4.93658 -9.25592,-3.70238 -9.25592,-5.55357 -1.85118,-14.80952 4.93648,-5.55357 22.21418,-37.64068 38.87481,-70.96199 l 29.61891,-59.85485 h 25.91655 c 13.57528,0 48.13072,5.55357 76.51556,11.72413 z m -476.98789,30.85302 c 1.85118,3.70238 17.89475,12.95833 35.78952,22.21417 17.27769,8.63885 48.74779,25.29956 69.11079,37.02369 20.363,11.10714 51.21603,27.76774 67.87666,35.78949 17.2777,8.63885 34.5554,22.21417 38.87483,29.61893 8.02179,12.34123 7.40473,12.95833 -6.17061,9.25595 -23.4483,-6.17067 -208.56649,-12.34123 -246.20719,-7.40476 -30.23598,3.70238 -34.55539,6.17056 -32.08716,16.04361 1.85118,6.78766 6.78767,14.80941 11.72415,19.12889 11.1071,9.25584 39.49188,1.85119 39.49188,-9.87305 0,-11.10703 -1.85117,-11.10703 82.68613,-9.87294 45.04543,0.6171 72.19609,3.70238 84.53731,9.87294 9.25591,4.93647 31.47009,9.25595 48.74779,9.25595 32.08715,0 40.72598,9.25595 20.363,22.21417 -6.1706,3.70238 -40.10894,30.85298 -75.28139,60.47191 l -64.17431,53.06718 -31.4701,-3.70238 c -49.36485,-5.55346 -74.66433,-13.57532 -87.00554,-27.15064 -8.02179,-9.25595 -19.12889,-12.34123 -40.726,-12.34123 -33.32128,0 -75.89846,-18.51178 -93.79323,-41.34305 -6.1706,-8.02171 -15.42651,-14.19238 -19.74593,-14.19238 -4.93649,0 -16.04358,-7.40465 -24.68243,-17.2777 -11.72415,-12.34112 -15.42652,-22.21417 -14.1924,-38.25767 1.85118,-18.5119 4.31943,-22.21417 20.36301,-25.29956 l 18.51182,-4.31937 -16.66065,-0.6171 c -20.363,-0.61699 -22.83123,-14.19242 -6.1706,-30.85302 23.4483,-24.68246 65.40843,-49.98191 76.51553,-46.27953 7.40472,1.85119 11.10708,0 11.10708,-6.17067 0,-5.55346 9.25592,-11.72413 23.4483,-16.0435 12.34122,-3.08528 27.15068,-8.63885 32.08716,-12.34123 11.72415,-7.40476 72.1961,-8.02175 77.13258,-0.6171 z m 626.31648,3.70238 c 8.6389,4.93647 22.2143,8.63885 29.619,9.25595 9.2559,0 16.0436,4.31937 17.8948,12.34123 2.4681,8.63885 6.7876,11.72413 13.5753,9.25584 6.1705,-1.85119 22.8313,5.55357 40.109,17.8948 47.5136,33.32131 58.0036,58.00366 26.5335,59.85485 -9.8729,0.6171 -8.6389,1.85119 4.9365,4.93647 15.4266,3.08539 19.1289,6.78766 20.3631,24.68246 1.8511,16.04361 -1.8512,24.68246 -14.8096,38.25778 -9.2558,9.87294 -20.3629,17.89469 -24.6823,17.89469 -4.3195,0 -12.9583,6.17067 -19.1289,14.19238 -17.8948,22.83127 -60.472,41.34305 -93.7933,41.34305 -20.98,0 -32.7042,3.08528 -40.1089,11.72413 -11.1071,12.34123 -43.1943,22.21428 -90.7079,28.38484 -27.76774,3.70238 -28.38484,3.08528 -92.55915,-49.9819 -35.17246,-29.61893 -69.11079,-56.76953 -74.66434,-60.47191 -20.363,-12.34123 -12.95827,-22.21417 16.66065,-22.21417 15.42651,0 38.25775,-4.31948 50.59896,-9.25595 14.1924,-6.17056 44.42836,-9.25584 87.62265,-9.87294 82.06903,-1.23409 80.83493,-1.23409 80.83493,9.87294 0,12.34123 28.3848,18.5119 40.109,9.25595 4.9364,-4.31948 9.2559,-12.95833 9.2559,-19.12889 0,-8.63885 -6.7878,-11.72413 -29.0019,-15.42651 -32.0871,-4.93647 -224.61009,1.23409 -247.44134,7.40476 -13.57533,3.70238 -14.19239,3.08528 -6.1706,-9.25595 4.31942,-7.40476 22.21418,-20.98008 38.87482,-29.61893 17.27769,-8.02175 47.51363,-24.68235 67.87672,-35.78949 20.36302,-11.72413 51.83303,-28.38484 69.1107,-37.02369 17.8948,-9.25584 33.9384,-18.51179 35.7896,-22.21417 5.5535,-8.63885 66.0254,-6.17056 83.3031,3.70238 z M 801.5971,803.93834 c 3.0853,6.78766 6.17061,12.95822 6.17061,14.19231 0,1.2342 -12.34122,1.85119 -27.76773,1.85119 -15.42652,0 -27.76773,-0.61699 -27.76773,-1.85119 0,-11.10703 16.04358,-25.91655 27.76773,-25.91655 8.63885,0 17.89475,4.93658 21.59712,11.72424 z m -30.85303,74.04727 c 0,12.95818 -1.85119,40.72591 -3.70237,61.70599 l -4.31942,37.64068 h -66.64252 c -36.40658,0 -67.87668,-2.46818 -69.72786,-4.93647 -1.85117,-3.08528 5.55355,-14.19242 16.66064,-24.68246 37.02364,-35.78948 118.47562,-98.72968 122.79504,-96.26139 3.0853,1.85119 4.93649,13.57532 4.93649,26.53365 z m 95.6444,25.91651 c 53.06721,42.57714 71.57908,61.70603 66.6425,68.49369 -1.23409,3.08528 -32.70417,4.93647 -69.11075,4.93647 h -66.64254 l -4.31943,-32.70421 c -4.93649,-41.96015 -4.93649,-87.62254 0.61706,-92.55901 1.85118,-2.46829 8.02179,-0.6171 13.57533,3.70238 5.55355,4.31937 32.08715,25.91651 59.23783,48.13068 z M 1161.9606,-190.76341 c -12.9583,15.42651 -35.1725,40.726 -48.7478,56.15251 -13.5754,14.80946 -33.3213,40.108948 -43.1943,56.152525 -10.49,15.42651 -34.5554,49.981909 -53.0672,76.5155152 -18.51187,26.5336048 -37.64065,54.9184008 -42.57723,62.9401828 -17.2777,26.533619 -67.2596,98.729667 -82.68612,119.709737 -8.63885,11.72415 -16.04358,25.29949 -16.04358,29.61891 0,9.87297 19.74595,10.49003 29.00185,1.23412 3.70237,-3.70237 13.57534,-10.49003 21.59709,-14.19239 7.40476,-3.70237 25.29956,-23.44831 39.49191,-43.81131 23.44837,-35.17242 41.96018,-61.088968 116.00738,-168.457525 17.2777,-24.682427 35.7895,-52.450155 41.9602,-61.706061 11.7241,-19.745935 72.8132,-136.987464 72.8132,-140.689824 0,-8.63885 -12.9583,1.23412 -34.5554,26.53361 z m -792.30592,-21.59713 c 0,4.93648 9.87297,27.15067 21.59712,48.74779 11.72415,21.59712 24.06536,45.66249 27.76773,53.68428 7.40473,17.277697 37.6407,62.940181 85.77143,130.816857 20.98006,29.001852 40.72599,58.003703 43.81131,64.791365 16.04357,31.470098 73.43021,105.517338 89.47379,115.390308 29.00185,17.27769 33.32127,19.12888 43.19423,14.80946 9.87298,-3.70237 10.49004,-2.46825 -91.94203,-150.562772 C 572.05057,40.017266 555.38993,15.334839 551.68757,9.7812912 548.60227,4.2277442 533.7928,-16.135247 519.60042,-35.881193 c -14.80946,-19.128878 -26.53361,-37.023634 -26.53361,-40.108936 0,-2.468246 -21.59713,-30.235981 -48.13073,-60.471951 -69.1108,-81.45201 -75.2814,-87.00555 -75.2814,-75.89846 z"
     style="stroke-width:0.61706"
     id="path2" />
</svg>
