<svg height="960" style="" width="1225" xmlns="http://www.w3.org/2000/svg"><path d="m612.59963.00216826c-2.15259-.154931-10.50282 7.87269904-44.18255 41.55242974-32.70766 32.707659-41.97102 42.657749-41.17047 44.030099 1.25798 2.28725 83.9418 85.314503 84.97106 85.314503.9149 0 85.08487-84.171213 85.54232-85.657923s-81.88328-84.0552787-84.97107-85.19889874c-.0572-.0214-.11986-.0352-.18929-.0402zm-142.19194 108.11272174c-.34308 0-2.05796.5707-4.00213 1.14251-1.82979.57181-5.94796 1.94472-9.1501 2.85962-3.08779 1.02926-7.54681 2.40206-9.7197 3.31695-28.5906 10.63571-38.88356 15.20943-72.39175 32.3638-1.8298.91489-3.54513 2.40205-3.88821 3.31695-.45745 1.14363 26.0743 28.47658 83.71296 86.11524 73.64942 73.64942 84.17098 84.62721 83.14171 86.457-.68617 1.25799-8.2342 9.03497-16.69702 17.49779l-15.55285 15.32501-2.51619-2.17277c-1.37235-1.14363-41.51401-41.28573-89.08879-88.97487-81.65478-81.99787-86.80064-86.79986-89.31661-85.65623-1.48671.68617-5.83304 3.77273-9.72136 6.74615-3.77396 3.08779-8.9196 7.09036-11.32121 9.03453-8.11974 6.40429-22.75791 19.09963-30.0771 26.30447l-7.20517 6.97566 91.03205 91.48939c50.09074 50.20511 90.91903 91.71879 90.69031 92.17624-.57182 1.94416-31.90824 32.93671-33.16623 32.93671-.80053 0-41.51323-40.14121-90.57471-89.2027-65.87276-65.87276-89.77396-89.20192-91.48939-88.97319-3.20215.45745-30.19224 36.02294-38.88379 51.3475-.57181 1.14363-3.31718 5.60388-5.83315 9.83529-11.20752 18.29798-31.3352 58.55423-31.3352 62.44255 0 .80054-.68539 2.40072-1.48593 3.65871-.9149 1.25798-1.82924 3.31707-2.28669 4.57506-.34308 1.25799-1.71677 5.14631-3.08912 8.57718-2.63034 7.09047-9.37649 27.33262-11.89247 36.02417-1.48671 5.26066-2.40161 8.69176-6.86174 26.5323-1.71544 6.63303-3.6596 17.26907-6.86175 36.36759-4.11705 24.3592-4.68897 37.28104-4.68897 100.63783v62.8999l36.02417.34342 35.90857.22783 45.2882-45.1726 45.28819-45.17261 50.20499.22784 50.31892.34342.34342 2.74403c.22873 1.60107-.34275 5.48939-1.37201 8.57718-.9149 3.20214-2.85973 10.40765-4.11772 16.12577-1.37235 5.60376-2.8595 11.55117-3.31696 13.15224-.5718 1.60107-1.82991 6.97611-2.97353 12.00805-1.02926 5.03195-2.51564 10.63515-3.08745 12.57932-1.02926 3.08778-2.40194 9.03462-5.48973 22.30067-.80054 3.54523-3.88833 16.24024-8.57718 34.53824-1.82981 7.20483-4.23019 16.69579-6.74616 26.87405-.91491 3.6596-2.51597 9.83518-3.43088 13.7235-1.02926 4.00268-2.63112 10.40809-3.66038 14.29642-.91489 4.00268-2.51597 9.83405-3.43087 13.15056-2.40161 8.46282-2.28646 13.38085.22951 17.04045 1.14362 1.60107 2.97331 4.11738 3.88821 5.48973 2.17289 3.08779 11.55083 15.6672 12.80882 17.26828 1.60107 1.8298 42.08459 56.49482 47.80271 64.38582 2.85906 4.00272 15.55307 21.15648 28.36167 38.31088 12.69423 17.1543 24.58736 33.0513 26.30279 35.4529 5.94686 8.4628 8.46405 11.0934 10.40822 11.0934 1.94415 0 8.80489-2.4021 19.55497-6.7479 3.43087-1.4866 10.06367-4.1172 14.63816-5.947 4.46014-1.8298 12.23679-4.9176 17.15437-6.8618 4.80322-1.9441 10.63593-4.2302 12.80882-5.0307 5.83248-2.1728 19.7857-7.7778 30.19269-12.1236 14.63838-6.1756 25.96049-18.5256 21.38599-23.4432-2.85906-2.9735-6.29015-10.9791-7.6625-17.9551-1.60108-8.46288-.57282-17.26899 4.11604-33.3941 1.25798-4.46013 2.86029-10.6357 3.54646-13.72349.68618-3.20212 1.71533-6.51806 2.17277-7.43298.45746-.91493 1.14241-3.54547 1.59985-5.94709.68618-3.6596.22929-4.68986-4.00213-9.60745-12.00805-13.83785-13.3804-30.99132-3.43087-44.82918 3.31651-4.68886 2.51542-5.60409-6.29049-7.20517-46.08806-8.34845-85.1999-31.10646-110.24527-63.92849-10.52135-13.83785-17.49667-27.33262-22.07118-42.88591-1.60107-5.14631-2.28691-8.69176-4.80288-24.81687-.34309-2.40161-.11492-5.37425.57125-6.63224 1.25799-2.28725 1.71466-2.28758 176.46046-2.05886l175.20403.34342.34342 8.00426c.68618 14.40967-7.20572 39.68376-16.92653 54.89397-1.25799 1.8298-2.63 4.23141-3.08745 5.14631-1.37235 2.97342-10.29206 14.06714-16.01018 20.01398-16.58256 17.26872-35.79522 30.19157-59.23953 39.91238-8.46281 3.54524-11.5506 4.57394-27.44698 9.14844-3.08779.9149-8.46371 1.94483-11.78022 2.40228-10.97879 1.25799-11.0926 1.60118-5.71757 11.55072 3.31652 6.17557 3.65871 7.66161 3.65871 16.46752-.11436 11.20751-2.17177 16.35494-9.71969 24.58903-5.03195 5.37504-5.14686 5.94574-2.85962 13.15055.9149 2.85904 2.51553 8.46397 3.54479 12.58102 1.02927 4.11704 2.51597 9.72026 3.43088 12.57929 4.46013 14.63842 5.60398 22.64316 4.23163 29.73366-1.25799 6.9761-6.06088 18.6417-8.23376 20.014-5.37504 3.3165 5.94617 16.2394 19.89839 22.758 4.80322 2.2873 9.14956 4.1177 9.72136 4.1177.57182 0 3.43054 1.0283 6.51833 2.4006 7.43356 3.0878 9.37873 3.8886 14.75375 5.9471 5.94686 2.1729 20.35652 8.0062 48.03223 19.0993 12.23678 5.032 16.12488 6.1747 18.06904 5.3741 1.02926-.343 5.14531-5.1462 9.26235-10.7499 4.11705-5.4894 7.8919-10.6355 8.34935-11.2073.45746-.6862 5.83171-7.8904 11.77856-16.0102 5.94684-8.2341 20.128-27.4469 31.67861-42.88588 27.33263-36.71034 27.10446-36.48219 49.1764-66.33078 10.40699-14.18094 19.44173-26.41694 20.12791-27.21748.68617-.9149.68539-3.20215-.22951-6.86174-4.11705-16.35384-5.03161-19.55743-6.51833-24.93247-.91489-3.20214-1.60151-6.63201-1.60151-7.54691 0-1.02927-.80054-4.34567-1.71544-7.31909-2.17289-7.3192-7.43356-28.36233-8.57718-34.19481-.57181-2.51597-2.05852-8.69155-3.43087-13.7235s-2.97298-11.20752-3.5448-13.72349c-1.71543-8.46282-4.11615-18.41191-5.37413-22.41459-1.25799-4.00268-3.31786-12.4654-4.80456-19.32714-.80055-3.54523-4.00269-16.35382-8.57719-34.30873-3.88833-15.32456-4.23052-17.15437-3.65871-18.8698.68618-1.48671 6.86108-1.71544 50.77626-1.71544h49.97716l45.28651 45.17261 45.28817 45.1726h34.9956c30.0772 0 35.1078-.22872 36.3659-1.71543 2.2872-2.7447.8018-129.34392-1.5999-145.81211-1.0292-6.63302-2.5168-15.89638-3.203-20.58524-2.4016-15.89638-2.9738-18.86924-5.4898-29.73367-4.0027-17.26873-4.3458-18.41292-6.8617-26.87573-1.3724-4.46014-2.859-9.83517-3.4309-12.00806-.5718-2.17289-2.859-9.14899-5.1463-15.43893-2.2873-6.28993-4.5745-12.69367-5.1463-14.29474-3.8883-11.8937-24.4722-55.3512-31.2196-66.10127-1.7154-2.63033-3.0891-5.03228-3.0891-5.48973 0-.34309-1.4867-2.97409-3.4309-5.83316-1.8298-2.7447-3.4309-5.25933-3.4309-5.48806 0-1.94415-30.5344-44.71604-36.93876-51.80651-1.25802-1.37235-3.20118-2.5162-4.11602-2.5162-1.02926 0-41.97225 40.14122-91.03374 89.2027-48.94712 49.06149-89.65904 89.2027-90.34521 89.2027-2.28725 0-32.82291-31.56381-32.36546-33.50797.11436-1.02926 40.59933-42.20041 89.88954-91.60498 49.17585-49.2902 89.43054-90.46057 89.43054-91.37547 0-2.85906-34.53702-33.623-48.14615-42.772-2.85906-1.94416-5.8317-4.34488-6.63224-5.37414-.9149-1.02926-2.40161-1.82936-3.43087-1.82936s-41.17092 39.34068-89.08878 87.48727c-48.03223 48.14659-88.173 87.94404-89.31662 88.51585-1.60107.9149-4.80422-1.7151-18.18463-15.09551-8.92027-8.92027-16.23968-16.81205-16.23968-17.38386 0-.68618 37.85519-38.99771 84.17197-85.31449 56.03759-56.03759 84.0565-84.85648 83.59906-85.88574-1.25799-3.54524-42.08616-23.2148-67.13154-32.3638-2.17288-.80053-6.06121-2.17422-8.57718-3.08912-8.34845-3.08778-12.57931-4.57316-16.01019-5.48806-1.82979-.45744-4.3461-1.25798-5.48973-1.71543-1.71543-.68618-15.09539 12.00794-72.16224 69.0748-38.42578 38.42578-70.6761 69.87555-71.591 69.87555-1.02926 0-33.16566-31.45022-71.47708-69.76164-38.31142-38.42577-69.98981-69.76041-70.3329-69.64605zm141.23706 298.59987c3.68818-.0286 7.37738.45667 13.03832 1.48594 37.85396 6.63301 63.69953 42.31421 57.98142 80.16817-4.23142 28.47624-22.64332 50.20545-49.86158 58.66826-10.17826 3.20216-30.76361 3.3173-40.71314.22951-19.32725-6.06121-36.25256-20.58646-44.25792-37.85519-5.26068-11.32188-6.52-17.49745-6.52-30.87786 0-14.63839 1.03026-19.21233 7.89201-33.16455 8.69154-18.06927 29.16209-33.39316 49.40424-37.05276 5.66094-1.02926 9.34846-1.57292 13.03665-1.60152z" style="stroke-width:.857718"/></svg>