<svg height="960" style="" width="1358" xmlns="http://www.w3.org/2000/svg"><path d="m676.90328 595.3243c-12.8649 12.8649-13.7838 14.7027-7.8109 23.4325 3.6757 5.054 10.5676 11.9459 15.6217 15.6216 8.7297 5.973 10.5675 5.054 23.4324-7.8108 12.8649-12.8649 13.7838-14.7027 7.8108-23.4325-3.6757-5.054-10.5676-11.9459-15.6216-15.6216-8.7297-5.973-10.5676-5.054-23.4324 7.8108zm-104.2973-257.2973c-4.5946 5.0541-18.3784 16.5406-29.8649 25.2703-11.946 8.7297-23.4324 21.5946-26.1892 28.4865-2.2973 6.8919-17.9189 23.8919-34.4595 37.6757-35.8378 29.8648-36.7567 33.5405-33.5405 105.6756 3.2162 68 3.2162 85.4595 0 135.0811-4.1351 65.7027-5.5135 62.4865 77.6487 155.2973l28.027 31.2433h136.4594 136.4595l22.973-26.6487c12.8648-14.2432 36.7567-42.2703 53.2973-61.5676l30.3243-34.9189v-48.2432c0-33.5406-1.8378-51.9189-6.8919-61.1081-8.7297-17-8.7297-26.6487 0-34 5.5135-4.5946 6.8919-18.3784 6.8919-68v-62.4865l-14.7027-13.3243c-8.2703-6.8919-23.8919-19.2973-34.4595-27.1081-13.3243-9.6487-19.7567-17.919-19.7567-24.8109 0-6.4324-6.8919-15.6216-19.2973-25.2702-11.0271-8.7298-20.6757-16.5406-22.0541-17.9189-1.3784-1.3784-8.2702-7.3514-15.6216-12.8649-12.8649-9.6487-17-10.1081-119.9189-10.1081-102 0-107.0541.4594-115.3243 9.6486zm5.9729 137.8379c11.946 12.8648 33.0811 34.9189 45.946 49.1621 14.7027 15.6216 25.7297 23.8919 28.027 21.5946 2.2973-2.7567 7.8108-17 12.4054-32.1621 11.946-39.5136 21.5946-57.4325 30.7838-57.4325 6.8919 0 8.2703 4.1352 8.2703 27.5676 0 35.8378-2.7568 35.8378 66.1621-1.8378 30.7838-17 76.2703-27.5676 76.2703-17.919 0 2.7568-20.6757 23.8919-45.946 47.3244-25.2702 23.8919-45.9459 46.8648-45.9459 51.4594 0 5.0541 4.5946 9.1892 12.8649 10.5676 22.5135 5.054 62.4865 21.1351 70.7567 28.4865 12.4054 11.027 5.973 15.1621-23.8919 15.1621-14.7027 0-28.027 1.8379-29.8648 4.1352-1.8379 3.6756 11.9459 31.7027 29.8648 60.1892 12.8649 20.2162 22.973 49.1621 22.973 64.7837 0 21.5946-4.5946 22.5136-20.6757 2.7568-27.5675-33.0811-80.8648-85.9189-84.5405-83.6216-2.2973.9189-5.0541 7.8108-6.4324 14.7027-2.7568 15.6216-11.0271 39.973-20.6757 60.1892-10.5676 22.054-21.5946 17.9189-22.5135-8.2703-.4595-11.4865-.919-23.4324-.919-26.6486-.4594-6.4325-17-7.8109-20.6756-1.3784-1.3784 2.2973-12.8649 9.1892-24.8108 15.6216-11.946 6.4324-29.8649 16.0811-39.5136 21.1351-19.7567 11.4865-55.1351 17.4595-59.7297 10.5676-1.3784-2.2973 20.2162-25.7297 47.7838-51.4595 27.5676-25.7297 49.1622-48.7027 47.7838-51-3.2162-5.9729-33.0811-17.9189-43.6487-17.9189-12.8648 0-39.9729-15.1621-42.2702-23.8919-3.2162-11.027 0-12.8648 27.1081-12.8648 16.5405 0 24.8108-1.8379 26.1892-6.8919 1.8378-3.6757.9189-7.8108-.919-9.1892-3.6756-1.8379-14.2432-20.6757-40.4324-71.2162-10.5676-20.6757-14.2432-55.1352-5.973-55.1352 2.2973 0 14.2433 10.5676 26.1892 23.4325zm35.8379-279.8108c-1.3784 5.9729-2.2973 28.027-1.3784 49.6216l1.3784 39.054h85 85l1.3783-39.054c2.2973-64.7838 9.6487-59.7298-86.3783-59.7298-81.7838 0-82.7027 0-85 10.1082zm-132.3244 5.9729c-11.4864 8.7298-21.5946 17.9189-22.5135 20.6757-.4594 2.2973-.4594 25.7297.9189 51.4595l2.2973 47.3243 27.5676 1.3784c28.027 1.3783 28.027 1.3783 35.8379-15.1622 5.9729-12.8649 10.1081-16.0811 21.1351-16.0811 17 0 18.8378-5.5135 18.8378-52.8378 0-52.8379 0-52.8379-34.4594-52.8379-25.7298 0-30.7838 1.8379-49.6217 16.0811zm341.3784-227.43241c0 2.75676 3.2162 5.97298 6.8919 7.35136 3.6757 1.83783 6.8919 5.51351 6.8919 9.18919 0 3.67567 2.2973 6.43243 5.0541 6.43243 7.8108 0 56.5135 52.37838 75.8108 81.78383 9.6486 14.2432 18.3783 27.1081 19.7567 28.4864 8.2703 7.3514 24.3514 34.919 42.7298 73.5136 24.81082 52.3783 31.24322 69.3783 35.83782 95.5675 4.1351 23.8919 7.3513 27.5676 17 17.9189 5.5135-5.054 8.2703-19.2973 10.1081-50.081 1.3784-23.4325 4.5946-42.7298 6.4324-42.7298 11.0271 0 33.5406 99.2433 39.5135 172.2973 4.1352 51.4595-2.2972 170-10.1081 182.4054-1.8378 2.7568-5.5135 15.1622-7.8108 27.5676-2.2973 11.9459-5.9729 27.1081-7.3513 33.5405l-3.2162 11.4865 11.027-11.4865c11.9459-11.9459 34.4594-41.3513 44.1081-57.4324 17.9189-28.9459 49.1622-101.0811 54.2162-123.1351 5.0541-25.2703 11.4865-6.4325 11.4865 34.4594 0 55.1352-13.3243 132.7838-33.0811 189.7568-2.2973 7.3513-5.973 20.2162-7.8108 27.5676-1.8378 7.8108-5.5135 17.9189-8.2703 22.9729-2.7567 5.0541-12.4054 24.8108-21.5946 43.6487-20.2162 41.8108-22.5135 45.027-48.2432 80.4054-42.2703 57.4324-113.48652 121.7567-155.29732 140.1351-12.8649 5.5135-13.7838 13.7838-2.2973 13.7838 14.7027 0 86.3784-39.5135 123.59462-68 19.7568-15.1622 50.0811-42.2703 67.5405-60.1892 32.6217-34 42.7298-39.973 37.6757-22.5135-1.3784 5.973-4.1351 22.5135-5.973 36.7568-3.2162 29.4054 2.7568 35.3783 13.7838 13.7837 19.7568-36.2973 39.973-79.9459 39.973-85 0-3.2162 2.7568-9.6486 6.4324-14.7027 3.2162-5.054 7.3514-14.2432 8.7298-20.6756 1.3783-6.4325 4.5946-17.919 6.8919-25.2703 6.8918-19.2973 17.4594-62.4865 26.6486-107.5135 10.5676-54.6757 10.5676-223.2973-.4595-282.1081-8.2702-46.4054-18.8378-90.0541-25.7297-111.1892-2.7567-7.8108-6.8919-20.2162-8.7297-27.5676-6.8919-24.8108-17.9189-51.9189-26.6487-66.1622l-8.7297-14.2432-2.7568 88.2162c-3.2162 87.7568-5.054 102.9189-15.6216 120.8379-7.3513 12.8648-10.1081 7.8108-13.3243-25.7298-1.3784-16.0811-5.5135-39.9729-9.1892-52.3783-25.7297-89.5946-27.1081-93.7298-57.8919-156.2163-26.1892-53.7567-27.1081-55.1351-55.5946-93.72969-22.97292-31.24325-44.56752-51-38.59462-35.37838 1.8379 4.59459 4.5946 13.78378 5.973 20.21621 1.3784 6.8919 5.5135 20.67568 8.7297 30.78379 15.1622 45.02707 10.1081 71.67567-8.7297 45.48647-18.8378-26.6486-65.2432-72.13512-90.973-89.13512-22.054-14.7027-27.1081-16.54054-31.7027-11.02703-6.8919 8.27027-13.3243 8.27027-13.3243-.45946 0-3.67567-3.2162-6.89189-6.8919-6.89189s-6.8919 2.2973-6.8919 4.59459zm-303.2432 2.2973c0 8.27027-2.2973 8.72973-12.8649 1.83784-6.8919-4.59459-12.8649-2.75676-33.5405 10.56757-24.3514 15.62162-70.7568 61.1081-89.5946 88.2162-12.4054 17-20.2162 12.4054-17.4595-10.1081 2.2973-15.6216 5.0541-25.27026 19.7568-71.21621 11.027-33.08108-1.3784-25.72973-36.7568 22.05405-24.3513 33.54056-28.027 39.51356-43.1892 68.91896-6.4324 12.4054-13.3243 26.1892-15.6216 29.8648-25.7297 47.3244-56.5135 149.7838-62.48648 207.6757-1.83783 14.7027-4.59459 26.6487-5.97297 26.6487-14.24324 0-23.43243-62.946-23.89189-163.1082v-55.1351l-9.18919 15.1622c-9.64865 15.6216-20.21622 42.2702-27.56757 67.5405-1.83784 7.3514-5.97297 19.7568-8.72973 27.5676-23.43243 68.9189-33.54054 146.5675-33.54054 256.8378 0 96.4865 3.67568 132.7838 20.21622 193.4324 2.75675 10.1082 6.43243 25.7298 8.72973 34.4595 6.89189 34 37.21621 106.1351 67.54054 163.5676 10.56757 19.7567 16.08108 13.3243 13.32432-15.6216-1.83784-14.2433-4.59459-30.7838-5.97297-36.2973-5.05406-18.3784 5.97297-11.946 38.13513 22.054 17.4595 17.9189 47.3243 45.027 67.0811 60.1892 37.2162 28.4865 108.8919 68 123.5946 68 10.5675 0 11.027-8.2703.4594-12.4054-37.2162-14.2432-111.6486-79.946-152.5405-134.6216-31.2432-42.2703-32.6216-44.5676-53.7568-87.2973-9.1891-18.8379-18.8378-38.5946-21.59455-43.6487-2.75676-5.054-6.43244-15.1621-8.27027-22.9729-1.83784-7.3514-5.51352-20.2163-7.81081-27.5676-19.75676-56.973-33.08108-134.6216-33.08108-189.7568 0-40.8919 6.43243-59.7297 11.48648-34.4594 5.05406 22.054 35.37838 91.4324 54.21623 123.1351 9.1892 15.6216 32.1621 45.4865 44.1081 57.4324l11.027 11.4865-3.2162-11.4865c-1.3784-6.4324-5.054-21.5946-7.3513-33.5405-2.2973-12.4054-5.973-24.8108-7.8109-27.5676-1.3783-2.7567-5.5135-34-8.7297-69.3783-7.8108-94.1892.9189-182.4055 25.2703-257.7568 11.4865-36.2973 16.0811-32.1622 19.2973 15.1622 1.8378 30.7837 4.5946 45.027 10.1081 50.081 9.6486 9.6487 12.8649 5.973 17.4594-17.9189 7.3514-43.1892 57.4325-150.7027 78.1082-169.0811 1.3783-1.3783 10.1081-13.7837 19.2973-28.027 18.8378-28.4865 68.9189-82.24323 76.2702-82.24323 2.7568 0 5.0541-2.75676 5.0541-6.43243 0-3.67568 3.2162-7.35136 6.8919-9.18919 3.6756-1.37838 6.8919-4.5946 6.8919-7.35136 0-2.29729-3.2163-4.59459-6.8919-4.59459-3.6757 0-6.8919 3.21622-6.8919 6.89189z" style="stroke-width:.459459"/></svg>