<svg height="960" style="" width="1250" xmlns="http://www.w3.org/2000/svg"><path d="m735.67835.015367c-4.20425.153707-9.99678 1.460184-18.0979 3.774798-9.7728 2.57178-12.85393 6.682116-12.85393 18.512314 0 13.373274 2.05495 15.435728 17.99999 18.007508 9.77276 2.057428 23.14455 6.16625 29.31683 9.252392 6.17228 3.600495 15.94354 6.1783 21.60147 6.1783 5.14355 0 16.46093 3.080622 24.69062 7.195479 7.71535 4.114846 23.6594 11.831702 34.97526 16.975272 11.31584 5.14357 22.63318 12.34456 24.69063 15.43069 2.05742 3.60051 9.77627 6.69067 16.46289 6.69067 13.37329 0 23.14606-12.86445 23.14606-31.38129 0-9.258418-1.54308-9.769763-7.71535-4.626192-6.17229 5.143562-10.29262 3.086636-23.66592-9.772275-10.80148-10.801494-19.03068-15.431197-25.20295-13.373779-6.68666 2.057429-11.31036-.51636-14.91084-7.202997-4.11487-7.200999-10.80751-9.772275-21.609-9.772275-9.77277.514352-19.02566-3.086142-22.62619-7.715351-6.68662-9.772779-18.00748-11.831207-18.00748-3.601503 0 9.772779-14.39599 5.148596-16.96774-5.138546-1.60738-6.75093-4.21933-9.689392-11.22645-9.433215zm-218.32029.429471c-9.08562-.281295-12.4626 1.802756-14.26282 9.003744-2.5718 10.287142-16.97527 14.911325-16.97527 5.138546 0-8.229704-11.31337-6.171276-17.99999 3.601503-3.60049 4.629209-12.86091 8.229703-22.63371 7.715351-10.8015 0-17.48661 2.571276-21.60148 9.772275-3.60048 6.686637-8.2317 9.260426-14.91832 7.202997-6.17228-2.057418-14.40151 2.572285-25.203 13.373779-13.37324 12.858911-17.48611 14.915837-23.65839 9.772275-6.17227-5.143571-7.71535-4.632226-7.71535 4.626192 0 18.51684 9.77076 31.38129 23.65839 31.38129 6.68667 0 13.88762-3.60049 15.4307-7.71536 2.05745-4.11485 7.20552-7.71535 12.34907-7.71535 5.14359 0 11.83022-3.60049 15.4307-7.71535 3.60052-4.11484 10.28162-7.71535 14.91084-7.71535 5.14355 0 13.37429-3.600493 19.03219-7.71535 5.14359-4.114847 14.91485-7.715351 21.60147-7.715351 6.68666 0 16.97377-2.577805 23.14605-6.1783 6.17228-3.086142 19.55158-7.196972 29.32435-8.740048 13.88762-2.571781 18.51583-6.172275 19.54456-15.430692 2.57179-15.430703-4.62872-22.118843-25.20296-24.690634-1.54308-.128588-2.95907-.215981-4.25703-.256167zm-333.62858 10.631207c-1.1362.123563-2.16994.943319-3.13436 2.486395-3.6005 5.657923 4.6267 19.545549 56.57671 92.5842 12.34457 18.00249 22.63371 34.46238 22.63371 36.51983 0 5.14355-18.51784 24.68611-26.74756 27.77225-5.14356 2.05741-5.14557 3.60048.51236 7.71534 7.71535 5.65791 3.60601 16.4629-7.19547 16.4629-3.6005 0-7.71485 3.60053-9.77228 7.71535-1.54306 4.11487-6.1773 7.71535-10.29215 7.71535s-9.2539 4.6267-10.79698 10.28464c-1.54306 5.65794-5.66143 10.28464-8.74757 10.28464s-2.57028 3.606 1.54458 8.23521c5.65792 7.201 4.6272 9.76824-7.20301 18.51233-8.2297 6.17227-13.8861 14.92037-13.8861 22.12132 0 7.20101-5.14459 16.96826-11.31687 22.6262-8.2297 8.22969-9.26093 12.34405-5.14607 17.48761 4.62921 5.14359 2.5773 10.28765-7.19547 21.08913-11.31584 11.31584-12.34857 14.92238-6.69066 21.609 5.65792 6.68663 4.63222 9.76675-4.62619 16.96776l-11.8292 8.74758 15.4307 11.31684c8.74407 6.17228 16.4569 11.31683 17.99997 11.31683 4.11486 0 23.6584-46.81145 23.6584-56.58422 0-8.22973 7.72137-26.74155 21.609-51.43067 2.05743-4.11483 5.14005-10.8055 6.68312-14.40599 9.77277-24.68912 17.48461-37.03468 45.25987-73.03963 15.43069-19.54557 27.77625-30.86139 34.46291-30.86139 5.6579 0 10.29213 2.0564 10.29213 4.11381 0 2.5718 9.2534 16.97528 20.56927 32.40598 11.31584 15.4307 24.17525 32.92437 28.80445 39.09664 8.22974 11.31584 8.22974 11.31082 46.2921-25.72285 33.94754-33.4332 47.32032-55.03216 32.91835-55.03216-2.5718 0-23.14053-13.37726-45.77224-29.83669-22.11732-15.94504-56.06736-39.60395-74.58421-52.46287-19.03121-12.85892-48.86439-33.949049-67.38123-47.836684-18.00249-13.373264-34.4624-24.170741-36.51983-24.170741-2.05742 0-6.17178-3.604007-9.77227-8.747577-2.57178-3.536201-4.74423-5.261603-6.63791-5.055663zm884.13082 2.102125c-3.8576-.257176-10.2901 2.957554-18.5198 9.644191-8.7441 7.200999-31.3708 23.656893-51.43069 37.544519-19.54553 13.37327-51.95501 36.00798-72.01492 49.38125-19.54556 13.88762-52.97977 36.51832-73.03967 50.40596-20.57425 13.88762-37.54452 26.74703-37.54452 28.80448 0 2.0574 13.36979 17.48359 29.82917 33.94302 15.94508 16.97377 34.46342 37.55003 40.12132 45.77972 6.17228 8.22974 13.37679 13.37429 16.46294 11.31688 2.5718-1.54308 18.51784-22.6297 34.46288-46.80448 16.45943-24.17474 32.40497-43.72281 36.51983-43.72281 6.68664 0 53.48756 57.09259 53.48756 65.83667 0 2.57175 3.6005 7.71635 7.7154 11.31683 4.1148 3.60048 7.7153 10.28915 7.7153 14.91836s2.5778 11.31031 6.1783 14.9108c5.6579 5.65794 9.7673 15.9511 30.3416 75.61645 5.6579 16.97376 12.3465 32.91584 14.9183 35.48759 2.0574 2.05746 11.3128-1.02868 20.0569-7.71535l16.4629-11.82917-11.8292-9.25993c-9.2585-6.68666-10.2876-9.77481-5.6585-14.91836 5.1437-5.14355 4.1164-9.76725-6.1707-22.62619-9.2584-12.8589-10.8075-18.00446-6.1783-22.63367 4.6292-5.14359 4.1174-7.71785-2.5693-12.86144-4.6292-3.60049-10.2861-12.85741-11.8292-21.60148-2.0574-8.2297-9.7742-20.06292-16.9752-26.2352-11.8302-9.77276-12.3451-12.34155-5.6585-20.0569 6.6867-8.22969 6.1773-8.74454-5.1385-5.6584-8.7441 2.05742-10.8055 1.54558-6.6906-2.56929 6.6866-6.68662 2.0554-19.54456-7.2031-19.54456-3.6004 0-8.7395-3.09015-10.7969-6.69063-2.0574-4.11487-8.2322-8.22719-12.8614-10.28464-9.7728-3.60048-12.858-13.88612-4.1139-13.88612 9.2584 0 5.6554-9.26093-5.1461-12.86141-18.00245-5.65794-11.82667-26.2332 24.1783-80.755 18.5168-29.318331 34.9788-56.581249 36.0075-61.210457 2.0574-7.200989.7685-10.924047-3.0892-11.181233zm-435.20899 50.594314c-3.02183-.835832-6.8785 5.336948-12.79363 18.195866-5.6579 12.34456-10.29213 27.77627-10.29213 34.46293 0 6.17227-3.60051 20.06191-7.71534 30.34902-4.11486 9.7728-7.71535 23.14654-7.71535 28.80448 0 6.17228-3.08062 20.05589-7.19549 31.88611-7.71535 23.14605-16.97929 56.58422-23.66591 87.44562-10.80149 47.83517-19.54306 69.95253-33.43068 84.86885-16.45943 17.48815-23.14455 19.54005-160.47778 53.48758-62.23714 15.4307-97.72977 24.69263-122.93324 31.89363-14.40199 4.11484-31.89011 7.20298-38.57674 7.20298-6.68664 0-15.94205 2.56679-20.0569 5.13858-6.68663 4.11482-6.1748 5.66241 2.56927 12.34907 5.65792 4.11483 17.48562 9.2539 25.71532 10.79698 8.74407 1.54306 27.26593 6.17729 41.15355 10.29212 30.34704 8.22973 74.06634 20.56878 112.12874 30.34154 133.73274 35.4906 142.47328 38.58125 160.99011 58.64116 9.7728 10.8015 17.48766 24.17478 17.48766 30.86141 0 6.17227 3.60047 20.06191 7.71534 30.34906 4.11482 9.77276 7.71535 22.62664 7.71535 28.28459 0 5.65793 3.60048 21.60749 7.71535 35.49511 4.11482 13.88764 11.31583 36.51834 15.4307 50.40596 4.11483 13.88763 7.71535 29.82967 7.71535 35.4876 0 5.6579 3.60049 18.51935 7.71535 28.29212 4.11483 10.28714 7.71534 25.20295 7.71534 32.9183 0 27.77527 8.23422 30.8614 20.06443 7.71536 6.17228-11.83018 10.79698-25.20547 10.79698-30.34902 0-5.1436 3.08814-19.54708 7.20296-32.40598 4.11487-12.85894 10.8015-35.99998 15.43071-51.43067 15.94508-59.66535 25.20701-90.53176 31.89364-110.59167 4.11486-11.83022 7.19549-24.68962 7.19549-28.80449 0-15.43069 33.43616-41.65988 64.81193-50.9183 36.5193-10.80148 69.43515-19.54305 97.21041-25.71533 30.34701-6.68663 63.78271-15.43622 90.0149-23.66591 12.8589-4.11487 28.2886-7.19549 34.97526-7.19549 6.68662 0 16.97574-2.57226 22.63364-5.6584 5.658-3.08614 20.5718-7.20251 33.4307-9.25992 47.3208-6.68667 30.3476-14.40202-117.78713-54.00745-34.97627-9.25843-76.63614-20.57429-112.6411-30.8614-15.94508-4.62921-32.40848-8.22773-37.55208-8.22773-27.26087 0-75.09653-41.15151-75.09653-64.81195 0-7.20097-3.60053-21.08658-7.71535-31.37373-4.11487-9.77276-7.71536-23.14655-7.71536-28.80448 0-5.65791-3.08062-22.11783-7.19548-36.51981-4.11487-14.402-10.8035-40.12282-14.91836-57.09659-4.11484-16.97376-10.79999-42.6891-13.88614-56.57673-3.60048-14.40198-8.2347-35.49211-10.29211-47.83668-2.5718-15.17353-4.75381-23.018463-7.77565-23.854296zm463.50109 485.750566c-1.5431 0-7.2015 10.79948-13.3737 23.65842-5.6579 13.37325-10.2921 28.28911-10.2921 32.91832 0 8.22969-7.7139 26.74904-21.6015 51.43816-2.0575 4.11485-5.1401 10.79997-6.6832 13.88612-9.7728 25.2035-17.4921 37.54705-45.26738 73.552-13.37328 16.97377-27.2589 30.8614-31.37373 30.8614-6.17228 0-49.38124-51.43615-49.38124-59.66589 0-5.65789-31.88713-43.72129-35.48761-42.17822-1.54306 1.02872-21.08562 20.06442-43.20295 43.21047l-40.12132 41.65837 56.57669 40.63366c30.86141 22.11736 71.49811 50.92081 90.01495 63.77975 19.03119 12.8589 48.86436 33.94904 67.38119 47.83667 18.0025 13.37325 35.4906 24.17824 38.5768 24.17824 2.5718 0 5.1385 2.05245 5.1385 5.13858 0 2.57176 3.6005 5.14606 7.7154 5.14606 11.3158 0 9.7778-4.63171-12.8539-36.00746-58.63669-81.78271-61.72434-87.44064-55.55207-100.29954 3.08615-7.20101 9.77277-13.88763 15.43067-15.4307 9.7728-3.60052 12.858-12.85393 4.1139-12.85393-9.2584 0-5.1466-11.32185 4.6262-13.89364 5.6579-1.54307 11.3183-5.6574 12.8614-9.77226 1.5431-4.11487 6.1753-7.19549 10.8045-7.19549 6.6867 0 9.7708-6.17379 8.2277-16.97527 0-2.05742 3.0862-3.6015 7.7154-3.6015 7.201 0 7.2025-1.02671 1.5446-8.22768-5.658-7.20101-4.6348-9.77581 7.1954-18.51985 8.2297-6.17228 13.8937-14.91284 13.8937-22.11385 0-7.20097 5.1446-16.97578 11.3168-22.63367 8.2297-8.22973 9.2534-12.34406 5.1385-17.48766-4.6291-5.14355-2.5697-10.2876 7.2031-21.08909 11.3158-11.31587 12.341-14.91485 6.6831-21.60148-5.6579-6.68666-4.6248-9.7743 4.6337-16.97527l11.8292-8.74759-15.4307-11.3093c-8.7441-6.17229-16.457-11.31688-18-11.31688zm-943.20144 1.92883c-3.84662.28833-11.38466 4.56194-18.13559 10.41271l-14.39847 11.82922 11.8292 7.71535c9.25841 6.68662 10.80199 9.77477 5.65843 14.91836-5.14358 5.14355-4.11637 9.77477 6.17077 22.63367 9.25841 12.85894 10.79998 17.99698 6.17077 22.62619-4.62921 5.14355-4.10983 7.71785 2.5768 12.86142 4.62921 3.60051 10.28614 12.85743 11.8292 21.60147 2.05744 8.22973 9.76674 20.06292 16.96774 26.23519 11.83021 9.7728 12.34507 12.34155 5.65843 20.0569-6.68664 8.22974-6.16977 8.74458 5.14607 5.65844 8.74407-2.05742 10.80551-1.53806 6.69066 2.57681-6.68664 6.68663-2.06295 19.54453 7.19547 19.54453 4.11485 0 8.74909 3.60052 10.29215 7.71535 2.05743 4.11487 6.17178 7.71535 9.77228 7.71535 10.80148 0 14.91082 10.79748 7.19547 16.45541-5.65793 4.11487-5.65592 5.65793-.51236 7.71535 8.22972 3.08613 26.74756 22.63621 26.74756 27.77977 0 3.60049-24.68912 40.1143-61.7228 92.06433-22.63169 31.37575-24.17727 36.00746-12.86142 36.00746 4.11484 0 7.71535-2.5743 7.71535-5.14606 0-3.08613 2.57429-5.13858 5.14607-5.13858 3.08614 0 20.57426-10.80499 38.57675-24.17824 18.51684-13.88763 48.35002-34.97777 67.38123-47.83667 18.51685-12.85894 36.51528-25.71835 39.60142-28.80449 3.60053-3.08614 13.37931-9.76724 21.60901-14.91084 51.95003-32.91881 88.97769-69.43814 70.97519-69.43814-2.57175 0-19.54552-14.92134-38.57675-33.43817-19.03118-18.51685-36.51729-33.43069-39.08908-33.43069-4.11486 0-31.89113 39.0941-57.60894 80.24265-4.11486 6.68661-11.8262 12.34154-16.45541 12.34154-9.25841 0-52.4684-50.41047-60.6981-70.47038-2.57178-5.6579-7.20049-12.34104-9.77227-14.39846-3.08614-1.54307-5.65843-7.19799-5.65843-12.34156 0-5.14355-3.08061-12.34456-7.19547-15.43069-4.11485-3.08614-8.2292-11.31534-9.77227-17.48761-5.65793-25.2035-32.41049-93.10008-37.03971-94.12878-.38576-.1286-.85943-.16926-1.40895-.12811zm720.99339 306.68515c-6.68661 0-13.88762 3.60053-15.43069 7.71535-2.05742 4.11487-7.198 7.71534-12.34155 7.71534-5.14356 0-11.83022 3.60053-15.4307 7.71536-3.60049 4.11486-10.28915 7.71535-14.91836 7.71535-5.14356 0-13.37425 3.60052-19.03219 7.71535-5.14356 4.11486-14.91485 7.71535-21.60147 7.71535-6.68663 0-16.97377 2.57029-23.14605 6.17077-6.17228 3.08614-19.54407 7.19699-29.31683 8.74007-13.88762 2.57179-18.51583 6.17227-19.54456 15.43069-2.57176 15.4307 4.62871 22.11883 25.203 24.69063 12.34456 1.02873 16.46239-.51033 18.51985-8.74007 2.57175-10.28711 16.96774-14.91882 16.96774-5.14606 0 8.22969 11.32086 6.17128 18.00748-3.60148 3.60053-4.62921 12.85342-8.22974 22.62619-7.71535 10.80149 0 17.49413-2.5713 21.609-9.7723 3.60048-6.68662 8.22418-9.26042 14.91084-7.20298 6.17227 2.05741 14.40147-2.57229 25.20295-13.37378 13.3733-12.85891 17.49363-14.91586 23.66592-9.77227 6.17227 5.14356 7.71535 4.63223 7.71535-4.6262 0-18.51683-9.77828-31.37377-23.66592-31.37377zm-496.53246.0904c-7.88641.13564-16.40419 3.60604-19.87609 9.68188-2.57176 5.6579-5.14607 15.4292-5.14607 21.60147 0 9.25843 1.54308 9.76976 7.71535 4.6262 6.17228-5.14359 10.28515-3.08664 23.65839 9.77227 10.80149 10.80149 19.03072 15.43119 25.203 13.37378 6.68662-2.05744 11.31784.51636 14.91832 7.20298 4.11487 7.201 10.79998 9.7723 21.60148 9.7723 9.7728-.51439 19.03322 3.08614 22.63371 7.71535 6.68662 9.77276 17.99999 11.83117 17.99999 3.60148 0-9.77276 14.40347-5.14304 16.97527 5.65844 2.57176 9.25842 5.14806 10.28912 20.06442 7.20298 21.60298-4.62921 25.7158-8.74956 23.65839-23.66592-1.02873-9.25842-5.65694-12.8589-19.54456-15.43069-9.77277-1.54308-23.15207-5.65393-29.32435-8.74007-6.17228-3.60048-15.94353-6.17077-21.60148-6.17077-5.14355 0-16.46089-3.08815-24.69062-7.20298-7.71535-4.11487-23.65939-11.83172-34.97522-16.97527-11.31588-5.14359-22.62569-12.34255-24.68311-15.94308-2.70037-4.27557-8.45297-6.18581-14.58682-6.08035z" style="stroke-width:3.85767"/></svg>