<svg height="960" style="" width="1168" xmlns="http://www.w3.org/2000/svg"><path d="m526.72497-119.99222a33.337284 33.337284 0 00-33.98413 33.324968 33.296409 33.296409 0 0033.25171 33.324981h.0733a33.337284 33.337284 0 00.65917-66.649949zm115.79516 0a33.337284 33.337284 0 00-34.05739 33.324968 33.296409 33.296409 0 0033.32498 33.324981h.0733a33.337284 33.337284 0 00.65918-66.649949zm-118.7248 99.755208a33.337284 33.337284 0 00-31.05449 33.324972 33.296409 33.296409 0 0033.25171 33.25174h.0733v.0733a33.344311 33.344311 0 10-2.27046-66.649953zm115.72189 0a33.337284 33.337284 0 00-31.05447 33.324972 33.296409 33.296409 0 0033.32498 33.25174l.0733.0733a33.345578 33.345578 0 10-2.3438-66.649957zm-112.79225 99.681962a33.337284 33.337284 0 00-33.98413 33.32498 33.337284 33.337284 0 0033.32496 33.32499 33.337284 33.337284 0 00.65917-66.64997zm115.79516 0a33.337284 33.337284 0 00-34.05739 33.32498 33.337284 33.337284 0 0033.39821 33.32499 33.337284 33.337284 0 00.65918-66.64997zm-522.7261 43.65207a1180.8756 1180.8756 0 01191.38059 522.43312s-.0416 32.7455 68.92045 96.53259a562.90473 562.90473 0 01189.69605 337.93727s3.88182-.4272 3.88182-10.3271v-297.72756a126.82942 126.82942 0 00-21.75279-71.26416 152.15414 152.15414 0 01-25.34166-72.43607h.0733a178.71785 178.71785 0 00-1.17187-42.48022 156.96648 156.96648 0 01-10.32706-48.3395 842.59929 842.59929 0 012.27051-108.03151 65.928698 65.928698 0 000-60.86387c-14.92491-24.11234-70.16558-88.47599-70.16558-88.47599a91.299158 91.299158 0 00-41.38158-19.55556 126.79155 126.79155 0 01-37.9392-11.49893l-.43944-.21973a126.79155 126.79155 0 01-.29298-.14648l-49.80442-26.07406a75.126264 75.126264 0 01-24.09652-14.94131 335.32995 335.32995 0 00-55.15101-29.88261 104.03783 104.03783 0 00-28.71076-11.49895 61.643975 61.643975 0 01-29.88261-14.94131 95.649131 95.649131 0 00-59.76524-28.19806zm928.41197.14648a94.923135 94.923135 0 00-59.91174 28.05158 61.159479 61.159479 0 01-29.80938 14.94131 103.52708 103.52708 0 00-28.71076 11.49895 337.20232 337.20232 0 00-55.151 29.88261 75.524511 75.524511 0 01-24.16975 14.94131l-50.53677 26.44027a124.77594 124.77594 0 01-37.28005 11.42569l-.73241.0732a92.153028 92.153028 0 00-41.38159 19.55556s-55.12989 64.32615-70.0923 88.47599a65.699574 65.699574 0 000 60.86387 835.83921 835.83921 0 012.41697 108.03151 160.26534 160.26534 0 01-10.40033 48.33951 182.85219 182.85219 0 00-1.17187 42.48021 151.36102 151.36102 0 01-25.26838 72.43607 126.82942 126.82942 0 00-21.67955 71.26416v297.7275c0 9.9 3.88179 10.3272 3.88179 10.3272a562.7176 562.7176 0 01189.6228-337.93725c68.99957-63.78709 68.99371-96.53259 68.99371-96.53259a1180.0731 1180.0731 0 01191.38061-522.28666zm-594.72273 73.53468c-3.30466-.21563-4.43141 2.50721 4.17479 14.28214a264.24879 264.24879 0 0121.31333 42.55343c6.29996 18.41239 19.52508 45.96298 33.32499 44.23799 13.7999-1.72499 37.38373-22.35923 23.58381-43.35909a243.54818 243.54818 0 00-73.6079-54.34534s-5.48435-3.15351-8.78902-3.36913zm260.96024 0c-3.30936.21562-8.789 3.36913-8.789 3.36913a243.18593 243.18593 0 00-73.60793 54.34534c-13.79992 20.99986 9.7839 41.6341 23.58381 43.35909 13.79995 1.72499 26.98753-25.86309 33.32499-44.23799a266.45115 266.45115 0 0121.31336-42.55343c8.62493-11.77493 7.48413-14.49777 4.17477-14.28214zm-440.62215 49.87761c19.46238-1.1625 57.4719 31.01287 67.82183 39.03782a342.18078 342.18078 0 0047.16766 21.82606c11.51241 5.66246 40.20795 32.22635 35.59548 32.22635a257.91658 257.91658 0 01-39.11108-9.22847 92.943898 92.943898 0 00-43.65206-2.27049c24.14985 10.34993 66.70035 65.51908 77.05028 74.70653 10.34993 9.18747 19.54031 5.69587 26.44026 7.98335 6.89995 2.2875 5.71286 29.91604 5.71286 42.55346 0 12.63741 8.07533 25.30352 10.40032 42.55341a883.40278 883.40278 0 01-11.5722 105.39483 1774.85 1774.85 0 00-182.73809-323.72836c-26.43731-26.43734-12.57764-29.892 6.88474-31.05449zm620.35732.0733c19.53737 1.16248 33.39526 4.61716 6.95796 31.05448l-.14651-.0733a1769.9701 1769.9701 0 00-182.6648 323.87487 885.76713 885.76713 0 01-11.49896-105.46806c2.32497-17.24993 10.32709-29.8428 10.32709-42.48021 0-12.63742-1.1514-40.26596 5.78606-42.55345 6.93746-2.28748 16.16532 1.13089 26.44026-8.05656 10.27493-9.18744 52.90046-64.35664 77.05029-74.70657a93.012898 93.012898 0 00-43.72532 2.34373 255.72734 255.72734 0 01-39.0378 9.15524c-4.61247 0 24.12056-26.41566 35.59549-32.15312a353.40259 353.40259 0 0047.16763-21.82602c10.34994-8.02496 48.21122-40.27358 67.7486-39.11108z" style="stroke-width:37.4998"/></svg>