<svg height="960" style="" width="1164" xmlns="http://www.w3.org/2000/svg"><path d="m120.3085-56.6002c-.68 2.0399.4533 5.4397 2.4932 7.7062s3.6264 4.9863 3.6264 6.3463c0 1.3599 2.0399 7.2528 4.7597 13.3725 2.4932 6.1196 5.6663 13.5991 7.0263 16.7723 1.1332 3.1731 3.6264 8.6128 5.213 12.4659 1.8132 3.6264 4.7597 10.8793 6.7996 15.8656 6.7995 16.5457 16.3189 38.7577 20.172 46.4638 2.4932 5.2131 4.0798 5.6664 20.1721 6.3463 9.5194.4533 19.4922-.4533 21.9853-1.8132 2.4932-1.3599 11.3327-3.1731 19.9455-3.8531 8.3861-.68 17.2256-2.7198 19.7188-4.3064 2.4931-1.8132 7.7061-3.1731 11.5592-3.1731s8.3862-1.5866 9.9728-3.3998c1.5865-1.8132 5.213-3.3998 8.3861-3.3998 2.9465 0 7.0262-1.5866 8.8395-3.3998 2.0398-1.8132 5.4396-3.3998 7.7062-3.3998 2.2665 0 4.7597-.9066 5.4396-2.0399.9066-1.1332 6.1196-4.3064 12.2393-7.2529 5.8929-2.7198 14.2791-7.9328 18.8121-11.5592 4.5331-3.3998 9.5194-6.3463 10.6527-6.3463 1.3599 0 3.3998-1.3599 4.3064-2.9465.9066-1.8132 3.3998-3.8531 5.213-4.5331 1.8132-.9066 6.573-3.6264 10.1994-6.1196 3.8531-2.4932 9.0661-5.4396 11.7859-6.5729 2.4932-1.1333 5.4397-3.3998 6.3463-4.5331.68-1.3599 3.1731-2.4931 5.4397-2.4931 2.2665 0 5.4396-1.5866 7.0262-3.3998s4.5331-3.3998 6.7996-3.3998 5.213-1.5866 6.7996-3.3998c1.5865-1.8132 5.213-3.3998 7.9328-3.3998s6.3463-1.5866 7.9329-3.3998c1.5865-1.8132 5.213-3.3998 8.3861-3.3998 2.9465 0 7.0262-1.5865 8.8395-3.3998 2.0398-1.8132 6.1196-3.3998 9.5194-3.3998s8.1595-1.5865 10.426-3.3997c2.4932-1.8133 8.1595-3.3998 12.6925-3.3998 4.5331 0 9.2928-1.1333 10.6527-2.4932 2.9465-2.9465 26.2917-5.4397 31.7314-3.1732 3.6264 1.5866 3.3998 2.0399-1.5866 3.3998-3.1731 1.1333-10.1993 2.0399-15.8657 2.0399-5.6663.2267-12.2392 1.8132-14.5057 3.6265-2.4932 1.8132-8.1595 3.3997-12.4659 3.3997-4.5331 0-10.1994 1.5866-12.4659 3.3998-2.4932 1.8133-7.2529 3.3998-10.6527 3.3998-3.1731 0-7.2529 1.5866-8.8395 3.3998-1.5865 1.8132-4.9863 3.3998-7.7061 3.3998-2.4932 0-6.7996 1.5866-9.0662 3.3998-2.4931 1.8132-6.1196 3.3998-8.3861 3.3998-2.0399 0-4.9864 1.5866-6.5729 3.3998-1.5866 1.8132-4.5331 3.3998-6.7996 3.3998s-5.213 1.5865-6.7996 3.3998c-1.5866 1.8132-4.7597 3.3997-7.0262 3.3997-2.4932 0-4.3064.9067-4.3064 2.0399 0 1.1333-2.0399 2.9465-4.7597 3.6265-5.213 1.8132-28.7849 17.4522-47.3704 31.7313-11.3327 8.8395-42.6107 38.7576-56.8899 54.6233-12.0126 13.8258-36.7177 48.0504-40.3441 56.8899-1.36 2.4931-3.3998 5.4396-4.5331 6.3462-1.3599.68-2.4932 3.3998-2.4932 5.893s-1.5865 4.9864-3.3998 5.6663c-1.8132.9066-3.3998 2.9465-3.3998 4.5331 0 1.8132-2.4931 4.3064-5.6663 5.4396-3.1731 1.1333-6.3462 4.0798-7.0262 6.1197-.68 2.2665-2.7198 7.0262-4.5331 10.426-1.5865 3.6264-3.1731 7.9328-3.1731 9.5194s-1.3599 5.893-3.1731 9.5194c-5.213 10.6527-8.6128 21.7587-9.7461 31.2781-1.3599 11.1059-4.5331 14.959-6.3463 7.7062-2.2665-9.5195-.2266-147.0976 2.2666-147.3243 1.3599 0 2.7198 1.8132 2.9464 4.0798.9066 3.8531 3.1732 9.746 10.4261 26.745 3.6264 8.3861 9.5194 23.5719 11.3326 28.7849.68 2.2665 3.3998 4.0797 5.893 4.0797 2.4931 0 5.213-1.8132 5.8929-4.0797.68-2.0399 2.2666-5.4397 3.3998-7.2529 1.1333-1.8132 3.1732-5.4397 4.3064-7.9329 1.3599-2.4931 4.3064-7.7061 6.7996-11.3326 2.4932-3.8531 5.213-8.6128 5.893-10.6527.6799-2.0398 2.7198-4.3064 4.533-4.9863 1.8133-.68 3.1732-2.2666 3.1732-3.8531 0-3.8531 12.9192-19.7188 41.2508-50.3169 4.533-4.9864 7.9328-9.9727 7.2528-11.106-1.8132-2.9465-7.0262-2.0399-8.6128 1.5866-.6799 2.0398-4.0797 3.3998-7.7062 3.3998-3.6264 0-7.9328 1.5865-9.5194 3.3998-1.5865 1.8132-6.5729 3.3997-11.1059 3.3997-4.5331 0-9.7461 1.36-11.106 2.7199-1.5866 1.5865-10.1994 3.6264-19.2655 4.533-21.9853 2.0399-49.1836 5.893-53.0367 7.2529-2.4932.9066-2.9465 48.5037-2.9465 273.1165 0 184.9486.6799 272.4365 2.2665 273.3431 1.3599.9066 14.9591 2.2665 30.1448 3.1732 15.1857 1.1332 30.5981 2.9464 33.9979 4.533 3.6265 1.3599 9.2928 2.4932 12.4659 2.4932 3.3998 0 8.1595 1.3599 10.6527 3.1731 2.4932 1.5866 7.0262 3.6265 10.1994 4.3064 9.2927 2.0399 22.6652 7.4796 25.3851 10.1994 1.5865 1.5866 4.533 2.7198 6.5729 2.7198 2.2665 0 4.7597 1.1333 5.4397 2.4932.9066 1.1333 3.853 3.1731 6.3462 4.5331 6.3463 2.7198 12.0126 6.1196 22.212 13.8258 4.533 3.6264 9.0661 6.3462 9.9727 6.3462.68 0 4.7597 2.4932 8.6128 5.4397 11.3326 8.3862 36.0378 21.532 60.5163 32.4113 4.3064 2.0399 10.8793 5.2131 14.5057 7.0263 4.0798 2.0399 12.2393 3.1731 21.532 3.1731 9.5195-.2266 16.5457.9066 19.9455 2.9465 2.7198 1.8132 8.6128 3.3998 12.9192 3.3998 4.533 0 12.0126 1.3599 16.5456 3.1731 4.7597 1.8133 18.8122 3.8531 31.2781 4.5331 34.6779 1.8132 40.1175 5.6663 8.3862 5.6663-17.9056.2267-27.8783-.9066-33.7713-3.1731-4.3064-1.8133-12.2392-3.3998-17.4523-3.3998-5.213 0-11.3326-1.3599-13.8258-3.1732-2.4931-1.5865-8.8394-3.6264-14.2791-4.3064-11.5593-1.3599-13.8258 1.5866-8.8394 11.3327 3.8531 7.9328 9.0661 19.4921 14.0524 31.278 5.893 14.5058 10.426 24.4785 13.8258 31.2781 1.8133 3.6264 3.1732 7.4795 3.1732 8.6128s2.9465 8.3862 6.3463 16.0923c3.6264 7.9329 8.3861 18.8122 10.426 24.4785 4.533 11.3327 7.9328 19.9455 13.1458 31.7314 1.8133 4.3064 4.7597 11.5593 6.7996 15.8657 1.8132 4.3064 4.9864 11.5593 6.7996 15.8657 2.0399 4.3064 5.893 13.5991 8.3861 20.3987 5.893 14.9591 6.7996 16.999 15.8657 36.9444 3.8531 8.3862 7.0263 16.5457 7.0263 18.1322 0 1.5866 1.3599 4.9864 3.1731 7.4796 1.8132 2.4931 3.6264 7.0262 4.0797 9.9727.2267 3.1731 2.2666 5.6663 4.0798 5.6663 2.9465 0 3.3998-16.319 4.0797-131.2319.4533-113.553 0-131.6852-2.9464-135.085-2.9465-3.1731-2.9465-4.3064 0-8.6128 3.1731-4.0797 3.3997-27.425 2.9464-182.6821l-.6799-177.9223-7.4796-7.7062c-4.0797-4.3064-11.3326-8.8394-16.0923-10.426-12.0126-3.3998-70.9423-3.3998-74.5687.2266-1.5866 1.5866-2.7199 7.9329-2.7199 14.0525 0 23.7985-8.3861 22.8919-9.5194-.9066l-.6799-14.7324h-19.2655-19.2655l-.6799 13.5991c-.68 17.9056-1.8133 20.6254-6.1197 16.999-2.2665-1.8132-3.3998-7.0263-3.3998-14.5058 0-14.2791-2.4931-17.2256-14.959-17.2256-10.1994 0-14.9591-3.6264-9.7461-7.0262 1.8132-1.1333 37.171-2.0399 78.4218-2.0399 64.8227 0 76.8353.4533 84.9948 3.8531 5.4396 2.0399 11.5593 5.213 13.8258 7.0262 7.4795 6.573 8.8395.68 7.9328-33.7712-.6799-35.1312-1.8132-38.3043-15.1857-48.7303-5.4397-3.8531-11.106-4.3064-68.6757-5.4397-62.1029-1.1333-62.7828-1.1333-68.4492-6.5729-4.9863-4.7597-5.8929-7.4796-6.3462-23.7986-.68-15.639-1.3599-18.5855-5.213-20.6254-8.8395-4.533-14.2792-9.2927-20.1721-17.9055-10.1994-15.1858-7.0263-36.0378 7.7062-50.5436 8.1595-7.9328 22.2119-11.7859 25.1584-7.0262 1.1333 1.5866 2.0399 27.6516 2.0399 57.7964 0 51.9035.2266 55.0766 4.3064 57.3432 2.7198 1.3599 25.3851 2.2665 58.2497 2.2665 53.9434 0 67.9958 1.5865 76.1553 8.6128 2.2665 1.8132 5.4397 2.7198 7.4796 1.8132 3.1731-1.1333 3.6264-10.8793 2.9464-91.1144l-.6799-89.7544-8.8395-7.7062c-7.2529-6.3463-10.8793-7.7062-21.3053-8.1595-12.9192-.68-18.1322-4.7597-9.5194-7.4796 7.0262-2.2665 26.745.9067 30.8247 4.9864 1.8133 1.8132 4.9864 2.7198 6.7996 2.0399 6.1196-2.2666 2.0399-16.999-7.0262-25.8384-6.7996-6.3463-9.2928-7.2529-20.1721-7.2529-12.4659 0-18.1322-3.1732-12.4659-7.2529 4.7597-3.1731 29.9181 0 33.0913 4.3064 5.6663 7.2529 9.5194 1.5866 10.1994-14.5058.4533-11.7859 1.3599-15.4124 4.0797-15.4124 2.0399 0 3.6264 2.4932 4.0797 6.7996 1.5866 17.4523.9067 16.999 21.5321 16.999 33.0912 0 33.5445 8.3861.4533 9.5194l-20.3988.6799-.6799 6.573c-.4533 3.3998-.2267 8.8394.4533 11.7859 1.3599 5.213 2.2665 5.4397 20.1721 5.4397 33.0912 0 33.5445 8.3861.4533 9.5194l-20.3988.6799-.6799 80.9151c-.68 88.8478-.9067 86.128 12.4659 77.2885 4.3064-2.9465 12.6925-4.3064 32.6379-5.213 14.7325-.68 27.8783-2.2665 29.0116-3.3998 1.3599-1.3599 2.4932-10.8793 2.9465-21.532l.6799-19.2655 60.7429-.6799c52.8101-.4533 60.5163 0 60.5163 2.9465 0 2.9464-7.2529 3.3998-53.9433 3.3998-38.9843 0-54.6233.6799-56.6632 2.7198-1.5866 1.5866-2.7198 8.3861-2.7198 15.4124 0 26.2917-4.3064 29.4648-40.5709 29.4648h-25.3851l-9.5194 8.8395-9.5194 9.0661-.6799 94.0608c-.68 89.5278-.4533 94.2875 3.3997 94.2875 2.2666 0 6.573-2.0398 9.7461-4.533 4.9864-3.8531 9.5194-4.5331 39.6642-4.5331 27.1984 0 35.1312-.6799 39.2109-3.6264 2.7199-1.8132 4.9864-4.7597 4.9864-6.1196.2267-4.3064 9.2928-13.8258 18.3589-19.2655 14.7324-8.8395 36.0377-4.9864 48.9569 9.0661 5.4397 5.6663 12.4659 23.1186 10.4261 25.3851-.9066.68-34.6779 1.3599-75.2487 1.3599-81.3683.2267-82.2749.4533-93.6076 14.7324l-5.213 6.573-.6799 134.6317c-.4533 116.9527-.2267 135.085 2.7198 139.1647 3.1731 4.3064 3.1731 5.4397.2266 8.6128-2.9464 3.3998-3.3997 21.532-2.9464 135.085.6799 114.9129 1.1332 131.2319 4.0797 131.2319 1.8132 0 3.8531-2.4932 4.0798-5.6663.4533-2.9465 2.2665-7.4796 4.0797-9.9727 1.8132-2.4932 3.1731-5.893 3.1731-7.4796 0-1.5865 3.1732-9.746 7.0263-18.1322 9.0661-19.9454 9.9727-21.9853 15.8657-36.9444 2.4931-6.7996 6.1196-15.639 7.7062-19.2655 16.0923-37.3976 19.9454-46.4637 26.2917-62.3294 2.7198-6.7996 7.9328-18.8122 11.3326-26.7451 3.6264-7.7061 6.5729-14.959 6.5729-16.0923s1.3599-4.9864 3.1732-8.6128c3.3998-6.7996 7.9328-16.7723 13.8258-31.2781 4.9863-11.7859 10.1993-23.3452 14.0524-31.278 4.9864-9.7461 2.7199-12.6926-8.8394-11.3327-5.4397.68-11.786 2.7199-14.2791 4.3064-2.4932 1.8133-8.6128 3.1732-13.8258 3.1732-5.2131 0-13.1459 1.5865-17.4523 3.3998-5.893 2.2665-15.8657 3.3998-33.7713 3.1731-31.7313 0-26.2917-3.8531 8.3862-5.6663 12.4659-.68 26.5184-2.7198 31.2781-4.5331 4.533-1.8132 12.0126-3.1731 16.5456-3.1731 4.3064 0 10.1994-1.5866 12.9192-3.3998 3.3998-2.0399 10.426-3.1731 19.9455-2.9465 9.2927 0 17.4522-1.1332 21.532-3.1731 3.6264-1.8132 10.1993-4.9864 14.5057-7.0263 24.4785-10.8793 49.1837-24.0251 60.5163-32.4113 3.8531-2.9465 7.9328-5.4397 8.6128-5.4397.9066 0 5.4397-2.7198 9.9727-6.3462 10.1994-7.7062 15.8657-11.106 22.212-13.8258 2.4932-1.36 5.4396-3.3998 6.3462-4.5331.68-1.3599 3.1732-2.4932 5.4397-2.4932 2.0399 0 4.9864-1.1332 6.5729-2.7198 2.7199-2.7198 16.0924-8.1595 25.3851-10.1994 3.1732-.6799 7.7062-2.7198 10.1994-4.3064 2.4932-1.8132 7.2529-3.1731 10.6527-3.1731 3.1731 0 8.8394-1.1333 12.4659-2.4932 3.3998-1.5866 18.8122-3.3998 33.9979-4.533 15.1857-.9067 28.7849-2.2666 30.1448-3.1732 1.5866-.9066 2.2665-88.3945 2.2665-273.3431 0-224.6128-.4533-272.2099-2.9465-273.1165-3.8531-1.3599-31.0514-5.213-53.0367-7.2529-9.0661-.9066-17.6789-2.9465-19.2655-4.533-1.3599-1.3599-6.5729-2.7199-11.106-2.7199-4.533 0-9.5194-1.5865-11.1059-3.3997-1.5866-1.8133-5.893-3.3998-9.5194-3.3998-3.6265 0-7.0263-1.36-7.7062-3.3998-1.5866-3.6265-6.7996-4.5331-8.6128-1.5866-.68 1.1333 2.7198 6.1196 7.2528 11.106 27.1984 29.4648 39.4376 44.4239 41.9308 50.9968.9066 2.2666 2.2665 4.0798 3.6264 4.0798 1.1333 0 2.4932 1.8132 3.3998 3.8531.68 2.2665 3.3998 7.0262 5.893 10.8793 2.4932 3.6265 5.4397 8.8395 6.7996 11.3326 1.1332 2.4932 3.1731 6.1197 4.3064 7.9329 1.1332 1.8132 2.7198 5.213 3.3998 7.2529 1.5865 5.213 10.1993 5.213 11.7859 0 1.8132-5.213 7.7062-20.3988 11.3326-28.7849 7.4796-17.4523 9.5195-22.8919 10.4261-27.1983.4533-2.4932 1.8132-4.3064 2.9464-4.0798 2.4932.68 4.5331 138.4848 2.2666 147.7776-1.8132 7.2528-4.9864 3.3997-6.3463-7.7062-.4533-4.9864-2.2665-12.6926-3.8531-16.999-6.7996-18.8122-9.7461-26.5183-12.6925-32.8646-1.5866-3.8531-3.3998-8.6128-4.0798-10.8793-.68-2.0399-3.8531-4.9864-7.0262-6.1197-3.1732-1.1332-5.6663-3.6264-5.6663-5.4396 0-1.5866-1.5866-3.6265-3.3998-4.5331-1.8133-.6799-3.3998-3.1731-3.3998-5.6663s-1.1333-5.213-2.4932-5.893c-1.1333-.9066-3.1731-3.8531-4.5331-6.3462-3.6264-8.8395-28.3315-43.0641-40.3441-56.8899-14.2792-15.8657-45.5572-45.7838-56.8899-54.6233-18.5855-14.2791-42.1574-29.9181-47.3704-31.7313-2.7198-.68-4.7597-2.4932-4.7597-3.6265 0-1.1332-1.8132-2.0399-4.3064-2.0399-2.2665 0-5.4396-1.5865-7.0262-3.3997-1.5866-1.8133-4.5331-3.3998-6.7996-3.3998s-5.213-1.5866-6.7996-3.3998c-1.5865-1.8132-4.533-3.3998-6.5729-3.3998-2.2665 0-5.893-1.5866-8.3861-3.3998-2.2666-1.8132-6.573-3.3998-9.0662-3.3998-2.7198 0-6.1196-1.5866-7.7061-3.3998-1.5866-1.8132-5.6664-3.3998-8.8395-3.3998-3.3998 0-8.1595-1.5865-10.6527-3.3998-2.2665-1.8132-7.9328-3.3998-12.4659-3.3998-4.3064 0-9.9727-1.5865-12.4659-3.3997-2.2665-1.8133-8.8394-3.3998-14.5057-3.6265-5.6664 0-12.6926-.9066-15.8657-2.0399-4.9864-1.3599-5.213-1.8132-1.5866-3.3998 5.4397-2.2665 28.7849.2267 31.7314 3.1732 1.3599 1.3599 6.3463 2.4932 10.8793 2.4932 4.7597 0 9.9727 1.5865 12.0126 3.3998 1.8132 1.8132 6.3463 3.3997 10.1994 3.3997 3.6264 0 8.1595 1.5866 10.1993 3.3998 1.8133 1.8133 5.893 3.3998 8.8395 3.3998 3.1731 0 6.7996 1.5866 8.3861 3.3998 1.5866 1.8132 5.2131 3.3998 7.9329 3.3998s6.3463 1.5866 7.9328 3.3998c1.5866 1.8132 4.5331 3.3998 6.7996 3.3998s5.213 1.5866 6.7996 3.3998 4.7597 3.3998 7.0262 3.3998c2.2666 0 4.7597 1.1332 5.4397 2.4931.9066 1.1333 3.8531 3.3998 6.3463 4.5331 2.7198 1.1333 8.1595 4.0797 11.7859 6.5729 3.8531 2.4932 8.3862 5.213 10.1994 6.1196 1.8132.68 4.3064 2.7199 5.213 4.5331.9066 1.5866 2.7198 2.9465 3.6264 2.9465s8.8395 4.533 17.4523 10.1994c8.3861 5.6663 16.5456 10.1993 18.1322 10.1993 1.3599 0 3.8531 1.5866 5.4397 3.3998 1.5865 1.8132 4.7597 3.3998 7.0262 3.3998 2.0399 0 5.4397 1.5866 7.4795 3.3998 1.8133 1.8132 5.893 3.3998 8.8395 3.3998 3.1731 0 6.7996 1.5866 8.3861 3.3998 1.5866 1.8132 6.1197 3.3998 9.9728 3.3998s9.0661 1.3599 11.5592 3.1731c2.4932 1.5866 11.3327 3.6264 19.7188 4.3064 8.6128.68 17.4523 2.4932 19.9455 3.8531 2.4931 1.3599 12.4659 2.2665 21.9853 1.8132 16.0923-.6799 17.6789-1.1332 20.1721-6.3463 3.8531-7.7061 13.3725-29.9181 20.172-46.4638 2.0399-4.9863 4.9864-12.2392 6.7996-15.8656 1.5866-3.8531 4.0798-9.2928 5.213-12.4659 1.36-3.1732 4.5331-10.6527 7.0263-16.7723 2.7198-6.1197 4.7597-12.0126 4.7597-13.3725 0-1.36 1.5865-4.0798 3.6264-6.3463s3.1732-5.6663 2.4932-7.7062c-1.3599-2.9465-23.1186-3.3998-198.0944-3.3998-165.4565.2267-198.0945.68-205.8007 3.3998-6.7995 2.4932-21.0787 3.3998-57.7964 3.3998s-50.9969-.9066-57.7964-3.3998c-7.7062-2.7198-40.3442-3.1731-205.8007-3.3998-174.9758 0-196.7345.4533-198.0944 3.3998zm101.3137 241.8384c0 1.1333 1.5866 5.893 3.6265 10.426 5.6663 12.4659 12.4659 28.105 14.9591 34.4512 4.9863 12.2393 9.0661 21.7587 12.2392 27.8783 1.8132 3.6264 3.1731 7.4795 3.1731 8.6128s2.9465 8.3862 6.573 16.0923c3.3998 7.9329 8.6128 19.9455 11.3326 26.7451 2.7198 6.7995 6.1196 14.959 7.4795 18.1322 1.1333 3.1731 3.6265 9.0661 5.4397 13.1458 3.1731 7.7062 7.4795 17.9056 13.5992 31.7314 1.8132 4.5331 4.9863 11.3326 6.7996 14.7324 1.8132 3.6265 3.1731 7.4796 3.1731 8.8395 0 2.2665 1.5866 6.3463 13.3725 31.958 3.8531 8.3862 7.0262 16.319 7.0262 17.6789s1.3599 5.213 2.9465 8.3862c1.8132 3.3998 4.7597 9.5194 6.7996 13.5991 2.0399 4.3064 3.8531 8.6128 3.8531 9.7461s2.9465 8.3861 6.5729 16.0923c3.3998 7.9329 8.6128 19.9455 11.3327 26.745 4.9863 12.6926 7.0262 17.679 13.1458 31.7314 1.8132 4.3064 4.7597 11.3327 6.5729 15.4124 3.3998 8.1595 8.1595 19.4921 12.9192 30.5981 1.8133 3.8531 5.213 11.786 7.2529 17.4523 2.2665 5.6663 7.0263 16.5456 10.6527 24.4785 3.3998 7.7062 6.3463 15.1857 6.3463 16.5456s1.3599 5.213 2.9465 8.3862c4.0797 7.9328 9.0661 19.0388 15.1857 34.4512 2.7198 6.7995 6.1196 13.8258 7.4795 15.4123 4.0798 5.2131-1.3599 7.9329-8.8394 4.0798-3.6265-1.8132-17.2256-8.6128-30.3715-14.9591-28.1049-13.8258-28.3316-14.0524-48.957-27.6516-26.065-17.4523-56.4365-45.3305-87.2612-80.2351-6.1197-6.7995-24.9318-33.7712-27.6517-39.4375-.9066-1.8132-3.6264-6.5729-6.1196-10.1994-4.533-7.2529-19.0388-35.8111-24.4785-48.7303-1.8132-4.3064-4.7597-10.8793-6.3463-14.2791-1.8132-3.6265-3.1731-8.6128-3.1731-11.3327 0-2.7198-1.5866-7.0262-3.3998-9.2927-1.8132-2.4932-3.3998-7.4796-3.3998-11.106 0-3.3998-1.1332-8.6128-2.7198-11.3326-1.5866-2.7199-3.3998-11.106-4.3064-18.5856-1.1333-7.4795-2.9465-20.1721-4.0798-28.3315-3.6264-22.212-2.9464-80.4617.9067-101.3138 1.8132-9.7461 3.3997-21.3053 3.3997-25.6117 0-4.5331.9067-9.0662 2.2666-10.4261 1.1332-1.1332 3.1731-6.7996 4.3064-12.2392 1.1332-5.6663 3.3998-13.8258 4.7597-18.1322 11.3326-31.9581 17.9055-45.7839 20.6254-44.1973 1.1332.9066 2.0398 2.4932 2.0398 3.8531zm729.3684 4.533c4.3064 9.2928 7.4795 17.4523 14.0524 35.8112 1.3599 4.3064 3.6265 12.4659 4.7597 18.1322 1.1333 5.4396 3.1732 11.106 4.3064 12.2392 1.3599 1.3599 2.2666 5.893 2.2666 10.4261 0 4.3064 1.5865 15.8656 3.3997 25.6117 3.8531 20.8521 4.5331 79.1018.9067 101.3138-1.1333 8.1594-2.9465 20.852-4.0798 28.3315-.9066 7.4796-2.7198 15.8657-4.3064 18.5856-1.5866 2.7198-2.7198 7.9328-2.7198 11.3326 0 3.6264-1.5866 8.6128-3.3998 11.106-1.8132 2.2665-3.3998 6.5729-3.3998 9.2927 0 2.7199-1.3599 7.7062-3.1731 11.3327-1.5866 3.3998-4.5331 9.9727-6.3463 14.2791-5.4397 12.9192-19.9455 41.4774-24.4785 48.7303-2.4932 3.6265-5.213 8.3862-6.1196 10.1994-2.7199 5.6663-21.532 32.638-27.6517 39.4375-30.8247 34.9046-61.1962 62.7828-87.2612 80.2351-20.6254 13.5992-20.8521 13.8258-48.957 27.6516-13.1459 6.3463-26.745 13.1459-30.3715 14.9591-7.4795 3.8531-12.9192 1.1333-8.8394-4.0798 1.3599-1.5865 4.7597-8.6128 7.4795-15.4123 6.1196-15.4124 11.106-26.5184 15.1857-34.4512 1.5866-3.1732 2.9465-7.0263 2.9465-8.3862s2.9465-8.8394 6.3463-16.5456c3.6264-7.9329 8.3862-18.8122 10.6527-24.4785 2.0399-5.6663 5.4396-13.5992 7.2529-17.4523 4.7597-11.106 9.5194-22.4386 12.9192-30.5981 1.8132-4.0797 4.7597-11.106 6.5729-15.4124 6.1196-14.0524 8.1595-19.0388 13.1458-31.7314 2.7199-6.7995 7.9329-18.8121 11.3327-26.745 3.6264-7.7062 6.5729-14.959 6.5729-16.0923s1.8132-5.4397 3.8531-9.7461c2.0399-4.0797 4.9864-10.1993 6.7996-13.5991 1.5866-3.1732 2.9465-7.0263 2.9465-8.3862s3.1731-9.2927 7.0262-17.6789c11.7859-25.6117 13.3725-29.6915 13.3725-31.958 0-1.3599 1.3599-5.213 3.1731-8.8395 1.8133-3.3998 4.9864-10.1993 6.7996-14.7324 6.1197-13.8258 10.4261-24.0252 13.5992-31.7314 1.8132-4.0797 4.3064-9.9727 5.4397-13.1458 1.3599-3.1732 4.7597-11.3327 7.4795-18.1322 2.7198-6.7996 7.9328-18.8122 11.3326-26.7451 3.6265-7.7061 6.573-14.959 6.573-16.0923s1.3599-4.9864 3.1731-8.6128c3.1731-6.1196 7.2529-15.639 12.2392-27.8783 2.0399-5.213 9.5194-21.9853 14.2792-32.8646 1.1332-2.4932 2.9464-7.2529 4.3064-10.8793 1.1332-3.3998 2.7198-6.1197 3.1731-6.1197.6799 0 2.9465 4.3064 5.4397 9.5194zm-762.6863 263.5971c.4533 4.9864 2.2665 12.6926 3.8531 16.999 6.7996 18.8121 9.7461 26.5183 12.6925 32.8646 6.1197 14.2791 19.4922 41.0241 23.7986 47.5971 2.2665 3.6264 4.9863 8.3861 5.8929 10.1993.68 1.8133 4.3064 7.0263 7.9329 11.5593 3.3998 4.5331 6.3463 9.2928 6.3463 10.6527s.9066 2.7198 2.2665 3.1731c1.1333.2267 6.3463 6.3463 11.3326 13.1459 5.213 6.7996 14.9591 18.3589 21.7587 25.3851 12.4659 12.9192 13.1458 18.5855 1.5866 12.4659-9.0662-4.5331-20.8521-8.6128-31.2781-10.6527-4.9864-.9066-12.0126-2.7198-15.8657-4.0797-3.6264-1.36-17.4523-2.9465-30.5981-3.6265-14.7324-.9066-24.2519-2.4932-25.3851-4.3064-2.0399-3.1731-2.4932-165.0031-.4533-170.4428 2.2665-5.4397 4.7597-1.3599 6.1196 9.0661zm794.8709 75.9287c0 45.5571-.9066 84.0881-1.8132 85.448-1.1332 1.8132-10.6527 3.3998-25.3851 4.3064-13.1458.68-26.745 2.2665-30.5981 3.6265-3.6264 1.3599-10.8793 3.1731-15.8657 4.0797-10.426 2.0399-22.2119 6.1196-31.2781 10.6527-11.5592 6.1196-10.8793.4533 1.5866-12.4659 6.7996-7.0262 16.5457-18.5855 21.7587-25.3851 4.9863-6.7996 10.1993-12.9192 11.3326-13.1459 1.3599-.4533 2.2665-1.8132 2.2665-3.1731s2.9465-6.1196 6.3463-10.6527c3.6265-4.533 7.2529-9.746 7.9329-11.5593.9066-1.8132 3.6264-6.5729 5.8929-10.1993 7.2529-11.3327 23.5719-45.7839 30.1448-63.4628 8.1595-21.532 9.2928-25.3851 10.1994-32.8646 1.5866-12.6926 2.7198-15.1858 5.213-11.3327 1.3599 2.0399 2.2665 38.9843 2.2665 86.1281zm-503.1689-23.7986c0 7.0263-3.6264 9.2928-6.5729 4.0798-1.3599-2.4932-1.3599-5.4397 0-8.1595 2.9465-5.213 6.5729-2.9465 6.5729 4.0797zm-.4533 38.9843c-.68 6.7996-5.213 9.2927-7.0262 4.0797-2.0399-4.7597.4533-10.1993 4.533-10.1993 2.2665 0 2.9465 2.0398 2.4932 6.1196zm39.8909-2.4932c1.8132 4.7597-.2267 7.7062-5.6664 7.7062-2.7198 0-4.3064-1.5866-4.3064-4.0798 0-7.7061 7.4796-10.1993 9.9728-3.6264z" style="stroke-width:.226653"/></svg>