<svg height="960" style="" width="1230" xmlns="http://www.w3.org/2000/svg"><path d="m420.77321 575.80853c-4.98492 12.46228 35.51763 72.90452 58.57291 88.48242 34.27138 22.43222 55.45733 31.77895 79.75885 34.27138l24.30151 1.86943v-65.42721-65.42721l-79.75883-1.86933c-67.91964-1.24621-79.75885 0-82.87444 8.10052zm600.06069-329.00521c-12.4623 42.995-11.216 47.97993 17.4472 85.99001 16.2011 20.56282 31.1559 42.99499 34.8946 49.84927 3.1156 6.85427 8.1005 16.82414 11.216 21.80906 3.1157 4.98493 7.4774 14.33167 9.3468 19.9397 5.608 18.69349 16.201 12.46233 16.201-9.34674 0-19.9397-12.4623-64.18093-28.0402-100.94477-4.3617-10.59298-9.9699-23.05531-11.8392-28.04022-16.201-40.50255-42.995-61.68849-49.2262-39.25631zm-489.14603 9.34674c-2.49246 10.59297-8.72363 21.80906-13.70856 24.30152s-20.56283 9.34674-33.64826 15.5779c-49.84929 23.67841-122.13073 110.91464-122.13073 147.05537 0 4.98492-8.72363 20.56282-19.31659 33.64826-16.82414 21.18591-17.44725 24.92461-9.34674 31.15577 5.60804 3.73869 16.82414 5.60805 25.54775 4.36181 12.46231-2.49246 15.5779-8.1005 19.3166-32.402 4.36181-33.02515 16.20101-61.06536 41.12565-97.82921 16.20102-24.30152 54.21108-58.57289 64.80406-58.57289 2.49246 0 9.34674-4.36182 15.5779-9.96986 6.23116-5.60805 15.57791-8.72363 21.18594-6.85428 13.08543 5.60804 11.83921 28.66333-1.86934 34.27138-41.74878 16.82413-90.97494 71.03522-92.22116 100.94479 0 8.72362-4.98494 23.05529-11.2161 32.40203-6.85428 10.59297-9.96985 25.54772-8.72363 43.61809l1.86935 26.79395 89.10559 1.86933 89.7287 1.86942-3.73869-42.37191c-1.24623-23.05526-3.11559-45.48743-2.49247-48.60302 3.11558-72.28145 4.98493-196.28153 1.86934-206.87449-2.49246-11.21609-7.47738-14.33168-24.92463-14.33168-18.69348 0-21.80907 2.49247-26.79398 19.93972zm3.73869 202.51269c-16.20101 1.24623-44.24124 1.24623-62.3116 0-18.07036-1.24624-4.98492-1.86935 29.28645-1.86935s49.22616.62311 33.02515 1.86935zm464.84454-327.13589c-9.96992 8.10051-21.18598 16.82413-24.92464 20.56282-21.8091 19.93973-114.03028 94.71364-163.25646 132.72371-19.31657 14.33166-36.76381 28.66334-38.63314 31.1558-1.86933 3.11558-26.79396 23.05529-55.45736 44.86435-57.94975 43.61812-75.39699 59.19602-75.39699 67.91963 0 3.11559-3.11559 6.85428-7.47739 8.10052-7.4774 2.49247-23.0553 54.21108-23.67841 77.88946 0 16.20106 20.56282 20.56282 29.28646 6.23115 8.72361-13.70855 54.2111-46.11054 70.41213-49.84923 138.33172-32.40203 174.47242-47.97993 214.35188-92.22116 24.30153-26.794 35.51759-46.11058 60.44224-102.19102 12.46229-29.28646 42.99508-136.46241 42.99508-152.66342 0-9.96985-9.3468-7.47739-28.6634 7.47739zm-342.0907-18.69348c-54.83419 7.47739-61.06537 9.34674-56.08043 17.44725 1.86934 3.73869 32.40202 6.23116 69.16586 6.23116 64.80411 0 65.42723 0 63.55779-14.33167-2.49243-16.20102-13.70848-18.07036-76.64322-9.34674zm-143.31667-106.55282c-40.50254 6.231156-97.20608 22.432175-105.30659 30.532685-3.11559 3.11558-9.96986 6.23115-14.33168 6.23115-4.36181 0-19.93971 7.4774-34.89449 16.82414-14.33167 9.96986-29.28644 18.69348-33.64826 20.56282-27.4171 11.21609-114.0302 99.075435-135.83927 137.708625-52.96485 93.4674-66.6734 139.57798-69.78898 239.27653-2.49247 67.2965-.62311 89.10551 9.34673 128.98497 6.85428 25.54775 15.57791 52.34172 18.69349 58.57291 3.11557 6.85429 11.8392 24.30154 19.3166 39.87945 59.19599 124.00002 171.35686 215.5981 321.52782 264.20124 48.60304 15.5779 203.75896 14.3316 246.13084-2.4925 190.05034-74.77395 298.47256-310.31181 198.77397-431.81943-10.59296-12.46232-23.05532-23.05525-28.0402-23.05525-10.59304 0-10.59304-3.11559 1.24622 38.00999 34.89449 116.52271-39.87945 250.49268-175.09562 314.05046-20.5628 9.96993-47.35676 19.93977-59.19601 22.43222-74.1508 15.5779-91.59804 18.07034-117.76892 18.07034-15.5779 0-38.63318-3.11554-50.47238-6.8543-11.83921-3.73865-35.51761-8.72361-52.34175-10.59294-16.82413-2.49243-31.77891-7.4774-33.02514-11.21606-1.86936-5.60808 21.18593-7.4774 81.62819-6.85429 87.23623.62311 97.20609-1.24622 164.50262-34.89448 27.41714-13.70859 69.78902-47.97997 69.78902-56.08049 0-6.85429-23.67843-4.98486-28.04028 1.86933-2.49244 3.73875-14.3316 10.59305-26.79398 16.20102-148.30158 64.181-328.38209 8.72363-426.2113-131.47742-23.05529-33.02515-61.06535-110.29153-61.06535-123.37698 0-3.73868-4.36181-27.41706-9.96986-51.71858-7.47739-31.1558-9.34674-52.96486-5.60804-74.77392 4.36181-26.17087 5.60804-28.66334 9.96985-14.95479 2.49246 8.72364 4.98493 26.794 4.98493 40.50255.62312 13.70855 4.98493 31.77891 9.96985 40.50254 4.98494 8.72362 8.72363 20.56282 9.34675 26.79398 0 24.30149 41.74875 94.71364 78.51259 132.72366 38.01008 39.87945 52.34175 47.97996 52.34175 30.53273 0-4.98497-2.49247-9.34673-4.98494-9.34673-6.85427 0-45.48747-52.96493-56.70355-77.88958-26.17088-56.08041-31.15579-81.62813-31.77892-150.17087 0-77.26639 12.46232-124.00009 50.4724-185.68856 32.40203-54.83422 117.76891-137.085515 128.98501-125.24632 2.49245 1.86935 0 7.4774-5.60805 11.21609-26.17087 19.93971-99.07544 120.8845-99.07544 137.70863 0 4.98493-4.98492 16.82412-10.59297 27.4171-5.60804 9.96986-8.1005 22.43217-6.23116 28.66335 5.60804 13.70855 16.82413 6.85427 17.44725-10.59299.62311-20.56282 54.83421-90.97493 96.58297-124.62318 49.22617-39.87943 105.92972-66.05031 173.84936-79.758845 66.05028-13.70855 93.46738-14.33167 132.10062-4.36182 28.6633 6.85428 28.6633 6.85428 46.11055-14.33166 25.54775-29.90957 21.8091-42.995-16.20104-53.587976-71.03518-19.31659804-170.73376-24.924635-243.01521-13.708549zm352.06053-24.924638c-25.54775 38.010069-49.22618 73.527683-52.96483 79.135733-3.11565 5.60804-13.70859 20.56282-22.43222 32.40202-8.72362 11.839195-29.90951 41.125645-46.11054 65.427185-132.72373 192.54283-144.56293 214.35188-138.9549 252.36195 1.86936 14.9548 17.44726 25.54776 17.44726 12.46233 0-15.5779 44.24124-56.08044 171.35693-158.89457 51.09552-41.12565 59.81914-48.60305 82.87436-72.90458 27.41708-29.28645 37.38702-47.97992 51.71862-98.452315 13.08548-45.48747 14.95481-90.351807 4.98497-136.462388-11.21606-52.96486-16.82414-51.095515-67.91965 24.924635z" style="stroke-width:.623116"/></svg>