<svg height="960" style="" width="1320" xmlns="http://www.w3.org/2000/svg"><path d="m119.17546 963.53754v-.072a22.409076 22.409076 0 017.01691-16.3142l.01-.011 2.34248-2.3425q84.32386-86.6672 103.0638-103.0635a36.940703 36.940703 0 0113.80066-9.2844l.25315-.084a34.971318 34.971318 0 0118.86531 5.9354l-.12657-.08a17.487292 17.487292 0 019.36879 15.2127v.013a24.701182 24.701182 0 01.56603 5.3272 25.286151 25.286151 0 01-7.58877 18.0931h-.003q-4.68496 2.3424-56.21631 53.8749a194.49183 194.49183 0 01-20.98865 23.337l-.0927.087-25.76623 25.76616a36.863462 36.863462 0 01-9.17192 6.9302l-.19806.096a44.535966 44.535966 0 01-11.75931 1.5433 45.891428 45.891428 0 01-6.042-.3972l.23202.024a17.973553 17.973553 0 01-12.83977-8.1247l-.0435-.071a28.597455 28.597455 0 01-4.68889-15.7678q0-.3323.008-.661v.033zm1079.82684 0c.057.6327.089 1.3687.089 2.1117a25.124441 25.124441 0 01-11.6983 21.24986l-.1034.061a22.297961 22.297961 0 01-25.7954-2.3671l.029.024a27.258713 27.258713 0 00-6.86-4.6146l-.1664-.07-103.0638-103.0638a6.7391681 6.7391681 0 01-2.3413-4.6639l-.001-.021a20.632315 20.632315 0 01-2.2909-24.6835l-.052.089a28.376705 28.376705 0 0120.923-15.2057l.1583-.02h.073a22.409163 22.409163 0 0116.3142 7.0169l.01.01 2.3425 2.3425q4.6849 4.685 44.505 43.3332 39.82 38.6482 58.5587 59.7294a36.941182 36.941182 0 019.2845 13.8007l.084.2531zm-131.1726-163.9651a26.627374 26.627374 0 01-22.1827-15.06509l-.069-.16058a21.837866 21.837866 0 01-2.238-9.70393 22.072333 22.072333 0 015.7678-14.90925l-.016.0173q0-2.34249 4.6849-7.02745l100.7214-100.72135a36.953591 36.953591 0 0113.8006-9.28437l.253-.0843a27.175769 27.175769 0 014.4917-.36327 27.838543 27.838543 0 0118.9509 7.40835l-.019-.0173a21.421402 21.421402 0 012.3483 32.78673l-.011.007q0 2.34249-4.6849 4.68497l-69.0994 69.09939-31.6219 33.96315a110.20666 110.20666 0 01-11.0902 6.7263l-.6211.3012a38.2993 38.2993 0 00-9.6289 2.4339l.259-.091zm-948.65424-131.17115c-.027-.42557-.0422-.92245-.0422-1.42169a24.221627 24.221627 0 0113.94715-21.93902l.14881-.0621a22.297961 22.297961 0 0125.79554 2.36715l-.0292-.0247 4.68498 4.68498q42.16256 44.50509 100.7213 100.72134 4.68383 4.68497 4.68498 7.02746a22.306755 22.306755 0 012.28504 25.87051l.0562-.10311a24.262206 24.262206 0 01-22.00106 14.09593q-.75055 0-1.48939-.045h.068a59.048738 59.048738 0 01-14.25518-7.1563l.20029.1301-107.74891-107.74629a28.751894 28.751894 0 01-7.0181-16.28025l-.009-.116zm0 295.13645v-.072a22.409076 22.409076 0 017.01691-16.3145l.01-.011 105.40632-105.4063a27.25989 27.25989 0 016.85991-4.6146l.16641-.07a27.380149 27.380149 0 007.04621-4.7024l-.0188.017a34.971362 34.971362 0 0118.86534 5.9354l-.12658-.08a17.487379 17.487379 0 019.3688 15.2127v.013a24.701182 24.701182 0 01.56603 5.3272 25.286151 25.286151 0 01-7.58876 18.093h-.003q-4.68496 4.685-56.2163 53.8749-7.02746 7.0275-22.2519 23.4238-15.22443 16.39636-24.59442 25.76606a36.862417 36.862417 0 01-9.17192 6.9303l-.19805.096a24.793184 24.793184 0 01-9.49303 1.8548 25.103672 25.103672 0 01-14.0221-4.2539l.0913.058a23.039239 23.039239 0 01-11.73501-20.05346q0-.5413.0247-1.0758l-.002.05zm1079.82684 0c.057.6328.089 1.3688.089 2.1117a25.124441 25.124441 0 01-11.6983 21.24986l-.1034.061a22.297961 22.297961 0 01-25.7954-2.3671l.029.024a27.258713 27.258713 0 00-6.86-4.6147l-.1664-.07-103.0638-103.064a6.7391681 6.7391681 0 01-2.3413-4.6639l-.001-.021a22.305102 22.305102 0 01-2.2851-25.8694l-.056.1031a18.798518 18.798518 0 018.1149-10.4949l.081-.047a24.31045 24.31045 0 0112.664-3.5143h.2307.061a22.409163 22.409163 0 0116.3143 7.0169l.01.01 2.3424 2.3425 43.3333 42.1625q43.3331 42.1624 59.7295 60.9013a36.941007 36.941007 0 019.2844 13.8007l.084.253zm-131.1726-163.9651a26.627374 26.627374 0 01-22.1827-15.06508l-.069-.16057a21.837866 21.837866 0 01-2.238-9.70394 22.072333 22.072333 0 015.7678-14.90925l-.016.0173q0-2.34248 4.6849-7.02744l100.7214-100.72136a36.953591 36.953591 0 0113.8006-9.28437l.253-.0843a27.175769 27.175769 0 014.4917-.36327 27.838543 27.838543 0 0118.9509 7.40836l-.019-.0173a21.421402 21.421402 0 012.3483 32.78671l-.011.007q0 2.34249-4.6849 4.68498l-55.0458 55.04536-45.6757 48.01817a110.21237 110.21237 0 01-11.0902 6.7263l-.6211.3012zm-948.65424-131.17135c-.027-.42557-.0422-.92245-.0422-1.42169a24.221627 24.221627 0 0113.94715-21.93902l.14881-.0621a22.297961 22.297961 0 0125.79554 2.36715l-.0292-.0247 105.40628 105.40632q4.68383 4.68497 4.68498 7.02746a22.306755 22.306755 0 012.28504 25.87051l.0562-.10311a24.262206 24.262206 0 01-22.00106 14.09593q-.75055 0-1.48939-.045h.068a59.048738 59.048738 0 01-14.25518-7.1563l.20029.1301-107.74891-107.74629a28.751894 28.751894 0 01-7.0181-16.28025l-.009-.116zm838.56423 304.50631h-601.98537c-.77576.039-1.68394.06-2.59799.06a55.972292 55.972292 0 01-41.859-18.74446l-.0479-.055a50.469676 50.469676 0 01-14.1112-35.0763q0-1.2673.0621-2.5182l-.006.1171a19.239583 19.239583 0 00-1.21518-5.988l.0436.1323a18.796471 18.796471 0 01-1.1695-5.8158l-.001-.04 2.34249-1007.21308a118.6383 118.6383 0 0141.97616-79.48769l.18635-.1524a114.41995 114.41995 0 0175.3473-28.12563q1.02833 0 2.05188.0173l-.10311-.001c.3293-.003.71951-.006 1.10973-.006a126.11025 126.11025 0 0175.35817 24.84168l-.34218-.24256a108.90445 108.90445 0 0143.21016 66.05029l.12417.70661a108.62292 108.62292 0 014.68383 30.36921l.001.082v349.01297a44.181763 44.181763 0 019.05122-3.44285l.31876-.0703q4.68379-1.17071 10.54061-2.34248a47.187195 47.187195 0 018.05989-1.1648l.13589-.007q28.10919-7.02745 30.45166-7.02745a141.52593 141.52593 0 0126.08147-2.35655q1.0687 0 2.13392.0152l-.10789-.001a195.84224 195.84224 0 0127.95994-2.34017l.14768-.001q14.05489 0 29.27939 1.17068 15.22449 1.17066 29.27939 3.51311 11.71128 2.34249 28.10867 7.02745a202.2182 202.2182 0 0131.88791 7.42589l-1.43786-.39958v-344.3268c-.004-.40546-.008-.88358-.008-1.36283a133.75111 133.75111 0 0112.0617-55.69363l-.34342.83902a110.90074 110.90074 0 0132.56157-41.98562l.23317-.17694a130.21944 130.21944 0 0147.10562-23.22103l.91282-.20272a107.16644 107.16644 0 0128.71689-3.82604 109.97455 109.97455 0 0124.72448 2.79835l-.73824-.14299a140.51553 140.51553 0 0146.23467 19.07514l-.55897-.33631a105.88957 105.88957 0 0132.53121 33.50034l.2625.46288a133.72249 133.72249 0 0117.41465 43.62378l.1524.88122a43.304942 43.304942 0 012.3424 14.04559v1009.56494a101.24954 101.24954 0 01-2.4725 19.4147l.1301-.6762a58.551679 58.551679 0 01-55.38796 39.82586q-.43772 0-.87299-.011h.0433zm-4.68498-634.77893v-414.59682c.006-.2531.008-.55073.008-.85073a53.107104 53.107104 0 00-8.33171-28.64426l.12889.21561a64.653414 64.653414 0 00-21.9425-20.91602l-.30936-.16523a58.74034 58.74034 0 00-30.10909-8.19814l-.3609.001h-.16407a56.02367 56.02367 0 00-40.78447 17.54249l-.0236.0258a56.041392 56.041392 0 00-17.56811 40.80791v360.9069a388.10802 388.10802 0 01112.27811 81.81846l.1547.16407a61.511829 61.511829 0 007.02487-28.07498v-.0362zm-475.50018-56.21656v-360.72272c.004-.25316.007-.55079.007-.84961a53.111502 53.111502 0 00-8.33171-28.64536l.12887.21562a76.162932 76.162932 0 00-21.96599-22.07612l-.28589-.17696a53.361468 53.361468 0 00-30.34546-9.36993h-.10433a59.92238 59.92238 0 00-42.16236 17.56914l.001-.001a54.455338 54.455338 0 00-18.73876 40.98251v421.63213a58.079613 58.079613 0 007.17983 26.0674l-.15239-.30112a413.46539 413.46539 0 01112.41146-83.24587l2.36239-1.07928zm-25.76505 550.45523c.40545.01.88352.015 1.364.015a58.699456 58.699456 0 0041.96332-17.5773l.007-.01a59.379168 59.379168 0 00.004-84.32149l-.003-.003a62.228857 62.228857 0 00-86.6816.0151l.0152-.0151a59.379256 59.379256 0 00-.004 84.32149h.003a58.703724 58.703724 0 0041.97034 17.5857q.71894 0 1.43196-.018l-.0702.001zm419.28276 0c.16171.001.35268 0 .54369 0a66.860313 66.860313 0 0030.28959-7.2044l-.38317.1758a53.005523 53.005523 0 0022.11719-20.827l.13496-.2543a59.820845 59.820845 0 008.48406-30.88708 60.471385 60.471385 0 00-60.47121-60.47121c-.2508 0-.50155.001-.75239.006h.0374c-.53666-.0188-1.16687-.0292-1.79991-.0292a54.93842 54.93842 0 00-40.33207 17.56334l-.0305.034a62.407678 62.407678 0 00.041 84.36955l-.041-.046a54.96289 54.96289 0 0040.36378 17.5986q.94919 0 1.88897-.032h-.0913z" style="stroke-width:4.35407"/></svg>