<svg height="960" style="" width="1300" xmlns="http://www.w3.org/2000/svg"><path d="m326.49662 737.58949c-.9603 1.9207.3201 7.3625 2.881 12.1641 4.8015 8.6428 4.8015 8.6428 5.4418 1.6005.3201-3.8413.6402-8.6429.9603-10.8836.3201-4.8016-6.4021-7.0424-9.2831-2.881zm-18.2461-.9603c-1.2804.9603-.6402 6.4021.9604 11.8439 1.6005 5.7619 3.201 15.3651 3.201 21.4472.3201 8.6428 1.2804 6.7222 4.4815-9.6032 2.2407-11.5239 3.5212-21.7673 2.5609-23.0477-1.6006-2.8809-8.6429-3.2011-11.2038-.6402zm79.3864-244.5612c-.6402 4.1613-3.2011 15.3651-5.1217 24.9683-4.8016 20.8069-8.3228 128.3626-4.8016 136.6854 1.9206 4.1613 3.5212.6402 6.082-13.4445 3.2011-17.2857 4.4815-19.2064 11.5239-19.2064 6.7222 0 8.3227 1.9207 10.5635 14.4048 3.5211 17.926 8.6428 24.008 8.9629 10.8836 1.2805-28.8096-1.2804-101.4737-4.1613-116.5187-1.9207-9.6032-4.1614-23.3678-5.4418-30.4101-1.6006-9.9233-3.5212-13.1243-8.963-13.7646-5.4418-.6402-7.3625.9604-8.6429 6.4022zm-83.2276-30.4101c-.9604.9603-1.9207 10.8836-1.9207 21.7672s-1.6005 27.5291-3.5212 37.1323c-5.7619 28.1694 4.4815 54.4181 15.3652 40.3334 6.082-7.3624 7.3624-26.2487 2.5608-45.4551-2.5608-10.5635-4.4815-26.5688-4.8016-35.8519 0-15.6852-2.8809-22.4074-7.6825-17.9259zm721.51958 217.6723c.3201 1.6005 2.2408 6.082 4.8016 10.5635l4.4815 8.0026.3201-10.5635c0-7.0423-1.6005-10.2434-4.8016-10.2434-2.5608 0-4.8016.9603-4.8016 2.2408zm-15.3651-2.881c-2.2407 1.6005-2.2407 8.0027.6402 21.4471 4.4815 20.8069 3.8413 21.4472 10.2434-10.8836 1.6006-9.2831-3.8412-14.7249-10.8836-10.5635zm-18.56618-.3201c-4.1613 1.2804-2.2407 32.6508 2.2408 37.4524 3.2011 3.8413 5.1217-1.6005 7.04228-21.127 1.2805-14.7249-1.2804-19.2064-9.28308-16.3254zm-19.8465.6402c-2.5609 1.6005-2.881 7.3625-.9604 18.8863 3.5212 21.7672 5.4418 23.3678 8.3228 6.4021.9603-7.6825 2.881-16.0053 3.5212-18.8863 1.6005-5.7619-5.4418-9.9233-10.8836-6.4021zm-74.2647 1.9207c-5.7619 6.7222 10.5635 15.045 21.127 11.2037 6.7222-2.5609 9.9233-2.5609 13.4445 1.2804 4.1614 4.1614 5.4418 3.8413 10.5635-2.2407 6.082-7.6826 6.082-7.6826 12.164 13.7645 2.5609 10.2434 2.881 10.5635 3.2011 2.5609.3201-4.8016 1.9206-12.4842 4.1614-16.9657 1.9206-4.4814 2.5608-8.9629 1.6005-9.9233-4.1614-4.1613-62.7408-3.8412-66.262.3202zm23.0476-43.8546c-15.6852 6.7222-27.8492 17.6058-24.9683 22.7275 2.881 4.4815 131.88388 4.8016 134.76478.3201 3.8413-6.082-6.4021-15.6852-23.3677-22.0873-22.40748-8.6429-66.26208-8.963-86.42878-.9603zm-53.1376-189.1829c-.9603.9604-1.9206 13.1244-1.9206 26.5689 0 16.3254-1.6006 26.2487-4.8016 30.7302-7.3625 9.6032-6.4022 38.0926 1.9206 46.4154 6.082 6.082 7.0423 6.4021 12.4841 1.2804 8.6429-8.0026 11.2038-28.1693 5.1217-40.3334-3.5211-7.0423-5.1217-18.8862-5.1217-36.8122 0-24.3281-2.2407-32.971-7.6825-27.8493zm-242.6406-463.5139c-16.6455 7.6825-24.3281 15.3651-31.6905 31.3704-7.6826 16.9656-7.6826 30.09 0 45.4551 26.8889 52.1773 100.5134 43.5345 110.4367-13.1244 4.8015-26.2487-8.3228-50.5768-33.9313-63.7011-14.4048-7.3625-29.1297-7.3625-44.8149 0zm36.8122 10.5635c8.6429 2.5608 15.6852 7.6825 21.7673 16.3254 30.7302 42.2541-21.1271 94.1113-63.3811 63.3811-16.3254-11.844-23.3678-32.6509-16.9656-48.9763 5.4418-13.7646 15.3651-24.6482 27.209-29.7699 12.4842-5.4418 15.6852-5.7619 31.3704-.9603zm14.7249-179.2595c-.3201 2.2407 0 16.9656.3201 32.3307.3201 17.9259-.9603 29.7699-3.201 32.6508-4.1614 5.1217-29.1297 6.4022-47.3758 2.881l-9.9233-1.9206-.9603-32.6509c-.6402-17.6058-2.2407-32.3307-3.8413-32.3307-1.2804 0-5.7619 5.7619-9.6032 12.8042-3.5211 7.0424-7.3624 13.4445-8.6428 14.4048-2.881 2.881-15.6852 28.8096-15.6852 32.6509 0 1.9206-2.2408 5.1217-5.4418 7.3624-2.881 2.2407-5.1217 8.0027-4.8016 14.0847 0 5.441796-1.9207 14.084696-4.4815 18.8863-2.2408 4.8015-4.4815 12.164-4.4815 16.6455s-2.2408 13.7646-4.8016 20.8069c-2.5609 7.0423-4.4815 20.8069-4.8016 30.7302 0 25.2884-2.881 27.5291-52.8176 40.9736-8.9629 2.2408-27.5291 10.2434-61.4604 26.2487-7.6825 3.5212-14.4048 7.6826-15.3651 9.6032-1.2804 1.6005-4.1614 2.881-6.7222 2.881-4.8016 0-24.3281 12.4841-26.2487 16.6455-.6402 1.6005-2.5609 2.5609-4.1614 2.5609-6.4021 0-52.8175 38.4127-76.8255 63.0609-22.4075 22.7275-59.5398 69.143-64.6615 80.9869-1.2804 2.5609-5.1217 8.963-8.6429 14.4048-3.5211 5.1217-7.0423 11.8439-8.3227 14.4048-.9604 2.5608-3.2011 7.0423-4.8016 9.6032-1.6006 2.5608-3.8413 7.0423-4.8016 9.6032-.9603 2.5608-3.8413 8.6428-6.4022 13.4444-2.5608 4.4815-4.4814 10.8836-4.4814 14.4048 0 3.2011-2.2408 8.6429-4.8016 11.8439-2.5609 3.5212-4.8016 8.6429-4.8016 11.844 0 2.8809-2.2408 9.6032-4.8016 14.4048-2.5609 5.1217-4.8016 13.4444-4.8016 18.246 0 5.1217-1.6006 12.1641-3.8413 16.0053-1.9206 3.8413-4.8016 18.8863-5.7619 33.6112-2.5609 31.6905-6.7222 38.4128-34.5715 56.6588-10.8836 7.0424-19.5265 14.0847-19.8466 16.0053 0 1.6006 9.6032 9.6032 21.4471 17.6059 24.9683 16.6455 30.09 24.9683 32.0107 54.0979.9603 11.5239 3.5211 27.5292 5.7619 35.5319 2.2407 8.0026 6.7222 23.0476 9.6032 33.6111 2.8809 10.5635 7.3624 23.3678 9.9233 28.1694 2.5608 5.1217 4.4815 10.5635 4.4815 12.164 0 4.8016 23.0476 52.4974 25.9286 53.4578 1.6005.6402 2.8809 2.8809 2.8809 4.8016 0 3.8412 20.4868 35.2117 27.8493 43.2143 2.2407 2.2408 4.1614 5.1217 4.1614 6.4021 0 1.2805 3.201 6.0821 7.3624 10.5636 3.8413 4.4814 14.4048 16.6455 23.0477 26.8889 16.0053 18.24601 72.344 67.86251 81.6271 71.38371 2.5608.9603 9.2831 5.1217 14.4048 8.963 12.164 8.9629 62.7408 35.5318 80.0265 41.6138 38.4128 14.0847 83.8679 26.8889 94.1113 26.8889 13.1244 0 46.0953 7.0424 50.8969 10.5635 2.2408 1.9207 10.2434 12.4842 17.6059 23.6879 7.0423 10.8836 14.7248 20.1667 16.6455 20.1667 1.6005 0 8.6429-9.6032 15.6852-21.127 6.7222-11.2037 15.045-22.0874 17.9259-23.6879 3.2011-1.6005 16.3255-4.8016 29.4498-6.7222 38.7329-5.7619 82.9076-16.9657 107.5558-27.2091 35.2117-14.7248 55.6985-24.6481 69.463-33.291 5.4418-3.5212 11.844-7.3625 14.4048-8.6429 19.2064-8.963 65.9419-47.3757 96.35198-79.70651 40.0133-41.6138 80.3467-106.9155 99.8732-159.733 10.8836-29.7699 12.8042-35.8519 15.045-48.016 1.2804-7.0423 4.1614-17.9259 6.082-24.0079 1.9206-6.0821 3.5212-17.6059 3.5212-25.6085 0-29.1297 4.4815-36.8123 30.4101-53.4578 20.8069-13.4445 29.7699-23.3678 21.127-23.3678-5.1217 0-41.9339-25.9286-46.7355-32.9709-2.881-4.4815-4.8016-14.7249-4.8016-27.8493-.3201-11.5238-2.2408-26.5688-4.8016-33.6111-2.5609-7.0424-4.8016-16.3255-4.8016-20.8069 0-4.4815-2.2408-12.1641-4.8016-17.2858-2.5609-4.8016-4.8016-11.8439-4.8016-15.3651s-1.9206-10.2434-4.1614-14.7249c-7.6825-15.045-14.4048-30.7302-16.6455-38.4127-.9603-3.8413-3.5212-7.0424-5.1217-7.0424s-2.881-2.5608-2.881-6.082c0-3.2011-2.2407-7.6825-4.8016-9.9233-2.5608-2.2407-4.8016-5.7619-4.8016-8.0027 0-1.9206-4.1613-9.9232-9.6031-16.9656-5.1218-7.3624-9.6032-14.4048-9.6032-15.3651 0-1.9206-14.7249-21.7672-28.8096-38.0926-20.16668-23.6879-58.57948-60.18-85.14828-80.9869-7.3624-5.762-14.4048-10.2434-16.0053-10.2434-1.2804 0-4.8016-2.2408-7.6826-4.8016-8.0026-7.3625-42.5741-25.6085-72.0239-38.4128-28.4894-12.164-34.2514-14.4048-38.0926-14.4048-2.5609 0-8.6429-2.2407-13.4445-4.8016-5.1217-2.5608-13.7646-4.8016-19.2064-4.8016s-11.8439-1.9206-13.7646-4.4815c-3.8412-4.4815-8.6428-24.6482-12.8042-55.0583-1.6005-10.8836-4.1614-22.4074-6.082-25.9286-1.9207-3.5211-4.4815-13.7645-5.7619-23.047604-1.2805-9.283096-5.4418-21.767196-9.6032-27.849296-4.1614-6.082-7.6826-12.4841-7.6826-14.0846 0-4.8016-9.9233-22.0874-22.0873-39.3731-11.844-16.3254-12.8043-17.2858-13.4445-11.2037zm-3.201 77.4657c2.5608 2.8809 3.5211 14.084696 3.201 28.8096-.3201 13.4444 0 24.9682.6402 25.2884.6402.6402 6.7223 3.5211 13.1244 7.0423 15.6852 8.0026 37.1323 32.0106 43.2143 48.0159 8.0027 20.4868 8.6429 44.1747 1.9207 63.3811-3.2011 8.963-7.0424 18.5662-8.963 21.127-8.6429 12.1641-32.0106 33.2911-40.0133 35.8519l-8.963 3.2011-2.2407 241.6803c-1.2804 132.8441-1.6005 248.4025-.3201 257.0453 3.5212 26.2488-3.8413 33.9313-15.6852 16.3255-8.3228-12.4842-14.0847-12.1641-27.2091 1.6005-5.7619 6.082-11.8439 10.2434-13.4444 9.2831-1.2805-.9603-2.5609-119.3997-2.5609-263.7676v-261.847l-13.1243-6.7222c-14.7249-7.6826-25.6085-18.5662-37.4525-37.1324-7.3624-11.5238-8.3227-16.0053-8.3227-43.2143-.3202-40.6535 8.6428-57.9393 40.6535-80.0266l16.6455-11.5238.9603-27.5292c.9603-31.6905-.6402-30.09 34.5715-31.0503 13.4445-.3201 20.8069.9603 23.3678 4.1614zm115.5583 138.606c9.6032 2.881 22.4075 7.0424 27.8493 9.6032 40.0133 16.9656 57.6191 25.2884 69.7832 33.2911 5.4418 3.201 11.8439 7.0423 14.4048 8.3227 12.164 5.4418 58.5794 43.2144 81.9472 66.5822 23.04758 22.7275 60.50008 68.8228 66.26198 81.6271 1.2804 2.5608 5.1217 8.9629 8.3227 14.4047 3.5212 5.1218 11.5239 20.4869 17.926 33.6112 6.4021 13.1244 13.4445 28.1694 16.0053 32.971 2.5609 5.1217 4.8016 12.4841 4.8016 16.3254s2.2408 9.9233 4.8016 13.4445c2.5609 3.201 4.8016 9.9232 4.8016 14.7248s1.9206 14.4048 4.4815 20.807c6.4021 17.2857 9.9233 53.1376 9.9233 104.9948 0 54.098-2.881 82.5875-11.8439 111.397-8.3228 26.889-12.1641 23.3678-12.1641-12.164 0-23.0477-1.2804-34.5715-8.963-79.7065-1.2804-7.0423-4.1613-13.1243-6.4021-14.0847-6.082-1.9206-13.4445 19.2064-13.4445 38.4128 0 9.2831-1.6005 25.6085-3.5211 36.172-1.9207 10.5635-3.8413 49.6165-4.4815 86.7488-.9603 62.1007-1.6005 68.5028-8.0027 81.307-6.7222 13.1244-7.3624 13.7646-11.5238 8.0027-2.5609-3.2011-4.4815-7.0423-4.4815-8.6429 0-1.2804-31.6905-2.5608-70.42338-2.5608-54.098 0-70.4234.9603-70.7435 3.8412-.3201 2.2408 0 8.0027.3201 12.8043.6402 10.8836-5.1217 14.0847-13.1243 7.0423-5.7619-5.1217-6.0821-10.5635-6.0821-89.6297 0-46.0953-.9603-86.1086-1.9206-88.9896-5.4418-14.4048-7.6825 5.4418-7.6825 70.1033 0 85.1483-3.2011 91.8705-22.4075 49.6165-3.8413-8.0027-8.963-18.5662-11.2037-23.3678-2.5609-5.1217-4.8016-10.5635-4.8016-12.4841 0-1.6006-4.1614-12.8043-9.6032-24.9683-6.4021-14.4048-9.6032-27.2091-9.6032-37.4525 0-8.3227-1.9206-26.8889-4.4815-40.9736-8.6428-46.4154-14.7249-92.5107-14.7249-108.8361 0-8.963-2.2407-30.4101-4.8016-48.016-2.5608-17.6058-4.8016-42.8942-5.1217-56.0186 0-13.1243-1.6005-32.6508-2.8809-43.2143-1.6005-10.5635-4.4815-40.9736-6.082-67.2224-1.9207-26.5688-4.8016-55.6985-6.7223-65.3017-1.6005-9.6031-3.201-25.9286-3.201-36.8122 0-10.5635-2.2408-36.172-5.1217-56.6588-3.2011-20.8069-4.4815-39.6932-3.5212-42.5741 2.2407-5.762 7.0423-5.4419 37.4524 3.5211zm-249.0427 29.7699c-.6402 18.5662-3.201 46.4154-5.7619 62.4207-2.5609 15.6853-4.4815 39.053-4.4815 51.5372 0 12.4841-1.6005 30.7302-3.2011 40.6535-1.9206 9.9233-4.8015 37.7725-6.4021 62.1006-6.4021 101.7938-23.0476 254.4845-32.6508 296.7386-1.9207 8.6428-2.5609 26.8889-1.6006 41.6138 1.6006 19.8466 1.2805 24.008-1.2804 16.9656-1.9206-4.8016-4.4815-8.6429-6.082-8.6429-3.2011 0-6.4021 8.3228-6.4021 17.2858 0 3.8413-1.2805 8.3228-2.5609 10.2434-1.2804 1.6005-6.082 11.5238-10.2434 22.0873-11.2037 28.1694-27.8492 54.4181-36.8122 58.5795-5.4418 2.5608-8.0027 6.4021-8.0027 11.8439 0 5.1217-1.9206 8.0027-4.8016 8.0027-4.1613 0-4.8016-6.4021-4.8016-39.6932 0-22.0873-1.2804-40.6535-2.5608-41.6138-1.6005-.9603-5.7619-.6402-9.6032.3201-6.7222 1.6005-7.0423 2.8809-7.0423 54.4181 0 49.6164-.3201 53.4577-7.0424 62.4207-8.6428 11.2037-32.9709 34.89161-36.8122 35.53181-1.2804.3201-3.2011-5.7619-4.1614-13.76461l-1.6005-14.4048-17.6059-.9603c-24.328-1.2804-26.2487-1.9206-22.7275-11.2037 1.6005-4.1614 3.5212-16.3254 3.8413-26.5688.9603-16.6456.3201-18.8863-5.1217-18.8863-5.1217 0-5.762 2.2407-5.1217 21.4471.6402 18.2461 0 21.7672-4.4815 21.7672s-5.1217-3.5211-4.4815-21.7672c.6402-19.2064.3201-21.4471-5.4418-21.4471-4.1614 0-6.082 2.2407-6.082 7.6825 0 4.1614-1.9207 8.3228-4.4815 9.2831-3.2011.9603-4.1614-.6402-2.881-7.0423 1.2804-6.082 0-9.2831-4.1614-11.8439-13.4444-7.0424-4.8016-9.2831 35.5318-9.2831h41.6139v-11.844c0-8.9629-2.5609-14.4047-10.2435-22.7275l-10.5635-10.5635-.6402-47.0557c-.6402-39.0529-1.6005-47.3757-5.4418-48.0159-4.1614-.9603-5.1217 5.7619-5.7619 44.8149l-.9603 45.7752-9.6032-.6402c-30.09-2.2408-36.172-2.2408-46.4154-.3201-19.5265 4.1614-20.4868 2.2407-22.7276-56.0186-1.9206-51.217-6.082-70.7435-13.1243-63.7012-1.6006 1.6005-4.1614 15.6852-5.1217 31.3704-1.2805 16.9657-3.5212 27.8493-5.4418 27.2091-4.1614-1.9207-10.8837-25.2884-14.0847-48.3361-9.9233-68.8229-10.8836-83.8678-6.7222-118.1192 7.0423-60.5001 8.6428-69.143 12.164-78.106 2.2407-5.1217 3.8413-12.8042 3.8413-17.6058s2.2407-11.5238 4.8016-14.7249c2.5608-3.5212 4.8016-9.2831 4.8016-12.8043 0-3.8412 2.2407-9.6032 4.8016-12.8042 2.5608-3.5212 4.8015-9.6032 4.8015-13.4445s2.2408-8.6429 4.8016-10.8836c2.5609-2.2407 4.8016-6.4021 4.8016-9.6032 0-3.201 2.2408-7.3624 4.8016-9.6032 2.5609-2.2407 4.8016-6.7222 4.8016-9.9233 0-3.5211 1.2805-6.082 2.881-6.082s4.1614-3.2011 5.4418-7.3624c1.2804-3.8413 6.4021-12.1641 11.2037-18.5662 5.1217-6.4021 9.2831-12.8043 9.2831-13.7646 0-1.2804 1.2804-3.8413 3.2011-6.082 1.6005-2.2407 9.9233-12.164 18.246-22.7275 30.7302-38.0927 85.7885-85.4684 125.8018-108.5161 20.4868-11.8439 60.5001-31.0503 64.3414-31.0503 1.9206 0 7.3624-1.9206 11.8439-4.4815 16.0053-8.0027 37.4525-14.4048 47.0556-13.7646l9.6032.6402zm548.02198 575.2311c1.6006 12.8042.3202 18.5661-7.3624 34.5715-7.3624 14.4047-9.9233 17.6058-11.8439 13.4444-3.5212-9.2831 0-52.1773 4.8016-57.9392 7.6825-9.2831 12.4841-5.7619 14.4047 9.9233zm-283.93428 27.209c-.6402 5.7619-1.2804 1.9207-1.2804-8.6429 0-10.5635.6402-15.3651 1.2804-10.5635s.6402 13.4445 0 19.2064zm-198.4659 30.4101c-.9603 5.1217-3.2011 15.3651-5.1217 23.3678-9.6032 43.8545-13.7646 86.1086-11.8439 124.84141 3.201 59.8599 3.201 73.9446.3201 88.9896-2.2408 12.8043-6.4021 19.2064-9.9233 15.6852s-.9603-182.14051 3.201-217.99241c4.4815-38.4128 6.7223-43.5345 19.2064-43.5345 4.8016 0 5.4418 1.6006 4.1614 8.6429zm98.9129-4.1614c5.4418 4.1614 6.4021 10.2434 8.3227 74.5848.9603 38.4128 3.5212 94.11131 5.7619 123.88121 3.8413 56.3387 2.5609 64.9815-8.0026 56.3387-4.1614-3.5212-4.8016-8.3228-3.2011-23.6879 4.4815-46.0953 5.1217-69.7832 1.9207-73.3043-1.6006-2.2408-4.8016-27.2091-6.4022-55.05831-1.9206-28.1694-4.8016-56.3387-6.4021-62.4208-1.6005-6.082-3.8413-18.8862-5.1217-28.1693-2.2407-18.2461.6402-21.127 13.1244-12.1641zm-137.9659 21.4472c1.2805 1.9206-.3201 9.9233-3.201 17.9259-3.2011 8.0027-4.4815 15.3651-2.881 16.6455 3.2011 2.2408.9603 145.96851-2.2407 149.16961-1.2805.9603-.9603 7.0423.6402 13.4445 1.6005 7.3624 1.2804 14.0846-.9603 17.9259-2.881 5.7619-3.8413 5.4418-15.045-5.4418-16.0053-15.6852-31.0503-46.4154-36.8123-75.5451-4.1613-21.4471-4.4814-26.5688 0-48.01591 2.5609-13.1244 7.3625-29.1297 10.2434-35.2117 11.844-24.3281 37.1324-54.4181 46.0954-54.4181 1.2804 0 3.201 1.6005 4.1613 3.5212zm182.7808 8.3227c27.5291 29.4498 37.4524 54.4181 38.7328 97.95261.9603 27.5291.3201 37.7725-4.1614 49.6164-12.8042 32.971-37.7725 66.9023-47.3757 63.7012-5.4418-1.9206-6.082-11.8439-1.6005-20.1667 2.8809-5.7619 2.8809-8.6429 0-12.164-2.5609-3.2011-3.5212-27.5292-3.5212-87.06901.3201-45.7752-.6402-85.4683-1.6005-88.6694-2.881-6.4021 0-15.045 4.8016-15.045 1.9206 0 8.6428 5.4418 14.7249 11.8439zm-86.4288 18.5662c6.0821 6.4021 10.8837 14.0847 10.8837 17.2857 0 3.2011 2.2407 7.6826 4.8016 9.9233 2.8809 2.2408 4.8015 9.2831 4.8015 16.6456 0 6.7222 2.2408 15.6852 5.1217 20.1667 5.762 8.6428 5.1218 33.93121-.9603 36.17201-3.201.9603-4.1614-4.1614-4.1614-18.5662 0-13.12441-1.6005-21.12701-4.8015-24.32811-2.5609-2.8809-4.8016-9.6032-4.8016-15.3651 0-6.082-2.2408-12.4841-4.8016-14.7249-2.5609-2.2407-4.8016-6.4021-4.8016-9.2831 0-2.8809-3.8413-8.6428-8.3228-13.1243l-8.3228-7.6826-10.8836 12.4842c-6.082 7.0423-10.8836 16.0053-10.8836 19.5265 0 3.8412-2.2407 8.6428-4.8016 10.8836-2.8809 2.2407-4.8016 9.2831-4.8016 16.0053 0 14.0847-2.5608 22.40741-6.7222 22.40741-5.1217 0-3.2011-31.05031 1.9206-36.49211 2.5609-2.5608 4.8016-9.2831 4.8016-14.7249 0-5.7619 1.9207-10.5635 4.8016-11.5238 2.5609-1.2804 4.8016-4.1614 4.8016-7.0423 0-5.762 15.3651-19.5265 21.7672-19.8466 2.5609 0 9.2831 5.1217 15.3651 11.2037zm-5.7619 80.66681c.6402 2.8809-2.2407 4.1614-8.6428 4.1614-13.7646 0-21.7673 9.2831-22.0874 24.9683-.3201 16.9656 4.4815 22.4074 21.7673 23.6878 12.8042.9603 14.4047.3201 15.3651-6.4021.6402-3.8413 3.201-7.0423 5.7619-7.0423 2.2407 0 5.1217-3.5212 6.4021-8.0027 4.4815-18.2461 6.082-5.1217 5.1217 43.8546-1.2804 56.6588-3.8413 65.6218-16.6455 57.9392-3.2011-2.2407-6.7223-2.8809-7.6826-1.2804s-10.2434 2.5608-20.1667 2.2407l-18.5661-.6402-.9604-58.2593c-.6402-54.7382-.3201-58.5795 5.7619-64.6615 3.5212-3.5212 7.6826-6.4021 9.2831-6.4021 1.6006 0 3.8413-2.2408 4.8016-5.1217 2.2408-5.7619 18.2461-5.1217 20.4868.9603zm-50.8969 19.2064c0 8.6428-1.2804 18.246-2.5608 21.7672-2.2408 5.4418-2.881 5.1217-5.1217-4.1614-2.5609-12.4841.3201-32.6508 4.8016-32.6508 1.9206 0 3.201 6.7222 2.8809 15.045zm65.9419-8.6429c0 2.2407-1.9206 4.8016-3.8412 5.4418-2.5609.9603-4.1614-1.2804-4.1614-5.4418s1.6005-6.4021 4.1614-5.7619c1.9206.9603 3.8412 3.5212 3.8412 5.7619zm-11.8439 7.0423c6.7222 6.7223 4.4815 20.4868-3.8413 24.3281-16.0053 7.0424-26.8889-2.5608-22.4074-19.8466 1.6005-6.7222 3.8412-8.3227 12.164-8.3227 5.7619 0 11.8439 1.6005 14.0847 3.8412zm42.254 34.2514c0 10.5635-1.2804 20.1667-3.201 21.127-1.9207 1.2805-3.2011-5.7619-3.2011-18.8862 0-11.844 1.2804-21.1271 3.2011-21.1271 1.9206 0 3.201 8.3228 3.201 18.8863z" style="stroke-width:.320106"/></svg>