<svg height="960" style="" width="1845" xmlns="http://www.w3.org/2000/svg"><path d="m545.8795 900.47726c-63.37849 23.18799-74.26929 46.535-29.58243 58.50873 33.15478 8.88385 116.56287-42.92742 103.89975-64.86059-6.33156-10.96656-34.59629-9.27002-74.31732 6.35186zm127.46312-475.69883c-6.92479 2.77955-17.42937 24.68496-23.22316 46.30764-13.13256 49.01139-35.73472 58.40526-52.51538 23.00872-18.50493-40.49353-40.15535-23.11964-58.30917 44.63141-30.51389 113.87943-150.42927 226.97891-243.87248 229.751-20.28468.74478-45.87337 15.51839-58.1022 32.32681-12.22883 16.80838-29.4512 29.18876-38.10027 26.87124-7.20754-1.93124-18.66389 11.9941-23.68518 30.73375-5.02127 18.73966-21.29187 39.10008-35.52774 46.10068-19.33289 8.72485-24.91968 18.04295-16.4776 32.66502 7.38682 12.79439 17.86365 14.0566 32.48578 5.61448 12.79434-7.38684 32.02373-9.95936 44.99734-6.48307s39.51407-3.3173 58.17795-15.31152c18.66388-11.99406 35.78279-18.22212 38.94855-12.73883 9.88359 15.0084 52.69465-12.14564 59.26095-36.65134 8.49752-31.71325 125.75716-94.5391 203.061-106.27074 33.74801-4.86232 82.9664-4.03435 110.35512 3.30442 25.9472 6.95254 60.26074 11.51179 74.77938 9.22203 23.55393-1.41379 24.71266-5.73834.62095-36.91379l-28.02999-33.77575 45.94909 1.49697c108.52736 4.35971 110.84487-4.28936 33.16219-77.63463-39.56205-36.86577-63.93652-72.75203-70.52313-111.59709-10.88338-63.17148-35.15435-105.21004-53.43201-94.65745zm857.00458-73.18773c-146.0417 95.28385-161.2571 117.47202-89.6436 121.21073 64.0199 3.24901 124.4118-14.55917 141.5585-43.95493 7.8007-11.81489 28.8856-38.61034 46.2115-57.143 33.5964-38.8931 53.2676-89.24248 34.5279-94.26377-7.2073-1.93127-65.696 31.83708-132.6543 74.15097zm-378.4816-311.534926c-13.1806 8.828328-34.624 13.89763-49.0393 10.035127-14.4149-3.862542-35.8584 1.206783-49.039 10.035121-13.1805 8.828328-28.858 15.442612-36.0655 13.511362-20.18109-5.407517-83.38049 28.643546-88.78789 48.824726-9.6563 36.03778 60.233 34.67943 131.41219-.32335 39.4383-20.3327 88.6844-42.67244 109.0727-49.569499 21.8296-6.510826 36.169-19.663685 33.7757-28.029985-6.5108-21.829675-24.5815-23.581683-51.3289-4.483212zm360.254 39.364522c-109.3552 44.858694-222.3661 91.827894-249.3963 106.215294-28.4717 14.00115-80.3181 40.27912-116.1009 58.50131-36.838 16.3944-79.8283 32.6853-96.8437 32.76108-38.7414.43428-202.28848 103.38774-224.24939 139.21851-8.5733 14.6979-11.4083 54.10843-6.54597 87.85647 6.76583 49.70811 14.53892 61.06096 52.01822 71.1035 51.89445 13.90507 91.12565 5.87697 187.40394-36.3057 43.7628-19.17391 80.8079-47.87293 91.3125-69.77836 10.5045-21.90541 45.8252-55.70148 77.6696-76.52391 31.8446-20.82245 138.1653-100.48439 235.7336-176.3116 97.5682-75.82715 186.6664-143.108759 197.2469-147.998798 30.2995-15.056392 74.5797-64.9918508 63.0477-68.08182979-7.2076-1.93129971-101.5548 33.04383279-211.2962 79.34403379z" style="stroke-width:1.49236"/></svg>