<svg height="960" style="" width="1456" xmlns="http://www.w3.org/2000/svg"><path d="m516.22422 876.81089c-11.679 4.0623-7.6168 25.897 5.0778 29.4515 6.0934 2.03109 18.2802 6.0934 26.4047 9.6478 86.3232 38.08379 216.3157 43.66939 317.3645 14.72579 57.8873-16.7569 81.2454-27.9281 81.2454-40.1149 0-6.0934-3.0467-12.1868-7.109-13.7102-8.1245-3.0467-30.467 2.0312-46.7161 10.66351-17.7724 9.1401-64.9962 20.3113-115.2668 26.91249-39.0993 5.0778-59.4106 5.0778-99.0177 0-49.7627-6.0934-94.4477-16.7569-117.8057-28.4359-16.7568-8.12449-36.5604-12.18679-44.1771-9.14009zm557.54588-254.3994c-6.0934 9.6479-10.6634 20.8191-10.6634 24.3736 0 4.0623-3.5545 9.64789-7.6168 13.20239-4.0622 3.5545-7.6167 8.6323-7.6167 11.1712 0 8.6323-22.8502 37.0682-58.39508 73.1208-41.6382 41.6382-58.9028 53.825-112.7278 80.2298-19.8036 9.1401-26.9126 15.7412-26.9126 22.85021 0 6.09339 3.5545 10.66339 7.6168 10.66339 7.109 0 41.6382-15.7412 86.3231-39.0993 19.8036-10.6634 110.18898-101.0488 120.85238-120.8524 26.9126-51.2861 39.6071-83.7842 36.0527-89.8776-5.5857-9.1401-16.7569-3.0467-26.9126 14.21791zm-718.51318-14.2179c-5.0778 8.12449 15.7413 55.85619 43.1616 97.4944 19.8035 30.467 90.8932 100.54109 114.2512 113.2356 39.6071 21.3269 78.7064 39.0993 85.8154 39.0993 4.0622 0 7.6167-4.57 7.6167-10.6634 0-7.109-7.109-13.7101-26.4047-22.8502-55.3484-26.9126-82.7687-46.2083-118.3135-83.7843-35.0371-36.5604-43.1616-48.7472-69.0585-98.5099-16.7569-33.0059-29.9592-45.1927-37.0682-34.0215zm923.14988-356.97161c-2.0312 5.0778 0 27.92811 4.57 50.27051 9.6479 45.1928 12.1868 182.80199 4.0623 188.3876-3.0467 1.5234-8.6323-2.5389-13.2024-8.6323-22.3424-31.4826-75.6597-102.5722-83.2764-110.18901-4.5701-5.0778-19.2958-20.81909-32.4981-35.037-13.2024-14.7257-26.4048-26.4047-28.9437-26.4047-7.109 0-6.0934 12.1868 2.0311 28.9436 25.3892 51.28611 38.0838 150.3039 28.9437 232.05691-6.0934 57.8873-16.2491 104.60339-28.9437 134.05479-4.0622 9.1401-7.1089 18.788-7.1089 21.3269 0 5.0778-31.4826 71.59741-42.146 88.8621-46.2083 75.6597-135.57808 162.9984-204.63668 199.55882-6.6011 3.5545-12.1868 8.6323-12.1868 11.679 0 2.5389-5.5856 4.5701-12.1868 4.5701-7.1089 0-14.2179 2.5389-15.7412 5.0778-5.0779 8.1245 13.2023 12.6946 22.3424 6.0934 4.5701-3.5545 11.679-7.6168 15.7413-9.1401 45.7005-17.7724 103.08-58.90292 157.41278-113.23572 50.2705-50.2705 56.8717-57.8873 85.3076-98.00209 17.2646-25.38921 67.0274-121.36021 67.0274-130.5003 0-3.0467 3.0467-12.6946 7.1089-21.8347 12.1868-29.95921 23.3581-67.0274 23.3581-80.22981 0-7.1089 2.0311-15.74119 4.57-19.8035 9.6479-14.7257 34.0215 53.3172 50.2705 138.117 5.0779 27.4203 11.1713 49.7628 13.7102 49.7628 7.109 0 27.4203-61.9496 41.1304-124.9147 4.0623-19.8035 9.1401-72.1052 10.6635-117.2979 3.0467-96.9866-6.0934-152.335-40.6227-246.7826-8.6323-24.3736-12.6946-27.9281-16.7568-16.7569zm-570.74838-55.3484c-7.1089 1.5234-28.9436 6.0934-48.7471 10.1557-33.006 7.109-38.0838 7.109-55.8562-.5078-16.7568-7.1089-22.8502-7.1089-40.1149-2.0311-45.1927 14.2179-84.292 49.7627-109.1734 98.0021-17.2646 34.0215-18.7879 44.685-7.6167 53.8251 4.0623 3.5544 7.6167 13.7101 7.6167 22.8502s-3.5544 26.4047-7.6167 38.08381c-5.0778 13.7101-7.6168 40.62259-7.6168 74.6441 0 35.037 2.539 58.39509 7.6168 71.0896 9.6479 22.34249 9.6479 36.5604 0 49.255-14.2179 19.2958-5.5856 51.2861 25.3892 91.9088 21.3268 27.928 36.5603 41.1304 65.504 56.3639 30.467 15.7413 54.8406 17.7724 69.0585 4.5701 9.6479-9.14011 10.6635-9.14011 31.4826.5077 31.4825 14.218 149.2882 14.218 180.7708 0 20.8191-9.6478 21.8347-9.6478 31.4825-.5077 14.218 13.20229 38.5916 11.1712 69.0586-4.5701 28.9436-15.2335 44.1771-28.4359 65.504-56.3639 30.97478-40.6227 39.60708-72.613 25.38918-91.9088-9.1401-12.1868-9.1401-24.8814 0-50.2705 9.6478-27.92811 10.1556-116.28241 0-144.7182-4.0623-11.67911-7.6168-28.94371-7.6168-38.0838 0-9.1401 3.5545-19.2958 7.6168-22.8502 11.1712-9.14011 9.6478-19.8036-7.6168-53.8251-24.37358-47.73161-62.45728-82.2608-108.15778-97.49431-16.2491-6.0934-22.3425-5.5856-41.1305 1.52331-20.3113 7.6168-24.8813 7.6168-52.8094.5078-35.5448-9.1401-74.6441-13.2024-92.4166-10.15571zm91.9088 223.9324 19.8036 21.3269v47.7317 47.2238l-20.3114 19.8035-20.8191 20.3114h-50.2705-50.2706l-20.8191-20.3114-20.3113-19.8035v-47.2238c0-45.7005.5078-47.2239 16.2491-65.5041 21.8346-24.8814 29.9592-27.4203 81.7531-25.8969l44.6849 1.0155zm52.3017-305.6855c-4.5701 11.1713 2.0311 17.7725 27.9281 29.4515 81.2453 35.5448 153.85828 108.6656 188.38748 189.9109 7.6168 18.2802 14.218 26.9125 20.8191 26.9125 16.7569 0 15.7413-10.1557-5.0778-52.3017-39.6071-78.7064-102.57218-141.6715-181.27858-181.2786-46.2083-22.8502-47.2238-23.358-50.7783-12.6946zm-299.0843 12.6946c-78.7064 39.6071-141.6716 103.08-180.7709 181.2786-20.8191 42.146-21.8346 52.3017-5.0778 52.3017 6.6012 0 13.2024-8.6323 20.8191-26.9125 35.0371-80.7375 93.4321-142.1793 178.2319-185.34089 26.9125-13.2023 37.576-21.3269 37.576-28.4358 0-15.7413-7.6168-14.21801-50.7783 7.10889zm99.0177-104.095475c-65.504 10.6634-136.0859 34.529195-144.7182 48.239395-2.0312 3.0467-.5078 9.14008 3.0467 13.20228 7.1089 9.1401 27.4203 7.109 52.8094-5.0778 42.146-19.80348 80.2298-25.89688 165.0296-25.89688s122.8835 6.0934 165.0295 25.89688c25.3892 12.1868 45.7005 14.2179 52.8095 5.0778 9.1401-10.66338 3.5545-17.26458-24.3736-29.45138-34.0215-14.7257-67.5352-23.357995-122.3758-31.990295-56.3639-8.6324-94.9554-8.6324-147.2571 0zm-60.934-81.2454c-3.5545 4.0623-10.1557 7.6168-15.2335 7.6168s-11.679 3.5545-15.2335 7.6167c-3.5545 4.0623-8.6323 7.6168-11.1712 7.6168-13.2024 0-83.2765 53.3172-125.9303 95.970995-50.2705 50.27058-57.3795 58.39508-84.292 96.98658-39.6071 56.3639-98.50991 196.0043-98.50991 233.5803 0 7.109-2.03113 15.7413-4.57005 19.8035-9.64788 14.7257-34.02147-53.3172-50.27054-138.117-5.07783-27.4203-11.17123-49.76279-13.71014-49.76279-7.10897 0-27.4203 61.94959-41.13044 124.9147-12.69458 58.3951-15.2335 187.87979-4.06227 243.2282 11.67901 62.4573 38.59152 143.7026 46.20827 141.67149 7.61675-2.03109 7.61675-21.8347-.50778-57.3795-8.63232-38.08379-11.67901-180.2631-3.55448-184.8331 2.53891-1.5233 21.32689 20.3113 42.65379 49.25501 20.81911 28.4358 44.17714 58.395 51.79388 67.02739 47.22387 51.7938 59.41067 63.4729 63.47287 63.4729 7.109 0 6.0934-12.18679-2.0311-28.9437-43.66935-88.3543-42.146-253.8916 4.0623-380.8374 8.1245-22.3425 34.5292-78.1986 45.1927-95.4632 46.2082-75.6597 135.5781-162.9984754 204.6366-199.558775 6.6012-3.5545 12.1868-8.6324 12.1868-11.1713s5.5856-5.0778 12.6946-6.0934c7.109-1.0155 13.7101-4.0622 14.2179-6.6012 1.5234-8.6323-19.8035-8.6323-26.9125 0z" style="stroke-width:.507783"/></svg>