<svg height="960" style="" width="970" xmlns="http://www.w3.org/2000/svg"><path d="m485.06224-30-364.38332 210.54919v603.19666l32.12401 18.61448c104.39056 60.33933 323.97281 187.35217 330.88967 187.63907 7.84125.3187 221.97142-123.08226 322.98323-181.41348 14.18436-8.15999 28.33334-16.45845 42.64525-24.77782v-603.32117zm0 31.625961 342.53155 197.973509v565.09611l-342.53155 197.9735-342.96732-198.16029v-564.6603zm-10.77026 32.310773-312.71099 180.790896c-2.26311 21.29249-1.30189 508.89652 1.12061 518.77777l311.59038-269.5677zm20.0464 1.307364v426.078832c40.51309 39.01501 302.51049 267.23088 311.40361 271.31088v-517.53264zm165.53821 186.456192c29.22936-.22313 60.9873 29.24081 59.3298 61.94455-.86063 17.14874-.49206 58.50104-.74706 63.31417v.0623c-25.43624 0-49.46152.89699-73.39963-.18675-31.87498-1.6575-57.64887-30.53277-57.64887-62.56712v-50.55173-11.76635s49.67515-.0578 72.46576-.24902zm-391.15332 1.36963h138.20792c5.57811 0 11.32062-.50452 17.05812 6.41234.44621 30.02624.18675 65.59721.18675 99.67158v.0623c-2.77653-.20569-5.53532-.31126-8.34229-.31126-1.6575 0-3.32893-.001-4.73143.0623-7.23562.79688-14.42942.63798-21.66503 1.30734-28.75124 2.77313-46.54494 21.79752-47.50119 50.67626-.25436 8.01174-.15864 16.05065 0 24.03073v.0623c.0585.46081.1245.94295.1245 1.43185 0 4.55813-2.55697 8.51165-6.35009 10.58351h-78.75361c-5.45062-2.70936-6.59912-7.00653-6.59912-12.20215v-68.54364c9.75375-10.07252 22.00619-17.78375 32.6843-29.32249l-32.43527-.12454c-.28688-2.58187-.31128-7.03589-.31128-9.64964v-58.89401c0-4.87687-.23758-9.70294 5.9143-14.06981 4.02639-.60966 8.13129-1.00154 12.51342-1.18286zm328.27495 138.33244c21.22874 0 42.49084-.255 63.68771 0 25.19596.31773 42.92773 13.13038 54.78512 34.42746l.1245.18676c3.28307 5.7233 5.31691 12.23776 5.78981 19.29931.70125 23.14123.31126 46.33526.31126 70.84712-4.49437.22312-7.64649.58621-10.77024.80934-19.12498 0-38.39641-.35063-57.64889 0-35.54061.66936-65.76409-34.1441-63.50097-63.50096 0 .00003.24904-32.76646.24904-49.18208v-12.63794s5.06016-.24901 6.97266-.24901zm-265.89462 67.48529.24904.0623c2.4225.31872 4.77924.76548 6.72362 1.30736 1.05187 3.34687 3.32694 6.91785 3.48631 10.58347.41438 11.22.3825 22.46043 0 33.68041-.31875 8.35125-5.42521 12.77887-13.01146 12.07763-5.70562 0-10.39672-4.59698-10.39672-10.33448 0-.255.0623-.52393.0623-.74705-.44625-12.04874-.44625-24.05961 0-36.10839.12584-3.20892 2.29869-6.38392 3.67308-9.8364 4.24915-.38036 6.64924-.84312 9.21387-.68483zm-76.45015.4358h13.07373c5.38687 2.70937 6.59911 7.00653 6.59911 12.20215 0 10.80561.255 21.69192 0 32.49753-.19125 8.415-4.1298 12.47709-11.20605 12.70021-7.07624.22313-11.79075-3.828-12.07763-11.82862-.47812-11.60249-.44624-23.29114 0-34.92551.1275-3.34688 2.17647-6.56576 3.61084-10.64576zm33.6804 0 15.93749.0623c1.33874 3.98437 3.54411 7.90649 3.73536 11.89086.41437 10.80563.28687 21.69192 0 32.49756-.19125 8.82938-4.6159 13.20569-12.20215 12.88694-7.13999-.28688-10.98293-4.31556-11.20605-12.76243-.3825-10.83749-.50999-21.75419 0-32.55982.19125-4.04812 2.3966-7.93536 3.73535-12.01536zm197.78674 49.80465s-212.67235 184.89481-317.31791 275.41975l315.01446 181.97379c105.28306-60.84934 209.54163-120.9302 314.95219-182.09829-103.56181-90.87556-312.64874-275.29525-312.64874-275.29525zm-64.37251 162.48769c11.37936 4.04816 19.66087 13.0025 28.13964 21.35375 5.45063 5.45062 4.49387 13.55783-1.30738 20.79345-8.03249 10.04062-16.36733 19.75254-24.59103 29.63379l-61.57103 73.83539-.1245.18676c-1.72125 2.1675-3.50377 4.21897-5.41626 6.16335-2.83687 2.96437-6.80732 4.79368-11.20607 4.79368-3.63375 0-6.97363-1.25954-9.58738-3.29954l-.49805-.37355c-5.67375-4.23937-11.15029-8.76163-16.18649-13.44725-8.82938-8.00063-9.54806-15.74825-1.92994-25.15137 10.35936-12.78187 21.07533-25.22905 31.62594-37.85155 18.46623-22.14245 36.90045-44.30421 55.34542-66.48919 4.17563-5.03625 8.47775-9.73331 17.30713-10.14772zm90.08418 0c11.53874 3.72941 20.49909 13.16688 29.07345 22.47437 4.52625 4.68563 3.94654 11.20056.24904 16.74681l-.24904.31129c-2.295 3.18749-4.73541 6.28434-7.22166 9.08934-27.41248 32.79935-55.27519 65.36611-82.17768 98.67547-8.76562 10.8375-20.23067 12.29728-29.63379 2.92603-3.12375-3.09188-6.70669-5.69217-10.08544-8.52904-11.85749-10.04063-12.67677-16.40666-3.05052-28.26416 13.13249-16.22436 26.58223-32.21661 39.90597-48.18598 15.39561-18.48752 30.83159-36.82609 46.13158-55.34545 4.20749-5.1 8.64309-9.45243 17.05809-9.89868zm90.14643 0h.0623c11.50687 3.53816 20.2137 13.08022 29.0112 22.10084 4.2075 4.36686 3.60985 10.52024.9961 15.87524l-.12451.18675c-1.33875 2.39062-2.88417 4.62286-4.66917 6.59911-28.26249 33.89375-56.52997 67.75027-84.79246 101.60149l-.1245.18679c-1.46625 1.84875-3.07393 3.57198-4.73143 5.22948-2.83687 3.02812-6.83619 4.91822-11.33056 4.91822-3.57 0-6.81877-1.13654-9.40064-3.11279l-.49805-.37354c-5.38686-3.9525-10.53369-8.27104-15.31494-12.63792-10.23186-8.98875-10.93859-16.40914-2.42798-26.83227 10.39125-12.74999 21.01311-25.29129 31.56373-37.91379 18.29624-21.845 36.53287-43.68915 54.72287-65.55539 4.17562-5.03625 8.41996-9.79406 17.05809-10.27222z" style="stroke-width:31.875"/></svg>