<svg height="960" style="" width="1233" xmlns="http://www.w3.org/2000/svg"><path d="m654.01969 0v459.08034c261.68658 3.78761 467.83821-223.78284 458.95911-459.08034zm-76.52348.48509c-126.3487 3.75326-289.96706 69.26165-383.89085 228.96412-102.017102 173.48494-98.706822 349.8756 12.12733 517.95855 92.20657 139.98634 228.46737 206.7556 395.83627 212.59224v-160.50531c-173.48495-.83824-306.41608-138.26716-317.25113-295.42192-5.49514-80.0055 14.85987-153.04021 63.85043-216.71552 63.76845-83.1101 149.56694-124.32412 254.06772-127.39768v-159.41384c-8.06031-.28912-16.31653-.31085-24.73977-.0606zm76.76604 499.10054v458.77716c259.32708 2.82518 465.17405-219.19531 458.71655-458.77716z" style="stroke-width:31.046"/></svg>