<svg height="960" style="" width="1352" xmlns="http://www.w3.org/2000/svg"><path d="m1105.486 709.19728c8.2419 14.08418 16.275 27.71627 24.1691 41.38314q48.7209 83.35748 97.4765 166.71496c4.9729 8.52006 7.2333 17.07489 3.2689 26.36002-3.9644 9.28512-11.5803 14.74491-21.7696 15.99684-2.1561.20866-4.66.34776-7.1986.34776-.6955 0-1.4258 0-2.1213-.0348h.1043-1047.58469c-2.36476 0-4.76428.0695-7.12903-.1391-20.76113-1.94744-31.50683-21.90872-21.10888-40.06167 15.26655-26.70777 30.95041-53.17212 46.4604-79.74079l481.08775-823.176799c10.15452-17.3531 27.75105-21.90872 41.52225-10.81525 2.81683 2.46907 5.18158 5.39024 6.95515 8.69393l.0696.17388q170.54023 291.768559 341.04575 583.537109c.4868.79984.8694 1.66924 1.704 3.23415-6.5031 7.75499-13.1105 15.71864-19.7874 23.61273q-78.38455 92.88603-156.80387 185.73729c-11.37167 13.42344-10.29362 26.22092 3.19937 37.62736q24.96899 21.10888 50.00753 42.11344c11.99764 9.94586 25.42108 8.93737 35.5756-3.02549q58.56237-69.16897 116.95087-138.47704zm-359.3378 188.17159c11.37167.48686 17.83996-6.71172 24.16915-14.29283q59.91862-71.11642 120.01111-142.23283 38.94885-46.11264 77.89769-92.26007c10.95436-13.00613 9.70243-26.39479-3.1646-37.17527q-24.48213-20.5177-48.85993-41.24404c-13.94507-11.78898-26.74255-10.4675-38.60108 3.61667q-63.36142 75.21995-126.89672 150.37035-36.65364 43.43492-73.30728 86.7655c-10.71093 12.79748-10.43272 25.87316 1.04327 35.7147 17.59653 15.12745 35.40172 30.01147 53.13735 44.96505 4.27742 3.721 8.97215 6.32918 14.53627 5.80755zm-188.93666 0c9.87632.1391 16.34461-4.4513 21.9435-11.09346q52.61572-62.49203 105.37053-124.84495 47.43412-56.19762 94.83347-112.36045c11.82376-14.08418 10.64138-26.29047-3.19937-38.07945q-24.3778-20.69157-48.79037-41.24404c-13.07569-11.05869-25.83839-10.11975-37.10573 2.99071-10.64138 12.38017-21.10888 24.93421-31.64594 37.41871q-84.99193 100.6758-169.98387 201.38638c-10.78048 12.79747-9.63288 25.87315 3.02549 36.61886 16.97057 14.39716 34.01068 28.69 51.01603 43.05238 4.45129 3.75578 9.25035 6.64217 14.57104 6.22486z" style="stroke-width:34.7758"/></svg>