<svg height="960" style="" width="1293" xmlns="http://www.w3.org/2000/svg"><path d="m629.5398 857.12207c-13.6044 13.6044-17.3834 18.7061-16.2497 21.1624.5668 1.8895 9.0696 10.9591 18.895 20.2177l17.3835 16.6276 18.1392-17.3834c10.0144-9.6365 18.1392-18.895 18.1392-20.5956 0-3.4011-33.8221-37.979-36.8453-37.7901-1.1337 0-9.8254 8.1249-19.4619 17.7614zm-84.4608-11.526c-56.6851 57.063-102.978 104.8675-102.978 106.1901 0 1.5116 2.2674 3.0232 5.2907 3.779 2.8342.5669 8.1248 2.0785 11.7149 3.4011 14.9271 5.4796 20.2177 7.1801 26.453 8.6917 3.5901.7558 9.2586 2.2675 12.2818 3.4012 14.7381 4.7237 58.7636 12.8486 90.8851 16.6276 30.2321 3.4011 101.4664 3.0232 128.2973-.9448 37.0343-5.4795 64.0542-10.7701 85.0277-16.6276 22.1072-6.2354 30.61-8.6917 36.8453-11.1481 3.5901-1.3226 8.3139-2.6453 10.3923-3.0232 10.5812-1.7005 5.8575-7.1801-98.2542-111.1028l-102.9779-102.978zm145.1139-6.0464c19.6508 19.6508 35.3337 36.2785 34.9558 37.2232-1.3226 3.5901-73.5017 75.7691-75.5801 75.7691-3.4011 0-75.2023-72.179-75.2023-75.5801 0-1.5116 16.8166-19.6509 37.2232-40.0575 31.1768-31.1768 37.6012-36.8453 40.0575-34.9558 1.7006 1.1337 19.084 18.1392 38.5459 37.6011zm419.2809-352.3925c-.9448 1.8895-2.8343 6.4243-3.968 10.3923-3.0232 9.4475-15.4939 22.863-25.5083 27.5868-7.7469 3.779-8.3138 4.5348-11.1481 15.8718-1.5116 6.6133-3.9679 16.0608-5.1016 21.3514-1.3227 5.1016-3.0232 12.4707-3.779 16.0608-.9448 3.59-2.6453 9.6364-3.779 13.2265-4.3459 12.0928-7.558 20.5956-10.5812 28.7205-4.157 10.5812-26.2642 55.5514-30.9879 62.9204-2.0785 3.0232-4.3459 6.9912-5.1017 8.5028-.5668 1.5116-4.7237 7.558-9.0696 13.2265-4.3458 5.6685-8.6917 11.7149-9.6365 13.4155-3.779 6.9912-26.2641 33.0663-41.3801 47.9934-37.6011 37.6011-85.4056 70.1006-134.5327 91.0741-4.5348 1.8895-7.9359 4.3458-7.558 5.6685.7558 4.1569 73.5017 76.147 76.7139 76.147 1.7005-.189 6.4243-2.2674 10.5812-4.7238 4.1569-2.6453 9.4475-5.4795 11.9039-6.6132 2.2674-.9448 9.4475-5.2906 15.6829-9.4476 6.2353-4.1569 11.7149-7.558 12.0928-7.558.9447 0 27.5867-19.084 29.2873-20.7845.5668-.5669 4.5348-3.779 8.8807-7.1801l7.7469-6.0464 1.3227-28.3426c.9447-18.895 2.2674-28.9094 3.779-30.2321 1.3226-1.1337 15.116-2.4563 30.421-3.2121 16.0608-.5669 29.2873-2.0785 30.7989-3.2122 6.4243-5.1016 44.5923-58.1967 53.0951-73.8796 1.1337-2.0784 4.9127-8.8806 8.5027-15.116 9.8254-17.3834 19.273-37.4122 27.3978-57.6299 2.2674-5.6685 5.2906-13.2265 6.8022-16.6276s2.6454-7.3691 2.6454-8.8807 1.1337-5.4795 2.6453-8.8806c6.6132-15.8719 17.3834-60.6531 20.0287-83.705.9447-7.3691 2.4564-20.0288 3.779-28.3426 1.1337-8.3138 1.8895-19.4619 1.5116-24.5636l-.5668-9.4475-30.61-.5668c-27.7757-.3779-30.7989-.189-32.3105 2.8342zm-984.8094 16.0608c0 23.6188 6.4243 65.1879 14.3602 93.3415 1.5116 5.2906 2.6453 10.9591 2.6453 12.6597 0 1.7005 1.1337 5.8574 2.6453 9.2585 1.5117 3.4012 4.5349 11.715 6.6133 18.5172 6.2354 19.4619 9.8254 29.0983 11.7149 31.1768.9448.9447 1.7006 2.8343 1.7006 4.3459 0 2.8342 22.674 48.9381 28.3425 58.0077 2.0785 3.0232 4.5349 7.3691 5.4796 9.4475.9448 2.0785 3.968 6.9912 6.6133 10.9592 2.6453 3.9679 4.9127 7.7469 5.1016 8.5027 0 .7558 9.0696 13.2266 20.2177 27.7757l20.2177 26.4531 34.0111 1.3226c28.9094 1.1337 34.3889 1.8895 36.2785 4.7238 1.7005 2.2674 2.4563 12.0928 2.4563 32.8774v29.8541l14.7381 11.1481c15.1161 11.526 29.4763 21.3514 34.389 23.6188 1.5116.7558 5.4796 3.0232 8.5028 5.1017 3.2121 2.0784 7.369 4.5348 9.4475 5.6685 2.0784 1.1337 7.558 4.1569 12.0928 6.6132 4.5348 2.6453 9.8254 4.7238 11.526 4.7238 2.6453 0 77.4696-73.3128 77.4696-76.147 0-.5669-3.9679-3.0232-8.8806-5.2906-26.4531-12.2818-35.3337-16.8166-52.5282-27.0199-21.9183-13.0376-43.2697-28.7205-63.1095-46.2929-21.3513-18.7061-29.4762-27.3978-54.9845-58.0077-4.5348-5.4796-27.2089-38.7349-28.9094-42.3249-.7558-1.5116-3.0232-5.6685-5.2906-9.2586-4.3459-7.3691-16.0608-30.232-20.0288-39.3017-7.369-17.1945-8.6917-20.5956-15.6829-40.2464-1.1337-3.5901-3.0232-9.6365-3.779-13.2265-.7558-3.5901-2.2674-9.2586-3.4011-12.2818-1.1337-3.2122-3.4011-13.2265-5.4795-22.4851-3.2122-16.2497-3.5901-17.0055-10.0144-19.8398-3.5901-1.7005-9.2586-4.9127-12.6597-7.1801-6.9911-5.1017-19.4619-23.2409-19.4619-28.3426 0-7.369-3.4011-8.1248-33.4442-8.1248h-28.9094zm917.9209-53.095c-16.0607 8.3138-21.7292 29.0983-11.9038 43.6475 10.5812 15.4939 27.9646 19.2729 42.1359 9.0696 12.8486-9.2586 17.3834-21.7293 12.4707-34.389-4.1569-10.2033-7.558-14.1712-16.2497-18.706-8.8807-4.5348-17.5724-4.5348-26.4531.3779zm-817.7772-.3779c-10.9591 5.8574-15.8718 14.1712-15.8718 27.5867-.189 13.2265 3.4011 19.6509 14.3602 26.642 12.6597 8.1249 29.8542 4.7238 39.8685-7.9359 3.4011-4.3459 4.1569-7.747 4.1569-17.9503 0-14.7381-3.4011-20.7845-15.3049-27.5867-8.8807-5.1017-18.3282-5.2906-27.2089-.7558zm564.0169-53.0951c-10.3923 10.2033-31.1768 29.8542-46.2929 43.8365-15.116 13.9823-34.5779 32.1216-43.2696 40.6243-8.6917 8.3138-17.9503 17.1945-20.7845 19.8398-23.2409 21.9183-28.5315 26.4531-30.2321 26.4531-1.1337 0-5.4796-3.2122-9.4475-7.1801-32.4995-31.1769-42.1359-40.4354-66.3216-62.7316-15.116-13.9823-34.2-31.9326-42.5138-40.0575-30.421-29.2873-39.6796-37.4121-43.0807-37.4121-3.0232 0-3.2122 8.6917-3.2122 163.8199v166.2764c0 7.7469-17.9503-4.7238-43.2696-29.8542-19.4619-19.6508-40.2464-46.4818-50.6387-65.7547-5.4796-9.8254-9.6365-18.5171-12.8486-25.6973-1.8895-4.1569-4.5348-10.0143-5.8575-12.8486-1.5116-3.0232-2.6453-6.6133-2.6453-7.9359 0-1.5116-1.1337-5.4796-2.6453-8.8807-3.0232-7.369-6.6133-21.3514-8.8807-34.5779-.9447-5.2906-2.6453-16.2497-4.1569-24.5635l-2.4563-15.1161h-29.0984-29.2873l-1.5116 5.6685c-4.5348 15.1161-15.8718 28.7205-28.9094 34.7669-4.3459 2.0785-8.6917 4.9127-9.4475 6.0464-1.7006 2.8343 4.1569 30.421 10.9591 49.8829.9447 3.0232 2.6453 8.1249 3.4011 11.337 1.8895 6.8023 6.9912 20.5956 9.2586 25.1304.7558 1.7006 3.0232 6.6133 4.9127 10.7702 1.7005 4.1569 3.9679 8.8807 4.9127 10.3923.9447 1.5116 2.2674 4.1569 2.8342 5.6685.5669 1.5116 1.7006 4.1569 2.6453 5.6685.9448 1.5116 3.968 6.9912 6.8023 12.2818 5.8574 11.1481 25.3193 40.6243 29.0983 44.4033.5669.5669 5.8575 6.8022 11.7149 14.1713 13.7934 17.1945 29.4763 33.2553 45.915 47.4265 15.305 13.2266 36.0895 29.0984 37.7901 29.0984.5668 0 4.1569 2.2674 7.7469 5.1017 12.2818 9.2585 74.0686 40.2464 80.3039 40.2464 1.1337 0 32.6884-30.61 70.1006-68.0221 37.4122-37.4122 68.589-68.0222 69.3448-68.0222.9448 0 31.7437 30.7989 68.7779 68.4001l67.2664 68.211 8.1248-3.2121c38.9238-16.0608 65.9437-31.3658 96.9316-54.7956 8.3138-6.2354 18.3282-14.3602 22.1072-17.9503 3.9679-3.4011 8.6917-7.558 10.7702-8.8807 3.9679-2.8342 32.1215-33.6331 40.2464-44.2144 9.0696-11.7149 22.2961-30.232 22.2961-31.1768 0-.3779 2.6453-4.7237 5.8575-9.4475 6.0464-9.0696 26.8309-48.7492 28.7205-54.9846.5668-1.8895 2.8342-8.3138 5.1016-13.9823 6.9912-18.3282 16.2497-49.8829 17.7613-60.4641.3779-3.5901 1.1338-7.9359 1.5117-9.4475.3779-1.8895-2.8343-4.5348-8.8807-7.558-12.6597-6.2354-25.5083-19.8398-30.421-32.3105l-4.1569-10.2034-27.5868-.5668c-27.2088-.5669-27.5867-.3779-28.3425 3.779-3.5901 16.6276-4.9128 25.1304-4.9128 30.232 0 10.0144-10.3922 44.9702-20.0287 67.0774-19.6508 45.726-54.6067 91.0741-90.5072 118.094-13.7934 10.2033-17.1945 11.7149-18.7061 7.747-.7558-1.7006-1.1337-75.7691-1.1337-164.7647v-165.1427c0-1.7005-.5669-3.2121-1.3227-3.2121-.9447 0-10.0143 8.3138-20.4066 18.5171zm-604.2633-419.280897c-5.4796 12.4707-10.0144 14.1713004-39.1128 15.3050004l-25.5083.9447v7.5581 7.558l25.6973.5668 25.6973.5669 6.6132 6.2352996c3.5901 3.4011 7.3691 9.2586 8.3138 12.6597l1.8895 6.4243 16.8166.3779c27.7757.9448 24.9415-3.4011 25.8862 39.6796.5669 34.388997 1.1337 38.167997 4.9127 45.537097 9.0696 17.3834 29.4763 31.3657 43.8365 30.232l6.6133-.5668.3779-43.4586c.1889-34.577897.7558-43.269697 2.8342-42.891797 4.3459.9448 194.241 192.729397 194.43 196.319497 0 1.8895 0 15.8718-.189 30.9878-.1889 23.9967.189 27.7757 2.8343 28.9095 1.7005.5668 16.0608 1.1337 31.9326 1.1337h28.9094l47.9934 48.3712c26.4531 26.4531 49.505 49.1271 51.3945 50.0719 2.8343 1.7006 10.9591-5.8575 52.7172-48.1823l49.316-50.2608h30.9879c23.2409 0 30.7989-.5669 30.9878-2.4564 0-1.1337 0-14.7381-.1889-30.2321l-.189-27.7757 97.6874-99.1989c53.6619-54.6067 98.4431-99.198997 99.1989-99.198997.9448 0 1.8895 19.8398 2.0785 43.836497l.5668 44.0255 6.6133.5668c3.968.3779 10.5812-1.1337 16.0608-3.59 10.2033-4.5349 27.3978-20.7846 27.3978-26.0752 0-1.7006 1.1337-4.3459 2.4563-5.4796 1.5116-1.7005 2.4564-13.6044 3.2122-40.624297l.9447-38.168 20.7846-.5668c21.3514-.5669 23.4298-1.3227 23.6188-8.8807.1889-3.9679 3.9679-9.0696 10.2033-14.1713 2.6453-2.0784 10.2033-3.0232 27.3978-3.7789996l23.8078-.9447v-7.558-7.5581l-23.8078-.9447c-24.5635-.9448-27.3978-1.8895-33.8221-10.3923004-1.5116-2.0784-3.2122-5.4795-3.779-7.558-1.1337-3.779-1.3227-3.779-462.1726-4.3459l-461.039-.3779zm298.5416 61.9757c2.0784 4.7238.9447 159.285197-1.3227 159.285197-1.1337 0-128.4862-126.785697-158.5293-157.773597-.189-.3779 0-1.5116.7558-2.6453.7558-1.5116 26.0751-2.0784 79.3591-2.0784 72.7459 0 78.4144.1889 79.7371 3.2121zm196.1305 26.0752v28.3425l-7.9359.5669c-8.3139.5668-9.8255 2.2674-9.0697 9.825397.189 2.6453.5669 5.8575.7558 6.9912.189 1.8895 5.2906 2.4563 19.084 2.4563 22.863 0 23.4299 1.1337 8.1249 15.494-18.1392 17.0055-22.4851 20.9735-32.1216 30.421l-9.4475 9.0696-16.8166-15.4939c-32.3105-29.6652-36.8453-34.2001-36.0895-36.4675.3779-1.3226 7.9359-2.4563 19.4619-3.0232l18.7061-.9447.5668-8.8807.5669-8.880697-8.1249-.5668-8.1249-.5669-.9447-26.0751c-.5669-14.3602-.189-27.3978.5668-28.9094 1.3227-2.2674 6.9912-2.6453 31.1769-2.2674l29.6652.5668zm294.7626-27.3978c1.7005 2.8342-158.5294 163.442097-161.3637 161.741497-3.0232-1.8895-3.0232-158.151497.189-161.363597 3.0232-3.0232 159.2852-3.2122 161.1747-.3779zm-282.4809 285.126097c0 2.0785-41.1911 43.6475-43.0806 43.6475-2.6453 0-44.0255-42.7027-42.7028-44.0254 2.0784-2.0784 85.7834-1.5116 85.7834.3779z" style="stroke-width:.18895"/></svg>