<svg height="960" style="" width="1398" xmlns="http://www.w3.org/2000/svg"><path d="m683.98162 998.6924c-1.67306 4.4616-2.23071 17.8462-1.1153 29.5577 1.67307 18.9616 3.34614 21.7499 15.61527 21.7499 12.8269 0 13.94232-1.673 13.94232-27.8845 0-24.5384-1.67307-27.8846-12.8269-29.5576-7.24993-1.1154-13.38455 1.673-15.61539 6.1345zm97.596-8.923c-2.23072 22.3076 2.23084 49.0768 7.8077 52.9807 3.34613 2.2307 10.59617 1.1154 16.17303-1.6731 11.15384-6.1346 10.59619-12.2692-2.23072-45.7308-6.69227-16.7306-20.63459-20.6345-21.75001-5.5768zm-186.26889 3.3461c-13.94231 34.0191-13.38455 45.7307 3.34614 47.4039 13.38455 1.673 15.05763-.5579 18.40388-25.0962 2.78837-19.5192 1.1153-28.4423-5.01933-34.5769-7.24992-7.2499-8.92299-5.5769-16.73069 12.2692zm353.57637-54.096c-6.13462 7.25-5.57697 12.2692 3.34614 28.9999 12.26914 22.8654 36.24986 31.7884 36.24986 13.9423 0-8.9231-25.09602-51.8652-30.11524-51.8652-1.11542 0-5.57697 3.9037-9.48076 8.923zm-541.5183 5.5769c-8.36549 11.7115-13.38469 24.5384-11.71162 30.673 5.57698 20.6346 25.65382 8.3654 39.59612-24.5383 13.38455-31.2308-6.69227-35.6924-27.8845-6.1347zm611.7874-53.53842c-4.4615 7.25005 30.1153 51.30762 38.4807 48.51922 3.3462-1.1154 6.6923-7.8077 7.8076-14.5 3.3463-23.42304-35.1346-51.86532-46.2883-34.01922zm-685.40269-5.0192c-23.42308 20.07694-26.76922 38.48072-7.25003 38.48072 13.38466 0 37.3654-26.21147 37.3654-41.26921 0-15.61527-10.59619-14.49997-30.11537 2.78849zm751.76789-59.67295c-3.3461 8.36534 36.2501 49.07688 43.5 44.61531 2.2307-1.67305 6.6923-7.25003 10.0384-12.8269 4.4614-8.36533 1.6731-12.8269-15.6153-25.09615-23.9807-16.17302-33.4615-17.8461-37.9231-6.69226zm-820.9216-3.34614c-21.19236 17.8461-23.98071 34.5768-5.01932 34.5768 15.6154 0 44.05767-25.65381 41.82696-37.92295-2.78849-14.49996-16.73081-13.38466-36.80764 3.34615zm881.7101-78.63447c-12.2693 4.46155-7.8078 16.73069 12.2692 32.34607 22.8654 16.73069 38.4807 16.73069 40.7114-1.11541 1.6732-11.71149-2.2307-15.05762-43.4999-32.90375-1.6731-.55775-6.1346 0-9.4807 1.67309zm-929.67155-2.23084c-23.98074 13.38465-27.88463 19.5193-20.63459 31.23078 6.13463 8.92298 20.63459 5.01921 42.38448-12.8269 15.05775-12.26925 15.6154-14.49998 8.36534-22.30767-7.24993-7.80771-10.59605-7.25006-30.11523 3.90379zm969.26765-76.96141c-5.577 13.94232.5576 21.75002 22.3077 29.55771 16.173 6.13463 22.3075 6.13463 28.4421 1.1153 12.8269-10.59606 10.0386-15.61526-17.2885-27.88452-31.2305-13.38455-29.5575-13.38455-33.4613-2.78849zm-1014.44069-8.92299c-18.96151 3.90379-26.76918 26.21145-11.71153 31.78843 13.38461 5.01921 53.53843-15.05774 53.53843-26.76923 0-10.59617-10.03852-11.71147-41.8269-5.0192zm1034.51749-73.05762c0 12.26926 21.7501 23.42309 44.6153 23.42309 13.9424 0 16.7308-2.23084 16.7308-13.38468 0-15.61526-8.923-20.07682-39.596-20.07682-17.2885 0-21.7501 2.23072-21.7501 10.03841zm-1058.49822-20.63459c-14.49998 4.46155-18.40382 7.80769-16.73075 17.8461 1.67308 12.8269 13.3846 13.94233 47.96147 6.6924 14.49996-3.34614 16.73069-22.30766 3.34615-27.32687-10.03845-3.9039-10.59614-3.9039-34.57687 2.78837zm1073.55602-80.30755c-2.2309 1.67308-3.9039 8.36535-3.9039 13.94233 0 8.36534 4.4615 10.03841 30.673 10.03841s30.673-1.67307 30.673-10.59606c0-5.57698-3.9038-12.26925-8.9231-13.94233-11.7114-4.46155-44.0576-4.46155-48.519.55765zm-1096.42137-10.03841c-4.46153 2.78849-6.1346 8.923-4.46153 14.49999 2.78846 6.69226 9.48076 8.36532 30.11533 7.24991 22.30766-1.67307 26.76919-3.34614 26.76919-12.8269 0-8.923-4.46153-11.15384-22.30765-12.8269-12.26921-.55765-25.65381 1.11541-30.11534 3.9039zm1108.13287-86.44216c-26.2117 7.80769-30.1154 12.26925-21.1923 22.86531 5.0192 6.13463 12.2691 7.80769 27.3269 5.0192 27.3269-5.0192 35.1345-11.71147 27.8845-25.09602-6.1346-11.7116-5.5769-11.7116-34.0191-2.78849zm-1100.88288-10.59619c-6.13461 15.05774 2.23076 23.98074 25.09611 27.88464 25.6538 4.46156 34.01922 1.1153 34.01922-13.94231 0-7.24993-5.01926-11.71149-13.94233-13.94233-7.80767-1.67306-20.07689-3.90378-27.88457-5.57685-9.48075-2.23084-15.05767-.55777-17.28843 5.57685zm1067.42128-77.51905c-15.0576 7.80769-20.6345 21.19224-11.1537 26.76922 2.2307 1.67307 14.4999.55765 26.2114-2.23084 21.75-5.0192 38.4807-19.51917 32.9038-28.44216-4.4615-7.8077-31.2307-5.57698-47.9615 3.90378zm-1041.20978-15.05762c-6.6923 12.26914-1.11539 18.40376 26.76918 27.88452 26.21148 8.36534 28.44231 7.80769 28.44231-6.69227 0-8.92311-6.13462-15.05774-21.75001-22.30766-26.2115-11.71149-26.76919-11.71149-33.46148 1.11541zm523.67219 155.03811c-36.24999 13.94232-46.2884 61.9038-18.40388 88.11524 34.01926 31.23077 85.32686 8.36546 85.32686-38.48069 0-17.28848-3.34613-26.7691-12.8269-35.69223-13.38467-12.8269-40.15377-19.51917-54.09608-13.94232zm32.34607 30.67301c18.96153 18.96154-3.34614 50.1923-26.76922 37.92305-19.51918-10.59606-11.15383-44.61531 11.15383-44.61531 5.01933 0 11.7116 2.78847 15.61539 6.69226zm-563.82595-376.99933c-1.67307 1.67307 50.74993 74.73069 115.99986 162.28815 65.80756 87.55759 118.23046 161.73051 116.55739 163.96134-4.46144 7.24993-38.4807 6.13463-87.55747-3.34613-73.61525-13.94233-93.6922-10.59619-73.61525 12.26912 7.80769 9.48079 96.48058 130.49985 126.59593 173.44211 7.24992 10.03841 21.19224 29.55759 31.23065 43.49991 23.42309 31.23065 16.73081 34.5768-41.26906 21.74989-27.88465-6.13462-44.61534-7.24992-47.96148-3.90379-3.34612 3.34614 5.01921 21.19225 25.6538 51.30761 17.28835 24.53838 31.23066 46.84604 31.23066 48.51912 0 1.67307 7.8077 12.26925 16.73082 23.98073 9.48063 11.71148 16.73068 22.8653 16.73068 25.09615 0 15.05762 140.53826 165.07661 148.34595 157.82661 1.67307-2.2307-1.11541-11.1538-6.69239-20.6346-9.48076-16.7307-9.48076-17.2883 0-24.5384 8.92311-6.6923 8.92311-7.8077 1.11543-14.49996-5.01922-4.46156-8.923-9.48076-8.923-12.26925 0-3.90379-21.75002-40.71142-51.30761-87.55747-13.94232-22.30766-26.76922-46.84604-26.76922-51.86539 0-2.2307 23.98073-2.78835 52.98068-1.1153 46.84605 2.78839 52.98066 2.23074 52.98066-6.13461 0-5.0192-1.67306-8.92311-3.9039-8.92311-2.78836 0-13.38455-13.38455-23.98061-29.55759-10.59619-15.61539-45.1731-63.57685-76.96153-105.40369-56.88446-76.40376-72.49984-102.05756-66.92287-108.19207 2.23071-1.67306 17.8461-.55776 35.69221 2.78839 17.84611 3.34612 42.94226 6.13461 56.32681 6.13461 45.17298 0 46.2884 1.67306 46.2884 83.65368 0 69.71148.55765 73.05762 13.38455 84.21144 7.80769 6.69229 18.96153 15.05763 25.09615 18.40376 6.13463 3.34614 25.6538 16.17304 43.49991 28.44229l32.34608 22.30765 74.73068 1.67309c66.36523 1.67306 76.40375 1.11541 89.23065-8.923 7.8077-5.57699 32.34609-22.30766 53.53833-37.3654 21.75001-14.49996 40.71153-28.99994 42.94226-32.90373 2.23071-3.34613 4.46155-37.92305 4.46155-76.9614 0-80.86532 1.1153-82.53838 46.2884-82.53838 13.38455 0 38.4807-2.78849 56.32681-6.13461 17.84606-3.34615 33.46146-4.46145 35.69216-2.78839 5.577 6.13451-10.0384 31.78831-67.48059 108.19207-31.78842 41.82684-63.01908 85.32675-69.71148 96.48058-6.69228 10.59618-16.73069 24.5385-23.42296 30.11536-6.13463 5.57697-11.15383 13.94231-11.15383 18.40387 0 7.24993 8.36534 7.80758 52.98067 5.01919 28.99994-1.67305 52.98067-1.1154 52.98067 1.1153 0 5.01935-12.8269 29.55773-26.76922 51.86539-29.55758 46.84605-51.30761 83.65368-51.30761 87.55747 0 2.78849-3.90378 7.80769-8.92297 12.26925-7.80771 6.69226-7.80771 7.80766 1.1153 14.49996 9.48075 7.2501 9.48075 7.8077 0 24.5384-5.57688 9.4808-8.36536 18.4039-6.69229 20.6346 7.80769 7.25 148.34591-142.76899 148.34591-157.82661 0-2.23085 7.8077-13.38467 16.7307-25.09615 9.4808-11.71148 16.7308-22.30766 16.7308-23.98073 0-1.67308 13.9422-23.42297 30.673-47.96147 16.7307-24.53838 30.6731-47.4037 30.6731-50.74983 0-7.8077-8.3653-7.25005-55.2114 3.34613-55.2116 12.8269-61.90382 8.92299-38.4809-22.30766 10.0386-13.94232 23.9808-33.4615 31.2308-43.49991 31.2307-45.1731 118.7883-164.51897 127.1537-173.44211 16.7307-18.9614 2.2308-23.98072-49.6346-15.61526-69.1537 11.15383-108.1921 13.38455-111.5382 7.24992-2.2309-2.78848 50.1922-76.9614 115.9996-164.51899 65.8078-87.55746 117.6731-160.61508 115.4423-162.28815-2.2308-1.1153-31.7884 16.17304-65.25 39.03847-34.0191 22.30767-65.8075 41.26907-70.8267 41.26907-7.8077 0-10.0385-6.1345-11.1539-35.13444-1.1153-18.96153-3.9038-34.57692-6.6923-34.57692-4.4616 0-27.3268 40.15377-75.846 133.84587-12.8269 24.5385-35.69217 66.92299-50.74991 94.80751-15.05761 27.32699-33.4615 63.0192-41.26919 78.63459-7.8077 15.61527-18.96141 32.90373-25.09602 38.48072-11.15385 10.0384-11.15385 9.48062-11.15385-63.01922 0-80.30754-1.67305-88.67289-18.96153-96.48058-6.13462-2.78849-18.40387-9.48076-26.21145-15.05762-69.15382-45.17298-70.82689-45.73075-144.44216-45.73075s-75.28833.55777-144.44204 45.73075c-7.8077 5.57686-20.07683 12.26913-26.21145 15.05762-17.28845 7.80769-18.96153 16.17304-18.96153 96.48058 0 72.49984 0 73.05762-11.15382 63.01922-6.13464-5.57699-17.28847-22.86545-25.09615-38.48072-7.80759-15.61539-26.21145-51.3076-41.82685-78.63459-15.05762-27.88452-33.4615-63.01909-41.82685-78.07671-41.26919-81.42296-79.19212-148.9036-84.21131-149.46125-2.7885-.55777-5.57699 14.49997-6.69241 33.4615-1.1153 28.44216-3.34614 35.13444-10.59605 35.13444-7.25004 0-84.21144-47.96134-127.71135-79.19212-3.34613-2.23072-7.80767-2.78849-9.48075-1.11542zm576.65285 328.48021c23.98074 5.57697 41.26919 34.57692 41.26919 68.03841 0 25.65381-2.23072 31.23066-18.96153 48.51912-17.8461 18.40375-22.30766 20.07683-50.74995 20.07683-28.44217 0-32.90372-1.67308-50.19218-19.51918-16.73069-17.28846-18.96153-23.42296-18.96153-49.07677-.55765-22.30766 2.23084-32.90384 12.26925-45.73074 12.8269-16.7307 46.84605-31.78843 62.46144-27.88452 4.46155 1.1153 15.05761 3.90378 22.86531 5.57685zm318.44182-356.92238c-12.8269 14.49997-16.1731 33.46138-7.2501 39.03835 7.8077 4.46156 46.2884-36.24998 42.9422-45.17297-4.4615-12.26925-22.3076-8.92312-35.6921 6.13462zm-717.19116-20.07694c-4.46155 7.25004 1.67307 21.75001 16.73081 37.92305 10.59606 11.71148 14.49996 12.8269 24.53838 7.24993 11.71148-6.13463 11.15383-6.13463-5.57685-28.44218-17.28847-21.19236-29.55772-26.76922-35.69234-16.7308zm637.9989-34.576911c-12.26914 20.634591-10.59606 34.576911 3.9039 39.038461 7.24994 2.78849 29.5576-34.01914 29.5576-49.076873 0-18.403758-20.07683-12.269132-33.4615 10.038412zm-556.01829-20.076826c-7.80757 7.807694 1.67307 29.557587 19.5193 45.730617 8.92299 8.36547 11.71148 8.36547 17.28835 1.67319 6.69238-8.36545 2.23082-25.653793-12.26915-44.057669-8.92311-11.153832-15.61539-12.269251-24.5385-3.346138zm474.59544-35.692214c-1.67306 5.576856-6.69239 17.846107-10.59616 27.32687-8.36536 20.07682703-6.13464 24.538383 10.59616 24.538383 8.36535 0 15.05764-7.249926 22.30767-23.423083 10.59607-22.307545 10.59607-22.865314.55765-30.673007-13.94232-9.480716-19.51918-9.480716-22.86532 2.230837zm-383.69172-10.59617c-12.26912 12.269239 7.8077 64.692142 23.42309 61.346005 9.48076-2.23071997 11.15384-18.961409 3.90379-46.846047-2.78849-11.711506-21.19225-21.192257-27.32688-14.499958zm286.65337-6.692299c-8.36534 21.192257-6.69227 41.269201 3.34614 45.172989 13.38467 5.019206 24.53839-12.8269 24.53839-38.48069 0-17.288439-1.67307-21.192282-11.15372-21.192282-7.25004 0-13.38467 5.576918-16.73081 14.499983zm-192.40351 11.711516c4.46157 30.115335 9.48077 37.923029 21.75002 33.461473 18.40376-7.249925 6.13451-59.672972-13.94232-59.672972-11.15383 0-11.71148 1.673083-7.8077 26.211499zm98.15365-26.769187c-8.36534 15.615357-1.1153 50.749897 10.59619 50.749897 10.59606 0 18.40375-28.999927 12.8269-49.634513-3.90391-14.499982-16.17304-15.05766-23.42309-1.115384z" style="stroke-width:.557692"/></svg>