<svg height="960" style="" width="812" xmlns="http://www.w3.org/2000/svg"><path d="m332.76358 499.36914c-38.19267 28.6445-40.1023 33.41858-41.05712 79.24979 0 44.87638 3.81927 53.46973 34.37341 84.02387 30.55413 30.55413 39.14748 34.3734 85.9335 34.3734 28.6445 0 51.5601-3.81927 51.5601-7.63854 0-4.77408 12.41262-21.00596 28.6445-36.28303 37.23785-36.28304 40.1023-95.48167 5.7289-131.76471-12.41261-14.32225-26.73487-24.82523-31.50895-24.82523-5.7289 0-15.27707-6.68372-21.96078-14.32225-19.09634-23.87042-67.79199-16.23189-111.71356 17.1867zm38.19267-484.09207c-3.81927 9.54816.95482 21.00596 10.50298 28.6445 31.50896 22.9156 46.78602 144.17732 21.00597 165.18329-19.09633 16.23188-34.3734-13.36743-34.3734-64.92754 0-42.01193-1.90963-43.92157-29.59932-29.59931-15.27707 8.59335-18.14152 21.00596-18.14152 67.79198 0 42.01194-2.86445 57.289-11.4578 54.42455-6.68371-2.86445-13.36743-13.36743-15.27706-23.87041-4.77409-29.59932-46.78602-66.83717-61.10827-52.51492-8.59335 8.59335-6.68372 17.1867 8.59335 38.19267 22.9156 30.55413 36.28303 114.578 22.9156 135.58397-14.32225 21.96078-27.68969.95481-31.50895-46.78602-2.86445-44.87639-26.73487-67.79199-26.73487-25.78005 0 34.3734-42.96675 111.71355-55.37937 99.30094-16.23188-16.23189-30.55413.95481-30.55413 35.32821 0 19.09634 5.7289 33.41859 14.32225 37.23786 18.14151 6.68371 18.14151 30.55413 0 38.19266-18.14152 6.68372-18.14152 21.96079 0 40.10231 8.59335 9.54816 14.32225 32.46376 14.32225 61.10827 0 25.78005 4.77408 49.65046 9.54816 52.51491 5.7289 2.86445 9.54817 16.23189 9.54817 28.64451 0 31.50895 66.83717 127.94545 92.61722 134.62915 11.4578 2.8645 25.78005 11.4578 32.46377 19.0963 5.7289 7.6386 22.9156 13.3675 38.19267 13.3675 14.32225 0 29.59932 3.8192 32.46377 9.5481 7.63853 12.4127 68.7468 12.4127 76.38533 0 2.86445-4.774 20.05115-9.5481 37.23786-9.5481 24.82523 0 41.05711-10.503 83.06905-51.56013 85.9335-84.97869 84.97869-83.06906 84.97869-147.04178 0-57.289 7.63853-82.11423 38.19266-119.35208 12.41262-16.23189 12.41262-19.09634-2.86445-30.55414-20.05115-14.32225-21.00596-32.46377-2.86445-58.24382 13.36744-18.14152 10.50299-22.9156-28.6445-63.97272-33.41858-35.32822-42.01193-50.60528-42.01193-78.29497 0-53.46973-22.9156-36.28303-26.73487 20.05115-3.81927 55.37937-15.27707 71.61126-30.55413 42.01194-15.27707-29.59932-3.81927-110.75874 19.09633-141.31287 19.09633-22.91561 18.14152-40.10231-1.90963-40.10231-12.41262 0-33.41859 25.78005-45.83121 54.42456-4.77408 12.41261-13.36743 21.96078-19.09633 21.96078-10.50298 0-11.4578-10.50298-9.54817-82.11424.95482-36.28303-2.86445-50.60528-13.36743-54.42455-8.59335-3.81927-15.27707-11.4578-15.27707-18.14152 0-15.27706-60.15345-74.4757-75.43052-74.4757-6.68372 0-13.36743 6.68372-17.1867 15.27707zm134.62916 377.1526c5.7289 4.77408 24.82523 19.09633 42.01193 33.41858 16.23189 13.36744 30.55414 30.55414 30.55414 37.23785 0 6.68372 6.68371 17.1867 14.32225 23.87042 10.50298 8.59335 14.32225 31.50895 14.32225 85.93351 0 60.15345-3.81927 77.34015-19.09634 95.48167-10.50298 12.41261-19.09633 25.78005-19.09633 30.55413 0 12.41262-34.3734 42.96675-55.37937 49.65047-10.50298 3.81927-21.96078 12.41262-24.82523 20.05115-7.63854 21.00595-150.86104 20.05115-168.04775 0-6.68371-7.63853-17.1867-14.32225-22.9156-14.32225-14.32225 0-63.0179-49.65047-63.0179-63.97272 0-5.7289-6.68372-15.27707-14.32225-21.96078-10.50298-8.59335-14.32225-32.46377-14.32225-92.61722 0-77.34016 1.90963-83.06906 30.55413-121.26173 17.18671-21.00596 34.37341-41.05711 39.14749-42.01193 3.81927-1.90964 12.41262-9.54817 20.05115-16.23189 6.68372-7.63853 29.59932-15.27706 49.65047-17.1867 48.69565-5.7289 147.04177 2.86445 160.40921 13.36744z" style="stroke-width:.954817"/></svg>