<svg height="960" style="" width="1483" xmlns="http://www.w3.org/2000/svg"><path d="m396.91654 83.891156c-9.5998 14.1471-29.81 43.957104-44.9677 65.683004-15.1576 21.726-29.3047 43.4519-32.3362 47.9992-2.5263 4.042-20.71547 30.3153-40.42039 57.0937-19.19967 27.2838-49.51494 69.2199-67.19884 93.9774-17.17865 24.2522-44.96765 63.1568-61.64104 86.3985-16.6734 22.7364-30.31527 42.4414-30.31527 43.9571 0 1.5158 10.10509 16.6734 22.73645 33.8521 12.12611 17.6839 33.34679 47.4939 46.48341 66.1883 13.64187 19.1997 40.42035 56.5885 59.62002 83.367 19.70492 27.2837 44.46239 62.1463 55.57799 78.3144 11.11557 16.1682 33.34677 47.4939 49.51497 70.7356 16.1681 22.7365 36.3783 52.0412 44.9676 65.6831 8.0841 13.1366 17.1787 22.2312 20.2102 20.7154 6.5683-4.042 2.5263-57.599-6.5683-95.493-5.5578-23.747-9.0946-35.8731-24.7575-78.3145-13.6419-37.3888-12.1261-60.6305 3.0315-45.4729 7.5788 7.5788 63.6621 35.3678 71.2409 35.3678 3.5368 0 6.5683-3.5367 6.5683-7.5788 0-4.042-3.0315-7.5788-6.063-7.5788-7.0736 0-79.8302-65.6831-79.8302-72.2514 0-7.0735 13.1366-3.5368 31.3257 9.0946 22.7365 15.1576 23.2417 15.6629 25.2628 1.0105 1.5157-9.5998 5.0525-11.1156 26.2732-12.6314 13.1366-1.0105 34.3573 2.0211 46.4834 6.0631 21.2207 7.0736 35.3678 3.0315 19.7049-5.5578-14.1471-8.0841-33.3468-38.3993-27.789-43.9571 3.5368-3.5368 27.2838-4.5473 61.1358-3.5368 43.4519 1.0105 55.578 0 54.0622-5.0526-1.0105-3.0315-12.1261-8.5893-24.7574-12.1261-12.1261-3.5367-28.7995-9.0945-37.3889-12.1261l-15.1576-6.063 12.6314-10.1051c7.0735-5.0526 18.1891-11.1156 25.2627-12.6314 7.0735-1.5157 26.2732-6.063 42.9466-10.6103 42.9466-11.6209 194.523-11.6209 237.4696 0 16.6734 4.5473 35.8731 9.0946 42.9466 10.6103 7.0736 1.5158 18.1892 7.5788 25.2627 12.6314l12.6314 10.1051-15.1576 6.063c-8.5894 3.0316-25.2628 8.5894-37.3889 12.1261-12.6313 3.5368-23.7469 9.0946-24.7574 12.1261-1.5158 5.0526 10.6103 6.0631 54.0622 5.0526 33.852-1.0105 57.599 0 61.1358 3.5368 5.5578 5.5578-13.6419 35.873-27.789 43.9571-15.6629 8.5893-1.5158 12.6314 19.7049 5.5578 12.1261-4.042 33.34676-7.0736 46.48336-6.0631 21.2207 1.5158 24.7575 3.0316 26.2732 12.6314 2.0211 14.6524 2.5263 14.1471 25.2628-1.0105 18.1891-12.6314 31.3257-16.1681 31.3257-9.0946 0 6.5683-72.7566 72.2514-79.3249 72.2514-3.5368 0-6.5683 3.5368-6.5683 7.5788 0 4.0421 3.0315 7.5788 6.5683 7.5788 7.5788 0 63.6621-27.789 71.2409-35.3678 15.1576-15.1576 16.6734 8.0841 3.0315 45.4729-15.6629 42.4414-19.1997 54.5675-24.7575 77.8092-8.084 34.8626-12.6313 81.346-8.5893 92.4616 3.5368 8.084 4.5473 8.084 13.6419-3.5368 5.5578-7.0736 12.1261-17.1787 15.1576-22.7365 2.5263-5.5578 18.6944-29.81 36.3783-54.0622 17.1787-24.2522 40.4204-57.0937 51.536-73.2619 11.1156-16.1681 36.3783-51.0307 55.578-78.3144 19.7049-26.7785 45.9781-64.1673 59.62-83.367 13.1366-18.6944 34.3573-48.5044 46.4834-66.1883 12.6313-17.1787 22.7364-32.3363 22.7364-33.8521 0-1.5157-13.6418-21.2207-30.3152-43.9571-16.6734-23.2417-44.4624-62.1463-61.6411-86.3985-17.6839-24.7575-47.4939-66.6936-67.1988-93.9774-19.1997-26.7784-37.3888-53.0517-40.4204-57.0937-2.5262-4.5473-17.1786-26.2732-32.3362-47.9992-15.1577-21.7259-35.3679-51.535904-44.9677-65.683004-9.5998-14.6524-19.7049-25.26277-21.7259-23.74701-13.1366 8.08411 8.084 120.755814 33.852 182.902114 10.6104 24.7575 9.0946 46.4834-2.5263 46.4834-5.5578 0-11.1155-2.021-12.6313-4.5473-5.5578-8.5893-47.9992-26.7785-54.0622-22.7364-4.5473 2.5262-3.0316 5.5578 3.5367 10.6103 22.2312 16.1682 72.2514 68.7146 69.7252 73.2619-1.5158 2.5263-6.0631 2.021-10.6104-2.021-7.5788-6.0631-22.7364-15.6629-36.3783-22.2312-4.042-2.021-9.5998 0-13.1366 4.5473-8.0841 11.1156-41.4309 11.1156-68.20936.5052-16.1681-6.5683-22.2312-7.0735-26.7785-2.5262-4.5472 4.5473-3.0315 6.5683 5.5578 8.5893 13.6419 4.042 32.8416 33.3468 28.2943 44.4624-2.5263 6.5683-10.6103 7.5788-57.0938 4.5473-34.8625-2.021-57.599-1.0105-64.1673 2.5263-8.5893 4.5472-8.084 5.5577 5.5578 8.5893 8.5894 2.021 23.2417 6.063 32.8416 10.1051 9.5998 3.5367 22.2312 8.084 27.789 10.1051 9.5998 3.0315 9.5998 3.5367-2.0211 13.1366-6.5683 5.5578-17.6839 11.1156-25.2627 12.6313-7.0735 1.5158-25.768 6.5683-40.9256 11.1156-39.4098 11.6209-193.0072 11.6209-232.417 0-15.1576-4.5473-33.8521-9.5998-40.9256-11.1156-7.5788-1.5157-18.6944-7.0735-25.2627-12.6313-11.6209-9.5999-11.6209-10.1051-2.0211-13.1366 5.5578-2.0211 18.1892-6.5684 27.789-10.1051 9.5999-4.0421 24.2522-8.0841 32.8416-10.1051 13.6418-3.0316 14.1471-4.0421 5.5578-8.5893-6.5683-3.5368-29.3048-4.5473-64.1673-2.5263-46.4835 3.0315-54.5675 2.021-57.0938-4.5473-4.5473-11.1156 14.6524-40.4204 28.2943-44.4624 8.5893-2.021 10.105-4.042 5.5578-8.5893-4.5473-4.5473-10.6104-4.0421-26.7785 2.5262-26.2733 10.6104-63.6621 10.6104-67.7041.5053-4.0421-11.1156-11.6209-9.5998-36.3783 7.0736-12.1261 8.5893-23.2417 13.1366-24.7575 11.1156-2.021-4.0421 49.0097-57.599 70.7356-73.2619 9.0946-6.5684 9.0946-7.5789 2.021-10.6104-5.0525-1.5158-19.1996 3.5368-34.3573 12.1261-14.6524 8.5894-29.3047 15.6629-33.3468 15.6629-9.5998 0-10.1051-24.2522-.5052-46.4834 25.768-62.1463 46.9886-174.818004 33.852-182.902114-2.021-1.51576-12.1261 9.09461-21.7259 23.74701zm-140.46074 318.815504c2.52627 7.0736 9.59983 13.1366 16.16814 14.1471 9.09458 1.0105 12.1261 5.0526 13.13661 18.1892 2.02102 20.7154 20.21018 30.8205 63.15679 35.3678 17.1787 2.021 31.3258 5.5578 31.3258 8.0841 0 5.0525-59.1148 22.7364-76.79868 23.2417-13.13662 0-23.24171 15.6629-20.71543 31.3258 1.01051 7.5788-2.52628 13.1366-10.10509 17.1786-6.06305 3.0315-14.65238 10.1051-18.18916 15.1576-6.56831 8.5894-10.10509 6.0631-50.52544-34.3573-23.74696-24.2522-43.45188-47.4939-43.45188-51.5359 0-5.5578 83.36698-88.4195 89.93528-88.9248.50526 0 3.53678 5.5578 6.06306 12.1261zm1042.3398 48.5044c13.1366 12.1261 23.747 25.2628 23.747 29.3048 0 3.5368-19.7049 26.2732-43.4519 50.5254-40.4204 40.4204-43.9571 42.9467-50.5254 34.3573-3.5368-5.0525-12.1261-12.1261-18.1892-15.1576-7.5788-4.042-11.1156-9.5998-10.1051-17.1786 2.5263-15.6629-7.5788-31.3258-20.7154-31.3258-17.1787-.5053-72.7567-17.1787-74.7777-22.7365-1.0105-3.0315 11.6209-6.5683 29.3048-8.5893 42.9466-4.5473 61.1358-14.6524 63.1568-35.3678 1.0105-13.1366 4.042-17.1787 13.1366-18.1892 7.0736-1.0105 13.6419-7.0735 16.6734-14.6523l5.0525-13.1367 21.2207 19.705c11.6209 10.6103 31.8311 29.81 45.4729 42.4413z" style="stroke-width:.505254"/></svg>