<svg height="960" style="" width="1200" xmlns="http://www.w3.org/2000/svg"><path d="m319.48313 846.26087c2.08695 6.26083 8.34782 10.43483 13.56521 10.43483 5.2174 0 11.47827-4.174 13.56522-10.43483 2.08696-6.26087-4.17391-11.47826-13.56522-11.47826-9.3913 0-15.65217 5.21739-13.56521 11.47826zm498.78261-58.43478c0 10.43478 7.30434 15.65217 18.7826 13.56521 21.91305-4.17391 19.82609-22.95652-2.08695-27.13043-10.43478-2.08696-16.69565 3.13043-16.69565 13.56522zm-339.13044-6.26087c-3.13043 5.21739 0 13.56521 5.21739 16.69565 6.26087 4.17391 16.69565 17.73913 21.91305 29.21739 5.21739 12.52174 18.7826 36.52174 30.26087 54.26084 11.47826 16.6957 25.04347 41.7392 31.30434 54.2609 5.21739 13.5652 18.78261 24 31.30435 24s26.08696-10.4348 31.30435-24c6.26087-12.5217 19.82609-37.5652 31.30435-54.2609 11.47826-17.7391 24-38.60867 27.13043-46.95649 4.17391-8.34783 13.56522-22.95652 21.91305-33.39131 9.3913-10.43478 11.47826-18.7826 4.17391-22.95652-15.65218-9.3913-42.78261 6.26087-77.21739 44.86957-15.65218 17.73913-32.34783 32.34785-36.52174 32.34785-5.21739 0-28.17392-18.78263-52.17392-41.73916-42.7826-42.78261-58.43478-50.08695-69.91304-32.34782zm370.43478-151.30435c0 7.30435-7.30434 19.82609-15.65217 27.13043-35.47826 29.2174-12.52174 67.82609 49.04348 83.47827 18.78261 5.21739 60.52174 18.7826 91.82609 31.30434 106.43472 42.78261 132.52172 38.6087 76.17392-10.43478-16.6957-13.56522-60.52175-52.17391-98.08697-85.56522-67.82609-59.47826-103.30435-75.13043-103.30435-45.91304zm-584.34782 29.21739c-26.08696 22.95652-68.86957 61.56522-96 84.52174-79.304352 66.78261-63.65218 75.13043 54.26087 28.17391 31.30435-12.52174 73.04348-26.08695 91.82608-31.30434 61.56522-15.65218 84.52174-54.26087 49.04348-83.47827-8.34782-7.30434-15.65217-19.82608-15.65217-27.13043 0-27.13044-36.52174-14.6087-83.47826 29.21739zm-41.73913-58.43478c0 9.3913 7.30435 14.60869 17.73913 12.52174 26.08695-5.21739 29.21739-29.21739 4.17391-29.21739-12.52174 0-21.91304 6.26087-21.91304 16.69565zm208.69565-169.04348c0 14.6087 37.56522 89.73913 74.08696 147.13043 10.43478 16.69566 24 40.69566 30.26087 52.17392 28.17391 54.26087 50.08695 83.47826 62.60869 83.47826s34.43478-29.21739 62.6087-83.47826c6.26087-11.47826 19.82608-35.47826 30.26087-52.17392 36.52174-57.3913 74.08695-132.52173 74.08695-147.13043 0-11.47826-30.26087-14.6087-166.95652-14.6087s-166.95652 3.13044-166.95652 14.6087zm350.6087-130.43478c-9.39131 14.60869 16.69565 30.26087 56.34782 34.43478l36.52174 3.13043-2.08696 69.91305c-1.04347 39.65217 2.08696 70.95652 7.30435 70.95652 9.39131 0 46.95652-54.26087 66.78261-93.91304 4.17391-8.34783 13.56522-27.13044 21.91304-41.73913 24-41.73913 4.17392-52.17392-94.95652-52.17392-46.95652 0-88.69565 4.17392-91.82608 9.39131zm-557.2174 4.17391c-8.34782 9.3913-8.34782 19.82609 1.04348 35.47826 7.30435 12.52174 24 43.82609 37.56522 70.95652 46.95652 86.6087 73.04348 90.78261 56.34783 6.26087-12.52174-64.69565-3.13044-84.52174 42.7826-84.52174 34.43479 0 64.69566-20.86956 51.13044-34.43478-12.52174-13.56522-177.39131-8.34783-188.86957 6.26087zm471.65218-144c-7.30435 31.30435 2.08695 61.56522 16.69565 52.17391 13.56522-8.34782 13.56522-64.69565 0-73.04347-5.21739-3.13044-12.52174 6.26086-16.69565 20.86956zm-250.43478-32.34783c-8.34783 21.91305 3.13043 51.13044 16.69565 42.78261 5.21739-3.13043 10.43478-15.65217 10.43478-26.08695 0-26.08696-18.78261-37.56522-27.13043-16.69566zm127.30434-106.43478c-3.13043 13.56522-6.26087 40.69565-6.26087 61.56522 0 20.86956-7.30434 60.52174-15.65217 87.65217-17.73913 62.6087-8.34783 78.26087 46.95652 78.26087s64.69565-15.65217 46.95652-78.26087c-8.34782-27.13043-15.65217-66.78261-15.65217-87.65217 0-56.34783-10.43478-84.52174-31.30435-84.52174-10.43478 0-20.86956 10.43478-25.04348 22.95652z" style="stroke-width:1.04348"/></svg>