<svg height="960" style="" width="810" xmlns="http://www.w3.org/2000/svg"><path d="m404.42868-29.999929a575.45121 575.45121 0 00-165.72555 24.553147c-28.48754 102.787682-89.31834 262.995602-112.42559 317.640832-6.14506 14.53214-8.85639 33.09099-.96237 47.10899 94.57598 167.94625 124.91112 308.89932 131.71736 440.3363 7.01248 135.41852 92.66827 190.36056 147.96748 190.36066 55.29922 0 140.95502-54.94218 147.96749-190.36066 6.80627-131.43708 37.14135-272.39005 131.71735-440.3363 7.89399-14.01803 5.18266-32.57688-.96237-47.10899-23.1074-54.64552-83.94527-214.8532-112.43262-317.640832a575.45121 575.45121 0 00-166.28985-24.553147 575.45121 575.45121 0 00-.57133 0zm.57133 188.459349 111.80275 170.99161-111.80275 170.99162-111.80274-170.99162z" style="stroke-width:1.19886"/></svg>