<svg height="960" style="" width="1200" xmlns="http://www.w3.org/2000/svg"><path d="m634.6229 621.76518c3.14755 31.4754 12.59017 44.06557 36.19672 44.06557 48.78688 0 44.06557-77.11475-4.72132-83.40983-31.4754-4.72132-36.1967 0-31.4754 39.34426zm-138.49178-18.88525c-14.16394 36.19672 6.29508 73.96721 36.19671 67.67212 17.31147-3.14754 29.90164-22.03278 33.04918-48.78687 4.72131-34.62295-1.57377-42.4918-28.32787-42.4918-17.31147 0-36.19672 11.01639-40.91802 23.60655zm280.13111-146.36064c-28.32787 28.32788-22.03279 70.81966 12.59016 80.26229 39.34426 9.44262 69.2459-25.18033 55.08197-67.67211-11.01639-34.62296-39.34427-40.91804-67.67213-12.59018zm-133.77048-7.86885c-6.29507 4.72131-11.01639 26.7541-11.01639 47.21311 0 25.18032 9.44262 36.19672 29.90164 36.19672 39.34426 0 53.50819-22.03278 40.91803-62.9508-9.44262-31.47542-39.34426-40.91804-59.80328-20.45903zm-144.78686 18.88525c-12.59017 42.4918 1.57377 64.52458 40.91802 64.52458 25.18033 0 31.47541-9.44263 26.7541-42.4918-6.29508-53.50819-51.93442-67.67212-67.67212-22.03278zm-141.63933 1.57378c-14.16394 42.49178 15.7377 77.11473 55.08195 67.67211 34.62295-9.44263 40.91803-51.93441 12.59018-80.26229-28.32788-28.32786-56.65574-22.03278-67.67213 12.59018zm410.75405-143.21312c-34.62295 37.77049-20.45902 64.52459 29.90163 64.52459 45.63935 0 56.65573-15.7377 44.06558-59.80327-11.0164-42.49179-37.77049-44.06557-73.96721-4.72132zm-125.90163-4.7213c-17.31147 45.63934-9.44262 69.24589 20.45902 69.24589 39.34426 0 53.50819-22.03278 40.91803-62.95081-12.59017-37.77049-47.21311-40.91803-61.37705-6.29508zm-143.21309 6.29508c-4.72132 17.31148-4.72132 37.77048 0 47.21311 14.16393 23.60655 70.81966 18.88524 70.81966-6.29508 0-69.2459-51.93443-99.14753-70.81966-40.91803zm-138.49179 3.14754c-12.59017 44.06557-1.57377 59.80327 44.06556 59.80327 50.36065 0 64.52458-26.7541 29.90165-64.52459-36.19673-39.34425-62.95082-37.77047-73.96721 4.72132zm136.91802-135.34424c-14.16394 55.08195 12.59015 80.26228 64.52458 56.65572 29.90163-14.16393 48.78687-14.16393 78.68851 0 51.93443 23.60656 78.68852-1.57377 64.52459-56.65572-12.59016-50.36066-34.62295-51.93443-73.9672-6.29509l-29.90165 36.19672-29.90163-36.19672c-39.34426-45.63934-61.37705-44.06557-73.9672 6.29509zm-221.90162-78.68853c-37.77049 39.34427-67.67213 80.2623-67.67213 91.27868 0 11.0164-18.88524 40.91803-42.49179 66.09836-40.91803 42.49179-44.06557 55.08196-44.06557 180.98358 0 103.86885 7.86885 147.93441 31.47541 195.14753 39.34425 77.11473 121.1803 162.09834 212.45899 221.90161 66.09835 42.49179 80.26228 44.06551 236.06554 44.06551s169.96721-1.57372 236.06556-44.06551c91.27867-59.80327 173.11469-144.78688 212.45899-221.90161 23.6066-47.21312 31.4755-91.27868 31.4755-195.14753 0-125.90162-3.1476-138.49179-42.4918-180.98358-25.1804-25.18033-44.06567-55.08196-44.06567-66.09836 0-31.47541-132.19671-163.672152-162.09834-163.672152-34.62295 0-34.62295 39.344257 1.57378 66.098372 51.93441 39.34428 144.78688 223.47541 144.78688 286.42622 0 23.60656 7.8688 53.50819 17.3115 69.24589 12.59015 20.45902 9.44265 42.49181-9.4427 88.13114-26.75407 64.52459-169.96717 214.03276-204.59011 214.03276-11.01638 0-40.91803 11.0164-64.52458 23.60655-58.22951 29.90165-174.68851 29.90165-232.91802 0-23.60655-12.59015-53.50818-23.60655-64.52457-23.60655-34.62295 0-177.83604-149.50817-204.59014-214.03276-18.88525-45.63933-22.03279-67.67212-9.44263-88.13114 9.44263-15.7377 17.31148-47.2131 17.31148-72.39343 0-55.08196 99.14753-251.80325 141.63933-281.70489 17.31147-12.590129 31.4754-33.049165 31.4754-45.639313 0-44.06561-56.65573-20.459036-121.18031 50.360623z" style="stroke-width:1.57377"/></svg>