<svg height="960" style="" width="1444" xmlns="http://www.w3.org/2000/svg"><path d="m1036.1598 77.153324c1.6081 3.7523 6.9685 8.0406 12.865 9.1127 5.3604 1.0721 12.3289 4.8244 14.4731 9.1127s6.9686 7.504596 10.1848 7.504596c7.5046 0 43.9554 28.4102 78.2619 61.1087 61.6448 58.4285 102.9199 125.9696 132.4022 216.5607 13.401 40.7391 13.401 159.7402 0 200.4794-27.8741 85.2305-61.1087 142.5869-117.393 201.5514-30.0184 31.6264-84.6944 76.1178-93.8072 76.1178-2.6801 0-7.5045 3.2163-9.6487 7.5046s-9.1127 8.0407-14.4731 9.1127c-12.3289 2.6802-18.2254 15.5452-6.9685 15.5452 4.8243 0 11.7929-3.7523 16.6173-8.0407 4.2883-4.2882 12.3289-8.0405 18.2254-8.0405 5.8964 0 13.4009-3.7524 17.1533-8.0406 3.7523-4.2884 10.1847-8.0407 13.937-8.0407 4.2884 0 7.5046-2.1442 7.5046-4.2883 0-2.6802 5.8964-7.5046 12.8649-10.7208 38.595-17.6894 130.7941-123.8256 161.3484-186.0063 32.1624-65.9331 34.3066-78.262 34.3066-176.8936s-2.1442-110.9605-34.3066-176.8936c-30.5543-62.1807-122.7534-168.3169-161.3484-186.0063-6.9685-3.2162-12.8649-8.0406-12.8649-10.7208 0-2.1442-3.2162-4.2883-7.5046-4.2883-3.7523 0-10.1847-3.752296-13.937-8.040596-3.7524-4.2884-11.2569-8.0407-17.1533-8.0407-5.8965 0-13.9371-3.7522-18.2254-8.0406-10.1848-9.6487-25.194-10.7208-22.5138-1.6081zm-162.95655-2.6802c5.8965 8.5767 16.0812 19.8335 22.5137 25.729996 14.4731 12.865 53.0681 63.2529 65.9331 86.8387 20.9056 38.0589 6.9686 90.5909-30.5543 113.6407-19.2975 11.7929-74.5098 16.0813-80.9422 5.8964-1.6082-2.6802-13.9371-10.1847-27.8742-16.0812-37.5229-16.6173-63.7889-12.865-41.2752 5.8965 11.2569 9.1127 23.5858 33.7705 23.5858 47.1716 0 7.5045-6.9685 14.4731-21.4416 21.9776-38.595 19.8336-113.6407 13.9371-181.1819-13.937-9.6488-4.2883-20.9056-7.5046-25.1939-7.5046-8.5767 0-11.2569 13.9371-3.2163 17.1533 5.8965 2.1442 54.1401 63.7889 54.1401 68.6133 0 5.8965-30.0182 10.7208-66.4691 10.7208-17.6893 0-68.6132 3.2162-113.1047 8.0406-43.9553 4.2884-128.6498 11.7929-187.61433 16.6173-123.28946 9.6488-144.73111 12.329-139.90673 17.1534 2.14416 1.608 29.48226 4.8243 61.10869 6.9685 71.82951 4.2883 186.00627 13.401 303.93527 23.5858 50.388 4.8244 102.384 8.0406 116.8571 8.0406 28.9461 0 32.1624 6.9685 12.8649 27.3381-20.9056 21.9777-46.6356 56.8204-46.6356 63.7889 0 7.5046 3.7523 6.4325 56.2843-13.401 31.6265-11.7929 46.0996-14.4731 92.1991-14.4731 47.7077 0 56.2843 1.072 70.7574 11.2569 9.1127 6.4324 16.6173 16.6172 16.6173 22.5136 0 13.4011-12.3289 38.0589-23.5858 47.1717-22.5137 18.7614 3.7523 22.5137 41.2752 5.8965 13.9371-5.8965 26.266-13.4011 27.8742-16.0813 1.608-3.2162 16.6172-5.3604 33.2345-5.3604 52.532 0 87.3747 33.2346 87.3747 83.0864 0 34.8427-19.8336 68.0772-79.3341 133.4742-15.5451 17.1534-27.338 32.1625-26.802 33.2345 5.8964 5.3605 88.9828-28.9462 130.258-53.604 99.16765-58.9646 173.67725-139.9068 205.30365-222.9932 36.9869-98.0955 36.9869-182.254-.536-285.7099-3.7523-11.2569-10.1848-23.0498-13.4011-26.266-3.7523-3.7523-6.4325-9.1128-6.4325-12.865 0-10.7208-48.2436-72.9016-79.87-102.92-39.131-37.5228-94.3432-76.1178-139.90675-97.559396-13.401-6.4325-28.4102-13.9371-34.3066-17.1533-8.0407-4.2884-55.7483-20.36961-61.1087-20.36961-1.0722 0 2.6802 6.43251 8.5766 14.47311zm214.95255 228.889596c65.9329 48.7798 91.6629 99.1676 91.6629 177.9656 0 45.0275-3.7522 61.1087-25.73 100.7758-12.3289 23.5858-21.9776 33.7706-55.7481 60.0366-43.9554 34.3066-56.2843 32.1625-43.9554-7.5046 3.7523-13.9371 7.5046-30.0182 7.5046-35.3787 0-17.6893-16.0812-30.0182-38.595-30.0182-21.9776 0-27.33815-9.1128-12.3289-21.4417 10.7208-9.1127 10.1848-23.5859-1.0721-33.2346-19.29755-16.0812-55.21225-20.3695-187.07845-23.0497-144.195-3.2163-213.8804-7.5047-209.056-12.329 1.6081-1.6081 78.7981-4.8244 170.4611-6.9686 166.1727-4.2882 206.3758-9.1126 225.67335-25.1939 11.2569-10.1848 11.7929-24.1218 1.0721-33.2345-14.47315-12.329-9.6487-21.4416 11.7929-21.4416 34.3066 0 46.6356-22.5138 34.3066-62.1809-11.2568-35.3787-11.7929-45.0274-2.6802-45.0274 4.8244 0 19.8336 8.0407 33.7706 18.2254z" style="stroke-width:.536041"/></svg>