<svg height="960" style="" width="1450" xmlns="http://www.w3.org/2000/svg"><path d="m815.7996 986.80751c-16.49255 3.4722 16.49254 7.8123 88.53894 11.2844 130.20436 6.07619 205.72286-3.4721 102.42746-13.0205-72.91447-6.9441-155.37722-6.0761-190.9664 1.7361zm-390.61302 0c-37.32525 4.3401-39.92933 6.0763-19.09664 10.4163 34.72117 7.81239 258.67262-2.604 231.76373-10.4163-26.04087-6.9442-151.03703-6.9442-212.66709 0zm698.76332-25.1729c0 4.3402 18.2285 8.6803 41.6653 7.8124 30.3811 0 36.4573-2.6041 23.4368-7.8124-24.3047-10.4163-65.1021-10.4163-65.1021 0zm-863.68881 0c-13.02043 5.2083-6.94423 7.8124 24.30481 7.8124 22.56875.8679 40.79736-3.4722 40.79736-7.8124 0-10.4163-40.79736-10.4163-65.10217 0zm-129.33631-359.36387c-9.54831 25.17284-15.62451 215.27113-7.81225 249.99236 4.34014 19.09665 13.02042 36.45714 19.96466 39.92934 56.42188 26.90888 79.85866 33.85307 124.12813 38.19317 27.77693 1.7362 56.42188 8.6803 64.23414 14.7565 10.41635 8.6803 96.35121 11.2844 383.66878 11.2844 322.90676 0 374.98846-2.6041 411.44576-14.7565 22.5687-7.8122 56.4218-14.7565 75.5185-14.7565 18.2286 0 46.0056-6.94424 62.4981-14.75646 15.6246-7.81223 34.7211-16.49254 41.6654-19.96461 20.8327-9.54839 27.7769-66.83822 22.5687-176.20989-5.2081-99.82335-15.6244-148.43297-26.0408-118.91998-2.6041 6.94423-8.6803 36.45721-14.7565 65.10216-19.0966 100.6913-22.5687 113.71177-38.1933 137.14857-10.4163 16.49253-19.9646 22.56872-29.513 18.22857-7.8123-2.60399-25.1729-9.54826-39.9294-13.88842-13.8884-5.20823-28.6449-12.15238-32.9851-14.75649-3.472-3.47208 5.2082-28.64492 19.9647-56.42188 13.8885-27.77694 23.4368-54.68583 20.8326-59.02597-6.0761-9.54833-125.864 116.31593-121.524 128.46831 4.3401 11.2843 46.0057 20.83269 90.275 20.83269 28.6451 0 52.9498 17.36049 53.8179 39.06125.8679 26.04093-263.01281 56.42188-488.70032 56.42188-226.55556 0-484.36014-30.38095-483.49212-56.42188.86803-21.70076 25.17284-39.06125 53.81779-39.06125 44.26948 0 85.93487-9.54839 90.27501-20.83269 4.34016-12.15238-115.44784-138.01664-121.52404-128.46831-2.60409 4.34014 6.94422 30.38101 20.83269 58.15789 14.7565 27.77696 23.43678 52.9498 20.8327 55.55392-1.73606 2.60412-22.56876 11.2843-45.13751 19.96461-40.79735 15.62458-40.79735 15.62458-56.42187-4.34016-7.81226-10.41634-17.36057-28.64491-19.09663-40.79729-2.6041-12.15238-8.6803-35.58919-13.02044-52.08176-4.34014-16.49256-10.41634-48.60962-13.02044-72.0464-6.94423-44.26946-16.49254-58.15793-25.17284-35.58918zm765.6015-46.87356c-13.02042 26.9089-32.98509 98.08726-32.98509 119.78798 0 13.02043 37.32524-32.11707 55.55385-66.83822 16.49255-32.98509 18.22861-80.72668 2.60408-80.72668-6.0762 0-17.36058 13.02043-25.17284 27.77692zm-217.87525-89.40698-32.11708 33.85312v83.33078c0 45.13751 3.47213 84.1988 7.81227 87.67092 5.20817 2.60409 11.28437 22.56874 14.75648 43.40144 7.81227 53.81781-3.47211 65.10211-65.97019 65.10211-43.40144 0-54.68582-3.47207-87.67092-29.51287-36.45722-29.513-54.68582-34.72123-34.72116-11.28443 14.75649 18.22857 1.73607 40.7973-24.30481 41.66538-16.49254.86808-12.1524 3.47207 14.75649 9.54839 20.8327 4.34003 39.92934 13.88841 42.53342 20.83269 2.60409 6.94414 9.54832 12.15238 16.49256 12.15238 6.94422 0 12.1524 3.47207 12.1524 8.6803 0 4.34016 4.34014 8.68019 9.54831 8.68019 5.20818 0 7.81227-7.81223 5.20818-17.36049-6.07621-24.30489 19.96467-36.45727 70.31034-32.98507 36.45721 2.60399 40.79737 5.20811 43.40145 24.30476 6.0762 59.02599 7.81226 60.76202 53.81779 60.76202s47.74159-1.73603 53.81779-60.76202c2.60409-19.09665 6.94423-21.70077 45.13751-24.30476 32.98509-2.60412 46.00553.86795 60.76202 14.75637 18.2286 17.36061 18.2286 17.36061 56.42188 0 20.8327-8.68018 42.53338-16.49253 49.47765-16.49253s4.34016-7.81223-8.68031-21.70065c-24.30479-26.04092-34.72114-26.90887-63.36609-4.34015-16.49255 13.02046-35.58918 17.36049-71.17837 17.36049-66.83823 0-73.78246-6.07619-66.83823-57.28983 2.60408-23.4368 9.54832-46.00555 13.88847-50.34569 5.20817-5.20818 8.68028-45.1375 8.68028-90.275v-81.59473l-32.11707-33.85312c-17.36058-18.22861-38.19327-33.85312-46.00553-33.85312-7.81227 0-28.64495 15.62451-46.00553 33.85312zm-214.40314 2.60409c0 26.90889 7.81225 48.60961 26.04086 76.38654 13.88846 21.70072 26.04087 44.26947 26.04087 50.34567 0 6.07621 6.0762 13.02044 13.02044 15.62453 6.94423 3.47211 13.02043 10.41635 13.02043 16.49255 0 6.94423 4.34014 14.75648 9.54831 17.36056 16.49255 11.28439 19.09664-4.34014 6.07621-32.11705-13.02044-26.9089-24.30481-52.08174-54.68583-121.52405-6.0762-15.62453-13.88846-35.58918-16.49254-44.26948-8.6803-27.77692-22.56875-14.75648-22.56875 21.70073zm672.72241-125.86419c-38.1933 51.2137-78.1226 110.23966-89.4069 131.94039-10.4164 21.70072-22.5689 46.00553-26.909 52.94977-27.77687 50.34567-36.45718 71.17837-31.24907 76.38654 3.4722 3.47211 13.88857-5.20817 24.30487-19.96467 10.4164-13.88845 25.1729-32.11706 32.9851-39.92933 27.7769-27.77692 85.0668-108.50361 93.7471-131.94039l9.5484-24.30481 26.9088 18.2286c13.8885 10.41635 31.2491 26.90891 36.4572 35.58919 11.2844 18.22861 32.1172 22.56875 32.1172 6.94423 0-9.54831-32.1172-59.89399-44.2696-68.57429-16.4925-13.02042-16.4925-46.00553 0-78.99062 19.0967-36.45721 22.5687-51.21371 11.2844-51.21371-3.472 0-37.3252 41.66539-75.5185 92.8791zm-907.09022-84.19881c0 4.34014 7.81226 23.43678 18.22861 42.53342 16.49254 32.98509 16.49254 65.9702 0 78.99062-12.15241 8.6803-44.26948 59.02598-44.26948 68.57429 0 15.62452 20.8327 11.28438 32.11707-6.94423 5.20817-8.68028 22.56875-25.17284 36.45722-35.58919l26.90889-18.2286 9.54832 24.30481c8.68028 23.43678 65.9702 104.16347 93.74712 131.94039 7.81227 7.81227 22.56875 26.04088 32.98509 39.92933 35.58919 50.34568 28.64497 14.7565-13.88845-68.57428-23.43678-46.00554-73.78246-124.99616-111.10771-174.47381-62.49807-85.06684-80.72668-103.29545-80.72668-82.46275zm763.8654-26.04087c0 5.20817 9.54842 13.02044 21.70082 17.36058 12.1523 4.34014 21.7007 12.1524 21.7007 17.36057 0 11.28438 32.117 11.28438 39.0613 0 2.6041-5.20817-4.3402-12.1524-15.6246-16.49254-12.1524-5.20817-24.3048-13.02044-27.7768-17.36058-6.9443-12.1524-39.06142-12.1524-39.06142-.86803zm-577.23918.86803c-3.47212 4.34014-15.62453 12.15241-27.77694 17.36058-11.28437 4.34014-18.2286 11.28437-15.62451 16.49254 6.94423 11.28438 39.06129 11.28438 39.06129 0 0-5.20817 9.54833-13.02043 21.70074-17.36057 12.1524-4.34014 21.70071-12.15241 21.70071-17.36058 0-11.28437-32.11707-11.28437-39.06129.86803zm285.58151-289.921664c-7.81227 13.020436-14.7565 29.512982-13.88847 37.325246 0 6.944233-4.34014 22.568749-9.54831 32.985106-7.81226 16.492538-6.94423 26.040858 5.20817 46.873558 19.96467 34.72115 19.09664 111.107694-.86803 148.432944-7.81226 14.7565-31.24904 52.08173-51.2137 81.59471-19.96467 30.38102-32.98511 56.42189-28.64496 59.02597 4.34015 2.60409 11.28438-2.60408 16.49255-10.41634 6.07621-11.28438 11.28438-13.02044 18.22861-6.07621 6.94422 6.94424 5.20817 17.36058-6.0762 37.32525-14.7565 26.04087-14.7565 27.77692 0 36.45722 7.81225 4.34014 14.75648 14.75648 14.75648 20.83268 0 18.22861 6.94424 16.49256 36.45722-8.68028 13.88847-12.1524 32.98511-21.70072 41.66539-21.70072 8.68029 0 27.77692 9.54832 41.66539 21.70072 29.51298 25.17284 36.45721 26.90889 36.45721 8.68028 0-6.0762 6.94423-16.49254 15.62452-20.83268 13.88846-8.6803 13.88846-10.41635-.86802-36.45722-11.28439-19.96467-13.02044-30.38101-6.0762-37.32525 6.94422-6.94423 12.1524-5.20817 18.2286 6.07621 5.20818 7.81226 12.15241 13.02043 16.49255 10.41634 4.34014-2.60408-8.68029-28.64495-28.64495-59.02597-19.96467-29.51298-43.40145-68.57427-51.21371-87.67091-19.09664-40.79736-19.96467-108.503624-2.60408-131.940404 14.75648-19.09664 17.36057-52.081727 4.34014-59.893991-4.34014-2.604079-7.81227-13.888466-6.94424-24.30481 1.73607-19.096639-24.30481-66.838225-36.45721-66.838225-3.47211 0-13.88847 10.41635-22.56875 23.436776z" style="stroke-width:.868029"/></svg>