<svg height="960" style="" width="1206" xmlns="http://www.w3.org/2000/svg"><path d="m754.55617 492.40639c-1.2717 4.2389-4.6627 16.9554-7.6299 28.8241-2.9672 11.4449-9.7494 28.4002-15.2598 37.3018-13.9882 22.4658-39.4212 49.5943-46.2033 49.5943-3.3911 0-5.9344 2.9672-5.9344 6.3583 0 5.5105 11.4448 6.3582 75.8751 6.3582 48.3228 0 77.1468-1.6955 78.8424-4.2388 1.6955-2.5433-.4239-9.7493-4.6627-16.1076-4.2389-6.3582-10.1732-15.2598-12.7165-19.9225-2.5434-4.6627-9.7494-18.227-16.1076-29.6719-36.454-66.1258-42.3884-73.7557-46.2033-58.4959zm-319.6082 6.3583c-4.2388 7.6299-9.3254 17.3792-11.8687 21.1942-2.1195 3.8149-9.7494 17.3792-16.5315 29.6718s-14.412 26.2808-16.9553 30.9435-8.4777 13.5643-12.7165 19.9225c-4.2389 6.3583-6.3583 13.5643-4.6628 16.1076 1.6956 2.5433 30.5197 4.2388 78.8424 4.2388 64.4303 0 75.8751-.8477 75.8751-6.3582 0-3.3911-2.5433-6.3583-5.9343-6.3583-6.7822 0-32.2152-27.1285-46.2034-49.5943-5.5104-8.9016-12.2926-25.8569-15.2598-37.3018-2.9671-11.8687-6.3582-24.5852-7.6299-28.8241-2.9671-11.0209-8.9015-8.9015-16.9553 6.3583zm149.6309-108.5142c-1.2717 3.8149-2.5433 19.4986-2.5433 35.1823 0 16.5315-2.1194 30.5196-5.0866 33.4868s-17.8031 5.0866-37.7257 5.0866c-34.7584 0-37.7256 1.6956-37.7256 23.3136 0 14.8359 8.0538 18.6509 44.5078 19.9225l33.9107 1.2717 2.1194 36.0301 2.1194 36.0301h19.0748 19.0747l2.1194-36.0301 2.1194-36.0301 33.9107-1.2717c36.454-1.2716 44.5078-5.0866 44.5078-19.9225 0-21.618-2.9672-23.3136-37.7256-23.3136-19.9226 0-34.7585-2.1194-37.7257-5.0866s-5.0866-16.9553-5.0866-33.4868c0-38.5734-1.6955-41.9644-21.1941-41.9644-10.5971 0-16.9554 2.1194-18.6509 6.7821zm5.9344-162.7713c-2.5434 5.5105-8.4777 16.5315-13.1404 24.5853-5.0866 8.0538-13.9882 24.1613-20.3464 35.1823-19.0748 35.1823-20.3465 37.3017-25.4331 42.3883-11.0209 11.021-1.2716 26.7047 10.5971 16.5315 19.0748-16.9553 103.0037-16.9553 122.5024 0 11.4448 10.1732 21.1941-5.5105 10.1732-16.5315-5.0866-5.0866-6.3583-7.206-25.433-42.3883-6.3583-11.021-15.2598-27.1285-20.3464-35.1823-4.6628-8.0538-10.5971-19.0748-13.1404-24.5853-2.1195-5.0866-7.6299-9.3254-12.7165-9.3254s-10.5971 4.2388-12.7165 9.3254zm-23.3136-240.341938c-16.1076 10.5970902-33.4868 20.7703002-38.1496 23.3136-4.6627 2.5433-13.5642 7.6299-19.9225 11.86874-6.3582 3.81495-28.4002 17.37922-48.7466 30.09569-51.2899 31.791303-56.3765 36.030103-65.7019 56.376508-5.0866 10.1732-17.3793 36.454-27.9763 58.496-10.1733 22.0419-24.1614 51.7138-30.5197 65.7019-6.3582 13.9882-20.7703 44.5078-31.7912 67.8214-11.021 23.3136-25.433 53.8332-31.7913 67.8213-6.3582 13.9882-20.7703 44.5078-31.7913 67.8214-11.0209 23.3136-25.433 53.8332-31.7912 67.8214-6.3583 13.9881-20.7703 44.0838-31.7913 66.5497-11.86872 24.5852-18.65086 44.0839-17.37921 48.7466 1.69554 4.2388 13.14039 15.2598 25.85691 24.5852 12.7165 9.3255 22.8897 19.0748 23.3136 22.042 0 4.6627-64.8542 50.4421-81.80954 57.2242-3.81495 1.6956-7.20602 5.0866-7.20602 7.2061 0 5.9343 12.29262 17.3792 19.07476 17.3792 3.39107 0 13.14039 2.9672 22.04194 6.7821 8.90156 3.815 22.04196 9.7493 28.82406 12.2926 7.206 2.9672 19.4987 8.4777 27.5525 11.8688 8.0537 3.8149 24.5852 11.021 36.0301 16.1076 56.8003 24.5852 137.7621 64.0064 176.7594 85.6244 13.1404 7.6299 32.2151 18.227 42.3883 23.7375 30.9435 16.9553 98.341 62.7348 108.9381 74.17955 9.7493 10.5971 31.7913 15.2598 35.1823 7.6299.8478-1.6955 14.4121-14.412 30.9435-27.97625 33.4868-28.4002 94.5261-69.093 144.1204-95.7977 18.6509-10.1732 36.8779-19.9225 40.269-21.618 11.4448-6.3583 77.9945-36.454 101.732-46.2033 12.7165-5.0866 29.248-11.8688 36.0301-14.836 23.7375-10.1732 71.63633-27.1285 90.28723-31.7912 23.7375-5.9344 33.4868-18.6509 19.0748-24.5853-16.9554-6.7821-81.80963-52.5615-81.80963-57.2242.4239-2.9672 10.59713-12.7165 23.31363-22.042 12.7165-9.3254 24.1614-20.3464 25.8569-24.5852 2.1194-6.7822-13.1404-44.0839-28.4002-70.7886-2.1194-3.391-5.0866-9.3254-6.3582-12.7165-1.2717-3.391-8.4777-18.6509-15.25983-33.9107-7.2061-15.2598-18.6509-39.845-25.8569-55.1048-6.7822-15.2598-14.4121-30.5196-16.1076-33.9107-2.1194-3.3911-5.0866-9.3254-6.3583-12.7165-1.2716-3.3911-8.0537-18.227-14.8359-33.0629-6.7821-14.4121-17.8031-38.1495-24.5852-52.9855-6.7822-14.412-21.1942-45.3555-32.2152-68.6691-11.0209-23.3136-25.8569-54.681-32.639-69.9408-38.1495-82.233405-50.4421-101.308105-66.1258-101.732005-2.9672 0-6.3583-2.9672-7.6299-6.358303-1.6956-3.391-5.0866-6.3582-8.0538-6.3582-2.5433 0-12.7165-5.5105-21.6181-11.8687-8.9015-6.78219-19.4986-13.14044-22.8897-14.83597-3.3911-1.69554-11.8687-6.78214-19.0748-11.44486-6.7821-4.66272-16.5314-10.1732-21.1941-12.7165-4.6627-2.5432998-13.9882-8.0537898-21.1942-12.7165098-6.7821-4.66272-15.6837-9.7493202-19.0748-11.4448502-3.391-1.69554-8.0537-5.08661-10.5971-8.05379-2.1194-2.96719-9.7493-6.35825-16.9553-7.6299-10.1732-2.11942-18.227.84776-42.3883 16.53145zm57.2242 2.5433c0 2.1194202 4.2389 5.9343702 9.7494 8.0537902 5.0866 2.54329999 15.2598 8.05379 22.0419 12.7165098 7.206 4.66272 15.6837 9.74932 19.0748 11.44485 3.391 1.27165 13.1403 7.62991 21.1941 13.98816s17.8031 12.71652 21.1942 13.98812c8.4777 3.815 20.3464 11.4449 38.1495 24.585303 8.0538 5.9343 18.227 12.2926 22.042 13.5643 9.7493 3.391 5.9343 14.412005-11.021 30.095705-29.6719 27.1285-27.1286 27.1285-73.3319 0-22.8897-13.5643-46.2033-27.128605-52.1376-30.095705-38.1495-21.194203-36.0301-17.3793-37.3018-58.495973-.8477-20.7702998-.4239-39.84506.8478-42.81224 2.1194-5.93437 19.4986-2.96718 19.4986 2.96718zm-6.3582 127.165038c1.6955 2.1194 7.206 6.3583 11.8687 8.4777 5.0866 2.1194 15.2598 7.6299 22.042 12.2926 7.206 4.6627 16.5314 10.1732 21.1941 12.7165 4.6628 2.5433 14.4121 8.0538 21.1942 12.7165 7.206 4.6628 16.5315 10.1732 21.1942 12.7165 30.5196 15.6837 34.3346 19.9226 56.8004 65.702 23.7375 49.1705 52.9854 110.2097 72.4841 152.598 6.3582 13.9882 20.7703 44.5078 31.7912 67.8214 11.021 23.3136 25.8569 54.681 32.6391 69.9408 6.7821 15.2598 15.2598 32.639 18.6508 38.9973 10.1732 18.6508 7.6299 31.3674-8.9015 44.5077-8.0538 6.3583-14.8359 14.836-14.8359 19.0748 0 5.9344 32.639 30.0957 52.1376 38.1495 3.815 1.6956 7.206 5.0866 7.206 7.206 0 5.9344-17.3792 17.3793-26.2807 17.3793-3.815 0-13.5643 2.5433-21.1942 5.9343-7.6299 3.3911-29.248 12.2927-47.8988 19.4987-88.5917 35.6062-193.7148 95.3738-239.4942 136.4905-15.6837 14.412-38.1495 21.618-38.1495 12.7165 0-2.9672-39.8451-34.7585-44.0839-34.7585-.8478 0-11.8688-6.7821-24.1614-14.8359s-33.9107-20.7703-48.3227-27.5524c-13.9882-7.206-28.4002-14.836-31.7913-16.9554-3.391-2.1194-9.3254-4.6627-12.7165-5.9343-3.3911-1.2717-9.3254-4.2389-12.7165-6.3583-8.0538-5.0866-73.7557-35.1823-110.2097-50.4421-8.0538-3.3911-19.9225-8.9016-26.2808-12.2927-5.9344-2.9671-13.9881-5.5104-17.3792-5.5104-7.206 0-19.9225-11.021-19.9225-17.3793 0-2.1194 3.391-5.5104 7.6299-7.206 15.2598-6.7821 34.7584-20.3464 36.8778-25.8569 1.2717-3.391-4.6627-11.4448-13.5642-19.4986l-16.1076-13.9882 7.206-14.412c3.815-7.6299 15.6837-32.639 26.2808-55.1049 10.5971-22.8897 28.4002-60.1914 38.9973-82.6573 11.0209-22.8897 25.0091-52.9854 31.3673-66.9736 11.4449-24.5852 38.9973-83.0811 64.0065-135.6427 6.7821-13.9881 12.2926-27.1285 12.2926-28.8241 0-1.6955 4.6627-10.1732 10.1732-19.0747 6.7821-11.021 22.8897-24.1614 51.2899-41.1167 22.4658-13.9882 46.2033-28.8241 52.1377-32.639 6.3582-4.2389 15.6837-9.3255 20.7703-11.4449 4.6627-2.1194 10.1732-6.3583 11.8687-8.4777 1.2716-2.5433 8.9016-4.6627 16.9553-4.6627 8.0538 0 15.6837 2.1194 16.9554 4.6627zm186.9326 12.2927c1.6955 6.7821 5.5105 14.8359 8.4777 17.3792 3.3911 2.5433 5.9344 6.7821 5.9344 9.7493 0 2.5433 5.9343 16.9553 13.1403 32.2151 7.2061 15.2599 18.6509 38.9973 25.0092 52.9855 6.7821 13.9881 21.1941 44.5078 32.2151 67.8213 10.5971 23.3136 25.433 54.681 32.2152 69.9408 7.206 15.2598 18.227 38.5734 25.0091 52.1377 6.7821 13.1404 12.2926 26.7047 12.2926 30.0957 0 2.9672 2.9672 8.0538 6.3583 11.021 3.391 2.9672 6.3582 8.9016 6.3582 13.5643s2.9672 11.0209 6.3583 14.8359c7.206 6.7821 6.7821 13.9881 0 15.2598-2.5433.4239-4.6627-3.3911-5.5105-8.9016-.8478-5.0866-3.3911-9.3254-5.5105-9.3254s-5.9344-4.2388-8.0538-9.7493c-2.5433-5.0866-8.0538-15.2598-12.2926-22.042-11.8687-18.6508-49.5944-91.5588-114.0247-218.7238-49.1705-97.9171-55.9526-114.0247-52.1376-122.0785 7.6299-13.5643 21.1941-11.4449 24.1613 3.815z" style="stroke-width:.423884"/></svg>