<svg height="960" style="" width="1733" xmlns="http://www.w3.org/2000/svg"><path d="m617.12534 688.9957c-25.9777 19.2824-44.4567 29.4592-63.7391 34.5476-6.4274 1.8747-11.5159 4.285-11.5159 5.6241 0 10.7124 96.9477 1.8747 151.0455-13.6584 24.3708-7.2309 36.4223-9.1056 36.4223-5.624 0 3.2137-70.4343 55.7047-103.1072 76.8618-37.4936 24.103-50.0807 32.1373-59.4541 37.7613-10.9803 6.1597-11.5159 11.7837-.8035 11.7837 14.194 0 70.7022-11.7837 92.3949-19.0146 4.5528-1.6068 11.7837-3.7493 16.0687-4.8206 28.1201-7.2309 87.842-36.1545 121.5862-58.9184 38.0292-25.4421 38.5648-23.2996 5.0884 21.6927-24.6386 33.2086-28.1201 37.4935-65.0781 81.1468-13.3905 15.8008-19.0146 24.37085-16.6043 24.90645 5.3562 1.0712 42.0464-18.74685 67.4884-36.42235 35.3511-24.6386 54.9013-41.2429 81.9502-69.6309 14.194-14.9974 26.5133-26.5133 27.3168-25.7099 1.6068 1.8747-22.764 58.3828-43.1176 99.8936-8.8378 17.9433-14.7296 32.40515-12.855 32.40515 4.0172 0 53.8301-51.15195 68.8275-70.96995 6.6953-8.8378 18.7468-26.7811 26.5133-39.6361 8.0343-13.1227 15.2652-24.103 16.6043-24.9064 5.8918-3.7494 1.6069 25.7099-9.909 67.2206-2.1425 7.2309-4.5528 18.4789-5.624 24.9064-1.6069 9.6412-1.0713 10.9803 2.4103 9.6412 6.6952-2.4103 34.5476-51.9553 47.6703-84.8961 7.2309-17.6755 21.15706-65.3459 21.15706-71.7734 0-6.6953-2.6781-6.4275-19.55016 1.3391-26.5133 11.7837-34.8154 14.194-76.8618 20.6214-30.7983 4.5528-83.2893-1.8747-115.9622-14.194-7.4987-2.9459-16.0687-5.8918-18.7468-6.6953-2.9459-.8034-14.194-6.1596-25.4421-11.7836l-20.3536-10.4447h-44.4566-44.4567zm609.00246-111.4094c-2.9459 2.1425-6.4275 9.909-8.3022 17.9433-6.4274 28.388-8.8377 35.0833-21.9605 62.1322-25.9777 52.7588-67.4884 97.7511-120.7828 130.424l-14.4618 8.8378 2.1425 43.6532c3.2137 77.12965.2678 197.9124-5.3562 225.2292-1.3391 6.4274.8034 14.194 4.0171 14.194 2.6782 0 22.2284-32.673 33.7442-56.2404 12.3194-24.9064 20.8893-46.0634 29.1915-72.30895 4.0171-12.5871 8.8377-27.5845 10.9802-33.4764 2.1425-6.1596 3.7494-13.9262 3.7494-17.6755 0-3.7494 1.6068-12.0515 3.7493-18.7468 4.0172-12.85495 9.6412-62.40005 9.6412-85.43175 0-16.3365 2.1425-26.7812 5.3562-26.7812 2.946 0 36.958 104.1786 49.8129 152.65245 9.3734 35.6189 13.6584 48.47385 16.0687 48.47385 1.339 0 4.5528-9.90905 7.2309-22.22835 4.0172-17.6756 5.0884-35.3511 5.3562-87.84215.5356-58.3828-.2678-69.0952-5.624-97.2154-3.4816-17.1399-9.1056-40.4395-12.5871-51.6876-7.4988-22.2283-7.7666-25.1742-4.0172-25.1742 4.5528 0 45.2601 57.8472 77.6652 110.3382 10.9803 17.9433 21.6927 33.2086 23.5674 33.7442 6.9631 2.1425-2.6781-47.1348-18.479-96.9476-7.4987-23.5674-34.2798-81.6824-41.2429-89.9846-5.0884-6.1596-7.4987-16.0687-4.0172-16.0687 2.946 0 73.3803 62.9357 89.449 80.0756 17.9433 19.0146 16.3364 6.1596-3.4816-29.7271-19.2824-34.5476-40.1717-64.8103-60.5253-87.3064l-15.2652-16.6043h-15.2653c-8.8377 0-17.4077 1.6069-20.3536 3.7494zm57.5794-2.4103c0 2.1425 1.339 4.0171 2.9459 4.0171 1.3391 0 10.9803 5.3563 20.8893 11.7837 31.3339 20.6215 45.5279 28.1202 47.1347 25.7099 2.1425-3.2137-1.339-8.0343-20.0858-28.9236l-14.7296-16.6043h-17.9434c-14.4618 0-18.2111.8034-18.2111 4.0172zm209.4283-106.321c-2.4103 6.963-1.8747 39.636.8034 53.0266.8035 3.4815 5.8919 7.2309 15.2653 10.9802 7.7665 2.9459 31.066 12.5871 51.6875 20.8893 40.4395 16.6043 52.2232 19.818 52.2232 14.9974 0-4.5528-65.0781-69.3631-87.0386-86.503-27.5846-21.4249-29.7271-22.4961-32.9408-13.3905zm-19.2824-123.1932c0 2.6781 1.8747 11.2481 4.0171 18.7468 4.8206 15.8009 1.0713 14.194 51.9554 19.2824 19.818 2.1425 31.0661 2.4103 32.9408.5356 3.7493-3.7493-74.7193-43.1176-86.7708-43.3854-1.3391 0-2.1425 2.1425-2.1425 4.8206zm-67.7562-53.2944c-4.285 1.0713-8.8378 4.285-10.7125 8.3022-3.2137 6.4274-4.5528 6.6952-35.351 8.0343-27.5846 1.3391-33.7443 2.4103-44.1889 8.0343l-12.0515 6.6953-301.2875-1.0712-301.01966-1.0713-14.7296-7.4987c-12.3193-6.4275-18.2112-7.7665-34.5477-7.7665-16.8721 0-20.8892-1.0713-28.3879-6.6953l-8.8378-6.6953h-91.3236-91.3236l-16.8721 14.7296c-17.6755 15.5331-20.3537 19.5503-20.6215 31.3339-.2678 5.0885-3.4815 9.6412-11.248 15.8009l-11.2481 8.8378-9.909-5.6241c-11.7837-6.9631-52.7588-13.3905-57.0438-9.1055-2.9459 2.9459-3.7493 2.6781 18.7468 9.909 16.0687 5.0884 19.2824 8.0343 21.1571 20.3536 1.0712 6.4275 0 10.7125-4.0172 15.8009-4.5528 5.8918-7.4987 6.9631-21.4249 6.9631-17.9433.2678-32.1373 6.963-39.9038 19.2824-2.4103 3.7493-9.6412 12.3193-16.0687 18.7467-13.3906 14.194-14.9974 18.7468-11.5159 35.8867 3.7494 19.8181-2.6781 46.0635-17.4077 70.4344-6.4275 11.248-11.7837 20.8892-11.7837 21.6927 0 1.8746-22.7639 31.0661-39.3682 50.8841-13.6584 16.3365-14.9975 19.0146-17.9434 38.297-.8034 5.0884-3.2137 18.4789-5.0884 29.4592-2.1425 10.9802-7.2309 38.0292-11.2481 60.2575-4.8206 27.0489-9.3734 43.6532-13.6583 51.1519-4.8206 8.3022-7.2309 17.6756-9.1056 37.4936-1.3391 14.4618-3.7494 33.2086-5.3562 41.2429-2.4103 12.85495-2.1425 15.53305 2.1425 21.15715 9.1055 12.0515 17.6755 16.0686 47.4025 21.6927 53.5623 9.909 72.0412 13.6583 85.6996 16.6043 23.2996 5.3562 66.4172 1.0712 74.9871-7.4987 7.2309-7.2309 4.8206-17.9434-5.3562-24.9065-10.7125-7.2309-11.5159-11.248-4.285-18.2111 2.6781-2.6781 6.1597-7.23095 7.7665-10.44475 4.285-8.3021 6.6953-43.6532 3.7494-56.5081-3.4816-15.2653 1.6069-38.5648 12.3193-55.7047 4.5528-7.4987 9.6412-19.5502 11.5159-26.7811 1.6068-7.4988 4.0171-15.2653 5.3562-17.4078s3.4815-6.6952 5.0884-9.909c4.285-10.1768 30.5305-35.6189 36.6901-35.6189 5.6241 0 10.7125 3.7494 17.4078 12.855 1.8746 2.4103 8.5699 9.1055 14.9974 14.7296l11.5159 10.1768 42.0463-1.6069c27.8524-1.0712 45.5279-3.2137 52.7588-5.8918 5.8918-2.1425 15.533-5.8919 21.4249-8.3022 5.8918-2.4103 17.6755-9.909 26.2455-16.6042 8.5699-6.6953 21.6927-16.3365 29.1914-21.6927l13.3906-9.9091 102.036-1.0712c64.8103-.8034 104.982-2.4103 109.2669-4.285 12.5872-5.0884 21.9605-16.3365 34.5477-41.2429 13.9261-28.1202 14.194-28.388 46.8669-28.6558 11.7837 0 43.6532-1.8747 70.97-4.0171 53.02656-4.285 110.33816-8.3022 175.41626-12.3194 22.2283-1.339 68.5596-4.2849 103.1072-6.4274 34.5477-2.4103 84.6284-5.3563 111.1417-7.2309 26.5133-1.6069 54.9012-3.7494 62.9356-4.8206 14.194-1.6069 14.7296-1.8747 18.2111-12.3193 2.946-9.1056 2.946-12.855-.8034-25.9777-3.4815-12.5871-3.7494-17.4077-1.0712-26.7811 4.2849-15.2653 3.2137-62.4-1.6069-71.5056-1.8747-4.0172-5.8919-16.6043-9.1056-28.388-9.909-39.3682-13.3905-50.0807-21.1571-63.739-8.3021-14.4618-14.7296-17.9434-28.1201-15.5331zm-792.45316 25.7099c6.9631 5.8918 10.4447 6.6953 29.4593 6.6953 18.2111 0 23.8351 1.0712 38.8326 8.0343l17.4077 8.3021 302.35876 1.6069 302.3587 1.6069 13.3906-6.6953c12.0515-6.1597 18.4789-6.9631 53.5622-8.8378 46.867-2.1425 43.921-3.7493 57.0438 29.1914 13.9262 35.0833 11.248 39.3683-11.7837 19.0146-9.1056-8.0343-17.4077-13.6583-18.479-12.8549-.8034.8034-1.6068 10.9803-1.6068 22.4961 0 11.5159-1.0713 21.4249-2.4103 22.4962-2.6782 1.339-36.6902-24.6387-48.206-37.2258-12.0516-12.8549-16.3365-7.4987-16.3365 20.3537 0 12.3193-.8035 15.533-4.285 15.533-2.4103 0-15.5331-9.6412-29.4592-21.6927-13.6584-11.7837-26.2455-20.8893-27.8524-19.818-1.339.8034-2.6781 10.1768-2.6781 20.3536 0 13.9262-1.0712 19.0146-4.0172 20.0859-3.7493 1.6068-17.4077-8.57-43.3854-31.6017-17.1399-15.2653-19.5502-13.9262-19.5502 9.909 0 27.0489-2.9459 27.8523-25.7099 7.7665-28.6557-25.4421-36.6901-31.0661-39.1004-27.3167-1.0712 1.8746-2.1425 12.0515-2.1425 22.4961s-.8034 19.5502-1.6068 20.6214c-.8035.8035-13.6584-8.8377-28.388-21.157-14.7296-12.5872-28.1202-22.2284-29.9949-21.6927-1.6068.5356-3.2137 9.1055-3.7493 21.4249-.5356 14.7296-1.8747 20.6214-4.285 20.6214-1.8747 0-14.7296-9.6412-28.6558-21.4249-13.6584-11.7837-26.2455-21.1571-27.8523-20.6214-1.3391.5356-3.2138 9.909-4.0172 20.6214-.8034 10.7125-2.67806 20.0859-4.28496 20.6215-2.4103.8034-32.1373-20.6215-35.8867-25.7099-.8034-1.0712-5.8918-5.3562-11.5159-9.6412-12.8549-9.6412-15.2652-6.9631-15.2652 17.9434 0 25.1742-1.6069 24.9064-38.0292-8.3022-14.4618-12.8549-20.6214-16.8721-23.5674-14.9974-1.6068.8034-2.6781 10.1768-2.6781 20.3536 0 13.9262-1.0712 19.0146-4.0171 20.0859-2.4103 1.0712-13.6584-6.6953-29.7271-20.6215-24.3708-20.8893-25.9776-21.9605-29.4592-17.1399-2.1425 2.9459-3.7493 11.7837-3.7493 21.9605 0 12.3193-1.0713 16.8721-3.4816 16.8721-2.1425 0-14.194-9.1056-27.0489-20.0858-12.8549-10.9803-25.7099-20.0859-28.6558-20.0859-4.5528 0-5.0884 2.1425-5.0884 18.7468 0 13.9262-1.0713 19.2824-3.7494 20.3537-2.4103 1.0712-14.194-6.9631-29.727-20.0859-13.9262-12.0515-26.5133-21.6927-27.8524-21.6927-4.0171 0-5.624 7.4987-5.624 25.4421 0 9.3734-1.0712 17.6755-2.1425 18.479-1.0712.5356-14.7296-9.3734-29.9948-22.4962-15.2653-13.1227-28.9236-23.0317-29.9949-22.4961-1.0712.8034-2.1425 10.9802-2.1425 22.4961s-1.339 21.9605-2.6781 22.764c-1.6069.8034-15.2652-9.3734-30.7983-22.764-18.2111-15.8008-28.6558-23.2995-29.4592-20.8892-.5356 1.8746-1.6069 12.3193-1.8747 23.2995-.5356 10.9803-1.8746 20.3537-3.4815 20.8893-1.3391.2678-14.7296-9.3734-29.4592-21.9605-14.4618-12.5871-27.8524-22.4962-29.4593-21.9605-1.339.5356-2.9459 10.1768-3.4815 21.4249-.5356 16.3364-1.6069 20.6214-4.8206 20.6214-2.4103 0-16.0687-9.909-30.5305-22.2283l-26.5133-21.9605.5356-11.7837.5357-12.0515 21.9605-11.5159 21.9605-11.5159 53.0266-2.4103c92.3948-3.7493 90.2523-3.7493 99.3579 3.7494zm-203.0008 66.685c0 11.5158-1.3391 20.8892-2.9459 21.6927-3.4816 2.1424-27.8524-17.9434-27.8524-23.0318 0-4.285 19.818-18.2112 26.2455-18.479 4.0172 0 4.5528 2.6781 4.5528 19.8181zm177.5588 208.6248c6.1596 2.6781 10.9802 7.4987 14.194 13.9262 5.0884 10.9803 5.3562 9.3734-12.0515 40.1717-6.6953 11.7837-10.4447 14.7296-29.9949 24.6386-12.0515 6.4275-27.8523 12.3193-34.8154 13.1227-11.5159 1.6069-13.1228 1.0713-20.0859-6.6952-23.5673-26.2455-22.4961-44.1889 5.3563-88.3777 3.2137-5.0884 63.4712-2.4103 77.3974 3.2137zm-133.9056 10.9803c8.3021 7.4987 10.4446 11.7837 12.5871 23.2996 4.8206 28.6557 10.1769 40.7072 21.6927 50.0806 12.855 10.4447 10.4447 13.9262-9.909 13.9262-34.012 0-55.1691-19.5502-55.4369-51.4197-.2678-15.8009 12.3193-45.2601 19.2824-44.9923.8034.2678 6.1597 4.285 11.7837 9.1056zm25.9777-444.2987c0 7.4987 41.2429 81.6824 55.9725 100.4292 4.8206 6.1597 7.2309 6.6953 31.0661 7.4987 28.1202 1.0713 50.3485-1.0712 49.0094-4.8206-.5356-1.3391-16.6043-14.194-35.6188-28.6558-31.8696-23.8352-72.5769-56.7759-89.7168-72.309-7.7665-7.2309-10.7124-7.7665-10.7124-2.1425zm763.26166-9.909c-50.8841 23.5674-74.9871 37.4936-104.982 59.9897-20.3536 15.533-29.727 25.4421-27.5845 28.9236.8034 1.0712 6.9631 2.9459 13.9262 4.0172 28.6558 4.2849 70.7021 23.0317 99.6257 44.7244l17.1399 12.855h22.4962c18.7467 0 27.5845-1.6069 51.1519-9.3734 15.8008-5.3562 34.012-11.2481 40.7073-13.3906 16.3365-5.0884 71.2377-19.0146 83.5571-21.1571 10.4446-1.8746 15.2652-8.0343 8.3021-10.9802-20.8893-7.7665-134.4412-8.0344-170.8635 0-20.8893 4.5528-37.2257 5.3562-35.0833 1.6068 2.4103-3.7493 36.1545-23.2995 83.2893-48.4738 25.9777-13.6583 31.3339-17.4077 28.9236-19.5502-2.9459-3.2137-12.5871-2.1425-47.4026 4.8206-40.7073 8.0344-78.4686 20.0859-108.4635 34.8155-7.7665 3.7493-14.9974 6.4274-15.8008 5.3562-2.4103-2.4103 13.9262-18.2112 49.0094-47.6704 17.6755-14.7296 32.673-27.8523 32.9408-29.1914 1.6068-3.4815-10.7125-2.1425-20.8893 2.6781zm-692.55956-149.1708c3.4816 47.4026 21.1571 122.1219 38.297 160.4189 18.7468 42.5819 48.206 94.2695 62.9356 110.3382 7.7666 8.8377 10.4447 10.1768 23.2996 10.7124 13.3906.8034 14.7296.2678 16.3365-5.8918 11.248-37.4936 14.7296-47.9382 17.4077-53.5623 8.3021-16.8721 8.3021-16.3364-20.6215-52.7588-25.1742-31.066-53.2944-68.8274-77.3974-103.9107-5.0884-7.2309-19.2824-29.9948-31.8695-50.6163-12.5871-20.6214-24.6386-38.029197-26.5133-38.564797-3.2137-1.0712-3.4815 3.213797-1.8747 23.835197zm519.55356-93.466097c-37.4935 38.5648-65.8815 76.861797-88.64546 119.979397-9.3734 18.2112-14.7296 30.2627-32.4051 73.6481-2.9459 7.2309-6.4275 13.1227-7.7665 12.8549-3.7494-1.3391-4.0172-50.6163-.5357-102.5717 4.285-63.738997 4.285-72.041197 1.0713-72.576797-4.5528-.5356-19.5502 32.4052-40.1717 88.645497-5.624 15.2652-9.1056 31.6017-14.9974 66.9528-8.8378 51.6875-7.7665 47.6704-11.5159 42.3142-3.4815-4.8206-12.8549-47.1348-21.9605-98.5545-2.4103-13.9262-4.8206-27.049-5.3562-28.9236-1.6069-5.6241-6.4275-.8035-6.4275 6.6952 0 3.7494-1.8747 14.194-4.5528 23.2996-3.4815 13.1227-4.285 29.1914-4.5528 81.4146 0 36.1545-1.0712 64.5425-2.4103 64.0068-2.6781-.8034-15.533-29.9948-29.9948-68.2918-10.1768-27.0489-14.4618-33.2086-14.9974-21.4249-1.0713 19.5502 1.0712 48.7416 4.5528 63.7391 13.6583 58.3828 28.9236 105.5175 34.2798 103.6429 1.6068-.5357 9.6412-10.9803 17.9433-23.5674 31.6017-47.1348 69.0953-77.933 122.9253-100.9648 38.56476-16.3365 96.94766-25.4421 141.67206-21.9605 16.8721 1.339 20.8893.8034 26.2455-3.4816 3.2137-2.6781 6.1597-5.8918 6.1597-6.9631 0-2.9459 45.5279-71.2377 65.6137-98.2866 18.7468-25.4421 43.1176-55.436897 71.5056-88.377697 31.8695-37.493603 28.9236-38.832603-25.7099-12.0515-38.0292 18.7468-79.0043 44.1888-106.0532 66.4171-36.9579 29.994897-95.3408 92.930497-102.0361 110.338197-1.8746 4.8206-3.4815 5.6241-5.624 3.4816-4.0172-4.0172 25.4421-102.8395 43.1176-143.814597 1.3391-2.9459 4.5528-10.7124 6.9631-17.4077 2.6781-6.6953 7.7665-18.2112 11.2481-25.977703 12.8549-28.388 5.8918-26.5133-27.5846 7.766503z" style="stroke-width:.267811"/></svg>