<svg height="960" style="" width="908" xmlns="http://www.w3.org/2000/svg"><path d="m265.55963 229.17002c-21.363 33.57043-42.726 61.03714-47.81244 61.03714-4.06915 0-8.13829 5.08643-8.13829 11.19015 0 6.10371-20.34571 37.63957-45.77786 70.19271-54.93343 71.21001-56.968 99.69401-15.25928 152.59287 16.27657 21.363 30.51857 41.70871 30.51857 45.77785 0 4.06915 14.242 24.41486 30.51857 45.77786 17.29387 21.363 30.51858 41.70872 30.51858 45.77786s14.242 24.41486 30.51858 45.77786c17.29385 21.363 30.51857 40.69143 30.51857 43.74329 0 4.06914 129.19529 199.388 137.33357 208.54357 5.08643 5.08643 45.77786-37.63957 45.77786-47.81243 0-5.08643 7.121-14.242 15.25929-21.363 12.20743-10.17286 15.25928-49.847 15.25928-236.01029v-223.80286l-35.605-51.88158c-19.32843-29.50128-52.89886-73.24457-76.29643-98.67671-22.38028-25.43215-40.69143-50.86429-40.69143-55.95072 0-10.17286-43.74328-55.95071-52.89886-55.95071-2.03457 0-22.38028 27.46671-43.74328 61.03714zm286.87458-105.79772c-4.06915 4.06915-7.121 93.59029-7.121 198.37072 0 140.38543 3.05185 194.30158 13.22471 204.47444 7.121 7.121 28.484 33.57043 46.79514 59.00257 57.98529 76.29643 76.29644 85.452 92.57301 47.81243 6.10371-12.20743 28.484-47.81243 50.86428-78.331 41.70872-59.00258 50.86429-100.71129 25.43215-122.07429-8.13829-7.121-15.25929-17.29386-15.25929-22.38029 0-6.10371-13.22471-27.46671-30.51857-48.82971-16.27657-21.363-30.51857-41.70872-30.51857-45.77786s-13.22472-24.41486-30.51858-45.77786c-16.27657-21.363-30.51857-41.70872-30.51857-45.77786s-14.242-26.44943-32.55314-49.847c-45.77786-59.00257-44.76057-57.98529-51.88157-50.86429zm145.47186 350.96358c0 63.07172-39.67415 80.36558-66.12358 29.50129-16.27657-31.53586-28.484-136.31629-16.27657-147.50643 3.05186-4.06915 23.39757 13.22471 43.74329 37.63957 29.50129 32.55314 38.65686 52.89886 38.65686 80.36557z" style="stroke-width:1.01729"/></svg>