<svg height="960" style="" width="1407" xmlns="http://www.w3.org/2000/svg"><path d="m770.81968 0-.2137 3.7756h.0712c.0925-1.24807.0458-2.52863.14246-3.7756zm-.14247 3.7756c-2.03724 27.48203-3.20571 55.15327-3.20571 83.13446 0 32.82636 1.40139 65.31135 3.91808 93.25023 24.4374 135.82818 103.64353 217.95392 239.21642 234.58595 90.7101 11.27034 170.6811 2.1371 272.6981 2.1371-1.8966-48.07238 2.6991-85.5913 0-131.21994-82.1388 0-145.7359 5.36164-216.3491 0-106.28441-7.51359-151.41781-53.98967-163.49061-159.21638-4.55922-38.91748-5.35081-78.10052-8.04986-122.67142zm-122.74268.0712c-41.58005 2.40726-90.98255.0188-131.50487 3.7756-1.60484 36.5102 2.95437 58.99683 0 85.8415-16.37671 148.7034-60.96813 190.83513-204.3099 194.3366-61.49471 1.34953-123.18717 0-190.84595 0v141.76315c109.23883-7.25827 211.23021-7.29989 311.09529-22.58238 106.83155-16.37671 173.19094-87.73359 200.03561-192.41319 12.89485-45.53395 19.94657-93.52773 19.94657-143.18789 0-23.81735-1.64471-47.254-4.41675-67.53339zm62.7605 337.45326c-4.15801 0-8.21629.17037-11.75425.49867h-.14246c-73.20278 1.05771-132.21728 60.75382-132.21728 134.21192 0 6.63822.51461 13.15334 1.3535 18.80677v.2137c2.48022 70.43077 60.38285 126.80322 131.43368 126.80322 4.37685 0 8.74629-.2764 12.46661-.64113v.0712c72.6192 0 131.43364-58.88571 131.43364-131.50491 0-2.61013-.0809-5.15016-.2137-7.40873.003-.0465-.003-.0959 0-.14246-.004-.0647.004-.14951 0-.2137.16596-2.65861.28493-5.39556.28493-8.12113 0-73.23919-59.40542-132.57338-132.64467-132.57338zm384.18527 198.04099c-253.67486 4.55922-327.27713 132.37058-323.77566 420.65895 36.25489-2.40727 87.57799.78761 125.94836-2.42207 2.15195-37.05732 3.16125-63.91223 5.05785-90.7569 10.72327-144.69129 55.89147-188.41305 200.03565-191.91452h184.9332v-135.56546zm-831.34469 1.78094c-45.60128.8389-92.6068 3.06325-143.61531 3.06325 3.50147 50.18785.008 86.97161 2.70703 129.93766h170.187c160.22911 2.95438 206.69436 46.44759 217.41764 202.95637 1.34953 22.83256 2.92873 44.79087 5.62779 80.49866l132.07477.0712c.00004-42.96606-5.63176-77.87083-6.98129-112.48441v-.64113c-.72947-23.23377-3.53394-45.99053-7.76489-65.4675-27.39177-133.16557-100.14892-216.10173-234.37224-232.73375-45.50098-5.50753-89.67921-6.03925-135.2805-5.20035z" style="stroke-width:36.4737"/></svg>