<svg height="960" style="" width="1190" xmlns="http://www.w3.org/2000/svg"><path d="m332.9933 824.19126c-12.61081 24.25156-13.58087 32.98212-3.88025 44.62287 31.042 37.83247 189.16215 91.18587 270.64738 91.18587 43.6528 0 140.65902-24.2516 203.71307-51.4133 45.59293-19.40126 69.84448-47.53307 62.08399-70.81456-2.91019-9.70063-7.7605-24.25156-9.70063-30.07193-1.94012-9.70063-11.64074-7.7605-34.92224 6.79043-17.46112 10.67069-38.80249 22.31143-46.56299 25.22162s-27.16174 11.64075-43.6528 18.43118c-93.12598 39.77258-266.76712 19.40125-351.16254-41.71267l-31.04199-22.31144zm557.7858-100.88647c0 15.52099 6.79044 47.53305 15.521 71.78461 8.73056 24.25155 17.46112 49.47317 19.40125 57.23367 2.91018 9.70062 23.28149-3.88025 62.08398-42.68274 32.01197-32.01205 57.23367-62.08398 55.29347-66.9343-2.9101-8.73056-67.90428-30.07193-125.13795-41.71267-24.25156-4.85031-27.16175-2.91019-27.16175 22.31143zm-664.49264-10.67069c-15.521 7.7605-38.8025 13.58088-50.44324 14.55094-11.64075 0-24.25156 4.85031-28.13181 11.64074-8.73056 13.58088 97.97629 117.37754 114.46735 112.52723 6.79043-2.91019 15.52099-19.40125 18.43118-37.83243s10.67069-45.59293 17.46112-60.14386c5.82038-15.521 10.67069-33.95218 10.67069-41.71268 0-17.46112-42.68274-16.49106-82.45529.97006zm755.6785-421.97708c-21.34137 8.73056-21.34137 8.73056-3.88025 62.08398 31.04199 93.12598 32.98209 131.92847 10.67068 218.26401-11.64074 43.65281-18.43118 83.42536-15.52099 89.24573 3.88025 4.85031 17.46112 8.73056 32.012 8.73056 22.3114 0 29.1019-7.7605 44.6229-45.59292 29.1018-68.87442 27.1617-243.48563-2.9102-301.68937-21.3414-41.71267-29.1019-45.59292-64.99414-31.04199zm-831.34336 21.34137c-29.10187 59.1738-38.80249 152.29977-25.22162 236.69519 14.55093 93.12598 30.07193 120.28772 67.90436 120.28772 23.28149 0 28.1318-3.88025 28.1318-23.28149 0-12.61081-6.79043-38.80249-14.55093-57.23368-21.34137-50.44323-18.43118-164.91058 4.85031-229.90475 16.49106-49.47318 17.46112-54.32349 2.91019-65.96424-27.16175-19.40124-47.53305-13.58087-64.02411 19.40125zm277.43781 14.55093c-81.48523 82.4553-148.41953 154.2399-148.41953 160.06028 0 6.79043 67.90436 79.5451 151.32971 163.94052 109.61704 110.5871 156.18003 150.35965 168.79084 147.44946 9.70062-2.91018 86.33554-74.69479 170.73095-160.06027l153.26984-154.2399-155.20996-155.20996c-100.88648-100.88648-161.03034-153.26984-173.64115-153.26984-11.64074.97006-79.5451 62.08399-166.8507 151.32971zm312.36004 32.01206 125.13804 125.13803-121.25779 122.22784c-65.96423 67.90436-128.04822 127.07816-138.7189 132.89853-15.521 8.73057-35.8923-7.76049-142.59915-114.46734-68.87442-68.87442-125.13803-129.98835-125.13803-136.77878 0-19.40125 235.72512-253.18625 257.06649-254.15631 12.61081-.97007 62.08399 41.71267 145.50934 125.13803zm167.82077-203.71308c-9.70062 31.042-17.46112 68.87442-17.46112 83.42536 0 20.37131 3.88025 24.25155 17.46112 20.37131 8.73057-3.88025 35.89231-10.67069 60.14387-17.46113 24.25155-5.82037 49.47311-12.6108 56.26361-14.55093 23.2815-5.82037 11.6407-34.92224-33.95218-82.45529-26.19168-26.19168-50.44324-47.53305-56.26361-47.53305-4.85032 0-17.46112 26.19168-26.19169 58.20373zm-698.44482-15.52099c-24.25156 23.28149-49.47318 51.4133-55.29355 63.05404-9.70062 17.46112-7.7605 20.37131 15.52099 25.22162 15.521 2.91019 48.50312 11.64075 74.6948 20.37131 63.05405 20.37131 73.72473 9.70062 51.4133-51.4133-8.73056-26.19168-16.49106-57.23367-18.43119-69.84448-4.85031-36.86237-19.40124-33.95218-67.90435 12.61081zm259.00662-124.16797c-137.74884 52.38336-162.97046 74.69479-135.80872 117.37753 14.55094 22.31143 17.46112 22.31143 36.86237 8.73056 65.96423-47.53305 105.73679-57.23367 220.20413-58.20373 116.40747-.97007 163.94053 10.67068 222.14426 54.32348 31.04199 23.2815 38.80249 22.31143 49.47318-7.7605 17.46112-45.59292-13.58088-71.7846-140.65903-113.49728-62.08399-21.3413699-198.86277-21.3413699-252.21619-.97006z" style="stroke-width:.970062"/></svg>