<svg height="960" style="" width="1320" xmlns="http://www.w3.org/2000/svg"><path d="m744.98517 206.43316c-1.4823 7.9056-6.9174 53.36279-11.3643 100.7965-6.4233 66.2094-6.9174 92.3967-2.9646 113.643 6.4233 36.0693 15.3171 57.80969 20.2581 51.88049 8.3997-9.38789 14.823-87.94979 10.3761-125.50139-2.4705-20.2581-4.941-58.3038-5.4351-83.99711 0-25.69319-1.9764-52.37459-3.9528-59.29199l-3.9528-12.3525zm-177.87599 2.4705c-4.941 29.1519-14.82311 164.0413-13.83491 187.7581.98831 30.1401 11.85851 74.6091 17.78771 74.6091 2.9646 0 7.9056-16.3053 11.8584-36.0693 5.9292-30.1401 5.9292-47.4336 1.4823-102.7728-3.4587-36.5634-6.4233-79.05611-6.4233-93.8791 0-14.823-1.9764-31.6224-4.4469-37.0575-2.9646-8.3997-3.9528-7.4115-6.4233 7.4115zm343.3996 627.0132c-4.941 2.9646-1.9764 6.9174 11.36429 15.3171l17.7876 10.8702 12.3525-11.3643c6.4233-5.9292 11.8584-12.8466 11.8584-15.3171 0-5.4351-44.9631-4.941-53.36279.4941zm-206.53391 77.0796c-4.941 12.84671 5.4351 18.77591 25.1991 15.31721 13.3407-2.4705 17.2935-5.9292 16.3053-11.85851-1.9764-11.8584-37.5516-14.823-41.5044-3.4587zm-128.46599 0c-4.4469 10.87031-.4941 13.34081 21.2463 14.32901 15.8112.4941 18.7758-.9882 18.7758-9.38801 0-7.9056-3.9528-10.3761-18.7758-11.3643-13.3407-.9882-19.2699.4941-21.2463 6.4233zm-219.3805-77.5737c0 2.4705 5.4351 9.3879 11.8584 15.3171 11.8584 11.3643 12.3525 11.3643 27.1755 2.4705 8.3997-4.941 14.823-11.3643 13.8348-14.3289-1.9764-5.9292-52.8687-9.882-52.8687-3.4587zm400.22109-201.5929c0 4.941 4.4469 11.8584 10.37621 15.3171 8.3997 4.4469 12.3525 3.4587 22.2345-5.9292 14.823-13.8348 11.3643-19.2699-13.3407-19.2699-15.81131 0-19.27001 1.4823-19.27001 9.882zm-234.2035-5.4351c-1.4823 1.9764 2.4705 8.8938 8.8938 14.823 9.882 9.3879 13.8348 10.3761 22.2345 5.9292 5.92931-3.4587 10.37621-10.3761 10.37621-15.3171 0-8.3997-3.4587-9.882-19.27001-9.882-10.8702 0-20.7522 1.9764-22.2345 4.4469zm133.90121-703.104616c-1.9764 29.151921-3.4587 88.938013-3.4587 133.407008 0 43.975008-2.4705 130.936608-5.4351 193.193198-2.9646 61.76261-6.9174 144.77141-8.3997 184.29941l-3.4587 71.64461-32.1165 3.4587c-17.7876 1.4823-55.83341 4.4469-84.49121 6.4233l-52.3746 3.95279-2.9646-53.3629c-1.9764-29.646-3.9528-78.0678-3.9528-108.2079-.4941-45.4572-5.4351-91.90271-8.89379-82.02071-.4941 1.4823-3.9528 57.31571-7.9056 124.51331-3.4587 67.1976-7.9056 124.5133-9.882 127.4779-1.4823 2.4705-7.9056 4.941-13.8348 4.941s-19.2699 2.9646-30.6342 6.9174c-10.8702 3.4587-33.1047 10.8702-49.41011 15.3171-16.3053 4.941-31.6224 10.8702-34.0929 13.3407-2.9646 1.9764-8.8938 3.9528-13.3407 3.9528-6.9174 0-8.8938-6.4233-11.3643-33.5988-5.9292-64.23311-12.8466-211.969-12.8466-292.50741-.4941-44.96309-2.4705-90.42029-4.4469-101.29049-2.4705-10.8702-4.4469-18.7758-4.941-17.2935-3.9528 16.7994-15.8112 227.7802-18.2817 321.1651-1.4823 66.70361-3.4587 127.972-4.941 136.3717-1.4823 11.3643-8.3997 19.764-29.15189 34.587-14.823 10.3761-27.1755 20.7522-27.1755 22.7286 0 9.882-14.823 2.9646-14.823-7.4115 0-16.7994-13.83485-204.0634-18.28175-243.0973l-3.4587-34.587-3.4587 32.1165c-1.97641 17.7876-3.45871 71.1504-3.95281 118.58411-.4941 47.43359-3.4587 110.67839-5.9292 140.81849-10.8702 122.5369-10.8702 135.3835-1.4823 154.6534 21.24631 41.9985 74.11506 99.8082 90.42036 99.8082 2.9646 0 5.43509 1.9764 5.43509 3.9528s11.8584 9.88211 26.1873 17.29361c13.8348 7.4115 29.1519 15.3171 33.1047 17.7876 28.1637 15.3171 39.528 20.2581 47.9277 20.2581 4.941 0 13.34081 3.4587 18.28181 7.4115 5.4351 3.9528 15.8112 7.4115 22.7286 7.4115s15.3171 2.47049 17.7876 4.94099c2.9646 2.9646 16.3053 7.4115 29.646 9.882s34.0929 6.42334 46.44539 9.38794c119.07821 26.6814 288.0604 26.6814 400.22121-.4941 12.3525-2.9646 31.1283-6.91744 41.9985-8.89384 32.11649-6.4233 79.5502-24.21089 134.88942-50.89229 72.1386-34.58711 121.5486-80.04431 151.1947-137.85401 9.3879-19.2699 9.3879-48.9159-1.4824-132.4189-2.4705-20.2581-5.4351-77.0796-5.9292-125.9955-.9882-106.2316-5.4351-165.5236-10.3761-143.2891-5.4351 23.2227-12.8466 101.78471-16.7994 176.3938-2.4705 50.3982-4.941 68.1858-9.882 68.1858-3.4587 0-6.9174-1.4823-7.9056-3.9528-2.4705-5.4351-41.5044-35.5752-46.4454-35.5752-2.4705-.4941-9.882-4.941-16.3053-10.3761-10.3761-8.8938-12.3525-15.8112-16.3053-60.2802-1.9764-27.66959-5.9292-124.5133-8.3997-214.9336-2.4705-90.9145-5.9292-166.0177-7.4115-167.5-1.4823-1.9764-2.9646-1.9764-2.9646-.9882s-3.4587 29.646-7.4115 63.7389c-4.4469 34.09289-8.8938 120.5605-10.3761 192.6991-1.4823 72.13859-3.4587 136.3717-4.941 142.795-2.9646 13.3407-7.4115 12.8466-63.73903-4.4469-18.7758-5.9292-41.01029-11.8584-49.40999-13.8348l-14.823-3.9528-2.9646-78.562c-1.9764-43.4808-3.4587-88.4439-3.9528-100.3023 0-11.3643-2.4705-20.7522-4.941-20.7522-6.4233 0-11.3643 29.646-17.2935 113.643l-5.4351 76.5856-17.2935-.9882c-39.528-1.9764-143.28911-13.34069-148.23011-16.30529-2.9646-1.9764-6.9174-78.06791-9.88199-205.54571-3.9528-174.4174-16.7994-420.47934-21.7404-425.42034-.4941-.98821-2.9646 22.23451-4.4469 50.892324zm-18.7758 635.907016c2.9646 3.9528 6.4233 18.7758 7.4115 33.5988s3.9528 37.0575 5.4351 49.41c2.4705 15.3171 1.9764 24.2109-1.9764 26.1873-2.9646 1.9764-6.9174-.4941-8.3997-5.4351-2.4705-8.3997-4.941-14.823-22.2345-53.3628-18.2817-42.4926-19.2699-47.4336-7.9056-51.8805 15.3171-5.9292 21.2463-5.9292 27.6696 1.4823zm80.53829.9882c2.9646 2.9646-4.941 28.1637-13.8348 44.469-2.9646 5.4351-6.9174 16.3053-8.8938 23.7168-5.9292 24.2109-12.84659 8.8938-12.84659-28.1637 0-19.764 1.4823-37.5516 3.45869-39.0339 3.9528-3.9528 28.1637-4.4469 32.1165-.9882zm-147.24179 20.7522c4.941 10.3761 11.8584 26.1873 15.8112 35.0811 3.4587 8.8938 9.882 23.2227 13.8348 32.1165 12.3525 28.1637 27.6696 67.19771 27.6696 69.66821 0 8.3997-19.764 0-54.8451-24.21101-21.74051-14.823-41.01041-27.1755-42.49271-27.1755s-10.8702-6.4233-20.7522-13.8348c-9.882-7.9056-21.7404-15.3171-26.1873-17.2935-4.4469-1.4823-9.882-10.3761-11.3643-19.764-7.9056-41.0103 4.941-52.8687 56.8215-52.8687h32.11661zm282.1312-8.3997c11.3643 9.3879 9.3879 39.528-3.4587 52.8687-5.9292 6.4233-12.8466 11.3643-15.3171 11.3643s-12.8466 6.4233-23.2227 14.823c-10.3761 7.9056-19.764 14.823-21.2463 14.823s-20.7522 12.3525-42.49271 27.1755c-55.8333 38.04581-63.24479 36.06941-41.9985-10.8702 7.4115-16.7994 17.2935-39.528 28.6578-66.7035 3.9528-8.8938 10.8702-24.705 16.3053-35.5752l8.8938-18.7758 42.98681 2.4705c24.2109.9882 46.9395 4.941 50.8923 8.3997zm-422.4557 12.3525c0 3.9528-3.4587 7.4115-7.4115 7.4115s-7.4115-3.4587-7.4115-7.4115 3.4587-7.4115 7.4115-7.4115 7.4115 3.4587 7.4115 7.4115zm-26.6814 25.1991c31.1283 20.7522 34.0929 32.1165 13.8348 55.8333-14.3289 17.2935-24.2109 18.7758-56.3274 8.3997-12.3525-3.9528-35.08121-10.8702-50.39831-15.8112-24.2109-7.4115-28.6578-10.3761-28.6578-20.2581 0-6.9174 3.4587-12.8466 8.8938-14.3289 4.4469-1.4823 15.3171-5.9292 23.2227-9.3879 20.7522-9.3879 53.36291-21.7404 58.30391-21.7404 2.4705-.4941 16.3053 7.4115 31.1283 17.2935zm569.20339-8.8938c30.63433 10.8702 45.45733 23.2227 45.45733 38.5398 0 12.8466-16.7994 26.6814-32.61062 26.6814-5.9292 0-18.77591 3.4587-28.16381 7.4115-28.6578 11.8584-41.0103 9.882-52.37459-9.3879-17.2935-27.6696-12.8466-39.528 24.21089-63.7389 15.8112-9.882 12.8466-9.882 43.4808.4941zm-115.12529 69.174c-1.4823 7.4115-5.4351 21.7404-8.3997 31.6224-3.9528 13.34081-3.9528 20.25821 0 25.19921 4.4469 4.941 3.9528 9.3879-1.9764 17.2935-6.9174 10.37609-11.3643 10.87019-74.115 10.87019-36.56351 0-66.20951-1.9764-66.20951-3.9528 0-3.45869 26.6814-25.69319 31.1283-25.69319.9882 0 27.1755-16.7994 57.80981-37.05761 30.6342-20.2581 57.8097-35.5752 59.7861-34.0929 2.4705 1.4823 3.4587 8.3997 1.9764 15.8112zm243.59142-1.9764c28.6578 23.2227 41.5044 40.02221 39.528 53.36291-1.4823 9.882-5.9292 11.8584-29.646 15.8112-15.8112 1.9764-34.0929 2.4705-41.5044.9882-12.3525-3.4587-12.8466-3.9528-9.3879-34.0929 3.9528-33.10481 9.882-52.86881 15.8112-52.86881 2.4705 0 13.3407 7.9056 25.1991 16.7994zm-863.68723 36.06941c0 16.7994-1.9764 31.6224-4.4469 33.1047-1.9764 1.4823-15.31709 1.4823-29.64599-.4941-23.2227-2.4705-25.1991-3.9528-25.1991-15.8112 0-13.3407 23.7168-43.97501 41.9985-53.85701 13.83479-7.4115 17.29349 0 17.29349 37.05761zm293.9896-10.87031c26.68151 17.78771 48.91601 32.11661 50.39831 32.11661 4.4469 0 31.1283 21.7404 31.1283 25.69319 0 6.4233-125.50151 4.941-132.41891-1.9764-6.9174-6.91739-8.3997-87.9499-1.4823-87.9499 2.4705 0 26.1873 14.3289 52.3746 32.1165zm-202.5811-9.3879c13.83491 3.9528 33.59891 9.3879 44.46911 11.3643 10.8702 2.4705 28.1637 7.90559 38.5398 12.35261 16.3053 6.9174 18.7758 10.3761 17.2935 21.7404-.9882 10.8702-4.4469 13.8348-17.2935 14.823-8.8938.9882-20.7522-.9882-26.1873-3.9528-10.3761-5.4351-10.3761-6.4233-1.9764-15.3171 7.4115-7.9056 7.4115-9.3879.4941-11.8584-3.9528-1.9764-14.823-2.4705-24.2109-1.4823-20.75231 1.9764-22.23461 14.823-1.4823 19.2699 13.8348 2.4705 13.8348 2.9646-7.4115 6.4233-12.35261 1.9764-33.10481 2.9646-46.93961 1.9764-24.2109-1.4823-24.705-1.9764-26.1873-18.2817-.9882-9.3879-.4941-24.70511 1.4823-34.09301 2.4705-14.3289 4.4469-16.3053 13.8348-13.8348 5.9292 1.9764 22.2345 6.9174 35.5752 10.8702zm691.74043 26.68151c0 26.1873-.4941 27.1755-14.3289 28.6578-8.39972.9882-24.70502 0-37.05763-1.9764-21.2463-3.4587-21.7404-3.9528-7.9056-6.4233 20.75231-4.4469 19.27001-17.2935-1.4823-19.2699-9.3879-.9882-20.2581-.4941-24.2109 1.4823-6.9174 2.4705-6.9174 3.9528.9882 12.3525 8.3997 9.3879 7.9056 9.882-4.941 15.8112-15.81119 6.91739-28.65779.9882-31.12829-14.823-1.9764-12.8466 24.21089-30.63431 43.97489-30.63431 7.4115 0 20.7522-3.4587 29.646-7.4115 9.38801-3.9528 23.71691-6.9174 31.62253-5.9292 14.3289.9882 14.823 1.4823 14.823 28.16381zm-333.51773 51.38639c0 1.4823 1.4823 5.4351 2.9646 9.882 2.4705 5.9292-2.4705 7.4115-29.64599 7.4115-33.5988 0-37.0575-1.9764-26.1873-15.3171 11.8584-14.823 24.2109-18.28169 39.0339-10.8702 7.4115 3.9528 13.83479 7.9056 13.83479 8.8938zm-449.1371-2.4705c1.9764 1.4823 4.941 14.823 6.9174 29.1519l3.4587 25.6932-17.7876 7.4115c-22.72859 9.3879-23.71679 9.3879-38.53979-3.9528-21.2463-18.7758-31.1283-60.2802-14.823-63.7389 11.3643-2.4705 56.82149 1.4823 60.77429 5.4351zm913.09723-1.4823c4.941 4.4469-11.3643 49.9041-22.2345 60.2802-12.8466 12.8466-8.8938 13.3407-67.6917-2.4705-7.4115-1.9764-8.3997-6.9174-7.4115-30.1401l1.4823-28.1637 37.0575-2.9646c33.5988-2.4705 53.3628-.9882 58.7979 3.4587zm-734.23292 6.4233c15.8112 5.9292 17.7876 22.2345 3.9528 30.1401-11.8584 5.9292-49.9041 6.4233-58.7979.4941-5.4351-3.4587-5.4351-4.4469.9882-6.9174 4.4469-1.9764 7.9056-6.4233 7.9056-10.8702 0-5.4351-5.4351-7.4115-22.2345-7.4115-20.25821 0-22.23461.9882-22.23461 11.8584 0 6.4233 3.4587 14.823 8.3997 18.2817 7.41161 6.4233 6.42341 7.4115-6.4233 9.882-7.9056 1.9764-24.705 3.4587-37.5516 3.9528l-23.7168.4941v-20.2581c0-39.528 2.4705-41.0103 73.62101-37.5516 34.0929 1.4823 68.1858 4.941 76.0914 7.9056zm605.76692 1.4823c14.823 41.5044 9.882 50.8923-24.70502 45.4572-18.2817-2.9646-18.77591-3.9528-11.8584-11.8584 3.9528-4.4469 7.4115-12.8466 7.4115-18.7758 0-9.3879-2.4705-10.8702-22.23461-10.8702-16.7994 0-22.2345 1.9764-22.2345 7.4115 0 4.4469 3.4587 8.8938 7.4115 10.3761 13.8348 5.4351 1.9764 11.8584-21.7404 11.8584-29.15189 0-39.52799-8.8938-31.12829-27.1755 5.9292-12.8466 15.81119-14.823 79.0561-16.3053 33.10472-.9882 36.06932 0 40.02212 9.882zm-489.15933 6.9174c25.69331 5.4351 11.8584 11.8584-24.705 11.8584-27.1755 0-34.0929-1.4823-34.0929-7.4115 0-7.9056 29.1519-10.3761 58.7979-4.4469zm316.71831 4.4469c0 5.9292-7.4115 7.4115-36.5634 7.4115-20.2581 0-38.0457-1.9764-40.0221-4.4469-3.4587-5.9292 11.3643-8.8938 48.4218-9.882 22.2345-.4941 28.1637.9882 28.1637 6.9174zm-227.2861 12.3525c0 5.9292-132.91301 137.35991-148.23011 147.24191-9.3879 5.4351-9.882 4.941-9.882-10.8702 0-13.83491 2.4705-18.28181 13.3407-23.71691 18.7758-8.8938 19.764-20.7522 2.9646-28.1637l-13.8348-6.4233 11.3643-7.4115c12.8466-8.8938 14.3289-18.7758 2.9646-23.2227-4.941-1.9764-6.9174-7.9056-5.9292-18.7758l1.4823-16.3053 39.528-3.4587c21.7404-1.9764 47.43371-5.4351 56.82161-8.3997 23.7168-5.9292 49.41-6.4233 49.41-.4941zm130.93649 2.4705c16.30541 3.9528 41.50451 6.9174 56.32751 7.4115 30.1401 0 44.9631 9.3879 44.9631 28.1637 0 8.8938-2.4705 11.3643-12.8466 11.3643-16.3053 0-14.823 16.3053 1.9764 18.7758 12.8466 1.9764 14.823 15.8112 2.4705 15.8112-15.3171 0-22.7286 7.9056-18.7758 19.2699 1.9764 7.4115 7.4115 10.3761 17.7876 10.3761 13.3407 0 14.3289.9882 14.3289 20.25821 0 14.823-1.9764 19.764-6.9174 18.2817-9.3879-1.9764-156.13571-145.26551-156.13571-152.18291s21.7404-5.9292 56.8215 2.4705zm-324.62379 42.4926c1.4823 16.7994 0 18.7758-19.764 27.6696-26.1873 11.8584-54.8451 23.7168-78.06791 31.6224-17.7876 5.9292-29.1519 1.9764-94.8672-32.6106-14.3289-7.9056-8.8938-19.764 9.882-20.2581 8.8938 0 18.7758-2.9646 21.7404-5.9292 3.4587-3.4587 18.2817-5.9292 33.1047-6.4233 15.3171 0 35.5752-2.9646 44.96321-6.9174 9.3879-3.4587 31.6224-5.9292 49.41-5.9292l32.1165.9882zm218.8864 41.9985c-1.4823 66.20951-6.9174 83.99711-25.1991 82.51481-78.56201-5.4351-97.83191-7.9056-104.25521-11.8584-5.4351-3.4587 7.4115-18.7758 57.31571-68.68001 35.5752-35.0811 66.2094-63.2448 69.174-62.7507 2.9646.9882 3.9528 25.1991 2.9646 60.7743zm95.85539 1.9764c49.90421 49.90421 62.75081 65.22131 57.31571 68.68001-3.9528 2.4705-26.1873 5.9292-49.41011 7.9056-23.2227 1.4823-46.9395 3.9528-52.3746 4.941-21.74039 4.4469-24.70499-3.4587-27.66959-72.63281-2.4705-65.2212-1.9764-73.1268 4.4469-73.1268 1.9764 0 32.61059 29.1519 67.69169 64.233zm227.2861-56.8215c10.87031 3.9528 29.15203 6.9174 40.51633 7.4115 11.3643 0 22.2345 2.4705 23.7168 5.4351 1.9764 2.4705 9.3879 3.4587 16.7994 1.9764 16.3053-3.4587 40.0221 4.4469 40.0221 13.3407 0 6.9174-1.4823 7.9056-51.8805 32.6106-33.5988 16.7994-34.0929 16.7994-56.32742 8.8938-72.6328-24.705-89.4322-34.0929-89.4322-51.3864 0-7.9056 2.4705-16.3053 5.9292-19.764 7.9056-7.9056 46.44539-7.4115 70.65629 1.4823zm-537.08689 80.0442c5.9292 27.17561 4.4469 31.12841-10.3761 31.12841-16.7994 0-68.1858-17.29361-67.1976-22.72871.4941-2.4705 11.3643-8.3997 23.7168-13.3407s26.1873-11.3643 30.1401-13.3407c14.3289-8.3997 18.7758-4.941 23.7168 18.2817zm513.37009-2.4705c12.3525 5.4351 20.7522 10.8702 18.7758 12.8466-3.9528 4.4469-57.80969 20.75231-67.69169 20.75231-6.9174 0-8.8938-3.9528-8.8938-16.79951 0-36.0693 8.3997-38.5398 57.80969-16.7994z" style="stroke-width:.4941"/></svg>