<svg height="960" style="" width="1230" xmlns="http://www.w3.org/2000/svg"><path d="m709.90693.00002c-7.34044 23.258179-15.54909 30.949428-25.89163 44.727002-12.37192 16.481102-25.61876 33.197648-42.73121 44.680438-12.98514 8.71318-28.45466 13.52422-43.66508 17.15396-17.08455 4.077-35.15194 1.95933-52.45862 4.9557-20.67864 3.58014-41.05882 9.01509-61.01931 15.49585-59.06984 19.17867-119.19868 38.08745-173.08134 68.96985-41.07863 23.54385-108.6176 68.17027-126.46334 92.41391l-.0908 6.28078c12.29919-3.2247 33.46505-5.35045 49.34735-7.47081 19.14004-2.55517 38.85023-.6721 57.74036-4.67623 10.05804-2.13203 19.76931-5.90096 29.11004-10.19782 28.00943-12.88439 53.62586-30.4513 80.02002-46.38512 8.70318-5.25408 16.10754-13.23275 25.82409-16.22244 13.97002-4.29854 29.28127-3.07551 43.82111-1.58126 11.72411 1.20487 23.06175 5.00025 34.33587 8.43493 22.02516 6.70993 42.64121 17.73113 64.87348 23.71886 10.65362 2.86927 21.64997 7.22057 32.58928 5.78475 6.92862-.9094 13.77327-4.22795 18.99838-8.86809 8.94403-7.94258 13.90912-19.63065 18.91221-30.49567 1.88749-4.09918 3.88801-8.39378 4.10335-12.90157.21975-4.59841-1.39667-9.15338-2.91334-13.50008-1.49782-4.29281-6.0409-12.22855-6.0409-12.22855 13.03581 9.73301 26.54552 18.55282 30.77979 32.98284 1.69444 5.77478-.62222 12.34132-3.23238 17.76412-3.9183 8.14051-10.18062 13.95346-17.81534 20.42826 0 0 14.21563-16.40086 11.62072-30.51896-1.74381 4.25775-7.54852 11.58748-11.59976 17.18889-3.58992 4.9635-6.60131 10.54269-11.24813 14.53407-8.1801 7.02662-17.60923 14.13078-28.27633 15.71243-11.07714 1.64234-21.95865-4.44468-32.83846-7.09586-9.99986-2.4368-19.81947-5.56541-29.79704-8.09259-9.27455-2.34917-18.51238-4.94583-27.94099-6.56956-9.04157-1.5571-20.20678-4.03087-27.35644-3.02513 34.64544 33.26209 26.79447 93.96454-5.92914 112.14354-40.77339 22.65114-119.22364 8.86027-122.53932-67.55393-8.74289 2.17091-19.81098 6.78452-29.59443 10.50523-8.92413 3.39402-17.20761 8.75644-26.53904 10.7777-6.97249 1.51035-14.26285 1.31972-21.38307.8733-6.54265-.41028-12.85074-2.8958-19.39661-3.251-17.04294-.92467-34.43768-.66206-51.11957 2.94825-8.03165 1.73821-15.91183 4.71726-22.99461 8.8844-8.98303 5.28508-24.01694 20.02304-24.01694 20.02304 1.19831-6.67667 7.76161-22.03233 10.60071-26.53904-2.7436 3.22279-14.92431 17.65063-20.45155 26.49713-5.92692 9.48608-12.88336 20.24248-14.81819 30.10677 4.60425 5.22737 8.52319 5.70697 12.73623 8.63287 5.83189 4.05017 10.87187 9.45749 17.35657 12.34964 10.53833 4.7 22.30468 8.81518 33.77697 7.57561 8.49536-.91787 15.65353-6.89072 23.23913-10.82429 16.73853-8.67981 31.82231-20.52032 49.06556-28.14824 14.73384-6.51797 29.89755-15.41701 45.99853-14.84146 10.24453.36629 19.07663 7.51137 28.51621 11.50894 18.98657 8.04071 36.80045 19.13695 56.54334 25.08355 27.21807 8.1981 55.6916 12.83978 84.08378 14.22433 28.61765 1.39565 57.34494-9.83422 85.74189-6.02229 27.5158 3.69367 56.41643 10.8506 78.60411 27.5381 12.02673 9.04539 20.69462 22.77477 26.16177 36.7951 4.61653 11.83929 5.22791 25.12288 4.77171 37.8221-.27112 7.55209-3.72788 14.70812-4.44568 22.23075-.75189 7.88059-1.54048 16.01939.16767 23.74914 4.35207 19.69401 4.66929 25.87814 25.11149 55.05059-16.86146-5.76345-22.76113-5.39429-34.35218-5.39584-12.87199 0-24.99707.44675-38.15045 5.9827.41922-3.66194-1.7076-10.96399 20.20703-25.70999-13.28466-5.04709-26.12805-7.09437-39.43596-6.4927-20.72181.93671-41.55835 6.58621-60.23683 15.60763-5.44557 2.6302-12.81838 5.11346-14.48516 10.92675-1.44274 5.03218 1.70767 11.18789 5.6194 14.6668 6.61955 5.8871 18.00817 2.25633 25.75889 6.54627 5.5586 3.07662 11.4255 7.26284 13.78885 13.16007 1.88105 4.69416 1.6024 10.65396-.70563 15.15352-4.09571 7.98503-13.40786 12.10605-21.11293 16.70684-16.12888 9.63071-33.18612 19.4321-51.74834 22.31925-19.14135 2.97718-47.97845-2.02655-57.83118-5.72187 7.19272 8.42322 14.5168 14.18412 22.96899 19.68072 8.04942 5.23476 16.5704 10.59875 26.00342 12.39157 14.79834 2.81239 30.42131.34489 45.08098-3.11828 14.62653-3.45542 28.38328-10.21933 41.61572-17.34492 7.9464-4.2791 12.11494-18.38029 22.45199-15.13257 9.09654 2.85794-12.92942 19.67831-22.52185 25.92657-18.99386 12.37203-42.82244 15.27254-64.98294 20.04169-22.57793 4.85893-60.76816 22.95146-68.74628 8.62588-2.9947 14.62975 26.08041 24.64013 59.55449 25.54465.2362 66.58855-21.42009 88.20015-33.26463 92.2998 16.70884 2.22993 27.89539-4.43015 38.75827-12.58486 5.65638-4.24618 9.09029-11.07041 11.92582-17.54986 3.54103-8.09151 3.67408-17.28956 5.99201-25.81246 2.68206-9.86203 3.90311-20.49177 9.14753-29.26375 4.84487-8.10379 10.87503-17.20123 19.81346-20.24195 7.16697-2.43812 13.04149.34727 12.03992.63343.90666.82976-2.81272 5.81299-4.93474 6.85832-10.01035 4.93167-16.7363 15.56307-21.52513 25.64246-9.09964 19.15256-9.85728 41.37976-11.93745 62.48181-3.03106 30.74932-2.05585 61.82408-.71494 92.69336.61573 14.17748 5.188 28.23922 4.01952 42.38189-1.02518 12.40674-2.72878 27.40922-8.99384 36.64602a545.73742 545.73742 0 0023.19022 1.4974c77.23064-92.62237 102.16694-257.51437 102.16694-257.51437-.77228 99.57319-37.27748 190.56901-68.64148 257.93127a545.73742 545.73742 0 00138.5172-20.50743c-7.80448-19.541-28.65556-46.71175-43.69301-64.54745 32.91727 16.63407 54.35744 32.73275 75.29487 54.56619a545.73742 545.73742 0 00169.488-96.10506c-3.93443-10.31516-7.22716-14.86001-10.34921-22.97365-2.70806-7.03806-3.72036-14.74213-7.11915-21.47389-2.67515-5.29855-8.5289-8.8696-10.27235-14.54337-15.90807-51.77185-12.31264-109.92442 3.02977-162.45735-9.43015 78.33389-6.66575 92.22352 10.2118 133.55921 4.11587 10.08011 12.87369 17.77756 21.01746 25.00437 4.69749 4.16881 10.69258 6.61294 15.76133 10.32127 6.48374 4.74343 9.90223 11.24516 17.74316 15.63559a545.73742 545.73742 0 0036.15466-40.74476c-44.94956-73.78313-39.1507-164.39772-23.67693-228.20877-4.50394 138.98838 14.6615 170.06763 43.49043 201.90494a545.73742 545.73742 0 0081.103-172.18475c-17.457-.80122-33.485-13.92116-44.252-27.42399-13.9376-17.4791-16.0863-41.94219-20.4981-63.85812-2.488-12.35963-.6749-25.34341-3.2743-37.68004-1.4347-6.80901-3.3201-13.69722-6.7396-19.75756-4.64-8.22326-11.9318-14.64723-18.2229-21.68814-17.57783-19.67291-38.66764-41.39593-54.50333-57.38639-15.05779-15.20505-29.83256-32.38222-46.00783-44.77357-5.8921-4.51375-12.62522-7.91495-19.43853-10.85921-9.42491-4.0727-20.57713-3.98616-29.36854-9.2896-6.62921-3.99902-15.45076-5.91899-16.52519-16.32258 5.0769.54752 7.64808 4.53375 11.77443 6.13173 4.30104 1.66571 8.80209 2.9525 13.37665 3.54211 13.92185 1.79448 28.0882-.72014 42.11176-.1048 9.49251.41685 19.18378.21044 28.38811 2.56866 10.07199 2.5806 19.84168 6.85407 28.58839 12.47542 9.54593 6.13509 20.97795 13.19194 25.34678 22.72678-6.94363-33.20758-29.27488-45.7909-49.99251-62.66809-11.87423-9.67316-26.10755-17.10323-40.97064-20.79854-6.93362-1.72391-14.29762.0457-21.42964-.3796-6.4673-.38632-12.99397-.64816-19.33606-1.97251-16.16275-3.3754-31.81732-9.04088-47.17225-15.11161-17.41459-6.88497-34.84159-14.21494-50.7586-24.07982-8.14897-5.05055-23.11029-7.59837-22.60104-17.78507 6.32076-3.63821 14.50935 4.03926 21.47623 6.85832 18.50786 7.48902 34.90666 19.77773 53.6766 26.58329 23.28308 8.44182 47.76304 21.12357 72.24181 17.36124 24.91338-3.82898 50.90713-16.05478 64.82456-38.93295-12.7878 3.41083-29.05869 7.52317-43.93287 9.04043-18.22241 1.85875-37.24195 4.69983-54.95045.0186-12.70172-3.35788-23.07773-12.58528-34.2567-19.48741-10.56587-6.52358-16.09465-10.58484-30.43513-20.30485 11.16108 4.66947 56.75428 15.31502 83.10802-3.93568-45.66321-11.88389-39.95717-13.639-56.89268-25.74027-9.14709-6.53608-14.29787-17.58378-23.10872-24.56653-6.19412-4.9089-13.17018-8.97346-20.52374-11.86992-6.13892-2.41796-12.70748-3.97846-19.28948-4.43871-8.71928-.60976-17.60246.32395-26.12452 2.26593-5.12757 1.1685-6.05862 3.35126-14.75762 5.58215 11.81342-13.48068 29.7768-51.836258-8.89604-101.18419zm-245.37438 229.86921c-7.81393-.0179-18.25905 1.14259-18.65837 2.47087 14.06732 22.57316 24.19362 35.88349 24.55491 49.61981-20.54594-3.6555-23.53335 5.5644-27.3751 15.28394-1.76121 4.45616 1.94891 9.55873 4.36651 13.6957 1.27903 2.18867 5.92627 3.14567 5.17926 5.56816-1.59298 5.1668-10.45786 4.31294-15.81723 3.59801-3.25093-.43366-5.40713-4.56885-8.68644-4.62035-2.7139-.0429-4.6092 3.28352-7.30545 3.59568-2.13848.24765-4.43917-.35812-6.29244-1.45318-1.79841-1.06262-3.40535-2.72793-4.18252-4.66693-1.18198-2.94915-1.58673-6.61983-.30508-9.52713 1.6737-3.79643 5.46124-6.92076 9.45262-8.09725 1.42903 3.53638 4.43016 6.83582 7.89464 6.76285 4.44006-.093 8.88559-4.72979 9.74372-9.08699 1.69313-8.5967-5.63181-16.94435-10.98963-23.87722-6.12878-7.93031-23.26008-19.05195-23.26008-19.05195-16.14081 6.20713-22.67394 16.80922-34.3289 17.98535 15.64503 144.91731 203.75428 56.04054 103.84368-37.34935-1.27343-.5908-4.28221-.84191-7.8341-.85002zm-147.71368 109.45378c-14.28181.11565-27.33344 9.38878-40.32323 15.53545-13.41999 6.35044-25.2703 15.65623-38.48115 22.43103-11.5139 5.90475-20.45581 14.7545-35.44671 15.82654-1.39684 7.36585 4.66233 5.8911 3.95896 9.13357-.90416 4.16821-5.73953 6.55846-9.49686 8.57699-6.90977 3.71201-15.72085 2.45301-22.78968 5.85228-7.90216 3.79989-16.64737 8.21566-21.01745 15.81724-12.28177 21.36329-14.66357 46.23769-8.69575 73.4132-20.13946-43.33873-14.07109-115.7518-2.88771-137.76969-2.00565-1.10864-3.58272-2.24464-5.37255-3.79362-31.08652 60.25349-10.34221 132.71283 17.34958 176.97742 9.2147-57.34261 20.44261-61.4384 41.20352-85.18531 7.3928-8.456 17.62053-14.56124 28.104-18.59316 11.21474-4.31332 23.65871-6.29043 35.64002-5.38187 18.92231 1.43488 35.86777 12.66717 54.36824 16.89082 21.85107 4.98866 44.09282 9.94206 66.50597 9.89508 18.72546-.0393 37.52451-3.36695 55.53265-8.50013 31.26645-8.91244 58.06198-30.82121 89.70319-38.29485 19.06217-4.50254 39.68668-8.43646 58.65323-3.54676 14.07662 3.62891 29.60233 10.73958 36.83237 23.35092 6.40302 11.16919 7.34465 27.19856 1.36467 38.59991-7.65058 14.58622-26.1886 20.87293-41.61805 26.63686-15.94574 5.95685-33.62205 5.40883-50.52572 7.41257-13.65822 1.61897-27.84672.0218-41.09406 3.7191-13.71498 3.82827-26.12864 11.49673-38.388 18.73989-15.11622 8.93092-29.13138 19.64108-43.07588 30.30936-13.24031 10.12959-23.54902 24.52931-38.47649 31.95119-28.23598 14.03895-75.82233 24.30425-92.11349 21.55075 9.92355 26.29734 39.57328 34.16666 64.1236 38.11786 26.92535 4.33358 54.54634-7.57327 79.8966-17.62905 34.05058-13.50691 62.60625-38.06555 94.36311-56.32444 14.66921-8.43419 28.44917-18.97332 44.41494-24.57819 20.67161-7.25698 42.87488-11.4686 64.78033-11.10374 19.50656.3248 48.48933 10.19155 57.32582 11.80237-5.20078-12.76026-7.11862-24.72244-7.72231-37.45646-.65221-13.75838 4.83146-27.31086 4.47829-41.08009-.25111-9.79013-1.01715-19.92123-4.67623-29.00525-4.4539-11.05747-11.06664-21.94092-20.37005-29.39416-20.11085-16.11136-46.21425-24.78558-71.61769-29.10772-16.51378-2.80964-33.47993 1.32983-50.1927 2.45922-14.02582.9478-27.96674 4.10258-42.01628 3.62363-23.46922-.80031-46.90595-4.83607-69.61492-10.81498-21.58268-5.68237-42.0212-15.099-62.64249-23.63502-13.03009-5.39382-24.46606-16.93314-38.56032-17.41247-.46335-.0155-.92259-.0199-1.38332-.0163zm245.69809 75.38337c-13.97515-.23442-27.93231 3.97252-41.25942 8.26259-15.4242 4.96517-29.01538 14.49391-43.98411 20.69841-17.05557 7.06942-34.13919 14.53073-52.10465 18.78646-16.32526 3.86714-33.1983 5.75961-49.97379 5.98269-9.06912.12055-18.03766-2.00926-27.0933-2.51743-7.23039-.40576-14.51551-1.15011-21.72075-.42385-16.0509 1.6179-31.96972 5.34023-47.2258 10.58441-10.23428 3.51802-20.95 7.05337-29.34758 13.87967-9.56036 7.77172-17.06866 18.32479-22.29365 29.48265-4.30759 9.19908-2.60916 20.47497-6.90257 29.68061-4.33382 9.29244-10.46856 18.18902-18.47672 24.59216-18.71222 14.96217-27.96945 27.65119-65.55582 29.47334 13.28502 9.23187 30.53731 9.78964 46.00551 8.03902 10.73113-1.21451 20.76553-6.74393 29.85992-12.56855 15.37234-9.84545 26.34613-25.32367 40.4094-36.96276 13.88535-11.49185 27.68604-23.39182 43.31342-32.3727 15.52341-8.92115 32.18538-16.21582 49.44282-20.98485 11.27948-3.11704 23.09758-4.07654 34.77603-4.82295 21.04564-1.34521 42.1757 1.09238 63.25962.64275 10.7229-.22858 21.49494-.33068 32.13283-1.6977 7.18974-.92395 14.11981-3.39704 21.30156-4.38049 15.83497-2.1684 32.06603-.70934 47.83363-3.3232 16.39799-2.71831 33.948-4.21947 48.19691-12.77814 9.21529-5.53511 20.03691-13.0595 21.93966-23.63968 2.04904-11.39276-4.73542-24.27298-13.27418-32.08858-9.39641-8.60076-23.74701-10.66513-36.46208-11.43444-.9317-.056-1.86519-.0939-2.79689-.10944z" style="stroke-width:1.19235"/></svg>