<svg height="960" style="" width="1204" xmlns="http://www.w3.org/2000/svg"><path d="m551.96195.00006817a72.137554 72.137554 0 00-2.7468.0578c-12.17501-.488006-22.90752 4.45952403-33.09932 8.60914903-26.30721 10.7118668-51.66932 23.7545718-77.3161 36.0630038-12.50462 6.002316-27.18443 17.870194-32.6656 28.509227-4.27317 8.294255-12.5573 13.965199-13.88596 24.251631-1.63854 12.686921-8.3352 23.269651-15.77982 33.677591a122.97533 122.97533 0 00-15.54128 26.89003 76.458389 76.458389 0 01-19.75551 29.52844c-13.97584 12.69682-26.05131 27.5395-43.03128 36.70634-3.80899 11.74767-17.40136 13.13929-23.68058 22.32885-1.14749 1.6804-4.24041 2.59112-4.53227 4.19976-.90837 5.00227-5.28384 6.28945-8.14653 9.25972-13.6302 14.14124-32.20799 23.44271-41.23138 42.16386a11.367159 11.367159 0 01-6.07194 4.70576c-10.66086 3.92154-15.44992 12.82721-19.96513 22.2132a131.29646 131.29646 0 01-9.61391 17.65199 184.74847 184.74847 0 00-20.92651 38.07253c-3.22116 8.31117-5.00967 17.29285-9.1802 25.00339a160.0195 160.0195 0 00-15.96054 40.74709c-2.85576 12.54448-6.02622 25.02005-8.99948 37.53762-2.66946 11.23863-6.44579 22.33957-2.79021 34.19082a18.630544 18.630544 0 01-.70117 7.72727c-2.33199 14.52369-6.02966 28.98596-6.59962 43.57342-.32472 8.32317 4.11794 16.95156 7.12008 25.18409.58172 1.59472 4.37434 2.52848 6.79479 2.79743a20.510057 20.510057 0 006.36108-1.11318c3.95637 9.22957 7.439 17.36654 11.14635 26.01539 4.57606-4.31398 1.59134-13.26758 10.42351-13.52454 4.4584 6.06504 9.23572 12.56828 13.30767 18.10741 15.6642-6.89873 18.93024-23.28244 26.94063-35.81 5.94055 2.86764 6.03954 6.64721 5.52258 11.26201a160.68191 160.68191 0 00-.16626 16.87853c12.9778-7.26627 19.17688-14.18402 21.89514-26.74545l.23131-1.21437a177.4503 177.4503 0 0115.15095-42.15666l8.83323 2.12518c-8.0494 14.80761-1.05021 28.49674 1.17102 43.37103 5.17854-1.91841 9.95769-3.69011 15.15816-5.61655 3.82491-13.68098 16.94165-21.60926 22.37223-35.02932 5.37384-13.27954 13.43324-25.47483 20.3121-38.14481a105.60953 105.60953 0 01.75899 16.71953 179.91272 179.91272 0 01-4.19253 18.81579 53.251159 53.251159 0 00-1.7999 10.95119c-.0398 21.46632-.43029 42.86684-6.15868 63.78431-1.41541 5.16858-2.44356 10.44347-3.8022 15.62804a8.1582119 8.1582119 0 003.58534 9.4838c4.81303-5.08395 8.3649-10.8679 13.52453-13.9438 27.23551-16.23689 40.90188-44.23036 59.17977-68.02745 9.89593-12.88512 13.35156-30.28927 26.47077-41.44824a5.0336478 5.0336478 0 001.14933-2.89862c2.16946-13.83839 12.85239-23.65871 16.34365-37.82679 3.39562 1.68237 7.02333 2.31797 7.53934 3.93956 2.34072 7.35798 3.77304 14.99768 5.59485 22.52399.92036 3.80603 1.9792 7.58397 3.31788 12.67883 3.44841-2.32881 6.47923-3.28093 7.47427-5.25516a109.23173 109.23173 0 008.45013-20.14583c2.49018-9.1737 4.71379-18.24691 12.38965-26.40571a107.09707 107.09707 0 0113.3872 6.50565c5.11484 3.35276 8.87752 2.18717 13.20647-2.61671l4.59735-19.11941c8.09407-.49805 15.56779-3.67153 24.13595-4.41659 8.55126-.74405 15.27793.0864 21.80119 5.64547a20.456097 20.456097 0 0010.84273 5.67435 84.456386 84.456386 0 0027.60567-1.93723 32.706905 32.706905 0 0116.88579-.3325c11.84724 2.18736 20.2488 10.2812 29.55011 17.26164 13.85833-4.89766 28.59217-7.26605 40.89165-15.99665 22.42647-3.08181 39.45725-17.41943 58.3268-27.93095 5.68162-3.16454 11.11968-7.21136 12.67154-13.4378a28.498653 28.498653 0 0110.39462-15.20875c6.27921-5.43058 11.33654-12.31469 17.78209-17.50022a31.086128 31.086128 0 0010.69098-16.90026 90.189521 90.189521 0 016.21649-14.16784 315.62738 315.62738 0 0130.84404-11.22588 23.907384 23.907384 0 0012.6788-8.24772 32.213192 32.213192 0 0112.24507-9.5344 107.06791 107.06791 0 0124.44681-4.54672c12.08829-1.04087 20.91894-5.87204 25.1552-17.16047-2.02799-5.86881-3.87202-11.20003-5.94183-17.18939 9.37302-1.805 12.20968-17.89203 26.3768-9.91751-5.68558 2.59078-10.30913 4.69732-14.92686 6.80203 11.34322.49419 21.73684-3.39751 32.78127-1.96615 4.52213.58568 7.0827-3.17335 10.19942-6.04304 5.38476-4.96054 10.98325-10.7888 17.59419-13.09081 15.02755-5.23335 22.42843-17.07526 26.68761-30.22238l.32527-1.1421a158.41616 158.41616 0 0117.78935-36.81478c1.11063-1.72618 2.98866-4.11213 2.51553-5.52257-3.55695-10.60102 2.96413-19.66383 3.93233-29.51398.3506-3.56195-.1629-7.20658-.014-10.79939.488-11.78648-5.30558-21.14343-10.86448-29.66578-13.43794.76-24.81787-1.38046-31.97167-13.52453a26.475171 26.475171 0 00-20.44988-13.27153 251.53225 251.53225 0 01-29.54289-4.105783c-19.46023-5.032168-38.36072-12.403207-57.96537-16.62556-22.1167-4.764185-39.23701-17.832847-54.474-32.34756a99.579461 99.579461 0 00-33.62702-21.707188c-14.43009-5.455458-30.24529-7.11316-45.12755-11.536697-14.97096-4.45045-30.09659-.62493-45.17814-2.233608-12.94497-1.380548-26.15189-.380917-39.9375-5.3274048a31.174064 31.174064 0 01-27.79358 3.9106148c-14.42807-4.0968498-29.12611-7.2605068-43.73246-10.71986783a72.137554 72.137554 0 00-11.18973-.860189zm171.98056 118.82213183c6.64781 1.59768 12.45836 12.61469 13.40167 21.5554.95826 9.08902 5.66463 17.81906 8.97055 26.61536 3.13563 8.34303 6.58184 16.56883 10.31508 25.90695l-7.05502 29.36219c-1.55491.37253-3.91662.24932-5.23343 1.35896-16.40033 13.82642-37.24562 18.01436-56.15101 26.42018a253.41923 253.41923 0 00-24.0637 13.93655c-11.81432-11.31327-27.07267-13.84879-41.9181-17.13879a21.96118 21.96118 0 01-14.46422-8.65252 155.52609 155.52609 0 01-9.34645-21.50479c-1.25804-2.93355-2.77349-5.75437-4.25759-8.80432 3.60081-14.98077 6.172-31.32832 16.57494-44.71552 26.79312-34.4809 68.67812-31.4744 113.22728-44.33965zm-166.40738 36.29432c12.01658.63055 22.77854 7.09259 31.28499 18.32426l-4.6552 19.35794c-2.46729 1.59471-5.57517 3.60243-8.94885 5.7828-14.78864-4.18745-33.27452 3.24477-44.51315-15.59189l3.54922-14.76059c7.089-3.99223 14.47574-8.15208 23.28299-13.11252zm-45.52511 58.78942c4.10981 1.81383 8.79907 5.74285 11.32708 4.65516 8.13789-3.50218 11.75572 2.55687 16.34363 6.12978a108.34567 108.34567 0 0110.78495 11.17526c9.29834 9.7147 15.25908 20.50246 12.15831 34.57394-11.65598.0289-22.32894 4.22975-33.01978.20963a128.20647 128.20647 0 00-14.204-5.63101c-4.97137-1.20823-10.34465-.67519-15.39673-1.65533-10.60002-2.05589-20.48911-5.44598-23.84684-17.95561 1.95428-8.12393 2.15185-17.44174 9.37537-23.21795 9.34973-2.92445 18.17609-5.68745 26.47801-8.28387zm-265.91497 74.80057c1.03534 12.88063-6.07504 22.4003-13.44501 30.77897l-.0361.0361a47.494004 47.494004 0 00-11.26924 21.98188c-3.36283 15.1441-7.24211 30.16896-10.76324 45.27934a83.727992 83.727992 0 00-1.01199 9.78739c2.78301-1.07677 4.91999-1.25712 5.26959-2.13962 4.91262-12.41403 11.81525-23.09147 23.78899-29.94047a49.490653 49.490653 0 007.4526-6.68636c2.03598.97017 5.80871 1.5861 6.31771 3.21668 2.47726 7.93371 8.59588 12.57696 14.19678 17.84717 3.38267 3.18345 6.33977 6.82293 10.31508 11.16083-14.76176 17.53879-28.92728 34.59026-43.37825 51.40189-4.48831 5.22243-6.27249 5.29138-19.52419 4.90092h-.007c-.23093-4.15263-.39351-7.08193-.59274-10.65483-2.15549.68728-4.51357.82237-4.76357 1.61919a10.294204 10.294204 0 01-11.26201 8.65252c-5.66993 0-9.31236 5.76541-13.22094 9.59223-5.16162 5.05508-9.63122 10.81268-14.88348 16.82793-1.79095-2.58876-2.9187-4.22342-4.33711-6.27432a238.61281 238.61281 0 0011.71741-23.124c2.17537-5.62581 5.1842-11.76834.69393-18.33146a13.17032 13.17032 0 01-.31805-9.00671 336.34192 336.34192 0 018.81878-35.81726l.18071-.61443a86.011691 86.011691 0 0112.12219-23.45648 227.78249 227.78249 0 0022.42283-36.10637c5.86185-11.5125 10.80667-25.37473 25.51661-30.93077zm312.30752 35.47749a41.35746 41.35746 0 0130.12116 15.04975c6.87886 7.73552 3.93676 25.01292-5.1973 32.81017a149.15565 149.15565 0 01-13.75581 9.16574c-7.44111-9.04645-13.89905-16.89586-21.95301-26.68763l-35.42688-8.51518c.50701-3.84777.96456-7.3528 1.35897-10.34398a37.24573 37.24573 0 0127.96709-10.19942c5.55707.44227 11.27196-1.4468 16.88578-1.27945zm334.0942 84.7253c-5.83695 1.92641-12.66728 3.03223-16.99423 6.86709a55.86865 55.86865 0 01-23.91186 11.18248c-15.56957 4.14466-30.32116 10.68832-45.69139 14.91963l-.34697.0796a49.630328 49.630328 0 00-28.45861 20.74576 75.771855 75.771855 0 01-32.47766 26.34068c-8.37695 4.00917-15.93864 11.02352-25.18413 11.81138a34.222166 34.222166 0 00-27.64179 18.98929 120.41095 120.41095 0 01-19.74103 24.62027c-3.31387 3.47135-6.45375 7.10827-9.7657 10.58254-14.33447 15.03767-27.70816 31.21911-43.46499 44.5854-8.36399 7.09495-16.23508 13.83328-19.15557 24.01308-2.38259 8.30622-7.65724 13.54483-13.11972 19.24228-8.33716 8.69472-17.40223 16.56839-21.48313 28.8779a28.133698 28.133698 0 01-12.32456 12.74385 273.13912 273.13912 0 01-26.42743 12.51977c-.86159 4.44844-1.90987 9.87628-3.24559 16.77012 9.1718 1.44231 16.77661 2.63633 23.22518 3.6504 9.2983-7.35995 15.94251-16.92531 28.97908-12.18004-1.23114 10.7546-1.24299 20.31768-12.8234 26.82498l-.20962.11567a45.655869 45.655869 0 00-19.14106 22.55292 15.747951 15.747951 0 01-9.88861 10.40905c-9.01144-13.74179-21.40833-24.43552-25.98646-42.0699 3.88765-6.38977 9.9056-13.42702 12.78724-21.56984 7.58012-21.4175 22.451-37.60642 36.35212-54.61135 6.32193-7.7343 14.517-14.81659 18.00623-23.70949a61.953676 61.953676 0 0112.30292-17.87609c10.92484-12.55848 24.16519-23.09002 36.32322-34.59564a122.1764 122.1764 0 0023.75286-32.21745c-3.11472-1.91645-5.7637-4.96307-8.1682-4.77802-8.85707.68128-17.70264-1.84587-26.73103 2.16131-6.90691 3.06494-15.23995 3.28815-23.00833 3.96847a49.439728 49.439728 0 00-35.36907 20.05909l-.52043.67224a357.44122 357.44122 0 01-27.20087 29.9983c-10.7127 10.46966-20.81827 14.33761-37.69665 20.47834a75.624445 75.624445 0 00-27.83697 20.30488c.25504 8.22748-6.51303 12.9531-10.00424 19.21337-12.04837 21.60074-24.68309 43.1044-43.74691 59.38215-12.47576 10.65198-17.34526 27.82019-32.3331 35.99794-.42428.23109-.63543.84812-.95416 1.27943-3.72431 5.03713-7.45029 10.07437-10.73433 14.51486h-28.43694c-1.47884-13.48183 9.84993-23.14346 10.82831-35.94013.12949-1.69132 1.80294-3.23149 2.64562-4.90093 8.55426-16.94019 18.71619-33.1666 24.72149-53.47648a36.523111 36.523111 0 00-9.97533 3.78053c-10.89 9.47259-24.47397 14.26618-37.33522 19.17a57.115108 57.115108 0 00-27.44663 21.98187c-9.70572 13.51966-18.60076 27.89425-33.10655 37.6099a52.42321 52.42321 0 00-19.93621 29.4923c-4.26118 13.77166-7.84365 27.99007-16.55328 39.89409-6.21544 8.4953-12.62732 16.89692-19.60371 24.76487-6.07898 6.85594-12.00893 14.3009-12.15834 23.21074a85.709949 85.709949 0 01-7.77787 31.53795 33.491997 33.491997 0 01-15.31719 17.58694l-.37588.18794a69.666473 69.666473 0 00-13.79922 9.59945l-.007.007a15.524523 15.524523 0 00-4.6913 9.32476 22.390051 22.390051 0 002.88417 8.76096c4.54708-1.06678 7.55544-1.75424 10.55362-2.47941 2.74902-.66437 5.48242-1.36885 9.33922-2.33478a35.021581 35.021581 0 01-10.92949 17.74598 48.751046 48.751046 0 00-13.34381 19.37958 16.977644 16.977644 0 002.71791 20.18923c11.78452-10.83652 22.74817-22.40172 37.29908-29.36217 14.57947-6.9745 28.75562-14.79111 43.79027-22.5891a36.183248 36.183248 0 017.92967 3.57813c7.95062 6.00929 15.3284 2.87951 21.73611-1.88666l.13734-.0939a48.169362 48.169362 0 0016.35087-20.90481l.18072-.50599a75.235618 75.235618 0 0116.09065-24.37453 85.178708 85.178708 0 0119.95067-16.87856c7.33396-4.00818 13.85287-15.82212 11.57284-22.71193-3.25414-9.8301-9.89104-15.76024-20.89761-15.67142a11.191806 11.191806 0 01-3.77328-1.22883c-1.54483-3.42354-2.82496-6.26535-4.25036-9.42599 5.57584-5.87881 11.03901-11.63652 16.55328-17.4496-3.22442-14.06948 5.72367-24.21886 10.80661-36.20756 12.86406 13.42006 30.05222 12.60092 48.64783 13.51728-2.26705 4.68854-3.05364 8.43861-5.33463 10.62589-7.2474 6.95058-15.14051 13.22499-22.618 19.94347-7.38485 6.63481-8.77904 16.41314-11.86197 25.05399-2.42341 6.79122 1.78685 10.90491 9.16574 11.27645a14.162186 14.162186 0 0011.73909-3.52749 103.65988 103.65988 0 0112.79445-9.1802 18.908748 18.908748 0 0118.1291-2.83359 13.601856 13.601856 0 0011.42103.0434c3.68049-1.11341 7.69393 4.39756 12.88842-.11566 2.4025-2.08673 8.11926-.36141 11.87643-.36141 4.7013 5.47433 8.97632 10.4461 14.86904 17.30504-.53588 2.97823-4.11493 9.98692-1.97339 13.67632 4.27117 7.35802-1.89597 12.07453-1.75652 18.17248a128.35832 128.35832 0 01-7.9875 44.39745 81.991042 81.991042 0 00-4.44553 16.43038 103.7705 103.7705 0 01-18.61339 49.12496c-2.54196 3.5629-7.30092 8.57-1.48185 15.2955 15.31952-10.1331 30.288-20.1786 36.01241-39.54715 2.19235-7.41972 6.43096-14.20712 9.09346-21.51929 2.64158-7.2545 6.27106-14.81059 6.23819-22.22039a46.673234 46.673234 0 019.67897-27.76472 66.826812 66.826812 0 009.17297-21.42527c1.85867-6.70157 5.74244-13.26066 6.27434-20.30487.99702-13.20493 2.35245-26.06177 10.51027-37.16897.52191-.71019.1179-2.09432.15177-3.16606a24.388661 24.388661 0 019.18742-17.73153c11.76457-10.55138 23.55668-21.07168 35.08716-31.37895 9.7774 3.74025 9.75209 3.64107 18.3532.91082 15.55461-4.93854 31.25974-9.00519 49.97785-6.68637 7.66238 9.5026 16.41017 20.35084 26.24671 32.54995-1.08069 11.29739-.72492 24.83655-4.15641 37.33522-2.31283 8.42283-.89615 16.81084-3.28174 24.83714-11.41191 38.38945-31.39176 72.43918-53.39694 105.49276a66.562154 66.562154 0 00-5.0744 13.01855c5.75726 2.27999 10.0143 3.9628 12.82335 5.07443 17.71807-8.7037 27.82326-23.12377 39.12066-36.39554a214.35998 214.35998 0 0032.32589-53.28128 502.31518 502.31518 0 0021.17948-61.52902c3.7892-12.98776 10.00975-26.09934 5.12503-40.39292-.29981-.8775.25082-2.04579.58549-4.27201 15.51584-10.23263 22.65087-27.59921 31.14039-44.01437.47214-.91237.33624-2.15076.83128-3.04321 6.01241-10.84521 13.54834-20.63297 25.22028-25.37928a17.80204 17.80204 0 0011.07403-14.13895c9.49353-2.83684 14.20524 1.89729 17.75324 7.61162v12.46917c-4.72732 4.80904-8.14638 10.38517-13.11974 12.94626-14.27465 7.35003-16.15154 19.21319-15.19432 32.68007 2.84182 2.97427 5.05178 5.28957 6.32494 6.6213 11.21774 1.79991 20.98244 3.36709 32.65838 5.24064 5.5949 9.13595 12.0203 19.2588 17.96284 29.65859a11.309571 11.309571 0 01.55659 7.81398 342.58672 342.58672 0 01-10.3946 34.12579 109.16637 109.16637 0 01-12.02099 20.21812 163.39015 163.39015 0 01-14.963 20.18923l-.30359.33248a414.88901 414.88901 0 01-30.5043 30.23683c-11.8173 10.33422-23.54002 20.84082-38.41228 27.30931-11.45669 4.98327-21.8795 12.27812-33.01257 18.07125a14.090757 14.090757 0 00-7.95136 15.38947c4.11876 1.26396 8.30558 4.07616 11.65236 3.29621a248.2274 248.2274 0 0037.09669-10.92951 342.09967 342.09967 0 0138.00025-13.64017 71.609755 71.609755 0 0029.2682-17.61587c17.8406-16.26369 31.42573-35.94154 46.56602-54.34388 5.07491-6.16767 10.76001-13.44179 7.15623-22.97218 9.31725-7.09299 15.48914-17.21776 24.44677-22.57462 10.16289-6.07703 11.1169-18.93362 21.36746-24.53356a62.769857 62.769857 0 005.17562 4.47444 50.035217 50.035217 0 006.74418 3.9034c8.32812 3.98227 15.40987 2.32055 18.63509-5.68884a46.823014 46.823014 0 003.88172-19.69765 26.232312 26.232312 0 00-9.10793-19.32904 64.010319 64.010319 0 01-7.17789-8.0887 112.1379 112.1379 0 013.88893-11.02345c6.77926-14.1801 6.87997-30.09241 12.23785-44.86012 6.05213-16.67819 15.48497-28.02852 31.41508-34.8486a42.318386 42.318386 0 0014.89795-8.42841c5.02417-5.53018 11.87286-6.46228 17.68094-9.78018a68.280229 68.280229 0 0113.15585-4.59012c2.44336-.78295 5.22081-2.43944 7.38029-1.88662 9.42089 2.41142 17.75831-2.31416 26.55759-3.07212a104.79431 104.79431 0 0028.9501-6.1153c10.6663-4.10381 21.3923-6.36727 31.632-.43372 5.1426 2.98026 8.7088-.70622 12.9968-.759 2.1406-.0269 4.232-3.78182 6.6285-6.12255-3.9772-4.34682-7.1956-7.85788-9.0862-9.92474-1.8288-9.98764-1.9217-18.81303-5.1828-26.24666a63.24203 63.24203 0 01-6.1009-28.53815c-3.317-6.57708-7.7837-6.10905-12.0499-5.79728a96.77655 96.77655 0 01-16.5099 1.38066 109.6466 109.6466 0 01-17.9629-4.69852c-3.4761-.98014-7.2006-3.48704-10.3222-2.86249-8.18757 1.63857-12.22364-5.49499-18.58451-7.38752-2.38559-8.55726-9.91688-9.34353-16.9581-11.1753-10.59917 6.42762-21.29603 12.93112-32.00778 19.40852-26.77822 16.19415-54.49211 30.66248-82.68688 44.19509-9.5393 4.57794-19.86064 7.87453-30.34526 5.725a20.758875 20.758875 0 00-18.1869 3.80217 163.8195 163.8195 0 01-18.00623 12.63542c-14.94809 8.33308-30.22942 16.06927-44.93235 23.81071-6.9655-3.40954-12.54175-6.13835-17.50024-8.56579-6.0382-11.39803-3.88708-21.14493 4.46001-29.96215 1.37043-1.44812 1.62758-3.88508 2.81189-5.58039 8.0386-11.50887 12.95122-24.76435 22.1915-35.80279a187.63229 187.63229 0 0026.08067-41.18823 55.759174 55.759174 0 0111.8981-14.49312c4.07295-4.05001 9.15593-7.06654 13.4161-10.95121 5.5411-5.05208 10.00006-11.62352 16.18464-15.56297 13.35329-8.50541 21.86114-21.58272 31.56685-33.09928 14.6871-17.42739 26.62914-37.16709 39.80016-56.01369-1.47818-1.34769-3.02398-3.5557-3.76606-3.31066z" style="stroke-width:3.70099"/></svg>