<svg height="960" style="" width="1327" xmlns="http://www.w3.org/2000/svg"><path d="m573.65688 729.31462c-68.70356 68.70355-76.1024 73.98844-121.55244 75.04541-26.42444 1.05698-59.19075 4.22791-73.98844 9.5128l-26.42444 7.39885 31.70933 8.45582c96.18497 23.25351 116.26755 28.5384 140.57803 38.0512 34.88027 13.74071 17.96862 31.7093-36.99422 40.1651-38.05119 6.3419-33.82328 8.4559 60.24773 30.6524 122.60942 28.5384 109.92568 28.5384 232.5351 0 94.07101-22.1965 98.29892-24.3105 60.24773-30.6524-54.96284-8.4558-71.87449-26.42439-36.99422-40.1651 24.31048-9.5128 44.39306-14.79769 140.57803-38.0512l31.70933-8.45582-26.42444-7.39885c-14.79769-5.28489-47.564-8.45582-73.98844-9.5128-45.45004-1.05697-52.84888-6.34186-121.55244-75.04541-40.16515-41.22213-80.3303-73.98844-89.8431-73.98844s-49.67795 32.76631-89.8431 73.98844zm61.3047-376.28407c-7.39884 12.68374-48.62097 58.13378-242.04789 265.30141-22.19653 24.31048-95.128 54.96284-141.63501 60.24773-14.79769 2.11395-26.42445 7.39884-26.42445 13.74071 0 6.34186 44.39307 11.62675 105.69777 13.74071l105.69777 3.17093 105.69777-106.75475c58.13378-58.13377 113.09662-105.69777 121.55244-105.69777s63.41866 47.564 121.55244 105.69777l105.69777 106.75475 105.69777-3.17093c61.30464-2.11396 105.69774-7.39885 105.69774-13.74071 0-6.34187-11.6267-11.62676-26.4244-13.74071-46.507-5.28489-119.4385-35.93725-141.63503-60.24773-193.42692-207.16763-234.64905-252.61767-242.04789-265.30141-4.22791-8.45582-17.96862-14.79768-28.5384-14.79768s-24.31049 6.34186-28.5384 14.79768zm-177.57225-13.74071c-192.36994 192.36995-233.59208 225.13625-306.52354 240.99092-56.019814 12.68373-33.82328 27.48142 46.50702 30.65235l79.27333 3.17094 193.42692-193.42692 193.42692-193.42692 193.42692 193.42692 193.4269 193.42692 79.2734-3.17094c80.3303-3.17093 102.5268-17.96862 46.507-30.65235-72.9315-15.85467-114.1536-48.62097-306.52357-240.99092-109.92568-110.98266-202.93972-201.88274-206.11065-201.88274s-96.18497 90.90008-206.11065 201.88274zm143.74897-286.44095c-45.45005 43.33608-61.30471 52.84888-94.07102 53.90586-35.93724 0-97.24195 17.96862-68.70355 19.0256 6.34187 1.05697 25.36746 6.34186 40.16515 11.62675l28.5384 10.56978-41.22213 42.27911c-30.65235 30.65235-53.90586 43.33608-87.72915 48.62097-41.22213 6.34187-43.33609 8.45582-26.42444 21.13956 22.19653 15.85466 15.85466 28.53839-45.45004 85.61519-34.88027 32.76631-38.0512 56.01982-6.34187 56.01982 8.45582 0 91.95706-76.1024 186.02808-169.11644 93.01403-93.01403 173.34434-169.11643 177.57225-169.11643s84.55822 76.1024 177.57225 169.11643c94.07102 93.01404 177.57227 169.11644 186.02807 169.11644 31.7093 0 28.5384-23.25351-6.3419-56.01982-61.30466-57.0768-67.64653-69.76053-45.45-85.61519 16.91165-12.68374 14.79769-14.79769-26.42444-21.13956-33.82329-5.28489-57.0768-17.96862-87.72915-48.62097l-41.22213-42.27911 28.5384-10.56978c14.79769-5.28489 33.82328-10.56978 40.16515-11.62675 28.5384-1.05698-32.76631-19.0256-68.70355-19.0256-32.76631-1.05698-48.62097-10.56978-94.07102-53.90586-29.59537-29.59538-58.13377-52.84889-62.36168-52.84889s-32.76631 23.25351-62.36168 52.84889z" style="stroke-width:1.05698"/></svg>