<svg height="960" style="" width="1295" xmlns="http://www.w3.org/2000/svg"><path d="m622.12683-9.701495c-17.76119 17.761198-26.38802 21.820901-65.9701 30.955228-52.77614 12.179099-73.58208 19.791039-120.26871 43.134285-18.77604 9.641782-37.04475 17.253762-40.59693 17.253762-3.55228 0-20.80604-15.223859-38.0597-33.999988-17.76119-18.776119-31.9702-31.970148-31.9702-28.925376 0 5.582089 26.38802 59.373084 37.04475 74.597054 5.07465 7.61188 2.0299 12.68653-25.88059 37.04475-36.53733 32.98505-85.25366 94.38802-102.50743 130.41792-12.68653 26.89554-9.64178 26.38802-58.35822 14.71644-11.16417-3.04486-28.41791-6.59703-38.0597-8.62694l-17.7612-3.55217 17.7612 11.67158c27.91045 18.26871 37.04477 23.85079 49.73135 29.43287 16.74627 7.61188 18.26865 16.23881 8.11944 52.26861-4.56723 17.76119-9.64184 40.08961-11.16423 49.73139-1.52238 12.17911-10.14924 25.8806-27.40298 44.65673l-25.37313 26.89555 11.67164 13.70148c6.59702 7.61188 18.26865 20.29852 25.37314 28.92535 7.61194 8.11941 14.71641 23.34327 16.2388 32.98505 1.01492 9.64178 6.08953 32.98505 11.16419 51.76119 10.1492 38.56723 9.13436 41.61198-21.31345 57.34326-10.65671 5.58208-27.40298 15.73139-37.04477 22.32842l-17.7612 12.17911 17.7612-4.0597c9.64179-2.02991 26.89553-5.58208 38.0597-8.62694 48.71644-11.67158 45.67169-12.1791 58.35822 14.71644 17.25377 36.0299 65.9701 97.43287 102.50743 130.41792 27.91049 24.35822 30.95524 29.43287 25.88059 37.04475-11.67158 17.25377-38.56713 72.56723-36.0298 75.10456 1.01495 1.52238 15.73128-12.17911 31.9701-30.44782 16.74634-18.26862 32.98515-32.98505 36.53732-32.98505 4.05971 0 22.32842 7.61198 41.10446 17.25376 53.28367 26.38802 100.47762 42.11941 143.61198 47.70149 14.20891 1.52237 22.83584 7.10445 37.04475 24.35821 10.14931 12.17912 22.32842 22.32832 26.38812 22.32832 4.56713 0 19.28357-9.6418 32.47763-21.82089 21.31336-17.76119 31.46267-22.83584 66.98505-30.44772 48.71643-10.65674 69.52237-18.26872 116.71643-42.11941 18.77604-9.64178 37.04475-17.25376 41.10446-17.25376 3.55217 0 19.79098 14.71643 36.53732 32.98505 16.23882 18.26871 30.95515 31.9702 31.9701 30.44782 2.53733-2.53733-24.35822-57.85079-36.0298-75.10456-5.07465-7.61188-2.0299-12.68653 25.88059-37.04475 36.53733-32.98505 85.25365-94.38802 102.50745-130.41792 12.6865-26.89554 9.6418-26.38802 58.3582-14.71644 11.1642 3.04486 28.4179 6.59703 38.0597 8.62694l17.7612 4.0597-17.7612-12.17911c-9.6418-6.59703-26.388-16.74634-37.0448-22.32842-30.4478-15.73128-31.4626-18.77603-21.3134-57.34326 5.0746-18.77614 10.1493-42.11941 11.1641-52.26862 2.0299-13.70148 8.627-24.86574 24.8658-40.59703 12.1791-12.1791 22.3283-24.86564 22.3283-28.92534s-10.1492-18.77614-22.3283-32.98515c-13.7015-16.74624-22.8359-32.98505-24.3582-44.14921-1.5224-9.64178-6.5971-31.9702-11.1643-49.73139-10.1492-36.0298-8.6268-44.65673 8.1194-52.26861 12.6866-5.58208 21.8209-11.16416 49.7314-29.43287l17.7612-11.67158-17.7612 3.55217c-9.6418 2.02991-26.8955 5.58208-38.0597 8.62694-48.7164 11.67158-45.6717 12.1791-58.3582-14.71644-17.2538-36.0299-65.97012-97.43287-102.50745-130.41792-27.91049-24.35822-30.95524-29.43287-25.88059-37.04475 10.65673-15.22397 37.04475-69.014965 37.04475-74.597054 0-3.044772-14.20901 10.149257-31.9702 28.925376-17.25366 18.776129-34.50742 33.999988-38.0597 33.999988-3.55218 0-21.82089-7.61198-40.59693-17.253762-51.25376-25.880553-84.23881-37.044731-145.64178-48.716374-14.71644-3.044783-25.37317-9.641793-38.0597-24.865674-10.14931-11.671643-21.31347-20.80597-25.37317-20.80597-4.56713 0-16.74624 9.134327-27.9105 20.298505zm0 91.343275c10.65673 11.16416 22.32842 20.29852 25.37317 20.29852s14.71644-9.13436 25.37317-20.29852c17.25366-17.761186 22.83574-20.298513 43.13425-20.298513 21.8209 0 55.31347 8.626933 88.80605 23.343263 54.80594 23.34327 63.43277 28.92545 63.43277 38.05971 0 5.07465-10.14921 24.35821-22.83574 42.62693-12.68664 18.26861-32.98515 47.19396-44.65674 64.44772-62.41792 89.82089-79.67168 115.70149-79.67168 120.77614 0 7.10445 19.28356 1.52238 30.95525-8.11941 4.0597-4.0597 10.1492-7.10445 13.19406-7.10445 3.04475 0 18.26861-18.77614 34-42.11941 32.47752-46.68663 54.80594-78.65673 85.25366-121.28356 19.79109-27.40307 21.31347-28.41792 31.46267-21.31347 36.0299 24.86565 82.20901 80.17911 110.62698 132.95525l9.1342 16.23881-23.8507 11.16416c-13.70147 5.58208-31.97018 13.70149-41.10444 17.76119-8.62693 3.55218-23.85079 9.64178-32.98515 13.70148-8.62683 3.55218-26.38802 10.65674-39.07455 15.73129-12.68664 4.56723-27.40297 11.16426-32.47762 13.70159-5.58208 3.04475-16.23882 7.10445-24.35822 9.64178-21.82089 6.0895-17.76119-4.0597 14.20891-37.55228 15.73139-16.23881 27.91049-30.44772 26.38812-31.46267-2.53733-2.53733-21.31347 6.59703-45.67169 21.82089-7.10445 4.56713-31.97009 19.79099-54.80594 33.49257-38.0597 22.83574-42.1194 24.35812-53.79109 17.76119-7.10445-3.55228-19.28356-6.0896-26.89544-5.58218-8.1194.50753-17.25376-2.0298-20.29851-6.0895-3.04486-3.55228-9.64179-36.0298-13.70149-72.05971-12.68664-99.97009-14.20901-109.10445-19.79109-109.10445s-7.10445 9.13436-19.79109 109.10445c-4.0597 36.02991-10.65663 68.50743-13.70149 72.05971-3.04475 4.0597-12.1791 6.59703-20.29851 6.0895-7.61188-.50742-19.79099 2.0299-26.89544 5.58218-11.67169 6.59693-15.73139 5.07455-53.79109-17.76119-22.83585-13.70158-47.70149-28.92544-54.80594-33.49257-24.35822-15.22386-43.13436-24.35822-45.67169-21.82089-1.52237 1.01495 10.65674 15.22386 26.38812 31.46267 31.9701 33.49258 36.0298 43.64178 14.20891 37.55228-8.1194-2.53733-18.77614-6.59703-24.35822-9.64178-5.07465-2.53733-19.79098-9.13436-32.47762-13.70159-12.68653-5.07455-30.95515-12.17911-40.59703-16.74624-9.64178-4.0597-24.35812-10.1492-32.98505-13.70148-8.11941-3.04475-25.88059-11.16416-39.58208-16.74624l-23.85069-11.16416 9.13426-16.23881c23.34326-43.13436 48.20901-75.61198 82.20901-107.58218l37.04475-35.01485 10.65673 14.20891c14.71644 19.79109 62.92535 87.79109 97.43277 138.0299 15.73139 23.34327 30.95525 42.11941 34 42.11941 3.04486 0 9.13436 3.04475 13.19406 7.10445 11.16416 9.64179 30.95525 15.22386 30.95525 8.62683 0-3.04475-14.20901-26.38801-31.46267-51.76118-17.76119-25.37307-34-49.73129-37.04475-54.29852-2.53733-4.56713-14.20901-20.80594-25.8807-36.53733-36.0298-49.22386-52.77604-76.62683-52.77604-86.26861 0-17.25376 104.53733-59.373168 149.70149-60.388016 23.85069-.507527 27.40297 1.014848 45.67158 19.790986zm-353.70148 260.83584c7.61198 4.05971 23.85079 11.16416 36.53732 15.73129 21.31347 8.62693 32.47763 12.68664 72.56713 29.9403 8.62693 3.55227 34.50753 14.20901 56.83584 23.34337 22.32842 8.62683 44.65674 18.26861 49.22386 20.80594 13.19406 6.59703 19.28367 5.58207 19.28367-3.04476 0-6.59703 3.04475-5.58208 14.71633 3.04476l15.22397 11.16415-2.53733 57.8508-2.0299 58.35821-49.22386 50.74624c-27.40297 28.41792-53.79099 54.80594-58.35822 59.37317-5.07466 4.0597-9.13436 9.64178-9.13436 11.67158 0 7.61198 11.16426 4.05971 32.47762-10.1492 11.16427-7.61199 24.35822-15.73139 28.41793-17.76119 4.0597-2.0299 14.71643-8.11941 22.83584-13.19406 8.62683-5.58208 16.74623-10.14931 19.28356-10.14931 6.59703-.50743-9.13425 25.37317-43.13425 72.0597-17.25377 24.35822-43.13436 60.38812-56.83585 79.67169-23.34326 33.49257-25.37316 35.01495-35.52237 27.91049-36.0299-25.37317-82.20901-80.68663-110.62693-133.46277l-9.13426-16.23881 23.85069-11.16416c13.70149-5.58208 31.9702-13.70149 41.10446-17.76119 8.62693-3.55218 23.85079-9.64178 32.98515-13.70148 8.62683-3.55218 26.38802-10.65674 39.07455-15.73129 12.68664-4.56723 28.92545-11.67168 36.53733-15.73139 7.10445-4.0597 16.74623-7.10445 20.80594-7.10445 8.1194 0 49.22396-42.11941 49.22396-50.74634 0-6.0895-7.61198-6.59693-19.28367-.50743-4.56712 2.53733-26.89544 12.17911-49.22386 20.80594-22.32831 9.13436-48.20891 19.7911-56.83584 23.34337-40.0895 17.25366-51.25366 21.31337-72.56713 29.9403-12.68653 4.56713-28.92534 12.17911-37.04475 16.23871-7.61198 4.0597-15.73139 6.08961-18.26871 4.56723-8.11941-5.07465-20.80594-49.73139-20.80594-74.08961 0-20.29851 2.53732-25.88059 20.29851-43.13425 11.16416-10.65673 20.29852-22.32842 20.29852-25.37317-.50743-2.53733-9.64178-14.20891-20.80594-25.37317-19.79109-19.79099-20.29852-20.80594-18.26872-50.74624 1.52238-28.92534 14.20901-68.50742 21.31347-68.50742 2.0298 0 9.64178 3.04475 16.74624 7.10445zm787.58205 16.23882c5.5821 13.19406 10.1493 34.50742 10.1493 48.20891 0 22.32841-1.5223 25.37317-22.8358 43.13435-12.6865 10.14921-22.8358 21.82089-22.8358 26.38802 0 4.0597 10.1493 18.77614 22.8358 31.9702 19.7911 21.31347 22.8358 27.40297 22.8358 47.19406 0 21.31337-16.2388 69.01485-23.3432 69.01485-1.5224 0-9.1344-3.04475-16.2388-7.10445-7.612-4.05971-23.8508-11.16416-36.53737-15.73129-21.31347-8.62693-32.47763-12.68664-72.05971-29.9403-9.13435-3.55227-35.01495-14.20901-57.34326-23.34337-22.32842-8.62683-44.65674-18.26861-49.22386-20.80594-11.67169-6.0895-19.28367-5.58207-19.28367.50743 0 8.62693 41.10456 50.74634 49.22396 50.74634 4.05971 0 13.70149 3.04475 20.80594 7.10445 7.61188 4.05971 23.85069 11.16416 36.53733 15.73139 36.53733 14.20891 74.59703 29.9403 113.16414 47.19396l23.8507 11.16416-9.1342 16.23881c-28.41797 52.77614-74.59708 108.0896-110.62698 133.46277-10.1492 7.10446-12.17911 5.58208-35.52237-27.91049-13.70149-19.28357-39.58208-55.31347-56.83585-79.67169-34-46.68653-49.73128-72.56713-43.13425-72.0597 2.53733 0 11.16416 4.56723 19.28356 10.14931 8.62683 5.07465 18.77614 11.16416 22.83584 13.19406 4.05971 2.0298 17.25367 10.1492 28.41793 17.76119 21.31336 14.20891 32.47762 17.76118 32.47762 10.1492 0-2.0298-4.0597-7.61188-8.62693-11.67158-5.07466-4.56723-31.46268-30.95525-58.86565-59.37317l-49.22386-50.74624-2.0299-58.35821-2.53733-57.8508 15.22397-11.16415c11.67158-8.62684 14.71633-9.64179 14.71633-3.04476 0 8.62683 6.08961 9.64179 19.28367 3.04476 4.56712-2.53733 26.89544-12.17911 49.22386-20.80594 22.32831-9.13436 48.20891-19.7911 57.34326-23.34337 39.58208-17.25366 50.74624-21.31337 72.05971-29.9403 12.68657-4.56713 28.41797-11.67158 35.52237-15.73129 18.2686-9.64178 18.7761-9.64178 30.4477 16.23882zm-440.4776 266.41792c2.53733 6.59703 6.59703 27.91039 9.64189 47.70148 8.62683 64.95525 17.25366 107.58208 22.32831 109.61188 4.56713 2.0299 11.16416-29.9403 22.32832-109.61188 7.10455-48.71643 11.16426-58.35822 30.44782-66.47762 14.20891-6.08961 16.74624-6.08961 19.28356 2.0298 2.0298 4.56723 17.25377 28.92545 34 53.28366 17.25377 24.86565 33.49258 48.71634 36.0298 53.28357 3.04486 4.56713 14.20902 20.80594 25.8807 36.53733 36.0298 49.22386 52.77604 76.62683 52.77604 86.26861 0 10.65673-43.64179 32.47762-104.53733 52.26861-45.16416 14.71644-60.38802 12.17911-84.23871-14.20891-11.67168-12.68653-24.35822-22.83584-27.9105-22.83584-4.0597 0-19.28356 10.14931-33.49257 22.83584-29.9403 25.88059-44.65663 28.41792-87.28357 14.71644-59.37306-19.28357-104.0298-42.11941-104.0298-52.77614 0-9.64178 16.74624-37.04475 52.77604-86.26861 11.67169-15.73139 23.34337-31.9702 25.8807-36.53733 3.04475-4.56723 18.77603-28.41792 36.0298-53.28357 16.74623-24.35821 31.9702-48.71643 34-53.28366 2.53732-8.11941 5.07465-8.11941 19.28356-2.0298 9.13436 4.0597 18.77614 12.17911 20.80594 18.77614z" style="stroke-width:.507462"/></svg>