<svg height="960" style="" width="1212" xmlns="http://www.w3.org/2000/svg"><path d="m579.89279 390.31971c-6.8869 2.8357-14.989 8.1021-18.2298 10.9378-3.2409 3.2409-14.1787 12.1532-24.3064 20.2553-39.7004 31.1932-160.422 127.6084-169.7394 135.3054-5.2664 4.4562-16.20425 13.3685-23.49616 19.8502-44.96676 38.4851-37.67486 107.3531 13.77356 133.685 11.343 5.6715 39.2953 6.4817 250.3556 6.4817 257.6474 0 244.684 1.2153 267.3699-21.8757 23.0911-23.4962 29.1677-62.3863 14.5839-91.1489-7.2919-13.7736-14.5839-21.4706-45.3719-46.9923-9.3174-7.697-130.039-104.1122-169.7394-135.3054-10.1277-8.1021-21.0655-17.0144-24.3064-20.2553-16.2042-15.7991-48.6127-20.6604-70.8935-10.9378zm1.6204-213.49092c-39.2953 12.96339-60.3608 42.94124-60.3608 85.47742 0 25.1165 1.2153 29.9778 12.9634 45.7769 25.5216 35.6494 58.3352 47.3974 98.4407 34.8391 21.4707-6.4816 30.383-13.3684 45.777-34.8391 11.343-15.7991 12.9634-21.0655 12.9634-45.3718 0-44.96681-19.04-71.70381-61.9812-86.28763-23.0911-7.69701-23.9013-7.69701-47.8025.40511zm-80.6161-172.5751675c-5.6715 2.43064-17.4196 5.67149-26.3319 7.6970195-97.2255 20.6604-212.27557 104.922458-276.28232 202.553008-9.72255 14.58382-17.41956 27.95232-17.41956 29.97785 0 2.02551-2.43064 6.88681-5.26638 10.12761-2.83574 3.646-8.50723 14.5839-12.55829 24.7115-4.05106 10.1277-9.72254 23.4962-12.55828 30.383-7.29191 17.4195-16.60935 51.4484-23.90126 88.3131-14.58382 72.1088-3.64595 187.9692 23.90126 251.9759 2.83574 6.4817 8.50722 20.2553 12.55828 30.383 4.05106 10.1276 9.72255 21.0655 12.55829 24.7114 2.83574 3.2409 5.26638 8.1022 5.26638 10.1277 0 4.8613 32.00337 53.474 46.58719 70.4884 33.21869 38.4851 47.3974 51.8536 76.97014 74.9446 58.33525 44.9668 119.91135 76.5651 170.14455 87.0978 8.9123 2.0256 21.4706 5.2664 27.5472 7.6971 15.394 6.0765 192.8305 6.0765 208.2245 0 6.0766-2.4307 18.6349-5.6715 27.5472-7.6971 95.605-20.2553 211.0602-104.1122 274.25681-198.907 8.5072-12.9634 17.4195-27.9523 19.4451-32.8136 2.4306-5.2664 5.6715-12.1532 7.697-15.394 3.6459-6.0766 12.1532-24.7115 22.2808-49.423 40.5106-97.6305 40.5106-247.1146-.4051-343.5299-14.1787-32.8136-18.6349-42.9412-21.8757-48.6127-2.0255-3.2408-5.2664-10.1276-7.697-15.39403-17.0145-39.70039-74.13441-106.13777-123.55741-144.622848-58.3352-44.96677-119.9114-76.56504-170.1445-87.09779-8.9123-2.0255295-21.4706-5.2663795-27.5472-7.6970195-14.5838-5.67148-195.6662-5.67148-209.4398 0zm189.5896 74.9446195c14.9889 3.64595 33.2187 9.31744 40.5106 12.15318 7.2919 3.24085 15.394 5.67148 17.8247 5.67148 4.4561 0 48.2076 21.065518 70.0833 33.623798 40.1055 22.68594 115.8603 95.19992 128.0135 122.34201 2.0255 4.4562 7.2919 13.3685 11.7481 20.2553 4.4561 6.4817 9.3174 14.9889 10.5327 18.2298 1.6205 3.2408 7.6971 17.4195 14.1788 31.5983 6.4816 13.7736 11.748 27.9523 11.748 31.5982 0 3.2409 2.0256 9.7226 4.4562 14.1787 5.67151 10.9379 15.79911 81.0212 15.79911 110.9991 0 29.9778-10.1276 100.0612-15.79911 110.999-2.4306 4.4562-4.4562 10.9379-4.4562 14.1787 0 3.646-5.2664 17.8247-11.748 31.5983-6.4817 14.1787-12.5583 28.3574-14.1788 31.5983-1.2153 3.2408-6.0766 11.343-10.5327 18.2298-4.4562 6.4817-9.7226 15.7991-11.7481 20.2553-12.1532 27.1421-87.908 99.656-128.0135 122.342-21.8757 12.5583-65.6272 33.6238-70.0833 33.6238-2.4307 0-10.5328 2.4306-17.8247 5.6715-59.1455 25.5216-189.1845 25.5216-249.5453 0-7.2919-3.2409-15.394-5.6715-17.8247-5.6715-4.4561 0-48.2076-21.0655-70.0833-33.6238-40.10552-22.686-115.86034-95.1999-128.01352-122.342-2.02553-4.4562-7.29191-13.7736-11.74808-20.2553-4.45617-6.8868-9.31744-14.989-10.53276-18.2298-1.62042-3.2409-7.69701-17.4196-14.17871-31.5983-6.48169-13.7736-11.74807-27.5472-11.74807-29.9778 0-2.8358-2.43064-12.1532-5.67149-21.4706-23.09104-66.4374-18.22977-168.9293 11.74808-249.1403 8.91233-23.9012 10.12765-26.3318 13.7736-32.4084 2.02553-3.2409 4.86128-8.9124 6.07659-12.1532 1.62043-3.2409 6.07659-11.7481 10.53276-18.2298 4.45617-6.8868 9.72255-15.7991 11.74808-20.2553 12.15318-27.14209 87.908-99.65607 128.01352-122.34201 35.2442-20.2553 83.0467-40.105488 109.3786-46.182078 8.9123-1.62043 21.8757-5.26638 28.3574-7.29191 21.0655-6.4817 129.2288-5.26638 159.2067 2.02553z" style="stroke-width:.405106"/></svg>