<svg height="960" style="" width="1430" xmlns="http://www.w3.org/2000/svg"><path d="m500.70751 482.7122c-2.78302 6.95756-3.47877 14.61085-1.39151 16.69813 6.26179 6.26179 11.82783-4.17454 9.04482-17.39388-2.08726-11.82783-2.78303-11.82783-7.65331.69575zm83.49059-477.9836201c-2.78302 2.08728-4.87028 89.7523901-4.87028 194.1156201 0 136.36797-2.08727 191.3326-8.34906 194.81138-4.17454 2.78302-28.52595 4.17453-54.26888 3.47877-51.48586-1.39151-83.4906 4.17454-83.4906 14.61086 0 4.87028 26.43869 6.26179 70.96701 4.87028 64.00945-2.78302 71.66275-1.39151 73.75001 9.74056 2.78303 12.5236-22.95991 71.66276-34.09198 78.62031-12.5236 7.6533.69575 14.61085 36.87501 20.1769 35.4835 4.87027 36.17925 5.56603 16.00236 11.82781-27.13444 7.6533-91.83965.69576-96.01418-11.13206-2.78302-6.95756-13.91509-8.34906-39.65802-5.56604-37.57078 3.47877-84.88211-13.21935-104.36323-36.87502-12.5236-15.30661 4.17452-45.22406 25.04716-45.22406 20.17689 0 37.57077-6.95755 37.57077-14.61085 0-18.78539-97.40568 8.34905-112.71229 31.30897-9.74057 13.9151-5.56604 31.30897 9.04482 45.22407 17.39386 16.00236 87.66511 42.44103 113.40804 42.44103 22.95991 0 29.91745 16.00236 18.78538 44.52831-4.87029 11.82784-11.13208 30.61321-13.91509 42.44105-5.56605 23.65566-16.69813 25.74294-21.56841 3.47877-5.56604-22.9599-14.61084-18.08962-34.78774 18.08963-16.00237 29.91747-21.56841 34.78775-49.3986 39.65802-16.69811 3.47878-33.39623 9.04482-36.87501 12.5236-4.17453 3.47878-18.78538 6.26179-32.70047 6.26179-13.9151 0-29.22171 4.87029-34.092 10.43632-4.87028 5.56604-13.9151 10.43633-20.87264 10.43633-6.95755 0-16.00237 4.87028-20.87265 10.43632s-12.5236 10.43632-17.39388 10.43632c-4.87029 0-17.39387 9.74057-27.13444 21.5684-41.049538 48.70281-15.30661 82.79481 102.27597 134.28071 14.61086 6.2618 31.30897 11.132 38.26652 11.132 6.2618 0 25.74293 4.1745 43.13681 9.7407 82.79483 26.4386 151.67456 32.0046 393.10151 32.0046 241.4269 0 310.30668-5.566 393.10148-32.0046 17.3939-5.5662 36.875-9.7407 43.1368-9.7407 6.9576 0 23.6556-4.8702 38.2665-11.132 117.5826-51.4859 143.3255-85.5779 102.276-134.28071-9.7406-11.82783-22.2642-21.5684-27.1344-21.5684-4.8703 0-12.5237-4.87028-17.3939-10.43632-4.8703-5.56604-13.9151-10.43632-20.8727-10.43632-6.9575 0-16.0023-4.87029-20.8726-10.43633-4.8703-5.56603-20.1769-10.43632-34.092-10.43632-13.915 0-28.5259-2.78301-32.7004-6.26179-3.4789-3.47878-20.1769-9.04482-36.8751-12.5236-27.8302-4.87027-33.3962-9.74055-49.3986-39.65802-20.1769-36.17925-29.2217-41.04953-34.7878-18.08963-4.8702 20.87265-16.698 18.08963-22.26408-4.87028-2.0873-10.43633-8.349-29.2217-13.2193-41.04954-10.4364-27.13444-4.1746-44.52831 16.0023-44.52831 18.78538 0 82.79488-23.65566 107.14628-38.96227 18.7854-12.52358 22.2641-38.26651 6.2618-51.48586-32.7004-27.13443-107.842-47.31133-107.842-28.52594 0 7.6533 17.3939 14.61085 37.5708 14.61085 18.7854 0 33.3961 26.43869 24.3514 43.1368-11.8279 20.87265-61.2264 41.04954-97.40568 39.65803-18.0896-1.39151-37.5708 1.39151-42.441 5.56604-13.2194 11.13207-68.18404 16.69811-96.01425 10.43631-24.35142-6.26178-24.35142-6.26178 16.00236-11.82781 38.96229-4.87029 53.57309-12.5236 40.35379-20.1769-11.1321-6.95755-36.87501-66.09671-34.09198-78.62031 2.08726-11.13207 9.74058-12.52358 70.27128-9.74056 41.7453 1.39151 67.4882-.69576 67.4882-4.87028 0-10.43632-32.7005-16.69813-81.4033-14.61086-24.3515.69576-47.3114-1.39151-50.79014-4.87028-4.17454-4.17453-7.65331-89.05662-8.34907-197.59439-2.08726-191.3326001-2.08726-191.3326001-17.39387-193.4198601-8.34906-1.39150995-25.04717 4.87028-36.87502 13.2193301l-20.87264 16.00237v172.54722c0 164.19815-.69575 172.54722-13.21934 172.54722-9.04481 0-13.9151-6.95756-17.39388-22.95992-9.0448-48.70284-23.65566-91.83965-29.22169-89.05663-6.2618 3.47878-20.1769 46.61558-27.83021 89.05663-3.47876 16.00236-8.34905 22.95992-17.39387 22.95992-12.52358 0-13.21933-8.34907-13.21933-172.54722v-172.54722l-20.87266-15.30661c-20.17688-15.30660005-41.74529-19.4811301-50.7901-10.4363301zm112.01653 528.7737301c-6.95754 1.3915-18.08962 1.3915-24.35141 0-6.95756-2.08726-1.39152-3.47878 11.82783-3.47878 13.21934 0 18.78539 1.39152 12.52358 3.47878zm62.61794 0c-6.95754 1.3915-19.48113 1.3915-27.83019 0-9.04482-1.39151-3.47878-2.78302 11.82783-2.78302 15.30661-.69576 22.26416.69576 16.00236 2.78302zm30.61322 169.76418c73.05423 7.6533 116.88683 21.5684 116.88683 37.57076 0 22.95992-93.92692 45.22407-191.3326 45.22407-97.40569 0-191.33259-22.26415-191.33259-45.22407 0-15.30661 43.13679-29.91746 104.36323-36.87501 83.49058-9.04481 82.09907-9.04481 161.41513-.69575zm-502.33503 43.83255c0 45.22404 82.09908 90.44814 194.81137 108.53774 20.87265 3.4788 57.0519 9.0449 80.01181 13.2194 54.26889 9.7405 251.86327 9.7405 306.13218 0 22.9599-4.1745 59.1392-9.7406 80.0118-13.2194 112.71228-18.0896 194.81138-63.3137 194.81138-108.53774 0-13.91509 3.4787-16.69811 20.1769-16.69811 11.132 0 23.6556 4.87028 28.5259 10.43632 4.8702 5.56604 12.5236 10.43632 18.0896 10.43632 13.9151 0 30.6133 28.52596 30.6133 51.48591 0 34.7877-63.3137 84.1863-121.7571 95.3183-32.7005 6.2619-86.2737 18.0897-125.23598 27.8303-15.3066 3.4788-84.1863 9.7405-152.37027 13.915-129.41041 6.9576-347.18169 0-404.23359-13.915-38.26651-9.7406-91.83965-21.5684-125.23587-27.8303-58.44342-11.132-121.75712-60.5306-121.75712-95.3183 0-22.95995 16.69812-51.48591 30.61322-51.48591 5.56604 0 13.21935-4.87028 18.08963-10.43632 4.87029-5.56604 17.39387-10.43632 28.52595-10.43632 16.69811 0 20.17689 2.78302 20.17689 16.69811z" style="stroke-width:.695754"/></svg>