<svg height="960" style="" width="1551" xmlns="http://www.w3.org/2000/svg"><path d="m1211.431 941.96868c-2.3486 6.4582-.5872 8.2196 6.4582 7.0454 5.284-1.1743 10.5679-5.2841 12.3294-9.3938 3.5225-10.5681-14.6779-8.8067-18.7876 2.3484zm88.6538-46.969c-5.8711 6.4583-5.2841 59.8855 1.1742 63.9953 12.9166 7.6324 33.4654-29.9428 28.7685-54.0144-1.7613-10.568-22.3102-17.6133-29.9427-9.9809zm-17.6133-175.5465c-6.4582 5.8711-4.6969 36.4009 1.7613 49.3174 7.6324 13.5036 29.3557 15.2649 29.3557 2.3484 0-8.8066-21.7232-55.7756-25.833-55.7756-.5871 0-3.5227 1.7613-5.284 4.1098zm-164.3915 1.7613c-28.1814 29.9427-54.0143 58.7112-56.9499 65.1695-5.8711 9.9809-4.1098 11.1551 18.7876 10.568 14.0907 0 50.4917-3.5227 81.0216-7.6325 61.6468-7.6324 60.4726-6.4582 47.5561-50.4916-12.3294-43.4463-23.4845-67.5179-31.117-69.2793-4.6968-.5871-31.1169 22.3103-59.2984 51.6659zm125.055-95.1122c0 8.8067 2.9356 19.3747 6.4583 22.8974 3.5226 3.5227 8.2195 14.6778 10.568 25.2458 4.1097 21.7232 14.6778 24.0716 17.0262 2.9356 2.3485-16.4392-19.9619-67.5179-28.7685-67.5179-2.9355 0-5.284 7.6324-5.284 16.4391zm-328.1958-154.4105c-48.1432 61.0597-42.2721 63.4081 49.3174 23.4845 9.9809-4.6969 23.4845-9.3938 31.1169-11.7423 7.0454-1.7613 12.9165-6.4582 12.9165-9.3938 0-7.0453-46.3819-40.5107-56.3628-40.5107-4.1097 0-20.5489 17.0262-36.988 38.1623zm-241.3032-89.8282c-86.3055 5.8711-157.9332 31.117-237.7804 83.9571-63.99529 42.8592-137.38432 126.2291-169.08838 193.747-5.87112 12.9165-14.67781 30.5298-19.37471 39.3365-4.69689 8.2196-8.21957 19.3747-8.21957 25.2459 0 5.284-3.52267 16.4391-8.21957 25.2458-4.10979 8.8067-9.98091 32.2912-12.32936 52.253-3.52267 30.5298-2.34845 36.988 4.6969 36.988 4.6969 0 11.74225-4.1097 16.43914-9.3937 4.10979-4.6969 40.51075-34.6397 81.0215-65.1695 40.51074-31.117 75.15035-58.1241 76.91175-60.4726 1.7613-1.7613 19.9618-16.4391 41.0978-32.2911 21.1361-15.8521 49.9046-39.9237 64.5824-54.0144s28.7685-25.2458 31.704-25.2458c4.1098 0 102.1576-73.389 109.2029-82.1957 2.9356-3.5227 62.2339-49.9046 124.4678-97.4607 12.9165-9.9809 24.0716-20.5489 24.6587-23.4845 1.1742-8.2195-57.537-11.7422-119.7709-7.0453zm22.3103-98.04771c-1.1742 1.7613-26.4201 5.284-55.1886 8.2195-70.4534 7.6325-95.1122 14.0907-163.8043 45.7948-27.0072 12.32931-92.17662 49.31741-96.87351 54.60141-1.76134 1.7614-20.54893 17.0263-42.27209 34.0525-21.72315 17.0263-53.42721 48.7304-70.45347 70.4535-17.02625 21.7232-32.87829 41.0979-35.81385 42.8592-6.45823 4.6969-12.91647 16.4391-41.68497 73.9761-49.90454 100.9834-55.77566 122.7065-65.75657 244.2388l-4.10979 52.2529 14.0907-2.3484c12.91647-1.7613 14.09069-4.6969 17.61336-48.7303 1.76134-25.833 6.45824-54.6015 9.98091-63.4081 4.10979-9.3938 7.04535-24.0717 7.04535-32.8783 0-8.8067 4.10979-21.1361 8.80668-27.5943 4.6969-5.8711 8.80669-17.6134 8.80669-25.833 0-8.2195 4.10978-19.9618 8.80668-25.8329 4.6969-6.4582 8.80669-15.852 8.80669-21.7231 0-5.2841 4.10978-12.9165 8.80668-17.0263s8.80668-11.1551 8.80668-15.2649c0-9.9809 50.49166-84.5442 84.54417-124.4678 48.14321-56.3628 130.92606-119.1838 194.33416-147.3652 16.4391-7.6325 36.9881-17.0263 45.7948-21.72321 9.3938-4.6969 22.3102-8.2195 29.3556-8.2195 7.0453-.5871 19.3747-4.1098 27.5942-8.8067 8.2196-4.6969 27.0072-8.2196 41.685-8.8067 54.0143 0 81.6086-6.4582 81.6086-18.2005 0-7.6324-4.1098-11.1551-13.5036-11.1551-7.6324 0-15.2649 1.1742-17.0262 2.9356zm288.8592 9.3937c-36.988 28.7686-120.358 92.17671-184.3532 141.49411-64.5824 48.7303-121.5323 92.1766-126.2292 96.2864-5.284 4.1098-18.7876 15.2649-31.1169 24.0716-11.7423 8.8067-89.2411 68.6922-173.1981 132.1003-83.36998 63.9952-189.6373 145.0167-236.01917 180.8306-46.38187 35.2267-88.06684 69.2792-92.17662 75.7374-7.63246 9.981-4.10979 10.5681 63.99523 14.0907 39.33652 1.7614 257.74226 2.3485 485.54186 1.1743 425.0693-2.3485 427.4177-2.3485 467.9285-25.2459 7.0454-4.1098 16.4391-7.0453 21.136-7.0453s11.7423-4.1098 15.8521-8.8067c4.1097-4.6969 10.5681-8.8067 15.265-8.8067 4.1097 0 21.136-7.6324 37.5751-17.6133 16.4392-9.3938 34.6397-17.6134 41.0979-17.6134 5.8711 0 22.8974-8.2196 36.9881-17.6134 14.6778-9.9809 29.9427-17.6134 34.0525-17.6134 4.6968 0 13.5036-4.1097 19.3747-8.8066 6.4582-4.6969 16.4391-8.8067 22.3103-8.8067 9.9809 0 21.136-14.6778 15.2649-20.549-3.5227-3.5226-339.9381 21.1361-403.3463 29.9428-22.3102 2.9355-31.1169 2.3484-29.3556-2.3485 2.3485-6.4582 91.5896-99.2219 314.6923-324.6731 72.2148-72.8019 130.926-135.6229 130.926-139.1456 0-7.6324-33.4654-3.5226-45.2076 5.8712-3.5227 2.9355-14.0907 7.6324-23.4845 10.568-8.8068 2.9355-31.1169 10.568-48.7303 17.6133-17.6134 7.0454-38.7494 14.6779-46.969 17.6134-8.2196 2.9356-29.3557 10.568-46.969 17.6134-17.6133 7.0453-38.7494 14.6778-46.969 17.6133-8.2196 2.9356-29.3556 10.5681-46.969 17.6134-17.6134 7.0454-45.2077 16.4392-61.6468 20.5489-55.7757 14.6779-72.8019 21.1361-76.3246 26.4201-2.3485 3.5227-9.3938 5.8711-17.0263 5.8711-7.0453 0-18.2005 4.1098-24.6587 8.8067-5.8711 4.6969-14.0907 8.8067-18.2005 8.8067-3.5226 0-32.2911 12.3293-63.9952 27.0072-34.0525 15.852-58.7112 24.6587-62.2339 21.136-2.9356-2.9356 4.6969-17.6134 19.9618-36.401 38.1623-47.5561 81.0215-100.9833 112.7256-142.0811 15.852-20.549 31.704-39.9237 35.2267-42.8592 4.1098-3.5227 19.3747-21.7232 34.6396-41.09791 14.6778-19.3747 35.2268-44.6205 44.6206-55.7757 9.9809-11.1551 18.2004-22.3102 18.2004-25.2458 0-11.1551-19.9618.5871-82.1957 49.3174zm163.2173 251.28411c-.5872 3.5227-34.6397 40.5107-75.1504 82.7828-185.5275 194.9213-190.2244 198.444-198.444 177.3079-8.8067-23.4845-70.4535-81.6086-96.2864-91.0024-15.852-5.8711-12.3294-21.136 5.8711-28.1814 8.8067-3.5226 24.0716-9.9809 33.4654-14.0906 9.9809-4.1098 29.3556-11.7423 44.0334-17.6134 14.6779-5.284 33.4654-13.5036 42.2721-18.2005 8.2196-4.6969 20.549-8.2196 26.4201-8.2196 6.4582 0 16.4391-4.1098 22.8974-8.8067 5.8711-4.6969 15.852-8.8066 21.136-8.8066s17.6134-4.1098 27.5943-8.8067 26.42-12.9165 36.4009-17.6134 21.1361-8.8067 25.2459-8.8067 21.7231-7.6324 39.3365-17.6133c32.2913-17.6134 48.7304-22.3103 45.2077-12.3294zm-478.4966 78.0859c-36.988 49.9046-45.2076 57.537-58.1241 57.537-19.9618 0-17.6133-7.6324 8.2196-27.0071 11.7422-8.8067 22.8974-18.7876 23.4845-21.1361 1.1742-2.3484 5.8711-4.6969 10.568-4.6969s8.2196-2.9355 8.2196-5.8711c0-3.5227 2.9355-5.8711 6.4582-5.8711 4.6969 0 4.6969 2.3484 1.1742 7.0453zm99.222 125.6421c25.2458 15.852 69.2793 59.2983 69.2793 68.105s-8.8067 4.1098-25.833-12.9165c-24.0716-24.6587-76.9117-48.1432-116.8353-52.253-36.9881-4.1098-46.3819-12.9165-18.7876-19.3747 29.3556-6.4582 65.7566 0 92.1766 16.4392zm-196.0955 14.0907c3.5227 9.3937-2.3484 18.7875-28.1814 45.7947-21.7231 21.7232-36.9881 44.6205-44.6205 65.7566-18.2005 47.5561-50.4917 49.9045-35.8139 2.9355 12.3294-39.9236 31.117-69.8663 62.2339-98.6348 32.8783-30.5299 39.9237-32.8783 46.3819-15.852zm-165.5656 78.0859c-4.1098 7.0453-9.3938 21.7231-11.7423 32.8783-5.87112 30.5298-12.91646 35.8138-51.07876 35.8138-19.37471 0-34.63963-2.3484-34.63963-4.6969 0-2.9355 12.32936-13.5036 27.00717-24.0716s36.40096-28.1814 48.1432-38.7494c22.89742-21.7231 35.22672-21.7231 22.31032-1.1742zm299.4272 28.1814c25.2458 15.2649 36.401 34.0525 25.2458 41.0978-9.9809 5.8712-25.8329 6.4583-100.3962 1.1743-65.1694-4.1098-69.2792-8.2196-35.2267-36.401 18.7876-15.2649 26.4201-17.6134 56.3628-18.2005 24.6587 0 39.9236 3.5227 54.0143 12.3294zm99.8091 3.5226c4.1098 5.8712 8.2196 15.8521 8.2196 22.3103 0 10.568-1.7614 9.3938-14.6778-5.284-8.2196-9.3938-14.6778-19.3747-14.6778-22.3103 0-8.2195 12.9164-5.284 21.136 5.284z" style="stroke-width:.587112"/></svg>