<svg height="960" style="" width="1200" xmlns="http://www.w3.org/2000/svg"><path d="m470.71792 575.67507v30.37619c-8.51044 0-18.29584 3.92054-25.05319.76498-90.17234-42.58404-180.02594-85.93306-269.87954-129.28208-24.73444-11.25162-41.69156-35.53982-42.1378-63.87606v-.0637c-4.78114-91.70236-8.82917-183.40466-13.29157-277.72066 67.31848-62.505469 148.21541-105.089509 225.12805-165.873759 5.00426 46.95082 29.83432 81.56629 27.22063 122.30162l-60.87987 16.447129c-10.90101 27.44375 0 45.83521 12.74971 63.58919q68.08346 96.26033 136.35817 192.32941 41.81906 58.90367 83.415 117.83922c1.9762 2.83681 1.8487 8.70167 4.14365 9.68978 34.64735 14.69404 45.10211 42.58404 43.57214 77.42263 0 1.40246 5.54613 3.05993 12.08036 6.53422 2.83681-5.54612 8.70168-11.66598 7.74545-16.54275-5.00427-26.90189 7.61795-43.57214 27.53938-59.66865 15.07653-12.08036 28.08124-25.85004 39.01412-41.18157l.41436-.63749q101.83833-144.42237 201.70045-290.02408c10.90101-16.12839 20.46329-33.97799 9.59416-59.12679l-60.43364-16.542759c-3.69741-40.83095 21.77014-75.25517 26.45566-121.31351l223.4706 157.586449c-1.8487 54.44127-10.901 230.35543-10.136 268.44519.7649 40.19347-14.8216 67.86035-52.3695 85.07246-84.08434 38.75912-167.05309 79.62195-251.13744 118.69982-11.63412 4.17553-25.30818 7.52233-39.42849 9.46666l-1.08373.1275 6.31111-34.83859c30.37619-22.66261 39.97035-60.65676 64.25855-88.00489 2.61369-2.93243-3.37867-13.5147-7.39483-27.53938-19.88955 29.61121-39.07787 55.04688-59.50928 79.36696l1.14747-1.40247c-14.59842 15.77777-3.37867 25.49943 1.40247 37.89852-17.21211 3.25118-22.312 30.82243-45.29335 21.77014l-39.20537 49.11826c62.18672 88.41926 125.0428 177.73099 187.96264 267.04273.9881 1.40247 2.29494 2.83681 3.15555 4.36678 18.20021 29.19684 19.06082 49.02264 2.93243 63.04736-12.30347 10.901-45.1021 8.1598-63.81231-8.7017-8.15981-8.25545-13.19595-19.63457-13.19595-32.16116 0-.19125 0-.35062 0-.54187v.0319c1.62559-21.77014-8.9248-33.75487-24.60694-44.56025-38.75913-26.58315-38.75913-26.58315-41.72344-73.62959-7.64983-5.54612-16.35151-10.51851-25.59505-14.47092l-.89248-.35062c-16.16026-3.60179-28.04936-17.81772-28.04936-34.80671 0-2.1037.19124-4.14366.54186-6.15174l-.0319.22312c1.30684-15.45902 0-32.67114-16.44713-35.82669-6.18361-.76498-13.3872-1.17935-20.65453-1.17935-13.19596 0-26.07317 1.43434-38.47226 4.14366l1.17935-.22312c-6.11986 3.28305-10.32727 9.43478-10.90101 16.6065v.0638c6.31111 41.59593-17.84959 58.80805-55.01501 69.70905 4.01616 37.45228-6.85297 66.33038-45.42085 80.70568-15.90527 5.99236-20.04892 21.77013-20.36767 40.60783 0 28.20874-34.64734 52.49698-63.04732 48.79948-14.3753-2.5818-25.18069-14.9809-25.18069-29.9299 0-2.03996.19125-4.04804.57374-5.99237l-.0319.19125c3.47429-14.69405 9.40291-27.635 17.33961-39.01412l-.255.38249c62.28235-89.63048 125.36155-178.71909 187.10203-266.50086-11.44286-16.12839-20.04892-41.2772-34.74296-45.51648-19.69831-5.67362-32.67114-19.28394-49.2139-26.67877 3.15556-8.06419 10.90101-19.28394 8.70168-23.74634-18.5827-33.69112-40.92657-62.56921-67.06348-87.55865l-.1275-.1275c-4.14366 28.7506-3.92054 28.65498 2.07183 37.35666 11.85723 17.53085 22.98135 35.60357 35.50795 52.72006 6.50235 7.45858 13.45094 14.15218 20.9414 20.24017l.31874.25499zm-244.69886-349.91586c28.97372 53.03881 61.9636 92.24417 98.01341 142.22304 2.29495-18.29583 6.85298-28.65497 3.6018-33.53174-24.2882-34.96609-49.88325-69.03969-76.24328-102.79456-2.39057-3.60179-11.21975-2.83681-25.37193-5.86486zm753.73112 1.40247c-17.08461 3.15555-27.53937 2.07183-30.91805 6.31111q-38.6635 50.64823-74.61769 103.55954c-2.83681 4.01616 2.70931 13.83344 6.4386 29.41996z" style="stroke-width:31.8743"/></svg>