<svg height="960" style="" width="1120" xmlns="http://www.w3.org/2000/svg"><path d="m239.23973-120c-3.9095 0-5.86137 1.95714-4.39531 4.88925 1.46606 2.44343 6.35576 4.8892 10.26526 4.8892 3.90949 0 5.86137-2.44577 4.39531-4.8892-1.46606-2.93211-6.35576-4.88925-10.26526-4.88925zm587.13862 20.55915c-3.4218.10018-8.9009.94634-17.3307 2.4124-6.8416.97737-14.1695 4.88495-17.1016 7.81706-2.4435 3.4208-18.0837 14.66345-34.2104 24.92585-35.674 23.45691-36.1613 23.94702-101.15649 89.43089-29.32113 28.83245-52.77945 54.24269-52.77945 57.1748 0 2.44338-2.92688 8.30287-6.83637 12.21236-8.79634 9.77371-12.22142 40.56472-4.40246 43.00814 7.81896 2.93212 40.55996-26.8758 40.55996-37.1382 0-12.21714 26.39234-48.38559 52.29271-71.8425 13.1945-11.72846 28.8291-26.38282 35.6707-32.73574 25.9003-23.94559 71.8401-60.59941 88.9441-70.86181 9.7737-5.86423 19.0573-14.17281 20.5234-18.0823 1.5271-4.58142 1.5295-6.48798-4.1734-6.32095zm-538.02428 4.0016c-8.67418 0-16.85823 1.58393-16.85823 4.76039 0 2.44343 7.33172 8.30809 16.12806 12.70626 15.14924 8.30766 23.45262 14.66395 76.23067 59.62302 55.22149 47.40251 82.58739 77.21141 97.24795 106.53254 31.27591 62.55172 72.81942 69.87819 44.47566 8.3038-10.75111-23.45691-106.53682-123.14546-140.25613-145.62495-9.77372-6.84165-25.90225-17.59034-36.16465-24.43193-9.77369-6.35292-19.05541-14.17663-21.01013-17.10874-1.95474-3.17646-11.11902-4.76039-19.7932-4.76039zm-100.71269 171.08049c-3.07241.23203-3.98727 2.70448-2.1547 7.65243 1.46606 4.39817 2.93498 9.7761 2.93498 12.21958 0 6.84155 44.46803 48.37841 61.08333 57.17475 28.83246 14.66057 64.99661 44.46991 82.10061 67.92682 9.28502 12.70582 25.41212 31.27681 34.69717 40.0732 21.99086 21.50217 22.48096 35.1882 1.46749 54.24694-8.79634 7.81899-23.45977 28.83199-32.25611 45.93599-17.59268 33.2306-36.16227 56.688-45.936 56.688-3.42078 0-20.03418 13.1945-37.13819 29.3211-17.10401 15.638-40.56425 32.7382-52.29271 37.625-27.85507 11.2398-26.87436 22.9711.98072 24.9259 18.08136 1.466 23.45167-.977 50.81808-23.9451 27.36637-22.4796 32.25754-24.9282 48.38416-22.4849 10.2624.9774 21.9899.4892 25.89936-1.9542 4.88688-2.4434 17.59173-1.4651 33.22969 3.4217 14.66057 4.3982 27.3645 5.8652 29.8079 3.4218 2.44345-2.4434 2.44535-15.6341-.48676-30.2947-7.33029-39.0949-5.86376-54.7361 5.37603-66.9533 5.86423-6.3529 11.72512-18.0837 13.67985-26.8801 2.44344-12.2171 8.31386-18.5667 25.90654-28.3404 12.70581-6.84161 27.36208-18.08422 32.24896-24.92581 11.23975-14.17189 31.76741-24.92297 68.90754-36.65143 26.38902-7.81897 26.38807-7.81662 55.2205 4.88925 33.71931 15.14921 88.93843 67.43959 112.39533 106.04569 15.1492 25.9004 16.6177 36.1594 12.2195 86.9827-.9774 11.2398.4902 12.2162 16.1281 11.2388 9.285-.4886 33.2249-.9735 52.7723-.9735 33.2306-.4887 36.6514.975 58.6423 17.1016 12.7058 9.7737 23.4617 19.5475 24.439 21.9908 2.4435 5.8643 33.2316 10.7512 47.4035 7.3303 18.57-4.8868 14.6562-11.726-11.7328-24.4318-13.1945-5.8642-37.6297-22.9716-54.7337-37.6322-16.6153-14.1719-34.6958-28.3433-40.56-31.2754-10.2624-5.3755-29.806-31.2754-44.9552-60.5966-4.8869-9.7736-17.1045-26.8791-27.3669-38.1189-20.0361-21.99081-22.4819-31.27104-12.2195-41.53344 3.4208-3.4208 22.48-24.92204 42.0274-47.89027 30.2985-35.18536 76.235-73.30284 87.9634-73.30284 8.7964 0 58.1531-52.78186 60.5966-64.999 2.9321-17.59269-4.8864-17.10493-31.2754 3.90855-22.4796 17.59269-43.9798 29.81032-95.7805 56.68798-28.8324 14.66057-99.2023 79.65483-99.2023 91.87197 0 2.44343-4.401 7.33317-10.2652 10.26528-14.6606 7.81892-30.29801-3.90953-38.60566-29.32114-4.39817-13.19451-14.17047-26.3924-27.85367-37.63216-11.72846-9.77367-22.47905-22.47617-23.94511-28.3404-2.44344-10.2624-4.39674-10.75441-35.18393-8.31103-18.0814 1.46606-33.71979 4.89214-34.69717 7.82425-.97739 2.93211-12.21999 15.14969-24.92583 27.36684-22.47953 21.50216-24.92249 26.39-31.27539 54.73376-5.86423 25.90034-34.2085 23.45071-49.35774-3.91569-12.70584-23.94559-61.08477-66.45553-91.87196-82.09347-44.95905-22.47954-78.67884-42.03028-100.66969-59.62297-14.35516-10.99542-25.4675-16.83678-30.58822-16.45023zm362.40528 268.61481c-20.03613 0-26.8758 2.9279-44.46848 17.5884-30.29852 25.4117-35.67789 34.6991-35.67789 63.5316 0 29.8098 5.86709 42.5123 32.25611 64.9918 25.90036 22.4796 60.59276 26.8825 83.56096 9.7785 34.69667-25.4117 42.02842-34.699 45.44917-56.2012 5.37559-37.6288-.48482-52.2884-30.29465-77.2114-24.43429-19.5474-30.30043-22.4777-50.82522-22.4777zm-207.20222 190.5874c-10.75111.4888-24.43763 2.9288-30.30186 6.3496-43.00433 25.4117-59.61871 61.0896-47.89026 101.6505 5.86423 20.0361 11.24074 26.8748 32.74292 41.0467 30.7872 20.5248 49.84641 21.9932 78.67884 4.8892 28.34379-16.6153 35.67265-25.4116 42.51422-51.312 8.79634-34.6966-.001-58.1531-30.78862-82.5874-20.03609-16.1266-28.33995-20.0366-44.95524-20.0366zm414.89121 0c-16.6153 0-25.4064 3.9105-43.4878 18.0824-37.1401 30.2985-45.4482 76.2345-20.0366 111.9085 10.7512 16.1266 48.3761 36.1575 66.9462 36.1575 35.1853-.4887 82.1006-47.402 82.1006-82.5874 0-38.6061-45.9388-83.561-85.5224-83.561zm-160.17101 44.0677c-3.95385-.3925-9.1891 1.8636-15.75579 6.7504-9.77372 6.8416-9.77182 5.8652-7.81708 98.7154 1.46605 67.9274 5.86327 79.6554 40.55994 104.5783 11.72846 8.3077 21.99232 20.0352 23.45838 25.8994 2.44343 8.7963 6.84399 10.7535 26.88006 12.2195 13.6832.9774 26.8758 4.4016 29.808 8.311 2.9321 3.9095 16.1266 9.2803 29.3211 12.2124s31.7669 10.7506 41.5406 16.6148c9.2851 6.3529 27.8504 12.7078 41.5335 14.1738 13.1945 1.4661 39.0968 5.37885 58.1556 8.31095 38.6061 6.353 49.8463 2.4392 78.6788-26.39325 8.3076-8.3076 21.0121-19.5431 27.8537-24.9187 36.65145-26.8777 36.65475-35.1877.9806-70.8618-15.1492-14.6606-28.347-32.2509-30.3018-39.0925-6.3529-28.3437-40.5599-47.4077-40.5599-22.4847 0 19.5474-5.3737 27.3669-22.4777 34.6971-18.57 7.819-21.5017 20.5272-9.2845 41.5407 6.8416 12.2171 9.7708 34.2104 4.3953 34.2104-2.9321 0-12.2167-6.8459-45.936-33.7237-17.5926-13.6831-31.7617-10.7505-26.3862 5.3761 6.353 21.0135 4.8855 25.9008-8.7977 27.3669-9.7737.9773-13.687-.4873-13.687-5.8628 0-7.819-18.0819-22.4777-27.3669-22.4777-2.9321 0-13.6827 5.8647-23.9451 12.7063l-18.5691 12.2124-12.7064-11.7256c-6.8415-6.8416-17.5941-14.6634-23.4583-17.5956-6.3529-2.9321-11.2388-8.7949-11.2388-13.193 0-3.9095-5.37078-12.7082-12.21238-19.5498-14.17183-14.1719-21.99085-27.8546-21.99085-38.6057 0-4.3982-5.86472-20.0347-12.70627-35.1839-10.75111-22.4796-12.7106-31.2773-9.77849-52.7795 3.02374-26.8777.5092-40.5841-8.18932-41.4476zm-89.56691.4223c-3.91269.082-7.85572 2.3322-11.70412 6.822-3.90946 4.3982-5.37981 22.4758-4.40246 52.2856 1.46605 53.7554-.97497 63.0395-24.43188 91.872-24.43429 30.2985-24.92582 31.2763-46.91668 42.0274-16.12662 7.3302-20.03278 12.22-21.01017 24.9258-1.95473 21.9909-11.23736 28.3457-31.76216 21.5041-9.28505-3.4208-21.99657-11.2427-27.8608-17.5956-13.19451-13.6831-27.85556-15.6403-42.02745-4.8892-13.68319 10.2624-20.0366 8.7978-27.36688-5.8628-3.42079-7.3303-12.21428-14.6601-19.05589-16.6149-16.6153-4.3981-58.15547-44.9576-58.15547-57.1747 0-5.3756 3.42079-12.2205 7.33029-15.6413 11.23974-9.285 8.79729-19.5427-3.90855-19.5427-14.17188 0-23.94178 10.26-37.62498 39.0925-5.86423 12.2171-16.62008 34.2104-24.43905 48.871-21.01349 40.0722-19.54313 50.8214 11.73275 81.1199 38.60616 37.62875 48.86475 42.02355 88.93696 35.67065 18.57007-2.4434 45.936-6.83585 60.59657-8.79055 14.66057-1.9548 36.16366-8.7964 47.40344-14.6606 11.23979-5.3755 23.94416-10.2652 27.85366-10.2652 3.90949 0 13.68699-5.3727 21.01728-11.7257 10.7511-8.7963 21.49932-12.7096 41.04673-13.687 22.96824-1.466 26.3876-2.9344 27.85365-12.2195.97739-6.3529 8.79873-15.144 19.54983-21.4969 9.77369-5.3755 23.46025-17.105 30.30183-25.4126 11.23978-14.1719 12.21335-20.039 15.63414-90.8984 2.44344-62.5517 1.95568-78.1845-3.90855-87.4695-4.67305-6.8721-9.65142-10.349-14.68204-10.2438zm78.63592 268.2068c-6.414.3053-12.39753 3.2371-12.64188 8.3683-2.93212 37.62885 8.79776 74.77035 23.45833 74.77035 4.39817 0 12.70681 3.9091 18.08235 9.2846 16.12663 14.1718 40.07364 20.0365 82.1006 20.0365 44.4704 0 68.9028-9.7761 66.4593-26.8801-1.466-8.3077-6.3557-10.261-32.2561-13.1931-17.104-1.9547-36.1579-6.3558-41.5335-10.2653-5.8642-3.9095-17.105-8.3033-25.4126-10.2581-16.61532-4.3982-58.64656-33.72445-63.04474-44.47555-1.95472-5.3755-8.79776-7.693-15.21176-7.3876zm-77.21136.7446c-4.94794.1374-8.24657 1.5161-8.24657 3.7152 0 7.819-58.14931 49.35775-68.90039 49.35775-5.37555 0-14.66247 3.4189-21.50408 7.8171-6.3529 3.9094-23.94511 8.7992-38.60568 10.2652-68.90467 7.3303-33.72074 40.5599 42.51422 40.5599 37.62877 0 43.49539-1.4684 56.20122-12.2194 8.30767-6.8417 21.50028-14.6635 29.80791-17.5956 12.70584-4.3982 16.61867-9.7713 22.97157-31.7622 10.2624-35.67405 7.81753-47.88985-8.79777-49.84455-1.95473-.2445-3.79111-.3394-5.44043-.2936z" style="stroke-width:.488684"/></svg>