<svg height="960" style="" width="1802" xmlns="http://www.w3.org/2000/svg"><path d="m1608.7879 524.60695c-34.1133-55.72212-68.8117-111.07861-103.1078-166.69105-9.2139-14.91773-18.0622-30.0914-26.6911-45.41133-12.797-22.70567-50.9689-86.91042-50.9689-86.91042l-29.2504-13.16271-46.9836 28.26326-47.1298-28.48263-47.532 29.25045c-15.3565-9.72577-30.6398-19.34186-46.8373-29.54296-15.5393 9.5064-32.2852 19.19561-48.4826 29.25046l-.4388-16.41682s34.1499-21.57221 48.9214-31.33455l46.8373 30.4936c16.8922-10.63986 32.2121-19.96344 47.8245-29.7989 16.234 11.40767 31.9196 19.04936 46.5448 29.25045 15.7587-10.96892 31.0421-18.86654 45.777-29.25045 6.691 3.6563 17.404 9.94515 22.6691 12.72394l-18.9031-32.90676c-15.5759 9.61609-34.1134 20.62157-48.9945 29.7989l-47.9342-28.19012-46.9836 28.48263-46.4716-28.59232-49.3602 28.8117c0-8.22669-.1828-16.05119-.1828-16.05119s34.7715-21.93784 49.5064-31.70018c15.9049 10.60329 31.3345 20.25594 45.8866 29.98171l48.8483-29.98171 46.8373 30.74954c13.4918-9.17733 28.5923-18.50092 41.5722-27.34918l-8.6654-13.89397c-11.3711 6.36198-20.9872 14.04022-32.5777 20.47532-15.7953-9.32358-32.2487-19.37842-48.2267-28.77513-16.0146 9.39671-31.5174 18.57404-47.2761 27.86106l-47.1298-27.60512c-16.4168 9.43327-32.3948 19.89031-49.287 29.54296-.5484-6.21572 0-11.883-.3291-15.72212l49.3236-32.61426c17.0019 10.71298 32.2852 20.03656 47.788 29.7989 8.7751-6.47166 39.744-25.19195 47.5319-29.76234l47.2761 29.98172 24.1682-16.19744c-63.9123-81.6819-142.8885-142.3766-232.5777-192.97989l-49.4333 66.61792c9.0677 20.21937 7.1298 42.23034 6.9104 63.94881a32.431444 32.431444 0 01-3.1444 12.10237c-8.5923 20.07313-25.0457 32.32176-43.2907 42.55942a69.469835 69.469835 0 00-37.0383 60.54845 383.58318 383.58318 0 01-4.4973 54.04021c-3.3638 17.91591-7.8976 36.01463-19.89032 50.85924-6.25228-3.43693-5.30164-8.66545-5.30164-13.41865 0-17.65996-.25595-35.31993 0-53.01645a228.5192 228.5192 0 00-6.28885-48.22669c-2.26691-10.96893-11.44424-23.87569-14.07678-36.56308 10.53016-14.44241 24.57038-32.68738 16.89213-48.51919a25.191956 25.191956 0 00-8.117-10.01828c2.74223 19.56124-3.40036 26.98354-10.74954 30.45704a15.319927 15.319927 0 01-14.33272-.91408 28.702011 28.702011 0 01-9.76234-10.42048c5.88665-10.56672 13.08957-21.09689 15.5393-30.42047 2.44973-9.32359 2.85192-14.62523 0-20.54845s-7.09324-11.99269-17.18464-12.32175c5.11883 8.117 10.53016 17.33089 6.58135 23.40036-7.31261 11.29799-20.36563 15.79525-34.47898 4.68008 14.80805-32.90677 13.52834-44.24132-8.29981-54.11335 5.77696 7.31261 8.8117 15.42962 4.64351 21.35283-6.61792 9.43328-17.69653 9.39671-28.95796 6.25229-6.39853-1.75503-12.65082-4.16819-19.12248-5.41134-14.62523-2.77879-29.25046-7.49543-44.53382-1.2797a19.122486 19.122486 0 01-19.41499-2.41317c-5.1554-10.71298-1.27971-19.81718 5.70384-28.15356 3.91224-4.64351 8.99451-8.40951 12.39488-13.34552a34.588665 34.588665 0 005.0457-13.41865 15.612431 15.612431 0 00-4.57038-12.35832c-8.29982 7.31262-15.39306 13.49178-22.63254 19.56125-6.47167 5.48446-14.11335 9.90859-19.415 16.27056-7.31261 8.84827-13.49177 18.93967-10.96892 31.55393.54845 2.88849 1.35284 5.74041 2.41317 10.16454-11.55394-7.31262-12.72395-16.05119-8.15357-24.93602 5.52102-10.67641 12.8702-20.40219 19.19561-30.67641a82.961609 82.961609 0 004.64351-10.42048 156.74589 156.74589 0 01-32.43144 26.03291c-11.37112 7.49543-23.65631 16.16087-21.06033 31.73674 1.57221 9.46984 6.21572 18.0256 10.12797 26.76417-13.05302 16.9287-32.50457 27.4223-33.74771 50.16453-1.0969 20.14626 2.34003 38.75686 16.70932 55.57587 4.7532-21.57221 12.83364-44.78976 36.12431-42.92504 6.58136.54844 11.29799 4.0585 17.44059 6.54479a40.219378 40.219378 0 019.43327-6.58136c4.89945-1.64533 10.63986-.47532 16.08775-.69469a82.193784 82.193784 0 018.00732-6.65448c17.33089-5.30165 19.96343 0 30.53016 10.31078-8.44607 1.46253-15.13711-3.6563-23.3638-1.75502-9.32359 2.15722-22.63254 11.66362-30.93236 17.73309-6.21572 4.57038-19.15905 9.14076-16.12432 24.46069 10.01829-4.0585 18.7203-8.22669 27.86106-10.96892 9.68922-3.10786 19.52468-7.31262 28.92139-7.31262 5.70384 0 10.16454 1.46253 14.88117 1.79159 11.73675.87752 30.09141 14.22304 40.62158 26.91043a44.826325 44.826325 0 015.44789 52.1755c-4.57038 6.06947-7.53199 7.31261-12.13894 7.78793-5.30164.73126-10.31078-1.49908-15.17367-1.75503 3.43693 21.17002 29.03108 21.68191 34.88117 21.20659-6.03291 45.08226-37.25777 71.51736-66.32541 99.15905a137.65996 137.65996 0 01-52.76051-36.56308c-9.39671-10.4936-19.63437-20.03656-34.47898-24.16819-6.54479-.91407-14.62523-2.04753-20.87751.4022-13.63803 5.30164-26.54479 2.85192-39.04936-1.31627-14.2596-4.7532-29.25046-9.9086-37.40402-24.16819-8.15357-14.2596-15.75869-30.23766-9.43328-47.532-22.19378-17.58683-43.83912-34.8446-67.05667-53.12614-37.98903 61.06033-74.40585 120.65814-110.71298 181.09689l23.87569 16.01463 47.53199-31.1883 47.53199 31.1883 47.53199-31.22486c14.91774 9.83546 47.75137 32.24862 47.75137 32.24862l.21938 15.42962c-15.28336-9.39671-33.30896-19.70749-48.4095-28.99451l-47.16637 29.06764-47.78793-29.25046c-16.12431 9.98172-30.96892 20.9872-46.4351 30.4936-9.43327-5.48446-30.71298-19.89031-32.90676-20.40219-1.82816 3.91225-5.37478 8.55576-7.78794 13.8574 13.23583 8.99452 26.94698 17.69653 39.63437 26.28885l47.78793-30.4936 47.532 30.23766 47.53199-30.42048 49.17733 32.13894v15.35649c-17.03839-9.7989-34.36929-19.63437-49.76234-28.48263l-47.1298 27.8245-23.76599-13.9671-23.54662-13.78427-23.94881 14.07678-22.52286 13.1627-48.22669-29.76234s-19.45155 32.17551-19.56124 32.24863c-.10969.0731 13.74771-7.64168 20.87751-10.7861l47.532 30.05484c15.39305-11.33455 29.25045-23.10786 47.27605-30.34735l46.0329 29.43328 48.29982-30.49361c16.81901 11.66362 32.61426 21.68191 48.55576 32.90677-.2925 3.98537.32907 10.96892 0 15.46618l-49.32358-29.25046c-15.42962 9.1042-31.84644 19.12249-47.532 28.40951l-47.53199-28.11701-46.65448 27.86106-47.97075-27.78793c-8.29981 4.71664-29.83546 13.2724-29.83546 13.2724s-59.12249 91.66362-78.75686 123.61974-39.34186 63.69287-58.82998 95.90494c-22.70567 37.25777-44.64351 74.73491-67.53199 111.91956-20.80439 34.04022-42.19379 67.93418-63.14443 101.71846-3.94881 6.39854-8.08044 13.23583-12.68738 21.93784 21.93784.21938 43.14442 3.18099 62.15722-3.6563 16.96526-6.10604 34.00365-13.30896 41.46252-32.90677-5.59415-7.49543-3.87568-14.80804-3.40036-22.48629 1.42596-22.77879 19.45155-34.91773 36.56307-43.87568a69.469835 69.469835 0 0026.80073-22.99817q60.76782-91.40768 122.23035-182.41317c7.31261-10.96892 13.8574-24.64351 26.7276-28.73857a19.012797 19.012797 0 0114.04022 0c13.67459 4.42413 19.3053 17.22121 20.43876 31.00548l-13.82084 7.31262c-3.29068-7.31262-5.22852-19.81719-15.21024-17.07496-4.82633 1.35284-7.05667 6.58136-10.31079 11.29799-30.60329 44.97258-61.49908 89.79891-91.40768 135.28337-31.84643 48.55576-62.63254 97.80621-93.74771 146.83729-4.09506 6.50823-8.26326 13.52834-12.5777 21.57221 22.34004 2.44973 44.64351 3.83913 64.71664-3.6563 15.61243-5.77697 31.80987-12.90677 37.9159-30.16454-5.77696-28.37294 5.19196-49.06764 28.73858-66.28885 10.42047-1.42596 20-8.70201 27.71481-18.28153 5.22851-6.61792 9.90859-13.67459 14.62522-20.6947q61.64534-91.91956 123.32724-183.87568a32.541133 32.541133 0 0112.72395-12.54114 18.537477 18.537477 0 0116.08775-.91408c17.98903 6.76417 19.15905 15.72213 21.93785 32.46801l-13.52834 4.09507c-3.65631-6.06947-1.60877-13.93053-10.4936-14.62523s-11.883 7.31261-15.75868 13.19927c-19.415 29.25045-38.46436 58.68373-57.76966 87.97075q-62.77879 95.50274-125.70384 190.93235c-4.53382 6.91042-8.55576 14.14991-14.07678 23.36381 21.93784-.54845 41.27971 2.63254 60.07313-3.65631 17.29433-5.92322 34.77148-12.10238 42.01097-31.59049-6.98355-16.38026 0-31.40768 5.48446-42.52286 5.48446-11.11517 18.79342-16.19744 25.33821-23.18098 14.99085-2.92505 20.91407-12.17551 29.25045-24.31445q66.69104-99.48811 134.07679-198.46435c3.98537-5.88665 8.00731-12.65082 14.07678-15.39305a21.572212 21.572212 0 0117.29433.80439c13.41865 4.7532 16.6362 18.02559 20.2925 30.60329l-15.06398 8.33638c-4.53382-6.25229-7.31261-17.29433-14.40585-15.39305s-10.63986 10.31078-15.21024 17.29433c-27.49543 42.01097-54.5521 84.31444-82.04753 126.28885-35.72212 54.07678-110.23766 166.76417-111.84644 170.16453 34.33273 2.99817 66.94699 2.81536 94.84461-22.3766 4.31444-5.37477 4.4607-13.71115 4.89945-22.3766 1.3894-28.15356 12.72395-50.2011 41.06033-59.85375 8.26326-2.81535 12.8702-8.48263 17.3309-15.06398q36.56307-54.07678 73.12614-108.04388c20.29251-30.0914 40.21938-60.36563 60.73126-90.34735 5.04571-7.31261 9.94516-15.97806 17.22121-19.45155a19.561243 19.561243 0 0116.59963-.91408c13.16271 4.13163 15.28337 20.47532 21.93785 31.66362l-14.14991 7.78794c-3.65631-3.98538-5.52103-20.54845-15.50275-16.78245a14.369287 14.369287 0 00-6.36197 5.70384c-30.60329 46.47166-61.02377 93.05301-91.73675 139.45155-25.59415 38.82998-51.88299 77.36746-77.58683 116.19744-11.73675 17.73309-22.81536 35.86837-35.21024 55.46618 13.45521 0 24.38757.40219 35.31993 0 26.39853-1.20658 49.72577-9.25046 66.14259-31.66362 1.93785-16.08775-2.6691-32.90676 7.31262-47.97075 9.98172-15.06398 24.09506-23.3638 40.54844-27.93419 44.60695-61.17001 89.65265-121.35283 134.62523-181.60877 14.2596 10.96892 17.51371 15.42962 22.81536 31.51737a597.36746 597.36746 0 0119.70749 69.46983c3.36381 16.67276 11.22487 39.85375-5.44789 48.95795-5.8501 3.21755-20.91408-1.86471-20.91408-1.86471v41.49908c22.59598-.58501 60.73126-11.44424 61.20658-35.35649 0-8.00731-7.93419-13.34552-12.65082-20.95064 8.8117-3.6563 14.62523 0 19.48811 5.41134 14.18648 15.72212 8.48264 31.29799-7.53199 42.92504a113.60146 113.60146 0 01-15.42961 9.5064c-43.87569 22.3766-84.35101 49.9086-125.37478 76.78245a217.3309 217.3309 0 00-43.25411 39.85375 100.62157 100.62157 0 00-21.57221 42.96157c-2.0841 8.6289-2.85192 16.4534 1.02376 24.6801 7.93419 16.7459 13.01646 33.8574 1.49909 54.223 14.62523-7.4954 16.78245-21.2797 26.76417-29.872 8.117 14.223 8.84826 29.7258 9.90859 48.4095 7.31261-14.4424 18.75686-32.9067 18.02559-36.1243-.73126-3.2175-10.96892-13.1261-15.90493-19.1956 7.67824-13.2724 4.27788-25.5942.51188-36.9287 2.04753-9.1773 3.65631-17.2943 5.66728-25.41134 0 0 29.57952-1.49909 33.96709 2.44973 11.26143 10.16451-2.44972 22.48631-2.3766 34.69831a23.69287 23.69287 0 007.31262 15.1006c6.17915 4.7166 10.56672 7.532 18.82998 4.2047-.29251-11.4442-2.63254-22.1206-.25594-31.627s14.62522-20.4022 14.22303-25.59416c-.58501-5.99635-27.97075-28.04388-21.35283-46.1426 3.3638-9.32358 9.46983-14.04022 19.48811-16.34369a20.731261 20.731261 0 0014.18648-10.27423 48.957952 48.957952 0 018.70201-9.32358c16.27056-16.19744 34.36928-17.22121 48.77513-4.64351 8.59233 7.53199 7.89763 13.23583 2.30348 23.3638-5.26508-5.66727-8.22669-11.26142-14.2596-14.62523-10.78611-5.88665-21.57221.54845-27.34918 8.99452a90.164534 90.164534 0 00-16.6362 48.92139c-.69469 21.49909 3.91225 41.97439 8.84827 62.52289 3.65631 14.6252 6.87386 29.2504 6.10603 44.6435-.9872 18.7203 0 37.3309-3.03473 56.1608a199.78062 199.78062 0 01-13.52834 46.6911c-1.71846 4.1682-3.29068 10.2011-4.82633 14.1499a28.117002 28.117002 0 002.85192-.2194 85.996344 85.996344 0 0072.68739-69.4698 44.460695 44.460695 0 00-.9872-23.3638c-6.28885-15.2834-6.28885-30.8593-5.63072-46.5448.84095-19.8903 6.1426-38.3181 21.93785-52.0293 13.30895-11.59045 20.91407-26.39849 26.17916-42.88844 2.08409-6.69104 5.11883-13.05302 7.7148-19.56124 3.65631 26.65448-6.58135 48.95795-22.30347 68.44608a79.926874 79.926874 0 00-14.99086 30.5667 77.6234 77.6234 0 00-2.77879 20.2925 102.70567 102.70567 0 002.55941 18.6106c4.4607 25.0457 30.96892 44.4973 54.84461 38.9763 14.62523-3.3273 29.25043-6.3255 43.14443-13.0896 21.0969-10.3108 39.1956-22.4498 42.3766-47.7148.8775-7.3127-3.6563-20.841-6.0695-28.8849-11.2614 12.0659-20.0365 25.1189-32.4314 32.9068a31.005484 31.005484 0 01-19.8172 6.2889 25.59415 25.59415 0 01-19.30531-9.2871c-3.29067-4.3144-3.6563-10.9689-4.27788-16.9287-1.2797-15.0274 7.31262-26.7641 15.21024-37.989 8.40955-11.77331 18.50095-22.3766 29.25045-34.99086v-108.62888c19.6344-9.43327 38.8666-18.28154 57.6965-27.86106 16.9287-8.62889 35.3565-11.95613 53.5284-16.19744a15.502742 15.502742 0 0118.6471 9.06764c-5.85 15.35649-24.4972 13.82084-34.4058 25.26508v88.8117c23.1444-19.19561 23.3638-19.81718 17.2943-53.82084l11.9561-23.25411 12.1756 14.91773c12.0292 11.59049 28.1901 8.99452 33.7111 21.64534v21.24314c-16.1243 3.32724-14.8081 18.50092-19.2322 28.70201-4.4241 10.2011-14.8811 23.4735-4.351 36.05119a30.676417 30.676417 0 008.1902 7.31262c3.1809-12.97989-1.8648-25.59415 6.106-35.35649 7.0201-8.59233 13.6746-18.28154 26.6179-19.19562 5.1188 39.56125 5.7038 40.54845 25.5941 44.53382-2.1937-6.10603-4.2778-12.468-6.7641-18.6106a40.219378 40.219378 0 014.3144-38.20841c7.0201-10.53016 10.9689-21.57221 6.5083-33.27239a40.95064 40.95064 0 00-17.66-20.91408 34.369287 34.369287 0 01-17.0018-22.85192c-2.2304-13.05302-1.6819-26.87386-6.2523-41.86472a59.634369 59.634369 0 00-4.5704-10.96892c-8.2267-14.88117-18.4644-19.08592-34.8446-13.5649a169.21389 169.21389 0 00-19.5613 9.06764c-3.6563 1.86472-7.3126 5.11883-11.2248 5.88666-25.5942 5.08227-50.9324 11.4808-78.0256 12.83364v-32.90677c-12.9068 7.31262-24.022 21.93785-40.4753 17.18465-5.3383-1.57222-9.2505-7.31262-15.9781-11.66362.5484-6.32541-.80439-11.40768-.256-17.65997 6.8008 5.4479 11.1518 10.96892 16.7825 12.50457 14.4424 4.09507 23.0713-9.06764 28.2998-20.91407 1.9744-4.4607 4.351-8.73858 6.4351-13.12615q29.2505-61.75502 58.1719-123.51005a66.54479 66.54479 0 015.7038-8.5192c12.6143 7.31262 17.1847 18.57404 22.596 31.33456v31.80987c17.4771 27.31261 66.1426 38.90311 99.1225 28.55576a110.56673 110.56673 0 00-6.5448-14.62523c-24.0951-37.69653-48.1901-75.39305-72.6874-112.79708-23.8757-36.56307-48.2633-72.50457-72.468-108.70201-7.3126-10.96892-13.7477-27.67824-28.117-24.78976-7.0201 1.42596-8.117 7.60512-10.9689 12.90676-5.0823-2.19378-12.0293-5.85009-15.7587-7.31261 4.5704-14.62523 11.7367-27.60512 25.3016-31.99269a19.378428 19.378428 0 0114.8446.91408 25.59415 25.59415 0 0110.2377 8.92139c9.6526 13.89397 19.0494 27.93418 28.5192 41.9744l78.8665 117.18465c3.3638 5.00914 7.3127 9.57952 10.3108 13.41865 17.0019 5.77696 31.6271 11.73674 39.9635 28.19012 8.0438 15.83181 9.031 32.39488 8.9945 47.97075 18.9762 31.70019 71.2614 36.96527 98.3546 28.95796-1.9378-3.87569-3.6563-7.75138-5.6672-11.26143q-24.5339-40.21938-49.2139-80.43876c-15.5759-25.22852-30.8958-50.60329-47.0567-75.42961-18.2815-27.86106-36.9287-55.28337-55.7953-82.63255-4.351-6.25228-8.702-13.82084-14.6252-13.56489-6.7276.2925-9.6161 8.33638-13.6746 15.13711l-16.1243-6.80073c5.9232-10.53017 8.8848-20.80439 15.9781-27.49543 14.2961-13.41865 25.9598-7.31262 36.1974 7.89762 30.2011 45.26508 60.1463 90.71298 90.4936 135.86837 8.0805 11.99269 17.2578 23.25412 25.5942 34.58867 19.1225 2.23035 28.2998 16.81901 37.9159 25.99634 9.9451 17.65997 5.1919 34.62523 7.3126 49.87203 23.5832 28.26326 63.0347 37.98903 97.6965 28.15357.4388-8.66545-5.8866-14.11335-9.7989-20.76783-33.0896-56.34369-66.8373-112.28519-103.3272-166.50823-14.6253-21.57221-29.2505-43.14442-43.437-64.82632-4.0585-6.17916-9.7257-16.78245-18.2815-11.40768-4.7898 3.03474-6.2523 9.90859-10.457 15.17368-4.5338-2.88849-9.2505-5.30165-13.4187-7.97075 4.8629-13.16271 9.9452-27.42231 23.2541-31.33456a17.25777 17.25777 0 0114.2231.91408c11.298 5.41133 17.8428 17.76965 25.2285 28.70201 29.8355 44.09507 59.0859 88.55576 88.5923 132.83364 6.7276 10.05484 13.6015 19.89031 25.5942 24.42413 18.2815 6.76417 29.872 20.21938 36.9287 40.51188v31.33456c17.1846 27.1298 64.6435 38.9031 97.7331 29.25045a32.61426 32.61426 0 00-6.0695-16.48994c-3.6563-5.55759-7.8976-10.74954-11.1883-16.52651-23.4369-40.95064-48.1902-81.06033-74.6984-120.10969-21.4259-31.51737-42.5228-63.25411-64.0585-94.73492-4.68-6.87385-6.9835-15.68555-16.8555-15.10055-8.8117.51189-8.5924 7.78794-13.0531 14.62523l-14.8811-7.64168c4.9725-9.94515 8.5192-18.75685 14.223-25.59415 8.2998-10.01828 21.2066-9.98172 31.0055-1.24314a52.50457 52.50457 0 017.4954 10.16453c31.0421 46.17916 61.9013 92.50457 93.1993 138.50091 9.7258 14.2596 18.2815 28.73858 37.0749 35.28337 24.2779 8.44607 36.8191 40.21938 30.1646 66.28885 7.6051 26.10603 64.095 43.87568 101.3528 32.28519-24.1316-40.84095-48.2632-81.90128-73.1993-122.52285zm-810.49357-437.11152a12.97989 12.97989 0 01-10.7861-5.77697c-4.02194-6.54479-2.70567-14.99085 3.6563-22.23034 11.99269 2.23034 12.79708 12.468 17.91591 21.2797-3.51006 2.19379-6.1426 6.58136-10.78611 6.72761zm122.01097 453.38208c-.73126 0-2.55941 0-5.52102-.2925-4.20476-.25594-8.15357-.40219-11.84644-.40219-6.28885 0-12.28519 0-17.95247.40219-.73126 0-1.46252 0-2.15722 0-2.15722 0-3.25411-.36563-3.25411-1.13346 0-.76782.58501-1.35283 1.75503-1.35283 5.70384 0 8.55576-1.75503 8.55576-5.30165 0-3.54661-6.58136-14.22303-19.78063-31.40767a140.73126 140.73126 0 00-10.96892 14.62523q-8.59232 12.57769-8.62888 15.79524c0 1.53565 1.09689 2.88848 3.25411 4.02194a20.548446 20.548446 0 008.29982 2.15722q2.52285.21938 2.52285 1.31627c0 .84095-.80439 1.24315-2.3766 1.24315h-2.48629l-13.71115-.32907c-8.08044 0-13.63802 0-16.6362.47532-1.90128 0-2.81535-.43876-2.81535-1.31627 0-.87752.6947-1.24315 2.08409-1.24315a20.073126 20.073126 0 008.37295-1.6819 18.610603 18.610603 0 006.39853-4.60694c1.71847-1.93785 5.55759-7.31262 11.48081-15.50275 5.92321-8.19013 10.01828-14.36928 12.28519-17.98903q-23.14443-33.82084-28.48263-38.17185a20.914077 20.914077 0 00-12.13894-4.75319c-1.24315 0-1.82816-.51189-1.82816-1.31627 0-.80439 1.13346-1.17002 3.36381-1.17002h35.39305a10.968921 10.968921 0 013.0713.21938 1.1334552 1.1334552 0 01.51188 1.06032 1.0603291 1.0603291 0 01-.62157.98721 20.292505 20.292505 0 01-4.20476.32907 7.3126143 7.3126143 0 00-3.91224 1.42595 3.6563071 3.6563071 0 00-1.60878 2.85192 42.084095 42.084095 0 006.4351 11.883 171.59049 171.59049 0 0012.06581 16.48995c2.19379-2.66911 5.19196-6.65448 8.95796-12.02925a102.3766 102.3766 0 006.7276-10.34735 9.3235832 9.3235832 0 001.06033-4.09507 5.0091408 5.0091408 0 00-2.59598-4.53382 11.736746 11.736746 0 00-5.59415-1.79159c-1.93784 0-2.92504-.62157-2.92504-1.49908 0-.87752 1.38939-1.13346 4.20475-1.13346h28.19013a16.014625 16.014625 0 013.47349.21938.87751371.87751371 0 01.62157.9872c0 .76783-.84095 1.20658-2.55941 1.27971a20.47532 20.47532 0 00-11.48081 4.16819 88.226691 88.226691 0 00-14.62523 16.74589q-9.46983 12.83364-10.56672 14.99086a370.56673 370.56673 0 0027.67824 37.98903q8.08044 8.66545 14.88117 8.95795c1.60878 0 2.41317.58501 2.41317 1.46252 0 .87752-1.0969 1.31627-2.7788 1.31627zm30.78611-25.11883a111.37112 111.37112 0 001.20658 15.61244 7.8976234 7.8976234 0 002.55941 4.16819 14.040219 14.040219 0 007.02011 2.30347c1.0969 0 1.6819.54844 1.6819 1.27971 0 .73126-.54844 1.20658-1.57221 1.20658h-16.70932l-14.22304.21938c-1.57221 0-2.3766-.43876-2.3766-1.35284 0-.91407.62158-1.42596 1.90128-1.42596 4.16819 0 6.61792-1.46252 7.31262-4.16819a159.74406 159.74406 0 001.09689-25.77696c0-14.00366 0-25.30165-.36563-33.9671-.36563-8.66544-.9872-13.96709-2.19378-15.90493a9.2870201 9.2870201 0 00-6.87386-3.65631c-1.24315-.21938-1.90128-.73126-1.90128-1.53565s.47532-1.20658 1.42596-1.20658l12.28519.25594 18.79342-.25594c2.26691 0 3.3638.43876 3.40036 1.31627.0366.87751-.62157 1.09689-1.82815 1.27971-4.97258.65813-8.08044 2.44972-9.32358 5.41133-1.24315 2.96161-1.86472 13.89397-1.86472 32.90677q0 10.42047.54845 23.47349zm104.35099-62.85192a20.438757 20.438757 0 013.6563.18282.87751371.87751371 0 01.6582.95064q0 1.20658-2.6326 1.64534a11.736746 11.736746 0 00-7.5685 3.6563 44.131627 44.131627 0 00-4.8629 7.16637q-2.3035 4.0585-12.3949 32.43144-3.6563 9.94516-16.1609 42.92505h-3.9854c-2.0841-6.80073-5.4113-16.01463-9.9451-27.75137l-12.72397-32.90677a161.57221 161.57221 0 00-8.22669-18.97623 15.722121 15.722121 0 00-4.57038-5.11883 14.369287 14.369287 0 00-6.25229-1.6819c-1.13345 0-1.6819-.47532-1.6819-1.20659 0-.73126.54845-1.2797 1.6819-1.2797h35.28333c2.1938 0 3.2907.36563 3.2907 1.13345 0 .76783-.7312 1.49909-2.1572 1.49909-5.9232 0-8.88483 2.52285-8.88483 7.60512a34.332724 34.332724 0 00.80438 5.77696 80.438757 80.438757 0 002.77885 9.76234c1.3528 3.87569 4.1681 11.77331 8.5557 23.72944 4.3876 11.95612 7.3126 19.3053 8.373 21.93784l14.4058-39.92688a92.50457 92.50457 0 006.2157-21.31627c0-4.71663-2.925-7.31261-8.7751-7.82449-1.17 0-1.755-.51189-1.755-1.27971a.98720293.98720293 0 01.6581-.9872 15.978062 15.978062 0 013.6563-.21938z" style="stroke-width:3.65631"/></svg>