<svg height="960" style="" width="1606" xmlns="http://www.w3.org/2000/svg"><path d="m385.19325 240c-21.10551 0-41.22754 1.96236-44.66331 3.92566-4.41737 2.94495-3.43329 6.38264 4.91074 14.23588 6.38066 5.39907 14.72375 11.28754 18.6504 13.25087 22.578 10.30735 98.16283 62.33108 98.16283 67.2393 0 6.38078-6.87497 5.40346-23.07214-2.9406-34.35789-17.66977-80.98063-36.81194-89.81554-36.81194-4.90818 0-11.78169 3.9228-14.23578 8.34022-4.41745 7.85318-4.90877 7.85655-5.39957.98498 0-4.41743-2.94163-10.80203-6.3774-13.74698-5.39914-3.92655-8.84014-2.94592-15.22088 3.92565-19.14223 21.10553-37.79032 238.05599-21.10226 243.45509 2.94497.9816 28.46323 2.94016 56.44029 4.9035 59.38997 3.43576 61.84499.49658 25.52391-30.91634-20.61471-18.16058-44.1744-53.9961-44.1744-66.75766 0-5.8899 23.0736-.97724 53.99571 11.78416 14.72477 5.8899 33.86229 12.27067 41.71543 14.72474 8.34403 2.45416 26.99786 8.83493 41.72263 14.72483s33.8694 12.27067 41.72263 14.72475c29.44963 7.85332 85.89368 29.4501 92.27443 34.8492 4.41737 3.43575-1.47635 6.37448-94.73323 47.60392-53.991 24.05048-82.94974 37.30852-110.436 50.07-16.19726 7.36238-40.24534 18.6471-53.98851 25.0278-29.94043 13.74316-32.39649 17.17846-28.96063 38.77486 2.94497 17.6697 8.34257 27.49004 27.9756 50.55892 10.7982 12.76147 12.76774 13.25227 26.02003 7.36237 7.85331-3.43575 27.97328-15.70883 45.15222-26.99783 16.68806-11.77986 31.908-21.10222 33.87129-21.10222 1.47248 0 7.35763-3.92992 12.26588-8.34734 5.39906-4.9083 10.79675-6.38176 13.25092-3.4368 2.45408 2.45422-17.66503 24.54276-49.07786 53.01074-29.44954 26.99542-53.4996 51.53768-53.4996 54.9735 0 8.83485 17.17706 11.77695 74.11286 11.77695h52.02566l33.87137-25.524c18.65134-13.74307 34.84337-26.50313 36.31585-27.97567 1.47249-1.9632 11.28892-9.8121 22.08712-17.66543 10.7982-7.85317 24.05048-18.16575 29.44971-22.58325 5.39897-4.41742 37.79923-31.89794 72.1572-60.36584 34.35771-28.4679 63.804-52.03284 65.27649-52.03284 1.4724 0 2.45168 6.87158 2.45168 14.72476 0 18.65144-9.81463 38.7786-37.30088 74.60894-11.7798 15.21564-21.5982 28.95496-21.5982 30.42743s-6.38083 12.27015-14.72478 24.04995c-7.85322 12.27075-14.72485 24.5418-14.72485 27.48675s-3.43577 5.39963-7.36235 5.39963c-5.39914 0-7.36242-5.8875-7.36242-24.53896 0-13.74307-1.96046-24.53894-4.41455-24.53894-2.94497 0-21.10465 11.78084-40.73768 25.524-20.12383 14.23394-41.71929 29.44477-48.09994 34.353-25.03218 16.6881-8.34695 18.6519 122.21279 12.76192 87.85792-3.43575 161.48375-3.43575 249.83247 0 69.20647 2.94502 127.12117 4.42035 129.57527 2.94788 7.8533-4.9083 3.9246-11.289-14.2358-22.0872-10.3074-6.38078-31.4105-20.61758-46.6262-32.39738-15.2156-11.77988-29.9414-21.10222-32.8862-21.10222-2.945 0-5.3996 10.30687-5.3996 24.05002 0 25.03215-7.361 37.2975-13.25084 21.59108-3.92666-10.7982-41.22567-68.71372-67.23944-103.5624-13.25237-17.66978-19.635-32.3955-21.59837-47.61106-.9816-12.27066-.98537-22.0872.978-22.0872 2.454 0 56.44868 44.17726 138.90755 113.38373 40.2477 33.867 121.7259 92.76855 128.5975 93.25935 41.7201 1.96328 118.2872-5.40532 118.2872-11.29522 0-5.39903-11.7766-16.6881-72.639-73.62398-20.6148-19.14218-33.3795-33.86362-30.4345-35.8269 2.9449-1.96328 9.3276-.008 14.2358 4.41458 4.9083 4.41742 9.8136 7.85842 11.777 7.85842 1.9633 0 19.1417 10.79776 38.7747 24.05002 19.6332 13.25236 40.2492 25.0293 45.6484 26.50178 20.1238 4.90822 56.4473-54.96922 49.085-80.00138-1.4724-3.92654-13.749-12.7605-27.9829-18.6504-14.2339-6.3807-39.2651-17.67066-55.4623-25.52392-30.4313-14.23394-72.1516-32.8911-110.4359-50.07-81.9681-35.83034-99.1437-44.16817-94.7262-47.60392 6.3808-5.3991 62.8249-26.99588 92.2744-34.8492 8.344-2.45408 26.9978-8.83485 41.7225-14.72475 14.7248-5.8899 33.8622-12.27067 41.7156-14.72483 8.344-2.45407 26.9977-8.83484 41.7226-14.72474 30.922-12.7614 53.9885-17.67406 53.9885-11.78416 0 12.76156-23.5597 48.59708-44.1744 66.75766-36.3212 31.41292-33.8679 34.3521 26.0127 30.91634 27.4864-1.96334 53.0118-3.9219 56.4475-4.9035 7.3625-2.45407 7.8566-85.89696.9851-137.43374-11.289-80.00468-13.2524-90.31012-22.0872-103.5624l-8.8363-13.74699-8.8364 10.79919c-4.9083 6.3807-9.8136 8.83342-11.777 5.88848-1.4724-2.45416-7.3627-4.9035-12.7619-4.9035-8.344 0-55.4648 19.1403-89.8226 37.30087-8.8349 4.41743-16.1963 5.40195-18.6504 2.9478-4.4175-4.41743 64.2967-53.99231 94.2372-67.73543 3.9265-1.96333 12.2696-7.8518 18.6504-13.25087 15.2156-14.23397 6.8759-18.16154-39.7526-18.16154-39.757 0-47.1226 2.94305-118.7833 44.66328-7.8532 4.90829-32.8845 17.67163-55.4625 28.96063-22.0872 11.289-41.724 22.57373-43.1964 25.0278-1.4725 2.45416-6.3798 4.42178-11.2881 4.42178-4.4175 0-10.7949 2.4546-13.7397 5.39955-3.4358 3.43583-17.6746 9.8166-31.9086 14.72483-22.08717 8.34404-41.22468 9.3252-144.78897 9.3252-140.37625 0-132.52311 1.9614-257.68379-65.7726-56.445-30.92206-70.67889-38.77865-95.71106-52.52177-22.0872-12.27066-30.43363-14.2287-63.80983-14.2287zm883.12055 324.06759c-20.8601.1227-41.1048 1.59277-42.8227 4.29232-1.4725 2.45408-.9854 5.89178.9778 6.87345 2.4542.98167 17.178 9.32663 33.3753 18.16147 16.1973 8.83492 32.8906 19.1403 37.3081 22.5762 3.9266 3.92656 11.2832 6.87338 16.1915 6.87338 4.4175 0 10.3077 5.39438 12.7619 12.26594 2.4541 6.3807 8.8348 14.72574 14.7249 18.16148 5.3989 3.43576 9.8212 9.8166 9.8212 14.72476 0 12.76154 28.9563 19.63792 76.0756 17.18376 23.0689-1.47246 43.687-3.43626 45.1594-5.39962 1.4724-1.47248 1.4724-5.89274 0-10.31018-2.4541-5.3991-11.2908-7.36574-36.323-8.34742-24.0505-.4908-27.4887-1.47008-12.273-2.45174 16.1973-1.47248 20.6133-3.92558 20.6133-11.28804 0-8.83484-21.5922-19.63544-39.7527-19.63544-5.3991 0-9.3253-2.9397-9.3253-6.86632 0-6.8715-13.7455-10.31116-56.4473-13.7469-12.7616-1.47248-14.7262-3.43486-16.1987-18.65048-.9817-9.32565-4.4175-18.64995-7.3624-20.61322-4.172-2.69956-25.6438-3.92618-46.5039-3.8034zm-944.71586 1.0137c-15.07569-.17543-28.167.33217-31.66406 1.80464-3.43577 1.47248-6.3774 11.29096-6.3774 21.59828 0 32.88532 7.85272 41.7207 24.05006 27.48682 4.41737-3.4359 22.09003-14.72438 39.75969-24.0501 17.66982-9.81652 31.40717-19.14412 30.91637-21.59827-.92032-2.7609-31.55855-4.94895-56.68466-5.24137zm1056.50336 93.5901c12.2707 0 17.178.98114 11.2881 1.96282-6.3807.98174-16.1973.98174-22.0871 0-6.3808-.98168-1.4716-1.96282 10.799-1.96282zm-1130.71684 1.6968c-6.10278.2502-12.91303 1.49406-20.27538 3.70282-30.92208 9.32564-26.01235 20.12624 8.83629 19.63544 28.95874-.49086 44.17294-7.85466 35.33803-16.19872-5.5218-5.21504-13.72774-7.55654-23.89894-7.13954zm-34.92113 31.0242c-22.2047-.17904-47.9303 2.34532-54.55647 7.03882-14.72475 11.289-4.41646 14.71958 40.24874 14.2287 41.2294-.49088 55.45857-4.90448 49.07783-15.7026-2.36212-3.65056-17.49977-5.42572-34.7701-5.56492zm1216.43427 1.51702c-26.2593 0-52.515 2.33288-54.233 6.9957-4.4173 11.77988 2.9446 13.73834 53.4995 12.26588 52.5185-1.47248 58.9001-2.44936 54.9737-12.26588-1.718-4.66282-27.981-6.9957-54.2402-6.9957zm-15.4221 31.93724c-14.6675.0978-27.0942.76066-30.9595 2.04908-22.578 8.34412-7.363 13.74698 38.7748 13.74698 45.6468 0 72.1523-5.89426 54.9734-11.78416-7.6692-2.7609-38.3435-4.17487-62.7887-4.0119zm-1233.48144.33076c-23.43698-.1227-46.87628.74002-49.08502 2.70337-2.45415 2.94495-4.41456 6.873-4.41456 8.83635 0 5.8899 97.17875 4.9068 100.6146-1.47398 1.96329-2.94494 2.45358-5.89177 1.96278-6.87344-2.20869-1.96328-25.64083-3.0696-49.0778-3.1923zm1225.59404 30.19012c-39.266 0-47.1222 1.47248-47.1222 7.36238 0 6.38077 6.875 7.35907 45.1594 6.3774 30.4313-.98168 45.6425-3.43388 47.115-7.8513 1.4725-4.41743-9.8126-5.88848-45.1522-5.88848zm-1257.98429.0791c-14.3964.0226-25.49991.86754-27.49386 2.86148-8.34405 8.83492 6.38505 11.78416 55.95845 11.78416 41.22939 0 53.98703-1.4763 52.51454-6.38454-1.6872-4.38682-49.30694-8.31126-80.97913-8.2611zm1206.34689 28.44294c-10.0025.14376-19.2285.92174-24.9343 2.39422-26.0138 6.38078-15.7079 12.76388 20.6132 12.27308 37.7937 0 61.8431-5.39476 48.1001-10.30306-8.2827-3.06764-27.1081-4.60388-43.779-4.36424zm-1163.58894.98504c-27.17948-.0615-54.29812 1.4121-56.016 4.35706-3.43575 5.3991 96.1991 12.76476 107.4881 8.34734 4.41745-1.47248 6.38314-4.91348 4.91065-7.85842-1.96337-3.19042-29.20321-4.78462-56.38275-4.84598zm1096.24184 27.28546c-8.3575-.13516-16.1787.32204-20.412 1.61046-21.1055 5.3991-10.7973 12.762 18.1615 12.762 26.5046 0 40.243-3.92422 34.353-9.81412-2.7608-2.45414-18.1734-4.33304-32.1025-4.55834zm-1082.17132 3.30014c-21.58388.1668-39.9036 1.31716-43.58475 3.70996-9.32572 6.38069-12.76245 5.89176 62.82484 6.87344 41.22934.4908 64.30251-1.46962 63.32083-4.41458-1.53386-3.98796-46.58777-6.44684-82.56092-6.16882zm957.94512 28.31355c-9.9391.0614-20.3683 1.65555-22.3315 4.84597-1.4724 2.45408 2.4536 5.89516 9.3252 7.85843 13.743 3.43583 32.3974-1.47577 32.3974-8.34735 0-2.94495-9.4517-4.4184-19.3911-4.35705zm-906.66717.76927c-24.9804-.0465-46.14293 1.01093-50.19225 3.58778-11.77988 7.85318.97778 9.3252 74.60179 9.3252 54.48171.4908 72.15574-.98212 70.68326-5.39955-1.22709-4.2948-53.45889-7.4367-95.0928-7.51343zm124.39851 28.60847c-47.39529-.2925-106.67794 1.54335-108.82534 4.91783-1.47249 2.45407-2.44835 4.91062-1.46675 4.91062 58.40838 3.92662 175.71249 4.4208 175.71249.98498 0-2.94496-3.4338-6.38603-7.85134-7.8585-4.96955-1.84058-29.13172-2.77958-57.56906-2.95493zm901.47626.88425c-1.9557-.0465-3.8613-.015-5.5792.10785-7.3625.49087-88.3498 2.4585-180.1343 4.42177-91.7844 1.96328-272.89454 2.9445-402.47268 1.96283-225.28928-1.96335-235.10674-1.96665-224.30862 6.3774 6.38074 4.90823 9.81462 10.30973 7.85134 12.27307-1.96329 1.96328-26.50217 3.43673-53.98852 3.43673-27.97705 0-51.53819 1.96043-53.01068 4.41457-1.4724 1.96328 47.11646 5.3991 107.48811 7.36238 83.93134 2.94495 114.36729 1.96575 127.61966-2.45175 12.2706-4.9083 19.63166-4.9116 27.9756-.98497 6.38083 2.94494 15.705 6.87494 20.61334 8.34742 20.61463 6.8715-.97783 9.32468-89.32663 11.28802-51.04585.9816-102.09805 3.43433-114.36874 5.88848l-21.59108 3.92558 24.53897 3.4368c13.74317 1.47247 40.24774 5.4024 58.89917 8.34734 55.9542 8.34406 166.88091 10.30456 235.5966 4.41466 55.46331-5.39918 120.74228-6.38318 239.52226-4.9107 16.688.4908 41.7211-.97928 54.9734-2.45176 13.7432-1.96327 56.445-3.92894 95.7112-4.91062 93.7477-1.96335 87.3694-1.47248 78.5345-7.36238-3.9266-2.45414-24.5446-4.9035-45.1594-4.9035-20.6146 0-40.7346-1.47532-45.1521-2.9478-11.7798-4.4175-4.4223-11.77702 12.2659-11.77702 8.344 0 18.6548-1.96755 23.0721-4.42178 4.9083-1.9632 26.5051-1.95794 49.574.49613 43.1926 4.9083 56.4465.97927 45.6483-12.273-7.8534-9.32573-2.4604-13.25093 18.1543-13.25093 21.5963 0 34.8539-6.87584 22.5833-11.78414-3.3132-1.10438-9.6632-1.9326-15.5301-2.07068zm-573.46141 34.95706c16.19735 0 23.55395.98115 16.19152 1.96283-7.36235.98167-20.61472.98167-29.44955 0-8.83482-.98168-2.93922-1.96283 13.25803-1.96283zm203.68817 0c14.7247 0 21.1093.98115 13.74687 1.96283-7.85324.98167-19.63544.98167-26.99778 0-7.85332-.98168-1.47395-1.96283 13.25091-1.96283zm-107.97703.48885c36.32109 0 51.53572.4923 33.37518 1.47398-18.65135.98167-48.10098.98167-66.26152 0-18.65143-.98168-3.43483-1.47398 32.88634-1.47398z" style="stroke-width:.857143"/></svg>