<svg height="960" style="" width="1004" xmlns="http://www.w3.org/2000/svg"><path d="m492.99143-59.987813c-14.77012.12118-29.53624 1.1391-44.30636 2.61615-70.89658 9.45292-132.33886 42.53779-170.1504 108.707937-18.90573 37.81147-28.36299 80.346976-14.18368 122.884906 18.90573 75.62304 66.16909 127.61247 127.61281 170.15039 42.53793 33.08511 89.80269 61.44445 132.34069 89.8031 33.08497 23.63223 56.71895 47.26748 70.89823 75.62614v66.17035c28.35865 23.6322 56.71809 47.25933 89.8031 70.89152 9.45292 0 18.90487-4.72408 18.90487-14.17697 14.17927-28.35865 28.3592-51.99012 23.63274-85.07519-4.72646-23.63223 4.72357-51.99395-9.45581-75.62614-4.72646-9.45285-9.45057-23.62889-14.17693-33.0818-33.08511-51.99084-80.34998-89.80651-132.34072-122.89162-37.8115-23.63223-80.3455-51.98727-118.157-75.61943s-70.89737-51.9945-89.8031-99.25889v-33.08181c23.63212-70.896563 75.61818-89.801653 137.06187-85.075193 37.81154 0 75.62431 4.72702 113.43585 23.632747h14.18368c33.08511 33.08511 66.1676 66.170346 122.88491 66.170346a73.380341 73.380341 0 0121.37304 25.40823c7.11391 14.50329 45.63123 28.44807 45.63123 28.44807-28.99702-16.77691-35.5769-27.45273-35.5769-27.45273 4.90806 4.78572 25.98879 16.31064 42.74608 16.71241-19.93237-6.57551-38.28011-16.68547-60.5009-47.84388 9.45291-4.72646 28.03666-5.18676 33.59293-14.176946 9.9393-16.08215-9.45202-33.08479-18.90483-42.53761a259.7523 259.7523 0 01-33.08856-42.5375873c-8.41719-18.9324597-41.48615-39.0147297-51.98664-37.8164397-54.14794 6.1788-37.21935 16.05919-103.98678-14.17696-32.49427-12.99778-64.98915-17.05969-97.48342-16.7931zm201.66523 71.14708c6.61704 6.61707 21.08528 29.142087 34.31925 42.376187-11.03587-1.88551-10.37264-7.2418-16.43664-5.59546-7.65524 2.07834-11.38337 2.1509-18.38028-3.46353-5.16091-4.1413.18033-13.972937 1.74186-17.553067 1.4605-3.34863.4706-8.781-1.24419-15.76413zm-223.06516 90.986743c-20.08739 0-40.17347 1.17836-61.44245 5.90482-9.45285 0-14.17986 4.72933-23.63275 9.45579-4.72646 33.08511 9.44962 56.71512 33.08181 80.34731a159.33545 159.33545 0 0180.34729-23.63275c23.63219-4.72646 47.26463-9.45435 66.17036-4.72789a364.31646 364.31646 0 01170.15711 56.72129 141.50994 141.50994 0 0037.80971 18.90485c-9.45285-28.35859-28.35976-47.26462-47.26549-66.17035a386.78001 386.78001 0 00-132.34068-66.17035c-18.90573-4.72643-42.53672-9.45579-61.44245-9.45579-21.26898 0-41.3551-1.17693-61.44246-1.17693zm-232.81686 77.39489c-7.68048.075-15.36048 7.75415-23.04093 15.43459-33.08512 42.53797-61.4415 85.07777-80.34732 137.06861-9.45291 37.81154-18.90338 80.34547-14.17695 118.157 14.17937 89.80231 42.53252 170.14915 113.42911 231.59285 47.26438 37.81153 99.25626 66.17321 155.97346 75.62613a278.94927 278.94927 0 0066.17036 9.45581c28.35865 0 61.44445-9.45729 89.80307-14.18368 4.72646-4.72649 4.7279-4.72267 4.7279-9.4491-14.17931-9.45291-28.35831-23.6356-42.53761-33.08851-42.53793-28.35869-85.07475-51.98723-127.61278-75.61942-37.81147-23.6322-70.90023-47.26893-99.25888-80.35404a155.72123 155.72123 0 01-37.80971-103.98004v-51.99339c0-47.26431 18.90539-85.07337 42.53758-122.8849-14.17927-28.35866-28.35831-61.44596-42.53758-94.531-1.77244-.88621-3.54732-1.26821-5.31972-1.25091zm308.43625 13.58514c-28.35865 0-61.44445 9.4506-89.80307 14.17695-4.72646 4.72646-4.72119 4.72933-4.72119 9.45579 14.17931 9.45292 28.35834 23.63562 42.53762 33.08854 42.53792 28.35868 85.07474 51.98722 127.61277 75.61941 37.8115 23.6322 70.89351 47.26219 99.25217 80.3473a155.7212 155.7212 0 0137.81646 103.98678v51.98667c0 47.26428-18.90543 85.08009-42.53762 122.89162 14.17927 28.35865 28.35834 61.43919 42.53762 94.52426 9.45291 4.72643 18.90098-4.72405 28.35389-14.17693 33.08512-42.53793 61.44821-85.07775 80.35404-137.06859 9.45292-37.8115 18.90343-80.3455 14.17697-118.15703-14.17938-89.80231-42.53927-170.1559-113.43584-231.59956-47.26439-37.81155-99.25626-66.16651-155.97346-75.61943a278.94986 278.94986 0 00-66.17036-9.45578zm-227.49711 120.00648c-9.45292 0-18.90487 4.73083-18.90487 14.18368-14.17931 28.35865-28.35921 51.99012-23.63275 85.07519 4.72643 23.63223-4.72356 51.98723 9.45578 75.61942 4.72646 9.45288 9.45058 23.6356 14.17697 33.08852 33.08507 51.99084 80.34994 89.7998 132.34068 122.88491 37.81147 23.63222 80.35222 51.99397 118.16375 75.62613 37.81154 23.63216 70.89737 51.98778 89.8031 99.25216v33.08856c-23.63209 70.89658-75.62493 89.80161-137.06858 85.07519-37.81154 0-75.62431-4.72697-113.43585-23.63274h-14.17697c-33.08511-33.08511-66.17432-66.17036-122.89162-66.17036a73.380306 73.380306 0 01-21.36632-25.41495c-7.11395-14.5033-45.63799-28.44808-45.63799-28.44808 28.99702 16.77691 35.58365 27.45945 35.58365 27.45945-4.90803-4.78575-25.98877-16.31732-42.74608-16.71913 19.93241 6.57555 38.27336 16.69224 60.49419 47.85062-9.45295 4.72646-28.02992 5.18673-33.58623 14.17693-9.93929 16.08214 9.45203 33.0848 18.90485 42.53762a259.74872 259.74872 0 0133.0818 42.53766c8.41726 18.9324 41.4929 39.0079 51.99339 37.8096 54.14797-6.1788 37.21263-16.0524 103.98007 14.1837 47.26442 18.9058 94.53211 18.9034 141.7965 14.177 70.89657-9.4529 132.33885-42.5378 170.15039-108.70796 18.90573-37.81147 28.35631-80.34698 14.17697-122.88491-18.90574-75.62304-66.16912-127.61243-127.61282-170.15039-42.53795-33.08508-89.80272-61.44445-132.34068-89.8031-33.085-23.63223-56.71899-47.26749-70.89826-75.62614v-66.17035c-28.35866-23.6322-56.71806-47.26604-89.80307-70.89823zm-89.79639 401.74998c9.45289 28.35858 28.35301 47.26459 47.25877 66.17032a386.77902 386.77902 0 00132.34069 66.17036c18.90573 4.72646 42.54347 9.44906 61.4492 9.44906 42.53793 0 80.34695 4.73177 122.88491-4.72115 9.45288 0 14.17989-4.72935 23.63274-9.45581 4.72649-33.08511-9.45636-56.7151-33.08855-80.34729a159.33545 159.33545 0 01-80.34729 23.63274c-23.6322 4.72646-47.26463 9.45436-66.17036 4.72791a364.31646 364.31646 0 01-170.1504-56.7213 141.51114 141.51114 0 00-37.80971-18.90484zm45.82627 191.58397c11.03586 1.88551 10.37939 7.23505 16.44338 5.58871 7.65521-2.07835 11.37666-2.14415 18.37357 3.47028 5.16094 4.14126-.18033 13.96624-1.74186 17.54633-1.46057 3.34864-.47061 8.78101 1.24419 15.76411-6.61704-6.617-21.08531-29.13536-34.31928-42.36943z" style="stroke-width:3.44336"/></svg>