<svg height="960" style="" width="1570" xmlns="http://www.w3.org/2000/svg"><path d="m433.415 604.15592c.8906 5.344 2.6719 12.0238 4.2306 15.1411 1.5586 3.1173 4.0079 9.3519 5.3439 13.8051 2.6719 8.2386 2.4493 8.9066-8.4612 25.6063-6.2346 9.3519-11.3558 18.2584-11.3558 19.817 0 1.5587 6.9025 3.1173 18.9263 4.2306 15.8091 1.336 20.2624 2.4493 25.6063 7.1252 3.7853 3.1173 6.6799 6.6799 6.6799 8.0159s1.5586 4.2306 3.5626 6.4572c5.3439 5.7893 4.4532 18.7037-2.4493 33.8448-3.1173 7.1252-5.3439 14.4731-4.4533 16.2544 1.1133 3.34 2.4493 3.34 33.6222-.668 7.5705-1.1133 10.2425-.2226 16.0317 4.676 6.4572 5.3439 7.3479 10.9105 2.672 14.4731-3.7853 2.6719-25.3836 21.5983-28.7236 24.7156-2.0039 2.0039-20.0397 16.9224-40.302 33.3994-64.5723 52.5485-102.2024 79.7134-125.8047 89.9559-10.4651 4.676-12.2464 4.8986-14.6957 2.004-6.9026-8.4612 14.2504-50.9899 70.5842-141.1684 11.3558-18.481 9.1292-20.0397-6.0119-4.2306-36.7394 38.298-75.4828 92.6278-92.1825 128.6993-13.5825 29.1688-2.8947 53.6618 23.3796 53.6618 9.1292 0 32.5088-5.1213 39.634-8.6839 2.2266-1.1133 10.9105-5.1212 19.3717-9.3518 43.1966-20.485 124.914-75.9282 185.9237-126.0274 8.4612-7.1252 16.0317-11.5784 18.2584-11.1331 7.7932 2.004 30.7275 18.481 31.8408 22.7116.668 2.4493 2.004 12.0238 2.8946 21.153 2.004 20.7077 4.0079 21.3757 22.9343 8.6839 15.1411-10.4652 23.825-11.8012 36.2941-5.7893 3.7853 2.004 8.4612 4.008 10.4652 4.4533 1.7813.668 5.1212 6.9026 7.3478 14.0278 5.7893 18.481 9.7972 27.6102 12.2465 27.6102 1.1133 0 8.4612-6.6799 16.2544-14.6958l14.0278-14.6957 15.1411 1.1133c16.6997 1.1133 20.9303 3.7853 27.8329 16.9224 8.9065 16.6997 12.6918 22.489 15.1411 22.489 1.3359 0 6.6799-7.5706 11.8011-16.4771 5.1213-9.1292 10.9105-17.8131 12.6918-19.3717 1.7813-1.336 10.2425-3.1173 18.9264-3.7853l15.809-1.1133 14.2505 15.3638 14.2504 15.3637 4.4533-5.3439c2.4493-2.8946 4.4532-6.9025 4.4532-8.9065s2.004-9.1292 4.2306-15.8091c3.34-9.5745 5.5666-12.4691 10.2425-13.8051 3.1173-.668 7.1253-2.672 8.9066-4.0079 1.5586-1.336 7.1252-2.672 12.0238-2.8947 7.3479-.2226 11.5785 1.5587 22.2663 9.1292 17.813 12.4692 21.3756 12.2465 23.3796-.8906.668-5.7893 1.336-13.8051 1.336-17.8131 0-4.0079.668-8.9065 1.336-10.9105 1.5586-3.5626 30.2822-23.3796 33.8448-23.3796.8906 0 8.0158 5.1213 16.0317 11.3558 58.1151 44.978 144.9537 106.6556 150.0749 106.6556.668 0 8.4612 4.2306 17.3678 9.5746 43.8646 25.6062 72.1428 33.3994 91.5145 25.1609 12.9145-5.3439 15.3637-10.2425 14.4731-27.3876-1.1133-18.481-3.5626-24.2702-21.153-54.1071-14.9184-25.1609-44.0873-63.2363-71.2522-93.0732-23.157-25.3836-24.7156-21.5983-4.0079 9.5745 24.0476 35.8488 59.2284 100.6438 64.7949 118.9021 2.672 9.1292 2.672 10.4652-.4453 12.9145-9.1292 6.9025-58.1151-24.9383-134.4885-87.2839-46.9819-38.2981-77.9321-65.9083-77.9321-69.6936 0-1.7813 2.672-5.7892 5.7893-8.6839 5.1212-4.6759 7.5705-5.3439 15.141-4.2306 33.1768 4.4533 34.7355 4.4533 34.7355-.6679 0-2.4493-2.4493-10.2425-5.5666-17.1451-7.5705-17.1451-7.3479-25.8289 1.5586-37.4074 10.4652-13.5825 11.3559-14.0278 31.8409-15.8091 10.4651-.8906 19.3717-2.2266 20.0397-3.1173.4453-1.1133-3.5627-8.6838-9.1292-17.145-14.0278-20.9304-14.2505-22.2663-9.3519-35.1808 2.4493-6.2346 5.1213-14.4731 6.2346-18.0357.8906-3.7853 2.4493-8.4612 3.3399-10.6878.8907-2.004.668-3.7853-.2226-3.7853-4.676.2227-8.2386 4.4533-9.7972 12.4691-4.6759 22.9343-29.1689 75.2602-47.4273 100.8664-16.2544 22.9343-39.8566 50.0992-44.7552 50.9899-4.2306.8906-14.6958-7.5706-14.6958-12.0238 0-1.336 4.6759-7.5706 10.2425-13.3598 14.4731-15.5865 31.6182-38.9661 44.9779-61.6777 6.4573-10.9105 11.5785-20.2624 11.5785-20.9303 0-.8907 2.4493-6.4573 5.3439-12.6918 8.4612-17.5904 15.1411-38.7434 13.3598-41.638-2.0039-3.34-34.9581-1.5587-39.4113 2.0039-1.7813 1.5587-5.5666 8.9066-8.2386 16.6998-6.2345 17.145-17.3677 37.8527-32.0635 59.451-13.3597 19.817-54.5524 61.6777-68.8029 69.9162-15.809 9.3519-15.141 11.8012 9.7972 32.5088 19.5944 16.0318 26.4969 24.493 20.0397 24.493-1.1133 0-3.5626 1.336-5.1213 2.6719-9.5745 8.9066-50.0991 28.9462-81.94 40.7474-22.4889 8.2385-61.455 17.3677-70.3615 16.2544-5.7893-.668-6.4572-1.5587-7.1252-9.7972-.668-10.4652 2.4493-12.9145 20.9303-15.3637 34.7354-4.8986 103.3157-31.1729 103.3157-39.4114 0-3.34-24.7156-26.2743-28.5009-26.2743-.8907 0-11.5785 3.7853-23.825 8.6839-32.5088 12.4691-61.455 19.5944-94.6318 22.9343l-5.5665.668-1.1134 29.8368c-1.1133 27.1649-1.5586 29.8369-5.5665 31.3955-2.4493.8907-6.4573.8907-8.9066 0-4.0079-1.3359-4.4532-4.0079-5.5665-31.3955l-1.1134-29.8368-12.2464-1.5587c-33.6222-4.4532-57.2244-10.2425-83.276-20.2623-9.7972-3.7853-19.5944-6.6799-21.821-6.6799-4.0079.4453-30.7275 22.2663-30.7275 25.1609 0 2.2267 20.0397 12.6918 36.2941 18.9264 18.9263 6.9026 50.7672 15.8091 65.0176 17.8131 16.9224 2.4492 19.3717 4.2306 18.481 15.141-.668 8.4612-1.3359 9.3519-7.3479 10.0199-3.5626.4453-13.1371-.8907-21.1529-2.8946-36.5168-9.1292-41.638-10.4652-47.4273-13.5825-3.5626-1.7813-7.7932-3.1173-9.7972-3.1173-1.7813 0-6.0119-1.3359-9.1291-3.1173-3.34-1.7813-16.2545-8.2385-28.9463-14.4731-26.4969-13.1371-42.9739-24.0476-41.4153-28.0555.668-1.336 7.7932-8.0159 15.8091-14.6958 26.9422-22.0436 28.2782-23.1569 26.0516-26.9422-1.1133-2.004-8.4612-8.4612-16.2544-14.2504-39.1887-29.3916-79.0454-81.0494-93.7412-121.5741-7.5705-20.485-9.7972-22.2663-30.7275-23.6023-10.0198-.4453-18.2584 0-18.9264 1.1133-2.6719 4.2306 18.0357 54.3298 33.3995 80.8267 8.2385 14.2505 34.5128 48.7633 43.8646 57.6698 4.4533 4.2306 8.0159 10.0198 8.0159 12.6918 0 4.8986-8.4612 12.0238-14.2504 12.0238-8.4612 0-51.4352-58.1151-67.467-91.2919-6.6799-14.0278-13.5824-28.5009-15.3637-31.8408-1.7813-3.5626-3.1173-8.0159-3.1173-10.2425 0-2.004-1.5586-5.7893-3.3399-8.2385-1.7813-2.2267-3.34-7.3479-3.34-11.1332 0-6.4572-3.3399-12.0238-7.1252-12.0238-1.1133 0-1.1133 4.2306-.4453 9.3518zm338.0026-156.3095c-3.7853 1.1134-11.3559 6.2346-16.9224 11.1332-12.2465 10.4652-20.9304 30.7275-19.1491 44.0873 3.7853 27.3876 27.8329 49.4312 54.1072 49.4312 19.149 0 36.0714-9.7972 47.2045-27.6102 5.1213-7.7932 6.0119-11.5785 6.0119-26.0516 0-14.9184-.8906-18.2584-6.6799-27.8329-10.2425-16.4771-21.8209-23.3796-41.6379-24.4929-8.6839-.4454-19.1491.2226-22.9343 1.3359zm-431.0758-441.0955997c-7.1252 6.4573007-7.3479 6.9026007-7.3479 25.3836007.2227 20.2624.8907 22.7117 18.481 59.4511 20.7077 43.419299 60.7871 102.647699 116.6755 173.009199 10.9105 13.8051 19.5944 25.8289 19.149 26.7196-.2226 1.1133-5.1212 8.4612-10.6878 16.6997-10.6878 16.2544-10.4652 16.0318-36.2941 18.7037-9.5745.8907-15.8091 2.4493-16.477 4.4533-.668 1.7813 2.4492 7.7932 6.6798 13.5824 12.9145 18.0357 15.1411 23.6023 12.2465 32.0635-6.4572 19.817-9.3518 22.7117-27.6102 28.9462-24.2703 8.2386-24.9383 10.0199-8.0159 25.3836l13.8051 12.6918v17.5904c0 14.6958-.668 17.813-4.2306 19.5943-8.9065 4.8986-157.8681-9.5745-212.8659-20.7076-32.0635-6.4573-47.8726-12.6918-47.8726-18.9264 0-8.0159 64.795-31.3955 111.3316-40.302 5.5666-.8907 12.9145-2.8946 16.2544-4.2306 3.5626-1.336 8.9065-2.4493 12.0238-2.4493s8.6839-1.336 12.4691-3.1173c4.008-1.7813 10.0199-3.7853 13.5825-4.6759 3.3399-.668 5.7892-2.004 4.8986-2.672-2.004-2.0039-77.9321 3.7853-96.8585 7.3479-8.9065 1.7813-18.9263 3.1173-22.0436 3.1173-5.3439 0-15.1411 2.4493-44.5326 11.3558-32.0635 9.7972-42.7514 19.5944-42.7514 39.1887 0 11.5785.668 13.1371 8.9066 21.153 8.9065 8.4612 47.2046 28.5009 54.5524 28.5009 2.004 0 5.5666 1.1133 8.0159 2.4493 15.8091 8.2385 102.2024 25.3836 173.4546 34.0674 58.5604 7.1253 145.399 16.0318 172.3412 17.5904 8.2385.4454 8.9065.8907 11.8011 10.4652 10.2425 32.9541 13.1372 40.7473 21.821 57.2244 20.9304 39.8567 54.9978 75.9281 91.2919 96.6358 38.966 22.489 80.1587 33.8448 122.4647 33.8448 63.0137 0 124.4687-24.9383 168.7786-68.5802 10.0199-10.0199 30.5049-34.9582 36.5168-44.5327 9.1292-14.6957 23.3796-47.2045 27.6102-63.459 2.672-10.4651 5.3439-19.3716 5.7892-20.0396.668-.668 9.5746-1.7813 20.2624-2.4493 108.2143-8.2386 227.5617-24.0476 285.4541-37.6301 61.455-14.6958 93.2958-26.9422 110.2182-42.5286 9.7972-9.1292 10.0199-9.5746 10.0199-23.3797 0-12.9144-.668-14.6957-7.3479-21.3756-19.5944-19.3717-88.6199-34.2901-178.5758-38.5207-19.3717-.8907-22.9343-.4454-16.6998 1.3359 4.2306 1.336 11.1332 3.7853 15.1411 5.5666 4.008 1.7813 10.0199 3.1173 13.1371 3.1173 3.1173 0 11.1332 1.5586 17.8131 3.3399 6.4572 1.7814 17.1451 4.676 23.6023 6.4573 40.5247 10.6878 72.1428 20.7076 84.3893 26.7195 14.2504 7.1253 18.9264 13.5825 11.3558 16.0318-2.2266.668-5.5666 2.004-7.3479 2.8946-5.7892 3.1173-27.1649 8.6839-46.9819 12.2465-60.787 11.1331-195.9435 23.6023-205.0727 18.7037-3.3399-1.5587-4.0079-5.1213-4.0079-19.3717v-17.3677l14.2504-12.6918c8.9065-7.7932 14.0278-14.0278 13.3598-15.8091s-9.7972-5.7892-20.0397-9.1292c-17.5904-5.5666-19.149-6.4572-23.6023-15.1411-8.0158-15.5864-6.6799-26.7196 5.5666-44.3099 5.7892-8.4612 10.0198-16.0318 9.3519-17.1451-.668-1.1133-9.5746-2.4493-20.0397-3.3399-20.0397-1.7813-28.2782-5.5666-32.5088-15.3638-1.1134-2.4493-4.4533-8.2385-7.3479-12.6918l-5.3439-7.7932 7.1252-9.3519c65.2403-86.3932 87.0613-116.6754 100.421-138.9417 34.2902-57.669799 40.0794-69.025599 46.982-94.854499 4.0079-14.9184 4.0079-20.485-.2227-31.1728-11.3558-28.5009-52.3258-19.3717007-111.3316 24.9382-39.4113 29.3916-85.7253 70.361599-79.7133 70.361599 3.3399 0 10.0198-3.7853 31.8408-18.035699 22.7116-15.1411 71.6975-43.1967 89.9559-51.8805 17.813-8.4612 32.9541-12.9145 35.6261-10.2425 3.1172 3.1172-1.7813 16.9223-11.3559 32.9541-9.3518 15.1411-44.7552 65.685599-51.2125 72.810799-2.2266 2.4493-12.0238 14.4731-21.821 26.7196-9.7971 12.2465-18.7037 23.3796-20.0396 24.7156-1.1133 1.336-12.6918 14.6958-25.3836 29.6142-12.9145 14.6958-24.7156 26.9422-26.4969 26.9422-4.4533 0-13.8051-10.4651-13.5825-15.1411 0-2.0039.8907-11.8011 1.7813-21.5983 2.2267-19.817.8907-22.2663-8.4612-17.813-21.821 10.9105-35.4034 13.1371-42.0833 7.1252-2.2266-2.2266-5.1213-3.7853-6.4572-3.7853-1.336 0-4.8986-2.8946-8.0159-6.4572-4.2306-5.1213-5.5666-9.7972-6.6799-24.9383-.8906-10.0198-2.4493-19.3717-3.3399-20.2623-1.1134-1.1133-9.5746 3.1173-19.1491 9.5745-15.809 10.4652-18.0357 11.3558-26.2742 10.0198-4.8986-.8906-12.4691-3.3399-16.9224-5.5666-7.3479-3.7852-8.9065-6.0119-13.5825-21.1529-2.8946-9.3519-6.6799-18.7037-8.6838-20.4851-3.1173-3.3399-4.6759-2.2266-16.6998 11.1332l-13.1371 14.6958h-14.9184c-18.7037 0-21.5983-2.004-34.0675-23.3797-5.1212-9.1291-10.6878-16.6997-11.8011-16.6997-1.336 0-5.7892 6.6799-10.0198 14.6958-12.4692 23.6023-14.6958 25.3836-33.8448 25.3836h-16.2544l-12.9145-14.4731c-7.3479-8.0159-13.8051-14.4731-14.6958-14.4731-2.4493 0-9.1291 12.6918-9.1291 17.3677 0 2.4493-2.004 8.9065-4.4533 14.4731-4.8986 11.3558-12.2465 16.0317-27.3876 18.2584-8.4612 1.3359-10.9105.4453-24.9382-8.6839-22.0437-14.4731-22.489-14.4731-24.2703 10.2425-1.336 18.9264-2.004 21.153-7.5706 25.6063-3.3399 2.6719-6.9025 4.8985-8.0158 5.1212-1.1133 0-4.008 1.5587-6.2346 3.7853-4.8986 4.2306-17.3677 4.2306-25.8289 0-12.0238-6.4572-22.2663-10.2425-23.6023-8.9065-2.2266 2.2266-1.5586 23.3796.8906 31.8408 3.34 11.1331-4.0079 24.2703-13.3597 24.4929-2.004 0-12.0238-10.2425-22.2664-22.7116-10.4651-12.2465-20.485-24.0476-22.2663-26.0516s-11.3558-13.5824-21.153-25.8289c-9.7971-12.2465-19.149-23.825-20.9303-25.6063s-11.3558-14.2504-21.5983-27.8329c-33.3995-44.532599-53.6618-80.603999-48.3179-85.947899 5.1213-5.1213 47.2046 14.2504 96.1905 43.8646 13.8051 8.4612 26.9422 16.2544 28.9462 17.5904 2.0039 1.1133 6.6799 4.4533 10.2425 6.9026 3.7852 2.671899 10.0198 6.457199 14.0277 8.461199l7.3479 3.7852-2.6719-5.1212c-7.3479-14.250499-78.3774-70.138899-114.4489-90.178599-25.6062-14.2504007-31.1728-16.25440073-45.8686-16.25440073-11.3558 0-14.0277.89070003-20.2623 6.45720003zm454.678 168.7786997c.668 16.0317 1.7813 29.8368 2.4493 30.7275.8907.668 12.4692 2.8946 25.6063 4.6759 80.8267 11.3558 150.0749 51.2125 196.8342 113.3355 6.4572 8.4612 12.9144 16.2544 14.4731 17.3677 3.5626 2.004 6.0119-.4453 25.1609-23.3796 7.7932-9.5745 15.8091-17.3677 18.0357-17.3677 5.7893 0 23.6023 30.0595 38.7434 64.5723 13.8051 32.0635 23.157 68.5802 25.3836 97.7491 1.336 20.2623.4453 22.489-11.1332 22.489-7.5705 0-9.5745-4.008-12.4691-28.5009-4.0079-31.3955-15.8091-72.3655-27.1649-94.4092-1.5586-2.8946-3.3399-6.6799-4.2306-8.4612-3.1173-6.9025-8.2385-4.2306-20.0397 10.2425l-11.8011 14.6958 5.1212 13.5825c14.2505 38.298 24.2703 89.9559 18.2584 93.7411-1.1133.668-12.6918 1.336-25.8289 1.5587-17.5904.4453-24.493-.2227-25.8289-2.4493-.8907-1.5587-2.4493-9.7972-3.1173-18.2584-2.4493-24.7156-14.9184-59.8964-30.2822-85.948-15.5864-26.4969-49.6539-62.791-72.3655-77.4867-46.3139-30.0595-95.0772-43.1967-149.1843-40.302-86.1706 4.8986-159.8721 52.5485-200.3968 129.1446-11.3558 21.5983-22.4889 56.5564-24.4929 77.932-1.1133 10.4652-2.672 15.5865-5.3439 16.9224-2.004.8907-13.8051 1.336-26.4969.668-17.3678-.668-23.3797-1.7813-24.2703-4.2306-1.5587-3.7852 2.6719-32.7314 7.5705-50.7672 3.34-12.4691 10.4652-34.0674 17.3678-52.3258 2.6719-6.9025 2.4492-8.4612-.8907-14.0278-4.8986-7.5705-20.0397-23.8249-22.489-23.8249-5.3439 0-23.6023 43.4193-32.0635 75.9281-2.8946 11.3558-6.6799 29.8369-8.0158 40.97-1.336 10.9105-3.5626 21.153-4.8986 22.7117-2.8946 3.5626-13.3598 3.7852-16.9224.2226-3.1173-3.1173-3.5626-29.3915-.4453-34.9581 1.1133-2.2266 3.1172-10.0198 4.2306-17.1451 3.3399-18.481 10.0198-40.97 17.145-57.6697 6.0119-14.2504 25.6063-53.6618 29.8369-60.119 2.4493-3.7853 5.1212-8.0159 5.7892-9.5745.668-1.336 3.5626-2.672 6.2346-2.672 3.3399 0 9.3518 6.0119 20.2623 19.817 10.2425 13.3598 17.1451 20.0397 20.2624 20.0397 3.1172.2227 7.7932-4.2306 14.6957-13.8051 11.5785-15.5864 42.306-46.5366 57.4471-57.8924 44.978-33.3995 84.612-49.6539 142.0591-58.1151 12.4691-1.7813 23.8249-4.0079 24.9382-4.6759 1.336-.8907 2.2267-13.5825 2.2267-30.0595 0-30.7275.2226-31.1729 12.2464-30.5049l6.6799.4453zm-49.6538-25.6063c2.4493 4.2306.668 16.0318-2.8947 18.7037-1.7813 1.336-8.4611 3.34-14.9184 4.008-14.4731 2.0039-38.966 8.4612-54.9978 14.6957-6.6799 2.672-14.0277 5.3439-16.2544 6.0119-10.9105 3.34-64.7949 33.3995-68.3575 38.2981-.668.8906-7.1253 6.2345-14.4731 11.8011-7.3479 5.5666-16.2545 13.3598-19.8171 17.1451-8.0158 8.2385-12.2464 8.6838-18.9263 1.5586s-5.1213-11.5785 9.3518-23.8249c14.0278-12.0238 45.8686-36.2941 50.5446-38.2981 1.7813-.8906 8.4611-4.6759 14.4731-8.4612 6.2345-3.5626 14.6957-8.2385 18.9263-10.0198 4.2306-2.004 12.9145-5.7893 18.9264-8.6839 13.3598-6.0119 26.4969-10.4651 44.5326-15.1411 40.97-10.9105 50.9898-12.2464 53.8845-7.7932zm104.8743.8907c37.8527 8.9065 44.3099 10.4651 50.9898 13.3598 3.7853 1.7813 8.9066 3.1172 11.3559 3.1172 2.4492 0 5.5665 1.5587 7.1252 3.34 1.5586 1.7813 4.2306 3.3399 6.2345 3.3399 4.676 0 43.4193 20.9304 59.2284 32.0635 22.7117 16.0318 53.6618 42.5287 54.3298 46.7593.8907 4.4532-7.5705 14.6957-12.4691 14.6957-1.7813 0-10.4652-6.9025-19.5944-15.3637-41.1926-38.2981-105.9876-69.9162-162.3214-79.0454-17.5903-2.8946-21.153-5.3439-21.153-14.6958 0-12.0238 3.34-12.9144 26.2743-7.5705zm-52.1032 148.0709c65.0176 11.8012 116.6755 50.0992 144.9537 107.769 12.0238 24.4929 16.6997 44.0873 16.6997 70.1388 0 31.8409-8.6838 60.7871-26.2742 86.616-14.0278 20.7077-46.3139 48.7632-50.7672 44.0873-.8907-.668 2.672-5.7893 7.7932-10.9105 12.0238-12.4691 22.2663-28.2782 30.0595-46.0913 32.2862-76.3734-1.7813-164.7707-79.936-207.0766-67.4669-36.7395-150.2976-22.2664-208.6353 36.5167-8.2386 8.4612-17.8131 19.149-21.153 24.2703-3.34 5.1212-6.6799 9.5745-7.3479 10.2425s-2.4493 3.5626-3.7853 6.6799l-2.672 5.5666v-6.2346c-.2226-3.34.668-6.0119 1.7813-6.0119 1.1134 0 2.4493-2.672 3.1173-6.2346 1.7813-8.9065 17.8131-32.5088 32.2862-47.8726 31.3955-32.7314 68.5802-52.5484 114.0035-60.5643 21.5983-3.5626 33.3995-3.7853 49.8765-.8907zm-114.4488 104.8744c-46.5366 46.9819-59.2284 110.2182-34.5128 171.8959 9.5745 24.0476 20.9303 41.1926 38.9661 59.2283 26.2742 26.497 54.9977 41.4154 92.4051 48.0953 22.489 4.0079 35.4035 4.0079 58.3378 0 52.7711-9.3519 103.093-45.2006 131.3712-93.5185 2.672-4.4533 2.8946-4.4533 2.8946 1.336 0 3.3399-.8906 6.6798-2.2266 7.3478-1.1133.668-2.2266 2.672-2.2266 4.4533 0 6.6799-17.5904 32.0635-34.2902 49.4312-22.9343 24.0476-39.634 35.6261-69.4708 47.6499-70.8069 28.7236-148.2937 9.7972-204.8501-49.6539-32.7315-34.5127-49.8765-76.8187-49.8765-122.6873 0-42.0834 13.8051-75.7055 42.9739-105.097 17.1451-17.1451 27.6103-24.7156 34.7355-25.3836 1.5586-.2227-.2227 3.1173-4.2306 6.9026zm136.4925 17.3677c23.6023 8.9065 42.5286 27.8329 51.8805 52.3258 3.1173 8.4612 4.2306 16.4771 4.0079 33.3995-.2227 19.3717-.8906 23.8249-6.2346 34.9581-11.5784 23.8249-27.8328 38.298-53.6618 47.6499-25.8289 9.3518-55.2204 5.1212-79.4907-11.5785-12.2465-8.6839-26.7196-27.1649-31.8408-41.638-3.34-8.6839-4.4533-16.9224-4.2306-32.7315 0-18.7037.8906-22.9343 6.6799-35.6261 7.3479-15.5864 24.2703-34.7354 36.7394-41.4153 23.8249-12.4691 51.6578-14.4731 76.1508-5.3439z" style="stroke-width:.222663"/></svg>