<svg height="960" style="" width="910" xmlns="http://www.w3.org/2000/svg"><path d="m145.77936-59.998906a25.693185 25.693185 0 00-25.45439 25.692322v609.105694c0 95.24198 62.45929 114.51446 111.18775 114.51446h151.28142a19.269888 19.269888 0 010 38.53633h-164.571c-55.37324 0-97.89817-38.3157-97.89817-38.3157v151.7227h177.63565v108.086l157.03938-64.23298 157.03939 64.23298v-108.086h177.63564v-151.7227s-42.52493 38.3157-97.89817 38.3157h-164.571a19.269888 19.269888 0 010-38.53633h151.28142c48.72846 0 111.18775-19.27248 111.18775-114.51446v-609.105694a25.693185 25.693185 0 00-51.38465 0v369.893274c0 132.89579-128.46679 265.79158-283.29038 265.79158-155.26657 0-283.29039-132.89579-283.29039-265.79158v-369.893274a25.693185 25.693185 0 00-25.93025-25.692322zm309.22064 1.107461a248.29363 248.29363 0 00-248.29276 248.292775 248.29363 248.29363 0 00248.29276 248.29276 248.29363 248.29363 0 00248.29276-248.29276 248.29363 248.29363 0 00-248.29276-248.292775zm-334.23378 937.135925v141.75552h141.75551v-141.75552zm526.71205 0v141.75552h141.75549v-141.75552z" style="stroke-width:2.21493"/></svg>