<svg height="960" style="" width="1200" xmlns="http://www.w3.org/2000/svg"><path d="m1081.0887 178.65529c-9.4356 19.75266-22.9151 31.46946-41.268 42.61597l-180.31431-180.262454c9.59119-17.938115 24.26311-32.091599 42.09753-40.749585l.57029-.259221zm-94.51204 45.77847-201.98521 203.79975-132.5139-132.72128 202.81471-203.43684zm-48.21516 422.94541c1.29611 25.40368-13.99794 41.0088-32.29897 50.65183-31.0547 16.43463-64.07949 29.13647-100.78522 45.26003 13.16844-29.49937 24.52233-54.90306 36.44651-81.49916q-47.38564-47.48934-94.46023-94.46023-47.07459-46.97089-92.69753-92.59383l-94.46022-94.46023q-46.34876-46.34875-92.74935-92.69752c-31.31394-31.31392-63.1463-62.2131-92.33463-92.64567 5.8584-26.33688 19.44159-41.99385 38.88319-51.5332 29.7586-14.56822 60.24302-27.4256 90.46822-40.9051 1.14057-.4666 2.79959.41475 6.06577 1.08872-11.92417 26.44057-23.64097 52.57007-35.77252 79.52908zm-660.13285 312.62083-125.30755-33.75061c-11.35389-42.51228-22.44857-83.78031-34.00983-126.34444l385.66937-411.12492 55.68074 103.11823-352.80013 353.21488c1.3998 8.5543 2.43668 14.56823 3.52541 21.6709l19.7008 6.42868 355.23681-354.66652 102.44426 54.54015c-11.14652 16.90123-363.89481 349.43025-410.19173 386.86181z" style="stroke-width:1.06909"/></svg>