<svg height="960" style="" width="1628" xmlns="http://www.w3.org/2000/svg"><path d="m934.40095 861.85288c-8.1628 7.48262-5.44183 23.80813 8.16281 52.3778 6.80232 15.64532 14.28484 33.33142 17.00581 40.13374 8.1627 23.80802 19.72667 4.08135 14.96502-26.5291-6.12202-47.61615-26.52899-80.26727-40.13364-65.98244zm-269.3716 26.5291c-15.64521 34.0115-18.36618 67.34282-7.48251 74.14514 4.08146 2.04068 8.843-1.36048 10.88367-8.1627 2.72097-6.80232 10.20349-25.16861 17.6861-40.81393 7.48252-16.32551 12.24416-34.01151 10.88368-40.13364-4.08135-23.12783-18.36629-16.32551-31.97094 14.96513zm97.27308-849.608796c-21.76734 21.087167-75.50563 72.784736-118.36023 114.278856-402.69684 386.37125-523.778 505.41178-523.778 513.57449 0 10.88378 13.60463 8.1628 17.68601-3.40116 2.72093-5.44184 7.48254-10.20338 12.24417-10.20338 4.08138-.6803 24.48832-14.28494 44.89525-31.29064 31.29064-25.16862 143.52879-112.9184 249.64486-195.22636 13.60465-10.20348 29.93016-18.36629 36.73248-18.36629 18.36629 0 46.93596 34.01161 46.93596 55.77896 0 10.88367 2.72097 19.04648 5.44183 19.04648 6.12214 0 29.24997-29.93015 37.41278-47.61615 2.72086-5.44194 10.88367-19.72678 18.36618-30.61045 7.48252-11.56397 15.64532-24.48832 17.686-29.24996 2.04067-4.08135 8.843-8.16271 14.28494-8.16271 9.52319 0 10.20338 10.20338 6.12203 76.18582-2.72098 42.17442-6.12203 89.11028-8.16281 104.07541l-4.08135 27.20929 17.68599-20.40697c9.5233-11.56397 17.00581-23.80813 17.686-27.88948 0-4.08135 10.20348-27.20929 23.12794-51.01731 15.64532-29.24997 27.88947-44.2151 37.41266-45.57558 13.60465-2.04068 14.28484.68029 14.28484 60.5406 0 60.54061-4.76154 87.0696-24.48832 131.96489-18.36619 43.5348-67.34282 154.41252-80.94747 183.66238-15.64532 34.6918-44.89528 100.67424-58.49993 132.64518-7.48251 17.0057-18.36618 39.45334-23.12783 49.6568-5.44184 10.8837-10.20348 23.1279-10.20348 28.5697 0 4.7616-4.76165 12.2442-10.20349 17.0058-12.24415 10.2035-13.60464 42.8546-1.36048 39.4534 4.08146-2.0406 9.52329-8.8429 10.88378-16.3256 1.36038-6.8022 6.12202-15.6453 11.56386-18.3662s9.52329-10.8836 9.52329-17.0058c0-6.8023 3.40117-15.6453 7.48252-19.7266 8.1628-8.1628 17.0058-23.12786 40.81383-70.06382 8.1628-17.00581 26.52909-48.97664 40.13363-71.42428 25.16862-40.81393 54.41858-102.03473 54.41858-112.9184 0-2.72097 8.1627-17.00581 17.686-31.29064l17.68599-25.84881-2.72097 127.20324c-2.04067 86.38941 0 127.88343 4.76165 127.88343 3.40116 0 21.76745-17.0057 39.45345-37.41267 18.36618-20.40697 38.77315-37.41277 45.57547-37.41277s27.88948 17.6861 46.93596 38.77326c19.04648 21.08715 36.73248 36.05218 39.45345 33.33131 2.72087-2.72097 4.08135-60.5406 2.72087-128.56372l-2.04068-123.80208 17.686 25.84881c9.52329 14.28483 17.68599 28.56967 17.68599 31.29064 0 10.88367 29.24997 72.10447 54.41858 112.9184 13.60449 22.44764 31.97079 54.41847 40.13359 71.42428 23.808 46.93596 32.651 61.90102 40.8138 70.06382 4.0814 4.0813 7.4826 12.9243 7.4826 19.7266 0 6.1222 4.0814 14.2849 9.5232 17.0059 5.4419 2.7208 10.2035 11.5639 11.5639 18.3661 3.4012 16.3256 19.7268 22.4477 19.7268 7.4827 0-6.1222-4.0815-19.7268-9.5233-29.25-8.843-17.686-17.0058-34.6918-43.5348-96.5928-15.6453-34.6918-45.5755-102.03473-59.1801-132.64518-13.60463-29.24986-62.58127-140.12758-80.94746-183.66238-19.72677-44.89529-24.48832-71.42428-24.48832-131.96489 0-59.86031.68019-62.58128 14.28484-60.5406 9.52319 1.36048 21.76735 16.32561 37.41267 45.57558 12.92445 23.80802 23.12793 46.93596 23.12793 51.01731.68019 4.08135 8.16271 16.32551 17.686 27.88948l17.68594 20.40697-4.0813-22.44765c-9.52329-54.41847-12.92445-169.37755-4.7616-174.13919 11.5639-7.48251 23.1278 4.76164 55.0987 57.13944 28.5697 46.93596 40.8138 54.41847 40.8138 25.16851 0-18.36619 29.9302-52.3778 46.936-52.3778 6.8023 0 23.1278 8.16281 36.7325 18.36629 12.9243 10.88368 61.901 47.61615 108.1567 82.98815 46.2558 34.6918 87.0696 67.34292 90.4708 71.42427 12.2441 14.28484 90.4707 72.10458 97.2731 72.10458 3.4011 0 8.1628 4.76154 10.8836 10.20338 4.0814 11.56396 17.686 14.28494 17.686 3.40116 0-8.16271-121.0811-127.20324-523.77791-513.57449-42.85461-41.49412-96.5929-93.191689-118.36024-114.278856-22.44764-21.087168-45.57548-38.773184-51.69761-38.773184s-29.24996 17.686016-51.69761 38.773184zm125.84286 100.674206c34.01151 40.81383 61.90098 76.86612 61.90098 79.58709 0 8.1627-25.8488 6.80232-30.61034-1.36048-2.04078-4.08136-8.8431-6.80233-14.28494-6.80233-7.48251 0-9.52319 10.88368-9.52319 50.33712 0 52.3778-6.12213 65.98245-20.40696 48.29635-14.96503-18.36619-20.40697-3.40117-20.40697 54.41857 0 58.49983-8.843 78.90679-20.40686 48.29634-4.08146-10.88367-11.56397-17.68599-20.40697-17.68599s-16.32551 6.80232-20.40697 17.68599c-11.56386 30.61045-20.40686 10.20349-20.40686-48.29634 0-56.45925-6.80232-75.50573-19.04648-53.73828-12.92445 22.44764-21.76745 2.04068-21.76745-48.97664 0-39.45344-2.04068-50.33712-9.52319-50.33712-5.44184 0-12.24416 2.72097-14.28494 6.80233-5.44184 8.84299-32.65102 8.84299-29.24986 0 1.36038-4.08136 29.93016-40.81383 63.26147-81.62777 38.77316-47.61615 65.30215-74.145193 72.10447-73.46495 6.12213 1.360485 39.45345 35.37199 73.46506 76.86611z" style="stroke-width:.680231"/></svg>