<svg height="960" style="" width="1207" xmlns="http://www.w3.org/2000/svg"><path d="m765.90665 711.3447c-12.8067 12.8067-54.4284 16.0083-201.7051 16.0083h-101.9961l-10.9771-11.8919c-6.8607-7.3181-14.1788-10.9771-18.2952-9.1476-13.7215 5.0312-12.3493 15.551 5.4885 32.4741l17.3805 16.4657 157.3391-2.7443c162.3704-2.7443 172.4328-4.1164 187.9837-22.8691 4.5738-5.4885 4.5738-9.605.9148-18.2952-6.4034-14.1788-22.4117-14.1788-36.1331 0zm-140.8734-149.5637c-7.3181 4.1165-24.6986 7.7755-37.9627 7.7755l-24.6986.4574-59.9169 60.3743-59.9169 60.8317 13.264 11.4345 13.2641 10.9772h135.3848l135.8422-.4574 16.4657-11.4345c9.605-6.4034 16.9231-13.7215 16.9231-16.4657 0-6.8608-123.9503-131.7258-130.3536-131.2684-2.2869.4573-10.5198 3.659-18.2952 7.7754zm-174.7197 30.6446c-39.3347 39.3348-56.2579 59.9169-56.2579 67.235s-15.5509 26.0707-50.7693 61.2891c-36.1331 36.1331-50.3119 53.5136-48.4824 58.5448 5.946 15.0936 20.5822 5.9459 69.522-42.9938 27.4428-27.9003 52.5988-50.312 55.3431-50.312 9.1476 0 120.7486-114.3453 120.7486-123.4929 0-11.4345-15.5509-27.4429-26.0707-27.4429-4.5738.4574-33.3888 26.0708-64.0334 57.1727zm123.493-156.4244c-23.3265 8.6903-33.3889 23.7838-33.3889 51.2267 0 18.7526 2.2869 26.5281 11.4346 36.5905 9.605 11.4345 14.1788 13.2641 35.2183 13.2641 35.2184.4573 58.5448-21.0396 58.5448-54.8858 0-15.0936-17.8379-38.8774-34.3036-45.7381-18.2952-7.3181-18.2952-7.3181-37.5052-.4574zm155.5096-36.5905-56.7153 56.7153 2.7443 17.8378c2.2869 12.8067.4574 24.6986-6.4034 42.5365l-10.0623 24.2412 60.8317 62.6612c33.3888 34.3036 64.0333 62.6613 68.1498 63.576 4.1164.9148 11.8919-4.1164 17.3804-10.9771 9.1477-11.8919 9.605-16.4658 9.605-155.0523 0-132.1831-.4573-143.1603-8.2328-150.021-4.5738-4.5738-11.4345-7.7755-14.6362-7.7755-3.6591 0-32.0167 25.156-62.6612 56.2579zm84.1581-80.4991c-5.9459 5.4886-3.2017 16.9231 6.4033 26.9855 9.1477 9.605 9.605 14.1788 8.6903 157.7965l-.4574 148.1915-13.7214 12.3493c-10.0624 9.1477-13.2641 15.551-10.9772 21.9543 4.5738 14.1788 17.3805 19.21 29.2724 10.9772 22.4117-16.0084 23.3265-21.9543 23.3265-192.1001l.4573-158.7113-14.6362-15.551c-14.6362-14.6362-22.4116-18.2952-28.3576-11.8919zm-430.8531-7.7755c-10.9771 12.3493-15.5509 55.3432-18.7526 185.2394l-2.7443 109.7715 10.9772 12.3493c5.9459 7.3181 13.7214 12.8067 16.9231 12.8067 3.659 0 31.5593-25.6134 62.2038-56.2579l55.8005-56.7153 2.7443-32.474c1.3721-18.2953 5.9459-37.5053 9.605-42.5365 6.4033-9.605 4.1164-12.3493-53.5136-71.3515-33.3888-33.8462-60.8317-63.1186-61.7465-65.4055-2.7443-7.3181-12.8066-5.0312-21.4969 4.5738zm41.6217-39.7921c-7.3181 5.9459-12.3493 13.7214-11.4345 18.2952.9147 4.1165 28.815 34.761 61.2891 67.6924l59.4595 59.917 18.2953-5.4886c10.0623-2.7443 30.6445-6.8607 45.7381-8.6902l27.4429-3.2017 52.5988-53.5136c28.815-29.7298 53.5136-57.1727 53.971-60.8317.9147-4.1164-1.8296-10.9772-6.4034-16.0084-7.3181-8.2328-15.5509-8.6902-147.7341-8.6902-139.0439 0-139.9586 0-153.2227 10.5198zm54.4284-264.3663557c-10.0624 3.6590497-21.9543 6.8607197-26.0708 6.8607197-7.3181 0-15.5509 3.20167-63.1186 24.69858-25.6133 11.43456-61.7464 34.76096-80.4991 51.68406-19.21 17.380496-75.4679 93.763196-82.3286 111.143596-1.3721 3.6591-4.5738 10.5198-7.3181 15.551-14.6362 26.9855-31.1019 104.2829-31.1019 146.8194 0 27.9002 10.5198 87.8172 18.2953 101.996 1.8295 4.1164 5.0312 10.9771 6.8607 14.6362 15.0936 37.5052 61.7464 79.5843 91.9336 83.2434 12.8067 1.3721 13.2641 2.2869 15.551 29.7297 1.8295 24.6986 4.5738 30.1872 19.6673 46.6529 16.9232 18.2953 27.4429 20.5822 32.4741 6.4034 1.8295-4.1165-2.7443-12.3493-10.9771-21.0396-13.2641-13.7214-13.7215-15.0936-13.7215-59.9169 0-25.156 2.2869-90.1041 5.0312-144.5325 4.1165-86.445 5.4886-99.7091 13.7215-109.7715 5.0312-6.4033 10.9771-16.9231 13.7214-24.2412 2.7443-6.8607 8.2329-12.3493 11.8919-12.3493 4.1164 0 14.1788-6.4033 22.8691-13.7214l15.5509-13.7214h147.2768c141.7881 0 147.7341.4573 155.5096 9.1476 9.605 11.4345 26.0707 12.3493 26.0707.9148 0-4.5739-6.8607-15.0936-15.0936-22.8691l-15.5509-15.0936-136.757.4574c-75.0105 0-139.5013.4574-142.2456 0-18.7526-.4574 8.2329-24.6986 52.5989-47.1103 7.7755-4.5738 20.5821-10.9771 27.9002-14.6362 7.3181-3.659 16.9231-6.8607 21.9543-6.8607 4.5738 0 16.4657-3.2017 26.5281-6.8607 28.3577-10.0624 128.5241-9.1476 170.1458 2.2869 38.4201 10.0624 96.9649 36.1331 106.1125 47.5676 5.4886 6.8608 5.0312 9.1477-6.4034 21.0396-12.8066 13.7214-31.1019 17.8378-36.5905 9.1476-3.659-5.9459-34.3035-5.9459-34.3035 0 0 2.2869 6.8607 5.946 15.0935 8.2329 21.4969 5.4885 21.4969 18.7526-1.3721 38.8774-10.0624 9.605-22.4117 16.9231-27.9003 16.9231-5.9459 0-30.6445 21.0395-69.0645 59.4595l-59.4596 59.4596 7.3181 11.8919c4.5738 6.4033 12.8067 13.7214 18.2953 16.4657 10.0624 4.1165 15.0935 0 68.6071-53.971 31.5593-32.474 57.6301-61.7464 57.6301-65.4055 0-6.8607 47.1102-55.3431 53.971-55.3431 7.7754 0 62.6612 55.3431 79.5843 80.0417 19.21 28.815 38.8774 69.522 48.025 100.1665 10.9772 36.5905 13.2641 148.6489 3.6591 183.4099-19.6674 69.5219-53.5136 135.8422-87.8172 171.0605-11.4346 11.8919-20.1248 10.0624-10.0624-2.2869 6.4033-8.2328 15.5509-22.869 20.5821-33.8462 1.8296-3.659 8.6903-19.6674 16.0084-35.6757 7.3181-15.551 13.264-31.1019 13.264-34.761 0-3.2017 3.2017-15.0936 7.3181-26.0707 7.3181-21.0396 10.0624-114.8027 3.6591-139.5013-3.2017-11.4345-3.6591-11.8919-6.8607-4.1164-1.8296 5.0312-3.6591 25.156-3.6591 44.8233-.4574 20.5822-3.2017 42.5365-7.3181 52.1415-3.659 8.6902-6.8607 19.21-6.8607 22.4117 0 24.2412-57.1726 113.4305-96.9648 150.9358-34.761 32.9314-131.2684 88.7319-152.7653 88.7319-3.6591 0-10.9772 2.2869-15.551 4.5738-15.551 8.2329-115.2601 23.3265-134.0127 20.5822-9.605-1.8295-16.9231-4.1164-15.5509-5.0312.9147-.9148 13.7214-3.6591 28.815-5.946 14.6362-2.2869 33.3888-5.9459 40.7069-8.6902 7.7755-2.2869 25.156-8.2329 38.8774-12.3493 21.9543-6.4033 69.9793-28.815 98.337-44.8233 15.5509-9.1477 31.5593-25.6134 27.9002-29.2724-1.8295-1.8296-6.8607-.9148-10.9771 2.2869-4.1165 3.2016-10.9772 6.8607-14.6362 8.2328-3.6591 1.3722-12.8067 5.4886-20.5822 8.6903-95.1353 41.6217-177.0065 45.2807-301.8716 12.8066-15.0936-3.659-34.3036-10.0623-42.0791-13.264-8.2328-3.6591-21.9542-9.1476-29.7297-12.8067-8.2329-3.659-18.2953-7.7755-21.9543-9.1476-3.6591-1.3722-12.8067-6.8607-20.5822-11.8919-7.3181-5.0312-16.9231-10.5198-20.5821-12.3493-21.4969-9.605-105.19771-84.6155-105.19771-93.7632 0-1.8295-3.20167-3.659-6.86072-3.659-3.20166 0-8.69024-3.6591-10.97714-8.2329-5.94596-9.605-6.40334-3.659-.91477 7.3181 2.28691 4.1165 8.23286 16.9231 13.72144 28.3577 41.16431 85.9876 140.416 180.2082 229.148 217.7134 3.659 1.3722 13.264 5.4886 20.5821 8.6903 62.6613 27.4428 83.7008 31.1019 189.8132 32.9314 80.9565 1.8295 103.3682.4574 128.0668-5.4886 33.3888-8.6902 78.6695-23.3264 90.5614-29.2724 18.2953-9.1476 49.3972-25.1559 58.0875-29.7298 18.2952-10.0623 78.6695-57.1726 99.7091-78.6695 25.1559-24.6986 53.51365-58.5448 53.51365-63.1186 0-1.8295 5.0311-10.0624 10.9771-17.8379 21.4969-29.7298 48.025-89.6467 62.6612-142.7029 8.6903-31.5593 8.6903-197.1313 0-228.6906-10.0624-37.5053-37.5052-101.5387-56.7152-132.6406-27.90035-45.7381-95.13535-116.6322-135.84235-143.160296-59.0021-38.87739-114.8026-64.94812-157.7965-74.09574-10.0624-2.28691-24.2412-5.9459597-31.1019-8.6902497-20.5821-7.77548-197.5887-6.40333-220.4577 1.82953zm221.3725 55.3431597c.9147.9147-3.2017 2.2869-9.1477 3.659-5.9459 1.3722-27.4428 5.4886-47.5676 9.605-65.4055 13.2641-128.0667 36.590496-149.1063 55.343096-3.659 3.6591-9.1476 6.4034-11.8919 6.4034-5.0312 0-56.7152 53.5136-87.3598 91.0188-16.4657 19.21-19.6674 26.0708-16.9231 35.6758 2.7443 10.9771 1.8295 11.4345-10.9771 9.1476-11.4346-2.2869-15.551-.4574-25.156 10.9772-10.5198 12.3492-11.8919 18.2952-12.3493 53.5136-.4574 21.9542-1.8295 77.7548-3.659 124.4076-3.2017 95.1353-5.946 101.5387-30.1872 67.6925-70.4367-99.2518-40.7069-256.1335 67.6924-359.0443 21.9543-20.5821 80.0417-60.8317 88.2746-60.8317 2.2869 0 6.8607-2.2869 10.0624-5.4886 2.7443-2.7443 12.8066-7.775396 22.4116-11.434496 52.5989-18.7526 71.8089-23.7838 111.1437-28.3576 23.7838-2.7443 48.4824-5.946 54.8857-6.8607 11.4345-1.3722 46.6529 1.8295 49.8546 4.5738zm215.8839 173.347396c21.4969 19.21 63.576 68.1498 63.576 74.0958 0 2.7443 2.7443 6.8607 5.9459 9.605 5.0312 4.5738 25.15605 42.5365 41.16435 80.0417 9.1477 20.5822 10.5198 46.1955 2.2869 43.4512-3.2016-1.3721-6.4033-7.3181-7.3181-14.1788-.9147-6.4033-4.5738-14.1788-8.2328-16.9231-3.6591-3.2017-6.4033-7.7755-6.4033-10.0624 0-2.7443-7.77555-17.3805-16.92325-32.9314-19.6673-32.0167-76.3826-90.1041-107.9419-109.7715-23.7838-15.0936-25.156-17.8379-13.2641-29.7298 16.0084-16.9231 21.9543-16.0083 47.1103 6.4033z" style="stroke-width:.457381"/></svg>