<svg height="960" style="" width="2247" xmlns="http://www.w3.org/2000/svg"><path d="m858.13305-119.96084c-22.74892.80144-38.2916 13.86441-38.2916 37.538102 0 25.71957-18.70514 17.15479-23.38142-10.90291-4.67629-28.837092-32.7264-33.516422-66.23981-10.914372-27.27829 17.925752-27.28208 19.486002-7.79759 52.219992 14.02886 23.38142 18.70894 25.72183 54.56044 25.72183 24.16084 0 46.75449 5.44966 57.66584 13.24348 17.14634 11.6907104 19.48904 11.6907104 28.06224 0 11.6907-16.36701 47.5377-17.14335 53.7727-.77634 6.2351 17.1463804 20.2647 6.2304504 20.2647-16.37161 0-10.13195 3.9007-21.04328 7.7976-23.38142 15.5877-9.35257 7.0175-24.93489-24.1577-45.19879-22.5047-15.003082-44.5618-21.801312-62.2554-21.177962zm-228.88217 47.619082c-16.86783-.36093-36.64384 2.49339-58.8075 8.63102-14.80824 3.8969-51.44218 10.13429-81.05865 14.03111-29.61646 3.89698-57.67037 10.90759-62.34665 15.58388-3.89691 3.8969-14.8052 7.79755-24.15777 7.79755s-23.38218 5.45574-31.95537 11.69072c-7.79381 6.2351204-21.82951 11.6907104-30.4027 11.6907104s-27.27681 10.13203-41.30566 23.3814146c-14.02886 12.47018-31.17447 23.38143-38.1889 23.38143-19.48452 0-73.26485 58.446003-92.74937 101.311943-3.11752 6.23505-9.34343 17.14638-14.01972 23.38142-5.45566 6.23505-15.58761 29.61796-23.38142 52.22008-16.367 47.54215-14.03571 136.39538 4.66943 183.15823 12.4701 33.51341 88.06929 107.55683 108.33318 107.55683 7.01443 0 17.14942 5.4557 22.60509 11.69071 5.45566 6.23507 18.70057 11.69071 30.39128 11.69071 10.91133 0 34.29732 5.4557 51.4437 11.69071 17.14638 6.23507 43.64229 10.91136 59.22989 11.69071 15.58762 0 38.97666 5.45571 50.66737 11.69072 12.47009 6.23507 29.61571 11.69071 38.1889 11.69071 8.57318.77942 24.16081 5.4557 35.07213 11.69071 10.91133 6.23507 25.71729 10.91135 32.73172 11.69071 11.69069 0 38.19043 21.04101 113.79035 91.18526 14.80821 14.02882 31.16913 25.72182 36.62483 25.72182 5.45565 0 11.68996 7.7923 14.80746 17.9243 2.33814 10.1319 13.25785 28.0508 24.16914 39.7415 10.91136 11.6908 19.47696 28.8448 19.47696 38.9767 0 9.3526 5.45565 24.1586 11.69071 32.7318 19.48451 25.7195 14.03646 34.29571-19.47695 34.29571-21.04329 0-33.52172 3.897-35.85986 11.6907-3.1175 7.0144-14.80898 11.6907-31.95539 11.6907-18.70514 0-31.17369 5.4572-41.30563 17.1479l-13.24341 17.1365-9.35029-17.1365c-4.67628-9.3525-15.59599-17.1479-24.16914-17.1479-7.79385 0-28.83713-14.0326-46.76287-31.17901-17.92576-17.1464-35.84467-28.8363-39.74157-26.4981-10.13195 6.2349 11.68233 39.74531 45.97509 70.92061 15.58763 14.0288 24.94627 28.0614 21.82877 31.1789-3.89692 3.8969-38.96677 6.2336-79.49458 6.2336-84.9525 0-101.31874 12.4647-26.49819 21.8173 126.25967 14.8083 187.04909 19.48544 243.16451 20.26474l60.00626.7877 6.24494-23.38144c7.7938-30.3959 20.25475-33.5118 25.71045-6.2335 2.33814 15.5876 13.24943 26.4981 35.0721 38.18894 26.499 14.0288 38.1912 15.5877 87.2922 11.6907 50.6598-4.6763 57.6742-3.9053 70.14415 10.903 7.7938 8.5732 15.5862 23.3822 17.9243 31.9554 7.0144 28.0577 19.4883 12.4731 19.4883-24.1578 0-33.5134.7763-35.0744 24.1577-37.4125 14.8083-1.5589 28.0608 2.3358 34.2959 9.3502 10.1319 12.4701 38.9652 17.1563 38.9652 6.2449-.7794-11.6907-38.1821-40.52934-54.5491-40.52934-11.6907 0-15.5898-3.9022-14.0311-13.2547 2.3382-10.1321 9.3548-14.0258 25.7218-12.4672 13.2495.7795 31.9471-.7786 42.8584-3.1167 17.1464-3.1175 17.9273-3.8969 5.4572-11.6907-7.7938-3.8969-26.4974-5.4579-41.3057-2.3404-56.1154 10.1319-31.1699-36.6287 48.327-91.18531 16.367-11.6907 43.6392-33.5187 60.0062-48.3269 15.5876-15.5876 41.3049-29.6142 56.1132-32.7317 19.4845-3.1176 27.2858-9.3564 27.2858-19.4884 0-14.0288-50.6612-69.35654-63.9107-69.35654-3.1175 0-6.2335-5.45559-6.2335-11.69071 0-7.0144-7.0183-11.69068-19.4883-11.69068-12.4701 0-19.4883-4.67629-19.4883-11.69071 0-15.58758 28.0607-15.58758 34.2958 0 2.3381 6.23507 9.3487 11.69071 15.5838 11.69071 6.235 0 44.4239 32.73326 84.9517 73.26103 57.6742 57.6742 74.045 79.4893 77.9419 101.3119 2.3381 15.5877.7832 29.6257-3.8931 32.7431-3.8969 3.1175-12.4769 17.1388-18.712 31.16771-12.4701 29.6164-22.5921 33.5164-28.8272 10.9143-3.1175-10.9113-10.919-15.5838-27.286-15.5838-38.969 0-35.0713 12.4716 8.574 28.8386 28.8371 11.6907 40.5294 20.2593 40.5294 30.3914 0 10.9112-7.0107 15.589-27.2746 17.1478-14.8082 1.5588-32.7416 7.7877-38.9766 13.2434-6.2351 5.4557-21.8227 12.4724-35.0721 14.0312-12.4701 2.3381 10.1395 3.1198 50.6673 2.3404 40.5278-.7795 67.797-.7825 60.7825.7763-7.7938 2.3382-14.0197 7.0145-14.0197 11.69084 0 4.6762-12.4746 20.2669-28.0622 34.2957-24.1608 22.602-25.7196 26.4982-11.6907 26.4982 8.5732 0 29.6225-14.0327 45.2101-31.179 17.9258-18.7052 36.6279-31.1677 47.5392-31.1677 9.3526 0 19.4792-4.67934 21.8173-10.91434 2.3382-6.235 12.4732-13.2457 22.6052-15.5839 10.1318-2.3381 21.0402-12.4761 24.1577-21.8286 2.3381-9.3526 14.8075-25.7135 26.4982-36.6249 21.8227-21.0433 46.7629-62.35961 46.7629-79.50601 0-5.4556-5.4557-14.8029-11.6908-21.8173-26.4989-29.6164-42.0774-44.4216-60.7825-59.23-24.1608-18.7051-28.0646-53.77645-7.0213-61.57026 7.0144-3.11744 35.853-17.15012 63.9108-31.17897 28.0577-14.80828 53.7772-24.15857 58.4535-21.04101 3.8969 3.89687 38.1912 7.00987 75.6014 7.00987 36.6309.77936 75.5962 4.67704 85.7281 8.57391 9.3526 3.89691 40.5339 9.34953 68.5916 12.46706 30.3958 3.8969 53.7742 10.13047 59.23 17.9242 4.6763 7.01442 14.0234 10.13888 21.8173 7.02128 11.6907-4.67628 12.47-6.23193 0-24.15776-6.2351-10.91133-25.712-25.72562-42.8584-33.5194-18.7051-8.57321-30.4027-19.48608-30.4027-28.83865 0-11.69071 3.8962-13.24716 26.4982-9.35029 14.0289 3.11756 34.3019 1.5565 44.4338-2.34042 17.1464-6.23501 16.3587-7.01443-12.4784-11.69071-17.1464-3.11751-36.6233-8.57315-42.8584-11.69071-16.367-9.35257-19.489-32.73248-4.6808-41.30563 15.5876-8.57321 16.364-21.81738.7763-21.81738-7.0144 0-18.696 10.13199-25.7104 23.38142-7.0144 12.47013-17.9288 23.38142-22.6051 23.38142-14.8082 0-12.4709-33.51259 3.1168-61.5703l14.0311-23.38142-27.2859-28.06227c-30.3959-31.17521-54.5491-35.07214-89.6212-11.69071-28.0578 18.70514-50.6674 20.26012-50.6674 3.89312 0-11.69071 26.5043-42.85838 36.6362-42.85838 2.3382 0 11.6862-5.46401 18.7006-12.47843 7.7939-7.01443 28.8372-13.24037 46.7628-14.01974 31.9547-.77936 49.1087 11.68311 74.0488 54.54904 7.7939 13.24949 10.9016 13.25709 28.8272 3.90452 17.1465-9.35257 21.8319-9.35865 32.7431 1.55271 6.2351 7.01442 17.9228 10.13573 24.1579 7.79758 8.5731-3.1175 9.3487-7.01138 3.893-12.46703-12.47-12.47014-10.1327-36.63624 3.1168-36.63624 6.2351 0 11.6907 5.45565 11.6907 11.69071 0 6.23507 5.4557 11.69071 11.6907 11.69071 6.2351 0 11.6908-5.45564 11.6908-11.69071 0-7.01443-5.4557-14.03341-11.6908-16.37155-18.7051-7.01443-14.0205-25.71045 12.4785-49.09188 19.4845-17.92577 23.3791-27.28366 21.041-48.32693-1.5588-19.48452-6.2336-27.27981-17.9243-28.83857-8.5731-1.55884-22.6058-5.4534-31.179-9.35031-8.5732-3.8969-51.4445-8.56789-95.0898-10.12665-55.3359-3.11752-84.9487-7.7984-97.4188-16.37152-9.3525-7.01443-27.2745-12.46714-38.9652-12.46714s-23.3806-3.8976-26.4982-8.57389c-3.8969-6.23504-7.8022-4.6801-12.4785 3.89309-10.9112 19.48453-.7786 28.06224 31.9554 28.06224 16.367 0 34.2974 4.66794 39.753 10.90299 4.6763 6.23512 16.3693 12.47235 25.7219 14.03119 9.3525 1.55876 17.9182 8.58075 19.4769 15.59518 2.3381 11.69071-2.3306 13.24417-31.1676 10.12665l-33.5195-3.89316-70.1443 77.15416c-67.0267 73.26183-81.8349 83.39377-81.8349 58.45356 0-10.91129 3.9029-16.36092 56.9008-71.69692 24.9402-26.49898 27.2715-31.18362 16.3602-35.85991-12.4701-4.67628-21.8128 2.34422-28.8272 21.82878-6.2351 18.70514-21.0524-7.01975-21.0524-36.6362 0-17.92584-3.1161-36.62942-6.2336-41.3057-3.1174-4.67629-42.8583-10.90526-89.6211-13.2434-49.8804-3.11752-92.7517-10.13351-106.7805-17.14794-12.4701-6.23497-29.6188-11.69072-37.4126-11.69072-8.5732 0-19.4784-5.45558-24.9341-11.69071-5.4557-7.01442-22.6036-11.69071-40.5293-11.69071-34.2928 0-108.3339-22.60196-116.9071-35.07214-2.3382-4.67628-61.5711-8.57918-140.2886-10.13795-74.04115-1.55884-138.72895-6.22974-143.40525-10.12664-5.4557-3.8969-14.8075 0-26.4982 12.46705-13.2494 14.02885-26.49892 19.48826-46.76285 19.48826-15.58757 0-35.07289 5.45574-43.64604 11.69071-7.79385 6.23512-21.82954 11.69071-30.40269 11.69071-8.57321 0-26.49519 10.91141-38.96526 23.38142-13.24949 13.24957-33.51639 32.72871-45.98652 45.19888-12.47008 11.69071-34.28664 31.95757-48.31549 45.98643-14.02886 13.24949-31.9592 26.50051-39.75301 28.83865s-28.83404 18.7021-47.53918 35.84846-39.74538 31.17901-47.53919 31.17901c-7.01442 0-20.26542 5.4557-28.83861 11.69071-22.60204 17.14642-130.15812 15.58535-157.43644-2.34042-49.10099-31.17521-52.22004-38.97204-52.22004-116.13071.77938-56.11541 3.89919-74.81378 14.03114-86.50449 7.01443-7.79381 13.24339-18.70514 13.24339-23.38143 0-28.05771 146.52967-134.055043 185.49871-134.055043 6.23505 0 20.25629-4.67933 31.16763-10.91429 29.61647-14.808315 98.20196-35.8485546 116.9071-35.8485546 8.57321 0 35.85992-7.7952904 59.24134-17.1478704l44.42242-16.37151-17.14793-18.70062c-10.96004-10.96005-27.83851-16.74087-49.52565-17.20499zm1410.63732 304.186878c-10.887-.0733-19.7989 1.38371-22.1371 3.72185-3.1174 3.11753-5.4571 17.14716-5.4571 31.95539 0 31.17516 14.038 38.96599 44.4338 24.15769 16.367-7.79373 21.8174-15.58224 21.8174-33.508 0-21.04328-2.3344-23.38368-27.2746-25.72182-3.8968-.38993-7.7534-.58103-11.3824-.60511zm73.3181.27411c-4.4008-.20225-7.3866 3.54376-7.3866 9.68139 0 7.01442 5.464 12.47843 12.4784 12.47843 13.2495 0 10.9121-17.15246-3.1167-21.82874-.682-.19462-1.3464-.30217-1.9751-.33085zm-844.9051 22.73064c9.7219-1.03627 29.9864 6.78458 62.0384 22.8106 25.7196 12.47009 52.2154 23.38141 59.2299 23.38141 14.8083 0 48.3231 34.29126 40.5293 41.30569-2.3381 3.11749-14.0311 5.45716-25.7218 5.45716-10.9113 0-27.2753 5.4557-35.8485 11.69071-7.7938 6.23507-27.2821 11.69071-42.8698 11.69071-17.9257 0-30.3905 4.67629-33.5079 11.69071-4.6763 13.2495-35.8486 16.3632-35.8486 3.89313 0-4.67629 8.5656-11.68691 19.477-15.58384 29.6164-10.91129 30.4004-25.72032 4.6808-67.02746-19.728-32.0033-24.6584-47.97647-12.1588-49.30882zm588.8967 22.8106c31.1753 0 37.4119 2.33962 40.5294 17.14794 5.4557 18.70512-20.2601 52.99632-38.9652 52.99632-11.6907 0-14.0311-20.27146-2.3404-27.28589 12.47-7.79385.7755-19.47696-19.4884-19.47696-19.4845 0-30.3905-9.35941-21.8173-18.71198 2.3381-2.33814 21.8181-4.66943 42.0819-4.66943zm74.0488 0c7.0145 0 10.903 8.56485 10.903 22.5937 0 25.71956-7.7854 34.29808-22.5937 24.94551-12.4701-7.79384-3.1175-47.53921 11.6907-47.53921zm-1072.42865 46.76283c14.0289 0 15.5876 3.10845 11.6907 25.71045-6.235 33.51341 5.4519 61.57645 38.9653 95.0898 14.8082 15.58764 27.2745 32.73855 27.2745 39.75298 0 6.23507 5.4557 13.24569 11.6907 15.58383 13.2495 5.45565 16.3662 53.77652 3.1168 61.5703-12.4701 8.57322-17.9189-2.33889-16.3602-31.95539 1.5588-17.92572-1.5648-28.0615-10.138-31.17901-6.235-2.33814-11.6907-9.3518-11.6907-14.80745 0-5.45571-9.3534-15.58764-20.2647-23.38143-42.8659-28.05771-49.8796-40.52024-49.8796-89.62123 0-42.08656 1.5663-46.76285 15.5952-46.76285zm-206.24286.19407c11.78816.38988 27.37497 4.86579 42.57289 13.04929 14.02886 7.79379 43.64611 31.95843 67.02753 54.56043 22.60207 21.82271 49.09264 42.08125 57.66584 45.19881 8.57315 3.1175 32.7325 21.82949 52.9963 42.0934 27.2784 27.27829 40.5362 47.54373 47.5507 75.60144 16.367 60.7917 18.7059 104.43249 8.5739 123.91701-18.7052 34.2928-6.2441 42.8697 60.7825 42.8697 56.89485 0 62.35345 1.5573 69.36795 17.9243 13.2495 28.0577-9.3518 59.2291-61.57025 85.728-32.734 17.1464-63.9123 56.11781-57.6772 72.48481 3.1175 7.0144 16.3715 10.9143 39.753 10.9143 25.71945 0 35.07205 3.1176 35.07205 11.6907 0 8.5732-9.3549 11.6907-37.41255 11.6907-39.7484 0-57.6665-12.4738-77.9304-54.56041-13.2495-28.8371-26.5059-117.6812-30.4027-208.86875-2.3382-65.46797-.7787-83.40211 8.5739-94.31346 10.9113-11.69071 10.138-14.8029-1.5527-33.50804-20.2639-31.1752-130.94506-137.17331-149.65019-142.62896-8.57321-3.1175-27.27987-15.59219-40.52936-28.06226-14.02886-12.47008-31.17142-22.59371-38.9652-22.59371-7.79385 0-14.03114-5.45565-14.03114-11.69071 0-8.1835 7.99698-11.8863 19.78513-11.49659zm558.51681 94.10795c10.9114-.77942 12.4709 5.45641 8.574 43.64605-4.6763 50.65977-19.4845 72.48469-46.7628 72.48469-14.0289 0-19.4876 5.45571-22.6051 23.38143-5.4557 26.49898-26.4982 31.9531-26.4982 6.23354 0-18.70514 28.0623-81.06246 39.753-88.85625 3.8968-2.33814 7.0098-9.34877 7.0098-15.58383 0-15.58758 24.9417-40.52627 40.5293-41.30563zm349.1687 14.8074c4.6763 0 7.7863 7.01063 7.7863 15.58383 0 10.13194-5.452 15.59518-15.5838 15.59518-14.0289 0-14.8121-2.34574-7.7977-15.59518 4.6763-8.5732 11.6984-15.58383 15.5952-15.58383zm393.066 18.4608c-2.7001.005-5.324 1.51085-7.2725 4.92062-2.3381 3.89693-20.2684 14.03189-39.7529 22.60511-19.4846 9.35257-33.5089 19.48145-30.3914 24.15774 6.2351 10.13193 40.5279 10.13497 46.7629-.77632 3.1176-3.89693 14.0258-10.91059 24.1578-14.80752 10.1319-3.89686 18.7006-12.47691 18.7006-18.71197 0-10.18062-6.2644-17.40648-12.2045-17.38766zm-303.3306 13.68865c2.7948.45185 3.7903 2.53221 3.7903 6.03943 0 4.67628-3.8976 10.13731-8.5739 13.25481-5.4557 3.11751-7.016 25.71349-5.4572 60.00626 2.3381 66.24735-4.6771 71.70071-43.646 32.73171-31.1754-31.17527-33.518-36.62711-16.3716-50.65597 6.235-5.45564 11.6907-15.59067 11.6907-22.6051 0-7.79379 11.6929-19.48374 25.7218-26.49816 18.5103-9.25513 28.1879-13.0265 32.8459-12.27298zm-152.2304 22.28542c5.0471-.42437 7.9346 2.06645 7.9346 7.91181 0 4.67629-7.7954 10.91054-17.1479 14.80746-25.7196 10.13193-58.4467 45.21319-63.123 67.81524-2.3382 11.69072 2.3351 26.49513 12.467 38.96526 20.2639 26.49893 22.5983 75.59761 3.8931 79.49459-10.1319 1.55868-14.0311-2.33206-14.0311-13.24347 0-8.57319-5.4526-21.0478-12.467-28.06224-8.5732-8.5732-12.4701-24.9364-11.6908-50.65597.7794-34.29271 3.8992-42.08504 37.4126-76.37776 24.1121-24.64793 45.6488-39.72141 56.7525-40.65492z" style="stroke-width:.779378"/></svg>