<svg height="960" style="" width="1176" xmlns="http://www.w3.org/2000/svg"><path d="m584.91519.024377c-73.67212.990384-149.70185 32.161334-220.34482 91.030483-48.39834 40.95244-67.75769 70.00017-100.51963 154.13884-16.38099 43.18621-32.01447 80.41425-45.41709 106.4749-5.95672 11.91344-10.42716 24.57001-10.42716 28.29297 0 3.72295-9.67168 27.55055-21.58511 52.86658-11.91344 26.06067-32.01737 69.24759-44.6754 97.54203-43.930805 95.30753-33.50946 119.13582 134.76787 295.60363l127.31834 134.02619h183.91518 183.91515l127.32923-134.02619c167.53275-175.72319 178.69575-200.30191 135.50955-294.12025-11.9134-26.80523-32.0174-69.98422-44.67537-96.78946-11.91348-26.80524-22.33769-51.37958-22.33769-55.10253 0-3.72296-4.45956-16.37953-10.4163-28.29297-13.40262-26.06065-29.04699-63.28869-45.42795-106.4749-32.0174-81.9049-52.11698-113.18204-96.04774-149.66694-50.63214-43.186214-87.85875-64.039104-145.93676-82.653849-27.6429-9.004877-56.1161-13.236077-84.9443-12.848534zm2.70494 45.471609c67.73298.654422 137.24376 13.448429 158.18535 34.390024 5.21217 5.21213 12.65369 8.9438 17.8658 8.9438 15.63639 0 80.41935 70.72951 96.80036 104.98063 22.3377 46.90919 40.2035 104.24405 40.2035 128.07093 0 11.16885 10.42423 34.25767 22.3377 51.38325 20.10393 27.54982 22.33769 35.74033 22.33769 89.3508 0 32.01734-5.20417 79.66455-10.41628 104.98064-5.95675 25.31604-13.40698 58.82622-15.64075 74.46261-5.95674 38.71866-21.59095 42.43872-53.6083 11.91051-35.74032-34.99568-55.10113-74.46115-49.88895-102.75558 5.21211-25.31605 17.8658-31.2706 17.8658-8.93291 0 8.19051 3.72654 17.12631 7.44951 19.36009 4.46754 2.97833 7.44951-5.95166 7.44951-20.84342 0-14.14724 2.22724-36.4893 4.461-49.14729 4.46755-20.84856 2.97622-23.07943-13.40479-23.07943-23.08227 0-29.03393-5.95958-20.84342-21.59596 13.40262-25.3161 29.78721-62.54776 29.78721-69.24907s-75.94817 30.53253-100.51964 49.14732c-14.89176 11.16884-14.1559 11.90688 13.39391 37.96755 24.57147 22.33769 28.29661 29.78575 24.57365 46.91134-2.97835 11.16885-14.14938 27.54908-24.57365 36.48416-19.3593 15.63639-19.34914 16.38096-8.1803 44.6754 5.95669 15.63638 17.11682 48.39691 24.56276 72.96837 6.70131 24.57147 17.13352 58.08165 23.09026 74.46261 11.91342 34.99575 13.39899 63.29375 3.71934 63.29375-3.72297 0-37.22516-35.74249-73.71005-80.41788-36.48494-43.93077-77.44245-91.58602-90.84507-105.73321-34.99574-37.97409-44.67539-66.26852-44.67539-134.02619 0-34.99574-2.98197-59.56357-7.44952-59.56357-4.46754 0-7.43867 24.56783-7.43867 59.56357 0 67.75767-9.67965 96.0521-44.6754 134.02619-13.40262 14.14719-54.36013 61.80244-90.84504 105.73321-36.4849 44.67539-69.98711 80.41788-73.71004 80.41788-9.67967 0-8.19412-28.298 3.71931-63.29375 5.95673-16.38096 16.37808-49.89114 23.07939-74.46261 7.4459-24.57146 18.61693-57.33199 24.57364-72.96837 11.16885-28.29444 11.16813-29.03901-8.19121-44.6754-10.42426-8.93508-21.5953-25.31531-24.57365-36.48416-3.72295-17.12559.002-24.57365 24.57365-46.91134 27.54983-26.06067 28.2966-26.79871 13.4048-37.96755-24.57147-18.61479-100.51964-55.84863-100.51964-49.14732s16.38461 43.93297 29.78723 69.24907c8.19049 15.63638 2.22796 21.59596-20.85434 21.59596-16.38097 0-17.87233 2.23087-13.4048 23.07943 2.23378 12.65799 4.47191 35.00005 4.47191 49.14729 0 14.89176 2.982 23.82175 7.44953 20.84342 4.46754-2.23378 7.43864-11.16958 7.43864-19.36009 0-22.33769 12.66455-16.38314 17.87669 8.93291 5.21213 28.29443-14.14866 67.7599-49.88897 102.75558-32.01737 30.52821-47.65158 26.80815-53.6083-11.91051-2.97836-15.63639-9.68403-48.4049-15.64075-73.72094-5.95673-24.57147-10.42717-71.4741-10.42717-104.98065 0-54.35504 2.23378-62.54264 22.3377-90.09246 12.65803-17.12558 22.3377-40.2144 22.3377-51.38325 0-23.82688 17.87669-81.16175 40.2144-128.07093 16.38098-34.25113 81.15303-104.98063 96.78942-104.98063 5.21212 0 12.66456-3.73167 17.8767-8.9438 5.21213-5.21213 26.8016-14.883813 48.39471-21.585112 28.48059-9.214301 68.48556-13.197571 109.12532-12.804912zm.32724 28.434754c-8.93508 0-14.89181 14.14721-33.50654 78.18194-14.89182 52.1213-31.27278 106.48363-44.6754 148.92526-5.21216 16.38098-14.89181 49.88026-22.3377 74.45173-7.44599 24.57149-17.86728 55.84644-23.07941 69.24906-11.91343 27.5498-13.40697 50.62917-4.4719 56.5859 3.72296 2.23378 26.06211-16.3766 49.88901-40.20349 40.95242-41.69705 46.90917-44.6754 78.18194-44.6754 31.27278 0 37.22947 2.97835 78.18194 44.6754 23.82685 23.82689 46.166 42.43727 49.88897 40.20349 8.93507-5.95673 7.45241-29.0361-4.46101-56.5859-5.21212-13.40262-15.64438-44.67757-23.09026-69.24906-7.44594-24.57147-17.12559-58.07075-22.3377-74.45173-13.40262-42.44163-29.78363-96.80396-44.67539-148.92526-7.44594-24.57147-15.63712-52.11984-19.36008-61.79951-3.72297-8.93508-9.67892-16.38243-14.14647-16.38243zm0 565.89198c52.86585 0 65.53261 12.65804 75.95688 78.18194 2.23378 12.65805-3.73313 14.89255-36.4951 19.36008-21.59308 2.97834-57.33339 2.97834-78.18195 0-42.44162-5.21217-40.94226-2.23667-30.51798-55.10257 2.23377-11.16885 11.15868-25.31387 19.34914-31.2706 8.93508-5.95674 31.27423-11.16885 49.88901-11.16885zm78.05105 120.17419c5.51696-.3899 17.25861 6.45699 58.21108 29.49274 29.03902 16.38096 59.56716 32.01444 67.0131 34.24821 24.57147 7.44594 13.40335 28.29154-36.48422 67.75482-31.27277 23.82684-68.50078 31.27205-72.96833 14.14647-4.46753-14.89182-11.16449-30.52604-17.8658-42.43945-22.33769-39.46329-24.5809-46.90409-17.13502-54.34997 4.46754-4.46753 8.19123-15.64146 8.19123-23.83197 0-8.93509 2.23523-18.60965 5.21357-20.84343 2.09415-2.32685 3.31665-4.00017 5.82439-4.17742zm-157.19284 1.82147c.40794-.0149.72715.0269.95985.12001 4.46754.74457 8.94089 9.67747 9.68545 20.10174 1.4892 9.67966 5.95167 21.58945 9.67458 26.05699 4.46754 5.21216.74462 21.59312-11.16886 44.67539-9.67965 20.10393-20.10392 42.44599-22.33769 49.1473-6.70131 20.84855-40.20056 15.63348-74.45171-10.42713-49.88753-39.46328-61.05856-60.30888-35.74249-67.75482 6.70131-2.23377 36.48271-17.86725 64.77714-34.24821 27.22406-15.35717 52.48487-27.44767 58.60373-27.67127z" style="stroke-width:.96"/></svg>