<svg height="960" style="" width="1316" xmlns="http://www.w3.org/2000/svg"><path d="m871.41053 830.5285c-3.7947 4.5175-5.6017 8.6737-5.6017 12.6491 0 7.2281.7228 7.4088 7.2281.9035 2.7105-2.7105 7.4087-6.686 10.2999-8.8544 4.1562-3.2526 4.6983-4.5175 3.072-7.228-3.6141-5.7825-8.8544-4.879-14.9983 2.5298zm-52.9455-32.8877c-1.6263 36.321 4.6982 83.1227 14.0947 105.1683 5.0596 11.2035 14.2754 22.2263 18.9737 22.2263 4.5175 0 4.3368-1.0842-1.0842-6.8666-4.6983-5.2404-11.7456-17.7088-11.7456-21.3228 0-1.0842-1.265-4.5176-2.7106-7.2281-1.4456-2.8912-2.7105-7.0474-2.7105-9.0351 0-2.1684-1.2649-7.4087-2.7105-11.5649-1.4456-4.1561-2.7105-10.4807-2.7105-13.7333s-1.265-11.9263-2.7106-19.1544c-1.4456-7.228-3.2526-24.214-4.1561-37.5859l-1.4456-24.3947zm-466.5716-35.7789c-1.6263 1.6263-1.2649 12.107.3614 14.0947.9035 1.0842 2.8913 5.421 4.5176 9.9386 1.6263 4.5175 5.9631 12.4684 9.3965 17.7087 3.4333 5.4211 6.3245 9.9386 6.3245 10.3 0 3.7948 48.0666 51.5 51.8614 51.5.5421 0 3.9754 2.3491 7.7701 5.421 3.7948 2.8913 7.5895 5.4211 8.6737 5.4211.9035 0 2.7105 1.2649 3.9755 2.7105 1.2649 1.4456 3.614 2.7105 5.421 2.7105s4.1561 1.2649 5.421 2.7106c2.5299 3.0719 10.8421 3.7947 10.8421.9035 0-1.0842-1.0842-2.1685-2.1684-2.5299-4.6982-1.4456-7.9508-3.0719-13.1912-6.5052-2.8912-1.9877-6.686-4.1562-8.1316-4.879-1.4456-.5421-5.6017-3.2526-9.035-5.9631-3.4334-2.7105-7.7702-5.4211-9.3965-5.9632-1.807-.7228-3.2527-1.9877-3.2527-3.0719 0-.9035-.7228-1.807-1.807-1.807-4.8789 0-33.4298-30.9-42.8263-46.0789-5.6017-9.2158-20.4192-40.1158-20.4192-42.8263 0-3.4333-2.5299-5.6017-4.3369-3.7947zm21.3228-.3614c-1.0842 2.5298.5421 4.8789 6.686 10.3 4.3368 3.7947 8.8544 6.8666 9.9386 6.8666s3.0719 1.2649 4.3368 2.7105c2.3491 2.8913 10.8421 3.7948 10.8421 1.0843 0-.9036-2.1684-2.5299-4.8789-3.6141-8.493-3.4333-12.2878-6.3245-19.1544-13.7333-5.7825-6.3246-6.686-6.686-7.7702-3.614zm31.8035-72.2807c-1.2649 1.4456-3.2526 2.7105-4.6982 2.7105-2.1685 0-6.1439 5.2404-6.1439 7.9509 0 2.3491 3.9754.9035 7.7702-2.7105 2.1684-2.1684 6.1438-4.6982 9.0351-5.6018 2.7105-1.0842 4.8789-2.5298 4.8789-3.4333 0-2.7105-8.493-1.807-10.8421 1.0842zm498.5557-4.8789c-12.4684 10.6614-16.0824 17.528-16.0824 30.5386 0 8.6736 3.2526 22.9491 7.2281 31.2613 1.807 3.9755 5.7824 3.9755 10.6613.3614l4.1562-3.4333-8.3123-8.493c-7.5895-7.9508-8.3123-9.3965-8.3123-17.7087 0-9.9386 3.2527-16.8053 10.3-22.0456 4.3369-3.072 5.2404-3.2527 9.3965-.9035 2.5298 1.4456 5.7825 4.8789 7.0474 7.5894 3.2526 6.686 5.7824 4.5176 5.7824-5.0596 0-9.3965-4.8789-20.7807-8.8544-20.7807-1.6263 0-7.4087 3.9754-13.0105 8.6737zm-507.9522-17.1667c-1.2649 1.2649-3.9754 3.072-5.9631 3.9755-3.4334 1.4456-3.4334 1.4456-.1807 2.3491 1.807.3614 3.7947 0 4.5175-1.0842.5421-.9035 2.8912-2.1684 5.2403-2.8913 2.1685-.7228 3.9755-2.1684 3.9755-3.0719 0-2.3491-4.879-1.9877-7.5895.7228zm500.0014-20.6c-9.7579 4.3369-16.986 12.2878-21.1421 23.1298-2.7106 7.2281-3.2527 13.9141-3.2527 39.7544 0 16.986.5421 32.1649 1.0843 33.7912 2.8912 7.5895 3.7947.3614 3.7947-28.3701-.1807-30.5386 0-31.2614 4.8789-40.6579 5.6018-10.8421 17.1667-20.2386 24.5754-20.2386 2.7106 0 7.4088.9035 10.6614 1.9877 3.2527 1.0842 6.1439 1.6263 6.686 1.0842 1.807-1.807-3.614-8.3122-8.3123-10.1193-9.2158-3.614-11.9263-3.614-18.9736-.3614zm-433.8646-11.5649c-1.807 1.4457-4.8789 2.7106-6.5053 2.7106-1.6263 0-4.1561 1.0842-5.421 2.3491-1.2649 1.4456-4.8789 3.2526-7.7702 3.9754l-5.421 1.6263 5.421.7228c2.8913.3614 5.6018-.1807 5.9632-1.2649s2.1684-1.9877 4.1561-1.9877c4.1562 0 17.8895-7.0473 17.8895-9.2158 0-2.5298-4.3369-1.9877-8.3123 1.0842zm601.01347-16.6245c0 1.6263.9036 3.4333 1.8071 3.9754 1.0842.5421 1.807 3.4334 1.807 6.3246s1.2649 6.3245 2.7105 7.9509c1.4456 1.4456 2.7105 3.7947 2.7105 5.421 0 1.4456 1.0842 3.7947 2.3491 5.0596 1.4457 1.265 3.072 4.6983 3.7948 7.4088.5421 2.7105 1.9877 4.879 2.8912 4.879 1.0842 0 1.807.9035 1.807 2.1684 0 3.2526 15.7211 17.528 20.6 18.7929 4.8789 1.0843 18.7931-5.2403 20.4194-9.3964 1.4456-3.6141-.9035-5.4211-3.4333-2.8913-1.2651 1.2649-7.0475 2.1685-13.1914 2.1685-10.1193 0-11.5649-.5422-16.9859-5.9632-3.4333-3.0719-6.8667-7.9509-7.7702-10.8421-1.0842-2.7105-2.5298-4.8789-3.4333-4.8789s-1.6263-1.9878-1.6263-4.3369-1.2649-5.2403-2.7106-6.5052c-1.4456-1.2649-2.7105-3.7948-2.7105-5.6018s-1.9877-6.3245-4.5175-9.9386c-2.5298-3.614-4.5176-5.421-4.5176-3.7947zm-172.93137-38.8509c-8.3123 7.2281-9.3965 9.3965-5.0596 9.3965 1.4456 0 2.7105-.7228 2.7105-1.6263s3.614-3.9754 8.1316-6.8666c8.4929-5.4211 10.1192-7.7702 5.0596-7.7702-1.807 0-6.686 3.0719-10.8421 6.8666zm47.7052-21.8648c-7.228 1.9877 0 4.1561 13.7334 4.1561 10.1192.1807 15.9017.9035 18.2508 2.7105 1.9877 1.4456 5.4211 2.7105 7.5895 2.7105s4.8789 1.265 6.1438 2.7106 3.072 2.7105 3.9755 2.7105c3.4333 0 12.2877 8.1316 19.69637 18.2508 7.7702 10.8421 10.6614 13.0106 10.6614 7.7702 0-6.3245-23.31047-31.4421-29.09287-31.4421-1.6263 0-3.9755-1.2649-5.2404-2.7105s-3.614-2.7105-5.421-2.7105-6.1439-1.2649-9.5772-2.7105c-6.1439-2.5299-23.3105-3.4334-30.7193-1.4456zm17.7088-35.2369c-3.9754.9035-9.5772 2.8913-12.2877 4.3369-2.8912 1.4456-7.4088 2.5298-10.3 2.5298s-6.3246 1.2649-7.9509 2.7105c-1.4456 1.4456-4.6982 2.7106-7.0473 2.7106-2.5299 0-5.4211 1.2649-6.686 2.7105s-3.614 2.7105-5.4211 2.7105c-1.807 0-4.1561 1.2649-5.421 2.7105s-3.2526 2.7105-4.3368 2.7105c-2.8913 0-20.2386 17.7088-18.793 19.1544 1.4456 1.2649 10.4807-4.5175 10.4807-6.6859 0-.9036 1.0842-1.6264 2.5298-1.6264s2.8912-1.2649 3.614-2.7105c.5421-1.4456 2.1685-2.7105 3.4334-2.7105 1.4456 0 3.4333-1.0842 4.5175-2.3491 3.0719-3.6141 24.214-13.5526 31.6228-14.8176 3.614-.5421 6.686-1.807 6.686-2.7105 0-1.0842 8.8543-1.807 21.142-1.807 18.793 0 23.3105.7228 38.6702 5.6018 13.73327 4.3368 18.97367 7.0473 24.75607 12.6491 4.1561 3.7947 7.9509 7.0473 8.493 7.0473 2.1684 0 .7228-7.4087-1.807-8.3122-1.4457-.7229-2.7106-1.9878-2.7106-3.2527 0-2.3491-12.8298-11.7456-20.7806-15.1789-5.0597-2.3491-36.68247-7.7702-42.46487-7.4088-1.4456.1807-5.9632 1.0842-9.9386 1.9877zm-78.6052-50.9578c0 12.107-.7228 17.528-2.8912 20.9614-4.1562 6.1438-1.8071 7.7701 3.4333 2.3491 7.5895-7.5895 9.5772-16.2631 6.5053-28.1895-4.1562-16.2631-7.0474-14.4561-7.0474 4.879zm-65.0526-77.1596c0 2.3491 1.2649 5.7825 2.7105 7.7702 1.4456 1.807 2.7106 5.0596 2.7106 7.228 0 1.9878 1.2649 5.2404 2.7105 7.2281 1.4456 1.807 2.7105 5.2403 2.7105 7.2281 0 2.1684 1.0842 4.8789 2.5298 5.9631 1.2649 1.0842 2.8913 4.6983 3.6141 7.7702.9035 4.5175 1.6263 5.2403 3.4333 3.4333 1.6263-1.6263 1.4456-3.2526-1.0842-7.5895-1.6263-3.0719-3.0719-6.6859-3.0719-8.3122 0-1.4456-1.0843-4.879-2.3492-7.4088-4.8789-9.5772-8.1315-17.7087-9.2157-22.5877-1.4457-5.9631-4.6983-6.5052-4.6983-.7228zm27.286-18.2509c.1807 3.2527.9035 7.9509 1.6263 10.4807 1.0842 3.6141 1.4456 2.5299 1.6263-4.8789.1807-5.0597-.5421-9.9386-1.6263-10.4807-1.0842-.7228-1.807 1.2649-1.6263 4.8789zm-285.6893-29.9964c0 1.807 7.9509 9.7579 9.7579 9.7579.9035 0 3.0719 1.0842 4.5175 2.5298 2.5299 1.9877 10.4807 6.5052 30.3579 17.1666 5.0597 2.7106 36.8631 17.5281 43.9105 20.6 3.4333 1.4456 11.2035 4.879 17.1667 7.5895 19.335 8.6737 25.1175 11.2035 33.4298 14.2754 4.5175 1.807 10.6613 4.3369 13.5526 5.4211 3.0719 1.2649 10.3 3.7947 16.2631 5.6017 5.9632 1.6263 12.6491 3.7947 14.9983 4.6983 2.3491.9035 5.7824 1.6263 7.9508 1.6263 8.1316 0-13.914-11.7456-31.9842-17.1667-15.9017-4.5175-42.4648-15.5403-51.4999-20.9614-1.4456-.9035-3.9755-2.1684-5.4211-2.7105s-9.9386-4.5175-18.9736-8.8544c-26.2018-12.4684-77.3403-37.4052-80.7737-39.2122-1.807-.9035-3.2526-1.0842-3.2526-.3614zm236.7191-16.986c.1807 3.2527 1.2649 7.9509 2.7105 10.4807 1.4457 2.5298 2.5299 6.686 2.7106 9.2158 0 2.5298 1.2649 6.1439 2.7105 8.1316 1.4456 1.807 2.7105 5.2403 2.7105 7.4087 0 2.1685 1.2649 6.1439 2.7105 9.0351 1.4457 2.7105 3.072 7.2281 3.6141 9.9386.5421 2.8912 1.807 5.0596 2.7105 5.0596 2.7105 0 2.1684-11.3842-.7228-15.3596-1.2649-1.9877-2.8912-6.1438-3.2526-9.0351-1.0842-5.7824-4.1562-14.8175-7.9509-23.4912-1.2649-3.0719-2.8912-8.1315-3.4333-11.3842-.7228-3.0719-1.9878-5.7824-2.8913-5.7824s-1.6263 2.7105-1.6263 5.7824zm-498.0136-1.4456c-.5421 2.5298-2.1684 4.879-3.614 5.4211-1.4457.5421-2.5299 2.1684-2.5299 3.4333 0 1.4456-1.2649 3.614-2.7105 4.8789s-2.7105 4.1562-2.7105 6.5053-.7228 4.3368-1.807 4.3368c-.9035 0-2.3492 2.1684-2.8913 4.879-.7228 2.8912-2.1684 6.3245-3.4333 7.7701-1.2649 1.4457-2.7105 4.3369-3.2526 6.3246s-2.7105 8.1316-4.879 13.5526c-2.1684 5.4211-4.5175 12.8298-5.2403 16.2632-.7228 3.4333-2.3491 9.2157-3.4333 12.6491-4.879 15.721-7.5895 34.8754-7.5895 52.4034 0 19.6965 2.1684 28.5509 4.3368 18.0702.5421-3.2526 1.0842-10.1193 1.0842-15.1789 0-13.0105 10.1193-59.4509 18.4316-83.3035.9035-3.0719 2.3491-7.9508 3.0719-10.8421.7228-3.0719 2.3492-7.228 3.4334-9.3965 1.2649-2.1684 2.1684-5.421 2.1684-7.4087s1.2649-4.5176 2.7105-5.7825 2.7105-3.614 2.7105-5.421 1.2649-4.1562 2.7106-5.4211c1.4456-1.2649 2.7105-3.4333 2.7105-4.8789s1.2649-3.7947 2.7105-5.2404c3.0719-3.0719 3.614-7.9508.9035-7.9508-.9035 0-2.1684 1.9877-2.8912 4.3368zm494.5803-13.914c-.1807 3.2526.7228 5.9631 1.6263 5.9631 2.1684 0 2.1684-3.0719 0-8.1315-1.2649-3.072-1.6263-2.7106-1.6263 2.1684zm47.1631 21.6842c.3614 22.0456 1.0842 29.8157 3.0719 31.6228 1.9878 1.9877 2.3492-1.9878 1.2649-26.3825-1.6263-39.3929-4.8789-43.5491-4.3368-5.2403zm55.6561-38.4895c0 1.4456.9035 3.2527 1.807 3.7948 1.0842.5421 1.807 2.5298 1.807 4.3368s1.2649 4.3368 2.7106 5.6018c1.4456 1.2649 2.7105 4.1561 2.7105 6.3245s1.2649 5.0597 2.7105 6.3246 2.7105 4.5175 2.7105 7.0473c0 2.7106 1.2649 6.5053 2.7106 8.493 1.4456 1.807 2.7105 5.0597 2.7105 7.2281 0 1.9877 1.2649 5.2403 2.7105 7.228 1.4456 1.8071 2.7105 5.6018 2.7105 8.1316s1.2649 6.1439 2.7106 8.1316c1.4456 1.807 2.7105 4.8789 2.7105 6.6859 0 1.9878 1.0842 5.6018 2.5298 8.1316 1.4456 2.7105 3.0719 6.1439 3.7947 7.5895 4.3369 10.6614 17.7088 26.3824 31.6228 37.0438 5.7825 4.5176 11.3842 8.1316 12.2877 8.1316s2.7105 1.2649 3.9755 2.7105c1.2649 1.4456 3.7947 2.7105 5.6017 2.7105 1.9877 0 3.4333.7228 3.4333 1.807 0 .9036 1.8071 1.8071 3.9755 1.8071 3.0719 0 2.1684-1.0842-4.3369-5.4211-21.1421-14.0947-52.042-45.5368-52.042-52.9456 0-1.4456-1.2649-3.614-2.7106-4.8789-1.4456-1.2649-2.7105-3.9754-2.7105-6.1439 0-1.9877-1.2649-5.421-2.7105-7.228-1.4456-1.9877-2.7105-5.4211-2.7105-7.5895s-1.2649-4.8789-2.7105-6.1438c-1.4457-1.265-2.7106-4.879-2.7106-8.1316s-1.2649-6.8667-2.7105-8.1316-2.7105-4.5175-2.7105-7.0473c0-2.7106-1.2649-6.5053-2.7105-8.493-1.4457-1.807-2.7106-5.2404-2.7106-7.2281 0-2.1684-1.2649-4.8789-2.7105-6.1438-1.4456-1.265-2.7105-3.6141-2.7105-5.4211 0-3.0719-5.6018-10.8421-7.9509-10.8421-.5421 0-1.0842 1.0842-1.0842 2.5298zm-218.6489-4.5175c0 1.9877.7228 3.9754 1.6263 4.6982 1.0842.5421 3.7947 5.2404 6.5052 10.4807 5.6018 11.3842 7.5895 14.6369 14.0948 23.1298 2.7105 3.6141 4.8789 7.2281 4.8789 7.9509 0 1.9877 14.2754 19.5158 30.1772 37.2245 5.2403 5.7825 11.3842 12.6492 13.5526 15.3597 8.8544 10.1193 12.107 13.1912 29.2736 27.6473 9.7579 8.1316 18.793 15.7211 20.0579 16.986s7.2281 6.8666 13.3719 12.8298c6.1439 5.7824 11.5649 10.1193 12.1071 9.5772 1.0842-1.0842-11.5649-19.1544-17.1667-24.5754-1.6263-1.6264-7.0474-6.1439-11.7456-10.1193-4.8789-3.9755-11.7456-9.5772-15.3596-12.6491-7.4088-6.1439-40.1158-38.8509-47.3439-46.9825-7.4087-8.6736-32.3455-42.1034-32.3455-43.5491 0-.5421-2.1685-4.1561-4.879-7.7701-6.8667-8.8544-9.2158-12.8298-11.5649-18.793-2.3491-5.6017-5.2403-6.5052-5.2403-1.4456zm-4.1562-11.3842c-1.4456 1.4456.5421 6.1439 2.5298 6.1439 1.9878 0 2.1685-4.879 0-6.1439-.7228-.5421-1.9877-.5421-2.5298 0zm78.4245-23.6719c-2.3491 2.5298-3.7947 5.0596-3.2526 5.7824 1.2649 1.0842 10.3-6.6859 10.3-9.035 0-2.5299-2.7105-1.265-7.0474 3.2526zm373.87157-11.9263c-7.9508 8.8544-14.2754 18.2508-17.3473 25.8403-3.614 9.0351-6.5053 10.8421-9.5772 5.4211-1.0842-1.6264-1.9877-2.3492-1.9877-1.4457 0 3.6141 4.3368 16.6246 6.6859 19.3351 1.265 1.4456 2.3492 4.3369 2.3492 6.3246s1.2649 5.2403 2.7105 7.228c1.4456 1.8071 2.7105 4.879 2.7105 6.5053s1.0842 5.2403 2.5298 8.1316c5.2404 10.8421 8.1316 17.8894 8.6737 21.1421.3614 1.9877 1.6263 3.7947 2.8912 4.3368 4.8791 1.6263 1.8072-15.9017-5.2403-28.5509-8.1316-14.6368-9.7579-19.6964-9.5772-29.8157 0-8.8544 1.0842-12.8298 5.9632-21.6842 3.4333-5.9632 7.228-12.107 8.4929-13.7333 1.4457-1.4457 2.53-3.6141 2.53-4.6983s1.2649-2.3491 2.7105-3.0719c3.2526-1.2649 3.614-4.6983.5421-4.5175-1.2649 0-3.614 1.4456-5.0598 3.2526zm-279.00317-4.3369c-.5421 1.6264-1.0842 5.6018-1.0842 8.8544s-1.0843 8.3123-2.5299 11.2035c-1.807 3.6141-2.3491 7.7702-1.4456 13.3719 1.0842 7.7702 1.0842 7.9509 2.3491 2.7106.7228-3.072 1.2649-8.493 1.4457-12.2877 0-3.6141.9035-6.686 1.807-6.686 2.5298 0 4.3368-13.7333 2.3491-17.3474-1.4456-2.7105-1.6263-2.7105-2.8912.1807zm-83.8456.9035c-4.3368 5.6018-5.0596 9.0351-2.1684 9.0351.9035 0 2.1684-1.9877 2.8912-4.3368.5421-2.3491 2.7105-4.6983 4.6983-5.2404 1.9877-.5421 3.0719-1.807 2.3491-2.8912-1.807-3.0719-3.614-2.3491-7.7702 3.4333zm-115.8297-34.8754c-.1807 11.0228-.9035 13.7334-4.879 18.4316-2.5298 3.0719-6.5052 5.6018-8.4929 5.6018-2.1685 0-7.2281 1.807-11.2035 4.1561-6.686 3.7947-7.2281 4.6982-7.5895 12.107-.1807 7.0474 0 7.4088.9035 2.1684 1.4456-7.0473 10.1193-13.0105 18.9737-13.0105 3.4333-.1807 7.9508-1.9877 11.2035-4.5175 5.0596-4.1562 5.421-5.2404 4.8789-14.8176-.1807-5.7824-1.2649-13.3719-1.9877-16.8052-1.4456-5.4211-1.6263-4.5176-1.807 6.6859zm105.349-22.7684c-.5421.9035 1.0842 1.6264 3.6141 1.6264 5.6017 0 6.1438-1.0843 1.0842-2.3492-1.9878-.5421-4.1562-.1807-4.6983.7228zm-108.2402-1.9877c1.4456 4.5176 7.228 10.8421 9.9386 10.8421 1.0842 0 1.807.9035 1.807 1.9877s2.5298 5.0597 5.421 8.8544c3.0719 3.7947 5.4211 7.7702 5.4211 8.8544s.9035 1.9877 1.807 1.9877c1.0842 0 2.5298 1.6263 3.2526 3.4333 3.4333 9.5772 34.8754 41.5614 46.2596 47.3439 6.8667 3.4333 9.3965 3.614 18.6123 2.3491l10.4807-1.4456-12.2877-1.2649c-18.9737-2.1685-27.8281-9.7579-62.3421-55.2947-12.6491-16.6246-24.3947-30.5386-26.2017-30.9-2.7105-.5421-3.2526 0-2.1684 3.2526zm80.4122-9.0351c0 .9035 2.1684 2.1685 5.0596 2.7106 2.7105.7228 7.0474 2.3491 9.7579 3.7947 5.4211 2.8912 8.6737 3.2526 8.6737.7228 0-.9035-2.1684-2.3491-4.879-2.8912-2.7105-.7228-6.1438-2.3491-7.4087-3.7948-2.8912-2.7105-11.2035-3.2526-11.2035-.5421zm190.6402-11.0228c-.5421 1.0843-6.5053 4.3369-13.1912 7.5895-26.9246 13.1912-42.1035 16.8053-56.3789 13.5526-5.2404-1.2649-10.1193-3.2526-10.4807-4.3368-.3614-1.2649-1.4457-2.1684-2.5299-2.1684s-3.0719-1.4456-4.3368-3.072c-1.2649-1.807-2.8912-2.5298-3.614-1.807-.9035.7228 1.9877 4.5176 6.3245 8.3123 7.0474 6.3246 8.8544 7.0474 20.6 7.9509 22.0456 1.6263 40.4772-3.4334 54.2105-14.6369 5.2403-4.5175 5.0596 1.265-.5421 10.1193-2.8912 4.879-5.4211 10.1193-5.4211 11.5649 0 1.6263-1.2649 3.7948-2.7105 5.0597s-2.7105 3.9754-2.7105 6.1438c0 1.9878-1.2649 5.4211-2.7105 7.2281-1.4457 1.9877-2.7106 5.0596-2.7106 6.686 0 1.807-1.0842 5.421-2.5298 8.3122-3.4333 7.0474-6.5052 16.4439-8.493 25.479-.9035 4.1561-2.3491 9.2157-3.4333 11.0228-.9035 1.9877-1.807 6.6859-1.807 10.4806 0 3.7948-1.2649 11.3843-2.7105 16.8053-2.8913 10.8421-3.6141 31.9842-1.0842 35.7789 1.807 3.0719 3.7947-7.228 3.7947-21.3228 0-5.421 1.2649-11.9263 2.7105-14.4561s2.5298-7.4088 2.7105-10.8421c0-3.4333 1.0843-9.9386 2.5299-14.4561 1.4456-4.5176 3.9754-13.0105 5.6017-18.9737 1.807-5.9631 4.1562-13.7333 5.4211-17.1666 1.2649-3.4334 3.2526-9.2158 4.5175-12.6492 1.0842-3.4333 2.5298-8.3122 3.0719-10.8421.5421-2.5298 1.9877-5.6017 2.8913-7.0473 2.5298-3.0719 5.9631-9.0351 8.3122-14.0947.9035-1.9878 2.7106-4.3369 3.6141-5.0597 1.0842-.5421 1.9877-2.3491 1.9877-3.7947 0-1.6263 1.9877-5.4211 4.5175-8.6737s3.9755-6.5053 3.2526-7.0474c-1.807-1.807-7.4087-1.4456-8.6736.3614zm-104.0842-9.3964c-1.0842 2.8912-2.3491 18.4315-2.8912 34.8754-.5421 22.0456-1.6263 31.8034-3.7947 37.0438-3.9754 9.5772-9.2158 16.8052-13.3719 18.2509-4.3369 1.2649-2.3492 4.3368 3.0719 4.3368 5.421 0 13.914-9.5772 16.6245-18.9737 1.0843-3.9754 2.8913-18.0701 3.7948-31.2613 1.4456-19.8772 2.1684-24.3948 4.8789-26.3825 2.8912-1.9877 3.0719-3.2526 1.4456-7.5895-1.0842-2.8912-2.5298-7.4087-3.0719-10.2999-.7228-2.7106-1.9877-4.879-2.8912-4.879-1.0842 0-2.7105 2.1684-3.7948 4.879zm-225.6963-7.2281c-4.5175.5421-8.8543 1.4456-9.7578 2.5298-1.0843.9035-7.5895 1.6263-14.4562 1.6263-7.7701 0-14.8175 1.0842-18.0701 2.7106-2.7106 1.4456-8.3123 2.7105-12.2877 2.7105-3.9755 0-8.8544.9035-11.0228 2.1684-2.1685 1.0842-6.8667 2.7105-10.3 3.4333-7.7702 1.6263-17.3474 4.879-24.0333 8.1316-2.8913 1.4456-6.686 2.5298-8.493 2.5298-1.6263 0-4.1562 1.2649-5.4211 2.7105-1.2649 1.4457-3.4333 2.7106-4.8789 2.7106s-4.879 1.0842-7.4088 2.5298c-2.7105 1.4456-6.1438 3.0719-7.5894 3.614-1.4457.5421-3.9755 1.807-5.4211 2.7105-1.4456.9036-3.9754 2.1685-5.421 2.8913-7.4088 3.0719-41.9228 28.1894-40.6579 29.635 1.2649 1.2649 19.1544-8.6736 22.5877-12.6491.5421-.5421 4.5175-2.7105 9.0351-5.0596 4.5175-2.1684 10.6614-5.6018 13.5526-7.5895 3.0719-1.807 6.686-3.7947 8.1316-4.5175 1.4456-.5421 3.9754-1.807 5.421-2.7106 1.4456-.9035 3.9755-2.1684 5.4211-2.7105s5.421-2.1684 8.6736-3.614c19.3351-8.493 28.0088-11.3842 37.9474-13.5526 4.1561-.9035 9.2158-2.3491 11.0228-3.4334 1.9877-.9035 5.7824-1.807 8.6737-1.807 2.7105 0 7.4087-1.2649 10.2999-2.7105 2.7106-1.4456 9.2158-2.7105 14.4562-2.7105 5.0596 0 13.7333-1.2649 19.1543-2.7105 13.372-3.6141 56.0175-3.6141 65.9561 0 3.9755 1.4456 10.8421 2.5298 15.3597 2.7105 4.5175 0 9.7579 1.2649 11.5649 2.7105 1.9877 1.4456 6.1438 2.7105 9.3965 2.7105 3.0719 0 8.6736 1.2649 12.107 2.7106 3.614 1.4456 8.8543 2.7105 11.5649 2.7105 2.7105 0 6.6859 1.2649 8.4929 2.7105 3.9755 2.8912 13.7334 3.614 13.7334 1.0842 0-1.9877-4.5176-3.7947-9.5772-3.7947-2.1684 0-5.6018-1.2649-7.4088-2.7105-1.9877-1.4457-5.421-2.7106-7.5895-2.7106-2.1684 0-6.3245-1.2649-9.035-2.7105-2.8913-1.4456-8.3123-2.7105-12.107-2.7105-3.7948 0-8.6737-.9035-10.8421-2.1684-2.1685-1.0843-8.6737-2.7106-14.8176-3.4334-5.9631-.7228-14.8175-2.1684-19.8772-3.2526-8.8543-1.807-29.9964-1.9877-46.0789-.7228zm338.8156-24.7561c4.8789 2.1684 6.3245 2.1684 6.3245 0 0-1.0842-2.1684-1.807-4.8789-1.6263-4.5176 0-4.6983.1807-1.4456 1.6263zm-16.2632-5.4211c4.8789 2.1684 6.3246 2.1684 6.3246 0 0-1.0842-2.1685-1.807-4.879-1.6263-4.5175 0-4.6982.1807-1.4456 1.6263zm-17.1666-5.421c6.5052 1.9877 9.035 1.9877 9.035 0 0-1.0842-3.0719-1.807-6.6859-1.6263-6.1439.1807-6.3246.3614-2.3491 1.6263zm-21.6842-7.4088c0 1.6263 11.0228 3.9754 12.4684 2.7105 1.2649-1.0842-.3614-1.9877-6.5053-3.0719-3.2526-.7228-5.9631-.5421-5.9631.3614zm-14.8176-3.9754c2.1684.3614 5.4211.3614 7.2281 0 1.6263-.5421-.1807-.9035-4.1561-.7228-3.9755 0-5.4211.3614-3.072.7228zm74.4491-6.8667c0 2.1684.9035 3.7948 1.807 3.7948 1.0842 0 1.807 1.9877 1.807 4.3368s1.0842 5.2403 2.5298 6.3245c1.4457 1.265 3.072 4.1562 3.6141 6.5053.7228 2.5298 1.9877 4.5175 2.8912 4.5175 1.0842 0 1.807 1.265 1.807 2.7106 0 2.5298-1.9877 3.4333-6.6859 2.8912-1.265-.1807-2.3492.5421-2.3492 1.6263 0 .9035 1.6264 1.807 3.4334 1.807 1.9877 0 4.1561.7228 4.6982 1.807.5421.9035 2.3491 1.8071 3.7947 1.8071 5.0597 0 3.072-9.5772-4.8789-23.4913-.9035-1.4456-2.3491-4.5175-3.4333-6.8666-.9035-2.1684-2.5299-3.9754-3.6141-3.9754-.9035 0-1.807-1.0843-1.807-2.5299s-.7228-3.2526-1.807-3.7947c-.9035-.5421-1.807.5421-1.807 2.5298zm-144.5613-11.0228c0 2.1684 6.1439 3.9755 13.7333 3.9755 3.2527 0 8.1316 1.2649 10.8421 2.7105 2.8913 1.4456 8.1316 2.7105 11.7456 2.7105 3.4334 0 7.0474.7228 8.1316 1.6263 2.5298 2.7105 16.986 4.6983 16.986 2.3491 0-1.9877-5.9632-3.9754-12.1071-3.9754-2.1684 0-4.1561-.9035-4.5175-2.1684-.3614-1.0842-5.6017-2.3491-11.5649-2.8912-5.7824-.5421-11.2035-1.6264-11.9263-2.7106-1.4456-2.5298-21.3228-4.1561-21.3228-1.6263zm-53.1263-10.842104c-1.0842 1.807004 8.493 3.975504 19.1544 3.975504 3.614 0 6.8667.9035 7.2281 2.1684.9035 2.7105 24.9368 4.5175 24.9368 1.807s-4.6983-3.9754-15.1789-3.9754c-5.2404 0-10.1193-.7228-11.0228-1.6264-2.7106-2.529804-23.672-4.517504-25.1176-2.349104zm-158.656-5.6017c-7.9508 1.9877-1.9877 4.1561 11.9263 4.1561 16.6246 0 26.3825-1.4456 26.3825-3.7947 0-1.6263-32.5263-1.9877-38.3088-.3614zm-65.5947-29.093c-3.9754.3614-12.4684 1.2649-18.7929 1.807-8.1316.7228-10.8421 1.6263-8.8544 2.7105 2.1684 1.265 98.4824 1.0843 117.0946-.1807 4.3369-.3614 4.3369-.3614-.9035-1.9877-5.7824-1.6263-76.256-3.614-88.5438-2.3491zm306.2893-3.2526c0 2.1684 31.8034 38.670104 36.8631 42.464904 3.7947 2.7105 4.6982 2.8912 4.6982.7228 0-3.6141-8.6736-14.094804-25.2982-30.719304-13.3719-13.3719-16.2631-15.5403-16.2631-12.4684zm-186.1227-26.9245996c0 1.8071 6.1439 3.7948 12.6491 3.7948 2.5298 0 6.1439 1.2648996 7.9509 2.7104996 1.9877 1.4456 5.7824 2.7105 8.3123 2.7105 2.5298 0 6.3245 1.2649 8.3122 2.7105 1.8071 1.4457 5.4211 2.7106 7.9509 2.7106s6.1439 1.2649 7.9509 2.7105c1.9877 1.4456 5.0596 2.7105 6.6859 2.7105 1.8071 0 5.4211 1.2649 8.3123 2.5298 2.7105 1.4457 6.3246 3.072 7.7702 3.6141s3.9754 1.807 5.421 2.7105c7.4088 4.6982 37.2246 17.7088 38.4895 16.986 2.8912-1.8071-5.7825-8.8544-18.0702-14.6369-6.6859-3.4333-14.6368-7.228-17.3473-8.6737-2.8913-1.4456-6.3246-2.5298-7.5895-2.5298s-4.6982-1.0842-7.5895-2.5298c-7.0473-3.4333-16.6245-6.686-23.1298-7.9509-2.8912-.3614-7.0473-1.9877-9.0351-3.2526-1.9877-1.4455996-6.3245-2.5297996-9.9385-2.5297996-3.4334 0-7.9509-1.2649-9.7579-2.7106-3.7948-2.8912-17.3474-3.7947-17.3474-1.0842zm-20.6-5.60170004c-1.0842 1.80700004 14.8176 4.87890004 16.6246 3.25260004 1.6263-1.6263 0-2.34910004-7.9509-3.7947-4.3368-.5421-7.9509-.3614-8.6737.54209996zm-22.2263-3.79469996c2.7106.3614 6.686.3614 9.0351 0 2.1684-.3614 0-.7228-5.0596-.7228-4.879 0-6.8667.3614-3.9755.7228zm22.0456-21.8648994c43.7298 6.685899 78.9666 14.636799 106.614 24.3946994 7.9508 2.71049996 19.6964 6.3245 25.8403 7.9508 10.4807 2.7106 11.9263 2.7106 15.9017 0 6.3246-3.9754 6.1439-17.1666004-.1807-24.7561004-10.2999-12.287699-1.4456-13.010499 22.5877-1.626299 10.4807 4.878999 31.8035 19.51579936 59.6316 41.019299 30.5385 23.4912 36.5017 26.9245 41.3806 24.214 4.5176-2.3491 11.0228-11.3842 11.0228-15.1789 0-1.6264.7228-2.8913 1.6264-2.8913 2.7105 0 8.1315 9.0351 14.6368 24.3948 6.5052 15.5403 9.7579 20.238504 15.3596 22.768404 4.879 2.1684 9.3965 5.0596 17.3474 11.0228 3.614 2.8912 7.228 5.0596 7.7701 5.0596 3.2527 0 45.5368 34.1526 59.4509 47.8859 15.54027 15.7211 31.26127 35.4175 38.12797 47.886 7.5895 13.7333 16.986 27.2859 18.0702 25.6596 1.0842-1.9877-5.2404-17.7088-7.7702-19.1544-2.3491-1.4456-3.7947-13.914-1.9877-17.1666.7228-1.6264 5.2403-4.879 9.9386-7.2281 8.4929-4.1561 19.8771-14.2754 23.8526-20.9614 2.5298-4.5175 2.7105-3.7947 6.6859 21.6842 3.6141 22.9491 8.3123 32.1649 18.6123 36.5017 5.6018 2.1684 8.8544 2.3491 22.0457.5421 8.493-1.2649 20.0579-3.2526 25.4789-4.5175 23.8526-5.6018 45.1754-5.2404 45.1754 1.0842 0 1.807-2.1684 4.6982-4.8789 6.5053-23.1298 14.8175-37.2245 40.2964-46.2596 83.6648-6.5053 30.3579-7.2281 41.7421-5.0597 78.0631 1.0842 19.1544 2.3492 39.7543 2.7106 45.7175s2.7105 20.9614 5.421 33.2491c5.0596 24.5754 4.3368 29.2737-3.2526 21.1421-9.2158-10.1193-15.7211-11.9263-43.7299-11.9263-34.6947 0-71.0157 1.9877-66.6789 3.7947 1.9877.7228 23.8526 1.4456 48.428 1.4456 51.5001.1807 52.5843.5421 59.451 16.2632 8.4929 19.1543 10.842 37.9473 10.842 85.1104.1808 47.7052-1.2649 58.1859-11.3842 80.4122-7.228 16.0825-8.8543 21.5035-9.9385 34.3333-1.265 16.986-3.7948 24.2141-21.1422 60.5351-22.407 46.8017-56.1982 89.2666-93.4228 116.7332-29.45427 21.8649-43.54897 26.3825-69.02797 22.407-25.6596-3.9754-34.8754 1.4456-60.8964 35.9596-16.6246 22.0456-26.2017 31.6228-35.0561 35.4176-8.493 3.614-13.3719 1.2649-21.6842-9.7579-11.9263-15.7211-16.4439-26.7439-26.5632-65.2333-3.2526-12.107-9.035-53.8491-9.035-65.5947 0-27.1052 15.1789-113.1192 23.8526-134.9841 16.6245-41.9228 24.3947-80.4122 21.3228-107.3368-1.9877-16.8052-3.7948-22.5877-13.0105-42.1034-4.3369-9.0351-7.2281-12.2877-14.2755-16.8053-5.6017-3.4333-11.2035-9.0351-14.9982-14.8175-12.2877-18.9737-27.1052-29.4544-52.5842-37.0438-24.9368-7.5895-41.5613-9.5772-79.8701-9.5772-43.3684 0-71.3771 3.9754-103.542 14.9982-11.0228 3.614-30.1772 13.914-35.5982 18.793-5.7825 5.421-11.3842 5.421-11.3842 0 0-5.4211 4.5175-26.0211 7.5894-33.7912 3.4334-9.5772 13.0106-21.3228 22.2263-27.8281 4.5176-3.2526 10.1193-8.6736 12.6492-11.9263l4.3368-5.9631-3.4333-6.5053c-5.7825-10.8421-16.4439-16.2631-43.3684-21.6842-29.6351-6.1438-37.9474-8.1315-37.9474-9.2158 0-.5421 4.1562-4.3368 9.0351-8.6736 12.2877-10.4807 15.3597-18.2509 12.6491-30.1772-1.2649-5.0596-1.807-11.3842-1.4456-14.4561l.5421-5.4211 13.5526.5421c13.0106.5421 13.7334.3614 19.5158-4.8789 7.4088-6.8667 9.7579-6.8667 17.8895-.7228 11.5649 8.8544 32.5263 16.8052 44.0912 16.8052 9.5772 0 11.2035-.5421 16.6245-5.9631 8.3123-8.493 10.8421-17.8895 7.7702-28.3702-1.4456-4.5175-4.1561-11.3842-6.1439-15.3596-3.4333-6.686-3.614-6.8667-4.3368-2.7105l-.5421 4.5175-26.2017.1807c-69.5702.3614-140.9473 19.6965-161.3666 43.9105-8.1315 9.5772-9.7579 18.4316-6.1438 32.5263 4.1561 15.9017 3.9754 17.7087-2.1685 20.9614-7.9508 3.9754-11.0227 9.5771-11.0227 20.0578 0 12.6492-2.1685 14.0948-17.8895 12.6492-13.914-1.4457-24.5754 1.6263-32.8877 9.035-2.5298 2.3492-5.421 4.3369-6.686 4.3369-2.5298 0-2.8912-7.5895-.5421-10.1193 4.879-4.879 14.6369-26.5632 14.6369-32.1649 0-3.4333 1.2649-7.4088 2.7105-9.0351 1.4456-1.4456 2.7105-3.4333 2.7105-4.3368 0-1.0842 1.2649-2.3491 2.8912-2.8912 1.4457-.5422 2.1685-1.9878 1.6264-2.8913-1.8071-3.0719-8.6737 4.3369-28.5509 30.7193-18.9737 25.1175-26.021 35.2368-33.2491 47.8859-5.9632 10.1193-18.6123 36.8632-18.6123 38.8509 0 .9035-1.0842 4.3368-2.5298 7.5894-3.2526 7.4088-7.5895 24.0334-10.3 39.7544-2.5298 13.3719 0 46.2596 4.5176 60.1736 1.4456 3.9755 3.4333 10.4807 4.6982 14.4562 3.614 12.2877 9.3965 23.1298 17.8895 34.3333 17.1666 22.5877 30.8999 32.707 46.0789 34.514 9.3965 1.0842 9.9386.9035 16.0824-5.2404 12.6491-12.4684 18.793-16.0824 44.6333-25.6596 14.9982-5.6018 35.4175-14.2754 37.9474-16.2632 1.4456-1.2649 3.9754-2.7105 5.421-3.4333 3.9754-1.807 7.9509-4.3368 28.0087-17.528 9.9386-6.5053 20.9614-13.5527 24.3948-15.5404 14.8175-9.0351 18.6122-18.0701 16.4438-39.5736-1.6263-14.9983.9035-16.6246 10.3-7.4088 5.9632 5.9632 6.686 7.7702 7.7702 19.1544.7228 9.2158 2.7105 15.721 7.5894 25.4789 8.493 16.2631 8.6737 24.9368 1.6264 39.5737-4.6983 9.3964-7.0474 18.6122-10.4807 41.5613-1.4457 9.5772-10.1193 19.8772-25.6597 30.1772-17.8894 11.9263-26.021 19.1544-28.5508 25.2982-3.4334 8.1316-8.493 9.0351-29.4544 5.4211-22.5877-3.7948-28.0087-3.7948-37.4052 1.0842-11.9263 5.9631-15.9018 16.4438-10.8421 28.7315 4.8789 11.7456 20.6 21.5035 34.1526 21.5035 8.1316 0 10.3 2.7105 10.3 13.0105 0 11.7456 5.0596 19.3351 23.6719 35.2369 8.3123 7.0473 20.4193 18.2508 26.7438 24.5754 9.5772 9.9386 11.7456 13.1912 13.7334 21.6842 1.4456 6.5052 5.9631 15.721 12.6491 25.8403 13.0105 19.6965 13.914 27.6473 4.8789 45.3561-3.2526 6.1438-5.7824 12.8298-5.7824 14.8175s-1.265 9.7579-3.072 17.3474c-2.3491 11.38419-3.9754 14.63679-9.035 18.97359-6.1439 5.6018-12.1071 6.8667-14.0948 3.4334-.7228-.9035 0-3.2527 1.6263-5.0597 1.9878-2.1684 2.8913-6.5052 2.8913-13.55259 0-12.2877-5.7825-24.9368-14.8176-32.8877-6.1438-5.2403-22.7684-14.0947-37.5859-19.6965-32.5263-12.2877-55.2947-30.8999-82.942-67.7631-24.5755-32.5262-43.5491-68.1245-43.5491-81.4964 0-7.0473-1.0842-8.493-22.9491-30.1771-21.8649-21.6842-23.6719-24.0334-32.8877-42.8263-5.4211-11.0228-10.8421-22.407-12.107-25.2983-1.0842-3.0719-3.4334-8.3122-4.879-11.7456-1.4456-3.4333-3.9754-9.5771-5.421-13.5526-1.4456-3.9754-3.9755-10.6614-5.6018-14.9982-1.6263-4.1561-4.1561-11.0228-5.7824-15.3596-1.6263-4.1562-3.9755-10.3-5.4211-13.5527-1.4456-3.2526-2.5298-7.7701-2.5298-9.9386 0-2.1684-1.0842-9.2157-2.7105-15.721-1.4456-6.5053-3.97549-18.2509-5.60179-26.2017-1.6263-7.9509-3.9754-19.5158-5.421-25.6597-1.4456-6.1438-2.5298-14.6368-2.5298-18.9736-.1807-4.3369-1.265-11.0228-2.7106-14.9983-1.4456-3.9754-2.7105-11.3842-2.7105-16.6245 0-5.0597-.7228-9.7579-1.6263-10.4807-2.7105-1.6263-4.3368 5.9632-3.0719 14.0947.5421 4.1562.3614 8.6737-.3614 9.9386-1.9878 3.0719-30.9 20.2386-33.9719 20.2386-1.6264 0-1.8071-1.4456-.7228-5.7825 3.0719-10.1192-3.9755-20.4192-26.0211-38.3087-9.75791-7.9509-19.15431-21.3228-19.15431-27.6473 0-5.0597-.5422-5.0597 11.02271-.5421 8.8544 3.614 9.7579 3.614 19.1544.9035 14.9983-4.3369 26.5632-12.6492 37.7667-27.1053 6.6859-8.6737 7.4087-10.4807 9.7578-25.2982 1.0843-6.3246 4.5176-16.986 7.9509-23.8526 3.4333-6.686 8.3123-17.1667 11.0228-23.1298 5.42109-12.4684 21.68419-45.1754 24.93679-50.5965 35.779-58.5473 70.4737-97.0367 129.5631-143.6577 19.3351-15.3597 53.6684-35.4176 67.7631-39.5737 3.0719-.9035 9.9386-3.4333 15.3596-5.6017 5.4211-1.9878 13.1912-4.3369 16.986-5.0597 13.914-2.5298 8.6737-7.4088-7.9509-7.5895-9.9386 0-11.5649-1.0842-14.9982-9.035-5.4211-12.829904-18.4316-19.877204-36.6824-19.877204-14.0948 0-46.079 7.5894-54.7526 12.8298-2.7106 1.807-4.1562 1.9877-5.7825.3614-3.614-3.614 16.8053-21.8649 32.707-29.8158 13.914-6.6859 24.5754-9.9386 49.6929-15.1789 7.9509-1.6263 18.9737-3.9754 24.5755-5.4211 5.421-1.4456 11.7456-2.5298 13.7333-2.5298 6.3245 0 20.0579-7.0472996 21.3228-11.0227996.7228-1.9877.1807-4.8789-1.0842-6.3245-3.072-3.7948-13.5527-7.9509004-19.6965-7.9509004-6.1439 0-10.8421-1.6263-10.8421-3.7947 0-4.1562 29.4544-12.649099 49.6929-14.456199 20.7807-1.807 67.4017-.1807 88.5438 3.072z" style="stroke-width:.180702"/></svg>