<svg height="960" style="" width="1314" xmlns="http://www.w3.org/2000/svg"><path d="m591.36079 246.65024c-3.58033 8.35409-4.77377 50.12452-3.58033 93.0884l3.58033 77.57366h-89.50808-89.50807v65.63926 65.63925h89.50807 89.50808v89.50808 89.50807h65.63925 65.63925v-89.50807-89.50808h89.50808 89.50807v-65.63925-65.63926h-89.50807-89.50808v-89.50807-89.50807l-63.25237-3.58033c-42.96387-2.38688-64.44581 1.19344-68.02613 11.93441zm29.83602-280.45863c-16.70817 45.350758-48.93108 102.63593-64.44581 113.3769-7.16065 4.77376-27.44915 9.54752-44.15732 9.54752-17.90161 0-34.60979 8.35409-39.38355 17.90162-3.58032 9.54753-17.90162 17.90161-31.02947 17.90161s-27.44914 8.35409-31.02946 17.90162c-4.77377 9.54753-20.2885 17.90161-35.80323 17.90161-16.70818 0-32.22291-8.35408-35.80323-17.90161-4.77377-9.54753-17.90162-17.90162-29.83603-17.90162-21.48193 0-22.67538 7.16065-15.51473 83.54087 7.16065 70.41302 4.77376 83.54087-11.93441 90.70152-10.74097 3.58032-19.09506 21.48193-19.09506 39.38355-1.19344 16.70817-8.35408 44.15732-17.90161 60.86549s-16.70817 41.77043-17.90161 56.09173c0 23.86882-5.96721 27.44914-53.70485 27.44914-39.38355 0-53.70484 4.77376-53.70484 17.90161 0 9.54753 8.35409 17.90162 19.09505 17.90162 21.48194 0 101.44249 45.35076 114.57034 64.44581 4.77376 7.16065 9.54752 28.64258 9.54752 46.5442 0 17.90161 8.35409 35.80323 17.90162 39.38355 9.54753 4.77377 17.90161 17.90162 17.90161 29.83603 0 13.12785 8.35409 26.2557 17.90162 29.83602 9.54753 4.77377 17.90161 20.2885 17.90161 35.80323 0 16.70817-8.35408 32.22291-17.90161 35.80323-9.54753 4.77376-17.90162 17.90162-17.90162 29.83602 0 21.48194 7.16065 22.67538 83.54087 15.51474 70.41302-7.16065 83.54087-4.77377 90.70152 11.93441 4.77376 10.74097 20.2885 19.09505 40.57699 19.09505 19.09506 0 48.93108 8.35409 68.02614 16.70817 17.90161 9.5475 42.96387 20.2885 54.89828 23.8688 14.3213 4.7738 20.2885 19.0951 20.2885 54.89825 0 34.6098 4.77376 47.7377 17.90161 47.7377 9.54753 0 17.90162-7.1607 17.90162-15.5148 0-20.2885 47.73764-107.40965 64.44581-118.15059 7.16065-4.77376 27.44915-9.54753 44.15732-9.54753 17.90161 0 34.60979-8.35408 39.38355-17.90161 3.58032-9.54753 17.90162-17.90162 31.02947-17.90162s27.44914-8.35408 31.02946-17.90161c4.77377-9.54753 20.2885-17.90162 35.80323-17.90162 16.70818 0 32.22291 8.35409 35.80323 17.90162 4.77377 9.54753 17.90162 17.90161 29.83606 17.90161 21.4819 0 22.6754-5.9672 15.5147-79.96054-7.1607-63.25237-4.7738-81.15399 9.5475-91.89496 9.5476-7.16064 20.2885-29.83602 25.0623-48.93108 3.5803-20.2885 14.3212-57.28517 23.8688-83.54087 16.7081-44.15731 21.4819-47.73764 66.8327-51.31796 33.4163-2.38688 48.931-9.54753 48.931-21.48194 0-9.54753-8.354-16.70817-19.095-16.70817-21.482 0-101.4425-45.35076-114.5703-64.44581-4.7738-7.16065-9.5475-27.44915-9.5475-44.15732 0-17.90162-8.3541-34.60979-17.9016-39.38355-9.5476-3.58033-17.9017-17.90162-17.9017-31.02947s-8.3541-27.44914-17.90158-31.02946c-9.54753-4.77377-17.90161-20.2885-17.90161-35.80323 0-16.70818 8.35408-32.22291 17.90161-35.80323 9.54758-4.77377 17.90158-17.90162 17.90158-29.83603 0-21.48194-7.1606-22.67538-83.54083-15.51473-70.41302 7.16064-83.54087 4.77376-90.70152-11.93441-4.77376-11.93441-21.48194-19.09506-45.35076-19.09506-21.48193 0-48.93108-8.35408-62.05893-17.90161-11.93441-9.54753-34.60979-17.90162-48.93108-17.90162-23.86882 0-27.44914-5.9672-27.44914-52.51140187 0-63.25237213-19.09506-81.15398713-35.80323-34.60978813zm84.73431 194.53088c23.86882 0 50.12452 8.35409 58.47861 17.90162 8.35409 9.54752 26.2557 17.90161 40.57699 17.90161 29.83603 1.19344 59.67205 21.48194 70.41302 50.12452 3.58032 11.93441 13.12785 21.48194 20.2885 21.48194 5.9672 0 11.93441 7.16065 11.93441 16.70817 0 9.54753 8.35408 19.09506 17.90161 23.86882 9.54753 3.58033 17.90162 16.70818 17.90162 28.64259 0 13.12785 8.35408 29.83602 17.90161 38.19011s17.90162 22.67538 17.90162 31.02947c0 9.54752 7.16064 27.44914 14.32129 40.57699 11.9344 17.90161 11.9344 26.2557 0 38.19011-7.16065 7.16065-14.32129 31.02947-14.32129 52.5114 0 20.2885-8.35409 44.15732-17.90162 52.51141-9.54753 8.35408-17.90161 26.2557-17.90161 40.57699-1.19344 27.44914-26.25571 66.8327-44.15732 66.8327-5.9672 0-27.44914 15.51473-46.5442 35.80323-19.09505 19.09505-42.96387 35.80322-52.5114 35.80322-10.74097 0-25.06226 5.96721-33.41635 14.3213-20.2885 20.28849-96.66872 44.15731-105.02281 32.2229-3.58032-5.9672-26.2557-10.74097-51.31796-10.74097-26.2557 0-52.5114-7.16064-60.86549-17.90161-8.35409-9.54753-26.2557-17.90162-40.57699-17.90162-29.83603-1.19344-66.8327-26.2557-66.8327-46.54419 0-7.16065-8.35408-16.70818-17.90161-20.2885-9.54753-4.77376-17.90162-14.32129-17.90162-22.67538s-8.35408-17.90161-17.90161-22.67538c-9.54753-3.58032-17.90162-16.70817-17.90162-28.64258 0-13.12785-8.35408-29.83603-17.90161-38.19011-9.54753-8.35409-17.90162-22.67538-17.90162-31.02947 0-9.54753-7.16064-27.44914-14.32129-40.57699-11.93441-17.90162-11.93441-26.2557 0-38.19011 7.16065-7.16065 14.32129-31.02947 14.32129-52.51141 0-20.28849 8.35409-44.15731 17.90162-52.5114s17.90161-26.2557 17.90161-40.57699c1.19344-27.44915 26.25571-66.8327 44.15732-66.8327 5.9672 0 27.44914-15.51473 46.5442-35.80323 19.09505-19.09505 42.96387-35.80323 53.70484-35.80323 9.54753 0 23.86882-5.9672 32.22291-14.32129 21.48194-21.48194 90.70151-42.96388 103.82937-31.02947 5.9672 4.77377 31.02946 9.54753 54.89828 9.54753z" style="stroke-width:1.19344"/></svg>