<svg height="960" style="" width="1692" xmlns="http://www.w3.org/2000/svg"><path d="m1281.9633 342.067c-2.5128 8.1664-4.3973 72.8699-4.3973 143.8554 0 128.1505 3.7691 167.7264 15.0765 150.1372 3.141-5.0255 5.6538-19.4739 5.6538-32.6659 0-25.7558 13.1919-36.435 30.7812-24.4994 19.4739 13.8201 89.8311 45.8578 92.972 42.7169 1.8846-1.8846-.6281-6.9101-5.0255-11.9356-26.3839-26.3839-65.3317-76.0109-65.3317-82.2928 0-8.1664 103.6512-27.6403 157.0474-28.8967 20.7302-.6282 44.6014-3.141 53.396-5.6537 15.0765-4.3973 14.4484-5.0255-9.4228-12.5638-27.0121-7.5382-81.0364-16.3329-150.7654-23.8711-36.435-4.3974-43.9733-6.9102-46.4861-16.9612-1.2563-6.9101 1.8847-15.0765 6.2819-18.8456 11.3074-8.7947 55.9089-64.0754 55.9089-69.1009 0-8.1664-20.1021-2.5128-48.3706 13.8202-50.8833 29.5249-62.8189 33.294-67.2162 22.6148-1.8846-5.6537-3.7691-17.5893-3.7691-26.384 0-9.4228-2.5128-20.7302-5.6538-25.7557-4.3972-6.9101-6.9101-5.0256-10.6792 6.2819zm-883.86219-9.4229c-2.51276 2.5128-4.39732 13.8202-4.39732 25.1276 0 11.3075-1.88457 24.4994-3.76914 30.1531-4.39733 10.6792-16.33292 6.9101-67.21625-22.6148-28.8967-16.9611-48.37056-21.9866-48.37056-13.8202 0 5.6537 43.97324 60.3062 55.28064 69.1009 5.02552 3.7691 8.16646 11.9355 6.91008 18.8456-2.51275 10.051-10.05103 12.5638-46.486 16.9612-69.729 7.5382-123.75328 16.3329-150.76542 23.8711-23.87119 7.5383-24.49938 8.1665-9.42283 12.5638 8.79464 2.5127 32.66583 5.0255 53.39608 5.6537 53.39609 1.2564 157.04731 20.7303 157.04731 28.8967 0 6.2819-38.94773 55.9089-65.33168 82.2928-4.39732 5.0255-6.91008 10.051-5.02551 11.9356 3.14094 3.1409 73.49813-28.8968 92.97201-42.7169 17.58929-11.9356 30.78127-1.2564 30.78127 24.4994 0 13.192 2.51275 27.6404 5.6537 32.6659 11.30741 18.2174 15.70473-23.243 15.07654-158.3037 0-125.6379-3.76913-157.6755-16.33292-145.1118zm442.87342-319.748303c-3.141 9.42284-8.7946 31.40946-11.3074 48.9988-5.0255 27.6403-7.5383 31.4094-21.9866 33.294-15.0765 1.8845-18.2175-1.8846-27.6404-26.384-15.7047-40.83226-23.8712-37.06313-29.5249 15.0765-1.8845 13.192-12.5638 20.730303-64.7034 46.486103-50.8834 25.1276-70.9854 39.5759-109.9332 78.5236-44.6014 45.8579-62.8189 74.1264-96.7411 153.2782-13.192 30.7813-20.1021 145.7399-11.3074 192.8542 11.3074 61.5625 31.4094 108.0485 72.87 163.9573 47.7424 64.0753 118.7277 114.3305 200.3923 140.0862 6.91 2.5128 10.6792 10.051 10.6792 23.8712 0 11.3075 3.141 25.1276 6.282 30.1531 5.6536 8.1665 6.91 8.1665 12.5637 0 3.1409-5.0255 6.2819-12.5638 6.2819-16.3329 0-12.5639 23.8712-28.8967 36.4349-25.1276 12.5639 4.3973 19.4739 20.7302 20.1021 47.7424.6282 20.102 15.7048 47.7424 21.3584 38.9477 1.8846-3.7691 5.6538-23.8712 7.5383-44.6015 3.141-28.8966 6.9101-38.9476 15.7047-41.4604 18.8457-6.2819 34.5504 6.91 42.7169 34.5504 9.4228 31.4094 14.4484 28.2685 19.4739-10.6792 3.1409-31.4094 1.8845-30.1531 65.95977-59.0498 82.9211-37.6914 144.4836-96.7412 184.6876-177.7775 25.7558-51.5115 44.6016-126.8943 44.6016-176.5212 0-47.7424-22.6149-136.3171-45.2297-179.0339-35.1786-66.5882-113.7023-142.5991-174.6366-170.2393-73.49817-32.6659-72.24177-31.4096-75.38267-66.588103-4.3973-42.7169-10.0511-46.48604-19.4739-13.192-10.6792 35.8068-16.9611 43.9733-36.435 41.4605-15.0765-1.8846-16.3329-5.0255-21.3584-45.85783-5.6537-50.25512948-12.5637-61.56254-21.9866-36.43497zm-201.6488 266.352303c-44.6014 55.2807-58.4216 96.1129-57.7934 174.6366 0 51.5114-1.8846 63.4471-8.7946 63.4471-5.0255 0-9.4229-4.3973-9.4229-9.4229 0-5.0255-4.3972-9.4228-10.051-9.4228-11.3074 0-10.051 11.3074 5.0255 50.2552 53.3962 140.7143 198.5078 226.7762 339.2222 201.0205 25.1276-4.3973 52.1397-11.9356 59.678-16.3329 7.5383-5.0255 16.9611-8.7946 20.1021-8.7946 11.3074 0 65.95977-38.9478 87.31827-62.1908 54.0243-59.0498 101.7666-163.9574 74.1263-163.9574-5.6538 0-10.051 4.3973-10.051 9.4228 0 5.0256-3.7692 9.4229-8.7947 9.4229-7.5382 0-8.7946-8.1664-5.6537-42.7169 6.2819-79.1518-11.9356-138.2016-65.9599-206.6743-22.6148-29.5249-16.961-43.345 8.7947-19.4738 27.0122 24.4993 68.4726 82.2927 81.0363 111.8176 15.7048 37.0633 19.4739 41.4605 30.7814 32.0378 11.9355-10.0511 13.1919-6.282 22.6148 52.7678 6.9101 43.9732 6.9101 58.4216-1.8846 105.5358-14.4483 77.2673-41.4604 130.0352-95.4847 183.4312-70.9854 70.9854-147.62447 103.6513-245.62197 103.6513-70.9855 0-117.4714-13.192-189.085-52.7679-40.8323-22.6149-133.8043-132.5479-133.8043-157.6755 0-4.3973-5.0256-16.9611-10.6792-28.8967-8.1665-16.3329-10.6793-38.3195-11.3074-96.7412 0-90.4592 4.3973-112.4458 21.9866-106.7921 10.6792 3.1409 15.0766-1.2564 27.0121-26.384 28.8967-61.5625 57.1653-99.2539 91.7157-122.4968 28.2685-18.8458 25.7557-5.0256-5.0256 33.294zm261.955 62.8189c119.98397 54.0243 129.40687 206.046 16.3329 275.7751-28.8967 18.2175-104.2795 18.8456-138.2016 1.2563-70.3572-36.435-103.0231-124.3814-70.9855-193.4822 24.4994-54.0243 84.8056-95.4848 139.4581-96.113 13.1919-.6282 37.0632 5.0256 53.3961 12.5638z" style="stroke-width:.628189"/></svg>