<svg height="960" style="" width="1200" xmlns="http://www.w3.org/2000/svg"><path d="m600 0c-265.11 0-480 214.89-480 480s214.89 480 480 480 480-214.89 480-480c-.03-265.08-214.92-479.97-480-480zm0 94.86328c212.7 0 385.13673 172.43672 385.13673 385.13672-.24 212.61-172.49814 384.86673-385.07814 385.13673h-.05859c-212.7 0-385.13672-172.43673-385.13672-385.13673s172.43672-385.13672 385.13672-385.13672zm0 13.71094c-205.2 0-371.54297 166.40156-371.54297 371.60155 0 205.2 166.34297 371.54298 371.54297 371.54298s371.54298-166.34298 371.54298-371.54298v-.23436c-.36-205.02-166.46439-371.09719-371.48439-371.36719zm-2.51952 74.0625c2.37375-.60375 4.9875-.006 8.4375 2.75391 103.2 82.52 206.53812 164.85124 310.07811 247.03123 1.26 1.47 2.37984 3.12189 3.33984 4.92189l.0586.17577h-77.05077c-23.52 0-47.02689-.27-70.54689 0h-.82029c-7.5 0-14.35032-2.7342-19.57032-7.3242-47.31-37.98-95.01843-75.45189-142.14843-113.67189-7.86-6.39-12.62064-5.91561-20.39064.23439-47.19 38.16-94.80561 75.69609-142.26561 113.49609-4.8 3.84-9.27189 7.17843-16.17189 7.14843-49.85999-.27-99.72562 0-149.76562 0-.72-6.03 4.41563-7.125 7.26563-9.375h.0586c100.72-80.36001 201.52094-160.69609 302.46095-240.99609 2.505-1.995 4.6575-3.79078 7.03125-4.39453zm3.28125 317.16796c44.34 0 80.27343 35.93346 80.27343 80.27346 0 44.33997-35.93343 80.27343-80.27343 80.27343h-.29298v-.0586c-44.19-.18-79.92186-36.11205-79.92189-80.33205v-.29295-.0586-.70311c.66003-43.83 36.32487-79.10157 80.21487-79.10157zm193.00779 1.52346c43.86 0 79.39455 35.53452 79.39455 79.39452s-35.53455 79.39452-79.39455 79.39452h-.41016v.1758c-43.67997-.21-78.98436-35.71455-78.98436-79.39455v-.46875-.0586-.99609c.75-43.29 35.98452-78.04686 79.39452-78.04686zm-387.18749.64452c43.91999 0 79.51172 35.65032 79.51172 79.57032 0 43.35-34.7025 78.52311-77.8125 79.45311h-.0586v.11718c-.48 0-1.07063 0-1.64063 0-43.35 0-78.61172-34.64388-79.51172-77.75391v-.11718-3.39843c.93-43.2 36.19172-77.87109 79.51172-77.87109z" style="stroke-width:30"/></svg>