<svg height="960" style="" width="1274" xmlns="http://www.w3.org/2000/svg"><path d="m462.53849-29.99553c-5.2097.1478-9.1315 3.9476-10.6051 10.7019-.7145 3.2153-1.9661 5.8952-3.0379 5.8952s-6.0719-3.2142-11.0735-6.9654c-9.4672-7.3237-19.2918-10.3623-26.0796-8.2187-3.9298 1.2504-10.7176 14.291-10.7176 20.5429 0 6.6092-4.2865 8.57370002-15.54 6.7875-13.397-1.9649-26.2587-.1783-30.0098 3.9301-2.6794 2.858-2.6785 4.2872-.8923 10.0033 3.0367 8.7527 12.6804 25.0063 19.2896 32.5086 6.0733 6.7878 23.4003 20.0066 26.0797 20.0066 1.0717 0 8.2187-3.2143 16.2569-6.9654 28.4017-13.9329 45.7265-21.6132 48.0487-21.6132 1.429 0 6.4318-1.0724 11.076-2.5014 4.823-1.429 13.7546-3.7512 20.0066-5.3588 6.0733-1.6077 15.7191-4.1097 21.4352-5.7173 13.0397-3.5725 25.9008-1.7859 26.794 3.9301.8931 5.8947-14.4698 32.5118-25.1874 43.765297-2.5008 2.5008-14.4688 9.6446-26.794 15.7179l-22.1496 11.254-1.0701 16.254403c-.3573 8.9313 0 18.398.8922 20.8988.8932 2.3221 6.6094 9.6458 12.6827 16.0764 13.397 14.2901 76.0937 79.8459 80.0235 83.7757 5.7161 5.7161 27.1509 33.2246 33.5815 42.8704 14.6474 22.6856 24.4739 43.5849 28.9396 61.6262 1.6076 6.2519 1.2502 7.6829-4.6445 16.2569-3.3939 5.1802-6.2537 10.718-6.2537 11.9684 0 1.429-1.0705 3.9284-2.3209 5.7146-2.1435 3.0367-2.8591 2.8576-9.111-3.2158-3.7512-3.3939-9.6453-7.3242-12.8606-8.5746-4.4657-1.6076-7.1452-4.2858-10.0033-10.3591-2.1435-4.4657-7.8597-11.7899-12.6826-16.6128-6.7878-6.6092-9.8229-8.3941-14.4672-8.3941h-5.8952l-1.0728-13.397c-2.3222-26.794-13.2179-37.8695-39.6546-40.013l-12.5048-1.0728.5364-11.6099c.7145-14.826-6.0717-42.8716-11.7877-48.5877-3.5726-3.5725-21.2577 7.1458-35.9051 21.2573-7.145 7.1451-13.3963 13.0411-13.5749 13.0411-.3572 0-1.0726-4.6456-1.7871-10.3617-2.6794-23.2215-12.3261-43.2263-20.543-43.2263-3.3939 0-13.7525 10.7164-23.2197 23.7562-8.2168 11.4321-10.539 8.5751-5.3588-6.9654 3.3939-10.0031 6.0723-14.1131 15.0036-23.0444 6.0733-5.8947 17.3278-14.6465 25.1874-19.6481 7.8596-4.8229 15.3598-9.8257 16.6102-11.0761 1.2504-1.2503 3.7512-3.2135 5.3588-4.4639 6.0733-4.4657 14.1133-16.7904 16.9713-26.2576 3.0366-9.8245 3.0349-9.825-.8949-13.9334-3.9298-3.7511-4.4634-3.9294-9.2863-1.4287-2.6794 1.4291-6.6104 2.6794-8.3967 2.6794-1.9649 0-5.5381 1.2497-7.8603 2.8574-2.6794 1.6076-5.7155 2.3211-7.5018 1.6066-2.6794-1.0718-2.1423-1.7846 3.0379-4.464 3.3939-1.9649 7.5015-3.9299 8.9305-4.6444 6.6092-2.8581 38.7628-18.933903 41.9781-20.898803 29.2948-18.041297 35.7233-23.402597 46.0836-38.228597 6.9664-9.8244 8.9336-20.1844 4.1107-20.1844-1.429 0-3.2163.7153-3.7522 1.7871-.5359.8932-3.2158 1.7871-5.8952 1.7871-4.1084 0-15.0041 2.8581-42.334 10.7176-19.2917 5.5375-73.5937 29.650897-101.2808 45.191397-5.5374 3.2153-13.5772 7.5032-17.6856 9.8253-48.0506 26.436703-112.8921 82.347303-144.68759 124.503103-16.255 21.6139-38.9406 60.9103-48.2292 83.4173-1.9649 5.1802-4.8228 11.789-6.0731 14.8257-2.3222 5.1801-5.3569 13.3982-10.5371 27.1524-6.2519 17.3268-15.0046 50.5519-21.4352 80.9184-7.5023 36.6185-8.9331 53.0504-8.9331 116.9987-.1786 66.985 0 68.0587 10.3618 96.639 14.1115 39.1192 70.7361 107.8905 99.13779 120.573 11.0748 4.8229 40.0104 4.8229 50.728 0 14.6474-6.6092 21.614-17.6842 23.4003-36.7973 3.5725-36.4398 18.2197-57.6962 51.6229-75.7375 10.7176-5.7161 15.7216-7.6811 38.2286-15.3621 33.2245-11.0748 52.3365-23.2218 73.9503-46.8005 14.1115-15.5405 21.9701-20.1845 33.7594-20.1845 8.9314 0 11.2539.8914 20.0066 7.1433 12.5038 8.9314 16.0774 17.8645 17.1492 43.7653 1.429 36.7971-12.148 75.737-29.1176 83.2394-8.9313 3.9297-38.4045 24.114-46.2641 31.6163-8.3954 8.2169-24.6508 30.9018-30.7241 43.0484-.7145 1.429-4.8221 7.8594-8.9305 14.1113-4.1084 6.4306-10.1824 17.6851-13.2191 25.1874-6.6092 15.5405-10.5391 24.8305-12.6826 29.1176-7.8596 15.8977-10.8959 36.7953-6.7875 44.6549 3.5725 6.6092 4.1102 30.1896.8949 41.0859-4.1084 14.2901-3.5748 30.7223 1.2481 40.54682 8.2168 16.4337 23.9374 23.2225 39.8351 17.1492 8.3955-3.2153 9.6459-6.7892 2.6794-7.6823-2.1435-.3573-4.8234-2.501-5.8952-4.6445-1.429-3.3939-.8931-5.53792 2.6794-11.25402 5.7161-8.9313 31.4375-32.508 35.7245-32.6866 4.1084 0 3.9317 1.4276-2.4988 13.7529-6.252 12.1466-8.2169 23.2209-5.3588 28.93702 1.7862 3.0366 2.6787 3.394 5.5367 1.965 1.9649-1.0717 3.5716-3.0349 3.5716-4.4639s4.6457-8.03852 10.3618-14.64772c5.716-6.7878 14.1115-17.1497 18.7558-23.0444 7.6809-10.1817 24.8277-23.9341 29.8292-23.9341 1.2504 0 5.18-2.3235 8.7526-5.0029 6.7878-5.3588 39.2998-27.1499 40.3715-27.1499.3573 0 8.5736-4.6457 18.2194-10.3617 9.6459-5.7161 18.7555-10.8954 20.1845-11.6099s5.1802-2.6803 8.0382-4.4665c27.6871-16.7909 66.6277-35.5453 112.5348-53.9439 7.8596-3.0366 15.7188-6.4307 17.505-7.3238 4.2871-2.3222 6.0747 2.8562 2.3236 7.1433-1.6077 1.7862-2.86 3.9319-2.86 4.825s-3.5706 8.7516-7.8576 17.683c-12.5039 25.365-13.5776 30.7239-13.5776 68.95v33.5815l4.6445 3.5717c2.6794 2.1435 8.9319 5.0019 13.9334 6.6095 31.6169 9.8245 90.0285-.5355 128.4333-22.8639 4.6443-2.6794 8.9316-5.0003 9.2889-5.0003 1.7863 0 37.6887-25.365 49.2994-34.8322 21.0779-16.9695 82.17021-79.3104 96.63891-98.4234 13.5757-17.8627 28.2208-38.9405 30.7216-43.5848 3.3939-6.9664 11.79-19.6489 15.8984-24.1146 1.9649-1.9649 4.1098-5.181 5.003-7.1459.8931-1.9649 3.214-6.0724 5.0003-8.9305 4.287-6.6092 29.1172-56.2682 33.2256-66.0927 10.8962-26.6154 22.3287-75.0241 28.0447-119.6808 8.5741-66.4491-5.0027-162.9066-32.5113-231.3206-7.8595-19.2917-25.7211-56.2667-33.7593-69.8423-1.9649-3.3939-5.718-10.1833-8.2188-15.0062-2.5008-5.0016-6.2519-11.4313-8.0382-14.2893-1.9649-3.0366-4.1079-6.6092-4.8224-8.0382-4.1084-7.8596-15.005-22.863-17.3271-23.7561-4.1084-1.6077-4.4639 1.9628-1.7845 19.2896 1.2504 8.9313 2.4988 18.7556 2.4988 22.1495 0 11.968 11.7892 53.7673 19.4702 69.4865.7145 1.6076 2.6809 5.895 4.2886 9.2889 7.3237 16.9696 10.7172 23.2208 12.1462 24.2925.8931.5359 1.6066 2.6789 1.6066 4.8224 0 2.1436 1.2504 5.5376 2.6794 7.3239 3.0367 3.9298 3.5736 10.0033 1.0728 10.0033-.8931 0-2.4999-2.1423-3.5716-5.0004-3.3939-8.2168-6.7896-13.0404-14.2919-21.2572-6.4306-6.7879-8.2151-7.6798-15.1815-7.6798-6.4306 0-8.3974.8934-10.8982 4.6445-2.858 4.4657-2.8566 5.1798 2.3236 17.5051 10.3603 24.8291 15.0049 48.5847 20.0065 103.6017 1.6076 18.2199.534 40.7279-2.8599 60.0196-2.6794 14.2901-5.714 9.2882-5.8926-9.289-.1787-15.0046-7.325-54.3012-13.7555-74.6647-10.3604-33.939-11.9677-37.8685-17.5051-44.299-6.0733-6.9665-15.3612-4.2871-18.9337 5.3588-3.3939 9.4672-6.9673 38.4035-7.1459 55.9089 0 18.7558 2.6785 49.301 6.251 69.6644 1.429 7.8596 3.0377 23.3996 3.7522 34.2958 1.2504 21.2566.3567 23.9365-5.8952 16.6128-6.43061-7.5023-15.36271-2.3211-20.54291 11.7904-2.3222 6.7878-4.4648 7.6803-6.2511 2.8573-5.1802-13.5756-15.1824-16.7917-22.3274-7.1459-8.0382 11.0748-15.7206 31.9754-15.7206 43.2289 0 5.8947-2.5011 11.4312-3.9301 8.9304-.5359-.8931-1.6071-4.8227-2.143-8.7525-3.0367-16.0764-15.004-40.0124-18.9337-37.5116-.7145.5359-1.4287 18.3973-1.4287 39.8325-.1786 24.6505-.8926 40.9078-2.143 44.3017-1.2504 2.858-2.8598 9.1098-3.5743 14.1113-2.5008 16.4337-10.7158 36.2591-28.5785 70.1982-6.0733 11.2535-18.0422 27.6884-25.9017 35.1907-15.3619 14.826-23.2225 21.256-41.2638 34.2958-7.1451 5.3588-36.6173 20.1844-39.8326 20.1844-1.0717 0-1.965-1.4288-1.965-3.3937 0-2.3221 3.0354-4.6424 10.3591-7.8576 15.1833-6.9665 30.1881-15.8999 39.4767-23.5809 29.652-24.2932 47.3381-44.2976 58.413-66.0901 4.1084-8.2168 5.7162-11.2535 10.0032-18.7558.7145-1.429 1.963-3.9298 2.4989-5.3588s2.1453-5.0029 3.5743-7.6823c1.2504-2.858 2.4988-6.7883 2.4988-8.5746 0-1.9649.8933-5.359 1.9651-7.3239 1.0717-1.9649 2.6792-7.859 3.3937-12.8606.8931-5.0015 2.322-12.3245 3.3938-16.2543 1.0717-3.9298 1.965-24.471 1.965-46.4421 0-38.2261-.7127-47.3366-7.1433-75.5596-3.3939-15.0046-1.9664-21.9721 6.429-30.5462 10.3603-10.3603 16.4356-29.4739 18.9363-59.4832 2.8581-32.6887-.18-53.7657-10.3617-73.236-1.429-2.6794-4.1089-10.7166-5.8952-17.683-2.3222-9.4672-4.8214-14.4688-9.1084-18.7558l-5.7173-5.8952h-23.7561c-13.2184.1786-24.6501-.3564-25.5433-.8923-.8931-.5359-2.1435-18.3999-2.6794-39.8351-.5358-21.4352-1.9661-46.264-3.0378-55.0167-6.0733-50.1941-10.8959-78.7735-17.5051-105.388903-2.3221-9.824397-4.645-20.364297-5.1809-23.222297-.5359-3.0367-3.2151-9.8246-6.0731-15.3621-2.858-5.5374-5.1809-11.0737-5.1809-12.3242 0-1.2503-1.965-5.0027-4.6444-8.3966-7.3237-9.6459-14.29-7.6806-24.829 6.6095-3.5725 4.8229-7.8592 8.9305-9.4668 8.9305-4.1084-.1787-13.3969-8.5723-16.7908-15.1816-1.6076-3.0366-6.2507-12.3266-10.3591-21.0793-8.2168-17.3268-14.8258-26.2576-19.4701-26.2576-9.8245 0-16.257 22.1487-16.257 55.1946 0 13.7543-.7127 21.6157-1.7845 21.6157s-3.9315-1.2523-6.2537-2.8599c-4.1084-2.6794-4.8208-2.6787-8.5719-.1779-2.3222 1.429-5.8954 6.9661-7.8603 12.1462-1.9649 5.1802-4.4657 9.8247-5.3588 10.0033-2.858 1.0718-25.3664-20.5405-29.1176-27.8642-8.9313-17.5054-25.7213-34.2986-41.0832-41.6223-14.1115-6.6091-29.116-12.1462-32.8672-12.1462-7.3237 0-8.9325 4.1096-5.7172 13.7554 1.6076 4.4657 2.8599 8.9322 2.8599 9.8254 0 2.3221-6.0735-1.4313-15.362-9.4695-10.7176-9.2886-19.115-14.4668-29.654-18.5753-8.2168-3.0366-8.573-3.038-15.0036.3559-5.1802 2.6794-7.1449 5.1809-8.7525 10.5397l-1.9651 6.9654-12.8606-12.5022c-7.145-6.7877-13.9344-12.863-15.0062-13.5775-2.791-1.5072-5.4242-2.1945-7.7922-2.1273zm287.3002 284.7543c3.5434-.05 6.451 1.7023 9.8672 5.3195 3.0366 3.394 9.4686 6.9675 15.7205 9.111 13.397 4.4657 17.5041 8.3951 24.4705 22.8639 6.4306 13.7543 7.8609 26.7928 5.0029 45.1913-1.0717 7.1451-3.0375 23.9367-4.4665 37.3337-3.3939 32.51-10.1819 46.6216-20.7209 42.8704-4.6443-1.6076-10.7176-8.038-10.7176-11.4319 0-1.6077-1.0698-6.2528-2.4988-9.8254-1.429-3.7511-3.7531-13.2171-5.5394-21.0767-1.6076-7.8596-4.1084-17.149-5.3588-20.5429-1.2504-3.394-2.8578-7.5015-3.3937-8.9305s-2.144-4.2862-3.2158-6.2511c-10.8962-16.7909-17.5051-29.8308-17.5051-34.1178 0-4.2871-5.8932-15.0062-8.394-15.0062-1.2504 0-2.3236 1.7866-2.3236 3.9301 0 2.3221-.7127 5.3584-1.7845 6.7875-2.5008 4.1084-4.4672-2.5012-4.2886-14.6478.1786-8.574 1.0723-11.2512 5.8952-17.3245 3.2153-4.1084 7.324-7.3239 9.2889-7.3239 1.7863 0 6.4308-1.6093 10.0033-3.5742 4.0638-2.1882 7.2028-3.316 9.9588-3.3545zm-4.7204 24.842c-1.7202.06-2.9175 1.1532-2.9175 3.3414 0 1.7863 1.0725 4.287 2.5015 5.3588 1.429 1.2504 4.466 6.6095 6.6095 11.9683 3.2153 7.681 4.8223 9.6474 8.2162 9.6474 2.3221 0 4.108-1.0724 4.108-2.5014 0-3.5726-6.6092-17.683-10.7176-23.0418-2.5119-3.2153-5.5884-4.8496-7.8001-4.7727zm29.0574 5.3065c-3.0366 0-3.0375.5379.8923 7.5044 2.3221 4.287 5.5376 13.0389 7.3238 19.648 3.7512 14.2902 8.0382 16.6113 8.0382 4.286 0-7.8595-3.3929-17.3248-9.6448-26.6134-1.7862-2.6794-4.8232-4.825-6.6095-4.825zm81.9546.7954c2.3654-.094 3.1617 1.8186 3.6083 6.1726.5359 4.8229-.7147 6.9645-7.3239 13.2164-8.7527 8.2169-14.4689 20.3647-12.6827 27.1525.7145 3.2153.3583 4.4665-1.6066 4.4665-3.5725 0-4.825-3.9299-4.825-15.362 0-12.5039 8.396-29.2951 16.6128-33.4036 2.8134-1.4066 4.7978-2.1859 6.2171-2.2424zm22.6048 1.2848c2.5896.1605 5.442 2.4088 9.7625 7.0308 5.0016 5.3588 7.1444 6.7885 8.2162 5.1808.8931-1.429.1777-3.2173-1.7872-4.825-2.5008-1.7862-2.8584-2.8562-1.2507-4.4639 3.5725-3.5725 9.1103 5.3571 9.2889 15.1815 0 4.6443.7154 9.8262 1.7872 11.6125 5.716 10.0031 14.2892 41.7988 14.2892 52.8737 0 11.2535-6.0712 49.2995-8.572 53.9438-1.0717 1.7863-3.3939 7.3253-5.3588 12.3268-1.9649 4.823-4.4656 9.1096-5.3588 9.4669-1.7862.5359-7.5044-14.1113-7.5044-19.4701 0-1.7863-1.4276-6.0749-3.0352-9.6474-2.5008-5.1802-2.6812-7.1434-.8949-9.8228 1.2504-1.9649 2.1456-8.9334 2.1456-15.5426 0-11.2535-.8942-15.8953-6.4316-31.4358-1.429-3.5726-2.5015-12.505-2.5015-19.8286 0-10.7176-.7148-13.9324-3.9301-18.2194-2.1435-2.8581-4.4645-5.5373-5.0003-6.0732-.5359-.5358-2.1434-3.5728-3.3938-6.6095-2.6794-6.7878-1.4292-13.577 3.3938-18.3999 2.2663-2.2664 4.1217-3.4035 6.1359-3.2786zm-19.2974 30.3133c.3199.011.6579.051 1.0152.1177 5.7161.7146 6.0724 5.5361.8923 11.0735-7.5024 8.0382-10.8966 4.2881-6.6096-6.9654 1.0941-2.9697 2.4626-4.299 4.7021-4.2258zm8.64 13.97c1.7167.1559 2.7343 2.8945 2.7343 8.1193 0 4.4657 1.2504 11.0752 2.6794 14.6478 1.429 3.3939 2.6794 7.8578 2.6794 9.8227 0 1.7863 1.2523 5.8964 2.86 8.9331 1.7862 3.3939 2.3211 7.1445 1.6066 10.1812l-1.2508 4.6444-1.7871-4.4665c-1.0718-2.5008-4.1081-8.9324-6.7875-14.4698-2.858-5.5374-6.25-14.288-7.8576-19.2896-2.5008-8.5741-2.5008-9.8257 0-13.7555 2.0318-3.0478 3.788-4.4883 5.1233-4.3671zm-134.4044 187.6156c.7274.025 1.5396.6023 2.2765 1.808 2.3221 3.5726 15.1844 8.9331 21.7936 8.9331 4.2871 0 9.2867-1.6085 13.2165-4.4665 3.5725-2.3221 6.9678-3.7517 7.6823-3.2158 5.3588 5.5374-9.1101 18.3999-20.7208 18.3999-11.968 0-26.4382-9.4675-26.4382-17.3271 0-2.6794.9778-4.1735 2.1901-4.1316zm139.5957 5.5969c.9315-.1186 2.2983 1.1234 5.7592 4.2493 2.6794 2.5008 6.966 5.0028 9.4668 5.7173 6.6092 1.429 9.111 3.9289 9.111 8.9305 0 5.8947-4.2877 6.9671-10.5396 2.5015-7.1451-5.1802-16.7911-17.5065-15.3621-19.8287.6029-.9377 1.0058-1.4987 1.5647-1.5699zm-58.761 41.1539c1.5525.037 4.4116 2.4387 11.1101 8.4673 6.6092 6.0733 11.7899 9.1082 16.6128 9.8227 7.3237 1.0718 17.3287-.1786 18.9363-2.6794 1.7863-3.0366 4.286-1.6076 4.286 2.6794 0 2.8581-2.3225 6.2529-6.6095 9.8254-8.3955 6.9664-16.7911 7.3247-26.0797 1.0728-8.0382-5.5374-21.6134-23.402-20.1844-26.9746.5358-1.4066.9969-2.2356 1.9284-2.2136zm-116.5356 33.639c2.0985-.122 5.0431.5059 5.8246 1.6223 1.2504 2.3222 10.1815 6.6097 22.1495 11.254 8.2168 3.0367 12.3249 3.5726 25.5433 2.6794 13.9328-.8931 15.7179-.7143 15.7179 1.9651 0 4.287-13.2177 9.2863-24.2925 9.2863-16.0764 0-35.9045-8.9292-43.4068-19.2896-2.1435-3.0366-3.7496-5.8957-3.7496-6.4316 0-.6698.9545-1.0126 2.2136-1.0859zm159.7566 34.199c1.1164.1116 2.8118 1.1848 5.7592 3.3283 2.6794 1.7863 8.9325 5.0012 13.7554 6.7875 5.8947 2.3221 8.7526 4.466 8.7526 6.6095 0 9.8245-16.9705 6.9656-25.9018-4.4665-3.2153-4.1084-5.1803-8.3963-4.6444-9.8254.6252-1.6969 1.1626-2.545 2.279-2.4334zm-311.352 23.9c.4239-.065.8755.5035 1.4784 1.5752 3.2153 5.8947-.7161 34.6547-6.968 51.9814-6.252 16.6123-10.0012 21.9711-26.6135 37.5116-41.9772 39.2979-49.6582 48.2285-61.6262 72.5218-5.1802 10.1817-5.5393 12.5038-5.5393 29.4734.1786 10.1817-.5356 18.9342-1.4287 19.4701-2.6794 1.6076-8.9305-15.0041-8.9305-23.5782 0-9.4672 5.5369-26.6142 12.8606-39.8325 12.5039-22.507 25.9007-37.6915 59.6612-67.3435 15.8977-13.9329 24.1144-29.6525 30.1877-56.8038 1.2504-5.8947 3.2161-14.2901 4.4665-18.7558 1.1165-4.2424 1.7453-6.1115 2.4518-6.2197zm227.4062 1.0912c1.9385.032 5.1704 2.8859 12.5388 10.1314 11.4321 11.0749 19.2927 14.6478 33.2256 14.6478 8.7527 0 10.8948 1.429 8.394 5.3588-1.2504 1.9649-5.5353 2.6794-16.6102 2.6794-14.2901 0-15.1841-.1778-23.2223-6.2511-8.3954-6.2519-18.3998-21.7942-16.4349-25.0095.614-1.0047 1.2279-1.5714 2.109-1.5568zm-87.8001 21.4744c1.2612.1099 3.2996 2.0096 7.9885 6.6985 11.0749 11.0749 19.4703 14.4672 34.8322 14.4672 7.1451 0 13.5748.7161 14.2893 1.6092.5359.8932-1.2488 3.3939-3.7496 5.3588-10.0031 7.8596-34.8322 3.3946-45.5498-8.2161-5.8947-6.252-11.0764-16.0778-9.6474-18.4.6029-1.0047 1.0801-1.5835 1.8368-1.5176zm116.5958 49.9614c1.8404-.1866 4.3523 1.5717 7.1433 5.1442 4.8229 6.252 4.6431 13.397-.3584 13.397-3.9298 0-10.8966-11.9679-9.289-16.0764.5359-1.5406 1.3999-2.3528 2.5041-2.4648zm-175.6812 3.1792c14.6027.045 30.5456 1.2495 39.3877 3.5716 23.2214 6.252 35.0103 15.1838 39.6546 30.0098 2.6794 8.7527 2.678 10.5401.3558 19.8286l-2.6794 10.1812-17.683 7.6824c-26.794 11.6107-43.0495 19.6482-59.4832 29.6513-8.2168 5.0016-16.2559 10.0024-17.8635 10.8955-1.6077 1.0718-13.3965 8.7538-26.2576 17.1492-12.6825 8.3955-24.4701 15.8964-25.8991 16.4323-1.429.7145-5.0016 2.8575-8.0382 4.8224-2.8581 1.9649-6.9682 4.287-8.9331 5.3588-3.7512 1.9649-4.6434 2.5025-19.6481 11.6125-7.5023 4.4656-11.6098 5.5377-25.0068 6.6095-8.7527.5359-28.582 2.1414-43.7653 3.2132-41.62 3.2153-41.7974 3.2167-45.1913 2.3235-6.6092-1.7862-1.607-5.0022 7.8602-5.1808 31.617-.3573 63.4125-8.9314 80.382-21.4352 8.9314-6.6092 28.4006-26.972 28.4006-29.6514 0-.8931 1.9639-4.2872 4.286-7.3238 3.7512-5.1802 6.4311-10.5394 19.2922-38.7624 5.0016-11.0748 15.5407-32.3322 18.0415-36.6193 12.5039-20.8993 19.2919-28.937 31.4385-36.9752 3.4832-2.3221 16.7467-3.4384 31.3495-3.3937zm-143.17 62.699c2.3222 0 1.2514 7.6802-1.6066 10.8955-2.6794 2.858-2.5008 4.1081 2.6794 14.8257 6.252 13.397 6.9645 20.5419 2.4989 27.5083-7.8596 12.5039-17.148 16.9699-24.829 11.9683-3.9297-2.5007-4.286-3.9284-4.286-16.4322 0-11.968.7139-14.8281 5.5368-23.5808 3.2153-5.5375 8.5737-13.3967 12.1462-17.5051 3.5726-4.1084 6.9672-7.5011 7.8603-7.6797zm-7.6797 23.2197c-3.2153 0-7.146 3.3937-7.146 6.0731 0 .8932-1.2504 3.0369-2.6794 4.6445-3.3939 3.7512-1.9638 7.861 3.7522 10.3617 5.1802 2.5008 5.7159 8.3941.7144 11.0735-3.3939 1.7863-3.3939 5.3588 0 5.3588 3.2153 0 14.2892-13.0396 14.2892-16.7907 0-2.1436-1.4302-7.5013-3.0378-12.3242-1.9649-5.1802-4.1064-8.3967-5.8926-8.3967zm-62.5211 105.3915c2.3221 0 2.3241 10.1808.1805 11.6098-1.0717.5359-2.3233 4.6454-3.0378 9.111-.7145 4.6443-1.9654 7.6812-3.2158 7.3239-3.3939-1.0718-3.2155-10.898.7143-19.6507 2.1435-4.6443 4.4657-8.394 5.3588-8.394z" style=""/></svg>