<svg height="960" style="" width="1348" xmlns="http://www.w3.org/2000/svg"><path d="m1192.3372 640.04784c-6.2495 7.8119-10.9367 17.7069-10.9367 22.3941 0 5.2079-3.6455 13.5406-7.8119 19.2693-4.1663 5.2079-7.8118 13.5406-7.8118 18.2277 0 4.6872-3.6456 11.4575-7.8119 15.103-4.1664 3.6455-7.8119 9.8951-7.8119 13.5406 0 12.499-63.5368 100.5129-98.4299 136.9684-45.3089 46.3505-92.70095 81.76435-144.78015 107.28325-22.9149 11.4574-37.4971 26.03961-31.2476 31.76821 4.6872 4.6873 86.9724-33.33071 103.1169-47.91291 4.1664-4.1663 9.8951-7.291 12.499-7.291 13.01975 0 101.03365-84.88915 134.88525-130.19805 27.0812-36.4555 30.206-41.6634 51.5585-85.9308 29.6851-61.9743 34.8931-75.5149 34.8931-91.1386 0-19.2693-6.2495-19.7901-20.3109-2.0832zm-1057.20849 21.3525c0 29.1644 2.60396 40.101 15.62377 61.4535 8.33268 14.0614 17.18615 30.7267 19.79011 36.4554 5.72872 12.4991 26.56041 35.4139 29.68516 32.2892 1.04159-1.0416-3.64554-13.5406-10.41584-28.1228-7.2911-14.0614-16.66536-38.0179-21.87328-53.1208-4.68713-14.5822-10.41585-28.1228-13.01981-29.6852s-4.68713-10.4158-4.68713-20.3109c0-20.3109-4.16634-33.8515-10.93664-33.8515-2.60396 0-4.68713 15.6238-4.16634 34.8931zm1067.10349-330.1823c0 3.6455 2.604 9.3742 5.7287 12.499 5.208 5.2079 8.3327 188.006 3.6456 217.6912-1.0416 6.2495 2.0831 10.9366 7.8119 11.9782 8.3326 1.5624 8.8534-6.2495 8.8534-108.3248 0-94.7842-1.0416-112.4912-8.8534-125.511-9.3743-16.1445-17.1862-19.7901-17.1862-8.3326zm-18.2277-73.4318c-5.2079 13.5406 1.0416 28.6436 8.8535 20.8317 4.1663-4.1663 4.1663-9.3742.5207-17.7069-5.2079-10.9366-6.2495-10.9366-9.3742-3.1248zm-280.18635 346.3269c-5.2079 4.6872-4.6871 11.9783 1.0416 11.9783 2.604 0 5.7287-3.6456 7.8119-7.8119 2.604-7.8119-2.604-10.4159-8.8535-4.1664zm15.6238-26.0396c-6.2495 5.7287-4.1663 11.9782 4.1663 11.9782 4.1664 0 7.8119-3.6455 7.8119-7.8118 0-8.3327-6.2495-10.4159-11.9782-4.1664zm-144.2595-344.2437c0 2.0832 7.8119 10.9366 17.1862 20.3109 26.0396 26.0396 37.497 40.6218 48.9544 63.0159 23.4357 44.2673 29.1644 63.5366 24.9981 83.3267-2.604 14.5822-4.6872 17.707-8.3327 11.9783-2.604-4.1664-4.6871-14.5822-4.6871-23.4357s-3.6456-19.2693-7.8119-22.9149c-4.1664-3.6455-7.8119-9.3742-7.8119-13.0198 0-8.3326-56.7664-70.3069-69.7862-76.0356-6.2495-2.604-14.5822-6.7703-18.7485-8.8535-27.0812-15.6238-38.0178-19.2693-74.9941-24.998-46.3505-7.8119-124.4694-1.0416-139.0515 11.4574-4.1664 4.1663-12.4991 7.2911-18.2278 7.2911-5.2079 0-13.0198 2.0832-16.6653 4.6871-5.7287 3.1248-5.2079 5.2079 2.0831 7.8119 4.6872 1.5624 14.0614 0 20.8317-4.6871 8.8535-5.7287 26.5604-7.8119 66.6615-7.8119 29.6851 0 58.3287 1.5624 63.0158 3.1247 15.103 6.2495-2.6039 12.4991-34.3723 12.4991-40.101 0-85.4099 14.5821-139.0515 44.2673-17.707 9.8951-47.9129 37.497-47.9129 43.7466 0 7.291 11.9782 7.291 19.2693 0 3.1248-3.1248 9.8951-4.6872 15.103-3.6456 7.2911 1.0416 5.2079 5.2079-11.4574 22.3941-51.0377 51.0376-67.1823 122.3862-44.2674 194.2555 17.1862 53.6416 41.6634 89.0555 88.5347 127.5941 13.0198 10.9367 18.7485 13.0198 24.4772 8.8535 7.8119-7.2911 4.6872-18.7485-10.9366-36.4555-17.7069-20.3109-33.8515-49.4752-33.8515-61.9743 0-15.6237 8.8535-13.5406 17.7069 4.1664 8.8535 17.1861 49.9961 54.6832 73.4318 67.1822 40.101 21.3525 66.6614 27.0812 127.5941 27.0812 63.5366 0 79.1604-4.1663 68.7446-17.1861-9.3743-11.4575-1.5624-14.5822 15.6237-5.7288 14.5822 7.8119 24.9981 6.2495 24.9981-3.6455 0-2.604-3.6456-4.6871-7.8119-4.6871-11.4575 0-30.7268-18.7486-26.0396-25.5189 1.5623-3.1247 6.7703-5.7287 10.9366-5.7287 22.9149 0 86.9723-56.7663 106.2416-93.2218 11.4575-22.3941 26.5604-94.7842 23.4357-110.408-4.1664-18.7485-13.0198-14.5822-13.0198 5.7287 0 8.3327-2.0832 16.1446-4.6872 17.707-2.0831 1.5624-5.7287-21.3525-7.291-51.0377-2.604-48.4337-9.3743-74.9941-24.9981-102.0753-2.6039-4.1663-7.2911-13.5406-9.895-19.7901-11.4575-26.5604-78.1189-82.2852-78.1189-65.6198zm-192.6931-224.46149c-65.6199 10.41585-131.7605 35.4139-178.6318 67.1822-10.9366 7.2911-21.3525 13.540593-23.9564 13.540593-8.8535 0-71.8694 67.182197-82.806 88.534697-6.2495 13.0198-13.5406 27.0812-16.1446 31.2475-16.1446 29.1644-21.3525 41.6634-21.3525 50.5169 0 5.2079-2.0831 13.0198-5.2079 17.1862-3.6455 5.7287-5.7287 4.6871-9.8951-6.7703-5.7287-15.6238-16.1445-14.5822-16.1445 1.0415 0 4.6872-2.60397 11.4575-6.24952 15.103-7.29109 7.2911-17.18615 34.3723-30.72675 84.3684-13.01981 51.0376-14.58218 182.7981-2.08317 218.2119 4.16634 12.4991 7.81189 27.602 8.33268 33.8515 0 5.7288 8.85347 27.0812 19.26932 47.3921 18.74854 34.8931 61.97424 77.5981 92.18024 91.6595 5.7287 2.604 14.0614 6.7703 18.2277 9.3743 4.1664 2.6039 20.8317 10.4158 36.4555 17.7069 27.602 12.499 28.1228 13.5406 14.5822 16.6654-7.8119 2.0831-26.0396 1.0415-40.6218-2.604-14.5822-3.6456-28.1228-5.2079-29.6852-3.1248-4.1663 3.6456 73.9525 80.2021 89.0555 86.9724 5.7287 2.6039 18.2277 9.3742 26.5604 15.1029 8.8535 5.7287 19.2693 11.9783 23.4357 13.5406 4.1663 1.5624 15.1029 6.2495 23.4356 9.89515 65.6198 28.1228 168.7367 36.9762 273.416 23.4356 76.0357-9.895 101.5545-22.394 168.7367-85.40995 14.0614-13.0198 27.0812-22.3941 28.6436-20.8317 1.5623 2.0832 0 4.6871-3.1248 5.7287-3.6455 1.5624-6.7703 6.7703-6.7703 12.499 0 5.208-2.0832 9.8951-5.2079 9.8951-2.604 0-5.2079 3.6455-5.2079 7.8119 0 10.4158 26.0396-5.2079 62.495-37.4971 28.12275-25.5188 88.53465-100.5129 88.53465-110.4079 0-3.1248 3.1248-13.0198 7.2911-22.3941 14.5822-34.3723 22.9149-70.307 29.6852-122.3862 5.7287-48.4337 5.2079-64.5783-3.6456-132.802-4.1663-28.6436.5208-47.3921 8.3327-35.4139 3.1248 4.1663 5.2079 13.5406 5.2079 20.8317 0 7.8119 3.1249 16.6653 6.2497 19.7901 3.6455 3.6455 9.3742 15.6237 12.499 26.0396l6.2495 19.2693.5208-23.4356c.5208-30.206-12.499-115.6159-19.7901-129.1565-3.1248-6.2495-5.7289-14.5822-5.7289-18.7486 0-10.4158-33.8515-82.2851-51.5584-109.3664-13.5406-21.3524-23.4356-33.8515-57.2871-71.8693-45.82975-52.6-126.55255-96.86739-197.90105-108.84559-33.8515-6.2495-37.4971-7.8119-33.3307-17.70693 1.5623-4.16634 1.5623-7.81188 0-7.81188-1.5624 0-21.3525-3.64555-43.7466-7.81189-46.8713-8.85347-96.8674-8.85347-152.5921 0zm124.9901 140.09309c42.1842 7.8119 52.6 10.9367 104.1585 35.9347 46.3505 22.9149 111.4495 88.0139 133.8436 133.8436 34.8931 73.4318 46.3505 118.2199 41.6634 170.2991-6.2495 65.0991-14.5822 95.305-41.6634 149.9882-44.7881 90.0971-120.303 149.9882-222.3783 174.9862-49.4753 12.499-72.3901 12.499-123.4278 0-119.2614-28.1228-183.8397-87.4931-238.5229-216.6496-26.5604-63.5366-33.8515-153.6337-16.1445-205.7129 15.1029-43.7466 29.1643-72.911 50.5168-104.6793 20.3109-29.6852 71.3486-80.202 90.0971-88.5347 6.2495-2.604 18.7485-9.3743 28.6436-15.6238 25.5188-15.1029 55.7247-25.5188 96.8673-33.3307 48.4337-8.8534 51.0377-8.8534 96.3466-.5208zm-192.6931-207.79609c-7.2911 4.16634-18.2278 7.2911-24.4773 7.81189-6.2495 0-17.7069 3.12475-26.0396 7.29109-7.8119 4.16634-20.3109 9.89505-27.602 12.49902-17.1861 6.7703-67.1822 31.24753-81.7644 39.58021-11.4574 6.24951-42.1842 31.24759-81.2436 65.61979-35.4139 30.72679-81.76437 93.22189-103.11686 139.05159-10.93664 23.9564-20.3109 47.3921-20.3109 52.6 0 4.6872-3.64555 13.5406-7.81188 18.7485-4.16634 5.7288-7.81189 16.6654-7.81189 24.4773 0 7.2911-3.64555 22.3941-7.81188 32.8099-6.24951 15.103-7.81189 39.0594-6.7703 121.8654 2.08316 121.8654 10.93663 142.1763 13.0198 27.0812 1.04159-88.0139 9.89506-133.8436 40.10101-205.713 11.45743-26.5604 29.16437-61.9743 39.58022-78.1188 5.72871-8.8535 11.97822-19.2693 13.5406-23.4357 5.20788-10.9366 36.45548-49.996 67.18218-82.8059 22.3941-24.47729 83.8476-73.43176 114.5743-92.70107 23.9565-15.10298 84.3684-43.22576 92.1803-43.22576 4.1663 0 10.9366-3.64555 14.5822-7.2911 3.1247-4.16633 15.6237-8.33267 27.602-9.37426 11.4574-1.04158 21.8732-4.68713 23.4356-8.33267 2.604-8.85347-34.3723-7.81189-51.0376 1.56237zm86.9723-14.58218c9.3742 1.04158 26.0396 1.04158 36.4554 0 10.9367-1.04159 3.6456-2.08317-16.6653-2.08317-19.7901 0-28.6436 1.04158-19.7901 2.08317z" style="stroke-width:.520792"/></svg>