<svg height="960" style="" width="1336" xmlns="http://www.w3.org/2000/svg"><path d="m515.27165 696.09069c-4.57895 7.8496 5.88722 23.5489 41.21055 56.9098 35.32333 35.3233 49.06018 22.2406 15.69926-14.391-32.05265-35.9775-51.67672-50.3684-56.90981-42.5188zm266.23323 24.8571c-33.36091 35.9775-41.86467 53.6392-26.1654 53.6392 10.4662 0 70.6466-64.7595 70.6466-75.8798 0-18.3158-11.7744-13.0827-44.4812 22.2406zm-164.84219-724.7823224-42.51882 26.1654304-75.22561.65413c-162.22566 1.30827-188.39109 22.24062-46.44364 37.28574l42.51882 4.57895-20.2782 22.89475c-11.12031 12.428582-21.58648 29.436112-24.20302 37.285742-5.88723 19.62407-14.39099 20.93234-132.78956 22.89475-68.68425 1.30827-102.04517 4.57895-107.93239 10.46617-17.66167 17.66166 5.88722 24.20302 102.69931 26.16543 73.2632 1.9624 94.84968 4.57895 94.84968 11.77444 0 4.57895-2.61655 10.46617-6.54136 12.42858-3.27068 1.96241-6.54136 11.12031-6.54136 20.27821s-6.54135 22.89475-15.04512 31.39851c-13.08271 13.08272-20.27821 15.04512-47.75191 13.08272-40.55641-3.27068-150.45121 11.77444-148.48881 20.2782 1.30827 3.27068 39.90228 9.1579 87.00005 12.42858 61.48876 3.92482 85.03765 7.84963 85.03765 14.39099 0 15.04512-32.70679 73.2632-43.17296 77.18801-5.88722 1.96241-45.7895 3.92482-89.61659 4.57895-77.18802 0-118.39857 6.54136-96.15796 14.39099 25.5113 9.1579 83.07524 17.66167 121.66925 17.66167 28.12784 0 43.17296 2.61654 45.13536 8.50376 1.96241 4.57895-4.57895 24.20302-14.39098 43.82709-17.00753 34.01506-20.93234 36.6316-57.56395 48.40602l-39.24814 13.08272 27.4737 5.23308c26.81957 5.88722 36.6316 18.96991 21.58648 28.12781-11.12031 7.1955-7.19549 28.782 6.54136 35.9775 18.3158 9.812 10.46617 19.6241-16.3534 19.6241-11.77444 0-26.16542 1.9624-32.05265 3.9248-16.35339 6.5413-5.23308 15.6992 18.96994 15.6992 12.42858 0 23.54889 2.6166 25.51129 5.8873 3.92482 6.5413-32.05265 39.9022-42.51882 39.9022-3.92481 0-5.88722 6.5414-4.57895 13.7369 1.30827 9.1579 13.08272 19.6241 33.36092 30.0902 27.4737 14.391 41.86469 34.6692 24.20303 34.6692-11.12031 0-7.1955 17.6617 5.23308 22.8948 5.88722 2.6165 35.97747 5.8872 65.41357 7.8496 49.06018 3.2707 61.48876 7.1955 120.36098 37.2857 36.6316 18.3158 66.72184 35.9775 66.72184 39.9023.65414 3.2707-13.73685 7.1955-32.05265 7.8496-49.71431 2.6166-108.58653 15.6993-105.96999 24.2031 3.92482 11.1203 73.2632 18.3158 147.83468 14.391 76.53388-3.9249 96.15795 1.9624 128.2106 35.32325 20.27821 20.9323 38.59401 24.8571 47.09777 11.1203 2.61655-4.579 16.3534-17.00745 29.43611-26.81955 24.20302-18.3158 24.85716-18.3158 135.40606-19.624 76.5339-.6542 113.8197-3.2707 119.0527-8.5038 13.0828-13.0827-22.2406-22.8948-90.2707-26.8196-43.8271-1.9624-60.8346-5.2331-60.8346-11.1203 0-4.5789 28.782-22.8947 64.1053-41.2105 61.4887-30.7444 67.376-32.0527 129.51892-35.3234 35.3233-1.9624 69.9925-5.8872 76.5338-8.5037 16.3534-6.5414 13.7369-22.8948-3.9248-22.8948-8.5037 0-20.9323-3.9248-27.4737-9.1579-11.7744-8.5037-10.4661-9.812 15.0451-22.8947 15.0452-7.1955 32.0527-13.7369 38.5941-13.7369 14.3909 0 41.2105-17.6616 41.2105-26.8195 0-3.2707-5.2331-7.8497-11.1203-10.4662-17.0075-5.8872-41.2106-29.4361-37.2857-35.3233 1.9624-3.2707 11.1203-5.8873 20.9323-5.8873s21.5865-2.6165 26.1654-5.8872c11.7745-7.1955-4.5789-13.7368-34.6692-13.7368-26.8195 0-34.6692-9.8121-16.3534-19.6241 13.7369-7.1955 17.6617-28.782 6.5414-35.9775-14.391-8.5037-5.8872-22.24059 16.3534-26.81954 28.1278-5.23308 25.5113-9.1579-15.0451-22.24061-27.4737-8.50374-32.7068-13.73683-49.0602-45.78948-9.812-19.62407-16.3534-39.24814-15.0451-43.17295 1.9624-4.57895 28.1278-9.1579 64.1053-11.12031 33.3609-1.96241 72.609-7.19549 87-11.77444 24.8572-7.84963 25.5113-8.50377 9.8121-13.08272-9.1579-2.61654-51.0226-4.57895-92.8873-5.23309-41.8647-.65413-80.4587-2.61654-86.3459-4.57895-10.4662-3.92481-43.17302-62.14289-43.17302-77.18801 0-6.54136 23.54892-10.46617 85.03772-14.39099 47.0977-3.27068 85.6917-9.1579 87-12.42858 1.3083-7.84962-104.0076-23.54888-145.8723-21.58648-40.55642 1.96241-58.21802-5.23308-62.79702-26.16542-2.6165-9.81204-8.5037-23.54889-13.0827-30.74438-18.9699-27.4737-13.7368-29.43611 71.30082-29.43611 83.0752 0 131.4813-8.50377 126.9023-21.58648-3.9248-12.42858-33.3609-16.35339-133.44372-17.00753-74.5714-.65413-94.8496-2.61654-102.6993-11.12031-5.8872-5.23308-10.4661-13.08271-10.4661-17.00753 0-3.92481-9.1579-17.66166-20.9324-30.744372l-20.9323-23.54889 45.7895-4.57895c54.9474-5.88722 80.4587-13.08272 81.1128-21.58648.6541-9.81204-45.7895-15.04512-130.173-15.69926l-75.2256-.65413-43.82711-26.1654304c-24.20302-14.3909896-47.75191-26.1654296-52.98499-26.1654296-4.57895.65413-27.4737 12.42858-51.02259 26.1654296zm-59.52635 363.0453324c27.4737 18.3158 50.36845 38.594 51.67672 44.48123 3.92482 18.96993-40.55641 50.36845-70.64666 50.36845-24.85716 0-57.56394-21.58648-71.95493-47.09778-15.04512-27.4737-14.39098-46.44363 4.57895-74.57147 13.08272-20.27821 22.89475-17.66166 86.34592 26.81957zm313.98514-18.96994c28.782 64.1053-45.7895 139.33091-105.97 105.31585-25.51127-14.39098-37.28572-26.16543-37.28572-37.28573 0-19.62408 109.24062-94.84968 127.55652-87.65419 4.5789 1.96241 11.1203 10.46617 15.6992 19.62407zm-179.23318 131.48128c9.1579 9.81204 16.35339 24.20302 16.35339 32.05265 0 12.42858-3.92481 13.73685-39.24814 13.73685s-39.24815-1.30827-39.24815-13.73685c0-14.39098 28.12784-49.71431 39.24815-49.71431 3.27068 0 13.73685 7.84963 22.89475 17.66166zm-268.84979 50.36845c8.50377 18.31578 23.54889 44.4812 32.70679 58.2181 9.1579 13.7368 17.00753 27.4737 17.00753 30.7443 0 3.9248 4.57895 6.5414 9.81204 6.5414 5.23308 0 9.81203-4.579 9.81203-9.812 0-11.7745 19.62407-13.0828 19.62407-1.9625.65414 4.579 7.84963 17.0076 17.00753 28.1279 15.04512 18.3158 17.00753 18.9699 24.85716 7.8496 8.50376-11.1203 9.1579-11.1203 13.08271 0 2.61655 6.5414 1.30828 12.4286-1.9624 13.7369-3.92482 1.3082-7.1955 7.1955-7.1955 13.0827 0 8.5037 1.30828 7.8496 9.1579-1.9624 9.1579-12.4286 9.81204-12.4286 25.5113 4.5789 9.1579 9.8121 18.96993 24.203 20.93234 32.7068 4.57895 13.0827 5.88722 13.0827 13.08272 3.2707 11.1203-15.0451 15.69925-13.7369 22.89475 4.5789 3.27067 9.1579 11.77444 19.6241 19.62407 23.5489 11.77444 6.5414 14.39098 5.2331 20.27821-13.0827 5.23308-15.0451 10.46617-18.9699 18.96993-16.3534 9.1579 3.2707 11.12031.6542 8.50377-14.391-2.61655-17.0075-1.96241-17.6616 7.19549-5.8872 9.1579 11.1203 23.54889 9.812 23.54889-3.2707 0-8.5037 27.47374-45.1353 34.01504-45.1353 2.6166 0 5.2331 4.5789 5.2331 9.812s4.5789 9.812 9.812 9.812 9.8121-3.2706 9.8121-7.1955c0-3.9248 8.5037-19.624 18.3158-34.6692 9.812-14.3909 20.2782-32.0526 22.8947-38.594 5.2331-13.7368 17.6617-9.1579 17.6617 5.8873 0 22.2406 17.0075 1.9624 45.1354-52.985 30.7443-59.52636 43.1729-71.95493 51.0225-51.02259 2.6166 6.54136 17.0076 33.36092 32.7068 59.52632 29.43612 50.36847 34.01512 69.33837 18.97002 77.84217-4.579 2.6165-11.7745 11.7744-16.35342 20.2782-6.5414 12.4286-5.8873 15.0451 7.19552 21.5865 45.1353 20.2782 51.0225 25.5113 43.8271 39.2481-3.2707 7.1955-11.7745 15.0451-17.6617 17.0075-19.6241 6.5414-207.36102 96.8121-240.06782 115.7821-23.5489 13.0827-78.49631 52.3308-94.8497 67.3759-20.93235 19.6241-29.43611 18.97-58.87222-4.5789-13.73685-10.4662-26.16543-19.6241-28.12783-19.6241-2.61655 0-15.04513-7.1955-28.12784-16.3534-13.73685-9.1579-64.75944-35.9774-113.16548-59.5263-49.06018-23.5489-97.46623-47.0978-107.27826-52.3309-10.46617-5.2331-21.58648-9.1579-24.85716-9.1579-10.46617 0-51.67672-33.3609-51.67672-41.8647 0-6.5413 28.78197-26.8195 54.29326-37.9398 9.81204-4.579 10.46618-7.1955 3.92482-19.6241-4.57895-8.5038-11.77444-17.6617-16.35339-20.2782-15.04513-8.5038-10.46618-27.4737 18.96993-77.84217 15.69926-26.1654 30.09025-52.98496 32.70679-60.18046 4.57895-11.77444 5.23308-11.77444 17.66166-.65413 7.1955 6.54135 20.27821 26.81956 28.78197 45.13536z" style="stroke-width:.654136"/></svg>