<svg height="960" style="" width="1120" xmlns="http://www.w3.org/2000/svg"><path d="m560.6624-74.9272c-.79893 7.589868-1.7976 17.576402-1.99733 22.569736-1.1984 20.5724-5.19307 57.522801-6.99054 65.911464-.9988 4.99334-1.7976 14.3808-1.7976 20.97201-.19986 12.1836-4.59386 36.15147-9.18773 48.93426-5.79213 16.57774-7.39013 21.37134-8.98787 26.96374-2.59653 9.58719-6.19173 19.57372-9.18773 25.56573-1.59787 3.19574-2.79627 6.59106-2.79627 7.39014 0 3.71226-22.94226 40.37173-27.9484 44.89373-.38081.34387-.792.6768-.792.6768s-.5612-.45973-.83454-.6464c-5.21147-3.55907-11.18972-24.54668-15.36467-54.9108-1.59799-12.58307-2.99599-27.36321-2.99599-32.55627 0-5.19307-1.1984-15.97854-2.79641-23.96773-1.59772-7.98933-3.39532-19.7736-4.19426-26.36481-1.19839-12.38319-4.37014-29.5692-6.39133-34.95293-.2532-.674-.72786-1.96467-.72786-1.96467s-.8804 2.00307-1.24667 3.26307c-1.3428 4.61813-2.48428 16.09094-2.61947 28.66133 0 9.38734-.99853 22.76948-1.99721 29.95973-1.19839 7.1904-3.39545 27.76281-4.99333 45.9384-1.7976 18.17561-3.99467 37.94908-5.19306 43.94108-1.19841 5.99187-2.79626 30.75867-3.79481 54.92627-1.99732 58.32173-1.7976 57.72253-29.16092 88.08173-7.58987 8.3888-14.97988 16.9772-16.37801 18.97453-1.0888 1.55535-2.90427 2.98962-4.40907 3.54827-.19719.0733-.38386.36201-.38386.36201s-.60906-.11472-.7996-.11472c-1.7976 0-10.38613-7.1904-19.374-15.77893-8.98787-8.78814-21.97054-21.17147-28.76134-27.76267-11.18506-10.78547-32.5564-26.36467-47.53625-34.5536-8.18895-4.59387-27.36321-15.37947-30.95841-17.77627-1.59787-.99854-7.58974-4.19427-13.38214-6.99053-5.5924-2.79627-10.9852-5.99187-11.58441-6.99067-1.99719-3.1956-17.17693-2.3968-21.1716 1.1984-2.99599 2.7964-4.39399 2.3968-16.17826-2.996-8.98786-4.394-15.97853-6.1916-22.76934-6.1916-5.3928 0-11.58453-1.1984-13.7816-2.79626-10.58572-7.1904-27.36319-15.17974-31.75733-15.1796-3.38666 0-5.87-.0507-9.51386-1.25094 0 0 4.02453 5.40333 6.84227 7.55947 3.37972 2.58612 9.22426 5.9112 17.45173 9.86973 5.99199 2.996 12.78279 7.1904 14.78013 9.5872 2.19706 2.3968 4.99334 4.1944 6.39147 4.1944s4.59387 2.5964 7.1904 5.99187c2.39679 3.19573 5.992 5.992 7.98919 5.992 6.99068 0 18.57521 7.9892 32.15681 22.36987 12.78294 13.58186 13.58187 14.97986 12.38346 21.57106-.79892 3.79494-1.72772 7.6288-2.19707 8.3888-.54865.88841-1.0872 2.61574-1.0872 2.61574s-3.43012-1.19693-4.62292-1.93467c-1.24227-.76853-2.46467-2.01307-3.47747-3.67706-4.39414-6.59121-15.7788-17.37667-21.7708-20.37267-3.99467-2.19708-5.79227-2.19708-7.58987-.39948-1.59787 1.59788-2.79626 1.59788-4.59373-.19972-1.51707-1.51694-3.7092-2.26894-5.7432-2.27694-3.01453-.0534-5.20333.42014-7.77973-1.25106 0 0 2.2972 6.62533 2.884 8.38093 1.46172 4.37253 6.45505 10.70867 16.43106 21.11214 11.18506 11.78426 12.7828 14.18106 11.58439 19.17439-.18012.9012-1.06066 1.1804-1.06066 1.1804s1.25947 3.1372 1.78854 4.16241c1.8744 3.63186 6.97467 9.0228 18.846 21.02174 11.38467 11.58452 30.3592 33.95439 42.34307 49.93306 11.98387 15.9784 23.76813 31.15814 26.16493 33.9544 33.3552 38.54826 37.94907 44.54014 56.9236 73.10187 15.57908 23.36853 16.378 24.36733 24.76667 39.9464 2.79627 5.39267 6.79093 12.1836 8.58853 15.1796 1.7976 2.79613 10.18628 16.17827 18.37535 29.56027 8.18905 13.18226 16.57773 26.5644 18.37533 29.56028 3.5952 5.7924 10.18626 17.37678 16.17827 28.362 1.99733 3.79492 5.39265 9.58718 7.39013 12.98252 1.99732 3.19573 5.99186 9.98668 8.5884 14.97988 2.79626 4.99333 6.79092 12.18373 9.18772 15.97865 2.19694 3.79495 4.79361 8.38868 5.59241 9.98653.79894 1.59788 3.5952 6.99068 6.59119 11.98402 6.59121 11.38465 16.37801 35.35238 20.97188 50.9316 1.99732 6.5912 4.7936 15.57905 5.99187 19.9732 1.39825 4.394 4.1944 13.382 5.992 19.9732 1.99733 6.5912 4.59386 15.1796 5.992 18.9744 2.39666 6.79093 4.99333 15.5792 11.5844 37.9492 5.3928 18.1756 9.38745 36.9504 9.38745 43.34173 0 3.19573 1.398 10.38613 2.99601 15.7788 1.59774 5.39281 2.996 13.58191 2.996 18.37551 0 9.7868 4.59374 45.1393 8.98787 69.3068 1.59787 8.7882 3.39533 25.3659 3.99452 36.9504.59935 11.5845 1.80681 22.9669 2.39681 25.366.68574 2.7884 3.54454 7.0742 3.54454 7.0742s3.86506-4.6315 5.6432-8.8718l2.59653-6.1917 2.996 4.7937c2.19707 3.3952 3.5952 11.7841 4.1944 27.3631.59907 12.5832 1.99733 23.5685 3.19573 24.7669.42147.4215 1.6164 1.5149 1.6164 1.5149s.48775-1.3082.8888-2.2893c1.06147-2.5973 1.83774-8.9393 2.68775-20.5969 2.59652-39.9465 8.78825-85.0859 14.3808-107.0563 1.59772-5.992 2.79612-15.1796 2.79612-20.173 0-10.7854 4.99333-36.7506 9.5872-50.53223 1.19841-3.39535 3.19573-11.78415 4.59387-18.9744 5.79213-31.35801 8.18893-40.5456 15.7788-59.91961 2.39681-5.992 4.9932-13.7816 5.99201-16.9772.99853-3.39547 2.79613-9.18775 4.19425-12.98267 1.1984-3.79493 3.39547-10.18628 4.7936-13.9812 1.39815-3.79493 4.39414-12.78293 6.5912-19.9732 8.78815-27.16348 17.37655-47.13668 26.36455-60.91813 2.19705-3.3956 4.79359-7.78962 5.992-9.98668 1.1984-2.19707 3.79479-6.79094 5.99199-9.98654 2.19693-3.39558 4.79361-7.78958 5.99186-9.98666 1.1984-2.19707 3.79495-6.79092 5.99201-9.98652 2.19707-3.39562 4.79359-7.7896 5.99199-9.98667 1.19841-2.19707 3.79495-6.79093 5.99187-9.98653 2.19707-3.39548 4.79361-7.78962 5.99201-9.98668 2.19707-4.59374 3.79492-6.99054 15.57906-24.56694 4.59386-6.99066 8.38881-12.98266 8.38881-13.38213 0-.19972 6.5912-10.386 14.58039-22.36985 18.97453-28.76148 18.97453-28.96122 21.37121-33.55508 1.1984-2.19694 3.79506-6.79094 5.992-9.98654 2.1972-3.39546 4.59386-7.39014 5.3928-8.988 1.1984-2.5964 21.1716-30.3592 27.1636-37.94906 1.398-1.59774 5.992-7.58974 9.98653-12.98254 6.79092-8.78827 28.96108-34.15414 37.34987-42.5428 2.996-2.996 9.7868-11.58453 33.95441-42.7428 6.99065-9.18761 22.17027-25.76534 33.3552-37.15001 15.17959-15.17959 20.57239-21.97053 20.57239-25.76546 0-3.39547 3.79494-8.78813 11.98401-17.17694 4.6056-4.77626 7.42667-7.76786 8.89852-9.8148 1.03228-1.43546 2.14427-3.73146 2.14427-3.73146s-1.58614-.77054-2.45439-1.43373c-1.80973-1.38214-3.51175-4.98774-3.5952-7.98921-.0788-2.82613-.93147-5.84586-.93147-5.84586s-2.89653.0133-4.26148-.14614c-3.004-.33373-6.3936.9968-8.78825 3.5952-3.6316 3.94081-8.85747 4.13401-8.85747 4.13401s-.11736-4.99627 2.86547-8.92761c2.58345-3.40533 2.59652-4.394 0-8.38866-2.79615-4.39414-2.59641-4.99334 5.59252-11.38467 4.59387-3.79493 10.98533-7.39013 13.9812-8.18907 3.39548-.79893 6.19175-3.19573 7.39013-6.1916.99868-2.7964 3.39547-4.99333 5.19307-4.99333 1.79748 0 6.59108-2.3968 10.58573-5.59253 3.99467-2.996 8.988-6.39134 11.18494-7.58974 2.1972-1.1984 3.99482-3.9948 3.99482-5.992 0-.924-.055-2.55573-.055-2.55573s-2.90602-1.58227-4.41695-1.87813c-2.6948-.5276-5.93827.23746-7.7112 2.63626-1.99735 2.5964-4.1944 3.1956-10.1864 1.9972-6.7908-.99853-8.98787-.39933-16.5776 5.3928-4.99335 3.5952-11.984 7.58987-15.37948 8.988-5.99199 1.99733-6.59119 1.7976-6.59119-1.59787 0-1.99733 1.7976-4.59386 3.99467-5.79213 2.19705-1.1984 3.99465-2.996 3.99465-3.9948 0-.6604.0573-1.39.0573-1.39s-2.65415-.6732-4.33867-.4056c-3.65733.58093-9.5836 2.92254-17.49013 6.98867-11.18494 5.59253-15.37935 6.79093-20.37268 5.79227-3.39546-.79894-6.7908-.5992-7.58972.19972-.5992.99868-3.79494 3.5952-7.1904 5.99201-19.57374 13.58173-33.3552 22.76933-34.35388 22.76933-.59919 0-4.39412 2.3968-8.38879 5.3928-3.99453 3.19574-8.78814 6.39147-10.58574 7.58987-13.9812 8.5884-30.95839 21.57093-47.33654 36.75054-22.1376 20.5932-34.83853 31.15999-38.8632 32.5872-.3168.11196-.84892.48-.84892.48s-.32708-.38294-.43401-.51081c-19.36947-23.17266-25.96507-32.35653-24.76667-34.95306.5992-1.99734-2.79626-7.1904-9.78693-14.97987-5.99187-6.5912-11.78413-13.58187-12.98252-15.57907-3.59508-6.99066-6.39148-31.55774-5.99188-52.7292.39947-22.17041-2.7964-56.3244-6.19172-67.90893-1.19841-3.79494-2.19708-14.58041-2.19708-23.96787 0-9.38733-1.39813-24.56694-2.996-33.95441-1.59787-9.38733-2.996-26.36465-2.996-37.74933 0-14.5804-.99867-23.56827-3.39547-30.3592-1.2824-3.44667-2.56481-6.15347-3.66653-7.888-.8792-1.38413-2.55747-3.18907-2.55747-3.18907s-.50666 1.5164-.5668 2.68827c-.0507.99733-.79893 10.98533-1.7976 22.56974-1.99733 26.1648-5.19306 42.74266-10.1864 52.32974-2.19693 4.19439-4.59373 13.9812-5.79213 21.97052-5.59253 43.5416-6.5912 51.53081-7.7896 63.31494-.5992 7.1904-2.19428 13.18934-3.1956 13.58187-.1348.0532-.4204.29467-.4204.29467s-.94973-.92801-1.4972-1.46387c-2.02667-1.98347-5.14493-6.26187-8.06907-11.41388-4.39413-7.1904-9.58721-15.57919-11.38466-18.37546-8.18908-12.78279-19.77347-39.14733-23.56841-54.32693-.99866-3.79494-3.79493-11.98401-6.19174-17.97601-2.19692-5.99199-4.99333-14.58039-5.99199-18.9744-.79894-4.39413-2.59654-11.18506-3.79493-14.97999-.99853-3.79481-1.99721-13.18227-1.99721-20.97187 0-7.58974-.99866-17.5764-2.19707-21.97054-1.59785-6.790798-4.1944-32.955599-9.18772-92.47587-.40596-5.04928-1.04836-8.58088-1.80436-10.61408-.494-1.32867-1.5512-3.46067-1.5512-3.46067s-1.24293 1.99027-1.82653 3.36147c-.91747 2.15506-1.7732 6.0676-2.40733 11.712zm6.99053 303.79228c0 1.9972 1.39815 5.3928 2.996 7.58974 1.59787 1.99746 2.99614 4.79359 2.99614 6.19172 0 1.1984 4.9932 9.38747 10.9852 17.97587 5.99201 8.58853 12.36881 17.98361 13.9812 20.97187 1.14306 2.11866 2.57773 5.2932 2.57773 5.2932s-.86959 1.69308-1.32133 2.8444c-1.32454 3.3768-4.77054 8.61986-11.6424 19.026-4.79359 6.99054-8.58854 13.18226-8.58854 13.9812-.16786 3.02121-7.10626 9.99201-10.7396 11.54786-.69026.29562-1.41225.636-1.41225.636s-.66375-.66146-.99321-.97425c-5.6768-5.39188-32.85574-45.47428-34.19134-50.75655-.048-.1912-.37946-.77478-.37946-.77478s.61985-1.15602.91973-1.94255c1.38907-3.64213 5.08373-10.08652 9.646-16.8564 6.19172-8.988 13.18227-21.1716 15.57907-27.3632 1.64906-3.97267 3.41053-7.0452 4.968-8.94307 1.2452-1.51746 3.3504-2.8748 3.3504-2.8748s1.26881 2.02855 1.26866 4.42774zm-79.29361 137.21573c16.1712 23.44067 22.31415 32.66561 24.4044 37.25201.72375 1.58814 1.71908 3.45134 1.71908 3.45134s-1.26107 1.68573-2.14467 3.17266c-5.20001 8.7508-23.55654 31.1032-29.81746 36.04052-.79707.62868-2.0784 1.59988-2.0784 1.59988s-1.33947-1.03413-2.3352-1.7356c-2.48228-1.7484-5.4136-5.31213-7.12427-8.87586-3.39548-7.39014-15.97853-26.36455-27.1636-40.74535l-8.98787-11.78413 4.79359-3.19572c2.79615-1.7976 7.9892-4.1944 11.5844-5.19307 4.79361-1.39815 8.18894-4.39413 11.18495-9.7868 4.3532-7.836 7.5468-12.19268 10.34679-13.83668.5892-.34587 1.76441-1.35759 1.76441-1.35759s.83786.56092 1.2708.61372c1.59853.19508 7.1904 6.79095 12.58305 14.38067zm175.56455-7.38999c.4296.986 8.5884 8.5884 18.57493 17.17694 9.78693 8.38866 18.52533 16.4004 19.17428 17.77613.13066.27653.6672 1.1488.6672 1.1488s-.64868.98332-.93935 1.68333c-.83866 2.01932-2.68186 4.74947-5.12053 7.554-7.58987 8.5884-24.95133 33.76067-27.16359 39.3472-.84161 2.1252-3.31868 4.2768-3.31868 4.2768s-3.57253-1.7472-5.19305-2.94626c-4.56508-3.37774-9.06467-10.9752-9.06467-18.5076 0-5.19295-2.39681-9.18762-11.18494-18.7748-3.95079-4.41547-6.8876-8.15495-8.45627-10.82534-1.12773-1.91961-2.02347-3.4788-2.02347-3.4788s1.44294-1.38586 1.99694-2.25893c2.07201-3.26548 6.5512-10.14187 11.27906-17.39133 8.38868-12.58307 11.98388-16.37802 15.37934-16.37802.786 0 4.1276-.12932 4.1276-.12932s1.01627 1.15667 1.2652 1.72759zm-79.09387 116.64347c13.382 11.38467 18.57493 14.78013 37.15013 24.76667l5.39267 2.79626-4.39413 7.1904c-2.39667 3.99467-5.99187 9.5872-7.78947 12.38334-1.99732 2.996-4.39413 7.1904-5.59252 9.38746-1.19841 2.19707-3.79495 6.5912-5.99201 9.98654-2.19694 3.19574-4.59374 7.39013-5.19294 8.98786-.5992 1.598-2.3968 5.99201-3.99466 9.38747-8.18894 18.97453-12.18374 30.1596-14.58039 39.54693-.79895 3.39548-2.59655 7.98921-3.79495 10.38601-1.39813 2.39679-2.39666 6.79093-2.39666 9.98666 0 2.99601-.95227 7.02068-1.99747 8.58853-.82172 1.23254-2.05387 2.72374-2.05387 2.72374s-1.6964-1.88614-3.1392-3.72253c-1.6784-2.136-3.39533-6.19161-3.99453-8.98787-4.1944-21.77079-20.37267-65.71174-30.75867-83.88734-2.996-4.99333-5.7924-10.38613-6.5912-11.984-.79893-1.59786-3.5952-6.7908-6.19174-11.38466l-4.59386-8.18894 5.59254-4.1944c2.996-2.3968 5.99186-4.1944 6.59106-4.1944 1.7976 0 18.17559-11.78426 24.36734-17.5764 5.92546-5.4576 12.9464-11.1588 16.31106-13.39666.9452-.62867 1.86455-.98414 1.86455-.98414s1.22679.68507 2.80265 1.86654c2.9272 2.19466 7.78294 6.10266 12.97627 10.51693zm-21.1716 561.04691c0 2.5585-2.63147 4.532-2.63147 4.532s-1.6388-1.5168-2.36186-2.7343c-1.4372-2.4206 1.9204-7.9413 1.9204-7.9413s.60573.6464 1.0756.9506c.97773.6327 1.99733 2.9958 1.99733 5.193z" style="stroke-width:1.2"/></svg>