<svg height="960" style="" width="1377" xmlns="http://www.w3.org/2000/svg"><path d="m1225.4731 469.54511c-10.0013 9.4749-30.0039 26.3191-44.7426 37.8996-14.2123 11.5804-30.0038 24.2136-34.7413 28.951-4.7374 4.2111-24.74 21.0553-44.216 36.8468-20.0026 15.7915-44.7426 36.3205-54.7439 45.269-10.5276 8.9485-33.1621 26.8455-50.53273 40.5315-17.3707 13.6859-50.5328 40.0051-73.6936 58.9548-23.1609 18.4235-52.6383 41.5843-65.7979 50.5328-92.6434 66.3243-132.1221 122.6472-133.1749 190.02425-.5264 38.4259 6.843 41.0578 36.3204 11.054 47.9009-47.3745 83.6949-64.21865 173.18-80.53655 35.7941-6.843 83.16853-20.5289 88.95873-26.3191 2.632-2.632 8.4222-5.2639 12.6332-5.2639 10.0013 0 58.4285-33.1621 82.1158-55.7966 49.4799-47.9008 105.8028-168.4425 124.2262-265.297 2.1056-13.1595 6.843-30.5302 10.0013-38.4259 7.8958-20.0026 7.3694-45.7953-.5264-45.7953-3.6846 0-15.2651 7.8957-25.2663 17.3706zm-1105.40416-2.1055c0 8.4221 2.63192 22.108 5.79022 30.5302 3.15829 7.8957 7.89574 25.2664 10.00127 38.4259 18.42341 96.8545 74.74638 217.3962 124.22634 265.297 23.6873 22.6345 72.1145 55.7966 82.1158 55.7966 4.211 0 10.0013 2.6319 12.6332 5.2639 5.7902 5.7902 53.1646 19.4761 88.9587 26.3191 89.4851 16.3179 125.2791 33.16205 173.18 80.53655 29.4774 30.0038 36.8468 27.3719 36.3204-11.054-1.0528-67.37705-40.5315-123.69995-133.1749-190.02425-13.1596-8.9485-42.637-32.1093-65.7979-50.5328-23.1608-18.9497-56.3229-45.2689-73.6936-58.9548-17.3706-13.686-40.0051-31.583-50.5327-40.5315-10.0013-8.9485-34.7413-29.4775-54.7439-45.269-19.47613-15.7915-39.47868-32.6357-44.21612-36.8468-4.73745-4.7374-20.00256-17.3706-34.74128-28.951-14.21234-11.5805-34.74127-28.4247-44.74255-37.8996-23.16085-21.5817-31.58298-22.1081-31.58298-2.1055zm993.81106-272.14c-4.7375 3.6847-16.8443 18.4234-26.8456 33.1621-9.4748 14.2123-28.951 42.637-43.1634 63.166-14.2123 20.0025-42.637 61.5868-63.16593 92.117-20.5289 30.5302-48.9536 71.5881-63.166 92.117-14.2123 20.0025-34.7412 50.0064-45.7953 65.7979-10.5276 15.7914-41.0578 59.4812-66.8506 97.3808-78.4311 113.1723-85.2741 126.8583-86.3268 174.2328-.5264 28.4246 1.0527 41.0578 5.2638 42.637 3.6847 1.5791 8.9485-3.1583 11.5804-10.5277 6.3166-15.7915 41.5843-53.1647 76.8519-80.5366 14.7388-11.5804 32.1094-25.7927 39.4788-32.1093 22.6344-19.4762 60.0076-50.0064 118.9625-98.4336 117.38343-96.3281 142.12343-130.543 162.12593-221.6073 13.6859-61.5868 14.7387-87.3795 5.7902-146.8608-11.0541-74.22-13.1596-79.4838-24.7399-70.5353zm-864.32085 5.7902c-19.47617 97.3808-21.05532 141.597-5.26383 211.6059 20.00255 91.0643 44.74255 125.2792 162.12595 221.6073 58.9549 48.4272 96.3281 78.9574 118.9625 98.4336 7.3694 6.3166 25.2664 20.5289 39.4788 32.1093 35.2676 27.3719 70.5353 64.7451 76.8519 80.5366 2.6319 7.3694 7.8957 12.1068 11.5804 10.5277 4.2111-1.5792 5.7902-14.2124 5.2638-42.637-1.0527-47.3745-7.8957-61.0605-86.3268-174.2328-25.7927-37.8996-56.323-81.5894-66.8506-97.3808-11.0541-15.7915-31.583-45.7954-45.7953-65.7979-14.2124-20.5289-42.637-61.5868-63.166-92.117-20.5289-30.5302-48.9536-72.1145-63.1659-92.117-14.2124-20.529-34.7413-50.0064-45.7953-66.3243-23.1609-34.2149-34.74132-41.5842-37.89962-24.2136zm642.71362-134.754004c-6.843 11.054-14.2124 23.6872-15.7915 27.8983-2.1056 4.211-8.4222 14.738704-14.2124 23.687204-16.3178 24.74-26.8455 51.5855-22.6344 55.7966 2.6319 2.1055 13.6859 4.7375 25.2663 5.7902l21.0554 1.5792 2.6319 123.1736c2.1055 92.117 4.211 123.6999 8.9485 125.8055 3.6847 1.0527 8.4221-2.6319 10.5276-7.8958 2.1056-5.2638 10.0013-18.9498 18.4234-30.0038l14.7388-20.5289v-96.8545-96.328h21.0553c13.1596 0 22.6345-2.632 24.2136-7.3694 2.6319-6.843-8.4221-30.5302-30.0038-63.6923-5.2639-8.948604-11.5804-19.476204-13.686-23.687304-7.8957-17.897-23.6872-36.8468-31.0566-36.8468-3.6847 0-12.6332 8.9485-19.4761 19.4762zm-444.7936-5.2638c-5.2639 8.4221-11.5805 18.4234-13.1596 22.6344-2.1055 4.2111-8.4221 14.7387-13.686 23.687304-21.5817 33.1621-32.6357 56.8493-30.0038 63.6923 1.5792 4.7374 11.0541 7.3694 24.2136 7.3694h21.0553v96.328 96.8545l14.7388 20.5289c8.4221 11.054 16.3178 24.74 18.4234 30.0038 2.1055 5.2639 6.8429 8.9485 10.5276 7.8958 4.7375-2.1056 6.843-33.6885 8.9485-125.8055l2.632-123.1736 21.0553-1.5792c11.5804-1.0527 22.6344-3.6847 25.2664-5.7902 4.211-4.2111-6.3166-31.0566-22.6345-55.7966-5.7902-8.9485-12.1068-19.476204-14.2124-23.687204-10.0012-22.6345-28.951-47.3745-35.2676-47.3745-4.2111 0-12.1068 6.3166-17.897 14.2124zm225.2919-139.491516c-3.1583 6.84297-9.4749 18.949776-15.2651 27.898286-5.2639 8.42213-17.3707 31.0566-27.372 48.95362-17.3706 32.635711-17.3706 33.688511-7.3693 41.057911 5.7902 4.210999 13.1596 6.316599 16.3179 5.263799 3.6846-1.5792 10.0012.5264 15.2651 3.6847 7.3693 5.7902 8.4221 33.1621 8.4221 293.195204 0 306.8813 1.5791 327.4102 24.2136 330.5685 8.9485 1.5792 13.686-2.6319 20.0026-17.897 6.8429-16.3179 7.8957-60.0076 7.8957-310.5659 0-193.7089 1.5792-292.142504 5.2638-294.248104 3.1583-2.1055 13.1596-4.211 22.1081-5.7902 23.6872-2.6319 25.7928-11.054 10.0013-38.42594-7.8958-13.15957-15.7915-27.89829-17.897-32.10936-2.1056-4.21106-8.4222-15.2651-14.2124-23.68723-5.7902-8.94851-12.6332-21.055316-15.7915-27.898286-2.6319-6.3166-9.4748-11.58043-15.7914-11.58043s-13.1596 5.26383-15.7915 11.58043z" style="stroke-width:.526383"/></svg>