<svg height="960" style="" width="1000" xmlns="http://www.w3.org/2000/svg"><path d="m499.78202 0c-3.79499 0-7.59022.08018-10.48108.240649-94.45188 5.242704-170.11617 80.906982-175.35887 175.358861-.32092 5.78173-.32125 15.18077.006 20.96217.19685 3.4871 5.15972 6.47754 10.92484 7.02153 21.83591 2.0604 43.18969 7.64281 63.23125 16.52464 6.61725 2.93257 9.54869.24605 7.71275-6.75186-1.44616-5.51225-2.45193-11.13182-3.00727-16.80626-.56387-5.76155-.56389-15.1777-.007-20.93997 4.92568-50.95113 45.42637-91.503569 96.37105-96.495589 5.76153-.56457 10.53179-.51715 10.60909-.51715 61.47325 5.43394 102.04958 46.009529 106.98008 97.012739.55704 5.76227.55546 15.17843-.009 20.93997-.56557 5.77772-1.59697 11.5001-3.08578 17.10835-1.8563 6.99253 1.05159 9.65516 7.65984 6.70237 20.0715-8.96861 41.47223-14.62318 63.36609-16.73628 5.76394-.55632 10.91385-5.41408 11.11087-11.20133.11918-3.50099.1383-11.0416-.18262-16.82333-5.24196-94.451879-80.90623-170.116157-175.35812-175.358861-2.89086-.160461-6.68609-.240649-10.48108-.240649zm-193.99475 219.77333c-3.79499 0-7.59023.0802-10.48108.24064-94.45188 5.24272-170.11616 80.90699-175.35886 175.35888-.32093 5.78172-.31883 15.17981-.008 20.96216 2.6719 49.79198 24.34111 97.4408 62.41883 129.27351 4.44247 3.71387 12.03587 9.25022 16.85747 12.45749 8.84249 5.88191 18.41545 11.45122 27.41874 15.95459 5.17887 2.59043 13.80228 6.33278 19.26396 8.25549 15.8674 5.58595 32.56606 8.57892 49.40838 9.44168 5.78315.29626 15.18075.29707 20.96217-.029 2.50106-.14106 4.52457-5.00546 4.52457-10.79683v-59.86898c0-4.82615-3.87595-8.15499-8.69243-7.87148-3.48196.20495-11.02181.23959-16.78407-.31745-51.00321-4.9305-91.57874-45.50604-96.50924-96.50926-.55703-5.76226-.55706-15.17941 0-20.94167 4.92565-50.95113 45.42633-91.50356 96.371-96.4956 5.76153-.56457 10.5318-.51714 10.60909-.51714 61.47326 5.43393 102.04959 46.00952 106.98009 97.01274.55703 5.76226.49815 15.16568.49153 20.95704l-.26306 229.925a16.083082 16.083082 0 009.5782 14.72744l18.81509 8.32036c5.29656 2.3423 13.92812 6.08901 18.90384 9.04571 6.14353 3.65064 11.75089 8.00286 16.73629 12.92684 9.58307 9.465 14.79668 8.43394 14.80083-5.07926l.0838-269.86611c.002-5.79137.0342-15.18556-.28672-20.96728-5.24265-94.45189-80.90692-170.11616-175.35881-175.35888-2.89086-.16046-6.68609-.24064-10.48108-.24064zm388.42642 0c-3.79499 0-7.59021.0802-10.48108.24064-94.45188 5.24272-170.11617 80.90699-175.35887 175.35888-.32092 5.78172-.60267 10.48108-.9882 10.48108v280.8046c0 13.51319 5.23337 14.55618 14.83668 5.11168 4.95088-4.86902 10.51063-9.17619 16.59804-12.79371 4.97562-2.95684 13.60729-6.70336 18.90383-9.04572l18.91067-8.36302a16.138767 16.138767 0 009.61063-14.72745l.46425-230.50018c.0116-5.79135-.0331-15.19478.52396-20.95704 4.92565-50.95113 45.42634-91.50356 96.37101-96.4956 5.76153-.56457 10.53179-.51714 10.60908-.51714 61.47327 5.43393 102.0496 46.00952 106.98009 97.01274.55704 5.76226.55704 15.17941 0 20.94167-4.93049 51.00322-45.50604 91.57876-96.50925 96.50926-5.76226.55704-15.17843.55541-20.93998-.009-2.95077-.28882-5.32844 4.03946-5.32843 9.83082v58.16907c0 5.79137 4.67921 10.91574 10.46743 11.08186 2.94267.0844 10.03109.10897 15.80952-.26284 17.74719-1.14192 35.23389-5.08684 52.01968-10.75245 5.48689-1.85196 14.2555-5.24671 19.41586-7.86978 8.45719-4.29885 17.38814-9.87345 23.94043-14.27345 4.80699-3.22798 12.25889-8.95355 16.60656-12.77835 37.58568-33.06544 60.5414-79.68301 63.37128-129.63534.32751-5.78132.32769-15.18044.008-20.96217-5.24444-94.45193-80.90872-170.1162-175.3606-175.35892-2.89087-.16046-6.68609-.24064-10.48109-.24064zm-516.9336 345.38076c-2.96351-.10015-5.77048 2.22784-5.77048 5.57592v46.40281c0 33.99777 20.05443 64.79568 51.14754 78.54582l195.22018 86.33026c33.03644 14.60952 54.34428 47.33178 54.34427 83.45442v29.83217h.49325c9.64662 0 17.46051-7.8304 17.44117-17.47701l-.22188-111.38357c-.0692-34.54117-20.47223-65.80297-52.06236-79.77297l-209.47487-92.63495c-13.29343-5.87871-26.03669-12.92989-38.07904-21.06969l-10.12096-6.8406c-.92462-.62498-1.92898-.92922-2.91682-.96261zm644.55499.61785c-.98784.0333-1.99391.33591-2.91853.96089l-10.12096 6.84061c-12.04234 8.13979-24.78562 15.19097-38.07903 21.06969l-209.47488 92.63664c-31.59014 13.97001-51.99142 45.2301-52.06065 79.77127l-.22359 111.38526c-.004 1.59976.22775 3.14087.62809 4.61332-.25315 2.67241-.39905 5.36823-.4045 8.08817l-.22359 111.38531c-.0193 9.6465 7.79454 17.4769 17.44116 17.4769h.49326v-29.83212c-.00001-36.1226 21.30953-68.84646 54.34597-83.45607l195.21847-86.3303c31.09313-13.75014 51.14757-44.54635 51.14756-78.54412v-46.40281c.00001-4.4641-4.98884-7.11493-8.68731-4.61502l-10.12096 6.8406c-12.04234 8.1398-24.78561 15.19099-38.07903 21.0697l-209.47488 92.63665c-10.24298 4.52972-19.29903 10.88648-26.87772 18.57444 8.94211-20.71799 25.43328-37.83436 46.87387-47.31592l195.21847-86.33025c31.09313-13.75014 51.14927-44.54636 51.14927-78.54412v-46.40281c-.00001-3.34807-2.80698-5.67609-5.77049-5.57591z" style="stroke-width:.87385"/></svg>