<svg height="960" style="" width="1488" xmlns="http://www.w3.org/2000/svg"><path d="m700.59405 241.83117c-41.0519 10.5562-19.93949 26.97696 31.66861 26.97696 36.36025 0 55.12684 5.86456 59.81848 17.59367 4.69165 9.38329 16.42076 17.59367 26.97696 17.59367 28.14988 0 83.27671 60.99139 83.27671 90.31418 0 14.07494 5.86456 29.32278 11.72912 32.84152 7.03747 3.51873 11.72911 17.59367 11.72911 30.4957 0 12.90202-4.69164 19.93949-11.72911 16.42075-5.86456-3.51873-11.72912-16.42075-11.72912-29.32278 0-11.72911-8.21038-23.45823-17.59367-28.14987-9.38329-3.51874-17.59367-12.90203-17.59367-22.28532 0-28.14987-82.1038-90.31418-119.63696-90.31418-18.76658 0-50.43519-9.38329-69.20177-19.93949-42.22481-24.63114-55.12684-18.76658-120.80988 58.64557-43.39772 51.6081-45.74354 58.64557-45.74354 136.05772 0 69.20177 4.69164 87.96836 34.01443 131.36608 56.29974 84.44962 181.80126 137.23063 255.69468 109.08076 37.53317-14.07494 17.59367-28.14988-39.87899-28.14988-42.22481 0-60.99139-4.69164-65.68303-17.59367-4.69165-9.38329-16.42076-17.59367-28.14988-17.59367-26.97696 0-82.1038-68.02886-82.1038-102.04329s19.9395-35.18734 29.32279-1.17291c4.69165 15.24785 26.97696 44.57063 49.26228 64.51013 32.84152 31.6686 49.26228 38.70607 91.48709 38.70607 29.32278 0 58.64557 7.03747 69.20177 17.59367 9.38329 9.38329 23.45823 17.59367 30.4957 17.59367 17.59367 0 82.10379-49.26227 82.10379-63.33721 0-5.86456 9.3833-21.11241 19.9395-32.84152 15.24785-17.59367 21.1124-44.57063 21.1124-113.77241 0-84.44962-2.34582-92.66-39.87898-140.74936-58.64557-72.72051-165.38051-117.29114-238.10102-98.52456zm105.56203 174.7638c38.70607 26.97696 36.36025 100.87038-5.86456 133.7119-38.70608 30.49569-79.75797 23.45822-117.29114-18.76659-34.01443-37.53316-34.01443-64.51012 2.34582-103.2162 32.84152-35.18734 80.93089-39.87899 120.80988-11.72911zm-214.64279-330.761019c-31.66861 8.21038-73.89342 21.112409-92.66 30.495699-29.32278 15.24785-35.18734 14.07493-48.08937-3.51874-18.76658-25.804049-22.28531-25.804049-66.85595 5.86456-148.95974 106.73494-279.15291 292.05494-262.73215 376.50456 10.5562 50.43519 107.90785 171.24506 198.22203 241.61975 118.46405 95.00582 234.58228 143.09519 389.40658 160.68884 68.02886 8.2104 220.50735-18.76656 277.98-49.26226 39.87897-21.1124 56.29977-21.1124 56.29977 1.17291 0 10.55621-10.5562 17.59367-29.3228 17.59367-32.84152 0-39.87899 19.9395-10.5562 31.66858 11.7291 3.5188 25.804 0 32.8415-9.38326 7.0375-9.38329 26.977-23.45823 44.5706-30.4957 62.1644-26.97696 243.9656-221.68025 243.9656-259.21342 0-5.86455 7.0375-17.59367 16.4208-24.63113 9.3833-8.21038 19.9395-35.18735 24.6311-60.9914 5.8646-35.18734 2.3458-55.12683-16.4207-87.96835-64.5102-107.90785-220.5073-252.17595-317.859-292.05494-9.3833-4.69165-30.4957-14.07494-46.91649-21.11241-92.66-41.051899-277.98-52.78101-392.92532-26.976959zm279.15292 105.562029c63.33721 28.14987 137.23059 85.62253 137.23059 105.56202 0 5.86456 7.0375 19.9395 15.2479 29.32279 21.1124 24.63114 43.3977 105.56202 43.3977 154.8243 0 89.14127-49.2623 192.35747-113.7724 240.44684-85.62253 64.51013-113.7724 75.06633-205.25949 75.06633-89.14127 0-127.84734-12.90203-207.60532-69.20177-93.83291-66.85595-140.74937-216.98861-103.2162-335.45266 28.14987-93.83292 76.23924-148.95975 168.89924-194.7033 87.96835-44.57063 177.10962-45.74354 265.07798-5.86455zm-405.82735-126.67443c-15.24785 15.247841-8.21038 28.149871 16.42076 28.149871 12.90203 0 22.28532-5.86456 19.93949-14.07494-5.86455-16.420761-25.80405-24.631141-36.36025-14.074931z" style="stroke-width:1.17291"/></svg>