<svg height="960" style="" width="1368" xmlns="http://www.w3.org/2000/svg"><path d="m142.37734.02113342a57.71846 57.71846 0 00-10.11409.8814 13.584597 13.584597 0 00-12.14131 14.93976958c-.25023 7.56726-.34722 15.15925.022 22.71815a13.752698 13.752698 0 0014.1465 14.49907c3.75723.34591 7.55992.0881 11.34806.0881 179.45425.00068 358.92831 0 538.38262 0 179.45433.002 541.50358.11018 543.20828.11018 2.7882 0 5.5386-.11354 7.9106-.30849h.022a13.283256 13.283256 0 0012.6481-13.00069c.4871-8.96904.2718-17.98224 0-26.97091v-.022a11.402893 11.402893 0 00-8.0868-10.6429296 40.381373 40.381373 0 00-12.4058-2.15943998c-13.7271-.2605-27.4526-.11017-41.1835-.11017-347.02333-.0126-694.04451.0109-1041.06845.0441-.88564-.0394-1.79325-.0661-2.68828-.0661zm15.02791 104.42414658-.022.11018h.022c.003-.0362-.003-.074 0-.11018zm0 .11018c-.0765.90018-.13221 1.81242-.13221 2.73234a31.138861 31.138861 0 00.15425 3.21712 354.36607 354.36607 0 0020.71295 70.33592 289.03365 289.03365 0 00132.51886 140.75995l-2.26961-1.12378a486.87834 486.87834 0 00232.99872 59.78112c89.43699.81072 267.9904.35256 267.9904.35256 2.24338.0281 4.49259.0441 6.74274.0441a517.74248 517.74248 0 0099.20183-9.32083 483.6649 483.6649 0 00143.47032-50.37215l1.6085-.8153a311.47875 311.47875 0 0093.4727-78.66516 281.24391 281.24391 0 0054.2944-120.06904c1.0768-5.35238 1.8674-10.77348 2.9087-16.85682zm400.42111 326.2511c-5.44453.0301-10.8978.12905-16.32797.41866a20.703056 20.703056 0 00-20.75702 24.61317l.0661.24238a35.45793 35.45793 0 006.65459 11.96504l.92547 1.256a538.64478 538.64478 0 0060.0896 65.86279l.0441.022a15.95674 15.95674 0 015.86134 12.3837 15.61422 15.61422 0 01-.46274 3.85614c-4.92942 24.94925-9.42072 49.98684-14.21262 74.96327-1.29336 6.74311-3.0945 13.3804-4.42904 19.03829a16.087159 16.087159 0 01-2.95271 1.1899c-3.78306.0971-7.56453.0887-11.34805.19831-10.97903.3177-11.92194 1.11296-11.96504 12.47185-.12996 28.87638-.12485 57.74412.022 86.61982.0336 6.75067-2.43167 14.60277 6.43425 18.53148.85562.37829 1.35541 2.47848 1.34413 3.768-.0635 7.41518-.32915 14.82541-.52883 22.29948-7.25487 1.66352-13.2141 2.89342-19.10441 4.40701-35.54885 9.13872-69.94565 20.45905-94.0897 51.3417h-15.38047a36.212467 36.212467 0 00-6.72069 21.06551l.022.77122a131.19262 131.19262 0 0034.90354 85.93674 20.766348 20.766348 0 0018.13485 5.66301c138.69993-.0694 277.41022-.12875 416.11008-.17628 2.81759 0 5.6452-.20896 8.43942.0441h.0661a13.409952 13.409952 0 001.67466.11018 13.250877 13.250877 0 0010.64294-5.35452 157.2511 157.2511 0 0034.66114-64.27627 54.95269 54.95269 0 00-4.89178-43.93791h-15.88724c-28.87232-36.15628-70.60245-45.58062-112.81951-55.6826v-25.93526c6.80381-2.16963 7.11546-8.03485 7.07326-14.56518-.19112-29.34808-.0872-58.70277-.0881-88.05209 0-2.35905.0189-4.73714-.0441-7.0953a7.2350022 7.2350022 0 00-7.18343-7.95466 6.9872505 6.9872505 0 00-.74919.0441c-6.01023-.11531-12.02551-.20357-18.66369-.30849-6.69915-35.79605-13.17322-70.4335-19.43492-103.89532 14.35011-13.83769 28.18436-25.94123 40.52246-39.42071a323.55619 323.55619 0 0030.69484-39.28856 20.840245 20.840245 0 00-15.60083-32.678c-1.64844-.14809-3.31583-.22035-5.00195-.22035-.81061 0-1.62548.0132-2.31368.0441-82.3654-.11622-164.73503-.22215-247.10117-.28646-5.44275-.004-10.88344-.0301-16.32799 0zm126.12869 229.407a26.007717 26.007717 0 0117.14328 6.45628c17.77914 13.28449 35.51005 26.62572 53.19264 40.0377l.22035.15425a71.615792 71.615792 0 019.38693 8.24111l.022.022a18.646357 18.646357 0 015.79522 13.52953 18.392513 18.392513 0 01-1.47634 7.24953l-.0441.1322a20.637396 20.637396 0 01-16.39408 13.55156l-.0881.022a62.366624 62.366624 0 01-8.175.52884c-1.10405 0-2.21382-.0156-3.15102-.0661-18.91833.0118-37.84338 0-56.76231 0-18.91837 0-37.82203.0276-56.74028-.022-.74722.0233-1.49538.0441-2.24758.0441a69.05682 69.05682 0 01-9.07844-.57291 20.555714 20.555714 0 01-11.89894-33.91195l.022-.022a82.502198 82.502198 0 0110.62091-9.32084c17.29816-13.13609 34.63868-26.18904 52.04681-39.17833a26.007717 26.007717 0 0117.60601-6.87494zm-103.23426 185.53521c4.73742.45755 5.17239 5.37413 5.17825 17.34159.004 10.88144-.0212 21.75233-.0881 32.63392l-.022.15425a25.81536 25.81536 0 01-.99158 4.12056c-18.03082 0-35.47097.005-52.92821 0-3.31204-.0009-6.63975-.22512-9.93781-.022a16.781112 16.781112 0 00-17.93654 17.69416c-.33654 6.03279-.0441 12.09673-.0441 18.61962a17.107612 17.107612 0 01-14.32279-19.56714l.022-.30848a121.36694 121.36694 0 013.4595-23.3792l.0441-.26443a36.516628 36.516628 0 0122.05709-24.12838c17.04105-6.82039 34.16235-13.45004 51.49594-19.479 6.77945-2.35787 11.17184-3.68996 14.01429-3.41543zm207.37195.0441c1.27702-.0775 2.75431.10899 4.45109.57291 8.62043 2.35702 17.14461 5.21164 25.51659 8.35129 11.90236 4.46382 23.78441 9.06033 35.41035 14.19058 23.74275 10.47788 26.23172 37.18385 24.5691 54.16217a15.170388 15.170388 0 01-12.6922 12.84644 40.375507 40.375507 0 01-1.23396-16.12966c-.60731-13.8443-6.17631-19.65293-20.16209-19.80952-16.5575-.18446-33.12873.044-49.68905.0881-3.66247.009-7.30542 0-12.14132 0 0-16.16342-.22302-31.18334.0881-46.20752.10678-5.15506 2.05232-7.83224 5.88335-8.06483zm-396.60903 57.02674c-26.85454 2.09212-53.21964 3.30214-79.3703 6.43423-25.93517 3.10592-52.29012 2.87549-78.81941 7.93262v22.25541c-13.38885.66733-18.62462 11.29164-28.57948 19.52307h206.46852c-6.67564-19.02882-13.16144-37.50755-19.69933-56.14533zm586.88178 0c-6.97371 19.18642-13.53409 37.23879-20.11801 55.35207 14.94261 2.26992 192.78832 1.80244 203.62602-.68309l-.044-.0441a142.17514 142.17514 0 00-12.6922-11.81079 135.25931 135.25931 0 00-15.3585-8.46146v-21.04349c-52.3857-4.48638-103.9134-8.89793-155.41331-13.30917z" style="stroke-width:11.282"/></svg>