<svg height="960" style="" width="804" xmlns="http://www.w3.org/2000/svg"><path d="m459.4081-29.994316c-1.318-.0089-2.65202-.0071-4.00446.0043-7.21304.06112-14.92022.411298-23.16977 1.049149-51.87862 3.912158-79.94532 12.247017-97.465 28.916339-5.6131 5.272661-12.92639 10.717402-16.15817 12.078151-18.02996 7.143937-35.03958 21.260493-42.01342 34.867983-5.95328 11.39631-6.63293 32.658634-1.36001 41.333414 3.91215 6.46358 12.24358 12.24654 17.68657 12.24654 4.42244 0 4.59513-2.89234.1727-8.50543-1.87103-2.38132-3.40434-5.61243-3.40434-7.14328 0-3.06169 6.12547-6.97332 13.94978-8.84437 8.5047-2.04112 30.95687 8.33178 36.91016 17.00657 8.84487 12.92713 1.02094 43.20608-15.47817 60.04538-14.11778 14.45773-26.87625 20.40985-50.6894 23.30146-16.15892 1.87102-26.5351 10.20616-44.56505 35.55014-13.60751 19.2206-17.51841 32.14643-20.06982 68.54651-4.93271 69.22821 9.01587 177.06845 34.87015 269.08922 1.19065 4.25236 3.40232 12.5886 5.10326 18.71197 5.10282 19.22062 10.88519 39.12198 15.30764 53.57995 1.19064 3.74207 3.40143 11.05536 4.76217 16.15818 8.3346 28.23557 12.07674 37.76048 15.64871 40.14179 2.21122 1.36075 10.03576 3.23127 17.34981 3.91163 7.31403.85048 14.62777 2.04181 16.32872 2.72218 1.53084.68038 6.97272 1.70072 11.90545 2.38109 6.29346.68036 8.84653 1.70169 8.84653 3.57272 0 2.04113-2.04203 2.37975-10.20654 1.86947-5.61309-.34019-12.07793-1.36009-14.45924-2.21055-2.38132-1.02057-10.71324-2.38072-18.70765-3.06109-7.9944-.85047-22.79331-2.21154-33.16906-3.40219-41.67298-4.25236-71.43787-6.97466-105.45665-9.35598-12.52282-.86635-25.32667-1.67625-37.70458-2.41131a563.69082 563.69082 0 0036.28628 36.28412c7.07471-1.38499 17.58775-.45701 42.24009 1.84788 38.44121 3.57197 83.34632 10.37536 102.05664 15.47817 6.80376 1.87102 10.03435 4.08279 15.98764 10.88653 14.11779 16.66921 18.87841 29.93736 21.42982 58.68322 1.02056 13.7776 4.42535 32.14544 8.5076 47.62398 2.21121 8.84489 5.44388 26.3674 10.20652 56.98429.59193 3.83579 1.10118 7.08854 1.64496 10.57136a563.69082 563.69082 0 0079.48916 79.48478 563.69082 563.69082 0 0093.0439-65.04066c1.46271-8.42672 3.23593-18.54775 4.41895-24.16709 1.19064-6.63367 3.57242-22.28321 5.10326-34.87015 1.53085-12.58694 3.9109-29.08495 5.27165-36.56906 1.36076-7.48415 2.38325-16.83982 2.38325-20.75198 0-3.91217.50864-8.16406 1.01892-9.69491 1.36074-3.57197.33937-3.57383 20.24035 3.40001 9.35518 3.23178 22.45277 7.6564 28.91634 9.86761 6.63365 2.21122 13.77903 4.7627 16.16034 5.78327 2.02784.72423 6.1288 2.41604 9.93453 3.85335a563.69082 563.69082 0 0030.89806-49.19986c-11.71438-5.12089-17.12269-7.29038-33.17769-13.84617-22.62249-9.18506-35.89258-13.77755-46.2683-16.32872-4.76263-1.19066-1.52898-6.12399 11.39815-16.6698 7.48413-6.29348 15.47706-14.11674 17.51819-17.68872 5.10282-8.1645 14.80033-28.57593 14.80033-31.29743 0-1.19066 1.01819-5.10275 2.37893-9.0149 3.06169-9.01497 10.54671-35.72017 15.13924-54.43049 1.53085-5.6131 3.91092-14.96924 5.27166-20.92253 11.22619-44.22439 12.75926-52.21713 20.58359-103.75557 6.46356-43.88421 7.65253-51.70914 10.03383-70.92974 6.12338-48.13657 7.82388-64.97685 9.6949-99.8461 4.76263-85.21702-6.12287-119.74389-43.37343-137.26355-38.27111-18.20004-38.61204-18.3715-47.96721-27.55633-10.886-10.71592-17.68658-25.85427-17.68658-39.46178 0-5.95329-1.19088-18.37171-2.55162-27.72688-1.36075-9.18507-2.55163-20.749824-2.55163-25.682544 0-20.24116-9.69669-49.158557-20.24252-60.554842-5.10282-5.443006-19.73135-15.477868-24.83416-17.008719-1.87102-.51025-8.67397-2.892483-15.30763-5.273799-13.1557-4.783894-29.08659-7.212379-48.85663-7.346199zm-8.80766 38.814163c27.7253-.170101 50.17919 4.083452 71.27083 13.608699 7.65422 3.40189 26.36687 20.75057 26.36687 24.32254 0 1.36075 1.19087 3.23259 2.55163 4.42326 2.89157 2.3813 3.56989 11.90762.84838 11.90762-1.02056 0-2.21143-1.19088-2.55162-2.55163-3.91216-12.41685-17.00858-26.70676-30.10581-32.83014-29.25614-13.607511-91.51164-15.479295-116.34535-3.57272-5.6131 2.7215-13.77576 8.33528-18.19819 12.58762-9.69535 9.69536-12.24756 7.14574-4.42325-4.25056 8.67479-12.586939 19.22159-18.369916 40.65341-22.111981 4.25235-.680374 17.68634-1.362617 29.9331-1.532708zm-120.96505 8.496805c1.56451-.179983 3.67719 2.601608 6.83457 8.682454 2.5514 4.93273 5.78252 11.22874 7.14327 14.12033 3.40187 6.29348 22.7928 25.68395 32.14797 31.977434 7.82431 5.2729 20.24133 10.20386 36.23016 14.11601 8.67479 2.21122 16.15803 2.55155 39.1207 1.70109 15.47855-.51029 33.84922-1.53189 40.48287-2.04218 6.80375-.51028 14.11748-.67866 16.32872-.16837 5.2729 1.36075 19.90359 11.22522 19.90359 13.60653 0 1.02057 1.01774 3.06251 2.20839 4.42327 1.36075 1.53084 3.74339 6.46451 5.44435 11.05707 3.91214 10.71585 4.25107 40.82112.33892 47.96507-1.36075 2.72151-4.25206 8.67507-6.46328 13.26762-5.27289 10.88595-27.55364 33.85025-36.39853 37.59231-56.64125 23.64306-101.03624 8.33414-128.42134-44.56504-4.93272-9.35518-5.10327-10.88655-5.10327-30.61743 0-18.71032.3405-21.26084 3.40219-24.32253 1.87104-1.87102 4.76235-3.40434 6.46326-3.40434 3.06169 0 13.94764-8.84503 13.94764-11.56653 0-3.23179-10.37441-17.00862-19.21929-25.17308-18.20005-17.179484-38.61362-48.137464-36.2323-54.601038.53153-1.275698 1.13025-1.966848 1.84141-2.04865zm98.51414 6.767654c4.50751 0 9.86426.81053 15.98764 2.42642 5.2729 1.36075 11.90784 2.89191 14.45924 3.40219 6.97385 1.36076 3.91477 4.25055-4.76002 4.25055-6.63367 0-7.99643.67973-13.09924 7.14328-10.03553 12.92714-19.22062 17.86082-29.59633 15.9898-7.48414-1.53086-15.98765-8.67428-15.98765-13.7771 0-4.25236 10.7151-14.45924 15.30764-14.45924 1.36073-.17009 4.42088-1.18873 6.80219-2.54948 2.7215-1.61589 6.37906-2.42642 10.88653-2.42642zm-111.57669 6.92093c1.41013.0998.91954 1.37359-2.04648 3.66985-2.72151 2.04113-8.5041 6.97221-12.92655 10.88437-9.52525 8.6748-13.09803 9.52721-9.35598 2.38326 2.55141-5.10283 10.03712-11.39674 17.86143-14.96871 3.12547-1.4139 5.37082-2.04638 6.46758-1.96877zm238.12857 33.77566c2.55141 0 3.57258 4.25339 1.87162 6.974894-.85044 1.53084-1.5327 1.53173-1.5327.34108 0-1.02057-.50864-3.065114-1.01893-4.595964-.51027-1.53084-.34055-2.72001.68001-2.72001zm-217.89253 146.282774c2.5514 0 3.06303 6.12189.51162 7.65273-3.40186 2.21124-20.07056 38.9518-23.64253 52.72941-.85047 2.72151-2.21107 6.97467-3.23163 9.35598-2.21123 5.27292-5.95455 23.81302-9.52653 47.62615-2.21121 13.7776-2.72001 29.59464-2.72001 69.22651.17009 28.23557.84891 53.91827 1.86947 56.97996 2.55142 8.67479 4.0833 37.08285 2.04217 37.08285-2.21121 0-3.91164-9.86536-3.91164-23.81307 0-6.29347-.85369-12.07911-2.04433-13.26978-2.72151-2.7215-5.10229-64.12413-3.91164-98.99338 1.53085-43.88422 8.33609-79.0927 21.94361-112.26101 5.2729-13.26732 9.18432-19.73029 16.15817-27.72471 2.38131-2.55141 5.27261-4.59164 6.46327-4.59164zm223.06919 11.85149c1.3953-.0232 3.45516 1.26571 4.51824 3.28559 10.20563 20.24116 14.45643 29.76586 16.66765 37.59017 5.61309 20.41126 7.99597 32.48942 7.99597 41.67449 0 5.27292 1.18917 14.79787 2.72001 21.26144 2.21122 9.86544 2.55201 20.57914 1.87163 63.2727-.34018 30.44679-1.53106 54.26204-2.55162 58.3443-1.19066 3.74206-2.72228 12.5865-3.57273 19.56034-1.19067 9.69535-1.52875 4.25242-.84838-23.81307 1.36075-62.76463 1.01788-111.0708-1.02325-117.36427-.85045-3.2318-1.69892-10.54508-1.69892-16.15818 0-5.78319-1.1909-14.79906-2.55164-20.07197-1.36076-5.443-2.55162-11.90784-2.55162-14.45924-.17011-2.55141-1.18874-6.46306-2.54948-8.84437-1.36076-2.38131-2.38155-5.61288-2.55164-7.31381 0-1.70096-3.40254-10.03674-7.65489-18.54144-4.25235-8.50468-7.65489-16.15793-7.65489-16.83817 0-1.08435.59838-1.57055 1.43556-1.58451zm-58.4177 51.25067c11.05611-.51029 38.09985 16.67091 30.78581 19.56251-1.87102.68035-5.1014-.001-8.50328-2.04217-3.91216-2.38133-8.67478-3.0611-19.73089-3.0611-12.58695-.17009-15.47751.50938-22.62145 4.59164-4.42245 2.55141-8.50633 4.5938-8.84652 4.5938-.51029 0-.84838-1.70257-.84838-3.91379 0-6.12338 10.54514-14.79682 21.94144-18.36873 2.38131-.68037 5.95223-1.36216 7.82327-1.36216zm-109.1114.18133c2.11023-.0319 4.67568.0322 7.90747.15974 13.43742.34019 14.96678.68134 22.45091 6.12436 8.67478 6.1233 11.05594 9.86655 8.16436 12.75815-1.19067 1.19058-2.71981 1.18762-5.1011-.34323-14.28789-8.84489-39.63451-9.3557-49.49994-1.02109-3.06169 2.7215-7.652 3.06392-9.01275.8527-1.36076-2.04113 5.10089-9.86553 12.41492-14.79817 4.08226-2.67899 6.34545-3.63678 12.67613-3.73246zm53.3209 55.77971c10.71592 0 15.81883.85031 20.58145 3.23163 7.14393 3.57197 15.64871 11.05728 15.64871 13.6087 0 3.06159-3.23329 3.74088-7.14544 1.18948-2.21123-1.19067-9.52452-3.74126-16.15818-5.44219-13.60751-3.40188-20.92081-2.38222-35.88906 4.59163-3.91216 2.04113-8.33461 3.06193-9.86545 2.55164-2.21121-.85047-2.21203-1.53129.50947-5.10326 1.70094-2.21122 6.46364-6.46439 10.71598-9.35598 6.97385-4.93273 8.67539-5.27165 21.60252-5.27165zm-71.8429 29.13004c5.54931.0426 11.28837.55188 14.69024 1.48738 6.80375 1.87105 20.24251 12.58882 20.24251 16.33088 0 2.55141-5.10349 3.2297-7.65489.84839-3.57198-3.06169-18.88028-6.97274-27.89525-6.97274-6.97386 0-12.24676 1.35904-19.73091 5.10111-14.96824 7.31404-18.03046 6.46489-10.88652-3.57056 3.40187-4.76263 10.54693-9.69639 17.69089-11.90762 2.63643-.9355 7.99462-1.35937 13.54393-1.31684zm146.79439 6.32944c9.29159.25528 18.72714 3.56652 26.76407 9.78557 6.63365 4.93272 7.99293 10.88653 2.72002 10.88653-1.87104 0-3.73856-.68006-4.41894-1.53054-1.36075-2.38131-18.2031-6.97274-25.00686-6.97274-7.48412 0-21.76964 3.90978-27.04255 7.31166-2.72152 1.87103-4.93288 2.21219-6.63381 1.19162-3.74207-2.3813 2.55083-9.86337 12.92654-15.64656 6.32537-3.57197 13.46474-5.22396 20.69153-5.02554zm-73.48354 41.14776c6.78248.0638 13.75546 1.12575 18.26294 3.16688 9.69536 4.42243 17.8586 13.09773 15.1371 15.81925-1.70093 1.70093-3.23246 1.53122-7.65489-.68001-15.81876-8.1645-32.31718-8.33511-46.60507-1.02108-4.76263 2.5514-9.01455 4.083-9.6949 3.57272-3.74208-3.74206 2.89233-12.5868 13.43816-18.0298 3.74206-1.95608 10.33416-2.89175 17.11666-2.82796zm56.06682 47.75351c4.03973.0212 8.03681.74531 10.84336 2.19112 5.27291 2.72135 14.28856 13.60669 12.58762 15.30763-2.04112 1.87089-6.12465 1.01953-9.52652-2.04216-2.38132-2.21121-6.29528-2.89056-15.48034-2.89056-8.84488 0-13.43631.84944-16.83818 2.89056-5.78319 3.91217-7.99166 3.91172-7.99166-.17054 0-3.40189 7.14313-9.52558 15.30763-13.26763 2.97664-1.36076 7.05837-2.03968 11.09809-2.01842zm-108.88906.0842c8.01904-.085 16.47405 2.95711 22.43796 8.57021 7.14394 6.80375 3.91186 13.43586-3.40217 6.80219-5.27291-4.59253-26.02334-4.08219-32.4869.85054-2.72151 2.21122-5.95263 3.9138-7.14327 3.9138-6.46358 0 1.52958-14.28794 10.20436-18.02981 3.18927-1.38202 6.745-2.0683 10.39002-2.10693zm-88.67028 44.06207c.78979.1238 1.009 3.00265.8894 9.58049l-.1727 9.8676-1.53055-8.3349c-.68039-4.76262-1.01974-9.01712-.50946-9.8676.46776-.7229.84879-1.14759 1.15708-1.23264.0578-.0159.11356-.0211.16623-.013zm76.06756 173.38144c6.12338 0 10.54635 6.29542 15.81925 22.11415 2.04113 6.63366 4.76271 12.92707 5.78327 13.94762 1.19066 1.19066 2.04433 3.39972 2.04433 4.93056 0 1.53086 1.18871 3.74207 2.54947 4.93273 1.36074 1.19067 2.55163 2.89108 2.55163 3.91164s1.18961 3.23392 2.89056 4.93488c2.8916 3.23178 3.57122 14.79877 1.36 21.60252-1.53083 4.93273-5.61034 4.42067-7.99166-.68216-1.02056-2.38131-2.72269-4.08128-3.74325-3.7411-1.87104.68038-2.04113 5.10147 0 14.28655.85047 4.42243.51005 5.44487-2.55164 6.46543-4.42244 1.36075-8.67598-1.70191-8.67598-6.12435 0-1.70094-.84846-5.1035-1.69892-7.6549-2.38132-6.29346-5.95381-2.89151-5.95381 5.78327 0 5.10282-.67896 6.46416-3.57056 6.80436-4.42244.68037-9.01811-4.5915-11.05923-12.75601-2.55141-9.86545-3.2306-54.60267-1.18947-63.44756 1.02056-4.25235 3.40277-9.35316 5.2738-11.56438 2.04113-2.04113 5.44071-3.74325 8.16221-3.74325zm127.5708 20.66778c2.50888-.12758 5.19032 1.36072 8.33706 4.50746 5.95328 6.12338 6.97265 13.77828 6.12218 47.11668-.51028 27.04491-3.23134 38.27045-9.6949 41.67234-4.93272 2.7215-5.44338 2.04008-4.25272-6.9749 1.19066-8.1645 1.01988-8.50625-2.72217-7.99597-2.8916.34019-4.081 2.0435-5.27165 7.48651-1.53085 8.67478-5.78462 12.75674-11.22762 11.39599-3.23179-.85046-3.74148-1.87244-3.06109-6.29488.34017-2.8916 2.37998-9.52482 4.4211-14.62764 1.87103-5.10281 3.57273-10.20534 3.57271-11.39598.00002-4.08226-6.63314-2.21145-8.84435 2.38108-3.06169 6.29347-7.82217 9.01676-9.86329 5.61489-2.21124-3.57198-2.0441-10.37573.50731-14.79817 7.14394-12.58694 13.60965-25.85606 14.80032-30.2785 2.7215-9.52525 5.95112-17.00835 9.86329-22.62145 2.46636-3.31683 4.80494-5.06011 7.31382-5.18746z" style="stroke-width:1.10528"/></svg>