<svg height="960" style="" width="1040" xmlns="http://www.w3.org/2000/svg"><path d="m519.18615-150c-8.25151 11.73965-18.70482 18.0619-31.71971 17.87437v50.3266l13.69882.80581c.37908 1.70473.6638 3.39264.8058 5.2744 0 30.41807 1.28285 60.89943-3.44302 91.12996-1.20022 7.68892-.84563 16.34538-6.95925 22.19645h-49.3743c-2.32542-3.07556-4.42461-5.91319-6.29999-8.35114h-30.84058v57.21263h30.76733l8.86396-11.13485h28.2034l10.54881 7.39881v102.33808c12.21692-2.23465 24.77748-3.44302 37.65337-3.44302 12.75233 0 25.20225 1.08887 36.04173 3.07674v-101.89854l11.86744-7.25231h28.0569l9.15692 10.98834h29.22899c2.32543-17.96579 2.00546-46.96094-.73254-57.72541h-28.5697l-7.17904 8.49765h-49.22776c-9.15167-22.3916-9.17804-59.56384-8.27788-115.52408 0-.82515.97751-1.62979 1.4651-2.41744l10.76859-2.12441v-49.22776c-13.70936-2.16072-13.84382-2.38069-25.19996-12.74648-2.77547-1.98786-5.77778-3.73662-9.30343-5.2744zm82.19277 258.51901c-1.27523-.33756-2.85757.61301-4.39535 1.02558v12.74648c25.6547 10.20186 50.58799 19.94545 75.38003 30.03479 4.01323 1.72532 9.09657 2.17482 10.10926 7.83835-17.62823 9.11417-20.37092 14.41026-16.9953 34.06386-23.36678-6.97628-44.49308-18.73468-68.34745-25.78597v16.11623c20.32872 8.214 39.86218 16.49071 59.70332 23.95458 6.7887 2.62548 14.13596 5.22107 22.04991 1.24534 4.53833-2.28792 9.62872-1.01737 14.50462 1.75814 12.30225 6.97628 25.00654 13.31904 37.94641 20.14528v.14654c.63761 13.20238 5.78131 25.20165 13.84528 34.50335 13.27743 16.61554 26.84322 33.11271 39.55805 50.25335l.1465.1465c6.52619 9.52675 16.64074 16.39227 28.64294 18.68019 8.36403 20.51625 16.73039 40.95926 24.90689 60.87541-7.83894 12.52729-10.75802 24.28337-6.51975 38.38595 5.85107 19.24102 10.01257 39.02237 14.13833 58.75098 2.85052 13.80253 7.08707 26.47692 18.82668 34.50339-5.28843 22.9167-10.38996 45.00532-15.60342 67.3219-14.02756 4.27579-21.43048 14.95587-27.5441 26.95807-7.91087 15.18739-15.44975 30.78376-24.76038 45.12545l-.14654.21975c-6.96038 10.04906-10.98832 22.23602-10.98832 35.38244 0 3.78819.27894 7.57875.87905 10.84185 0 1.01268-.13949 1.99431-.43954 2.85697l-37.72662 55.45447c-12.26475-2.06288-21.23125 2.64367-29.59524 10.18255-9.7893 8.81411-20.6493 16.56806-30.40108 25.41968-14.47765 13.1274-32.63859 22.76314-38.75221 42.34174l-53.40337 11.5011c-.00078 7.4286-.1106 13.5975-.0733 20.5116.0375 6.9388.29305 13.9004.29305 22.4895l70.32537-14.6512c17.21565 9.1142 33.26567 4.9761 48.56847-8.8639 16.16546-14.7027 33.23048-28.3534 50.03356-42.26847 9.05742-7.5229 14.9999-16.45524 14.57787-28.64294v-.0733c-.0322-.45984 0-.92864 0-1.39185 0-5.88857 1.86653-11.36341 5.05461-15.6767 13.01488-18.79094 25.77487-37.71961 38.75225-56.7731 15.3028-1.23773 24.56287-10.50545 31.42663-23.29529 10.09156-19.13657 20.58992-38.26357 31.42666-57.0661 4.46332-7.27633 7.03254-15.8285 7.03254-24.98017 0-5.13312-.85009-10.09029-2.27093-14.43133-.86266-2.7005-1.31859-5.57037-1.31859-8.57092 0-1.23773.0697-2.46608.21975-3.51627.93767-6.48869 3.08262-12.7793 4.39536-19.19298 3.93822-19.09099 11.0311-37.72545 10.76856-58.09168 14.50109-11.57121 17.7862-26.11487 12.74648-43.95336-5.8912-19.24264-10.79043-39.07428-15.01741-62.3405l-.0732-.21976c-2.06288-14.89026-11.12724-27.59511-23.95459-34.79643l-29.37549-73.4021c6.37617-15.07776 2.58505-28.13132-7.69183-40.5836-14.85272-18.05333-29.17352-36.43128-43.00106-55.23473l-.0732-.14651c-6.67623-9.7893-17.75951-16.25571-30.47433-16.55577h-.14651c-5.13844-.41257-10.04831-1.81967-14.21157-3.88255-6.86376-3.18808-13.28505-7.42518-19.99878-10.98834-9.78929-5.21345-19.67704-10.25578-28.71619-14.94414-4.98842-19.05349-9.82271-24.56114-26.73831-31.49991-18.71593-7.80143-37.32286-15.57414-56.1138-23.07551-6.86376-2.77551-14.1893-4.78564-21.39062-6.88603zm316.97699 374.55588c.32935 1.07581.61669 2.22412.9523 3.29651l-1.02555-3.88256c.0591.20273.0162.38419.0732.58605zm-474.62304-371.18612c-21.41642 6.75124-41.66544 14.23151-62.70679 19.6325-18.60341 4.68836-32.72358 13.16491-36.77432 32.81851l-68.42073 32.15921c-12.86485-5.10094-24.30679-1.46863-34.28362 8.05812v.0733c-3.2631 3.07556-6.26892 6.43184-9.15695 10.18253-14.25261 19.12848-28.38391 38.33965-42.5615 57.50566h.0733c-3.86322 4.72586-6.22673 10.76034-6.22673 17.36155v.95234c.45008 6.97628 1.26703 13.97307 1.90464 21.02436-9.18918 23.77936-18.35492 47.78431-27.5441 71.86372-14.77771 9.56425-19.11385 15.31807-22.48947 30.62087-5.04703 23.10419-10.15664 46.15869-14.94414 69.29979-.78765 3.11307-1.17209 6.36739-1.17209 9.74301 0 9.48924 3.24317 18.22714 8.64415 25.05339 2.1379 2.81301 4.59811 5.32188 6.88603 7.98487l-1.90464.58604c4.68835 26.29232 9.37144 52.68485 14.28484 80.21489-10.61444 14.44015-6.70259 29.52961 1.09883 44.83241 9.93932 19.39105 19.96655 38.76511 29.15573 58.53123l.0733.29304c4.95091 11.66464 15.5548 20.38202 28.56968 22.7825 13.31494 18.86595 26.29642 37.18686 38.89873 55.52771 2.85052 4.05075 6.08021 8.97821 6.08021 13.47903-.075 15.86541 7.89813 26.77582 19.41273 36.11503 17.02812 13.72752 33.93631 27.46542 50.83938 41.24292 13.76502 11.2145 28.40444 15.3139 44.83245 5.7872.63761-.4876 1.97203-.3716.65929-.1465l76.77187 13.9918v-43.4406l-60.14286-11.20808c-3.41312-12.75237-13.03772-20.47703-22.48945-28.20344-13.72752-11.28957-28.18349-21.70241-41.53593-33.40455-10.877-9.37672-22.03589-16.37644-36.70106-14.65112-13.23992-18.79094-26.00515-36.94367-38.53245-54.72192 6.45118-13.72752 4.502-25.8012-1.61162-37.65337-9.15167-18.07831-18.47799-36.08806-27.10457-54.42892-6.15113-13.16491-13.1362-25.23743-27.76388-29.88828-4.23827-22.24157-8.28491-43.49214-12.67321-66.29632l.0733-.0733c8.92663-7.42635 15.66145-15.87774 17.87436-27.61735 3.78819-20.85382 7.64027-41.78854 12.96624-62.26729 4.08825-15.67787 4.31622-29.92695-6.37324-42.34173 8.36404-21.49143 16.2352-42.10791 23.66156-61.46145 18.49089-7.16381 18.5577-6.89365 30.0348-22.19645 11.02702-14.59017 21.30566-29.77577 32.74525-43.95336 8.13899-10.08935 14.69448-20.59011 15.96971-34.43015l57.65218-27.03129c11.92719.71263 21.41346 3.23145 29.81504 1.3186 18.34086-4.42581 36.41152-10.85297 55.01492-16.62903-.30005-5.88857-.54325-10.75626-.8058-15.96971l-61.75445 18.53366c3.8632-17.62823.0427-30.02073-18.97323-35.3092 26.92993-14.10258 54.88722-17.77122 80.65443-28.42317zm-175.59368 98.45553 16.84879 25.78597.14651-.0733v.0733c-.11252 2.47546-.7812 4.75164-1.83139 6.7395-16.50302 22.42911-33.30375 44.64082-50.10683 66.88236-.22504.45012-.97752.43954-1.46511.43954-13.05239-17.70324-13.03305-17.71262-33.62432-19.92552 4.01323-6.48869 7.23062-12.54312 11.28136-18.09414 12.22724-16.9531 24.76333-33.6413 37.14059-50.10682 6.30116-8.40153 7.47031-8.98289 21.6104-11.72089zm251.63301 8.05811c-23.40429 0-46.01917 3.37738-65.71027 9.30345l-1.53839.36629c-50.40923 14.70269-93.31179 46.9967-122.1171 90.61719-6.86372 10.3894-12.72068 20.34924-24.76039 25.71272h-.0733c-6.30115 3.18808-10.75626 9.56718-11.28136 17.06855-1.27523 11.06453-2.22462 22.15602-2.6372 33.25805-.45008 12.26471.19808 24.54705-.43953 36.77429v.21979c-.33756 9.48923-1.67668 18.78681-3.58953 26.73827-2.66298 10.72696-6.91591 21.06948-10.32903 31.64641-4.42582 13.69001-6.93116 27.83715-3.44302 41.90223 5.476 21.94151 21.63032 34.83743 41.09639 44.02661 2.25041 1.0877 5.65945-.29304 7.98487-.29304 3.52565-6.75124-.97638-10.70585-3.07676-14.94413-3.11307-6.30115-7.17491-12.42006-10.47552-18.53368-6.0011-11.32707-3.67395-21.57815 4.61507-30.76733 3.47666-3.32378 7.13238-6.42193 11.35464-9.52326 6.60121 1.20022 14.03166 1.21605 20.14528 4.02907l.80583.29304c9.56425 4.3883 18.53132 9.92758 26.44527 16.11621 15.11527 11.88968 23.42536 27.58923 22.56271 47.54288-.48759 9.67677-.5251 19.40572 0 29.08249.45008 7.27633 1.98906 14.72381 3.07672 22.56274h17.21509c5.51351-6.07611 9.06961-13.93087 9.66972-22.7825 3.34667-28.00022 20.49072-43.95542 45.27199-52.89053 15.65514-5.6953 32.4964-8.86396 50.10681-8.86396 16.353 0 32.09474 2.67473 45.78475 7.32558 27.07996 8.55156 45.88087 24.92916 49.59405 55.23471.90017 7.68891 2.65947 16.16839 9.52322 21.75691h17.28834c.97518-8.28902 2.37111-15.75813 2.78369-23.222.41257-9.18918.37507-18.28167 0-27.47086-.86266-23.06672 9.71604-39.88446 28.0569-52.52428 12.93987-8.96414 25.99109-18.2553 43.80686-14.50461l.21975.14654c2.36293 1.57528 4.6034 3.29179 6.66628 5.05461 11.4396 10.72696 13.46204 21.49965 6.37324 35.60223-2.81301 5.4385-6.15465 10.49723-9.23021 15.82321-2.42703 4.29397-6.02863 8.25162-4.32211 14.57787v.0733c1.58932.80246 3.24742 1.35302 5.12791 1.68488h.36629c1.98786 0 3.91887-.52922 5.49415-1.39184 26.59237-14.17763 44.09285-32.78982 39.70455-65.27076l-.1465-1.24534c-2.33522-12.80714-5.9106-25.13606-10.03602-35.67549-.0522-.14372-.0948-.29559-.14654-.43954-.0618-.15674-.0844-.35684-.1465-.51275-5.11578-14.40362-7.9845-29.88623-8.13137-46.07779.075-22.35409-1.01325-44.61502-1.53835-64.83122l.0733-.0732c-6.18863-10.50192-10.46441-17.24671-18.75343-20.58482-6.37617-2.58797-10.13916-7.51191-13.55228-13.62553l-.5128-.95234c-12.00219-20.81631-27.72462-39.27085-46.59058-54.64867-33.97769-27.4737-72.18935-45.22608-116.25662-50.69288-10.58654-1.42992-21.40056-2.19767-32.37897-2.19767zm257.42016.0733c5.47601.78765 8.64181 5.72449 11.8674 9.96277 16.31549 21.52894 34.65751 41.68476 49.96031 66.58932h-.0733c-17.51571-1.50028-29.59232 2.36-31.28013 20.43831-11.43959-8.214-53.18886-61.40343-57.65218-73.2556 5.88858-2.2129 12.75001-3.13182 17.28834-7.03253 4.53833-3.90072 6.5139-10.58865 9.88951-16.70227zm-195.81221 100.87293c3.23028-.65169 6.37966-.0293 9.23018.43954 25.80476 4.12575 51.5368 8.73674 76.47886 17.2883 14.59017 4.98841 25.17356 14.44074 35.67548 24.98017 11.32708 11.21456 8.38808 42.74902 2.12443 51.9382v.0732c-3.56315 5.40103-9.72602 9.01046-16.70229 9.01046-1.0877 0-2.13906-.0698-3.07673-.21975-28.01763-3.18812-55.98136-6.23672-83.5114-13.62557-14.10258-3.75068-24.836-14.09906-26.29877-32.96501-1.35025-17.14064-2.60905-34.28596-3.80927-49.81381 3.38169-4.53953 6.67108-6.4565 9.88951-7.10578zm-124.46129.293h.14654c3.90072.37507 7.58048 1.28697 10.76856 2.63722l.0732.0733c.54843 6.28401.87909 12.70159.87909 19.11973 0 14.62767-1.51611 28.86386-4.02907 41.31614-2.43794 12.41477-9.49628 22.49065-23.14878 25.56621-12.26475 2.81302-24.32377 6.32224-36.70104 8.49763-14.92773 2.58798-29.93869 4.43343-44.97894 5.9337-16.76557 1.68781-25.71389-3.7149-28.78945-23.3685-4.16326-27.75508 9.98268-51.08439 38.82546-60.94866 20.40373-6.97628 41.84768-11.0206 62.92654-15.8965 7.72368-1.65139 15.67116-2.67697 24.02784-2.93022zm63.58588 36.48132c6.03047-.07 12.01619 3.37595 17.36156 10.47555l.0733.0732c12.52039 16.51675 21.14217 36.01758 24.83363 58.09169 1.80033 10.87699 2.15841 22.42205-2.41743 33.11151-1.98786 4.53833-4.16739 8.98875-6.08024 13.03953-13.76502 4.50078-22.06398-1.06254-30.84058-8.86397-3.37562 1.23773-7.05891 2.49129-10.62206 4.02907-2.32543.97518-4.37837 2.57511-6.66628 3.6628-11.96755 5.53497-20.75964 2.03194-25.34643-10.10929-2.52496-6.96938-3.88256-14.47844-3.88256-22.34296 0-4.83838.49171-9.57303 1.39188-13.69878l.1465-.80584c3.56315-19.76612 11.60545-38.029 22.78249-53.25682.63762-.78765.93828-1.84954 1.53839-2.63719 5.55101-7.10755 11.67048-10.69823 17.72784-10.76856zm-357.48733 42.04868.0732.0733c4.20077 4.87586 10.34955 7.91159 17.28833 7.91159 2.62548 0 5.15016-.42195 7.32556-1.17209 6.82625 6.41367 6.3369 14.25553 4.76161 21.75691-4.68836 22.69165-9.88247 45.18054-14.87089 67.83469v.1465c-1.05019 6.97628-4.99603 12.98559-10.62206 16.8488-6.5637-.97518-13.76619-5.5973-21.83017.36629l-10.25573-11.4279v-.293c.26255-5.25096.82573-10.48437 1.53837-14.79766 4.57583-22.20407 9.31068-44.36204 14.21158-66.51607v-.21979c1.27523-8.28902 5.81825-15.48741 12.30694-20.43828zm712.55723 4.24885c10.76447 4.50083 11.88791 14.88142 14.13833 23.80805 5.17594 20.47875 8.214 41.50079 14.06507 61.7545 3.41313 11.85217.12719 19.46017-8.42442 26.81152h-21.17086c-7.01378-4.42581-9.59178-11.13602-11.3546-18.89994-5.47601-24.52949-11.57147-48.93239-17.94764-75.59978l4.3221-10.10926c5.21346 0 10.37182-.56497 14.79763-1.46513l.36629-.1465c4.05074-1.68781 7.86999-3.75302 11.2081-6.15346zm-199.84128 158.2321c-4.26329.23569-6.79013 3.11697-8.71742 7.32554-3.85889 8.55071-6.00695 17.98912-6.00695 27.98365v.21975c.0499 19.82981-.0457 39.67863-.21979 59.48357v.1465c.0313.77666.0733 1.56753.0733 2.34418 0 10.57694-3.06618 20.39496-8.20462 28.49644l-16.04297-.73258c-5.21345-12.5648-9.79282-23.33629-18.60693-32.52547-12.22724-12.71483-27.19833-20.39259-43.51382-27.03131-44.03306-17.70324-86.58051-12.16689-127.53801 8.42438-20.36623 10.23937-36.32596 26.05205-41.38939 49.08126-8.66409 4.08825-8.63712 4.0818-18.31389 1.83139-4.45154-9.00942-7.14022-19.06444-7.39883-29.81504-.18754-20.44124.42664-40.83969-.58605-61.16841v-.36629c-.90016-9.8268-3.14765-19.25861-6.37324-27.3976-2.02537-5.92609-7.25874-8.14425-14.79762-4.46857-1.32635 7.02623-2.24051 14.24871-2.56397 21.90341.30006 15.71537 1.73882 31.4255 2.56397 47.10337 1.12521 21.82896 1.19084 43.70252 3.51627 65.34398l.1465 1.17209c1.98787 14.89022 5.43148 29.30869 9.66972 41.53593 4.53833 14.55266 24.16031 30.08519 43.51386 26.37201l.58604-.0732c7.31384-1.95035 14.18169-5.00424 20.14528-8.71742 15.92725-8.48461 31.29404-18.01781 47.46963-25.93247 10.68945-5.66354 22.91785-8.86396 35.89523-8.86396 5.85107.00004 11.5316.63293 16.48251 1.75817l1.31863.293c13.69 3.75069 26.84085 9.01632 38.09291 15.01742 11.77715 5.77605 22.47948 13.57804 33.84409 20.29177 23.44176 13.95256 52.06302 4.23359 60.80212-21.68365 4.5991-13.38557 7.81373-27.47885 9.37672-42.85453 2.32543-25.27962 2.57158-50.72042 3.80931-76.11257.22504-4.50082 1.2758-8.9407 1.53834-13.47903.75014-15.00275 3.49928-30.22056-3.58952-44.17311-1.88472-.58136-3.52913-.81285-4.98136-.73255zm-484.43929 50.83936c2.85052 4.57584 5.16071 7.75751 6.88603 11.2081 10.26208 20.29947 20.32339 40.68636 30.54758 60.94866l.0733.0733c2.44417 3.95814 3.80929 8.63404 3.80929 13.62553 0 2.55047-.31471 4.9679-.95232 7.10579h-.0733c-10.72696-.22504-18.46451 5.02532-24.54063 12.52669h-.0733c-5.85107-.78764-10.71231-4.52775-13.11275-9.81622-12.11817-24.38595-24.21888-48.79621-36.18827-73.18235v-.0733c-.024-.0489-.0492-.0976-.0733-.14654-.71273-2.48715-1.17243-5.10412-1.24534-7.83833 16.20297 6.0011 27.55407 1.73409 34.94292-14.43137zm653.58645 1.24538c7.08797 17.17124 17.52092 22.74037 33.9906 17.87435v.1465c-.18754 3.48814-.85621 6.81747-1.83139 9.74301-11.92718 22.3916-24.18604 44.56577-36.18824 66.88235l-.0733.14651c-2.85053 6.22614-8.51639 10.87991-15.53017 12.38019-6.22614-6.03861-11.71797-14.83982-22.7825-13.03949-1.35025-7.20132-1.61047-13.01312 1.46509-18.82668 13.16492-23.92939 26.09717-48.00174 40.94989-75.30674zm-324.15603 149.66117c-12.24599.13128-24.591 3.72609-37.28707 10.40231h.1465c0 40.73246.15528 80.49439-.21975 120.13919-.3001 32.0309.36333 63.9463 6.73949 95.452 4.20077 20.8914 9.76233 41.4211 23.00225 58.8243.93767 1.0502 1.9498 1.921 3.15002 2.7837h9.74297c2.2231-2.7755 4.35545-5.6787 6.44649-9.0105 3.34918-5.9338 6.39128-12.1356 9.37672-19.4859 9.46778-25.6216 14.83168-53.2236 15.09066-82.1928 1.05019-51.0469.6593-101.98588.6593-152.95771v-13.77207c-12.39602-7.01378-24.60158-10.31379-36.84758-10.18252zm21.09762 259.1051c-.13026.3525-.16117.747-.29301 1.0988l.58605-1.6849c-.0904.225-.20258.3634-.29304.5861zm-245.33298-236.10285c23.89187 18.5284 48.26957 37.96633 70.39862 57.43239-4.27578 11.21456-7.74869 20.31346-11.57439 30.32786h-.0733c-7.12631 5.326-14.16938 1.4791-20.65807-3.8093-15.07776-12.0022-30.16374-24.03429-44.97895-36.26153-6.90127-5.77609-15.38544-9.91239-19.99878-18.31392 6.37616-3.45064 13.33955-5.23338 17.72785-10.10927s6.08139-12.21493 9.15697-19.26623zm442.90333 1.90464c2.36 21.01517 3.90772 22.84074 26.51855 28.93599-23.81686 23.17924-48.26316 42.76542-72.23005 62.19402-2.18406.2473-4.45098.3663-6.7395.3663-.5626 0-1.05079 0-1.53838 0l-.36625-.073c-2.7005-.4876-5.26094-1.1188-7.39883-1.8314-.5626-4.7259-1.12052-9.1874-1.75814-14.1383l-9.52321-12.2337.1465-.2198c1.98786-3.3381 4.33204-6.41895 7.03254-9.15695 21.97902-17.51571 41.92738-37.6024 65.85677-53.84287z" style="stroke-width:37.5069"/></svg>