<svg height="960" style="" width="1200" xmlns="http://www.w3.org/2000/svg"><g style="stroke-width:.455399"><path d="m707.47419 772.37552c-15.0282 11.8404-15.939 30.9671-1.3662 43.7183 15.4836 14.5728 26.4132 15.939 43.2629 5.9202 12.2958-7.7418 14.5728-11.385 14.5728-26.8686 0-13.6619-2.7324-20.0375-10.0188-25.0469-14.1173-10.0188-31.8779-9.108-46.4507 2.277zm-262.7653 0c-14.5728 14.5727-10.4742 40.0751 8.1972 51.0047 8.1971 4.554 18.6713 7.2864 23.2253 5.9202 15.0282-5.0094 28.2348-20.9484 28.2348-34.155 0-27.7793-39.6198-42.8075-59.6573-22.7699zm447.202-184.4367c-20.0376 25.5023-6.3756 56.4695 24.5916 56.4695 13.2065 0 17.7605-2.7324 25.0469-15.0282 11.8404-18.6714 11.385-22.3145-2.7324-39.1643-15.0282-18.216-33.6995-19.1268-46.9061-2.277zm-628.90632-.9108c-12.29578 13.2066-13.20658 30.0563-2.7324 45.9953 5.92019 9.108 11.38498 11.385 25.50236 11.385 15.93897 0 19.58216-2.277 27.32395-14.5728 10.01878-16.8498 8.65259-27.7793-5.92019-43.7183-12.29578-13.2066-30.96715-12.7512-44.17372.9108zm328.79822-210.3945c-2.277 3.1878-5.4648 16.8498-6.3756 30.0564-1.3662 13.2066-3.1878 25.047-4.554 25.9578-.9108 1.3662-8.1972-.4554-16.3943-3.1878-18.216-6.831-22.3146-2.7324-15.4836 15.4835 2.7324 8.1972 4.554 15.0282 3.6432 16.3944-1.3662.9108-10.9296 2.7324-21.8592 3.6432-34.6103 4.0986-40.0751 5.9202-40.0751 15.4836s5.4648 11.385 40.0751 15.4835c10.9296.9108 20.493 2.7324 21.8592 3.6432.9108 1.3662-.9108 8.1972-3.6432 16.3944-6.831 18.216-2.7324 22.3146 15.4836 15.4836 8.1971-2.7324 15.4835-4.0986 16.8497-2.7324s3.6432 14.1174 5.0094 27.7793c1.3662 17.3052 5.0094 26.8686 10.0188 30.5118 10.9296 6.831 14.1174 1.8216 17.7606-29.601 1.8216-15.0281 4.0986-28.2347 5.0094-29.1455.9108-1.3662 8.1972.4554 16.3943 3.1878 18.216 6.831 22.3146 2.7324 15.4836-15.4836-2.7324-8.1972-4.554-15.0282-3.6432-16.3944 1.3662-.9108 10.9296-2.7324 21.8592-3.6432 34.1549-4.0985 40.0751-5.9201 40.0751-15.0281 0-10.0188-8.6526-14.1174-28.6901-14.1174-24.5916 0-35.9766-5.0094-32.3334-13.2066 1.3662-4.0986 4.0986-12.2958 5.4648-18.216 1.8216-9.5633.9108-10.4741-8.6526-8.6525-5.9202 1.3662-14.5728 4.0986-18.6713 5.9202-6.3756 2.2769-8.1972-.9108-10.4742-19.1268-4.554-35.5212-6.831-42.3521-13.2066-42.3521-3.1878 0-8.1972 2.7324-10.9296 5.4647zm300.1081-51.4601c-12.2958 12.2958-12.2958 32.3334 0 47.817 11.8404 15.0281 31.8779 15.9389 44.6291 1.8216 14.1174-15.0282 15.4836-25.047 6.3756-41.4414-10.9296-18.6713-36.4319-22.7699-51.0047-8.1972zm-631.63872 2.7324c-10.47418 15.939-9.56338 32.7888 2.7324 45.9954 13.20657 13.6619 31.87794 14.1173 44.17372.4554 14.57278-15.4836 15.93897-26.4132 5.92019-43.263-7.74179-12.2957-11.38498-14.5727-27.32395-14.5727-14.11738 0-19.58217 2.277-25.50236 11.3849zm462.68562-194.91082c-3.6432 1.36619-11.385 6.83098-16.8498 11.84038-30.5117 27.32395 13.662 70.13144 47.8169 45.99532 7.2864-5.0094 10.0188-11.38498 10.0188-25.04696 0-15.48357-2.277-19.12677-14.5728-26.86855-15.9389-9.56339-15.9389-9.56339-26.4131-5.92019zm-269.5963 4.09859c-23.6808 12.75118-22.77 48.27232 1.8215 58.7465 16.3944 6.83103 24.1362 5.00943 39.1644-8.19719 12.7512-11.84038 13.2066-31.87794 0-44.17372-5.4648-5.00939-11.385-9.10799-13.2066-9.10799s-5.9202-.9108-9.5634-2.27699c-3.1878-.9108-11.385.9108-18.2159 5.00939zm110.2066-135.7089629c-8.6526 1.8216-27.7794 10.4741799-42.3522 19.1267699-14.5727 8.65258-31.8779 18.67137-38.2535 21.85916-16.3944 9.10798-39.6197 3.18779-53.2817-13.20658-15.4836-18.21597-27.324-15.93897-29.1456 5.00939-2.7324 40.07514-4.554 44.17373-25.04692 52.37091-10.47418 4.0986-28.23475 9.56339-39.61973 11.38499-39.16433 7.286373-56.4695 15.938963-79.23946 39.164323-23.22536 22.76996-31.42255 39.61973-39.16434 79.23943-4.55399 24.1362-13.20657 50.5493-18.67136 56.4695-1.8216 2.277-16.39438 5.4648-32.33335 6.831-34.15494 3.1878-39.61973 12.2958-17.76057 30.5118 16.39437 13.6619 22.31456 36.8873 13.20658 53.7371-3.18779 6.3756-14.11738 24.5915-23.68076 40.0751-17.76057 28.6902-17.76057 28.6902-17.76057 76.5071s0 47.8169 17.76057 76.507c9.56338 15.4836 20.49297 33.6996 23.68076 40.0752 9.10798 16.8497 3.18779 40.0751-13.20658 53.7371-21.85916 18.2159-16.39437 27.3239 17.76057 30.5117 15.93897 1.3662 30.51175 4.554 32.33335 6.831 5.46479 5.9202 14.11737 32.3334 18.67136 56.4695 7.74179 39.6198 15.93898 56.4695 39.16434 79.2395 22.76996 23.2253 39.61973 31.4225 79.23946 39.1643 24.13616 4.554 50.54935 13.2066 56.46955 18.6714 2.277 1.8216 5.0093 15.0282 6.8309 29.6009 3.6432 34.155 13.2066 40.986 30.0564 20.9484 14.1174-16.8498 36.8873-22.77 54.1925-13.662 6.3756 3.1878 24.5916 14.1174 40.0751 23.6808 28.6902 17.7606 28.6902 17.7606 76.5071 17.7606s47.8169 0 76.5071-17.7606c15.4835-9.5634 33.6995-20.493 40.0751-23.6808 17.3052-9.108 40.0751-3.1878 54.1925 13.662 16.8498 20.0376 26.4132 13.2066 30.0564-20.9484 1.8216-14.5727 4.5539-27.7793 6.8309-29.6009 5.9202-5.4648 32.7888-14.1174 56.4695-18.6714 53.7372-10.0188 83.7935-31.8779 104.2865-75.1409 7.7418-16.3943 14.1173-34.6103 14.1173-40.9859 0-5.9202 4.0986-22.3145 9.5634-35.9765 10.01881-26.8686 11.84041-27.7794 54.19251-30.9672 20.9484-1.8216 23.2254-13.6619 5.0094-29.1455-16.3943-13.662-22.3145-36.8874-13.2065-53.7371 3.1877-6.3756 14.1173-24.5916 23.6807-40.0752 17.7606-28.6901 17.7606-28.6901 17.7606-76.507s0-47.8169-17.7606-76.5071c-9.5634-15.4836-20.493-33.6995-23.6807-40.0751-9.108-16.8498-3.1878-40.0752 13.2065-53.7371 18.216-15.4836 15.939-27.324-5.0094-29.1456-40.0751-2.7324-44.1737-4.554-52.37091-25.0469-4.0986-10.4742-9.5634-28.2348-11.385-39.6198-7.2863-39.1643-15.9389-56.46947-39.1643-79.23943-22.7699-23.22536-40.0751-31.87795-79.6949-39.164323-25.9577-4.554-51.9155-15.48358-56.9249-23.22536-2.2769-3.6432-5.0093-17.76057-6.3755-31.42255-2.7324-30.51175-12.2958-35.0657399-30.0564-14.11738-13.662 16.39437-36.8873 22.31456-53.7371 13.20658-6.3756-3.18779-24.1362-13.66198-39.1643-22.76996-24.1362-15.0281699-31.878-17.3051699-62.8451-19.12676994-19.1268-.9108-42.3522-.4554-51.0047.91080004zm-2.7324 72.4084799c-1.3662 17.30517-5.4648 42.352113-9.108 56.469493s-6.3756 32.33334-6.3756 40.07513c0 14.57278-11.385 39.61969-23.6808 51.91549-4.0986 4.0986-15.9389 10.9296-26.4131 15.0282-25.9578 10.4742-49.6385 4.0986-87.4367-23.2254-81.97183-58.29106-94.72301-67.85445-94.72301-71.04224 0-4.55399 40.07513-17.76057 54.19251-17.76057 15.939-.4554 71.9531-15.48357 91.5352-25.502353 8.6526-4.09859 22.3146-12.29578 30.5118-18.21597 7.7418-5.92019 15.939-10.92958 18.216-10.92958 1.8216 0 10.9295-6.37559 19.5821-13.66197 8.6526-7.28639 20.493-13.66198 26.4132-13.66198 10.0188 0 10.0188.9108 7.2864 30.51175zm128.8779-6.37559c19.5822 13.66197 42.8076 27.77935 51.4602 32.33334 19.1267 9.563383 75.1408 25.046953 91.5352 25.502353 14.1174 0 54.1925 13.20658 54.1925 17.76057 0 3.18779-13.662 13.20658-94.2676 71.04224-36.432 25.9578-60.1127 33.2442-82.4273 25.047-32.3333-11.385-55.5587-39.6197-55.5587-67.85449 0-7.74179-2.7324-26.41315-6.3756-42.35213-3.6432-15.93897-7.7418-41.441323-9.5634-57.380293-2.7324-25.95776-2.277-28.23475 6.3756-28.23475 5.0094 0 25.047 10.92958 44.6291 24.13616zm-400.29587 158.934303c13.20658 18.216 33.24414 45.9953 44.17373 61.9343 27.32395 37.7981 33.69954 61.4789 23.22536 87.4367-4.0986 10.4741-10.92959 22.3145-15.02818 26.4131-12.29578 12.2958-37.34273 23.6808-51.91551 23.6808-7.74179 0-25.95775 2.7324-40.07513 6.3756-14.11738 3.6431-39.16433 7.7417-56.0141 9.1079-28.69016 2.7324-30.96715 2.277-30.96715-5.9202 0-5.0093 10.92958-25.0469 24.13616-44.6291 13.66197-19.5821 27.77935-42.8075 32.33334-51.4601 9.56339-19.1267 25.04696-75.1408 25.50236-91.5352 0-14.1174 13.20658-54.19253 17.76057-54.19253 1.82159 0 14.11737 15.02813 26.86855 32.78873zm658.50727-11.385c4.0986 11.8404 7.2864 26.4132 7.2864 32.7888.4554 16.3944 15.939 72.4085 25.5023 91.5352 4.554 8.6526 18.6714 31.878 32.33341 51.4601 13.2066 19.5822 24.1362 39.6198 24.1362 44.6291 0 8.1972-2.277 8.6526-30.5118 5.9202-17.30521-1.3662-42.35211-5.4648-56.46951-9.1079-14.1174-3.6432-32.3333-6.3756-40.0751-6.3756-15.0282 0-39.6198-11.385-52.3709-24.1362-4.554-4.0986-10.9296-16.8498-15.0282-28.6901-9.108-26.4132-3.1878-46.9062 24.5915-86.0705 51.0048-71.9531 66.9437-93.35683 70.1315-93.35683 1.8216 0 6.3756 9.56343 10.4742 21.40373zm-279.6151 109.2958c39.1643 20.493 65.1221 45.54 86.0704 83.3381 3.6432 6.3756 8.6526 25.047 11.8404 41.8967 20.9484 117.9484-78.3287 218.1363-195.8216 197.1879-56.925-10.4742-94.7231-39.6197-127.0564-97.9108-12.7512-23.2254-12.7512-113.3945 0-136.6198 28.6901-51.9155 67.8545-85.1597 113.3944-96.0892 24.5915-6.3756 94.2676-.9108 111.5728 8.1971zm-418.5119 204.4743c14.11738 3.6432 32.33334 6.3756 40.07513 6.3756 14.57278 0 39.61973 11.385 51.91551 23.6807 4.09859 4.0986 10.92958 15.939 15.02818 26.4132 10.47418 25.9577 4.09859 49.6385-23.22536 87.4366-58.2911 81.9719-67.85449 94.7231-71.04228 94.7231-4.55399 0-17.76057-40.0752-17.76057-54.1925-.4554-15.939-15.48358-71.9531-25.50236-91.5353-4.09859-8.6526-12.29578-22.3145-18.21597-30.5117-5.92019-7.7418-10.92958-15.939-10.92958-17.3052 0-1.8216-5.92019-10.9296-13.66198-20.493-7.28638-9.5633-13.66197-21.4037-13.66197-26.8685 0-9.5634 1.3662-9.5634 30.96715-6.831 16.84977 1.3662 41.89672 5.4648 56.0141 9.108zm787.38531-3.1878c0 5.0094-10.9296 25.047-24.1362 44.6291-13.66201 19.5822-27.77941 42.8075-32.33341 51.4601-9.5633 19.1268-25.0469 75.1409-25.5023 91.5353 0 14.1173-13.2066 54.1925-17.7606 54.1925-3.1878 0-19.1267-21.4038-70.1315-93.3569-26.4131-37.3427-33.2441-59.6573-25.9577-82.4272 10.9296-33.6996 39.1643-56.4695 69.6761-56.4695 7.7418 0 21.8591-2.277 30.5117-5.0094 14.5728-4.0986 61.02351-11.385 85.61511-12.7512 7.2864-.4554 10.0188 2.277 10.0188 8.1972zm-539.64811 199.0095c9.5634 3.6431 20.4929 10.0187 24.1361 14.1173 12.2958 12.2958 23.6808 37.3428 23.6808 51.9155 0 7.7418 2.7324 25.9578 6.3756 40.0752 3.6432 14.1173 7.7418 39.1643 9.108 56.0141 2.7324 28.6901 2.277 30.9671-5.9202 30.9671-5.0094 0-25.047-10.9296-44.6291-24.1361-19.5822-13.662-42.8076-27.7794-51.4602-32.3334-19.1267-9.5634-75.1408-25.0469-91.5352-25.5023-14.11738 0-54.19251-13.2066-54.19251-17.7606 0-2.7324 14.11738-13.662 93.35681-70.5869 43.263-30.5117 61.4789-35.0657 91.0799-22.7699zm253.2019-1.8216c8.6526 2.7324 27.7794 14.1173 42.8076 25.0469 78.784 56.4695 93.3568 67.3991 93.3568 70.1315 0 4.554-40.0751 17.7606-54.1925 17.7606-16.3944.4554-72.4085 15.9389-91.5352 25.5023-8.6526 4.554-31.878 18.6714-51.4602 32.3334-19.5821 13.2065-39.6197 24.1361-44.6291 24.1361-8.6526 0-9.108-2.277-6.3756-28.6901 1.8216-15.4836 5.9202-40.986 9.5634-56.9249 3.6432-15.939 6.3756-34.6104 6.3756-42.3522 0-16.3943 14.1174-43.7183 28.2348-53.7371 25.9577-18.6713 42.8075-21.8591 67.8544-13.2065z" style=""/><path d="m707.47419 772.37552c-15.0282 11.8404-15.939 30.9671-1.3662 43.7183 15.4836 14.5728 26.4132 15.939 43.2629 5.9202 12.2958-7.7418 14.5728-11.385 14.5728-26.8686 0-13.6619-2.7324-20.0375-10.0188-25.0469-14.1173-10.0188-31.8779-9.108-46.4507 2.277zm-262.7653 0c-14.5728 14.5727-10.4742 40.0751 8.1972 51.0047 8.1971 4.554 18.6713 7.2864 23.2253 5.9202 15.0282-5.0094 28.2348-20.9484 28.2348-34.155 0-27.7793-39.6198-42.8075-59.6573-22.7699zm447.202-184.4367c-20.0376 25.5023-6.3756 56.4695 24.5916 56.4695 13.2065 0 17.7605-2.7324 25.0469-15.0282 11.8404-18.6714 11.385-22.3145-2.7324-39.1643-15.0282-18.216-33.6995-19.1268-46.9061-2.277zm-628.90632-.9108c-12.29578 13.2066-13.20658 30.0563-2.7324 45.9953 5.92019 9.108 11.38498 11.385 25.50236 11.385 15.93897 0 19.58216-2.277 27.32395-14.5728 10.01878-16.8498 8.65259-27.7793-5.92019-43.7183-12.29578-13.2066-30.96715-12.7512-44.17372.9108zm328.79822-210.3945c-2.277 3.1878-5.4648 16.8498-6.3756 30.0564-1.3662 13.2066-3.1878 25.047-4.554 25.9578-.9108 1.3662-8.1972-.4554-16.3943-3.1878-18.216-6.831-22.3146-2.7324-15.4836 15.4835 2.7324 8.1972 4.554 15.0282 3.6432 16.3944-1.3662.9108-10.9296 2.7324-21.8592 3.6432-34.6103 4.0986-40.0751 5.9202-40.0751 15.4836s5.4648 11.385 40.0751 15.4835c10.9296.9108 20.493 2.7324 21.8592 3.6432.9108 1.3662-.9108 8.1972-3.6432 16.3944-6.831 18.216-2.7324 22.3146 15.4836 15.4836 8.1971-2.7324 15.4835-4.0986 16.8497-2.7324s3.6432 14.1174 5.0094 27.7793c1.3662 17.3052 5.0094 26.8686 10.0188 30.5118 10.9296 6.831 14.1174 1.8216 17.7606-29.601 1.8216-15.0281 4.0986-28.2347 5.0094-29.1455.9108-1.3662 8.1972.4554 16.3943 3.1878 18.216 6.831 22.3146 2.7324 15.4836-15.4836-2.7324-8.1972-4.554-15.0282-3.6432-16.3944 1.3662-.9108 10.9296-2.7324 21.8592-3.6432 34.1549-4.0985 40.0751-5.9201 40.0751-15.0281 0-10.0188-8.6526-14.1174-28.6901-14.1174-24.5916 0-35.9766-5.0094-32.3334-13.2066 1.3662-4.0986 4.0986-12.2958 5.4648-18.216 1.8216-9.5633.9108-10.4741-8.6526-8.6525-5.9202 1.3662-14.5728 4.0986-18.6713 5.9202-6.3756 2.2769-8.1972-.9108-10.4742-19.1268-4.554-35.5212-6.831-42.3521-13.2066-42.3521-3.1878 0-8.1972 2.7324-10.9296 5.4647zm300.1081-51.4601c-12.2958 12.2958-12.2958 32.3334 0 47.817 11.8404 15.0281 31.8779 15.9389 44.6291 1.8216 14.1174-15.0282 15.4836-25.047 6.3756-41.4414-10.9296-18.6713-36.4319-22.7699-51.0047-8.1972zm-631.63872 2.7324c-10.47418 15.939-9.56338 32.7888 2.7324 45.9954 13.20657 13.6619 31.87794 14.1173 44.17372.4554 14.57278-15.4836 15.93897-26.4132 5.92019-43.263-7.74179-12.2957-11.38498-14.5727-27.32395-14.5727-14.11738 0-19.58217 2.277-25.50236 11.3849zm462.68562-194.91082c-3.6432 1.36619-11.385 6.83098-16.8498 11.84038-30.5117 27.32395 13.662 70.13144 47.8169 45.99532 7.2864-5.0094 10.0188-11.38498 10.0188-25.04696 0-15.48357-2.277-19.12677-14.5728-26.86855-15.9389-9.56339-15.9389-9.56339-26.4131-5.92019zm-269.5963 4.09859c-23.6808 12.75118-22.77 48.27232 1.8215 58.7465 16.3944 6.83103 24.1362 5.00943 39.1644-8.19719 12.7512-11.84038 13.2066-31.87794 0-44.17372-5.4648-5.00939-11.385-9.10799-13.2066-9.10799s-5.9202-.9108-9.5634-2.27699c-3.1878-.9108-11.385.9108-18.2159 5.00939zm110.2066-135.7089629c-8.6526 1.8216-27.7794 10.4741799-42.3522 19.1267699-14.5727 8.65258-31.8779 18.67137-38.2535 21.85916-16.3944 9.10798-39.6197 3.18779-53.2817-13.20658-15.4836-18.21597-27.324-15.93897-29.1456 5.00939-2.7324 40.07514-4.554 44.17373-25.04692 52.37091-10.47418 4.0986-28.23475 9.56339-39.61973 11.38499-39.16433 7.286373-56.4695 15.938963-79.23946 39.164323-23.22536 22.76996-31.42255 39.61973-39.16434 79.23943-4.55399 24.1362-13.20657 50.5493-18.67136 56.4695-1.8216 2.277-16.39438 5.4648-32.33335 6.831-34.15494 3.1878-39.61973 12.2958-17.76057 30.5118 16.39437 13.6619 22.31456 36.8873 13.20658 53.7371-3.18779 6.3756-14.11738 24.5915-23.68076 40.0751-17.76057 28.6902-17.76057 28.6902-17.76057 76.5071s0 47.8169 17.76057 76.507c9.56338 15.4836 20.49297 33.6996 23.68076 40.0752 9.10798 16.8497 3.18779 40.0751-13.20658 53.7371-21.85916 18.2159-16.39437 27.3239 17.76057 30.5117 15.93897 1.3662 30.51175 4.554 32.33335 6.831 5.46479 5.9202 14.11737 32.3334 18.67136 56.4695 7.74179 39.6198 15.93898 56.4695 39.16434 79.2395 22.76996 23.2253 39.61973 31.4225 79.23946 39.1643 24.13616 4.554 50.54935 13.2066 56.46955 18.6714 2.277 1.8216 5.0093 15.0282 6.8309 29.6009 3.6432 34.155 13.2066 40.986 30.0564 20.9484 14.1174-16.8498 36.8873-22.77 54.1925-13.662 6.3756 3.1878 24.5916 14.1174 40.0751 23.6808 28.6902 17.7606 28.6902 17.7606 76.5071 17.7606s47.8169 0 76.5071-17.7606c15.4835-9.5634 33.6995-20.493 40.0751-23.6808 17.3052-9.108 40.0751-3.1878 54.1925 13.662 16.8498 20.0376 26.4132 13.2066 30.0564-20.9484 1.8216-14.5727 4.5539-27.7793 6.8309-29.6009 5.9202-5.4648 32.7888-14.1174 56.4695-18.6714 53.7372-10.0188 83.7935-31.8779 104.2865-75.1409 7.7418-16.3943 14.1173-34.6103 14.1173-40.9859 0-5.9202 4.0986-22.3145 9.5634-35.9765 10.01881-26.8686 11.84041-27.7794 54.19251-30.9672 20.9484-1.8216 23.2254-13.6619 5.0094-29.1455-16.3943-13.662-22.3145-36.8874-13.2065-53.7371 3.1877-6.3756 14.1173-24.5916 23.6807-40.0752 17.7606-28.6901 17.7606-28.6901 17.7606-76.507s0-47.8169-17.7606-76.5071c-9.5634-15.4836-20.493-33.6995-23.6807-40.0751-9.108-16.8498-3.1878-40.0752 13.2065-53.7371 18.216-15.4836 15.939-27.324-5.0094-29.1456-40.0751-2.7324-44.1737-4.554-52.37091-25.0469-4.0986-10.4742-9.5634-28.2348-11.385-39.6198-7.2863-39.1643-15.9389-56.46947-39.1643-79.23943-22.7699-23.22536-40.0751-31.87795-79.6949-39.164323-25.9577-4.554-51.9155-15.48358-56.9249-23.22536-2.2769-3.6432-5.0093-17.76057-6.3755-31.42255-2.7324-30.51175-12.2958-35.0657399-30.0564-14.11738-13.662 16.39437-36.8873 22.31456-53.7371 13.20658-6.3756-3.18779-24.1362-13.66198-39.1643-22.76996-24.1362-15.0281699-31.878-17.3051699-62.8451-19.12676994-19.1268-.9108-42.3522-.4554-51.0047.91080004zm-2.7324 72.4084799c-1.3662 17.30517-5.4648 42.352113-9.108 56.469493s-6.3756 32.33334-6.3756 40.07513c0 14.57278-11.385 39.61969-23.6808 51.91549-4.0986 4.0986-15.9389 10.9296-26.4131 15.0282-25.9578 10.4742-49.6385 4.0986-87.4367-23.2254-81.97183-58.29106-94.72301-67.85445-94.72301-71.04224 0-4.55399 40.07513-17.76057 54.19251-17.76057 15.939-.4554 71.9531-15.48357 91.5352-25.502353 8.6526-4.09859 22.3146-12.29578 30.5118-18.21597 7.7418-5.92019 15.939-10.92958 18.216-10.92958 1.8216 0 10.9295-6.37559 19.5821-13.66197 8.6526-7.28639 20.493-13.66198 26.4132-13.66198 10.0188 0 10.0188.9108 7.2864 30.51175zm128.8779-6.37559c19.5822 13.66197 42.8076 27.77935 51.4602 32.33334 19.1267 9.563383 75.1408 25.046953 91.5352 25.502353 14.1174 0 54.1925 13.20658 54.1925 17.76057 0 3.18779-13.662 13.20658-94.2676 71.04224-36.432 25.9578-60.1127 33.2442-82.4273 25.047-32.3333-11.385-55.5587-39.6197-55.5587-67.85449 0-7.74179-2.7324-26.41315-6.3756-42.35213-3.6432-15.93897-7.7418-41.441323-9.5634-57.380293-2.7324-25.95776-2.277-28.23475 6.3756-28.23475 5.0094 0 25.047 10.92958 44.6291 24.13616zm-400.29587 158.934303c13.20658 18.216 33.24414 45.9953 44.17373 61.9343 27.32395 37.7981 33.69954 61.4789 23.22536 87.4367-4.0986 10.4741-10.92959 22.3145-15.02818 26.4131-12.29578 12.2958-37.34273 23.6808-51.91551 23.6808-7.74179 0-25.95775 2.7324-40.07513 6.3756-14.11738 3.6431-39.16433 7.7417-56.0141 9.1079-28.69016 2.7324-30.96715 2.277-30.96715-5.9202 0-5.0093 10.92958-25.0469 24.13616-44.6291 13.66197-19.5821 27.77935-42.8075 32.33334-51.4601 9.56339-19.1267 25.04696-75.1408 25.50236-91.5352 0-14.1174 13.20658-54.19253 17.76057-54.19253 1.82159 0 14.11737 15.02813 26.86855 32.78873zm658.50727-11.385c4.0986 11.8404 7.2864 26.4132 7.2864 32.7888.4554 16.3944 15.939 72.4085 25.5023 91.5352 4.554 8.6526 18.6714 31.878 32.33341 51.4601 13.2066 19.5822 24.1362 39.6198 24.1362 44.6291 0 8.1972-2.277 8.6526-30.5118 5.9202-17.30521-1.3662-42.35211-5.4648-56.46951-9.1079-14.1174-3.6432-32.3333-6.3756-40.0751-6.3756-15.0282 0-39.6198-11.385-52.3709-24.1362-4.554-4.0986-10.9296-16.8498-15.0282-28.6901-9.108-26.4132-3.1878-46.9062 24.5915-86.0705 51.0048-71.9531 66.9437-93.35683 70.1315-93.35683 1.8216 0 6.3756 9.56343 10.4742 21.40373zm-279.6151 109.2958c39.1643 20.493 65.1221 45.54 86.0704 83.3381 3.6432 6.3756 8.6526 25.047 11.8404 41.8967 20.9484 117.9484-78.3287 218.1363-195.8216 197.1879-56.925-10.4742-94.7231-39.6197-127.0564-97.9108-12.7512-23.2254-12.7512-113.3945 0-136.6198 28.6901-51.9155 67.8545-85.1597 113.3944-96.0892 24.5915-6.3756 94.2676-.9108 111.5728 8.1971zm-418.5119 204.4743c14.11738 3.6432 32.33334 6.3756 40.07513 6.3756 14.57278 0 39.61973 11.385 51.91551 23.6807 4.09859 4.0986 10.92958 15.939 15.02818 26.4132 10.47418 25.9577 4.09859 49.6385-23.22536 87.4366-58.2911 81.9719-67.85449 94.7231-71.04228 94.7231-4.55399 0-17.76057-40.0752-17.76057-54.1925-.4554-15.939-15.48358-71.9531-25.50236-91.5353-4.09859-8.6526-12.29578-22.3145-18.21597-30.5117-5.92019-7.7418-10.92958-15.939-10.92958-17.3052 0-1.8216-5.92019-10.9296-13.66198-20.493-7.28638-9.5633-13.66197-21.4037-13.66197-26.8685 0-9.5634 1.3662-9.5634 30.96715-6.831 16.84977 1.3662 41.89672 5.4648 56.0141 9.108zm787.38531-3.1878c0 5.0094-10.9296 25.047-24.1362 44.6291-13.66201 19.5822-27.77941 42.8075-32.33341 51.4601-9.5633 19.1268-25.0469 75.1409-25.5023 91.5353 0 14.1173-13.2066 54.1925-17.7606 54.1925-3.1878 0-19.1267-21.4038-70.1315-93.3569-26.4131-37.3427-33.2441-59.6573-25.9577-82.4272 10.9296-33.6996 39.1643-56.4695 69.6761-56.4695 7.7418 0 21.8591-2.277 30.5117-5.0094 14.5728-4.0986 61.02351-11.385 85.61511-12.7512 7.2864-.4554 10.0188 2.277 10.0188 8.1972zm-539.64811 199.0095c9.5634 3.6431 20.4929 10.0187 24.1361 14.1173 12.2958 12.2958 23.6808 37.3428 23.6808 51.9155 0 7.7418 2.7324 25.9578 6.3756 40.0752 3.6432 14.1173 7.7418 39.1643 9.108 56.0141 2.7324 28.6901 2.277 30.9671-5.9202 30.9671-5.0094 0-25.047-10.9296-44.6291-24.1361-19.5822-13.662-42.8076-27.7794-51.4602-32.3334-19.1267-9.5634-75.1408-25.0469-91.5352-25.5023-14.11738 0-54.19251-13.2066-54.19251-17.7606 0-2.7324 14.11738-13.662 93.35681-70.5869 43.263-30.5117 61.4789-35.0657 91.0799-22.7699zm253.2019-1.8216c8.6526 2.7324 27.7794 14.1173 42.8076 25.0469 78.784 56.4695 93.3568 67.3991 93.3568 70.1315 0 4.554-40.0751 17.7606-54.1925 17.7606-16.3944.4554-72.4085 15.9389-91.5352 25.5023-8.6526 4.554-31.878 18.6714-51.4602 32.3334-19.5821 13.2065-39.6197 24.1361-44.6291 24.1361-8.6526 0-9.108-2.277-6.3756-28.6901 1.8216-15.4836 5.9202-40.986 9.5634-56.9249 3.6432-15.939 6.3756-34.6104 6.3756-42.3522 0-16.3943 14.1174-43.7183 28.2348-53.7371 25.9577-18.6713 42.8075-21.8591 67.8544-13.2065z" style=""/></g></svg>