<svg height="960" style="" width="2060" xmlns="http://www.w3.org/2000/svg"><path d="m950.0379-24.400494c-54.0835 9.8862-89.8484 21.5171-135.2088 44.1972-32.2756 15.9925-35.1833 17.7371-53.7927 29.9495-31.1125 20.644804-61.6435 45.651104-90.1391 74.146704-32.8572 32.5664-38.0911 38.3818-57.8635 64.5513-13.9571 18.6093-10.7586 17.4463-65.7144 22.6801-56.9912 4.9432-111.6562 13.3755-155.5627 23.8433-7.2693 1.7446-17.7371 4.0708-23.2617 5.2339-42.1619 9.3047-102.0608 32.2756-136.0811 52.0481-22.3894 13.0847-52.6296 39.2541-49.4311 42.4526 1.1631 1.1631 10.7585-3.1985 21.2263-9.8862 21.8079-13.6663 50.3035-28.7864 61.9343-32.2756 4.3616-1.4539 15.1201-5.2339 23.8433-8.4324 48.5588-18.6094 180.8598-41.8711 251.5173-44.4881 32.8572-1.163 35.7649.5816 27.3325 14.5386-14.8293 25.0064-28.7864 53.2112-38.9634 77.636-5.8154 14.2478-12.7939 31.1125-15.4109 37.2187-5.5246 13.6663-7.2692 14.5386-39.8356 22.0987-30.8218 7.2693-50.5943 13.0847-78.5083 22.6801-11.0494 4.0708-22.971 7.8509-26.1695 8.7232-34.0202 9.3047-115.727 47.9773-150.3288 71.239-49.7219 33.7295-75.8913 63.0974-92.4653 103.8054-8.4324 20.354-8.7232 23.2617-8.7232 64.5513 0 36.3464.8724 46.5234 6.1062 61.6435 17.1556 52.0481 52.3389 104.9685 104.0962 156.1443 30.8218 30.531 92.7561 81.9975 100.6069 83.7421 7.2693 1.7447 4.9431-5.2339-6.6877-20.9355-20.9356-27.9141-47.3958-71.5298-66.0051-108.167-24.4248-47.6865-24.4248-52.9204-.5816-36.3464 79.9622 54.9558 204.9939 109.0393 353.8689 153.2365 8.7231 2.617 18.9001 5.8155 22.0986 6.9785 11.6309 4.3616 138.9887 35.18344 185.2214 44.77879 95.373 19.4817 104.9685 21.2264 204.1216 33.4389 90.1391 11.3401 136.3718 13.3755 308.2177 13.3755 197.7246 0 202.0861-.2908 334.3871-24.7157 53.7928-9.8863 136.6626-40.99875 172.4275-65.13279 20.6448-13.6663 43.6157-35.4741 40.708-38.3819-1.1631-.8723-9.5955 3.4893-18.9001 9.8863-22.6802 15.4109-66.8775 36.0556-95.3731 45.06954-34.8925 10.7586-125.6132 31.11265-138.1164 31.11265-4.0708 0-19.7725 1.7446-34.8926 4.3615-50.3034 7.8508-122.4148 11.6308-218.0786 11.6308-116.0178 0-204.4123-5.8153-312.5793-20.6448-84.3237-11.33995-194.2353-31.11245-244.248-43.61569-9.5954-2.3261-25.2971-6.3969-34.8925-8.7231-19.4817-4.9431-43.0342-11.3401-62.5159-17.1555-7.2693-2.0354-20.9355-6.1062-30.531-8.7232-9.5955-2.6169-22.6802-6.6877-29.0771-8.7231-6.397-2.3262-15.1202-4.6524-19.4817-5.5247-4.6524-1.1631-8.1416-3.1985-8.1416-4.9431 0-3.78 17.1555-2.6169 98.8623 6.9785 114.8547 13.6663 189.2922 17.1555 327.4086 15.7017 68.6221-.5816 143.0595-2.9077 165.449-4.6524 77.3452-6.1062 182.8952-18.6093 225.3478-26.7509 65.1328-12.2124 82.8699-15.9925 117.7624-25.0064 17.4463-4.3615 22.3894-5.5246 72.6929-19.4817 14.5386-4.0708 37.2188-11.34 50.885-16.2832 13.6663-4.9431 27.9141-10.177 31.9849-11.6308 21.2263-6.9785 71.239-31.1126 101.77-49.1404 57.5727-34.311 91.8837-70.6574 111.0747-117.4716 7.56-18.9002 8.1416-22.6802 8.1416-61.9344 0-30.8217-1.1631-44.7788-4.3616-52.6296-2.3262-5.5247-4.3616-12.2124-4.3616-14.5386 0-4.6523-18.6094-43.6157-29.0771-60.7712-15.7017-25.5879-43.325-59.6081-72.4021-88.6853-31.1126-30.8218-98.5715-86.9406-104.6777-86.9406-5.5247 0-3.7801 5.8154 5.2339 17.1555 31.1125 39.5449 88.6852 140.7333 86.9406 153.2365-.8723 6.1062-3.1985 4.9431-32.8572-13.6662-59.6081-37.2188-137.5348-73.856-236.6879-110.4932l-18.3186-6.9785-20.9356-40.708c-11.34-22.3894-29.6586-54.3743-40.9987-70.9482-25.0064-36.928-67.7498-87.5222-93.6284-109.9116-10.4678-9.3047-23.2617-20.6448-28.2049-25.0064-11.6308-10.7585-67.4589-47.686504-91.8837-60.771204-41.2896-22.3894-91.8838-38.9634-148.2935-49.1404-40.4172-7.2693-117.1809-6.9785-157.0165.2908zm165.4489 36.3464c51.1758 11.0493 63.9697 15.7017 112.2378 38.9634 19.1909 9.5954 46.5234 25.297104 61.062 35.474104 26.1694 18.9001 75.8913 65.7143 94.7915 89.8484 11.9216 14.8293 43.3249 60.4804 43.3249 62.2251 0 .8723 3.78 7.8508 8.1416 15.4108 13.957 23.5525 37.5095 81.7068 44.1973 108.4578 1.4538 5.5247 3.78 15.4109 5.5246 21.8079 11.6309 46.5234 12.794 58.7358 12.794 121.5424 0 67.7498-2.3262 79.3806-11.0493 58.4451-2.617-6.397-5.8155-16.574-7.2693-22.971-7.8509-35.1833-25.2971-82.2883-45.3604-122.7055-56.7004-113.9824-146.8395-202.6677-248.3188-244.5388-35.1833-14.5386-44.1972-17.4463-76.7636-24.4248-35.1834-7.5601-118.0532-8.1416-148.5842-.8723-36.0557 8.4324-54.9558 13.3755-63.9698 17.4463-4.6523 2.0354-20.354 8.7231-34.6018 14.5385-81.1252 34.8926-157.3073 102.9331-209.0646 186.6753-18.0279 29.6587-36.6372 65.1328-45.9419 88.1038-7.8508 19.7724-25.8787 74.7282-25.8787 78.799 0 1.7446-2.9077 12.5032-6.1062 23.5525-4.6523 14.8293-6.9785 19.1909-8.7231 16.2832-4.0708-7.2693-6.1062-91.8838-3.1985-122.9963 4.0708-40.1265 7.8508-57.5728 22.9709-104.6777 11.0494-34.3111 31.6941-81.7068 45.3604-104.6778 25.0063-40.9987 49.7219-72.9836 81.7068-104.6777 44.488-44.488 69.7851-62.8066 121.5424-88.103704 39.8357-19.4817 52.3389-24.134 98.2808-35.4741 51.7573-12.794 126.7763-13.3755 182.8952-1.4539zm-626.0309 433.249504c2.0354 4.9431-5.8154 18.6093-11.3401 20.0632-52.3389 12.5032-134.3364 50.885-175.9167 82.2883-11.6309 8.7231-22.6802 15.1201-24.7156 14.5386-4.6523-1.4539 30.531-36.0557 50.3035-48.8496 36.6372-24.1341 60.7712-36.0557 113.4008-56.7005 43.9065-16.8647 45.9419-17.4462 48.2681-11.34zm677.2067 26.1694c136.081 18.3186 233.7802 58.7358 254.425 105.2592 6.9785 15.9925 7.2693 22.3894.5815 36.0557-9.3047 19.1909-30.531 39.2542-54.3742 50.5942-6.397 3.1985-13.6663 7.2693-15.9925 9.3047-2.3261 1.7447-7.56 3.7801-11.34 4.3616-9.5955 1.1631-11.6309 8.1416-2.617 8.1416 9.8862 0 51.1758-12.7939 89.8484-27.9141 32.2756-12.5031 50.3034-22.3894 73.8559-41.2895 10.4678-8.1416 19.4817-15.1201 20.0633-15.1201.5815 0 3.1984 4.3615 5.8154 9.8862 18.6094 39.2542-22.971 86.9407-105.8408 121.8332-25.2971 10.4678-51.4666 19.4817-64.2605 22.0987-5.5247 1.1631-11.9216 3.1985-13.6663 4.3615-1.7446.8724-8.7231 2.9078-15.7016 4.3616-6.9785 1.4539-25.5879 5.2339-41.5803 8.7232-183.4768 37.8002-449.8235 27.6232-603.3508-23.2618-35.7649-11.9216-43.3249-15.1201-74.1467-30.2402-38.091-18.9001-67.1682-44.1972-75.6006-66.2959-6.1062-15.7016-4.9431-40.708 2.3262-47.6865 4.0708-4.0708 6.397-2.9077 23.8433 11.9216 22.3894 18.9002 59.0266 37.5096 101.77 51.1758 15.9924 5.2339 34.311 11.0493 40.708 13.3755 13.957 4.6523 27.6233 5.2339 27.6233 1.1631 0-1.7446-2.3262-3.78-4.9432-4.6524-22.3894-7.2692-61.6435-32.5664-72.402-46.5234-16.2832-21.2263-19.191-35.4741-11.3401-54.3743 21.5171-51.4665 151.4919-98.8622 300.6576-109.9116 48.8496-3.4892 185.803-.5815 225.6387 4.6524zm429.7602 18.3186c13.957 7.56 42.7434 28.2048 54.665 38.9634 15.9924 14.5385 27.0417 31.1125 33.1479 49.4311 5.5247 16.574 5.5247 17.1555 0 33.4387-5.5246 17.1555-19.1909 37.2188-34.6018 50.3035-15.7016 13.6662-49.7219 35.1833-54.0834 34.311-3.7801-.8723-4.3616-9.3047-4.9432-54.665-.2907-47.105-5.5246-112.2378-11.3401-146.2581-2.3261-12.5031 1.7447-13.957 17.1556-5.5246zm-1125.5763 67.459c.5816 1.4538-.2907 18.6093-1.7446 38.091-4.3616 56.7005 1.7446 76.1821 34.311 108.7485 28.7864 28.7864 57.5728 46.8142 107.0039 68.0406 32.2756 13.6662 129.1025 43.9064 140.4426 43.9064 2.9077 0 11.9216 1.7447 20.0632 4.0708 27.3326 7.5601 80.253 16.2832 142.1873 23.5525 141.8964 16.2832 335.841 13.0847 471.6313-7.56 101.4792-15.4109 203.2492-41.2896 270.4174-68.6221 41.5803-17.1555 97.6992-49.4311 117.1809-67.7497 3.4892-3.4893 8.1416-5.8155 10.177-4.9431 5.8154 2.0354-35.7649 40.9987-61.9343 57.8635-34.6018 22.6801-49.1404 29.6587-111.947 54.665-85.1961 33.7295-208.4832 58.7358-366.372 74.4375-70.6575 7.2693-263.1482 7.2693-328.5718 0-120.3794-12.794-241.9218-34.0203-300.9484-52.6296-79.6714-25.2972-136.9534-49.722-175.3352-75.3098-22.6802-15.1202-51.1758-43.6158-60.1897-59.899-5.8154-10.7585-6.9785-17.1555-6.9785-36.3464 0-27.0417 4.6523-36.6372 30.531-61.3528 15.4109-14.5385 41.2895-33.1479 45.9419-33.1479 1.4538 0 4.0708-2.0354 6.1062-4.3616 4.0708-4.9431 16.574-5.8154 18.0278-1.4538z" style="stroke-width:.290771"/></svg>