<svg height="960" style="" width="1330" xmlns="http://www.w3.org/2000/svg"><path d="m1209.6809 251.91489c0-6.80851-6.8086-13.61702-13.617-13.61702h-119.149c-6.8085 0-13.617-6.80851-13.617-13.61702v-108.93617c0-6.80851-6.8085-13.61702-13.617-13.61702h-136.17026c-6.80851 0-13.61702-6.80851-13.61702-13.61702v-74.89362c0-6.80851-6.80851-13.61702-13.61702-13.61702h-442.5532c-6.80851 0-13.61702 6.80851-13.61702 13.61702v71.48936c0 6.80851-6.80851 13.61702-13.61702 13.61702h-136.17021c-6.80851 0-13.61702 6.80851-13.61702 13.61703v108.93617c0 6.80851-6.80851 13.61702-13.61702 13.61702h-119.14894c-6.80851 3.40425-13.61702 10.21276-13.61702 17.02127v459.57447c0 6.80851 6.80851 13.61702 13.61702 13.61702h119.14894c6.80851 0 13.61702 6.80851 13.61702 13.61702v108.93617c0 6.80852 6.80851 13.61703 13.61702 13.61703h136.17021c6.80851 0 13.61702 6.80851 13.61702 13.61702v71.48936c0 6.80851 6.80851 13.61702 13.61702 13.61702h439.14894c6.80851 0 13.61702-6.80851 13.61702-13.61702v-71.48936c0-6.80851 6.80851-13.61702 13.61702-13.61702h136.17022c6.8085 0 13.617-6.80851 13.617-13.61703v-108.93617c0-6.80851 6.8085-13.61702 13.617-13.61702h119.149c6.8085 0 13.6171-6.80851 13.6171-13.61702v-459.57447zm-432.34047 231.48937c0-3.40426-3.40426-6.80851-6.80852-6.80851-20.42553-3.40426-98.7234-40.85107-98.7234-122.5532v-119.14893h51.06383c6.80851 0 13.61702 6.80851 13.61702 13.61702v3.40425c0 34.04256 27.23404 57.87234 57.87234 57.87234h156.59575c6.80851 0 13.61702 6.80851 13.61702 13.61703v320c0 6.80851-6.80851 13.61702-13.61702 13.61702h-156.59575c-34.04255 0-57.87234 27.23404-57.87234 57.87234 0 6.80851-6.80851 13.61702-13.61702 13.61702h-47.65957v-119.14894c0-81.70213 78.29787-119.14893 98.7234-122.55319 0 3.40426 3.40426 0 3.40426-3.40425zm-224.68086 0c0 3.40425 3.40426 6.80851 6.80852 6.80851 20.42553 3.40425 98.7234 40.85106 98.7234 122.55319v119.14893h-47.65957c-6.80852 0-13.61703-6.80851-13.61703-13.61702 0-34.04255-27.23404-57.87234-57.87234-57.87234h-160c-6.80851 0-13.61702-6.80851-13.61702-13.61702v-320c0-6.80851 6.80851-13.61702 13.61702-13.61702h156.59575c34.04255 0 57.87234-27.23404 57.87234-57.87234 0-6.80851 6.80851-13.61702 13.61702-13.61702h47.65957v119.14893c0 81.70213-78.29787 119.14894-98.7234 122.5532 0-6.80851-3.40426-3.40426-3.40426 0z" style="stroke-width:34.0426"/></svg>