<svg height="960" style="" width="1190" xmlns="http://www.w3.org/2000/svg"><path d="m591.45016-120-18.7546.97278c0 8.48657.16957 582.26386-.10868 862.73811-.0278 22.48246 1.94557 44.09929 10.29301 65.05139 2.42076 6.17711 8.57027 18.30895 8.57027 18.30895zm7.12466 0v947.07123s6.14951-12.13184 8.57027-18.30895c8.34745-20.9521 10.32084-42.56893 10.29302-65.05139-.30608-280.47425-.0543-854.25154-.0543-862.73811zm-478.2555 17.83614v23.9011c18.53259 22.26677 74.70351 89.01464 85.12658 101.0389-1.25536-19.09348-2.26101-26.52995-15.14605-42.05244-20.64603-24.84758-66.16853-78.46341-69.98053-82.88756zm85.12658 124.94c.0161.24421.0328.4421.0489.69018l.80431-.087-.49998-.19021c-.0586-.0675-.29135-.34163-.35324-.41302zm864.2598-124.94c-3.812 4.42415-49.3345 58.03998-69.98054 82.88756-12.88507 15.52251-14.02664 22.95891-15.15151 42.05244 10.41928-12.02049 66.54335-78.76931 85.13205-101.14759zm-85.13205 124.94c-.0614.0709-.28955.34596-.34781.41302l-.0163.005-.0924-.0924-.4728.22282.19021.0163-.10868.038.8043.087c.0144-.24805.0291-.446.0435-.69018zm-865.25429-73.21408c-.38954 16.4723 6.81535 29.07456 16.30361 40.67751l114.47308 139.37956 2.00534 12.2114 116.80449 142.0751-50.08468 81.30609c-13.07767-15.72103-25.67884-30.61232-37.47656-44.77516-11.79773-14.16283-24.62563-27.76461-28.49328-46.79679a3.4224537 3.4224537 0 00-2.78248-2.47814c-1.2243-.0278-1.86361 1.22407-2.11404 1.86404a13.328092 13.328092 0 00-.64127 4.06504 74.153164 74.153164 0 0016.19491 49.05211c5.1476 6.53884 35.78034 43.29566 45.54686 55.17686-24.81975 40.42947-49.19365 79.66206-73.06735 119.20114-9.40479 15.55408-21.75619 26.04598-40.23187 28.43892a14.441085 14.441085 0 00-13.74938 13.37982h42.26983c26.29446 0 46.13139-10.37866 59.68208-33.38979 15.4706-26.29447 52.78347-85.44788 56.12245-90.2894l24.09674 28.54764-33.3898 58.04628 48.24782 43.54152c7.70748-12.63247 14.74738-24.12087 21.78705-35.61252 1.86426 67.61432 1.86602 205.59394 1.08692 207.6808-8.31963 22.00944-19.03328 42.1557-41.46009 53.28563-15.74885 7.9579-30.96946 16.6949-46.35659 25.04234a104.84395 104.84395 0 00-44.88383 45.85663 196.02591 196.02591 0 00-16.33079 41.73721 52.2272 52.2272 0 0025.65645-24.65104 85.477868 85.477868 0 0143.57411-38.95476c22.95548-9.65522 75.67919-31.05382 80.40941-32.63983 0 5.87104.19564 84.39423.19564 119.11963a165.89162 165.89162 0 008.93438 53.0302c17.47399 52.0881 51.08638 90.2951 100.16938 114.8643 4.39632 2.1982 7.87136 2.3641 14.9667 2.3641a130.77669 130.77669 0 01-11.76576-9.9887c-37.14615-30.4125-57.49046-69.2564-59.41035-117.3099-.83477-20.34-1.14126-40.7062-1.14126-61.0461v-304.0189c0-4.45197.39367-8.90308.75539-16.49923 22.78853 27.18483 43.68434 52.23132 64.71991 77.27366 4.34067 5.42584 11.12993 3.05856 11.12993-2.92378-.19477-5.28671-3.81245-127.18881-6.01061-184.50795a54.119288 54.119288 0 00-13.21679-34.1941c-12.29858-14.27414-23.87262-29.18824-35.75382-43.8241 20.5069-35.19841 40.25993-69.64902 60.62771-103.73443a94.131389 94.131389 0 0013.3309-50.08469c-.16695-44.43625 0-88.75686 0-133.27658v-15.91776l-21.17839 13.13528c.1113 54.81491-12.04771 93.48816-35.03102 131.60817-18.58698 30.85773-58.73798 100.33827-61.68741 104.9572l-21.61859-26.32488c9.98912-16.72275 19.47649-32.60875 30.41165-50.86184-22.78853 2.55989-44.0993-5.2854-61.57329 13.16246zm951.35914 0-260.21654 315.98027c-17.47396-18.44786-38.79017-10.60257-61.5787-13.16246 10.93515 18.25309 20.42253 34.16694 30.41164 50.86184l-21.61858 26.32488c-2.94943-4.61893-43.10044-74.09947-61.68742-104.9572-23.01113-38.12001-35.03101-76.79326-35.03101-131.60817l-21.17297-13.13528v15.94493c0 44.43625.25042 88.7623 0 133.28202a94.131389 94.131389 0 0013.32548 50.08469c20.33995 34.16888 40.09841 68.53057 60.63313 103.72898-11.8812 14.63585-23.46067 29.54996-35.75924 43.8241a53.952339 53.952339 0 00-13.21679 34.19412c-2.19816 57.31915-5.81584 179.22121-6.01061 184.50793 0 5.98234 6.81708 8.48874 11.12993 2.92378 21.03557-25.09797 41.9368-50.03316 64.72533-77.27366.36173 7.59617.74997 12.05271.74997 16.50468.11129 101.33802.11129 202.6754 0 304.01339 0 20.34-.27934 40.7062-1.11408 61.0462-1.86427 48.0535-22.26009 86.896-59.35058 117.3642a130.77669 130.77669 0 01-11.77121 9.9887c7.09533-.028 10.57583-.1659 14.97215-2.364 49.11082-24.5693 82.72321-62.7709 100.16938-114.859a165.0847 165.0847 0 008.90177-53.0356c0-34.72537.22282-113.24857.22282-119.1196 4.73022 1.58601 57.45935 22.98461 80.41484 32.63983a85.477868 85.477868 0 0143.54694 39.00909 52.2272 52.2272 0 0025.84664 24.62388 196.02591 196.02591 0 00-16.33078-41.73723 104.98307 104.98307 0 00-44.91099-45.8512c-15.38713-8.54222-30.66341-17.19574-46.35661-25.04234-22.42681-11.2412-33.11263-31.27619-41.46008-53.28563-.77909-2.08686-.77734-140.0719 1.08693-207.68623 7.03968 11.49165 14.07955 22.98548 21.78703 35.61795l48.24783-43.68824c-11.3247-19.56085-22.25986-38.56348-33.38979-58.04086 7.98572-9.48827 15.74927-18.55849 24.09672-28.5476 3.2555 4.84152 40.65187 64.02275 56.12248 90.28939 13.55069 23.12243 33.50434 33.55674 59.68751 33.38979h42.26436a14.46891 14.46891 0 00-13.74392-13.37985c-18.47568-2.39293-30.83252-12.88484-40.23731-28.43892-23.92935-39.62255-48.2739-78.85316-72.89888-119.28264 9.76652-11.8812 40.39926-48.63802 45.54685-55.17685a74.153164 74.153164 0 0016.11341-48.94343 14.246311 14.246311 0 00-.64127-4.06504c-.25043-.63997-.88976-1.86404-2.11405-1.86404a3.4224537 3.4224537 0 00-2.78248 2.47814c-3.89548 18.97653-16.33382 32.30006-28.49327 46.79679-12.15945 14.49674-24.29302 29.05413-37.48199 44.77516l-50.08468-81.30609 116.69579-142.0751 2.00533-12.2114 114.47307-139.29261c9.4883-11.60295 16.6938-24.06956 16.2765-40.76446zm-671.52399 371.68426c8.0692 9.68304 15.18996 18.25373 22.59136 27.10202-16.08275 27.71353-31.55269 54.39885-48.02499 82.72452l-24.15108-29.13454c16.19405-26.37794 32.36115-52.64457 49.58471-80.692zm391.83007.1413c17.2236 27.82482 33.30721 54.17493 49.58474 80.69199l-24.1837 29.12912-47.99783-82.72452zm-338.9629 103.11488c15.30365 13.46722 24.59823 29.0802 26.15642 48.55758 1.53037 18.83741 1.88992 37.72938 2.64119 56.62244.2226 5.42584.83672 13.60547-6.34211 15.80364-2.61554.80692-6.17623-1.36364-8.15179-3.70093-16.44447-19.2826-32.5307-38.75909-48.7804-58.23647 11.57513-19.78345 22.65114-38.81761 34.47669-59.04626zm285.98162 0c11.82556 20.22865 22.90223 39.26281 34.44953 59.04626-16.22187 19.5052-32.30331 39.03734-48.74779 58.23647-2.00338 2.33729-5.56953 4.50785-8.15723 3.70093-7.17881-2.19817-6.56472-10.3778-6.34212-15.80364.75127-18.89306 1.11147-37.785 2.61401-56.62244 1.58601-19.42173 10.87995-35.09036 26.1836-48.55758zm-413.30737 91.71325c-3.06073 4.98064-38.81911 65.22139-53.64974 91.82192a67.530855 67.530855 0 01-48.49781 35.50384l-16.83076 3.14115-9.13002 15.36345c30.41254 0 58.5717.25042 86.7026 0 20.173-.19477 35.36709-9.65892 45.60662-26.74336 14.69152-24.5415 28.96739-49.33233 44.2154-75.4042zm540.63314 0-48.41086 43.6828c15.24801 26.07187 29.51844 50.8627 44.20995 75.4042 10.21171 17.08444 25.43429 26.54859 45.57946 26.74336 28.15873.25042 56.31723 0 86.72976 0l-9.13002-15.36345-16.83076-3.14115a67.530855 67.530855 0 01-48.49781-35.50384c-14.83061-26.60053-50.58902-86.84128-53.64972-91.82192z" style="stroke-width:2.78248"/></svg>