<svg height="960" style="" width="852" xmlns="http://www.w3.org/2000/svg"><path d="m427.29611-30-36.38086 38.79434 36.38086 38.79433 36.38087-38.79433zm-51.66618 54.34783-115.93607 133.90303 115.93607 133.99242 35.39759-37.72168-84.82908-96.27074 84.82908-96.18135zm100.65074 0-35.3976 37.72168 84.8291 96.18135-84.8291 96.27074 35.3976 37.72168 115.93608-133.99242zm-48.98456 79.46581-51.12985 54.43722 51.12985 54.5266 51.12987-54.5266zm-244.11827 21.54248-32.09024 29.14045 29.85554 36.29148 32.80535-29.76617zm485.64432 0-30.57067 35.66576 32.80536 29.76617 29.76618-36.29148zm-443.09568 51.39803-32.00086 29.05106 160.09368 195.04433c23.38442 34.12813 40.01244 72.42108 48.98455 112.80748-1.26907-55.7508-12.94068-110.77401-34.41434-162.23897-29.10754-43.66133-142.66304-174.6639-142.66303-174.6639zm400.45764 0s-113.55547 131.00257-142.66302 174.6639c-21.42146 51.47758-33.06182 106.4965-34.32494 162.23897 8.9448-40.37995 25.54229-78.67254 48.89516-112.80748l160.18305-195.04433zm-474.56019 78.92949-32.00086 29.14044 234.19622 282.19752c23.38442 34.1281 40.01244 72.4211 48.98456 112.80751-1.26907-55.7508-12.94066-110.77405-34.41433-162.239-29.10755-43.66132-216.76559-261.90647-216.76559-261.90647zm548.66276 0s-187.65805 218.24515-216.76559 261.90647c-21.42146 51.47758-33.06182 106.49653-34.32494 162.239 8.94479-40.37996 25.54229-78.67254 48.89516-112.80751l234.28561-282.19752zm-272.99056 13.2294-36.38086 38.88373 36.38086 38.79433 36.38085-38.79433zm-221.9501 205.32394-32.00086 29.14046 180.47412 215.42476s1.33295 2.01785 3.57552 5.54206l5.8102 9.29633c2.47141 4.119 5.38401 8.94737 8.31308 14.30206 11.29336 28.67204 18.107 58.91131 20.20166 89.65602l11.62042 212.40133v-208.82581s-1.2686-16.06334-.53634-9.56449c-1.26906-55.7508-12.94065-110.77405-34.41432-162.23899l.0892-.0915c-29.1075-43.66136-163.13282-195.04438-163.13282-195.04438zm441.30792 0s-134.02531 151.38302-163.13286 195.04435v.0915c-21.42146 51.47757-33.06182 106.49652-34.32494 162.23899.73226-6.49885-.53634 9.56449-.53634 9.56449v208.82369l11.62042-212.40133c2.09465-30.74471 8.90831-60.98398 20.20166-89.65602 2.92906-5.35469 5.84168-10.18306 8.31307-14.30206l5.81022-9.29633c2.24257-3.52403 3.57552-5.54206 3.57552-5.54206l180.47412-215.42476z" style=""/></svg>