<svg height="960" style="" width="1373" xmlns="http://www.w3.org/2000/svg"><path d="m680.40746 4.3369875c-1.1828 2.5627-4.337 8.4768005-7.294 13.4052005-2.7599 4.9284-6.5055 11.4338-8.2797 14.7851-3.3513 5.9141-10.8425 18.3336-15.5737 25.6276-1.1828 2.1685-3.1542 5.717-4.1399 7.8855-.9856 2.1684-3.9427 7.0968-6.7026 11.0395-2.7599 4.1399-5.5197 9.0683-6.3083 11.4339-.5914 2.3656-1.9713 4.1398-2.5628 4.1398-.7885 0-3.1541 3.9427-5.3226 8.871102-2.1685 4.9284-4.5341 8.8711-5.3227 8.8711-.7885 0-2.7599 2.957-4.3369 6.3083-1.5771 3.5485-5.717 10.8425-8.8711 16.3623-3.3513 5.3226-6.8998 11.631-8.0826 13.7995-1.1828 2.1684-3.7456 6.5054-5.914 9.8567-2.1685 3.1542-4.5342 7.294-5.3227 8.8711-3.1542 6.1112-15.1794 26.6133-16.1651 27.599-1.1828.9856-3.3513 4.7312-12.0253 20.6992-1.7742 3.1541-5.3226 9.4625-8.0825 13.7995-2.7599 4.3369-5.7169 9.2653-6.3083 10.8424-.7886 1.5771-3.1542 5.5198-5.3227 8.8711-2.1685 3.1542-4.5341 7.294-5.3226 8.8711-.7886 1.5771-9.2654 15.968-18.7279 32.1331-9.4625 15.9679-17.3479 29.3731-17.3479 29.9645 0 .3943-2.3656 4.1399-5.1255 8.2797-2.7599 4.1399-5.9141 9.2654-6.8998 11.4339s-3.5484 6.5054-5.7169 9.8567c-2.1685 3.1542-4.5341 7.294-5.3227 8.8711-.5914 1.5771-3.5484 6.5055-6.3083 10.8425s-7.0969 11.8281-9.6596 16.7565c-7.4912 13.6023-8.8711 16.1651-14.3909 24.6419-2.7599 4.337-5.7169 9.2654-6.3083 10.8425-.7886 1.577-3.1542 5.5197-5.3227 8.871-2.1685 3.1542-4.7312 7.6883-5.7169 9.8568s-4.1399 7.294-6.8998 11.4339c-2.7599 4.1398-5.1255 7.8854-5.1255 8.0825 0 .3943-7.8854 13.9966-17.3479 30.1617-9.4625 15.968-17.9393 30.556-18.7279 32.1331-.7885 1.5771-3.1541 5.5198-5.3226 8.8711-2.1685 3.1542-4.5341 7.294-5.3227 8.8711-.5914 1.5771-3.5484 6.5054-6.3083 10.8424s-6.3083 10.4482-8.0825 13.7995c-8.674 15.968-10.8425 19.7135-12.0253 20.6992-.5914.5914-4.1398 6.3083-7.8854 12.8138s-7.6883 13.6024-9.0682 15.7708c-1.38 2.1685-3.1542 5.717-4.337 7.8855-.9857 2.1684-4.1399 7.294-6.8998 11.4338-2.7599 4.1399-5.1255 7.8854-5.1255 8.4768 0 1.9714-14.588 25.4305-16.1651 26.0219-.9857.3943-1.5771 1.7742-1.5771 3.1542 0 1.3799-2.5627 6.3083-5.914 10.6453-3.1542 4.5341-5.9141 9.0682-5.9141 10.0539 0 1.1828-2.3656 5.3226-5.1255 9.4625-2.7599 4.1398-5.9141 9.2653-6.8997 11.4338-.9857 2.1685-2.9571 5.717-4.1399 7.8854-7.4911 11.4339-13.0109 20.8964-22.6706 38.4414-1.9713 3.7456-5.914 10.4482-8.6739 14.7852s-5.7169 9.2654-6.5055 10.8424c-1.5771 3.3513-3.7456 6.8998-11.2367 18.7279-2.7599 4.337-5.7169 9.2654-6.3083 10.8425-.7886 1.577-3.1542 5.5197-5.3227 8.871-2.1685 3.1542-4.5341 7.2941-5.3226 8.8711-.7886 1.5771-6.5055 11.631-12.8138 22.2763-6.3084 10.6453-11.4339 19.7136-11.4339 20.1078 0 .3943-2.3656 4.1399-5.1255 8.2797-2.7599 4.1399-5.9141 9.2654-6.8998 11.4339-.9856 2.1685-3.5484 6.5054-5.7169 9.8567-2.1685 3.1542-4.7312 7.6883-5.914 9.8568-1.1829 2.1685-3.7456 6.5055-5.9141 9.8568-2.1685 3.1542-4.5341 7.294-5.3227 8.8711-.7885 1.5771-3.7455 7.0969-6.8997 12.0252-9.8568 16.1651-19.7135 14.7852 114.1414 16.1651 154.9484 1.7743 729.4009 1.7743 884.34934 0 113.1557-1.1828 119.6612-1.3799 119.6612-4.7312 0-1.9714-2.3657-6.8998-5.1256-11.0396s-5.914-9.2654-6.8997-11.4338c-.9857-2.1685-3.5484-6.7026-5.7169-9.8568-2.1685-3.3513-4.7313-7.6883-5.7169-9.8568-.9857-2.1685-4.1399-7.294-6.8998-11.4338-2.7599-4.1399-5.1255-7.8855-5.1255-8.2797 0-.3943-7.8854-13.9966-17.3479-29.9646-9.6597-16.1651-17.9393-30.7531-18.7279-32.1331-.7885-1.577-3.1541-5.7169-5.3226-8.8711-2.1685-3.3513-4.7313-7.6882-5.717-9.8567-.9856-2.1685-3.9427-7.0969-6.5054-10.8425-2.5628-3.7455-5.3227-8.2797-5.9141-10.0539-.5914-1.5771-4.5341-8.2797-8.6739-14.7851-4.1399-6.3084-9.4625-15.1795-11.8282-19.5164-2.1685-4.337-6.1112-11.0396-8.4768-14.7852-2.1685-3.7456-4.7312-8.2797-5.5198-9.8568-.5914-1.577-3.5484-6.5054-6.3083-10.8424s-6.5055-10.8424-8.4768-14.3909c-1.9714-3.3513-5.1256-9.2653-7.0969-12.8138-1.9714-3.3513-5.7169-9.8567-8.4768-14.1937s-5.717-9.2654-6.5055-10.8425-2.3656-4.7312-3.7456-6.8997c-1.3799-2.1685-4.7312-7.4912-7.294-11.8281-2.7599-4.5341-6.1112-9.8568-7.4911-11.8282-1.1828-2.1684-2.9571-5.3226-3.7456-6.8997s-6.5055-11.631-12.8138-22.0792c-6.3083-10.4481-11.4338-20.1078-11.4338-21.0934 0-1.1829-1.1829-2.7599-2.5628-3.5485-1.38-.7885-3.5484-3.7456-4.7313-6.5054-1.3799-2.7599-5.1255-9.4625-8.2796-14.7852-3.3513-5.5198-6.8998-11.631-7.8855-13.7995-.9856-2.1685-4.1398-7.294-6.8997-11.4338-2.7599-4.1399-5.12554-7.6883-5.12554-8.0826 0-.3942-6.7026-12.0252-14.7852-25.8247-8.0825-13.6024-14.7851-25.2333-14.7851-25.6276s-2.3656-4.1399-5.1255-8.2797-5.9141-9.2654-6.8998-11.4338c-.9857-2.1685-3.5484-6.7027-5.7169-9.8568-2.1685-3.3513-4.7313-7.6883-5.7169-9.8568-.9857-2.1685-4.1399-7.294-6.8998-11.4338-2.7599-4.1399-5.1255-7.8855-5.1255-8.2797 0-.3943-5.1255-9.4625-11.4338-20.1078-6.3084-10.6453-12.0253-20.6992-12.8138-22.2763-.7886-1.5771-4.5342-7.8854-8.2797-13.7995-3.7456-5.9141-7.8854-13.2081-9.0683-16.3622-1.1828-2.9571-2.957-5.3227-3.9427-5.3227-.9856 0-1.7742-.9857-1.7742-1.9714 0-1.1828-2.3656-5.7169-5.3226-10.4481-2.9571-4.5341-7.4912-12.2224-10.0539-17.1508-8.0826-14.7852-13.6024-24.0505-21.6849-36.47-1.1828-2.1685-2.9571-5.3227-3.7456-6.8998s-3.5484-6.5055-6.3083-10.8424c-7.8854-12.2224-9.6597-15.3766-11.8282-19.7136-.9856-2.1685-4.1398-7.294-6.8997-11.4338-2.7599-4.1399-5.1255-8.2797-5.1255-9.2654s-2.3656-5.1255-5.1255-9.2653c-2.7599-4.1399-5.9141-9.2654-6.8998-11.4339-.9856-2.1685-3.5484-6.7026-5.7169-9.8568-2.1685-3.3513-4.7312-7.6882-5.9141-9.8567-.9856-2.1685-2.7599-5.3227-3.9427-6.8998-3.5484-5.3226-31.5416-53.6208-31.5416-54.4093 0-.3943-2.3657-3.9427-5.1255-8.0826-2.7599-4.1398-5.9141-9.265403-6.8998-11.433803-.9857-2.1685-3.5484-6.7026-5.7169-9.8568-2.1685-3.3513-4.7313-7.6883-5.7169-9.8568-.9857-2.1685-4.1399-7.294-6.8998-11.4338-2.7599-4.1399-5.1255-7.8854-5.1255-8.2797 0-.7886-22.2763-39.23-25.6276-44.3555-1.1828-1.5771-2.7599-4.9283995-3.9427-7.4910995-.9857-2.3656-3.5484-4.337-5.9141-4.337-2.3656 0-4.9283 1.9714-5.914 4.337zm11.8281 43.3698005c1.1828 2.5627 3.1542 6.3083 4.337 8.4768 7.8854 12.0252 13.4052 21.6849 23.4591 40.2156 1.9713 3.745602 4.337 7.294002 5.1255 7.885402.9857.5914 3.5484 5.1255 6.1112 10.0539s6.3083 11.4339 8.2797 14.7852c2.1685 3.1541 4.7312 7.6883 5.7169 9.8567.9857 2.1685 4.1399 7.294 6.8998 11.4339 2.7598 4.1398 5.1255 7.8854 5.1255 8.2797 0 .3942 5.1255 9.4625 11.4338 20.1078 6.3084 10.6453 12.0253 20.6992 12.8138 22.2763.7886 1.5771 2.5628 4.7312 3.9427 6.8997 1.38 2.1685 4.7313 7.4912 7.294 11.8281 2.7599 4.5342 6.1112 9.8568 7.4912 11.8282 1.1828 2.1685 3.1542 5.7169 4.1398 7.8854.9857 2.1685 4.1399 7.294 6.8998 11.4338 2.7599 4.1399 5.1255 7.8854 5.1255 8.2797 0 .7886 27.2047 47.7068 31.5416 54.2122.9857 1.5771 4.1399 6.8998 6.8998 11.8282s7.6883 13.208 11.0396 18.7278c3.1541 5.3227 6.8997 12.0253 8.2797 14.7852 1.1828 2.7599 2.7598 5.3226 3.3513 5.914.9856.9857 9.4625 15.1795 14.7851 24.642 1.9714 3.7455 9.0682 15.5737 14.1938 23.6562 1.3799 2.1685 4.7312 7.8854 7.4911 12.8138s6.7026 11.4339 8.8711 14.7852c2.1685 3.1541 4.5341 7.294 5.3226 8.8711.5915 1.577 3.5485 6.5054 6.3084 10.8424s6.5054 10.8424 8.4768 14.1938c1.9714 3.5484 5.1255 9.4624 7.0969 12.8138 1.9713 3.5484 5.7169 10.0539 8.4768 14.3908 2.7599 4.337 5.7169 9.2654 6.3083 10.8425.7886 1.5771 4.1399 7.294 7.4912 12.8138 3.1541 5.3226 7.294 12.8138 8.8711 16.1651 1.577 3.5484 3.5484 6.5054 4.3369 6.5054.7886 0 2.5628 2.3657 3.7456 5.3227 2.5628 5.9141 8.674 16.7565 16.55944 29.176 2.7599 4.337 5.7169 9.2654 6.3083 10.8425.7886 1.5771 3.1542 5.5198 5.3227 8.8711 1.9713 3.1541 4.9284 8.0825 6.3083 10.8424 1.5771 2.7599 6.7026 11.4339 11.631 19.3193 13.7995 22.8677 19.3193 32.5273 22.4734 38.8357 1.7742 3.1541 4.7313 8.4768 6.8998 11.8281 2.1684 3.1541 4.7312 7.6883 5.914 9.8567 1.1828 2.1685 3.7456 6.5055 5.9141 9.8568 2.1685 3.1542 4.5341 7.294 5.3226 8.8711.7886 1.5771 6.5055 11.631 12.8138 22.2763 6.3084 10.4482 11.4339 19.5164 11.4339 20.1078 0 .3943 2.3656 4.1399 5.1255 8.2797s5.9141 9.2654 6.8997 11.4339c.9857 2.1684 3.5485 6.5054 5.717 9.8567 2.1685 3.1542 4.7312 7.6883 5.914 9.8568s3.7456 6.5055 5.9141 9.8568c2.1685 3.1541 4.5341 7.294 5.3227 8.8711.5914 1.577 3.5484 6.5054 6.3083 10.8424s6.7026 11.0396 8.8711 14.7852c1.9713 3.7455 5.1255 9.4624 6.8997 12.8137 1.7742 3.1542 5.5198 9.4625 8.2797 13.7995s5.7169 9.2654 6.3083 10.8425c.7886 1.5771 3.1542 5.5198 5.3227 8.8711 2.1685 3.1541 4.7312 7.6882 5.7169 9.8567s4.1399 7.294 6.8998 11.4339c2.7598 4.1398 5.1255 8.0825 5.1255 8.6739s2.7599 5.5198 6.1112 10.6454c3.3513 5.3226 5.5198 10.4481 4.7312 11.6309-.7885 1.1829-23.6562 1.9714-66.6317 1.9714-56.1836 0-66.2375-.3943-69.9831-3.1542-2.3656-1.5771-4.337-3.7455-4.337-4.9284 0-.9856-2.3656-5.5197-5.3226-10.251-2.9571-4.5341-7.0969-11.4338-9.0683-15.1794-8.4768-15.1794-10.6453-19.1222-15.3765-26.6133-2.7599-4.337-5.7169-9.2654-6.3084-10.8424-.7885-1.5771-4.1398-7.4912-7.4911-12.8138-3.1542-5.5198-7.294-12.8138-8.8711-16.1651-1.5771-3.5485-3.7456-6.5055-4.7312-6.5055-1.1828 0-1.9714-1.1828-1.9714-2.5628 0-1.5771-2.5628-6.5054-5.9141-10.8424-3.1541-4.5341-5.91404-9.0682-5.91404-10.0539 0-1.1828-2.3656-5.3227-5.1255-9.4625-2.7599-4.1399-5.9141-9.2654-6.8998-11.4339-.9856-2.1685-2.957-5.7169-4.1398-7.8854-8.2797-12.8138-13.6024-21.6849-21.6849-36.47-2.5628-4.9284-6.8997-12.4196-9.6596-16.7565-2.7599-4.337-5.717-9.2654-6.5055-10.8425-1.5771-3.3513-3.7456-6.8997-11.2367-18.7278-2.7599-4.337-5.5198-9.2654-6.3084-10.8425-.7885-1.5771-2.1684-4.337-3.3513-5.9141-3.3513-5.1255-31.5416-53.6208-31.5416-54.4093 0-.3943-2.3656-3.9427-5.1255-8.0826-2.7599-4.1398-5.9141-9.2653-6.8998-11.4338s-2.5627-5.3227-3.7455-6.8998c-3.5485-5.7169-30.7532-52.2408-32.1331-55.1979-.7886-1.577-3.1542-5.7169-5.3227-8.8711-2.1685-3.3513-4.7312-7.6882-5.914-9.8567-.9857-2.1685-3.1542-5.7169-4.337-7.8854-5.1255-7.6883-12.2224-19.9107-15.3766-25.6276-8.2797-15.1795-11.0395-19.7136-13.208-22.2763-1.38-1.38-2.5628-3.3513-2.5628-4.337s-2.3656-5.1255-5.1255-9.2654c-2.7599-4.1398-5.9141-9.2653-6.8998-11.4338-.9856-2.1685-2.957-5.717-4.1398-7.8854-5.3227-8.0826-12.4195-20.1078-16.9536-28.5847-7.4912-13.6023-8.8711-16.1651-14.3909-24.6419-2.7599-4.337-5.7169-9.2654-6.3084-10.8424-.7885-1.5771-3.1541-5.717-5.3226-8.8711-2.1685-3.3513-4.5341-7.294-5.3227-8.8711-.7885-1.38-8.8711-15.5737-18.3336-31.5417-9.2653-15.7708-17.545-29.9646-18.3335-31.5416-3.9428-8.0826-8.8711-14.7852-11.2368-14.7852-2.5627 0-6.5054 5.5198-12.8138 17.7422-4.1398 8.0825-11.0395 20.1078-17.3479 29.9646-2.957 4.7312-5.3226 8.8711-5.3226 9.2653 0 .5914-2.3657 4.337-5.1255 8.4768-2.7599 4.1399-5.9141 9.2654-6.8998 11.4339s-3.5484 6.5055-5.7169 9.8568c-2.1685 3.1541-4.7313 8.0825-5.9141 10.6453-1.1828 2.5627-3.9427 7.294-6.3083 10.6453s-5.9141 8.8711-7.6883 12.0252c-1.7742 3.3513-5.5198 10.054-8.2797 14.9823-2.957 4.9284-5.914 10.2511-6.7026 11.8282-.5914 1.577-3.5484 6.5054-6.3083 10.8424s-6.5055 10.8425-8.4768 14.1938c-1.9714 3.5484-5.1255 9.4625-7.0969 12.8138-1.9714 3.5484-5.7169 10.0539-8.4768 14.3908-2.7599 4.337-5.7169 9.2654-6.3084 10.8425-.7885 1.5771-3.1541 5.5198-5.3226 8.8711-2.1685 3.1541-4.5341 7.294-5.3227 8.8711-.5914 1.577-3.5484 6.5054-6.3083 10.8424-7.294 11.4339-9.6596 15.3766-11.4338 18.7279-.7886 1.5771-6.5055 11.631-12.8138 22.2763-6.3084 10.6453-11.4339 19.7135-11.4339 20.1078 0 .3942-2.3656 4.1398-5.1255 8.2797-2.7599 4.1398-5.9141 9.2653-6.8998 11.4338-.9856 2.1685-4.5341 8.2797-7.8854 13.7995-3.1541 5.3226-6.8997 12.0252-8.2797 14.7851-1.1828 2.7599-2.7599 5.3227-3.5484 5.9141-1.1828.9857-19.5164 32.1331-22.0792 37.4557-.7885 1.5771-3.1541 5.5198-5.3226 8.8711-2.1685 3.1542-4.5341 7.294-5.3227 8.8711-.5914 1.5771-3.5484 6.5055-6.3083 10.8425-6.3083 10.0539-13.4052 22.2763-16.3622 28.5846-1.38 2.7599-3.5485 5.7169-4.9284 6.5055-1.38.7885-2.5628 2.7598-2.5628 4.3369s-2.3656 6.1112-5.1255 10.2511c-2.7599 4.1398-5.9141 9.2653-6.8997 11.4338-.9857 2.1685-2.9571 5.7169-4.1399 7.8854-7.4911 11.4339-13.0109 20.8964-22.6706 38.4414-1.9713 3.7456-5.914 10.4482-8.6739 14.7852s-5.7169 9.2654-6.3083 10.8424c-.7886 1.5771-3.1542 5.5198-5.3227 8.8711-2.1685 3.1542-4.7312 7.6883-5.7169 9.8568s-4.1399 7.294-6.8998 11.4338c-2.7599 4.1399-5.1255 7.8855-5.1255 8.2797 0 .3943-5.1255 9.4625-11.4338 20.1078-6.3084 10.6454-12.0253 20.6993-12.8138 22.2763-.7886 1.5771-3.1542 5.5198-5.3227 8.8711-2.1685 3.1542-4.5341 7.294-5.1255 8.8711-4.5341 10.0539-2.3656 9.8568-73.9258 9.8568-42.5812 0-67.026-.7885-67.8145-1.9714-.5914-1.1828 1.3799-6.1112 4.7312-11.0395 3.3513-4.9284 6.1112-9.6597 6.1112-10.6454 0-.9856 2.7599-5.7169 5.9141-10.4481 3.3513-4.9284 5.914-9.8568 5.914-11.0396s.7886-2.1685 1.5771-2.1685c.9857 0 3.1542-2.957 4.9284-6.5055 1.7742-3.3513 5.9141-10.8424 9.2654-16.1651 3.1541-5.5198 6.5054-11.2367 7.294-12.8138.7885-1.577 6.5054-11.631 12.8138-22.0791 6.3083-10.4482 11.4338-19.5164 11.4338-20.1078s2.3656-4.337 5.1255-8.4769c2.7599-4.1398 5.9141-9.2653 6.8998-11.4338s3.5484-6.7026 5.7169-9.8568c2.1685-3.3513 4.7313-7.6883 5.7169-9.8567.9857-2.1685 4.1399-7.2941 6.8998-11.4339s5.1255-7.8854 5.1255-8.2797 5.3226-9.6596 11.8281-20.6992 11.8281-20.3049 11.8281-20.6992 2.5628-4.5341 5.717-9.2654c3.1541-4.7312 7.6882-12.0252 9.8567-16.3622 5.1255-9.4625 7.294-13.0109 14.588-24.2477 2.9571-4.7312 5.3227-8.8711 5.3227-9.2653 0-.3943 6.5055-11.631 14.3909-25.0362s14.9823-25.6276 15.7708-27.2047c.7886-1.5771 2.5628-4.7313 3.7456-6.8997 2.3656-3.3513 4.7312-7.0969 14.7851-23.6563 1.38-2.1685 3.1542-5.7169 4.337-7.8854.9857-2.1685 4.1399-7.294 6.8998-11.4339 2.7598-4.1398 5.1255-7.8854 5.1255-8.4768 0-.7885 20.8963-37.0614 25.6276-44.1583 1.1828-1.5771 2.7599-4.7312 3.7455-6.8997.9857-2.1685 4.1399-7.294 6.8998-11.4339 2.7599-4.1398 5.1255-8.2797 5.1255-9.4625 0-.9857 2.7599-5.5198 5.9141-10.0539 3.3513-4.337 5.914-9.2654 5.914-10.8424 0-1.38.7886-2.5628 1.9714-2.5628.9857 0 3.1541-2.957 4.7312-6.5055 1.5771-3.3513 5.717-10.8424 8.8711-16.1651 3.3513-5.5198 6.7026-11.2367 7.4912-12.8138.5914-1.577 3.5484-6.5054 6.3083-10.8424s6.7026-10.8425 8.674-14.588c1.9713-3.7456 5.914-10.2511 8.871-14.7852 4.9284-7.6883 7.0969-11.4338 15.5737-26.8104 1.9714-3.7456 5.9141-10.4482 8.674-14.7851 2.7599-4.337 5.7169-9.2654 6.3083-10.8425.7886-1.5771 3.1542-5.7169 5.3227-8.8711 2.1685-3.3513 4.5341-7.294 5.3226-8.8711.7886-1.5771 9.0683-15.7708 18.3336-31.5416 9.2654-15.7709 17.5451-29.9646 18.3336-31.5417.7886-1.5771 3.1542-5.7169 5.3227-8.8711 2.1685-3.3513 4.7312-7.6883 5.914-9.8568 1.1828-2.1684 3.7456-6.7026 5.9141-9.8567 2.1685-3.3513 4.7312-7.6883 5.7169-9.8568s4.1399-7.294 6.8998-11.4338c2.7599-4.1399 5.1255-7.8855 5.1255-8.674 0-.5914 5.1255-9.6596 11.4338-20.1078 6.3084-10.4482 12.0253-20.305 12.8138-21.882.7886-1.5771 3.1542-5.717 5.3227-8.8711 2.1685-3.3513 4.7312-7.6883 5.7169-9.8568s4.1399-7.294 6.8998-11.4338c2.7598-4.1399 5.1255-7.885502 5.1255-8.279702 0-.5914 21.882-38.6386 25.6276-44.3555 1.1828-1.5771 2.7599-4.9284 3.9427-7.4911.9857-2.3657 3.5484-4.337 5.914-4.337 2.3657 0 4.9284 1.9713 5.9141 4.337zm.3943 278.749402c1.9713 3.1541 4.1398 7.0969 4.9284 8.6739.5914 1.5771 3.5484 6.5055 6.3083 10.8425 4.7312 7.4911 6.8997 11.4338 15.3765 26.6133 1.9714 3.7455 5.9141 10.4481 8.674 14.7851s5.7169 9.2654 6.3083 10.8425c.7886 1.577 3.1542 5.5198 5.3227 8.8711 2.1685 3.1541 4.7312 7.6882 5.7169 9.8567s4.1399 7.294 6.8998 11.4339c2.7598 4.1398 5.1255 7.8854 5.1255 8.2797 0 .3942 5.1255 9.4625 11.4338 20.1078 6.3084 10.6453 12.0253 20.6992 12.8138 22.2763.7886 1.577 3.1542 5.5198 5.3227 8.8711 2.1685 3.1541 4.7312 7.6882 5.914 9.8567 1.1829 2.1685 3.7456 6.5055 5.9141 9.8568 2.1685 3.1542 4.5341 7.294 5.3227 8.8711.7885 1.5771 6.5054 11.631 12.8138 22.2763 6.3083 10.6453 11.4338 19.7135 11.4338 20.1078s2.3656 4.5341 5.5198 9.2654c2.957 4.7312 6.5055 10.251 7.8854 12.4195 1.38 2.1685 3.3513 6.3083 4.5341 9.2653 1.1828 3.1542 2.9571 5.5198 3.9427 5.5198.9857 0 1.7743.9857 1.7743 1.9714 0 1.1828 2.3656 5.7169 5.3226 10.4482 2.957 4.5341 7.0969 11.4338 9.0682 15.1794 9.6597 17.545 15.1795 27.0075 22.6706 38.4414 1.1828 2.1685 3.1542 5.7169 4.1398 7.8854.9857 2.1685 3.9428 7.0969 6.5055 10.8424 2.5628 3.7456 5.3227 8.2797 6.1112 9.8568.7886 1.5771 3.7456 6.8998 6.7026 11.8281 2.7599 4.9284 6.5055 11.4339 8.2797 14.7852 1.7742 3.1542 5.5198 9.4625 8.2797 13.7995 2.7599 4.3369 5.7169 9.2653 6.3083 10.8424.7886 1.5771 3.1542 5.5198 5.3227 8.8711 2.1685 3.1542 4.5341 7.294 5.3226 8.8711.7886 1.5771 9.0683 15.7708 18.3336 31.5417 9.4625 15.9679 17.5451 30.1617 18.3336 31.5416.7886 1.5771 3.1542 5.5198 5.3227 8.8711 2.1685 3.1542 4.7312 7.6883 5.914 9.8568s3.7456 6.5054 5.9141 9.8567c2.16854 3.1542 4.53414 7.2941 5.32264 8.8711 1.5771 3.5485 23.262 41.0042 26.219 45.3412 1.1829 1.5771 2.7599 4.7312 3.7456 6.8997s4.1399 7.294 7.0969 11.631c9.8568 14.3909 12.0253 13.9966-62.49194 14.588l-66.2375.3943-6.8997-10.251c-3.7456-5.717-8.674-13.9967-11.0396-18.3336-2.3657-4.337-5.3227-9.6597-6.7026-11.8282-11.8282-19.5164-12.8138-20.8963-22.4735-38.4414-1.9713-3.7455-5.914-10.4481-8.6739-14.7851s-5.5198-9.2654-6.3084-10.8425c-.7885-1.577-2.1684-4.3369-3.3513-5.914-2.7598-4.337-24.6419-41.7927-26.219-45.3412-.7885-1.577-3.1541-5.7169-5.3226-8.871-2.1685-3.3513-4.7313-7.6883-5.7169-9.8568-.9857-2.1685-4.1399-7.294-6.8998-11.4339-2.7599-4.1398-5.1255-7.8854-5.1255-8.2797 0-.3942-5.1255-9.4625-11.4338-20.1078-6.3084-10.6453-12.0253-20.6992-12.8138-22.2763-.7886-1.577-3.3514-6.1112-5.5198-9.8567-2.3657-3.7456-6.3084-10.4482-8.4769-14.7852-2.3656-4.337-6.5054-11.4338-9.2653-15.7708s-5.7169-9.2654-6.3084-10.8425c-.7885-1.577-3.1541-5.7169-5.3226-8.871-2.1685-3.3514-4.5341-7.2941-5.3227-8.8711-.5914-1.5771-3.5484-6.5055-6.3083-10.8425s-6.5055-10.8424-8.4768-14.3909c-1.9714-3.3513-5.1255-9.2653-7.0969-12.8138-1.9713-3.3513-5.7169-9.8567-8.4768-14.1937s-5.7169-9.2654-6.3083-10.8425c-3.7456-7.8854-8.8711-14.7851-11.2368-14.7851-2.3656 0-6.7026 5.7169-11.2367 14.7851-4.5341 8.674-29.3731 51.4524-36.47 62.6891-3.1542 4.7312-5.5198 9.2654-5.5198 10.251 0 .9857-2.3656 5.1255-5.1255 9.2654-2.7599 4.1398-5.9141 9.2654-6.8998 11.4338-2.1685 4.337-3.9427 7.4912-11.8281 19.7136-2.7599 4.337-5.7169 9.2653-6.3083 10.8424-.7886 1.5771-3.1542 5.717-5.1255 9.0683-1.9714 3.3513-5.9141 10.0539-8.4769 14.7851-2.5627 4.7313-6.8997 12.2224-9.4625 16.5594-2.7599 4.5341-5.914 9.8567-7.294 11.8281-1.3799 2.1685-4.337 7.4911-6.7026 11.8281-2.1685 4.337-6.7026 11.631-9.8567 16.3623-3.1542 4.7312-5.717 8.8711-5.717 9.4625s-3.7455 7.4911-8.4768 15.1794c-4.7312 7.8854-9.2654 15.5737-9.8568 17.1508-.7885 1.577-3.1541 5.5197-5.3226 8.8711-3.9427 6.1111-6.1112 10.0539-14.1938 24.6419-2.5627 4.9284-6.8997 12.4195-9.6596 16.7565s-5.7169 9.2653-6.3083 10.8424c-.7886 1.5771-3.3513 6.1112-5.5198 9.8568-2.3656 3.7456-9.0682 15.3766-15.1794 25.6276-17.1508 28.7818-7.2941 25.8247-83.3883 25.2333-73.9258-.5914-71.7573-.1971-61.9005-14.588 2.957-4.337 6.1112-9.4625 7.0969-11.631.9856-2.1685 3.5484-6.7026 5.7169-9.8568 2.1685-3.3513 4.5341-7.294 5.3226-8.871.7886-1.5771 9.0683-15.7709 18.3336-31.5417 9.2654-15.7708 17.5451-29.9646 18.3336-31.5417.7886-1.577 2.5628-4.7312 3.7456-6.8997 1.3799-1.9714 4.7312-7.294 7.4911-11.8281 2.5628-4.337 5.9141-9.6597 7.294-11.8281 1.38-2.1685 3.1542-5.3227 3.9428-6.8998.7885-1.5771 6.5054-11.631 12.8138-22.2763 6.3083-10.6453 11.4338-19.7135 11.4338-20.1078s2.3656-4.1398 5.1255-8.2797c2.7599-4.1398 5.9141-9.2653 6.8998-11.4338.9856-2.1685 4.5341-8.4769 7.8854-13.7995 3.1541-5.5198 6.8997-12.0253 8.2797-14.7852 1.1828-2.7599 2.7599-5.3226 3.3513-5.914 1.3799-1.1828 15.7708-25.6276 15.7708-26.6133 0-.3943 2.3656-4.1398 5.1255-8.2797 2.7599-4.1398 5.9141-9.2653 6.8998-11.4338.9856-2.1685 2.957-5.717 4.1398-7.8854 2.1685-3.3514 6.1112-9.6597 14.3909-23.0649.9857-1.7742 4.1398-7.4911 6.8997-12.8138 2.7599-5.1255 6.1112-10.251 7.294-11.0396 1.38-.7885 2.5628-2.7599 2.5628-4.3369 0-1.5771 2.3656-6.1112 5.1255-10.2511 2.7599-4.1398 5.9141-9.2653 6.8997-11.4338.9857-2.1685 2.9571-5.717 4.1399-7.8855 7.4911-11.4338 13.0109-20.8963 22.6706-38.4414 1.9713-3.7455 5.914-10.4481 8.6739-14.7851s5.7169-9.2654 6.3083-10.8425c.7886-1.577 3.1542-5.7169 5.3227-8.871 2.1685-3.3513 4.7312-7.6883 5.7169-9.8568s4.1399-7.294 6.8998-11.4339c2.7599-4.1398 5.1255-7.8854 5.1255-8.2796 0-.5915 5.1255-9.6597 11.4338-20.1079 6.3084-10.6453 12.0253-20.6992 12.8138-22.2763.7886-1.577 3.1542-5.7169 5.3227-8.871 2.1685-3.3513 4.7312-7.6883 5.914-9.8568 1.1829-2.1685 3.7456-6.7026 5.9141-9.8568 2.1685-3.3513 4.5341-7.294 5.3227-8.8711.7885-1.5771 6.3083-11.4338 12.4195-21.6849 6.1112-10.251 11.631-20.1078 12.4195-21.6849 1.5771-2.957 4.7313-8.4768 7.8854-13.4052 2.3657-3.5484 5.5198-1.9713 9.6597 4.7313z" style="stroke-width:.197135"/></svg>