<svg height="960" style="" width="1290" xmlns="http://www.w3.org/2000/svg"><path d="m674.2623-83v79.62671c-4.3689-.1984-10.4018-.2327-17.9114-.082-16.3387.3082-24.3542-.1533-25.8956-1.3864-.098-.076-.1981-.1467-.2992-.2137v-3.7939h-3.8535v3.3706c-.257.088-.5172.1957-.7809.3275-6.9363 3.5452-10.9417 3.3929-15.5659-.4606l-2.2513-1.8764-.5304-15.1884-3.8511.1343.6036 17.2894-.1369.4112c-2.0038 5.549-4.4697 6.0117-6.4736 1.0793-.082-.2004-.1523-.3591-.2261-.5308l-1.2216-34.98881-3.8511.1343 1.3307 38.10531c-2.4789 1.4491-6.56 2.3669-11.4463 2.3669-10.1732 0-13.5642 8.1696-7.5528 17.8803 2.6203 4.4701 4.0067 5.2404 8.9391 5.2404h5.7035l.1556 8.4762c.1541 4.6241.6163 10.6364 1.2328 13.1026.9248 4.1618.4621 4.778-5.7034 7.5525-3.6993 1.5414-12.7947 4.0085-20.5017 5.5499-19.9637 3.662-35.5732 6.9607-44.0014 9.2047l-7.9601-31.926c1.1717-.5523 2.1678-1.1546 2.9473-1.7879 4.0076-3.3911 4.0058-3.3914 1.0772-8.0155-1.5414-2.4662-3.5437-4.9313-4.4685-5.5478-.9249-.6936-2.4151-1.0407-4.15-1.0814-.1808 0-.364-.01-.5497 0-2.7858.036-6.093.8086-8.7122 2.1634-2.9286 1.6955-5.2392 1.8484-7.8595.9236-3.8535-1.5414-15.4133 1.3872-18.6502 4.6241-.9248.7708-2.6213 1.3885-3.8544 1.3885-1.3872 0-4.47 1.079-6.9362 2.3121-2.3121 1.2331-5.0863 2.3121-5.857 2.3121-1.5413 0-35.453 15.8765-48.2465 22.5045-11.6531 6.1158-18.5008 9.7858-23.4568 12.6426l-36.0831-62.498-3.3372 1.9267 36.103 62.5324c-2.6135 1.5896-4.7682 3.0166-7.1349 4.663-4.1617 3.0828-7.8607 6.628-8.169 8.0152-.6166 3.391 8.7847 16.4916 11.8674 16.4916 1.3873 0 4.1621-1.079 6.32-2.3121 2.158-1.2331 4.9331-2.6188 6.1662-3.2354.6189-.3094 1.8983-1.0467 3.4473-1.9767l2.1432 3.7117c-.8191.6066-1.5229 1.1739-2.0456 1.6564-1.8497 1.6955-7.8617 5.8554-13.1024 9.0923-5.3949 3.3911-13.7171 8.9404-18.8037 12.6397-4.1472 3.1104-8.2851 5.6692-10.1419 6.4076l-37.1859-55.1304-3.1947 2.1546 37.0227 54.8884c-.085.149-.1588.3044-.2191.4654-.4625 1.079-4.9325 5.2413-9.8649 9.0948-19.8839 15.4138-67.9757 65.6627-78.4571 82.1555-3.5452 5.3949-6.3188 8.3247-8.3226 8.3247-4.47 0-3.8535-2.0047 2.9286-9.5575 3.3911-3.6993 10.1729-11.8693 15.1053-18.3431 12.0228-15.8763 36.5296-41.9257 45.9321-49.1702 16.0304-12.1769 23.5829-20.5007 24.3536-26.5121.7707-5.0866.3092-6.3179-3.6984-9.7089-2.6204-2.158-6.0112-3.8541-7.5525-3.8541-6.4739 0-56.7221 47.1661-75.3729 70.5951-3.8534 4.9325-10.0202 12.6403-13.5654 17.1103-3.6993 4.47-6.627 9.4019-6.627 11.0974 0 1.5414-.308 2.9286-.6163 2.9286-2.1579 0-14.1822-7.5527-19.2688-12.1769-3.2369-3.0828-9.2486-8.0152-13.2562-10.9438-14.9515-10.9439-16.8014-12.9489-14.9517-16.4941 1.8496-3.2369 1.0807-5.0847-2.1562-5.0847-2.0038 0-8.325 9.0941-8.325 12.1769 0 .9248.9255 1.6955 2.1586 1.6955s2.4656 1.079 3.0821 2.3121c.4625 1.2331 1.8494 2.3121 2.9284 2.3121 2.3121 0 15.7242 12.1773 14.4911 13.2562-.9248 1.079-5.7034-1.0808-5.7034-2.468 0-1.6955-15.5683-11.0971-16.6473-10.0181-.4624.4624.1548 1.6958 1.542 2.7748 1.3872.9248 2.7727 3.6984 3.3892 6.0105.6166 2.4662 2.0041 4.3171 3.3914 4.3171 3.5452 0 18.0357 10.0175 25.5885 17.7244 12.1769 12.1769 12.1769 12.3323 9.8649 14.7985-1.2332 1.2331-3.5458 4.6238-5.0872 7.5525-1.5414 2.9286-4.7783 8.1687-6.9362 11.7139-2.158 3.5452-5.3949 8.6318-6.9363 11.5604-1.5413 2.9286-4.162 7.0919-5.7034 9.404-1.2814 1.9932-1.8709 3.7219-1.7717 5.0064l-37.5324-21.6694-1.9268 3.3372 39.1494 22.603c-1.4882.5215-2.8876 1.5845-3.6219 3.0532-2.3121 5.2407-5.3952 10.4799-7.399 12.4837-.9248.9249-1.6958 3.3926-1.6958 5.3964 0 2.7745.7716 3.5446 3.2378 3.0821 1.8497-.3082 4.0076-1.542 4.6242-2.775.7706-1.2332 3.3901-6.0111 6.0105-10.4812 1.7865-3.0476 3.1417-6.0932 3.6779-7.9685l31.1414 17.9794c-2.1448 4.7159-5.7277 12.4935-9.54 20.6627-5.2407 11.4063-10.1723 22.6578-10.6347 24.9698-.6165 2.3121-2.7745 8.1709-4.6241 12.9492-4.0076 9.8649-7.5543 11.8674-12.3326 6.6267-1.5414-1.6955-3.6987-3.0818-4.7777-3.0818-2.9286 0-6.7827 6.3185-6.7827 11.2509 0 2.3121-.923 5.8587-2.1561 7.7084-1.079 1.8497-2.929 6.7806-4.0079 10.7882-2.1579 8.1693-1.3876 9.5578 8.7855 14.1819 2.5472 1.0421 4.1378 2.3448 4.7717 3.7779l-40.9698-14.9117-1.318 3.6211 24.8786 9.055c-.3419.5234-.6516 1.1388-.9278 1.8491-2.158 5.3948-4.7765 20.9625-5.0848 28.9777-.1541 5.8573.1529 6.3206 7.2433 9.5575 5.8726 2.868 8.2332 5.492 6.873 7.7684l-40.6095-5.7074-.5361 3.8162 39.7951 5.5929c-.337 2.3236-.6523 5.7926-.7448 9.4922-.3083 6.0114-1.2331 15.5667-2.3121 21.1157-1.8497 11.4063-1.0777 76.76098 1.3885 104.04348 2.0038 22.3501 4.7788 40.2311 7.3992 47.7838 1.2331 3.5452 2.1561 9.5572 2.1561 13.719 0 .5153.014 1.0191.038 1.5116l-10.3716 2.586c-.4172-1.6119-.9778-3.4296-1.6871-5.4864-3.8535-10.9438-4.4712-11.5604-11.2533-11.5604-5.2407 0-6.0105.4628-6.0105 3.3914 0 2.4662-2.0044 4.7795-6.1661 7.2457-6.628 4.1617-8.0161 7.3975-6.1665 14.1795 2.0038 6.7821 4.3177 9.0948 9.4043 9.0948 4.6242 0 6.9344-3.6984 5.0848-8.3226-.4624-1.3872-.1527-2.468.7722-2.468.9248 0 1.6955.6181 1.6955 1.3888 0 .7706 1.386 2.0032 3.2357 2.4656 2.3121.7707 2.7751 1.5417 1.542 2.7748-.9249.9248-1.6955 3.8525-1.6955 6.627 0 3.6994-1.0781 5.5505-4.315 7.7085-9.5566 6.3196-9.8652 9.2468-2.7748 28.6682 2.9286 7.8611 5.7031 16.0316 6.3197 18.1896 1.2331 4.1617 6.4726 15.8765 17.1081 38.0725 2.8507 5.9387 5.329 11.8648 6.3191 14.912l-39.4983 21.0016 1.8093 3.4025 38.6888-20.5711c1.089 2.7275 3.6535 7.2079 5.8991 10.457l-18.1311 9.6406 1.809 3.4025 18.7227-9.9552c.2042.2155.3944.3985.566.5398.6165.4624 3.5464 4.7789 6.6291 9.7113 3.6917 5.7625 7.0669 9.4203 9.9733 10.8216l1.3144 2.1031 2.8606-1.7873c.4072-.1745.798-.4191 1.172-.7324l6.0481-3.7795c.4022.567.8397 1.0938 1.2894 1.5435 1.8497 1.5414 4.3168 5.2417 5.5499 7.862.091.2316.1876.4529.2866.6692l-6.4344 4.34 2.1549 3.1945 6.5476-4.4165c2.1855 1.8075 5.2571 1.9338 9.3128.3739 2.3798-.9066 2.9247-4.5619 1.7611-7.8433l9.6791-6.5286c2.3777 3.3012 7.4712 7.5892 9.6779 7.5892 1.5414 0 4.7765-1.6955 7.3969-4.0076 4.1617-3.391 4.4697-4.3152 2.9283-7.7063-.9248-2.0038-1.2322-4.1617-.7698-4.6241 1.5414-1.5414 5.549 2.3123 10.9439 10.9441 2.7745 4.1617 7.2451 10.1737 9.7113 13.1024 2.6204 2.9286 7.8611 9.2483 11.5604 13.8724 6.62799 8.3235 12.02309 11.5592 12.02309 7.2433 0-2.0037-10.48199-16.3389-16.03099-21.8879-2.7745-2.7745-14.7979-20.346-20.0386-28.9778-.4992-.8486-1.1161-1.8301-1.7684-2.838l23.7373-16.0111-2.1549-3.1945-23.7175 15.9976c-.6642-.9732-1.2926-1.8754-1.8-2.5857-1.5413-2.0038-2.9286-4.1606-2.9286-4.9312 0-.194-.1986-.6936-.5518-1.4014l19.9838-12.4874-2.042-3.2679-19.8505 12.4039c-.6403-1.0316-1.373-2.1465-2.1636-3.2627-4.7783-7.2446-6.0102-13.4098-2.6192-13.4098 1.2331 0 4.778-2.7745 8.169-6.3197 3.237-3.391 7.3993-6.9377 9.0948-7.7084s4.4685-2.3103 6.1641-3.3892c1.6955-1.079 7.0909-4.1633 12.0234-7.0919 8.16929-4.6242 8.94059-5.549 8.47819-9.8649-.6166-7.2445-4.47059-6.9359-18.34309 1.0793-6.628 3.8534-16.0298 9.2495-20.9622 11.8699-4.7783 2.6203-9.5578 5.856-10.6368 7.2432-2.4662 3.3911-6.6273 1.2338-7.7063-4.1611-.2892-1.2289-.8174-2.5921-1.4541-3.8381l22.3603-11.8891-1.809-3.4025-22.7381 12.0902c-.071-.071-.1425-.1426-.2132-.2062-1.6955-1.3872-2.9286-3.5452-2.9286-4.6242 0-1.0789-1.3858-4.47-3.2354-7.5527-4.0076-6.628-3.2376-7.8602 8.7853-14.6423 7.3986-4.1617 8.1699-5.086 6.7827-7.7063-2.0038-3.8535-1.6958-3.8538-12.6397.1538-10.019 3.5452-13.5654 2.4654-13.5654-3.8543-.1541-1.6956-1.079-4.9319-2.3121-7.0898-1.2331-2.158-2.1579-6.1646-2.312-8.9391 0-4.6242.618-5.2407 8.3249-8.6318 9.2483-4.1617 11.2521-6.3215 8.6318-9.4043-1.2331-1.3872-2.9289-1.694-5.0869-.9233-7.7069 2.7745-16.0301 3.2354-18.0339.9233-2.9286-3.5451-4.9339-16.1839-3.0843-18.6501.3441-.39.4305-.766.321-1.116l21.1094-5.263c1.4412 5.001 3.2733 8.8446 4.4655 8.8446.7707 0 2.4662-.9236 4.0076-2.0026 2.4663-1.6955 2.4656-2.3121.1535-7.5528-1.2331-3.2369-2.312-7.2451-2.312-9.0948 0-1.8496-.9231-6.935-2.1562-11.2509-5.549-19.4214-7.7084-44.0839-7.7084-87.2427 0-42.54218 2.0035-64.73808 7.5525-87.85888 1.0789-4.6242 3.2369-13.7189 4.6241-20.0386 1.3873-6.3197 3.3911-14.3358 4.6242-17.7268 1.079-3.3911 3.0828-10.0181 4.6242-14.6423 4.7783-14.7973 19.2682-50.5574 26.3586-64.7382 3.6993-7.5527 6.7826-14.7979 6.7826-16.031 0-1.6955-3.0836-4.0079-5.5498-4.0079-.3083 0-4.0073 6.7824-8.1691 14.9518-6.6279 13.5642-12.639 27.2837-19.7294 45.9344-1.2331 3.3911-3.2375 8.4774-4.4706 11.0977-2.0038 4.9325-4.9328 6.4744-7.399 3.8541-.6165-.6166-4.0076-1.85-7.5528-2.7748-6.1655-1.5414-6.4738-1.8503-6.3197-7.3993.1542-3.0827 1.387-8.4785 2.9284-11.8695 2.3121-4.7783 2.4671-6.472.9257-8.0134-1.5414-1.3873-2.6212-1.0793-4.9333 1.8493-1.5414 2.0038-2.9286 4.6233-2.9286 6.0105 0 3.3911-6.1641 15.7215-7.8596 15.7215-.7707 0-1.3888 2.929-1.3888 6.32 0 6.4739-4.778 25.2799-8.169 32.062-.9248 2.0038-1.5411 5.3946-1.2328 7.5525.3961 3.8293-3.0529 22.8039-5.213 29.5254l-4.8602-.6831c.1846-1.5223.3157-3.1097.3622-4.6422.3082-5.0866 1.5411-12.3314 2.9283-16.0307 1.2331-3.6993 2.3121-8.4785 2.3121-10.7906 0-2.1579 1.0789-6.0099 2.3121-8.4761 1.2331-2.3121 2.312-6.3215 2.312-8.7877 0-6.4739 9.712-36.2226 21.1182-65.3548 2.9287-7.3986 21.2711-44.5454 24.8163-50.4027 11.2521-18.1883 15.1041-24.0464 17.7244-26.9751 2.7745-3.0827 3.3914-3.2366 6.32-1.2328 1.6955 1.2331 4.7795 2.3121 6.6292 2.3121 4.1617 0 8.6306 2.3133 14.1795 7.2457 2.158 2.0038 4.4703 3.5449 5.0869 3.5449.6165 0 3.3919 2.1579 6.1664 4.6241 5.3949 4.9325 8.4783 5.3955 10.7903 1.542 1.2331-1.8496-.4624-4.4712-6.9362-11.2533-4.7783-4.7783-9.2498-8.7853-10.0205-8.7853-.9248 0-5.5493-3.6984-10.3276-8.3226-7.7069-7.5527-8.4776-8.7877-6.9362-11.7163 2.1579-3.8535 6.4744-5.8576 7.3992-3.3913 1.3873 4.47 6.6271.4627 19.26639-14.4888 8.78591-10.3273 14.6444-16.0289 16.4941-16.0289 5.5489 0 3.236 5.0848-8.4786 18.9573-8.63169 10.1731-11.5604 14.7985-11.5604 18.1895 0 2.6204.772 4.4691 2.0051 4.315.9248 0 7.7057-6.6274 14.796-14.6426 7.09041-8.0152 13.87371-14.4887 15.261-14.4887 1.3872 0 4.0073 1.5423 5.8569 3.2378 2.1579 2.0038 4.6233 2.9287 6.01051 2.3121 2.15799-.7707 2.00469-1.5429-1.3863-6.0129-2.158-2.9286-4.0076-6.3188-4.0076-7.706 0-1.2331 4.3162-6.1659 9.711-10.9442 8.4776-7.7069 10.0184-8.4767 14.6426-7.706 4.3158.7707 6.012 0 13.1023-5.8594 20.3463-17.1094 42.8509-32.8306 61.1933-42.3872 7.2445-3.8535 13.8719-7.5525 14.64259-8.169.9248-.6166 10.63461-5.0872 21.57851-9.7113 37.4556-15.8763 86.01019-29.5943 107.8978-30.6733l9.24829-.463 1.2328 10.6371c1.2331 11.8686 2.9284 14.7957 8.16911 14.7957 4.47 0 5.7037-3.8531 4.4706-14.4887-2.0038-15.568-4.0076-14.7961 34.6812-14.7961 25.5869 0 33.7551-.4636 34.3716-2.005.9249-2.6203-.61471-12.3298-2.1561-14.1795-.1254-.1254-.3797-.2424-.7397-.3495v-35.5326c2.8894.168 6.15979.3184 9.525.4287 22.8125.7707 49.9415 5.7049 78.4571 14.0284.4758.1406 1.0887.3181 1.601.4685l-9.1438 36.6744c-3.7489-.415-5.5596.2121-5.5596 1.853 0 2.3121 5.394 6.0108 10.0181 7.0897 2.6204.6166 7.0919 1.8497 10.0205 2.9287 2.9287 1.2331 9.2483 3.2384 13.8725 4.7798s9.2471 3.3913 10.1719 4.0079c.9249.7707 6.3206 3.0825 11.8696 5.2404 34.83531 13.1018 82.61851 43.7738 117.29971 75.5264 11.4063 10.3272 37.1468 38.226 48.0906 52.0985 7.5528 9.5566 7.0904 11.408-6.3197 20.9646-11.5604 8.3235-13.2553 10.9427-9.4018 15.8751 3.0828 4.1617 5.3939 3.3907 17.5709-5.7034 6.1655-4.6242 12.17755-8.4761 13.10245-8.4761 1.8496 0 11.71514 13.7171 12.02344 16.4916.1541 2.7745 10.3263 15.1052 12.3301 15.1052 4.47 0 2.9296-6.011-5.3939-19.7294-4.7783-7.8611-8.63214-15.26-8.63214-16.6473 0-3.2369 15.25794-17.4167 21.26934-19.8829 4.9325-2.0038 5.3961-1.8503 8.9413 2.4656 2.0038 2.4662 3.5443 4.9333 3.6984 5.5499 0 .6166 2.9289 5.394 6.32 10.6346 6.4738 9.7108 24.6634 45.1638 26.8213 52.2542.6165 2.1579 1.6955 4.4694 2.3121 5.3942.6165.7708 2.6203 6.0114 4.6241 11.5604s4.0076 10.6356 4.6242 11.5604c2.1579 3.0828 6.164 17.5715 6.164 22.0415 0 .1545 0 .3107.012.4682l-14.5218 5.2855c-2.0134-5.9872-4.5015-12.3084-5.527-13.6135-1.8497-2.158-6.1662.7703-6.1662 4.1614 0 1.6955 1.6962 8.7859 3.8541 15.568 2.158 6.7821 3.852 12.7926 3.852 13.5633 0 .6165-3.0828 2.6209-6.9363 4.4706-9.4024 4.6242-8.9397 8.3226 1.0793 7.706 4.3159-.3083 7.5543.3098 8.325 1.3888.6165.9248 2.0029 6.6264 3.0819 12.4837.8083 4.3786 1.2631 7.0201 1.2876 8.9286l-14.228 3.0244.8013 3.7694 12.3507-2.6252c-.3087.5241-.6856 1.0736-1.1374 1.701-2.7745 3.6993-2.9277 5.0863-1.3863 13.4097 2.6203 15.568 4.1623 61.9628 2.7751 88.62878-1.8497 38.2263-6.3203 64.2766-18.9597 110.2099l-2.005 7.706-6.7803-.1535c-6.1655-.1541-13.4103-2.0029-20.1924-5.394-7.0904-3.5452-13.7183.6148-10.9438 6.7803 1.2331 2.6204 5.0856 4.6245 15.2588 8.0155 14.489 4.6242 16.1848 5.8573 14.9517 9.8649-2.9286 9.4024-23.7364 51.0213-33.7554 67.8224-5.3949 8.9401-9.86494 17.1082-9.86494 18.1872 0 2.4662 7.55314 8.169 10.94424 8.169 1.8496 0 6.1655-5.7031 13.8724-18.4966 6.0114-10.1731 11.2503-18.4966 11.4045-18.4966.6165 0 7.3998 3.7002 11.2533 6.1664 1.8496 1.2332 3.3913 3.2357 3.3913 4.3147 0 2.0038-8.1699 17.8813-10.7903 21.1182-.7707 1.0789-1.0796 2.3124-.463 2.7748 2.0038 2.0038 6.7836 1.079 7.7084-1.6955 2.7745-7.3987 11.2503-18.4976 14.9497-19.4224 1.0906-.2726 1.9099-.6037 2.515-1.0465l4.0672 2.1625c-1.1456 2.5443-2.3334 5.35-3.3444 7.9788-2.3121 5.8572-5.0863 11.7136-5.857 12.9467-.9248 1.079-2.4665 3.2384-3.3913 4.7798-1.8325 3.2309-3.4269 6.0614-4.8518 8.6113l-11.0525-6.9064-2.042 3.2679 11.2196 7.0106c-6.158 11.1404-7.9159 15.0592-7.9159 16.8408.1542 2.7745 19.73 18.8034 24.8166 20.0365 1.6956.4624 3.6984-1.2328 6.0105-5.2404 1.6455-2.6583 5.0566-7.5967 8.3584-12.0972l62.0841 38.7945 2.0421-3.268-61.8195-38.6291c3.6626-4.9098 8.0128-11.5198 9.6806-14.7037 1.6955-3.391 3.6999-6.4738 4.4706-6.9362s1.3863-2.4662 1.3863-4.6242c0-2.4662 1.6956-5.3936 4.6242-7.8598.4316-.3301.8442-.6822 1.2361-1.0438l8.2121 4.3665 1.8089-3.4025-7.4443-3.9582c.5132-.7982.8114-1.5007.8114-1.9746 0-1.079 1.3872-4.3159 2.9286-6.9363.6509-1.1016 1.1694-2.1701 1.5549-3.2119l7.4065 3.9381 1.809-3.4025-8.4081-4.4706c.019-.7631-.048-1.514-.2038-2.2549-.4624-2.4662-.155-6.0102.7698-7.8599.9249-1.8496 3.2381-7.2454 4.9337-11.8695 1.8496-4.6242 4.3167-10.7888 5.5499-13.5633 2.7744-6.628 2.7726-13.2577-.156-15.724-1.7188-1.4323-2.4893-3.8101-2.1682-5.7058l36.0951 10.3502 1.0621-3.7042-34.4119-9.8675c.2149-.4786-.2342-1.1585-1.3469-2.17-.8681-.7596-1.6581-2.1305-2.0508-3.4672l27.5616 7.9032 1.0622-3.7042-30.1814-8.6543c-.6616-.4908-1.5305-.735-2.5014-.7174l-8.7287-2.503c.2048-1.2507.5354-2.5783.9661-3.8089 1.0789-3.0827 2.6212-7.7057 3.2378-10.1719.6164-2.6203 2.4656-9.8649 4.1611-16.1845 1.6955-6.3197 4.3162-17.8801 5.7034-25.4329 1.5413-7.7069 3.2372-14.6432 4.0078-15.568.7708-.9248 4.6242-1.6952 8.6318-1.8493 6.0114 0 8.1687.7685 11.7139 4.0055 2.3121 2.1579 4.1614 5.2413 4.1614 6.7826 0 3.5452 5.3955 3.7006 6.7827.3095.4625-1.3872.9234-4.6244.9234-7.3989s.771-7.2439 1.6958-10.0184c1.2331-3.5452 1.2331-5.3949 0-6.9362-1.2331-1.5414-1.2334-2.4666.6162-4.008 1.6956-1.3872 2.3121-5.241 2.3121-14.9517 0-7.0904 1.0808-17.7262 2.4681-23.5835 3.2369-14.33488 2.6185-19.26668-2.4681-19.26668h-3.8519l-.9258 22.34858c-1.2331 27.7449-1.0786 26.5118-2.9283 25.4328-.7707-.4624-1.3869-10.7882-1.2328-24.0441l.3071-22.96718-4.9312-4.315-4.7777-4.1635-.8514-19.8427 29.4257-1.0277-.1343-3.8511-29.4534 1.0284c-.4835-11.0627-1.3269-21.1248-1.7617-23.0091-.9249-4.0076 1.8496-4.4706 6.9362-.9254 1.8497 1.2331 3.5449 1.8496 3.5449 1.079.7188-4.3131.6922-12.163.1382-16.1704l49.7262-3.4772-.2688-3.8441-50.7005 3.5452c-.7571-2.2903-1.7-6.7689-2.2865-11.3434-.9248-6.782-3.236-14.0269-6.0105-18.9593-2.312-4.47-6.6279-17.1106-9.2483-28.0544-2.7745-11.098-6.0129-21.888-7.0919-24.2001-2.9286-5.7031-2.7741-7.09 1.0793-8.169 2.085-.7297 2.6873-1.0375 1.4776-2.018l7.753-2.8217c1.9312.4754 5.929-.6972 6.0276-2.1938l5.4467-1.9827c2.5174.4673 6.3057-.8244 6.2465-2.2732l51.0021-18.5635-1.318-3.621-79.1574 28.8109c-2.2619-1.6839-4.317-4.4124-4.7214-6.4344-.6165-2.3121-2.313-6.4729-3.8543-8.9391-4.0076-6.7821-9.0948-17.8813-9.0948-19.8851 0-1.0789-1.079-3.2357-2.3121-4.9312-1.2331-1.5414-2.3121-4.0091-2.3121-5.3964 0-1.3872-1.3869-4.1602-2.9283-6.164-2.7745-3.5452-3.0825-3.5461-5.857-.9257-1.6955 1.3872-3.6993 2.6212-4.6241 2.6212s-7.0895-10.6358-13.5633-23.5834c-6.628-12.7935-14.9514-27.8994-18.4966-33.4484-3.6994-5.549-6.9378-11.0974-7.0919-12.3305-.065-.26-.093-.5258-.086-.8008l31.8576-26.7316-2.4771-2.9521-16.0298 13.4507c-.8212-.2719-2.6959.1982-5.4029 1.6194-.8251.45-1.6128.6156-2.2871.5798l31.8461-26.7223-2.4767-2.9518-28.8125 24.1763c-.01-.2344-.094-.4529-.2727-.6319-.4624-.6166-2.1598-.1539-3.547 1.0792-2.158 1.6956-2.773 1.6956-4.4685-.6165-2.3121-3.2369-4.7795-3.3898-6.0126-.3071-1.2332 3.3911-5.2396 2.7748-7.2434-1.2328-.3379-.5793-.8423-1.3402-1.4513-2.1877l8.8804-7.4514 2.0234-1.6976c.3245.6327.8689 1.329 1.6449 2.2419 3.3911 4.3159 9.0948 4.4707 9.0948.4631 0-4.6424-.7132-8.1112-1.8542-10.1611l24.5141-20.5697 35.4232-29.7235-2.477-2.9521-35.4233 29.7234-25.6291 21.5057c-.9517.2854-1.9662 1.1054-2.9901 2.509l-6.8037 5.7091-8.7652 7.3547c-.8203-.9874-1.6804-1.9528-2.5068-2.7793-3.8535-4.0076-4.4713-5.3951-3.7006-10.3276 1.079-6.3196 1.3882-5.5487-17.5708-26.6657-1.9203-2.1507-4.1852-4.7608-6.3179-7.2201l18.9094-21.0008-2.864-2.5785-18.59174 20.6486c-1.1389-1.3079-2.1932-2.5117-3.0057-3.4146-5.549-6.6279-27.74366-25.7399-29.74746-25.7399-.6166 0-1.2328 3.2366-1.2328 7.0901 0 3.8534-.4634 7.3992-.9258 7.8616-.4624.4625-4.007-1.8499-7.7063-5.0868-1.1056-.9287-2.3568-1.988-3.6433-3.0759l26.9727-32.1451-2.9518-2.4767-26.9679 32.1387c-2.2331-1.8697-4.3679-3.6227-5.8958-4.7686-6.628-5.3948-6.7812-6.9362-.7698-9.2483 2.6203-.9248 4.6241-2.3121 4.6241-2.9286 0-.6166-2.6206-2.9302-5.7034-5.3964-3.2369-2.3121-8.0161-6.0105-10.7906-8.3226-.4072-.3528-.7674-.6682-1.1063-.9676l12.6221-17.3727-3.1176-2.2649-4.2304 5.8224c-1.1079-.7098-2.7192-1.5508-4.9376-2.6342-4.47-2.158-15.7212-8.9413-25.1236-14.7985-6.3067-4.018-12.5091-7.7301-18.155-10.9056l20.8921-36.1864-3.3374-1.9268-20.9259 36.2445c-9.8655-5.3832-17.5517-8.8042-20.2469-8.8042-1.6955 0-4.7777 2.0038-7.0897 4.6241l-4.008 4.6242-10.6346-4.9337c-5.7031-2.6203-11.0983-5.3933-12.0231-6.164-2.6204-2.3121-8.7868-1.2337-13.1027 2.4656-4.16171 3.3911-4.77651 3.5461-12.02101 1.5423-4.3159-1.079-9.2483-2.62-10.9438-3.5449-1.6955-.9248-4.6254-1.6958-6.6292-1.6958s-5.0865-1.0789-6.9362-2.3121c-.7382-.4921-2.0213-1.0823-3.5753-1.6729l3.6524-14.6489c1.3087.4612 2.7148.8879 4.084 1.2166 3.8535 1.0789 8.0152 2.1567 9.2483 2.6191s4.47-.9245 6.9363-2.9283c5.2407-4.47 4.4715-5.7028-6.1641-8.7856-3.391-.9248-7.4004-2.7745-8.7877-4.0076-.5999-.4799-1.3172-.8413-2.0869-1.0696l2.4753-9.9278-3.7391-.9321-2.7209 10.9134c-1.8991.5058-5.2834-.1092-7.9544-1.296-2.7745-1.2331-14.3336-4.1614-25.7399-6.4735-16.0304-3.2369-21.7353-3.8544-24.9722-2.6213-3.5452 1.2332-4.9322.924-8.1691-1.5422-2.7745-2.158-7.2433-3.2354-15.875-3.852-6.4739-.4624-12.7929-1.6949-14.026-2.4656-.4296-.3759-1.8345-.6765-4.1311-.8966v-79.88251zm-26.2548 97.13521c7.1092.019 13.9679.5199 19.1316 1.5218.276.051.562.1007.8538.1488v9.5466c-4.9619-.1371-10.5419-.2437-16.4197-.2911-7.9725-.1296-15.4086-.3141-21.4171-.5187v-9.4142c5.5349-.6735 11.7831-1.0095 17.8514-.9932zm66.2149.2692c6.9818-.034 25.1899 2.4093 28.2919 4.0277 3.3911 1.6956 22.0409 6.0126 26.2027 6.0126 1.8496 0 4.4703.924 5.7034 2.0029.3816.2968.9785.6409 1.7157 1.0022l-3.7144 14.8967c-1.4302-.4264-2.9137-.8095-4.321-1.1007-15.7221-3.2369-20.6543-4.317-33.6019-7.2457-7.2445-1.6955-20.3454-3.8525-29.1313-4.7774-8.7859-.9248-16.6484-2.1585-17.5733-2.7751-.4227-.2113-4.0573-.4868-9.6785-.7384v-8.9624c11.4305.506 25.8939-.2548 33.8786-2.1666.4624-.1156 1.2307-.171 2.2281-.1758zm-87.9198 1.3595v8.6366c-5.9924-.2395-9.8887-.4946-10.3131-.7156l-.028-.7885c.8799-1.9409 6.6715-5.9885 10.3408-7.1325zm45.5437.5413c.7779.079 1.5823.1512 2.416.2144v9.0327c-.7802-.029-1.5863-.057-2.416-.084zm-75.3024 9.6794c.4625 0 .7722 5.5505.7722 12.3326s-.4627 12.3305-1.0792 12.3305c-.7707 0-1.2335-4.0067-1.0793-8.9391.1541-11.7146.4615-15.724 1.3863-15.724zm-87.9597 11.7925 7.883 31.6171c-.7762.2461-1.4248.4726-1.9252.6758-2.6204 1.2332-5.5478 2.1562-6.6268 2.1562-.1275 0-.3087.024-.5292.066l-8.1715-32.7755c.9534-.1547 2.0407-.2949 3.3065-.4296 2.1919-.3044 4.2358-.755 6.0632-1.3102zm-13.1021 2.7017 8.2036 32.9034c-10.1317 3.4234-34.3492 13.4901-38.9308 16.4173-2.9286 1.8496-9.4012 5.3939-14.1795 7.706-8.9401 4.0076-11.0983 7.3983-7.399 11.0977 1.2331 1.2331-2.0035 4.1626-10.4811 9.5575-8.2587 5.4361-12.9724 7.8935-16.1611 7.9029l-12.7998-22.1701c1.2988-.8464 2.4598-1.6903 3.2186-2.3801 4.7783-4.1617 28.5156-16.6463 49.1702-25.5864 10.1731-4.3159 19.2673-9.0939 20.1921-10.4811 1.079-1.8497.6178-3.239-2.0026-5.8594-3.2369-3.2369-3.6999-3.3895-5.0872-.9233-.9248 1.5414-2.4653 2.7748-3.6984 2.7748s-4.7786 1.0786-8.0155 2.4659c-3.2369 1.3872-7.8607 3.5455-10.4811 4.4703-7.5528 3.2369-17.8801 8.3235-27.7449 13.8725-5.0866 2.7745-12.3317 6.7818-16.031 8.7856-1.6953.8137-3.5393 1.8664-5.2441 2.9476l-2.0477-3.5473c.5842-.3644 1.1691-.7313 1.7419-1.0958 10.6355-6.7821 12.0246-7.5531 23.2767-13.2563 6.0114-2.9286 11.5589-5.3942 12.4837-5.3942s2.4659-1.079 3.5449-2.3121 3.5467-2.3121 5.3963-2.3121c1.8497 0 4.3153-1.0789 5.3943-2.312s3.0834-2.3121 4.4706-2.3121c1.3873 0 3.8526-1.079 5.3939-2.3121 1.6956-1.2331 4.0076-2.3121 5.2408-2.3121 1.233 0 6.7817-2.1579 12.1766-4.6241 5.2407-2.6204 11.0977-4.6242 12.7932-4.6242 1.8497 0 3.6993-1.5426 4.6241-3.7005.5733-1.6377 1.3208-2.6663 2.982-3.3862zm148.4119 3.4413c9.0422.01 20.9602.6087 24.0989 1.4249v16.7869h3.8534v-16.2177c.7261.067 1.5307.1334 2.416.199v35.2397c-2.1774-.1493-4.9035-.1774-7.7395-.032-6.0114.1541-15.4138-.1539-20.8087-.6163l-9.8648-1.0793v-9.0948c0-8.4776.3085-9.2474 4.0079-10.6346 2.1579-.9248 7.2457-1.5423 11.2533-1.5423 7.0903 0 12.3308-2.7727 9.8645-5.0848-.4624-.6165-6.4744-1.0792-13.1023-1.0792-10.4815 0-12.4861-.4621-15.4148-3.5449l-2.3018-2.2022v-1.4023l4.1533-.7126c1.7822-.289 5.3706-.4122 9.5846-.4076zm-21.3302.5413c1.6345.026 3.1241.4398 3.7388 1.2761v2.515c-.9084 2.2328-3.9278 3.4102-9.3296 3.5997l-.1809-5.1784c.6973-1.3887 3.0923-2.1544 5.3406-2.2106h.4311zm-12.3548 2.3837c.7196 0 1.6157.2914 2.6754.8743.031.014.059.026.09.04l.1421 4.0657c-3.3078-.1741-5.0119-.7709-5.0119-1.794 0-2.1242.7309-3.1863 2.1047-3.1863zm9.8227 13.1418c.044 0 .089 0 .1343.01.7321.058 1.734.5202 3.5066 1.4451 2.3121 1.3872 2.9283 3.3904 2.9283 10.0184 0 9.0942-1.2328 10.1725-10.4811 9.4018-6.7821-.6165-7.706-1.8499-8.3225-10.9441l-.4628-7.7061h4.9334c.409-.023.8114-.054 1.2078-.09l.4784 13.7006 3.851-.1342-.4967-14.2263c.4548-.1465.7951-.3083.97-.4832.6503-.6502 1.0967-.9953 1.7533-.9883zm151.3685 2.3858c6.2845 1.8274 13.7371 3.9653 18.5885 5.3853 6.3196 1.8496 17.88 6.1649 25.43281 9.4018 7.7069 3.3911 16.9553 7.5534 20.8087 9.0948 3.8535 1.6955 8.7853 4.0073 11.0974 5.2404 2.1579 1.2331 4.778 2.3121 5.8569 2.3121 1.0713 0 4.4233 1.9761 7.6392 4.569l-3.8932 6.743c-.7794-.4035-1.5747-.8371-2.3572-1.2936-3.6993-2.158-7.8617-4.1612-9.0948-4.7777-1.2331-.4624-4.1614-1.8512-6.4735-3.0843-4.6241-2.4662-9.8661-2.7739-11.2533-.7701-.4624.7707 1.0793 2.4653 3.3913 3.6984 29.272 14.7869 59.4278 32.6758 67.9167 40.0751l-5.8431 8.0423c-.8455-.5922-1.6697-1.1306-2.4223-1.5663-2.7745-1.6956-10.0175-6.012-16.0289-9.7114-17.7259-10.7896-43.0061-23.4278-47.0137-23.4278-4.7783 0-4.9312 2.6204-.3071 4.6242 1.8497.9248 4.4704 2.1579 5.7034 2.9286 1.2332.7707 3.3911 1.8497 4.6242 2.3121 1.2331.6165 5.0851 2.6197 8.4761 4.7776 3.3911 2.0038 7.2448 3.7 8.6321 3.8541 1.3872 0 2.9283 1.079 3.5449 2.3121.4624 1.2331 1.8493 2.3121 2.9283 2.3121 2.4835 0 19.6391 10.6568 27.7238 17.2818l-2.887 3.9736c-2.7489-1.7316-6.9556-4.4861-11.5806-7.5386-15.2597-10.4814-39.6121-23.2734-59.9584-31.5969-7.24451-3.0828-14.33611-6.1655-15.87741-6.9362-1.6956-.9248-11.2518-4.3174-21.425-7.7085-6.2212-2.0737-11.1929-3.5009-14.9812-4.299zm-190.3071 2.4325c2.1187.016 2.7073.5525 3.4299 1.564.6165 1.079 2.0032 5.0878 3.0821 8.9413 2.3121 8.7859 1.5408 9.4024-14.3355 12.1769-24.8163 4.3159-57.9554 13.1015-67.2037 18.0339-2.158 1.2331-4.9322 2.1583-5.857 2.1583-1.079 0-10.9435 3.8519-22.0415 8.4761-15.7221 6.6279-20.5017 8.1705-22.1972 6.6291-4.3159-3.5452-1.5423-7.862 7.7061-12.4861 6.1655-3.0828 8.7877-5.241 8.7877-7.399 0-1.6955-1.0805-2.9286-2.4678-2.9286-2.9286 0-2.1576-3.2369 1.0793-4.6241l5.5499-2.7727c4.7783-2.4662 20.0377-7.5546 26.6657-8.7877.9386-.1976 1.9024-.4447 2.813-.7069l3.7032 14.8527 3.7391-.9321-3.7984-15.2347c.2032-.1045.369-.2029.4793-.2911.7519-.5541 3.9527-1.6689 8.4918-3.0485l3.4539 13.8535 3.7391-.932-3.4952-14.0182c13.6087-3.951 34.6807-9.2428 43.1467-10.4971 8.2464-1.3102 12.5993-1.9652 15.0848-2.0231h.4447zm297.06371 2.9528c.095 0 .1931.032.2938.087l-8.1202 14.0648c-.5859-.2776-1.0346-.4356-1.2684-.4356-.9248 0-2.4659-1.079-3.5449-2.3121-1.6955-2.0038-1.3887-3.0812 1.5399-6.164 1.8497-2.0038 4.9331-4.0088 6.7827-4.3171 1.6955-.3083 3.7005-.7692 4.3171-.9233zm2.5463 3.8932c1.2212 1.6071 4.1664 3.842 7.3186 5.3551 3.6993 2.0038 8.0146 4.7783 9.4018 6.3197 2.3121 2.6203 2.1576 3.0818-1.6958 6.627-4.7783 4.47-7.3996 4.7789-10.1741 1.542-1.0789-1.2331-2.6206-2.3121-3.3913-2.3121s-3.6987-1.6961-6.4732-3.854c-.6727-.5232-1.3631-1.0182-2.0345-1.4695zm48.8514 25.3431-2.6011 3.5801c-.3556-.9078.2556-1.5676 1.6064-2.7594.3218-.2897.6572-.5648.9947-.8207zm-465.86381 1.4688c1.4962 0 2.6589.5892 2.2976 1.8175-.4624 1.079-2.0029 2.3109-3.6984 2.6191-1.5414.3083-3.5446 1.3882-4.1611 2.6213-1.5414 2.7745-9.2493 2.928-8.4785.1535.4624-.9248 2.3126-2.1579 4.4706-2.312 2.0038-.3083 4.3147-1.5417 4.9312-2.7748.7707-1.3102 2.6974-2.0409 4.3351-2.1179.1024 0 .2038-.01.3035-.01zm400.26401 2.1971c2.0223 1.3999 3.7102 2.3952 4.3351 2.3952 1.3873 0 6.476 3.0822 31.2923 19.2667 2.5246 1.6336 5.3259 3.4388 7.8884 5.0682l-3.9368 5.4189c-.7036-.4613-1.3573-.8777-1.9491-1.2388-20.038-12.0228-35.4521-21.7326-35.7604-22.8116-.3083-.6165-1.3866-1.0792-2.4656-1.0792-.4839 0-1.5591-.3431-2.9289-.914zm-463.52161 5.2215 10.5829 18.3301c-2.431.5381-7.1579 3.3976-15.9299 9.2077-15.0541 10.1811-22.7847 15.4471-26.8881 18.4379l-11.154-16.5365c.5148-.4254.975-.8084 1.3559-1.1292 6.9363-5.8573 33.7567-24.0468 40.3846-27.4379.5232-.2616 1.0793-.5562 1.6486-.8721zm42.8541 18.8901c.1352 0 .2657 0 .3911.01 1.7554.1012 2.5806 1.0284 2.5806 2.7818 0 3.5452-1.2328 4.47-14.4887 11.5603-10.6356 5.8573-14.1798 5.7032-12.9467 0 .6165-3.2369 18.9575-14.3351 24.0441-14.3351.1445-.01.2844-.015.4196-.016zm467.45001 4.6777c1.3876.8652 2.6085 1.6123 3.4871 2.1209 5.7118 3.4058 13.8925 9.8046 23.0985 17.7518l-4.657 5.5502c-8.8634-7.2769-18.9123-14.9999-25.9416-19.8992zm-556.68961 8.3204 11.0902 16.4423c-.8968.759-1.349 1.2594-1.6507 1.7118-.7707 1.0789-4.9312 4.933-9.5553 8.4782-19.4215 15.1056-50.0966 47.0126-70.1346 72.7537-3.8534 4.9324-7.0903 7.7063-9.2483 7.7063-3.0828-.1541-13.2562-8.0155-13.2562-10.3276 0-1.8496 12.7947-18.3412 25.1258-32.6761 14.7973-16.9553 42.3869-44.0842 55.7969-54.7198 3.9429-3.033 8.3942-6.5798 11.8322-9.3688zm547.96361 3.69c1.3426.9981 2.5359 1.6709 3.1183 1.6709 2.0038 0 15.1071 9.8645 22.1975 16.8008.1873.1873.3882.3846.5994.5891l-7.0269 8.3741c-3.1645-2.597-6.1753-4.9395-8.3707-6.4976-4.7783-3.3911-10.4818-7.8602-12.6397-10.0181-.9305-.8641-2.2057-1.9576-3.5894-3.0578zm-493.05081 3.2388c1.6633.01 3.2432.2908 3.8501.8977 2.6204 2.6204-2.9265 7.3992-28.8217 25.2793-.648.4507-1.282.9085-1.9885 1.4448l-4.6124-6.8384c2.4596-2.0889 9.0529-6.8802 14.9234-10.9445 6.0114-4.0076 11.2515-7.8613 11.714-8.632.4624-.6936 2.3123-1.1172 4.2198-1.1943.2384-.01.4777-.014.7153-.013zm531.26941 7.1542c30.2241 26.5296 69.51749 67.5466 70.16589 75.4005l-5.1146 4.2915c-.9275-1.2699-2.0959-2.7125-3.3513-4.1-2.92864-3.0828-6.62914-8.7862-8.32474-12.6397-1.6955-3.8534-3.6978-6.9362-4.4685-6.9362s-4.6241-3.2375-8.63175-7.3993c-19.8839-20.1921-24.6628-24.9704-35.1442-34.6812-2.7141-2.4969-6.0694-5.4035-9.7267-8.4586zm-48.1813 3.3197c2.4328 1.939 4.5648 3.3726 5.0655 3.3726 3.3911 0 40.8476 33.4478 40.8476 36.5306 0 2.6204-3.8534.7701-9.2483-4.4706-2.1579-2.0038-8.3235-7.0895-13.8724-11.2513-10.1732-7.7069-16.6473-13.2571-21.888-18.1895-1.3943-1.2548-2.7855-2.3792-3.3811-2.583zm38.7053 7.973c3.2798 2.9547 7.5166 6.5385 10.9062 9.2721 6.9363 5.549 8.633 7.7054 8.3247 10.7882-.3082 2.7745-1.5426 4.0088-4.3171 4.3171-2.9286.3083-6.319-2.0038-14.0259-9.2483-2.272-2.1492-5.0093-4.5663-7.7819-6.9128zm-556.25901 4.9388 4.4845 6.6484c-3.3127 2.7397-8.5503 7.2935-18.8835 16.3351-6.4738 5.7031-13.4086 12.0234-15.4124 14.3355-3.8534 4.1617-10.9441 5.5478-10.9441 2.0026.1542-2.4662 16.0289-19.2661 24.6606-25.74 5.9523-4.568 8.5941-6.8159 16.0949-13.5816zm584.06601 25.8793c.092 0 .1864-.0001.2818 0 2.8619.1224 7.2027 2.9873 12.5674 8.3521 7.3986 7.3986 8.1681 8.7859 6.6267 11.5604-.9248 1.8496-2.9268 3.2378-4.4682 3.2378-3.8534 0-19.2691-17.7259-18.036-20.8087.5299-1.4451 1.4658-2.2116 2.7567-2.3302.089-.01.1793-.013.2716-.015zm-268.76161 6.199c-.9248 0-11.0979 8.9385-22.5042 20.0365-11.4062 10.9438-21.4255 20.0389-22.5045 20.0389s-10.9435-9.0951-22.0415-20.0389c-11.2521-11.098-21.2711-19.883-22.5042-19.883-1.2331.1541-3.3923.4633-4.9337.9257-1.6955.4625-2.6203 1.8494-2.312 3.5449.6165 3.8535 48.5551 52.4056 51.6379 52.4056 2.7745 0 50.0938-47.011 51.7893-51.1728.9248-2.6203-2.6194-5.8569-6.6271-5.8569zm258.55711 4.6494c.05 0 .1013 0 .1542.01 1.4089.1385 3.9022 1.8716 7.1777 5.0508 6.9362 6.782 13.2559 16.1848 11.5603 17.2638-2.0037 1.2331-20.0386-17.5718-20.0386-20.8087 0-1.0296.3999-1.5251 1.1464-1.5146zm-218.79111 4.5989c-2.3121 0-16.3366 12.947-43.3108 40.0754-21.8877 22.0418-40.6932 40.0751-41.4639 40.0751-.9248 0-19.5762-17.8783-41.4639-39.7659-22.0418-21.7336-41.1553-39.7699-42.6966-39.924-1.3873-.3083-3.8532.3104-5.2404 1.2352-1.5414.7707-2.7751 2.4653-2.7751 3.6984 0 2.7745 89.4009 91.713 92.3295 91.713 2.158 0 90.3261-86.935 91.7133-90.4802 1.079-2.6203-3.2387-6.627-7.0921-6.627zm-518.2441.1559c.224-.012.4934.036.8017.1512 1.079.3082 2.313 1.5425 2.6213 2.6215.4624 1.2331-.1554 1.8488-1.3885 1.3863-1.0789-.3082-2.3108-1.5401-2.6191-2.6191-.3468-.9248-.087-1.5037.5846-1.5399zm832.463 9.1649c.049 0 .099 0 .1515.01.1192.01.2468.036.3817.075.9248.4625 1.6955 1.2325 1.6955 1.8491-.1541 1.8496-2.3117 1.3875-2.9283-.6163-.3793-.7586-.033-1.3105.6996-1.3141zm-54.10774 4.3033c1.3603.021 2.2329.5268 2.2329 1.6347 0 .6165 3.0834 4.4709 6.7827 8.4785l6.78274 7.2433-4.9333 2.4677c-2.77454 1.2332-5.85734 4.3144-6.93634 6.7806-3.0827 7.0904-6.0105 5.8582-15.87535-6.627-3.2369-3.8535-5.857-7.5531-5.857-8.0155s2.6201-3.2369 5.857-6.3197c3.603-3.3911 8.95385-5.6894 11.94665-5.6426zm-466.50236.2483c-.3083.1542-2.4656 1.2326-4.7777 2.4657-2.4662 1.2331-4.315 3.0824-4.315 4.1614s22.8111 24.5077 50.7101 52.0985c36.8391 36.5308 51.0214 51.4823 51.6379 54.8733 1.5414 6.628 25.7399 30.3668 29.7475 29.1337 4.3159-1.3872 26.6657-26.3589 26.6657-29.7499 0-1.6956 20.9644-23.8912 51.6379-54.4106 48.8619-48.8619 51.3263-51.6361 49.0142-54.4106-1.5413-1.5414-4.1602-2.6204-6.164-2.3121-2.1579.3083-23.4284 20.3454-57.3389 53.9476-57.9561 57.4936-57.1875 57.0309-70.5976 54.4106-5.0865-.9249-13.2556-8.3229-60.7302-55.6434-30.2112-30.057-55.1816-54.5642-55.4899-54.5642zm-218.0379.8406h.2216c.5283.04.9239.3023 1.0973.8514.6165 1.6955-11.2503 12.0225-12.021 10.4811-.6166-.7707.1532-1.8496 1.3863-2.3121 1.3873-.4624 2.4656-1.5414 2.4656-2.312 0-2.7905 4.4882-6.6315 6.8502-6.7123zm706.4018 7.2008c.1772.2914.3666.547.5638.7442.9249.9249 1.2347 2.4666.7722 3.3914-1.5413 2.3121-5.5498 2.1567-5.5498-.3095 0-.07-.016-.1561-.043-.2544zm-780.8839 1.648c3.3886.12 7.2491 3.9131 10.7557 10.6566 2.7745 5.549 7.5519 8.4764 10.6347 6.6268 2.7745-1.6956 3.2384 3.083.7722 8.632-1.3873 2.7745-6.9378 12.1776-12.3326 20.6552-5.549 8.4776-10.7885 17.1085-11.8675 19.2664-.059.1388-.1819.413-.2748.6235l-33.3247-19.2399c2.6858-.7713 6.7414-5.185 9.3995-10.3613 6.1655-12.177 22.1962-35.759 24.8166-36.6838.4624-.1349.9369-.1926 1.4209-.1755zm256.143 8.8073c-1.6955 0-4.3149 1.386-6.0105 3.2357-2.7745 3.0828-2.4656 3.3913 46.088 51.9449 36.8392 36.685 48.7081 49.3241 47.9374 51.482-.6165 2.0038 7.8608 11.2533 33.6019 36.6862 18.9591 18.6507 35.2977 33.9089 36.3767 33.9089s17.2632-15.1058 35.914-33.4483c26.2035-26.0494 33.7566-34.3729 33.4483-36.9933-.3082-2.6203 10.1717-13.8706 47.7815-51.3263 26.3576-26.3577 48.093-48.7074 48.093-49.7864 0-2.9286-3.2376-5.7034-6.7827-5.7034-2.0038 0-20.654 17.5702-53.3313 50.0935-27.745 27.5908-51.4829 50.0959-53.0243 50.0959-1.3872 0-13.255 10.0196-26.2026 22.3507-13.1018 12.3311-24.9726 22.3485-26.6681 22.3485-1.5414 0-11.7127-8.9394-23.5814-20.9622-12.1769-12.3311-23.2746-22.0406-26.6656-23.4278-3.6994-1.6955-22.9667-19.8854-54.8733-51.6379-31.5984-31.5984-50.0972-48.8607-52.101-48.8607zm347.73741 20.0365c-1.2331 0-23.58351 21.4261-49.63291 47.7838-36.685 36.9932-48.3998 47.7835-51.3284 47.7835-5.0866 0-65.6618 60.7288-65.0453 65.1988.4624 2.6204 4.7783 4.934 15.568 8.325 3.8535 1.2331 65.8175-60.2687 65.8175-65.2012 0-2.3121 14.3348-17.7262 46.2415-49.6329 25.43291-25.4328 46.24161-46.8572 46.24161-47.6279 0-2.1579-5.2416-6.6291-7.862-6.6291zm-380.70921.2869c-1.4604.03-3.2309.6204-4.1749 1.5645-.9249.9249-1.8491 2.9284-1.8491 4.1615 0 1.3872 20.8087 23.2743 46.2415 48.7071 32.8315 32.9857 46.2416 47.3202 46.2416 49.7865 0 4.47 59.8057 65.0473 64.1216 65.0473 1.6955 0 4.4709-.9254 6.1665-2.1585 1.6955-1.2331 4.7764-2.4665 6.7802-2.7748 8.6318-1.079 5.7047-5.3949-26.3561-37.6098-23.275-23.2749-32.3703-31.4434-34.9907-31.4434-2.7745 0-15.5683-11.8683-51.3284-47.4743-26.2036-26.0494-48.8622-47.4753-50.2495-47.7835-.1926-.019-.394-.027-.6027-.023zm-28.1664 22.8492c-.033 0-.063 0-.091.01-.1306.028-.2318.1116-.4245.1309-.6165 0-2.4668 1.2313-3.854 2.7727-1.5414 1.5414-2.7751 3.5458-2.7751 4.4706 0 .9249 20.3478 22.0409 45.3182 47.0114 32.8315 32.8315 45.4709 46.3978 46.2415 49.7888.7707 3.2369 9.2475 12.7929 29.1313 32.5226 15.4139 15.2598 29.1325 28.2059 30.5197 28.6683 2.9287.9248 14.334-6.7812 15.8754-10.6347 1.3872-3.5451-55.0274-59.9598-62.4261-62.4261-3.5452-1.2331-18.8031-15.2594-49.0142-45.1622-43.9006-43.5086-47.4881-47.1471-48.501-47.152zm439.11561 1.1226c-1.6377 0-3.5171 1.5414-8.045 5.4912-4.0076 3.5452-24.9698 24.0441-46.39511 45.4694-27.4366 27.4366-40.2301 39.1517-43.3129 39.7683-2.9286.6166-13.5645 10.0187-34.0649 30.6732-24.0456 24.1998-29.4389 30.2118-28.6682 32.8321 1.3872 4.0076 12.4837 11.2531 15.4123 10.1741 1.3872-.4624 15.2606-13.7186 30.9827-29.4407 19.1132-19.1132 28.5148-29.7482 28.5148-31.9061 0-2.158 14.6431-17.881 46.24151-49.4794 25.4329-25.4328 46.2416-47.0125 46.2416-47.9374 0-1.0789-1.6947-2.928-3.6985-4.1611-1.3294-.9248-2.2256-1.4827-3.2083-1.4836zm120.16705 2.1947c-1.2244-.011-2.87635.8499-3.82045 2.0637-2.3121 2.7745-1.6967 4.162 7.85995 20.1924 8.3235 13.8725 22.04304 41.463 26.82134 53.7941 2.1579 5.8572 4.9309 13.2559 6.164 16.1845 1.079 2.9286 3.2387 9.2483 4.7801 13.8725 1.3873 4.6241 3.3892 10.9438 4.4682 13.8724 1.2331 2.9287 3.2369 10.635 4.6242 16.9547 1.3872 6.3197 3.547 15.8771 4.7801 21.1179 1.2331 5.2407 2.1561 12.4852 2.1561 16.1845 0 3.5452 1.079 10.4811 2.3121 15.1053 1.3872 5.2407 2.3121 15.5683 2.3121 27.1287 0 14.6431.4624 19.1113 2.312 20.6527 3.2369 2.6203 6.6289.9254 7.862-4.1611 1.2331-4.7783-2.0038-51.1746-4.0076-58.265-1.2331-4.1617-2.4671-11.713-6.1664-33.909-1.2332-8.0152-7.8605-29.904-11.714-38.9982-1.2331-2.7745-2.1585-5.7019-2.1585-6.6268 0-.9248-.923-3.8531-2.1561-6.4735-1.2331-2.7745-3.7003-9.4027-5.5499-14.9517-6.4738-19.5756-35.60634-72.7546-40.38464-73.6794-.1542-.038-.3197-.057-.4946-.059zm-585.84746 22.8724c-.9248 0-2.7742 1.2313-4.1614 2.7727-1.5414 1.5414-2.6213 3.7011-2.6213 4.7801 0 1.0789 21.1161 22.9654 47.0114 48.8607 33.1397 33.2939 46.551 47.6303 45.9345 49.3258-.6166 1.6955 8.0148 11.4063 28.9777 32.3691 16.4928 16.4928 30.6739 29.901 31.7528 29.901 2.6204 0 11.2509-11.56 11.2509-15.1052 0-4.3159-56.2587-60.4211-60.5746-60.4211-2.3121 0-18.0345-14.6432-49.6329-46.2416-25.4329-25.4328-47.1664-46.2415-47.9371-46.2415zm491.08381 0c-.7707 0-22.0415 20.8087-47.4744 46.2415-33.60221 33.7564-47.01251 46.2416-49.63291 46.2416-4.9324 0-60.114 54.8718-60.114 59.9584 0 3.8534 8.4788 15.5679 11.2533 15.5679 1.079 0 15.1059-13.2544 31.1363-29.2848 22.196-22.1959 29.1325-30.0585 28.8242-32.5247-.4624-2.4662 10.17161-14.026 45.46941-49.3237 25.2787-25.4329 46.0868-47.4749 46.3951-49.0163.4624-2.7745-3.2367-7.8599-5.857-7.8599zm205.30319 9.876c.3854.017.8201.336 1.244 1.0681.7707.9249.923 2.9281.4606 4.1612-.7707 1.8496-1.079 1.8487-2.3121-.3092-1.2716-2.3121-.5485-4.9707.6075-4.9201zm-720.587 19.4088c-1.079 0-2.7754 1.3888-3.8544 3.0843-.9248 1.6955-1.849 3.8522-1.849 4.9312s20.5004 22.5039 45.6249 47.4744c28.9781 28.8239 46.7046 47.6294 48.4001 51.3287 2.9287 6.4738 61.9637 67.3594 65.3548 67.3594 1.2331 0 2.7742-.926 3.5449-2.005 2.312-2.9286 5.3936-14.1798 4.9312-16.9543-1.079-4.7783-60.114-62.5806-65.3548-64.1219-3.391-.9249-18.4963-14.9515-49.7864-46.2416-24.8163-24.6622-45.9323-44.8552-47.0113-44.8552zm540.25601 0c-1.3872 0-23.2758 20.8087-48.8628 46.2415-33.2939 33.1398-47.3196 46.2416-49.9399 46.2416-2.31211 0-12.48651 9.0957-34.37411 30.8292-28.3615 28.0532-30.8277 31.1348-30.057 34.9882 1.6955 8.3235 5.7037 15.8775 8.4782 15.8775 4.1617 0 64.43021-61.5012 65.81741-67.0502.6166-3.3911 13.7171-17.2647 47.1652-50.5587 27.4366-27.4366 46.088-47.1651 46.088-48.8607 0-4.6241-1.6946-7.7084-4.315-7.7084zm-561.37421 32.3691c-1.5414 0-3.236 1.0808-3.6984 2.468-.4624 1.3873-.9258 3.544-.9258 4.9312 0 1.5414 21.5797 24.1992 47.9374 50.4027 38.0722 38.0722 48.7075 49.3262 51.482 55.6458 2.7745 5.8573 8.6323 12.6376 25.2793 28.2056 12.0228 11.4062 21.7344 21.4258 21.7344 22.3506 0 .9249-10.7912 12.33168-23.893 25.27938-16.801 16.4928-23.7361 24.3542-23.4278 26.5121.1542 2.1579-13.8734 17.262-49.4794 53.0221-44.546 44.7002-49.7858 50.4051-49.3234 54.4127.3083 3.2369 1.3867 4.4694 4.1612 4.7777 2.9286.4624 11.7148-7.5534 50.2494-46.088 30.3653-30.3653 48.2448-47.1664 51.0193-47.9371 5.8572-1.5414 69.9785-65.5094 69.9785-69.82528 0-4.1618-64.7369-68.5901-69.0528-68.5901-2.0038 0-20.0392-16.9559-51.1752-47.7836-27.4367-27.4366-49.1702-47.7838-50.8657-47.7838zm581.25721 0c-1.2331 0-23.5835 21.2714-49.6329 47.3208-30.057 30.057-48.7072 47.6291-51.0192 47.9374-4.0076.6165-70.59521 65.9713-70.59521 69.3623 0 1.07898 15.2582 17.10968 33.909 35.76038 23.27491 23.4291 34.83711 33.9111 37.14921 33.9111s17.5712 14.1802 50.4027 47.0117c25.7411 25.8952 48.09 47.0113 49.4772 47.0113 3.3911 0 6.3197-2.9271 6.3197-6.164 0-1.3873-22.5027-24.9705-50.0935-52.5613-38.8429-38.6887-50.0956-50.8657-50.0956-53.7943s-5.7032-9.5578-23.1208-26.8213c-12.63941-12.6393-23.12081-23.8918-23.12081-24.81658 0-1.079 10.4814-12.177 23.12081-24.8163 16.1845-15.8763 23.1208-23.7367 23.1208-26.203 0-2.4662 14.0272-17.417 50.0956-53.3313 32.9856-32.8315 50.0935-50.8663 50.0935-53.0242 0-3.5452-2.7736-6.7827-6.0105-6.7827zm150.24569 2.4018c.3988.9584.8979 1.7604 1.4258 2.2223 1.2331 1.079 2.3121 3.0834 2.3121 4.4707 0 1.3872.9254 5.5483 2.1585 9.4018 3.5452 11.4062 7.0898 27.1296 7.0898 32.062 0 .6973.089 1.5702.2402 2.5252l-15.6836 3.3336c-.2973-1.315-.6003-2.4299-.8947-3.2396-2.6204-6.9363-3.2375-18.3413-1.542-23.4279.9248-2.6203.3101-4.3152-2.7727-7.0897-2.1579-2.0039-4.4712-6.0126-4.9336-8.9413-.2481-1.4469-.8457-3.6567-1.6115-6.1444zm-856.0456 23.8032c2.7745 0 4.3147.7707 4.3147 2.3121 0 2.6204-5.0851 18.1875-7.8596 24.5071-1.079 2.158-2.7754 4.0079-3.8544 4.0079-2.7745 0-5.2398-4.9318-3.6984-7.7063.6166-1.2331 1.5399-5.2425 2.1565-8.7877 1.5413-10.6355 3.8546-14.3331 8.9412-14.3331zm11.6989 4.9129h.1616c.2487.016.5094.071.7791.1671.9249.3083 1.5411 3.3922 1.2329 6.6291-.3083 3.2369-1.2338 6.9366-2.1586 8.0155-.9248 1.079-2.1567 4.4701-2.6191 7.5528-.4625 3.0828-1.5432 5.5493-2.4681 5.7034-2.6203.3083-2.6197-9.8663-.1535-15.2612 1.3872-2.7745 2.4656-6.4741 2.4656-8.0155 0-3.0051 1.1082-4.7908 2.7601-4.796zm95.58 4.3354c-1.5414 0-3.3899 1.3873-4.3147 2.9287-.7707 1.6955-1.5423 3.8522-1.5423 4.9312 0 .9248 24.5096 26.2039 54.5666 55.9526 51.0198 50.5574 54.7185 54.5656 55.6434 60.577.6165 3.6994.3082 8.78588-.6166 11.56038-1.2331 3.5452-18.496 21.8874-55.6434 59.0348-29.5946 29.5945-53.95 55.0283-53.95 56.4156 0 1.3872 1.3888 3.699 3.0843 5.2404 3.8535 3.391-2.4668 9.0938 57.9555-51.3285 36.2225-36.2225 49.1705-48.0909 51.945-48.0909 4.7783 0 31.2904-26.6677 29.4407-29.59638-.7707-1.0789-6.32-7.2427-12.6396-13.7165-7.8611-8.1693-12.7935-12.1766-16.1846-12.7932-3.8535-.7707-16.1842-12.1787-55.0271-51.0216-27.5908-27.5908-51.33-50.0936-52.7172-50.0936zm615.78481 0c-1.2331 0-24.8175 22.3504-52.2542 49.633-31.5983 31.5983-51.4813 50.4032-54.5641 51.4822-5.3948 1.8497-29.2872 24.8145-29.2872 28.2055 0 1.07898 5.7034 7.86138 12.6397 14.95178 9.2483 9.5566 13.7195 12.9488 16.494 12.9488 3.0828 0 14.9502 10.9427 55.1804 51.1728 50.5574 50.5574 51.3278 51.021 54.4106 48.2466 1.6955-1.5414 3.0842-4.1615 3.0842-5.857 0-1.8497-19.5764-22.5054-54.1035-56.8783-57.6478-57.3395-57.8007-57.6478-55.7969-69.97888.7707-4.47 9.5557-13.8728 54.5641-58.8812 29.5946-29.4405 54.2577-54.7189 54.7201-56.1061 1.079-3.5452-2.0044-8.9392-5.0872-8.9392zm-769.25771 7.7708 2.4662.8977c-.3125.5982-.993.3374-2.4662-.8977zm-1.5899 4.5597c.7707 0 1.2341 2.6207.9258 5.7035-.4624 6.4738-4.3171 9.0932-4.3171 3.0818 0-4.9324 1.3875-8.7853 3.3913-8.7853zm917.8763 9.065c.3658 1.3441.7979 2.651 1.2514 3.7282 1.3873 3.2369 2.3121 10.3282 2.3121 16.4937 0 1.8268.072 3.6947.202 5.4638l-16.6415 1.1636c-.5121-2.7709-1.0629-6.9701-1.4405-11.4072-.2572-3.9435-.8006-8.3617-1.4442-12.092zm-881.582 8.6284c.6667-.017 1.3833.3706 2.3948 1.1124 2.7745 2.0038 2.7754 2.6186.3092 14.3331-.6799 3.2386-1.3302 6.9262-1.946 10.9487l-8.9602-1.2593c1.3831-12.594 3.2175-20.3481 5.3563-22.9453 1.2139-1.474 1.9886-2.167 2.8459-2.1896zm13.7303 3.3935c2.3801-.047 2.307 8.2759-.082 15.4434-1.3872 4.0076-2.468 10.3284-2.468 14.1819-.1541 3.8534-.9248 10.1726-1.6955 14.026-2.7745 11.4063-4.3159 57.80098-2.9286 81.69248 1.3872 24.508 3.5451 41.7724 6.9362 57.0322 1.2331 5.5489 2.7748 13.4106 3.3913 17.7265.2178 1.7114.531 3.4533.9056 5.145l-27.9313 6.9639c-.4862.077-.9493.1879-1.3689.3414l-3.8098.9498c-.7946-1.1358-1.6469-3.9496-3.2465-9.5482-7.8611-27.7449-13.1015-116.21888-8.7856-147.20068.7707-6.0114 1.3857-14.182 1.5399-18.1896 0-4.1617.7725-8.9385 1.8514-10.7882.3991-.7982.8263-2.316 1.1958-4.1903l4.0669.5717c-.035.8248.1524 1.8091.5943 2.6929.9248 1.6955.7704 4.4709-.4627 7.862-1.3873 3.6993-1.8494 20.1906-1.8494 59.3418 0 50.09498.1523 54.56588 2.7727 57.03208 2.3121 2.4663 2.9298 2.4666 4.3171.4628.7707-1.2331 1.2325-4.7799.7701-7.7085-3.2369-23.429-1.8497-87.70328 2.3121-109.59088.5853-2.9267 1.1697-6.1567 1.56-8.6848l8.8834 1.2485c-4.3366 30.845-6.701 78.07278-4.74 100.68908 1.5414 15.8763 3.6996 22.8134 5.7034 17.7269.4624-1.2332.9245-23.7383 1.2328-50.09598.1542-32.6773.926-48.5542 2.005-50.0956.9248-1.2331 1.8485-7.3971 2.0026-13.7168.1542-6.7821 1.0784-12.7944 2.4656-14.7982 1.079-1.8496 2.3133-6.1658 2.6216-9.711s1.2319-6.4723 2.0026-6.7806c.082-.019.1613-.03.2381-.031zm91.3217 3.5759c-.3083 0-1.5426 1.3866-2.6216 3.0822-4.1617 6.7821-2.6191 8.9394 36.6862 48.0906 21.2711 21.1169 38.5331 39.6139 38.5331 41.0011 0 1.54138-17.262 20.03738-38.5331 41.15438-25.7411 25.587-38.5353 39.4594-38.5353 41.6174.1542 3.2369 4.0074 9.5581 5.2405 8.325 15.8762-14.7973 90.3245-90.3249 90.3245-91.40388 0-1.5413-89.3988-91.8668-91.0943-91.8668zm644.53731 2.0857c-2.8255.068-11.5002 8.3816-46.0187 42.7674-24.6622 24.8163-45.0088 46.0871-45.0088 47.4743 0 2.77448 87.8596 91.09678 90.6341 91.09678 2.3121 0 4.0079-6.627 2.7748-11.2512-.4625-1.8497-17.8801-20.3463-38.6888-41.0008-20.8087-20.6546-37.7633-38.3805-37.7633-39.30538 0-.9248 17.4161-19.114 38.5331-40.231 40.076-40.076 41.6192-42.2346 36.5326-49.0167-.2119-.3082-.4808-.5028-.8646-.5304-.042 0-.086 0-.1304 0zm136.15499 11.8373c.3218 2.3292.7538 4.179 1.2527 5.0342 1.2331 2.158 2.0038 11.7148 2.3121 24.8166.063 2.6485.1238 4.9566.1881 7.019l-18.4698.6449c-.2182-18.5395-.6941-33.3589-1.2801-36.396zm-954.0982 19.9859c-3.0827 0-3.2381 1.2344-4.9336 23.4303-2.3121 29.9029-2.4665 28.3603 1.2328 32.0596 3.391 3.39108 11.4066 4.16328 13.2562 1.3888.4624-.9249 1.2337-8.0164 1.542-15.8775.3083-7.7069.9239-18.6505 1.3863-24.3536l.9258-10.4811-5.0869-3.0822c-2.7745-1.6955-6.4729-3.0843-8.3226-3.0843zm164.4646 9.2484c-.6165 0-1.8496.7725-2.9286 1.8514-1.079 1.079-1.8491 3.8532-1.8491 6.4735 0 3.6994 3.0819 7.5513 16.9544 21.7321 9.4024 9.4024 16.9567 17.8819 16.9567 18.6525 0 .92488-7.5543 9.40128-16.9567 18.80368-13.7184 13.8725-16.9544 18.0351-16.9544 21.7345 0 2.4662 1.0784 5.2401 2.4657 6.4732 2.1579 1.6955 5.3948-1.0799 25.4328-21.1179 12.6394-12.7935 22.9672-24.1998 22.9672-25.43288 0-2.1579-43.93-49.1701-46.088-49.1701zm663.28181 1.9577c-3.0376-.064-9.0496 5.683-24.2226 20.856-12.7935 12.7935-22.6581 23.8908-22.6581 25.5863 0 4.00768 9.711 15.10588 29.4408 33.44838 16.1845 14.9514 17.2626 15.7212 19.2664 12.9467 1.2331-1.5414 2.1585-4.3155 2.1585-5.8569 0-1.6955-7.5534-10.6344-17.7265-21.1158-9.7107-10.019-17.7269-18.65228-17.7269-19.26878 0-.7707 7.2446-8.4779 16.1846-17.2638 17.4176-17.2635 19.8839-20.654 18.4966-24.9699-.8478-2.7022-1.6217-4.3288-3.2128-4.3622zm130.24529 9.5289c.4141 9.6826 1.1131 11.7268 3.3697 14.1022 3.0827 3.2369 3.2375 4.6235 2.1585 20.9622-1.0789 20.03798-3.0827 32.83058-6.3196 43.00368-1.2332 3.8535-2.9302 11.4078-3.7009 16.9568-.7707 5.3948-2.3118 14.334-3.5449 19.8829-2.1579 9.8649-3.0812 13.4092-7.8595 28.5148-1.3873 4.1617-2.468 9.2501-2.468 11.0997 0 1.8497-.6157 3.6985-1.3864 4.315-.7707.4624-1.849 2.9277-2.4656 5.394-1.5414 6.9362-5.2419 8.1699-12.9488 4.4706-3.3911-1.6955-6.32-3.8538-6.32-5.0869 0-1.079 1.3887-6.0111 3.0843-11.0977 6.0114-17.4176 13.8709-53.1774 17.7244-81.5389 1.8496-14.3349 2.4668-29.1331 2.1585-63.96838-.013-2.1565-.031-4.271-.052-6.3615zm-579.4275 59.41798c-.4624 0-14.6431 14.0263-31.7525 31.2898-20.6546 20.8087-31.2913 32.6782-32.062 35.6069-.7707 3.0827-13.5627 16.8011-40.8452 43.9295-54.5651 54.2567-55.0287 54.7191-52.8707 59.4974.9248 2.158 2.9292 3.852 4.4706 3.852s23.5835-20.8087 49.0163-46.2416c29.5946-29.5946 47.4735-46.2415 49.4773-46.2415 3.5452 0 33.1394-27.5908 52.0985-48.5537l13.1024-14.333-3.2378-8.3247c-2.7745-7.2445-4.9307-10.4811-7.3969-10.4811zm232.1314 0c-1.3873 0-3.544 2.6206-4.9312 5.7034-5.8573 14.0266-7.0907 12.0234 26.6656 45.4715 21.4253 21.2711 31.7526 30.5176 34.06461 30.5176 2.4663 0 16.6458 13.2568 48.8607 45.4717 24.9705 24.9705 46.8581 46.0865 48.5537 47.0114 2.312 1.2331 3.2369.926 4.6241-1.3861.7707-1.6955 1.5423-4.1629 1.5423-5.5502 0-1.5413-20.6542-23.2743-45.7788-48.7071-30.8277-30.8277-46.3954-47.6288-47.4744-50.8657-1.6955-5.549-62.42731-67.6665-66.12661-67.6665zm-612.0934 12.6893c-1.4258-.016-2.5339.2475-2.9192.8737-.6166.9248.1553 12.6414 1.3884 26.0515 2.6204 26.5118 3.8523 29.594 12.484 30.2105 4.3159.3083 4.4709.1544 4.9334-7.5525.6165-11.4062-3.5458-43.7753-6.1662-46.2415-1.9075-1.9075-6.5835-3.3057-9.7204-3.3417zm1004.5301 16.5976c.9249 0 1.2331 1.5417.6166 3.3914-.4624 2.0038-.9252 5.2388-1.0793 7.3968-.1541 2.6203-.6156 1.8496-1.3863-2.3121-1.2331-6.4738-.9255-8.4761 1.849-8.4761zm-607.3043 5.3942-30.2126 30.0571c-23.7374 23.7373-30.2106 30.9821-30.2106 34.0649 0 3.0827-3.5448 7.5527-15.1052 18.4966-8.1694 8.0152-21.8889 21.7332-30.3665 30.6732-8.4777 8.9401-22.504 22.8134-31.2898 30.9828-8.6318 8.1693-15.7216 15.8747-15.7216 17.1079 0 2.4662 4.7777 7.3992 7.0898 7.3992.7707 0 21.8874-20.5013 46.8578-45.4718 35.4519-35.4518 46.2431-45.4693 49.3258-45.4693 2.9287 0 10.6338-6.6277 32.8297-28.9777 18.0342-18.1884 28.8242-30.0589 28.8242-31.9085 0-1.6956-2.7736-6.1647-6.0105-10.0181zm198.8387.6163-5.5499 5.7034c-9.4025 9.7107-9.0935 10.3273 22.9672 42.234 17.726 17.7259 29.902 28.6694 32.06 28.9777 2.312.3083 19.8847 16.8005 48.86281 45.7785 24.9704 24.9705 46.5483 45.4718 47.7814 45.4718 3.391 0 6.1664-3.0819 6.1664-6.627 0-1.8497-17.2632-20.3466-45.7788-49.0164-28.3615-28.2073-45.93451-47.0134-45.93451-48.8631 0-2.7745-26.9736-31.7516-50.4027-53.9476zm-25.8956 27.8985c-.7707.1541-3.0827 1.5425-5.2407 3.2381-2.1579 1.6955-5.0884 4.1614-6.4756 5.2404-1.5414 1.2331-2.7727 3.391-2.7727 4.6241 0 3.3911 57.4925 60.8838 61.0376 60.8838 4.3159.1542 5.549 1.2331 53.17781 48.5537 24.1998 24.1997 45.0097 43.9294 45.9345 43.9294 3.3911 0 7.8596-3.2354 7.8596-5.5474 0-1.3873-20.6528-23.275-46.0856-48.5537-31.29011-31.4442-46.24161-47.4743-46.85811-50.4029-.6166-2.7745-10.6362-13.874-29.9035-33.1413-16.0304-15.8763-29.7484-28.8242-30.6733-28.8242zm-147.2031 1.5423c-1.2331 0-14.9512 12.7925-30.6733 28.5147-16.9552 16.8011-29.4399 30.6744-30.8271 33.9113-1.3873 3.3911-19.1141 22.1957-46.5507 49.7865-24.5081 24.508-44.3925 45.4705-44.3925 46.8578 0 1.3872 1.6964 3.5464 3.8543 4.9336l4.0076 2.6192 45.7789-45.7789c28.978-28.978 47.7838-46.5498 51.1749-47.937 7.3986-3.0828 61.6538-57.1845 61.6538-61.5004 0-3.3911-9.7101-11.4069-14.0259-11.4068zm35.8808 19.9672c-.1238 0-.2487 0-.3754.01-5.1809.2851-12.9672 7.625-36.1217 30.8903-20.038 20.038-30.6747 31.7522-30.3665 33.6019.3083 1.6955-15.4126 18.4975-45.9321 48.8628-25.4328 25.4328-46.2415 47.3205-46.2415 48.5536 0 3.3911 3.0834 6.164 6.7827 6.164 1.8496 0 20.0377-17.1084 49.7864-47.0113 34.9895-35.1436 47.7817-47.0116 50.5562-47.0116 2.6204 0 12.0229-8.3253 35.2978-31.9085 18.3425-18.3425 31.7525-32.9856 31.7525-34.6812 0-1.8496-1.0793-2.7727-3.3914-2.7727-2.0037 0-4.9318-1.0789-6.4732-2.312-1.8695-1.4225-3.4172-2.3633-5.2738-2.3835zm76.5412.029c-.082 0-.1642 0-.2456 0-1.7365.067-3.2397.923-5.0508 2.1946-1.6955 1.2331-4.6232 2.4668-6.627 2.7751-2.158.1542-4.0082 1.3867-4.4707 2.4656-.3083 1.079 13.874 16.4947 31.4458 34.2206 25.587 25.587 32.9841 32.3691 36.221 32.3691 3.0828 0 6.9363 3.0815 15.568 11.8674 6.3197 6.628 27.5917 27.8994 47.1673 47.3209 32.06081 31.7525 35.91371 35.1429 39.45891 34.2181 8.7859-2.1579 5.7028-6.1646-42.08011-53.9476-35.4519-35.4518-45.7789-46.7045-45.1623-49.0166.4624-2.158-6.6286-10.1729-29.9035-33.6019-23.6699-23.7837-31.1248-30.8476-36.321-30.8696zm-38.8983 12.3729c-2.0038 0-14.7973 11.7137-36.9932 33.7555-25.4329 25.5869-33.4469 34.3728-32.6762 36.3766s-10.7912 14.3367-47.6303 51.0217c-26.666 26.666-48.5536 49.0157-48.5536 49.7864 0 1.3873 6.7839 6.3197 8.7877 6.3197.6165 0 23.274-22.1956 50.5565-49.1699 29.5946-29.5946 51.4829-50.0965 54.7198-51.6379 2.9286-1.2331 15.4138-12.0219 27.7449-23.8905 12.177-12.0228 23.4276-21.7348 24.6607-21.7348 1.3872 0 12.4861 10.0199 24.663 22.351 13.5642 13.4101 23.8924 22.5042 26.3586 23.1208 2.6204.6165 22.3492 18.9584 54.5641 51.0192 27.745 27.4367 51.3288 49.9421 52.4077 49.9421.9249 0 3.2351-1.5411 5.0848-3.5449l3.2378-3.547-48.4001-48.3979c-36.8391-36.8391-48.5536-49.4797-48.5536-52.2542 0-4.7783-65.0462-69.5159-69.9786-69.5159zm-461.2911 7.5242c.406 1.9334 1.0332 3.419 1.8039 4.1898 1.2331 1.3872 2.3121 4.1626 2.3121 6.1664 0 6.0114 10.79 38.0725 24.8166 73.8326 2.3825 6.2399 4.5106 12.0523 5.4704 15.1216l-8.2371 4.38c-1.4202-1.1531-4.2004-1.7771-8.0215-1.7771-3.8534 0-9.4042-4.0064-9.4042-6.6268 0-.4624-2.4647-6.3194-5.5475-12.7932-5.8573-12.1769-5.7035-14.3348 1.2328-14.489 4.0076 0 4.6229-2.4662 2.0026-8.6318-1.2331-3.0827-2.3121-6.7836-2.3121-8.3249 0-1.3873-1.3863-4.4688-3.0819-6.6268-1.6955-2.1579-3.0821-6.1655-3.0821-9.2483s-.6172-6.0111-1.542-6.4735c-.7707-.4624-1.5423-3.0837-1.5423-5.5499 0-2.9286-1.5414-6.0114-4.0076-8.6318-2.7745-2.7745-3.3911-4.4688-2.3121-5.5477 1.3136-1.3136 1.7807-3.3258 1.3749-6.457zm20.8557.221c.8612.069 2.4524 1.2382 3.9155 3.3516 2.7745 3.8535 3.2372 11.4059 1.0792 12.7932-.9248.4624-2.0032-1.6943-2.4656-4.9312s-1.5429-7.0904-2.4677-8.6318c-.9441-1.6859-.8543-2.5159-.2237-2.5809.051-.01.1049-.01.1623 0zm903.9285 14.0654 3.5085 1.0061c-2.2701 2.1118-2.491 1.9768-3.3532-.466-.063-.1579-.1143-.3398-.1553-.5401zm-40.5622 3.016c.1186 0 .2363 0 .3531.01 1.869.096 3.5259 1.0609 5.5297 2.9106 4.0076 3.6993 4.3162 6.6276 1.0793 9.8646-1.6955 1.5414-3.5458 1.8505-6.7827.9257-11.4062-3.2369-14.0257-7.5531-6.627-11.4065 2.6733-1.5174 4.6686-2.2908 6.4476-2.3022zm-855.0976 11.1235c.3675-.058 1.1091 1.0143 2.583 3.3553 1.5414 2.6203 3.5452 7.2442 4.6242 10.4811 1.0789 3.0827 2.6206 6.0108 3.3913 6.4732 1.8497 1.2331 1.8503 9.5575-.1535 10.7906-.7707.4624-1.8512-1.0793-2.4677-3.3914-.6166-2.312-2.0032-5.7037-3.0822-7.3992-1.2331-1.6955-2.1586-5.241-2.1586-8.0155 0-2.6204-.615-5.3946-1.5398-5.857-.7707-.4624-1.542-2.465-1.542-4.3146 0-1.3488.059-2.0774.3453-2.1225zm842.3303 5.6673c.6166 0 3.8531 1.6962 7.5525 3.8541 6.4738 3.8535 6.4732 3.8523 4.7777 9.5554-.9249 3.2369-2.9293 7.554-4.4707 9.5578 0 0-.01.01-.01.012l-15.592-8.2907c.3147-.8015.4958-1.4618.4958-1.8957 0-2.6204 5.8585-12.7932 7.2457-12.7932zm-410.3171 10.9442c-1.6955 0-8.4779 5.3951-14.9517 12.0231-8.1694 8.1693-12.0235 13.1017-12.0235 15.568 0 2.6203-13.1008 16.646-51.6355 55.1806-28.3614 28.5157-51.6358 52.4071-51.6358 53.1778 0 2.0038 4.9319 5.5493 7.7064 5.7034 1.3872 0 26.665-24.2003 56.2596-53.6408 59.0351-58.7267 59.1907-58.7273 72.4466-55.3363 6.1656 1.6955 12.7935 7.7076 60.7306 55.3363 29.7487 29.5946 55.0265 53.6408 56.2597 53.6408 1.0789 0 3.6996-1.3872 5.7034-2.9286l3.6984-3.0818-51.945-52.101c-33.7563-33.7563-52.0985-53.1766-52.0985-55.1804 0-4.1617-24.5071-28.5153-28.5147-28.3611zm435.4404 6.0102c2.6204 0 2.9293.7719 2.1586 4.3171-.4624 2.312-2.3127 6.0104-3.8541 8.3225-.2728.4093-.5366.8279-.7929 1.2464l-5.7149-3.0385c3.9739-8.1805 5.9434-10.8475 8.2033-10.8475zm-34.5592 1.1982 15.3506 8.1621c-.5116 1.1723-.8279 2.27-.8279 2.9722 0 6.7821-8.0158 7.399-16.031 1.0793l-4.1611-3.3913 3.852-5.857c.6479-.9719 1.2668-1.985 1.8174-2.9653zm-819.3673 11.9044 3.8541 4.6242c2.0038 2.4662 3.852 5.7031 3.852 6.9362s1.0789 3.6991 2.312 5.2404c1.4551 2.0008 2.2658 5.1816 2.2435 7.4541l-2.9476 1.5673c-2.525-2.7898-6.2321-9.8991-6.2321-12.7198 0-1.5414-.6151-3.3916-1.5399-3.8541-.7707-.4624-1.542-2.775-1.542-5.0871zm844.1327 1.2636 5.5177 2.9337c-.2196.5572-.348 1.0263-.348 1.3526 0 .9249-1.387 4.0064-2.9283 6.6268-.5365.912-1.2806 2.3541-2.1173 4.091l-4.2093-2.2381c0-.1028.01-.2032.01-.3106 0-1.8238 1.7648-7.0621 4.0787-12.4554zm-830.5155 27.346c1.0076.058 2.4798 1.7175 3.9537 4.8388 1.3873 2.6204 2.3133 5.0866 2.005 5.2407-1.3872 1.3873-7.2457-4.6254-7.2457-7.2457 0-1.9556.5033-2.8788 1.287-2.8338zm-20.7497 10.3218c.4583.8593 1.157 1.8841 1.9755 2.8986l-7.5332 4.0055c-.084-.069-.1649-.1369-.2565-.2102-.8572-.6667-1.5964-1.6278-2.0369-2.5195zm425.7721 1.9159c-2.3121 0-16.8002 13.5624-47.6279 44.3901-24.3538 24.3539-44.2389 45.0097-44.2389 45.9345 0 2.7745 3.5457 5.2407 7.3992 5.2407 2.7745 0 13.4113-9.5566 43.0059-39.3053 21.7335-21.5794 40.5372-39.3053 41.9244-39.3053 1.3873 0 20.1916 17.7259 41.771 39.3053 35.606 35.7601 39.7677 39.3041 43.9294 38.9958 10.6356-1.0789 7.8611-4.6229-38.6887-51.1727-30.5195-30.5195-45.1623-44.0831-47.4744-44.0831zm-421.2515 3.9938c1.3164 1.7922 2.0383 3.5072 1.6862 4.3288-1.2331 3.3911-7.8611 6.0126-12.1769 4.9337l-4.0076-1.0793 1.7063-1.3815zm30.0655 8.4924c1.0384-.038 2.6811 1.7527 4.762 5.3942 1.8567 3.0945 2.9502 5.8826 3.1686 7.6994l-2.4614 1.5384c-2.7478-1.9983-6.7201-8.2836-6.7201-11.2428 0-2.2254.4432-3.36 1.2509-3.3892zm-25.6337 11.7708c3.5958 0 9.7788 4.6774 12.6689 10.5781.4724.8661 1.0163 1.8232 1.5937 2.806l-11.6961 7.3084c-.4379-.1642-.8747-.2499-1.3045-.2499-2.3121 0-3.0825-.926-2.9283-2.6215.3082-1.5414 0-5.3928-.7701-8.6297-.6166-3.0828-.463-6.7824.1535-8.0155.4721-.8092 1.2761-1.1759 2.2829-1.1759zm35.3862 7.4917c1.6626.032 4.7702 3.375 5.6899 6.2236l-1.9357 1.3057c-.5255-.3762-1.1304-.879-1.8085-1.5146-2.3121-2.158-3.5458-4.471-2.7751-5.5499.1542-.2698.3761-.4145.6458-.454.059-.01.1202-.012.1836-.011zm-19.1156 9.1814c1.0971 1.731 2.177 3.3228 3.0274 4.3858 1.5398 1.8951 2.8034 3.8775 3.3074 5.1151l-10.147 6.8441c-1.5445-1.7148-3.9687-5.0529-5.3394-7.6421-.4351-.7911-.9011-1.4993-1.3867-2.1177zm-26.6542 4.4502c1.5224.01 2.3973 1.5685 2.3973 4.5597 0 .4548.083.9503.2255 1.4628l-3.4877 2.1793c-.2111-.44-.4575-.9283-.7454-1.4835-2.0038-3.8535-2.002-4.9337-.4606-6.0127.7803-.4768 1.4752-.7097 2.0709-.7056zm427.2033 2.4012c-.9248 0-13.1021 11.5622-27.1287 25.5888-21.1169 21.2711-24.9701 25.894-23.737 28.052.9248 1.3872 3.392 2.7736 5.5499 3.0818 3.2369.3083 7.5513-3.2348 24.0441-19.5734 10.9439-11.098 20.5016-20.1925 21.1182-20.1925.6165 0 10.3264 8.9385 21.5785 20.0365 14.9514 14.6432 21.4255 20.0389 24.2 20.0389 3.391 0 7.3993-2.4662 7.3993-4.6241 0-1.8497-51.1746-52.408-53.0243-52.408zm313.91301 12.9286c-.079 0-.1597.0001-.2426 0-2.9204.1673-8.3322 4.3595-18.1875 13.579-8.3235 7.861-19.575 17.7256-24.9698 22.0415-10.7897 8.6317-43.7747 31.4442-53.3313 36.9932-10.019 5.8573-42.6958 22.04151-49.32381 24.35361-3.391 1.2331-15.8762 5.8582-27.7449 10.174-11.8686 4.3159-22.6592 7.862-24.0465 7.862-1.3872 0-6.0105.9233-10.0181 2.1564-20.6545 6.0114-49.7873 10.6371-73.8329 11.7161l-20.0389.7701v3.8541 3.8519l16.1845-.307c31.7525-.3083 70.7505-7.5522 110.2099-20.3457 39.45951-12.7935 65.66301-25.4329 101.73141-49.17021 34.8353-22.9667 77.6847-59.962 75.9891-65.3569-.4515-1.3998-1.1938-2.1508-2.3786-2.1766z" style=""/></svg>