<svg height="960" style="" width="1394" xmlns="http://www.w3.org/2000/svg"><path d="m648.45517 432.85121c-40.64219 45.15798-10.16055 115.15285 50.80271 115.15285 57.57642 0 88.05806-77.89751 45.15798-116.28179-27.09478-24.83689-73.38171-23.70795-95.96069 1.12894zm-23.70794-294.65579c-23.70794 6.7737-58.70538 42.90008-99.34755 103.86335-14.67634 21.45003-56.44747 59.83431-93.70281 85.80015-60.96326 41.77112-68.8659 50.80272-77.89751 99.34754-6.77369 31.61059-6.77369 74.51067 0 106.12126 9.03161 48.54481 16.93425 57.57641 77.89751 99.34754 37.25534 25.96584 79.02647 64.35012 93.70281 85.80016 67.73697 100.4765 75.63961 106.12123 171.60031 106.12123 95.9607-1.1289 104.99229-5.64473 171.60032-106.12123 14.67636-21.45004 56.44743-59.83432 93.70279-85.80016 60.9633-41.77113 68.866-50.80273 77.8975-99.34754 6.7737-31.61059 6.7737-74.51067 0-106.12126-9.0315-48.54482-16.9342-57.57642-77.8975-99.34754-37.25536-25.96584-79.02643-64.35012-93.70279-85.80015-62.09223-92.57386-76.76856-102.7344-152.40818-107.2502-38.38428-1.12895-80.15541 0-91.4449 3.38685zm129.82918 49.67378c12.41845 5.64474 40.64217 39.51323 62.09222 72.25276 24.83689 40.64217 59.83434 75.63961 100.47643 100.4765 67.73704 44.02902 84.67134 67.73695 84.67134 119.66863s-16.9343 75.63961-84.67134 119.66864c-40.64209 24.83689-75.63954 59.83432-100.47643 100.47649-44.02902 67.73698-67.73697 84.67121-119.66864 84.67121s-75.63961-16.93423-119.66864-84.67121c-24.83689-40.64217-59.83431-75.6396-100.4765-100.47649-67.73696-44.02903-84.6712-67.73696-84.6712-119.66864s16.93424-75.63961 85.80015-119.66863c39.51324-25.96584 74.51066-59.83433 95.96071-95.96071 19.19214-30.48163 45.15797-63.22116 58.70536-72.25276 28.22374-19.19214 90.31596-22.57898 121.92654-4.51579zm281.10839-58.70537c0 5.64474 38.3843 62.09221 84.6713 125.31338 46.2869 63.22116 84.6712 125.31339 84.6712 136.60288s5.6447 23.70793 11.2894 27.09479c16.9342 11.28949 13.5474 99.34754-6.7736 147.89237-16.9344 40.64217-93.7028 154.66606-121.9266 179.50295-21.45 19.19214-54.1896 85.80015-46.287 93.70282 13.5474 13.5474 171.6004-165.95558 202.082-229.17675 63.2212-134.34497 30.4816-256.27151-109.508-405.29284-75.6396-81.28435-98.2187-98.2186-98.2187-75.6396zm-775.58823 75.6396c-139.98973 149.02133-172.729255 270.94787-109.5081 405.29284 30.48164 63.22117 188.53456 242.72415 202.08195 229.17675 7.90264-7.90267-24.83689-74.51068-46.28692-93.70282-28.22374-24.83689-104.9923-138.86078-121.92654-179.50295-20.3211-48.54483-23.70794-136.60288-6.7737-147.89237 6.7737-3.38686 11.28949-15.8053 11.28949-27.09479s38.38429-73.38172 84.67121-136.60288c46.28693-63.22117 84.67121-119.66864 84.67121-125.31338 0-22.579-22.57899-5.64475-98.2186 75.6396z" style="stroke-width:1.12895"/></svg>