<svg height="960" style="" width="1461" xmlns="http://www.w3.org/2000/svg"><path d="m740.02203.00000228v333.91769772a19.437141 19.437141 0 004.84175 14.28309c3.18022 3.17886 57.17627 59.6696 162.11712 169.37973 103.3499 108.11971 162.1707 169.27186 176.4809 183.58209a29.657909 29.657909 0 0021.465 9.60276h217.0708c6.3602.00029 9.522-.83045 9.522-2.42087 1.59-1.58984.01-4.75197-4.761-9.52207-15.899-15.90008-53.2541-54.08702-112.0859-114.50681-112.8902-117.66017-180.4473-187.62882-202.707-209.88881-22.25947-23.85039-54.0423-57.62896-95.38204-101.35347-41.33973-43.72451-70.79032-74.34093-88.28081-91.8314a19.437141 19.437141 0 01-4.76102-14.28309v-81.098907a14.015234 14.015234 0 00-7.18189-11.94293c-1.58984-3.18133-24.63573-25.39647-69.15598-66.7351207zm-23.80511 2.42086002-4.76106 4.76103c-47.69964 46.1098307-73.15765 70.7367807-76.33787 73.9170207a13.741309 13.741309 0 00-4.76101 9.52206v85.859937a16.179783 16.179783 0 01-4.76106 11.94293 71.041315 71.041315 0 00-7.18189 9.52205c-171.72029 176.49038-267.89726 275.07889-288.56686 295.74878-4.77118 3.17993-71.57689 72.31785-200.36676 207.46794l-2.34017 2.42087c-3.17996 3.18022-2.42963 5.59205 2.34017 7.18189h224.17191a25.78742 25.78742 0 0019.12482-7.18189c108.12-114.4799 221.01801-232.12173 338.67872-352.96183a22.881248 22.881248 0 007.1012-16.70395v-331.4968377zm176.48089 145.4131677-2.42087 2.42087v52.45203a14.015648 14.015648 0 007.18189 11.94292c0 1.59012 1.58108 3.5867 4.76106 5.97146 3.17993 2.38476 4.76101 4.38107 4.76101 5.97146 124.0204 125.61075 217.0349 220.20664 279.0448 283.80586 38.1596 39.74935 66.0294 68.36944 83.5198 85.85994l19.0442 9.52203h45.3508l7.1012-2.34014-7.1012-7.18189c-130.38-131.97011-210.6659-213.08617-240.8759-243.29675-15.9007-17.49074-40.6083-43.28326-73.9977-77.46761-33.38948-34.18436-58.76675-60.05785-76.25721-77.54832zm-329.15667 2.42087-2.34014 4.76102-69.15601 69.15599c-50.8799 52.47002-173.34533 177.26684-367.32561 374.4268l-4.76103 4.84175h9.52206a166.25129 166.25129 0 0142.92997 2.34014 20.629936 20.629936 0 0016.70395-9.52203c89.03997-90.63009 212.25572-216.25794 369.66579-376.84769a22.881248 22.881248 0 007.18189-16.70395v-45.27014zm178.90177 236.11483a18.86574 18.86574 0 00-2.42088 11.94293v221.75102a25.648598 25.648598 0 004.84175 14.36382c20.67043 22.25998 42.88558 46.05617 66.73511 71.49617a25.646532 25.646532 0 0014.28313 4.8417h133.63159c4.77011.00029 7.10124-1.66148 7.10124-4.8417v-81.01824a19.436728 19.436728 0 00-4.76105-14.36378c-27.03034-27.03008-63.97078-65.13605-110.87554-114.42615-46.90472-49.29002-79.93299-83.48412-99.01328-102.56388-4.77006-4.77007-7.93223-7.18189-9.52207-7.18189zm-32.19749 2.42086c-1.58996.79499-3.58656 2.37613-5.97145 4.76103-12.7201 12.72012-44.08659 45.25243-94.17157 97.72217-50.08499 52.46975-88.68717 92.23749-115.71724 119.26786a16.17937 16.17937 0 00-4.76104 11.94291 674.33556 674.33556 0 012.42087 78.67805v2.42087c-.00028 4.77007 1.58079 7.18189 4.76103 7.18189h133.55096a19.434249 19.434249 0 0014.28308-4.8417l66.8158-71.49617a16.17937 16.17937 0 004.76106-11.94294v-224.17191c0-6.35991-.83103-9.52206-2.42088-9.52206-.79504-.79492-1.96061-.79499-3.55062 0zm-211.09923 341.01888c.00027 1.59013 1.58135 4.00225 4.76103 7.18193l143.15367 143.07298c33.38999 33.38945 58.01697 58.84742 73.91704 76.33791a11.493302 11.493302 0 0016.70396 0 2.1071191 2.1071191 0 012.34014-2.42087c20.67018-22.25862 43.38125-45.30587 68.02628-69.15598 24.64503-23.85069 51.26856-49.64319 79.88849-77.46762 28.61988-27.82447 50.83503-50.53578 66.73511-68.02627l4.8417-2.34015v-7.18193h-4.8417z" style="stroke-width:41.3161"/></svg>