<svg height="960" style="" width="1290" xmlns="http://www.w3.org/2000/svg"><path d="m624.32387 15.221777c-13.06486.34231-33.14709 5.13824-50.49083 13.35369l-42.59273 18.25656 40.16803 17.044223c69.37496 30.42762 41.38394 77.87926-46.24761 81.53058-41.38155 1.21709-54.76733 7.31331-64.50416 29.22119-21.90788 48.68419-60.86474 47.47184-125.37129-1.21234-58.42103-45.03287-90.07049-54.78042-90.07049-29.22121 0 18.25656 52.34501 70.60157 70.60159 70.60157 25.55919 0 29.1998 25.55326 7.29191 42.59272-20.69077 15.82236-20.68127 17.03947-2.4247 18.25657 30.42762 0 32.86065 25.55326 4.86724 79.10587-17.03947 31.64471-25.56634 71.82103-25.56634 115.6368v66.92883l-53.53952 6.09738c-82.76312 9.73694-79.12607 36.51315 3.63705 36.51315 64.50654 0 70.60514 2.4247 92.51303 38.93787 34.07893 55.9868 30.42761 75.46171-18.25658 122.92881-23.12498 23.12493-38.95685 45.03876-34.08844 48.69016 17.03947 18.25652 52.34502 6.07485 88.85815-29.22129 37.73025-37.73016 37.72786-37.72185 64.50418-15.81394 41.38155 35.2959 77.89468 53.55732 109.53941 53.55732 38.94734 0 73.02748 27.98868 68.15906 55.98213-3.65132 18.25652-17.04782 24.34434-57.21226 26.7786-27.9934 2.43426-51.11481 9.74161-51.11481 17.04428 0 8.5197 15.81639 9.7308 42.59269 6.07951 47.4671-7.30267 60.86713 3.65482 60.86713 58.42459 0 51.1185 23.12261 57.2063 27.99104 8.5221 4.86841-43.81572 35.29841-63.29187 99.80496-63.29187 55.9868 0 53.54423-23.12733-2.44257-26.77861-46.24998-3.65128-52.33071-7.30268-55.98203-36.51315-3.65132-27.99346 1.22304-34.08242 30.43352-40.16796 18.25664-4.86841 41.37805-10.95521 51.11487-13.38947 8.5197-2.43415 24.33854 1.21964 32.85822 8.5222 13.38823 10.95396 19.47969 6.09146 30.43364-24.33615 17.03939-49.90137 62.05688-62.08782 99.78704-28.00893 27.99346 24.34218 57.21224 23.13927 57.21224-3.63706 0-8.51969-12.17336-19.4724-26.7786-23.12379-27.99345-7.30256-27.99698-7.30495-3.65493-26.77861 23.12506-17.03949 23.12858-19.4832 3.65493-34.08844-27.99345-20.69079-27.98993-34.079 3.65493-73.02632 13.38799-17.0395 24.3408-46.24281 23.12367-65.71645-1.21701-18.25663-2.42948-53.54672-1.21224-79.10593l1.21224-45.03523h66.94669c37.7303 0 66.9289-4.87436 66.9289-12.17697 0-7.30265 14.6065-18.25064 31.6459-24.33616 17.0395-7.30264 26.7752-17.05134 23.1239-24.35397-10.954-18.25657-51.1173-14.59337-59.6371 6.0974-4.8683 13.38815-25.5616 18.25657-81.5482 18.25657-70.59208 0-74.23982-1.21711-87.62805-36.51314-7.30268-20.69078-18.25538-36.51314-23.12379-36.51314-23.12504 0-6.09032-36.51076 37.72551-82.76073 26.7762-27.99341 42.59873-53.55618 36.51315-58.42458-21.90792-13.38817-70.59204 7.29785-91.28294 37.72548-25.55919 38.94734-29.20092 37.73619-93.70753-6.07958-30.4276-20.69079-68.16857-36.51315-83.99094-36.51315-15.82227 0-40.15134-7.30737-53.53948-17.0442-32.86183-25.55921-8.52569-62.07948 42.59268-62.07948 55.9868 0 46.24884-23.126173-13.38937-31.645913-29.21045-3.65131-60.84685-10.95039-70.58369-14.60169-2.43421-.91284-6.02134-1.2908-10.37628-1.1767zm-172.1894 53.521703c-18.25658 0-24.35398 8.50786-24.35398 30.41573 0 34.07895 29.20932 41.39227 41.38036 10.96465 12.17104-31.64473 8.53281-41.38038-17.02638-41.38038zm354.0063 1.24801c-10.09823.34232-13.52487 5.13823-10.78634 13.35369 6.08544 18.25656 45.03399 21.91144 49.90241 3.65487 1.21712-7.30263-10.95624-14.61476-26.77861-15.83188-4.86841-.91281-8.97146-1.29078-12.33746-1.17668zm-169.46164 109.96731c25.40706-.15214 52.18218 6.22577 89.30381 19.00538 113.19085 40.16445 200.82228 158.2331 200.82228 271.42382 0 144.83552-141.19603 292.10513-279.9459 292.10513-110.75653 0-236.10998-97.37906-271.40601-211.78694-25.5592-79.11178-20.69672-114.40543 24.33614-210.55669 31.64473-66.94075 74.241-105.89404 155.787-139.97296 31.64473-13.38817 55.69563-20.06561 81.10268-20.21774zm2.88825 71.35038c-51.11839 0-82.76786 7.29669-108.32707 24.33615-19.47366 13.38816-51.11482 43.81221-69.37138 69.3714-29.21052 37.73025-34.08844 55.98798-34.08844 122.92873 0 90.0658 23.12498 138.75231 91.28284 191.08784 36.51312 26.77622 55.98799 32.85823 122.92874 32.85823 91.28285 0 119.28462-14.59454 185.00825-98.57481 34.07889-45.03284 38.93785-62.07826 38.93785-121.71637 0-58.42102-6.07246-79.10941-35.28294-119.27386-52.33551-73.02627-105.89056-101.01731-191.08785-101.01731zm6.07958 73.02628c35.29605 1.2171 65.73074 8.50546 80.33598 21.89362 45.03297 37.73024 66.92893 80.33246 66.92893 131.45085 0 41.38155-7.30496 57.21219-45.03524 93.72535-40.16444 40.16445-51.1053 45.03525-108.30925 45.03525-59.63813 0-66.93837-3.65367-101.01731-45.03525-30.42761-36.51316-37.74331-57.21459-37.74331-102.24747 0-47.46706 6.08791-62.05687 45.03524-99.7871 37.73025-38.94736 52.33787-45.03525 99.80496-45.03525zm-433.30826 37.99292c-14.04899-.79873-26.60753.79159-31.62808 5.81214-15.82236 15.82237 6.09623 29.22121 47.47777 29.22121 29.21051 0 41.37207-4.87794 38.93784-15.83186-3.80344-9.88898-31.37254-17.87028-54.78753-19.20149zm831.5831 182.90447c-11.6955.34935-22.1824 3.19486-25.8338 9.12826-8.5197 15.82237 20.679 29.20934 48.6724 23.12379 10.954-1.21713 19.4868-9.72851 19.4868-15.81405 0-10.64968-22.8326-17.02051-42.3254-16.438zm-197.45261 280.26687c-9.99651-.57409-20.07619 4.38468-24.33615 16.09922-4.86842 12.1711-1.21463 25.56045 8.52219 31.646 24.34206 14.60524 41.38032 6.07712 41.38032-20.69909 0-16.43094-12.71366-26.30807-25.56636-27.04613z" style="stroke-width:9.12829"/></svg>