<svg height="960" style="" width="986" xmlns="http://www.w3.org/2000/svg"><path d="m755.67193 287.30697c-70.52794-26.07608-138.85078-18.27076-205.77358 12.98555-6.30026 2.94012-12.0055 7.5253-22.19092 8.01533 25.13105-66.39777 40.49668-134.3356 92.15884-188.30785h-252.39551c21.6659 30.24126 42.77177 57.75241 54.91728 90.37376 12.14551 32.62137 23.55598 64.43769 35.73649 98.07409-10.53544-1.01504-16.03067-5.28522-21.84091-8.01533-51.45215-23.62598-104.61936-34.96646-161.46173-25.20105-81.20338 13.93058-140.49585 62.82761-152.95637 140.25084-5.49523 33.91642.52502 66.39777 12.49553 98.07409 24.04599 64.08767 65.76774 115.39981 115.4348 161.25172 76.02317 70.52794 143.82099 147.91616 203.11346 231.74465l3.11513 4.62019c11.27047 16.03067 36.0515 48.82704 36.0515 48.82704l22.08592-30.59128c32.79637-51.13712 73.39807-99.15913 112.87971-144.59102 38.60661-44.41685 81.5884-85.71857 125.06021-126.07526 50.71712-47.04195 89.00871-103.00929 107.41948-170.6321 24.011-88.02867-18.30577-169.23205-103.84933-200.83837z" style="stroke-width:35.0015"/></svg>