<svg height="960" style="" width="1513" xmlns="http://www.w3.org/2000/svg"><path d="m578.14812 678.74819c-8.7584 2.56346-20.29386 8.7584-20.29386 10.46733 0 6.62227 44.2192 5.34053 46.56893-1.49533.4272-1.70894-2.13613-2.56334-8.972-2.56334-7.69026 0-10.25373-.85453-11.53533-3.8452-1.06813-2.77706-2.77707-3.41786-5.76774-2.56346zm20.29374-8.54467c0 1.068 1.28173 2.13613 2.99067 2.13613 1.70893 0 3.8452-1.06813 4.486-2.13613.64093-1.28173-.6408-2.13627-2.99067-2.13627-2.56347 0-4.486.85454-4.486 2.13627zm-146.11534-60.66787c-2.77707 7.47667-3.8452 32.04293-1.49534 37.16974 6.83574 14.52613 13.0308 22.0028 22.2164 26.7024 7.47667 3.63146 13.03067 4.2724 6.83574.6408-13.6716-7.90387-22.2164-26.48867-22.2164-49.13241-.2136-15.59413-2.56334-22.6436-5.3404-15.38053zm176.02201-11.53533c-6.40854 6.83573-5.55414 15.16693 2.34986 21.78906 7.26307 6.19494 10.04001 6.62214 17.73027 2.99067 5.55414-2.34987 14.09894-14.52613 14.09894-19.86653 0-3.20427-8.5448-10.25374-10.46734-8.5448-.4272.64093.4272 3.41786 1.92254 6.40853 2.56346 4.6996 2.34986 5.76773-1.06814 9.61293-7.47666 8.33107-22.21627 2.56334-16.44853-6.62226 6.19493-9.8264 0-14.31241-8.1176-5.7676zm-32.68374-24.35267c-2.13613 2.13626-3.63146 4.91333-3.63146 5.98133 0 1.06813-2.99067 3.8452-6.40854 6.19493-3.418 2.34987-6.40867 5.34054-6.40867 6.62227 0 1.49534-1.49533 2.99067-3.20426 3.84507-3.41787 1.28173-4.486 11.96267-1.28174 11.96267 1.06814 0 2.99067-2.77707 4.0588-6.19494 1.28174-3.63146 7.69027-11.96267 14.09881-18.5848 6.62226-6.83587 11.96266-12.6036 11.96266-13.0308 0-2.13613-6.40853 0-9.1856 3.20427zm-59.1724-38.87867c-5.34053 1.49533-11.96267 2.99066-14.95334 2.99066-2.99066 0-7.26306 1.49534-9.3992 3.20441-2.34986 1.70893-6.19493 3.20426-8.7584 3.20426-4.6996 0-21.14826 15.59414-18.79853 17.73027.64093.85453 4.91333-1.49533 9.18573-4.9132 4.48587-3.63147 9.3992-6.40853 11.10814-6.40853 1.70893 0 4.9132-1.49534 7.26306-3.20427 2.13614-1.70893 8.33107-3.20427 13.6716-3.20427 12.81707-.2136 41.22841-7.26307 42.29654-10.25373 1.06813-3.6316-19.43933-2.99067-31.6156.8544zm-59.81334-532.979237c7.69027 1.068 17.7304 2.56333 22.43 3.20427 19.01214 2.34973 69.42614 16.87587 110.01374 31.829201 9.1856 3.417867 43.36467 19.866534 52.33667 25.207068 42.72387 25.847868 82.88414 62.163068 115.14068 104.673208 5.554 7.26307 5.98133 8.3312 3.20426 14.95334-1.49533 3.6316-4.9132 9.61293-7.47666 13.2444-2.56347 3.41786-7.26307 11.10826-10.25374 17.0896-3.20426 5.7676-6.62213 12.38987-7.90386 14.3124-4.9132 9.1856-6.40854 12.17626-13.2444 26.2752-4.05881 8.11746-7.90387 16.44866-8.75841 18.1576-.6408 1.70893-2.13613 4.6996-3.20426 6.40853-1.92254 2.99067-11.74907 24.77974-18.7984 40.5876-1.70907 4.0588-4.486 10.25374-6.19507 13.45801-1.70893 3.41786-2.99067 7.90386-2.99067 10.04013 0 2.34973-1.92253 5.1268-4.05866 6.19493-4.486 2.56334-5.34054 1.70894-11.96267-11.53546-9.1856-18.58481-31.6156-54.25921-43.57827-69.42614-4.2724-5.12694-9.61294-11.96267-11.96267-14.95334-2.34987-2.99066-13.8852-14.95333-25.63427-26.70239-20.50746-20.50747-50.84133-42.93734-73.69853-54.47281-5.34054-2.56346-11.32187-5.76773-13.45801-6.62227-6.40866-3.41786-23.28453-8.75826-39.9468-12.81706-40.1604-10.04014-100.82814-1.28174-138.85227 19.86653-36.74254 20.29387-70.28068 56.82267-91.42894 98.9056-5.98134 11.96267-7.69027 16.23507-16.02147 38.45147-14.95334 40.37387-15.16694 108.51841-.2136 143.76548 1.70893 3.8452 2.99067 7.904 2.99067 9.1856 0 1.28173 4.486 11.53547 10.04013 22.85733 23.0708 47.63694 53.61827 81.60241 89.29267 98.90548 14.73974 7.04946 15.16694 7.26306 42.08294 6.83586 33.53813-.6408 49.5596-4.9132 74.76667-20.29386 25.42067-15.38054 35.888-24.99334 49.346-44.85987 23.2844-34.39267 45.92801-42.51027 104.03241-37.59694 15.38053 1.2816 16.44867 1.068 29.90667-6.19507 7.69027-4.05866 15.59413-9.1856 17.7304-10.89453 6.40853-5.76773 18.7984-4.486 28.41133 2.99067 10.25361 7.90386 22.85721 13.6716 29.47934 13.6716 14.09893 0 31.1884 13.2444 40.5876 31.402 4.6996 9.3992 4.486 31.6156-.4272 41.22854-13.8852 27.1296-39.09227 54.6864-62.804 68.7852-9.8264 5.76773-14.526 9.82653-14.526 12.6036 0 2.34973.6408 4.0588 1.70893 4.0588 4.6996 0 26.27507-9.39933 39.30587-17.3032 18.1576-10.89453 23.0708-16.87587 23.0708-27.7704 0-8.5448 3.20427-10.68107 8.1176-5.76773 3.63147 3.63146 3.20427 9.1856-1.70906 18.5848-7.47667 14.95333-27.98401 29.26586-63.44481 44.00547-8.7584 3.6316-11.53533 7.904-7.04933 10.68093 1.92253 1.28173 14.9532-3.41787 35.24707-12.81707 22.6436-10.46733 39.51947-26.7024 48.70507-46.56893 4.91333-11.10814 4.69973-12.60347-2.77694-19.65294-6.62226-6.40853-7.904-10.46733-4.2724-12.8172 3.41787-2.13613 12.17627 4.486 18.5848 14.09893l5.76774 8.54467-4.0588 11.53547c-4.486 13.6716-20.29374 32.25653-33.53814 40.1604-19.86653 11.53534-26.2752 14.73974-38.87867 19.43934-7.04946 2.77706-16.44867 6.83573-20.50747 9.1856l-7.47666 4.2724.21373 35.03347c.2136 29.26573 1.068 37.16973 4.6996 47.85067 9.3992 27.5568 19.012 42.51013 41.2284 64.94013 17.5168 17.5168 33.53814 29.26587 57.89081 42.72387 26.916 14.7396 45.0736 30.33387 53.19107 45.71441 3.8452 7.26306 4.6996 12.38986 4.6996 27.3432-.2136 16.02147-.8544 19.65293-6.83574 31.8292-11.96266 24.13896-26.2752 38.23786-42.29667 41.65576-9.8264 1.9225-8.97186-1.0682 4.2724-14.3124 13.45801-13.67176 18.58494-26.70243 18.58494-47.2099 0-13.2444-.64093-15.80773-7.69027-26.27506-10.04013-15.16694-20.08027-23.49814-41.65573-34.60627-9.82654-5.12694-19.43934-10.04014-21.14827-11.10827-1.70894-1.06813-10.46734-6.19493-19.22574-11.32173-8.972-5.12694-17.944-10.89467-20.29386-12.6036-2.34974-1.92254-10.46721-8.11747-18.15761-13.88521-36.5288-27.3432-60.02693-72.6304-65.15373-126.0352-.85454-8.5448-2.77707-16.44867-4.0588-17.5168-1.92254-1.70894-10.68094-.6408-29.26574 3.2044-41.0148 8.54466-67.9308 4.27226-90.5744-14.31254-5.55414-4.486-10.46734-8.33107-11.10827-8.33107-.6408 0-6.40854 1.70894-13.0308 3.63147-17.94387 5.34053-64.51281 5.1268-85.87481-.2136-58.9588-14.95333-90.3608-29.69307-135.64801-63.4448-79.25267-58.95894-120.48107-148.89255-120.69467-262.53775 0-34.17907 5.7676-77.11654 14.0988-104.67334 5.34053-17.944 11.53547-36.3152 13.458-40.1604.85453-1.92254 3.41787-7.47667 5.55413-12.17627 1.92254-4.6996 4.486-10.04 5.55401-11.74907.85453-1.70893 4.2724-8.11746 7.26306-13.8852 17.3032-33.96533 55.32734-79.25267 92.92428-111.081874 28.41133-23.925335 74.12573-48.918673 105.74133-57.890673 33.11107-9.39933 84.37961-13.6716 112.15001-9.1856zm619.28135 27.556804c30.7612 2.777066 61.7359 9.6128 84.5932 18.584801 15.3805 5.981333 48.9187 22.643601 58.7452 29.265868 64.2994 42.510134 114.7134 110.013744 136.9298 182.857874 2.3498 7.69027 5.3405 17.08947 6.4085 20.93454 1.2817 3.8452 3.2043 12.6036 4.0588 19.22573 1.0681 6.62227 2.9907 17.944 4.0588 24.99347 5.3404 30.54747 1.068 90.14721-9.1856 127.10334-22.6437 82.02961-69.6399 145.68815-143.552 194.82042-15.167 10.25373-56.1818 31.6156-60.4542 31.6156-1.2817 0-5.3405 1.28173-9.1856 2.99066-8.7584 3.8452-26.0616 8.5448-45.7145 12.8172-21.1482 4.69961-73.0576 4.48601-93.5651 0-67.93075-15.38053-122.61729-55.32733-199.73369-145.04734-21.14827-24.77973-55.96814-70.06694-73.48494-95.7012-10.68093-15.59427-11.74907-20.08027-7.04947-28.83867 1.70894-3.20427 7.47667-14.7396 12.8172-25.42067 12.38987-25.42067 20.72107-40.37387 33.75174-61.52227 5.76773-9.3992 11.74907-19.012 13.0308-21.36187 1.49533-2.34973 5.1268-7.69027 8.5448-11.96267 3.20427-4.2724 5.76773-8.33106 5.76773-9.1856 0-2.13613 21.14827-32.47 25.20694-36.1016 5.12693-4.6996 1.70893-9.6128 83.73867 112.79081 19.43934 28.83853 50.84134 61.73587 74.33942 77.75734 39.3059 26.4888 89.7199 42.51013 128.8122 40.5876 13.458-.85453 18.7985-2.34987 32.0429-8.7584 24.5661-12.38987 59.5996-48.27787 71.1351-72.84401 11.1081-23.92533 14.0988-39.7332 14.0988-78.39827 0-19.4392-1.068-38.66493-2.1362-42.72373-1.2817-4.0588-3.2042-11.32187-4.2724-16.02147-2.3497-11.32174-7.0494-23.7116-14.9533-39.94667-8.1175-16.66227-9.6128-19.01213-20.5075-33.75187-31.8292-42.51013-73.0576-68.99894-122.6171-78.18454-28.1978-5.1268-81.8162-2.13613-96.12858 5.55414-2.13627 1.06813-5.55414 2.13613-7.47667 2.13613-5.12693 0-41.86934 18.1576-57.24987 28.41134-20.93467 13.6716-59.59974 53.1912-66.43547 67.7172-3.418 7.47667-16.6624 27.55693-28.41134 43.15107-5.12693 6.62213-9.1856 12.60347-9.1856 13.2444 0 .4272-4.0588 7.04947-8.972 14.52613-5.12693 7.47667-10.04013 15.16694-11.32186 17.08947-1.06814 1.92253-6.40854 10.46733-11.74907 18.7984-16.44867 26.0616-51.26854 92.71067-51.26854 98.05121 0 1.49533-1.28173 5.3404-2.99067 8.33107-1.70893 3.20426-4.6996 10.04013-6.62213 15.38066-9.61293 25.42054-11.10827 27.7704-19.01213 27.7704-3.8452 0-8.3312-1.49533-9.82654-3.20426-1.49533-1.70894-4.27226-3.20427-6.19493-3.20427-1.92253 0-4.6996-1.06813-5.76773-2.13627-1.2816-1.28173-6.62214-4.6996-11.74894-7.47666-8.5448-4.486-9.39933-5.7676-8.7584-12.17627.6408-8.54467 4.6996-21.57547 16.44867-52.97747 8.54467-22.8572 10.25373-27.1296 13.03067-32.47014 1.70906-2.99066 2.99066-7.04933 2.99066-8.75826 0-1.70907 1.49534-4.2724 3.2044-5.76774 1.70894-1.49533 3.20427-4.486 3.20427-6.40866 0-2.13614 1.28173-6.62214 2.99067-10.04 3.20426-6.40867 8.7584-19.01214 10.68093-24.13894.6408-1.70893 2.13613-4.6996 3.20427-6.40867.85453-1.70893 4.6996-9.3992 8.33106-17.08946 8.97201-19.43934 27.98414-58.10441 30.33401-61.94947 1.068-1.70893 6.40853-10.89454 11.74906-20.08027 19.86654-34.39253 51.90934-72.84401 81.17521-96.98294 32.6836-27.129603 56.60894-41.228538 102.53707-60.240539 17.944-7.476667 51.05492-14.953334 80.10702-18.157601 32.6838-3.631597 29.4795-3.417997 57.4635-1.068133z" style="stroke-width:.213619"/></svg>