<svg height="960" style="" width="1200" xmlns="http://www.w3.org/2000/svg"><path d="m614.06937 0c.87043 263.40861 225.71303 468.22581 465.10993 465.34441.5102-102.56008-48.0638-244.74842-158.39767-342.29605-87.37266-77.25772-189.80518-117.91585-306.71226-123.04836zm-27.96288.93796c-248.70142 3.75183-460.29161 212.44232-464.52368 465.28579 274.93424-6.03295 465.21401-234.35304 464.52368-465.28579zm-466.34097 494.36248c11.04539 154.09524 74.62299 278.22601 197.32291 371.84172 67.62301 51.59516 225.52589 105.20698 270.30776 89.80946-13.62666-277.84566-230.9351-455.37811-467.63067-461.65118zm960.46898.11724c-272.74319 6.81333-464.60437 227.85671-466.16513 464.58232 138.72774-8.194 255.62122-60.6981 346.98583-164.72889 74.8866-85.36168 113.6566-186.00784 119.1793-299.85343z" style="stroke-width:30.0147"/></svg>