<svg height="960" style="" width="1040" xmlns="http://www.w3.org/2000/svg"><path d="m503.56407-60c-137.70315 0-251.25098 104.96236-264.94077 239.04175h-118.64271v28.70387h226.66892v-27.36698c12.48187-75.29383 77.97389-133.00777 156.75728-133.00777h32.76699c78.78339 0 144.27542 57.71394 156.75728 133.00777v27.36698h226.69515v-28.70387h-118.24952c-13.82401-134.07939-127.36869-239.04175-265.07185-239.04175zm-383.58348 282.37281 38.50775 156.62621 40.26409-130.5699h40.65728v448.67184l53.55436 114.60582h-67.76213l121.18544 208.16212v-555.36114h42.67572c.67107 0 64.70459-.81682 97.85535 31.79708 13.01871 12.75029 19.58155 29.26381 19.58155 48.99321h.13107v474.57085h26.58059v-474.43978h.13105c0-19.72939 6.58906-36.24291 19.60778-48.9932 33.15076-32.61391 97.15805-31.7971 97.82912-31.7971h42.67573v555.36118l121.21165-208.16214h-67.65728l53.55436-114.60584v-448.67183h40.6835l40.26409 130.56991 38.50775-156.62622h-226.56408v228.58253h-42.54466c-2.81848 0-70.19371-.80319-107.37087 35.7029-15.56877 15.30035-23.48424 35.0245-23.61845 58.37767 0-23.35317-7.91545-43.07732-23.61844-58.37767-37.17717-36.50609-104.55239-35.7029-107.37086-35.7029h-42.54467v-228.7136z" style="stroke-width:13.4214"/></svg>