<svg height="960" style="" width="1455" xmlns="http://www.w3.org/2000/svg"><path d="m711.26325 929.715c-7.1081 8.1235-8.1235 19.2933-7.1081 79.7119l1.5232 70.5731h20.3088 20.3087l1.5232-70.0653c.5077-42.1408-1.0154-73.6194-4.0617-79.712-6.6004-12.693-21.3243-13.2007-32.4941-.5077zm462.53255-468.62505c-2.0309 2.0308-3.5541 12.6929-3.5541 23.3551v19.2933l82.7583-1.0154 82.2506-1.5232v-20.3088-20.3088l-79.2043-1.5231c-43.1561-.5077-80.2196.5077-82.2505 2.0309zm-1052.50263 4.0617c-1.52315 4.0618-2.03087 13.7084-1.01543 21.832l1.52315 14.2161h81.23513 81.23512v-20.3088-20.3088l-80.21968-1.5231c-66.00354-1.0155-80.21969 0-82.75829 6.0926zm586.92378-23.8628c-13.2007 5.5849-24.8783 23.8628-24.8783 39.6021 0 21.3242 15.7393 38.5867 39.0944 41.633 26.4014 3.5541 51.7874-16.7547 51.7874-41.633 0-28.94-36.5558-50.7719-66.0035-39.6021zm32.494 27.9246c6.6004 9.6466 7.1081 12.693 1.5232 21.3242-9.139 13.7084-16.247 15.2316-25.8937 5.5849-10.1544-10.6621-10.1544-19.8011 0-29.9554 10.6621-10.6622 15.2316-10.1544 24.3705 3.0463zm-91.8972-191.918c-11.6775 6.6003-34.0172 20.8165-49.7565 30.9709l-27.9246 18.7856v148.2541c0 111.1906 1.5232 150.285 6.6004 156.3776 5.5849 6.6004 39.6021 30.9709 78.6965 55.8492 10.6621 6.6003 26.9091 8.6312 72.6039 8.6312 57.88.5077 59.4032 0 81.2351-15.2316 12.1853-8.1235 33.0018-22.3396 45.6948-30.4632 13.2007-8.1235 24.8782-19.801 26.9091-26.4014 1.5232-6.0926 3.0463-74.6347 3.0463-151.8081 0-139.6229 0-140.6383-11.1698-151.8081-6.6004-5.585-16.247-12.693-21.832-15.2316-10.1543-5.0772-15.2315-8.1235-48.2333-28.94-15.7393-9.6467-24.8783-11.1699-76.1579-11.1699-52.2951 0-60.4187 1.5232-79.712 12.1853zm124.3913 169.0706c21.8319 24.8783 21.8319 44.1716-1.0155 70.573-16.247 18.7856-18.2779 19.2933-46.2024 19.2933-27.4169-.5077-30.9709-2.0308-43.6639-17.7701-50.772-60.9264 37.5712-130.9917 90.8818-72.0962zm-105.6057-383.83597c-82.2505 6.09267-160.9471 41.12527-208.165 91.89727l-12.693 14.2161-22.8473-21.8319c-53.3106-50.2643-95.959-84.78919-105.6057-84.78919-5.5849 0-13.2007 5.07719-17.7702 11.67759-9.64666 14.7238-7.61578 17.2624 47.2179 64.4803 23.8628 20.3088 49.2488 43.6639 56.3569 51.7874l13.2007 14.2162-17.7702 36.5558c-17.7702 36.0481-20.8165 46.7102-32.494 109.1597-4.0618 24.3705-4.0618 38.5867 1.0154 60.9263 3.554 16.2471 6.6004 43.1562 7.1081 59.9109.5077 27.4169 1.5231 30.4632 12.1853 31.9864 6.0926 1.0154 21.8319 11.6775 34.5249 24.3705 16.7547 16.247 27.4168 22.3397 38.0789 22.3397 17.2625 0 18.7857-5.0772 4.5695-17.7702-5.5849-5.0772-10.1544-13.2007-10.1544-18.7856 0-7.6158 4.0618-9.139 22.3397-9.139 24.8782 0 29.9554-6.0926 23.8628-28.94-3.554-13.2007-5.5849-14.2162-34.0172-15.7393-20.8165-1.0155-31.9863-4.0618-36.0481-9.6467-7.6158-10.1544-8.1235-47.2179-1.5231-74.127 3.0463-10.1544 7.108-26.4015 9.1389-35.5404 6.6004-24.8783 32.4941-74.6348 39.0944-74.6348 3.0463 0 10.6621 4.5695 17.2625 10.6621 9.6466 9.139 13.2007 9.6467 25.8937 4.5695 11.1698-4.5695 16.7547-4.5695 25.3859 1.0155 9.6467 5.5849 11.6776 5.5849 13.7085 0 5.0772-13.7085 49.7565-51.7875 79.7119-67.5268 27.4169-14.7238 35.0327-16.7547 67.5267-16.247 26.4014 1.0155 38.079-1.0154 42.1407-6.6003 9.6467-11.1699 79.712-9.6467 122.3604 3.554 19.2934 6.0926 36.5559 12.693 38.079 15.2316 1.5232 2.5386 7.1081 4.5695 12.1853 4.5695 5.5849 0 12.1853 5.0772 15.7393 11.1698 5.0772 9.1389 4.0617 12.1853-6.0926 19.8011-6.6004 5.0771-16.2471 10.6621-20.8165 12.6929-5.0772 1.5232-9.139 5.0772-9.139 7.6158s4.0618 6.6004 9.139 8.1236c18.7856 7.108 66.0035 47.7256 85.2968 73.6193 21.32435 27.9246 30.46325 44.1716 44.67935 76.6656 14.2162 33.0018 13.2008 33.5095-38.5866 35.0327l-47.21795 1.5231-1.5232 15.7393c-2.5386 23.3551 7.1081 27.9246 57.88005 27.9246 48.2334 0 52.8028 2.0309 52.8028 26.4014 0 52.8029-39.0944 169.5784-61.434 181.7636-12.18535 6.6004-12.18535 4.0618 3.0463-38.5867 15.7393-42.6484 23.8628-116.7755 12.1853-113.2214-4.0618 1.0154-9.6467 14.7239-13.2007 29.9554-6.60045 30.4632-15.23165 54.8337-28.94005 79.712-8.1236 15.7393-9.6467 16.7547-17.7702 9.139-11.6776-10.6622-20.8165-10.1544-34.525 1.5231-14.2161 12.1853-14.2161 14.7239-1.0154 28.94 15.2316 16.247 9.6467 26.9092-31.4786 57.3723-47.2179 35.5404-130.4839 74.6348-139.1152 65.4958-7.108-6.6003 6.0927-20.3087 30.9709-31.9863 15.2316-7.1081 27.4169-15.2316 27.4169-17.7702s5.0772-5.0772 11.1698-6.0926c6.0927-1.0154 11.6776-4.5695 13.2007-8.1235 2.5386-8.6312-16.7547-7.6158-24.3705 1.5231-3.554 4.0618-11.6776 7.6158-18.2779 7.6158-6.0926 0-13.2007 2.0309-14.7239 5.0772-1.5231 2.5386-8.6312 5.0772-15.2316 5.0772-8.6312 0-12.693-3.0463-13.7084-11.6775-1.0154-9.139-4.5695-11.1698-18.7856-11.1698-14.7239 0-17.7702 2.0308-22.8474 17.7701-5.0772 16.7548-7.1081 17.7702-30.9709 19.2934-30.9709 2.5386-103.067-6.6004-135.0534-16.7548-13.2007-4.0617-27.4168-7.6158-31.9863-7.6158s-13.2007-5.0772-18.7856-10.6621l-10.6621-10.6621 12.693-11.1698c43.6638-36.5558 54.3259-46.2025 54.3259-51.7874 0-3.0463-8.1235-9.6467-17.2624-14.7239l-17.7702-9.6466-27.4169 25.3859c-29.9554 26.9092-33.0017 34.525-20.8165 51.7874 7.1081 10.1544 7.1081 11.1699 0 11.1699-4.5694 0-8.1235-2.5386-8.1235-5.0772 0-3.0464-3.0463-5.0772-7.108-5.0772-11.1699 0-65.4959-38.5867-97.9899-69.0499-26.4014-25.386-29.4477-27.4168-30.9709-17.2624-1.0154 6.0926 2.0309 15.2315 6.0926 19.801 4.5695 5.0772 8.1235 10.6621 8.1235 12.693 0 5.0772 42.1408 59.9109 52.8029 68.5421 14.2161 11.6776 9.1389 22.8474-24.3706 50.2643-17.7701 14.7238-40.6175 34.5249-50.7719 44.6793-17.7702 17.2624-17.7702 18.2779-10.1544 29.95535 4.5695 7.1081 12.693 12.693 18.2779 12.693 8.1235 0 63.9727-43.15605 87.8355-68.03435 23.8628-25.386 24.3705-25.386 56.3568-4.0617 16.7548 10.6621 41.633 24.8782 55.3415 31.4786 14.2161 6.0926 31.4786 14.7238 39.0944 18.2779 7.108 4.06165 17.2624 7.10795 22.8473 7.10795 5.0772 0 19.2934 4.0618 31.9864 8.6313 33.0017 11.6775 169.0706 11.1698 211.2113-1.0155 64.9881-19.29325 104.0825-36.55575 152.8236-69.04975l36.55585-24.3706 23.8628 21.3243c13.7084 11.6775 30.4632 26.9091 37.5712 33.5094 33.5095 30.97085 58.8955 49.24875 67.019 47.72565 4.5695-1.5232 12.1853-7.6158 16.247-14.2162 8.1235-12.18515 7.1081-12.69295-34.0172-49.24875-66.0035-58.3877-74.6347-66.5112-74.6347-71.0807 0-2.5386 9.6466-17.7702 21.8319-33.5095 38.5867-52.2951 57.88-91.8972 77.1734-160.9471 10.6621-38.5866 8.1235-162.9779-4.0618-204.6109-12.1853-40.6176-42.1407-97.9899-70.0653-135.0534-13.7084-18.2779-24.8782-35.0327-24.8782-37.5713 0-4.5695 8.6312-13.2007 74.6347-71.0807 41.1253-36.5558 42.1407-37.0635 34.0172-49.2488-15.7393-24.37054-20.8165-21.83195-92.4049 42.1407-56.3569 50.772-48.7411 48.7411-85.80465 23.3551-18.2779-12.1853-45.6948-28.4323-61.4341-35.5404-15.7393-7.108-35.5403-16.247-43.1561-20.3087-8.1235-4.0618-18.2779-7.1081-23.3551-7.1081s-18.7857-3.0463-31.4786-7.1081c-25.8937-8.63121-96.9745-12.18525-151.8082-7.61577zm124.3913 55.34147c-14.2161 6.0926-43.1562 6.0926-43.1562 0 0-3.0464 12.1853-5.0772 26.9092-4.5695 19.2933 0 23.8628 1.5231 16.247 4.5695zm-86.82 9.6466c4.0617 6.0927-10.6621 17.2625-40.1099 30.9709-42.6484 19.8011-99.513 69.0499-107.1288 92.405-4.0617 13.7084-18.7856 10.6621-34.0172-6.6004-7.6158-8.6312-13.7084-17.7702-13.7084-19.801 0-14.7239 108.652-85.8046 131.4993-86.3124 4.5695-.5077 13.7085-3.554 20.8165-7.6158 14.2162-8.1235 38.5867-10.1543 42.6485-3.0463zm318.34015 162.4703c29.9555 32.494 57.3723 75.6502 66.5113 102.5593 3.0463 9.6467 8.6312 23.8628 12.6929 31.4786 7.6158 14.7239 5.585 31.9864-3.554 26.4015-2.5386-1.5232-5.0772-9.6467-5.0772-18.278 0-8.1235-2.0309-14.7238-4.5695-14.7238-5.0772 0-14.2161-14.7239-25.3859-39.6021-6.0927-13.2007-61.9418-70.5731-83.77385-85.8046-11.1698-7.6158-13.7084-12.1853-11.1698-20.8165 6.6004-20.3088 24.8783-13.7085 54.32605 18.7856zm-335.60265 553.922c0 2.5386-9.6467 4.5695-21.3242 4.5695l-21.832-1.0155 20.3088-3.554c11.1699-2.0309 20.8165-4.0618 21.832-4.5695.5077 0 1.0154 1.5232 1.0154 4.5695zm22.8474-958.57449c-1.5232 4.06176-2.0309 38.586689-1.5232 77.173369 1.5232 60.418621 2.5386 71.080731 10.6621 76.157931 6.0927 4.06175 11.1699 4.06175 17.7702 0 7.6158-5.0772 8.6312-14.72387 8.6312-81.235121v-75.650209l-16.7547-1.52316c-10.1544-1.01544-17.2625 1.01544-18.7856 5.07719z" style="stroke-width:.50772"/></svg>