<svg height="960" style="" width="1530" xmlns="http://www.w3.org/2000/svg"><path d="m765.00003 0-164.82588 245.48571h329.65178zm.80894 325.02857a68.571429 68.571429 0 00-68.49912 68.57143 68.571429 68.571429 0 0068.57143 68.57143 68.571429 68.571429 0 0068.57143-68.57143 68.571429 68.571429 0 00-68.57143-68.57143 68.571429 68.571429 0 00-.0723 0zm-260.70269 62.04643-138.81964 206.75357h318.1125c25.00586 0 36.16755-31.39577 16.77322-47.18035zm520.40892.92679-194.92499 158.64643c-19.39436 15.78474-8.23277 47.18035 16.77321 47.18035h316.34998zm-607.52678 292.22678c-68.57539 0-132.64529 34.15468-170.87143 91.0875l-126.68839 188.68393h597.45268v-252.34286c0-15.14837-12.28019-27.42857-27.42857-27.42857h-114.51428c-20.07162 0-36.34286 16.27125-36.34286 36.34286v147.42857h-89.14286v-136.86429a161.15106 161.15106 0 015.30625-41.0116l1.55089-5.89554zm423.32143 0c-15.14837 0-27.42857 12.2802-27.42857 27.42857v65.82857h288.00002v91.88572h-288.00002v94.62857h595.69012l-126.6884-188.68393c-38.2261-56.93282-102.296-91.0875-170.8714-91.0875z" style="stroke-width:1.37143"/></svg>