<svg height="960" style="" width="1176" xmlns="http://www.w3.org/2000/svg"><path d="m474.71125 33.31852v519.76891a33.31852 33.31852 0 0033.31852 33.31852h159.9289a33.31852 33.31852 0 0033.31852-33.31852v-519.76891a33.31852 33.31852 0 00-33.31852-33.31851984h-159.9289a33.31852 33.31852 0 00-33.31852 33.31851984zm-198.76798 126.00467-99.71691 125.03657a33.31778 33.31778 0 005.27536 46.82273l125.5823 100.14756a16.045093 16.045093 0 01-6.43365 28.18744l-155.09199 35.39744a33.319227 33.319227 0 00-25.0701 39.89718l35.58104 155.91165a33.318288 33.318288 0 0039.89644 25.06999l157.33037-35.9059a16.046158 16.046158 0 0118.02746 22.60581l-67.58185 140.34127a33.319054 33.319054 0 0015.56311 44.4755l144.09007 69.39001a33.318619 33.318619 0 0044.47538-15.56261l65.66749-136.35924a16.045437 16.045437 0 0128.91286 0l65.6675 136.35924a33.318617 33.318617 0 0044.47538 15.56261l144.09003-69.39001a33.319904 33.319904 0 0015.56388-44.4759l-67.58336-140.35353a16.045535 16.045535 0 0118.02779-22.60441l157.33125 35.91536a33.318298 33.318298 0 0039.89788-25.06779l35.5903-155.91246a33.317357 33.317357 0 00-25.0682-39.89677l-155.09198-35.39744a16.045093 16.045093 0 01-6.43367-28.18745l125.5823-100.14754a33.317781 33.317781 0 005.27532-46.82274l-99.71687-125.03657a33.318895 33.318895 0 00-46.82358-5.27519l-79.26216 63.21027a69.187165 69.187165 0 00-26.04934 54.09244v101.81671a220.32745 220.32745 0 009.85174 65.14724l23.61057 76.28035a66.497986 66.497986 0 01-9.74525 58.7746l-67.42524 92.7097a65.429908 65.429908 0 01-52.91553 26.9459h-126.61038a65.42991 65.42991 0 01-52.91552-26.94589l-67.42525-92.70971a66.49798 66.49798 0 01-9.74526-58.7746l23.61058-76.28036a220.32741 220.32741 0 009.85175-65.14723v-101.82972a69.186079 69.186079 0 00-26.0496-54.09212l-79.24865-63.1979a33.319304 33.319304 0 00-46.82381 5.27551z" style="stroke-width:6.6637"/></svg>