<svg height="960" style="" width="1156" xmlns="http://www.w3.org/2000/svg"><path d="m697.05289 537.49249c-5.096 6.188-49.1405 79.3528-54.9645 92.0929-1.456 2.9121-5.8241 10.1921-9.8281 16.3802-4.0041 5.8241-8.7361 14.1961-10.9202 18.2002-2.184 4.004-6.188 11.2841-9.1 16.3802-2.9121 5.096-5.4601 13.1041-5.4601 18.2001 0 5.0961 2.548 13.1042 5.4601 18.2002 2.912 5.0961 6.916 12.3762 9.1 16.3802 2.1841 4.004 6.9161 12.0121 10.9202 18.2002 4.004 5.8241 8.7361 14.1961 10.9201 18.2002 2.184 4.004 6.916 12.0121 10.9201 18.2002 4.004 5.824 8.3721 13.4681 9.8281 16.3801 1.456 2.9121 14.1961 25.1163 28.3923 49.1406 14.1961 24.0242 26.9363 46.2284 28.3923 49.1405 1.456 2.912 5.824 10.1921 9.8281 16.3801 4.004 5.8241 8.7361 14.1962 10.5561 18.2002 2.184 4.0041 6.9161 11.2841 10.9201 16.3802 6.1881 7.6441 7.6441 8.0081 13.1041 3.64 3.2761-2.912 7.6441-8.3721 9.4641-12.7401 1.8201-4.004 4.7321-9.8281 6.9161-12.7401 5.0961-8.0081 34.5804-58.9686 37.4924-65.5207 1.456-2.912 5.8241-10.5561 9.8281-16.3802 4.004-6.188 8.7361-14.1961 10.9201-18.2002 2.184-4.004 7.6441-13.8321 12.7402-21.8402 9.4641-15.6522 11.6481-29.1203 5.096-32.7603-1.82-1.4561-5.096-6.1881-7.2801-10.1921-1.82-4.3681-4.732-10.5562-6.916-13.4682-1.8201-2.912-16.0162-26.9363-30.9404-52.7805-14.9241-26.2083-29.1203-49.8686-30.9403-52.7806-2.184-2.912-5.46-8.7361-7.2801-12.7401-2.184-4.0041-6.916-12.3761-10.9201-18.2002-4.004-6.1881-8.7361-14.1962-10.9201-18.2002s-6.9161-12.3761-10.5561-18.2002c-4.004-6.188-10.5561-17.4722-14.9242-25.4803-7.28-13.8321-16.7441-23.6602-21.8402-23.6602-1.456 0-5.096 2.912-8.0081 6.1881zm-254.8026-1.8201c-3.276 2.5481-9.4641 11.2842-13.8322 19.2922-4.368 8.0081-10.9201 19.2923-14.9241 25.4803-3.64 5.8241-8.3721 14.1962-10.5561 18.2002s-6.9161 12.0121-10.9201 18.2002c-4.0041 5.8241-8.7361 14.1961-10.9201 18.2002-1.8201 4.004-5.0961 9.8281-7.2801 12.7401-1.82 2.912-16.0162 26.5723-30.9403 52.7806-14.9242 25.8442-29.1203 49.8685-30.9404 52.7805-2.184 2.912-5.096 9.1001-6.916 13.4682-2.1841 4.004-5.4601 8.736-7.2801 10.1921-8.3721 5.096-2.912 21.8402 18.2002 54.6005 3.64 5.8241 8.0081 13.4682 9.4641 16.3802s9.4641 16.7442 17.4722 30.9403c8.372 13.8322 16.0161 28.0283 17.4721 30.9403 1.4561 2.9121 5.8241 10.1921 9.8281 16.3802 4.0041 5.8241 8.7361 14.1962 10.5561 18.2002 1.8201 4.368 6.1881 9.8281 9.4641 12.7401 5.4601 4.3681 6.9161 4.0041 13.1042-3.64 4.004-5.0961 8.7361-12.3761 10.9201-16.3802 1.82-4.004 6.5521-12.3761 10.5561-18.2002 4.004-6.188 8.3721-13.4681 9.8281-16.3801 1.456-2.9121 14.1962-25.1163 28.3923-49.1405 14.1962-24.0243 26.9363-46.2285 28.3923-49.1406 1.456-2.912 5.8241-10.5561 9.8281-16.3801 4.004-6.1881 8.7361-14.1962 10.9201-18.2002 2.184-4.0041 6.9161-12.3761 10.9201-18.2002 7.2801-10.9201 9.1001-14.1962 21.4763-38.2204 6.916-13.1041 5.096-27.3003-5.0961-40.0404-2.548-2.9121-5.4601-8.0081-6.9161-10.9201-1.092-2.9121-5.46-10.5561-9.4641-16.3802-4.004-6.1881-8.3721-13.4681-9.8281-16.3802-5.824-12.7401-49.8685-85.9049-54.9645-92.0929-6.5521-7.2801-8.3721-7.6441-16.0162-1.8201zm124.4893-218.4022c-2.184 4.732-6.9161 13.1041-10.9201 19.2922-4.0041 5.824-8.7361 14.1961-10.9201 18.2002-2.1841 4.004-6.9161 12.0121-10.9202 18.2002-4.004 5.824-8.372 13.4681-9.8281 16.3801-1.456 2.9121-12.0121 21.4763-23.6602 41.1325-24.0243 40.4044-25.4803 50.9605-12.0121 73.5287 5.096 8.0081 10.5561 17.8362 12.7401 21.8402 2.184 4.0041 6.9161 12.0122 10.9201 18.2002 4.0041 5.8241 8.3721 13.4682 9.8281 16.3802s12.0121 21.4762 23.6603 41.1324c11.6481 19.6562 21.1122 37.1284 21.1122 38.9484 0 1.4561 2.548 3.6401 5.46 5.0961 6.1881 2.184 16.3802-.728 16.3802-5.0961 0-1.82 9.4641-19.2922 21.1122-38.9484s22.2043-38.2204 23.6603-41.1324 5.824-10.5561 9.8281-16.3802c4.004-6.188 8.7361-14.1961 10.9201-18.2002 2.184-4.004 7.6441-13.8321 12.7401-21.8402 9.8281-16.3802 12.0121-38.5844 3.6401-45.5005-2.9121-2.548-5.4601-5.824-5.4601-7.28 0-1.82-6.9161-14.9242-15.6522-29.8483-8.736-14.5602-16.7441-29.1203-18.2001-32.0324-1.4561-2.912-5.8241-10.5561-9.8282-16.3801-4.004-6.1881-8.736-14.1962-10.9201-18.2002-2.184-4.0041-6.916-12.3762-10.9201-18.2002-4.004-6.1881-8.7361-14.5602-10.9201-19.2922-1.82-4.3681-6.5521-8.0081-10.9201-8.0081s-9.1001 3.64-10.9201 8.0081zm311.9512-92.457c-3.64 3.64-6.188 7.6441-6.188 8.7361 0 1.456-9.4641 18.5642-21.1123 38.2204-11.6481 19.6562-22.2042 38.2204-23.6602 41.1324-1.456 2.9121-5.8241 10.1921-9.8281 16.3802-4.004 5.8241-8.7361 14.1961-10.9201 18.2002-1.82 4.004-5.0961 9.8281-7.2801 12.7401-9.8281 14.9242-47.3205 81.1729-47.3205 83.7209 0 1.456-2.184 4.732-4.732 6.9161-2.9121 2.184-6.9161 10.1921-9.4641 17.4721-4.7321 14.9242-1.8201 25.8443 14.1961 50.2326 4.0041 5.824 8.7361 14.1961 10.9201 18.2002 2.184 4.004 6.9161 12.0121 10.9201 18.2001 4.0041 5.8241 8.3721 13.4682 9.8281 16.3802 2.9121 6.1881 53.8726 93.549 59.3327 101.9211 2.184 2.912 5.46 8.7361 7.28 12.7401 2.1841 4.0041 6.9161 12.0121 10.9201 18.2002 4.0041 5.8241 8.7361 14.1961 10.5562 18.2002 1.82 4.004 6.552 10.1921 10.5561 13.8321 7.28 6.5521 7.644 6.1881 25.1162-23.6602 9.8281-16.7442 18.9282-32.7604 20.3842-35.6724 1.4561-2.912 5.8241-10.5561 9.4641-16.3802 4.0041-6.188 11.6482-19.2922 17.1082-29.1203 17.8362-32.3963 20.0202-36.4003 26.9363-47.3204 4.004-6.1881 8.3721-13.4682 9.8281-16.3802s6.9161-13.1042 12.37611-22.2042c24.7523-42.5885 32.3964-58.2407 32.3964-67.3407 0-9.8282-8.3721-29.4844-22.2043-50.5966-3.64-6.188-8.0081-13.4681-9.4641-16.3801-1.456-2.9121-11.64811-21.1123-22.93221-40.0405s-21.4762-37.1284-22.9322-40.0404c-1.4561-2.912-5.8241-10.5561-9.8281-16.3802-4.0041-6.188-8.3721-13.4681-9.8281-16.3801-1.4561-2.9121-9.4641-17.4722-18.2002-32.0324-8.7361-14.5601-15.6522-27.6642-15.6522-29.1203-.364-4.368-13.4681-18.9282-17.4722-18.9282-1.82 0-5.824 2.9121-9.1001 6.5521zm-622.0824 2.548c-3.6401 4.7321-6.5521 9.4641-6.5521 10.5561 0 1.0921-6.9161 13.8322-15.6522 28.3923-8.7361 14.5602-16.7441 29.1203-18.2002 32.0324-1.456 2.912-5.824 10.1921-9.8281 16.3801-4.004 5.8241-8.3721 13.4682-9.8281 16.3802s-11.6481 21.1122-22.9322 40.0404-21.4762 37.1284-22.9322 40.0405c-1.4561 2.912-5.8241 10.1921-9.4641 16.3801-30.2124 47.3205-30.2124 48.7765 10.1921 117.9373 5.46 9.1 10.9201 19.2922 12.3761 22.2042 1.82 2.912 4.732 8.7361 7.2801 12.7401 2.548 4.0041 13.4681 22.9323 24.3882 41.8604 10.9201 18.9282 21.8402 37.4924 23.6603 40.7685 2.184 3.276 8.3721 14.9241 14.1961 25.4802 5.8241 10.5561 12.3761 22.5683 14.5602 26.5723 2.184 4.0041 7.28 12.0121 10.9201 17.4722 6.552 9.8281 6.9161 9.8281 14.1961 3.64 3.6401-3.64 8.3721-9.8281 10.1921-13.8321 1.8201-4.0041 6.5521-12.3761 10.5561-18.2002 4.0041-6.1881 8.7361-14.1961 10.9202-18.2002 1.82-4.004 5.096-9.8281 7.28-12.7401 5.4601-8.3721 56.4206-95.733 59.3327-101.9211 1.456-2.912 5.824-10.5561 9.8281-16.3802 4.004-6.188 8.736-14.1961 10.9201-18.2001 6.916-12.7402 12.7401-22.5683 17.1081-27.6643 2.1841-2.9121 5.8241-10.9201 8.0081-18.2002 4.3681-13.1042 1.82-22.5683-11.6481-45.1365-2.548-4.004-13.4681-22.9322-24.3882-41.8604-10.9202-18.9282-21.8403-37.8564-24.3883-41.8605-2.548-4.004-6.1881-10.5561-8.3721-14.5601-2.184-4.0041-6.9161-12.3761-10.9201-18.2002-4.004-6.1881-8.3721-13.4681-9.8281-16.3802-1.456-2.912-12.0121-21.4762-23.6602-41.1324-11.6482-19.6562-21.1123-37.1284-21.1123-38.5844 0-4.004-12.3761-14.9242-16.7441-14.9242-1.8201 0-6.1881 4.0041-9.4641 9.1001zm491.4051-219.4942445c-2.5481 4.7320505-6.5521 11.6481205-9.1001 15.6521705-2.5481 4.00404-6.1881 10.5561-8.3721 14.56015-2.184 4.00404-6.9161 12.01212-10.9201 18.20019-4.0041 5.82406-8.3721 13.46814-9.8281 16.38017s-9.1001 16.74417-17.4722 30.940314c-8.0081 13.83214-16.0162 28.02829-17.4722 30.94032s-5.8241 10.19213-9.8281 16.38013c-4.004 5.8241-8.7361 14.1962-10.9201 18.2002-2.184 4.0041-6.9161 12.0122-10.9201 18.2002-17.8362 28.0283-36.4004 64.0647-36.4004 71.3448 0 8.008 5.0961 19.6562 14.5601 34.2163 4.0041 5.8241 8.3721 13.4682 9.8282 16.3802 2.912 6.5521 42.9524 75.7128 48.4125 83.7209 2.184 2.912 5.096 8.7361 6.916 12.7401 4.7321 10.9201 16.7442 20.3842 22.9323 18.2002 2.912-1.092 7.28-5.8241 9.8281-10.1921 2.184-4.3681 7.28-13.1042 11.2841-18.9282 4.004-6.1881 8.7361-14.1962 10.9201-18.2002s6.9161-12.3761 10.9201-18.2002c4.0041-6.1881 8.7361-14.1962 10.9201-18.2002 1.82-4.004 5.0961-9.8281 7.2801-12.7401 1.82-2.9121 20.7482-34.9444 41.8604-70.9808 21.1123-36.0363 40.0405-68.0687 41.8605-70.9807 2.184-2.912 4.732-7.6441 5.824-10.1921 2.9121-5.4601-8.7361-28.7563-31.3043-64.42868-4.004-6.18806-9.4641-16.016154-12.7401-21.840214-19.2922-36.76439-52.0526-87.3609105-57.1486-88.4529205-3.2761-.72801-8.0081 2.54802-10.9201 7.28007zm-361.0918 0c-8.3721 13.8321505-47.6845 80.8088405-50.5965 86.6329005-1.456 2.91203-5.8241 10.192104-9.8281 16.380164-4.0041 5.82406-8.7361 14.19615-10.9201 18.20019-2.1841 4.00404-7.6441 13.83219-12.7402 21.84019-4.732 8.0081-8.7361 16.3802-9.1001 18.9282 0 3.2761 74.2568 131.7694 91.001 157.6137 2.184 2.912 5.46 8.7361 7.2801 12.7401 2.184 4.004 6.916 12.0121 10.9201 18.2002 4.004 5.8241 8.7361 14.1962 10.9201 18.2002s6.9161 12.0121 10.9201 18.2002c4.004 5.824 9.1001 14.5601 11.2841 18.9282 6.5521 12.3761 17.4722 14.1961 24.3883 4.368 7.2801-9.8281 13.8321-20.7482 17.8362-28.7563 1.456-2.912 11.6481-21.1122 22.9322-40.0404s21.4762-37.1284 22.9322-40.0404c1.4561-2.912 5.8241-10.5561 9.8281-16.3802 15.6522-23.6602 17.4722-34.2163 9.8281-49.1405-13.1041-24.7523-25.4802-46.5925-32.0323-56.4206-3.64-6.188-8.3721-14.1961-10.5561-18.2002-2.184-4.004-6.9161-12.3761-10.9201-18.2002-4.0041-6.188-8.3721-13.4681-9.8281-16.38013s-9.4641-17.10818-17.4722-30.94032c-8.3721-14.196144-16.0162-28.028284-17.4722-30.940314s-5.824-10.55611-9.8281-16.38017c-4.004-6.18807-8.7361-14.19615-10.9201-18.20019-2.184-4.00405-6.9161-12.37613-10.9201-18.20019-4.004-6.18807-8.3721-13.1041405-9.4641-15.6521605-3.64-6.91608-11.6481-5.09606-17.4722 3.64003z" style="stroke-width:.364004"/></svg>