<svg height="960" style="" width="1110" xmlns="http://www.w3.org/2000/svg"><path d="m549.22862.00643215a404.9199 404.9199 0 00-110.65726 16.30172985l-2.68342.67086a385.94018 385.94018 0 00-213.93511 158.790968c-12.02806 18.20653-22.27213 35.61526-43.37065 45.01426l-.20126.0671a36.234608 36.234608 0 00-19.79017 29.85297c-2.23476 19.38961-3.87234 38.90887-4.59534 58.36424-.78877 21.49285.31242 42.90762-.80503 64.33484v.46959a240.50358 240.50358 0 01-6.23893 46.79203c-4.66669 18.79799-12.09821 36.94447-18.0795 55.47955a133.19581 133.19581 0 00-6.03768 73.49198c9.59576 38.45118 37.90318 61.04563 72.0161 77.14813 3.94355 1.90608 9.87867-.60376 13.95375-.60376 6.17779-11.83093-1.71974-18.70246-5.40037-26.12975-5.45545-11.04216-12.56384-21.75569-18.34784-32.4693a43.927717 43.927717 0 017.98316-53.90306 198.78335 198.78335 0 0120.02497-16.77132 147.53654 147.53654 0 0135.32041 7.11104l1.44234.57022a233.59593 233.59593 0 0146.25533 28.1423 96.363005 96.363005 0 0139.58035 83.35352 487.73503 487.73503 0 000 50.91777c.78929 12.7512 3.46075 25.84334 5.36682 39.58033h30.18839a65.815928 65.815928 0 0016.93905-39.88223c5.91553-49.49294 36.36427-77.63747 80.40177-93.21506l-1.77775.60377a256.37808 256.37808 0 0188.48554-15.66442 252.04746 252.04746 0 0180.23405 12.8133c47.45521 14.98596 80.40205 43.79681 86.90905 96.90476a54.162528 54.162528 0 0016.6707 38.03738h30.38966c1.70892-14.5251 4.07359-27.54054 4.79659-40.62018.72288-16.10327.65724-32.13092 0-48.23435a101.98503 101.98503 0 0149.2071-92.00751c22.67605-15.70873 45.49102-32.0318 76.71208-25.45891l.46958.26835a124.08503 124.08503 0 0111.7064 8.8888 46.812995 46.812995 0 0111.10261 62.4229c-4.9296 9.53052-10.71026 18.33933-16.10048 27.6727-4.27223 7.55827-10.73688 14.51998-7.64772 25.69366l-.20126-.0671a32.217252 32.217252 0 009.22423 3.01884h.63732a19.916368 19.916368 0 009.55965-2.41507c46.60081-24.84504 77.35833-57.46039 69.66812-114.38048l-.33542-2.21381a342.95277 342.95277 0 00-18.07949-64.1671l.53668 1.71067a247.55724 247.55724 0 01-14.79233-82.41432c.1314-39.17327-1.72997-78.28251-2.64987-113.70964l.13418-.0671c-10.84513-18.40329-18.31237-30.17519-32.83826-36.02482a48.967366 48.967366 0 01-23.88238-23.98302l-.83858-1.64359a346.77244 346.77244 0 00-81.64284-95.697211 395.99562 395.99562 0 00-202.29581-88.7203468 423.54263 423.54263 0 00-58.12943-4.02512005 404.9199 404.9199 0 00-4.5618 0zm119.44542 176.09897785a28.763828 28.763828 0 019.15715 1.57651 798.4164 798.4164 0 01134.03649 30.35611 163.05481 163.05481 0 0162.55707 43.70609c19.8498 19.65253 14.73317 74.99873 3.75678 91.10189l-.0671.13416a34.982997 34.982997 0 01-29.2492 15.69798 34.608054 34.608054 0 01-5.40037-.40252 990.87197 990.87197 0 01-146.3131-23.84884 59.9916 59.9916 0 01-46.12116-57.76046c-2.36617-30.03745-4.53821-60.10049-6.64146-87.31155l-.13416.0671a28.763828 28.763828 0 0124.41906-13.31645zm-225.10482 1.30817h.26834a65.005946 65.005946 0 0118.91805 4.66242l.0671.0671c.96667 11.04308 1.54295 22.22948 1.54295 33.50913a372.8218 372.8218 0 01-6.97687 72.51923 52.298227 52.298227 0 01-40.55308 44.67882c-21.49284 4.92948-42.67824 11.11421-64.36836 14.92649-26.15953 4.53529-52.502 7.76916-78.85881 10.39824-29.38021 2.95776-45.02442-6.44731-50.41463-40.88852-7.29575-48.63841 17.48003-89.54702 68.02453-106.83339a1118.9599 1118.9599 0 01110.28827-27.90749l-1.5765.26834a234.50041 234.50041 0 0143.63901-5.40037zm111.42873 63.93231c10.61499-.12324 21.15836 5.99512 30.55737 18.54909l-.40251-.60376a230.0185 230.0185 0 0143.97442 102.40577 102.92588 102.92588 0 01-4.19282 57.99526c-3.48361 7.953-7.38158 15.77749-10.73366 22.87609-24.08252 7.84806-38.70496-1.87139-54.07078-15.53025-5.91539 2.16914-12.37209 4.28204-18.61617 6.97687-4.07508 1.70894-7.63 4.53426-11.6393 6.44019-21.03277 9.72782-36.39174 3.75024-44.4105-17.67696l.23481.77146a116.42737 116.42737 0 01-4.59535-63.99939l.20126-1.37525a225.73967 225.73967 0 0139.9493-93.28216c1.11745-1.38023 1.66528-3.2151 2.71697-4.59534 9.72768-12.45535 20.41197-18.82838 31.02696-18.95162zm273.77522 358.23566a17.856359 17.856359 0 00-17.20739 13.38353l-.0335.10063a119.00927 119.00927 0 00-10.33113 48.63686v.36897c.0875 34.76858-.03 69.52578-.33544 104.25061v.0335.1677c.0572 1.3793.0671 2.78015.0671 4.1593a93.171315 93.171315 0 01-14.32273 49.94502l-28.0752-1.27462a173.00812 173.00812 0 00-32.67056-57.0896 211.54154 211.54154 0 00-76.24247-47.26163c-77.16427-31.02333-151.68673-21.42591-223.46128 14.65819a127.28279 127.28279 0 00-72.48569 86.03694 33.071383 33.071383 0 01-32.16742 3.22009l-.10062.0671.30188.7044a124.1989 124.1989 0 01-13.21581-52.96388c-.32855-35.82157.86904-71.57806-.90566-107.20235l-.0671-.73794a175.07814 175.07814 0 00-11.16971-47.96601c-3.54937-10.38505-12.68364-14.18972-25.89493-7.74836l.26834-1.71067a266.83311 266.83311 0 00-4.72952 40.01639c.52584 27.53978 2.94809 55.00742 4.39409 82.48143 1.97198 38.25336 2.16373 76.72401 6.23894 114.64882l.20125 2.01255a380.12467 380.12467 0 0016.97259 72.7876 72.513495 72.513495 0 0076.30956 46.18824l.90566-.20126a131.22041 131.22041 0 0035.28688-15.22837c28.13149-14.98585 55.3657-31.81803 83.95729-45.75219l-.73795.33543a134.02911 134.02911 0 0162.89251-15.59734 132.59722 132.59722 0 0128.91377 3.153l2.38153.53668a327.43873 327.43873 0 0166.64928 26.23037c20.63844 10.12214 39.48873 23.78994 59.40405 35.55523a71.237241 71.237241 0 00106.56505-38.00385l-.73795 2.31445a332.43488 332.43488 0 0017.17385-77.34938c4.07521-44.30042 4.47232-88.86806 6.64145-133.36565.39445-7.88669 2.22334-15.72811 2.68341-23.68111 1.31461-26.29065 6.1836-52.96586-6.23893-77.41646a17.856359 17.856359 0 00-7.07751-1.44235z" style="stroke-width:17.1738"/></svg>