<svg height="960" style="" width="1480" xmlns="http://www.w3.org/2000/svg"><path d="m216.8503 125.10643c-1.53191 3.06377 3.57448 11.23406 12.25533 18.38297s15.82978 17.36169 15.82978 22.46803c0 8.17028-2.55319 8.17028-36.76595-3.06386-39.31914-12.76594-65.36169-15.8298-65.36169-7.14891 0 3.06377 4.08511 6.63831 9.19149 8.1702 28.59575 8.6808 149.10631 68.42554 149.10631 74.04257 0 2.55326 4.59577 4.59574 9.70217 4.59574 10.72343 0 18.8936 8.6808 13.27657 14.29783-1.53189 2.04266-10.2128-.5106-18.38297-5.61703-8.6808-4.59566-19.91486-8.6808-25.02125-8.6808-5.10638 0-10.72341-2.04248-12.76596-5.10643-1.53191-2.55308-10.21277-7.14891-19.40425-9.702-9.19149-2.55325-32.17022-10.72345-51.57446-17.87237-19.40424-7.149-39.31914-13.27671-44.42552-13.27671-10.21276 0-13.27659 12.25534-4.59575 17.87237 9.70213 6.12763 5.61702 13.27671-4.59574 7.65968-14.29787-7.65968-28.59574-6.63831-22.46809 1.0212 2.55321 3.57446 8.68086 18.89366 13.78724 33.70209 9.19148 27.06394 9.19148 66.89366 0 167.4894-3.06383 35.23414 4.08511 48.00009 27.57445 48.00009 13.27661 0 132.25527 13.27654 169.53185 18.89357 33.19153 5.10643 1.53199 10.21277-84.25525 13.78723-44.93616 1.53188-86.8085 4.59574-92.93616 6.12762-13.78724 4.08515-18.89361 16.85109-12.25531 33.70218 4.59574 11.74474 6.12766 12.25534 29.61701 8.6808 13.27659-2.04249 46.46807-7.65952 73.02126-11.74466s63.31918-10.21277 81.70216-13.78723c43.40423-7.65951 58.21268-8.1702 61.27657-2.04249 1.53189 2.55318-3.57451 5.61695-11.23405 6.63832-7.14892 1.0212-16.34046 5.10626-19.40424 9.1914-3.57451 4.08514-9.19154 7.14891-13.27668 7.14891-3.5744 0-15.31908 3.57455-26.04252 8.17029-10.72343 4.59566-26.04251 11.74466-34.72338 15.31911-36.2553 15.3192-88.85104 42.38297-113.36167 57.70217-23.99999 14.80843-27.06383 18.89358-27.06383 34.21269 0 15.8298-9.70212 49.02129-20.93616 69.95751-5.61702 10.21269-1.02129 11.23406 17.87233 3.57438 14.80851-5.61703 17.3617-1.53189 4.59575 7.65968-4.59575 3.57437-6.6383 8.6808-4.08511 12.25534 4.08511 7.14892 19.91489 5.61703 48.51063-4.59582 9.70213-3.57446 27.06381-9.70218 38.29786-13.78715 11.23404-4.08514 27.06383-10.72345 34.7234-14.8086 8.17021-4.08505 18.38297-7.14891 22.97876-7.14891 4.08502 0 11.74468-3.57454 16.85096-8.1702 5.10641-4.59574 12.76607-7.14892 17.36172-5.10643 10.2128 3.57446 5.1064 13.27663-7.65954 13.27663-5.1064 0-10.2128 3.57454-12.25531 7.65951-1.53189 4.08515-7.14892 7.65969-12.76595 7.65969-5.61702 0-11.23404 2.04248-13.27661 4.59566-1.5319 3.06385-15.82978 11.23405-32.17019 18.38297-15.82978 7.65968-39.31914 18.89357-52.0851 25.02128-12.76595 6.6384-29.10639 13.27663-36.76595 14.8086-8.17022 2.04249-14.29787 6.12763-14.29787 9.1914 0 9.19157 61.27659-1.53188 104.17019-18.89365 8.68086-3.57438 8.68086-2.55309 1.02128 12.25534-4.59575 8.68097-12.76595 18.38297-18.38297 21.44691-5.61703 3.06377-10.21278 8.6808-10.21278 12.76595 0 6.12762 9.1915 7.65951 48 7.65951 26.55314 0 49.53189-2.04251 51.5744-4.59574 1.532-3.06377 14.80858-10.72337 29.61703-18.38297 14.29794-7.14892 33.70217-17.87238 41.87235-22.97872 8.68091-5.61703 18.89359-11.74466 22.97874-13.78731 42.89357-20.42546 163.91485-115.91486 233.8722-184.851 26.55325-26.55317 42.89365-31.14892 30.63831-9.19157-3.06377 6.12771-7.65951 17.87237-9.70209 26.55325-7.65951 30.12772-17.87228 51.57446-41.36168 86.80852-33.1914 49.53188-81.70209 111.31911-89.87237 113.87237-8.6808 2.55317-7.65952-14.80852 1.53205-26.55326 7.14892-9.70208 10.72329-33.70208 5.10626-33.70208-1.53188 0-27.06377 12.25534-57.70208 27.57445-50.04249 25.02137-80.17012 38.29792-104.68078 45.95752-34.2128 10.72339 22.468 12.76591 364.08503 12.76591 341.61682 0 398.29762-2.04252 364.08482-12.76591-24.5106-7.6596-54.6382-20.93615-104.68076-45.95752-30.6382-15.31911-56.17013-27.57445-57.70201-27.57445-5.61703 0-2.04266 24 5.10634 33.70208 9.19147 11.74474 10.21267 29.10643 1.53188 26.55326-8.17028-2.55326-56.68084-64.34049-89.87224-113.87237-23.4894-35.23406-33.70217-56.6808-41.36177-86.80852-2.04249-8.68088-6.63823-20.42554-9.702-26.55325-12.25534-21.95735 4.08497-17.3616 30.63823 9.19157 69.95743 68.93614 190.97853 164.42554 233.87223 184.851 4.0851 2.04265 14.8085 8.17028 22.9787 13.78731 8.6808 5.10634 27.5744 15.8298 41.8724 22.97872 14.8084 7.6596 28.0849 15.3192 29.617 18.38297 2.0425 2.55323 25.0212 4.59574 51.5744 4.59574 38.8084 0 48-1.53189 48-7.65951 0-4.08515-4.5958-9.70218-10.2128-12.76595-5.617-3.06394-13.7872-12.76594-18.383-21.44691-7.6596-14.80843-7.6596-15.82972 1.0212-12.25534 42.8937 17.36177 104.1703 28.08522 104.1703 18.89365 0-3.06377-6.1276-7.14891-13.7873-9.1914-8.1701-1.53197-24.5106-8.1702-37.2766-14.8086-12.7659-6.12771-36.2553-17.3616-52.085-25.02128-16.3404-7.14892-30.6382-15.31912-32.1703-18.38297-2.0425-2.55318-7.6595-4.59566-12.7659-4.59566s-11.7447-3.06386-13.7872-7.149c-2.0426-4.08506-8.6808-7.6596-13.7872-8.6808-5.617-1.02129-10.7235-5.10643-12.2554-8.6808-2.5532-8.68097 16.851-7.65969 24.5107 1.53188 3.5744 4.08498 10.7233 7.65952 15.3191 7.65952 5.1064 0 15.8298 3.06386 24 7.14891 7.6596 4.08515 23.4894 10.72346 34.7234 14.8086 11.2341 4.08497 28.5958 10.21269 38.2978 13.78715 28.5958 10.21285 44.4255 11.74474 48.5106 4.59582 2.5533-3.57454.5107-8.68097-5.1063-12.76594-12.2553-9.19157-6.6383-14.8086 6.6382-7.65968 15.8299 8.68088 22.4681 7.14891 16.8511-3.06378-12.7659-24-20.936-55.14891-20.936-80.1702 0-35.23405 2.0424-33.70217-91.9149-79.6596-66.383-32.68088-102.1277-48-133.7872-58.21277-15.8298-5.10643-9.7022-13.27663 9.1914-13.27663 10.2128 0 37.2766 3.57446 60.2553 7.6596 158.2978 28.59575 157.7872 28.59575 160.3403 6.12763 3.064-24-6.1276-29.10643-49.5319-29.61703-131.2338-1.02128-161.8722-20.42545-46.4679-29.61702 102.6381-8.1702 108.2552-11.74466 98.0425-60.76595-12.766-61.27663-6.6383-130.72337 14.8084-171.06385 5.617-10.21269-5.1063-12.25535-21.4467-3.57438-10.2128 5.61703-14.2979-1.53205-4.5958-7.65968 8.6808-5.61703 5.6171-17.87237-4.5957-17.87237-5.1064 0-25.0213 6.12771-44.4256 13.27671-19.4041 7.14892-42.3829 15.31912-51.5744 17.87237-9.1915 2.55309-17.8724 7.14892-19.4043 9.702-2.0425 3.06395-7.6595 5.10643-12.7659 5.10643s-16.3405 4.08514-25.0213 8.6808c-8.1701 5.10643-16.8511 7.65969-18.383 5.61703-5.617-5.61703 2.5532-14.29783 13.2767-14.29783 5.1063 0 9.7021-2.04248 9.7021-4.59574 0-5.61703 120.5106-65.36177 149.6169-74.04257 4.5958-1.53189 8.681-5.10643 8.681-8.1702 0-8.68089-26.0427-5.61703-65.3618 7.14891-34.2128 11.23414-36.766 11.23414-36.766 3.06386 0-5.10634 7.149-15.31912 15.8299-22.46803 8.6808-7.14891 13.7872-15.3192 12.2553-18.38297-1.532-2.55326-21.9574-5.10643-45.4468-5.10643-35.2341 0-45.9574 2.04249-64.8511 12.25534-12.2554 7.14892-33.7021 18.89357-47.4893 26.04249-28.0851 15.3192-121.53176 76.08514-131.74466 85.78723-3.5745 3.57454-22.46811 18.89365-42.38297 34.72345-19.40413 15.8298-55.14887 46.97872-79.14887 69.95743-24 22.46812-44.42546 38.80852-45.44675 35.74466-4.08514-11.74466 20.42555-78.63831 40.3404-108.76594 31.14892-47.48932 61.27655-89.87229 71.48932-100.59575 6.12771-6.63822 14.80847-16.85108 18.89361-23.4894 4.59575-6.12762 9.70217-11.23405 12.25526-11.23405 7.1489 0 5.10643 19.91485-3.57446 33.19157-4.08505 6.63831-7.14891 16.851-6.12771 22.46803 1.53206 9.19157 7.65968 6.63831 67.91503-22.97863 36.7659-17.87237 72.5106-34.21286 80.6808-36.76594 7.6595-2.04266 13.7871-6.12772 13.7871-8.68098 0-7.14891-126.63816-9.702-135.31896-2.55308-4.5959 4.08497-7.6596 4.08497-10.2129 0-2.04247-3.57454-73.53183-5.10643-217.02106-5.10643-143.4894 0-214.97871 1.53189-217.02128 5.10643-2.55326 4.08497-5.61703 4.08497-10.21277 0-8.6808-7.14892-135.31909-4.59583-135.31909 2.55308 0 2.55326 5.1064 6.63832 11.74469 8.1702 6.12765 1.53198 24.00002 8.68089 39.31905 15.8298 15.3192 7.14892 31.65969 14.29792 35.74475 16.34049 4.08514 2.04257 22.46811 11.23406 40.85108 20.93614 31.14892 16.34049 33.1914 16.34049 34.72337 7.14892 1.02129-5.61703-2.04257-15.82972-6.12763-22.46803-8.68088-13.27672-10.72345-33.19157-3.57454-33.19157 2.55317 0 8.1702 5.10643 12.25534 11.23405 4.59575 6.63832 14.80843 19.91495 23.4894 29.61712 23.48932 26.55308 79.14892 111.82971 88.34032 135.31911 12.25534 31.14892 20.93623 62.29783 18.89374 67.91486-1.02137 3.06386-21.44691-13.27654-45.44691-35.74466-24-22.97871-59.23406-54.12763-79.14892-69.95743-19.40417-15.8298-38.80843-31.14891-42.38297-34.72345-10.21277-9.70209-103.65951-70.46803-131.74466-85.78723-13.7872-7.14892-35.23394-18.89357-47.48925-26.04249-18.89361-10.21285-29.61703-12.25534-64.85109-12.25534-23.48936 0-43.91489 2.55317-45.44681 5.10643z" style="stroke-width:1.14285"/></svg>