<svg height="960" style="" width="1316" xmlns="http://www.w3.org/2000/svg"><path d="m722.3289 876.39854c4.80346-6.01039 8.73951-12.66518 11.69309-19.76966 3.19535-10.48327 1.59786-21.90405 1.59786-32.84939v-190.97596c-51.55606-.59737-101.96492-.22448-154.01617-.26434v174.76467c0 16.70943-1.49881 34.17157 3.19395 50.46326 1.84159 6.62242 4.71538 12.91315 8.51564 18.64075l-.15026-.24104c-19.96942 26.37558-40.26389 53.18367-62.76555 82.90505-20.88056-26.76344-41.19165-52.79385-62.61701-80.25738 11.97374-24.54994 8.95968-51.14011 9.02899-77.41333.11898-44.70427.0307-89.40853.0307-134.1128v-32.95666h-148.96454c-.27728.31525-1.03496 1.07287-1.67042 1.92298-.61239.81871-1.57473 1.73316-1.57473 2.60473-.0726 71.2961-.0675 142.59214-.0675 217.06728l11.8301 20.3095c-20.47123 27.07212-40.79888 53.953-63.25411 83.64782-20.89215-27.38435-41.01673-53.76287-61.73556-80.91932 12.20643-24.3733 9.24359-49.94011 9.2518-75.16511.0616-205.42663-.002-410.85252-.19012-616.27773.40092-14.75662-1.41865-29.48967-5.39763-43.70537-10.15472-32.0538-38.3592-43.47151-67.06051-53.16545-8.85567-2.99093-18.02001-5.07208-28.00307-7.83554v-82.8155h1075.99235v80.9985c-5.8069 2.40664-13.3422 5.55771-20.8971 8.65597-14.9175 5.23623-29.5216 11.32556-43.7404 18.23786-23.1963 12.82219-34.3249 33.91238-35.1404 60.33917-.2625 8.50736-.1257 17.02797-.1257 25.54362 0 204.36132.061 408.7231.1932 613.08538.024 14.51708.5164 28.98681.6552 44.68936.192 11.46684 3.2631 22.70154 8.9317 32.6711l-.1785-.33855c-16.0855 21.52932-40.3879 47.64074-61.6629 76.11759-21.4253-27.98166-41.7464-49.72882-63.15019-77.68067 3.85154-7.90172 6.88362-16.17719 9.0488-24.69682l.203-.93101c3.17414-12.96743 1.59786-26.68254 1.59786-40.01642v-183.33491c-50.35771-1.5962-99.61606-.60227-152.02223-.7989v34.4865c0 52.15521-.45201 104.3155.25269 156.46083-.28028 10.13712.0184 20.2819.89464 30.38498 1.4165 9.17311 4.15536 18.09238 8.13109 26.4796-16.92236 22.1647-38.89571 50.45179-60.44968 78.68429-21.54913-27.56074-43.72874-53.88677-66.20887-82.63758zm-140.88179-759.86324v155.60544h153.84916l-.1104-155.60449zm-106.16611 155.46186v-155.18587h-150.07613v155.18587zm516.50019.13701-2.0752-155.34223h-148.47858v155.34223zm-410.38855 257.24555h153.77483l-.69003-150.78095-153.08357 1.04484zm-256.69252-.0773 150.30722-.3502v-148.99005s-149.80382 1.92303-150.30722-.14192zm516.44701.0773c27.38086 0 150.18671.47348 150.18671.47348v-153.26989c-50.61187.0924-99.6953-.32027-150.18671.26244z" style="stroke-width:6.13311"/></svg>