<svg height="960" style="" width="1200" xmlns="http://www.w3.org/2000/svg"><path d="m516.95008-120-4.94325 2.04535c-17.20744 7.12036-49.29545 34.409674-59.14766 49.602222-8.38648 12.932512-9.97518 20.119096-8.69325 40.39779.59312 9.380948.30338 34.600148-.85222 55.909108-3.10581 57.27065-8.52272 87.44314-16.70456 91.19314-3.06816 1.36362-4.71696 1.14786-7.32947-1.36353-17.17899-16.51397-28.54693-36.01856-35.96598-61.36376-4.03832-13.79595-2.10535-28.90495 0-43.12495.79331-5.35833 2.02942-10.81189 4.7088-15.55331-6.04397 5.67567-9.99808 11.2967-13.40192 17.93967-8.53069 16.64837-14.07373 35.17616-16.87496 53.52275-3.34614 21.91384-1.476 34.08491 1.87496 66.47726 3.29672 31.86907.2784 57.58073-8.86365 75.00004-3.47192 6.61515-14.17865 20.76163-19.60233 25.73856-9.06512 8.31864-22.99941 14.55123-39.71587 17.72739-17.37458 3.3011-22.05938 7.03757-31.84232 13.01979-2.79219 1.70739-7.44917 6.396-7.44917 6.396s-4.0907-5.28795-5.36761-8.33629c-4.0261-9.88811-3.92192-23.43273-4.43181-34.94313.0894-5.96576 1.67946-17.82011 1.67946-17.82011s-6.64866 6.1416-10.88413 11.85414c-15.89792 21.44357-22.15907 49.09091-18.40907 80.62497 1.67552 13.85573 6.00566 32.94894 10.90907 48.92062.36755 1.1964 1.38 3.49178 1.38 3.49178s-6.50747 1.2191-9.73221 1.96267c-8.78934 2.02646-16.87767 3.52429-26.19033 6.80486-9.978 3.5149-19.7736 7.88357-26.65059 12.11565-13.12495 8.01131-32.04535 25.56819-35.11364 32.72728-.85222 1.87494-3.06819 5.79534-4.94324 8.52272-5.11353 7.84091-5.62495 9.54534-3.75 11.42041 1.19323 1.19312 3.23869.85221 6.64778-1.53405 11.93182-8.18193 41.93182-11.07961 67.67052-6.47726 16.02264 2.89766 17.55678 3.9204 14.14768 10.56816-3.23858 6.30678-6.30688 15.17043-7.84091 22.67043-.6817 3.23867-2.21597 7.67051-3.23858 9.71584-1.19312 2.04557-2.04556 5.96597-2.04556 8.69323 0 2.55677-1.02263 8.18184-2.38626 12.44325-4.60221 14.6591-6.81818 54.03404-4.60221 81.47729.73264 8.37414 1.2457 15.12251 2.50047 22.59579 2.20342 13.12286 5.19577 26.12891 8.80865 38.93564 2.52568 8.95245 5.78891 18.29509 8.97491 26.42312 6.52461 16.64598 14.2164 32.94819 23.6039 48.16441 3.0504 4.94413 5.89712 9.19168 10.54592 13.87539 0 0-4.79782-22.20283-6.5363-33.74444-1.19573-7.93986-2.85315-15.81165-3.77627-23.79032-1.97837-17.10131-1.96277-49.26417.0448-62.81577 1.07587-7.26424 3.53543-16.36909 8.89768-22.5084.8064-.92334 4.17219-2.31611 4.17219-2.31611s1.03701 1.79334 1.57167 2.68069c1.44862 2.40393 2.55676 4.43182 4.43182 7.15899 1.87494 2.89777 3.92051 6.13635 4.43182 7.3296.68181 1.36363 3.40909 4.77272 5.96596 7.6704 4.77273 5.28414 4.94313 5.79556 4.94313 24.20465 0 10.22728.85222 21.64768 1.87495 25.39768 1.02284 3.5796 2.38647 10.05677 3.23868 14.48859 1.36364 7.5 2.55688 11.42062 8.18183 26.59102 2.89767 7.6704 6.98857 17.55677 9.03415 21.30677.85221 1.36363 3.40909 6.47728 5.79534 11.0795 4.77284 9.37504 5.28415 10.22738 16.19324 27.27272 7.67051 12.10233 23.01142 32.72729 32.21586 43.46598 6.13647 6.98869 6.47738 11.25 2.72738 32.38636-3.4091 19.60234-3.4091 69.03416 0 81.81816 1.36353 5.1137 2.55677 11.7613 2.55677 14.8295 0 2.8978.68181 5.7956 1.53415 6.4774.85221.5113 2.21585 3.4091 2.72726 6.4773 1.19314 5.1135 2.21586 7.5 8.86354 20.4544 3.5796 6.8183 9.37505 13.1251 11.0796 12.1024.85221-.5115.51131-2.5568-.68183-4.6024-1.02272-2.0453-2.21596-12.9544-2.72726-24.2044-.68183-16.3637-.17051-21.8182 2.04545-27.1022 1.53404-3.5796 2.72739-7.841 2.72739-9.3752 0-4.7726 13.46585-18.75 21.64756-22.32949 10.05687-4.43182 28.46597-4.77273 34.60234-.51131 5.62505 3.9204 7.84101 6.8182 11.93192 15.6817 3.06808 6.6478 3.40909 11.0796 3.40909 46.0228 0 38.3522 1.02262 48.0681 7.84091 78.5795 1.36353 6.1364 2.38627 12.6137 2.38627 14.4886.1704 1.8751 1.19323 4.9433 2.55686 6.6478 1.36354 1.875 2.55687 4.6022 2.55687 6.1365 0 1.3635 3.4091 6.4771 7.5 11.0794 6.98848 8.1819 16.87495 14.3182 32.55667 20.2841 3.75 1.3636 8.35233 2.3864 10.22738 2.2159 3.75-.3409 3.75-.6818 1.02262-19.0909-.85222-5.625-2.21586-16.0228-3.23858-23.0114-2.38636-16.534-5.45455-52.8408-5.45455-64.7727 0-13.4659 3.40909-50.7953 5.45455-58.8069.85232-3.75 2.21596-9.8862 3.06818-13.6362 1.53414-6.9887 5.62506-19.0909 8.35222-24.37508.85232-1.53403 2.04556-4.09091 2.55688-5.45454 2.55687-6.81818 14.31818-22.15909 21.47727-28.29546 9.37495-7.84091 16.70455-12.61363 19.26143-12.61363 1.19312 0 5.11352-2.89779 8.69312-6.30688 5.28415-5.28403 6.13636-7.3295 5.79545-12.44313-.5113-5.79546-.6817-5.96597-8.1817-6.47728-7.5-.3409-26.59091-3.9205-40.05689-7.3296-3.75-1.02261-9.54556-2.38624-12.78404-3.23858-7.84101-1.87494-16.70464-4.94323-22.67062-7.84091-2.72716-1.36363-5.62494-2.38635-6.47716-2.38635-2.21596 0-34.94314-16.19325-41.59092-20.45456-2.72727-1.87494-6.64778-4.09091-8.52283-5.11363-28.97718-14.6591-85.05679-70.73873-99.71588-99.71599-1.02272-1.87495-3.23859-5.62495-4.94312-8.52274-3.5796-5.62494-14.6591-27.61353-18.06819-35.79534-1.19312-2.72728-3.40909-8.01142-4.94312-11.59102-1.53427-3.5796-2.72739-7.49989-2.72739-8.69314 0-1.36363-1.19324-4.60222-2.55688-7.15908-1.36352-2.72727-2.55676-6.30677-2.55676-8.18183 0-1.70454-1.19324-6.64777-2.38636-11.0796-7.15909-22.3295-8.35223-34.43182-8.35223-74.4886 0-38.86363.85223-46.87494 7.50002-73.12495.85221-3.75 2.38624-10.22738 3.40897-14.48869.85233-4.09091 2.38636-8.35222 3.23869-9.20456 1.02274-1.02272 1.70455-3.06816 1.70455-4.77272 0-2.72728 1.02272-5.45454 7.67051-20.96585 4.09091-9.54557 14.82949-30.68184 18.06819-35.79557 1.70453-2.72718 3.75-6.30678 4.43181-7.84091 4.60222-9.20445 30.34091-41.42041 44.48859-55.5682 15.68182-15.68181 47.21586-40.90899 56.59092-45.34091 1.36364-.68183 4.94324-2.72717 7.67051-4.43183 9.03404-5.79534 34.94314-18.23857 47.72718-22.84092 15.17051-5.45443 18.92051-6.64765 24.71596-8.0113 3.23869-.85222 9.03404-2.21598 12.78404-3.2387 17.72728-4.43171 26.59091-5.96573 38.35245-6.81818l12.78404-1.02262.5113-5.62515c.57437-6.31746-3.9204-22.6704-8.0113-29.31808-4.09091-6.64768-12.27459-13.46182-20.11365-17.04547-4.09276-1.87101-10.90614-5.12016-15.34092-7.15909-10.39483-4.77915-24.37908-18.57763-28.97727-28.63636-9.03817-19.77088-9.74617-24.88648-9.54556-74.14769.14029-34.43193.85723-49.430847 2.89779-59.659211 4.5588-22.85095 5.18377-48.798118 10.39777-72.102229zm181.99464 2.81913c-2.53789-.0273-2.6125 1.31432-2.16501 9.96491.34091 5.62494 1.70456 14.488583 3.06808 19.77262 1.36374 5.284038 2.38648 12.954658 2.38648 17.045568s.85221 10.568073 1.87504 14.318074c2.38627 9.545566 5.62496 53.863758 5.62496 79.261318.1704 26.0796-1.70456 43.80689-5.79547 56.25022-7.6704 22.67043-15.34101 31.36355-37.15909 42.10224-26.76132 12.95444-32.89779 19.09091-37.32961 37.1591-2.89768 11.93182-2.72728 19.09091.51141 20.28403 1.53403.51131 5.79536 1.02273 9.71587 1.02273 9.03414 0 43.97726 7.32949 58.29545 12.10223 2.89779 1.02283 7.67051 2.55686 10.9091 3.2387 3.06829.85232 6.47738 2.21595 7.5 3.23856 1.02274 1.02274 3.06829 1.87507 4.43181 1.87507 2.38648 0 20.79558 8.18181 27.44315 12.10232 1.36373.85221 5.96595 3.23859 10.22739 5.45445 41.76131 21.30686 91.36353 69.71596 118.46596 115.73871 2.72717 4.60221 14.65899 28.80686 17.55667 35.45443 1.36376 3.2387 3.4092 7.5 4.26141 9.37507 1.02285 1.87493 2.38638 5.62494 3.06819 8.52272.68182 2.72728 2.04546 7.5 2.89779 10.22728 15 43.63649 19.26131 106.36365 10.22728 148.29549-1.02285 4.77283-2.38637 11.93192-3.2387 16.19323-1.87506 10.39778-6.30677 25.22739-13.12506 43.46587-3.75 10.22726-17.38625 38.35222-22.3295 46.02283-2.38635 3.75-5.11363 8.18182-6.13635 9.71587-11.25 18.57947-18.06819 26.76131-42.61366 51.81819-20.96584 21.13625-44.8296 40.05687-64.77273 51.13625-21.98869 12.10245-43.63627 21.64779-62.21587 27.27286-5.11374 1.53402-12.78414 3.75-17.04547 5.11363-4.26141 1.36373-9.71584 2.38637-12.27272 2.38637s-6.64779.85232-9.37504 1.87493c-2.55678 1.02283-10.56808 2.38648-17.55678 3.06819l-12.78416 1.02272-.5113 5.28416c-.68182 7.15907 5.96586 14.8296 18.06818 20.79544 10.05688 4.77262 28.80689 21.64769 32.8978 29.6591 8.52261 16.19313 15.1704 31.53419 15.1704 34.77269 0 1.3637 1.02272 6.1364 2.38626 10.5682 8.52283 28.1251 8.86374 89.6592.85243 138.4092-3.06829 18.2386-4.60243 33.2386-3.75 34.6022.34091.6818 1.53403 1.1931 2.38626 1.1931 2.72726 0 20.62505-6.3067 27.10222-9.5453 8.69323-4.4318 20.96598-17.7274 24.03414-26.4205 5.11365-13.8069 8.35235-26.4204 8.35235-32.3864 0-3.2387.85221-8.5228 2.04544-11.7614 1.19312-3.75 2.38626-23.8636 2.89768-53.1818.68192-34.4318 1.53413-47.7273 3.23858-49.4318 1.02273-1.0227 2.04556-3.2387 2.04556-4.7727 0-3.4091 5.28404-9.8864 11.5909-13.9773 7.3295-4.77272 25.05689-4.26131 35.96587 1.19312 9.71598 4.94328 15.17041 11.24998 20.62507 24.20468 3.40909 8.1818 3.75 11.0795 3.23859 34.6022-.3408 13.9773-.3408 25.5682.1705 25.5682 5.96585-.1704 15.51131-21.3069 23.01131-50.6251 3.92051-15.3409 3.75-79.4318-.3409-98.69311l-2.89768-13.97728 5.79544-7.3296c3.06808-4.09091 6.47717-8.18182 7.67053-9.20443 5.11352-4.77274 30.1704-40.5683 33.75001-48.57961.6817-1.36365 2.72715-4.77274 4.4317-7.6704 9.37494-14.6592 23.18182-47.89779 25.7387-62.21598.85221-4.26141 2.21584-9.88637 3.23869-12.44325 1.02262-2.72726 1.87494-14.31817 1.87494-25.73857v-20.96587l8.69312-12.10221c4.94325-6.64779 9.37507-11.76155 10.22728-11.42062.68182.51142 2.38648 4.43192 3.92051 8.86374 3.75 10.73859 3.75 61.53406.1704 76.36353-1.36363 5.62507-2.38635 13.12507-2.55688 16.70467 0 3.5796-1.19312 9.20456-2.55675 12.61363-2.72728 6.64768-3.40909 17.55667-1.02272 17.55667.85232 0 4.09101-4.43171 7.32947-9.71574 33.75006-56.93185 49.26156-122.04548 44.14776-184.43186-1.1931-13.63648-3.2387-29.14779-4.6022-34.43182-1.3636-5.11376-2.3865-11.07961-2.3865-13.12507 0-2.04544-1.0226-6.13635-2.3862-9.20454-1.3638-3.06818-3.5796-12.44312-5.11376-20.79546-2.21584-12.44313-2.38624-15.68182-.68171-17.55676 3.57949-3.40909 26.42037-6.13637 42.27267-4.94325 16.7046 1.19325 27.9546 3.9204 34.7728 8.35235 3.2386 2.21584 5.284 2.72715 6.4772 1.53403 2.2159-2.21598 1.875-3.06819-9.5454-20.79547-14.3182-22.1592-35.625-36.13636-74.99999-48.7499l-10.05688-3.23869-3.06819-10.22726c-2.55675-8.01144-2.89765-11.25003-1.36363-15.34093 1.02273-2.72737 2.89779-13.46596 4.26142-23.86374 4.60224-33.75001-1.36363-62.04537-17.72739-84.37497-3.23846-4.26131-6.64755-7.6704-7.6704-7.6704-1.19312 0-1.87494 6.47728-2.04544 18.75-.1704 13.46576-1.02262 20.45445-3.06819 25.05677l-2.89778 6.30678-7.1591-4.77275c-5.28403-3.23856-12.27261-5.62504-24.37494-7.8408-19.43182-3.5796-31.53416-9.71595-42.78416-21.64779-12.61352-13.46584-16.53403-20.11363-22.84091-39.03403-2.72715-8.18182-3.40909-14.4887-3.40909-35.11374.17061-15.34093 1.02284-29.48859 2.55687-36.30678 3.2387-14.82949 3.2387-41.0795-.1704-57.44315-2.72738-13.63635-8.01141-32.21596-10.73869-37.67062-5.45454-11.24989-7.67051-14.99989-9.37494-16.53403-1.19314-.85222-2.55688-3.23859-3.23869-4.94313-2.38637-6.13637-3.23859-1.19313-1.36354 7.5 2.38626 10.9091 2.38626 32.72716 0 41.76143-1.02283 3.75-2.38646 9.54534-3.0683 12.78403-2.89766 12.27272-8.35221 20.96597-23.18171 36.81819-4.26152 4.43182-7.67051 9.03416-7.67051 10.39779 0 1.19312-1.87504 3.23858-4.26141 4.26131-3.5796 1.53402-4.94312 1.53402-7.15899-.68182-3.40909-3.57949-9.03414-19.43182-9.03414-26.0795 0-2.72738-1.19324-11.5909-2.72738-19.60232-1.70443-10.22728-2.72717-30.17041-3.23848-69.03417-.51152-49.431822-.85243-55.22717-3.92061-62.215861-4.60222-10.738585-17.21587-25.568187-29.82939-35.284152-5.79558-4.431819-11.25001-8.693127-12.27284-9.374947-10.73869-8.52273-18.40909-13.29546-21.64768-13.80688-.46877-.0425-.88157-.0742-1.24408-.0785zm-77.80168 413.76509c-.0163-.00032-.0328 0-.0459.0125-2.04536.85221-2.38626 8.86352-2.04536 51.64767l.51131 50.79547 6.81819 3.2387c3.75 1.87493 9.37496 4.60221 12.44312 5.96585 10.05688 4.77272 26.59092 21.30677 32.38648 32.38637 3.06808 5.79534 5.45444 11.59091 5.45444 12.78404 0 1.36374 1.19324 3.75 2.72738 5.11375 2.21586 2.38625 9.54536 2.72716 53.52264 2.72716 36.8183 0 51.30688-.51131 52.15921-2.04535 1.69793-2.71719-159.47201-162.55144-163.93209-162.62092zm-42.0203.1705c-4.29414.0699-165.80304 159.90298-164.27491 162.44992.85224 1.53405 14.82961 2.04536 52.1591 2.04536 43.97718 0 51.30678-.34091 53.52275-2.72728 1.53403-1.36363 2.72716-3.92051 2.72716-5.45454.17063-1.53416 2.04557-5.96597 4.26154-9.71597 2.38624-3.75 4.94312-8.35222 5.79534-10.39757 2.21597-4.77283 20.79546-21.30686 27.78416-24.71596 3.06805-1.36365 8.69312-4.09091 12.44312-5.96597l6.81829-3.23869.51131-50.79535c.34091-39.71597 0-50.96597-1.70466-51.47739-.0125 0-.0262-.0125-.0437-.0125zm19.44077 138.94946c-5.78029-.0448-10.944.77661-13.26109 2.53451-1.70454 1.36352-4.43182 2.55675-6.13648 2.55675-4.43171 0-18.06806 16.53416-20.28404 24.37496-2.55687 9.03424-2.55687 18.92051 0 27.78414 2.38648 9.03416 13.80688 21.98859 22.84092 26.07949 13.46597 6.13638 34.43181 3.75001 45.51142-5.28403 14.82949-11.93181 20.28416-38.18182 11.5908-54.71597-3.5795-6.98859-14.14766-16.70444-21.47726-19.94313-4.88979-2.17331-12.23315-3.33621-18.78427-3.38672zm-131.55658 61.34116c-36.13635 0-51.30686.51154-52.1591 1.87506-.68192 1.19323 30.68184 33.92051 79.60225 82.67052 45.17051 45.17041 81.98871 80.62497 83.35233 80.28406 2.21598-.3409 2.55688-7.32949 2.55688-51.47718v-51.13648l-6.81829-3.23859c-3.75-1.87493-9.37507-4.60221-12.44312-5.96584-6.9887-3.40909-25.56819-19.94323-27.78416-24.71598-.85222-2.04557-3.4091-6.64778-5.79534-10.39778-2.21597-3.75-4.09091-8.18182-4.26154-9.71585 0-1.53415-1.19313-4.09091-2.72716-5.45456-2.21597-2.38635-9.54557-2.72736-53.52275-2.72738zm265.90905 0c-43.97718 0-51.30667.34103-53.52264 2.72738-1.53403 1.36365-2.72737 3.75001-2.72737 5.11365 0 1.19323-2.38626 6.98857-5.45445 12.78404-5.79555 11.0796-22.3296 27.61363-32.38648 32.38648-3.06817 1.53403-8.69313 4.26131-12.44313 6.13624l-6.81818 3.2387-.51131 49.26131c-.17051 27.27275 0 50.28416.51131 51.47739.34091 1.19315 1.70466 2.21597 2.89778 2.21597 3.5795-.17061 163.9772-161.25013 162.61368-163.4661-.85235-1.36352-16.36365-1.87506-52.15921-1.87506z" style="stroke-width:1.09091"/></svg>