<svg height="960" style="" width="1036" xmlns="http://www.w3.org/2000/svg"><path d="m753.88012-29.906002c-1.84072-.179287-3.52159-.156878-4.66906.560288-29.48346 19.443144-26.18998 58.637217-52.23104 82.797713-74.93579 14.885168-114.74841 71.931681-152.64661 138.452731l187.69558 105.83166c26.90167-36.177 63.79484-40.61097 102.96797-37.04109 3.29516.53558 6.70511.87156 10.14741.87156 24.51111 0 45.62065-14.47379 55.40598-35.73374 2.29113-4.42317 7.23852-7.61812 15.50122-15.87475-9.59408-67.66852-31.56671-129.45779-101.78515-149.347172-41.18122-10.869035-41.62994-37.579945-50.36342-65.055344-2.58179-8.032246 3.45285-17.761791-4.42003-24.901568-1.78495 0-3.76212-.380991-5.60285-.560288zm74.1444 162.731762h29.88188c.98813 5.41858 1.84072 24.49068 2.98819 30.06864-14.3114 8.31912-33.85813-6.19501-32.87007-30.06864zm-293.34045 83.54475c-5.45046 5.70546-15.28757 11.29038-16.43506 18.30266-4.87673 29.45159-30.90683 39.36639-50.9237 45.07184-14.31143 4.14362-28.58153 10.68625-42.89296 14.25613-80.95997 17.02075-146.46454 60.50834-204.37961 117.72218-14.31144 14.31143-23.50061 33.61561-36.79207 49.61636-34.1052 42.36059-55.36267 96.35962-57.21137 155.19904v.43578c-4.43048 78.37819-6.10087 157.33957-6.10087 236.00463v9.5871 127.43377h364.68347v-312.07892l50.05217-73.95764c3.72741 20.97463 11.69196 39.6242 22.90944 55.77952 2.70929 9.02033 2.88757 20.32216-2.11666 20.48153-.28686 5.60982-.49802 12.1709-.49802 18.80069 0 17.78569 1.19278 35.29995 3.42397 52.48005l-.249-2.05438c.70123 45.6117 19.99893 89.13018 12.69977 135.02875.19125 7.1079 1.62409 13.76807 4.04651 19.98351 5.10616 32.4079 24.91617 56.93886 38.59745 85.41239h107.139v-40.21604c-10.45469-37.7707-47.6128-27.324-65.36662-52.79132 8.15975-68.08289-11.6933-141.01211 11.76598-211.10306-7.13978-30.18468 9.55474-57.20887 12.26403-86.53296 2.64554-28.04912 13.58531-53.12849 30.25541-73.27286l-.18678.18678h-.0623c28.59098-31.17278 55.77205-60.18759 60.07505-104.52434 0-3.85676 5.4888-8.31016 5.04256-12.32628l-34.05287-79.93402c-72.38587-34.16893-134.16168-81.65874-205.68692-112.99089z" style="stroke-width:31.874"/></svg>