<svg height="960" style="" width="1462" xmlns="http://www.w3.org/2000/svg"><path d="m241.49606 741.38248c0-1.97845 2.09426-1.97845 4.07271-1.97845h2.09426v1.97845c0 1.97844-1.97845 0-1.97845 0zm6.16697 7.91139c0-1.97844-1.97845-1.97844-3.9557-1.97844 0 0-2.09426 0 0-1.97845a1.9786488 1.9786488 0 011.97845-1.97845s3.9557 3.9557 1.97844 5.93415zm35.95351-403.51818c-1.97845 0-1.97845 0-1.97845-1.97844 0-1.97845 0-2.09427 1.97845-2.09427 1.97844 0 1.97844 0 1.97844 2.09427a1.9786727 1.9786727 0 01-1.97844 1.97844zm227.70634 669.27231c0 1.9784 0 1.9784-2.09426 4.0727-1.97845 0-5.93415 1.9784-7.9114 0-1.97725-1.9785 0-4.0727 1.97845-4.0727a4.3094897 4.3094897 0 003.9545-3.9414l.001-.015c0-1.9784-1.97844-3.9557-5.93414-3.9557s-6.04996-4.0727-6.04996-8.02839c0-1.97845 0-1.97845-1.97845-3.9557l11.63546 5.93409a10.348752 10.348752 0 013.9557 8.0225v.01c2.09426 0 2.09426 1.9784 2.09426 5.9341zm-16.40665-65.85707c1.97844-2.09426 1.97844-4.07271 4.07271-4.07271 2.09426 0 1.97844 1.97845 1.97844 4.07271l-1.97844 1.97845c-4.07271-1.97845-2.09427 0-2.09427 1.97844 2.09427 0 2.09427 0 2.09427 1.97845 0 0 0 1.97844-2.09427 0-1.97844 0-1.97844-1.97845-1.97844-3.9557-1.97845 1.97845-1.97845 0 0-1.97845zm-1.97726-63.99442a1.9786488 1.9786488 0 011.97845 1.97844c-1.97845 1.97845-3.9557 0-1.97845-1.97844zm0-10.00566 1.97845 1.97844v4.07271c-1.97845 0-1.97845 0-1.97845-1.97844v-2.09427s-1.97848-1.97844-.00001-1.97844zm3.9557 59.92171c2.09427 0 2.09427 2.09427 2.09427 4.07271 0 0 0 1.97845-2.09427 0 0 0-1.97844 0 0-4.07271zm-1.97844-65.85705c1.97844-1.97845 1.97844 0 1.97844 0 2.09427 1.97845 2.09427 1.97845-1.97844 0 1.97845 1.97841-.00002 1.97841-.00002-.00001zm1.97844-8.02841c2.09427 0 2.09427 1.97845 2.09427 3.9557a2.0953616 2.0953616 0 01-2.09427 2.09426c0-4.07271-1.97844-4.07271 0-6.04996-1.97846-.00001-1.97846-1.97843.00001-.00001zm-1.97844-8.0284c0-1.97845 0-1.97845 1.97844-1.97845a1.9784458 1.9784458 0 110 3.95689 1.9786608 1.9786608 0 00-1.97844-1.97844zm479.84774 133.92418c-1.97845 0-1.97845-1.97844 0-4.07271zm43.98193-43.98191c-1.9785 0-1.9785 1.97845-3.9557 1.97845h-1.9785v-1.97845a6.8633206 6.8633206 0 011.9773-3.9545l.001-.001h1.9784c1.9785 1.97845 3.9557 1.97845 1.9785 3.9557zm137.8811-69.81275a7.1875612 7.1875612 0 00-5.0231-2.03576 7.3106858 7.3106858 0 00-.9481.0621l.037-.004c-2.0942 0-2.0942-1.97845 0-1.97845 0-1.97845 1.9785-1.97845 3.9557 0 1.9785 0 1.9785 1.97845 1.9785 3.9557zm-1.397-515.56842c-1.9784 0-1.9784 1.97844-3.9557 1.97844-4.0727 0-4.0727 1.97845 0 3.9557a16.518447 16.518447 0 00-5.004-.75938 16.890626 16.890626 0 00-5.1234.79162l.1194-.0334c-1.9785 0-1.9785 0-1.9785-1.97845v-.004a1.9786608 1.9786608 0 00-1.9784-1.97845q-.061 0-.1218.004h.01c-1.9785-1.97845-1.9785-1.97845-3.9557-1.97845-1.9773 0-1.9785 1.97845-1.9785 3.9557v23.9694c-1.9784 8.02841 1.9785 16.05681 0 23.9694a53.652753 53.652753 0 01.7415 9.01704 55.540646 55.540646 0 01-.788 9.34418l.045-.32715v5.93414c.05.78923.078 1.71219.078 2.64111a44.761794 44.761794 0 01-2.1444 13.73211l.088-.31641c-1.9785 1.97845 0 3.9557 0 5.93415 1.9784 1.97844 1.9784 1.97844 0 3.9557-1.9785 1.97725-1.9785 4.07271-4.0727 6.04996v1.97844h2.0942c1.9785 0 1.9785-1.97844 3.9557 0 1.9773 1.97845 0 1.97845 0 4.07271v3.9557c0 3.9557 1.9785 5.93414 1.9785 10.00685a16.518889 16.518889 0 00-.7594 5.00403 16.888776 16.888776 0 00.7916 5.12342l-.033-.1194c-1.9784-2.09426-1.9784-2.09426-3.9557-2.09426a1.9786608 1.9786608 0 00-1.9784-1.97845l-2.0943 1.97845c2.0943 2.09426-1.9784 6.04996 2.0943 8.0284 1.9784 0 0 1.97845-2.0943 3.9557s-1.9784-1.97845-1.9784-1.97845c-1.9785 1.97845 4.0727 4.07271 0 6.04996 1.9784 1.97845 1.9784 3.9557 6.0499 3.9557v1.97845h-1.9784c-2.0943 0-2.0943 0-2.0943 1.97844 0 1.97845 2.0943 2.09427 4.0727 2.09427a4.3094897 4.3094897 0 013.9545 3.94137l.001.0155v15.9398s0 2.09426-1.9784 2.09426c-3.9557 0-3.9557 1.97845-6.05 3.9557h2.0943c1.9784-1.97844 3.9557 0 3.9557 1.97845v6.04996c-1.9785 0-1.9785-2.09426-1.9785-2.09426s-1.9784-1.97845-1.9784 0v2.09426c1.9784 1.97844 1.9784 1.97844 0 3.9557 0 0-2.0943 1.97844 0 1.97844s1.9784 0 1.9784-1.97844a1.9786608 1.9786608 0 011.9785-1.97845c1.9784 0 0 1.97845 0 1.97845v25.94784a1.9786488 1.9786488 0 01-1.9785 1.97845c-1.9784 0-1.9784 0-1.9784-1.97845 0 0-2.0943-1.97844-2.0943 0-1.9784 0 0 1.97845 0 3.9557s0 2.09427 2.0943 0c2.0943-2.09426 3.9557 2.09427 3.9557 2.09427 0 1.97844 0 3.95569-1.9785 3.95569-1.9784 1.97845-1.9784 0-4.0727-1.97844 0 0 0-1.97845-1.9784 0v1.97844c0 1.97845 0 3.9557 4.0727 1.97845 1.9784 0 1.9784 0 1.9784 1.97845 0 6.04996 1.9785 10.00685 1.9785 16.05681v46.54183a37.142294 37.142294 0 01-4.0536 14.16911l.098-.20656s-2.0943 0-2.0943-1.97844h-2.5599v1.97844c1.9784 1.97845 1.9784 1.97845 0 3.9557 0 0-1.9784 0 0 1.97845 1.9784 4.07271 0 6.04996 0 10.00685 0 1.97844 0 4.07271 4.0727 1.97844 1.9785 0 1.9785 0 1.9785 2.09427 1.9784 5.93414 1.9784 11.63546 3.9556 15.9398v1.97845c-3.9556 1.97844-1.9784 3.95569-1.9784 6.04996 0 2.09426-1.9784 1.97844 0 3.95569v1.97845c-3.9557 1.97845-1.9784 6.04996 0 8.02841 0 1.97844-1.9784 1.97844-1.9784 3.95569 0 1.97726 0 1.97845-1.9785 1.97845-1.9784 0-2.0943 0-2.0943 2.09426v3.9557c2.0943 0 2.0943 1.97845 4.0728 3.9557 0 0 1.9784 1.97844 0 1.97844h-1.9785v-.004a1.9786608 1.9786608 0 00-1.9784-1.97844q-.061 0-.1218.004h.01c-1.9785 1.97844 0 4.07271 0 6.04996 2.0942 3.9557 0 5.93414 0 10.00685v1.97845c2.0942 1.97844 2.0942 0 2.0942 0h3.9557c1.9785 1.97844 0 1.97844 0 3.9557-3.9557 1.97844 0 6.04996 0 10.00685v1.97844h-1.9784c-4.0727-1.97844-4.0727 0-4.0727 1.97845v18.03407c0 1.97844 0 1.97844-1.9785 3.95569-1.9784 0-3.9557 1.97845-1.9784 4.07271v1.97845c-1.9785 3.9557 0 5.93414 0 10.00685a1.9786488 1.9786488 0 001.9784 1.97845 1.9784458 1.9784458 0 010 3.95689c-3.9557 1.97844-3.9557 1.97844 0 3.9557 0 0 1.9785 2.09426 0 2.09426-1.9784 1.97844 0 3.9557-1.9784 3.9557-1.9785 0-3.9557 0-3.9557 1.97844 0 1.97845-1.9785 3.9557-4.0727 6.04996a1.9786488 1.9786488 0 00-1.9785 1.97845h1.9785c2.0942-1.97845 4.0727-1.97845 2.0942 1.97844a1.9786488 1.9786488 0 001.9785 1.97845 1.9786488 1.9786488 0 011.9784-1.97845v1.97845c-1.9784 1.97845 0 10.00685 1.9785 10.00685 1.9784 0 1.9784 1.97845 3.9557 1.97845 4.0727 1.97845 8.0284 6.04996 11.6354 8.02841v.93131h-1.9784c-3.9557-1.97845-7.9114 0-11.6355-3.9557l-7.9114-7.67976a4.1897919 4.1897919 0 00-8.0212-.0286l-.01.0299c-1.9785 1.97844-4.0727 1.97844-6.05 3.95569h-1.9784c0 2.09427 0 2.09427-1.9785 4.07271 0-1.97844-1.9784-4.07271-1.9784-6.04996a1.9786488 1.9786488 0 00-1.9785-1.97844h-2.0942c-1.9785 3.95569-5.9342 3.95569-9.8899 1.97844l-2.0942-1.97844h-1.9785c-1.9784 0 0 1.97844 0 1.97844 1.9785 1.97845 1.9785 1.97845 1.9785 4.07271 2.0942 0 2.0942 1.97845 0 3.9557a2.7931787 2.7931787 0 01-3.9569 0c-1.9785-1.97845-3.9557 0-3.9557 1.97844a6.1562262 6.1562262 0 00-1.9761 3.92943v.0263c0 2.09426-2.0942 4.07271-4.0727 2.09426-1.9784 0-1.9784 0-1.9784 1.97845 1.9784 5.93414-3.9557 7.9114-5.9342 10.00685-1.9784 2.09546-6.0499 1.97845-6.0499 5.93415l-1.9785 1.97844c-1.9784 1.97845-3.9557 4.07271-3.9557 6.04996a4.4250085 4.4250085 0 01-4.0572 3.95451l-.015.001c-1.9784 0-3.9557 0-1.9784 3.9557v.11701a1.9786488 1.9786488 0 01-1.9785 1.97845l-6.0499 5.93414c0 1.97845 0 1.97845-1.9785 1.97845a1.9786488 1.9786488 0 00-1.9784 1.97844q0 .0609 0 .12179v-.006a10.220183 10.220183 0 01-3.9342 7.89468l-.023.0167c0 1.97845-2.0943 1.97845-2.0943 0-1.9784-1.97844-3.9557 0-5.9341 0-1.9785 0-1.9785 1.97845-3.9557 1.97845-1.9773 0 0 2.09426 0 2.09426 1.9784 1.97845 3.9557 1.97845 3.9557 3.9557a2.7931787 2.7931787 0 01-3.9569 0c-2.0943 0-2.0943 0-2.0943-1.97845v-1.97844h-1.9784c0 1.97844-3.9557 3.9557-1.9785 5.93414v1.97845c-1.9784 4.07271-1.9784 10.00685-5.93413 11.63546a24.62586 24.62586 0 01-9.8779 9.94237l-.12896.0633c-1.97844 1.97844-6.04996 3.95569-6.04996 8.0284a41.766723 41.766723 0 01-8.03557 11.64262l.007-.007c-1.97845 0-1.97845 1.97845-3.9557 1.97845v-6.04996c0-1.97845 0-1.97845 1.97844-1.97845 4.07271-1.97845 6.04997-3.9557 1.97845-7.9114a2.0953735 2.0953735 0 012.09426-2.09426 1.9786608 1.9786608 0 001.97845-1.97844v-1.97845c1.97845-1.97845 0-3.9557-1.97845-5.93414a10.470838 10.470838 0 00-8.01407-4.07271h-.0143c5.93414 0 3.95569-5.93415 3.95569-7.9114v-2.09426c4.07271-3.9557 4.07271-9.88984 8.02841-13.96255 1.97845-1.97845 1.97845-5.93415 3.9557-7.9114a6.9117967 6.9117967 0 01-.0645-.9528 7.0711947 7.0711947 0 012.15755-5.09477l.002-.002v-3.9557c0-2.09426-2.09427-6.04996-2.09427-8.0284v-11.63546c0-1.97845 2.09427-3.9557 2.09427-8.02841v-11.63546a11.166996 11.166996 0 01-.0752-1.31219 11.583496 11.583496 0 012.07755-6.63741l-.0251.0382v-6.04996c0-3.9557-1.97845-8.02841-1.97845-11.63546 0-1.97845-2.09426-3.9557-2.09426-6.04996 0-5.93415 2.09426-9.88984 2.09426-13.96255v-11.63546a42.032494 42.032494 0 00.74147-7.9711 43.359259 43.359259 0 00-.78565-8.24093l.0442.27223a65.945409 65.945409 0 00.74147-10.00686 68.443552 68.443552 0 00-.78923-10.38415l.0478.3785c.0549-1.28355.086-2.78917.086-4.30196a109.05591 109.05591 0 00-2.30321-22.35154l.12298.70565c0-3.9557-1.97845-6.04996 0-10.00685v-3.9557c-1.97845-4.07271 0-6.04996 0-10.00686v-6.04996a19.844254 19.844254 0 006.12279-14.35895c0-.597-.0263-1.19041-.0776-1.77427l.005.0752c0-1.97845 0-3.9557-1.97845-1.97845v-10.00685s1.97845 1.97844 1.97845 0v-1.97845c-1.97845 0-1.97845-4.07271-1.97845-6.04996a1.9786608 1.9786608 0 011.97845-1.97844 1.9814308 1.9814308 0 001.57846-1.93666 1.9561779 1.9561779 0 00-.0693-.51939l.004.0143v-15.9398c0-2.09426 0-2.09426-3.9557-2.09426-1.97844 0-4.07271-3.9557-4.07271-5.93415 0-1.97844-1.97844-6.04996 0-8.0284a8.7304744 8.7304744 0 00-.0191-10.03432l.0179.0275c0-3.95569 0-7.91139 4.07271-10.00685-4.07271 0-4.07271-1.97845-4.07271-5.93414v-6.04996c0-1.97845 2.09426-1.97845 2.09426-1.97845a1.9786488 1.9786488 0 001.97845-1.97845c0-1.97844 0-1.97844-1.97845-3.95569-2.09426 0-2.09426 0-2.09426 1.97844a1.9786608 1.9786608 0 01-1.97845 1.97845c-1.97844 0 0-1.97845 0-1.97845 0-3.9557 1.97845-6.04996 4.07271-10.00685v-1.97845a7.0815705 7.0815705 0 01-2.15874-5.09715 6.9485 6.9485 0 01.0693-.98982l-.004.0382a41.126134 41.126134 0 002.57544-14.46045c0-.3976-.006-.7952-.0167-1.18921l.001.0573v-10.00728c.0561-1.49129.0872-3.24049.0872-4.99924a144.05721 144.05721 0 00-2.31395-25.7783l.13134.874v-2.09427a88.989575 88.989575 0 00.78564-11.9841 92.62939 92.62939 0 00-.83818-12.45931l.0525.47401v-14.31119c0-1.97845 0-3.9557-1.97845-1.97845-1.97845 0-1.97845 0-1.97845-1.97845v-4.0727c-1.97844 0-1.97844 0-1.97844 2.09426v1.97844a1.9786608 1.9786608 0 01-1.97845 1.97845c-2.09426 0-2.09426-1.97845 0-1.97845 3.9557-1.97844 3.9557-6.04996 3.9557-10.00685 0-1.97844 1.97845-6.04996 1.97845-8.0284v-2.44291c1.97844-3.9557 0-8.02841 0-11.63546v-10.00685c1.97844-3.9557 0-8.02841 0-11.63546 0-1.97845-1.97845-1.97845 0-3.9557v-1.97845c-1.97845 0-1.97845-2.09426 0-4.07271a7.1875612 7.1875612 0 002.03575-5.02312 7.3083455 7.3083455 0 00-.0621-.94803l.004.037c-3.9557 0-1.97845-1.97845-1.97845-4.07271v-1.97844c-1.97844-1.97845-1.97844-1.97845 0-1.97845v-1.97845s0-1.97844-1.97844 0h-1.97845s-1.97845-1.97844 0-1.97844 1.97845 0 1.97845-1.97845c0-1.97844 0-2.09426-1.97845-4.07271l-1.97845-2.55992c1.97845-1.97844 1.97845 1.97845 3.9557 1.97845v-41.53901c0-2.09426 0-2.09426-1.97844-2.09426a42.646612 42.646612 0 00-8.02841-.74147 44.141754 44.141754 0 00-8.30303.78445l.27462-.0442c-1.97844 2.09426-5.93414 0-7.91139 0-6.04996-1.97845-11.63546 0-18.03407-3.9557-1.97844 1.97845 1.97845 1.97845 0 3.9557h-14.31139a11.94672 11.94672 0 01-1.2334.0621 12.278113 12.278113 0 01-6.83919-2.06799l.0454.0275a16.623208 16.623208 0 00-12.87721-6.10369 16.805447 16.805447 0 00-2.45485.18029l.0908-.0107h-337.4283c-.47999-.0454-1.03758-.0704-1.60114-.0704a18.188687 18.188687 0 00-8.50481 2.09665l.0991-.0478a11.534936 11.534936 0 01-6.61592 2.06322 11.719444 11.719444 0 01-1.4698-.0919l.0573.006c-5.93414 0-11.63546 1.97844-17.91944 1.97844v-1.97844c-1.97845 0-1.97845 1.97844-3.9557 1.97844a49.72546 49.72546 0 01-14.16672 2.01307q-.99758 0-1.98561-.0382l.0943.004h-4.53717a42.646708 42.646708 0 00-8.02841-.74147 44.142888 44.142888 0 00-8.30302.78445l.27462-.0442c-1.97845 0-1.97845 2.09427-1.97845 2.09427v39.56056c1.97845 0 1.97845-1.97845 4.07271-1.97845 1.97845 1.97845-2.09426 1.97845-2.09426 1.97845a2.7932623 2.7932623 0 000 3.95689 2.0953616 2.0953616 0 002.09426 2.09426h1.97845a1.9786727 1.9786727 0 01-1.97845 1.97845h-2.09426c0 1.97844 0 0 2.09426 0s0 1.97844 0 1.97844a2.639476 2.639476 0 000 3.9557s1.97845 1.97845 0 1.97845c-2.09426 2.09426-4.07271 4.0727-2.09426 6.04996 1.97844 1.97725 4.07271 3.95569 0 3.95569v1.97845c2.09426 0 2.09426 2.09426 0 2.09426-2.09427 0-1.97845 1.97845-1.97845 3.9557v8.02841a11.538208 11.538208 0 012.05248 6.59919 11.734261 11.734261 0 01-.08 1.36713l.005-.0549v6.04996c0 1.97845-1.97844 3.9557 0 3.9557 2.09427 4.07271 0 8.02841 0 11.63546 0 1.97845 2.09427 4.07271 2.09427 8.02841a1.9786608 1.9786608 0 001.97844 1.97844 1.9786608 1.9786608 0 011.97845 1.97845v1.97844h-1.97845a1.9786727 1.9786727 0 00-1.97844-1.97844c-2.09427 0 0 1.97844 0 1.97844 1.97844 2.09427 1.97844 4.07271-2.09427 4.07271a1.9786608 1.9786608 0 00-1.97844 1.97845v33.97625a22.700929 22.700929 0 01.60774 5.28103 23.176687 23.176687 0 01-2.64589 10.78773l.0609-.12776v16.7553c0 3.9557 1.97844 5.93414 0 9.88984a65.46423 65.46423 0 00-.74625 10.00685 67.981417 67.981417 0 00.79401 10.38416l-.0478-.3773v1.97844c-1.97845 4.07271 0 10.00685-1.97845 14.07837a146.89498 146.89498 0 00-2.06203 24.88639q0 2.64528.0895 5.27148l-.007-.25432a212.63292 212.63292 0 00-2.05964 29.97757q0 3.15214.0884 6.28279l-.007-.30686v65.97407c-.0513 1.18444-.0812 2.57305-.0812 3.96883a98.587688 98.587688 0 002.17426 20.64533l-.11581-.64476v15.9398c0 4.07271-1.97845 8.02841 1.97844 11.63546 0 0 1.97845 2.09426 0 2.09426-1.97844 0 0 1.97845 0 3.9557s1.97845 5.93414 0 8.02841v1.97844c3.9557 5.93415 1.97845 10.00686 1.97845 15.93981v1.97844c1.97844 0 1.97844 1.97845 1.97844 4.07271 1.97845 1.97845 1.97845 5.93414 4.07271 9.88984v2.09426s-2.09426 0-2.09426 1.97845c0 0 2.09426 0 2.09426 1.97845h1.97845a1.9786608 1.9786608 0 011.97844-1.97845v3.9557a1.9786608 1.9786608 0 01-1.97844 1.97844c-1.97845 0-4.07271 1.97845-4.07271 6.04997.004.13372.006.29014.006.44774a15.394147 15.394147 0 01-2.02501 7.65827l.0394-.0752v1.97845a1.9786608 1.9786608 0 01-1.97845-1.97845 6.9766424 6.9766424 0 00-1.97844-4.07271v-3.9557a1.9786608 1.9786608 0 00-1.97845-1.97844l-1.97844 1.97844c0 3.9557-2.09427 5.93415 0 10.00686v1.97844c-2.09427 1.97845 1.97844 3.9557 0 5.93415h3.95569v2.09426c-1.97844 1.97844-1.97844 1.97844 1.97845 1.97844 1.97845 0 1.97845 1.97845 3.9557 0 0 0 2.09426 0 2.09426 1.97845v1.97845s-2.09426 0-2.09426 1.97844l-1.97845 1.97845c1.97845 2.09426 1.97845 0 4.07271 0 0 2.09426 0 2.09426-2.09426 2.09426a1.9784458 1.9784458 0 100 3.95689h4.07271c0 1.97845 0 1.97845-1.97845 3.9557 0 1.97845-2.09426 0-2.09426 0s-1.97845-1.97845-1.97845 0a2.9104646 2.9104646 0 000 4.07271c1.97845 0 1.97845 0 0 1.97844 1.97845 1.97845 1.97845 3.9557 4.07271 5.93415v1.97844h-2.09426s-1.97845-1.97844-1.97845 0v4.07271h-1.97844s0-1.97844-1.97845 0a6.8400497 6.8400497 0 00-1.97367 3.91988l-.004.0358s0 1.97845 1.97844 0c3.9557-1.97844 1.97845 1.97845 3.9557 1.97845 0 2.09426-1.97844 2.09426-1.97844 0h-3.95928a1.9786608 1.9786608 0 00-1.97845 1.97844q0 .0609.004.12179v-.006c1.97845 1.97845 1.97845 3.9557 3.9557 5.93414 3.9557 1.97845 3.9557 6.04996 3.9557 10.00686v3.95569a54.906791 54.906791 0 012.05605 15.06461q0 1.56711-.0848 3.11393l.006-.14328c0 1.97845 2.09426 1.97845 4.07271 1.97845v-1.97845s-1.97845-1.97844 0-1.97844h3.9557a1.9786608 1.9786608 0 001.97844 1.97844v1.97845h-3.9557c0 1.97844 0 3.9557-3.95569 3.9557 0 0-2.09427 0-2.09427 1.97844a6.9138981 6.9138981 0 01.95281-.0645 7.0710395 7.0710395 0 015.09477 2.15754l.002.002v1.97845h-3.95569c-2.09427 0-4.07271 0-2.09427 3.95569 0 1.97845 2.09427 3.9557-1.97844 3.9557-1.97845 0-1.97845 6.04996 0 6.04996 4.07271 0 4.07271 3.9557 4.07271 6.04996 1.97844 0 0-2.09426 1.97844-2.09426h1.97845c0 2.09426 0 2.09426-1.97845 4.07271 0 1.97844-1.97844 0-1.97844 0a15.576243 15.576243 0 01-7.98901-7.92931l-.0394-.0991c-1.97845-1.97844-3.9557-3.9557-3.9557-6.04996s-2.09426-3.9557-4.07271-5.93414l-5.93414-6.04996a20.145044 20.145044 0 00-8.17049-9.48986l-.0896-.0513v-2.09426c0-3.9557-1.97845-7.9114-1.97845-13.96255 0-1.97845 0-3.9557-1.97844-3.9557v8.02841l1.97844 1.97844a1.9784458 1.9784458 0 01-3.95689 0c0-1.97844-2.09426-4.07271-4.07271-1.97844h-1.6298a6.9766902 6.9766902 0 00-1.97844-4.07271s-1.97845-3.9557 1.97844-1.97845a1.9786488 1.9786488 0 001.97845-1.97844c0-3.9557-3.9557-6.04997-8.02841-3.9557-1.97844 1.97844-1.97844 0-3.9557 0-1.97844-2.09427-1.97844-4.07271-3.95569-6.04996-1.97845-3.9557-6.04996-5.93415-6.04996-10.00686 0-1.97844-1.97845-1.97844-3.9557-1.97844s-3.9557 0-1.97845-3.9557a5.2296879 5.2296879 0 01-.75102.0525 5.3525139 5.3525139 0 01-5.35267-5.35267 5.2473351 5.2473351 0 01.0573-.77968l-.004.0287c0-1.97845-1.97845-1.97845-1.97845-3.9557-1.97844-1.97845-3.95569-4.07271-3.95569-6.04996-1.97845 0-4.07271-1.97845-6.04996-1.97845a10.954333 10.954333 0 01-5.93773-9.72746c0-.0979.001-.19581.004-.29252v.0143c0-1.97844 0-3.95569-1.97844-1.97844-2.09427 0-2.09427 0-4.07271-1.97845 0-1.97844-1.97845-3.9557-3.9557-6.04996a3.8396894 3.8396894 0 00-6.04399-.007l-.006.008c0 2.09427-1.97845 2.09427-1.97845 0 0-2.09426-1.97844-1.97844 0-3.95569l3.9557-3.9557s2.09426-1.97845 0-1.97845c0 0-1.97844-2.09426-1.97844 0-1.97845 3.9557-5.93415 1.97845-10.00686 1.97845-1.97844 0-3.95569 0-3.95569 3.9557 0 1.97844-1.97845 1.97844-3.9557 0l-8.02841-8.02841a3.7233587 3.7233587 0 00-5.92817 2.06919l-.005.0251v.004a1.9786608 1.9786608 0 01-1.97844 1.97844q-.0609 0-.12179-.004h.006s-1.97845 1.97845 0 1.97845h2.09426s0-1.97845 1.97845 0v1.51278c-1.97845 1.97845-1.97845 1.97845-4.07271 1.97845a7.1875135 7.1875135 0 01-2.03576-5.02313 7.3087634 7.3087634 0 01.0621-.94803l-.004.037s1.97844-1.97845 0-1.97845c0-2.09426 1.97844-6.04996 0-8.02841 0 0 0-4.07271 1.97844-4.07271 1.97845 0 2.09427-1.97844 2.09427-3.95569s-2.09427-1.97845-4.07271-3.9557h-1.97845c0-1.97845-1.97845-4.07271 0-6.04996s1.97845-1.97845 0-3.9557c-1.97845 0-3.9557-1.97844 0-3.9557v-2.09426a6.9524402 6.9524402 0 00.0573-.91102 7.1916208 7.1916208 0 00-2.03814-5.02432l.002.002a70.3428 70.3428 0 01-6.04996-27.87734v-.0466s2.09427-4.0727-1.97844-2.09426c-1.97845 0-1.97845 0 0-1.97844 1.97844-1.97845 0-3.9557 1.97844-5.93415 0-2.09426 0-4.07271-1.97844-4.07271-1.97845 0-1.97845-1.97844 0-3.9557 1.97844 0 1.97844-1.97844 4.07271 0 2.09426 1.97845 1.97844 1.97845 1.97844 0v-15.47533a1.9786608 1.9786608 0 00-1.97844 1.97844s-2.09427 1.97845-2.09427 0v-1.97844l4.07271-4.07271c1.97845-1.97845 1.97845-1.97845 0-3.9557a1.9786488 1.9786488 0 00-1.97844-1.97845c-2.09427 0-4.07271-4.07271-4.07271-6.04996s1.97844-3.9557 1.97844-5.93414a129.73327 129.73327 0 01-1.97844-21.94081v-.0513c-3.9557-4.07271 0-6.04996 0-10.00685a88.307972 88.307972 0 012.11695-10.62535l-.1397.61849c0-1.97844 0-1.97844 2.09426-1.97844 3.9557 0 5.93415-1.97845 3.9557-3.9557.0478-.49431.0752-1.06862.0752-1.64771a17.958688 17.958688 0 00-2.10023-8.45586l.0466.0979v-4.07271s1.97845-1.97844 0-1.97844h-4.0727a11.161252 11.161252 0 00.0752-1.3122 11.583448 11.583448 0 00-2.07755-6.63741l.0251.0382a75.420529 75.420529 0 01-2.90856-20.98203 78.033319 78.033319 0 01.49789-8.80928l-.0334.35342v-10.00685a52.955963 52.955963 0 00.74147-8.95972 54.778724 54.778724 0 00-.78803-9.2821l.0454.32238a83.171213 83.171213 0 012.11098-10.59072l-.13373.58506h1.97844c2.09427 0 2.09427 0 2.09427-1.97845 0 0 1.97844-2.09426 0-2.09426a2.0953616 2.0953616 0 00-2.09427 2.09426s-1.97844 1.97845-1.97844 0v-6.63143c0-1.97845 1.97844-3.9557 4.07271-1.97845h1.97844v-4.07271h-1.97844a2.792128 2.792128 0 01-4.07032.001l-.001-.001c0-1.97844-1.97844-1.97844 0-3.9557v-1.6298c-1.97844-8.0284 0-13.96255-1.97844-21.99095v-1.97845h1.97844s1.97845 1.97845 1.97845 0v-1.97844a1.9786488 1.9786488 0 00-1.97845-1.97845c-1.97844 0 0-2.09426 0-2.09426l1.97845-1.97845s0-1.97844-1.97845 0a1.9786488 1.9786488 0 00-1.97844 1.97845v-7.9114c0-1.97844 1.97844-4.07271 3.95569-1.97844h2.09427v-2.09427c0-1.97844-2.09427-1.97844-2.09427-1.97844-1.97844 0-1.97844 0-1.97844-1.97845v-16.28964c0-2.09426 0-4.07271 4.07271-4.07271a1.9784458 1.9784458 0 100-3.95689s-2.09427 0-2.09427-1.97845l2.09427-1.97844a7.6455768 7.6455768 0 002.0262-5.19626 7.5585228 7.5585228 0 00-.0513-.88952l.004.0358c0-1.97845 0-1.97845-1.97844-1.97845 0 0-2.09427 0 0-1.97845v-4.0727c1.97844 0 0 2.09426 1.97844 2.09426v-10.00685c-4.07271 1.97844-1.97844-1.97845-1.97844-1.97845 0-4.07271-2.09427-6.04996 0-10.00685a12.813822 12.813822 0 00-.0334-11.70591l.0334.0704a4.3089524 4.3089524 0 013.94137-4.07152l.0155-.001c-1.97845-1.97845-1.97845-3.9557-3.9557-5.93414v-1.97845a3.8396774 3.8396774 0 00.007-6.04399l-.008-.006a31.876858 31.876858 0 01-2.17426-11.68202q0-1.20355.0872-2.3868l-.006.10508v-26.2965a157.66801 157.66801 0 00.78803-15.99831 164.70412 164.70412 0 00-.84415-16.68843l.0573.68893v-10.00685c0-1.97845-1.97844-3.9557 0-8.02841v-1.97844c-3.9557-1.97845-1.97844-3.9557-1.97844-5.93415v-6.04959a6.951891 6.951891 0 01-.0573-.91101 7.1916686 7.1916686 0 012.03814-5.02433l-.002.002c2.09427-1.97844 4.07271-4.07271 2.09427-6.04996v-13.4965c0-1.97845 0-1.97845-2.09427-1.97845l-3.9557-4.53717v-3.9557c3.9557-1.97844 3.9557-5.93414 3.9557-10.00685v-11.63904a1.9786608 1.9786608 0 011.97845-1.97845q.0609 0 .12179.004h-.006c3.95569 0 0-1.97845 0-1.97845-2.09427 0-2.09427-8.02841 0-8.02841h1.97844a7.1875851 7.1875851 0 01-2.03576-5.02312 7.3081545 7.3081545 0 01.0621-.94803l-.004.037v-54.68606c0-1.97844 0-1.97844 1.97845-1.97844h3.95569c1.97845 0 3.9557-1.97845 1.97845-6.04996 0-1.97845 0-3.9557 1.97844-3.9557h100.41479c.7952.0513 1.72412.0812 2.66021.0812a43.82488 43.82488 0 0013.59122-2.1468l-.31044.0872h21.99096c8.02841 0 16.05681-1.97844 23.9694-1.97844a6.946709 6.946709 0 00.90983.0573 7.1927073 7.1927073 0 005.13894-2.15158l.001-.001a2.7932623 2.7932623 0 013.9569 0c1.97844 0 0 2.09426 0 4.07271 6.04996-1.97845 13.96255 1.97844 20.01251-1.97845h1.97844c1.97845 1.97845 3.9557 0 8.02841 0 1.97845 0 0-4.07271 1.97845-2.09426 1.97844 0 0 2.09426 1.97844 2.09426h40.02622a2.0953616 2.0953616 0 01-2.09427-2.09426c0-1.97845 2.09427 0 2.09427 0 1.97844 0 1.97844-1.97845 3.9557-1.97845h1.39577v1.97845c-1.97844 4.07271-1.97844 4.07271 1.97845 4.07271 6.04996 0 10.00685 1.97844 16.05681-1.97845h1.97845c1.97844 0 1.97844 1.97845 3.9557 0 0-2.09426 1.97844 1.97845 1.97844 0 0 0 0-2.09426 1.97845-2.09426h2.09426c1.97845 2.09426 5.93414 4.07271 7.9114 2.09426h212.34801c3.9557 0 5.93414 1.97845 7.91139-2.09426 1.97845 4.07271 6.04997 2.09426 8.02841 2.09426h79.93542c1.97845 0 1.97845 0 1.97845-2.09426s1.97844-1.97845 3.9557-1.97845a1.9786608 1.9786608 0 011.97844 1.97845v2.09426c2.09427 0 6.04996-2.09426 8.02841 0 1.97844 2.09427 6.04996 0 10.00685 1.97845h145.90909c1.9785 0 3.9557 3.9557 3.9557 5.93414-1.9784 4.07271 0 4.07271 1.9785 4.07271 1.9784 0 1.9784 1.97845 1.9784 3.9557v63.99562c0 1.97844-1.9784 3.95569-1.9784 5.93414s3.9557 1.97845 1.9784 3.9557v10.00685c0 1.97845 1.9785 6.04996 1.9785 8.02841v.004a1.9786608 1.9786608 0 001.9784 1.97845q.061 0 .1218-.004h-.01c3.9557 0 3.9557 3.9557 1.9784 3.9557-4.0727 4.07271-1.9784 8.02841-1.9784 11.63546v8.02841a7.4443771 7.4443771 0 001.9808 4.07509l1.9749 1.97487v-4.07271c0-1.97845 0-1.97845 1.9784-3.9557h3.9557c4.0728 1.97845 6.05 6.04996 10.0069 10.00685l1.9784 1.97845c2.0943 1.97844 2.0943 1.97844 4.0727 0 0-1.97845 1.9785-1.97845 3.9557 0 1.9773 1.97844 1.9785 1.97844 0 3.9557-1.9784 1.97725-1.9784 2.09426 0 4.07271 1.9785 1.97844 1.9785 0 3.9557 0l2.0943-1.97845c0-2.09426 1.9785-2.09426 3.9557 0 1.9773 2.09426 0 1.97845 0 1.97845-1.9784 1.97844 0 1.97844 0 3.95569 0 0 1.9785 1.97845 0 1.97845h-1.9781a41.723166 41.723166 0 00-10.0785 6.10847l.073-.0573zm-24.5509 143.81522c-1.9784 1.97845-1.9784 0-1.9784-1.97845a1.9786488 1.9786488 0 011.9784-1.97844c1.9785 0 0 1.97844 0 3.9557zm3.9557 175.81184c-1.9784 1.97844 0 6.04996-1.9784 8.0284a1.9786488 1.9786488 0 01-1.9785 1.97845c-1.9784 0-1.9784-1.97845-1.9784-3.9557s0-1.97844 1.9784-4.07271c1.9785-2.09426 3.9557 0 3.9557-1.97844zm-801.21802 4.07151c2.09426-2.09426 2.09426 0 2.09426 0a6.8636549 6.8636549 0 001.97725 3.95451l.001.001c0 1.97845 0 1.97845-1.97845 1.97845-1.97844 0-2.09426 0-2.09426-1.97845zm-1.97845-345.68834c1.97845-1.97844 1.97845 0 1.97845 0a1.9786727 1.9786727 0 01-1.97845 1.97845zm114.0275-167.90044a1.9786488 1.9786488 0 011.97844-1.97845h6.04996c-1.97844 0-1.97844 1.97845-4.07271 1.97845a2.676048 2.676048 0 01-3.9545.002l-.002-.002zm139.6255 28.04092c1.97844 0 3.9557-1.97845 6.04996-1.97845h1.97845c-4.07271 1.97844-6.04994 3.95565-8.0284 1.97844zm22.10797 1.97845c1.97844-1.97845 1.97844-1.97845 3.95569-1.97845h1.97845v1.97845c-1.97846-1.97846-1.97846 0-5.93414 0zm561.4118 679.27914a2.6760719 2.6760719 0 01-3.9545.002l-1.9797-1.97964c-2.0942 0-2.0942 0-2.0942-1.97845 0-1.97844 2.0942 0 2.0942 0h1.9785c1.9784 0 1.9784-1.97844 3.9557 0 1.9772 1.97845 0 1.97845 0 3.9557zm11.6354-533.36966c0-.0346 0-.0752 0-.11701a1.9786488 1.9786488 0 011.9785-1.97845c2.0943 0 2.0943 0 2.0943 2.09427a1.9252177 1.9252177 0 01-2.0943 1.97844 1.9786608 1.9786608 0 01-1.9785-1.97844zm159.8709 101.81056v4.07271c1.9784 1.97845 0 3.9557 0 5.93414 0 1.97845 1.9784 3.9557 0 6.04997 1.9784 3.95569-1.9785 5.93414-1.9785 10.00685 0 1.97844-1.9784 3.9557-4.0727 1.97844-1.9784 0-1.9784 0-1.9784 1.97845v39.9092a1.9786488 1.9786488 0 001.9784 1.97845c.035.002.075.004.117.004a1.9786488 1.9786488 0 001.9785-1.97844v-.004a6.9505537 6.9505537 0 01-.057-.91101 7.1917521 7.1917521 0 012.0382-5.02432v.002a1.9786488 1.9786488 0 011.9785-1.97844c1.9784 0 0 1.97844 0 1.97844v2.44291a5.5857604 5.5857604 0 01-3.3731 10.0379 5.3891575 5.3891575 0 01-.6089-.0334l.025.002c1.9784 1.97844 1.9784 1.97844 3.9557 0-1.9785 1.97844-1.9785 5.93414-6.05 3.95569-1.9785 0-1.9785 0-1.9785 1.97845 0 0 1.9785 2.09426 0 2.09426a10.023748 10.023748 0 00-1.9569 9.96029l-.022-.0693v16.05681a11.164154 11.164154 0 00-.075 1.3122 11.58358 11.58358 0 002.0775 6.6374l-.025-.0382c0 2.09426 1.9784 4.07271 0 6.04996a1.9786488 1.9786488 0 001.9784 1.97844c2.0943 0 2.0943 1.97845 0 1.97845-3.9557 4.07271-1.9784 10.00685-1.9784 16.05681 0 1.97845 0 1.97845 1.9784 1.97845s4.0727 1.97844 2.0943 5.93414c-2.0943 8.02841-8.0284 11.63546-11.6355 20.01251l-2.0943 1.97845c0 1.97845 0 1.97845 2.0943 1.97845s1.9785-1.97845 3.9557 0c0 2.09426 0 4.0727-1.9784 4.0727h-1.9785c0 1.97845 1.9785 0 1.9785 1.97845 1.9784 0 3.9557 0 3.9557 1.97845 0 1.97844-1.9785 3.95569-3.9557 1.97844 0 4.07271-4.0728 6.04996-6.05 8.02841-1.9773 1.97844-3.9557 5.93414-7.9114 10.00685-2.0943 1.97845-2.0943 1.97845-4.0727 0q-3.0256-6.16697-5.9342 0l-6.0499 5.93414c-1.9785 1.97845-1.9785 1.97845-3.9557 0h-1.9785c-2.0942 4.07271-6.0499 4.07271-8.0284 6.04997-1.9784 0-1.9784 1.97844-3.9557 3.95569v1.97845h1.9785c1.9784-1.97845 3.9557-1.97845 5.9341-3.9557h1.9785v1.97845c-1.9785 1.97844-3.9557 6.04996-7.9114 8.0284 0 0-1.9785 1.97845-1.9785 0v-3.95569s-2.0942 0-2.0942 1.97844v3.02558c0 1.97844 0 1.97844-1.9785 3.9557-1.9784 1.97725-3.9557 6.04996-10.0068 4.07271v1.97844c0 1.97845 0 1.97845-1.9785 1.97845a1.9786488 1.9786488 0 00-1.9784 1.97844 1.9786488 1.9786488 0 01-1.9785 1.97845c-1.9784 0 0-1.97845 0-1.97845s0-1.97844-1.9784 0c-1.9785 1.97845-4.0727 0-4.0727 1.97845s-1.9785 2.09426-1.9785 4.07271c-3.9557 1.97844-5.9341 5.93414-10.0068 10.00685-1.9785 1.97845-3.9557 3.9557-5.9342 3.9557-1.9784 0-1.9784 0-1.9784 1.97844l-11.6355 18.03407a74.27709 74.27709 0 00-7.8373 13.48615l-.191.4764h-1.9785a1.9786488 1.9786488 0 00-1.9784-1.97845s-2.0943 1.97845 0 1.97845c0 1.97845 0 1.97845-2.0943 3.9557-3.9557 1.97844-1.9784 8.0284-5.9341 10.00685-1.9785 1.97845-1.9785 3.9557-3.9557 3.9557l-2.0943 2.09426a4.3094658 4.3094658 0 01-3.9414 3.9545l-.015.001a1.9786488 1.9786488 0 01-1.9784 1.97844c0 1.97845 0 1.97845-1.9785 3.9557 0 0 0 2.09427-1.9784 2.09427a2.0953735 2.0953735 0 01-2.0943-2.09427c0-1.97844 0-1.97844 2.0943-1.97844 1.9784-1.97845 1.9784-1.97845 1.9784-3.9557-1.9784-3.9557-1.9784-8.02841-4.0727-10.00685v-1.97845a10.118395 10.118395 0 004.0727-8.02363v-.005c0-3.95569 1.9785-7.91139 1.9785-13.96255v-1.97844a28.215241 28.215241 0 003.9437-11.50293l.012-.13253c0-1.97845 1.9785-1.97845 1.9785-4.07271s2.0943-1.97845 0-3.9557c-1.9785 0-1.9785-1.97844-1.9785-3.9557v-21.87514c-.088-.98504-.1397-2.13008-.1397-3.28706a38.831519 38.831519 0 012.2006-12.92497l-.084.27223c2.0942-10.00685 2.0942-18.03406 4.0727-28.04211v-41.88765c.05-1.27638.079-2.77723.079-4.28285a116.9818 116.9818 0 00-2.1767-22.51751l.1206.7355c0-3.9557-2.0942-5.93414-2.0942-10.00685 0-5.93415-1.9785-9.88984-1.9785-13.96255v-1.97845a6.1669721 6.1669721 0 00-.01-8.03676l.01.008v-1.97845c1.9785-1.97845 0-5.93414 1.9785-10.00685-3.9557-1.97845 0-5.93415 0-7.9114v-11.6339c-1.9785 0-1.9785-2.09426-1.9785-4.07271 0-1.97844 0-1.97844 1.9785-1.97844a3.6071354 3.6071354 0 00.012-5.92579l-.012-.008c-1.9785-2.09426-3.9557-4.0727 0-6.04996v-16.28983a7.0684366 7.0684366 0 00.058-.9337 7.4209152 7.4209152 0 00-2.0394-5.11984v.004-13.72972c1.9785-1.97845 0-3.9557 0-6.04996v-7.9114a80.40552 80.40552 0 001.9235-9.53284l.056-.47282a7.5257358 7.5257358 0 00.048-.8537 7.651296 7.651296 0 00-2.0309-5.20223l.01.005v-11.63646a6.0486833 6.0486833 0 01.01-7.91975l-.01.008v-1.97844a3.8397013 3.8397013 0 01-.01-6.04399l.01-.006a29.273596 29.273596 0 002.1217-11.04085 29.870246 29.870246 0 00-.154-3.04707l.01.12537c-1.9785-11.63546 0-21.99096-1.9785-33.97626v-46.54183c0-3.9557-1.9784-8.02841-1.9784-11.63546v-1.97845c-3.9557 0-1.9785-1.97844-1.9785-4.07271a42.815813 42.815813 0 001.4674-11.25099 44.479128 44.479128 0 00-.3247-5.3658l.022.21134c0-3.9557-1.9785-8.02841-1.9785-11.63546v-8.02841c0-1.97845-1.9784-3.9557 0-5.93414v-1.97845c0-2.09426-1.9784-4.07271 0-6.04996 1.9785-1.97725-3.9557-3.9557-1.9784-5.93414 1.9772-1.97845 0-4.07271 1.9784-6.04996 0-1.97845 0-1.97845-3.9557-1.97845a10.252111 10.252111 0 002.4227-10.65877l.022.0716v-46.54142c0-1.97845 0-3.9557-4.0728-3.9557-4.0727 0-5.9341-1.97845-10.0068-1.97845-7.9114 0-13.9626-4.0727-19.8967-4.0727s-10.0069-3.9557-13.9626-3.9557c-2.0942 0-4.0727-1.97845-2.0942 1.97844 0 1.97845 0 1.97845-1.9785 0a102.33791 102.33791 0 01-24.6929-4.14076l.7235.18507c-3.9557-1.97845-10.0068 0-13.9625 0h-189.77872c-28.04211-1.97845-55.96602 0-84.00813 0h-47.93761c-.47879.0322-1.03877.0502-1.60353.0502a25.740285 25.740285 0 01-10.20028-2.09307l.16835.0645a6.9637115 6.9637115 0 00-5.04104-2.15158 7.1942118 7.1942118 0 00-.92773.0609l.0358-.004h-58.17729a6.9467687 6.9467687 0 00-.90982-.0573 7.1926118 7.1926118 0 00-5.13895 2.15158l-.001.001c4.07271 7.91139 1.97844 7.91139-1.97845 7.91139h-193.96428c-5.93414 0-11.63545 1.97845-17.91944 1.97845h-139.62519c-.68177-.0513-1.47816-.0812-2.28053-.0812a32.372568 32.372568 0 00-11.90171 2.25067l.21969-.0764a96.096565 96.096565 0 01-20.03997 2.05606q-2.07397 0-4.12644-.0848l.19581.006h-16.28964c1.97845 3.9557-1.97845 3.9557-3.9557 5.93414-1.97844 0-3.9557 1.97845-1.97844 4.07271v51.89331c0 1.97845 1.97844 3.9557 1.97844 6.04996-1.97844 0-1.97844 0-1.97844 1.97845s-1.97845 3.9557 1.97844 5.93414v1.97845c-1.97844 0-1.97844 0-1.97844 2.09426v23.96941c1.97844 5.93414-1.97845 10.00685 0 15.9398 0 3.95569 1.97844 8.0284 1.97844 11.63546v1.97844c-3.9557 0-1.97844 1.97845-1.97844 4.07271 0 5.93414-1.97845 11.63546-1.97845 17.91944v31.99781c.0549 1.28354.086 2.78917.086 4.30196a109.05875 109.05875 0 01-2.30321 22.35154l.12298-.70565v3.9557c0 4.07271-1.97845 8.0284 0 11.63546-.031.46565-.0489 1.00653-.0489 1.55338a24.692353 24.692353 0 002.2065 10.23729l-.0633-.15521c1.97844 1.97844 0 3.95569 0 5.93414 0 0-2.09426 1.97844 0 1.97844a6.1669721 6.1669721 0 01-.007 8.03677l.007-.008c0 1.97845-2.09426 3.9557 0 5.93414 2.09426 1.97845 0 4.07271 0 6.04997a50.116935 50.116935 0 00-.78445 8.95972 51.920879 51.920879 0 00.83101 9.27374l-.0478-.31522v21.99096a61.939564 61.939564 0 00-.78922 10.00685 64.174228 64.174228 0 00.83937 10.37461l-.0502-.36895v13.96255c0 1.97845 1.97845 4.07271 0 6.04996-1.97844 1.97725 0 5.93415 0 7.9114s-2.09426 6.04996 1.97845 8.0284v1.97845c-4.07271 0-1.97845 2.09426-1.97845 2.09426v3.9557c0 1.97845 0 3.9557 3.9557 1.97845h3.9557v1.97844c-1.97845 1.97845-1.97845 4.07271-3.9557 1.97845-1.97845 0-1.97845 2.09426-1.97845 4.07271 0 1.97844 0 3.9557 1.97845 3.9557s1.97845 0 1.97845-1.97845 1.97844-1.97845 3.95569 0v1.97845c-1.97844 0-1.97844 3.95569-5.93414 3.95569-10.00685 0-10.00685 2.09427-10.00685 2.09427 0 1.97844-1.97845 5.93414-1.97845 7.91139v6.04996a42.034321 42.034321 0 00-.74147 7.9711 43.360142 43.360142 0 00.78565 8.24094l-.0442-.27224v31.99781c0 1.97845 1.97845 3.9557 1.97845 5.93415 0 4.07271 1.97844 8.0284 0 11.63546v16.05681c-1.97845 5.93414 0 11.63546-1.97845 17.91944a7.3360462 7.3360462 0 001.98083 6.05235l-.002-.002v11.63546c0 8.02841 1.97845 15.9398 1.97845 25.94785v6.04996c0 1.97845 0 1.97845-1.97845 1.97845-1.97844 0-1.97844 1.97844 0 3.95569 1.97845 1.97726 1.97845 6.04996 3.9557 8.02841a157.64763 157.64763 0 006.46428 16.97022l-.41312-1.02922c1.97844 1.97844 0 6.04996 0 8.0284-1.97845 8.02841-1.97845 13.96255-3.9557 21.99096 0 1.97845 0 1.97845 1.97844 1.97845 1.97845 0 3.9557 0 1.97845 3.95569v10.82116h-1.97845c-1.97844 0-1.97844-1.97845-1.97844-3.9557-2.09426-4.07271-2.09426-6.04996-4.07271-10.00685 0-1.97845-3.9557-1.97845-5.93414-4.07271a33.644325 33.644325 0 01-8.17527-9.72029l-.0872-.17075-1.97845-2.09426a1.9786608 1.9786608 0 01-1.97844-1.97844c0-1.97845-1.97845-5.93415-1.97845-7.9114v-2.09426c1.97845-1.97845 0-3.9557-2.09426-5.93415-2.09427-1.97844-3.9557-3.95569-5.93415-3.95569-1.97844 0-1.97844-2.09427-1.97844-2.09427-2.09426-1.97844-4.07271-1.97844-8.02841-1.97844h-1.74442a7.1874538 7.1874538 0 01-2.03576-5.02313 7.3087634 7.3087634 0 01.0621-.94803l-.004.037c-2.09426-4.07271-6.04996-6.04996-8.02841-10.00685 0-1.97844-1.97844-1.97844-3.95569-1.97844a2.0953616 2.0953616 0 01-2.09426-2.09427 1.9786369 1.9786369 0 00-1.97845-1.97844c-1.97845 0-3.9557-1.97845-3.9557-5.93415 0-1.97844 0-6.04996-3.9557-6.04996 0 0-2.09426 0-2.09426-1.97844 0-3.9557-3.9557-5.93415-7.91139-8.02841-1.97845 0 0-1.97845 0-1.97845v-1.97844h-1.97845s-2.09426 1.97844-2.09426 0v-12.44976s-1.97845-1.97845-1.97845 0c-1.97845 0 0 1.97844 0 1.97844v1.97845c-1.97845 0-1.97845 0-1.97845-1.97845-1.97844-1.97844-1.97844-5.93414-6.04996-7.91139 0 0-1.97844-2.09427 0-2.09427 0 0 2.09427-1.97844 2.09427 0 1.97844 2.09427 3.95569 2.09427 5.93414 4.07271h1.97845v-1.97844c.002-.0346.004-.0752.004-.11701a1.9786608 1.9786608 0 00-1.97845-1.97845h-.004a10.341899 10.341899 0 00-7.85647-3.60825c-.0609 0-.12179.001-.18149.002h.01c-1.97844-3.9557-3.9557-1.97844-5.93414 0 0 0-1.97845 1.97845-1.97845 0-1.97844-1.97844-1.97844-1.97844-4.07271 0-2.09426 1.97845-3.95569 1.97845-3.95569 0a1.9779324 1.9779324 0 00-1.38265-1.85785l-.0143-.004-2.55992 1.86143c0 1.97845-1.97844 3.9557-1.97844 6.04996a2.0953616 2.0953616 0 01-2.09427-2.09426c0-1.97845 0-1.97845-3.95569-3.9557-1.97845 0-1.97845-1.97844 0-3.9557a1.9786608 1.9786608 0 001.97844 1.97845v-4.07271a9.2112236 9.2112236 0 00-8.506-5.70848 9.3996595 9.3996595 0 00-1.55458.13015l.0549-.008c2.09426 0 2.09426-1.97845 4.07271-1.97845v-1.97844c0-2.09427-1.97845 0-1.97845 0h-2.09426v-2.09427c0-1.97844 0-1.97844-1.97845-3.95569-1.97844-1.97726-5.93414-1.97845-7.91139-5.93415 0-2.09426 0-4.07271 1.97844-4.07271h3.9557a1.9784458 1.9784458 0 100-3.95689c-1.97844 0-1.97844 0-1.97844-1.97844 0 0-1.97845-1.97845 0-1.97845h1.97844c1.97845 0 3.9557 0 3.9557-2.09426 0-2.09427-1.97845-3.9557 2.09426-3.9557-2.09426-1.97845 0-3.9557 1.97845-5.93414 1.97844-1.97845 1.97844-2.09427 3.9557 0 0 0 1.97844 1.97844 1.97844 0 0-1.97845 0-2.09427-1.97844-2.09427a1.9786488 1.9786488 0 01-1.97845-1.97844c0-1.97845-1.97845-1.97845-1.97845 0-1.97844 1.97844-1.97844 0-4.0727 0 0 0 2.09426 0 2.09426-1.97845 1.97844 0 1.97844-1.97844 0-1.97844-2.09426-1.97845-2.09426-3.9557 0-3.9557 0 0 1.97844-2.09427 0-2.09427h-2.09426c-1.97845 2.09427-3.9557 4.07271-5.93415 4.07271v-1.97844s1.97845-2.09427 0-2.09427h-.004a1.9786488 1.9786488 0 00-1.97844 1.97845q0 .0609.004.12179v-.006a1.9786608 1.9786608 0 01-1.97845 1.97844c-2.09426 0 0-1.97844-2.09426-1.97844 0-2.09427-1.97845-2.09427-1.97845-4.07271 0-1.97845 0-1.97845 1.97845-1.97845 1.97844 0 2.09426-1.97844 0-1.97844-3.9557-1.97845-1.97845-4.07271-3.9557-6.04996l1.97845-1.97845s1.97844-1.97845 0-1.97845a1.8728133 1.8728133 0 00.0179-.26745 1.9773354 1.9773354 0 00-2.35814-1.94143l.0131-.002c-3.9557 1.97845-3.9557 0-5.93414-1.97845v-2.09426h4.30553c1.97845 0 5.93415 4.07271 8.02841-1.97844a6.1676646 6.1676646 0 003.95212-1.97248l.004-.005c-1.97845 0-3.9557 0-3.9557 1.97845a7.1770899 7.1770899 0 01-1.27399.11104 7.3048471 7.3048471 0 01-5.12581-2.09068l.001.001c-1.97845-1.97844-1.97845-1.97844-3.9557-1.97844 1.97845-3.9557 0-8.02841 1.97845-11.63546v-22.57363c0-1.97844-1.97845-3.95569 0-5.93414 0 0-1.97845-2.09426-1.97845 0-4.07271 0-4.07271-2.09426-4.07271-4.07271h4.42136c-6.04996-1.6298-6.04996-5.70131-4.07271-9.77402v-3.49124a6.9636637 6.9636637 0 012.15157 5.04104 7.1920745 7.1920745 0 01-.0609.92773l.004-.0358v2.09427l1.97845 1.97844v-44.91323c0-1.97844 0-1.97844-1.97845-1.97844-1.97844 0-2.09426 0-2.09426-1.97845 0-1.97844 0-4.07271 2.09426-4.07271a1.9786608 1.9786608 0 001.97845-1.97844c0-1.97845 0-1.97845-1.97845-1.97845-1.97844 0-2.09426 0-2.09426-1.97844v-13.96231c0-4.0727 2.09426-6.04996 0-10.00685v-1.97844c4.07271 0 2.09426-2.09427 2.09426-2.09427 0-3.95569-2.09426-7.91139 0-11.63546v-1.97844c0-1.97845-2.09426-1.97845 0-3.9557 1.97845 0 0-1.97844 0-1.97844-2.09426-1.97845-4.07271-4.07271 0-4.07271 1.97845 0 0-1.97845 0-1.97845a6.7348828 6.7348828 0 01-2.08949-3.91749l-.005-.0382v-1.97844c2.09427 0 2.09427-1.97845 4.07271-4.07271v-1.97845c-1.97844 0-1.97844-1.97844 0-3.9557 1.97845-1.97725 0-4.0727 1.97845-4.0727a1.9786608 1.9786608 0 00-1.97837-1.97845c-1.97844 0-1.97844-1.97845 0-1.97845 0 0 1.97845-1.97844 0-1.97844-4.07271-3.9557 0-8.02841-4.07271-11.63546v-4.18853s2.09427-2.09426 0-2.09426c-1.97844-1.97845 0-1.97845 0-1.97845 2.09427 0 2.09427-1.97844 0-3.95569v-1.97845c2.09427-1.97845 0-4.07271 0-8.02841a1.9786608 1.9786608 0 00-1.97844 1.97845h-1.97845a4.3094658 4.3094658 0 013.94137-3.9545l.0155-.001c2.09426 0 2.09426 0 2.09426-1.97844v-6.04996h-2.09426c-1.97844 0 0 1.97844 0 1.97844-3.9557 0-3.9557-4.18853-3.9557-5.93414v-11.63546c0-1.97845 0-4.07271 3.9557-1.97845 2.09426 1.97845 4.07271-2.09426 2.09426-2.09426v-38.28179h-4.0727v-2.44291a1.9786608 1.9786608 0 001.97844-1.97845c2.09426-1.97844 2.09426-1.97844 0-3.9557 0 0-1.97844 0 0-2.09426 0-1.97844 0-3.9557 2.09426-3.9557 2.09427 0 1.97845-1.97844 1.97845-3.95569 0-1.97726 0-4.07271-4.07271-6.04996v-1.27996c4.07271-1.97845 2.09426-3.9557 2.09426-6.04997a40.714505 40.714505 0 01-2.18023-13.27839q0-1.40413.0919-2.78678l-.007.12537v-20.24555c-.0525-1.07459-.0824-2.33425-.0824-3.60108a78.947129 78.947129 0 012.29008-18.93075l-.11223.54088v-37.93196c0-1.97845 0-3.9557 1.97844-3.9557 1.97845 0 1.97845 0 0-1.97845v-1.97844s-1.97844-2.09426 0-2.09426c1.97845 0 1.97845 0 1.97845 2.09426a1.9786488 1.9786488 0 001.97844 1.97844h-.34864v-1.97844a29.776529 29.776529 0 01-3.78735-14.62641 30.407853 30.407853 0 01.19343-3.43034l-.0131.13731v-1.97845c-1.97845-4.07271 0-8.0284 0-11.63546v-22.456611c0-1.978446 1.97845-1.978446 0-3.955698v-2.094263c3.60705-1.978446 1.97845-1.978446 0-4.421355s0-3.955697 0-5.934143 3.9557 0 1.97845-2.094263c0-1.512789-1.97845-1.512789-1.97845-3.607052a1.9786608 1.9786608 0 011.97845-1.978446 1.9786488 1.9786488 0 01-1.97845-1.978446c0-2.094263 0-2.094263 1.97845-2.094263 1.97844 0 1.6298.117011 1.6298-1.861434 0-1.978446 0 0-1.97845 0a1.9786488 1.9786488 0 01-1.97937-1.978446v-35.953507c0-3.955698 0-3.955698 3.9557-3.955698 1.97845 0 1.97845-1.978446 1.97845-4.072709 0 2.094263 1.97844 2.094263 4.07271 0 6.28398-1.978446 10.23968-4.305538 16.28964-5.934144h5.93414c.68297.04776 1.48055.07522 2.28411.07522a34.838652 34.838652 0 0012.03545-2.130083l-.24238.07761c3.95569-1.978445 7.91139 0 11.63545 0a41.636136 41.636136 0 007.9114.736694 42.956573 42.956573 0 008.18124-.780871l-.26865.04418h1.97844c4.07271 3.955698 8.02841 1.978446 11.63546 0a49.077791 49.077791 0 0014.87596-8.104822l-.0991.07522h557.45487c2.09427 0 4.07271 1.978446 6.04996 1.978446 5.67863.471627 12.29096.741469 18.96538.741469s13.28675-.268648 19.82625-.797587l-.86087.05612a42.64543 42.64543 0 018.02841-.74147 44.141909 44.141909 0 018.30302.784453l-.27461-.04418c3.95569 0 5.93414 1.978445 9.88984 0h55.96602a94.326985 94.326985 0 0111.9841-.74147 98.096049 98.096049 0 0112.46767.792811l-.48357-.05134h71.90703c10.0068 0 18.5009-1.978446 28.0421-1.978446h191.7528a37.698647 37.698647 0 0114.2909 4.055993l-.2125-.0991h3.9557a105.67352 105.67352 0 0021.6447 2.180231q2.2692 0 4.5181-.09313l-.215.0072h20.0125a21.318285 21.318285 0 009.0816 1.997549q.4871 0 .9695-.02149l-.045.0024h11.6355c1.9784 0 3.9557 3.955698 3.9557 7.911396v38.04777c0 1.978446 0 3.955698-1.9785 1.978446h-1.9784a1.9786608 1.9786608 0 001.9784 1.978446c1.9785 0 3.9557-1.978446 3.9557 1.978446a7.5228344 7.5228344 0 01.048.853704 7.651296 7.651296 0 01-2.031 5.202226v-.0048c-1.9785 1.978446-1.9785 1.978446 0 1.978446 1.9784 0 1.9784 5.934144 0 5.934144-1.9785 2.094263-3.9557 4.072709 0 4.072709 0 0 1.9784 1.978446 0 1.978446-1.9785 0-1.9785 1.978446 0 1.978446 1.9784 0 1.9784 1.978445 1.9784 3.955697v8.028407a21.714858 21.714858 0 00-1.4865 7.971092 22.045057 22.045057 0 001.5391 8.12035l-.051-.14925v2.09426c-1.9784 3.9557 0 9.88984-1.9784 13.96255 0 1.97845-1.9785 3.9557-1.9785 5.93414 0 0 0 2.09427-1.9784 2.09427l-1.9785 1.97844v1.97845h1.9785v-1.97845a1.9786608 1.9786608 0 011.9784-1.97844c1.9785 0 0 1.97844 0 1.97844-1.9784 1.97845-1.9784 3.9557 1.9785 3.9557a1.9786608 1.9786608 0 011.9784 1.97845v40.02621c1.9785 5.93415 0 9.88985 1.9785 15.93981a88.989575 88.989575 0 01.7856 11.98411 92.62742 92.62742 0 01-.8382 12.45931l.053-.47402c.049.68416.076 1.48175.076 2.28531a34.149898 34.149898 0 01-2.1313 11.91365l.076-.2376c-1.9784 1.97845-3.9557 4.07271 1.9785 6.04996 2.0942 0 0 1.97845 0 1.97845 8.0284 17.91944 8.0284 20.01251 8.0284 25.94784 1.9784 0 0-1.97844 1.9784-1.97844 1.9785 0 1.9785 1.97844 1.9785 3.9557 0 0 0 2.09426-1.9785 0-1.9784-2.09427-1.9784 0-1.9784 2.09426 0 3.9557-1.9785 9.88984 0 13.96255v1.97845a12.813929 12.813929 0 00.033 11.7059l-.033-.0704v1.97845a42.031981 42.031981 0 00-.7415 7.9711 43.360011 43.360011 0 00.7856 8.24093l-.044-.27223c0 2.09427 1.9784 2.09427 3.9557 2.09427 2.0942-2.09427 2.0942 0 4.0727 1.97844v15.9398c0 1.97845-1.9785 1.97845-4.0727 1.97845v-1.97845c0-1.97844 0-1.97844-1.9785-1.97844a1.9786608 1.9786608 0 00-1.9784 1.97844v6.04996c0 1.97845 0 1.97845 1.9784 0 1.9785 0 6.05 1.97845 6.05 3.9557s0 1.97845-1.9785 0l-2.0942-1.97844c-1.9785 1.97844-1.9785 3.95569 0 8.0284v1.97845s-1.9785 1.97844 0 1.97844c2.0942 1.97845 2.0942 0 4.0727 0h1.9784c0 3.9557 1.9785 8.02841-1.9784 11.63546a2.7932742 2.7932742 0 000 3.95689c0 1.97845 0 1.97845-1.9785 1.97845a2.0953735 2.0953735 0 00-2.0942 2.09426v1.97845c2.0942 0 2.0942 0 2.0942-1.97845 0 0 0-2.09426 1.9785-2.09426 1.9784 0 0 2.09426 0 2.09426v1.97845c0 1.97845 1.9784 5.93414-4.0727 1.97845a1.9786608 1.9786608 0 00-1.9785 1.97844c0 1.97845 1.9785 6.04996 4.0727 6.04996-2.0942 1.97845-2.0942 3.9557-4.0727 3.9557-1.9784 1.97845 0 1.97845 0 3.9557s0 2.09426 1.9785 2.09426h2.0942c0 1.97845 0 1.97845-2.0942 1.97845h-1.9785l-1.9784 1.97844c0 1.97845 1.9784 0 1.9784 0 1.9785 0 4.0727 3.9557 4.0727 5.93415v16.05681a36.050937 36.050937 0 013.9808 16.58336q0 .70389-.028 1.40175v-.0669zm-1196.47501 159.521c0 1.97845 3.9557 1.97845 1.97845 6.04996a2.7932384 2.7932384 0 01-3.9569 0c-1.97844-4.07268 0-6.04994 1.97845-6.04994zm1190.77361-325.79283c-3.9557 0-3.9557 0-3.9557-1.97845 1.9785-.00002 3.9557-.00002 3.9557 1.97845z" style="stroke-width:1.19399"/></svg>