<svg height="960" style="" width="1333" xmlns="http://www.w3.org/2000/svg"><path d="m616.55999.275378c-96.1008-3.2444-192.65682 22.18968-275.62379 75.758202-190.56068 123.05692-267.272264 356.74643-192.52986 566.05246 74.50339 208.55485 287.51731 347.19026 522.70491 312.63595 108.13576-15.87721 200.43112-63.90472 275.89055-142.8469 83.5858-87.44416 127.0977-192.55974 133.2437-313.63628 51.729-16.11622 90.9835-47.8605 114.3042-97.16522 23.4573-49.54373 24.3835-100.45375 2.6675-150.78282-39.2662-91.06349-145.4178-135.92781-242.01272-93.96417v.0667c-92.26708-100.333752-215.08626-151.946552-338.64449-156.117922zm-17.87252 21.07358c128.12705-.35645 251.85601 52.985392 336.04364 145.581122-35.81762 29.46674-75.2263 34.74633-117.83868 17.60578l-.7336-.26676c-6.24842-2.59498-12.21572-5.82111-17.40569-9.26971-48.8267-31.48126-102.04578-51.05462-159.85248-56.55189-109.4674-10.31165-205.53732 21.29392-286.49403 95.83145-55.38244 50.90951-91.12377 113.74667-107.03513 187.32815-17.84621 82.69808-8.44081 162.09195 28.27595 238.21154l.93364 2.06735c16.5601 33.63237 38.33952 64.20184 64.22108 90.62971 54.01666 55.51903 118.95264 91.48552 195.19741 104.76775 112.19896 19.59896 213.14569-6.79426 300.96545-79.69285 56.09948-46.6073 93.7086-105.86139 114.57091-175.8577 10.61899-35.57861 34.29608-59.06152 69.08936-71.49013 13.7261-4.91682 27.7857-7.14529 38.7461-6.73556-2.834 160.24033-115.83327 359.52122-337.97765 419.13759-225.83199 60.6748-455.29984-56.02908-542.77815-267.5545-22.47212-54.04753-34.9448-113.28435-34.9448-175.4576 0-168.67403 91.26302-316.01731 229.27525-396.53014 72.44618-41.997782 150.8652-61.539732 227.74142-61.753602zm1.80058 171.789722c160.10375.23901 287.06971 129.99679 286.69412 287.02753v.26677c0 158.15751-128.2373 286.36067-286.36067 286.36067h-.0667c-161.70855.0683-287.43408-131.0473-287.16093-287.361.30731-158.02093 128.66837-286.46469 286.89416-286.29397zm428.94075 14.73817c61.5627-1.12677 115.6396 49.24443 115.5713 114.90437v.0667c0 63.50881-51.5289 115.03773-115.0377 115.03773-63.5089 0-114.9711-51.52892-114.9711-115.03773 0-63.304 51.16771-114.62964 114.4375-114.97109zm-491.62797 104.90111c-9.62876 0-12.00396 2.43707-12.00396 12.2707v67.88894c0 1.98038.19688 4.00078.33345 6.86892h36.07849l-36.41194 35.21156c0 27.34977-.10243 54.02465 0 80.75983 0 6.55575 3.07676 9.53646 9.80324 9.53646 27.20179.0911 54.40218.0911 81.62679 0 6.58989 0 9.52206-2.91403 10.13666-9.46978.17072-1.80966.0667-3.65879.0667-5.46845.0341-14.20413.27476-28.37733-.0667-42.54731v-.73356c0-7.88739 2.18098-15.29515 5.86859-21.40702 6.07773-10.6531 15.01291-16.20852 27.47567-16.07194 14.20413.13658 28.37732 0 42.5473 0 9.90192-.0341 12.07065-2.16712 12.07065-12.13733v-92.63041c-.0341-9.69705-2.47282-12.07061-12.20401-12.07061zm26.20859 225.27393c-.58046 2.04867-1.73389 4.28193-1.73389 6.53547-.13658 17.5503-.13658 35.1109 0 52.68397v.13337c.27315 2.18525.75169 4.25898 1.40044 6.06868h25.87517c.6357-2.29397 1.1393-4.69013 1.40044-7.26907.13658-16.8674.13658-33.74921 0-50.61662-.0342-2.49255-1.08675-5.0091-1.66721-7.5358zm36.34526 0c-.58046 2.04867-1.73389 4.28193-1.73389 6.53547-.13658 17.5503-.13658 35.1109 0 52.68397v.13337c.27315 2.18525.81837 4.25898 1.46715 6.06868h25.87514c.63564-2.29383 1.07262-4.6903 1.33376-7.26907.13661-16.8674.13658-33.74921 0-50.61662-.0341-2.49255-1.08675-5.0091-1.66721-7.5358zm-73.15734.13337c-.64431 2.27659-1.0704 4.66821-1.33379 7.26907-.13657 17.09501-.13657 34.16571 0 51.28349.0341 2.28769.98753 4.57964 1.53384 6.93561h25.74181c.71703-2.62913 1.53541-4.75196 1.46712-6.86892.13658-17.31129.17072-34.67167 0-52.01706-.0341-2.25357-1.38446-4.51937-2.06735-6.60219z" style="stroke-width:34.1445"/></svg>