<svg height="960" style="" width="1291" xmlns="http://www.w3.org/2000/svg"><path d="m631.63915-27.074165-167.76094 74.12692a23.262911 23.262911 0 00-13.86087 21.27827v42.430345a23.264186 23.264186 0 0013.86057 21.27897l36.89516 16.30471a6.252226 6.252226 0 01-.28671 11.55569l-149.97448 57.56757a22.048457 22.048457 0 00-14.14727 20.58411v72.73775c0 8.36914 6.22968 17.8409 13.91438 21.15574 20.68979 8.92465 41.37958 17.84932 62.06936 26.77397 7.6847 3.31484 7.58046 8.4334-.23282 11.43259-56.90343 21.84299-113.80687 43.68595-170.71031 65.52894-7.8133 2.99919-14.14722 12.21509-14.14722 20.58424v100.01439c0 8.36915 6.26361 17.76083 13.99018 20.97687 21.44824 8.9275 42.89648 17.855 64.34472 26.78249 7.72656 3.21604 7.65625 8.25449-.15705 11.25368-57.20729 21.95941-114.41458 43.91884-171.62187 65.87824-7.8133 2.99919-14.14723 12.21507-14.14723 20.58421v124.26031c0 8.36914 6.29176 17.69215 14.05304 20.82351 165.90906 66.93737 331.81814 133.87475 497.72721 200.81215 7.76127 3.1313 20.34477 3.1313 28.10604 0 165.90907-66.9374 331.81816-133.87478 497.72716-200.81215 7.7614-3.13136 14.0531-12.45437 14.0531-20.82351v-124.26031c0-8.36914-6.3339-17.58502-14.1473-20.58421-57.2072-21.9594-114.4145-43.91883-171.62182-65.87824-7.81327-2.99919-7.88359-8.03764-.15699-11.25368 21.44831-8.92749 42.89651-17.85499 64.34471-26.78249 7.7265-3.21604 13.9901-12.60772 13.9901-20.97687v-100.01439c0-8.36915-6.3339-17.58505-14.1472-20.58424-56.90341-21.84299-113.80684-43.68595-170.71028-65.52894-7.8133-2.99919-7.91753-8.11775-.23276-11.43259 20.6898-8.92465 41.3796-17.84932 62.06939-26.77397 7.68459-3.31484 13.91428-12.7866 13.91428-21.15574v-72.73775a22.048457 22.048457 0 00-14.14728-20.58411l-149.97447-57.56757a6.252226 6.252226 0 01-.28671-11.55569l36.89516-16.30471a23.264186 23.264186 0 0013.86057-21.27897v-42.430345a23.262911 23.262911 0 00-13.86087-21.27827l-167.76094-74.12692a34.295206 34.295206 0 00-27.72174 0zm-87.41683 194.612745 87.41692 38.62775a34.293718 34.293718 0 0027.72156 0l87.41692-38.62775c7.6551-3.38264 20.19466-3.69336 28.00791-.69402 52.40279 20.11632 104.80554 40.23264 157.20833 60.34896 7.81324 2.99934 7.91747 8.11809.23276 11.43304-90.93749 39.22796-181.87497 78.45597-272.81245 117.68392-7.68466 3.31496-20.14396 3.31496-27.82862 0-90.93748-39.22795-181.87496-78.45596-272.81245-117.68392-7.68465-3.31495-7.58041-8.4337.23282-11.43304 52.40277-20.11632 104.80553-40.23264 157.20832-60.34896 7.81325-2.99934 20.35281-2.68862 28.00791.69402zm-80.1546 213.49139c55.83937 24.08802 111.67868 48.17606 167.51805 72.26407 7.68463 3.31502 20.14387 3.31502 27.8285 0 55.83937-24.08801 111.67868-48.17605 167.51805-72.26407 7.68462-3.31502 20.24819-3.57103 28.06146-.57184 59.43298 22.8138 118.86599 45.62757 178.29902 68.44137 7.8132 2.99919 7.8835 8.03755.1569 11.25349l-373.95939 155.64847a36.40812 36.40812 0 01-27.98052 0l-373.95946-155.64847c-7.72661-3.21594-7.65633-8.2543.15696-11.25349 59.43299-22.8138 118.86597-45.62757 178.29896-68.44137 7.81328-2.99919 20.37684-2.74318 28.06147.57184zm-98.03243 248.16393c88.49154 36.83352 176.98304 73.66709 265.47456 110.50061 7.72657 3.21606 20.2538 3.21613 27.98037.00009 88.49346-36.83358 176.98693-73.66721 265.48039-110.50079 7.72657-3.21604 20.32411-3.39173 28.13736-.39245 60.18083 23.10175 120.36173 46.20347 180.54253 69.30522 7.8134 2.99928 7.8568 7.97221.097 11.10736-158.06576 63.86258-316.13148 127.72523-474.1972 191.58782-7.75976 3.13515-20.34078 3.13515-28.10053 0-158.06574-63.86259-316.13146-127.72524-474.19718-191.58782-7.75975-3.13515-7.71635-8.10802.0969-11.10724 60.1828-23.10181 120.3656-46.20365 180.5484-69.30546 7.81328-2.99922 20.41081-2.82341 28.13736.39266z" style="stroke-width:3.03074"/></svg>