<svg height="960" style="" width="1320" xmlns="http://www.w3.org/2000/svg"><path d="m915.2345 285.11096c-7.7688 11.748-23.875 35.4335-35.6229 52.6765-19.8958 29.37-59.8769 88.4889-120.1327 178.1146-14.4007 21.4117-27.4751 40.36-28.991 42.2549-1.8948 2.2738-2.2738 3.9791-.9474 5.3055 1.1369 1.1369 6.0635-.7579 14.9692-5.874 7.2004-4.1686 14.0218-7.5793 15.3482-7.5793 3.2212 0 3.0317 6.2529-.5685 24.0644-5.874 29.37-9.0952 39.7916-19.3273 60.2558-22.738 46.234-33.5386 68.5931-36.7598 77.6883-3.6002 10.2321-4.7371 36.0019-1.7054 37.8967 1.1369.5685 11.369-18.3799 22.9275-42.0653 41.6864-85.2677 43.2023-88.1099 63.4771-111.6059 11.5585-13.4533 19.7063-21.6011 21.6011-21.2222 2.2738.379 3.6002 4.3581 4.9266 15.1587 1.1369 7.9583 2.4633 14.9692 3.0317 15.5377 2.0843 2.0843 6.6319-5.4951 10.0427-16.8641 1.8948-6.2529 4.5476-14.4007 6.0634-18.0009 1.3264-3.6002 7.7689-22.9275 14.0218-42.6338 6.4425-19.8958 13.8323-42.0654 16.4851-49.2658 2.4633-7.3899 5.3055-15.9166 6.253-18.9484 1.5158-5.495 3.6001-11.9374 8.7162-25.5803 2.2738-6.6319 52.2975-158.2188 54.7608-166.3666.7579-3.0317.3789-4.1686-1.5159-4.1686-1.5159 0-9.2847 9.6636-17.0535 21.2221zm-73.8986 169.7774c-1.3264 3.2212-5.874 13.0744-8.1478 18.3799-1.3264 3.0317-4.5476 10.4216-7.0109 16.1061-2.6528 5.6845-10.8006 24.4434-18.001 41.6864-7.3898 17.243-15.7271 35.8124-18.3799 41.118-4.9266 10.4216-17.0535 25.2013-20.4642 25.2013-1.1369 0-1.5159-3.7897-.758-10.2321.9475-9.4742 8.1478-25.7698 22.3591-50.0237 1.8948-3.4107 7.9583-14.4008 13.4533-24.6329 5.4951-10.0426 11.748-21.7906 14.2113-25.9592 2.2738-4.1687 5.1161-9.2847 6.253-11.3691 1.1369-2.0843 3.6002-6.4424 5.6845-9.4741 2.0843-3.2213 4.5476-7.5794 5.6845-10.0427.9474-2.4633 2.8423-3.7897 3.7897-3.2212 1.1369.7579 1.7053 1.7053 1.3264 2.4633zm-455.1398-186.8309c2.8423 9.2847 52.487 160.1137 54.7608 166.3666 4.7371 12.6955 7.2004 19.8958 8.7162 25.5803.9475 3.0318 3.7897 11.5585 6.253 18.9484 2.6528 7.2004 10.0426 29.37 16.4851 49.2658 6.2529 19.7063 12.6954 39.0336 14.0218 42.6338 1.5158 3.6002 4.1686 11.748 6.0634 18.0009 3.4108 11.369 7.9584 18.9484 10.0427 16.8641.5684-.5685 2.0843-7.5794 3.0317-15.5377 1.3264-10.8006 2.6528-14.7797 4.9266-15.1587 1.8948-.3789 10.0426 7.7689 21.6011 21.2222 20.2748 23.496 21.7907 26.3382 63.4771 111.6059 11.5585 23.6854 21.7906 42.6338 22.9275 42.0653 3.0317-1.8948 1.8948-27.6646-1.7054-37.8967-1.8948-5.3055-13.2638-29.5594-25.2013-54.0028-12.5059-25.3908-23.117-49.8342-24.8224-56.8451-8.9057-36.1914-10.99-51.1606-7.2003-51.1606 1.3263 0 8.5267 3.4107 16.2956 7.5793 8.9057 5.1161 14.2112 7.0109 14.9692 5.6845.7579-1.1369 0-3.6002-1.5159-5.3055-1.5159-1.7054-14.4008-20.6537-28.8015-42.0654-44.1497-65.5613-86.4046-128.2804-107.4373-159.1662-10.8005-16.1062-29.5594-43.5813-41.3074-61.2033-11.748-17.4325-22.5485-31.6437-24.0644-31.6437-1.8948 0-2.2738 1.3263-1.5159 4.1686zm97.5841 187.5888c1.1369 2.4633 3.6002 6.8214 5.6845 10.0427 2.0843 3.0317 4.5476 7.3898 5.6845 9.4741 1.1369 2.0844 3.9792 7.2004 6.253 11.3691 2.4633 4.1686 8.7162 15.9166 14.2113 25.9592 5.495 10.2321 11.5585 21.2222 13.4533 24.6329 14.2113 24.2539 21.4116 40.5495 22.3591 50.0237.7579 6.4424.3789 10.2321-.758 10.2321-3.7896 0-15.7271-15.1587-21.2221-26.9067-5.874-12.8849-5.874-12.6954-21.9801-49.8342-5.874-13.6428-12.3165-28.4225-14.4008-33.1596s-4.9266-11.1796-6.253-14.2113c-1.5158-3.2212-3.9791-8.7162-5.495-12.3164-2.6528-5.874-2.6528-9.4742-.1895-9.4742.379 0 1.7054 1.8948 2.6528 4.1686zm106.4898-512.742805c-33.3491 7.200401-60.8242 19.706301-87.1625 39.223201-10.0426 7.3898-19.3273 18.37989962-15.7271 18.37989962 1.1369 0 2.0843-.9474 2.0843-1.89490002 0-1.1369.7579-1.8948 1.8948-1.8948.9475 0 9.2847-3.6002 18.38-8.1477996 18.5694-8.9057 25.5803-11.748 39.4126-15.7271 11.9374-3.4107 46.234-8.3373 58.7399-8.3373 14.7797 0 48.5078 5.116 56.4661 8.3373 6.0635 2.6527 7.0109 3.9791 7.0109 9.4741 0 10.8005996-3.0317 11.9374996-39.7915 14.2112996-32.7807 1.8949-42.2549 3.22120002-70.109 8.9058-35.0545 7.2003004-84.3202 24.2539004-115.585 39.7915034-14.0218 7.0109-14.2113 7.0109-41.118 7.5794-26.3382.7579-36.1914 2.2738-63.098 10.8005-50.4027 16.1061-97.9631 57.413601-123.1644 107.437301-10.2321 20.4642-15.5377 36.7598-19.8958 62.5296-2.4633 14.5902-3.7897 40.36-1.5159 31.2648.5685-2.0843 2.6528-7.3899 4.5476-11.748 1.8949-4.3581 3.6002-9.2847 3.6002-10.9901 0-1.7053 2.6528-9.6636 6.0635-17.6219 17.0535-41.118 45.6656-75.7935 82.2359-99.8579 14.0218-9.2847 19.3273-10.4216 24.0644-5.1161 6.4425 7.2004 4.1687 12.3165-14.9692 33.9176-26.5277 29.5594-45.855 55.8977-61.9611 83.9412-9.2847 16.2956-25.7698 50.2132-30.6964 63.4771-8.7162 23.3065-9.8531 26.3382-11.5585 31.6437-.9474 2.8423-8.5267 12.127-16.864 20.8432-31.0753 32.0228-48.5078 63.6666-57.7925 105.7319-5.1161 22.5486-5.1161 70.109-.1895 92.847 4.1686 18.1904 12.8849 43.2023 18.7589 53.0554 2.0843 3.6002 5.6845 10.0427 7.9583 14.2113 8.3372 15.1587 30.3174 40.1705 30.3174 34.2966 0-1.7054-.758-3.0318-1.8949-3.0318-.9474 0-1.8948-.7579-1.8948-1.8948 0-.9474-3.6002-9.2847-8.1478-18.3799-8.9057-18.5694-11.748-25.5803-15.7272-39.4126-3.4107-11.9375-8.3372-46.234-8.3372-58.74 0-14.7797 5.116-48.5078 8.3372-56.4661 2.6528-6.0635 3.9792-7.0109 9.4742-7.0109 10.8006 0 11.9375 3.0317 14.2113 39.7916 1.8948 32.7806 3.2212 42.2548 8.9057 70.1089 7.2004 34.4861 22.1696 78.4463 39.0337 113.6902l7.7688 16.1061.5684 26.5277c.758 41.118 11.5585 76.362 33.5386 110.469 11.3691 17.622 14.5903 21.6011 32.4018 38.8442 32.0227 31.2648 68.4036 49.2657 114.827 57.22403 14.5903 2.4633 40.3601 3.7897 31.2649 1.5159-2.0844-.5685-7.3899-2.6528-11.748-4.54763-4.3582-1.8948-9.2847-3.6002-10.9901-3.6002-5.3055 0-34.107-12.6954-47.7499-21.0327-18.0009-10.99-34.486-24.4434-48.1288-39.2231-14.0218-15.3482-30.1279-39.4126-30.1279-44.9076 0-6.4425 6.8214-11.369 14.5902-10.6111 1.1369 0 11.369 8.3373 22.7381 18.3799 45.855 40.9285 94.7418 71.8143 143.0601 90.7627 9.6637 3.7896 20.4643 7.9583 23.875 9.4742 3.4107 1.5158 7.9583 2.84223 10.0426 2.84223 2.4633 0 10.99 6.8214 21.2222 16.6746 33.9175 32.5912 64.8034 49.64471 107.4372 59.11891 22.5486 5.116 70.109 5.116 92.847.1895 18.1904-4.1687 43.2023-12.8849 53.0554-18.75891 3.6002-2.0843 10.0426-5.6845 14.0218-7.9583 16.4851-8.9058 39.9811-30.3174 33.3491-30.3174-.9474 0-1.8948.7579-1.8948 1.8948 0 .9474-.7579 1.8948-1.8948 1.8948-.9475 0-9.2847 3.6002-18.38 8.1478-18.5694 8.9058-25.5803 11.748-39.4126 15.7272-11.9374 3.4107-46.234 8.3373-58.7399 8.3373-14.7797 0-48.5078-5.1161-56.2766-8.3373-6.253-2.6528-7.2004-3.9792-7.2004-9.4742 0-10.8006 3.0317-11.9375 39.7915-14.2113 32.7807-1.8948 42.2549-3.2212 70.109-8.9057 35.244-7.3899 76.1724-21.22223 109.9005-37.13883l19.7063-9.4742 27.0962-.7579c26.5277-.758 36.3808-2.4633 63.098-10.8006 57.2241-18.1904 111.0375-70.1089 132.0701-127.1435 7.5794-20.8432 13.8324-52.108 13.6429-68.4036l-.1895-9.4742-1.8948 6.6319c-.9475 3.6002-2.4633 7.3899-3.4108 8.5268-.7579.9474-3.2212 8.3373-5.6845 16.1061-8.9057 30.1279-26.7172 58.9294-52.108 84.5097-17.622 17.8115-44.1497 36.7598-51.1606 36.7598-2.2738 0-5.495-1.5158-7.2003-3.4107-6.4425-7.2003-4.1687-12.3164 14.9692-33.9175 26.5277-29.5595 45.855-55.8977 61.9611-83.9413 9.2847-16.2956 25.7698-50.2132 30.6964-63.477 8.7162-23.3065 9.8531-26.3382 11.5585-31.6438.9474-2.8422 8.5267-12.1269 16.864-20.8432 31.0753-32.0227 48.5078-63.6665 57.7925-105.7319 5.1161-22.5485 5.1161-70.1089.1895-92.847-4.1686-18.1904-12.8849-43.2022-18.7589-53.0554-2.0843-3.6002-5.6845-10.0426-7.9583-14.2113-7.9583-14.4007-27.4751-36.7598-29.9384-34.2965-.5684.7579-.379 1.8948.5685 2.6528 4.3581 3.0317 21.2221 41.1179 26.7172 60.0663 3.4107 11.9375 8.3372 46.234 8.3372 58.7399 0 14.7797-5.116 48.5078-8.3372 56.2767-2.6528 6.4424-3.7897 7.2003-9.6637 7.2003-10.4216 0-11.748-3.9791-14.0218-40.7389-1.8948-31.8333-3.2212-41.497-8.9057-69.1616-7.0109-34.2965-24.4434-84.6992-39.6021-115.206-6.6319-13.4534-6.8214-14.2113-7.5794-40.9285-1.1369-42.6338-11.369-75.983-34.107-111.2269-10.9901-16.864101-14.4008-21.032701-32.0228-38.275701-32.0227-31.2648-68.4036-49.265803-114.827-57.224103-14.5903-2.4633-40.3601-3.7896-31.2649-1.5158 2.0844.5684 7.3899 2.6527 11.748 4.5476 4.3582 1.8948 9.0953 3.6002 10.6111 3.6002 5.1161 0 32.4017 11.9374 46.613 20.274703 18.7589 10.9901 35.4334 24.4434 49.6447 39.9811 14.0218 15.348101 30.1279 39.412601 30.1279 44.907601 0 6.4424-6.8214 11.369-14.5902 10.6111-1.1369 0-11.369-8.3373-22.7381-18.3799-53.4344-47.749901-108.1951-80.151601-170.9142-101.184304-10.4216-3.4107-14.9692-6.6319-28.991-20.0853004-33.5386-31.8331996-63.6665-48.1287996-105.7319-57.6030006-19.8958-4.5476-71.6248-4.9266-90.5732-.758zm26.1488 100.994804c0 2.0844-7.0109 6.632-22.7381 14.9692-16.864 9.0953-53.0554 33.3492-71.2458 47.939401-32.5912 26.3382-65.5614 62.9086-77.6883 86.594-2.6528 5.3056 1.7053 4.7371 5.495-.5684 13.0744-17.8115 49.6447-52.108 74.2776-69.351 9.8531-6.8214 38.4652-24.443401 39.7916-24.443401.3789 0 4.9265-2.4633 9.8531-5.3056 9.6637-5.6845 46.0445-21.4116 67.8352-29.3699 32.2122-11.748 46.6129-14.9692 73.5196-16.1061 22.9275-.9475 51.3501 2.6527 65.7508 8.1478 3.6002 1.5158 21.2222 8.1478 38.8442 14.9692 28.8015 11.1795 47.7499 19.7063 58.7399 26.3382 64.8034 39.412601 111.4164 83.183301 147.6078 138.702001 17.622 26.9067 20.2747 32.0228 27.6646 49.2658.9474 2.0843 3.4107 7.5793 5.3055 12.3164 18.001 40.9285 24.254 58.5505 29.37 80.5306 17.622 78.0672 15.9166 152.1553-5.495 221.6958-5.6845 18.001-22.3591 57.7926-23.6855 56.4662-.7579-.9474-1.7053-20.2748-2.2738-43.2023-.5684-22.9275-1.8948-47.7499-3.0317-54.9503-3.2212-19.7063-7.5794-40.5495-10.6111-50.4026-1.5159-4.9266-2.8423-10.2321-2.8423-11.9375 0-1.5158-1.1369-5.6845-2.6527-9.0952-1.5159-3.4107-4.1687-10.0426-5.874-14.7797-5.1161-13.6428-16.6746-36.0019-18.5694-36.0019-.9474 0-1.1369 1.5159-.379 3.2212 3.6002 8.7163 14.7797 49.0763 18.5694 66.8877 3.6002 17.622 3.9792 25.9593 3.9792 72.0038 0 53.0555-.9474 64.614-9.6637 107.0583-8.7162 44.1497-26.1487 75.9829-59.8768 109.5215-25.0119 25.2014-51.5396 45.4761-87.5415 67.0773-3.7897 2.2738-17.622 8.9057-24.6329 11.9374-2.0843.9474-8.5267 3.7897-14.2112 6.253-44.9077 19.8958-49.0763 21.0327-69.1616 21.0327-16.6745-.1895-20.2747-.758-29.7489-5.4951-6.0635-2.8422-14.7797-8.5267-19.3273-12.5059-9.0952-8.1478-20.8432-24.6328-22.5486-32.0227-.5684-2.6528-3.7897-14.5903-7.0109-26.5277-15.5376-58.5505-20.6537-108.3847-22.1696-217.9062-1.1369-91.8996-1.1369-90.5732 8.7163-127.9015 6.4424-24.0644 8.7162-26.1487 16.4851-13.8323 6.2529 9.8532 12.1269 16.6746 14.4007 16.6746s1.8949-11.9375-1.3264-30.1279c-1.5158-8.9058-3.9791-25.9593-5.6845-37.7073-3.4107-25.9592-7.5793-55.3292-11.369-81.8569-1.5159-10.9901-3.9792-29.749-5.495-41.6864-4.9266-37.5178-14.2113-106.3004-17.243-126.9541-1.5159-10.99-3.4107-24.6329-4.1687-30.3174-1.1369-7.3898-2.2738-10.4216-4.3581-10.4216s-3.2212 3.0318-4.3581 10.4216c-1.3264 10.6111-6.0635 43.9602-7.9583 57.7926-.5685 4.1686-3.9792 29.7489-7.5794 56.845-3.7897 27.0962-7.9583 58.5505-9.6637 70.109-1.5158 11.369-3.6001 26.7172-4.5476 34.1071-.7579 7.2003-2.2738 18.7588-3.4107 25.5803-1.1369 6.8214-3.4107 22.5485-4.9265 35.0544-1.7054 12.506-4.3582 30.1279-5.874 39.0337-3.2213 18.0009-3.6002 30.1279-1.3264 30.1279 2.0843 0 7.5793-6.4425 14.2113-16.6746 8.5267-13.0744 10.2321-10.9901 18.7588 22.3591l7.5794 29.3699-1.1369 88.1099c-.758 70.2985-1.7054 94.7419-4.7371 121.2696-6.253 54.1923-13.6428 92.089-23.6855 122.0275-10.0426 29.7489-41.8759 52.2974-73.5196 52.2974-11.1796 0-17.8115-1.3263-32.0228-6.4424-66.6982-24.0644-120.701-57.7925-168.6404-105.3529-22.7381-22.7381-43.9602-48.3183-43.0128-52.108.5684-3.0318.7579-3.0318 21.7906 9.6636 12.127 7.3899 48.6973 26.3383 63.0981 32.5912 3.6002 1.5159 8.1478 3.6002 9.8531 4.3582 1.7054.9474 9.2847 3.7896 16.8641 6.4424 37.3282 12.8849 76.9303 20.4642 96.4471 18.0009 6.8215-.7579 9.8532-1.5158 6.8215-1.7053-7.7689-.379-42.8233-9.0952-62.7191-15.5377-69.351-22.738-165.0403-90.9521-197.063-140.0284-13.4534-21.0327-21.4117-40.36-28.0436-69.1615-10.8006-47.5604-14.2113-88.6784-10.9901-130.1753 4.1687-53.0554 10.4216-78.6357 33.9176-137.9441 14.9692-37.8967 16.4851-40.9285 35.6229-71.0564 16.4851-25.9592 34.6755-48.3183 60.2558-73.8986 29.5595-29.37 52.487-47.1814 91.1417-70.487901 3.7897-2.2738 17.4325-8.9057 24.6329-11.9375 2.0843-.9474 7.5793-3.4107 12.3164-5.3055 37.7072-16.4851 65.3719-26.9067 71.2458-26.9067 1.8949 0 7.5794-1.3264 12.8849-2.8423 23.117-6.6319 54.1924-10.611 54.1924-6.8214zm46.234 303.742301c.7579 3.4107 2.0843 31.4543 3.2212 62.1507.9474 30.6963 2.0843 57.224 2.2738 58.7399s-.7579 8.1478-2.0843 14.5902c-1.8949 9.4742-3.2212 11.9375-5.874 11.9375-2.8423 0-4.1687-2.8422-6.6319-13.4533-1.7054-7.3899-2.6528-14.0218-2.0844-14.9692.379-.758 1.7054-27.0962 2.8423-58.5505 1.8948-56.0871 2.6528-66.5087 5.6845-66.5087.7579 0 1.8948 2.8422 2.6528 6.0634z" style=""/></svg>