<svg height="960" style="" width="1180" xmlns="http://www.w3.org/2000/svg"><path d="m555.54763 0c-.76581.76582-1.50221 1.61182-2.17857 2.55202v.0623l-.0622.0622c-.54643 1.17501-.96822 2.37966-1.30712 3.79691v.18674c-2.45392 12.14215-13.17493 21.22536-26.0182 21.22536h-.68468-2.98774-.80919c-6.21448 0-12.35526-.32666-17.67741-.99591-15.42467-1.2429-30.76072-2.96682-46.1854-3.85916-4.65289.12748-9.09217 1.14381-12.8846 2.801-5.51337 2.23084-10.85394 5.0911-16.49478 6.97138l-.24898.0623c-5.29028 1.21102-10.17323 3.44734-14.31622 6.41118l-.12449.0622c-10.29374 7.39365-16.99274 19.5363-16.99274 33.1763 0 8.73215 2.69344 16.77812 7.2826 23.27943l.0623.0622c1.05168 1.21103 2.17756 2.24877 3.54793 3.23671 1.05168-2.93196 1.78716-4.96362 2.55202-6.97138v-.12448c1.72094-6.21449 7.46585-10.7683 14.25399-10.7683 2.83635 0 5.48896.77781 7.65607 2.11632l.18673.0622c3.53748 1.6572 6.69154 3.97867 9.33668 6.84689v.0622c3.47374 4.68477 9.03389 7.71832 15.31211 7.71832 2.64514 0 5.17775-.50742 7.34486-1.43163h-.37348c5.00996-1.4814 10.28947-2.30304 15.81011-2.30304h.24899 1.12039.0622c3.98365.19122 7.59184 1.83945 10.33259 4.35711 7.26617 7.1387 12.92543 15.91118 16.49478 26.20492.70424 1.6924 1.12039 3.60566 1.12039 5.53976v.0622c0 2.26271-.53779 4.37753-1.49387 6.1622-4.65289 9.08272-8.77794 18.51449-12.69785 27.94777l-.0622.12449c-2.26271 7.13869-8.93433 12.3244-16.80601 12.3244h-.0622-7.9673c1.30664 5.5771 7.71234 8.83871 15.93459 8.83871 6.4057-.22308 12.84725-1.1692 18.42436-1.74284-4.00337 7.09255-8.70765 14.26147-12.38665 22.03454v.0622l-.12448.18674c-2.51024 5.48044-3.92141 11.55265-3.92141 17.98864 0 6.53319 1.43561 12.73024 3.92141 17.98866.4041.93255 1.72326 1.56285 2.61425 2.30304.65425-.81814 1.21036-1.70426 1.68059-2.73876.60552-2.64514.78975-5.51037 1.61835-8.09178v-.43571l.12451-.37346c.92421-2.39019 1.9983-4.68577 3.04998-6.59792l1.49387.5602-.0622.93367c-1.11543 30.62627-4.87997 60.61615-10.45707 86.27082-2.51767-3.05944-4.32127-4.96362-5.85099-6.97138-3.98365-5.22654-7.49225-11.08449-11.82646-16.18356-11.85533-14.5642-28.73155-18.3163-45.74968-21.59882-22.05346-4.68477-44.23539-8.00663-66.35259-11.63972h-3.04998l-.74693 1.36938 1.24489.99591 1.24489 1.05816c30.78561 25.49533 59.52363 53.33703 86.64428 84.1545h-.0622c-1.21102-.35056-2.25025-.97797-3.17445-1.74283-28.39543-23.58318-56.81725-47.57419-85.21267-70.64747-28.39543-23.07327-57.21362-45.65208-85.95961-68.40666l-.24897-.18674c-9.59262-6.59691-17.77851-15.102-24.08861-25.39574-5.22654-9.97505-8.98611-20.54615-13.32032-30.93549l-1.99182-4.04589.31122-.49796c-1.57734 1.91102-2.84633 3.22796-3.98364 4.66833-.0273.0373-.035.0872-.0623.12449l-.12448.12449c-11.55308 15.85786-18.36212 35.37381-18.36212 56.45573v.18673 4.97956c.19121 16.28514 8.81182 30.55755 21.91005 38.71605 16.66757 10.32561 33.65185 20.00239 50.5425 29.69061 19.88636 11.3773 39.86833 22.64454 59.75469 33.79875l5.29078 2.801 4.91731 2.61426c29.95701 17.30497 58.9216 36.05099 83.84329 54.15267 13.67186 9.62449 26.88861 19.71558 40.20992 29.69063 3.28253 2.42205 6.33798 5.19916 9.46116 7.78057l-.74695 1.18263-.18672-.12448c-1.30664-.73299-2.6511-1.50633-3.73465-2.30306l.80916.74695c-19.27068-14.99253-39.54951-28.74803-63.30262-42.51299-23.64692-13.95869-47.21018-28.01201-71.20766-41.20584-31.55047-17.36868-63.45599-33.9994-95.42076-50.66697-13.03449-6.85188-26.25123-12.89308-40.20992-19.1713-13.9587-6.27822-26.76214-13.22072-34.8569-26.76512h-.0623c-.71489-.8703-1.56193-1.67849-2.48978-2.42753-.84573 1.07391-1.6121 2.22551-2.17855 3.61018-1.51858 5.25174-2.77995 10.61932-4.29487 15.81009v.12449c-.48813 1.62479-.80918 3.36038-.80918 5.16629.0637 4.78037 1.98236 9.07524 5.0418 12.26216l.0623.0622c2.39019 2.80449 5.15534 5.30074 8.27851 7.53158 22.69085 16.38075 45.43647 32.48116 68.09544 48.8619l-.87142-.68468c30.75375 23.74253 65.32482 42.77339 105.19314 56.89143 26.92945 8.63654 54.11135 16.55106 81.10454 24.7733h.43571l.31122.12448c1.88028.70113 3.73068 1.50633 5.22854 2.30306l-.37348.74692-79.61066-13.94276-.5602 1.43163v.0622c.31869.76486.76536 1.51079 1.30714 2.11633 3.34626 2.80446 6.63575 5.44663 10.33258 8.09177 12.55645 9.46515 25.5994 18.81973 38.15585 28.50796v-.06224c8.8915 8.19038 20.29966 13.68832 33.23854 15.24991h1.80511c10.13439 0 20.12187-.47855 28.69467-1.30715h5.35303c.25496 3.76056-1.83945 4.7928-4.35712 4.7928-10.77177.8286-21.34188 1.88726-32.30488 2.3653h-1.61834-.0622c-11.09047 0-21.17507-4.31725-28.63246-11.3285-5.38589-4.78037-12.20589-7.94485-19.91822-8.90093h.62244c-6.47466-.78146-13.0577-1.21457-19.79374-1.2449l-112.60023-2.73874h-.12449c-1.78467.0637-3.54545.27487-4.97956.49795l-1.43162 2.30303.18673.0622c1.27477.5099 2.49625 1.0751 3.54794 1.68062 3.98365 2.51766 7.32194 5.01091 10.95502 7.65605 18.57465 13.48569 37.44981 26.77966 55.7088 40.70789l.12449.0622c9.76901 8.20086 22.35187 13.07133 36.10178 13.07133 3.95178 0 7.7955-.35703 11.14176-1.05815 17.46431-4.04739 35.1487-9.47958 51.91188-14.005 16.7632-4.52543 33.37548-9.3536 50.10679-13.94276.98795-.35056 3.19587-.0179 3.61017.74691.44617.79673.68471 1.68859.68471 2.67654v.0622c0 .70112-.18076 1.38631-.43571 1.99182v.0622c-1.11542 1.52972-2.75618 2.69345-4.66836 3.29897-13.19383 4.27047-26.33139 8.33627-39.52522 12.51113l-49.54659 15.87234-13.94276 4.85508c1.95415 1.64222 3.98897 3.21072 6.34894 4.7928 15.78388 8.45011 33.80561 13.25808 52.97004 13.25808 4.84411 0 9.61302-.32965 13.75601-.87143 16.58328-1.52784 33.15024-2.7932 49.73333-4.60608h.0622c.3344-.03.69691-.0622 1.05815-.0622.38243 0 .80173.0304 1.12043.0622h.12448c5.35402 0 9.93422 3.00765 12.32441 7.46934l.56019.87143.5602.93364c5.13094 7.83981 10.75833 15.30867 16.49478 22.0968h-.0622c6.72439 7.39365 10.82905 17.17598 10.89278 27.94776v2.80101 17.98865c0 1.17916.43572 2.41307.43572 4.35709l24.39983-12.7601v-.37347-.37348c.35056 2.35832.58907 4.79533.68468 7.34486v67.09954.0622c.0303.39466.0622.81993.0622 1.24487 0 6.66066-4.67531 12.22931-11.01727 13.63156h-.43571l-.43572.12448c-5.5771 2.00776-10.78669 4.77887-15.31211 8.02953-8.50907 6.56505-16.30357 13.56132-24.4621 20.54066l-4.17037 3.79693.43571 1.55611c7.80795 0 15.72046.4143 23.5284 0 3.8243-.0319 7.4295-1.02081 10.45707-2.61426 6.4057-3.63309 12.49373-7.86719 18.54884-12.13766 3.7606-2.5814 7.2403-5.49096 11.70198-8.90096 0 11.44103.4143 21.60876 0 31.80692v.0622c-.22309 4.97159-1.14828 9.76937-2.61426 13.88052-6.41584 18.13582-13.18651 36.35746-19.79375 54.58837v.0622l-.0622.12452c-1.41649 3.14252-2.17857 6.67168-2.17857 10.33255.0637 6.66066 2.70091 12.65557 6.97137 17.11725 11.24985 12.42897 22.41999 24.8888 33.86099 37.22216 5.92767 6.50131 6.12188 6.27823 11.82646 0l1.43162-1.61834c10.80365-11.79159 21.78956-23.12755 32.24264-34.91914 4.90786-4.68477 7.9673-11.28118 7.9673-18.61108 0-2.99571-.47705-5.88535-1.36939-8.40301-4.30326-12.44207-8.33207-24.92554-13.07133-37.15996-7.36178-16.47635-11.45298-34.68659-11.45298-53.90369 0-2.4858.0592-4.9925.18672-7.09586.15935-1.59346.58011-3.14211 1.05815-5.85099l.12452.18672c7.14688 9.10754 16.40892 16.47241 27.51204 21.53658h.0622c5.40377 2.31198 11.35782 3.67244 17.61517 3.67244 6.27823 0 12.26565-1.31709 17.42845-3.54793-.8286-1.17916-1.89969-2.1925-3.17445-2.92549-4.49193-3.89091-9.0453-8.08693-13.88052-11.70198-7.553-6.91561-16.50176-12.45036-26.82737-16.3703l-.0622-.0622c-6.02327-1.52972-10.51931-7.00573-10.51931-13.50704 0-.63739.0607-1.2633.12448-1.80507v-68.53083-.12448c.0956-1.56159.30524-3.14459.5602-4.41936l22.34576 13.25808c.058-.85087.0622-1.70117.0622-2.55205 0-.89233.002-1.78716-.0622-2.55202.0319-.0956 0-.18372 0-.3112 0-.12747 0-.21562 0-.31123v-28.44572c0-1.68906.44818-3.29944 1.24491-4.60608 8.57271-12.46084 17.63349-24.35155 26.14256-37.03547v-.0622c2.93197-5.57711 8.83675-9.39892 15.56114-9.39892 1.17916 0 2.34137.12002 3.36118.31123 10.67617 1.81654 21.44199 2.32945 32.11816 3.85917 24.53925 3.63308 48.87235 4.24704 72.32805-5.66427 5.0672-1.88028 9.90335-4.51745 14.93868-6.97138-1.21103-1.59346-1.79016-2.17854-2.42754-2.17854l-31.12222-10.0836-45.37621-14.62747-24.96005-7.96729h-.0622c-.47804-.0956-.98693-.2141-1.36939-.37347-1.40221-.73296-2.36527-2.23231-2.36527-3.92138 0-.73299.21114-1.38631.49796-1.99182 1.17916-3.28252 3.74612-2.13125 5.91323-1.49387 10.58056 2.93197 20.94699 6.09498 31.49569 8.96321 22.05346 5.92766 44.10791 11.97882 66.35259 17.42845l-.31124-.12452c4.36611 1.27477 8.91342 1.99183 13.6938 1.99183h.12448c8.12664 0 15.78371-1.97337 22.22128-5.41524l.99592-.49799.93367-.49793c6.24635-3.60124 12.29452-7.56497 17.55293-11.45301 20.65122-14.78726 41.09828-29.77673 61.62202-44.6915 1.14729-1.01981 2.18651-2.14868 3.17446-3.42345-4.18885-.69267-8.47596-1.18263-12.88461-1.18263l-111.35532 2.6765h-.49796-.18675c-8.98711 0-17.44786 2.27565-24.58655 6.09995l.68468-.49796c-5.73645 3.88804-11.68802 7.5027-18.92232 11.39074-17.14561 8.09477-34.94253 4.51099-52.53431 1.92959-1.40224 0-2.43104-2.36728-3.6102-3.61018 1.46601-.95607 2.88964-2.67653 4.41936-2.67653h5.10407 10.64379c2.10336.35056 4.18334.31124 6.2867.31124h.12448c9.24206 0 17.90948-2.30602 25.27126-6.16222l1.18263-.62244 1.1204-.62244c7.87168-4.6529 15.40577-9.71662 22.03456-14.75195 13.09819-9.56075 25.99727-19.50291 38.84054-29.25487 1.11543-1.11542 2.18652-2.2717 3.17446-3.6102l-.99591-1.18264-80.10863 15.1254-.37347-1.1204c1.82358-1.06933 3.72455-1.96903 5.97547-2.86325 15.01037-4.52542 30.08799-9.13051 45.00276-13.94276 16.79505-5.41776 33.81717-10.02833 50.29353-16.37026l2.17854-.80919 2.30306-.74695c27.66243-11.12234 53.4371-25.83493 76.00047-42.94867 25.68654-19.24898 50.93839-39.08405 77.86788-56.58022l.1244-.0622c4.1164-3.04801 7.5138-6.97914 10.0836-11.70196 3.5056-6.34196 5.4775-13.60564 5.4775-21.34985 0-5.19467-.8659-10.16875-2.4275-14.50296-1.5297 1.97589-2.3718 3.1172-3.4234 4.23262l-.1245.18674c-4.0183 4.85936-8.4875 9.31616-13.50707 13.4448-8.34181 5.52379-17.02807 10.62702-27.38756 15.6856-13.92682 7.04309-27.86958 13.62357-41.82828 20.60292-21.47981 11.15421-43.236 22.25763-64.17404 33.98548-23.23262 12.90701-46.17144 26.57889-69.34032 39.83646l-7.9673 4.17037c-23.07327 13.16196-45.39415 27.5006-64.54752 41.26808-5.22654 4.17486-10.58352 7.50866-15.81006 11.14178l-.68471-.87143c1.11347-1.11351 2.37189-2.19082 3.67244-3.29897 28.6368-22.54511 58.44795-43.79266 93.49116-65.85464 25.9415-16.1258 52.53683-30.98529 78.98823-46.12315 23.3601-13.25757 47.06579-26.26915 70.58523-39.46299l.24896-.12448c10.58056-5.25842 18.74305-14.69418 22.40801-26.4539v.5602c2.02975-6.81901 3.17449-14.0243 3.17449-21.47434v-.0622c0-7.17057-1.01634-14.08169-2.80102-20.10497v-.99591l-.24899-.99591c-4.42981-14.53234-11.19503-28.1101-19.54475-39.77421-.77066 1.55695-1.43249 3.14627-1.99183 5.0418v.62245l-.0622.49795c-3.63308 19.37645-13.60963 36.52107-27.82328 49.17313-14.18177 11.91907-28.78681 22.67042-43.44662 34.04772-21.63916 17.01813-43.44414 33.857-64.79648 51.28944-24.44365 20.10944-48.84995 40.69591-73.26173 61.12404-3.85617 3.18695-7.71983 6.2135-11.63974 9.33668l-1.12039-1.18263 97.28808-92.2463-.99591-1.49387-6.97138 1.24489c-22.08533 4.04738-44.27172 7.80047-66.16586 12.26216l-.37345.0622c-12.04654 1.59346-23.03844 6.33948-31.99364 13.38256l-.0623.0623c-6.05515 5.9914-11.78611 12.31345-17.49069 19.42027-2.58141 2.9957-5.01392 6.15274-7.53158 9.21218l-1.36939-.43571c-4.63588-27.59122-7.60331-55.82756-8.27849-85.21267 7.39365 5.64084 5.61844 14.07571 8.90096 20.35394 11.56851-23.3601 5.27037-43.47054-12.44889-62.36895l15.99682 2.86325h.12448c.62872.0298 1.30084.0622 1.92959.0622.66925 0 1.29369-.0304 1.86734-.0622h.0622c6.21449-.00001 11.94048-2.18753 16.3703-5.78874.95607-1.11542 1.75678-2.33243 2.48977-3.73467-2.48579.35056-4.95167.37347-7.46933.37347h-.0622c-3.18695 0-6.37884-.20964-9.08772-.5602-8.44533-2.23085-11.92005-9.25152-14.56519-16.86825-2.63628-7.5912-6.59341-14.75754-9.58564-22.34576-.70112-1.49785-1.12043-3.16451-1.12043-4.91732 0-1.21102.17927-2.34138.49799-3.3612 4.20673-8.38159 9.00301-16.55553 13.94276-24.58656l.0622-.12449c2.5814-5.0672 7.79351-8.526 13.88052-8.58973 1.72093 0 3.35869.26889 4.7928.74693 5.05557 1.04271 10.19339 2.13056 15.31215 3.11222 1.05168.28683 2.21392.43571 3.36121.43571h.0622.18672c4.52542 0 8.56038-2.12975 11.14178-5.53975l.0622-.12449c2.26271-2.70888 4.78783-5.17476 7.65606-7.46934 13.32131-10.38934 23.31379-3.99161 25.83145 6.97138v.37347l.12448.31122c.8286 2.19897 1.75083 4.34566 2.73877 6.1622 1.82273-2.25823 3.48735-4.62883 5.10404-7.40709 2.67701-5.73645 4.17037-12.10381 4.17037-18.86007 0-6.15075-1.25784-12.01965-3.36121-17.05498l-.0622-.18674c-3.41-11.31355-13.22172-19.82012-25.39574-21.34984l-.24896-.0623c-3.76056-.76486-7.30352-2.0471-10.39483-3.67242-7.06457-4.20018-15.24519-6.53567-24.02636-6.53567-1.56158 0-3.08085.0593-4.41936.18673-2.12439.38833-4.32436.68549-6.5979.74693-16.73131 1.46599-33.43773 3.05496-50.16905 4.17038h-2.61426-.18675c-3.76056 0-7.39613-.72004-10.51931-1.86733l-.18672-.0623c-8.34984-3.53735-14.64649-11.04802-16.4949-20.35381-.47804-1.59346-1.16772-3.47574-1.8051-5.22854h-1.92958c-.37956 3.60299-.65549 7.24492-.68468 10.95503v5.22853c2.03963 14.37299 15.01136 17.91047 26.51613 23.90187l-26.95185 10.70605 4.85508 3.67243 5.353 3.9214c-14.56421 4.58916-25.96738 11.51273-32.11813 24.89778h.80916.0623c.63739 0 1.20255-.18076 1.68059-.43571 4.14997-2.05915 8.2065-4.41124 12.44889-6.34893 2.67701-1.75281 5.89481-2.80101 9.33668-2.80101h.12448c1.59346 0 3.17347.20964 4.54384.5602 3.28253 1.17916 3.535 2.35882 1.43163 5.29078-5.73607 7.14767-10.87564 14.75894-15.8101 23.59065-8.77483 17.39071-16.46023 35.38987-23.96412 52.78331l-.0622.12449c-.57686 1.1438-1.03061 2.34876-1.36938 3.73467l1.12042 1.12039 20.35391-13.94276c-4.65289 9.49702-9.02694 17.8796-12.94684 26.51615v-.37347c-3.20289 6.96626-5.03262 14.81187-5.0418 22.96821v.0622c-.03.69114-.0622 1.36293-.0622 2.05407 0 .73299.0304 1.47893.0622 2.11631l.0622.0622c.28682 1.14729.79424 2.18802 1.43163 3.11223h.0622c1.11542-.60552 2.15763-1.34847 3.05-2.2408 1.27477-2.23084 2.20793-4.80279 3.61017-7.03363l.12448-.12449c2.54954-4.36607 6.12287-8.11867 10.45707-10.95502 7.553 14.02243-10.15628 76.84153-25.64473 92.74425-14.94664-13.60814-33.90978-81.12147-26.51613-93.67792 6.72439 6.78813 12.54947 14.48055 17.55293 23.40392.70909-3.48932 1.18266-7.0213 1.18266-10.70605v-2.17856-.37346c-1.43411-12.36524-5.64533-23.89191-11.76421-33.61201-2.10337-3.88804-4.05883-7.84131-6.16219-11.88869 7.3299 3.41 11.82346 9.99347 19.91822 12.51113-6.11887-15.42467-12.09884-30.0332-17.73968-44.62928v-.99591l-.37347-.93366c-5.92764-14.11804-14.05727-27.0624-23.77736-38.28035 3.17161-1.35511 6.64035-2.14693 10.33258-2.2408 5.84532 0 11.21419 1.74992 15.62335 4.66834l.12448.0622c1.65503.95986 3.39085 1.80454 5.41528 2.55202l.68467-1.24488c-5.99136-11.95081-18.80324-15.42853-29.19259-22.40788l9.71012-8.09178-13.94276-5.41527-13.94276-5.16629c5.60898-2.93196 10.03981-5.30074 14.56523-7.53158 12.20589-6.34196 13.1221-19.15387 10.95503-29.19265-.19125-.95608-1.16622-1.84642-1.86735-2.73876zm-84.9637 39.77421c6.11888-.8286 10.94359 4.12955 16.74377 8.52749h.18673c-7.58487 2.93197-13.60364 5.90177-20.10495 7.71832-1.20456.23866-2.40823.37346-3.67245.37346h-.62243-.24897c-2.19897 0-4.28343-.3889-6.09998-1.05815h-.49795l-.43569-.18674c-3.25068-1.17915-6.4107-2.5799-9.08771-4.04589-2.45393-1.27476-2.5814-3.46627 0-4.29487h-.74692c7.6364-2.96654 15.54333-5.38384 24.58655-7.03362zm242.06871.24898c1.86237-.0717 3.83377.21661 5.91323.93367 5.70458 1.94402 11.37331 4.18033 17.42845 6.41118l-.0622.12448c-8.15851 12.07842-28.14446 8.74859-38.34259-.68469 4.70867-3.29845 9.4761-6.56952 15.06315-6.78464zm.49796 4.73058c-1.59745.19121-3.33728.98745-5.353 2.67651 6.97934 1.33851 10.79816 5.41826 17.49069 1.30713-4.03942 0-7.34537-4.55729-12.13769-3.98364zm-242.31767.68469c-4.77292-.25695-8.18442 3.83177-12.19993 4.66833 6.97934 4.04739 10.73442.0324 17.49068-2.67651-1.96792-1.34647-3.69978-1.90617-5.29075-1.99182zm-195.88334 55.89552c-.39193.67502-.73848 1.42518-1.05815 2.2408.22032-.56212.33312-1.18412.56019-1.74284l-.37346.99591-.31122.99591c-4.38247 11.24367-7.49909 23.16907-8.9632 36.16404v.0622c-.3772 2.94391-.5602 5.92478-.5602 8.9632-.00001 20.84244 8.90792 39.59246 23.21718 52.65882 11.41958 10.52892 23.29878 20.76419 35.4171 30.49978l.0622.0623c4.89359 4.11627 10.64252 7.30615 17.24172 9.33667 14.62794 3.69682 29.52927 6.31657 44.3803 9.02545 16.60383 3.12317 33.31473 5.96899 49.9823 8.90095 2.23085.63738 4.61804.62245 8.09178.62245l-.18672-.31122c-1.01981-1.91215-2.1228-3.7292-3.17449-5.29078-12.14214-16.66758-23.91879-33.5423-36.47524-49.79557l-.12449-.24898c-8.66841-11.95094-21.36927-20.75928-36.47526-24.71105-11.49004-2.64176-22.93153-5.53175-31.24672-15.06316-3.3046-3.23812-6.76746-6.22648-10.70605-9.21218l-.49795-.37347c-14.62794-11.8872-27.7929-25.4062-39.71197-40.89461l-8.90096-12.63563zm632.90168 2.67652-.43571.0622c.0334.0733.091.17511.12451.24898zm-.3112.31122-2.48978 2.2408c-4.46168 5.38589-8.50658 11.18159-13.38256 16.12132-12.36524 12.71579-25.34892 24.97696-37.96915 37.53341h-.0622c-9.91131 10.35747-22.95574 17.67693-38.09359 20.35393h-.43572l-.37347.0623c-15.04225 2.83636-28.11507 11.41812-36.91096 23.52841-12.87945 16.98177-25.25332 34.45513-37.7824 51.78739 0 0-.0622.0622-.0622.0622v.0622c-.70561 1.3667-1.34038 2.80871-1.8051 4.4816l7.03365-1.05816c15.48842-2.80448 30.94595-5.59553 46.43437-8.52749 13.19383-2.42206 26.42999-4.62401 39.40074-7.8428l.43571-.0622c9.75197-1.81655 18.68527-5.87439 26.14266-11.51523 9.78383-8.38159 20.29221-15.91516 29.56614-24.71105l.0622-.0623c7.50034-6.83293 14.15803-14.6046 20.10495-23.5284 0 0 .0622-.0623.0622-.0623 6.43451-10.94794 10.14587-23.72744 10.14587-37.34668 0-7.61673-1.16673-14.94414-3.17449-21.34985v-1.36937l-.3112-1.24489c-1.97854-6.37522-4.27277-12.55459-6.53567-17.55294zm-495.77715 31.80692-.12449.0622.0623.0623c.0223-.0373.0394-.0878.0622-.12449zm-.0622.12449c-.29008.48476-.56061 1.01071-.80918 1.61835-.47804 12.74767-1.75779 25.47343-1.1204 38.09361v.0623c.38243 17.91047 6.22046 34.48094 15.6856 47.86599 11.60038 16.31701 23.1913 32.61012 34.91916 48.79966 1.05168 1.05168 2.20792 1.94352 3.61017 2.67651.58088-1.40118 1.02743-2.86614 1.24487-4.4816 0-10.10527-.61842-20.60661 0-30.9355.0637-1.21103.0622-2.49177.0622-3.73467 0-18.99402-6.58994-36.46828-17.55293-50.04454-6.50131-8.79589-12.82783-17.78101-19.23353-26.64063zm357.22095.43571-.0622.0622c-1.43411.60552-2.62522 1.64923-3.48569 2.98774l-33.61199 47.55477-.0622.12449c-7.25176 8.96546-12.37378 19.71065-14.62747 31.9314-1.91215 17.49618-2.28212 34.85142-3.17445 52.3476v.0622c.0637 1.52972.33411 3.0201.68467 4.29487l1.8051 1.30713.12449-.31122c.60551-1.40224 1.29219-2.71336 1.92958-3.79691 12.65547-17.69861 25.06382-35.52098 38.03135-53.03228 7.99916-11.53664 13.02305-25.35292 13.75604-40.4589.41328-4.56558.43572-8.95923.43572-13.75603 0-5.03533-.37348-9.83164-.37348-13.94276-.15934-5.1628-.95509-10.27532-1.36939-15.37438zm273.93793 108.4921c-.7012 2.5814-1.7429 4.28042-1.7429 6.22444l-.062.12449c-1.2429 7.99916-5.8823 14.86896-12.5111 19.17129-2.8682 1.6572-5.6593 3.60172-8.5275 5.29079-16.317 9.75196-32.67386 19.2176-48.79969 29.19265-19.9501 12.26963-39.6542 25.16072-59.38121 37.84461-6.53318 4.2386-12.89006 8.92238-19.29579 13.32033l.24899 2.24081h3.67241l43.13543-6.97138 64.85876-10.27034c14.373-2.29458 28.975-4.51746 43.5711-6.97138 4.0474-.98795 8.1575-2.15914 9.3367-6.97138v.56019c2.063-6.97778 3.1744-14.33162 3.1744-21.97228 0-6.53318-.7444-12.911-2.1785-18.42437-4.1111-13.79934-9.3203-27.34872-14.005-40.95685-.1275-.4143-.6653-.66676-1.4939-1.43162zm-904.91003.5602c-1.05168 1.08355-1.9724 2.33242-2.801 3.73466-1.58513 2.97561-2.9573 6.12722-4.35711 9.33667-7.2343 14.7873-11.32849 31.45686-11.32849 49.04864 0 6.05514.54078 11.95441 1.36937 17.11722 1.11542 6.43757 3.52005 9.31577 10.02136 10.20811 10.80365 1.68906 21.46637 3.1371 32.42937 4.73056l47.1813 7.46934c12.62019 1.94401 25.34744 3.91146 38.03136 5.66426 6.62879.92421 13.00113 1.41518 19.98048 2.1163l16.2458 1.74283.43572-1.30711c-1.17917-1.21103-2.48729-2.30953-3.92141-3.36121-27.05692-17.24122-54.01275-34.3943-81.22902-51.47617-13.44879-8.44533-27.41246-15.76627-40.95686-24.27534l-.18673-.12449c-6.59692-3.63308-11.99476-9.26646-15.43663-16.2458-1.7528-4.52542-3.46975-9.15193-5.47751-14.37847zm452.76621 51.53841h.31123c13.83122 0 26.87565 2.99272 38.09363 8.09178h.62243l.49796.18673c24.66673 11.28169 43.32763 33.58761 49.73333 61.18631v-.43572c2.23266 7.93644 3.48569 16.25267 3.48569 24.89779 0 17.30495-4.75947 33.51543-12.82237 46.93234l-.24899.43569c-12.36524 20.17318-32.17591 35.29809-56.269 41.7038h.43572c-3.56721.94766-7.1873 1.74365-11.39074 2.36529-3.69683.70112-4.78783-.4128-3.67241-4.04588l.0622-.249c2.9957-8.09476 8.90695-14.78082 16.61929-18.86007h.68468l.62243-.31121c6.88374-3.98364 13.33926-8.62809 19.17131-13.63155l.12448-.0622c15.7752-13.48066 25.70691-33.493 25.70691-55.83328 0-14.30926-4.07126-27.69083-10.95503-38.65382l-.18672-.37345c-6.54366-12.26143-16.72051-22.28454-29.44163-28.81919-9.70852-4.65766-20.57368-7.2826-32.05588-7.2826-27.85365 0-52.13697 15.33304-65.10772 38.34258-12.36523 21.92598-10.94804 44.10791-.62244 66.35262v.43568l.18673.49796c8.06289 17.27309 22.56834 30.89419 40.95684 37.96914l.18676.0622c7.55299 2.77262 13.59318 8.7202 16.55702 16.43254.62339 1.95234 1.12947 3.91672 1.49386 6.22443l.49796.249h-1.74286-.12448c-7.99916 0-15.65624-1.61638-22.22129-4.35713l-.62243-.18672c-30.11636-10.89925-52.89485-37.2939-58.75878-70.08727-1.49896-6.35946-2.42753-12.8979-2.42753-19.7315v-.0622-.18672c0-23.13701 8.96422-44.20103 23.52843-59.81692l.0622-.0622c12.46084-13.70376 29.23349-23.38103 48.73742-27.01412 6.56004-1.38384 13.31468-2.2731 20.29167-2.30304zm457.31012 52.97004c-.1316.17142-.1832.2685-.3113.43571h.1868zm-.3113.43571h-2.3653c-1.211-.0637-2.4614-.12448-3.6724-.12448s-2.434.0608-3.4857.12448c-9.6245 1.46599-19.131 3.45433-28.8192 4.79284-18.00608 2.51766-36.14512 4.45368-54.21493 6.97138-20.3644 2.77262-40.48627 5.74292-60.56385 9.02544h-.74695l-.80915.0622c-15.01038 2.26271-29.18521 6.97983-41.45484 13.25805l-1.74283.99591c-15.77524 9.62449-30.86777 20.34298-44.3803 31.43349-.44616.28682-.51787 1.14827-.99591 2.61425l8.58973-.43571c32.37907-1.88028 65.02753-3.78845 97.66156-5.47751h.24899c24.34804-.50991 47.67178-4.90336 67.9087-12.13769h1.05815l1.05815-.37345c22.88208-8.70028 43.13098-22.82332 59.25678-40.95684 2.4126-3.08459 4.525-5.92936 7.4693-9.7724zm-915.36703-.31123.0622.18675c.86047 1.72094 1.96643 3.35869 3.04998 4.79281 4.62103 5.03532 9.13052 9.97603 13.94276 14.56519 16.90326 16.2875 37.90557 28.45024 62.24446 34.91917h.0623c13.77077 3.3383 27.92391 5.8914 43.44663 7.34483 22.18094 2.23084 44.47989 3.32685 66.78831 4.79283 13.09823.86047 26.24177 1.41518 39.27626 2.1163l13.94276.80919.74693-1.5561c-1.30664-1.11542-2.64215-2.43101-4.10813-3.61021-6.25108-5.25586-13.10768-10.6428-19.91823-15.37435-8.45935-6.1758-17.2572-11.83742-27.69879-17.49072-18.42038-9.43324-38.80569-10.86041-58.88326-13.56929l-123.36852-17.30396c-2.64514-.63739-5.60201-.62244-9.58565-.62244zm27.44981 135.00823c-4.43325-.69662-6.14077.46335-6.16221 4.85508v.0622c-.0309.71209-.0622 1.37331-.0622 2.1163 0 .76486.0304 1.5412.0622 2.17858v.0622c0 11.4729 3.47275 22.11223 9.33668 30.74877 9.49701 14.50047 18.71666 29.36345 28.81918 43.32215 17.36869 24.47552 35.37676 48.2046 53.03228 72.26581 19.03652 25.77155 38.28018 51.57559 57.76286 77.4321 1.37038 1.6572 2.2408 3.83577 2.2408 6.16222v.0622c0 1.59346-.41928 3.08236-1.1204 4.35712-4.17486 8.98711-2.99072 12.47378 5.10405 18.05089h.0622c1.46599 1.11542 2.45044 2.75617 2.801 4.66832.35057 5.51337 1.64027 6.88823 7.34485 7.78057 1.62533.28682 3.90347.75192 4.66833 1.86734h.0623c4.33421 4.68477 9.96011 8.20631 16.55703 9.95912h.12449c1.91214.79673 3.5788 2.04858 4.91731 3.61017 5.29028 7.04308 10.38188 14.68171 16.2458 21.66105 1.08355 1.11542 1.74285 2.66806 1.74285 4.35712v.0622c0 1.78468-.71855 3.36469-1.92958 4.54385v.0623c-.8286 1.14729-1.81007 2.18801-2.92549 3.11221-4.48106 3.97256-8.83742 7.5536-13.50705 10.95503-1.64934 1.25332-3.67172 1.99182-5.91322 1.99182h-.0623-.62244-.0623c-.42592-.0304-.8812-.0622-1.30713-.0622-.44617 0-.86246.0304-1.24489.0622h-.12449c-4.7485 0-8.98561 1.97936-12.01318 5.16628l-.74693.5602c-.57365.54177-.93367 1.31811-.93367 2.17857 0 .86047.36002 1.63677.93367 2.17855 5.1628 6.53318 10.08559 13.16792 15.31213 19.66926.47804.63735 3.25664 1.16422 3.73467.62244 2.63646-3.08599 5.07888-6.37345 7.59383-10.14587l.18673-.3112c1.97589-3.60122 4.26698-6.93154 6.78465-9.95911 5.1628-4.87599 11.41862-8.63556 16.86825-13.32033 7.52112-6.56504 12.25419-6.60587 19.23354.37348l.0622.0622c12.11028 11.72785 23.12855 24.58607 33.54976 39.21402 5.57711 7.80794 11.35339 15.47146 16.9305 23.2794 1.52972 2.00776 2.86822 3.99063 0 6.34895-5.35402 4.68476-5.22854 4.80427-1.24488 10.95502.60549.79673 1.17069 1.65669 1.68059 2.67653 4.11113 8.8596 10.73096 10.65523 20.29171 8.83869h.12448c6.08701-.86047 11.17313-4.69621 13.81828-10.14583 1.72093-2.32645 2.73874-5.15535 2.73874-8.27853 0-4.7485-2.34239-8.96569-5.97547-11.51522-2.16711-2.00776-3.76754-2.81545-6.34895-.87143l-.74691.37347c-.76486.47804-1.62632.74695-2.61426.74695h-.0622c-1.70166 0-3.14383-.90871-4.04592-2.24081-14.782-17.8286-28.45982-36.62022-42.015-58.50978v.62244c-2.61764-4.60813-5.07513-9.31651-7.59382-15.12543-.50991-1.05165-.80918-2.27316-.80918-3.54793.0956-2.93196 1.74832-5.53727 4.17038-6.97138 7.39364-5.29028 14.70015-11.01924 22.22127-16.24578v.0622c1.7528-1.2429 3.86764-1.99183 6.16222-1.99183h2.48974c4.1749 0 7.90904-1.92161 10.39483-4.91731h.49796c.60551-.57365.99591-1.34848.99591-2.24082v-.0622c0-.89234-.3904-1.69901-.99591-2.24078-4.74851-6.21449-9.13052-12.37222-13.94276-18.29988-.86047-.79673-2.02417-1.24488-3.29894-1.24488h-.0622-1.43163c-2.45393 2.51767-6.97138 5.46805-6.97138 8.52749v.0622c-.86047 5.64084-4.21321 10.51434-9.02545 13.38256v-.0622c-4.38421 4.00296-9.80691 6.96205-15.99683 8.52749-.23545.0293-.51147.0622-.74693.0622-.25495 0-.46161-.0304-.68469-.0622-1.72094 0-3.24617-.90231-4.17038-2.24082-6.21448-8.28598-12.45437-16.55252-18.86007-24.71103-1.94402-2.51766-1.35643-4.09818.74693-5.85098 5.40484-4.48823 10.65681-9.26271 16.05907-13.81828 18.57973-16.34888 41.40254-27.89199 67.53525-32.92732 6.21449-1.05168 12.56541-3.34527 19.54476-5.35303l-.43572-.68468v-.68471l-.24896-.49792c-2.10337-3.72873-4.42784-7.33392-6.72242-10.4571-2.9957-3.28249-1.82798-5.09107 1.8051-6.97138 6.97935-3.53748 13.93479-7.44493 20.91414-11.14175 4.30234-2.23084 8.29644-5.16829 7.53158-10.39483v-18.29988c.22308-8.28595 1.22199-15.00091 8.83872-18.98456h.43568l.37348-.18672c3.44187-1.78467 6.68557-3.80836 9.58564-5.97547l.0623-.0622c3.37813-1.88028 5.69161-5.41227 5.85095-9.52339v-23.15483-.12448c-.0637-1.78467-.30524-3.4832-.56019-4.91732l-43.82009 25.3335c-5.64085-17.71925-15.47098-33.43276-10.02136-53.0323l-16.93049 8.58976c-21.89412 11.31356-43.83603 22.83576-65.73015 33.79875l-.24898.12448c-6.24635 3.44187-11.6915 8.17594-16.12131 13.88052-3.98365 4.30234-6.47343 10.0602-6.47343 16.3703v.0622c.00001 3.18692.69116 6.25582 1.74285 8.90096v.68468l.18673.68468c1.13044 3.14013 2.41514 6.15352 3.61018 8.58976l.0623.12448c1.58757 3.12649 2.48977 6.64991 2.48977 10.39483 0 6.4057-2.63866 12.25767-6.90913 16.43253l-5.0418 5.29076c3.28524 1.65076 6.98829 2.55202 10.89278 2.55202 8.57308 0 16.13479-4.39603 20.60292-11.14174 1.81512 4.14703 2.86324 8.68871 2.86324 13.50704 0 4.30234-.80818 8.5061-2.17856 12.07545h.0623c5.92766-.38243 11.1552-3.38113 14.5652-7.84281.76486-.89234 1.62483-1.6353 2.67652-2.24082 3.63308 2.45393 4.98901-1.56108 5.91322-2.6765s1.89821-2.20646 3.23671-3.67244c1.19319 2.1237 1.86733 4.59646 1.86733 7.22037 0 4.36636-1.96508 8.31225-4.97955 11.01727l-.0623.0622c-12.33628 10.94033-26.67969 19.54848-43.38439 25.58249-1.81394.61119-3.72918.93364-5.72649.93364h-.0622-.0623c-.5533.0593-1.0966.12451-1.6806.12451-.60551 0-1.17069-.0608-1.6806-.12451h-.31122c-10.07264-1.90648-18.90162-7.29428-25.27125-14.93867 0 0-.0622-.0622-.0622-.0622-2.30921-1.66708-4.81325-3.00329-7.78056-4.10813l-.12449-.12448c-1.62533-.8286-3.11272-1.86931-4.41936-3.11221-1.01981-.8286-1.16322-2.55553-1.99182-3.73469-8.85963-12.14215-18.05438-24.39683-27.20083-36.47524-18.99405-25.17664-37.89147-50.26813-57.14045-75.25355-17.71925-22.92458-35.63503-45.71584-53.77921-68.40669l-.0623-.12448c-7.99916-10.77178-20.02379-18.39947-34.10996-20.78966zm860.34292 6.59794-.1867.0622c-4.5892.66925-8.8462 2.19002-12.5112 4.35709l-.5601.37347-.5602.43572c-10.83555 8.5728-20.97244 18.0245-30.43758 28.44571-16.38075 19.40832-31.13419 40.82042-46.55887 61.24855-11.8872 15.26534-23.47811 30.48436-34.91914 45.74969-15.36094 20.3644-30.57397 40.88565-45.99865 61.18631-1.49785 1.40224-3.28153 2.53411-5.35303 3.29897l-.31123.0622c-2.10333.79673-4.13002 1.75079-5.85096 2.73874-2.64514 2.1671-4.61306 4.93025-6.97138 7.03362-10.7399 9.14645-22.57882 13.34919-36.53752 5.47751-10.93112-6.34196-21.65309-12.97821-32.61608-19.60699l-.12448-.0622c-2.00776-1.33851-3.85218-2.85328-5.47751-4.60609-2.35832-2.23084-3.79693-5.39535-3.79693-8.90096 0-2.42205.68819-4.68725 1.86735-6.53566 4.2386-.22309 3.47772 11.08747 10.45707 4.10812l.0622.0623c3.56934 5.00345 9.33766 8.33627 15.93458 8.52748-1.25236-3.53496-1.99182-7.33806-1.99182-11.3285 0-4.68476.92669-9.15292 2.55201-13.00909 2.73291 2.53985 5.64241 4.89737 8.90097 7.28262l.0622.0622c3.23861 2.36036 7.21116 3.79692 11.51522 3.79692h.74695c2.48579 0 4.89988-.44817 6.97138-1.2449 3.76056-1.46598 3.9642-2.89761.80916-5.41527-4.58916-3.50561-7.59382-9.06576-7.59382-15.31212v-.0623-.0622c0-2.19897.3904-4.34565.99591-6.16219 1.80517-6.93562 4.09911-13.85404 6.53567-20.78966 1.11542-2.32645 1.74286-4.94718 1.74286-7.65606 0-3.79243-1.22897-7.30951-3.23673-10.14586l-.12448-.18672c-3.79243-5.22655-8.40052-9.83614-13.81828-13.75604-9.65636-6.34197-19.96154-11.48087-30.06406-16.9305-16.69945-8.85963-33.59112-17.53352-50.41804-26.32941-2.29458-1.17913-4.7211-1.95893-7.78054-3.36118v4.85508 5.41524.18675c-.12748 4.42982-.54528 8.7217-1.18266 12.38666l-.43569 1.68058-.31123 1.49387c-1.97589 7.6486-4.36557 15.14432-6.66015 20.97638v.0622c-.15934.54178-.39788 1.0477-.68471 1.49387-.79673.92421-1.96193 1.462-3.23669 1.49387h-.0622c-.86047 0-1.66568-.26888-2.30306-.74692-3.41-1.72094-6.61435-3.72172-9.89687-5.602l-30.31306-17.55298-.12448-.24896v8.58973c0 5.55527-.55599 11.07421-.5602 15.8101v.0622c-.03.33437-.0622.69692-.0622 1.05815 0 .38243.0304.73946.0622 1.05815v.12449c0 5.70458 3.70629 10.60197 8.90096 12.38665l.31121.18675c5.83205 3.09131 11.09795 7.10832 15.62338 11.88866 6.9156 7.74424 2.38668 15.67817 2.80098 27.9478 1.40224 8.31785 2.02171 10.18219 8.71424 13.94276 6.69252 3.76056 13.00112 7.78203 19.98047 11.70194.44616.15934.86394.4905 1.18263.80919.60551.57364.99591 1.34845.99591 2.24078 0 .89234-.3904 1.72942-.99591 2.30306-1.81654 2.64514-2.99768 5.09607-5.22852 8.09177s-1.41818 4.67632 1.99182 5.66424c1.03843.32191 2.05407.60468 3.29894.87143 10.10252 2.03962 20.86187 4.03941 31.06001 6.97138h.87143l.93364.31123c13.92685 4.36608 26.78603 11.09943 37.84463 19.54475 8.31788 5.86393 15.93458 13.2287 23.90187 19.79375.50991.28682.98696.67423 1.36939 1.12039.9242.95608 1.49386 2.30057 1.49386 3.73469 0 1.56159-.65927 2.9957-1.74282 3.98364-6.15075 7.68047-11.77566 15.5382-17.92641 23.15493-1.01981.95607-2.39168 1.49386-3.9214 1.49386h-.0622-.87144l-.24899-.0622c-8.28598-2.00775-15.64674-6.39225-21.28758-12.51113-1.62533-1.52972-3.6102-3.47575-3.6102-5.22855 0-5.38589-3.18988-10.00093-7.84278-12.1999-2.32645-1.46598-3.66397-1.36241-5.35303.99591-3.98365 4.90785-7.25821 9.81669-10.95503 14.5652-4.87598 6.08701-3.94432 9.7186 3.67241 12.01318 2.25149.44916 4.53948.74761 6.97138.80919h.12451c2.80449.25495 5.45559 1.06162 7.7183 2.24078 7.52112 5.16281 14.86847 10.83105 21.84781 16.12134h.0622c1.97589 1.21102 3.29897 3.4578 3.29897 5.97546v.18673c0 1.11542-.26891 2.18801-.74695 3.11221v.37348l-.12448.43571c-1.2429 3.72869-2.82141 7.30352-4.60608 10.39483-7.93542 12.55645-15.953 25.07855-24.46207 37.28444-6.4057 9.05084-13.3746 17.47128-20.35394 26.26717-1.27477 1.7528-2.45893 3.14507-5.10407 1.74283-7.39365-4.11113-7.40907-4.1161-12.63562 2.86325l-2.24078 2.73874c-7.29804 9.05084-7.11381 9.01748-2.3653 19.98047 3.05944 6.88374 6.51772 12.19346 15.24987 11.14178h.249c2.77261.19121 5.51935.58161 7.71829.99591 1.88032 0 3.54994-.74893 4.79284-1.99182 3.37813-4.20673 6.1149-8.7994 9.46116-13.13361.52928-.46697.95894-1.09473 1.2449-1.80506v-.0622c.029-.23385.0622-.45085.0622-.6847 0-.25496-.0304-.52384-.0622-.74692 0-1.84841-1.17418-3.41-2.86325-3.98365-4.11112-2.51766-3.38909-5.05524-.87143-8.46524 9.68823-13.44879 18.90788-27.2606 28.81919-40.64565l.24896-.31123c7.71237-10.07063 16.92702-18.93128 27.6988-26.51614 1.17916-1.01981 2.73029-1.61835 4.41936-1.61835s3.17796.56817 4.35712 1.55611c7.93542 5.70458 15.90867 11.50079 23.65288 17.42845l.0622.0622c1.7528 1.21103 3.00619 3.02958 3.54793 5.22855v.0622c.82863 4.81225 3.58133 8.9612 7.46937 11.70195 2.70888 2.42205 4.53237 1.58699 6.34891-1.05816 2.9957-4.46168 6.54911-8.92234 9.95911-13.32029 5.01417-6.3788 4.53728-8.9994-2.98773-12.19993-1.62533-.9242-3.43938-1.43162-5.41527-1.43162h-.0622-.93367l.12451-.0622c-.98795.22308-1.99829.37347-3.04998.37347-4.46171 0-8.43589-2.10238-11.01729-5.35303-2.23085-1.88028-4.96363-3.10078-6.97138-4.91732h-.0622c-2.29458-2.10336-4.40343-4.38998-6.41119-6.97138-.86047-.98794-1.33748-2.27017-1.36935-3.67241 0-1.52972.56816-2.90159 1.55611-3.9214 5.32215-6.88374 10.29673-14.55723 15.81006-21.53658v-.0622c1.94406-2.26274 4.29441-4.16342 6.97138-5.78875 4.33303-2.2607 8.79822-4.58658 13.19585-6.90914 2.29458-1.40224 4.78783-2.55998 7.65605-3.54793 5.16281-1.40224 6.42961-2.88964 6.97138-8.403v-.0622c.31869-1.78468 1.18315-3.33431 2.48978-4.4816 8.41936-6.32246 9.08319-8.8102 4.79284-18.42437-.63739-1.21102-.99591-2.54953-.99591-3.98364v-.0622c0-2.19897.84004-4.19679 2.17854-5.72651l38.34259-51.66291c20.17108-27.02795 40.14517-54.11773 59.94144-81.22902 14.56612-17.70785 27.75868-36.57643 40.64558-58.44754 5.3859-8.82776 8.4653-19.16034 8.4653-30.25081 0-1.2429.001-2.43401-.062-3.48569-.2869-1.94402-.3685-4.12754-3.2367-3.29894zm-393.57175 101.9564c.19239.11196.30779.20088.49795.31124v-.31124zm.49795.31124v.80919.12448c-.0562.63213-.0622 1.30084-.0622 1.92958 0 .66926-.002 1.35594.0622 1.92959v38.40482c-.0319.15935 0 .33861 0 .49796v.43572.18672c0 5.22654 2.76465 9.80525 6.97138 12.38665 11.02673 6.46944 22.20733 12.64559 33.42527 18.86007 4.39798 2.45393 5.22855 2.17657 5.22855-3.04997.50991-11.21795.73201-22.45782 1.36939-33.61203v-1.18263c0-6.18262-3.42695-11.57399-8.58976-14.37847-8.031-5.16281-15.93159-10.12493-24.02635-15.00091-4.37108-2.67807-8.99208-5.21539-14.37848-8.34077zm-68.09542 1.36939-.49795.12448h-.12451c-1.01982.31869-2.06503.76833-2.92547 1.18263-10.38938 5.70458-20.69653 11.66762-31.30897 17.11725l-.12451.0622c-7.39364 3.53747-12.51113 11.06159-12.51113 19.79374v.0622c-.0305.49194-.0622.97373-.0622 1.49387 0 .54178.0304 1.10994.0622 1.55611.8286 6.53318.80919 13.10419.80919 19.66923.25495 4.74851.93367 9.46467.93367 14.62747h.0622c1.2429-.22308 2.46588-.54974 3.48569-.99591 11.31355-6.69252 22.83575-13.12563 33.79875-20.10498h.0622c4.95466-2.9855 8.28655-8.40776 8.34076-14.62744v-.0622c.0266-.33.0622-.6659.0622-.99591 0-.35056-.0304-.77133-.0622-1.05815v-10.39483zm81.60247 117.82874c.28685 5.03533.6847 9.48108.6847 13.94276.0956 14.11804 7.00125 26.64364 17.67742 34.48346 4.30233 3.56934 8.9159 7.58735 12.26217 10.51931 3.34626 2.93196 7.07294 5.65926 10.70606 8.52749l1.4316-1.18264v-.49798l-.0623-.43569c-.47803-7.80794-1.46247-15.50435-2.80098-21.91005l-.0623-.18675c-1.24286-5.76832-3.89849-10.97941-7.53157-15.24988-8.4889-8.90223-18.0717-16.82102-27.32533-25.02229 0 0-.0622-.0622-.0622-.0622-1.47863-1.09442-3.06466-2.01487-4.91731-2.9255zm-97.47481.249-.43571.12448c-2.10337 1.05168-4.06782 2.18355-5.78875 3.29897-2.80449 1.88028-5.25841 4.15593-7.96729 6.09995-13.32131 9.75196-24.63585 20.22547-26.51613 37.65791-.66926 6.15075-1.5367 12.2447-2.3653 18.29984l1.49387.68471c2.70887-2.03962 5.5089-4.38997 8.15404-6.97138 6.97935-6.4057 13.99703-13.01756 20.97638-19.29579 11.85533-10.58056 11.0108-25.14426 13.94276-38.52931l-1.12039-1.36938zm108.74107 1.24487-.37348 2.11634.0622.0622c.35059.57364.70613 1.07807 1.12043 1.5561 7.37076 6.25882 13.79638 13.04287 21.28761 18.67333l.0622.0622c5.5758 4.83162 12.239 8.47984 19.85599 10.83054-.20412-.0189-.41864.0197-.62247 0l.68471.0622c5.07287.46743 10.21891.68471 15.43662.68471 5.44963 0 10.8156-.23854 15.43663-.68471.47804 0 .49796-.39336.49796-.8714v-.0623c-.50991-.73299-1.10548-1.35444-1.74286-1.99182-9.84758-8.031-19.52732-16.15767-29.56611-23.90188v.0623c-2.77262-2.42206-6.16369-4.15246-10.0836-4.91732-10.61246-1.05168-21.37974-1.13884-32.05591-1.68062zm-143.34901.87143c-8.34972.28682-15.97939 3.28103-22.03453 8.02953-8.66841 7.52112-17.658 14.49499-26.45389 21.47434-1.11542 1.11542-2.12427 2.30207-3.11221 3.67244l.56019 1.80507c10.73991-.70112 21.40413-1.22397 32.36712-2.1163l.0622-.0622c2.29458-.50991 4.41089-1.55363 6.09995-2.98774 2.86823-1.94402 5.56965-4.18184 8.27853-6.34894l27.94776-21.59882-.68468-1.86734c-7.68047 0-15.3515-.70112-22.96823 0zm50.29353 29.50387-.0622.12451c-.57364 1.37037-1.2892 2.71184-2.05406 3.85913-7.39365 9.75197-15.30418 19.28286-22.28353 29.13043-8.24226 11.19047-17.24858 22.66098-24.21307 34.73241l-.12452.18673c-6.17108 9.20601-9.8346 20.27682-9.8346 32.1804v.24896c0 8.82776 2.06602 17.23076 5.53976 24.33759 7.20243 16.12579 19.58111 28.4263 31.30896 41.20584.98795.70112 2.05604 1.26629 3.29894 1.68059.39263-1.22693.93367-2.21816.93367-3.11222 4.60745-21.6391 8.86374-43.37721 13.94276-64.85872.57365-2.29458.87143-4.70421.87143-7.15813v-.0622-.24897c0-7.3445-2.59654-14.03043-6.8469-19.23355-2.45392-3.21878-4.58865-6.65868-6.66014-10.70603-1.05092-2.10808-1.68062-4.4642-1.68062-6.97138v-.0623c0-2.23084.47854-4.28341 1.30714-6.09995 5.29028-13.09823 10.6458-26.14616 15.87234-39.27626 1.05169-2.70888 1.87531-5.50737 2.86326-8.21625zm71.70562 5.60202-1.24487.49796v.12448c.12747 2.0715.45563 4.13005.93367 5.85099 3.80307 11.12396 7.67868 22.33289 11.76418 33.23852l.0622.18675c1.35189 3.04331 2.11634 6.36395 2.11634 9.89687 0 7.71234-3.6321 14.61699-9.33668 19.0468h-.0622c-3.31439 2.64514-5.41527 6.70894-5.41527 11.26623v.0623c-.0302.39075-.0622.78898-.0622 1.18263 0 .4143.0304.76983.0622 1.1204.4143 3.12317 1.2907 6.18163 1.99182 9.33667l11.76422 55.1486c1.27476 5.16281 2.49475 10.27383 3.61017 15.43663l1.80507.3112c9.62448-13.32131 22.21331-24.6971 29.19266-39.89869 4.26687-7.83583 6.72239-16.82227 6.72239-26.39166 0-7.2343-1.40671-14.14541-3.79689-20.10494l-.62244-1.55611-.62247-1.49387c-5.73645-12.46087-12.53054-24.28086-19.66923-34.67021-7.74421-12.36523-17.28603-23.87446-26.01818-35.66605v-.0623c-.95608-1.01981-1.99533-1.93901-3.17449-2.86322zm-5.91323 80.04636c-10.80364 14.43673-26.63911 25.13782-30.6865 45.43848l-.24899.37344-2.1163-3.48569-.43572-1.05815-.43572-.99591c-3.18691-6.3101-6.73283-12.35826-10.27031-17.55293l-.43572-.5602-.43571-.56019c-5.11296-6.63733-10.56383-13.01152-16.18358-18.98456 0 0-.0622-.0622-.0622-.0622-1.00286-.86911-2.14345-1.64726-3.42345-2.3653-.65108 1.12833-1.181 2.36014-1.61834 3.73465-3.21879 21.193-6.81752 42.32525-9.39892 63.61385-.66696 4.40426-1.12039 8.84522-1.12039 13.4448v.31124c0 12.68393 2.78157 24.74988 7.59381 35.04362 5.03533 10.23 10.3998 20.33501 15.49887 30.43754 6.62879 13.19383 12.87664 26.33285 19.85599 39.46295h.0622c.79672 1.0517 1.81007 2.0043 2.92549 2.801.86047-.8286 1.63231-1.7493 2.3653-2.801 1.52972-3.0275 2.88964-6.0297 4.41936-9.0254 10.73991-21.60731 21.6302-43.58706 32.24264-65.48117v.37347c3.81716-8.22546 6.12952-17.32232 6.47342-27.01412v-.18672c-.28682-11.28173-2.05059-22.18547-4.85508-31.68248-2.80448-14.94664-4.82868-29.96349-7.28261-44.87826-.4143-2.5814-.93367-5.32365-.93367-7.90505z" style="stroke-width:31.8692"/></svg>