<svg height="960" style="" width="1200" xmlns="http://www.w3.org/2000/svg"><path d="m599.99698-.000005c-264.67242 0-479.99698 215.324415-479.99698 479.996985 0 264.67255 215.32456 480.00302 479.99698 480.00302 264.67406 0 480.00302-215.33064 480.00302-480.00302 0-264.67242-215.32902-479.996985-480.00302-479.996985zm0 27.96135c249.25528 0 452.04182 202.780485 452.04172 452.035635 0 249.25675-202.7866 452.04167-452.04172 452.04167-249.25516 0-452.03564-202.78496-452.03564-452.04168 0-249.25515 202.78048-452.035625 452.03564-452.035625zm7.79129 55.66782c-8.74743.0264-17.50209.18452-26.2441.13957-31.13441-.16016-61.38901 5.7896-91.09281 14.30227a382.51382 382.51382 0 00-139.92805 73.301425 393.1501 393.1501 0 00-84.38769 94.16323 43.983812 43.983812 0 00-3.10073 8.23428c20.30941 2.46994 40.62623 4.89526 60.92877 7.42116 13.73667 1.70893 27.44946 3.59595 41.18351 5.32769 14.24895 1.79661 28.51162 3.50534 42.76727 5.24883 1.53287.18753 3.06052.43588 4.59955.52792 21.07976 1.26022 42.2465 1.6906 63.22247 3.91993 35.01251 3.72112 70.2241.9407 105.10989 3.76216 20.25204 1.63794 39.96654-1.67914 59.98217-.94661 20.12179.73638 40.33845.35348 60.4555-.6857 27.72842-1.43236 55.46887-3.31146 83.08305-6.15902 30.6036-3.1558 61.05763-7.72188 91.6025-11.47458 20.31786-2.49622 40.678-4.64589 61.01981-6.94786a24.285295 24.285295 0 00-2.2209-6.94785c-10.78872-15.09283-20.76598-30.93371-32.94315-44.83646-47.45232-54.1767-104.36533-94.80461-173.15644-117.87695a374.54795 374.54795 0 00-94.68506-19.824155c-8.70815-.57108-17.44813-.67562-26.19556-.64928zm329.20111 190.134695a24.285295 24.285295 0 01.0243.15171 47.961965 47.961965 0 01.0607.0546c.043-.0765.0844-.15404.12745-.23057-.0708.008-.14158.0163-.21239.0243zm.0849.20631c-32.81352 58.35351-65.59518 116.72921-98.33794 175.12246-20.93603 37.33737-41.71279 74.75943-62.66423 112.08811-26.87386 47.60139-53.6777 95.24323-80.40706 142.92563-21.18379 37.7896-42.15837 75.69738-63.28317 113.52016-10.28756 18.41913-20.70583 36.76382-32.02086 56.83894-5.00269-8.09101-9.43689-14.69412-13.30711-21.61421-21.14626-37.81015-42.03947-75.76184-63.2346-113.54442-26.24141-46.77811-52.7282-93.41753-79.03572-140.15864-15.93718-28.31589-31.70898-56.72726-47.60345-85.06729-27.82149-49.43497-55.58584-98.90411-83.28936-148.40507-17.08036-30.51924-33.98226-61.1319-50.96513-91.70567a31.676161 31.676161 0 00-6.15902 6.15295c-4.76439 8.56015-8.99226 17.41676-13.53163 26.10453a350.48336 350.48336 0 00-38.79271 132.36736c-3.91348 44.5939-2.46179 89.35674 8.34956 133.47778 14.98454 61.15171 41.81978 116.31229 82.62187 164.0423a403.46765 403.46765 0 00110.40725 91.45688 401.2875 401.2875 0 00259.5769 45.54639 397.14115 397.14115 0 00247.84137-147.87107 378.30639 378.30639 0 0061.5659-111.85751 370.67524 370.67524 0 0022.10574-122.35514c-.00078-25.74683.21244-51.51461-4.31437-76.89369a407.5651 407.5651 0 00-48.68961-132.59792 47.961965 47.961965 0 00-6.83258-7.57286zm-674.14867 0a31.676161 31.676161 0 01.0668-.0546 43.983812 43.983812 0 01.0425-.14563c-.0789-.01-.15771-.0207-.23665-.0303.0426.0768.0848.15382.12742.23058zm587.00613 35.56454-112.38543 10.72821a108.8069 108.8069 0 013.72576 64.85478c27.50823-15.75351 101.08439-66.88968 108.65971-75.58299zm-501.98128.19419c34.8988 26.19844 69.96734 51.35411 108.47763 76.50533-6.64374-23.76461-4.06449-44.2887 2.40294-65.43124zm367.57513 11.86293c-7.41812.54949-14.03887 1.34914-20.67366 1.47454-21.72245.41057-43.45705.39211-65.17639.90411-13.36695.315-26.7262 1.99867-40.07308 1.8204-23.19238-.30968-46.36646-1.73921-69.55747-2.39684-12.29432-.34861-24.60781-.0607-38.36187-.0607a12.096791 12.096791 0 00-2.70026 3.37987c-11.10382 24.16221-9.00318 47.7599 2.94296 71.05627 5.46144 10.65047 14.85686 16.62696 24.39335 22.94311 21.01354 13.9172 41.63549 28.42768 62.70673 42.89469 20.79162-15.63685 41.36529-15.48002 61.84505-.12744 25.1177-16.99382 49.87498-33.71283 74.56963-50.51608a20.391865 20.391865 0 004.30223-4.41146c15.26148-19.5172 19.4994-41.92527 15.44911-65.72248-1.29906-7.63264-2.68721-16.49079-9.66633-21.23801zm-388.88594 5.58256.90413 3.16749a55.495403 55.495403 0 002.77307 7.09957c12.73874 23.0074 25.53129 45.98031 38.3801 68.92642 4.43716 7.9239 9.0655 15.74434 14.26587 24.75134 16.00364-14.67019 32.93646-24.3889 54.55738-28.08875-3.83462-3.35958-5.94542-5.60994-8.42845-7.31801-16.99667-11.69132-33.96276-23.43437-51.15323-34.83638-16.26375-10.78739-32.78868-21.1819-49.19934-31.74777zm547.7583 1.03154-3.16143.91022a16.099519 16.099519 0 00-4.36287 1.38353c-32.46567 21.9712-64.86948 44.03445-97.20935 66.18971a49.80847 49.80847 0 00-6.62018 7.0935c21.8278 2.41279 37.87127 13.39362 53.42265 26.68099a51.089286 51.089286 0 005.29128-6.40174c8.88301-15.70871 17.77481-31.40935 26.35941-47.28186 8.31403-15.37214 16.26635-30.9432 24.37514-46.42626zm-122.7981 94.31496c-9.30246-.1583-18.44635 1.42264-26.57785 6.89929-27.34706 18.41843-54.42724 37.23249-81.42041 55.75277 3.01759 24.61404-3.24414 36.02621-30.30966 54.82439 0 15.8388.38615 32.35856-.13956 48.84739a48.442962 48.442962 0 007.57896 27.91886c16.60471 26.47191 40.09491 40.69373 73.62302 39.68473 38.31393-68.65445 76.88958-136.07922 113.58689-203.71487-13.01439-17.48209-28.52405-27.40899-47.01485-29.55725-3.10443-.36068-6.22572-.60257-9.32654-.65531zm-305.96673.18808c-20.45794.6081-40.54576 11.4502-53.48942 30.38248 37.47979 67.73927 75.42553 135.99315 113.58083 203.04134 42.48278.744 76.39952-25.75908 82.30026-64.29046 2.01343-13.14786.68468-26.82123.67962-40.2551-.001-4.01864-.69124-8.0364-.98909-11.23795-27.89562-18.79722-34.49976-30.54879-30.80722-54.98214-27.10947-18.55064-53.43274-36.64907-79.87915-54.55737a44.021373 44.021373 0 00-11.06196-5.21848c-6.65031-2.14958-13.51457-3.08501-20.33387-2.88232zm168.88457 217.04021-3.13716 1.71118c-.0377 48.97535-.008 97.94926.0789 146.92449.002 1.22803 1.10686 2.45286 2.38473 5.09709 9.74474-13.27603 16.12875-27.08432 23.47708-40.31578 7.24457-13.0449 15.29331-25.66814 21.99042-38.98083 6.78264-13.48266 16.68065-25.5435 21.17733-41.58399a110.01787 110.01787 0 01-65.97128-32.85216zm-28.07057.86166c-10.05624 6.9974-19.40722 15.07619-30.10334 20.50986-11.15626 5.66702-23.61034 8.78144-36.44441 13.34958a106.18518 106.18518 0 004.64808 11.01946c19.5291 35.05756 39.15526 70.06152 58.88388 105.00674.52418.92838 2.48393 1.04392 3.87137 1.57771 2.65124-18.47145 1.99647-140.55961-.85558-151.46335z" style="stroke-width:3.10682"/></svg>