<svg height="960" style="" width="1160" xmlns="http://www.w3.org/2000/svg"><path d="m620.08968-29.996949c-5.10686-.06357-10.23558.866486-14.1346 2.815994-6.95042 3.39045-6.10215 5.934611 2.37398 7.290791 8.98469 1.186657 13.73215 4.068539 16.95307 10.1713488 2.37332 4.746629 2.37216 5.593744-.3402 9.66228397-7.45898 11.52752623-14.74912 13.90084523-37.97369 12.71419123-40.00731-2.2038-86.96338 9.832961-98.3214 25.259502-4.5771 6.102809-5.5944 17.799365-1.8649 22.376472 3.39044 3.899021.67742 6.103801-7.45965 6.103801-10.17135 0-20.3432 4.237407-31.02311 12.883057-7.79803 6.27233-9.66328 7.11978-13.22325 5.76359-5.76376-2.20378-5.7636-2.20494-5.7636 2.20263 0 6.95043 10.84944 14.409748 30.51405 21.529698 8.3066 2.88187 40.85458 4.24004 49.66975 2.03625 14.40942-3.7295 18.81881-3.73 23.05688-.50906 5.25519 4.06854 3.72999 8.98435-4.57661 14.07003-3.39046 2.03427-11.69755 7.79804-18.30892 12.71418-6.61138 4.91616-12.71518 8.98437-13.73232 8.98437-.84761 0-3.05025-1.52488-4.74548-3.38963-1.69522-1.86474-4.57677-3.39209-6.44151-3.39209-3.05141 0-2.88222.51022 1.35584 5.93493 4.23807 5.76377 4.40775 6.27234 1.86491 10.17135-1.5257 2.37332-4.7486 5.42489-7.12192 6.95059-2.71236 1.86475-4.06639 4.06639-3.72735 6.27018.67809 4.5771 18.64582 8.64663 27.12194 6.1038 3.05141-.84761 14.0712-1.52471 24.58159-1.52471h18.98685l10.68042-7.29079c15.59605-10.34086 16.78074-11.01863 23.39211-14.07004 21.02079-9.49325 39.83795-11.69688 52.72165-5.76359 9.15422 4.23806 11.35868 5.93412 17.63101 14.41023 10.17134 13.5618 11.01813 16.27251 11.01813 34.75046 0 16.27416-.33756 17.63199-6.10132 28.82047-3.39045 6.61138-8.13823 13.90118-10.51155 16.44402-11.86657 12.37514-32.03926 26.78388-42.71917 30.6829-9.8323 3.55998-34.24271 11.52737-41.53219 13.39211-3.72949 1.01714-11.0206 3.55865-16.10628 5.4234-14.40942 5.76376-22.54567 8.81649-26.27516 9.83362-1.86475.6781-8.98519 4.40677-15.76609 8.47531-6.95042 4.06853-12.8842 7.29078-13.22324 7.29078-1.52571 0-26.95342 20.0035-33.22575 26.1063-6.27234 6.10281-28.48027 33.73316-28.48027 35.42838 0 .50856-3.22044 5.76526-7.11945 11.69854-11.52753 17.12177-28.48027 48.99266-28.48027 53.23072 0 1.18665-1.01532 4.23822-2.3715 6.95059-6.27233 12.71419-12.88354 39.4979-13.39211 54.24636-.50856 9.83231-1.01911 11.52786-4.57909 13.90118-5.93329 3.72949-10.00183 8.98353-10.17134 12.37398 0 3.22092 4.23971 4.23773 5.93493 1.35585 2.03427-3.22093 7.62801-1.69523 9.66228 2.54284 1.01714 2.20379 4.74581 6.1038 8.4753 8.64664 4.57711 3.22092 6.44285 5.59474 6.1038 8.13757-.67808 4.57711-6.95042 5.59441-12.71418 1.86491-3.39046-2.37331-5.08733-2.54383-8.47778-1.01813-2.20379 1.01714-5.76244 1.86492-7.96623 1.86492-6.61138 0-11.86741 5.42357-11.86741 12.37398 0 8.13708 1.86525 9.6641 5.59474 4.74796l3.22077-4.06755 5.08568 4.91433c2.71235 2.71236 6.78056 6.10281 8.98435 7.62851 3.39045 2.37332 3.72901 3.39062 2.03377 6.95059-1.01713 2.37332-4.57578 5.59375-7.96622 7.11945-10.84945 5.08567-15.42755 17.63249-6.1038 16.61535 2.3733-.16953 7.62933-.67909 11.86739-1.01812 4.23806-.16953 8.47696-.67909 9.32456-1.01813 5.2552-1.35618 7.62752.17035 6.61038 4.23888-.67808 2.54284.1697 6.7814 1.86492 10.68042 12.88371 27.63216 24.74946 45.77007 41.53219 62.5528 6.61137 6.7809 12.88469 12.37646 13.73231 12.37646 2.88187 0 27.46231 19.32589 36.95556 29.1582 32.3788 32.88736 47.63599 81.54031 37.46464 119.51335-9.15422 34.75211-28.47978 54.07767-61.02809 61.0281-20.3427 4.40757-46.28047 2.20378-60.18131-5.08568-14.57893-7.45899-28.31026-24.92179-35.59972-45.26448-3.0514-8.47613-3.38963-13.72967-3.38963-60.17884 0-60.34999.33988-58.82528-16.10381-90.01743-2.3733-4.40757-9.4949-13.56245-16.10628-20.17383-27.29312-27.97121-65.77341-41.36266-104.59405-36.44651-29.49691 3.55997-54.07767 14.57778-73.74228 32.71668-42.55015 39.15969-42.88902 96.45863-.67792 118.15751 9.32373 4.5771 28.14106 4.74844 36.7867.17133 13.90084-7.45899 23.56197-25.59937 16.9506-32.04123-2.37331-2.54284-2.71269-2.20445-3.72983 2.71169-1.86475 8.9847-18.47629 20.68291-29.66477 20.68291-6.27234 0-16.44468-4.23839-21.36083-8.8155-8.30661-7.79804-11.35834-16.44253-11.35834-32.71669 0-14.07036.5084-16.10512 5.7636-25.93743 8.47612-15.93511 27.63299-31.69988 47.46712-38.98934 18.98652-6.95043 24.75029-7.96872 48.31391-7.96872 23.05505 0 24.07136.16952 33.90367 5.08568 14.07036 7.11994 29.32904 22.71684 36.44898 37.29576 12.20562 25.42838 13.05224 44.41408 4.06755 97.47461-1.35617 7.96756-2.37397 18.81732-2.37397 24.07252 0 14.40942 9.66444 59.16285 13.56344 63.06186.84762.84762 1.69358 2.71204 1.69358 3.89869 0 4.40759 12.20645 27.12525 19.49591 36.44899 12.20562 15.59606 31.87089 29.15584 55.77356 38.64914 22.71601 8.8152 71.8777 8.6476 103.57839-.5066 44.92347-13.05321 86.11644-47.63778 105.78104-88.4927 3.22094-6.61137 6.44136-13.22225 7.11945-14.74796 3.7295-7.45899 13.39212-44.41357 13.39212-51.19447 0-5.08567 2.88187-2.71318 10.17135 8.4753 8.98468 13.90084 28.98818 33.90499 43.90615 43.7373 33.05688 21.69887 73.06634 31.36016 110.70033 26.44402 9.66278-1.18667 20.00233-3.2211 23.22325-4.40775 3.05141-1.35619 6.78207-2.37151 7.96872-2.37151 3.0514 0 26.61387-11.18815 35.25951-16.61286 24.0722-15.42655 48.48361-41.53334 60.35018-64.75793 2.03426-4.23805 4.57826-8.98451 5.42588-10.84926 2.88187-5.59425 6.44151-21.35967 6.44151-28.64913 0-19.66462-9.83428-45.60387-22.37895-59.16567-16.61319-17.79986-36.44633-28.64864-65.09564-35.76858-35.76924-8.64565-57.46911-24.91931-64.58906-47.80484-4.91614-15.76559-1.6939-30.00647 9.83364-41.70352 17.12176-17.63035 43.90681-15.08768 61.53715 5.76359l6.95058 8.30892v15.08568c0 14.74845-.17001 15.08932-5.59474 20.51404-4.40757 4.57711-7.11944 5.76343-14.74796 6.44152-11.69705 1.01713-12.71616 3.72934-2.03625 5.76361 36.10829 6.44184 53.23073-27.97121 32.88803-66.11377-3.05141-5.93329-16.44219-18.30859-23.90118-22.20761-27.97121-14.40941-65.77604-5.93429-86.11874 19.32457-10.00183 12.71418-13.72984 23.39393-13.72984 41.36331-.16953 14.57894.33706 17.63034 5.59226 30.51405 8.47612 21.52936 22.71667 38.65228 40.51653 48.65411 4.40759 2.54284 23.22557 8.8155 26.4465 8.8155 1.18666 0 6.61154 1.52553 12.03626 3.22077 34.24354 11.18848 51.53467 27.80002 51.53467 50.00747 0 13.22275-3.73032 21.69905-14.41024 32.37896-9.8323 9.8323-13.22176 12.03708-29.49592 18.81799-10.34086 4.23806-49.16168 4.40758-62.89301 0-30.34451-9.66278-53.57108-26.6152-68.15002-50.17882-10.34086-16.95225-14.74812-31.19213-19.1557-63.57093-3.39045-25.25886-6.9491-44.58359-10.50907-56.78921-3.39046-11.86657-17.2913-45.77206-20.3427-49.33203-1.18665-1.35617-2.20511-3.2206-2.20511-3.89868 0-1.5257-7.79821-11.86724-17.12194-22.71668-7.96756-9.15421-11.69523-22.88504-7.45718-27.46215 5.76378-6.44185 27.46265-14.40973 58.48526-21.52968 18.13891-4.06854 73.06254-4.0692 93.23572.16886 40.34635 8.3066 63.23353 15.76691 92.3914 30.17632 10.51039 5.25521 11.52753 5.7641 25.42837 13.90118 11.35801 6.61138 44.24503 31.36198 52.21259 39.32954 9.15422 8.9847 10.50908 6.60956 2.88057-5.25701-10.67992-16.6132-18.64665-40.00698-18.64665-54.75543 0-9.66278 3.90001-16.44335 13.73231-24.24139 16.44368-12.8837 32.718-17.63132 55.26447-16.27515 8.1371.50857 16.7824 1.52703 19.1557 2.20512 4.0686 1.18666 4.0669 1.01664-.8492-3.0519-2.7124-2.2038-6.6106-4.74531-8.4753-5.4234-7.2895-2.71235-37.12446-23.9025-47.29581-33.7348-10.00183-9.83231-17.9712-22.71635-17.9712-29.15821 0-10.17135 17.631-28.4801 35.43086-36.7867 13.05325-6.10281 33.56595-11.5272 43.73725-11.5272 9.1543 0 11.0183-2.8827 2.7117-4.23889-16.4436-2.54284-36.78485-8.3056-59.50085-16.78173-33.22642-12.37514-34.07518-27.63299-2.88305-47.46712 9.49327-6.27234 22.20629-11.86575 30.1738-13.56097 11.5276-2.54284 1.8656-4.06854-33.90362-5.08568-62.55379-1.69522-82.89699-7.12044-79.33702-20.85176 2.03427-8.64565 28.47945-31.02228 49.66975-42.04125 4.91616-2.54284 9.32507-5.42504 9.83364-6.27266 1.5257-2.37332-11.35736-.6794-23.05441 2.88057-5.08567 1.69522-12.71501 3.90082-16.95307 5.25701-8.64564 2.54284-30.00465 9.83031-38.98935 13.22077-15.42654 6.10281-24.92145 9.83445-28.82046 11.52968-2.37332.8476-6.44021 2.71021-9.32209 3.72734-21.35984 8.81517-69.33469 32.88918-86.45647 43.39957-3.89901 2.37332-8.47611 5.086-10.17135 6.27267-24.41123 14.74846-47.46728 30.85127-64.58905 45.59972-7.11995 5.93329-14.0697 10.84928-15.42588 10.84928-1.35619 0-5.76327-1.52421-9.66229-3.55848-3.72949-2.03427-9.15504-4.57876-11.8674-5.93495-2.71236-1.35618-10.51172-2.88039-17.46214-3.55848-9.49325-.84762-12.03493-1.52504-9.83114-2.71169 3.72949-2.03427 24.24138-.50907 26.78422 2.03377 1.01714 1.01713 3.89868 1.8649 6.44152 1.8649 2.54283 0 5.42621 1.18667 6.61286 2.54284 4.91616 5.93329 7.62752 4.2384 44.75294-29.32705 2.54284-2.37332 10.17218-10.85044 16.95309-18.81799 6.61137-7.96756 13.56113-16.27465 15.42588-18.30892 3.22092-3.55997 8.13774-12.71303 12.54533-22.54534 8.98468-21.1903 13.0514-51.87471 10-75.43833-1.86474-13.39227-1.69357-14.9183.84926-16.444 4.23806-2.37332 3.55965-5.08568-3.72982-12.71419-13.90085-15.0875-23.73348-33.90483-18.98685-36.78672 1.01713-.67808 4.91714-.16786 8.64664.84927 3.7295 1.18666 7.28881 1.69374 7.79738 1.01565 2.3733-2.37332-1.69507-7.62768-8.30645-11.01814-3.89901-2.03427-11.52834-7.96804-16.95307-13.22325-7.79803-7.62851-9.66113-10.51005-9.32208-14.07003.50857-4.068538 1.1855-4.408248 9.83115-4.916808 13.5618-.67809 15.25702-1.5262 10.17134-5.59474-2.37332-1.69522-7.28863-4.06672-11.01814-4.91434-10.34086-2.71235-16.10628-5.25718-16.10628-7.12193 0-3.72949 8.98452-12.882214 15.93495-16.272668 12.71418-6.441846 23.56345-17.461803 26.10629-26.446498 2.88189-10.849435 2.54499-16.44252-1.1845-25.088166-5.08568-11.86654523-18.64831-21.6985462-29.66726-21.6985462-7.45899 0-7.96789 3.049584-1.187 7.457169 5.08568 3.39044897 13.73232 15.4268732 13.73232 18.9868452 0 1.017135-1.69489 4.407589-3.89868 7.628512-7.11995 10.679916-34.75443 15.088166-46.45148 7.459654-4.40758-3.051405-3.72751-5.255523 2.03625-6.272658 1.86475-.339049 3.38963-1.695729 3.38963-3.051901 0-3.220935-14.06988-2.541184-22.37647.849257-2.88189 1.186666-5.76409 1.865082-6.27266 1.186997-1.86475-1.695234-1.01813-8.307436 1.52471-14.4102462 6.27233-15.256906.67775-27.8020128-16.44402-36.7867038-3.81426-2.03427-8.89861-3.092627-14.00547-3.156198zm-47.88927 81.432876c2.14021 0 4.76699.975738 10.70028 2.925255 11.86657 3.899008 21.02062 8.305936 21.02062 10.340206 0 .678085 1.86558 1.865412 4.23888 2.37398 2.37332.678085 4.23642 1.864077 4.23642 2.711694 0 2.37332-3.05107 2.03328-8.98436-1.018127-3.05141-1.69522-7.45966-3.89836-10.0025-5.254531-7.62851-3.899021-23.56296-3.389462-30.6829 1.018126-3.55997 2.03427-6.27266 4.575785-6.27266 5.423389 0 .847613-1.18666 1.527193-2.54284 1.527193-6.61137 0 1.18781-12.714354 10.51155-17.12193 3.98378-1.949517 5.63729-2.925255 7.77751-2.925255zm-4.31339 14.98883c1.30619-.06788 3.46412.500787 5.6891 1.666258 4.06854 2.203787 4.74647 15.257027.67793 15.257027-1.35618 0-2.88106-2.03312-3.38963-4.74548-.67808-2.54284-1.69455-5.93394-2.71169-7.45965-.84762-1.69523-1.52719-3.39012-1.52719-3.898687 0-.508568.47777-.778744 1.26148-.819468zm49.08868 5.227225c1.7376 0 4.06821.50757 6.44152 1.52471 2.71236 1.18665 2.20264 1.52719-2.88303 1.52719-3.55998.16952-6.44153-.67959-6.44153-1.52719 0-1.01714 1.14543-1.52471 2.88304-1.52471zm-23.20339 4.75292c1.02743.035 1.6737.51319 1.6737 1.51974 0 2.03427-6.78172 7.79869-11.8674 10.00249-5.08567 2.20379-15.25818 3.72883-18.14007 2.71169-4.91614-1.69522-1.69356-3.89869 5.93495-3.89869 6.61137-.16952 8.8145-1.01713 12.88304-5.08567 3.14676-3.2633 7.25542-5.32651 9.51578-5.24956zm-373.41713 10.48175c-7.14114.0636-14.21837 1.03816-18.20215 2.9029-10.5104 5.08568-15.59706 9.15587-13.73231 11.020618 1.18665 1.18665 4.06953 1.01664 8.64664-.50906 8.98469-2.881888 16.27416-1.185828 38.14256 9.32456 8.64564 4.23807 17.12094 7.62851 18.64665 7.62851 1.69522 0 5.76524.84778 9.1557 1.86492 6.95041 2.03427 30.85275-1.35817 31.86988-4.5791.33905-1.01713-4.57694-3.2191-10.84926-4.91433-6.27233-1.69523-15.25835-5.08568-20.00498-7.62852-11.18848-6.272318-17.29013-9.324388-25.08817-12.545308-4.23806-1.77999-11.44343-2.62876-18.58456-2.56519zm318.74613 6.76186c4.25925.0424 8.96334.63389 12.43854 1.73578 9.49327 3.22094 19.32375 12.374978 22.7142 21.020628 2.88188 7.62851 2.88254 8.13725-.16887 14.57909-4.5771 10.17135-19.32457 21.69954-19.32457 15.08817 0-1.01714.67645-1.69605 1.69358-1.69605 2.88188 0 9.66427-8.64383 11.69854-15.08569 6.10281-18.64747-18.1394-33.736618-46.28013-28.82048-11.69705 2.03427-21.18966.67794-12.88306-1.864898 2.37332-.84762 7.28865-1.52471 11.01814-1.52471 3.72949-.16953 7.96839-1.0173 9.32456-1.86492 1.69523-1.1019 5.50982-1.60931 9.76907-1.56692zm-159.3917 13.374728c-10.33126.12962-21.11994 1.82717-29.22523 4.97393-30.8531 11.86657-80.18331 18.81798-97.4746 13.73231-24.91981-7.28946-48.48442-9.15438-59.50339-4.40775-3.39045 1.35618-12.20578 8.64482-19.66477 16.10381-14.23989 14.23989-22.88372 18.47828-32.88554 16.44401-6.95043-1.35617-7.62884 1.86458-1.187 5.7636 9.15422 5.59425 13.39229 4.57695 43.22824-9.49342 17.96939-8.64565 25.08818-9.32274 40.3452-4.06755 5.42471 1.86475 11.86806 3.39144 14.24138 3.56096 2.3733.16952-.16937 1.18484-5.76361 2.3715-13.90084 2.88188-19.66658 6.27332-32.5503 18.81799-12.71419 12.71419-18.817 16.10347-35.59972 20.00249-11.86657 2.88189-18.81667 7.46065-16.61287 11.02062.67809 1.35617 2.54333 1.1855 5.59474-.34021 3.55997-1.86475 7.63-2.0341 19.32705-.67792 15.93511 1.86474 31.69888-.33905 35.42837-5.08567 1.01714-1.18667 2.88272-2.20265 4.2389-2.20265 1.18665 0 2.88287-1.01845 3.56096-2.20511 3.05141-4.5771 21.01897-13.05191 27.79986-13.05191 5.76378 0 6.44219 2.71072 1.187 4.23642-3.55997 1.01713-22.03777 10.00248-31.19198 15.08815-11.01895 5.93329-27.80234 25.42738-27.80234 32.03876 0 3.39045-6.10231 16.6137-9.66228 20.85176-3.72951 4.23807-14.91832 12.71402-21.5297 15.93496-7.28946 3.72949-17.96872 14.91896-17.96872 18.81798 0 2.71236.67858 3.22159 3.0519 2.37397 8.3066-3.55997 20.85061-7.62851 23.0544-7.62851 3.22093 0 13.90035-5.08683 22.37647-10.51154 3.89902-2.54284 11.19013-9.32441 16.10629-15.08817 18.13891-21.19031 29.49509-30.51372 45.59973-36.95557 4.06854-1.69522 15.76725-2.71153 36.44898-3.38962 19.66461-.6781 31.87056-1.69507 34.24388-3.22077 2.03427-1.01713 6.61138-2.03377 10.17135-2.03377s7.96705-1.18666 9.66229-2.54284c1.86473-1.35617 5.08517-2.54284 7.11944-2.54284s6.2725-1.35733 9.49342-2.88303c3.0514-1.5257 7.62851-3.7295 10.17135-5.08567 2.37332-1.18667 5.59374-2.20265 7.11945-2.20265 1.5257 0 2.7117-.67957 2.7117-1.52719 0-.8476 1.69489-2.20246 3.89868-2.88055 2.03427-.6781 7.96872-5.2552 13.05439-10.17135 16.95225-16.44368 26.95408-22.03958 45.77107-26.27764 11.01897-2.37332 17.96955-5.76392 29.83613-14.5791 6.61138-4.91614 13.90117-9.66146 16.44401-10.50906 13.39227-5.08568-5.42621-10.51106-34.58408-10.00249-15.93511.33904-23.05406-.33905-29.49592-2.54284-4.5771-1.5257-12.20462-3.8977-16.78173-5.4234-6.00745-1.85415-13.7674-2.70326-21.80285-2.60243zm132.20023 37.37275c1.28632-.0182 3.45832 1.14725 5.89521 3.37223 2.20379 1.69524 5.42421 4.23609 7.11945 5.59226 3.72949 2.71237 2.37264 6.27267-2.37398 6.27267-2.88189 0-11.8674-10.51072-11.8674-13.90118 0-.88999.45493-1.32506 1.22672-1.33598zm-149.049 3.37223c5.59424 0 3.8977 4.06739-2.20511 4.74549-2.54284.33903-5.76328 1.69571-7.11945 3.0519-1.5257 1.5257-6.10165 2.37396-12.37399 2.37396-5.42471 0-10.51204.67645-11.02061 1.69358-.6781 1.01714-9.66195 1.69605-21.18949 1.69605-11.52753 0-20.51139-.67891-21.18948-1.69605-.67809-1.01713 5.76245-1.69358 18.13758-1.69358 12.37514 0 21.52985-.8476 25.93744-2.54283 3.72949-1.35617 9.83147-2.37331 13.56097-2.54284 3.72949 0 8.30726-1.18665 10.00248-2.54284 1.86476-1.35617 5.25587-2.54284 7.45966-2.54284zm-101.18455 5.14776c7.22589.10596 15.15172.78504 17.94884 1.97169 4.74664 2.03427 4.74548 2.03361-2.88303 2.71171-10.17135.8476-28.818-1.1865-28.818-3.22077 0-1.10189 6.52628-1.56857 13.75219-1.46263zm563.51407 20.30049c-1.3138.0636-2.75441.57247-3.26297 1.50484-.50857.84761-4.91748 3.5603-9.83364 6.27267-12.8837 6.78089-16.78157 8.98534-22.54533 12.54531-2.71235 1.86476-6.27232 3.89853-7.62851 4.57662-1.35618.67809-7.79819 4.74564-14.5791 9.15322l-12.03625 7.96872-1.187 17.79986c-.50857 9.8323-1.69522 20.00431-2.54284 22.71667-.8476 2.54284-3.22026 10.33856-5.25453 17.11945-2.20379 6.78091-4.57644 12.71468-5.25453 13.22325-.84762.50857-1.52719 1.86459-1.52719 3.22077 0 2.54284-13.56131 22.71683-19.83363 29.66726-2.03427 2.20379-3.39095 4.40643-3.0519 4.74547.8476.84761 9.32455-3.21894 16.95307-8.1351 2.88188-1.86474 6.61055-4.06854 8.4753-5.08567 1.86474-1.01714 5.76541-3.22093 8.47777-5.08568 2.88188-1.86474 6.61055-4.06854 8.4753-5.08567 1.86475-1.01714 5.76293-3.22093 8.4753-5.08568 17.46081-11.18848 84.76206-41.02509 103.40953-45.6022 7.96756-2.03427 32.37913-18.47812 29.1582-19.66477-1.35617-.67809-4.06838-.33856-5.7636.50906-4.06854 2.20379-30.34502 8.30527-66.62283 15.59475-5.08567 1.01713-15.42654 2.2056-22.88553 2.71417-11.69705.84762-14.24022.50857-18.98685-2.54283-4.40759-2.71236-5.59473-4.74696-5.59473-8.8155 0-9.66278 13.90116-29.49675 34.24386-48.99184 7.28946-7.11994 13.22325-13.39194 13.22325-14.07003 0-.84761-1.18682-1.23069-2.50062-1.16712zm-454.331 25.65931c-2.01814.035-5.07475.98684-8.50759 2.79861-11.69705 6.10281-14.23873 7.12193-17.45965 7.12193-1.86475 0-5.59474 1.18666-8.13757 2.54283-2.71237 1.35619-6.95126 2.54284-9.32458 2.54284-2.3733 0-8.13707 1.01532-12.71418 2.3715-4.57711 1.35619-18.6473 2.71219-31.19197 3.22076-26.44551 1.18667-35.76825 3.73083-44.75294 12.37647-3.39046 3.22093-8.13824 10.17003-10.51156 15.59474-18.47794 39.83779-23.39426 47.97504-32.37895 52.72166-2.2038 1.01714-3.89869 3.22225-3.89869 4.74795 0 2.2038 1.52455 2.37299 9.83115 1.35585 15.25702-1.69522 27.29444-10.84844 35.262-26.95308 2.37331-4.74663 5.93196-10.51106 7.96623-12.54533 8.47613-9.15421 48.65411-22.03908 48.65411-15.59722 0 .84761-2.03377 2.03427-4.57661 2.54284-2.71236.67809-6.78172 2.20478-9.32456 3.56096-2.37332 1.35618-5.93329 2.37397-7.62851 2.37397-5.42472 0-9.15405 5.59309-18.47779 27.63102-5.2552 12.03608-11.01797 22.88471-14.2389 26.27515-6.10281 6.44186-5.08749 9.6646 2.3715 7.79986 5.93329-1.35619 15.76741-13.05406 23.05687-27.12443 9.15422-17.63033 20.51206-27.80152 48.99184-43.90616 1.69522-1.01713 4.23723-3.05024 5.93245-4.74547 1.69524-1.5257 4.23857-2.88304 5.59474-2.88304 2.37332 0 2.37216-.50774-.34019-3.38963-2.88189-3.22092-2.88123-3.39209-.16887-3.39209 1.69523 0 7.62967-2.71154 13.05439-5.93246 5.59424-3.22093 10.84844-5.93247 11.69606-5.93247 2.37332 0 23.73232-21.19014 23.73232-23.56345 0-1.1125-.9409-1.64134-2.51055-1.61411zm-68.43312 45.60469c1.7376-.0424 3.22093.42314 3.81426 1.44028 1.18665 1.86475-8.81634 4.40693-10.51156 2.71171-.50856-.50857-.00033-1.69524 1.35586-2.54284 1.61045-1.01714 3.60383-1.56677 5.34144-1.60915zm30.59847 1.78049c-7.96755.84761-26.95374 16.95059-31.86988 27.12193-4.40759 8.9847-9.15571 23.22591-9.15571 27.6335 0 1.69522-2.2038 6.44234-5.08567 10.68041-5.93329 8.64565-5.93329 8.98435-2.54284 8.98435 4.40758 0 19.83578-12.71451 26.27763-21.52968 6.44186-8.81516 9.66295-15.93478 14.5791-31.8699 1.69522-5.59424 3.89902-11.358 5.08568-12.71418 1.01713-1.35617 2.37199-3.89951 2.88056-5.59474.67809-1.5257.50923-2.88121-.16887-2.71169zm-14.28358 84.78027c-2.62761-.10594-5.46694.74299-8.94215 2.52298-11.18848 5.93328-12.54285 12.54532-2.3715 12.54532 6.10281 0 7.1178.67628 8.81302 4.91433.84762 2.54284 3.90051 6.27349 6.61286 7.96872 5.76378 3.89901 6.27267 9.8323 1.187 12.71419-3.0514 1.5257-4.57876 1.18582-8.47778-1.69606s-6.27249-3.39044-12.03627-2.54284c-12.37513 1.86475-16.61286 4.91764-16.61286 11.69854 0 6.61138.34085 6.78124 5.25701 3.72983 3.0514-1.86475 4.06656-1.35701 8.1351 3.38962 3.0514 3.7295 6.10495 5.59474 8.98684 5.59474 4.91614 0 8.98468 3.89786 7.62851 7.28831-.50857 1.35618-6.10347 5.08485-12.54533 8.47529-9.8323 5.08568-11.5277 6.61303-12.03626 11.02062l-.50907 4.91682 13.90119-.50906c15.08749-.50857 14.91731-.50907 40.85425 14.74796 4.57711 2.71235 9.66311 4.9168 11.35833 4.9168 1.69523 0 4.91566 1.52554 7.11945 3.22077 3.89902 3.0514 3.90001 3.39011 1.01813 6.44152-4.57711 5.2552-3.5608 8.64432 3.38962 10.50907 5.42473 1.5257 6.7809 1.35602 10.17135-1.86492 2.20379-2.03427 3.89869-5.42289 3.89869-7.45716s1.0178-5.93428 2.37397-8.64664c1.35618-2.54283 3.2211-7.79771 4.40775-11.5272 2.37332-7.79803 8.81434-21.359 13.56098-28.818 7.28946-11.18848 7.79886-12.88552 4.23888-15.42836-1.69522-1.35618-4.91566-2.3715-7.11944-2.3715-4.91616 0-11.02029-6.44366-9.83363-10.34268 1.18666-3.72949-3.2211-12.54434-6.95059-14.07004-1.5257-.67809-4.57545.001-6.77924 1.52719-2.2038 1.35618-5.086 2.54283-6.27267 2.54283-3.55997 0-12.03658 7.79689-10.68041 9.83116.6781 1.01713 2.0341 1.52669 3.22077 1.01813 1.35617-.50857 4.40774.84628 6.95058 2.88055 4.06854 3.22093 4.40891 3.90001 2.20512 6.1038-2.03427 2.03427-3.22127 2.20429-6.27267.50906-2.03427-1.01713-5.5954-1.52735-7.96871-.84926-8.81517 2.20379-8.47629-8.64482.67792-18.64665l6.10381-6.61038-3.8987-2.71417c-2.03427-1.35619-8.13807-6.61105-13.73231-11.52721-5.42471-4.74662-11.52669-8.81549-13.56096-8.81549-1.86475 0-5.42654-1.52488-7.79986-3.38963-2.62759-2.03427-5.04312-3.09494-7.67072-3.2009zm535.56521 21.84755c7.28947 0 6.95059.84893-.67792 2.20511-3.22093.67809-5.59474.33855-5.59474-.50906 0-1.01714 2.88222-1.69605 6.27266-1.69605zm-14.39286 3.44425c2.7175.001 4.73057.52893 4.73057 1.64143 0 .8476-2.8822 2.03427-6.27266 2.54283-3.55997.50857-8.47778 2.20478-11.02061 3.56097-2.37331 1.35617-5.93196 2.37396-7.96623 2.37396-1.86475 0-5.93296 1.01532-8.98437 2.3715-7.11994 2.88189-15.93643 5.93511-22.5478 7.79985-2.71237.84762-7.79722 2.37183-11.01814 3.55849-3.22093 1.01713-8.64648 2.88337-11.8674 4.07002-3.22093 1.18667-8.64399 3.05042-11.86493 4.06755-3.22092 1.18667-8.4776 2.88288-11.69854 3.56097-3.0514.84761-6.44002 2.20363-7.45716 3.22077-1.01713 1.01713-3.73049 1.8649-6.1038 1.8649-2.54284 0-5.93329 1.18667-7.62851 2.54284-1.86475 1.35618-4.91698 2.54283-6.78174 2.54283-2.03426 0-5.08402 1.18667-6.77924 2.54284-1.86475 1.35619-5.42522 2.54284-8.13757 2.54284-2.54284 0-4.74795.67644-4.74795 1.69358 0 .8476-2.54151 1.69671-5.4234 1.52719l-5.59474-.17135 5.08568-1.69357c2.71235-1.01713 6.10165-2.88271 7.2883-4.23888 1.18667-1.18667 3.73066-2.20265 5.42588-2.20265s5.59457-1.35732 8.8155-2.88303c3.0514-1.5257 7.62851-3.7295 10.17135-5.08567 2.37331-1.18667 5.5944-2.20264 6.95059-2.20264 1.5257 0 4.74728-1.0178 7.45965-2.37397 6.10281-3.05141 25.76625-10.34022 35.25952-12.88306 6.61137-1.86474 15.42538-4.91796 22.54532-7.79985 3.05141-1.35618 7.62852-2.3715 10.17135-2.3715 2.54284-.16951 6.44219-1.18665 8.81551-2.54283 2.37331-1.35617 6.27332-2.37331 8.64664-2.54284 2.54284 0 6.78172-1.18665 9.32456-2.54284 3.0514-1.62106 7.71045-2.49217 11.20437-2.49068zm22.19024 47.41249c5.25519 0 6.44135.5094 4.57661 1.69605-3.39045 2.20379-14.07037 2.20379-12.71419 0 .50857-1.01713 4.23856-1.69605 8.13758-1.69605zm-25.93744 3.56097c19.83413-.16953 18.81683 2.71302-1.86491 4.9168-7.79803.84762-17.62935 2.20364-21.86741 3.22077-8.13708 1.86474-24.92014 4.57728-41.87238 6.95058-5.93329.84762-12.20595 2.37249-13.90118 3.38963-1.86474.84762-6.27051 1.69605-10 1.69605-3.72951 0-10.00216 1.18666-13.90118 2.54283-3.89901 1.35619-10.85126 2.54284-15.42836 2.54284-4.57711 0-8.30644.67711-8.30644 1.52471 0 2.2038-8.13691 3.39062-13.39212 1.86492-3.899-1.01714-3.5603-1.35619 3.8987-2.54284 4.5771-.67808 10.34086-2.37431 12.71418-3.56096 2.37332-1.35619 6.44401-2.3715 8.98685-2.3715 2.54283 0 6.60972-.84777 9.32207-1.86491 2.54284-1.18666 8.13841-2.54267 12.37646-3.22077 4.23807-.67808 11.01897-2.03476 15.25703-3.0519 12.37515-2.88187 27.12294-5.59556 40.85426-7.29078 7.28946-.84762 14.9188-2.20181 16.95307-3.04942 2.20379-.84762 11.35619-1.69605 20.17136-1.69605zm-310.395 15.08815c4.91615 0 4.40775 2.37216-.67792 4.74548-2.37332 1.01714-4.23889 2.71269-4.23889 3.72982 0 .84762-.67644 1.69605-1.69358 1.69605-1.86474 0-12.54432 10.33939-14.07003 13.72983-.67809 1.35619-1.86657 3.56064-2.71418 4.91682-3.05141 5.42473-6.95058 19.83331-6.95058 26.27516s3.89917 20.85292 6.95058 26.27763c.84761 1.35619 2.20429 4.2384 3.0519 6.27267 1.01713 1.86474 2.54201 4.06739 3.38963 4.74547 1.01713.50857 1.86491 2.88189 1.86491 5.08568 0 2.20378 1.01846 4.2369 2.20511 4.74546 2.71236.84762 2.37283 22.88603-.50906 28.48028-4.57711 8.64564-8.9837 11.69854-16.78173 11.69854-8.9847 0-7.63033-2.54416 2.3715-4.74795 6.44184-1.35619 6.61336-1.52438 9.66476-13.05192 3.22092-12.8837 3.89802-22.88553 1.52471-22.88553-.84761 0-2.37249-2.03559-3.38963-4.74795-1.01713-2.54283-3.39227-6.94993-5.25701-9.66228-7.62851-11.86657-10.17135-19.66362-10.17135-32.03876.16952-7.79803 1.01714-13.22275 2.54284-15.25702 1.35617-1.86475 2.54284-5.59408 2.54284-8.30644 0-3.7295 2.88171-7.629 13.39211-18.30892 8.13707-7.96756 14.9188-13.39212 16.95307-13.39212zm214.69343 44.48724c31.65108.0442 82.80727 1.5171 90.6159 3.14875 4.23806 1.01713 15.59672 2.37315 25.2595 3.22076 9.66278 1.01713 17.96989 2.03245 18.30892 2.3715 2.37332 2.20378-18.13873 2.54399-38.82047.3402-13.22276-1.35618-45.09249-3.05239-70.69038-3.56096-25.42837-.6781-47.46745-1.52521-48.65411-2.03377-1.35618-.50857-1.86507-1.69524-1.18699-2.54284.4238-.68869 10.78078-.96371 25.16763-.94364zm-350.03743 47.14182c.98733.0477 2.47976.35659 4.64117.92873 2.03427.6781 3.72984 1.86657 3.72984 2.71418 0 2.37331-8.98354.84678-9.83116-1.69605-.4238-1.37737-.18541-2.02633 1.46015-1.94686zm15.10802 4.85473c2.24444-.0169 6.37945 1.9664 9.87585 5.2297 3.0514 2.71237 6.27366 5.08567 7.2908 5.08567.8476 0 1.52471.84597 1.52471 1.69358 0 1.01714 1.35666 2.37447 3.0519 2.88304 2.3733.84761 10.17168 6.44103 26.61535 18.64665 5.08568 3.72949 14.40908 7.45882 21.69855 8.30643 11.52753 1.69523 11.52753 4.07003 0 4.07003-7.28947-.16952-11.5272-1.18748-16.61287-4.23889-3.72949-2.37332-8.47729-4.91533-10.51156-5.93246-2.20378-.84761-3.89867-2.37496-3.89867-3.3921 0-.84761-.84779-1.69358-1.86492-1.69358-1.01714 0-6.10066-3.22224-11.35585-7.29078-5.25521-3.89902-11.86857-8.64433-14.75044-10.50908-6.10281-3.72949-12.71419-9.66245-12.71419-11.52719 0-.90059.63115-1.32335 1.65134-1.33102zm199.56803 16.25281c.23839-.0159.47099.0367.6829.16389 2.3733 1.35618 1.69422 9.49475-1.01813 14.24137-1.35619 2.37332-2.37332 6.27267-2.54284 8.81551 0 2.54284-1.186 7.45815-2.71171 11.01813-4.5771 10.67991-7.2883 17.12177-9.83114 22.88553-1.35618 3.05141-3.73131 8.98519-5.25701 13.22325-8.13708 21.19031-13.22209 30.68358-17.96873 33.05688-2.20379 1.18667-6.44201 3.38864-9.49341 4.91434-2.88189 1.5257-7.28898 2.71418-9.66229 2.71418-2.37332 0-4.40775.6771-4.40775 1.52471 0 1.5257-12.54467 8.64663-15.25703 8.64663-2.88188 0-1.86508-3.39242 1.35586-4.57909 1.5257-.67808 3.56079-2.03344 4.23888-3.38961.67809-1.18667 2.71186-2.20264 4.57661-2.20264 2.71236 0 8.64647-2.54483 16.95307-7.12193 1.35619-.67809 4.06771-2.03295 5.93247-2.88055 3.22092-1.35619 6.95092-7.79871 13.22325-22.71668 5.76376-13.22275 8.30544-18.98685 9.83114-21.52968.84761-1.35619 2.03427-3.72951 2.54284-5.08568.50856-1.35618 2.03592-4.74548 3.3921-7.28832 1.18665-2.71235 2.3715-6.10214 2.3715-7.79736 0-1.52571 1.18666-4.40792 2.54284-6.27266 1.35617-1.69524 2.54284-4.74747 2.54284-6.78174 0-1.86473 1.18665-4.91697 2.54283-6.78172 1.35618-1.69522 2.54284-5.25453 2.54284-7.79737 0-2.37331.50956-5.59374 1.01813-7.11944.38142-1.14428 1.14477-1.81227 1.85994-1.85995zm-209.0242 75.41597c2.88379.0153 6.46984.93916 7.80483 2.56022 1.18665 1.35619 3.56179 2.54284 5.25701 2.54284 1.5257 0 4.06788 1.01532 5.25453 2.3715 1.35619 1.35618 3.89886 2.54333 5.76361 3.0519 3.55997.50857 5.5949 8.13758 2.37397 8.13758-1.18666 0-3.56113-1.86558-5.42587-4.23889-1.86475-2.37332-5.08452-4.23642-7.28832-4.23642-2.03427 0-4.74646-1.01779-5.76359-2.37396-1.01714-1.18667-4.23823-2.71155-6.95059-3.38963-2.88188-.50857-5.08568-1.69704-5.08568-2.71418 0-1.18666 1.81716-1.72283 4.0601-1.71096zm20.61337 20.9809c.21455.0238.41405.0988.58357.22597 2.03427 1.18666 3.56013 7.62851 1.86491 7.62851-2.37332 0-5.42307-4.91698-4.23641-6.78172.38142-.76285 1.14427-1.14427 1.78793-1.07276zm41.0852.68537c.42911.008.77875.13311 1.03303.38739 3.72949 3.72949-4.57793 11.35784-9.32457 8.30643-1.86474-1.35618-1.52636-2.37315 2.71171-5.76359 2.28855-1.90713 4.29252-2.95407 5.57983-2.93023zm35.44576 8.86516c3.39045 0 2.71203 5.76212-1.18699 9.32209-4.91615 4.40758-1.52587 7.63033 8.30643 7.79985 7.11995.16952 7.28882.33806 2.71171 1.52471-13.22275 3.39046-28.3096.67776-20.51157-3.72982 1.52571-.84762 2.71171-3.22093 2.71171-5.08567 0-2.03427 1.18781-5.0865 2.88303-6.78174 1.5257-1.69522 3.7295-3.04942 5.08568-3.04942zm-46.49866 5.02111c1.53962.0248 2.93023 1.01813 2.93023 2.6074 0 1.86475 2.03526 2.54284 8.64664 2.54284 5.25519 0 8.13774.67645 7.45964 1.69358-.50857.8476-5.25519 1.69605-10.17135 1.69605-7.28946 0-9.49308-.67792-10.84927-3.22076-1.01713-1.69523-1.18649-3.5608-.67792-4.2389.76285-.76285 1.73827-1.09511 2.66203-1.08021z" style="stroke-width:1.27142"/></svg>