<svg height="960" style="" width="1200" xmlns="http://www.w3.org/2000/svg"><path d="m433.94921 764.27179c-60.7851 2.0262-175.0612 18.6408-222.8788 32.4188-54.30143 15.3989-79.83119 29.1769-87.53064 48.2229-12.56226 30.3925 10.13086 54.7066 67.26884 71.3212 54.3014 16.2094 130.8907 31.6083 158.4467 31.6083 9.7256 0 39.7129 2.8366 66.4584 6.0785 68.4846 8.1047 299.0629 8.1047 364.7108 0 26.7455-3.2419 56.7328-6.0785 66.8637-6.0785 30.3925 0 124.0017-18.2356 166.14599-32.4188 40.9287-13.7779 57.5433-25.1245 64.027-44.1705 7.6995-22.2879-3.2418-39.3077-35.6606-55.9223-14.5884-7.2943-29.9873-12.9675-34.0397-13.3728-4.4575 0-17.01979-2.4314-28.36629-5.6732-56.7328-16.2094-150.342-29.9874-213.1533-31.6083l-42.5496-1.2157v18.2355 18.2356l38.4973 2.4314c47.4124 3.2418 124.4069 14.5884 134.1325 19.8564 4.0524 2.4315 10.9413 4.0524 15.8042 4.0524 4.8628 0 13.7779 2.4314 19.4512 5.6733 6.0785 3.2418 14.1832 6.889 18.2355 8.1047 3.6472 1.2157 6.889 5.6732 6.889 10.536 0 8.51-17.8303 18.2356-44.5757 24.7193-7.6995 1.621-21.4775 4.8628-30.3926 7.2943-54.7066 13.3727-186.0025 24.7192-285.6902 24.7192-87.9358 0-234.6306-14.1832-276.3698-26.7454-10.536-3.2419-21.4774-5.6733-24.314-5.6733-10.9413 0-43.7653-18.2355-43.7653-24.7193 0-15.8041 123.5964-46.1967 202.6171-49.4386 21.0722-.8104 22.2879-1.2157 25.935-13.7779 3.6471-13.778-2.0261-26.3403-11.3465-24.7193-2.4314.4052-18.2356 1.2157-34.8502 2.0261zm142.6425-155.2047c-5.2681 2.8367-12.9675 10.5361-17.4251 17.0199-6.889 10.536-7.6994 19.4512-7.6994 80.2363 0 79.0207 3.6471 89.5568 32.4187 101.3086 14.9937 5.6733 17.4251 5.6733 32.4187 0 28.7717-11.7518 32.4188-22.6931 32.4188-100.9033 0-62.4061-.8105-69.2951-8.5099-81.8573-12.9675-20.667-41.7392-27.9612-63.6218-15.8042zm-192.8915-79.0207c-20.2617 13.3728-22.2879 21.4774-22.6932 85.5045v58.7589l12.5623 15.3989c11.3466 13.778 14.1832 14.9937 33.6345 14.9937 18.6407 0 22.6931-1.6209 34.0396-13.3727l12.9675-13.3728v-63.2165-63.6218l-14.9936-14.5884c-17.0199-16.6146-36.4711-19.046-55.5171-6.4838zm17.0198-181.5449c-4.0523 2.0261-7.2942 6.4837-7.2942 9.3204 0 5.6732-23.5036 28.7716-33.2292 32.0135-3.6471 1.2157-8.5099 6.0785-10.9413 10.5361-3.6472 6.4837-2.4315 9.3204 7.2942 16.2093 6.4837 4.8628 13.3727 8.51 15.3989 8.51 4.4575 0 18.6407 18.6407 22.6931 29.1768 4.4576 12.9675 21.4774 8.9152 31.203-7.2942 5.2681-7.6994 16.2094-18.6408 25.1246-24.3141 19.046-12.157 19.8564-24.7192 2.0261-33.2292-6.0785-2.8366-17.8303-14.5884-25.935-25.5297-16.6146-21.4774-16.2093-21.4774-26.3402-15.3989zm379.2993-23.0984c-6.889 3.2419-16.6146 10.9413-21.4774 17.8303-8.1047 11.7518-8.5099 15.3989-8.5099 145.4791.4052 143.8582.4052 145.0739 22.6931 159.6623 14.5884 9.7257 32.8239 9.7257 47.4124.4053 23.5036-15.8042 22.6931-11.3466 22.6931-160.878 0-136.1587 0-137.7797-8.9152-148.3158-4.8628-5.6733-14.9936-12.5622-22.6931-15.3989-16.6146-5.268-15.8041-5.268-31.203 1.2157zm8.9151-185.5973c-3.6471 3.2419-6.4837 7.6995-6.4837 9.3204 0 5.2681-29.5821 32.824-34.8502 32.824-6.4837 0-13.3727 12.157-10.9413 19.046 1.2157 2.8366 3.6471 5.268 6.0785 5.268 7.2943 0 35.2554 24.7193 40.5235 35.6607 8.1046 17.0198 19.8564 15.8041 30.7978-3.2419 4.8628-8.9152 16.2093-20.2617 25.1245-25.1245 21.8826-12.5623 21.8826-23.9089 0-36.0659-9.7256-5.268-20.667-16.6146-26.7455-26.7454-10.9413-19.0461-14.1832-20.667-23.5036-10.9414zm-402.3976-30.7978c-5.268 2.0262-12.9675 9.7256-17.4251 17.0199-6.889 11.7518-8.1047 20.6669-8.1047 69.295 0 62.4061 3.6472 75.3736 24.3141 85.9097 14.9937 7.6994 29.5821 7.6994 44.5758 0 22.6931-11.7518 24.314-18.2356 24.314-87.1254-.4052-59.9747-.8104-63.2165-9.7256-74.5631-7.6994-9.3204-13.3727-11.7518-29.1769-12.9675-10.9413-.8105-23.9088 0-28.7716 2.4314zm187.2182-102.1190237c-23.5035 19.4512497-22.2878 6.4837497-22.2878 258.1342237 0 219.637.4052 231.3888 7.6994 242.7353 9.7256 14.5885 27.9612 26.7455 40.9287 26.7455s31.203-12.157 40.9286-26.7455c7.2942-11.3465 7.6995-23.0983 7.6995-242.7353 0-211.937503-.4053-232.199223-6.889-241.114384-12.5623-18.2355397-22.6931-23.90881975-41.7391-23.90881975-11.3466 0-21.4774 2.43141005-26.3403 6.88898005z" style="stroke-width:.405234"/></svg>