<svg height="960" style="" width="1184" xmlns="http://www.w3.org/2000/svg"><path d="m528.57013 880.40426c-4.883 3.25531.5425 16.27659 18.9894 47.20212 14.6489 23.87234 27.6702 47.74472 29.8404 52.62762 1.6276 5.4256 8.6808 9.766 14.6489 9.766s13.0213-4.3404 14.6489-9.766c2.1703-4.8829 15.1915-28.75528 29.8405-52.08506 20.0744-32.5532 24.9574-43.94681 19.5319-47.20213-8.6809-5.96809-118.8192-5.96809-127.5-.54255zm391.7234-672.76596c-7.5958 8.1383-15.1915 18.9894-16.8192 24.9574-2.1702 5.4256-17.9042 34.1809-35.2659 62.9362-17.3617 29.2979-32.0107 54.7979-32.0107 56.9681s-7.0531 14.6489-16.2765 28.2128c-8.6809 13.0212-16.2766 26.0425-16.2766 28.2127s-5.9681 7.0532-13.5639 10.3085c-16.2766 7.5958-16.8191 5.4256-21.1595-69.4468-2.7128-49.9149-14.1064-96.0319-22.7873-93.8617-2.1702.5426-9.2234 16.2766-15.734 35.266-6.5107 18.9894-14.649 41.234-18.4468 50.4574-32.5532 74.3298-33.0958 76.5-33.0958 208.883 0 103.6277-1.0851 124.2447-8.6808 135.0958-7.5958 10.3085-8.1383 16.8191-3.2553 42.8617 3.2553 17.3617 7.0531 42.3191 8.6808 55.8829 1.6277 13.5639 5.4255 31.4681 8.6809 39.6064 4.8829 12.47875 7.0531 14.10641 13.5638 8.68087 4.3404-3.79787 8.1383-8.68087 8.1383-11.39357 0-2.7128 7.5957-15.1915 16.2766-27.6703 9.2234-11.9361 16.2766-24.4148 16.2766-27.1276 0-3.2553 10.851-21.7021 24.4149-41.7766 13.5638-20.0745 24.4149-37.9787 24.4149-40.6915 0-2.1702 10.3085-20.0745 23.3297-40.1489 12.4788-20.0745 28.2128-46.1171 33.6383-58.0532 5.9681-11.9362 12.4788-22.7873 15.1915-23.3298 2.1702-1.0851 3.7979-4.3404 3.7979-7.5958 0-3.2553 10.8511-22.2446 24.4149-42.3191s24.4149-39.0638 24.4149-41.7766 6.5106-13.5638 14.1064-23.8723c7.5957-10.3086 18.9893-29.2979 26.0425-42.8617 7.0532-13.5639 19.5319-35.8086 28.2128-48.8298 8.6808-13.5639 18.4468-29.8405 21.70207-36.3511 21.7022-40.1489 28.2128-50.4574 44.4894-75.4149 29.2979-45.0319 26.0425-48.2872-49.37237-49.3723-62.9361-.5426-64.0212-.5426-77.0425 13.5638zm-796.46809-11.3936c-7.59575 7.0532-3.25532 22.2447 11.39362 42.8617 8.13829 11.3936 20.61702 32.0106 27.67017 45.5745 18.4468 34.1808 23.3298 42.8617 40.149 69.4468 8.1383 12.4787 20.0744 33.6383 26.5851 46.117 6.5106 12.4787 21.1596 36.351 32.5532 53.1702 11.3936 16.8191 20.617 33.0957 20.617 35.8085s8.6808 17.3617 18.9894 32.0106c10.3085 14.649 18.9893 29.2979 18.9893 33.0958 0 3.2553 1.6277 7.0532 4.3404 8.1383 2.1703.5425 8.6809 11.3936 14.649 23.3298 5.4255 11.9361 21.1596 37.9787 33.6383 58.0532 13.0213 20.0744 23.3298 37.9787 23.3298 40.1489 0 2.7128 10.851 20.617 24.4149 40.6915 13.5638 20.0745 24.4149 38.5213 24.4149 41.7766 0 2.7128 7.0531 14.6489 15.734 26.5851 8.6808 11.9362 17.3617 26.5851 18.9894 33.0957 8.6808 26.58514 22.2446 7.59578 30.3829-40.6915 2.7128-17.3617 7.5958-44.4893 11.3937-60.7659 5.968-26.5851 5.968-29.8404-3.7979-36.8936-9.766-7.0532-10.3085-16.8192-11.9362-138.8936-1.0851-73.2447-3.7979-133.4681-7.0532-136.7234-2.7127-2.7128-4.883-8.1383-4.883-12.4788 0-7.0532-3.2553-15.734-21.7021-58.0532-4.3404-9.2234-12.4787-31.468-18.4468-49.3723-6.5106-18.4468-13.5638-34.1809-16.8191-34.7234-9.2235-1.6277-23.8724 65.1064-23.8724 111.2234-.5425 23.8723-2.7128 46.117-4.883 49.9149-5.4255 8.6808-23.3298-7.0532-36.351-33.6383-5.4256-11.9362-21.1596-37.9787-33.6383-58.0532-13.0213-20.0745-23.3298-38.5213-23.3298-41.234 0-2.7128-8.6809-16.8192-18.9894-31.4681-10.3085-14.649-18.9893-29.2979-18.9893-32.5532s-5.4256-10.8511-11.9362-16.8192c-10.8511-10.3085-19.5319-11.3936-75.4149-11.9361-34.18085-.5426-64.56383 1.0851-66.19149 3.2553zm431.32979-123.1596c-9.766 5.9681-19.5319 16.2766-22.2447 23.3298-2.1702 6.5106-4.883 135.6383-5.4255 286.4681-1.0851 268.0213-.5426 274.5319 10.3085 288.0957 9.766 13.0213 10.3085 17.9043 5.4255 59.6809-2.7127 24.4149-8.1383 55.3404-11.9361 68.3617-10.8511 37.9787-5.4256 41.77657 60.7659 40.69147 40.1489-.54256 56.9681-2.71277 60.766-8.1383 4.8829-7.59577.5425-52.62767-6.5107-61.30847-2.1702-3.2554-5.4255-22.7873-7.0532-43.9469-2.7127-32.0106-1.0851-40.6914 7.5958-54.2553 9.7659-15.1915 10.3085-27.1276 9.7659-292.4361-.5425-219.1915-2.1702-278.8724-8.1383-287.0107-20.617-29.8404-61.851-38.5213-93.3191-19.5319zm83.0106 92.234c0 6.5107-9.2234 8.6809-42.8617 9.766-42.3191 1.6277-56.9681-2.7128-49.3723-15.1915 2.1702-3.7979 19.5319-5.4255 47.7447-4.3404 35.2659 1.0851 44.4893 3.2553 44.4893 9.7659zm-56.9681-188.8085c0 3.7979-3.7978 14.1064-8.1382 22.7873-11.9362 22.7872-7.0532 30.383 18.9893 30.383 26.0426 0 30.9255-7.5958 18.9894-30.383-4.3405-8.6809-8.1383-18.9894-8.1383-22.7873 0-3.2553-4.883-6.5106-10.8511-6.5106s-10.8511 3.2553-10.8511 6.5106z" style="stroke-width:.542553"/></svg>