<svg height="960" style="" width="1200" xmlns="http://www.w3.org/2000/svg"><path d="m555.29038 902.41324c-167.35745-215.18293-379.02145-487.84048-385.63901-496.76558-36.81081-49.64673-55.41015-118.96288-48.99363-182.58977 10.181-100.95574 72.70947-184.943615 158.81791-213.3232698 23.48342-7.739674 32.5802-9.06440401 62.38242-9.08452701 23.57994-.01592 29.12765.40602701 41.36623 3.14623301 43.60726 9.7636218 82.00674 31.8332298 112.66146 64.7507278 5.89955 6.335017 31.559 38.490966 57.021 71.457666 25.46201 32.96669 46.69956 59.82286 47.19458 59.68035.49502-.14252 22.52624-28.13797 48.95827-62.21212 30.24431-38.98863 52.62271-66.498653 60.37219-74.216206 34.24001-34.098995 75.83839-55.2879048 121.70987-61.9952048 17.82157-2.605857 53.29419-1.00123901 71.16807 3.219317 94.30587 22.2684218 165.12006 108.3859938 176.77326 214.9751038 6.7033 61.31478-9.1947 127.63368-42.5274 177.40264-5.1947 7.75623-313.51911 405.5702-434.04073 560.01882l-2.43667 3.12258z" style="fill:#36a288;stroke-width:.9628"/></svg>