<svg height="960" style="" width="2364" xmlns="http://www.w3.org/2000/svg"><path d="m642.83569 812.99678c-9.00108-1.80021-15.30183-.9001-20.70247-3.60043-11.7014-4.50053-23.4028-11.70139-35.10419-16.20193-27.90333-11.7014-55.80666-21.60258-82.80988-33.30397-30.60365-13.50161-60.30719-27.00322-90.91084-40.50483a42.044015 42.044015 0 01-9.00108-4.50054c-29.70354-10.80129-60.30719-21.60258-89.11063-34.20408-27.00322-11.7014-52.20622-26.10311-78.30934-38.70462-10.80129-4.50053-21.60257-8.10096-31.50376-13.50161-15.30182-7.20086-30.60365-13.50161-43.20515-24.3029-18.00215-15.30182-27.90333-36.00429-21.60258-61.2073v-9.00107c-.9001-.90011-.9001-2.70032-2.70032-3.60043-13.50161-18.00215-18.00215-38.70462-18.00215-61.2073.90011-90.91085 0-182.7218 0-273.63264 0-6.30075.90011-13.50161 1.80022-23.4028l15.30182-14.40172h31.50376c77.40924.90011 154.81847.90011 232.2277.90011a524.57357 524.57357 0 0053.10634-2.70032c11.70139-.90011 21.60258 3.60043 28.80343 12.6015 8.10097 11.7014 18.00215 18.00215 32.40387 18.90226 8.10097.90011 16.20193 8.10097 24.3029 11.7014l1.80021 36.9044h18.90226v-16.20193c-3.60043-20.70247 6.30075-32.40387 27.90333-33.30398h115.21374c9.90118 0 18.90225 1.80022 27.90333 7.20086 9.00107 5.40065 14.40172 14.40172 15.30182 25.20301 1.80022 18.00215 12.60151 28.80344 30.60365 28.80344 44.10526 0 88.21053-1.80022 132.31579-1.80022 28.80343-.90011 56.70676-.90011 84.61009.90011 18.00214 1.80021 33.30394-1.80022 49.50594-9.00108 0-9.00107-3.6005-11.70139-11.7014-13.50161-10.8013-2.70032-17.1021-9.00107-15.3019-22.50268 21.6026-20.70247 43.2052-44.10527 67.5081-63.90763 18.9023-16.20193 42.305-19.80236 69.3083-17.10204 29.7035 3.60043 61.2073 1.80022 91.8109.90011 16.2019-.90011 31.5038-.90011 45.9055 5.40064 16.2019 6.30075 32.4039 8.10097 50.406 8.10097 28.8034-.90011 58.507 0 87.3104 0h815.4973s-66.6079 92.71106-73.8088 98.11171c-15.3018.9001-27.0032 0-36.9044 9.00107-15.3018 14.40172-27.9033 30.60365-31.5038 52.20623-.9001 11.70139-2.7003 22.50268-3.6004 34.20408 0 13.50161-9.0011 21.60258-19.8024 28.80343h-18.9022c-5.4007-3.60043-11.7014-7.20085-15.3018-11.70139-12.6015-16.20193-29.7036-18.90226-47.7057-16.20193-7.2009.9001-472.5564 0-483.3577-.90011-11.7014-1.80022-23.4028-2.70032-32.4039 6.30075-3.6004 8.10097-.9001 14.40172 3.6005 21.60258 9.9012 17.10204 8.1009 34.20408 0 51.30612-3.6005 6.30075-7.2009 12.6015-.9001 21.60257 9.001 1.80022 20.7024 3.60043 31.5037 3.60043 81.0097.90011 477.957.90011 492.3588.90011 16.2019-.90011 30.6036-3.60043 39.6047-18.90225 3.6004-5.40065 9.0011-10.80129 10.8013-13.50161 27.0032-.90011 42.305 11.70139 43.2051 33.30397 1.8002 21.60257 7.2009 39.60472 23.4028 54.00644 4.5006 4.50054 8.101 10.80129 11.7014 16.20193 5.4007 10.80129 13.5016 14.40172 25.203 14.40172 8.101.90011 17.1021 1.80022 25.203 4.50054l57.6069 89.11063h-576.9688c-117.014.9001-233.1278 2.70032-349.2417 2.70032a242.38991 242.38991 0 01-36.0043-2.70032c-17.102-1.80022-32.4038 2.70032-46.8056 12.6015-7.2008 11.7014-7.2008 23.40279-3.6004 36.9044a104.41245 104.41245 0 012.7003 33.30397c-2.7003 33.30398-3.6004 65.70784.9001 98.11171 2.7004 17.10204 0 33.30397-18.9022 42.30504-4.5006 1.80022-10.8013 3.60043-16.202 3.60043h-234.92798c-27.90332-3.60043-39.60472-16.20193-36.00429-44.10526 5.40064-44.10526.90011-89.11063 2.70032-134.116.90011-20.70246-15.30182-42.30504-43.20515-38.70461-9.90118 1.80021-20.70247 3.60043-30.60365 4.50053-8.10097 0-15.30183-.9001-19.80236-9.00107-3.60043-6.30075-1.80022-13.50161 2.70032-19.80236 17.10204-19.80236 31.50376-41.40494 56.70676-50.40601 12.6015-4.50054 20.70247-13.50161 25.20301-25.20301 5.40064-13.50161 15.30182-18.00215 28.80343-20.70247 7.20086-.90011 15.30183-6.30075 21.60258-10.80129 2.70032-2.70032 3.60043-8.10096 4.50054-11.70139-15.30183-18.90226-45.90548-18.90226-61.2073 0-2.70033 2.70032-5.40065 7.20086-7.20086 10.80128-9.90118 17.10204-24.3029 25.20301-42.30505 26.10312-9.00107 0-18.00215 0-27.90333-.90011a106.12266 106.12266 0 00-36.9044 6.30075c-9.90118 3.60043-18.00215 9.00108-24.3029 18.00215-3.60043 4.50054-8.10097 9.00107-11.70139 13.50161-18.00215-1.80021-36.0043-9.00107-50.40602 8.10097l13.50161 27.00322c-4.50053 8.10096-8.10096 14.40172-12.6015 21.60257-10.80129 16.20194-23.40279 30.60366-31.50376 48.6058-12.6015 27.00322-26.10311 53.10634-40.50483 79.20945-9.00107 17.10204-8.10097 35.10419-3.60043 54.00644.90011 5.40065.90011 10.80129 1.80022 20.70247zm-34.20408-263.73146c-8.10097-16.20193-18.00215-26.10311-32.40387-29.70354-9.90118-2.70032-19.80236-2.70032-30.60365-2.70032-74.70891-.90011-148.51772 0-223.22663-.90011-31.50376-.90011-50.40601 15.30183-62.10741 39.60473-11.70139 26.10311-5.40064 37.8045 16.20194 47.70569 12.6015 6.30075 25.203 13.50161 38.70461 18.90225a661.94796 661.94796 0 0169.30827 28.80344c27.00322 13.50161 56.70677 24.3029 84.61009 36.00429 9.00108 4.50054 18.00215 8.10097 26.10312 12.6015 15.30182 8.10097 27.90333 8.10097 36.00429-1.80021 9.00108-10.80129 18.90226-20.70247 25.20301-32.40387 9.90118-19.80236 18.90225-40.50483 30.60365-59.40708 9.00107-12.60151 13.50161-27.90333 21.60258-45.90548zm1473.47579-305.13639c-12.6015-2.70033-18.0022-2.70033-24.3029 2.70032-8.101 6.30075-9.9012 16.20193-3.6005 23.40279 6.3008 7.20086 17.1021 8.10097 24.3029 0 6.3008-7.20086 9.0011-15.30183 3.6005-26.10311zm-30.6037 262.83135c5.4007 10.80129 14.4017 12.6015 21.6026 11.70139 4.5005 0 10.8013-3.60043 13.5016-7.20086 4.5005-5.40064.9001-10.80128-3.6004-15.30182-7.2009-8.10097-16.202-9.90118-27.0032-4.50054zm-635.4758-176.42105c12.6015-10.80129 19.8024-21.60257 10.8013-39.60472-2.7003 0-9.0011-.90011-10.8013-.90011-2.7003 0-8.101 1.80022-9.0011 1.80022-6.3007 19.80236-5.4006 30.60365 9.0011 38.70461zm.9001 151.21804c11.7014-4.50054 15.3018-17.10204 14.4017-25.20301 0-8.10096-10.8012-17.10204-18.0021-18.00214-13.5016 12.6015-9.9012 30.60365 3.6004 43.20515z" style="stroke-width:.900107"/></svg>