<svg height="960" style="" width="1200" xmlns="http://www.w3.org/2000/svg"><path d="m448.33301 280.2556c-3.9651 11.8954-2.4782 60.9641 3.4695 96.6505 3.9652 25.2778 6.939 61.9555 6.939 81.7812 0 41.1385 3.9652 50.06 20.3214 48.5731 21.3127-1.9826 24.2866 0 24.2866 14.3737 0 14.3736 24.2865 67.4075 39.6515 87.2333 14.8693 18.8344 69.8857 71.8683 74.8422 71.8683 2.9738 0 12.3911 5.4521 20.817 11.3998 25.7735 19.3301 58.486 33.7038 67.9032 30.7299 8.9216-2.9738 24.7822-30.2342 24.7822-43.121 0-3.9651-8.9216-10.9041-19.3301-15.3649-38.1646-16.8519-76.8248-65.425-95.6593-119.9458-10.9041-30.7299-11.3998-80.7899-1.4869-99.6244 3.9652-7.9303 7.4347-18.3388 7.4347-23.2953 0-6.939 4.4608-8.4259 22.7996-8.4259s24.7822-2.4782 35.6863-13.878c7.4347-7.9303 16.8519-15.8606 21.3127-17.3476 4.4608-1.4869 12.3911-12.3911 18.3388-24.2865 10.9042-22.304 33.2082-48.5731 53.5296-61.4598 6.4433-4.4608 10.4085-9.9129 8.9215-12.3911-1.9825-3.9652-333.0726-6.939-334.5595-3.4695zm-168.0232-40.6428c-9.4173 1.9825-23.7909 6.4433-31.7212 9.4172l-14.3737 5.9477 23.2953 21.8084c12.3911 12.3911 22.7996 24.7821 22.7996 28.2517 0 3.4695-34.6951 41.1384-77.3205 83.2681-42.12968 42.1297-79.30296 80.7899-82.27682 86.242-4.46079 7.9303 25.27783 39.6515 229.48302 244.3524 129.3631 129.363 238.9003 237.4134 243.8568 240.3872 7.9303 3.9652 21.3127-6.939 90.7028-75.8335 44.6079-44.6079 81.2856-83.2681 81.2856-86.242 0-8.4259-31.2256-42.1297-39.1559-42.1297-3.4695 0-33.2081 26.7648-65.9206 59.4772-32.2169 32.7125-59.9729 59.4773-60.9642 59.4773-1.9826 0-394.0368-391.5586-394.0368-393.5412 0-2.9738 123.4153-126.8848 126.3892-126.8848 1.4869 0 12.3911 10.4086 24.2865 22.7997 13.878 14.3736 25.2778 22.3039 31.2256 20.817 7.9303-1.4869 8.9216-8.9216 11.3998-79.7987 1.9826-62.9467.9913-78.3117-4.4608-80.2942-9.4173-3.4696-93.181-1.487-114.4937 2.4782zm234.9351-163.066797c-44.6079 44.607897-81.2856 83.268097-81.2856 86.241997 0 8.4259 31.7212 42.1297 39.1559 42.1297 3.9651 0 33.2081-26.7648 65.425-59.4772 32.2168-32.7125 59.9729-59.477297 60.9642-59.477297 2.9738 0 394.5324 391.558597 394.5324 394.036797s-123.9109 126.3892-126.3892 126.3892c-1.4869 0-12.3911-10.4086-24.2865-22.7997-13.878-14.3736-25.2778-22.3039-31.2256-20.817-8.4259 1.4869-8.9216 7.9303-8.9216 80.7899v79.303l44.1123 1.487c43.6167 1.4869 75.8335-2.9739 104.0852-13.878l14.3737-5.4521-23.2953-21.8084c-12.3911-12.3911-22.7996-24.7821-22.7996-28.2517 0-3.4695 34.6951-41.1384 77.3205-83.2681 42.12969-42.1297 79.30299-80.7899 82.27679-86.242 4.4608-7.9303-25.2778-39.6515-229.48299-244.3524-129.3631-129.363-238.9003-237.4133575-243.8568-240.38721744-7.9303-3.96515006-21.3127 6.93900994-90.7028 75.83352044z" style="stroke-width:.495644"/></svg>