<svg height="960" style="" width="1260" xmlns="http://www.w3.org/2000/svg"><path d="m625.69102-29.998224c-21.63966.0482-43.01925 1.060045-54.37116 3.083324-34.81263 5.973503-58.08525 11.754186-74.73485 18.88383-4.72989 2.119614-14.56865 10.598796-25.54223 22.160337-20.43349 21.196139-27.24296 25.048038-46.16279 25.048038-9.27087 0-13.05527.965575-16.83929 3.855992l-4.91926 4.044255 5.48585 9.056814c3.21649 5.009905 7.19038 10.790739 9.08227 12.910353 3.78402 4.624688 18.35127 16.380008 20.05398 16.380008 3.02719 0 12.48901 8.67218 12.48901 11.36991.18918 4.624563 3.97339 9.055263 14.75779 16.377573 21.37949 14.64463 48.62386 24.28027 68.30067 24.28027 12.86544 0 50.13632 5.00975 64.89391 8.86364 6.05438 1.54148 14.75737 2.69698 19.48739 2.69698 4.9192 0 12.29808 1.73344 16.64962 3.66038 14.75759 6.93698 34.05568 27.36254 44.83995 47.78788 2.27048 4.04656 4.73191 8.67187 5.67792 10.21335.946 1.54161 5.86284 9.82833 10.78203 18.30679 13.43311 23.12308 59.59872 86.32556 82.49187 113.10984 16.4603 19.07654 94.78915 99.23614 103.68141 106.17299 3.78402 2.89041 8.1357 5.20326 9.83853 5.20326 3.40554 0 2.45964-2.11928-6.81111-16.7639-2.83788-4.62457-5.10892-8.86306-5.10892-9.63386 0-.57814-1.13407-2.6984-2.45843-4.23988-3.40554-4.04656-8.8926-19.4629-8.8926-24.28027.18918-5.7807 6.8114-12.71643 14.75779-15.41417 10.78427-3.85377 10.21459-8.4798-2.84017-19.46333-24.78515-21.38881-28.56879-30.05921-15.51403-35.45458 6.43273-2.89042 6.24372-6.35985-1.89184-17.34339-12.86558-17.53504-17.02775-33.91274-13.62221-52.21847 2.08118-10.21273 3.78464-13.48837 10.0282-19.84722 5.8652-5.78082 8.51359-7.13108 10.59477-5.58959 5.10838 3.08308 4.72999 6.16756-.94591 7.51637-11.16275 2.69775-15.51368 12.13816-8.51328 18.30433 1.70282 1.54161 10.40544 9.24928 19.29771 16.95706 53.73256 47.01697 91.19437 85.36418 114.46587 116.96584 8.89242 11.94689 16.08062 22.15925 16.08062 22.73739 0 .578 2.4611 4.62528 5.4883 9.24997 5.4867 8.67112 20.2445 38.92219 25.5422 52.98868 18.5415 49.32938 20.054 55.49704 20.054 78.23478 0 15.41544-.7574 20.03979-4.1631 26.78409-5.2975 10.59807-19.6766 24.85776-42.9481 42.97094-26.10947 20.04-35.75774 33.14247-51.46133 69.3687-10.97357 25.82083-9.27019 30.83168 5.10893 15.22345 6.43285-7.12952 8.89177-8.67105 12.48661-7.90025 3.59472.96348 6.24306-.57853 12.48661-7.13004 8.70318-9.24926 14.18948-11.75401 17.40588-7.90025 3.2164 4.04656-.5676 10.21177-17.59553 29.48109-17.02795 19.07652-21.3785 27.94048-18.16213 36.80427 3.5947 9.24926 2.45986 16.38041-3.78369 23.51005-4.9192 5.3955-5.86517 7.89961-5.86517 16.57074 0 10.02006-.18911 10.40631-13.62222 24.28026-7.56803 7.90045-17.59509 17.34074-22.32514 21.1945-4.54084 3.66122-7.94724 7.51591-7.19041 8.28659.7567.7708 6.05481 1.15618 11.92001.96338 30.27176-.57801 74.92198-40.85098 106.13988-95.57573 6.8112-11.94701 24.5967-50.09989 29.7052-63.58838 18.5415-50.10005 22.1369-63.97358 40.3-157.04417 4.9192-25.05003 4.9173-100.58529.1873-125.24998-1.7027-9.05659-4.5389-23.31574-6.0525-31.79419-4.9192-25.82083-6.6235-32.37436-10.4075-40.66027-2.0812-4.23923-3.7837-9.24931-3.7837-10.98359 0-1.73427-.7566-3.27405-1.8918-3.27405-.946 0-1.8918-1.92796-1.8918-4.43303.1891-4.04656.1899-4.04511 2.2711-.38389 1.1352 2.11961 3.216 4.62318 4.7296 5.39398 1.3244.7708 2.4585 2.31302 2.4585 3.27649s3.9738 7.12943 9.0822 13.87374c8.3248 11.36887 10.2164 14.83646 16.46 29.48109 6.4328 14.83742 14.1912 44.89784 14.1912 54.9179 0 9.05646 1.8921 15.609 3.9733 14.26007 2.838-1.73415 1.8916-44.89721-1.1356-57.61489-1.5135-6.35897-2.6486-15.03095-2.8377-19.27017 0-9.8274-6.8127-48.94339-10.4076-60.50506-11.3519-36.99703-18.73-54.53168-25.1628-60.50505-6.0544-5.58817-8.7036-13.68321-6.0549-18.69312 1.892-3.66122 3.2171-4.04629 9.0823-2.89015 3.5948.7708 9.4599 3.27573 12.6763 5.97348 3.4055 2.50495 7.3794 4.6262 9.0822 4.6262 3.4055 0 3.0271-1.54232-4.9192-19.27016-4.5409-10.4054-29.8951-36.61078-51.4638-53.37502-19.6767-15.03009-30.27-25.82148-40.2976-40.08077-4.3516-6.35884-10.4059-13.29702-13.6222-15.416633-6.2436-4.23923-8.8929-10.01994-6.0549-12.91035 2.0812-2.11962 24.407-1.15536 32.3534 1.34972 7.9463 2.69762 3.7827-5.01023-8.3261-15.03029-17.7847-14.644627-37.27087-22.545513-75.67831-31.023968-49.75937-10.790739-74.35649-14.064717-84.57336-11.1743-4.35155 1.156141-7.56678 1.346983-8.32361.190716-1.892-3.275756-30.65048-15.222936-50.89479-21.00377-3.02719-.770803-10.40702-3.467536-16.08304-5.58715-41.62381-16.378903-76.43534-26.013825-114.84278-31.987366-12.39258-1.830585-34.29203-2.745157-55.93169-2.696983zm46.90704 16.130598c1.37651-.09602 2.78014 1.380685 2.78014 3.909787 0 3.083086-8.89178 10.59724302-12.48662 10.59724302-4.35154 0-3.02736-5.77976902 1.89184-7.51391902 2.45966-.963472 4.91869-3.275943 5.67552-5.010093.49663-1.300713 1.31322-1.92543 2.13912-1.983018zm28.70169 1.139441c1.37172-.120434 2.45843 1.035532 2.45843 3.540573 0 4.624679-24.21607 29.097187-28.75691 29.097187-5.48673 0-.56797-7.51621 10.59478-16.380005 5.29755-4.43202198 10.40551-9.827855 11.54069-12.140138 1.13518-2.60135 2.7913-3.99717 4.16301-4.117617zm-124.16273 48.240214c2.58248.0075 3.48849.558303 1.75018 1.738494-1.51351.963472-4.35213 1.926782-6.05484 1.926782-4.54085 0-6.62128 7.709392-2.64809 10.599684 1.70283 1.348936 3.02742 3.082748 3.02742 3.853551s2.08076 3.854277 4.72959 7.130032c7.56791 9.056589 5.67459 13.103525-6.43416 13.103525-7.75709 0-8.5133-2.11952-2.6481-6.936877 4.54072-3.853889 4.91895-4.819614 2.83776-7.9027-1.32435-1.926945-2.8367-4.81626-3.40436-6.550535-.56765-1.734275-4.54043-4.240292-8.70293-5.396433-6.24355-1.926945-8.13524-1.925943-10.59477.38634-1.89201 1.541606-4.73147 3.275405-6.43418 3.853538-5.29767 1.926945-4.35029 11.948483 1.51491 16.573175 4.73002 3.853892 4.91911 4.044262.94592 4.044262-2.08119 0-3.97334-.57696-3.97334-1.54044 0-.770674-3.02708-3.468521-6.8111-5.973474-8.51391-5.973503-7.94594-10.790976 2.08151-15.993676 4.16249-2.119614 9.26984-4.817362 11.35102-5.973478 2.08119-1.156154 7.94533-3.081797 13.24288-4.430608 6.81117-1.625859 12.90434-2.520051 16.22468-2.511162zm48.70524 5.041892c2.46832-.26448 9.63347 7.675929 9.80492 11.343007 0 1.156267 1.32422 3.274955 2.83776 4.623766 1.51365 1.348811 2.83775 4.238251 2.83775 6.550534 0 2.119627 1.32411 5.782599 2.83777 7.709539 4.35154 5.78071 3.97462 40.078273-.37693 47.978593-4.35167 7.70778-8.32555 11.75553-14.94745 15.41662-7.94639 4.4319-23.6507 9.24907-25.73189 7.90026-2.45954-1.5416 7.75765-10.21386 11.92002-10.40652 4.73002 0 17.78442-10.59815 22.32514-17.92046 3.21637-5.39537 3.97334-9.63279 3.97334-23.121273 0-10.59807-.94525-18.30606-2.64808-21.967155-1.51354-2.890417-3.40584-6.745107-3.97334-8.286587-1.51367-4.046559-5.29883-10.598483-8.32602-14.066908-1.32436-1.734275-1.89002-4.045169-1.13319-5.39398.14191-.216781.34487-.332082.6002-.359436zm262.57429 4.406145c1.89201 0 12.48771 6.550772 15.89337 9.633858 1.70271 1.541606 7.18859 6.358016 12.29696 10.597244 24.40668 20.618129 59.59772 56.075112 59.59772 60.314342 0 1.15614.56891 2.31166 1.51491 2.69699 2.45954 1.15615 10.21505 13.29464 9.07987 14.45079-1.32436 1.34893-7.56721-5.00956-16.2703-16.7639-8.51391-11.36887-26.29789-29.481113-45.5962-46.438143-8.51391-7.32232-16.651-14.645243-18.16453-16.186849-1.32435-1.54148-6.43086-5.587888-10.9717-8.863644-4.7299-3.468425-8.51569-6.936774-8.51569-7.900247 0-.770803.56794-1.540441 1.13559-1.540441zm-182.3872 30.830801c1.70283 0 3.4052.76964 3.78367 1.54044.94601 2.50508 23.83798 19.65406 25.91916 19.65406 1.13518 0 2.08151.77258 2.08151 1.73605 0 1.734153 5.48704 5.394633 14.75778 9.633863 2.27036 1.15614 4.16301 2.89056 4.16301 4.04671 0 2.89041-4.91852 2.31237-7.56736-.96339-1.32435-1.54148-3.97366-2.89015-6.05484-2.89015-1.89201 0-3.97228-1.34869-4.53994-2.89017-.75682-1.54161-2.45968-2.89015-3.97333-2.89015-3.9732 0-25.16531-17.150973-25.16531-20.426733 0-.7708-1.51185-2.5046-3.21468-3.85354-3.02719-2.31228-3.02768-2.50432-.18967-2.69699zm-251.09601 4.09072c1.30814.004 4.42767 1.56886 11.75918 5.54314 5.8652 3.08308 11.91949 5.78032 13.6222 5.78032 1.892 0 4.91957 1.34866 7.00076 2.89016 1.89201 1.54161 7.37727 2.89016 12.10729 2.89016s10.21817 1.15783 12.29935 2.69943c2.08119 1.541483 8.13451 3.082383 13.24288 3.660383 16.08194 1.54161 31.03001 9.44169 37.65192 19.84722 4.91919 7.32231 2.83615 7.32231-7.56977 0-12.6764-9.05659-22.89341-14.06573-32.35332-15.60734-4.54072-.77068-8.13395-2.11986-8.13395-3.08332 0-.9635-3.9734-1.73361-8.8926-1.73361-7.18956 0-23.65118-3.661613-31.78674-7.130043-6.24356-2.50507-19.8643-12.33313-19.8643-14.26007 0-.93936.13222-1.49869.9171-1.49643zm-124.41002 28.894253c-10.45622.0507-29.08509 8.25134-45.84107 20.77638-27.43389 20.61813-55.24525 57.42163-75.86804 100.19949-5.86507 12.33235-11.5411 24.08694-12.67628 26.01388-.946 2.11961-2.46038 5.97285-3.21709 8.67047-.946 2.69775-3.40515 9.82664-5.67551 15.60734-11.7304 31.02367-23.08169 74.18711-31.02808 116.57952-1.51353 8.47858-4.3525 23.7009-6.24451 33.72096-2.64871 14.25929-3.40627 27.36249-3.21709 59.73483 0 41.23626 1.70452 57.03793 9.4616 91.91535 1.51366 6.55151 2.6481 13.6804 2.6481 15.60735 0 5.01003 7.18883 27.7483 9.45919 30.06058 1.13518 1.15615 1.89184 3.85437 1.89184 6.16665 0 2.50508.94583 5.00902 1.89183 5.58715 1.13518.57801 1.89185 2.69876 1.89185 4.43304 0 2.31228-1.32394 1.73308-4.7296-2.50627-2.45954-3.27575-4.54043-6.55045-4.7296-7.51392 0-.96347-3.02708-5.01074-6.8111-9.24997-6.05437-6.93685-17.0275-28.51873-23.27106-45.8611-2.45953-6.55164-8.70326-36.41877-10.78444-50.67802-.56753-3.85389-1.70209-7.13004-2.6481-7.13004-2.83801 0-2.27056 42.77734.94592 60.50505 1.51354 8.47858 3.97281 25.63044 5.67552 37.77012 3.21636 23.50854 7.18903 41.23601 11.54069 51.64141 1.51354 3.46842 2.6481 7.70702 2.6481 9.63387 0 1.73427 1.32422 5.00992 2.83776 6.93686 1.51365 2.11962 2.83776 5.39626 2.83776 7.3232 0 5.39537 6.05438 17.34039 12.67628 25.04804 3.40567 4.04656 6.62326 9.24922 7.38009 11.94697 1.13518 5.01003-1.89256 12.71964-5.10893 12.71964-3.02719 0-18.35268-7.5167-19.67704-9.63632-.56753-.96347-2.83807-1.92677-4.91926-1.92677-3.02719 0-3.40443.96404-2.45843 5.20327 3.78402 16.18623 20.62338 37.1891 44.27336 55.49495 6.81108 5.2027 14.37783 11.37073 17.02655 13.68302 2.64883 2.31228 9.08281 7.89896 14.19119 12.33085 5.29767 4.62469 12.48591 12.71762 16.08063 17.92045 3.59484 5.39537 11.5408 14.64602 17.40588 20.42672 7.37886 7.32232 10.40759 11.56009 9.46159 13.29424-2.64884 4.04656-13.81194 4.81914-25.54222 1.73606-17.97395-4.81736-16.27057.96159 5.10893 18.11117 6.43272 5.2027 21.18812 12.33187 34.24276 16.76389 16.46042 5.58804 28.75853 8.47845 81.16661 18.88385 8.51404 1.54148 22.70509 2.69906 32.73266 2.50626 14.18994-.38534 18.16188.19205 20.99989 2.697 1.89189 1.73427 4.16292 3.27648 5.10893 3.27648.94588 0 7.19044 2.31236 14.00153 5.01011 6.81118 2.89041 15.13495 5.78023 18.16213 6.7437 3.21637.77068 10.40713 3.27731 16.08303 5.58959 5.67603 2.31229 16.46083 6.16552 23.65038 8.67048 7.37886 2.50507 15.32377 5.3939 17.97248 6.35737 5.29755 2.11962 20.24366 6.36103 36.89326 10.79293 68.6792 17.7277 153.25288 15.0302 219.47252-6.9369 10.21676-3.46847 29.32592-15.41691 29.32592-18.49999.18917-2.31228 19.67722-22.73812 24.5963-26.01388 2.64883-1.73427 12.48541-4.04517 21.75615-5.39398 26.67704-3.46842 28.75836-5.20372 22.51481-17.3434-5.67603-11.1762-28.37855-32.56442-34.6221-32.5644-2.45966-.00001-7.19084-6.36038-8.32602-11.56308-1.51365-5.97338-20.81195-19.26745-41.05626-28.13137-12.10876-5.39537-18.72954-6.74542-43.5147-9.44313-29.32588-3.08311-60.54492-7.51417-74.73483-10.59726-4.1624-.96347-11.163-2.11935-15.70372-2.89015-10.21674-1.34881-19.29758-7.13091-31.97399-20.42673-9.83827-10.4054-17.21705-21.00185-26.29849-38.15156-16.6496-31.40887-61.11049-94.03367-93.46356-132.18685-24.59586-28.71124-103.87212-108.68003-109.16967-110.02897-6.43285-1.73415-7.56624.38681-3.21469 6.55298 2.08118 2.89042 4.34982 6.54937 5.10652 8.09098.75683 1.5415 3.02775 5.39717 5.10893 8.67292 2.08131 3.08309 4.16255 7.129 4.91926 8.67048.56765 1.5416 2.27015 5.78155 3.78368 9.24997 1.51366 3.46855 2.6505 8.47863 2.6505 10.98358 0 6.55151-7.38003 14.45012-15.13711 16.1844-11.35193 2.31228-9.64804 6.74514 9.27192 25.24366 10.02757 9.63472 17.21621 18.30466 17.21621 20.42427 0 1.92694-3.02707 6.36006-6.81109 9.44314l-6.81111 5.78032 6.43177 8.67048c8.51392 11.947 10.78505 16.38113 14.00154 26.78653 5.48672 18.69118 2.08244 37.57423-8.32362 46.43814-3.78387 3.08309-6.43283 5.97204-5.86517 6.35738 4.16236 3.27576 11.16152 6.74606 15.13471 7.70953 5.48672 1.34881 16.83929 11.17554 16.83929 14.64397 0 1.15614-1.3241 2.11992-2.83776 2.11992-1.51353.00002-2.83776-.77012-2.83776-1.7336 0-1.73415-5.48656-5.39708-14.56812-9.63631-2.45954-1.15614-4.35268-2.69689-4.35268-3.66037 0-.96347-3.78325-3.6612-8.51327-5.97349-4.7299-2.3124-8.51567-5.01-8.51567-5.97347 0-.77081 3.78577-3.08365 8.51567-5.20327 7.00038-2.89041 8.51327-4.43038 8.51327-8.28414 0-5.58817-6.8105-12.71984-38.78509-40.66028-27.05552-23.50843-75.11253-72.06613-89.11329-90.1793-14.18994-18.11318-31.4083-44.3185-38.59784-58.38512-3.0272-5.97338-6.24252-12.52629-7.3777-14.45323-1.70271-3.46843-11.35207-27.5556-16.64962-42.00756-1.51366-4.23922-3.7836-9.82639-4.7296-12.52401-9.45992-24.08668-12.10788-59.7352-5.48586-72.83835 5.48673-10.98353 19.86534-26.39776 36.89326-39.30812 17.21714-13.29581 38.97478-34.10803 38.97478-37.38378 0-1.15614 1.13407-3.0813 2.45843-4.23744 2.64883-2.31241 11.73171-20.81262 19.11045-38.54033 4.54072-11.56154 6.24322-19.65406 3.78368-19.65406-2.83801 0-8.32601 4.23813-8.32601 6.55054 0 4.81723-11.54028 13.10311-16.2703 11.94697-3.40554-.96348-6.24356.77219-12.67628 7.51637-10.02757 10.40552-16.45996 11.5619-16.45996 3.08332 0-4.23922 3.59397-9.44265 15.32437-22.16032 17.02795-18.88387 24.02912-31.9858 20.81263-39.30812-3.97319-8.67112-2.46036-18.49993 3.59402-24.47343 4.91919-4.81724 5.67552-6.93564 5.67552-16.37756v-10.98359l13.81186-14.06691c7.37874-7.70765 16.83907-16.18569 20.62296-18.69067 7.75721-5.39535 10.40595-10.0215 6.81111-12.52645-1.41898-.90326-3.397-1.32476-5.80997-1.31305zm172.0037 7.64352c3.60324.0343 6.35735.75132 6.35735 1.76295 0 2.31228-7.00168 2.31228-12.29936 0-2.83801-1.34894-1.89101-1.73362 4.35267-1.73362.54395-.024 1.07459-.0342 1.58934-.0293zm15.43721 3.68971c7.18958 0 13.43462 2.69733 11.35343 4.81694-1.70283 1.73428-18.54146-1.15638-18.54146-3.08332 0-.96348 3.21485-1.73362 7.18803-1.73362zm163.02466 4.75337c15.6987-.25818 30.76376 4.90539 37.71674 13.16708 5.48685 6.74421-.37995 6.74421-10.40752 0-9.27074-6.35883-11.54008-6.93736-24.0273-7.13003-11.73028-.19267-14.5677.38599-19.29772 4.23988-3.02719 2.50507-6.62185 6.93623-7.75703 9.63386l-2.0815 5.20326-1.32524-4.62377c-1.32436-3.85389-.18977-5.78078 6.62144-11.94695 4.54072-4.23923 10.59536-7.70809 13.81185-8.09343 2.24674-.26496 4.50362-.41302 6.74628-.4499zm133.60513 18.37768c2.17089.0843 4.97788 1.14859 6.46778 2.88283 1.32448 1.54148 3.78352 2.89015 5.67552 2.89015 1.89201 0 4.35104 1.34869 5.67551 2.89017 1.32437 1.54161 3.9733 2.89015 5.86519 2.89015 1.89201 0 3.7855.77014 4.54233 1.73362.56753 1.15614 5.48727 4.04888 10.97411 6.9393 5.29755 2.69762 12.48685 6.55087 15.51404 8.67049 3.21636 2.11961 7.37801 4.62404 9.45919 5.7803 5.48685 2.8903 10.59423 6.16626 18.16213 11.94697 3.78402 3.08309 7.56919 5.39644 8.32602 5.39644 1.32436 0 23.46096 16.7627 26.48815 20.2311 1.13518 1.15616 6.24265 5.58975 11.35103 9.63631 13.62228 10.98353 27.62235 25.24261 26.10882 26.78409-.75683.57813-3.40373-1.15679-6.05244-4.23988-5.86521-6.35884-50.32747-40.851-52.9763-40.851-.94601 0-2.08248-.57941-2.46083-1.54288-.56765-1.54148-10.40612-8.6703-14.75779-10.59724-1.51353-.77081-5.2969-3.08365-8.51327-5.20327-3.02719-2.11961-7.37801-4.62417-9.45919-5.78032-2.08119-1.15614-6.24282-3.6607-9.4592-5.78032-3.02719-2.11974-7.38041-4.62416-9.46159-5.7803-2.08119-1.15615-6.24283-3.66071-9.4592-5.78032-3.02718-2.11962-7.37802-4.62662-9.4592-5.78277-2.08118-1.15614-6.24522-3.6607-9.46159-5.78032-3.02719-2.11961-7.94643-4.81733-10.78444-5.97347-3.02719-1.15615-5.29619-2.89008-5.29619-3.85355 0-1.26456 1.30293-1.7918 2.99141-1.72628zm-96.8343 13.48007c1.7027 0 3.02742.77063 3.02742 1.92679 0 .96344 1.32422 1.92676 2.83775 1.92676 1.70283 0 3.40581 1.35099 3.97334 2.8926.75683 1.54148 2.26954 2.89017 3.59402 2.89017 1.32435 0 3.40524 1.34867 4.7296 2.89015 1.32448 1.54161 4.35108 2.89017 6.62144 2.89017s5.29898 1.15537 6.43416 2.69698c1.51366 1.73415 7.94525 2.89153 20.05397 3.46966 10.40595.38534 18.92169 1.73452 20.24605 3.08333s7.94653 2.31065 16.64962 2.31065c9.27087 0 15.7026.96272 18.16214 2.697 2.08118 1.54148 5.86395 3.08431 8.3236 3.46965 3.2164.38534 4.92012 1.927 5.29859 5.01011.56753 4.04656.3787 4.23905-3.78367 1.92677-2.45953-1.34881-5.67677-3.46763-7.19043-4.62377-1.51353-1.34881-9.45999-2.69786-17.59555-3.08332-8.13556-.57801-15.70219-1.92769-17.02655-3.2765-1.13518-1.15614-8.3243-2.11994-17.40587-2.11994-15.51441 0-35.00281-5.0088-36.51634-9.4407-.37848-1.15613-1.51291-2.11992-2.64809-2.11992s-6.24506-3.46774-11.35343-7.70709c-5.48685-4.4319-8.32378-7.70955-6.43177-7.70955zm-30.4783 13.50453c1.39101-.19942 3.55257 1.60929 4.93607 5.18615 1.13518 3.08308 5.48649 11.94934 9.64885 19.84967 4.16237 7.90044 7.56736 15.41495 7.56736 16.76389 0 1.34881.75666 2.50382 1.89184 2.50382.946 0 2.45989 2.31285 3.02742 5.20327.75683 2.89041 2.45982 6.55132 3.97334 7.90026 1.32437 1.34881 2.46084 3.46957 2.46084 4.43304 0 3.27576-3.2179 1.73259-5.48826-2.69943-1.13518-2.31229-3.78399-6.93712-5.86518-10.0202-2.08118-3.27588-4.54034-7.51425-5.67552-9.63386s-3.59384-6.55079-5.48585-9.63387c-5.10837-8.09311-10.97451-20.42728-12.10969-25.62998-.5794-2.6977.0369-4.06766 1.11878-4.22276zm29.81087 8.64114c1.92973.23441 6.79189 5.64988 17.88364 19.47556 4.16249 5.01003 9.08209 10.79268 10.9741 12.71962 1.70283 1.92695 3.21709 3.85249 3.21709 4.4306 0 .57802 3.40499 4.24053 7.56736 8.47975 4.16237 4.04656 7.56735 8.4781 7.56735 9.82703 0 3.27576-29.51574-27.16925-40.30001-41.62121-4.73002-6.55151-8.13489-12.33284-7.56736-13.10352.16557-.16862.38215-.24132.65783-.20783zm118.51362 32.02647c1.01697.12044 2.76699 1.32364 5.69953 3.63592 2.64884 2.11962 6.05562 3.85355 7.3801 3.85355 1.51353 0 2.64808.77051 2.64808 1.92677 0 .96347 2.83898 3.08473 6.24452 4.62621 4.91919 2.11961 5.48657 2.89058 2.83776 4.04672-5.86522 2.31228-26.10882-9.44263-26.10882-15.22346 0-2.02328.28188-2.98617 1.29883-2.86571zm-113.1166 24.83286c2.08118 0 4.54107 5.97233 3.02742 7.51393-1.13518 1.15615-4.72959-3.46658-4.72959-6.1642 0-.77081.75616-1.34973 1.70217-1.34973zm6.15808 10.59726c.67254.0734 1.45604.79518 2.16553 2.11994 1.13531 2.11961 3.02868 4.43246 4.54234 5.20326 1.32435.7708 2.45843 2.31107 2.45843 3.46721 0 1.92695 1.89279 4.62623 8.13634 11.56308 1.70283 1.92695 3.21709 4.04564 3.21709 4.62377 0 .57801 1.32422 2.50561 2.83776 4.23986 7.00038 8.09315 36.89325 50.87054 36.89325 52.60481 0 1.15614 1.32424 2.50519 2.83777 3.08333 1.51366.7708 2.83775 2.31193 2.83775 3.85354 0 1.54148.94584 2.69699 1.89184 2.69699 1.13518 0 1.89185 1.54222 1.89185 3.2765 0 2.50495-1.51352 1.54086-5.86519-3.2765-3.21636-3.66109-7.7553-8.86289-10.02579-11.56064-7.75708-9.05659-27.62372-36.41973-27.62372-38.154 0-1.15614-1.32411-2.31252-2.83776-3.08332-1.51354-.57801-2.83776-1.92523-2.83776-3.27404 0-1.15615-2.46058-5.3961-5.29859-9.24999-3.02719-3.85389-6.05391-8.28555-6.62144-9.82703-1.70283-4.04654-5.48608-9.82775-8.51327-13.10351-1.32436-1.34881-1.70312-3.46762-1.13559-4.62376.28381-.43355.64563-.62354 1.04916-.5795zm68.76403 18.30677c1.32436 0 12.10975 7.70824 17.02895 12.14014 2.08118 2.11961 5.67668 4.43051 8.13634 5.39398 2.27036.96335 4.16061 3.08474 4.16061 4.62622 0 2.50495-.75507 2.69716-4.16061.77021-2.45966-1.34893-5.29898-3.27677-6.43416-4.43303-1.13531-1.15614-5.86525-5.20255-10.78445-8.86365-4.73002-3.66122-8.89261-7.32311-8.89261-8.28658 0-.77081.3784-1.34729.94593-1.34729zm14.28482 94.81286c.43457-.18708 2.31824 1.26793 4.63596 3.45987 2.64871 2.50495 4.7296 5.39635 4.7296 6.35982 0 1.15614-2.08089-.38608-4.7296-3.2765-2.64883-2.89041-4.72959-5.78181-4.72959-6.35981 0-.0964.0316-.15666.0936-.18338zm245.54536 28.54703c1.1378-.0313 2.6017 1.8065 3.3467 5.16659.7568 3.08309 2.4593 7.12792 3.7837 9.24754 1.5136 2.11961 2.6481 5.58991 2.6481 7.70953 0 2.11974 1.3241 5.58697 2.8377 7.51392 1.5136 2.11961 2.8402 5.97285 2.8402 8.67047 0 2.69775 1.3241 6.74598 2.8377 8.67293 1.5136 2.11961 2.8378 7.51312 2.8378 12.13768 0 4.62469.7567 8.28659 1.8918 8.28659 2.8381 0 4.3504 13.10292 2.4585 19.84723-1.7029 5.7807-1.8907 5.58963-3.4044-6.35738-.7568-6.93685-2.2711-13.10489-3.2171-13.68302-.946-.57801-2.2701-5.00929-2.8377-9.63386-.5675-4.62469-2.2697-10.21368-3.594-12.3333-1.5137-2.11961-2.6505-6.3581-2.6505-9.63385 0-3.08309-1.3241-7.51376-2.8378-9.44071-1.5135-2.11961-2.8377-5.97467-2.8377-8.47975 0-2.50496-1.3243-5.7816-2.8378-7.32321-1.5137-1.73427-2.8378-4.62407-2.8378-6.74369 0-2.44482.6876-3.59932 1.5726-3.62371zm-883.24154 34.64768c1.13518 0 1.89184 8.28659 1.89184 21.19694 0 12.91048-.75666 21.19449-1.89184 21.19449s-1.89185-8.28401-1.89185-21.19449c0-12.91035.75667-21.19694 1.89185-21.19694zm4.10538 57.47796c.71237-.15729 1.34775 2.50924 2.51846 9.00057 1.13518 6.35885 3.02578 14.06677 4.35026 16.95707 1.32436 3.08308 2.27117 7.70928 2.27117 10.59969 0 2.89042 1.3241 6.93668 2.83776 8.86365 1.51353 2.11959 2.83775 5.97272 2.83775 8.67047 0 2.69762 1.32424 6.74353 2.83777 8.67047 1.51365 2.11962 2.83775 6.36006 2.83775 9.44315 0 2.89041 1.32424 6.74265 2.83777 8.28413 3.21636 3.27576 3.78393 10.40653.94592 10.40653-.94601 0-2.45977-2.31334-3.02743-5.39642-.75682-2.89042-2.4592-6.9372-3.78368-9.05682-1.51353-2.11961-2.6481-5.58797-2.6481-7.90026 0-2.31238-1.32422-5.2016-2.83775-6.55053-1.51366-1.34881-2.83776-5.20155-2.83776-8.47731 0-3.27575-1.32411-7.70936-2.83776-9.63631-1.51353-2.11961-2.83776-7.51494-2.83776-11.94697 0-4.62456-.75857-8.67184-1.70457-9.24997-2.64884-1.73415-4.54059-15.80057-2.83776-20.8106.41385-1.1441.75416-1.79902 1.07796-1.87054zm907.64576 11.89073c2.2704 0 3.9726 23.70126 2.6481 36.80429-1.892 19.46199-4.3503 12.52564-4.3503-12.71719 0-13.29581.7562-24.0871 1.7022-24.0871zm-879.58748 82.85855c1.13518 0 1.89424 1.92759 1.89424 4.23988 0 3.66122-.38071 3.85272-1.89424 1.54044-.94601-1.54161-1.89184-3.46714-1.89184-4.43061 0-.77068.94583-1.34971 1.89184-1.34971zm233.07552 14.94715c1.00883.12659 4.01497 2.4557 7.3969 6.05662 4.35154 4.43202 7.38054 8.47929 6.62383 9.24997-1.32448 1.54161-14.38086-11.94719-14.38086-15.03028 0-.21681.12733-.30552.36013-.27631zm21.62411 23.65676c1.04055-.0306 2.62339 1.06632 3.36833 3.0173.75683 1.92694.1889 2.69845-1.13558 2.31311-1.13518-.38546-2.64655-1.92718-3.02502-3.08332-.49664-1.5175-.0171-2.22338.79227-2.24709zm5.08011 7.5995c1.1618-.12649 4.10614 2.40385 9.07266 7.75111 6.62203 6.93696 26.48964 33.336 31.03048 40.85098 1.13518 1.73428 6.43092 9.82734 11.91763 17.92046 5.29768 7.90045 9.83852 15.02933 9.83852 15.60734 0 .57813 1.3241 2.31207 2.83776 3.85355 3.40557 3.46842 3.78584 6.55297.75866 6.55297-1.13518 0-2.4599-1.73587-3.02743-3.66282-.56765-2.11961-2.08275-4.23879-3.59641-4.81692-1.51353-.57801-2.6481-2.31242-2.6481-4.04672 0-1.54144-.94583-2.89016-1.89183-2.89016-1.13518 0-2.46027-1.34917-3.21709-3.08332-.56753-1.73427-3.59376-5.78105-6.43177-9.0568-3.02719-3.27576-5.48825-7.12851-5.48825-8.47732 0-1.34893-.94583-2.50626-1.89184-2.50626-1.13518 0-2.64716-1.54027-3.21469-3.46722-.75683-1.73427-8.70413-13.48836-17.97488-25.8207-9.08156-12.33234-16.64962-23.12276-16.64962-23.70077 0-.62627.18893-.96523.5762-1.0074zm-32.92952 48.21577c.94588 0 2.64898 1.34867 3.97334 2.89015 1.32448 1.5416 3.40524 2.89017 4.7296 2.89017 1.13518 0 6.24457 3.85555 11.16377 8.67291 5.10837 4.81724 9.46005 8.67047 9.83853 8.67047.18917 0 2.83762 2.11919 5.67551 4.81694 2.83801 2.69762 4.16272 4.81694 3.02742 4.81694-2.08119 0-8.32545-4.81539-15.89336-12.1377-1.89201-1.73428-3.78263-3.27648-4.35028-3.27648-1.70271 0-13.24433-8.4791-13.81186-10.21337-.37847-.77068-1.8931-1.34971-3.40675-1.34971-1.51354 0-2.6481-1.34857-2.6481-2.89017 0-1.54148.75617-2.89015 1.70218-2.89015zm-137.32399 42.64572c1.7168-.0355 7.00204 4.14348 14.53451 11.50195 5.10838 4.81736 33.67707 26.78409 35.00143 26.78409.75682.00003 4.542 2.50358 8.32601 5.394 3.78402 3.08308 8.13521 6.16606 9.64886 6.93686 3.59472 1.73427 7.56812 4.2401 21.56888 13.29669 6.05438 4.04656 12.86435 8.2865 15.13471 9.24997 2.27036.96348 6.62167 3.46754 9.64886 5.58715 3.21649 2.11962 7.38042 4.62418 9.4616 5.78032 2.08119 1.15615 6.43201 3.66315 9.45919 5.78276 3.21637 2.11962 6.99975 4.43015 8.51328 5.20083 6.62203 3.27588 15.51478 10.21335 12.86595 10.21335-2.45954 0-40.86665-19.0759-51.65105-25.62753-1.892-1.34881-6.99949-4.43242-11.35104-7.13005-4.16236-2.50507-10.59635-6.35976-14.19119-8.28658-3.59484-2.11974-9.64864-6.16445-13.43253-9.24753-3.78401-3.08309-7.75694-5.5896-8.70294-5.5896s-4.35291-2.50456-7.3801-5.78032c-3.02719-3.08308-6.43168-5.7803-7.37769-5.78032-1.1353.00003-3.40572-1.54283-4.91925-3.46965-1.70283-1.73427-7.00133-6.74435-12.1097-10.98358-10.7844-9.24926-23.65038-21.77246-23.65038-23.12127 0-.46969.20642-.70334.60259-.71154zm238.96232 3.66528c1.04054-.0306 2.62338 1.06876 3.36833 3.01975.75683 1.92695.18877 2.696-1.13558 2.31066-1.13518-.38547-2.64907-1.92719-3.02742-3.08333-.49664-1.51749-.0146-2.22337.79467-2.24708zm6.88792 9.9664c.29102-.0113.73751.51898 1.39967 1.53065 2.45954 3.6611 2.45954 5.78032 0 5.78032-.946 0-1.89183-1.92564-1.89183-4.43059 0-1.95107.118-2.86515.49216-2.88038zm-41.35397 3.64815c2.00976-.18637 8.65473 6.99281 27.42686 28.52015 5.8652 6.7443 12.11002 13.87564 14.19121 15.60979 1.89201 1.92694 2.83833 4.62417 2.0815 5.78032-.946 1.34881-3.21626-.00066-6.8111-4.23988-3.02719-3.46855-8.70309-9.82768-12.67629-14.06691-3.78401-4.23923-10.02736-11.5602-13.6222-16.37756-3.59471-4.81724-7.56825-9.44257-8.8926-10.21337-1.32448-.77068-2.46083-2.31301-2.46083-3.27648 0-1.05378.20073-1.68388.76345-1.73606zm46.28043 5.59937c1.21932.0309 2.86991 1.52034 4.04057 4.2301 1.1353 2.50508 3.59433 6.9376 5.67552 10.21336 2.08118 3.08309 4.54034 7.51426 5.67552 9.63387s3.97463 7.51505 6.43416 11.94697c5.67603 10.02005 7.18874 17.92044 3.59402 17.92044-1.32448 0-3.02636-1.54026-3.59402-3.46721-1.70283-5.39537-2.46088-6.74414-7.38008-14.83713-2.45966-4.23935-4.54043-9.05858-4.7296-10.79286 0-1.73427-1.3241-4.23833-2.83776-5.58715-1.51353-1.34893-2.83776-3.66178-2.83776-5.20326 0-1.5416-1.32422-4.04554-2.83776-5.58715-1.51365-1.73415-2.83775-4.23884-2.83775-5.78032 0-1.85466.68661-2.71367 1.63494-2.68966zm-122.9119 27.08729c1.04056.024 2.45974.93974 3.97334 2.77035 1.32435 1.54148 4.91949 2.89016 7.94668 2.89016 3.02718 0 8.51294 1.35099 12.29695 2.8926 3.59484 1.54148 12.48704 2.89017 19.48738 2.89017 14.56844 0 24.59631 1.73442 24.59631 4.0467 0 2.89042-31.59652 1.92654-39.16443-1.15655-3.59484-1.54148-10.21657-2.89015-14.56812-2.89015-8.32486 0-16.27029-4.23908-16.27029-8.86365 0-1.73427.6616-2.6037 1.70218-2.57963zm78.1824 17.15269c.49063-.01.99589-.0101 1.51251 0 5.31375.10326 11.7121 1.22682 13.20206 2.96106 1.32436 1.54148 3.40512 2.89015 4.72959 2.89015 1.13518 0 4.35157 1.73445 6.81111 4.04671 2.45966 2.11977 6.62322 5.58748 9.27193 7.7071 3.40567 2.50496 3.97253 3.4677 1.70217 3.66037-1.70283 0-5.10817-1.92552-7.75701-4.43059-7.18956-6.35884-16.27231-10.98359-21.94821-10.98359-7.00038 0-13.6222-2.11976-13.6222-4.04671 0-1.18024 2.66368-1.73731 6.09805-1.8045zm-232.7178 29.42728c.88158-.0828 3.61405 3.56887 12.06888 14.96183 14.00064 19.07653 55.81282 60.31347 83.62504 82.85854 5.67603 4.4319 9.45977 8.67199 8.70295 9.24997-.75684.77081-1.70316.19227-2.08151-1.15654-.56765-1.15614-2.27015-2.31311-3.78368-2.31311-2.64884 0-12.86514-7.32196-23.27106-16.76389-34.0559-30.63819-60.54365-57.99944-60.54365-62.23867 0-.7708-1.3241-1.92876-2.83776-2.69943-1.51353-.57814-2.83775-2.31256-2.83775-4.04671 0-1.54161-.75667-2.89016-1.89185-2.89016-.946 0-2.27059-2.11918-3.02742-4.81693-.56765-2.69762-1.89175-4.81694-2.83776-4.81694-.946 0-1.70218-1.5422-1.70218-3.27648 0-1.2043.017-2.01385.41775-2.05148zm336.3368 2.5454c.14522-.0146.27788.0132.39613.0856 8.32473 5.2027-14.9463 25.8207-29.13624 25.8207-9.83827-.19266-25.92011-6.74468-32.16367-13.10352-7.94638-7.90032-5.1068-11.56124 3.59642-4.81693 3.78401 2.89029 9.83819 6.55195 13.62221 8.09343 8.70309 3.46855 26.67541 5.00827 26.67541 2.31065 0-.96347 2.27139-3.08166 5.29858-4.43059 2.83801-1.34881 6.24337-5.20451 7.75702-8.67293 1.32435-3.03486 2.93755-5.18367 3.95414-5.28639zm43.5339 9.14238c9.27074.38534 10.78557 3.46705 2.46084 5.39399-13.24394 3.08309-23.8387 10.79191-29.13625 21.3901-4.54072 9.05646-5.10829 35.06904-.94592 43.35482 1.51366 2.8903 3.40581 6.74499 3.97334 8.28659 1.51366 4.04656 5.48573 10.59641 8.32362 14.25764 2.08118 2.50493 2.08203 3.85531.37932 5.58959-1.70283 1.73427-2.46038 1.34899-3.21709-1.92677-.56765-2.31228-2.27014-4.62513-3.78367-5.20326-1.51365-.57814-2.65049-2.31145-2.65049-3.66038 0-1.54148-1.32411-3.85433-2.83777-5.20327-1.51353-1.34881-2.83775-4.2407-2.83775-6.55299 0-2.11961-1.32422-5.78027-2.83776-7.70708-2.08118-2.69775-2.83776-9.05623-2.83776-22.73739 0-16.57157.56674-19.84819 4.53993-26.20703 4.91907-8.09312 7.9469-10.98315 16.83929-15.80051 3.59484-2.11961 9.45974-3.27405 14.56812-3.27405zm48.52039 11.25255c1.24261.0919 3.66334 1.82612 8.23958 5.51135 3.97309 3.08309 7.94697 5.78031 9.08227 5.78031.94589 0 2.83853 1.34869 4.16301 2.89017 1.32436 1.5416 4.35156 2.89015 6.8111 2.89015 2.27048 0 5.48674 1.15735 6.8111 2.50627 1.32436 1.5415 7.94621 3.08287 14.56812 3.85355 6.62203.57813 12.86394 1.92718 13.99912 3.08332 1.13518 1.15615 5.48699 2.1175 9.83853 2.1175 4.35155 0 9.46191 1.35112 11.54309 2.8926 1.89201 1.5416 5.10636 2.89016 6.99837 2.89016s3.78502 1.15538 4.35267 2.69699c.56753 1.54148 3.0268 3.27554 5.67552 3.85355 2.45965.7708 4.54234 2.11985 4.54234 3.08332 0 2.89042-6.81277 2.3125-9.46161-.96338-1.32435-1.54148-4.1614-2.89016-6.43177-2.89016-2.08118-.00001-5.67534-1.34868-7.56735-2.89016-2.08119-1.54161-5.86684-2.89016-8.51567-2.89016-2.64884 0-7.37794-1.34856-10.40512-2.89016-2.83802-1.54148-9.272-2.8926-14.19119-2.8926-4.73002-.19267-10.78382-1.34868-13.43254-2.89016-2.64883-1.54161-6.62225-2.69749-8.89261-2.89016-9.08156 0-28.94658-14.06494-28.94658-20.23111 0-1.77037.25314-2.69267 1.21962-2.62119zm34.0483 1.82163c3.60332.0343 6.35495.75132 6.35495 1.76294 0 2.31229-4.53983 2.31229-11.35103 0-3.97319-1.34881-3.59591-1.54324 3.40435-1.73604.54395-.024 1.07697-.0318 1.59173-.0269zm12.66908 3.76063c1.77374-.0722 4.56554.31492 8.63332 1.08564 6.8112 1.34882 7.94572 4.62376 1.70217 4.62376-6.43286 0-12.86594-2.11976-12.86594-4.04671 0-1.0598.7567-1.59043 2.53045-1.66269zm-232.73701 11.58753c1.41901 0 3.16757.67332 4.49192 2.02213 2.27049 2.31228 8.70389 6.35956 14.94744 9.24997 5.8652 2.69775 24.59734 20.80945 23.0838 22.35106-.75682.7708-8.13762-3.85258-16.46236-10.40409-8.32486-6.55163-16.08103-11.75624-17.21621-11.75624s-2.4599-1.15551-3.02742-2.69699c-.56766-1.54161-2.64842-3.08225-4.72961-3.66038-1.89201-.57801-3.594-1.92719-3.594-3.08333 0-1.34881 1.08744-2.02213 2.50644-2.02213zm295.63106 29.00183c.27492-.015.60591.0462.98433.19073 1.32436.38534 2.8386 1.92511 3.21708 3.27404.56752 1.54148-.18852 2.31419-1.70217 1.73606-1.32436-.38534-2.83874-1.92756-3.21709-3.2765-.42574-1.1561-.10696-1.87918.71785-1.92433zm-108.55987 7.51148-5.86519 6.16665c-3.21637 3.27575-5.86518 6.5524-5.86518 7.3232 0 .57801 2.45867 3.85221 5.48586 7.32076 4.73002 5.01003 7.00017 6.16665 13.62219 6.16665 4.7299 0 9.45952-1.34722 11.5407-3.27404 4.16237-3.85389 4.54218-13.29797.56899-14.83957-1.51365-.57801-2.83775-1.92719-2.83775-3.08333 0-3.85389 5.10749-1.73213 11.35104 4.81938 7.56803 7.90045 6.81104 10.78881-3.97335 17.14779-11.73028 6.74414-38.59616 12.52585-41.81252 9.24997-1.70283-1.73415-.75717-2.31311 3.78367-2.31311 7.37873 0 9.83692-4.43067 5.2962-9.44069-1.70283-1.92698-3.02503-4.23979-3.02503-5.20327 0-.96345-2.27234-3.85242-4.732-6.35737-5.8652-5.58816-6.05295-8.67229-.37692-11.36991 2.27036-1.15614 7.00006-2.11994 10.59478-2.11994zm-111.37602 53.11094c3.91068-.0503-2.4462 10.62846-11.2262 16.64409-3.59484 2.31228-8.70219 7.70932-11.35103 11.56308-4.91919 6.93704-8.32601 8.09194-8.32601 2.50383 0-2.89042 21.75865-26.01254 27.62373-29.48109 1.47813-.84303 2.55531-1.22059 3.27951-1.22991zm11.43026 20.24579c1.84463-.0774 3.07544.68571 3.07544 2.37179 0 1.54148-2.27046 3.85445-4.91926 5.20326-2.64885 1.54161-5.67556 4.23977-6.62144 6.16667-1.1353 1.927-2.6509 3.082-3.78608 2.5038-3.21636-2.1196-1.70162-7.51507 3.40675-11.94696 3.08635-2.70977 6.4729-4.19907 8.84459-4.29856z" style="stroke-width:1.24051"/></svg>