<svg height="960" style="" width="918" xmlns="http://www.w3.org/2000/svg"><path d="m207.3304-23.333253c-3.8889 3.88894-6.6667 16.1112999-6.6667 27.2225399 0 11.6668001-2.7778 21.6669201-6.1112 22.7780401-3.3334 1.11113-7.2223 18.33355-8.889 37.77822-1.6667 20.00023-6.1112 46.667213-10.5557 60.000693-4.4445 12.77792-7.7778 36.66712-7.7778 52.77842s-2.7779 32.2226-5.5557 35.0004c-3.3333 3.3333-8.3334 24.4447-11.1112 47.2227-2.7778 22.7781-7.2223 50.0006-10.5557 60.5563s-6.1112 30.5559-6.1112 44.445c0 13.889-2.7778 28.3336-6.6667 32.2226-3.8889 3.8889-6.6668 23.8891-6.6668 46.6672l-.5555 40.556 125.0014 1.6667c68.8897.5555 128.3349 2.2222 132.2238 3.8889 5.5556 2.2223 5 6.1112-1.6667 18.8891-4.4445 9.4446-8.3334 22.2225-8.3334 29.4448s-3.889 17.778-8.3335 23.3336c-4.4445 6.1112-8.3334 17.2224-8.3334 25.0003s-3.8889 19.4447-8.3334 25.0003c-4.4445 6.1112-8.3334 19.4447-8.3334 29.4448s-2.2223 18.3335-5.5557 18.3335c-2.7778 0-6.6667 9.4446-8.3334 20.5558-1.6667 11.6668-7.2223 27.7781-11.6668 36.1116-4.4445 7.7778-7.7779 20.5557-7.7779 27.778 0 6.6668-3.8889 17.778-8.3334 23.3337-4.4445 6.1111-8.3334 17.2224-8.3334 25.0002 0 7.7779-3.889 19.4447-8.3335 25.0003-4.4445 6.1112-8.3334 15.0002-8.3334 20.5558 0 5.0001-3.8889 16.6669-8.3334 25.0003-4.4445 8.889-8.3334 22.2225-8.3334 30.0004 0 7.7778-3.889 18.8891-8.3335 24.4447-4.4445 6.1112-8.3334 16.6668-8.3334 23.8892 0 7.2223-3.8889 19.4446-8.889 27.2225-7.2223 10.00005-7.7779 15.55565-3.3334 20.00015 7.7779 7.778 15.0002-.5554 82.2232-98.33435 28.8892-42.7783 66.6674-97.779 83.8899-122.2237 88.3343-125.557 117.7791-171.6686 111.1124-176.1131-3.889-2.2223-16.1113-4.4445-27.7781-4.4445h-21.1114l1.6667-51.1117c1.6667-43.3339 3.3334-51.6673 11.1112-53.334 8.3335-1.6667 9.4446 3.3334 8.3335 41.6672l-1.1112 43.3338 65.5564 1.6667 65.0007 1.6667v60.0007c0 66.6674 1.6667 70.0008 35.0004 72.223 38.8894 1.6667 42.2227-3.3333 43.8894-70.5563l1.6667-59.4452 58.334-2.7778 58.334-2.7778v-36.1115-36.1116l-47.2228-1.6666c-77.2231-2.2223-72.223 2.2222-72.223-62.223v-55.0006l-18.3336-3.3334c-10.0001-2.2222-27.2225-2.7778-37.7782-1.6667l-18.8891 1.6667-1.6667 55.5562c-1.6667 57.7784-6.1112 70.5564-20.0002 58.8896-6.1112-5.5556-7.2223-10.0001-3.3334-17.2224 3.3334-5.5557 5.5556-34.4449 5.5556-63.3341v-53.334h41.6672c38.3338 0 43.3338-1.1111 55.5562-14.4446 7.7779-8.3334 13.889-17.2224 13.889-19.4446 0-2.7779 5.5557-9.4446 11.6668-15.5558 7.2224-6.6667 10.5557-14.4446 8.889-19.4447-3.3333-7.7778-23.3336-8.889-159.4463-8.889-137.2238 0-156.1129-1.1111-159.4462-8.8889-2.7779-8.3335 25.0002-67.7786 56.6673-121.6681 7.2223-12.2224 13.3335-25.55587 13.889-29.44481 0-3.88893 6.1112-15.55573 13.3335-25.000293 20.0002-26.66697 55.0007-103.33453 51.1117-112.22352-2.2222-7.22231-27.7781-8.33343-160.5574-8.33343-115.0013 0-158.8907 1.66669-163.8908 6.66674z" style="stroke-width:.555562"/></svg>