<svg height="960" style="" width="1584" xmlns="http://www.w3.org/2000/svg"><path d="m287.99947 0-167.99927 167.99927v624.00146l167.99927 167.99927h1008.00113l167.9992-167.99927v-624.00146l-167.9992-167.99927zm48.00109 120h911.99884l96.0004 96.00037v527.99926l-96.0004 96.00037h-911.99884l-96.00036-96.00037v-527.99926zm216.00037 107.99927c-36 0-84.00146 120.0011-84.00146 168.0011h168.00109c0-48-47.99963-168.0011-83.99963-168.0011zm240 0c-36 0-84.00146 120.0011-84.00146 168.0011h168.00109c0-48-47.99963-168.0011-83.99963-168.0011zm239.99997 0c-35.99997 0-84.00143 120.0011-84.00143 168.0011h168.00113c0-48-47.9996-168.0011-83.9997-168.0011zm-564.00143 216.00036v276.00037h168.00109v-276.00037zm240 0v276.00037h168.00109v-276.00037zm240 0v276.00037h168.00113v-276.00037z" style="fill:#8d6cc7;stroke-width:.9375"/></svg>