<svg height="960" style="" width="1200" xmlns="http://www.w3.org/2000/svg"><path d="m120 0v44.65116 915.34884h960v-960zm102.03488 89.30233h65.23257l-34.79652 34.79651-32.61628-32.61628zm130.42151 0h65.23256l-99.98546 100.02907-32.61629-32.61629zm130.46511 0h65.23256l-165.26161 165.21803-32.61629-32.61629zm130.46512 0h65.14535l-230.40696 230.45059-32.61629-32.61629zm130.37791 0h65.23256l-295.63952 295.68314-32.61629-32.61629zm130.46512 0h65.23256l-360.91571 360.87208-32.61627-32.61627zm116.46802 13.95348v759.06977l-20.84302-20.84303-29.21513 29.21512h-65.23253l61.83139-61.83139-32.61629-32.61629-94.44768 94.44768h-65.14533l127.02034-127.02034-32.61629-32.61629-159.63661 159.63663h-65.23256l192.2529-192.2529-32.61629-32.61629-224.86917 224.86919h-65.23256l257.48547-257.48546-32.6163-32.61629-290.10173 290.10175h-65.14535l322.67442-322.67441-32.61627-32.61627-355.29071 355.29068h-65.23256l387.90698-387.90697z" style="stroke-width:22.3256"/></svg>