<?xml version="1.0" encoding="UTF-8" standalone="no"?>
<svg
   xmlns:dc="http://purl.org/dc/elements/1.1/"
   xmlns:cc="http://creativecommons.org/ns#"
   xmlns:rdf="http://www.w3.org/1999/02/22-rdf-syntax-ns#"
   xmlns:svg="http://www.w3.org/2000/svg"
   xmlns="http://www.w3.org/2000/svg"
   xmlns:sodipodi="http://sodipodi.sourceforge.net/DTD/sodipodi-0.dtd"
   xmlns:inkscape="http://www.inkscape.org/namespaces/inkscape"
   height="960"
   style=""
   width="995"
   version="1.1"
   id="svg8"
   sodipodi:docname="uf0153-super.svg"
   inkscape:version="1.0.1 (3bc2e813f5, 2020-09-07)">
  <metadata
     id="metadata14">
    <rdf:RDF>
      <cc:Work
         rdf:about="">
        <dc:format>image/svg+xml</dc:format>
        <dc:type
           rdf:resource="http://purl.org/dc/dcmitype/StillImage" />
      </cc:Work>
    </rdf:RDF>
  </metadata>
  <defs
     id="defs12" />
  <sodipodi:namedview
     pagecolor="#ffffff"
     bordercolor="#666666"
     borderopacity="1"
     objecttolerance="10"
     gridtolerance="10"
     guidetolerance="10"
     inkscape:pageopacity="0"
     inkscape:pageshadow="2"
     inkscape:window-width="1752"
     inkscape:window-height="1057"
     id="namedview10"
     showgrid="false"
     inkscape:zoom="0.33440258"
     inkscape:cx="239.74682"
     inkscape:cy="536.62538"
     inkscape:window-x="160"
     inkscape:window-y="-8"
     inkscape:window-maximized="1"
     inkscape:current-layer="svg8" />
  <g
     style="stroke-width:.94444758249"
     id="g6">
    <path
       d="m485.0602540878-19.8401576432-64.3771049956 316.0394482239a16.20235096469 16.20235096469 0 01-22.8799140272 11.3764673113l-310.8423360918-149.0038231012a19.04333195465 19.04333195465 0 00-22.0197035367 30.3076681348l220.0173874901 230.9505863028a87.22797947915 87.22797947915 0 01.0006647327 120.332232189l-220.0188870034 230.9572954654a19.04392557641 19.04392557641 0 0022.0205383173 30.3084565387l310.8423360918-149.0038231012a16.20235096469 16.20235096469 0 0122.8799140272 11.3764518524l64.3771049956 316.0393554705a12.69522170326 12.69522170326 0 0024.8795072833 0l64.3771049956-316.0393554705a16.20235096469 16.20235096469 0 0122.8799140272-11.3764518524l310.842305174 149.0038231012a19.04392557641 19.04392557641 0 0022.0205383173-30.3084565387l-220.0188560856-230.9572954654a87.22797947915 87.22797947915 0 01.0006647327-120.332232189l220.0173411134-230.9505863028a19.04333195465 19.04333195465 0 00-22.0196880778-30.3076681348l-310.842305174 149.0038231012a16.20235096469 16.20235096469 0 01-22.8799140272-11.3764673113l-64.3771049956-316.0394482239a12.69522170326 12.69522170326 0 00-24.8795072833 0zm16.5865649194 295.832795397 15.799768745 77.5598365596a48.60720439129 48.60720439129 0 0068.6401903897 34.1288299546l56.8957394228-27.2737817153a11.42592249665 11.42592249665 0 0113.2118561316 18.1843968234 149.85845138291 149.85845138291 0 003.6987273318 206.6988031129 11.25829546039 11.25829546039 0 01-16.9105834634 14.3018477117l-56.8957394228-27.2737817153a48.60720439129 48.60720439129 0 00-68.6401903897 34.1288454135l-15.799768745 77.5598211007a4.23197250278 4.23197250278 0 01-8.2936070966 0l-15.799768745-77.5598211007a48.60720439129 48.60720439129 0 00-68.6402058486-34.1288454135l-56.8957394228 27.2737817153a11.42592249665 11.42592249665 0 01-13.2118561316-18.1843968234 149.85845138291 149.85845138291 0 00-3.6987273318-206.6988031129 11.25829546039 11.25829546039 0 0116.9105834634-14.3018477117l56.8957394228 27.2737817153a48.60720439129 48.60720439129 0 0068.6402058486-34.1288299546l15.799768745-77.5598365596a4.23197250278 4.23197250278 0 018.2936070966 0z"
       style=""
       id="path4" />
  </g>
</svg>
