<svg height="960" style="" width="1175" xmlns="http://www.w3.org/2000/svg"><path d="m120.13222 697.31045c-3.55499 5.688 35.54989 67.5448 56.16879 89.5858 4.266 4.266 17.775 20.6189 29.151 35.5499 12.0869 14.9309 45.5038 52.6138 76.0768 83.1867 61.1458 63.2789 81.7647 69.6778 92.4297 27.729l6.399-23.463 36.9719 4.266c20.6189 2.133 58.3018 7.821 83.8977 12.087 26.307 4.266 64.7009 5.688 85.3198 3.555 93.8517-9.954 140.0666-17.775 153.5756-25.596 8.532-4.266 20.6189-7.8209 27.7289-7.8209 19.1969 0 115.8927-49.0589 171.3505-87.4528 51.9029-35.5499 113.75969-95.2737 106.64969-102.3837-4.977-4.266-54.74679 24.8849-54.74679 32.7059 0 2.844-31.2839 20.6189-68.9668 39.1049-38.3939 18.4859-78.9208 38.3939-89.5858 44.0819-11.3759 5.688-29.1509 9.9539-39.1049 9.9539-10.6649 0-28.4399 4.977-39.8159 10.665-29.1509 15.642-249.5603 14.931-286.5322 0-13.5089-5.688-32.7059-10.665-41.2378-10.665-22.041 0-30.573-12.7979-33.417-49.7698l-2.1329-31.9949-35.5499-4.266c-19.197-2.844-46.9259-8.532-60.4349-12.798-13.5089-4.266-34.8389-7.821-46.9258-7.821-12.798 0-31.995-4.977-42.6599-10.6649-11.376-5.688-27.729-10.665-36.2609-10.665-8.532 0-17.77498-3.555-19.90797-7.11-5.68799-9.243-22.75194-9.243-28.43992 0zm515.47359-506.9416c-5.688 2.133-39.8159 17.775-76.0768 34.8389-35.5499 17.775-80.3428 34.8389-99.5397 39.1049-68.9668 14.931-77.4988 17.775-111.6267 38.3939-56.8799 34.8389-93.1408 67.5448-95.9848 88.1638-4.9769 31.2839-3.555 215.4324 2.133 250.9823 4.266 29.1509 7.821 34.8389 24.174 37.6829 10.6649 2.844 34.8389 9.2429 54.0358 14.9309 18.486 4.977 46.2149 9.954 60.4348 9.954 14.22 0 29.151 2.844 33.417 7.11 3.5549 3.555 22.7519 8.532 41.9488 11.3759 19.908 2.133 47.6369 8.532 62.5679 14.22 14.2199 5.688 37.6829 9.954 50.4808 9.954 12.798 0 35.5499 4.977 49.7699 10.6649 17.7749 7.821 29.8619 9.243 38.3939 4.266 7.11-4.266 16.3529-4.266 24.8849 0 13.509 7.821 33.4169-2.133 95.9847-45.5038 26.307-19.197 29.862-24.885 29.862-49.0589 0-14.931 2.8439-27.0179 6.3989-27.0179 16.353 0 29.151-24.174 29.151-54.0359 0-25.5959 3.5549-34.1279 22.0409-50.4808 22.0409-19.908 23.4629-29.151 12.087-90.2968-1.422-9.954 2.8439-14.9309 15.6419-18.4859 14.931-3.555 17.775-8.532 19.908-34.8389 2.844-41.9489-6.399-50.4809-56.1689-50.4809-22.7519 0-62.5678-4.977-88.8747-11.376-26.307-5.6879-52.6139-8.5319-59.0129-5.6879-6.399 2.8439-27.0179 5.6879-46.9258 6.3989-19.197.711-40.5269 2.844-46.2149 4.266s-11.376-.711-12.798-4.266c-1.422-4.266 2.844-8.5319 9.243-9.2429 6.399-1.422 24.1739-15.642 39.8159-31.9949 29.1509-31.284 34.1279-51.9029 20.6189-86.0308-6.399-18.486-24.1739-22.752-49.7698-13.509zm53.3248 457.8828c-4.977 14.2199-5.688 14.9309-12.0869 3.5549-3.555-6.3989-4.977-17.0639-2.844-23.4629 7.1099-18.4859 20.6189.711 14.9309 19.908zm113.0487-635.632293c-9.243 31.28391-13.509 33.41691-60.4348 31.28391-24.885-.71099-56.1689-4.97698-68.9668-8.53197-35.5499-11.37597-229.6524 5.68798-246.0053 22.04094-3.555 3.55499-12.798 7.11001-19.908 7.11001-19.1969 0-115.8927 47.636803-164.9515 80.342703-44.0819 30.573-118.0257 96.6958-118.0257 105.9388 0 10.6649 12.79796 5.6879 36.2609-14.931 12.798-11.376 54.0358-35.5499 91.0077-54.0359 100.9618-49.0588 108.0717-51.9028 140.7776-56.8798 17.064-2.844 31.995-7.821 34.839-11.376 2.1329-3.555 59.7238-6.399 127.9796-6.399 94.5627 0 130.1126 2.844 150.0206 10.665 13.5089 5.688 32.7059 10.665 41.2379 10.665 22.0409 0 30.5729 12.798 33.4169 49.7698l2.133 31.995 39.1049 4.266c21.3299 2.844 48.3478 8.5319 59.0128 12.7979 11.376 4.266 31.9949 7.821 46.2149 7.821 14.2199 0 32.7059 4.977 39.8158 10.665 7.821 5.688 22.752 10.6649 33.417 10.6649 10.66489 0 22.04089 2.844 24.17389 7.11 5.688 9.243 31.9949 9.243 31.9949 0 0-19.1969-83.89779-125.1356-164.24049-207.611413-54.0359-56.16883964-81.0538-68.96681-88.8748-43.37088z" style="stroke-width:.710998"/></svg>