<svg height="960" style="" width="1370" xmlns="http://www.w3.org/2000/svg"><path d="m250.50405 0s44.61998 17.494468 44.61998 74.342906v623.267324c0 41.41815 215.23603 256.81604 389.95795 256.81604s389.95582-215.39789 389.95582-256.81604v-623.267324c0-56.848437 44.62-74.342906 44.62-74.342906zm111.91002 69.771801h645.33363v617.745369c0 50.95475-215.11777 216.09444-322.66572 216.09444s-322.66791-165.1397-322.66791-216.09444zm26.75387 30.744959v471.21574l295.91404-296.53935 295.91188 296.53935v-471.21574zm-195.07816 81.7192c-2.33384.002-4.67062.11652-7.00112.35146-23.11063 2.32034-60.60796 29.30686-67.31376 65.9683 16.98492-26.9856 52.39314-44.41188 69.61009-44.94555 13.34198-.41767 27.73001 3.89763 35.96723 13.78229-58.35666 9.00293-57.66148 48.05518-47.59119 56.33881 2.6916 2.20432 13.75997 9.95396 19.07356 1.83275 6.7058-10.23272-12.69326-11.4166-7.24045-24.52653 5.15117-12.36744 24.41034-24.64159 39.49258-25.45371 3.01645 7.61074 4.73282 17.70495 4.73282 30.95412l1.9039 280.43483c.53368 26.35911-7.58813 40.76898-22.39192 45.92014 21.85764 3.55013 52.74229-8.9323 52.74229-31.06839l-1.20746-312.04009c-1.45746-31.97725-35.76901-57.57137-70.77657-57.54843zm981.84212 0c-35.0077-.0229-69.3189 25.57118-70.7982 57.54843l-1.2074 312.04009c0 22.13609 30.883 34.61852 52.7638 31.06839-14.827-5.15116-22.9471-19.56103-22.4135-45.92014l1.9018-280.43483c0-13.24917 1.7185-23.34338 4.735-30.95412 15.1054.81212 34.3414 13.08627 39.4926 25.45371 5.4528 13.10993-13.9463 14.29381-7.2405 24.52653 5.3368 8.12121 16.382.37157 19.0736-1.83275 10.0703-8.28363 10.7892-47.33588-47.5675-56.33881 8.214-9.88466 22.5994-14.19996 35.9414-13.78229 17.2169.53367 52.6505 17.95995 69.6121 44.94555-6.7057-36.66144-44.2025-63.64796-67.2899-65.9683-2.3305-.23494-4.6695-.34994-7.0033-.35146zm-490.84992 363.78625s-211.80115 214.8888-209.06314 212.15079c-2.73801 2.73801 138.94234 105.04104 209.06314 104.97143 70.1208.0696 211.80115-102.23342 209.06314-104.97143 2.73801 2.73801-209.06314-212.15079-209.06314-212.15079zm-295.91404 301.71416c41.67338 69.44791 197.27621 172.26363 295.91404 172.26363 98.63784 0 254.23851-102.81572 295.91188-172.26363-93.97393 77.82434-215.90641 144.39501-295.91188 144.39501s-201.9401-66.57067-295.91404-144.39501z" style="stroke-width:1.10396"/></svg>