<svg height="960" style="" width="1140" xmlns="http://www.w3.org/2000/svg"><path d="m653.63689 30v70.76515a387.65923 387.60166 0 01305.14994 378.71958 387.65923 387.60166 0 01-305.14994 378.71957v71.67393l366.36301-100.1137v-708.70777zm-165.24668.210906-368.39013 91.560874v707.55887l368.39013 100.66935v-71.84539a387.65923 387.60166 0 01-304.92183-378.66988 387.65923 387.60166 0 01304.92183-378.66985zm84.40603 253.936634-197.61964 197.5903c0 2.3411 195.16156 196.88897 197.50302 196.88897 2.80977 0 197.03313-194.19624 197.03313-197.00559 0-2.3411-194.57504-197.47368-196.91651-197.47368z" style=""/></svg>