<svg height="960" style="" width="1050" xmlns="http://www.w3.org/2000/svg"><path d="m421.52287 918.2091c-2.1324 4.9756-2.8432 23.4564-1.4216 40.5156l2.1324 31.2753h103.0662 103.0662v-39.0941-39.0941l-101.6446-2.1324c-81.7422-1.4216-101.6446 0-105.1986 8.5297zm36.2509-402.3136c-15.6377 1.4216-30.5645 6.3972-33.4077 10.662-2.8432 4.9756-5.6864 86.007-5.6864 179.8327 0 149.9791 1.4216 172.7248 11.3728 176.2788 14.216 5.6864 176.2788 5.6864 190.4948 0 9.9512-3.554 11.3728-26.2997 11.3728-176.2788 0-93.8257-2.8432-175.5679-5.6864-179.8327-5.6864-9.2404-108.7526-15.6376-168.4599-10.662zm23.4564-191.2056c-26.2996 21.324-64.6829 104.4878-61.1289 134.3415l2.1324 19.1916h103.0662 103.0662l-1.4216-30.5645c-.7108-17.0592-4.2648-34.8292-7.8188-39.094-3.554-4.9756-8.5296-17.0593-11.3728-27.7213-2.1324-10.662-16.3485-30.5645-30.5645-44.7805-29.8537-29.1428-66.8153-33.4076-95.9582-11.3728zm-339.0523-116.5714c-12.0836 14.216-22.0348 31.986-22.0348 40.5156 0 16.3485 22.0348 56.8642 46.2021 83.8746 9.2404 9.9512 31.2753 39.8049 49.7561 66.8153l33.4077 49.7561 3.554 106.6202c3.554 112.3067-.7108 131.4983-23.4565 121.5471-7.8188-3.554-18.4808-4.9756-24.1672-4.2648-12.7945 2.1324-49.7561 41.2265-49.7561 52.5993 0 10.662 163.4843 178.4111 179.1219 184.0975 7.8188 3.554 12.0836 0 14.216-10.662 2.1325-8.5296 2.8433-113.0174 1.4217-232.432-1.4217-247.3589 1.4216-233.1429-67.5262-332.6551-23.4564-34.1185-53.3101-78.1881-66.8153-97.3798-44.7805-63.9721-42.6481-63.2613-73.9234-28.432zm688.7666 15.6376c-64.6829 86.7178-104.4878 147.1359-117.993 178.4111-9.9513 22.0349-11.3729 58.9966-11.3729 250.2021 0 267.9722-1.4216 242.3833 14.2161 236.6969 16.3484-5.6864 179.1219-173.4355 179.1219-184.0976 0-12.0836-36.2509-51.1777-49.7561-53.3101-5.6864-.7108-16.3484.7108-24.1672 4.2648-23.4565 9.9513-27.0105-9.2404-22.7457-122.2578l4.2648-107.331 44.7805-66.1045c24.1673-36.2509 52.5993-75.345 63.9722-87.4286 25.5888-28.4321 24.878-54.0209-2.8433-86.007-12.0836-13.5052-24.1672-24.878-27.0104-24.878s-25.5889 27.7212-50.4669 61.8397zm-384.5436-184.09756c-36.9616 37.67246-69.6585 74.63416-72.5017 81.03136-5.6864 16.3484 49.7561 71.7909 67.5261 67.5261 15.6377-4.2648 27.0105 14.2161 27.0105 42.6481v19.9025h56.8641c56.8641 0 61.1289-2.1325 57.5749-26.2997 0-2.8432 2.1324-12.7944 6.3972-22.7456 4.2648-12.0837 9.9512-16.3485 19.9025-14.2161 17.77 4.9756 73.2125-50.4669 67.5261-66.8153-7.108-17.77-141.4495-150.6899-152.8223-150.6899-4.9756.7108-39.8049 31.98606-77.4774 69.65854z" style="stroke-width:.710801"/></svg>