<svg height="960" style="" width="1082" xmlns="http://www.w3.org/2000/svg"><path d="m122.64979 833.1557c-6.46881 16.5314 23.00019 38.0941 51.75042 38.0941 17.9689 0 25.15646 3.5937 28.75024 14.3751 3.59378 11.5001 10.78134 14.3751 40.25033 14.3751 27.31273 0 37.37531-2.875 43.84412-14.3751 8.62507-13.6564 17.25014-14.3751 253.72084-14.3751s245.0958.7187 253.7208 14.3751c6.4688 11.5001 16.5314 14.3751 43.8442 14.3751 29.469 0 36.6565-2.875 40.2503-14.3751 3.5938-10.0626 10.7813-14.3751 27.3127-14.3751 28.7503-.7188 58.938-22.2815 53.188-38.8129-4.3126-10.0625-42.4066-11.5001-418.316-11.5001-378.78438 0-414.00342.7188-418.31595 12.2189zm.71875-764.756352c-1.43751 5.03129-2.15627 51.031672-1.43751 102.782102l2.15627 92.71955 149.50123 2.1562 149.50121 1.4375-2.1562 23.719-2.1563 23.0002-140.15742.7188c-76.90688.7187-144.46994 1.4375-148.78247 2.1562-11.5001.7188-13.65637 467.9101-2.15627 467.9101h413.28466 413.2847c11.5001 0 9.3438-467.1913-1.4375-467.9101-5.0313-.7187-71.1569-.7187-145.9075.7188-116.4385 1.4375-138.7199 0-146.6262-10.0626-5.0313-5.7501-7.9063-16.5314-6.4688-23.719 2.1563-11.5001 15.0939-12.9376 153.095-16.5314l150.9387-3.5937v-100.62586-100.625832l-415.4409-2.15627c-337.09652-1.43751-416.15967 0-419.0347 7.90631zm515.348 127.219802c10.0626 5.75005 13.6564 15.09388 13.6564 36.65656v28.75019l-112.8447-2.1562c-103.5009-2.1563-113.5634-3.5938-115.7197-15.0939-4.3126-21.56268 5.0313-46.71913 18.6876-50.31291 25.1565-6.46881 182.564-5.0313 196.2204 2.15626zm12.2189 152.37625-2.1563 30.9065h-111.4072-111.4071l-2.1563-30.9065-2.1563-30.1877h115.7197 115.7197zm-458.56633 20.1252c2.15627 84.0945-.71875 368.7218-3.59378 373.7531-2.15627 4.3125-9.34383 7.1876-15.09387 7.1876-8.62507 0-10.06259-30.1878-10.06259-194.0641 0-189.0329 0-194.0642 14.37512-194.0642 7.90632 0 14.37512 2.8751 14.37512 7.1876zm724.50603 184.7203c-2.1563 186.8765-2.8751 192.6266-16.5314 192.6266-13.6564 0-14.3752-5.7501-16.5314-183.2828-.7188-100.6258 0-186.8765 2.1562-191.9078 1.4376-5.0313 10.0626-9.3439 17.9689-9.3439 14.3752 0 14.3752 2.8751 12.9377 191.9079z" style="stroke-width:.718756"/></svg>