<svg height="960" style="" width="1343" xmlns="http://www.w3.org/2000/svg"><path d="m622.96017 193.0076c-9.0336 9.0337-5.5592 349.5331 3.4745 365.5157 4.8643 8.3388 10.4235 47.9479 13.203 88.2519 2.7796 50.7275 8.3388 82.6928 18.0674 103.5397l13.203 31.2703 15.2877-15.2877c9.0337-9.0337 15.2878-23.6265 15.2878-36.8295 0-11.8133 2.7795-27.101 6.9489-34.05 3.4745-6.9489 8.3388-38.9142 9.7286-71.5744 1.3898-32.6601 6.2541-65.3203 10.4234-72.9641 11.8133-21.5418 11.1184-349.5331-.6949-356.4821-11.1183-6.949-98.6753-8.3388-104.9294-1.3898zm176.5038 30.5755c-10.4234 31.2703-14.5928 61.1509-14.5928 103.5396 0 38.2193-2.7796 62.5407-8.3388 68.0999-6.949 6.949-9.0336 54.8968-9.0336 191.0966v182.063l48.6427 2.0847c27.101.6949 53.5071-1.3898 59.0663-5.5592 15.2877-9.7285 19.4571-327.2964 4.1694-350.228-6.2541-9.7286-11.8133-41.6938-13.898-81.3029-4.8643-75.7438-24.3214-147.3182-40.304-150.7927-7.6439-1.3897-15.2877 9.7286-25.7112 40.999zm-184.1477-212.63847c-10.4234 5.55917-25.0162 10.42345-31.2703 10.42345-25.0163 0-136.8947 66.71012-149.4028 88.25192-4.1694 8.3387 4.8642 21.5418 36.8295 53.507 40.304 39.6092 43.0836 41.6938 58.3713 32.6602 77.1336-48.6428 141.759-69.4897 213.3334-69.4897 194.5711-.6949 354.39743 159.1314 354.39743 353.7025 0 193.8762-160.52123 354.3974-355.78723 354.3974-125.0815 0-253.6374-77.8285-309.2291-188.3171-12.5082-24.3213-25.0163-54.8968-27.101-67.4049-2.7796-12.5082-7.6439-24.3214-10.4235-26.4061-3.4744-2.0847-6.254-52.1173-6.254-111.1835v-107.0141h66.0152c54.2019 0 67.405-2.0847 70.8795-11.1184 2.7795-7.6439-21.5418-36.8295-81.9979-97.9804-47.253-47.253-95.2008-93.1162-106.31919-101.455l-20.15201-14.5928-100.06515 103.5396c-54.89685 56.2867-98.67535 106.3192-97.28556 110.4886 2.77959 6.949 25.01629 9.7286 107.70902 10.4235l36.13463.6949v120.2171c0 120.2172 4.16938 148.013 34.04995 216.8078 3.47448 7.6439 8.33876 18.7622 10.42345 24.3214 15.28773 35.4398 57.67646 93.8111 95.20086 129.9457 56.9816 54.202 149.4028 113.2682 179.2834 113.2682 6.949 0 22.2367 4.8643 32.6601 10.4235 28.4908 14.5928 227.2313 14.5928 255.7221 0 10.4234-5.5592 25.7112-10.4235 32.6601-10.4235 45.8632 0 218.19773-129.9457 232.79053-175.114 2.0847-6.949 6.2541-12.5081 9.7285-12.5081 7.6439 0 55.5918-95.2009 55.5918-111.1835 0-6.949 4.8643-21.5418 10.4234-31.9653 14.5929-28.4908 14.5929-227.2312 0-255.722-5.5591-10.4235-10.4234-25.0163-10.4234-32.6602 0-13.203-38.9142-93.1162-53.5071-110.4886-4.8642-5.5591-20.152-24.3214-34.0499-41.6938s-39.6091-43.0836-57.6765-57.6764c-17.3724-13.898-36.8295-29.8806-42.3887-34.7449-17.37243-14.5928-97.28553-53.50702-110.48863-53.50702-7.6438 0-22.2367-4.86428-32.6601-10.42345-28.4908-14.59284-227.2313-14.59284-255.7221 0z" style="stroke-width:.694897"/></svg>