<svg height="960" style="" width="1078" xmlns="http://www.w3.org/2000/svg"><path d="m482.45168 25.954338c-25.28051 13.97077-53.222 29.93737-61.20531 34.59427-7.31799 4.657-29.9374 17.2972-49.8956 27.9416-48.5651 26.611002-65.1969 35.924802-88.48149 50.560802-18.62771 11.975-59.8748 34.5943-104.4482 57.879-10.64441 5.3221-18.6277 12.6402-18.6277 15.9665 0 3.3264-3.9916 5.9875-9.31381 5.9875-5.3222 0-14.63599 4.6569-19.9582 10.6444-9.31389 8.6486-10.64439 40.5818-10.64439 248.8127 0 208.231 1.3305 240.1642 10.64439 248.8128 5.32221 5.9874 14.636 10.6444 19.9582 10.6444 5.32221 0 9.31381 2.6611 9.31381 5.9874 0 3.3264 7.98329 10.6444 18.6277 15.9666 45.2387 23.2846 85.82049 45.904 104.4482 57.8789 11.30959 6.6528 33.26369 19.293 49.8956 27.9416 16.6318 7.9833 41.9123 22.6193 56.54829 31.9331 44.5734 27.2763 47.23451 29.2721 99.1259 55.8831l50.5609 26.611 50.5609-26.611c51.8914-26.611 54.55251-28.6068 99.1259-55.8831 14.636-9.3138 39.91651-23.9498 56.54831-31.9331 16.6319-8.6486 39.2513-21.2888 49.89559-27.9416 11.30971-7.318 33.2638-19.9582 49.89561-28.6068 16.6319-8.6486 40.5818-22.6193 53.222-29.9374 12.6402-7.9832 29.9374-17.2971 37.2554-20.6235 7.9833-3.3263 15.9666-11.3096 18.6277-17.2971 5.32219-14.6361 5.32219-471.0145 0-485.6505-2.6611-5.9875-10.6444-13.9708-18.6277-17.2972-7.318-3.3263-24.6152-12.6402-37.2554-20.6235-12.64021-7.318-36.5901-21.2888-53.222-29.9373-16.6318-8.6486-38.5859-21.2888-49.89561-28.6069-23.28459-14.636-41.24699-25.2804-86.48569-49.230302-17.9624-9.9791-41.9123-23.2846-53.2219-30.6026-35.2596-21.9541-110.4356-59.8747599-118.4189-59.2094799-4.6569 0-28.60681 11.9749399-54.5525 25.9457099zm135.716 123.741072c47.2345 13.9708 109.7703 45.2387 142.36879 71.1844 29.27211 22.6194 68.52331 75.1761 86.4857 114.4273 6.6527 14.636 16.6318 35.2595 21.954 45.2387 13.3055 27.2762 12.6403 175.6325-.6652 193.5949-5.3222 7.318-9.9792 17.2971-9.9792 21.9541 0 17.9624-62.5358 109.7703-90.4773 133.7202-38.5859 31.9331-108.4398 69.1885-125.7369 66.5274-11.3097-1.9958-13.3055-7.318-15.3013-46.5692l-1.9959-44.5734 31.9332-25.2804c75.8413-59.8748 84.4899-71.1844 109.1051-141.0383 15.9666-45.2386 15.9666-75.8413 0-121.08-18.6277-51.8914-30.6027-73.1802-55.2178-95.7995-63.2011-58.5442-94.469-71.8497-171.6409-71.8497s-108.4398 13.3055-171.6409 71.8497c-24.6151 22.6193-36.5901 43.9081-55.2178 95.7995-15.9666 45.2387-15.9666 75.8414 0 121.08 24.6152 69.8539 33.2638 81.1635 109.1051 141.0383l31.9332 25.2804-1.9959 44.5734c-1.9958 39.2512-3.9916 44.5734-15.3013 46.5692-17.2971 2.6611-87.151-34.5943-125.7369-66.5274-27.9415-23.9499-90.4773-115.7578-90.4773-133.7202 0-4.657-4.657-14.6361-9.9792-21.9541-7.318-9.3139-9.3138-33.2637-9.3138-95.7996 0-62.5358 1.9958-86.4857 9.3138-95.7995 5.3222-7.318 9.9792-17.2972 9.9792-21.9541 0-17.2971 61.8705-109.105 90.4773-133.7202 85.1552-72.5149 213.5532-104.4481 308.02221-77.1719zm-69.18861 187.6075c3.9917 2.6611 16.63191 19.293 29.27211 37.9207 12.6402 17.9624 27.2763 37.9206 31.9332 43.2428 5.3222 5.3222 22.61929 28.6068 39.2512 51.8914 33.2637 46.5693 33.2637 46.5693-27.2763 49.2304l-39.9164 1.9958-1.9959 147.691-1.3305 148.3562h-39.91651-39.91649l-1.3305-148.3562-1.9959-147.691-39.9164-1.9958c-60.54001-2.6611-60.54001-2.6611-27.2763-49.2304 16.6319-23.2846 33.929-46.5692 39.2512-51.8914 4.6569-5.3222 19.293-25.2804 31.9332-43.2428 21.2888-31.9332 31.93319-43.2429 39.25119-43.2429 1.9958 0 6.65271 2.6611 9.9791 5.3222zm104.44811 42.5776c-5.9874 5.9875-7.9833.6653-7.318-21.9541l.6653-29.2721 7.318 21.9541c4.65689 15.9666 4.65689 23.9499-.6653 29.2721z" style="stroke-width:.665275"/></svg>