<?xml version="1.0" encoding="UTF-8" standalone="no"?>
<svg
   xmlns:dc="http://purl.org/dc/elements/1.1/"
   xmlns:cc="http://creativecommons.org/ns#"
   xmlns:rdf="http://www.w3.org/1999/02/22-rdf-syntax-ns#"
   xmlns:svg="http://www.w3.org/2000/svg"
   xmlns="http://www.w3.org/2000/svg"
   xmlns:sodipodi="http://sodipodi.sourceforge.net/DTD/sodipodi-0.dtd"
   xmlns:inkscape="http://www.inkscape.org/namespaces/inkscape"
   height="960"
   style=""
   width="1200"
   version="1.1"
   id="svg4"
   sodipodi:docname="uf0151-orb.svg"
   inkscape:version="1.0.1 (3bc2e813f5, 2020-09-07)">
  <metadata
     id="metadata10">
    <rdf:RDF>
      <cc:Work
         rdf:about="">
        <dc:format>image/svg+xml</dc:format>
        <dc:type
           rdf:resource="http://purl.org/dc/dcmitype/StillImage" />
      </cc:Work>
    </rdf:RDF>
  </metadata>
  <defs
     id="defs8" />
  <sodipodi:namedview
     pagecolor="#ffffff"
     bordercolor="#666666"
     borderopacity="1"
     objecttolerance="10"
     gridtolerance="10"
     guidetolerance="10"
     inkscape:pageopacity="0"
     inkscape:pageshadow="2"
     inkscape:window-width="1752"
     inkscape:window-height="1057"
     id="namedview6"
     showgrid="false"
     inkscape:zoom="0.22083333"
     inkscape:cx="671.01001"
     inkscape:cy="813.98802"
     inkscape:window-x="160"
     inkscape:window-y="-8"
     inkscape:window-maximized="1"
     inkscape:current-layer="svg4" />
  <path
     id="path2"
     style=""
     d="M 599.52344 0 A 480.00011 480.11714 0 0 0 120 480.11719 A 480.00011 480.11714 0 0 0 550 957.62305 L 550 879.02734 L 541.7207 896.1582 L 536.31055 864.97461 A 390.00013 390.09522 0 0 0 550 866.99023 L 550 821.55859 A 345.00012 345.08423 0 0 1 255 480.11719 A 345.00012 345.08423 0 0 1 600 135.0332 A 345.00012 345.08423 0 0 1 945 480.11719 A 345.00012 345.08423 0 0 1 670 818.02148 L 670 863.875 A 390.00013 390.09522 0 0 0 677.39844 862.45312 L 673.10547 893.80859 L 670 887.92773 L 670 955.09766 A 480.00011 480.11714 0 0 0 1080 480.11719 A 480.00011 480.11714 0 0 0 600 0 A 480.00011 480.11714 0 0 0 599.52344 0 z M 592.49414 60.078125 L 602.7168 90.03125 A 390.00013 390.09522 0 0 0 600 90.021484 A 390.00013 390.09522 0 0 0 583.35156 90.376953 L 592.49414 60.078125 z M 614.48242 60.261719 L 623.12109 90.708984 A 390.00013 390.09522 0 0 0 603.76562 90.041016 L 614.48242 60.261719 z M 570.52734 61.048828 L 582.30273 90.423828 A 390.00013 390.09522 0 0 0 562.98047 91.783203 L 570.52734 61.048828 z M 636.43164 61.595703 L 643.4668 92.455078 A 390.00013 390.09522 0 0 0 624.16992 90.771484 L 636.43164 61.595703 z M 548.64062 63.166016 L 561.93555 91.884766 A 390.00013 390.09522 0 0 0 542.71289 94.253906 L 548.64062 63.166016 z M 658.2793 64.076172 L 663.68945 95.259766 A 390.00013 390.09522 0 0 0 644.50781 92.572266 L 658.2793 64.076172 z M 526.89453 66.425781 L 541.67383 94.410156 A 390.00013 390.09522 0 0 0 522.60156 97.78125 L 526.89453 66.425781 z M 679.96875 67.697266 L 683.74023 99.121094 A 390.00013 390.09522 0 0 0 664.72461 95.431641 L 679.96875 67.697266 z M 505.34961 70.820312 L 521.57227 97.990234 A 390.00013 390.09522 0 0 0 502.70312 102.35742 L 505.34961 70.820312 z M 701.4375 72.449219 L 703.56055 104.02539 A 390.00013 390.09522 0 0 0 684.76562 99.347656 L 701.4375 72.449219 z M 484.0625 76.333984 L 501.68555 102.62109 A 390.00013 390.09522 0 0 0 483.07031 107.96875 L 484.0625 76.333984 z M 722.62891 78.318359 L 723.0957 109.96484 A 390.00013 390.09522 0 0 0 704.57227 104.30664 L 722.62891 78.318359 z M 463.0957 82.957031 L 482.07031 108.2832 A 390.00013 390.09522 0 0 0 463.75781 114.59961 L 463.0957 82.957031 z M 743.48438 85.289062 L 742.29492 116.91602 A 390.00013 390.09522 0 0 0 724.0918 110.29688 L 743.48438 85.289062 z M 442.50195 90.667969 L 462.77344 114.9668 A 390.00013 390.09522 0 0 0 444.82031 122.23242 L 442.50195 90.667969 z M 763.94727 93.341797 L 761.10352 124.86133 A 390.00013 390.09522 0 0 0 743.27148 117.30078 L 763.94727 93.341797 z M 422.33984 99.447266 L 443.85742 122.65039 A 390.00013 390.09522 0 0 0 426.30664 130.84766 L 422.33984 99.447266 z M 783.95898 102.45312 L 779.4707 133.78125 A 390.00013 390.09522 0 0 0 762.05859 125.29688 L 783.95898 102.45312 z M 402.66602 109.26953 L 425.36719 131.31445 A 390.00013 390.09522 0 0 0 408.26953 140.41992 L 402.66602 109.26953 z M 803.4668 112.59961 L 797.3457 143.65039 A 390.00013 390.09522 0 0 0 780.4043 134.26562 L 803.4668 112.59961 z M 383.5332 120.10742 L 407.35742 140.9375 A 390.00013 390.09522 0 0 0 390.75977 150.91992 L 383.5332 120.10742 z M 822.41797 123.75391 L 814.68164 154.44141 A 390.00013 390.09522 0 0 0 798.25195 144.18359 L 822.41797 123.75391 z M 364.99219 131.93164 L 389.875 151.48633 A 390.00013 390.09522 0 0 0 373.82031 162.32422 L 364.99219 131.93164 z M 840.75977 135.88672 L 831.42773 166.12891 A 390.00013 390.09522 0 0 0 815.55664 155.02344 L 840.75977 135.88672 z M 347.0957 144.71289 L 372.9668 162.93359 A 390.00013 390.09522 0 0 0 357.50391 174.60156 L 347.0957 144.71289 z M 858.44141 148.96289 L 847.53906 178.67383 A 390.00013 390.09522 0 0 0 832.27148 166.75195 L 858.44141 148.96289 z M 329.89453 158.41211 L 356.68164 175.25586 A 390.00013 390.09522 0 0 0 341.84961 187.71289 L 329.89453 158.41211 z M 875.41406 162.94531 L 862.97266 192.04492 A 390.00013 390.09522 0 0 0 848.34961 179.33984 L 875.41406 162.94531 z M 313.43164 172.99219 L 341.06445 188.41016 A 390.00013 390.09522 0 0 0 326.9043 201.62695 L 313.43164 172.99219 z M 891.63086 177.79688 L 877.68555 206.20703 A 390.00013 390.09522 0 0 0 863.74609 192.75391 L 891.63086 177.79688 z M 297.75391 188.41602 L 326.15625 202.36328 A 390.00013 390.09522 0 0 0 312.70703 216.30664 L 297.75391 188.41602 z M 907.05078 193.47852 L 891.63672 221.11914 A 390.00013 390.09522 0 0 0 878.42188 206.95508 L 907.05078 193.47852 z M 282.90625 204.63672 L 311.99805 217.08008 A 390.00013 390.09522 0 0 0 299.29688 231.70703 L 282.90625 204.63672 z M 921.62695 209.94531 L 904.78711 236.74023 A 390.00013 390.09522 0 0 0 892.33203 221.9043 L 921.62695 209.94531 z M 268.92578 221.61328 L 298.63086 232.51758 A 390.00013 390.09522 0 0 0 286.71094 247.78906 L 268.92578 221.61328 z M 935.32227 227.15039 L 917.10547 253.0293 A 390.00013 390.09522 0 0 0 905.44141 237.5625 L 935.32227 227.15039 z M 255.85352 239.29883 L 286.08789 248.63281 A 390.00013 390.09522 0 0 0 274.98633 264.50781 L 255.85352 239.29883 z M 948.09961 245.05273 L 928.55078 269.94141 A 390.00013 390.09522 0 0 0 917.71484 253.88281 L 948.09961 245.05273 z M 243.72461 257.64453 L 274.4043 265.38281 A 390.00013 390.09522 0 0 0 264.14844 281.81641 L 243.72461 257.64453 z M 959.92188 263.59766 L 939.09766 287.42773 A 390.00013 390.09522 0 0 0 929.11719 270.82617 L 959.92188 263.59766 z M 232.57227 276.60156 L 263.61523 282.72266 A 390.00013 390.09522 0 0 0 254.23242 299.66797 L 232.57227 276.60156 z M 970.75781 282.73438 L 948.7168 305.44141 A 390.00013 390.09522 0 0 0 939.61523 288.33984 L 970.75781 282.73438 z M 222.42773 296.11328 L 253.74805 300.60352 A 390.00013 390.09522 0 0 0 245.26562 318.01953 L 222.42773 296.11328 z M 980.57617 302.41406 L 957.37891 323.93555 A 390.00013 390.09522 0 0 0 949.18359 306.38086 L 980.57617 302.41406 z M 213.31836 316.12891 L 244.83008 318.97461 A 390.00013 390.09522 0 0 0 237.27148 336.81055 L 213.31836 316.12891 z M 989.35352 322.58008 L 965.05859 342.85938 A 390.00013 390.09522 0 0 0 957.79688 324.90039 L 989.35352 322.58008 z M 205.26758 336.59766 L 236.88672 337.78711 A 390.00013 390.09522 0 0 0 230.26953 355.99414 L 205.26758 336.59766 z M 997.0625 343.17969 L 971.74219 362.1582 A 390.00013 390.09522 0 0 0 965.42773 343.8418 L 997.0625 343.17969 z M 229.9375 356.99219 A 390.00013 390.09522 0 0 0 224.28125 375.51953 L 198.29883 357.45898 L 229.9375 356.99219 z M 972.05664 363.1582 L 1003.6836 364.15039 L 977.4043 381.7793 A 390.00013 390.09522 0 0 0 972.05664 363.1582 z M 224 376.53125 A 390.00013 390.09522 0 0 0 219.32422 395.33008 L 192.43164 378.6543 L 224 376.53125 z M 977.66797 382.79688 L 1009.1973 385.44336 L 982.0332 401.66992 A 390.00013 390.09522 0 0 0 977.66797 382.79688 z M 219.09766 396.35547 A 390.00013 390.09522 0 0 0 215.4082 415.37695 L 187.68164 400.12891 L 219.09766 396.35547 z M 982.24219 402.69922 L 1013.5898 406.99414 L 985.61328 421.77734 A 390.00013 390.09522 0 0 0 982.24219 402.69922 z M 215.23633 416.41211 A 390.00013 390.09522 0 0 0 212.54883 435.59766 L 184.06055 421.82422 L 215.23633 416.41211 z M 985.76953 422.81641 L 1016.8496 428.74609 L 988.13672 442.04297 A 390.00013 390.09522 0 0 0 985.76953 422.81641 z M 212.42969 436.64062 A 390.00013 390.09522 0 0 0 210.75 455.94141 L 181.58008 443.67578 L 212.42969 436.64062 z M 988.23828 443.08789 L 1018.9668 450.63672 L 989.59766 462.41602 A 390.00013 390.09522 0 0 0 988.23828 443.08789 z M 210.6875 456.99023 A 390.00013 390.09522 0 0 0 210.01953 476.34961 L 180.24805 465.63086 L 210.6875 456.99023 z M 989.64453 463.46484 L 1019.9355 472.60938 L 989.99023 482.83398 A 390.00013 390.09522 0 0 0 990 480.11719 A 390.00013 390.09522 0 0 0 989.64453 463.46484 z M 210.00977 477.40039 A 390.00013 390.09522 0 0 0 210 480.11719 A 390.00013 390.09522 0 0 0 210.35547 496.76953 L 180.06445 487.625 L 210.00977 477.40039 z M 989.98047 483.88281 L 1019.752 494.60352 L 989.3125 503.24414 A 390.00013 390.09522 0 0 0 989.98047 483.88281 z M 210.40234 497.81836 A 390.00013 390.09522 0 0 0 211.76172 517.14648 L 181.0332 509.59766 L 210.40234 497.81836 z M 989.25 504.29297 L 1018.4199 516.55859 L 987.56836 523.59375 A 390.00013 390.09522 0 0 0 989.25 504.29297 z M 211.86328 518.19141 A 390.00013 390.09522 0 0 0 214.23047 537.41797 L 183.15039 531.48828 L 211.86328 518.19141 z M 987.45117 524.63672 L 1015.9395 538.41016 L 984.76367 543.82227 A 390.00013 390.09522 0 0 0 987.45117 524.63672 z M 214.38672 538.45703 A 390.00013 390.09522 0 0 0 217.75781 557.53516 L 186.41016 553.24023 L 214.38672 538.45703 z M 984.5918 544.85742 L 1012.3184 560.10547 L 980.90234 563.87695 A 390.00013 390.09522 0 0 0 984.5918 544.85742 z M 217.9668 558.56445 A 390.00013 390.09522 0 0 0 222.33203 577.4375 L 190.80273 574.79102 L 217.9668 558.56445 z M 980.67578 564.9043 L 1007.5684 581.58008 L 976 583.70312 A 390.00013 390.09522 0 0 0 980.67578 564.9043 z M 222.5957 578.45508 A 390.00013 390.09522 0 0 0 227.94336 597.07617 L 196.31641 596.08203 L 222.5957 578.45508 z M 975.71875 584.71484 L 1001.7012 602.77539 L 970.0625 603.24219 A 390.00013 390.09522 0 0 0 975.71875 584.71484 z M 228.25781 598.07617 A 390.00013 390.09522 0 0 0 234.57227 616.39258 L 202.9375 617.05469 L 228.25781 598.07617 z M 969.73047 604.23828 L 994.73242 623.63672 L 963.11328 622.44922 A 390.00013 390.09522 0 0 0 969.73047 604.23828 z M 234.93945 617.37695 A 390.00013 390.09522 0 0 0 242.20312 635.33398 L 210.64648 637.6543 L 234.93945 617.37695 z M 962.72852 623.42578 L 986.68164 644.10352 L 955.16992 641.25977 A 390.00013 390.09522 0 0 0 962.72852 623.42578 z M 242.62109 636.29688 A 390.00013 390.09522 0 0 0 250.81641 653.85352 L 219.42383 657.82031 L 242.62109 636.29688 z M 954.73438 642.21484 L 977.57227 664.12109 L 946.25195 659.63086 A 390.00013 390.09522 0 0 0 954.73438 642.21484 z M 251.2832 654.79297 A 390.00013 390.09522 0 0 0 260.38477 671.89453 L 229.24219 677.5 L 251.2832 654.79297 z M 945.76758 660.56641 L 967.42773 683.63281 L 936.38477 677.51172 A 390.00013 390.09522 0 0 0 945.76758 660.56641 z M 260.90234 672.80664 A 390.00013 390.09522 0 0 0 270.88281 689.4082 L 240.07812 696.63672 L 260.90234 672.80664 z M 935.85156 678.41797 L 956.27539 702.58984 L 925.5957 694.85156 A 390.00013 390.09522 0 0 0 935.85156 678.41797 z M 271.44922 690.29297 A 390.00013 390.09522 0 0 0 282.28516 706.35156 L 251.90039 715.18164 L 271.44922 690.29297 z M 925.01367 695.72656 L 944.14648 720.93555 L 913.91211 711.60156 A 390.00013 390.09522 0 0 0 925.01367 695.72656 z M 282.89453 707.20508 A 390.00013 390.09522 0 0 0 294.55859 722.67188 L 264.67773 733.08398 L 282.89453 707.20508 z M 913.28906 712.44531 L 931.07422 738.62109 L 901.36914 727.7168 A 390.00013 390.09522 0 0 0 913.28906 712.44531 z M 295.21289 723.49414 A 390.00013 390.09522 0 0 0 307.66797 738.33008 L 278.37305 750.28906 L 295.21289 723.49414 z M 900.70312 728.52734 L 917.09375 755.59766 L 888.00195 743.1543 A 390.00013 390.09522 0 0 0 900.70312 728.52734 z M 308.36328 739.11523 A 390.00013 390.09522 0 0 0 321.57812 753.2793 L 292.94922 766.75586 L 308.36328 739.11523 z M 887.29297 743.92773 L 902.24609 771.81836 L 873.84375 757.87109 A 390.00013 390.09522 0 0 0 887.29297 743.92773 z M 322.31445 754.02734 A 390.00013 390.09522 0 0 0 336.25391 767.48047 L 308.36914 782.4375 L 322.31445 754.02734 z M 873.0957 758.60742 L 886.56836 787.24219 L 858.93555 771.82422 A 390.00013 390.09522 0 0 0 873.0957 758.60742 z M 337.02734 768.18945 A 390.00013 390.09522 0 0 0 351.65039 780.89453 L 324.58594 797.28906 L 337.02734 768.18945 z M 858.15039 772.51953 L 870.10547 801.82227 L 843.31836 784.97852 A 390.00013 390.09522 0 0 0 858.15039 772.51953 z M 352.46094 781.56055 A 390.00013 390.09522 0 0 0 367.72852 793.48242 L 341.55859 811.27148 L 352.46094 781.56055 z M 842.49609 785.63281 L 852.9043 815.52148 L 827.0332 797.30078 A 390.00013 390.09522 0 0 0 842.49609 785.63281 z M 368.57227 794.10547 A 390.00013 390.09522 0 0 0 384.44336 805.21094 L 359.24023 824.34766 L 368.57227 794.10547 z M 826.17969 797.91016 L 835.00781 828.30078 L 810.125 808.74805 A 390.00013 390.09522 0 0 0 826.17969 797.91016 z M 385.31836 805.79297 A 390.00013 390.09522 0 0 0 401.74805 816.05078 L 377.58203 836.47852 L 385.31836 805.79297 z M 809.24023 809.31445 L 816.4668 840.12695 L 792.64258 819.29688 A 390.00013 390.09522 0 0 0 809.24023 809.31445 z M 402.6543 816.58398 A 390.00013 390.09522 0 0 0 419.5957 825.96875 L 396.5332 847.63477 L 402.6543 816.58398 z M 791.73047 819.81445 L 797.33398 850.96484 L 774.63281 828.91992 A 390.00013 390.09522 0 0 0 791.73047 819.81445 z M 660 819.94141 A 345.00012 345.08423 0 0 1 659.89844 819.95898 A 345.00012 345.08423 0 0 1 658.46094 820.20898 A 345.00012 345.08423 0 0 1 658.41406 820.21875 A 345.00012 345.08423 0 0 1 656.92188 820.47266 A 345.00012 345.08423 0 0 1 656.80078 820.49219 A 345.00012 345.08423 0 0 1 655.38086 820.72656 A 345.00012 345.08423 0 0 1 654.38477 820.88672 A 345.00012 345.08423 0 0 1 654.375 820.88867 A 345.00012 345.08423 0 0 1 653.30078 821.05859 A 345.00012 345.08423 0 0 1 652.29492 821.21484 A 345.00012 345.08423 0 0 1 651.29883 821.36523 A 345.00012 345.08423 0 0 1 650.75 821.44727 A 345.00012 345.08423 0 0 1 650.6875 821.45703 A 345.00012 345.08423 0 0 1 646.11133 822.10547 A 345.00012 345.08423 0 0 1 645.11328 822.23828 A 345.00012 345.08423 0 0 1 644.5625 822.31055 A 345.00012 345.08423 0 0 1 644.2168 822.35547 A 345.00012 345.08423 0 0 1 642 822.63477 L 642 958.39258 A 480.0001 480.11713 0 0 0 642.31836 958.36523 A 480.00011 480.11714 0 0 0 642.3457 958.36328 A 480.0001 480.11713 0 0 0 644.15234 958.19922 A 480.00011 480.11714 0 0 0 644.17969 958.19727 A 480.0001 480.11713 0 0 0 645.98633 958.02539 A 480.00011 480.11714 0 0 0 646.01367 958.02344 A 480.0001 480.11713 0 0 0 647.82031 957.8457 A 480.00011 480.11714 0 0 0 647.84766 957.84375 A 480.0001 480.11713 0 0 0 648.54102 957.77344 A 480.00011 480.11714 0 0 0 653.34375 957.25977 A 480.0001 480.11713 0 0 0 655.14648 957.05664 A 480.00011 480.11714 0 0 0 655.17383 957.05273 A 480.0001 480.11713 0 0 0 656.97656 956.83984 A 480.00011 480.11714 0 0 0 657.00391 956.83594 A 480.0001 480.11713 0 0 0 658.80664 956.61914 A 480.00011 480.11714 0 0 0 658.83203 956.61328 A 480.0001 480.11713 0 0 0 659.91602 956.47656 A 480.00011 480.11714 0 0 0 660 956.46484 L 660 868.99414 L 660 865.56641 L 660 819.94141 z M 560 822.87109 L 560 822.875 L 560 868.1543 L 560 882.98633 L 560 958.56445 A 480.0001 480.11713 0 0 0 560.625 958.61523 A 480.00011 480.11714 0 0 0 561.00586 958.64648 A 480.0001 480.11713 0 0 0 562.63477 958.77734 A 480.00011 480.11714 0 0 0 562.89453 958.79688 A 480.0001 480.11713 0 0 0 564.0332 958.88477 A 480.00011 480.11714 0 0 0 565.05078 958.95898 A 480.0001 480.11713 0 0 0 565.98633 959.02734 A 480.00011 480.11714 0 0 0 566.79102 959.08398 A 480.0001 480.11713 0 0 0 567.9043 959.16016 A 480.00011 480.11714 0 0 0 568.83203 959.2207 A 480.0001 480.11713 0 0 0 569.375 959.25586 A 480.00011 480.11714 0 0 0 570.78125 959.34375 A 480.0001 480.11713 0 0 0 571.26172 959.37305 A 480.00011 480.11714 0 0 0 572.5293 959.44727 A 480.0001 480.11713 0 0 0 573.20703 959.48633 A 480.00011 480.11714 0 0 0 574.70312 959.56641 A 480.00011 480.11714 0 0 0 576.52148 959.6582 A 480.0001 480.11713 0 0 0 576.58398 959.66211 A 480.00011 480.11714 0 0 0 577.875 959.72461 A 480.0001 480.11713 0 0 0 578 959.73047 L 578 824.49609 A 345.00012 345.08423 0 0 1 577.20312 824.44531 A 345.00012 345.08423 0 0 1 563.19922 823.23047 A 345.00012 345.08423 0 0 1 560 822.87109 z M 420.5293 826.45312 A 390.00013 390.09522 0 0 0 437.94141 834.9375 L 416.04102 857.78125 L 420.5293 826.45312 z M 773.69336 829.38672 L 777.66016 860.78711 L 756.14258 837.58398 A 390.00013 390.09522 0 0 0 773.69336 829.38672 z M 438.89648 835.37305 A 390.00013 390.09522 0 0 0 456.72656 842.93359 L 436.05273 866.89258 L 438.89648 835.37305 z M 755.17969 838.00195 L 757.49805 869.56641 L 737.22461 845.26562 A 390.00013 390.09522 0 0 0 755.17969 838.00195 z M 457.70312 843.31836 A 390.00013 390.09522 0 0 0 475.9082 849.9375 L 456.51562 874.94531 L 457.70312 843.31836 z M 736.24219 845.63477 L 736.9043 877.27734 L 717.92969 851.94922 A 390.00013 390.09522 0 0 0 736.24219 845.63477 z M 476.9043 850.26953 A 390.00013 390.09522 0 0 0 495.42773 855.92773 L 477.37109 881.91602 L 476.9043 850.26953 z M 716.92969 852.26367 L 715.9375 883.89844 L 698.31445 857.61328 A 390.00013 390.09522 0 0 0 716.92969 852.26367 z M 496.43945 856.20898 A 390.00013 390.09522 0 0 0 515.23438 860.88672 L 498.5625 887.78516 L 496.43945 856.20898 z M 697.29688 857.87695 L 694.65039 889.41406 L 678.42773 862.24414 A 390.00013 390.09522 0 0 0 697.29688 857.87695 z M 516.25977 861.11328 A 390.00013 390.09522 0 0 0 535.27539 864.80273 L 520.03125 892.53516 L 516.25977 861.11328 z " />
</svg>
