<svg height="960" style="" width="1200" xmlns="http://www.w3.org/2000/svg"><path d="m939.48491 16.589327c-7.6575 9.18906-49.0083 53.60288-91.3801 98.016683-42.3718 44.41382-100.0587 105.67426-128.6469 135.28347-28.0777 29.60921-66.3655 70.96-84.2331 91.38015-54.1134 61.77094-161.8297 178.67624-217.9851 235.85264l-52.07137 53.6029-71.47051-71.4705c-39.30878-39.3088-71.47051-75.044-71.47051-79.1281 0-9.6995 367.56259-377.77264 377.77269-377.77264 4.084 0 25.0147 17.35712 45.9453 38.28777 35.2248 35.22475 39.3088 37.77727 48.4979 31.65123 8.6785-6.63655 6.6365-10.21008-38.2878-56.66591-26.0357-27.056683-51.0504-49.008343-55.6449-49.008343-10.2101 0-414.01845 403.297893-414.01845 413.507893 0 10.2101 403.29785 413.508 413.50795 413.508s413.50789-403.8084 413.50789-413.508c0-12.7626-82.70149-91.8906-95.97459-91.8906-18.8887 0-13.2731 11.2311 24.5041 48.4978 19.9097 19.3992 35.7353 38.7983 35.7353 43.3928 0 10.2101-367.5626 377.7727-377.7727 377.7727-9.6996 0-122.52087-112.3108-122.52087-122.0103 0-3.5736 8.67856-16.3362 18.88863-28.0777 17.35714-19.3992 147.02504-157.2352 175.10274-186.3339 7.1471-7.147 47.4768-50.0293 89.3381-94.9536 41.8613-44.9244 94.9537-100.56925 117.4159-124.05242 47.4768-49.51885 52.0714-56.6659 56.1554-87.80662 3.5735-30.63022 16.3361-110.26879 26.0357-161.829653 10.21-56.1554004 4.5945-66.36547-20.9307-36.24575zm-60.7499 173.060723c-1.5315 8.67856-3.063 19.39914-3.063 22.97266 0 11.74159-13.2731 8.16806-20.4202-5.61554-6.126-11.23108-5.6155-13.7836 2.5525-22.97266 14.8046-16.33612 25.0147-13.2731 20.9307 5.61554zm-33.6933 94.44317c0 2.04202-23.9936 27.05669-53.6028 56.66591-29.6092 29.0987-53.6029 55.13434-53.6029 57.68694 0 3.063-3.5735 5.105-7.6576 5.105-4.084 0-7.6575 2.042-7.6575 4.5945 0 2.5526-10.7206 16.3362-23.9937 30.1197-13.7836 13.7836-40.3298 42.8823-60.2394 65.3445-58.7079 65.855-92.4012 99.0377-96.4852 95.4642-1.5315-2.042 3.5735-9.6996 12.2521-17.3571 8.168-7.6576 15.3151-15.3152 15.3151-16.8467s14.2941-16.8466 32.1617-34.7142c17.3571-17.8676 47.9874-50.5399 67.3865-73.002 19.9096-22.4622 63.8129-68.918 98.5272-103.63225 34.2037-34.71425 62.2814-65.34447 62.2814-67.89699s3.5736-4.59453 7.6576-4.59453 7.6575 1.53151 7.6575 3.06302zm-352.24746 372.15715c0 4.084-3.57353 7.6575-7.65756 7.6575s-7.65755 2.0421-7.65755 5.1051c0 7.147-19.90965 26.5462-25.52519 24.5041-5.10503-1.5315 30.11972-44.9243 36.75627-44.9243 2.04201 0 4.08403 3.5736 4.08403 7.6576zm-136.81498-419.63399c-129.66792 129.66793-235.85268 239.42619-235.85268 243.51019 0 10.2101 469.66332 479.8734 479.87342 479.8734s479.87339-469.6633 479.87339-479.8734c0-11.7416-120.47879-130.17838-125.07339-123.03133-2.042 3.57353 17.8677 27.56723 50.53989 59.72893 30.6302 30.1197 54.1134 57.6869 54.1134 63.3024 0 12.7626-446.69069 459.4533-459.45329 459.4533s-459.45327-446.6907-459.45327-459.4533 446.69067-459.453223 459.45327-459.453223c5.6155 0 32.6722 22.97267 62.2814 52.58188 47.4769 47.987333 70.4495 65.854963 70.4495 55.644893 0-7.14705-125.0733-128.64691347-132.7309-128.64691347-4.084 0-113.84231 106.18475347-244.02074 236.36317347z" style="stroke-width:.510504"/></svg>