<svg height="960" style="" width="1026" xmlns="http://www.w3.org/2000/svg"><path d="m494.045.44864298c-211.6193 9.86691002-374.42335 192.40478702-374.42335 404.28373702v417.00687c0 5.97208 3.37552 11.42484 8.82829 13.76174l268.22422 121.51882c20.25313 9.08794 43.10283-5.71243 43.10283-27.78315v-149.30196-133.72263c0-10.12656-4.93346-19.47416-13.5021-25.18659l-139.95435-94.51463c-22.59004-13.50209-37.13075-38.94834-34.79385-67.7701 3.37552-37.90972 37.90971-65.43321 76.07908-65.43321h113.20984c16.87761 0 30.3797 13.76174 30.3797 30.3797v174.2289s0 15.83899 41.80455 15.83899 41.80455-15.83899 41.80455-15.83899v-174.2289c0-16.87761 13.50209-30.3797 30.3797-30.3797h113.20984c38.16937 0 72.70356 27.52349 76.07908 65.43321 2.59656 28.82176-12.20381 54.26801-34.79385 67.7701l-139.95436 94.51463c-8.30897 5.71243-13.50209 15.06003-13.50209 25.18659v133.98229 149.30196c0 22.07072 22.8497 36.87109 43.10283 27.78314l268.22422-121.51881c5.45277-2.59656 8.82829-7.78967 8.82829-13.76175v-428.43171c.25965-223.56345-186.43271-403.764427-412.33307-393.11854702z" style="stroke-width:25.9656"/></svg>