<svg height="960" style="" width="1214" xmlns="http://www.w3.org/2000/svg"><path d="m532.43552 563.69782c-3.3338 3.7505-4.1672 60.0079-3.7505 200.8598l1.2502 195.4424h77.0934 77.0935l1.2502-195.4424c.4167-140.8519-.4168-197.1093-3.7505-200.8598-3.7505-4.5839-20.8361-5.8341-74.5932-5.8341-53.757 0-70.8426 1.2502-74.5931 5.8341zm49.5898-101.68c-12.5016 1.2501-27.0869 4.5839-32.0875 7.501-5.0007 2.917-12.9184 5.0006-17.5023 5.0006-18.7525 0-28.7538 37.505-13.7518 51.2568 6.6675 6.2508 19.1692 7.0842 89.1784 7.0842 73.343 0 81.6774-.8334 87.9282-7.501 7.0843-7.9177 8.7512-20.836 4.5839-36.6715-4.5839-17.5023-69.5924-32.0875-118.3489-26.6701zm-168.3554-414.221167c-1.2502 3.75049-2.5004 97.096067-2.5004 207.944067v201.6931l9.1679 5.0007c12.0849 6.6675 73.7597 2.5003 89.1784-5.8341 36.2548-18.7525 48.7564-21.6695 99.5964-21.6695 50.8401 0 54.1738.8334 100.0132 20.836 35.4213 15.8355 87.9282 20.4194 97.5128 8.7512 3.3338-3.7505 4.1672-62.9249 3.7505-211.2778l-1.2501-205.860387h-40.0053c-28.7538 0-43.7558 2.08361-54.1738 7.08426-48.7564 23.33643-94.1791 31.67083-135.4345 24.58653-27.0869-5.0006-54.5905-13.335-68.3423-21.66948-20.8361-12.08492-37.0882-16.25213-64.5918-16.25213-23.7532 0-30.8374 1.25016-32.921 6.66754zm433.807-45.4226399c-1.6669 1.25016-2.917 42.9223099-2.917 92.5122099l.4167 90.011797 17.5023 8.7512 17.5023 9.1678v42.9223 43.3391l-16.6689 8.7511-16.6688 8.3345v95.8459 95.4292l119.1823 1.2502c97.09608.8334 120.01578 0 124.18298-4.584 3.3338-4.5839 4.1672-71.2593 3.7505-249.1994l-1.2501-243.3653569-121.26598-1.25016002c-66.6754-.41672-122.0994.41672-123.7663 2.08361002zm-301.2896 2.91705c-1.2502 2.91705-1.6669 13.7518099-.8335 23.7531199l1.2502 17.91903 30.4207 5.41738c25.0033 4.58393 35.838 4.58393 60.4246.41672l30.0039-5.41738v-22.91968-22.9196899l-59.5911-1.25016002c-47.923-.83344-59.5912 0-61.6748 5.00066002zm-424.6392-.83345c-1.25017 2.91706-1.66689 115.0151069-1.25017 249.1994069l1.25017 243.7821h122.9328 122.9329l1.2501-92.5122.8335-92.0954-18.7525-9.1679-18.7525-9.1678v-40.8388c0-41.6721 4.1673-54.1737 18.3358-54.1737 2.917 0 8.3344-3.3338 12.5016-7.9178 5.8341-6.6675 6.6676-18.3357 5.8341-98.762897l-1.2501-91.2620599-122.0994-1.25016002c-95.42924-.83344-122.51614 0-123.7663 4.16721002z" style="stroke-width:.416721"/></svg>