<svg height="960" style="" width="787" xmlns="http://www.w3.org/2000/svg"><path d="m133.96808.00023935c-3.69203-.02170001-7.21846 1.43698995-9.82461 4.04312995-2.60615 2.60615-4.06266 6.1325797-4.06266 9.8246197v109.437991c5.73353-5.99414 13.19077-8.53141 22.05167-8.18392h92.28886v-96.878901c1.25964-7.79672 4.48039-13.5846397 9.06287-17.94993966 0 0-77.26505-.20611-109.51613-.29297999zm519.06383 0c-32.25106.08689999-109.51612.29297999-109.51612.29297999 4.58248 4.36529996 7.7837 10.15321966 9.04334 17.94993966v96.878901h92.3084c8.86089-.34749 16.31814 2.18978 22.05166 8.18392v-109.437991c0-3.69204-1.45652-7.2184697-4.06266-9.8246197-2.60615-2.60614-6.13258-4.06483996-9.82462-4.04312995zm-414.33305 18.24291965v101.234541h-99.78917c-2.40877-.0934-4.70379.002-6.91433.31251v33.79043h518.94663v-33.96622c-.96015-.0282-1.8582-.17581-2.85167-.13672h-99.78917v-101.234541zm-106.72305 158.131361v609.34089h518.94665v-609.34089zm144.10737 62.19h232.02104c13.87772 0 25.15726 11.27955 25.15726 25.15726v427.49765c0 13.87771-11.27954 25.13772-25.15726 25.13772h-232.02104c-13.87772 0-25.15727-11.26001-25.15727-25.13772v-427.49765c0-13.87771 11.27955-25.15726 25.15727-25.15726zm117.48519 79.30006c-34.47477.0674-52.62314 47.76422-51.99428 84.86669h101.19548c.23581-36.7319-14.73768-84.93406-49.2012-84.86669zm-51.99428 101.78144v194.73439h101.19548v-194.73439zm.52736 211.66866c-.13476 0-.27004.0581-.37111.13672-.091.0943-.15625.2074-.15625.33204v24.92289c0 5.00479 4.46808 8.4769 9.90274 8.4769h81.27279c5.43466 0 10.01995-3.47211 10.01995-8.4769l.41016-25.39165zm-210.10609 175.12422v33.79042c2.21054.31013 4.50556.40677 6.91433.31251h99.78917v101.21501h309.60229v-101.21501h99.78917c.99336.0391 1.89141-.10849 2.85167-.13672v-33.96621zm-11.91455 30.27466v109.43799c0 3.69204 1.45651 7.19894 4.06266 9.80508 2.60615 2.60615 6.13258 4.06485 9.82461 4.04313 32.25108-.0869 109.51613-.27345 109.51613-.27345-4.58248-4.36529-7.80323-10.17274-9.06287-17.96947v-96.85936h-92.28886c-8.8609.34748-16.31814-2.18979-22.05167-8.18392zm546.83838 0c-5.73352 5.99413-13.19077 8.5314-22.05166 8.18392h-92.3084v96.85936c-1.25964 7.79673-4.46086 13.60418-9.04334 17.96947 0 0 77.26506.18658 109.51612.27345 3.69204.0217 7.21847-1.43698 9.82462-4.04313 2.60614-2.60614 4.06266-6.11304 4.06266-9.80508z" style="stroke-width:10.0004"/></svg>