<svg height="960" style="" width="1190" xmlns="http://www.w3.org/2000/svg"><path d="m263.85539 801.7538c-78.56774 78.5677-143.42568 146.0622-143.42568 149.226 0 9.4914 34.27452 39.0202 46.40243 39.0202 15.81901 0 285.79676-271.5597 285.79676-287.3787 0-11.0733-30.05612-44.8205-40.07482-44.8205-2.63651 0-69.60364 64.8579-148.69869 143.953zm209.33822-241.5035c-30.05612 30.5834-55.89383 58.003-56.42113 61.1668-1.0546 2.6365 15.29171 22.6739 36.38372 44.2932l37.96562 39.5475 35.85646-34.2745c19.5101-18.9828 37.4383-34.2745 40.0748-34.2745 3.1638 0 12.6552 8.4368 22.1466 18.4555 8.9641 10.0187 18.9828 18.4555 22.1466 18.4555 6.8549 0 46.9297-38.4929 46.9297-44.8205s-117.5879-123.9156-124.4428-123.9156c-3.1638 0-30.5835 24.7831-60.63957 55.3666zm391.78418-90.6957c-24.25591 24.7831-32.69271 43.2386-32.69271 69.6036 0 35.3292-35.3291 198.265-55.8938 258.3772-4.2184 12.1279-7.3822 24.7831-7.3822 28.4742s-3.1638 14.2371-6.8549 23.2012c-12.1279 29.0015-20.5647 53.2573-23.2012 68.0218-1.5819 7.9095-5.8003 17.4009-10.0187 20.5647-8.9641 7.3822-10.0187 27.4196-.5273 24.7831 3.1638-1.5819 7.3822-6.8549 8.4368-12.6552 1.0546-5.273 4.7457-12.1279 8.9641-14.2371s7.3822-8.4368 7.3822-13.7098 3.6911-12.6552 7.9095-16.3463c4.2184-3.6912 7.9095-10.0188 7.9095-14.2372s3.1638-14.2371 7.3822-21.6193c11.0733-21.6193 45.3478-112.8422 55.8938-151.3352 2.6365-8.9641 9.4914-32.6926 15.819-52.73 10.5461-36.3837 17.401-62.7487 34.2746-137.0981 12.6552-54.3119 14.7644-74.8766 9.4914-78.0404-2.6365-1.5819-14.7644 6.8549-26.89229 18.9828zm171.89991-184.02779c-3.6912 6.8549-11.0734 20.03741-16.3464 29.52881-6.8549 12.12791-10.546 31.63802-12.1279 68.02178-2.6365 62.2214-15.81901 166.6268-26.36501 207.229-4.2184 16.8736-7.3822 35.3291-7.3822 41.6567s-3.6911 24.7831-8.4368 41.1294c-4.2184 16.3463-11.6006 42.7113-16.34631 58.5304-4.2184 15.819-11.0733 38.4929-15.2917 50.0935-4.2184 12.1279-7.3822 27.9469-7.3822 35.8564s-2.10919 14.2371-5.27299 14.2371c-2.63651 0-5.27301 6.3276-5.27301 14.2371.5273 14.7644.5273 14.7644 10.546-3.6911 5.27301-10.0187 11.6006-22.1466 13.18251-26.365 2.10919-4.2184 6.8549-15.2917 10.546-23.7285 41.1294-93.8595 70.65821-222.5207 94.91411-411.2942 8.9641-72.76748 10.0187-100.71439 3.1638-105.4601-3.1638-1.5819-8.4368 2.6365-12.1279 10.01871zm-360.14621-62.22144c-20.03741 4.21841-54.83921 11.07331-76.45851 15.81901-21.6193 4.2184-51.1481 11.07331-65.9125 15.29171-14.2371 4.2184-32.1654 8.43681-39.54756 10.01871-7.3822 1.0546-20.03741 4.7457-29.00151 7.3822-8.4368 3.1638-31.11072 10.54601-50.09352 16.34631-54.31193 16.87361-97.02326 31.63802-129.18858 45.34783-8.4368 3.6911-26.36501 11.0733-39.54752 16.3463-13.18251 5.27301-27.41961 12.65521-32.16532 16.34631-4.2184 3.69111-12.1279 6.85495-16.87362 6.85495-4.7457 0-10.01869 2.6365-11.60059 5.8003-2.1092 2.6365-9.49141 7.3822-16.34632 10.0187-6.8549 2.6365-12.6552 7.3822-12.6552 10.546 0 7.9095 13.70981 6.3276 23.20121-2.6365 4.21841-4.2184 13.18251-7.9095 20.03742-7.9095 6.8549 0 15.2917-2.6365 18.45551-5.8003 3.1638-3.1638 13.7098-7.3822 23.20121-10.0187 16.87361-4.21844 29.00152-7.90955 73.29474-23.72856 10.01871-3.6911 32.69262-10.546 50.09353-14.7644 17.40091-4.74571 42.18401-11.07331 55.36653-14.76441 13.18251-3.6911 34.27452-8.43681 47.45703-10.54601 13.1825-2.1092 39.02026-6.3276 58.00306-10.0187 18.9828-3.16381 53.2573-9.49141 76.45851-13.70981 23.2012-4.2184 50.6208-7.38221 61.1668-7.38221s26.3651-1.5819 35.32919-3.1638c17.92821-3.6911 71.18551-47.98433 66.43981-55.36653-4.2184-6.8549-46.4024-4.7457-89.1138 3.6911zm123.9156-152.38978c-96.49591 3.6911-336.41758 48.51162-394.42062 73.29474-9.4914 4.2184-20.56471 7.3822-24.25581 7.3822-4.21839 0-14.2371 3.6911-22.14661 7.90951-8.43681 4.2184-18.98281 7.9095-23.72852 7.9095-4.7457 0-11.6006 3.1638-15.29171 7.3822-3.1638 4.21841-11.0733 8.43681-16.87361 9.49141-6.32759 1.0546-12.1279 4.7457-13.7098 8.96411-2.63651 7.9095 14.2371 6.3276 43.76592-3.69111 58.00303-20.56471 177.70025-48.51162 258.37715-61.16683 59.5849-8.96411 228.8483-24.25582 268.92321-24.25582 21.09199 0 29.00149-2.6365 38.49289-12.6552 23.7285-25.310421 20.5647-25.837721-99.13249-20.56471zm-27.94691 185.6097c-123.9156 124.97021-225.1572 229.37561-225.1572 232.01211 0 5.8003 62.2214 69.0764 68.0217 69.0764 2.1092 0 68.5491-65.9126 148.6987-146.0622 133.9343-135.5162 178.7548-184.02782 178.7548-194.57383 0-2.1092 3.1638-7.90951 6.8549-12.12791 6.3276-7.9095 16.8736-31.63802 32.6926-74.34934 8.4368-22.67391 21.09202-93.859451 17.4009-97.550561-1.5819-1.5819-103.8781 99.132461-227.2664 223.575331zm268.39592-268.395851-18.9829 21.09201v51.14813c0 56.421131-8.4368 91.750251-32.69261 141.316481-22.6739 44.82053-28.47421 51.14813-196.1557 221.46614-82.7861 83.8407-150.8079 155.5536-150.8079 159.2447 0 10.546 20.03739 27.9469 31.63799 27.9469 14.7645 0 322.70781-312.16178 345.90902-350.65471 10.0187-16.34631 17.9283-32.69262 17.9283-36.38372 0-3.1638 2.1092-8.4368 4.7457-11.6006 2.6365-2.63651 9.4914-24.25582 15.819-47.98433 8.4368-34.27452 11.0733-59.58494 11.0733-117.060671 0-40.60212-2.1092-74.87664-4.7457-76.45854s-13.1825 6.3276-23.7285 17.92821z" style="stroke-width:.5273"/></svg>