<svg height="960" style="" width="1320" xmlns="http://www.w3.org/2000/svg"><path d="m439.19029 14.789702c-2.6235 9.619425-6.12147 64.712544-7.43322 130.736878-2.18621 105.81368-1.74892 115.87039 6.55876 146.4777 12.24292 43.28742 26.23477 78.26715 41.53837 102.753 12.24292 19.67614 45.47374 62.08909 56.8422 72.58298 10.93117 10.05671 12.24293 13.99196 10.93117 32.79352l-1.31175 21.42518-31.0446 2.6235c-17.48981 1.74892-38.04041 4.80971-45.91091 7.4331-8.30767 2.6235-25.7976 5.68429-39.35216 7.43321-24.04868 2.6235-24.04868 2.6235-31.0446-11.80564-15.3036-31.48177-20.5506-63.40083-23.1741-136.85827-3.49796-102.753-11.80564-208.56679-16.17806-204.19436-1.74904 1.74903-5.247 86.13765-6.99604 186.70443l-3.06067 183.64377-20.98789 10.05671c-11.80564 5.24689-22.73681 8.74485-25.36031 7.4331-2.18622-1.74893-3.93525-32.79353-4.37243-69.08501 0-36.72867-1.31175-74.3319-3.49796-83.95133l-3.06079-17.48992-3.06067 21.42506c-1.74904 11.80575-3.06079 46.3482-3.06079 76.95551 0 77.82998-.87447 80.45348-27.98382 94.00804-85.26314 41.97577-137.73278 103.62757-138.17002 161.34412 0 20.11343 7.87044 50.28345 16.17814 59.90288 3.06072 3.49796 5.68421 8.74496 5.68421 11.36846 0 13.99185 90.94736 86.13765 135.54652 107.12543 56.84209 27.10935 81.32794 36.2916 126.80168 46.78548 8.30768 2.18622 24.04856 5.68418 34.97974 8.30768 139.48177 34.10529 295.5789 34.10529 445.99185.43729 10.93117-2.6235 27.54664-6.12147 37.16606-8.30768 28.85828-5.68429 73.45744-22.29964 113.6842-42.41306 41.1012-19.67603 68.2105-37.60324 90.5102-57.71655 27.5465-25.7976 51.5951-51.15791 51.5951-54.65588 0-2.18621 2.6235-7.43321 5.6841-10.93117 8.3077-9.61943 16.1782-39.78945 16.1782-59.90288 0-40.22662-28.4211-86.57482-74.7692-122.42913-26.672-20.11332-96.6316-58.15384-108-58.59102-3.4981 0-11.3685-2.6235-17.48991-6.12146-38.04053-19.23885-158.28345-43.7247-241.36032-48.53441-55.09316-3.49796-94.88261-11.80575-105.3765-22.73693-6.99592-6.55863-8.30767-18.80156-10.49399-80.01618-1.31176-39.78945-3.93514-88.76104-5.24689-109.31164-3.06079-36.72878-3.06079-36.72878-6.12146-15.30371-1.74904 11.80563-3.49797 59.90287-3.49797 105.81378-.43728 95.75708 0 94.44533-33.23081 69.95948l-19.23885-13.99185-.43729-54.65588c0-84.38872-5.24688-193.70047-8.74496-187.14172-3.06067 4.80971-11.36835 115.43321-14.42914 184.51822-.43717 11.80564-3.06067 22.29964-5.68417 23.1741-5.68418 1.74893-39.35228-43.28752-47.65995-64.2753-1.74893-3.49796-4.80971-10.05671-6.99593-13.99196-21.86235-41.1012-33.66798-118.0566-36.29148-236.11331-2.18622-99.6923153-6.12147-124.178144-15.74089-92.696358zm109.31175 605.149828c0 28.85828-1.74904 52.90684-3.93525 54.65588-14.42914 8.74485-109.74893-66.8988-109.74893-87.01223 0-4.37242 6.99593-7.43321 20.98778-9.18213 11.36846-1.31175 34.54256-4.80972 51.15791-7.8705 17.05264-3.06068 33.23081-4.80972 36.29149-3.93514 3.93525 1.31164 5.247 16.17806 5.247 53.34412zm74.76919 8.74485c-1.74893 74.33202-4.37243 80.45348-28.42099 68.64784l-15.30371-6.99592-1.31175-58.15384c-.87447-31.91906-.43718-60.77734.43728-63.83813.87446-3.93525 8.30768-5.247 24.04856-4.37242l22.29964 1.31175zm189.76522-58.59101c48.9717 6.99593 84.8259 14.86631 120.6801 25.79749 11.36846 3.49807 23.61139 6.55875 27.54664 6.55875 6.12146 0 13.99185 3.06067 55.09301 20.5506 29.7329 13.11739 50.7208 24.92314 77.3928 43.7247 30.6072 21.42506 40.2267 33.66799 29.2955 38.04052-3.9351 1.31175-110.6234 2.6235-237.42507 2.6235h-230.86643l-2.6235-29.73285c-1.74893-16.17817-3.06067-48.53441-3.06067-72.1458v-42.41295h58.15383c31.48178 0 79.57902 3.06079 105.81379 6.99604zm-399.20647 35.41691c35.8542 40.22674 69.5223 70.39677 98.81775 87.88669l31.48177 18.80168v24.92302c0 30.17003-7.87039 80.45348-13.11739 85.70036-2.6235 2.6235-7.43321 1.31175-12.24292-3.06067-4.37243-3.93525-10.0566-7.43321-12.24293-7.43321-6.55864 0-57.71655-52.90684-72.14568-74.33202-20.55061-30.17002-38.91499-73.45743-48.09713-112.37242-4.37254-18.36439-4.37254-24.04856 0-29.29556 8.30768-10.05672 11.80564-8.74497 27.54653 9.18213zm-66.8988 85.26319c-.43729 111.06079 3.93525 142.10528 29.73273 198.94736 5.68429 12.24293 10.05672 24.04857 10.05672 25.36032 0 7.8705-60.34005-7.87039-69.5223-17.9271-2.18622-2.18622-6.55864-63.40084-9.61943-135.98382-5.68417-141.2307-5.68417-142.97973 14.86643-146.91498 26.67206-5.24689 24.92313-10.49389 24.48585 76.51822zm-67.77327-31.48177c-3.49796 121.55467-7.8705 214.68825-10.05671 216.43728-4.37242 2.6235-42.85024-22.73681-62.96355-40.66402-29.73279-27.54653-38.91498-46.34809-38.91498-77.82998 0-25.36031 1.74899-29.73273 17.05263-49.84605 20.11331-26.23488 73.45744-66.46162 86.13765-64.71258 7.43321.87446 9.18214 4.37242 8.74496 16.61535zm130.73682 86.57493c13.11738 27.10924 58.15383 74.33202 87.88668 92.69629 27.98381 17.48993 29.29557 22.73693 13.55468 52.46966-5.68429 10.93118-12.24293 23.61139-14.42925 28.4211-6.99593 14.86643-21.42507 24.92303-31.04449 21.86235-11.36846-3.49796-37.16595-36.72877-48.9717-63.40083-19.23885-42.85024-34.10527-108.43729-34.54245-154.78538 0-12.68021 0-12.68021 8.74496-4.80971 4.80971 4.37242 13.11739 17.05252 18.80157 27.54652zm200.25911-12.24292c7.43321 4.37242 8.30767 9.61942 8.30767 58.15384 0 29.29556-1.74892 55.53033-3.49796 58.59112-3.93525 6.12146-34.54245 3.06068-38.4777-3.93525-2.6235-3.93525 5.68417-99.25504 9.61943-111.93525 1.74892-6.55864 12.6801-6.99592 24.04856-.87446zm486.65586 10.93117c32.7935 1.31175 53.7814 3.93525 55.5304 7.43322 4.8097 7.87038-.8745 34.97973-11.3684 51.59508-13.5547 21.42518-44.162 48.53442-61.6519 54.65588-10.4939 3.49796-75.6437 4.80971-219.06069 4.80971l-204.63153-.43717-1.31175-62.52638-1.31175-62.08909 195.88657 2.18633c108 1.31164 219.49795 3.06067 247.91905 4.37242zm-498.4615 139.91907c18.80156 7.87038 20.5506 20.5506 6.99593 52.46955-8.74497 20.5506-9.18214 20.5506-25.36032 17.92721-8.74496-1.31175-21.86235-2.6235-28.4211-2.6235-18.36438 0-18.80156-10.05671-2.62338-43.7247 16.17806-33.66799 20.55059-35.85431 49.40887-24.04856zm364.66391 17.9271c13.11739 2.6235 12.24293 9.61942-2.18621 13.11738-6.99593 1.31175-21.86235 5.247-34.10527 8.30768-91.82183 24.48585-271.09305 42.85024-279.83802 28.85827-2.18621-3.93513 2.6235-31.91895 9.18214-52.03237 1.31175-4.80971 27.98381-5.68418 149.53849-3.06068 80.89065 1.31175 151.7247 3.49797 157.40887 4.80972z" style="stroke-width:.437247"/></svg>