<svg height="960" style="" width="910" xmlns="http://www.w3.org/2000/svg"><path d="m254.55166 30.000183c-89.29128.17452-136.28234 123.706817-134.65357 219.804027h262.12731c.61079-95.1374-38.21154-219.978537-127.47374-219.804027zm407.1098.50385c-89.29129.17451-136.28234 123.706817-134.65358 219.804017h262.12735c.61075-95.13739-38.21157-219.978527-127.47377-219.804017zm-541.76337 263.135017v504.35264h262.12731v-504.35264zm407.10979.50385v504.22665h262.12735v-504.22665zm-405.7242 547.6836c-.35044 0-.74487.16226-1.0077.37786-.23363.24256-.37789.55838-.37789.88175v64.61859c0 12.9627 11.62039 21.91744 25.69629 21.91744h210.48281c14.0759 0 25.82225-8.95474 25.82225-21.91744l1.13366-65.8782zm407.10979.50388c-.35044 0-.74487.0363-1.0077.25191-.23363.24256-.37789.68427-.37789 1.0077v64.49264c0 12.96263 11.49443 21.91737 25.57033 21.91737h210.60879c14.07591 0 25.82221-8.95474 25.82221-21.91737l1.13365-65.75225z" style="stroke-width:64.4926"/></svg>