<svg height="960" style="" width="1456" xmlns="http://www.w3.org/2000/svg"><path d="m701.85427 281.14622c-9.6045 13.3397-25.6121 33.0823-35.7502 43.754s-18.1419 21.3434-18.1419 22.9442c0 1.6007-18.6755 18.6755-41.086 37.8845-54.4257 45.8883-70.9669 61.3623-70.9669 66.6982 0 2.1343 16.5412 17.6083 36.2838 33.6158 45.3548 37.351 88.0416 81.105 118.4559 122.191 32.0151 42.6868 42.6869 43.2204 72.034 2.668 26.6793-37.351 69.3661-81.6386 114.7208-119.5231 19.2091-15.474 36.8174-30.4144 39.4853-32.5487 7.4702-6.403-2.1343-17.6083-52.2913-59.7615-47.4891-40.5525-78.9706-74.702-110.4521-118.9895-9.6046-12.8061-21.3434-23.4778-26.1457-23.4778s-16.5411 11.2053-26.1457 24.5449zm60.2951 133.3963c16.5412 16.0076 29.8808 32.0151 29.8808 35.2166 0 3.2016-8.0038 13.3397-17.0747 22.9442-9.6045 9.6045-22.9442 23.4778-29.3472 31.4815-6.9366 7.4702-14.4068 13.8732-17.6083 13.8732s-10.6717-6.403-17.6083-13.8732c-6.403-8.0037-19.7427-21.877-28.8136-31.4815-9.6045-9.6045-17.6083-19.7426-17.6083-22.9442 0-7.4701 54.4257-64.0302 62.4294-64.5638 3.2016-.5335 19.7427 12.8061 35.7502 29.3472zm-591.74588-407.6589777c-1.06718 3.7350997-2.66793 13.8731997-3.7351 22.9440997-1.60076 14.4068-3.7351 16.5412-22.94416 18.6755l-21.34341 2.6679-1.60075 431.136778-1.06717 430.6033h250.78502c239.04615 0 251.85215.5336 270.52765 10.6717 10.6717 5.3358 20.8098 12.2724 22.4106 14.4068 21.877 29.3472 107.2506 29.3472 129.1276 0 1.6008-2.1344 11.7389-9.071 22.4106-14.4068 18.6755-10.1381 31.4815-10.6717 270.52773-10.6717h250.785l-1.0672-431.1368-1.6008-430.603278-21.3434-2.6679c-20.2762-2.6679-21.3434-3.7351-24.0113-24.0113l-2.6679-21.3433997-148.8703-1.6008c-99.2468-.5336-151.00463.5336-155.27333 4.2687-4.8022 4.2686997-8.0037 4.2686997-10.6717 0-4.2686-7.4702-110.9857-6.9366-118.4559.5336-4.2686 4.2686997-6.9366 4.2686997-9.0709 0-7.4702-11.7389-36.2838-5.86949996-67.7653 13.3395997l-31.4815 19.7427v51.7577c0 56.559998 1.0671 58.694398 32.0151 58.694398 25.0785 0 32.0151-4.8023 32.0151-24.0113 0-21.877 4.8022-35.750298 11.2053-31.481598 7.4702 4.2687 5.3358 30.414398-3.2015 43.220398-8.0038 11.2053-7.4702 12.2725 12.806 25.6121 12.2725 7.4702 26.1457 13.3396 30.9479 13.3396 12.8061-.5335 26.6793-11.7388 28.8136-23.4777 1.0672-5.8694 5.3359-11.2053 9.071-12.806 9.6045-3.2016 8.0038 19.7426-1.6008 23.4777-13.8732 5.8694-9.0709 26.1457 11.2053 43.75398 10.6717 9.6045 22.9442 17.0747 27.7464 17.0747 4.2687 0 18.1419-10.1381 30.4144-22.9442 32.0151-32.54858 45.35473-43.75388 45.35473-36.81728 0 3.2015-13.33963 19.209-29.34723 35.75018-19.209 19.7426-29.3471 34.683-29.3471 43.2204 0 6.9366 1.6007 12.806 4.2686 12.806 2.1344 0 8.0038 7.4702 12.8061 16.0076 10.1381 17.6083 21.877 20.2762 34.14943 8.0037 4.8023-4.2686 12.8061-8.0037 18.1419-8.0037 5.3359 0 10.6717-3.7351 12.8061-8.0038 3.2015-9.071 19.209-11.2053 19.209-2.6679 0 3.2015-5.8694 8.0037-12.806 10.6717-6.9366 2.6679-14.4068 7.4702-16.5411 10.1381-1.6008 3.2015-7.4702 5.8694-13.3397 5.8694-20.80983 0-17.60833 36.8174 5.8695 69.8997 8.5373 11.7389 9.6045 17.6083 4.8022 25.6121-4.2686 8.0037-2.6679 17.6083 5.8695 40.5524 8.5373 23.4778 9.6045 31.4816 4.8022 37.351-3.7351 4.2687-6.9366 20.2762-7.4702 35.7502-.5335 24.0113 1.0672 28.28 10.1382 29.8808 27.2128 4.2687 34.683 6.9366 31.4815 12.2724-1.6008 3.2015-12.8061 4.8023-24.5449 3.7351-18.1419-1.0671-23.4778.5336-32.5487 12.8061-20.27633 27.2128-10.13813 53.3585 27.2128 68.2989 6.403 2.6679 11.7389 7.4702 11.7389 10.6717 0 8.5373-16.0076 6.403-19.2091-2.6679-2.1343-4.2687-9.0709-8.0038-16.0075-8.0038s-12.8061-2.668-12.8061-5.3359c0-3.2015-4.26873-5.3358-10.13813-5.3358-10.6717 0-37.8845 32.0151-37.8845 44.8211 0 6.9366 20.2762 32.5487 49.62343 63.4967 5.3358 5.3358 8.5373 11.7388 6.403 13.3396-1.6008 2.1343-4.8023 1.0672-6.9366-2.1344-2.13433-3.2015-18.67553-18.6754-37.35103-33.6158l-33.6158-27.7464-20.8098 17.6083c-21.877 19.209-26.1457 30.9479-13.3397 41.6196 4.2687 3.7351 8.0038 10.6717 8.0038 16.0076 0 5.3358 3.7351 12.2724 8.0038 16.0075 9.0709 7.4702 10.6717 21.3434 2.6679 21.3434-3.2015 0-8.0038-5.3358-10.6717-12.2724-6.9366-15.474-16.5411-29.8808-28.8136-42.6869-10.1381-10.6717-10.1381-10.6717-34.683 2.668-14.9404 8.0038-23.4778 16.0075-22.4106 20.8098 5.3358 17.0747 6.9366 42.6868 3.7351 51.2242-5.8694 13.8732-13.8732-1.6008-13.8732-26.1457 0-22.4106-9.6046-27.7464-43.2204-24.5449l-18.1419 1.6007-1.6008 66.1646c-.5336 36.2838.5336 68.2989 3.2015 70.9668 3.2015 3.2015 11.2053-.5336 19.7427-8.5373 8.5373-8.0038 22.4106-16.0076 31.4815-18.1419 11.2053-3.2015 19.2091-10.1381 25.0785-22.4106l8.5374-17.6083 5.8694 16.5411 5.8694 17.0748h49.6235c29.3472 0 52.8249-2.668 56.0264-5.8695 4.2687-4.2687 9.071-4.2687 16.5411 0 6.9367 3.7351 63.49673 5.3359 164.34433 4.2687l154.2061-1.0672 2.6679-394.853 2.6679-394.852978h13.3397 13.3396v413.528478 413.5285l-247.0499 1.6007-247.05003 1.0672-36.8173 24.0113c-49.6235 32.5487-67.7653 32.5487-117.3888 0l-36.8173-24.0113-247.04997-1.0672-247.04992-1.6007v-413.5285-413.528478h13.33962 13.33963l2.66793 394.852978 2.66793 394.853 154.2061 1.0672c100.8476 1.0672 157.40758-.5336 164.34428-4.2687 7.4701-4.2687 12.2724-4.2687 16.5411 0 3.2015 3.2015 26.6792 5.8695 56.0264 5.8695h49.6235l5.8694-17.0748 5.8694-16.5411 8.5374 17.6083c5.8694 12.2725 13.8732 19.2091 25.0785 22.4106 9.0709 2.1343 22.9442 10.1381 31.4815 18.1419 8.5374 8.0037 16.5412 11.7388 19.7427 8.5373 2.6679-2.6679 3.7351-34.683 3.2015-70.9668l-1.6008-66.1646-18.1419-1.6007c-33.6158-3.2015-43.2204 2.1343-43.2204 24.5449 0 10.6717-2.1343 23.4778-5.3358 27.7464-10.1381 16.5412-13.8732-21.877-4.8023-52.8249 1.0672-4.8023-7.4702-12.806-22.4106-20.8098-24.5449-13.3397-24.5449-13.3397-34.683-2.668-12.2725 12.8061-21.877 27.2129-28.8136 42.6869-2.6679 6.9366-7.4702 12.2724-10.6717 12.2724-8.0038 0-6.403-13.8732 2.6679-21.3434 4.2687-3.7351 8.0038-10.6717 8.0038-16.0075 0-5.3359 3.7351-12.2725 8.0038-16.0076 12.806-10.6717 8.5373-22.4106-13.3397-41.6196l-20.8098-17.6083-33.6158 27.7464c-18.6755 14.9404-35.2167 30.4143-37.351 33.6158-2.1343 3.2016-5.3358 4.2687-6.93661 2.1344-2.66792-2.6679 18.14191-28.8136 46.95551-58.6944 12.2724-13.3396 11.7389-22.9441-4.8023-44.8211-13.3396-17.0748-34.1494-25.0785-34.1494-12.8061 0 2.6679-5.8695 5.3359-12.80607 5.3359-6.93661 0-13.87322 3.7351-16.00756 8.0038-3.20151 9.0709-19.20906 11.2052-19.20906 2.6679 0-3.2015 5.33585-8.0038 12.27246-10.6717 36.81733-14.9404 46.95553-41.0861 26.67925-68.2989-9.07094-12.2725-14.40679-13.8732-32.54869-12.8061-11.73887 1.0672-22.94416-.5336-24.54492-3.7351-3.20151-5.3358 4.26868-8.0037 31.48153-12.2724 9.07094-1.6008 10.6717-5.8695 10.13811-29.8808-.53358-15.474-3.73509-31.4815-7.47019-35.7502-4.80226-5.8694-3.73509-13.8732 4.80227-37.351 8.53736-22.9441 10.13812-32.5487 5.86944-40.5524-4.80227-8.0038-3.7351-13.8732 4.80226-25.6121 23.47777-33.0823 26.67927-69.8997 5.86944-69.8997-5.86944 0-11.73887-2.6679-13.33963-5.8694-2.13434-2.6679-9.60453-7.4702-16.54114-10.1381-6.93661-2.668-12.80604-7.4702-12.80604-10.6717 0-8.5374 16.00755-6.4031 19.20906 2.6679 2.13434 4.2687 7.47019 8.0038 12.80605 8.0038 5.33585 0 12.27245 3.7351 16.00753 8.0037 10.6717 12.8061 26.1457 9.6046 36.2838-8.0037 4.8023-8.5374 10.6717-16.0076 13.3396-16.0076 2.1344 0 3.7351-5.8694 3.7351-12.806 0-8.5374-10.1381-23.4778-29.3471-43.2204-16.0076-16.54118-29.34723-32.54868-29.34723-35.75018 0-6.9366 13.33963 4.2687 45.35473 36.81728 12.2725 12.8061 26.1457 22.9442 30.4144 22.9442 4.8022 0 17.0747-7.4702 27.7464-17.0747 20.2762-17.60828 25.0785-37.88458 11.2053-43.75398-9.6046-3.7351-11.2053-26.6793-1.0672-23.4777 3.2015 1.6007 7.4702 6.9366 8.5374 12.806 2.1343 11.7389 16.0075 22.9442 28.8136 23.4777 4.8022 0 18.6754-5.8694 30.9479-13.3396 20.2762-13.3396 20.8098-14.4068 12.806-25.6121-8.5373-12.806-10.6717-38.951698-3.2015-43.220398 6.4031-4.2687 11.2053 9.604598 11.2053 31.481598 0 19.209 6.9366 24.0113 32.0151 24.0113 30.948 0 32.0151-2.1344 32.0151-58.694398v-51.7577l-31.4815-19.7427c-31.4815-19.20909966-57.0936-24.5448997-68.2989-13.3395997-4.2687 4.2686997-6.9366 4.2686997-9.0709 0-4.8023-8.0038-110.9857-8.0038-118.9895 0-4.2687 4.2686997-6.9366 4.2686997-9.071 0-5.8694-9.071-301.47557-8.0038-304.67708.5336zm331.88998 39.4852997c-4.8023 4.8022-14.9404-3.2015-11.2053-9.6046 2.1343-3.2015 5.3358-3.2015 9.0709.5336 3.2016 3.2015 4.2687 6.9366 2.1344 9.071zm128.594 1.6007c1.0672 6.403.5336 16.0076-1.6008 20.8098-2.6679 7.4702-3.735 7.4702-8.0037 1.0672-8.0038-12.2724-6.4031-38.4181 1.6007-36.2838 3.2015 1.6008 6.9366 8.0038 8.0038 14.4068zm209.1654-2.6679c0 17.6083-5.3359 30.4144-11.2053 26.6793-5.3359-3.2016-6.403-30.4144-1.0672-35.7503 6.9366-7.4701 12.2725-3.2015 12.2725 9.071zm123.2582-.5336c-6.9367 6.9366-13.8733 1.6008-8.5374-6.403 1.6007-3.2015 5.8694-4.2687 9.0709-2.6679 3.2015 2.1343 3.2015 5.3358-.5335 9.0709zm-427.4018 58.160798c0 2.6679-2.1343 4.2687-5.3358 4.2687-2.6679 0-5.3359-5.3359-5.3359-12.272498 0-9.6045 1.0672-10.1381 5.3359-3.7351 2.6679 4.2687 5.3358 9.604598 5.3358 11.738898zm392.7187 2.6679c-5.8694 5.8695-9.0709-2.1343-4.8022-12.272398 3.735-9.6046 4.2686-9.6046 5.8694-.5336 1.0672 5.3358.5336 11.205298-1.0672 12.805998zm-377.7783 19.7427c1.6008 6.403-.5336 9.0709-5.3358 7.4702-3.7351-1.6008-8.0038-6.9366-8.5374-11.7389-1.6007-6.403.5336-9.071 5.3359-7.4702 3.7351 1.6008 8.0037 6.9366 8.5373 11.7389zm369.241-5.3359c0 8.5374-9.6046 16.5412-14.4068 11.7389-4.2687-4.2687 2.6679-19.2091 9.0709-19.2091 2.6679 0 5.3359 3.2015 5.3359 7.4702zm-528.78293 125.39248c4.80226 3.2015 5.33585 5.8695 1.06717 8.0038-6.93661 4.2687-16.54114-.5336-16.54114-8.0038 0-5.8694 5.86944-5.8694 15.47397 0zm688.85846 0c0 7.4702-9.6045 12.2725-16.5411 8.0038-4.2687-2.1343-3.7351-4.8023 1.0671-8.0038 9.6046-5.8694 15.474-5.8694 15.474 0zm-726.20942 96.0454c10.13812 6.403-2.13434 12.806-16.00756 8.5373-9.07094-3.2015-10.13811-4.8022-4.26868-8.5373 9.07095-5.8695 11.20529-5.8695 20.27624 0zm768.36262 0c5.8695 3.7351 4.8023 5.3358-4.2687 8.5373-13.8732 4.2687-26.1456-2.1343-16.0075-8.5373 9.0709-5.8695 11.2053-5.8695 20.2762 0zm-707.00033 14.4068c12.80604 4.8022 10.13812 12.806-4.26868 12.806-16.54114 0-29.88077-5.3359-29.88077-11.2053 0-5.3358 21.34341-6.403 34.14945-1.6007zm659.51123 1.6007c0 5.8694-13.3396 11.2053-29.8807 11.2053-13.3396 0-17.6083-8.0038-5.8695-12.2725 11.2053-4.8022 35.7502-3.7351 35.7502 1.0672zm-707.53389 192.0907c4.26868 6.9366-12.27246 12.2724-25.61209 8.0037-11.20529-3.7351-11.20529-3.7351-.53359-8.0037 14.94039-5.8695 22.94417-5.8695 26.14568 0zm749.68719 0c5.8694 3.7351 5.3358 5.3358-3.2015 8.0037-12.8061 4.2687-29.3472-1.0671-25.0785-8.0037 3.7351-5.8695 18.6754-5.8695 28.28 0zm-714.47057 96.0453c0 5.3358-16.00756 12.806-19.74265 9.0709-1.60076-1.6007-1.06717-4.8022 1.06717-8.0037 4.26868-6.9366 18.67548-8.0038 18.67548-1.0672zm669.64937 1.0672c2.1344 3.2015 2.6679 6.403 1.0672 8.0037-3.7351 3.7351-19.7427-3.7351-19.7427-9.0709 0-6.9366 14.4068-5.8694 18.6755 1.0672zm-538.38743 159.0084c-6.403 10.1381-12.806 6.403-10.1381-5.3359 2.1343-6.9366 4.8023-9.0709 8.0038-5.8694s3.7351 8.0037 2.1343 11.2053zm400.1889 4.8022c-5.3359 5.3359-15.474-8.0038-11.2053-14.9404 3.2015-4.8022 5.3358-4.2686 9.0709 2.1344 3.2015 5.3358 3.7351 10.6717 2.1344 12.806z" style="stroke-width:.533585"/></svg>