<svg height="960" style="" width="1230" xmlns="http://www.w3.org/2000/svg"><path d="m698.26171 495c-22.7539 0-45.5078 0-68.26171 0v60.76171c72.44932 5.64 133.78309 71.22944 135.08773 143.83502 3.44993 71.67095-51.46561 142.44819-123.25668 152.55286-14.97958-.36029-11.79094 13.26662-11.83105 23.4492v24.40121h480c0-135 0-270 0-405-37.7539 0-75.5078 0-113.26171 0-5.49175 65.91197-59.70813 123.48711-125.12696 133.03711-66.23437 12.00071-137.05968-27.10248-162.21679-89.53125-5.8694-13.82784-9.67035-28.5515-11.13283-43.50586zm-68.26171-435v45.76171c65.91197 5.49175 123.48711 59.70814 133.03711 125.12696 12.00071 66.23438-27.10248 137.05968-89.53125 162.21679-12.71043 7.92398-33.80032 6.78939-43.50586 13.64495v58.24959h68.26171c5.64-72.44933 71.22944-133.78309 143.83502-135.08773 71.67095-3.44993 142.44819 51.46561 152.55286 123.25667-.36029 14.97959 13.26661 11.79095 23.44921 11.83106h91.9012c0-135 0-270 0-405-160 0-320 0-480 0zm-396.73829 435c-37.7539 0-75.50781 0-113.26171 0v405h480c0-15.25391 0-30.50781 0-45.76171-72.44933-5.64-133.78309-71.22944-135.08773-143.83502-3.44993-71.67093 51.46561-142.4482 123.25667-152.55286 14.97959.36035 11.79095-13.26662 11.83106-23.44921 0-13.13374 0-26.26747 0-39.4012-22.7539 0-45.50781 0-68.26171 0-5.49174 65.91197-59.70814 123.48711-125.12696 133.03711-66.23438 12.00071-137.05968-27.10248-162.21679-89.53124-5.8694-13.82785-9.67036-28.55151-11.13283-43.50587zm-113.26171-435v405h113.26171c5.49174-65.91197 59.70814-123.48711 125.12696-133.03711 66.23438-12.00071 137.05968 27.10247 162.21679 89.53124 7.92398 12.71043 6.78939 33.80033 13.64495 43.50587h65.74959c0-20.2539 0-40.50782 0-60.76171-65.91197-5.49175-123.48711-59.70814-133.03711-125.12696-12.00071-66.23438 27.10247-137.05968 89.53124-162.21679 12.71043-7.92398 33.80033-6.78939 43.50587-13.64495 0-14.41653 0-28.83306 0-43.24959-160 0-320 0-480 0z" style="stroke-width:15"/></svg>