<svg height="960" style="" width="1252" xmlns="http://www.w3.org/2000/svg"><path d="m806.70869 749.0551c0 2.4095 2.811 10.0394 6.4252 16.4646 4.4173 9.2362 6.0236 21.2834 4.8189 46.1811-.8032 22.4882.4015 33.7323 3.2126 33.7323 11.244 0 57.4252-75.0945 51.8031-84.3307-1.2047-2.0079-6.8268-4.0158-12.4488-4.0158-5.6221 0-16.4646-2.811-24.4961-6.0236-16.4645-6.8268-29.3149-7.6299-29.3149-2.0079zm-391.5355 2.0079c-6.4252 3.2126-16.8661 5.622-22.8897 6.0236-6.0237 0-12.0473 2.0079-13.252 4.0158-5.6221 9.2362 40.5591 84.3307 51.8031 84.3307 2.8111 0 4.0158-11.2441 3.2126-33.7323-1.2047-24.8977.4016-36.9449 4.8189-46.1811 3.6142-6.4252 6.4252-14.0551 6.4252-16.4646 0-5.622-15.6614-4.4173-30.1181 2.0079zm257.0079-54.2126c-12.0472 13.252-11.2441 75.4961 1.2047 116.4567 26.9055 88.3464 30.1181 114.8504 18.874 146.5748-6.4252 18.0709-7.6299 30.1181-2.811 30.1181 2.0079 0 11.6457-11.2441 21.2835-24.8976 46.1811-63.4489 60.2362-111.2363 50.1968-169.8662-5.622-30.1181-13.6535-57.0236-22.0866-73.4882-2.0079-3.6141-4.8189-10.0393-6.0236-14.0551-2.4095-7.6299-15.2598-13.6535-37.748-17.2677-12.0473-2.0079-16.4646-.8032-22.8898 6.4252zm-132.1181-2.811c-8.4331 2.811-16.8661 7.6299-18.4724 10.8425s-4.8189 10.0394-7.2284 14.8583c-10.0394 18.874-17.6693 44.5748-23.2913 75.496-10.0394 58.6299 4.0157 106.4173 50.1968 169.4646 9.6378 14.0551 19.2756 25.2992 21.2835 25.2992 4.8189 0 3.6142-12.0472-2.811-30.1181-11.2441-31.7244-8.0315-58.2284 18.874-146.5748 12.4488-40.5591 13.2519-103.2047 1.6063-116.0551-8.4331-9.2363-17.2677-10.0394-40.1575-3.2126zm188.3386-81.9213c-6.4252 2.0079-17.6693 6.4252-24.8977 10.0394-15.6614 8.4331-54.6141 42.9685-51.4015 45.7795 1.2047 1.2047 18.0708 2.811 37.3464 2.811 37.7481.8032 34.937 0 125.2914 46.5827 26.9055 13.6536 33.3307 15.2599 59.433 15.6614 26.1024 0 32.9292-1.6063 58.2284-14.4567 16.063-8.0315 29.7165-15.6614 30.9212-17.2677 1.2048-1.6063 8.0315-6.8268 15.2599-12.0472 21.2834-14.8583 16.8661-18.4725-20.0788-17.2677-32.1259 1.6063-37.3464.4015-77.5039-17.2678-6.4252-2.811-14.8583-6.4252-18.0709-7.6299s-8.8346-4.0157-12.0472-6.0236-8.8347-4.8189-12.0473-6.0236c-3.2126-1.2048-8.8346-4.0158-12.0472-6.0236-26.5039-15.6615-73.8898-23.693-98.3858-16.8662zm-261.0236.4016c-22.8898 6.4252-42.567 14.8583-46.9843 19.2756-2.811 2.811-8.0315 4.8189-11.6457 4.8189-3.6141 0-8.8346 2.811-11.6456 6.0236-2.8111 3.2126-7.2284 6.0236-10.0394 6.0236-3.2126 0-10.441 2.4095-16.8661 5.6221-31.7245 15.6614-42.9686 18.4724-75.4961 18.4724-18.874 0-34.1339 1.6063-34.1339 3.6142s6.0237 8.0315 13.252 12.8504c6.8268 5.2204 13.6535 10.4409 14.8583 12.0472 1.2047 1.6063 14.8582 9.2362 30.9212 17.2677 25.2992 12.8504 32.126 14.4567 58.2284 14.4567 26.1023-.4015 32.5275-2.0078 59.433-15.6614 90.3544-46.5827 87.5433-45.7795 125.2914-46.5827 19.2756 0 36.1417-1.6063 37.3464-2.811 3.6142-3.2126-35.7401-37.3464-54.6141-46.9842-18.4725-9.6378-59.0315-14.0552-77.9055-8.4331zm384.307-90.7559c-7.2283 3.6142-14.0551 8.8346-15.2598 12.4488-3.6142 9.2362 7.2283 46.9843 14.4567 50.1968 3.2126 1.6063 10.0394 4.8189 14.8583 7.2284 18.0708 9.2362 43.7716 17.6693 73.4881 23.2913 24.0945 4.4174 36.1418 4.8189 60.2363 1.2048 16.46451-2.8111 34.53541-6.8268 40.15741-9.6378 34.9371-17.2678 48.9922-25.2992 71.4804-41.7638 29.7165-21.2835 28.1102-29.315-3.6142-19.2756-36.1417 11.6457-65.8583 8.0315-154.20471-19.6772-28.9134-9.2362-85.1339-11.2441-101.5985-4.0157zm-527.2677-3.6142c-1.2047.8032-11.6456 4.4173-23.6929 7.6299-12.0472 3.6142-38.1496 10.8425-58.2283 16.4646-42.16539 11.6457-69.47247 12.4488-97.98428 3.2126-31.72441-10.0394-33.33071-2.0079-3.61417 19.2756 22.48819 16.4646 36.5433 24.496 71.48036 41.7638 5.622 2.811 23.69289 6.8267 40.15739 9.6378 24.0945 3.6141 36.1418 3.2126 60.2363-1.2048 29.7165-5.622 55.4173-14.0551 73.4881-23.2913 4.8189-2.4095 11.6457-5.6221 14.8583-7.2284 7.2284-3.2125 18.0709-40.9606 14.4567-50.1968-4.0157-10.8425-28.5118-18.0709-59.8346-18.0709-16.4646 0-30.5197.8032-31.3229 2.0079zm468.2362 6.8268c-10.4409 11.6456-20.4803 24.8976-22.4881 29.3149-2.0079 4.4174-5.6221 10.8426-8.4331 14.4567-7.6299 10.8426-1.2047 19.6772 14.8583 19.6772 8.0314 0 20.0787 2.811 26.5039 6.4252 16.8661 8.4331 25.7008 4.8189 19.2756-7.2284-2.811-5.2204-5.2205-24.8976-5.6221-44.5748-.4015-19.2755-1.6063-36.1417-2.811-37.3464-1.2047-.8032-10.8425 7.6299-21.2835 19.2756zm-355.7952-20.8819c0 1.2047-.8032 18.0709-1.2048 38.1496-.4015 19.6772-3.2126 40.1575-6.0236 45.3779-6.4252 12.0473 2.4095 15.6615 19.2756 7.2284 6.4252-3.6142 18.4725-6.4252 26.5039-6.4252 16.063 0 22.4882-8.8346 14.8583-19.6772-2.811-3.6141-6.4252-10.0393-8.4331-14.8582-4.0157-8.8347-43.7716-53.4095-44.9763-49.7953zm365.8346-138.5433c-5.622 3.2126-16.8661 5.622-25.2992 6.0236-16.8661 0-23.2913 8.4331-15.6614 19.6772 2.811 3.6141 6.4252 10.0393 8.4331 14.4567 5.2204 12.4488 40.9606 50.5984 44.5748 48.1889 2.0078-1.2047 2.811-10.8425 1.2047-21.2834-1.6063-16.063 1.2047-41.7638 7.2283-64.6536 2.0079-8.0315-8.433-9.2362-20.4803-2.4094zm-374.6693-3.6142c-1.2047 1.6063-.4016 6.4252 2.0079 11.2441 2.4094 4.4173 4.8189 24.0945 5.2205 43.7717.4015 19.2755 1.6063 36.1417 2.811 37.3464 2.811 2.4095 38.9527-37.748 43.7716-48.5905 2.0079-4.4174 5.6221-10.8426 8.4331-14.4567 7.6299-11.2441 1.2047-19.6772-15.6614-19.6772-8.4331-.4016-19.6772-2.811-25.2992-6.0236-11.2441-6.4252-17.2677-7.2284-21.2835-3.6142zm507.189-16.063c-26.1024 4.8189-52.2047 13.252-69.4724 22.4882-4.8189 2.4095-11.6457 5.6221-14.8583 7.2284-7.2284 3.2125-18.0709 40.9606-14.4567 50.1968 7.6299 19.6772 69.874 22.8898 124.8898 6.4252 87.94481-26.9055 110.03151-29.7165 146.17321-17.6693 31.7244 10.0394 33.3307 2.0079 3.6142-19.2756-41.7638-30.5197-75.4961-45.7795-112.03941-51.8031-30.1181-4.4174-28.9134-4.8189-63.8504 2.4094zm-690.7087-.8031c-14.4567 2.811-29.71649 6.8267-34.13379 9.2362-4.4173 2.4094-16.06301 8.4331-26.10238 13.252-10.03937 5.2204-29.31496 17.6692-43.37008 27.7086-29.71654 21.2835-28.11024 29.315 3.61417 19.2756 36.14173-11.6457 65.45669-8.0315 154.20468 19.6772 30.5197 9.6378 81.5197 11.6456 99.5906 4.0157 8.4331-3.2126 16.063-8.8346 17.2677-12.4488 3.6142-9.2362-7.2283-46.9843-14.4567-50.1968-3.2126-1.6063-10.0394-4.8189-14.8583-7.2284-18.0708-9.2362-43.7716-17.6693-73.4881-22.8898-34.5355-6.8267-33.7323-6.8267-68.2678-.4015zm570.2363-102.4016c-90.3544 46.5827-87.5433 45.7795-125.2914 46.5827-19.2756 0-36.1417 1.6063-37.3464 2.811-3.6142 3.2126 35.7401 37.3464 55.0157 47.7874 30.1181 16.063 85.1339 12.0472 119.6693-8.8347 3.2126-2.0078 8.8346-4.8188 12.0472-6.0236 3.2126-1.2047 8.8347-4.0157 12.0473-6.0236s8.8346-4.8189 12.0472-6.0236 11.6457-4.8189 18.0709-7.6299c6.8268-2.8111 18.874-8.0315 27.3071-11.6457 10.0394-4.0158 26.9055-6.4252 48.9921-6.4252 18.874 0 34.1339-1.6063 34.1339-3.6142s-6.0237-8.0315-12.8504-12.8504c-7.2284-5.2204-14.0551-10.4409-15.2599-12.0472-1.2047-1.6063-14.8582-9.2362-30.9212-17.2677-25.2992-12.8504-32.126-14.4567-58.2284-14.4567-26.1023.4015-32.5275 2.0078-59.433 15.6614zm-495.9449-1.2047c-15.2599 8.0315-28.9134 15.6614-30.1181 17.2677-1.2048 1.6063-8.0315 6.8268-14.8583 12.0472-7.2283 4.8189-13.252 10.8425-13.252 12.8504s15.2599 3.6142 34.1339 3.6142c22.0866 0 38.9527 2.4094 48.9921 6.4252 8.4331 3.6142 20.8819 8.8346 27.3071 11.6457 6.8268 2.811 14.8583 6.4252 18.0709 7.6299s8.8346 4.0157 12.0472 6.0236 8.8347 4.8189 12.0473 6.0236c3.2126 1.2048 8.8346 4.0158 12.0472 6.0236 34.5354 20.8819 89.5512 24.8977 119.6693 8.8347 19.2756-10.441 58.6299-44.5748 55.0157-47.7874-1.2047-1.2047-18.0708-2.811-37.3464-2.811-37.7481-.8032-34.937 0-125.2914-46.5827-26.9055-13.6536-33.3307-15.2599-60.2362-15.2599-26.5039 0-33.3307 1.6063-58.2283 14.0552zm499.9606-91.9607c-.4016 22.8898-2.4094 38.9528-6.0236 45.378-11.6457 20.8819-4.0158 25.2992 23.2913 14.0551 8.0315-3.2126 18.874-6.0236 24.4961-6.0236 5.622 0 11.2441-2.0079 12.4488-4.0158 5.2205-8.8346-40.1575-84.3307-51-84.3307-1.6063 0-3.2126 15.6614-3.2126 34.937zm-405.5905-18.4724c-16.4646 20.4803-37.3465 62.2441-34.1339 67.8661 1.2047 2.0079 6.8268 4.0158 12.4488 4.0158 5.6221 0 16.4646 2.811 24.4961 6.0236 27.3071 11.2441 34.937 6.8268 23.2913-14.0551-3.6142-6.4252-5.622-22.4882-6.0236-45.378 0-19.2756-1.6063-34.937-3.2126-34.937-2.0079 0-9.6378 7.2284-16.8661 16.4646zm273.0708-154.20473c0 4.01575 2.811 14.45669 6.0236 23.29134 11.2441 31.72441 8.0315 58.22839-18.874 146.57479-6.8267 22.4882-9.2362 40.1575-9.2362 69.0709 0 35.3386.8032 40.1575 8.8347 48.189 8.8346 8.8346 9.6377 8.8346 31.7244 3.2126 12.8504-3.2126 24.0944-8.8347 25.7007-12.0473s4.8189-10.0394 7.2284-14.8583c10.0394-18.874 17.6693-44.5748 23.2913-75.496 10.0394-58.6299-4.0157-106.4173-50.1968-169.86616-18.4725-25.70079-24.4961-30.11811-24.4961-18.07087zm-144.9685 18.07087c-46.1811 63.44886-60.2362 111.23626-50.1968 169.86616 5.622 30.9212 13.2519 56.622 23.2913 75.496 2.4095 4.8189 5.6221 11.6457 7.2284 14.8583s12.8503 8.8347 25.7007 12.0473c22.0867 5.622 22.8898 5.622 31.7244-3.2126 8.0315-8.0315 8.8347-12.8504 8.8347-48.189 0-28.9134-2.4095-46.5827-9.2362-69.0709-26.9055-88.3464-30.1181-114.85038-18.874-146.57479 6.4252-18.07087 7.6299-30.11811 2.811-30.11811-2.0079 0-11.6457 11.24409-21.2835 24.89764z" style="stroke-width:.401575"/></svg>