<svg height="960" style="" width="1200" xmlns="http://www.w3.org/2000/svg"><path d="m506.42176 9.1786354c-82.17385 18.4769596-135.17355 42.7887496-196.9255 89.4673796-40.84381 31.119105-60.77948 51.541005-92.87104 95.788465-31.11909 43.27499-35.00898 49.59605-47.16487 74.88031-52.51346 110.37553-63.21066 223.18223-32.09157 337.93393 35.00898 129.3387 131.28367 247.9802 245.06285 301.4662 12.1559 5.8348 27.71544 13.6146 35.00898 17.5045 6.8073 3.8899 16.04578 6.8073 20.90814 6.8073 4.37612 0 13.6146 2.9174 20.90814 6.8073 7.29354 3.4036 23.33932 7.7797 35.49521 9.7247 21.88061 3.4036 22.85309 2.9174 33.06404-14.1009 14.10084-24.3117 13.12836-32.5778-2.91742-31.119-25.28426 1.9449-30.63285 0-30.63285-11.1835 0-15.5595 19.93567-53.4859 33.55027-64.6693 6.8073-5.3486 22.36685-18.9632 34.52274-30.6329l21.8806-20.4219-25.77049-24.3118c-28.68791-27.2292-35.00897-29.6604-35.00897-12.6421 0 6.3211-2.91742 17.9907-6.80731 25.7705-8.266 16.532-17.50449 43.275-20.90814 59.807-6.32106 30.1466-43.27498 47.6511-67.58677 31.6053-6.8073-4.3761-15.55955-15.0733-19.44944-23.3393-3.88988-8.7522-8.75224-18.9632-11.18342-22.8531-19.44943-33.064-29.17415-106.4856-18.9632-137.1185 4.86236-13.6146 26.25674-23.8255 45.21993-21.8806 8.26601.9725 9.72472-2.9174 13.12837-28.2017 1.94494-16.0458 6.32107-33.5502 9.23848-39.3851 2.91742-5.3486 4.37612-18.4769 3.40365-29.1741-1.45871-17.9907-2.43118-18.9632-17.99072-18.9632-10.69719 0-17.99073-2.9174-20.42191-8.7523-2.43118-4.3761-6.32106-12.1559-8.26601-17.0182-2.43117-4.3761-9.72471-10.6972-16.04578-14.1009-26.25673-13.1283-48.13734-48.13731-48.13734-78.28393 0-25.7705 12.15589-51.541 35.49521-74.88032 22.36685-22.36684 24.31179-23.33932 51.05476-23.33932 39.3851 0 83.63256 24.3118 83.63256 45.21993 0 11.18343 34.52274 47.16488 45.21993 47.16488 4.37612 0 10.21095-4.37612 13.12837-9.72472 3.88988-7.29353 10.21095-9.72471 23.82554-9.72471 10.6972 0 21.3944-2.91742 24.798-7.29354 3.4037-3.88989 8.7523-7.29354 11.6697-7.29354 2.9174-.48623 9.7247-3.88988 15.0733-8.75224 13.6146-11.18343 55.9171-67.10054 55.9171-73.42161 0-2.91742 3.4037-15.55955 7.7798-28.20168 7.2935-21.88061 7.2935-26.25673-.4862-68.55925-6.3211-34.0365-10.6972-46.67863-17.9908-51.05476-11.1834-6.8073-28.2016-37.92639-28.2016-51.054765 0-4.86235 3.4036-13.12836 7.2935-18.47696 4.3761-5.83483 5.8348-15.07331 4.3761-24.31179-1.4587-8.75224-.9724-16.53202 1.945-18.47696 2.4311-1.45871 18.4769-.48623 35.4952 2.43118 45.2199 7.29354 59.3207 21.88061 61.7519 66.128075.9725 17.99073 4.3761 35.98145 7.7798 39.87134 2.9174 3.88988 8.266 34.52274 11.6697 68.07301 3.4036 33.55027 7.2935 70.99043 8.7522 82.17385 3.8899 27.22921-7.7798 54.45841-35.4952 83.14633-11.6697 11.66966-20.9081 23.82555-20.9081 26.25673 0 2.91741-3.4037 8.75224-7.7798 13.6146-12.1559 13.12837-9.7247 34.03651 7.2935 58.34827 8.266 12.6422 15.0733 26.743 15.0733 32.0916 0 4.8624 2.9174 13.1284 6.8073 18.477 3.4037 5.3486 7.7798 16.0457 9.2385 24.3118 1.4587 7.7797 8.266 31.119 15.0733 51.0547s12.6421 40.3576 12.6421 46.1924c0 9.2385 8.2661 37.9264 21.8807 75.3666 3.8898 9.2384 7.7797 20.9081 9.2384 25.2842 1.945 6.3211 7.7798 8.7523 21.8807 8.7523 28.6879 0 37.4401 15.0733 35.9814 61.7519-1.4587 47.1649 4.3761 46.6787 54.4584-4.8623 82.66012-84.6051 124.47642-173.5862 133.71492-287.8516 10.2109-119.61406-14.1009-217.83369-77.3115-313.62214-39.87142-60.77948-123.50392-134.687325-182.82472-161.916535-10.6972-4.86236-23.3393-11.18342-28.6879-14.10084-14.5871-7.77977-50.5685-18.47696-97.2472-28.6879096-54.9446-11.66966-131.28364-11.66966-185.25582.48624z" style="stroke-width:.486236"/></svg>