<svg height="960" style="" width="1238" xmlns="http://www.w3.org/2000/svg"><path d="m569.32721-60-26.96819 25.32278h-422.4465l44.29158 55.95434h23.68772c108.56488 0 217.23821.36923 325.75011-.37255 19.39226 0 35.60546 3.12401 47.68589 19.07229a56.905164 56.905164 0 006.9335 6.41607l19.03089 3.0735a31.260751 31.260751 0 012.70095 2.59748 3.92084 3.92084 0 011.00381 1.90413c.37089 322.67453.6859 583.51638 1.0038 906.03196h54.30893c-1.43057-329.13862-.68258-895.4351 2.39051-910.00579l20.1796-3.75651a22.465353 22.465353 0 003.44605-2.44224c28.29363-26.49216 18.9659-22.56884 57.06163-22.62183h319.17881 25.0641l44.4571-55.42657h-422.1257l-27.08199-25.74706zm-362.19752 46.46476h283.6731v17.38548h-283.6731zm539.902 0h283.78691v17.38548h-283.78691zm-259.77844 71.27013a365.22094 365.22094 0 01-272.60021 1.6868c-1.90743 2.96712-3.13063 4.07979-3.34256 5.29843a52.560449 52.560449 0 00-.57952 8.641l.63126 790.15977c0 .58283.64202 1.21907 1.0659 1.74891l1.37635 1.26251h273.44878zm263.44178.0517c-4.50367 90.07335-2.39256 791.73893 2.1111 808.69397h272.66227c3.709-31.7906 2.5404-790.10309-1.6454-807.53494-90.70914 35.00498-181.74766 34.62305-273.12797-1.15903z" style="stroke-width:5.29843"/></svg>