<svg height="960" style="" width="1053" xmlns="http://www.w3.org/2000/svg"><path d="m527.97448.00433454c-69.61309-.50871-135.61281 43.79470546-159.32979 114.58509546-14.08689 42.0466-10.1432 87.34233 11.33131 130.11939 10.03927 19.99812 12.12567 26.87829 13.00912 42.9053.59459 10.78684.21556 16.36797-1.63647 24.04921-7.14841 29.64758-26.81209 51.60722-55.69835 62.2029-9.52332 3.49322-12.55197 3.86543-39.85217 4.90003-39.33685 1.49073-58.10983 5.64586-83.82842 18.55171-71.84277 36.05141-107.75819 117.56627-85.64713 194.38715 9.21938 32.03109 32.7751 65.62128 60.66978 86.5114 18.85915 14.12348 47.62384 26.59121 71.14808 30.83936 8.40314 1.51748 26.59151 1.98831 80.38637 2.08364l69.52665.124 58.93748-99.63325c32.41551-54.79785 59.2582-99.61511 59.65143-99.59568.39323.0194 27.10513 44.6981 59.36022 99.28754l58.64626 99.25373 67.78495.38893c56.09148.32076 69.96488.0208 80.42583-1.73606 33.55298-5.63486 63.88368-20.84464 88.78668-44.52298 46.87507-44.56985 63.32346-110.40938 42.8602-171.56294-5.92637-17.71071-12.54621-30.55854-23.20561-45.04154-25.02632-34.00348-62.69201-57.87336-104.16126-66.00945-6.56237-1.2875-23.70819-2.69203-40.28432-3.29925-24.47415-.89656-30.21573-1.52286-37.79107-4.12594-13.86413-4.76407-23.14123-10.68011-34.48056-21.98624-16.89472-16.84523-24.61287-35.83392-24.61287-60.5608 0-17.23378 2.35019-25.824 12.96967-47.41077 17.95471-36.49742 23.32416-67.24825 17.958-102.84983-8.8887-58.9718-48.4714-108.420786-104.44873-130.483887-19.20936-7.5712435-38.98362-11.22833046-58.47528-11.37076846zm-1.32083 716.77922546c-.6743-.0224-83.81151 240.2886-83.81151 242.26011 0 .52692 37.78832.95633 83.97496.95633 66.59037.00001 83.84899-.3551 83.36434-1.71726-.33615-.94479-19.10923-55.66347-41.71787-121.59695-22.60863-65.93348-41.42298-119.88934-41.80992-119.90223z" style="fill:#cd7c2b;stroke-width:.961968"/></svg>