<svg height="960" style="" width="1280" xmlns="http://www.w3.org/2000/svg"><path d="m618.91698 717.90847c-3.29475 18.67025-6.5895 63.69852-6.5895 98.84253s-5.49125 75.77927-12.08076 90.05649c-9.88425 21.965-8.786 32.9475 6.58951 56.0108 24.1615 36.2423 52.71601 36.2423 76.87752 0 15.3755-23.0633 16.47375-34.0458 6.5895-56.0108-6.5895-14.27722-12.08075-58.20723-12.08075-96.64599 0-79.07403-14.27726-126.29879-37.34051-126.29879-7.68776 0-17.57201 15.3755-21.96501 34.04576zm147.16554-101.03903c0 6.5895 17.57201 29.65276 38.43877 52.71601 20.86675 23.06326 40.63526 49.42127 43.93001 60.40377 9.88425 27.45626 41.73351 35.14401 57.10902 13.17901 19.7685-26.35801 18.67025-31.84926-9.88426-51.61777-14.27725-8.786-41.73351-31.84926-62.60026-50.51951-37.34052-34.04576-66.99328-43.93002-66.99328-24.16151zm-308.60834 24.16151c-20.86676 18.67025-48.32301 41.73351-61.50202 50.51951-29.65276 19.76851-30.75101 25.25976-10.9825 51.61777 15.3755 21.965 47.22476 14.27725 57.10902-13.17901 3.29475-10.9825 23.06325-37.34051 43.93001-60.40377 62.60027-68.09152 40.63526-90.05652-28.55451-28.5545zm539.24092-196.58681c-20.86676 6.5895-69.18978 14.27725-106.53029 16.47375-50.51951 3.29475-69.18977 9.88425-69.18977 20.86676 0 10.9825 14.27726 15.3755 50.51952 15.3755 27.45626 0 59.30552 5.49125 71.38627 12.08076 12.08075 5.49125 56.01077 14.27725 98.84257 17.572 68.0915 5.49125 79.074 4.393 97.7443-16.47375 26.358-28.55451 26.358-29.65276 3.2947-57.10902-20.8667-24.16151-79.074-27.45626-146.0673-8.786zm-853.34052 10.9825-23.06325 26.35801 26.35801 25.25975c25.25975 24.16151 34.04576 25.25976 103.23553 19.76851 41.73351-3.29475 85.66352-12.08075 97.74428-17.572 12.08075-6.58951 43.93001-12.08076 71.38627-12.08076 37.34051 0 50.51951-4.393 50.51951-16.47375 0-13.17901-14.27725-16.47376-61.50201-16.47376-32.94751 0-70.28803-5.49125-82.36878-10.9825-10.9825-6.5895-51.61777-14.27726-90.05653-17.57201-61.50202-5.49125-70.28802-3.29475-92.25303 19.76851zm429.41589-65.89502c-66.99327 76.87752-69.18978 97.74428-19.76851 159.2463 36.24226 43.93001 42.83176 47.22476 90.05653 47.22476 50.51951-1.09825 101.03903-27.45626 101.03903-52.71601 0-5.49126 7.68775-16.47376 16.47375-24.16151 26.35801-21.96501 19.76851-54.91252-23.06325-105.43203-36.24226-45.02827-42.83177-48.32302-91.15478-48.32302-40.63526 0-57.10902 5.49125-73.58277 24.16151zm128.49529 154.8533c-1.09826 13.179-16.47376 9.88425-20.86676-4.39301-3.29475-6.5895 1.09825-10.9825 8.786-8.786 6.5895 3.29475 12.08076 8.786 12.08076 13.17901zm139.47779-297.62585c-19.76851 26.35801-41.73351 51.61777-48.32302 58.20727-6.5895 5.49125-15.3755 19.76851-18.67025 29.65276-10.98251 32.94751 18.67025 23.06326 70.28802-21.96501 26.35801-23.06325 57.10902-45.02826 68.09152-49.42126 18.67026-6.5895 18.67026-8.786 1.09825-35.14401-9.88425-15.37551-21.96501-27.45626-26.35801-27.45626-5.49125 0-25.25976 20.86676-46.12651 46.12651zm-462.36339-19.7685c-16.47376 25.25976-15.37551 26.35801 41.73351 68.09152 32.94751 24.16151 60.40377 46.12651 60.40377 50.51952 0 5.49125 7.68775 8.786 16.47375 8.786 19.76851 0 21.96501-26.35801 2.1965-46.12652-7.68775-7.68775-29.65276-35.14401-49.42126-61.50202-20.86676-25.25975-40.63526-46.12651-46.12652-46.12651-4.393 0-16.47375 12.08075-25.25975 26.35801zm228.43607-228.4360735c-15.37551 23.0632605-16.47376 34.0457605-6.58951 56.0107705 6.58951 14.27725 12.08076 54.912513 12.08076 90.056523 0 92.25303 9.88425 132.88829 32.94751 132.88829s32.94751-40.63526 32.94751-132.88829c0-35.14401 5.49125-75.779273 12.08075-90.056523 9.88425-21.96501 8.786-32.94751-6.5895-56.0107705-10.9825-15.3755055-27.45626-28.5545095-38.43876-28.5545095-10.98251 0-27.45626 13.179004-38.43876 28.5545095z" style="stroke-width:1.09825"/></svg>