<svg height="960" style="" width="1252" xmlns="http://www.w3.org/2000/svg"><path d="m546.90349 840h-427.23986a288.08869 288.08869 0 0187.03025-211.64216 288.08972 288.08972 0 01211.64216-87.03026 290.35017 290.35017 0 01207.68595 83.07438zm-127.57856-719.97829a172.48295 172.48295 0 01126.58967 52.41593 172.48295 172.48295 0 0152.41593 126.58968 172.48295 172.48295 0 01-52.41593 126.58967 172.48295 172.48295 0 01-126.58967 52.41593 172.48295 172.48295 0 01-126.58968-52.41593 172.48295 172.48295 0 01-52.41593-126.58967 172.48295 172.48295 0 0152.41593-126.58968 172.48295 172.48295 0 01126.58968-52.41593zm414.38334 0a180.1987 180.1987 0 0190.98647 23.73559 172.38118 172.38118 0 0165.27278 65.27449 180.2011 180.2011 0 0123.73388 90.98304 171.33885 171.33885 0 01-52.41491 125.60216 179.07071 179.07071 0 01-253.179 0 172.48295 172.48295 0 01-52.41593-126.58967 172.48295 172.48295 0 0152.41593-126.58968 171.33816 171.33816 0 01125.60078-52.41593zm298.67233 719.97829h-597.34473a297.15311 297.15311 0 01298.6724-298.67242 297.15311 297.15311 0 01298.67233 298.67242z" style="stroke-width:34.2648"/></svg>