<svg height="960" style="" width="1200" xmlns="http://www.w3.org/2000/svg"><path d="m546.37364 0-165.27474 249.84615 130.69598 130.69597 82.63735-107.663v-249.26007zm107.0183 0-47.06226 23.61905v249.26007l82.63736 107.663 130.52013-130.69597zm-284.24908 260.21978-248.67399 166.85714 23.79487 46.12456h249.84615.0586l105.67033-82.63739zm461.71427.58608-130.69595 131.28203 105.67032 82.63739h.0586 249.8462l23.7948-48.05862zm-230.44687 121.26007c-57.7341 0-104.55678 46.82268-104.55678 104.55677 0 57.7341 46.82269 104.55678 104.55678 104.55678 57.70409-.09 104.37814-46.85269 104.49817-104.55678 0-57.73409-46.76407-104.55677-104.49817-104.55677zm0 19.22344c47.14151 0 85.33333 38.19182 85.33333 85.33333s-38.19182 85.33334-85.33333 85.33334-85.33333-38.19183-85.33333-85.33334 38.19182-85.33333 85.33333-85.33333zm-10.19781 49.81684-34.63737 26.31502v7.44322.0586 7.44323l34.63737 26.37365v-18.87181l-15.12087-14.94506 15.12087-15.00366zm18.81318 0v18.81319l15.1209 15.00366-15.1209 14.94506v18.87181l34.57876-26.37365v-7.50183-7.44322zm-9.43589 26.25641c-5.22127 0-9.37729 4.24466-9.37729 9.4359 0 5.2213 4.15602 9.43592 9.37729 9.43592s9.43589-4.24466 9.43589-9.43592c0-5.22125-4.21462-9.4359-9.43589-9.4359zm207.41394 8.14654-105.67035 82.63736 129.69964 131.28205 249.08423-165.91942-23.619-47.99999zm-663.50184 1.5238-23.61905 46.12453 249.08424 166.79854 129.69964-130.28571-105.67033-82.63736zm368.29304 93.42124-130.69598 130.63737 165.27474 248.90843 48.05859-23.61907v-248.32232zm177.17216 0-82.63735 107.60441v248.32232l47.06225 23.61907 166.09523-248.90843z" style="stroke-width:30.0073"/></svg>