<svg height="960" style="" width="1154" xmlns="http://www.w3.org/2000/svg"><path d="m602.44321 243.30944c-4.9293 3.9434-17.2525 7.3939-26.6181 7.3939s-23.6605 3.4505-31.5473 7.3939c-7.3939 3.9434-19.2242 7.3939-25.6323 7.3939-6.9009 0-20.21 3.4505-30.0685 7.3939-9.3657 3.9434-23.6605 7.3939-31.5474 7.3939-31.0544 0-32.5332 11.8303-29.5756 197.171.9858 70.4886 2.9575 91.6845 11.3373 116.8238 16.7595 51.2644 71.9674 104.9935 145.9065 143.4418l30.5615 15.7737 18.2383-9.8586c10.3515-5.4222 20.21-9.8585 22.1817-9.8585 11.3374 0 69.9957-41.8988 100.0643-71.4745 48.7998-47.8139 55.2079-66.5452 59.1513-176.468 3.4505-102.0359-.9859-188.7912-10.8444-198.6497-3.9434-3.9434-13.3091-6.901-20.703-6.901-7.8868 0-22.1817-3.4505-31.5473-7.3939-9.8586-3.9434-24.1535-7.3939-31.5474-7.3939s-18.2383-3.4505-23.1676-7.3939c-5.4222-3.9434-14.7878-7.3939-20.7029-7.3939s-18.7312-3.4505-28.0969-7.3939c-22.6746-9.3657-33.519-9.3657-45.8422 0zm36.4766 30.5615c.9859 4.4363-3.9434 6.408-15.7737 6.408-16.7595 0-21.6888-3.9434-14.2949-11.8302 5.4222-5.4222 27.604-.9859 30.0686 5.4222zm-45.8422 13.8019c0 2.4647-9.3656 5.4222-20.703 6.4081-19.7171 1.4788-26.1251-2.4647-17.7454-10.8444 5.4222-4.9293 38.4484-1.4788 38.4484 4.4363zm100.0642.9859c.9859 4.4363-4.4363 6.408-18.2383 6.408-19.2242 0-28.0968-4.9292-21.6888-11.8302 5.9151-5.4222 37.4625-.9859 39.9271 5.4222zm-154.2862 13.802c0 5.9151-29.5757 9.3656-40.913 4.9292-6.901-2.4646-6.901-3.4505-.9859-7.8868 9.3657-5.9151 41.8989-3.4505 41.8989 2.9576zm206.0436 0c-1.9717 7.3939-37.4625 5.9151-39.9271-1.4788-1.4788-4.9293 3.4505-5.9152 19.2242-4.9293 11.8302.9858 21.1958 3.4505 20.7029 6.4081zm-261.2515 14.7878c-1.4788 6.408-26.1252 9.8585-26.1252 3.4505 0-7.3939 6.4081-11.3374 17.2525-9.8586 5.4222.9859 9.3656 3.4505 8.8727 6.4081zm296.7423-2.4647c1.4788 2.9576-.493 6.4081-4.4364 7.8869-10.3515 3.9434-24.1534-1.4788-20.21-7.8869 3.9434-6.408 20.703-6.408 24.6464 0zm-309.0655 248.9284c-1.4788 15.7736-10.3515 19.717-12.8161 5.4222-.9859-4.9293-.4929-16.7596 1.4788-26.6181 3.4505-17.7454 3.9434-17.7454 8.3797-5.9152 2.4647 6.4081 3.9435 18.7313 2.9576 27.1111zm311.0372-1.4788c.4929 7.3939-1.9717 14.7878-4.4364 16.2666-7.8868 4.9292-11.3373-10.3515-7.3939-31.0544 2.9576-15.2808 4.4364-16.7596 7.3939-8.3798 2.4647 5.4222 4.4364 15.7737 4.4364 23.1676zm-295.2635 40.42c0 3.9434-1.9717 8.3798-4.4364 10.3515-5.9151 3.4505-11.8302-5.9151-7.8868-12.3232 4.4363-7.3939 12.3232-5.9151 12.3232 1.9717zm278.5039 1.9717c0 8.8727-9.8585 7.3939-11.3373-1.9717-1.4788-4.9293.4929-7.3939 4.9293-5.9151 3.4505 1.4788 6.408 4.9293 6.408 7.8868zm-249.9141 37.9554c12.3232 12.3232 25.1393 22.1818 28.5898 22.1818s8.3797 2.9575 10.3514 6.408c1.9717 3.9434 7.8869 7.8869 12.8161 9.8586 4.4364 1.4787 8.3798 5.4222 8.3798 8.3797 0 7.8869-14.7878 5.9152-17.7454-2.4646-1.9717-3.9434-5.9151-7.3939-9.8585-7.3939-6.4081 0-61.123-49.7857-61.123-55.7008 0-6.901 6.901-2.4646 28.5898 18.7312zm237.591-19.2241c0 5.4222-37.9554 41.4059-43.8706 41.4059-2.9575 0-5.4222 1.9717-5.4222 4.4363 0 6.901-15.7736 11.3373-21.1958 5.9151-3.4505-3.4505-.9859-6.9009 6.9009-10.3514 18.2383-7.8869 30.0686-15.7737 43.3776-31.0545 11.8303-12.8161 20.2101-16.7595 20.2101-10.3514zm-74.925 62.1088c-1.4788 3.4505-6.4081 7.3939-11.8303 8.3798-4.9292.9858-11.3373 4.4363-13.309 8.3797-4.4363 7.8869-21.1959 9.3657-25.6322 1.9718-1.9717-2.9576 3.4505-6.4081 11.8302-7.8869 7.8869-1.9717 15.7737-5.9151 17.2525-9.8585 3.4505-8.8727 24.1534-9.3657 21.6888-.9859zm-73.9391 17.7454c1.4788 4.4363-1.4788 6.4081-9.3656 4.9293-5.9151-.493-11.8303-4.4364-13.3091-7.8869-1.4787-4.4363 1.4788-6.408 9.3657-4.9292 5.9151.4929 11.8302 4.4363 13.309 7.8868zm15.7737 9.8585c0 6.4081-5.9152 10.8444-10.8444 7.8869-4.9293-2.9576-.493-11.8303 6.408-11.8303 2.4647 0 4.4364 1.9717 4.4364 3.9434zm-392.86313-504.2647c-7.88684 3.4505-16.26661 9.8586-18.23832 14.7879-3.94342 10.8444-3.45049 37.9554.98586 44.8564 6.90098 9.8585 28.09689 21.6888 38.44829 21.6888 13.3091 0 41.4059-32.0403 41.4059-46.8281-.4929-26.1252-35.4907-45.8423-62.60173-34.505zm104.50063-61.6159c-18.7313 5.9152-27.111 17.2525-27.111 37.9554 0 20.2101 13.309 34.5049 35.9837 38.4484 22.6746 4.4363 36.4766-3.9435 41.8988-23.6605 3.9434-15.2808 0-40.913-7.3939-48.3069-6.901-6.901-28.5898-8.8727-43.3776-4.4364zm99.0784-62.108803c-37.9554 17.252403-34.5049 67.038103 5.4222 78.868403 16.2666 4.9292 44.8564-8.8727 48.7998-23.6606 5.4222-22.1817-1.9717-44.363403-17.2525-53.729003-16.7595-9.8586-17.7454-9.8586-36.9695-1.4788zm83.7976-40.913c-16.2666 19.2242-16.2666 26.1252 2.4647 49.2927 10.3514 13.309103 19.2241 19.224203 27.6039 19.224203 16.7595 0 39.4342-14.294903 42.8847-26.618103 9.3656-34.5049-6.4081-57.17954-39.9271-57.17954-16.7596 0-22.6747 2.95756-33.0262 15.28074zm108.937-41.4058903c-1.9717 1.47878-3.4505 23.6605103-3.4505 48.7997903v45.8423l27.111 12.816103c14.7878 7.3939 37.4625 20.21 50.2786 29.0827 21.6888 14.2949 41.4059 25.6322 82.8118 46.3352 8.3797 4.4363 21.6888 12.3231 29.5756 18.2383 8.3798 5.9151 23.6605 15.2807 34.5049 20.7029 38.4484 19.7171 54.222 28.5898 57.1796 32.5332 1.4788 1.9717 12.3232 8.8727 24.6464 15.2808l21.6888 11.8302v195.6922 195.6922l-21.6888 11.8302c-12.3232 6.4081-23.1676 13.3091-24.6464 15.2808-2.9576 3.9434-18.7312 12.8161-57.1796 32.5332-10.8444 5.4222-26.1251 14.7878-34.5049 20.7029-13.309 9.3656-32.0403 19.7171-73.9391 40.913-7.8868 4.4363-24.6464 14.2949-36.9695 22.6747-12.3232 8.3797-34.9979 21.6888-49.7857 29.5756l-27.6039 13.802-27.604-12.8161c-14.7878-7.394-35.4907-18.7313-45.8422-26.1252-24.1535-16.2666-73.9391-44.3635-91.6845-51.2644-7.8868-2.9576-13.802-7.394-13.802-9.8586 0-1.9717-11.8302-9.8585-26.6181-16.7595-14.7878-6.901-34.0119-17.7454-42.8846-23.6605-9.3657-6.4081-31.5474-19.7171-49.7857-29.5757l-33.5191-18.7312v-83.3047c0-55.7008 1.9718-84.2906 5.4222-86.7553 2.9576-1.4787 19.2242-3.4504 36.4767-3.4504 38.4483 0 44.8564-2.9576 36.9695-18.2384-4.9293-9.3656-29.0827-40.42-54.222-70.4886-2.9576-3.4505-16.7595-20.21-30.5615-37.9554-38.9412-49.2927-38.4483-49.2927-66.54518-15.2807-59.15128 72.9532-97.59962 125.2035-97.59962 132.5974 0 6.901 6.40806 8.3798 43.37761 9.8586l42.88468 1.4788v107.9511c0 121.753-.98586 118.3025 38.94131 136.0479 10.8444 4.9293 20.21 10.3515 20.21 12.3232 0 2.9576 20.21 14.7878 56.6866 33.0261 8.3798 3.9434 18.2383 9.8586 22.1818 13.3091 3.9434 3.4505 20.7029 13.309 36.9695 22.1817s38.4483 22.1817 49.2927 29.0827 34.012 20.21 51.7574 29.0827c17.7454 9.3656 35.4908 19.7171 39.4342 23.1676s20.703 13.309 36.9696 22.1817 34.0119 19.2242 39.4341 22.6747c14.7879 10.3515 31.0545 8.3798 57.6725-7.8868 12.8162-7.8869 25.6323-14.7879 28.0969-14.7879 1.9717 0 13.309-6.9009 25.1393-15.2807s36.4766-23.6605 55.2079-33.5191c37.9554-19.7171 41.8988-21.6888 71.4744-41.4059 11.8303-7.3939 23.1676-13.309 25.1393-13.309 2.4647 0 13.3091-6.4081 23.6605-13.802 10.3515-7.8868 26.1252-17.2524 34.012-21.1958 49.7857-25.1393 105.48649-59.6443 111.89449-69.9957 5.4222-8.3798 4.9293-475.6749-.4929-485.5335-2.4646-4.4363-15.2807-13.802-28.5898-20.7029-12.81609-6.901-25.13929-14.2949-26.61799-16.2666-2.9576-3.9435-8.3798-7.394-48.7999-28.0969-12.3231-6.4081-28.5897-16.2666-36.9695-22.1817-7.8868-5.9152-24.1535-15.2808-35.4908-21.1959s-30.5615-16.7595-41.8988-24.1535c-11.8303-7.393903-34.9978-20.702903-51.2645-29.082703-16.7595-8.8727-39.9271-22.6746-51.2644-31.0544-11.8303-8.3798-23.1676-15.28074-25.1393-15.28074-2.4646 0-15.2807-6.90098-28.0969-14.78782-26.1251-15.7736803-27.111-16.2666103-32.0402-11.3373303z" style="stroke-width:.492927"/></svg>