<svg height="960" style="" width="1286" xmlns="http://www.w3.org/2000/svg"><path d="m350.87796 0 1.77818 370.86264-183.33635 108.53021 125.26963 74.19297-134.58974 87.06942 122.32643 70.00301 30.04509 17.16863 21.46077 12.24285 29.39104 16.84161 18.21102 10.36247 29.51366 16.84162 17.57741 10.0559 28.67567 16.43283 188.4665 107.67177 186.48391-109.14338 28.47129-16.63721 17.37302-10.15809 29.18664-17.046 18.00662-10.58731 28.98227-16.94379 21.23594-12.44726 29.61584-17.27081 116.2766-68.02044-122.44909-86.02705 127.04779-74.60174-179.88217-108.53021-1.79863-370.86264h-40.28494l1.77818 482.51999s-38.71524 110.10399-260.04327 110.10399c-221.32805 0-253.13496-106.95641-253.13498-106.95641l-1.77816-485.66757zm208.55786 105.0556-113.23114 122.34687v86.12925l190.57168-208.47612zm98.26991 0 190.55126 208.47612v-86.12925l-113.21071-122.34687zm-10.46468 44.59754-62.37932 68.96062h124.7382zm-87.80523 101.90803-113.23114 122.34686v86.12925l190.57168-208.47611zm98.26991 0 190.55126 208.47611v-86.12925l-113.21071-122.34686zm301.69762 325.57018 84.75985 59.64052-74.82657 43.73911c-31.18476-25.53383-52.41824-48.45312-55.34835-64.46409l-25.42592 14.98167-1.90082 1.04238c8.58105 20.0922 28.58576 42.47354 54.22423 65.07725l-21.35858 12.46768c-28.67323-25.32453-47.50721-48.87988-49.80943-67.61167l-25.63031 15.06343-2.30957 1.4716c7.42992 21.4526 25.63111 44.46918 50.01381 67.38683l-18.82416 11.09829c-28.98717-25.84776-47.7165-49.28048-49.80944-67.48903l-25.65073 15.06342-2.41179 1.4716c7.42992 21.03401 25.44472 43.94594 49.93208 67.38683l-18.3132 10.46468c-28.77787-26.371-47.10579-49.92145-49.09408-67.81605l-25.5281 14.96123-2.41178 1.36941c7.32528 20.61542 25.22233 43.52735 49.60505 67.38683l-153.92486 90.11481-155.08987-88.74541c25.32453-24.48735 43.7489-48.04679 51.17884-69.18546l-2.51398-1.45114-25.42591-15.06343c-1.67436 18.3132-20.73397 42.58799-50.87226 69.90081l-18.21099-10.46469c25.53381-24.17341 44.38006-47.92987 51.91463-69.69642l-2.51397-1.47159-25.52811-15.16561c-1.77899 18.62713-21.4575 43.10631-52.11903 70.10519l-19.04898-10.87345c25.74311-23.96413 44.99322-47.93806 52.52779-70.22783l-2.61616-1.5738-25.63031-15.16561c-1.67435 19.46431-21.86628 44.26071-52.5278 70.84099l-21.46077-12.24285c27.41747-23.65019 48.77032-47.29056 57.35136-68.42922l-2.1052-1.2672-25.4259-15.06344c-2.19758 16.5342-25.10871 41.01667-58.70033 68.22484l-78.17855-44.6793 94.28434-60.90771 43.12595 25.52809 30.35167 18.00661 13.59182 8.0529 30.55605 18.10882 16.22844 9.62668 30.55605 18.10882 14.75684 8.6865 30.45386 18.08836 101.19266 59.96754 101.29488-59.53832 30.45385-17.90442 14.75684-8.68651 30.55605-17.88398 16.33064-9.52449 30.45385-17.88398 13.91886-8.17553 30.12683-17.6796zm52.52785 137.49203-4.0878 2.41179-25.7325 15.08387c68.6483 50.54441 150.9072 95.8434 176.755 109.55214l7.4194 3.98557v-35.6862c-49.498-26.78959-106.5305-61.44158-154.3541-95.34717zm-741.62313 2.61617c-47.09107 33.0684-102.45578 66.67394-150.59332 92.731v35.6862l7.43973-3.98557c25.32453-13.49945 105.36219-57.55821 173.38263-107.16081l-25.93688-14.85903zm690.56689 27.22454-3.98558 2.28914-25.42591 14.85904c87.90333 67.39256 207.19823 127.15735 227.70903 137.30809l6.9083 3.35196v-35.07304c-62.9973-31.39405-143.3596-77.52776-205.20584-122.73519zm-639.08146 2.18695c-61.21839 44.57955-140.02318 89.69541-202.07875 120.67087v35.0526l6.90832-3.45415c20.30149-9.94145 137.40128-68.64751 224.99068-135.20289l-25.63028-14.65465zm591.86775 25.42591-3.76074 2.20739-25.7325 15.06343c96.17044 75.555 235.55259 147.75642 275.00449 167.63931l7.0106 3.55636v-35.15479c-78.0666-39.7658-179.58301-98.58141-252.52185-153.3117zm-544.16351 1.90081c-72.6249 54.20706-172.65828 112.16833-249.78299 151.41089v35.15479l7.01051-3.55636c39.13792-19.6736 176.75422-90.93401 272.71537-165.86114l-25.95732-14.85902zm497.39946 25.52811-3.65856 2.08475-25.01713 14.65465c113.54181 91.87992 292.17559 185.21833 320.84889 199.97353l7.2149 3.679v-35.37962c-93.2404-48.34683-216.29851-120.75916-299.3881-185.01231zm-449.87918 1.57378c-83.19423 63.83457-204.90012 135.50784-297.30327 183.54074v35.37961l7.21491-3.679c28.56858-14.6505 205.42419-107.14525 319.07064-198.50194l-25.22153-14.45026z" style="stroke-width:10.4647"/></svg>