<svg height="960" style="" width="1130" xmlns="http://www.w3.org/2000/svg"><path d="m1006.6717 169.21861c-27.55521-39.25312-105.28158-131.276987-247.47666-168.7104275-9.0984-2.33959-18.71672 3.63936-20.27644 12.9977205-9.09841 53.0307-46.27189 210.043177-173.90952 210.043177s-164.81111-157.012477-173.90952-210.043177c-1.55972-9.3583605-11.17804-15.3373105-20.27644-12.9977205-142.19508 37.4334405-219.92145 129.4573075-247.47662 168.7104275-6.23891 8.83845-2.33959 20.79635 7.79863 24.43571 52.25084 18.19681 190.80655 76.42661 190.80655 182.22806 0 110.22068-116.19963 179.10861-152.59325 197.82533-6.49886 3.3794-9.87827 10.39817-8.5785 17.41694 37.43344 198.08528 196.2656 340.28036 225.3805 364.97603 2.8595 2.59954 6.49886 3.89932 10.39818 3.89932h168.19051 168.19052c3.89932 0 7.53868-1.29978 10.39818-3.89932 29.1149-24.69567 187.94706-166.89075 225.3805-364.97603 1.29977-7.01877-2.07964-14.03754-8.5785-17.41694-36.39362-18.71672-152.59325-87.60465-152.59325-197.82533 0-106.06141 138.55571-164.2912 190.80655-182.22806 10.65818-3.63936 14.55748-15.85722 8.31858-24.43571z" style="stroke-width:25.9954"/></svg>