<svg height="960" style="" width="1229" xmlns="http://www.w3.org/2000/svg"><path d="m148.91004.05013294c-7.67676-.47523-15.15246 4.19987996-16.90714 12.38841006-9.35833 38.7331-22.62003 114.883267 2.33552 152.316587 2.33958 3.3794 5.74132 5.45903 9.90057 6.49884 31.9743 7.79861 191.32181 42.90249 470.25206 42.90249 278.93024 0 438.27775-35.10388 470.25205-42.90249 3.8993-1.03981 7.561-3.11944 9.9006-6.49884 24.9555-37.43332 11.6877-113.583487 2.5893-152.316587-2.5995-10.9180501-15.1077-15.6134601-24.726-10.1544301-107.36084 60.5691901-458.01595 49.4013401-458.01595 49.4013401s-350.65512 11.16785-458.01595-49.4013401c-2.40458-1.36475996-5.00614-2.07556996-7.56506-2.23397996zm43.41022 209.18142706v344.69243h.25386s-.0122 60.82509 58.99728 60.82509c59.00947 0 59.04808-60.82509 59.04808-60.82509v-327.78528c-50.17105-5.71898-89.70431-11.70808-118.29922-16.90715zm843.83384 0c-28.3349 5.19907-67.86819 11.44813-118.2992 16.90715v327.78528h.25387s-.0122 60.82509 58.99729 60.82509c59.00944 0 59.04804-60.82509 59.04804-60.82509zm-661.10473 23.15212v489.49471h.30464s-.0122 60.8251 58.99728 60.8251 58.99731-60.8251 58.99731-60.8251v-482.48815c-43.1523-1.55972-82.68558-4.14707-118.29923-7.00656zm478.32484 0c-35.35369 2.85949-74.83618 5.44684-118.24843 7.00656v482.48815h.25387s-.0122 60.8251 58.99728 60.8251c59.00947 0 58.99728-60.8251 58.99728-60.8251zm-297.88044 8.83437v657.90608s-.0122 60.87584 58.99728 60.87587c59.00947 0 58.99728-60.87587 58.99728-60.87587v-657.90608c-19.23657.25995-38.7209.50772-58.99728.50772-20.27639.25995-40.02067.0122-58.99728-.50772z" style="stroke-width:25.9954"/></svg>