<svg height="960" style="" width="1320" xmlns="http://www.w3.org/2000/svg"><path d="m130.68265 32.597575 344.51094 18.73082 57.25735-20.63924-4.85934 26.27849 245.26423 3.83309s131.98343-61.26192999 133.30238-60.78183999c-1.31907-.47962 15.0559 8.33071999 15.0559 8.33071999l-97.21898 49.98869s353.23867-7.60861 375.37097 43.768635c22.1321 51.37711-214.24924 318.37528-214.24924 318.37528l117.93944-47.02839-.8341 14.53558-141.19374 60.29976-156.71895 192.66841 20.75247 25.34253-43.48507 10.40221-213.42006 283.29768c-62.32528-30.49-134.37953-82.92017-145.49321-137.20834 32.57095-52.75409 75.9401-107.40396 122.47074-119.16255l-174.91999-59.05977-40.99187 18.01959 7.29685-48.33401-89.0367-183.5221-40.85782-23.46068 40.73113-28.11086 60.00755-159.36294c-59.82693 31.53019-113.12662 18.51699-172.12556 4.71148-23.32182-46.70611-17.99994-124.739795-4.55579-191.912245zm350.41773 261.552275s185.52737-12.22007 167.02805-90.3718c-18.51032-78.15558-167.02805 90.3718-167.02805 90.3718zm104.3261 231.53722s132.82814-130.10719 178.7244-64.19262c45.89614 65.9148-178.7244 64.19262-178.7244 64.19262zm199.26198-231.43556c45.74466 88.25481 385.71054-134.61806 370.49274-174.00508-15.2135-39.397795-416.22651 85.75424-370.49274 174.00508zm-507.53675-177.37106c5.27556-2.25011 13.06525 4.1205 17.4038 14.22698 4.32346 10.1135 3.56813 20.15857-1.70685 22.40867-5.26878 2.2652-13.06947-4.1095-17.39293-14.22288-4.33867-10.1066-3.57221-20.14758 1.69656-22.41266zm300.77004 645.82552c5.26877-2.26508 13.06923 4.10951 17.39292 14.22301 4.33832 10.10648 3.57199 20.14745-1.69223 22.40165-5.27954 2.26111-13.06935-4.1095-17.40392-14.22698-4.32744-10.1025-3.57187-20.14745 1.70358-22.39768z" style="stroke-width:11.698"/></svg>