<svg height="960" style="" width="1200" xmlns="http://www.w3.org/2000/svg"><path d="m312.72935 0 149.06486 248.80492c-241.8978 83.71087-275.39839 335.7805-279.77937 392.20441h-61.84746l122.74139 212.56069 122.74139-212.56069h-60.67076c4.88583-64.16915 48.14624-255.78514 190.99474-335.1601l104.33525 174.15076-132.72809 221.53808-154.85195 258.46193h619.40784l-154.85196-258.46193-132.73315-221.53808 117.22312-195.65586c298.3042 68.52047 318.0323 377.77397 318.0574 392.57974 0-3.74701-.1295-346.28331-292.83965-434.66685l145.14424-242.25702zm147.4824 135.38579h324.44812l-81.11583 135.38578-81.11077 135.38071-81.11075-135.38071zm162.22152 435.69137 53.09328 88.61219 53.08816 88.61726h-106.18144-106.18651l53.09325-88.61726z" style="stroke-width:2.59684"/></svg>