<svg height="960" style="" width="2050" xmlns="http://www.w3.org/2000/svg"><path d="m707.1616 616.7059c-11.52941 1.647-57.64706 7.4117-102.94118 11.5294-45.29412 4.9412-98.82353 11.5294-119.41176 14-79.88236 10.7059 6.58823 17.2941 231.41181 18.1176 220.7058.8236 228.1176 0 249.5294-16.4705 17.2941-14 20.5882-19.7648 11.5294-24.7059-9.8824-6.5883-226.4706-8.2353-270.11767-2.4706zm275.88237-242.1177c-9.0588 5.7647-60.9412 12.353-115.2941 15.6471-54.353 3.2941-109.5294 9.8823-121.8824 14.8235-13.1765 4.9412-51.88234 9.0588-86.47058 9.0588-34.58823.8236-79.88235 4.1177-100.47059 9.0589-20.58823 4.9411-84 11.5294-140.82353 15.647-57.64705 3.2941-112 10.7059-121.05882 15.6471s-49.41176 9.0588-89.76471 9.0588c-85.64705 0-112.823518 10.7059-62.58823 23.8824 66.70588 18.1176 121.88235 25.5294 188.58823 25.5294 37.05883 0 78.2353 4.1176 90.58824 8.2353 12.35294 4.9411 65.88235 10.7059 117.76471 13.1764 52.70588 2.4706 124.35294 9.8824 160.58823 16.4706 35.41175 6.5883 93.05885 11.5294 127.64705 12.353 34.5882 0 88.9412 4.9411 120.2353 10.7059 32.1177 5.7647 63.41183 9.0588 70.82353 6.5882 7.4118-1.6471 34.5883-23.8824 60.9412-48.5882 36.2353-35.4118 46.1177-49.4118 42-63.4118-2.4706-9.0588-4.9412-19.7647-4.9412-23.8824 0-3.2941-4.1176-5.7647-8.2353-5.7647-4.9411 0-18.1176-9.8823-29.647-22.2353-23.8824-25.5294-60.9412-51.8823-73.2941-51.8823-4.1177.8235-15.64713 4.9412-24.70593 9.8823zm-359.88237-59.2941c-103.76471 3.2941-189.41177 7.4118-191.88236 9.8824-7.41176 7.4117 111.17648 14 329.41173 19.7647 214.1177 4.9412 247.88243.8235 214.1177-24.7059-18.1177-14-34.5882-14-351.64707-4.9412zm602.8236-.8235c-11.5295 22.2353-10.7059 25.5294 6.5882 25.5294 14 0 81.5294 70.8235 98 102.9412 17.2941 32.9412 7.4118 60.9412-38.7059 116.1176-24.7059 28.8236-48.5882 52.7059-53.5294 52.7059s-13.1765 8.2353-19.7647 17.2941c-15.6471 25.5294-.8235 32.1177 74.9412 32.1177 65.0588 0 87.2941-9.8824 61.7647-28.8236-22.2353-16.4705-16.4706-28.8235 33.7647-78.2353 59.2941-59.2941 68.3529-73.2941 56-93.8823-4.9412-9.0588-30.4706-37.0588-56.8235-63.4118-43.6471-42.8235-47.7648-50.2353-42.8236-72.4706l5.7647-25.5294h-58.4706c-48.5882 0-59.2941 2.4706-66.7058 15.6471zm-181.1765-67.5294c-59.29413 53.5294-60.11773 50.2353 36.2353 144.1176l85.647 84.8236-85.647 84c-46.9412 46.1176-85.64713 86.4705-85.64713 88.9411 0 7.4118 60.11773 70.8236 74.94123 78.2353 12.3529 6.5883 34.5882-11.5294 130.1176-107.8823 153.1765-152.353 153.1765-134.2353 0-287.4118-63.4117-63.4118-116.9411-115.2941-119.4117-115.2941-1.6471 0-18.1177 13.1765-36.2353 30.4706zm268.4706-164.7059c3.2941 12.3529 23.8823 58.4706 46.9412 102.9412 33.7647 68.3529 43.647 80.7059 60.1176 80.7059 10.7059 0 19.7647 3.2941 19.7647 6.5882 0 7.4118 79.8824 92.2353 86.4706 92.2353 5.7647 0 37.0588 32.1176 37.0588 37.8823 0 3.2942 6.5883 10.7059 14 16.4706 8.2353 5.7647 12.353 13.1765 9.0588 16.4706-3.2941 2.4706-37.8823-26.3529-77.4117-65.8823-38.7059-38.7059-76.5883-70.8236-84-70.8236-15.6471.8236-59.2941 36.2353-59.2941 48.5883 0 4.9411 27.1764 35.4117 60.9411 68.3529l60.9412 60.1177-60.9412 60.1176c-33.7647 32.9412-60.9411 62.5882-60.9411 66.7059 0 14 41.1764 50.2353 56.8235 50.2353 9.0588 0 46.1176-30.4706 85.647-70 38.7059-38.7059 72.4706-70 74.9412-70s4.9412 5.7647 4.9412 12.3529c0 6.5883-5.7647 12.353-12.3529 12.353-6.5883 0-12.353 3.2941-12.353 8.2353 0 8.2352-29.647 41.1764-37.0588 41.1764-6.5882 0-86.4706 84.8236-86.4706 92.2353 0 3.2941-9.0588 6.5883-19.7647 6.5883-18.1176 0-26.3529 12.3529-65.8824 93.0588-42 83.1764-54.3529 121.0588-42 121.0588 11.5295 0 53.5295-25.5294 53.5295-32.1176 0-4.1177 10.7058-10.7059 23.0588-15.6471 13.1765-4.1177 33.7647-18.1177 46.9412-29.6471 12.3529-11.5294 26.3529-21.4117 31.2941-21.4117s28-14.8236 51.8823-32.9412c23.8824-18.1177 47.7647-32.9412 51.8824-32.9412 4.9412 0 11.5294-4.9412 14.8235-10.7059s79.0588-57.647 167.1765-116.1176c166.3529-109.5294 182.8235-123.5294 176.2353-140-2.4706-5.7647-79.0588-60.1177-170.4706-120.2353-91.4118-60.9412-168.8235-113.6471-171.2941-117.7647-2.4706-3.2941-18.1177-13.1765-33.7647-22.2353-16.4706-8.2353-39.5294-24.7059-51.8824-36.2353-12.3529-11.5294-28-21.4118-34.5882-21.4118-5.7647 0-17.2941-7.4117-24.7059-16.4706-8.2353-9.0588-18.1177-16.4705-23.8824-16.4705-4.9411 0-15.647-8.2353-24.7058-17.2942-14.8236-17.2941-59.2942-40.3529-77.4118-40.3529-4.9412 0-6.5882 9.05882-3.2941 22.2353z" style="stroke-width:.823529"/></svg>