<svg height="960" style="" width="1213" xmlns="http://www.w3.org/2000/svg"><path d="m588.56101 906.90961c-28.93886 17.9145-13.78041 63.3898 22.04866 67.524 37.20711 5.5121 55.12165-30.3169 30.31691-59.2558-19.29258-23.4267-27.56083-24.8047-52.36557-8.2682zm319.70556-115.75551c-11.02433 26.18278 4.13413 48.23144 35.82907 48.23144 26.18279 0 46.8534-34.45103 33.07299-56.49969-11.02433-19.29257-60.63381-13.78041-68.90206 8.26825zm-647.67937 0c-11.02433 27.56082 5.51217 48.23144 37.20712 48.23144 19.29257 0 26.18278-9.64629 26.18278-34.45103s-6.89021-34.45103-27.56082-34.45103c-15.15846 0-31.69495 9.64629-35.82908 20.67062zm-137.80412-316.94948c-5.51216 12.40237-2.75608 28.93887 5.51217 37.20712 22.04866 22.04865 64.76793 6.8902 64.76793-23.42671 0-35.82907-57.87773-46.8534-70.2801-13.78041zm912.26332-24.80474c-4.1341 4.13412-8.2682 23.4267-8.2682 41.34124 0 27.56082 6.8902 33.07299 30.3169 28.93886 39.9632-5.51216 48.2314-46.8534 13.7804-64.76793-15.1585-8.26825-30.3169-9.64629-35.8291-5.51217zm-122.6457-303.16907c-5.51217 4.13413-9.64629 20.67062-9.64629 34.45104 0 30.3169 44.09732 33.07298 67.52402 5.51216 13.78041-16.53649 11.02433-23.4267-11.02433-34.45103-31.69495-17.91454-35.82907-17.91454-46.8534-5.51217zm-639.41112 0c-27.56083 9.64629-20.67062 42.71928 9.64628 59.25578 22.04866 12.40237 30.31691 11.02433 35.82907-6.89021 9.64629-23.4267-1.37804-62.01185-17.91453-60.63381-5.51217 0-19.29258 4.13412-27.56082 8.26824zm183.27948 137.80413c-4.13413 4.13412-8.26825 19.29257-8.26825 31.69494s-17.91454 39.9632-41.34124 62.01186c-37.20711 35.82907-41.34123 48.23144-41.34123 121.26762 0 67.52402 5.51216 85.43856 31.69494 107.48722 37.20712 31.69495 73.03619 33.07299 89.57268 4.13412 16.5365-30.3169 44.09732-12.40237 44.09732 27.56083 0 38.58515 52.36557 77.1703 103.35309 77.1703 46.8534 0 103.35309-38.58515 103.35309-68.90206 0-13.78041 9.64629-27.56082 20.67062-33.07299 11.02433-4.13412 20.67062-17.91453 20.67062-28.93886 0-37.20711-53.74361-140.5602-77.17031-150.20649-13.78041-5.51217-19.29258-16.5365-13.78041-30.31691 26.18278-68.90206-28.93887-92.32876-121.26763-53.74361-59.25577 24.80475-77.17031 17.91454-77.17031-27.56082 0-34.45103-16.53649-53.74361-33.07298-38.58515zm-5.51217 224.62071c6.89021 46.8534-6.89021 77.17031-28.93886 63.3899-16.5365-11.02433-20.67062-79.92639-5.51217-95.08485 17.91454-19.29257 28.93887-8.26824 34.45103 31.69495zm74.41423 8.26825c-6.89021 17.91454-13.78042 19.29258-24.80475 8.26825-8.26824-8.26825-11.02433-24.80474-5.51216-38.58516 6.89021-17.91453 13.78041-19.29257 24.80474-8.26824 8.26825 8.26824 11.02433 24.80474 5.51217 38.58515zm-108.86526-480.936384c-5.51216 4.13412-9.64629 48.23144-9.64629 96.462884 0 119.88959-20.67062 137.80412-161.23082 150.20649-59.25577 4.13413-108.86525 9.64629-111.62134 12.40238-2.75608 2.75608 30.31691 37.20711 71.65815 77.1703 66.14597 62.01186 77.1703 79.92639 77.1703 121.26763-1.37804 42.71928-11.02433 57.87773-75.79226 110.2433-41.34124 33.07299-71.65815 64.76793-67.52402 71.65814 4.13412 6.89021 56.49969 12.40237 117.1335 12.40237 88.19464 0 108.86526 4.13412 108.86526 20.67062 0 11.02433 9.64628 20.67062 20.67061 20.67062 16.5365 0 20.67062 20.67061 20.67062 108.86525 0 60.63381 5.51217 112.99941 12.40237 117.13351 6.89021 4.1341 45.47536-26.1828 85.43856-67.52402 95.08484-99.21897 121.26762-99.21897 219.10855 0 39.9632 41.34122 78.54835 71.65812 85.43856 67.52402 5.51216-4.1341 11.02432-56.4997 11.02432-117.13351 0-84.06051 4.13413-108.86525 19.29258-108.86525 11.02433 0 22.04866-9.64629 27.56083-20.67062 5.51216-15.15846 31.69494-20.67062 110.24329-20.67062 56.49977 0 106.10917-5.51216 110.24337-12.40237 4.1341-6.89021-26.1828-38.58515-67.5241-71.65814-64.76793-52.36557-74.41422-67.52402-75.79226-110.2433 0-41.34124 11.02433-59.25577 77.17026-121.26763 41.3413-39.96319 74.4143-74.41422 71.6582-77.1703-2.756-2.75609-52.3655-8.26825-111.62134-12.40238-140.56021-12.40237-161.23083-30.3169-161.23083-151.58453 0-125.4017543-28.93886-135.0480443-101.97504-35.82907-37.20712 50.98752-46.85341 55.12165-106.10918 55.12165-50.98752 0-68.90206-6.89021-85.43855-31.69495-28.93887-42.719284-77.17031-92.328764-90.95072-92.328764-5.51217 0-15.15846 4.13412-19.29258 9.64629zm100.59701 114.377424c27.56082 34.45103 42.71928 41.34123 96.46288 41.34123 53.74361 0 68.90206-6.8902 96.46289-41.34123 49.60948-59.25577 68.90206-52.36557 68.90206 22.04866 0 50.98752 6.8902 70.2801 39.96319 103.35309s52.36557 39.96319 103.35309 39.96319c34.45103 0 63.3899 5.51217 63.3899 12.40237 0 8.26825-17.91454 34.45103-41.34124 59.25578-57.87773 63.38989-57.87773 143.31628 0 190.16968 57.87776 49.60949 52.36557 68.90206-20.67061 68.90206-34.45103 0-62.01186 5.51217-62.01186 13.78042 0 6.8902-9.64629 13.78041-23.4267 13.78041-20.67062 0-20.67062-1.37804 0-24.80474 16.5365-17.91454 23.4267-49.60949 23.4267-100.59701 0-62.01186-6.8902-84.06052-37.20711-121.26763-22.04866-24.80474-41.34124-57.87773-45.47536-73.03618-11.02433-42.71928-34.45103-35.82907-38.58516 11.02433-2.75608 26.18278 4.13413 49.60948 16.5365 60.63381 12.40237 9.64629 22.04866 27.56082 22.04866 41.34124 0 13.78041 9.64629 31.69494 20.67062 41.34123 23.4267 19.29258 27.56082 90.95072 5.51216 104.73113-9.64629 5.51217-12.40237 28.93887-6.8902 62.01186 4.13412 28.93886 2.75608 55.12165-5.51217 60.63381-6.89021 4.13413-13.78041 33.07299-13.78041 62.01186 0 68.90206-13.78041 75.79226-59.25577 28.93886-63.3899-68.90206-155.71866-66.14598-217.73051 4.13413-38.58516 44.09731-53.74361 34.45103-53.74361-30.31691-1.37804-49.60948-38.58516-112.99938-66.14598-112.99938-6.89021 0-16.53649-9.64629-22.04866-20.67062-4.13412-13.78041-26.18278-20.67062-63.38989-20.67062-30.31691 0-55.12165-5.51216-55.12165-13.78041 0-6.8902 17.91453-31.69495 41.34123-55.12165 50.98753-52.36556 53.74361-110.24329 11.02433-175.01123-17.91453-24.80474-35.82907-45.47536-41.34123-45.47536-6.89021 0-11.02433-9.64629-11.02433-20.67062 0-15.15845 16.53649-20.67062 60.63381-20.67062 49.60948 0 68.90206-8.26824 103.35309-42.71927s42.71928-53.74361 42.71928-103.35309c0-71.65815 19.29258-77.17031 68.90206-19.29258zm59.25577-143.3162943c-4.13412 11.0243303 2.75608 31.6949503 15.15845 44.0973203 20.67062 20.67062 23.4267 20.67062 44.09732 0 28.93887-28.93886 15.15846-66.145976-22.04866-66.145976-15.15845 0-31.69494 9.6462857-37.20711 22.0486557z" style="stroke-width:1.37804"/></svg>