<svg height="960" style="" width="1357" xmlns="http://www.w3.org/2000/svg"><path d="m119.95455-30c12.42763 70.30691 23.0149 131.02036 34.5 196.09091l408.34091 408.88636 14.45453-14.93181c-21.67855-19.79345-41.40819-40.92602-59.38634-63.47729l-.8182-1.09091 14.72728-7.49997c24.82036 15.11563 36.78873 44.24179 64.22728 53.31815l47.52272-47.65908zm1117.09095 0-554.59096 554.79545c-12.32291 12.21818-23.96509 25.09691-37.09091 36.47728-3.90773 3.41927-11.33565 8.10072-41.79544 40.90909-.84954 1.22241-2.04012 2.86272-3.81818 4.70456-3.29266 3.43118-6.65357 6.80102-9.95457 10.22724-13.56508 15.03814-30.01756 33.5194-51.81818 58.84092 28.49657-33.93719 37.34355-43.40768 47.04548-54-30.09645 31.16509-60.51327 62.08669-92.11364 91.70454-18.36218 17.73382-37.15146 37.30092-43.29546 60.34092l-.0682.47728c-4.88727 20.70109-18.71727 37.95435-37.56818 47.65907-46.81309 22.02764-70.87854 65.74419-108.54545 97.02274l28.84091 28.36363 148.70455-148.22728c51.00218-9.39054 84.13691 30.87109 133.56818 34.43182l-66.95454-66.95452 54.27274-64.77274c20.38175-14.34998 45.19083-22.77274 72-22.77274 5.23633 0 10.39527.32784 14.86363.88638l513.81822-514.02273c11.4851-65.07055 22.0724-125.784 34.5-196.09091zm-652.02276 651.95454c1.5745-1.6304 3.2004-3.20895 4.7727-4.84092 5.71542-6.33603 9.25297-10.06355 13.77275-14.9318 1.764-2.53831-7.64973 7.87703-18.54545 19.77272zm-393.47729-518.52272c9.6 9.6 18.564 18.45927 27.95455 27.95454l-22.29546 21.95455c-3.65406-17.05232-6.63129-29.40539-8.93181-41.86364.0254-2.08495 1.81714-4.51046 3.27272-8.04545zm974.11365.13636c1.4662 3.56073 3.2728 6.01909 3.2728 8.11364-2.3041 12.18327-5.1982 24.62181-8.8637 41.72727l-22.3636-21.88636zm-937.50001 80.38636 264.06817 264.06817-12.20454 12.20457c-88.3549-88.25018-176.02581-175.99418-264.13636-264.00001zm900.88641 0 12.2727 12.27273-264.13639 264.00001-12.20453-12.20457zm-303.54548 304.29546 14.65906 7.5c-21.46909 30.16146-49.14436 51.46201-75.95454 81.20455l-11.65908-33.27272c33.9484-5.06217 45.63917-38.75653 72.95456-55.43183zm-98.79549 53.11362 11.18184.95455v1.36366h-.27275v-.0682c-3.36823 1.44956-7.00437 2.35179-10.90909 2.45452zm23.31819 2.25003c.87273 0 1.72147.0333 2.45457.0682h-3.00002c.18868-.002.35625-.0682.54545-.0682zm41.25002 98.04543-.61364.61366c5.19689 6.02105 12.14278 14.34031 18.74999 22.15907l-19.15909-22.09089-50.45456 50.59089c5.41091 2.7229 10.44382 5.72184 15.75001 8.86366l54.68184 64.70452-66.95455 67.02273c49.43127-3.56072 82.566-43.82236 133.56818-34.43181l148.02268 148.43181 28.9091-28.43181c-37.6669-31.27855-61.72253-74.92692-108.95453-96.95456v.0682c-18.85091-9.70472-32.68091-27.02616-37.56818-47.72725l-.13636-.4773c-5.72509-23.04-24.10528-42.74838-42.88637-60.27274-24.92506-23.45891-49.18143-47.63182-72.95452-72.06818zm-151.84093 1.29547h4.63638l-.95456 11.1818h-2.79545c2.30383 2.85138 3.71538 6.48535 3.75001 10.43182h-4.70456l.95455-11.1818h2.79545c-2.30372-2.85134-3.6472-6.48545-3.68182-10.43182zm-37.09091 20.86363 7.43183 7.43183-2.38635 2.52271-7.43184-7.4318zm-26.86363.20453 12.20457 12.20457-3.13638 4.15907-15.00001-9.68179zm206.24999 0 6 6.68185-15.06816 9.68179-3.13637-4.15907zm-243.81818 12c-26.78735 36.93284-41.49671 58.75239-52.09089 75.40912l12.95452 13.02273-3.3409 4.22725-13.8409-10.43181c-15.55965 25.59346-14.44371 30.75232-9.81818 33.3409l-17.31819 21.61365c-.48487-9.92846 1.54529-19.37671 25.84093-55.90911l-6.8182-5.11362 5.93182-7.15909 5.31819 5.38637c12.32089-18.0945 28.36828-40.68305 53.1818-74.38639zm-53.1818 74.38639c-1.88195 2.76379-2.78386 4.40835-4.43181 6.88634l1.29544.95456c1.29586-2.13152 2.65581-4.34748 4.22728-6.81817zm340.70453-65.79547c19.7776 26.9685 36.37478 49.78815 47.18183 65.65911l5.31819-5.25001 5.93179 7.15909-6.68181 4.90909c26.39127 39.20291 26.08693 45.92019 25.77275 56.11364l-17.38637-21.61365c4.5696-2.72085 8.17886-4.91206-9.61364-33.54544l1.15908-.95455-4.56817-6.81817-.95455.95452 4.36364 6.75003-14.31818 10.43181-3.3409-4.1591 13.22726-13.22727c-9.21918-14.64583-25.73205-37.92625-46.09092-66.4091zm-282 8.72727 7.29547 7.43184-2.38638 2.38635-7.4318-7.29544zm270.34092 0 2.52274 2.52275-7.43183 7.29544-2.38635-2.38635zm-284.93181 30.75003h4.56817l-.8182 11.1818h-2.9318c2.30396 2.8172 3.75 6.41754 3.75 10.36363v.0682h-4.56817l.81817-11.1818h2.86362c-2.3034-2.74839-3.68179-6.38452-3.68179-10.29546zm294.95452.54542h4.56821v.13639c0 3.94472-1.4111 7.53764-3.75001 10.29545h2.93181c0 3.77019.67692 7.41162.88637 11.18181h-4.63638c0-3.94648 1.44562-7.61451 3.75001-10.43182h-2.93181zm-267.95454 5.65911 2.38639 2.38635-7.36365 7.43183-2.45453-2.52274zm245.65912 0 7.36362 7.29544-2.38635 2.45456-7.43184-7.36365zm-274.77274 29.52272 2.04546 2.38635-7.29547 7.43183-2.52271-2.52274zm304.29546 0 7.36362 7.29544-2.45453 2.52274-7.29548-7.43183zm-536.59092 169.15909-27 27.00002 34.02273 34.02271h.0682c7.74982-.2094 15.25691-1.386 21.75-3.3409 5.62036-2.2691 9.45763-8.9122 14.65909-14.1137zm768.54548 0-43.5 43.56813c5.2014 5.2015 9.0387 11.8446 14.6591 14.1137 6.4232 1.92 13.8321 3.1314 21.4772 3.3409h.1364l34.2273-34.02271z" style="stroke-width:34.9091"/></svg>