<svg height="960" style="" width="867" xmlns="http://www.w3.org/2000/svg"><path d="m570.41492 91.679835c-2.91454 2.18588-5.10042 75.776545-5.10042 162.482485v157.38227l42.98864 65.57591c23.31592 35.70244 48.08907 69.219 54.6466 75.04798 10.20075 8.74342 11.65796 32.78801 11.65796 198.18503 0 202.55669 1.45722 210.57156 38.61699 210.57156 35.70244 0 34.97378.72855 32.7879-216.40054l-2.18588-204.01401-34.97378-51.73206c-18.94416-28.41624-37.88833-53.91805-41.53143-56.10393-2.91443-2.18577-13.11518-18.2155-21.85859-35.70244-12.38663-25.5017-14.57251-42.98864-13.11518-85.97728 2.18588-52.46073 2.18588-53.18939 21.85859-53.18939 22.58727-.72856 49.54629-21.8586 49.54629-39.34554 0-10.9293-114.39353-131.880365-124.59427-131.880365-2.18588 0-6.55764 2.18577-8.74342 5.10032zm-343.90934 41.531425c-34.24512 33.51656-61.93281 64.11868-61.93281 68.49034 0 13.84384 39.34555 45.90318 53.91805 43.7173 13.84374-2.18588 15.30096 2.18588 17.48684 50.27484 2.18588 60.47559-2.91444 73.59077-69.219 169.7688l-42.25998 61.9328-2.18588 201.82813-2.18589 201.82813 17.48695 4.37166c10.20063 2.91454 26.23036 3.6431 34.97378 2.18588l17.48694-2.18588 2.18588-187.98429c2.18578-209.84289-2.91454-186.52707 59.74692-271.04714 51.00351-67.76178 51.00351-67.76178 51.00351-239.71635 0-91.80637-2.91455-158.110825-7.2862-161.025365-3.64321-2.18578-34.97389 23.31592-69.21911 57.561145zm150.82463-117.30807c-24.77315 24.773142-45.17453 48.817622-45.17453 53.189385 0 11.65796 30.60213 37.159665 47.36041 40.802755 12.38652 2.18589 13.84384 7.2862 11.65796 34.97378-1.45722 17.48695-5.82898 40.80287-9.47208 51.00351-3.6431 10.20074-8.01486 58.2897-9.47208 107.10732-2.18588 66.30457-5.82898 93.26359-13.84384 105.65011-10.20064 13.84384-11.65797 53.18939-11.65797 289.9913 0 203.28535 2.18588 276.14746 8.74353 282.70506 10.9293 10.9293 120.2225 11.658 147.18153 1.4573l18.94416-7.2862v-273.96162c0-265.94682-.72866-274.69023-15.30106-295.09172-10.92941-16.02962-13.84385-26.95892-10.20075-43.7172 5.10032-22.58726-13.84384-188.71295-26.23036-229.51571-9.47208-32.05934-8.74341-44.445975 2.18588-33.516565 5.10032 5.100325 13.84374 8.743425 20.40138 8.743425 13.11519 0 43.71731-29.144915 43.71731-40.802764 0-11.657962-90.34905-97.635351-102.73567-97.635351-5.82898 0-31.33068 20.4014864-56.10382 45.903185z" style="stroke-width:.728621"/></svg>