<svg height="960" style="" width="986" xmlns="http://www.w3.org/2000/svg"><path d="m279.30068 0c-16.08649 0-31.65203 6.225-43.32771 17.38176l-98.05743 93.90201c-11.41622 11.15678-17.88851 26.23379-17.88851 42.06082v233.7669c73.68648-63.82703 73.93582-105.33447 73.93582-162.41555s62.53378-69.27365 62.53378-69.27365h468.5473s45.96283-7.77567 45.96283-76.0135c0-68.23784-49.30744-79.40879-49.30744-79.40879zm68.26015 209.39188s-97.04394.004-97.04394 146.85813h-.25336s-118.3277 83.79526-118.3277 268.53039h734.03714c-.25946-196.92973-118.58107-268.53039-118.58107-268.53039h.50675c0-146.85406-97.04391-146.85813-97.04391-146.85813zm-16.62162 143.71623h67.19592v67.19595h-67.19592zm134.13851 0h67.19593v67.19595h-67.19593zm134.39188 0h67.19596v67.19595h-67.19596zm-268.53039 134.13852h67.19592v67.19595h-67.19592zm134.13851 0h67.19593v67.19595h-67.19593zm134.39188 0h67.19596v67.19595h-67.19596zm-467.53377 231.18242c29.05946 152.04324 143.20945 241.57095 143.20945 241.57095h447.56757s114.20066-89.52771 143.26012-241.57095z" style="stroke-width:25.9459"/></svg>