<svg height="960" style="" width="1378" xmlns="http://www.w3.org/2000/svg"><path d="m1197.3252 430.844c-.4425 15.04218.8848 18.58151 4.8666 14.5998 3.5393-3.53933 3.5393-8.84837.4424-19.46636l-4.8666-14.5997zm-284.91582-266.77674c-1.76961 1.76972-3.09685 27.87226-3.09685 57.51413 0 38.49015-1.76971 55.30194-5.30904 57.95641-3.09685 1.76971-31.41149 4.42419-63.26545 5.75142l-57.51403 2.21209v48.66576 48.66576l57.07165 1.32723c32.29634.44238 59.72612 3.09685 63.26545 5.75142 3.98171 3.53933 5.75142 22.12073 6.63618 62.82297l1.32734 58.39889 46.01118 1.32734c34.06606.88475 47.33849-.44248 49.99299-4.42419 1.7697-3.09695 3.5393-30.96911 3.5393-61.93822 0-66.3624-7.0786-60.61097 72.9987-62.38069l53.0899-.88475 1.3272-39.81749c2.2121-63.70783 6.1938-59.72612-60.611-59.72612-41.5871 0-57.9564-1.76961-61.4957-5.75142-3.097-3.53933-5.7515-29.64188-6.1939-61.05336l-1.3273-54.85955-46.89601-1.32724c-25.66016-.44248-47.78089.44238-49.55061 1.76961zm-181.39045-88.040753c7.96351.88485 22.12083.88485 30.9691 0 9.29076-.88476 3.09696-1.76962-14.15732-1.76962-16.81178 0-24.33282.88486-16.81178 1.76962zm-272.08579 183.602653c1.32734 3.09685 6.63628 6.63618 11.94522 7.07855 7.07866 1.32735 9.73324-.44237 8.406-4.42408-1.32734-3.09695-6.63628-6.63628-11.94533-7.07866-7.07855-1.32723-9.73313.44238-8.40589 4.42419zm324.73325-376.93828c-11.94523 2.21209-23.89045 6.1938-26.10255 8.40589-2.65447 2.65447-7.52103 4.86657-11.06036 4.86657-8.84827 0-50.87785 28.756958-72.99858 49.992935-31.85397 30.526731-55.30204 68.574492-85.38629 139.803362-6.63628 15.927033-12.3876 21.678463-30.52673 30.084353-49.55051 24.33282-71.22896 39.81738-116.79777 84.05894-26.98729 26.54503-28.75701 27.42978-39.81738 21.67846-19.90874-10.17561-65.03516-29.19949-91.1377-38.93262-40.70224-15.48455-50.43539-18.13903-87.15591-24.33293-48.22332-8.4059-73.44103-3.53933-89.368 18.13913-14.59972 19.46626-16.36938 31.85386-8.84831 55.30193 15.48455 47.7809 49.99299 98.65875 111.04638 163.69391 15.04213 15.92693 27.8722 31.41149 27.8722 34.06596s-10.61798 15.92703-23.44805 28.75701c-24.33288 24.77531-57.95648 69.90173-71.22896 96.88913-18.58146 36.72054-25.21769 94.67694-15.04213 130.07023 17.25422 59.28375 79.19243 110.60397 158.38487 130.51272 11.06036 3.09684 51.32023 8.84827 89.81037 13.27246 47.781 5.75142 71.67145 10.1755 75.21078 14.59969 5.30894 6.63628 49.99299 40.25982 67.24715 50.87782 35.3933 21.6784 80.9621 40.2598 134.9369 55.3019 45.56881 12.8301 173.86942 13.715 214.57166 1.7697 33.62358-10.1756 58.39889-19.4663 74.32582-27.4298 7.07865-3.5392 15.04217-6.1937 18.5815-6.1937 3.09685 0 7.96341-3.097 11.50274-7.0787 6.19386-7.5211 21.23596-6.6362 46.01126 1.7696 37.1629 12.8301 61.4959 18.5815 102.6405 23.4481 56.6292 6.6362 79.1924 1.7696 98.6587-22.1208 19.0239-23.0056 16.3694-47.78091-10.1755-91.13762-6.6363-11.06047-41.1447-53.9748-54.8596-68.13212-13.2725-13.71483-13.2725-11.94522 3.5394-45.12642 7.521-15.04207 17.2541-47.33842 26.5449-89.81037 8.4059-40.25986 12.8301-129.18537 6.6361-147.76688-6.1938-19.46626-11.5027-9.29075-11.5027 23.00559 0 23.89045-1.7697 34.06606-6.6363 38.04777-6.1938 4.86656-6.1938 6.63628 0 13.27246 5.3091 5.75142 5.7514 10.17561 1.7697 22.56321-2.2121 8.4059-6.1939 23.89045-7.9635 34.95092-7.0786 35.83567-38.9326 110.60397-47.3384 110.60397-3.0969 0-18.139-11.50285-33.6236-25.66017-15.4846-14.15731-33.1812-29.19949-38.9327-33.1812l-10.618-7.52103 10.618-11.06037c5.7515-6.1939 12.3877-11.06047 14.5998-11.06047 2.212 0 11.5028-6.1938 20.7935-13.27246 9.2908-7.07866 17.6967-13.27246 19.4663-13.27246 4.4242 0 39.375-35.39329 37.163-37.60539-1.3273-1.32723-5.7514.44248-9.2907 4.42419-3.9819 3.53933-8.8484 6.63628-11.5029 6.63628-2.6544 0-4.8665 2.21199-4.8665 4.42409 0 2.65457-4.4242 6.63628-9.7332 8.84837-5.7514 2.65447-15.927 8.4059-23.4481 12.83009-27.4297 17.69654-46.896 26.98729-57.0716 26.98729-5.309 0-13.7148 3.98181-18.5814 9.29075-13.2726 14.5997-99.10124 51.76271-176.524 76.09554-49.10814 15.48455-51.32023 15.48455-73.88344-11.06037-42.47185-49.99299-80.9621-120.77958-111.93121-207.05062-15.92693-45.12643-30.08425-110.16159-36.72053-170.33009-3.53933-33.1812-3.09685-35.83567 6.19391-45.12642 5.75132-5.75143 13.71483-10.17562 18.5814-10.17562 4.42419 0 9.73313-1.76961 12.3877-3.9817 2.21199-2.2121 26.10255-11.50285 52.64747-19.90875 72.99858-23.89044 85.38628-27.42977 124.76128-36.27804 30.08425-7.07866 36.72043-9.73324 36.72043-16.81179 0-7.52114-2.65447-7.96352-29.64177-5.30905-42.02958 3.98171-120.3372 20.7936-169.44533 35.83567-35.3933 10.61799-51.76261 12.38771-54.41708 5.75143-3.53933-10.17562 8.4059-96.88903 15.92693-115.47054 5.75143-13.272463 9.29076-16.369413 19.46626-16.369413 16.81179 0 32.29635-4.42408 32.29635-9.29075 0-2.21199-7.96342-3.98171-17.69655-3.98171-11.94533 0-19.02388-2.21209-20.7936-6.63618-1.32723-3.98181 6.1938-24.33293 16.81179-45.56891 13.71494-27.4297705 26.9874-46.45365 46.89614-66.36229 15.48456-15.042177 30.52663-27.429884 33.62358-27.429884 3.09685 0 7.96342-2.211988 10.61799-4.866565 19.90864-19.908636 95.56179-27.872154 136.26403-14.599694 60.1686 19.466259 95.11942 42.471954 151.30625 98.658743 15.4845 15.48455 29.6418 26.9874 31.4115 25.21768 1.7697-1.76961-.4424-5.75142-4.8665-8.84827-3.9818-3.09695-7.5212-7.96352-7.5212-11.06047 0-2.65447-1.7696-4.86656-3.5393-4.86656-1.7696 0-10.618-9.7331305-19.4663-21.2358705-29.1994-38.9326275-82.28928-76.9803935-146.88197-104.4101165-19.90874-8.84838-88.04075-12.83009-119.45234-7.07866zm-212.35957 265.00697c-.88485 3.98181-4.42418 26.9874-7.07865 51.32033-7.07866 60.61098-7.96352 64.1502-16.81179 66.80478-3.98182 1.32724-11.94523 4.42408-17.25427 7.07866-5.30895 2.65447-16.81179 3.53933-25.21769 1.76961-15.48455-3.09685-21.67835 2.2121-11.06036 8.4059 3.9817 2.65447-76.53791 46.45366-85.82867 46.45366-4.42418 0 .88476-21.23598 9.73313-37.60529 13.71484-24.7753 23.44808-37.60539 29.64188-37.60539 3.53933 0 6.1938-4.42419 6.1938-10.61799 0-14.15731 32.73872-49.99299 74.76829-81.84695 32.29635-24.7752 47.33852-29.64187 42.91433-14.15732zm-299.07312 47.33852c41.58714 11.06047 72.55624 20.7936 86.27108 26.54502 7.52104 3.09685 18.58151 6.63618 25.66017 7.96342 16.81178 3.98181 15.48455 13.71494-7.96352 53.08994-11.06037 18.5814-19.90874 36.27805-19.90874 39.375s-3.09685 9.29076-6.63618 13.71484c-3.53933 4.86667-6.63628 12.3877-6.63628 17.25427 0 12.3876-16.81179 34.06606-26.9874 34.06606-20.7935 0-126.97332-111.48883-152.19101-160.15458-11.94524-23.00559-4.86658-37.60539 18.58146-39.81738 27.42978-2.2121 63.70788.88475 89.81042 7.96341zm287.1279 130.95509c2.21209 5.75142 4.86657 23.89045 6.63618 41.14472 6.63628 71.22897 30.08435 147.76687 70.78659 232.2683 9.29075 19.02388 14.15732 33.62358 11.50274 34.50844-2.65447.88486-11.50274-3.53933-19.90864-9.73313-7.96351-6.1938-16.36941-11.50285-17.69664-11.50285-1.76972 0-10.61799-6.1938-19.90875-13.27246-9.29075-7.52103-18.13902-13.27246-19.46626-13.27246-8.40589 0-188.02673-134.49442-190.6812-142.90031-4.42419-12.83008 1.32723-22.56321 23.00559-38.93263 38.04776-27.87215 138.9186-88.04075 148.65173-88.04075 1.76961 0 4.86657 4.42419 7.07866 9.73313zm-242.88629 177.40875c0 23.00569 11.50274 90.69522 20.35112 120.3371 14.15731 46.01128 38.93262 99.98598 54.41718 119.00986 11.06036 12.83008 3.09684 19.02388-20.35123 15.92704-50.43537-6.63629-106.17975-33.62369-131.39746-63.26545-17.25422-20.7936-17.69664-22.56322-17.69664-53.53232 0-35.3933 6.63625-55.74442 31.85395-92.90733 20.35113-30.08435 54.85956-69.01687 59.28375-66.3624 1.76961 1.32724 3.53933 10.61799 3.53933 20.7935zm108.39187 63.26545c14.5997 16.81189 209.26272 150.86383 238.90459 165.02115 11.50274 4.86656 22.12073 17.25427 18.5814 21.23597-1.76961 1.32724-18.5814 3.98171-37.16291 5.75143-19.02388 1.76961-56.62927 5.75142-84.05905 8.84827-44.24156 5.30904-50.43536 4.86656-60.61098-1.32724-16.3693-11.06036-60.61098-72.11382-77.42276-107.06464-8.4059-17.25416-17.69665-36.27805-20.7935-42.91433-3.53933-6.1938-6.1938-15.04218-6.1938-19.46626 0-4.42419-3.09695-16.36941-7.07866-26.9874-3.98181-10.17561-6.1938-22.12084-4.42419-26.10254 2.2121-6.1938 4.86657-5.30894 19.46626 5.30904 8.84838 6.63618 18.58151 14.5997 20.7936 17.69655zm664.06622 121.66444c19.4662 19.46626 36.7204 38.49014 38.9325 42.47185 6.6363 11.50284-44.2416 56.62927-81.4045 71.67145-8.4059 3.53922-34.5084 7.07855-57.95649 7.96341l-42.91433 1.76972-43.35671-23.0057c-24.33293-12.3876-46.45366-24.7752-49.10813-26.98729-7.52114-6.19391-7.07866-16.81179.44238-16.81179 11.50285 0 135.82165-58.84137 172.98458-81.84696 9.7331-5.75142 19.9087-11.06036 22.5632-11.06036 3.0969 0 20.7936 15.92693 39.8175 35.83567zm88.0407 97.77388c7.521 10.17551 17.6965 26.10255 22.5632 35.39319 5.3089 9.29076 11.5027 19.02389 14.1572 22.12084 2.2121 3.09695 5.7514 14.15732 7.5212 23.89045 2.6544 16.36937 1.3272 19.46627-7.5212 25.66017-5.3089 3.9817-15.0421 7.0787-21.2359 7.0787-14.1572 0-65.035-10.618-79.6348-16.8118-6.1938-2.6546-16.8118-5.75146-23.4481-7.52118-20.3511-3.9817-19.4662-13.71483 3.9818-36.72053 11.9452-11.94522 26.1025-27.42978 31.4116-34.50844 5.7514-7.07865 14.1573-18.13902 19.4662-25.21768 4.8666-6.63618 11.5029-11.94522 14.1573-11.94522 3.097 0 11.5029 8.40589 18.5815 18.5815zm-399.94389 9.73313c10.61799 6.1938 40.25976 21.23598 65.91992 33.62358 25.66017 12.83008 51.7626 25.66017 58.39889 29.1995 6.1938 3.53933 14.59969 6.1938 18.13902 6.1938 10.61799 0 13.71494 8.84827 6.63628 16.36944-14.59969 14.5997-126.08852 21.2358-187.14188 11.5027-46.01128-7.521-72.99868-16.3693-119.89472-38.93251-49.10813-23.89045-49.55061-28.31463-3.09695-37.16301 34.95092-6.1938 75.65315-15.92693 100.87084-24.33283 26.54492-8.84827 38.49014-7.96351 60.1686 3.53933z" style="stroke-width:.442416"/></svg>