<svg height="960" style="" width="1056" xmlns="http://www.w3.org/2000/svg"><path d="m169.25967 886.95335c0 5.7706 17.3119 28.8531 21.4337 28.8531 5.7706 0 3.7097-12.3656-2.4731-14.8387-3.2975-1.2366-6.595-5.7706-7.8315-10.3047-2.061-8.2437-11.1291-11.129-11.1291-3.7097zm582.41951-1.2365c-1.2366 4.1218-5.3584 10.7168-8.6559 14.8387-4.9463 5.3584-5.3585 8.2437-1.6488 11.9534 3.2975 3.2975 5.3584 2.8853 7.8316-3.2975 1.6487-4.1219 5.3584-10.3047 8.2437-13.19 6.595-6.5949 7.0072-17.3118 1.2366-17.3118-2.4732 0-5.3585 3.2975-7.0072 7.0072zm-582.41951-36.6846c0 4.1218 4.9463 12.7778 11.5413 19.7849 6.1828 6.595 17.3118 20.1972 24.7311 29.6775 14.4266 18.1362 23.08251 21.4337 27.20431 11.129 3.2975-9.0681-.8243-18.1362-21.84581-44.104-14.8387-18.5483-21.4337-23.9068-30.0896-23.9068-8.2438 0-11.5413 2.061-11.5413 7.4194zm570.05391-9.0681c-2.8853 1.2365-14.4265 14.8387-25.9678 30.5018-18.9605 25.5555-20.6093 29.2652-15.663 36.6846 2.8853 4.9462 6.5949 8.6559 8.2437 8.6559 2.0609 0 11.9534-11.5412 23.0824-25.5556 10.7169-14.0143 22.6703-28.853 26.7921-32.9749 7.4194-8.2437 9.4803-15.6631 3.2975-15.6631-2.0609 0-6.1828-.8243-9.4802-1.6487-2.8854-1.2366-7.4194-.8244-10.3047 0zm62.6523-166.5233c-4.1218 10.3046-.4122 71.3082 4.1219 70.4838 5.3584-1.6487 7.8315-67.1863 2.4731-72.5448-2.8853-2.8853-4.9462-2.0609-6.595 2.061zm-680.10761 0c-4.1219 10.3046-.4122 71.3082 4.1219 70.4838 5.3584-1.6487 7.8315-67.1863 2.4731-72.5448-2.8853-2.8853-4.9463-2.0609-6.595 2.061zm216.81011 218.4588c-13.6022 4.9462-9.4803 18.9606 8.6559 29.6774 11.9534 6.595 16.8996 7.8315 22.6702 4.1219 23.4947-14.4266-4.1218-44.104-31.3261-33.7993zm-1.2366-40.8065c-22.6702 13.19-19.3728 35.4481 3.2975 23.0825 7.8315-4.1219 11.129-4.1219 14.8387-.4122 2.8853 2.8853 8.2437 4.9462 12.3656 4.9462 3.7097 0 11.9534 6.1828 18.5484 14.0143 9.0681 11.5413 12.3656 13.6022 18.5484 10.3047 14.8387-7.8315 4.534-29.6774-23.0825-49.4624-18.9605-14.0143-24.319-14.4265-44.5161-2.4731zm227.5269 41.2187c-14.8387 7.4193-14.4265 28.0286.4122 33.3871 8.6559 2.8853 13.19 1.6487 23.9068-5.7706 14.4265-11.1291 16.4875-22.2581 4.9463-28.8531-10.3047-5.3584-16.4875-5.3584-29.2653 1.2366zm-8.2437-44.5162c-2.8853 3.2975-7.4194 6.1828-9.8925 6.1828-9.8925 0-32.1505 27.6165-30.5018 37.509 1.6488 13.6021 20.1972 16.0753 25.9678 3.2975 2.4731-5.3584 12.3656-13.6022 21.8459-19.3728 16.0752-8.6559 18.5483-9.0681 25.1433-3.2975 9.8925 8.6559 19.3728 2.4731 13.19-9.0681-10.3047-19.3727-35.448-27.6165-45.7527-15.2509zm159.104-148.3871c-1.2366 3.7097-2.4732 15.2509-2.4732 25.1434 0 13.1899 1.6488 18.1362 6.1828 18.1362 17.7241 0 25.1434-46.1649 7.8316-48.638-5.3584-.8244-9.8925 1.6487-11.5412 5.3584zm-18.9606-32.1505c-3.2975 1.6487-12.3656 7.0071-19.3728 12.7777-12.3656 9.0681-13.6021 11.9534-13.6021 32.975 0 20.1971 1.6487 24.7311 11.129 32.5627 18.5484 16.4874 23.9068 11.129 23.9068-23.9068 0-21.0215 1.6488-29.6775 7.8316-36.2724 4.1218-4.5341 6.5949-11.1291 5.3584-14.8387-2.8853-6.595-4.9463-7.0072-15.2509-3.2975zm-242.3656 26.7921c-9.4803 4.534-15.6631 19.7849-11.9535 29.2652.8244 2.8853 7.0072 7.8316 12.7778 11.1291 9.8925 4.9462 12.3656 4.9462 22.2581-.8244 15.2509-9.0681 17.3118-28.8531 4.1219-37.9212-10.7169-7.4193-14.0144-7.8315-27.2043-1.6487zm48.638-1.2366c2.0609 4.5341 4.534 13.19 4.534 19.785.4122 9.4803 1.2366 8.2437 3.7097-4.9463 3.7097-18.5484 2.4731-22.6702-6.595-22.6702-4.534 0-4.9462 1.6487-1.6487 7.8315zm-84.9105 1.6488c-3.2974 14.8387-.4121 41.2186 5.7707 43.2795 3.7096 1.2366 4.9462-5.7706 4.9462-25.5555 0-26.7921-5.7706-36.2724-10.7169-17.724zm60.1793-19.785c0 4.1219 2.8853 6.1828 7.4193 5.3584 8.6559-1.6487 7.8316-9.0681-.8243-10.7168-4.1219-.8244-6.595 1.2366-6.595 5.3584zm-37.0968 0c0 3.2975 2.8853 6.1828 6.1828 6.1828s6.1828-2.8853 6.1828-6.1828-2.8853-6.1828-6.1828-6.1828-6.1828 2.8853-6.1828 6.1828zm-244.42661 21.4337c-1.6487 1.2366-2.8853 9.4803-2.8853 18.1362 0 11.9534 2.061 16.8997 8.6559 20.6093 7.0072 3.7097 9.4803 3.2975 12.3656-.8243 10.71691-16.8997-5.7706-50.699-18.1362-37.9212zm27.20431-21.0215c-1.2365 3.7097-.4122 10.3047 2.061 14.4265 6.1828 9.4803 6.5949 51.5233.8243 55.233-6.5949 4.1219-.4121 10.3047 9.8925 10.3047 4.9462 0 14.0144-5.3584 20.1971-11.5412 9.0681-9.0681 11.1291-15.6631 11.1291-30.914 0-16.4875-2.061-21.8459-12.3656-31.7384-14.0144-13.6021-27.6165-16.0753-31.7384-5.7706zm-54.82081-60.1792c-7.8315 4.534-16.8996 9.8925-19.3727 12.3656-7.0072 5.7706-7.8316 171.0574-.8244 175.1792 2.0609 1.6488 5.7706 7.4194 7.8315 12.3656 3.2975 8.2437 5.7707 9.4803 17.3119 7.8316 11.129-2.061 16.0752 0 28.4408 11.5412 32.97501 30.5018 50.69901 61.8279 45.75271 79.552-4.534 15.663-2.4731 22.258 9.0681 27.2043 4.5341 2.0609 14.4266 7.4193 21.0215 11.9534 7.0072 4.534 15.2509 9.4803 18.5484 11.129s14.8387 7.83155 25.1434 14.42655l18.9606 11.5412h124.0681 123.6559l32.5628-18.5483c17.724-10.30475 35.0358-20.60945 38.3333-22.67035 3.2975-2.4731 10.3047-5.7706 15.6631-8.2437 9.0681-4.1219 12.3656-18.1362 4.9462-22.6703-9.0681-5.7706-3.2975-24.319 15.2509-48.638 30.914-40.3943 45.3405-52.3477 62.6524-52.3477 26.3799 0 28.853-9.8924 28.4408-103.4588-.4122-44.1039-2.0609-82.0251-4.1218-84.9104-2.061-2.4731-11.1291-8.6559-20.1972-13.1899-16.0752-8.6559-21.0215-8.6559-297.5986-8.2438-267.92121 0-281.93551.4122-295.53771 7.8316zm70.89611 34.2115c2.8853 2.8853 13.19 11.129 23.0824 18.5483l17.3119 14.0144v29.6774c0 28.4409-.4122 30.5018-13.6022 42.043-28.4408 24.7312-25.9677 23.9068-44.9283 14.8387-9.89251-4.534-22.67031-14.0143-28.85311-20.6093-9.8924-10.7168-11.5412-16.0753-11.5412-37.0968v-24.319l23.4947-21.4337c25.96771-23.0824 26.79211-23.4946 35.03581-15.663zm251.8459 5.7706c9.4803 6.1828 21.0215 13.1899 25.5556 15.6631 7.0072 3.7096 8.2437 9.0681 9.4803 34.2114 1.6487 37.9212-3.7097 46.1649-39.1577 62.2402-4.5341 2.0609-9.8925 6.1828-11.5413 8.2437-6.1828 10.7169-23.4946 4.1219-56.4695-21.4337-15.6631-11.9534-15.6631-11.9534-15.6631-42.043 0-33.3871-.4122-32.5627 30.914-53.5842 25.1434-17.3119 34.2115-17.7241 56.8817-3.2975zm237.0072 11.129c21.0215 21.8459 21.4337 22.6703 21.4337 46.5771 0 20.1971-1.6487 25.9677-9.0681 32.5627-30.0896 26.3799-51.5233 30.0896-74.6057 12.3656l-15.2509-11.5412v-32.5628-32.1505l23.9068-18.5484c12.7778-10.3046 25.5556-18.5484 28.0287-18.9606 2.0609 0 14.0143 9.8925 25.5555 22.2581zm-136.0215 168.1721c35.0358 24.7312 36.2724 26.3799 30.0896 41.6308-5.3584 13.6022-6.1828 16.8996-10.3046 36.2724-2.8854 12.7778-25.9678 28.4409-42.4553 28.4409-9.0681 0-21.0215-4.9463-42.4552-16.8997-3.2974-2.0609-10.3046-5.3584-15.2509-7.8315-8.2437-3.2975-9.4802-7.0072-9.4802-24.7312 0-18.9606 1.6487-22.2581 15.663-35.0358 8.2438-7.8316 17.3119-14.4266 19.3728-14.4266 2.4731-.4122 9.8925-4.9462 16.4875-10.3046 7.0071-5.7706 14.0143-10.3047 15.663-10.3047 2.061 0 12.3656 6.1828 22.6703 13.19zm-213.5126 1.2365c2.8853 3.2975 7.4194 6.1828 10.3047 6.1828 7.8315 0 34.6236 28.0287 37.509 38.7456 4.534 18.5483.4121 33.3871-9.8925 34.6236-5.3584.8244-10.7169 4.1219-11.9534 7.4194-1.2366 3.2975-5.3585 5.7706-9.4803 5.7706-4.1219 0-9.4803 2.8853-12.3656 6.1828-5.7706 7.0071-35.0359 8.2437-39.1577 1.6487-1.6488-2.0609-7.4194-5.7706-12.7778-7.8315-5.7706-2.4731-10.7169-6.1828-11.5412-9.0681-.8244-2.8853-4.5341-16.0753-8.6559-29.2653-9.0681-28.0286-7.4194-32.1505 16.8996-49.0501 18.1362-12.7778 42.8674-15.2509 51.1111-5.3585zm334.2832-282.7599c-2.4731 4.5341-4.534 12.7778-4.534 18.5484 0 9.8925 1.2365 10.7169 18.5484 10.7169 21.0215 0 26.3799-6.1828 20.1971-24.319-4.9462-14.0144-27.6165-17.724-34.2115-4.9463zm-406.828-2.0609c-1.2366 3.2975-1.6487 11.129-.8244 17.724l1.2366 11.5412 157.8674 1.2366 157.4552.8244v-13.6022c0-7.4193-2.0609-15.6631-4.9462-18.5484-3.7097-3.7097-44.104-4.9462-156.6309-4.9462-127.3656 0-152.5089.8244-154.1577 5.7706zm-121.18281-3.2975c-2.4731 6.1828-4.1219 16.0753-3.2975 21.8459 1.2366 9.0681 3.7097 10.7168 17.724 11.9534 20.60931 1.6487 28.02871-6.1828 21.43371-23.9068-2.47311-6.595-7.41931-12.7778-10.71681-13.6022-3.7097-1.2365-9.8925-3.2975-13.6022-4.9462-5.3584-2.0609-8.2437 0-11.5412 8.6559zm46.57711-24.319-9.4803 1.6488 10.7168 20.6093c5.7706 11.5412 9.4803 23.0824 8.6559 25.5555-4.534 11.9534 5.3585 19.3728 25.9678 19.3728 22.6702 0 23.4946-1.2366 25.5555-37.0968l1.2366-18.5484 164.8746-1.2365 164.8746-.8244 7.0071 9.0681c4.1219 5.3584 7.4194 16.0753 7.4194 24.319 0 19.7849 7.4193 25.1434 29.6774 22.6703 9.8925-1.2366 18.1362-2.061 18.9606-2.061.4122-.4122.8244-4.534.8244-9.8925 0-4.9462 3.2974-15.663 7.4193-23.4946 8.6559-17.724 7.4194-27.2043-4.534-30.5018-10.3047-2.4731-445.1614-2.4731-459.1757.4122zm577.061-148.3871c-21.0215 22.2581-38.7455 43.2796-39.5699 46.9892-.8244 3.7097 11.129 23.9069 27.6165 46.5771 16.0752 21.8459 37.0968 50.6989 46.1649 63.8889l17.3118 23.9068 6.595 77.9033c8.2437 96.0394 8.2437 142.2043.8243 166.5233-16.8996 53.172-19.3727 65.1254-18.1362 76.2545.8244 10.7168 3.2975 12.3656 14.4266 13.6021 11.5412 1.2366 14.4265-.8243 23.4946-15.2509 6.1828-9.0681 10.7168-18.1362 10.7168-20.1971 0-1.6488 8.2438-19.785 18.5484-39.9821 18.1362-36.2724 18.5484-37.9211 18.5484-76.2545 0-61.0036-11.5412-197.4373-18.9606-222.5807-6.5949-21.4337-9.4802-30.5018-22.258-65.9498-2.4731-7.8315-6.595-21.0215-8.2437-28.853-3.2975-13.6022-6.595-23.4947-18.9606-57.7061-2.8853-7.8316-6.1828-17.7241-7.4194-21.8459-1.2365-3.7097-4.534-7.0072-7.4193-7.0072s-22.2581 18.1362-43.2796 39.9821zm-292.2402 72.957c-5.3584 14.4265 0 21.0215 16.8996 21.0215 14.0144 0 16.4875-1.2366 17.7241-9.4803 1.2365-9.0681-.4122-10.3047-21.0216-14.8387-7.8315-2.0609-11.9534-.8244-13.6021 3.2975zm.4122-55.233c-3.7097 11.9534.8244 16.4875 16.4874 16.4875 14.8388 0 21.8459-9.4803 14.0144-18.9606-7.4194-9.0681-27.2043-7.4194-30.5018 2.4731zm-136.4337 59.767c-4.1219 10.3047 1.6487 19.3728 11.5412 17.7241 7.0072-.8244 9.8925-4.5341 10.7168-12.7778 1.2366-9.4803 0-11.1291-9.4803-11.1291-5.7706 0-11.5412 2.8853-12.7777 6.1828zm2.4731-62.2401c-7.4194 9.0681-2.0609 18.9606 10.3046 18.9606 9.4803 0 10.7169-1.6488 9.4803-11.1291-1.2365-13.1899-11.9534-16.8996-19.7849-7.8315zm71.7204 53.5842c-4.534 11.9534.4122 21.0215 10.7169 21.0215 12.7778 0 16.4874-13.6021 5.7706-21.4337-9.4803-7.0071-13.6022-6.5949-16.4875.4122zm-.8243-48.2258c.8243 9.0681 3.2974 11.5412 11.5412 11.5412 8.2437 0 10.3046-2.0609 10.3046-10.3046 0-8.2438-2.4731-10.7169-11.5412-11.5413-10.7168-1.2365-11.5412-.4121-10.3046 10.3047zm-87.3836-91.5054c-12.3656 3.2975-27.6165 5.7706-33.3871 6.1828-10.7168 0-48.2258 18.1362-82.0251 39.1577-20.6093 12.7778-28.853 23.0825-45.34051 53.5843-2.4731 4.534-7.8315 13.6021-12.3656 20.6093-21.8459 33.3871-25.1434 43.2796-23.9068 69.2473 1.2366 23.0825 2.0609 25.5556 10.7169 26.7921 5.3584.8244 18.1362-1.6487 28.4408-4.9462 16.48751-5.7706 51.11111-6.595 255.14341-6.595 204.4445 0 236.1829.8244 240.7169 6.1828 2.8853 3.2975 11.129 6.1828 18.9606 6.1828 7.4193 0 14.8387 2.0609 16.0753 4.5341 2.0609 2.8853 6.5949.8243 13.1899-4.9463 9.0681-8.6559 9.4803-11.5412 7.0072-32.1505-2.8853-23.0825-8.6559-39.1577-21.4337-58.5305-3.7097-6.1828-13.6021-21.8459-21.4337-35.0359-14.8387-25.1433-29.2652-41.2186-43.2796-47.4014-4.534-2.0609-13.6021-7.4193-20.6093-11.5412-24.319-15.6631-46.1649-25.1434-58.1183-25.1434-6.595 0-21.0215-2.8853-32.1505-6.1828-26.7921-8.2437-163.2259-8.2437-196.2008 0zm119.9463 70.4839c3.7097 2.0609 4.534 16.4875 3.7097 79.9642-.4122 24.7312-5.3585 29.6774-28.4409 28.0286-18.5484-1.2365-18.9606-1.6487-22.6703-18.5483-2.8853-13.6022-2.0609-19.785 2.8853-27.2043 4.1219-6.1828 4.9463-11.5413 2.4732-14.0144-2.061-2.0609-5.3585-12.7778-7.4194-23.9068-3.2975-16.8996-2.4731-21.0215 2.8853-25.5556 7.0072-5.3584 37.509-4.534 46.5771 1.2366zm-71.3083 2.4731c6.1828 6.1828 6.1828 23.4946.8244 38.7455-3.2975 8.656-2.8853 12.7778 2.0609 18.1362 8.2438 9.0681 7.8316 28.8531-1.2365 40.3943-6.1828 8.2437-10.7169 9.4803-28.0287 8.2437l-20.1971-1.2365-.8244-49.4624c-.4122-27.2043 0-51.9355.8244-54.8208 2.4731-6.595 39.982-6.595 46.577 0zm147.1506 19.785v22.258l-16.4875 4.9463-16.4874 4.534 16.4874 3.7097c15.6631 3.7097 16.4875 4.9462 17.7241 21.8459 1.6487 24.319-3.7097 29.2652-32.975 29.2652-26.3799 0-25.9677.4122-29.6774-28.0287-2.4731-16.0752-1.6487-17.724 7.8316-21.4337 11.129-4.1218 10.7168-12.3655-.4122-12.3655-7.4194 0-8.2438-37.0968-.8244-44.5162 3.2975-3.2975 14.4265-4.9462 30.0896-4.1218l24.7312 1.2365zm-13.6022-120.7707c-8.6559 3.2975-1.2365 9.4803 11.9534 9.4803 12.7778 0 16.0753-5.7706 5.3585-9.8925-7.4194-2.8853-9.4803-2.8853-17.3119.4122zm-178.0645 1.2366c-4.9462 3.2975-4.9462 4.1218 1.2366 6.595 9.0681 3.2975 20.6093-1.2366 17.3118-6.595-3.2975-4.9463-10.3047-5.3584-18.5484 0zm504.9284-40.8065c-1.2366 3.2975-1.6488 23.9068-1.2366 45.3405 1.2366 32.1506 2.4731 38.7456 8.2438 39.9821 11.5412 2.061 16.4874-13.1899 13.1899-44.9283-2.8853-30.0896-14.8387-53.9964-20.1971-40.3943zm-210.2151-51.1111c-4.534 1.2366-12.3656 6.595-17.724 11.5412-7.8316 7.8316-9.4803 13.19-8.2437 27.6165l1.2365 17.724 19.3728-1.2365c18.5484-1.6488 40.3943 7.4193 40.3943 16.0752 0 1.6488 5.7706 11.5413 12.3655 21.4337 11.5413 17.3119 12.3656 21.0215 12.3656 55.6452 0 22.6703 1.6488 38.3334 4.5341 40.3943 2.4731 1.2366 13.6021-7.0072 24.7312-18.9606l20.1971-21.4337v-44.9283c0-49.4624-3.2975-59.767-28.4409-88.6201-13.1899-14.8387-14.8387-15.2509-43.2795-16.4875-16.0753-.8243-32.9749 0-37.509 1.2366zm.8244-82.8495c-7.4194 7.4194 7.0071 9.8925 60.1792 9.8925h58.5305l22.6702 22.6703c11.9534 12.3655 24.319 22.6702 26.7921 22.6702 2.061 0 .8244-2.8853-2.8853-5.7706-4.1218-2.8853-7.4193-7.0072-7.4193-9.0681s-7.8316-12.7778-17.3118-23.4946l-17.7241-19.3728h-60.1792c-32.9749 0-61.4158 1.2366-62.6523 2.4731zm-115.8244-34.623599c1.6487 11.953399 5.3584 27.616499 8.6559 35.035799 2.8853 7.4194 5.3584 19.3728 5.3584 26.7921.4122 7.4194 2.8853 18.1362 6.1828 23.9068 3.2975 5.7707 5.7706 14.0144 6.1828 18.5484 0 4.9463 8.2437 25.1434 18.5484 45.3405 11.9534 23.9069 18.5484 42.4552 18.5484 52.3477 0 16.4875 6.1828 24.7312 9.4803 12.7778 1.2365-4.1219 2.0609-23.4946 2.0609-43.2796 0-41.6308 8.6559-61.4158 30.5018-68.8351 16.8997-6.1828 68.8352-5.3584 80.3764.8244 4.9462 2.8853 18.5484 17.724 30.914 33.7993l21.8458 28.853 1.2366 44.5161c.8244 24.7312.4122 49.0502-.8244 53.9965-1.2365 4.9462-13.6021 21.8459-27.6165 36.6846-24.7312 27.2043-28.853 39.9821-13.6021 39.9821 3.2975 0 25.9677-19.3728 49.4624-42.8674 23.9068-23.9068 47.4014-43.6918 52.3476-44.5162 8.6559-1.2365 9.0681-3.2975 9.8925-56.8817l1.2366-55.6452-19.785-21.0215c-10.7168-11.5412-30.0896-30.5018-43.2796-42.043l-23.4946-21.4337h-61.0036c-47.8136 0-62.6523-1.2366-69.6595-6.1828-5.3584-3.7097-21.0215-7.4194-35.8602-9.0681l-26.3799-2.4731-9.8925-29.2653c-6.595-19.784899-11.9534-29.677399-16.8997-30.501799-6.5949-1.2365-7.0071.8244-4.534 20.6094zm-186.3083-6.595c-6.595 16.075299-15.2509 44.103899-22.2581 71.720399-1.6487 7.8316-5.3584 20.6093-7.8315 27.6165-20.6093 61.4158-25.9677 80.7886-28.0287 103.4588-2.4731 25.5556 0 34.6237 9.0681 31.3262 4.1219-1.6488 6.1828-8.2437 6.1828-21.8459 0-17.3118 6.595-42.4552 16.0753-61.4158 9.8925-20.1971 16.4874-37.0968 18.1362-46.1649 1.2366-5.7706 4.1219-16.0752 6.1828-22.6702 14.0143-40.8065 20.6093-86.971399 13.6021-93.978499-2.8853-2.8853-6.1828 0-11.129 11.9534zm35.448-9.8925c-5.3584 8.6559-8.2437 21.021499-8.2437 34.211499 0 11.129-2.8853 25.9677-6.1828 32.5627-3.2975 6.1828-6.1828 17.3118-6.1828 24.7312 0 7.0072-2.8853 16.4875-6.1828 20.6093-3.2975 4.5341-6.1828 13.19-6.1828 19.3728s-1.6487 12.3656-3.7096 13.6021c-5.7707 3.7097-22.2581 59.3549-19.3728 66.3621 1.6487 4.9462 4.1219 5.7706 10.3046 2.0609 4.5341-2.0609 16.0753-4.1219 25.9678-4.1219 15.6631 0 19.7849 2.061 27.2043 12.3656l9.4803 12.3656h45.3405c44.9283 0 46.1649-.4122 61.828-12.7778 14.0143-11.129 18.5484-12.3656 35.8602-10.7168 10.7168.8244 23.9068 3.2975 29.2652 4.9462 8.6559 2.8853 9.4803 2.4731 6.595-6.595-1.2366-5.3584-8.6559-23.0824-16.0753-38.7455-18.1362-39.1577-23.4946-54.4086-26.7921-76.2545-1.6487-10.3046-5.3584-22.6702-7.8315-27.6165-2.8853-4.9462-4.9463-14.4265-4.9463-21.4337 0-15.6631-11.5412-46.164899-19.7849-53.171999-4.5341-3.29751-23.0825-4.94626-59.3549-4.94626h-52.7598zm41.6309-77.49105c-13.19 3.70968-22.6703 10.30467-34.2115 23.49463-8.6559 9.89248-15.6631 20.19714-15.6631 22.67026 0 3.29749 21.4337 4.94623 74.1936 4.94623 61.0036 0 74.1935-.82437 74.1935-5.77061 0-3.29749-1.6487-5.77061-3.2975-5.77061-2.0609 0-9.0681-8.24373-16.0752-17.72401-12.3656-18.13621-15.2509-19.37277-50.699-25.14338-5.7706-.82437-18.5483.41219-28.4408 3.29749z" style="stroke-width:.412186"/></svg>