<svg height="960" style="" width="1200" xmlns="http://www.w3.org/2000/svg"><path d="m418.38822 297.84336-79.90921 79.90919v101.70261 101.70262l79.90921 79.90919 79.90918 79.90919h101.70262 101.70261l79.90919-79.90919 79.90919-79.90919v-101.70262-101.70261l-79.90919-79.90919-79.90919-79.90919h-101.70261-101.70262zm265.87968 0c-4.3587 4.35868-18.88764 2.90579-31.96368-1.45289-20.34052-7.26448-21.79342-13.07605-5.81158-21.79342 18.88762-11.62316 52.3042 8.71737 37.77526 23.24631zm90.07944 82.81498c0 21.79342-40.68104 11.62316-49.39841-14.52894-4.35868-13.07605-13.07605-34.86947-17.43472-46.49262-5.81159-11.62316 7.26446-5.81158 29.05789 13.07605 20.34052 20.34052 37.77525 40.68104 37.77524 47.94551zm-104.60839 29.05789c23.2463 23.24631 23.2463 116.23156 0 139.47787-24.69921 24.6992-98.79683 21.79341-130.7605-7.26447-31.96367-29.05789-33.41657-88.62657-1.45289-123.49603 26.1521-29.05789 106.06128-34.86947 132.21339-8.71737zm-194.68786 181.61181c4.35869 14.52894 13.07605 36.32236 17.43474 47.94551 5.81157 11.62316-7.26448 5.81158-29.0579-13.07605-20.34051-20.34052-37.77524-40.68104-37.77524-47.94551 0-21.79342 40.68104-11.62316 49.3984 13.07605zm87.17367 75.55051c4.35869 7.26447 0 15.98184-11.62315 20.34052-21.79342 8.71737-37.77526-1.4529-37.77526-21.79342 0-15.98184 39.22815-14.52894 49.39841 1.4529zm-113.32577-645.08513c-11.62316 11.62315-34.86947 21.79341-50.85131 21.79341-40.68104 0-233.916 193.23496-233.916 233.91601 0 15.98184-10.17026 39.22815-21.79342 50.8513-30.51078 30.51079-30.51078 264.42679 0 305.10784 11.62316 14.52894 21.79342 39.22814 21.79342 52.30419 0 37.77526 196.14076 229.55733 233.916 229.55733 15.98184 0 39.22815 10.1703 50.85131 21.7934 31.96369 30.5108 270.23837 30.5108 302.20205 0 11.62316-11.6231 34.86947-21.7934 50.85131-21.7934 40.68104 0 233.91595-193.23496 233.91595-233.91601 0-15.98184 10.1703-39.22815 21.7934-50.8513 30.5108-30.51079 30.5108-264.42679 0-305.10784-11.6231-14.52894-21.7934-39.22815-21.7934-52.3042 0-37.77525-196.1407-229.55732-233.91595-229.55732-15.98184 0-39.22815-10.17026-50.85131-21.79341-17.43473-15.98184-56.66289-21.79342-151.10102-21.79342-94.43814 0-133.66629 5.81158-151.10103 21.79342zm84.26789 30.51078c13.07605 4.35868 23.24631 20.34052 23.24631 34.86947 0 56.66288 58.11577 50.8513 84.26787-8.71737 13.07605-26.1521 27.605-34.86947 65.38025-34.86947 61.02157 0 91.53235 46.49263 75.55051 114.77866-7.26447 36.32236-4.35868 45.03973 15.98184 45.03973 14.52895 0 36.32236-8.71737 47.94552-20.34052 27.60499-24.69921 103.15551-14.52895 103.15551 13.07605 0 10.17026 10.17026 26.1521 21.79341 36.32236 30.5108 24.69921 27.605 45.03973-14.52894 90.07946-49.39841 53.75709-46.49262 74.09761 8.71736 62.47446 55.20998-13.07605 71.19178 5.81157 71.19178 87.17366 0 77.00341-17.4347 98.79682-71.19178 97.34393-55.20998-1.45289-56.66288 18.88763-8.71736 63.92736 42.13394 37.77525 46.49264 66.83314 14.52894 92.98524-11.62315 10.17026-21.79341 27.60499-21.79341 37.77525 0 27.605-68.28604 26.1521-95.89104-1.45289-13.07605-11.62316-29.05789-21.79342-36.32236-21.79342-24.6992 0-33.41657 46.49263-14.52894 75.55051 14.52894 24.69921 11.62315 33.41658-20.34053 63.92736-53.75709 49.39837-138.02497 45.03977-138.02497-8.71737 0-56.66288-58.11577-50.8513-84.26787 8.71737-13.07605 26.15207-27.605 34.86947-65.38025 34.86947-61.02157 0-91.53235-46.49263-75.55051-114.77866 7.26447-36.32237 4.35868-45.03973-15.98184-45.03973-14.52895 0-36.32236 8.71736-47.94552 20.34052-27.60499 24.69921-103.15551 14.52894-103.15551-13.07605 0-10.17026-10.17026-26.1521-21.79341-36.32236-30.51078-24.69921-27.605-45.03973 14.52894-90.07946 49.39841-53.75709 45.03973-69.73893-17.43473-65.38025l-55.20999 2.90579-4.35868-72.64472c-4.35869-90.07945 10.17026-113.32577 68.28604-111.87287 55.20998 1.45289 56.66288-18.88763 8.71736-63.92736-42.13394-37.77525-46.49262-66.83314-14.52894-92.98524 11.62315-10.17026 21.79341-27.60499 21.79341-37.77526 0-27.60499 68.28604-26.1521 95.89104 1.4529 13.07605 11.62315 29.05789 21.79342 36.32236 21.79342 24.6992 0 33.41657-46.49263 14.52894-77.00341-15.98184-24.6992-13.07605-33.41657 23.24631-62.47446 42.13394-34.86947 71.19183-42.13394 111.87288-26.1521z" style="stroke-width:1.45289"/></svg>