<svg height="960" style="" width="1270" xmlns="http://www.w3.org/2000/svg"><path d="m648.78274 102.64152h-26.16351l-281.76103-40.25159 104.65411-62.38993h382.38993l104.65408 62.38993zm-529.00289 338.36194 183.14465 237.48426 112.7044 275.72329-106.66667-64.40251-189.18238-334.08805zm533.33347-301.8868 14.08805-16.10061 289.81118-40.25159 189.18245 328.05032-191.19501 243.5219-301.88667-173.08152zm313.96213 543.39623 183.14475-239.49684v116.72954l-189.18248 332.07546-108.67934 66.41511zm-344.15095-199.24528-301.88678 173.08177-191.19496-243.52191 191.19496-328.05043 287.79873 40.25157 14.08805 16.10063zm9.75763 25.91476 299.87419 169.05663-110.69181 281.761h-380.37737l-108.67934-281.761z" style="stroke-width:2.78837"/></svg>