<svg height="960" style="" width="1770" xmlns="http://www.w3.org/2000/svg"><path d="m183.84152 807.03486-33.39525-10.64044 33.48427-34.92542-20.23277-1.15667-40.9674 19.17978-3.30897-5.39138 40.72505-24.67244 28.38687-79.86956-14.89315-8.52343 17.97135-56.47377s-37.38873-55.92474 55.89781-74.5185c92.91791-18.51913 82.47881 44.1847 92.42678 40.79746 14.30129-4.86188 60.36902-29.44573 70.67488-27.32816 10.1341 2.09999-20.65538 22.56408-12.59629 28.40738 8.05044 5.82558 41.09088 11.52628 60.92809 6.63064 32.2086-7.96603 79.72501-29.35002 132.36924-54.4208 30.3652-13.5067 18.00777-43.27514-15.98493-53.86591-20.09226-6.27345 40.56362-226.64822 57.24366-261.26069 16.69442-34.60717 51.03328-46.5484 86.31645-42.31787 35.28344 4.22998 225.88502 79.00814 279.57443 72.23895 53.70686-6.77783 386.01736-113.69775 404.70216-132.96989 18.7028-19.280652 39.3984-77.241892 51.7806-86.662742 24.876-18.90407993 54.1633-19.29139993 54.1633-19.29139993l51.0142 90.16453993c-247.6348 111.086972-523.1919 236.391652-726.8548 338.850832 75.30166-9.60837 243.2843-90.93345 274.1059-87.86684l-12.4089 39.80461 36.0448 16.57875c-17.4579 25.56903-187.7381 101.98939-243.49708 153.48436 209.40028-90.15547 482.52218-220.68186 726.78828-338.99399l36.2785 97.03571s-19.1221 22.18681-49.5939 29.09162c-15.1757 3.42952-72.8794-17.97372-99.6711-16.03977-26.7787 1.93953-322.2892 187.77634-361.9854 224.55354-39.714 36.78542-104.9342 230.86619-124.3683 260.60032-19.43917 29.74779-50.67723 48.38593-87.91388 38.91597-37.24153-9.45685-245.04205-104.65935-236.91975-124.07896 13.71933-32.83911-1.13713-61.45355-31.00171-46.87419-53.03657 24.23015-99.96894 46.86651-126.7789 66.43291-16.49671 12.03624-33.36791 41.01093-34.07153 50.94035-.71158 9.91156 34.76845-.51484 29.84979 8.5925-5.00211 9.25593-53.4465 28.74349-66.36817 36.58688-8.98986 5.44398 45.75478 37.75247-28.15861 97.02762-74.20639 59.50982-93.01433-5.0794-93.01433-5.0794l-54.8084-22.54693 3.03257-16.87608-79.43019-29.59306-45.07808 15.33768-1.99814-6.01324 41.02154-19.04136 12.12303-16.25589-48.27711 3.20125zm171.89564 118.58586c-1.37711-23.58959 31.46367-10.89395 36.84556-43.59032 5.62103-34.16822 8.89972-54.47466 42.32539-38.81914 22.79249 10.68606 20.07301 23.29701 4.57558 53.09964-15.07021 28.96213-82.38561 52.89495-83.74933 29.31024zm218.36212-228.02296c-57.69754 28.42873-88.93951 52.21729-81.51679 69.23234-29.47433 31.61854-67.06049 47.70854-109.83613 53.90623-15.33266 5.61503-35.96432-18.39034.55949-37.599 67.69645-37.70713 130.95419-65.46265 190.79357-85.53943zm-54.57846-122.71608c-58.86467 25.92496-97.1698 34.56643-105.43748 17.95684-43.1624 2.24133-79.65273 20.70408-111.87849 49.48037-14.17432 8.1449-9.04246 39.36705 29.14924 23.73497 72.39968-27.6206 134.32342-58.23819 188.16673-91.17218zm-315.04107 20.71734c17.20354 16.21013 28.57467-17.11258 57.09409-.21487 29.78742 17.65658 47.43242 28.20703 56.93071-7.47518 6.4727-24.31121-4.94406-30.35222-37.73391-37.63918-31.87276-7.07223-93.47644 29.11087-76.29089 45.32853zm670.01636 72.35782c-22.35828 17.86099-47.13202 24.44949-74.33907 19.77317l16.33835-37.42389zm-105.4644-77.51005c3.68457 8.11155-7.83418 16.46587-21.07424 21.10493-13.23169 4.65762-28.18972 5.61239-31.38386-1.07434-6.39722-13.34554 45.08533-36.28593 52.45838-20.03129zm14.4637-94.81043 22.96396 51.57993-41.59638 23.10879-26.48738-58.78736zm-56.58344-1.18875c-3.85869-8.04124-17.66244-4.58702-29.72212 2.55832-12.07727 7.15567-22.41075 18.00498-19.35516 24.74444 6.11119 13.47921 56.7944-11.22142 49.07714-27.30486zm8.40665-130.63049c-28.04071 5.65117-49.02998 20.40299-62.93139 44.23689l39.17074 11.54023z" style="stroke-width:13.9525"/></svg>