<svg height="960" style="" width="1238" xmlns="http://www.w3.org/2000/svg"><path d="m619.88214 0-415.71329 240.07719v111.98897h-84.46589l84.46589 118.11992 60.51551 84.68642 63.69123-88.96485 81.51069-113.84149h-81.51069v-40.40247l291.50655-168.27016 291.55067 168.27016v106.8284l61.88283-86.27431 62.32396 87.37699v-179.51758zm0 282.06754c-107.04362 0-193.72017 86.72066-193.72017 193.7643s86.67653 193.7643 193.72017 193.7643 193.76432-86.72066 193.76432-193.7643-86.72068-193.7643-193.76432-193.7643zm-22.58305 93.949h45.16609v77.23226h77.27639v45.16609h-77.27639v77.23225h-45.16609v-77.23225h-77.23223v-45.16609h77.23223zm376.01655 22.14198-61.88283 86.27428-83.31909 116.48794h83.31909v47.45969l-291.55067 168.22606-291.50655-168.22606v-115.6499l-63.69123 89.00897-60.51551-84.4659v182.91385l415.71329 239.81255 415.75746-239.81255v-119.26671h82.6574l-82.6574-115.60578z" style="stroke-width:22.583"/></svg>