<svg height="960" style="" width="1250" xmlns="http://www.w3.org/2000/svg"><path d="m626.86759-30c-6.08779 4.65347-7.01109 10.61821-9.33782 15.74977-26.39089 58.45518-52.63287 117.03636-79.24687 175.36405-12.97233 28.36702-22.83554 31.4348-49.86389 16.93256-.54188-.28685-.95371-.70917-1.43181-.99603-106.00979-59.41137-215.84533-111.16873-325.32927-163.53616-3.82477-1.88051-7.533-5.90847-12.82393-3.48612-1.46616 4.55785 2.20223 7.51856 3.85963 10.76961 24.52101 47.87333 49.19921 95.62215 74.0177 143.30424 31.45871 60.52693 63.09072 121.01502 96.36619 180.9045 13.9604 24.92472 10.53056 35.27897-15.12725 47.99632-2.58172 1.11556-5.29242 2.24307-7.90601 3.48612-56.05408 26.3484-111.8897 52.80899-167.58255 79.43364-4.39848 2.10362-10.41203 2.32721-12.38816 9.27554 42.96488 19.79316 85.92577 39.88514 128.98627 59.26396 19.57006 8.82883 39.5694 16.41962 59.13946 25.02535 21.09996 9.30693 26.61151 24.38037 17.36832 45.25722-1.1793 2.64546-2.61209 5.2013-4.04638 7.71927-60.78192 105.2767-111.07112 215.80149-162.29112 325.82727-1.40242 3.12356-6.15997 6.34672-2.30333 10.45835.31873.0319.67731 0 .99604 0 2.8367 0 5.46224-.95718 7.47024-2.61458 105.65926-55.26204 211.58724-110.33304 316.55171-167.27129 5.35467-3.21918 10.92251-6.18538 17.6796-9.21329 14.66256-5.82049 24.06403-2.63784 32.43332 10.58285l.0623.0622c2.86768 4.65535 5.48022 9.47417 8.09279 15.31402 20.29249 43.49607 40.58849 86.98571 60.94476 130.41807 8.38261 17.97637 17.07101 35.77296 25.77236 53.97256 5.45029-3.4105 6.21374-8.4026 8.03051-12.4505 23.71355-52.71798 47.07003-105.52666 70.65609-158.24469l.74701-1.80529c3.82476-8.92449 8.12313-17.67014 12.13917-24.71408 9.88061-17.08396 18.04011-19.56856 35.85718-12.01465l.74701.24899c3.69728 1.56178 7.30888 3.38502 10.20936 5.04242 104.63923 59.50699 213.84378 109.87639 322.40338 161.60636 3.9523 1.84864 7.6386 5.53048 15.065 3.29937l-.062-.0623c-55.7144-109.99385-109.95286-219.86027-170.38417-326.69875-18.61386-32.89299-15.38273-42.65163 19.42264-58.20568 54.85353-24.54222 109.80463-48.94254 164.59443-73.64416 4.7491-2.10362 11.2124-2.33769 13.571-8.8398l-9.5869-4.98016c-58.0408-28.622-115.9327-57.70119-174.866-84.53831-27.57019-12.52611-30.21116-22.12936-16.12327-48.74336.22311-.50997.64693-.92184.93379-1.4318 59.22013-105.34044 109.85948-215.19241 160.98378-324.64448 1.7849-3.7929 5.7506-7.44336 3.4239-12.57492-3.9523-.63746-6.6241 2.01995-9.5246 3.48612-107.25279 54.4073-214.80494 108.2394-319.53979 167.39579-28.52639 16.06402-39.17846 12.51067-52.852-16.6213-.98806-2.10363-1.93928-4.21422-2.8636-6.34972-16.70148-37.48271-33.51168-74.92475-50.36191-112.36496-10.74122-23.93667-21.62236-47.79913-32.68231-72.15014zm-.43577 219.99878 58.08115 128.73726c68.62269-38.0883 137.60098-72.79607 208.29541-106.32652-31.63933 71.05566-66.30526 140.90712-104.08547 209.54042l121.39152 59.82423c-10.1675 7.8089-19.98638 10.57838-29.13395 14.75375-26.29527 11.92052-52.79373 23.47352-79.18461 35.23467-13.67355 6.1515-13.67157 6.23915-6.72324 18.92463 33.97275 61.60944 65.34473 124.67815 96.80197 187.75221.55912 1.87819 1.05665 3.81884 1.43177 6.03845-71.17253-32.25553-140.1448-65.01307-208.54438-102.5914l-56.77387 126.12267-59.45074-125.6869c-67.60275 35.57033-134.57649 70.70288-201.50991 105.89074l-2.98809-2.49009c30.72562-69.70637 62.9179-138.77974 100.91057-206.98808-40.73375-18.55011-81.87888-36.31338-123.63258-58.01893 42.10431-20.08003 82.46904-39.32784 122.94782-58.57917-30.82124-59.22013-61.60165-117.95073-92.00855-177.10712-4.46222-8.57385-10.48474-16.69949-12.01464-26.64388-1.56178-.25499-2.98611-1.1803-1.74306-2.61459 1.24305-1.43428 2.47813-.0996 2.9881 1.49405 8.32222.56218 15.06896 5.47095 22.28624 8.77754 61.67435 29.00448 123.31884 58.28237 184.51511 92.1953 19.25132-42.48678 38.25464-84.35005 58.14343-128.23924zm.49801 187.37871c-56.0647 0-101.52865 45.3135-101.71988 101.34633 0 56.00096 45.40766 101.40862 101.40861 101.40862 56.00096 0 101.34634-45.40766 101.34634-101.40862 0-55.80972-45.07048-101.05948-100.84832-101.34633zm.249 72.89715c15.4373 0 27.97173 12.39909 28.38693 27.76442-.0329 15.21719-11.86761 27.64851-26.89288 28.76046-.42946.0279-.91221.0622-1.36956.0622-15.39468 0-27.90585-12.21633-28.51143-27.51543v-.68476c0-15.68155 12.70539-28.38694 28.38694-28.38694z" style="stroke-width:31.8731"/></svg>