<svg height="960" style="" width="1200" xmlns="http://www.w3.org/2000/svg"><path d="m727.10707 0-244.50365 250.53087 4.68783 37.43566-128.64737 120.74501-19.88978 3.01362-52.70457 44.93614 52.70457 55.11545 52.77153-47.94975v-21.564l124.62925-119.13779 29.19845 3.14754 253.61143-258.03139-14.33134-14.39832-71.92468 71.99163-12.0544-12.18835 69.58075-74.13464-31.14056-28.72968zm254.08025 221.73421-90.94385 4.7548-9.57657 28.79665 14.33137 23.97488-28.7297 24.77854-302.09697 289.23892-18.68434-21.69795 196.0851-187.24519 33.55146-13.99654 14.39833-14.80012 34.08718-38.30626-19.01917-19.2201-27.05547-25.98394-33.61839 33.68539-16.74227 17.34495-14.46529 30.47088-196.4869 185.16918-38.37322 4.01812-33.55146 33.68539 19.15313 19.2201-287.63167 278.05511 19.15312 19.22009 287.63168-278.05511 28.79666 28.72966-294.86433 278.05511 16.80921 16.74227 86.25601-83.84516 9.64353 9.57657-71.92466 74.26859 19.15312 19.22009 280.46601-272.42973 23.97486 25.51518 21.631-21.56403-23.90793-26.72062 239.54795-229.77046h28.79666l75.60795-76.67948-13.1259-14.80012 23.77397-23.57307 19.15313 9.64353h28.79666zm-747.84236 47.54797-110.29787 107.88698-2.41089 9.5096 11.98744 11.98743h14.39833l9.57656 9.04081-4.75479 5.75934 19.15312 19.01917 91.07778-81.36725v-19.55496l-7.16568-14.33136 9.57656-16.8092zm697.4817 203.92045-192.13395 187.91491 52.63759 54.31184-45.0701 48.01672 124.62924 127.84376 31.20753-32.01117-35.96233-38.37323 19.82281-22.97032 13.72862 13.39375 115.05263-119.80744 64.6251-67.10288zm-278.05514 283.94838-119.67352 127.91072-12.38925-11.98743-38.37322 41.38681 48.15068 45.53889 33.55146-37.50262 12.0544 11.25079 124.62924-127.17404z" style="stroke-width:34.2881"/></svg>