<svg height="960" style="" width="1024" xmlns="http://www.w3.org/2000/svg"><path d="m891.57062 597.82409c10.13261-12.2111 15.32882-28.83897 10.91204-46.7659-4.67659-19.7456-21.04466-36.11367-41.05007-40.27064-21.04465-4.41678-40.01082 3.63735-52.22192 17.66712s-.77943 1.03924-1.29905 1.81867c-1.03925 1.29906-2.07849 2.59811-3.11773 3.89716-12.2111 15.84845-50.66306 61.5751-85.47767 63.65359-42.08931 2.5981 65.21245-419.33424 65.21245-419.33424h-.25981c1.03924-3.89716 1.81867-8.05413 1.81867-12.47091 0-25.46143-20.52503-45.98646-45.98647-45.98646-21.04465 0-38.71177 14.28958-43.90798 33.51556h-.25981s-.25981.77943-.25981 1.29905c-.25981 1.29905-.51962 2.59811-.77943 3.89716-6.23546 31.43708-43.64818 213.04465-73.00677 230.97158-32.21651 19.48579-31.69689-343.72936-31.69689-343.72936 0-25.46144-20.52503-45.98647-45.98647-45.98647-25.46143 0-45.98646 20.52503-45.98646 45.98647 0 0-9.09337 333.85656-44.94723 330.73883-35.59405-3.11772-64.17321-277.21786-64.17321-277.21786 0-25.46143-20.52503-45.98647-45.98647-45.98647-25.46143 0-45.98646 20.52504-45.98646 45.98647 0 3.89716.51962 7.2747 1.55886 10.91205 7.01488 53.52097 35.33424 288.90933-1.55886 288.90933-41.56969 0-95.61029-164.9797-95.61029-164.9797-5.97564-16.10825-21.30446-27.53992-39.4912-27.53992-23.38295 0-42.08931 18.96617-42.08931 42.08931 0 2.3383.25981 4.41678.77943 6.49527l-.77943.25981s.51962 1.81867 1.81867 4.9364c.51962 2.33829 1.29905 4.41678 2.3383 6.49526 25.72124 70.40866 163.16103 453.62923 188.62246 681.48309.77943 6.49526 6.23545 11.43166 12.73072 11.43166h316.70906c6.75508 0 12.2111-4.9364 12.99053-11.69147 2.59811-27.0203 13.51015-95.61029 54.30041-143.93505 46.7659-55.59946 157.44519-179.00947 178.23004-202.39242.51962-.51963.77943-1.03925 1.29905-1.55887 1.81867-1.55886 2.85792-2.5981 2.59811-2.5981z" style="stroke-width:25.9811"/></svg>