<svg height="960" style="" width="1190" xmlns="http://www.w3.org/2000/svg"><path d="m172.99736.00000055a53.478716 53.478716 0 00-53.3499 53.34990045v218.102429c1.57034 0 2.92291-.48562 4.71135-.48562a63.685909 63.685909 0 010 127.33433 31.45037 31.45037 0 01-4.71135-.4345v508.78356a53.478716 53.478716 0 0053.3499 53.3499h91.90972v-19.27991h.21299a37.077415 37.077415 0 0174.15483 0v19.27991h40.57046v-19.27991a37.077415 37.077415 0 0174.15483 0h-1.31203v19.27991h40.57046v-19.27991a37.077413 37.077413 0 0174.15482 0v19.27991h42.5726v-19.27991a37.077413 37.077413 0 0174.15482 0h.22151v19.27991h42.57254v-19.27991h.213a37.077415 37.077415 0 0174.15483 0h.2215v19.27991h43.62049v-19.27991h.213a37.077413 37.077413 0 0174.15482 0h.22151v19.27991h97.27704a53.478716 53.478716 0 0053.3414-53.3499v-509.00507a50.2508 50.2508 0 01-8.5026.869 63.642289 63.642289 0 010-127.28321 43.358763 43.358763 0 017.8551.8264v-218.707319a53.478716 53.478716 0 00-53.4862-53.34990045zm60.30191 54.00591045a59.585584 59.585584 0 0159.51811 59.407349 59.541963 59.541963 0 01-59.75666 59.75666 59.585584 59.585584 0 01.23855-119.164009zm722.32799 0a59.585584 59.585584 0 01.35782 119.164009 59.541963 59.541963 0 01-59.58628-59.75666l-.3067.17039a59.585584 59.585584 0 0159.53516-59.577739zm-423.46803 131.483389a13.086146 13.086146 0 0112.04676 8.45147l12.03821 30.53434a254.22019 254.22019 0 0155.44574-2.48773c8.7241.61069 17.44104 1.65519 26.47048 3.00743a3.9694642 3.9694642 0 010-.74121l13.65696-30.79845a13.086146 13.086146 0 0117.4482-6.75606l85.57964 37.77602a13.086146 13.086146 0 016.76458 17.22668l-13.35023 30.22764a257.84069 257.84069 0 0157.32003 58.32536c.26172 0 .47947-.007.7412-.44302l31.40334-12.20863a13.086146 13.086146 0 0117.05631 7.53987l33.94219 87.24097a13.086146 13.086146 0 01-7.54839 17.0137l-30.53434 12.03823a256.70656 256.70656 0 012.09583 55.36051h-.26412c-.61069 8.72409-1.6988 17.44208-3.00742 26.4279h.7412l30.92623 13.65697a13.086146 13.086146 0 016.75607 17.44819l-37.76749 85.63077a13.086146 13.086146 0 01-17.44819 6.71345l-30.23615-13.35027a257.36087 257.36087 0 01-58.35946 57.32007c.26173.26172.2154.52209.47712.78382l12.21714 31.41185a13.086146 13.086146 0 01-7.54839 17.00518l-87.24097 33.94215a13.086146 13.086146 0 01-17.01369-7.54835l-12.03826-30.53434a254.08933 254.08933 0 01-55.43718 2.48772c-8.7241-.56707-17.44959-1.66373-26.47901-3.01596a3.9694642 3.9694642 0 010 .74975l-13.65696 30.92622a13.086146 13.086146 0 01-17.22669 6.75607l-85.58816-37.77603a13.086146 13.086146 0 01-6.75607-17.4482l13.39286-30.18503a258.01517 258.01517 0 01-57.32005-58.35945c-.26172 0-.52208-.002-.7838.4345l-31.41186 12.20863a13.086146 13.086146 0 01-17.0137-7.53984l-33.93367-87.24097a13.086146 13.086146 0 017.54839-17.01369l30.53434-12.03825a254.00209 254.00209 0 01-2.44513-55.44574c.56707-8.7241 1.65621-17.44204 2.96483-26.42786h-.74121l-30.31283-13.65697a13.086146 13.086146 0 01-6.72198-17.44819l37.77602-85.57965a13.086146 13.086146 0 0117.44819-6.76458l30.18504 13.35026a257.36087 257.36087 0 0158.14645-57.14966c-.26173-.26172.002-.52208-.4345-.7838l-12.25975-31.40335a13.086146 13.086146 0 017.54839-17.01369l87.24097-33.93367a13.086146 13.086146 0 014.96694-.90308zm62.24439 161.7451a132.78076 132.78076 0 00-30.08278 3.54417 132.78076 132.78076 0 00-98.72544 159.73448 132.78076 132.78076 0 00159.72594 98.72542 132.78076 132.78076 0 0098.73397-159.72596 132.78076 132.78076 0 00-129.65169-102.27811z" style="stroke-width:4.36205"/></svg>