<svg height="960" style="" width="1200" xmlns="http://www.w3.org/2000/svg"><path d="m120.02423 0v960h959.95157v-960zm70.46138 70.75214h818.78649v818.78649h-818.78649zm116.11106 64.25845v76.13127h76.17971v-76.13127zm101.96061 0v76.13127h76.17972v-76.13127zm102.00909 0v76.13127h76.13126v-76.13127zm102.20294 0v279.85867h280.14944zm-306.17264 101.96063v76.17972h76.17971v-76.17972zm101.96061 0v76.17972h76.17972v-76.17972zm102.00909 0v76.17972h76.13126v-76.17972zm-203.9697 101.96063v76.17972h76.17971v-76.17972zm101.96061 0v76.17972h76.17972v-76.17972zm102.00909 0v76.17972h76.13126v-76.17972zm-203.9697 102.00908v76.13126h76.17971v-76.13126zm101.96061 0v76.13126h76.17972v-76.13126zm102.00909 0v76.13126h76.13126v-76.13126zm102.20294 0v76.13126h76.17969v-76.13126zm101.96062 0v76.13126h76.1797v-76.13126zm102.00909 0v76.13126h76.17972v-76.13126zm-510.14235 101.96063v76.17972h76.17971v-76.17972zm101.96061 0v76.17972h76.17972v-76.17972zm102.00909 0v76.17972h76.13126v-76.17972zm102.20294 0v76.17972h76.17969v-76.17972zm101.96062 0v76.17972h76.1797v-76.17972zm102.00909 0v76.17972h76.17972v-76.17972zm-510.14235 101.96062v76.17972h76.17971v-76.17972zm101.96061 0v76.17972h76.17972v-76.17972zm102.00909 0v76.17972h76.13126v-76.17972zm102.20294 0v76.17972h76.17969v-76.17972zm101.96062 0v76.17972h76.1797v-76.17972zm102.00909 0v76.17972h76.17972v-76.17972zm-510.14235 102.00911v76.13124h76.17971v-76.13124zm101.96061 0v76.13124h76.17972v-76.13124zm102.00909 0v76.13124h76.13126v-76.13124zm102.20294 0v76.13124h76.17969v-76.13124zm101.96062 0v76.13124h76.1797v-76.13124zm102.00909 0v76.13124h76.17972v-76.13124z" style="stroke-width:24.8117"/></svg>