<?xml version="1.0" encoding="UTF-8" standalone="no"?>
<svg
   xmlns:dc="http://purl.org/dc/elements/1.1/"
   xmlns:cc="http://creativecommons.org/ns#"
   xmlns:rdf="http://www.w3.org/1999/02/22-rdf-syntax-ns#"
   xmlns:svg="http://www.w3.org/2000/svg"
   xmlns="http://www.w3.org/2000/svg"
   xmlns:sodipodi="http://sodipodi.sourceforge.net/DTD/sodipodi-0.dtd"
   xmlns:inkscape="http://www.inkscape.org/namespaces/inkscape"
   width="1100"
   height="960"
   inkscape:version="1.0.1 (3bc2e813f5, 2020-09-07)"
   sodipodi:docname="shaxx.svg">
  <defs />
  <sodipodi:namedview
     inkscape:zoom="0.5"
     inkscape:cx="510.00223"
     inkscape:cy="510"
     inkscape:window-width="1752"
     inkscape:window-height="1057"
     inkscape:window-x="160"
     inkscape:window-y="-8"
     inkscape:window-maximized="1" />
  <path
     d="m 40.217123,-29.780629 c -1.63432,23.50304 6.11603,42.97922 14.832389,62.12408 18.21096,39.924029 46.812258,72.096559 75.451728,104.471619 L 473.68836,480.00221 311.06947,642.6211 c -11.79041,8.83308 -21.07254,1.73593 -29.12738,-5.69652 -12.60761,-11.7515 -24.54176,-24.54171 -34.93132,-34.93132 l -1.2898,-29.55728 -0.10748,-0.10753 c -1.82095,-3.35025 -4.06421,-6.4287 -6.87879,-9.24333 -4.66932,-4.66933 -10.18705,-8.02981 -15.90717,-9.78082 -9.57852,7.49277 -18.79966,15.68276 -27.62267,24.50572 -9.1565,9.15655 -17.59894,18.70332 -24.39821,27.51516 v 0.10747 c 1.91395,5.32804 4.9433,10.20978 9.24338,14.50996 2.99639,2.9964 6.29718,5.48922 9.56581,7.20121 l 30.63209,3.22445 c 12.33521,12.33521 23.70447,25.91317 36.97355,37.08097 21.79085,18.21096 19.48255,35.4557 3.76181,56.85749 -36.53864,50.00231 -83.58501,89.85235 -126.50525,133.70651 v -0.10747 l 0.42992,-0.75238 c -4.59172,6.77077 -9.91467,13.13915 -15.9072,19.13162 -5.13653,5.13653 -10.4857,9.92533 -15.58476,13.54264 -10.039456,1.86773 -13.257806,-12.10816 -21.818656,-8.06112 l -41.595181,41.70269 0.21496,0.4299 c 9.805849,15.56494 13.777749,33.73017 11.715439,51.59098 h 0.21496 c 0.77978,-0.1156 1.58095,0.088 2.36459,0 -0.0936,0.7841 0.11555,1.5848 0,2.3645 v 0.215 c 17.86075,-2.0625 36.025982,1.9094 51.590918,11.7155 l 0.42992,0.2149 41.70267,-41.59516 c 4.04693,-8.56085 -9.92892,-11.77913 -8.06108,-21.8187 3.61714,-5.09911 8.40619,-10.44833 13.54261,-15.58475 5.99248,-5.99247 12.36088,-11.31556 19.13164,-15.90718 l -0.75237,0.4299 h -0.10748 c 43.85416,-42.92029 83.70418,-89.96654 133.70649,-126.50524 21.40179,-15.72057 38.64647,-18.02887 56.85749,3.76182 11.1678,13.26913 24.74576,24.63828 37.08097,36.97355 l 3.22445,30.63207 c 1.71199,3.26881 4.20476,6.56958 7.20121,9.56582 4.30007,4.30006 9.1817,7.32937 14.50996,9.24338 h 0.10747 c 8.81179,-6.79927 18.35861,-15.24163 27.51516,-24.39818 8.82296,-8.82296 17.01296,-18.04417 24.50572,-27.62269 -1.75106,-5.72002 -5.11121,-11.23769 -9.78081,-15.90718 -2.81425,-2.81425 -5.89342,-5.05806 -9.24333,-6.87879 l -0.10753,-0.10747 -29.55729,-1.2898 c -10.39038,-10.39028 -23.17981,-22.32371 -34.93132,-34.93133 -7.43234,-8.05484 -14.5296,-17.33686 -5.69652,-29.12738 L 549.99996,556.3138 712.61884,718.93269 c 8.83309,11.79041 1.73594,21.07254 -5.69651,29.12738 -11.75151,12.60762 -24.54171,24.54177 -34.93133,34.93133 l -29.55728,1.2898 -0.10753,0.10747 c -3.34969,1.82095 -6.42869,4.06421 -9.24333,6.87879 -4.66932,4.66932 -8.0298,10.1871 -9.78081,15.90718 7.49276,9.57846 15.68276,18.79967 24.50571,27.62269 9.15655,9.15649 18.70333,17.59891 27.51517,24.39818 h 0.10747 c 5.32804,-1.91395 10.20977,-4.94332 14.50995,-9.24338 2.99641,-2.99641 5.48922,-6.29718 7.20122,-9.56582 l 3.22444,-30.63207 c 12.33522,-12.33527 25.91318,-23.70448 37.08097,-36.97355 18.21097,-21.79091 35.45577,-19.48255 56.8575,-3.76182 50.00236,36.53864 89.85235,83.585 133.70651,126.50524 h -0.10748 l -0.75237,-0.4299 c 6.77076,4.59173 13.13915,9.91471 19.13162,15.90718 5.13653,5.13653 9.92532,10.4857 13.54263,15.58475 1.86773,10.03946 -12.10815,13.25785 -8.06111,21.8187 L 993.46698,990 l 0.4299,-0.2149 c 15.56492,-9.8059 33.73022,-13.7779 51.59092,-11.7155 v -0.215 c -0.1155,-0.7797 0.088,-1.5804 0,-2.3645 0.7842,0.094 1.5849,-0.1156 2.3646,0 h 0.215 c -2.0625,-17.86081 1.9094,-36.02604 11.7155,-51.59098 l 0.2149,-0.4299 -41.5952,-41.70269 c -8.5608,-4.04693 -11.7791,9.92896 -21.81872,8.06112 -5.0991,-3.61715 -10.4483,-8.40622 -15.5848,-13.54264 -5.99242,-5.99247 -11.3155,-12.36085 -15.90712,-19.13162 l 0.4299,0.75238 v 0.10747 c -42.9203,-43.85416 -89.96654,-83.7042 -126.50525,-133.70651 -15.72056,-21.40179 -18.02887,-38.64647 3.76182,-56.85749 13.26913,-11.1678 24.63829,-24.74576 36.97355,-37.08097 l 30.63208,-3.22445 c 3.2688,-1.71199 6.56958,-4.20476 9.56581,-7.20121 4.30007,-4.30007 7.32938,-9.1817 9.24339,-14.50996 v -0.10747 c -6.79927,-8.81179 -15.24164,-18.35861 -24.39819,-27.51516 -8.82296,-8.82296 -18.04417,-17.01295 -27.62269,-24.50572 -5.72002,1.75107 -11.23769,5.11122 -15.90717,9.78082 -2.81425,2.81425 -5.05806,5.89341 -6.87879,9.24333 l -0.10748,0.10753 -1.2898,29.55728 c -10.38961,10.38956 -22.32371,23.17987 -34.93132,34.93132 -8.05484,7.43234 -17.33686,14.5296 -29.12738,5.69652 L 626.31155,480.00221 969.49868,136.81507 c 28.6395,-32.37505 57.24062,-64.54775 75.45182,-104.471619 8.7163,-19.14486 16.4667,-38.62104 14.8324,-62.12408 -23.5031,-1.63429 -42.9793,6.11604 -62.12412,14.83239 -39.9241,18.21097 -72.09664,46.81227 -104.47169,75.45173 L 549.99996,403.69062 206.81282,60.503491 c -32.37505,-28.63946 -64.54775,-57.24061 -104.47163,-75.45173 -19.144846,-8.71635 -38.621038,-16.46671 -62.124067,-14.83239 z" />
  <metadata
     id="metadata893">
    <rdf:RDF>
      <cc:Work
         rdf:about="">
        <dc:title></dc:title>
      </cc:Work>
    </rdf:RDF>
  </metadata>
</svg>
