<svg height="960" style="" width="1200" xmlns="http://www.w3.org/2000/svg"><path d="m599.49321 0-212.22974 212.48311 53.41217 53.71622 158.81757-158.7669 158.76688 158.7669 53.71623-53.71622zm0 132.82096c-11.93513 42.8108-26.99189 180.06486-34.25676 272.43242-.25946 0-.50676.30404-.50676.30404-65.64323-47.74054-160.63783-111.83108-195.4054-127.39864 19.71892 32.43243 95.7365 118.01151 151.52028 176.90878-2.59459 7.7838-4.15542 15.85743-4.15542 24.67905 0 7.52433 1.32567 14.53785 3.14189 21.2838-58.37837 56.56216-137.80136 139.07836-158.81757 170.47296 35.28648-14.01081 132.85541-74.24593 200.57433-119.39188 1.03784.51892 2.35745 1.30539 3.39529 1.82431 7.0054 92.10811 22.02971 229.62162 33.44593 272.43244 11.67568-42.81082 26.9919-180.57769 34.25677-272.6858h.25336c65.64324 47.74054 160.89123 112.08446 195.6588 127.65203-19.97838-32.43244-96.28785-118.82231-152.33109-177.71961 2.33514-7.52433 3.90203-15.56554 3.90203-23.86825 0-7.26486-1.28108-14.03107-2.83783-20.77702 58.8973-56.3027 138.5554-139.06622 159.83107-170.97974-35.54594 14.01082-133.36216 74.45475-201.08108 119.34124-1.03784-.51892-1.85067-1.00136-2.88851-1.52028-7.00541-92.10811-22.02365-230.17905-33.69933-272.98985zm-301.26688 168.39526-177.7196 178.02364 175.13512 175.38853 53.71623-53.71623-121.67229-121.6723 124.25674-124.30742zm606.13175 3.39525-53.71623 53.71624 121.6723 121.67229-124.25675 124.25674 53.71621 53.46285 177.71969-177.71959zm-463.68244 389.1892-53.41217 53.71622 212.22974 212.48311 212.48311-212.48311-53.71623-53.71622-158.76688 158.7669z" style="stroke-width:25.946"/></svg>