<svg height="960" style="" width="3170" xmlns="http://www.w3.org/2000/svg"><path d="m169.07037 602.90175c43.34516 20.14632 90.96379 31.1352 99.51073 22.58832 3.05247-3.05248 2.44197-18.31488-2.44199-34.18776-8.54693-32.96672 1.83149-49.45011 20.14635-31.13528 21.97782 21.97784 47.61862 24.41984 65.32298 6.71552 44.56616-44.56618 329.05694-34.79826 366.29715 12.20984 7.93644 10.3784 9.76791 28.0828 4.88395 47.61863-7.93643 28.69328-9.76791 30.52481-39.07168 40.29273-16.48338 5.4944-56.16557 13.43088-87.30083 17.7044-64.71249 8.54688-71.42794 22.58823-26.86179 54.94456 12.8204 10.3784 43.34516 37.24015 65.93349 59.82848 39.07169 39.07167 43.95565 41.51367 79.36438 40.29271 32.35625-1.83151 42.12417-6.71551 72.03844-36.62976 25.03032-25.03032 45.17664-36.62968 76.31188-45.78712 23.19879-6.10496 48.22919-14.04144 55.55519-16.48335 6.7153-3.05249 40.9031-9.15744 74.4804-13.43097 33.57708-4.27344 62.88098-10.3784 64.71238-12.20984 2.4419-2.442 22.5883-6.71551 45.7872-9.15743 22.5883-3.05248 43.3451-6.71553 45.7871-9.15745 2.442-2.442 21.9778-7.326 43.3452-10.37839 21.9778-2.442 47.6185-7.326 58.6074-9.76793 10.989-2.442 50.0608-12.21 87.3009-21.36736 67.765-16.48335 231.9881-23.19879 583.0228-23.80928 177.6542.61049 264.3446 3.0524 536.6254 12.82033 79.9748 3.05255 154.4553 5.49448 165.4442 5.49448 39.0718 1.22104 106.2262 12.20992 123.9306 21.36736 17.0939 9.76791 29.9143 6.71544 124.541-31.74577 34.1877-13.43087 97.0687-70.20695 88.5218-78.75391-3.0524-3.0524-2.4419-14.65189.6105-26.25127 4.2734-11.59939 9.768-34.18775 13.4308-51.28162 3.0526-16.4833 9.1575-38.46117 12.2101-48.83958 3.0523-10.37841 8.5469-31.74579 12.2098-48.83967 3.0525-16.4833 9.1574-38.46119 12.2101-48.83959 3.0523-10.3784 8.5467-31.7457 12.2097-48.83957 3.0525-16.4834 8.547-36.62971 10.9889-43.95567 2.442-8.54694 7.9366-34.79824 12.2099-58.60758 6.105-34.18776 3.663-47.61862-9.1574-57.99703-12.2099-9.76791-21.9779-9.76791-34.1877 0-9.7679 7.32596-33.5773 11.59939-52.5026 9.76792l-36.0192-3.05244-67.1545 69.59641c-64.7125 67.15451-67.765 68.98598-96.4583 68.37548-16.4833-.61049-38.4612-6.71546-50.0605-13.43093-16.4834-10.37841-20.1464-18.92535-17.0939-48.83959 1.8314-22.58836-1.221-37.85068-9.768-41.51371-17.0939-7.32587-31.7457 7.32597-57.997 57.9971-11.5994 22.58828-26.8617 43.95567-33.5773 47.00812-17.7043 7.93645-40.2926-15.8729-41.5136-41.51371-1.8314-34.79815-20.7569-30.52472-55.5551 11.59947-38.4612 48.2291-51.2816 51.28154-78.1434 18.31485l-21.9778-25.64081-48.8396 42.73468-48.8396 42.73461-24.4198-18.31485c-21.3674-16.48331-26.2512-16.48331-45.7872.61049-40.2927 36.62971-101.9526 49.45015-249.6924 51.8921-53.1132.6105-156.287 4.88401-229.5463 8.54695-73.2594 3.66302-156.2867 7.32596-183.1486 7.32596-28.0827 0-64.102 1.83146-79.9748 3.05244-19.5359 1.22098-36.0193-4.27342-47.6187-15.8728-19.5359-19.53594-47.0082-20.14641-67.1546-1.22107-9.1572 9.15742-18.3147 8.54693-34.1876-2.44197-33.5772-23.80934-64.7124-26.86178-83.6378-7.93645-15.8729 15.8729-18.9254 15.26242-43.3452-9.15741-24.4198-24.41985-29.3038-25.64082-63.4915-15.8729-65.323 17.70436-114.1626-3.05245-124.541-54.94457-4.2735-21.36729-.6105-29.91423 22.5883-53.11309 44.5662-44.56615 29.3039-52.50252-89.13228-50.06056-57.9971.61049-119.65707 6.1049-136.75091 10.9889-29.91431 9.15742-31.13528 10.37841-40.29272 40.29272-5.49446 17.70428-9.76792 56.16554-9.76792 85.4693 0 47.6186-3.05248 56.77603-27.47229 82.41684-25.64079 25.6408-32.96674 28.08278-85.46933 26.86179-31.13525-.61049-79.36439-3.66294-106.83666-7.93645-67.76498-9.15743-165.44421 9.15744-192.306 36.01922-17.70437 17.70436-37.85071 9.76792-66.54398-27.47228-32.35624-40.90313-45.78715-38.46117-76.31191 11.59938-10.37841 16.48338-31.74575 43.95567-47.61862 59.82857-20.14634 20.14632-30.52475 39.07166-33.57724 60.43905-5.49445 36.01922-4.27347 37.24018 47.00813 60.43906zm695.96452-30.52481c23.19893-15.8729 42.12423-20.14633 89.13233-18.31487 33.5772.61049 62.27048 3.66304 64.71258 6.10496 6.7153 6.71552-16.4835 40.9032-32.96688 47.61864-7.3259 3.66303-42.1241 7.93647-76.3118 9.15744-75.09093 1.83143-89.13237-12.20992-44.56623-44.56617zm4.27354-182.53807c8.54689-18.31484 14.65179-21.97787 37.85069-23.19885 32.3563-.61049 60.8548 24.42053 61.0495 52.50261.077 11.16666-.6899 24.92456-.6899 24.92456s-15.4788 1.82447-31.0559.71626c-54.9277-3.9078-80.58535-24.41984-67.15439-54.94458zm211.23127 212.4524c-6.7154-15.2624 10.3785-37.24033 26.2513-33.57728 14.6519 3.66295 15.8729 32.9668 2.442 46.3976-12.2099 12.20992-18.9253 9.15743-28.6933-12.82032zm-22.5883-145.90844c-1.8314-42.12412 50.6711-62.88102 82.4168-31.13522 29.9143 29.91424 12.21 68.37542-34.1877 73.25942-28.0827 3.66293-47.0081-12.82037-48.2291-42.1242zm256.408 32.96676c11.287-36.11832 42.0439-54.16062 69.5965-41.5137 19.511 8.95591 35.9325 33.2674 35.9325 33.2674s-2.7201 25.45933-10.9023 41.82356c-14.6519 29.30376-18.9253 32.3562-39.6822 33.57719-14.0413.61057-31.1352-6.71539-43.3452-18.92535-9.7513-9.75143-19.0417-26.41551-19.0417-26.41551s4.5716-12.62732 7.4424-21.81359zm1040.8944-14.04142c6.7153-29.91424 25.6408-40.29265 50.0606-25.64072 26.2512 15.26232 25.6408 28.08276-1.8315 55.55504-20.7568 20.75681-25.6408 21.9778-38.4611 9.15743-8.547-8.54694-12.2101-24.41983-9.768-39.07175zm181.3171 20.14641c-.6105-3.05255 14.0413-10.37841 30.5247-15.8729 21.3675-7.93645 42.7347-7.32596 68.986 3.05245 48.174 19.04561 66.4575 43.70097 96.7424 69.32883 8.1219 6.87304 22.1337 21.99079 22.6291 22.51182 0 0-25.684-2.41607-38.5063-3.81359-20.8736-2.2752-31.5448-2.7908-62.5503-7.44168-74.4804-10.9889-84.859-15.26233-100.7317-37.24021-9.1575-14.04133-17.0939-28.08277-17.0939-30.52472z" style="stroke-width:.813964"/></svg>