<svg height="960" style="" width="1052" xmlns="http://www.w3.org/2000/svg"><path d="m190.66971 0h374.45097c46.40402 0 80.20117 43.98994 68.13076 89.05281l-145.91785 548.80134c-1.87762 7.51048.80469 15.28919 7.51047 19.31266 26.55491 16.63034 124.45935 68.93545 218.60856 155.03772 3.21877 2.95054 78.32355-.8047 82.88348-.26823 61.96145 5.36462 106.48785-2.14586 135.45684 126.06873 2.41408 11.26572-5.63286 21.99497-17.16681 21.99497-112.9254 0-655.28919 0-755.60772 0-9.11987 0-16.89858-6.97402-17.70327-16.36211-4.02347-48.81811-10.72926-193.93127 46.67225-249.99162 4.55994-4.2917 6.70579-9.92456 5.36463-16.09388-10.46102-46.67226-56.06035-263.67142-73.49539-602.98407-1.87762-40.23471 30.04191-74.56832 70.81308-74.56832z" style="stroke-width:26.8231"/></svg>