<svg height="960" style="" width="1200" xmlns="http://www.w3.org/2000/svg"><path d="m694.13721 698.5447c0 26.61123 5.32225 34.59459 23.95011 30.60291 11.97505-2.66112 22.61954-15.96674 22.61954-30.60291 0-14.63618-10.64449-27.94179-22.61954-30.60291-18.62786-3.99169-23.95011 3.99168-23.95011 30.60291zm-239.50104-678.58628c-9.31392 10.64449-30.60291 19.95842-49.23076 19.95842-17.2973 0-34.5946 9.31393-38.58628 19.95842-5.32225 10.64449-15.96674 19.95842-25.28067 19.95842-23.9501 0-139.70894 114.42827-139.70894 138.37838 0 9.31393-9.31393 21.28898-19.95842 26.61122-10.64449 3.99169-19.95842 21.28899-19.95842 38.58628 0 18.62786-9.31393 39.91684-19.95842 49.23077-29.27235 23.95011-29.27235 290.06237 0 300.70686 10.64449 5.32225 19.95842 22.61955 19.95842 39.91684 0 18.62786 9.31393 35.92516 19.95842 39.91684 10.64449 5.32225 19.95842 18.62786 19.95842 31.93348 0 26.61122 101.12266 133.05613 126.40333 133.05613 9.31393 0 23.9501 9.31393 33.26403 19.95842 9.31393 10.6445 30.60291 19.9584 46.56965 19.9584 17.2973 0 33.26403 9.3139 38.58628 19.9584 10.64449 29.2724 290.06237 29.2724 314.01247 0 9.31393-10.6445 27.94179-19.9584 42.57796-19.9584 13.30562 0 27.94179-9.3139 31.93348-19.9584 5.32224-10.64449 18.62785-19.95842 31.93347-19.95842 26.61122 0 133.05611-101.12266 133.05611-126.40333 0-9.31393 9.314-23.9501 19.9584-33.26403 10.6445-9.31393 19.9585-30.60291 19.9585-46.56965 0-17.2973 9.3139-33.26403 19.9584-38.58628 15.9667-5.32224 19.9584-35.92515 19.9584-153.01455 0-115.75884-3.9917-146.36175-19.9584-153.01455-10.6445-3.99169-19.9584-21.28898-19.9584-38.58628 0-18.62786-9.314-39.91684-19.9585-49.23077-10.6444-9.31393-19.9584-23.9501-19.9584-33.26403 0-22.61955-114.42825-126.40333-138.37836-126.40333-9.31393 0-21.28898-9.31393-26.61122-19.95842-3.99169-10.64449-21.28899-19.95842-38.58628-19.95842-18.62786 0-39.91684-9.31393-49.23077-19.95842-13.30562-14.63617-46.56965-19.95842-146.36175-19.95842s-133.05613 5.32225-146.36175 19.95842zm-9.31392 98.46154c22.61954 9.31393 34.59459 26.61123 41.2474 59.87526 5.32224 26.61122 14.63617 47.90021 21.28898 47.90021 6.6528 0 27.94179 26.61122 47.90021 59.87526 18.62785 33.26403 38.58627 59.87526 43.90852 59.87526 5.32224 0 22.61954-17.2973 38.58628-39.91684 25.28066-33.26404 26.61122-43.90853 13.30561-66.52807-13.30561-21.28898-13.30561-29.27235 0-42.57796 14.63618-14.63618 19.95842-13.30562 30.60291 6.6528 19.95842 34.5946 41.2474 13.30562 31.93347-31.93347-7.98336-33.26403-3.99168-39.91684 26.61123-51.89189 54.55302-19.95842 127.73389-2.66112 176.96466 43.90852 38.58628 37.25572 42.57796 47.90021 42.57796 119.75052 0 70.51975-3.99168 81.16424-42.57796 117.0894-25.28067 22.61954-58.5447 38.58628-78.50312 38.58628-53.22245 0-78.50312 13.30561-78.50312 39.91684 0 14.63617-5.32224 29.27235-13.30561 33.26403-22.61955 14.63618-14.63618 33.26404 18.62786 46.56965 47.9002 17.2973 105.11434 79.83368 125.07276 134.38669 13.30561 39.91684 13.30561 55.88358-3.99168 93.1393-50.56133 114.42825-90.47817 119.75055-91.80873 11.97505-1.33057-90.47817-31.93348-106.44491-61.20583-33.26403-15.96673 39.91683-23.9501 46.56964-53.22245 43.90852-30.60291-3.99169-34.59459-10.64449-45.23908-94.46986-7.98337-62.53638-17.2973-89.1476-30.60292-89.1476-19.95841 0-82.4948 63.86694-83.82536 85.15592 0 6.65281-10.64449 23.9501-22.61954 38.58628-22.61954 23.9501-22.61954 25.28066 0 42.57796 30.60291 21.28898 29.27235 35.92516-7.98337 71.85031-29.27235 25.28067-33.26403 26.61123-49.23077 7.98337-14.63617-18.62786-13.30561-22.61954 10.64449-29.27235 35.92516-9.31393 38.58628-43.90852 5.32225-43.90852-13.30562 0-35.92516 7.98337-49.23077 18.62786-19.95842 14.63617-31.93347 14.63617-75.842-3.99169-51.89189-22.61954-65.1975-46.56964-30.60291-59.87526 10.64449-3.99168 19.95842-13.30561 19.95842-21.28898 0-6.6528-9.31393-13.30561-19.95842-13.30561s-19.95842-9.31393-19.95842-19.95842 9.31393-19.95842 19.95842-19.95842 19.95842 5.32224 19.95842 13.30561c0 6.65281 9.31393 13.30562 21.28898 13.30562 14.63618 0 17.2973-7.98337 11.97505-25.28067-5.32224-18.62786 5.32225-35.92516 41.24741-66.52807 42.57796-33.26403 46.56964-41.2474 26.61122-49.23077-13.30561-5.32224-31.93347 0-46.56964 13.30562-13.30562 11.97505-39.91684 21.28898-58.5447 21.28898-50.56133 0-46.56965-38.58628 3.99168-47.90021 22.61954-5.32224 39.91684-13.30561 39.91684-19.95842s23.95011-11.97505 53.22245-11.97505c45.23909 0 53.22246-3.99169 53.22246-27.94179 0-21.28898-5.32225-25.28066-26.61123-18.62786-43.90852 13.30562-61.20582-7.98337-26.61123-33.26403l29.27235-22.61954-57.21413-46.56965c-31.93348-25.28067-69.18919-50.56133-81.16424-54.55301-18.62786-6.65281-23.95011-23.95011-23.95011-75.842 0-73.18087 26.61123-113.09771 82.4948-123.7422 17.2973-2.66113 34.5946-6.65281 39.91684-7.98337 5.32225 0 23.95011 3.99168 41.24741 10.64449zm-206.23701 176.96466c-6.65281 42.57796-37.25572 46.56964-37.25572 5.32224 0-22.61954 6.65281-34.59459 21.28898-34.59459 13.30562 0 18.62786 9.31393 15.96674 29.27235zm800.99796 109.10602c0 69.18919-17.2973 86.48649-54.55305 53.22246-31.93348-29.27235-31.93348-35.92516 5.32224-77.17256 41.24741-47.90021 49.23081-43.90852 49.23081 23.9501zm-730.47821-25.28066c0 6.65281-15.96674 14.63617-34.59459 17.2973-23.95011 2.66112-33.26404-1.33056-33.26404-17.2973s9.31393-19.95842 33.26404-17.2973c18.62785 2.66112 34.59459 9.31393 34.59459 17.2973zm687.90021 163.65904c2.6611 9.31393-3.99169 15.96674-15.96674 15.96674s-21.28898-9.31393-21.28898-21.28898c0-22.61955 29.27235-18.62786 37.25572 5.32224zm-795.67568 35.92516c0 10.64449-5.32224 19.95842-11.97505 19.95842-17.2973 0-29.27235-21.28898-18.62786-31.93347 14.63618-14.63618 30.60291-7.98337 30.60291 11.97505zm757.0894 49.23077c6.65281 18.62786 6.65281 37.25572-2.66112 47.90021-10.64449 13.30561-19.95842 9.31393-43.90853-19.95842-33.26403-41.24741-30.60291-57.21414 9.31393-57.21414 14.63618 0 30.60291 13.30561 37.25572 29.27235zm-397.83784 271.43455c0 10.6445-9.31393 18.6278-19.95842 18.6278-19.95842 0-27.94179-27.94177-11.97505-43.90851 13.30561-11.97505 31.93347 2.66113 31.93347 25.28071z" style="stroke-width:1.33056"/></svg>