<svg height="960" style="" width="1222" xmlns="http://www.w3.org/2000/svg"><path d="m683.00011 0a418.90908 418.90908 0 00-87.54025 9.249883 279.27271 279.27271 0 01238.18588 276.234007 279.27271 279.27271 0 01-202.3183 268.45888 144 144 0 00-109.78103 139.87588 144 144 0 00144.00022 144.00024 144 144 0 006.4402-.14432 418.90908 418.90908 0 0011.01328.14432 418.90908 418.90908 0 00418.90829-418.90832 418.90908 418.90908 0 00-418.90829-418.91057zm-144.00023 122.18111a418.90908 418.90908 0 00-418.90831 418.90831 418.90908 418.90908 0 00418.90831 418.91058 418.90908 418.90908 0 0087.54026-9.2499 279.27271 279.27271 0 01-238.18588-276.234 279.27271 279.27271 0 01202.31829-268.45888 144 144 0 00109.78104-139.87587 144 144 0 00-144.00022-144.00024 144 144 0 00-6.4402.14432 418.90908 418.90908 0 00-11.01329-.14432zm-87.61917 45.53464a144 144 0 00-1.47024 1.59427 144 144 0 00-1.44769 1.61456 144 144 0 011.44769-1.61456 144 144 0 011.47024-1.59427zm-24.47997 35.60149a144 144 0 00-.41717.86816 144 144 0 01.41717-.86816zm-9.47539 25.35264a144 144 0 00-.81179 3.1502 144 144 0 01.81179-3.1502zm-4.66329 46.9237a144 144 0 00.15109 2.08812 144 144 0 01-.15109-2.08812zm2.36096 18.19313a144 144 0 00.43295 2.12418 144 144 0 01-.43295-2.12418zm14.04171 39.72582a144 144 0 001.02827 1.90771 144 144 0 01-1.02827-1.90771zm19.0252 27.61664a144 144 0 001.44318 1.61907 144 144 0 001.46573 1.59652 144 144 0 01-1.46573-1.59652 144 144 0 01-1.44318-1.61907zm124.08206 48.17972a144 144 0 01-1.07788.11501 144 144 0 001.07788-.11501zm215.13782 207.79563a144 144 0 011.14101 1.84232 144 144 0 00-1.14101-1.84232zm4.39719 7.47523a144 144 0 011.02827 1.90771 144 144 0 00-1.02827-1.90771zm2.51655 4.80084a144 144 0 01.9561 1.94604 144 144 0 00-.9561-1.94604z" style="stroke-width:.981817"/></svg>