<svg height="960" style="" width="1260" xmlns="http://www.w3.org/2000/svg"><path d="m439.70659 795.37751-151.3884 2.0738-1.659 10.3691c-1.6591 14.1019 6.6362 52.26 16.5905 73.4129 16.5905 34.4253 60.1406 72.9982 99.1282 87.9297 48.1125 17.42 131.065 26.13 172.1265 17.42 9.1248-2.0738 26.13-5.8067 38.1581-8.2952 12.0282-2.4886 24.8858-5.8067 29.0334-7.8805 4.1477-2.4886 16.1758-7.8805 26.9596-12.8577 42.7205-19.9086 76.3163-62.6291 88.7592-112.4006 7.4657-31.1072 7.4657-48.1125-.8295-51.4306-6.6362-2.4885-41.0615-2.4885-316.8786 1.6591zm638.31951-145.9964c-3.7328 3.7328-22.8119 22.3971-42.3057 41.0615-19.9087 18.6643-36.08441 34.84-36.08441 36.0843 0 4.9771 12.85761 2.4886 24.05621-4.5624 14.5167-9.1248 54.7487-47.6977 54.7487-52.6748 0-2.0738 3.3181-7.4658 7.051-11.6134 4.5623-4.9771 5.3919-9.1248 2.9033-11.6133-2.4886-2.4886-6.2214-1.6591-10.3691 3.3181zm-750.30541-40.6468-76.7311 2.0738-1.2443 75.9016c-.8295 75.072-.8295 75.4868 8.2953 79.6344 6.2214 2.9033 100.3725 3.3181 272.9137 1.2443l263.3742-3.3181v-78.8049-78.8049h-194.9384c-107.0087-.4147-229.3636.8295-271.6694 2.0738zm466.6078-37.7434c-1.2442 2.0739-.4147 4.9772 1.6591 6.2215 5.3919 3.3181 17.42-1.6591 14.5167-6.2215-2.9034-4.9771-12.8577-4.9771-16.1758 0zm232.26711-4.9771c-8.71 2.4886-19.0791 11.6133-115.71881 102.4463-34.0105 32.3515-66.362 62.6292-71.7539 68.0211-6.2214 5.8067-9.1248 12.0281-7.8805 15.761 2.0738 5.3919 9.1248 6.2214 41.4763 4.9771l39.4024-1.2443 34.4253-33.181c54.74871-52.6748 148.89981-140.6045 153.46211-143.5078 2.4886-1.6591 3.3181-5.8067 2.0739-9.5395-2.0739-5.392-8.7101-6.6362-34.8401-6.2215-17.8348.4148-36.0843 1.6591-40.6467 2.4886zm-123.18451.8295c-31.9367 2.4886-31.9367 2.4886-55.1634 24.471l-22.812 21.5677v35.2548c0 27.3743 1.2443 36.0843 6.2215 37.7434 3.7328 1.659 20.7381-12.0281 46.4534-36.9139 22.3972-21.9824 49.3567-47.6977 60.5553-57.652 15.3462-14.1019 18.2496-19.4938 14.5167-23.2267-2.9033-2.9033-7.8805-4.5624-11.1986-4.1476-3.7328.4147-21.1529 1.659-38.5729 2.9033zm216.09131-95.8101c-5.8067 6.2214-20.3234 19.9086-31.9367 31.1072-11.6134 10.7838-23.2267 23.2267-25.7153 28.2038-4.5624 7.8805-3.7329 8.2953 36.0843 7.051l40.6468-1.2443 1.2443-38.5729c1.2442-42.3058-1.6591-46.0387-20.3234-26.5448zm-432.18261-87.9297c-4.1476 4.5624 1.2443 9.9543 9.9543 9.9543 4.1476 0 7.8805-2.9033 7.8805-6.2214 0-6.2215-12.8576-8.71-17.8348-3.7329zm380.33731 2.4886c-6.6362 5.3919-15.761 13.2724-20.3234 18.2495-4.5624 4.5624-35.2548 33.181-68.43581 63.8735-60.5554 55.9929-66.362 61.7996-66.362 67.1915 0 2.0738 18.6643 3.3181 41.4762 3.3181h41.4763l34.01051-32.3515c101.2021-94.9806 111.5711-106.1792 110.3269-116.963-1.2443-9.9543-2.4886-10.3691-30.6925-11.6134-25.3005-.8295-30.6924 0-41.4762 8.2953zm-138.94551-5.8067c-3.7329 1.6591-34.4253 29.0334-68.021 60.9701-33.5958 31.9367-64.703 60.5553-68.8506 63.4587-8.71 5.8066-10.7839 27.3743-3.7329 31.9367 4.1476 2.4886 26.5448 3.3181 52.2601 2.4886 9.5395-.4148 12.0281-2.4886 96.2249-82.5378 34.4253-32.7662 65.53251-62.2144 69.68011-64.7029 13.6872-10.3691 2.4886-14.9315-34.84001-14.5167-19.9086 0-38.9877 1.2443-42.7206 2.9033zm-157.195-.4148c-10.3691 3.7329-41.4763 35.6696-41.4763 42.7206 0 3.3181 5.8067 11.6133 12.4429 18.2495s13.2724 15.3463 14.5167 19.4939c5.3919 17.0052 15.3462 12.0281 60.5553-30.2777 24.8858-23.2267 44.7944-44.3796 43.9649-46.4534-1.6591-4.5624-77.9754-7.4657-90.0035-3.7329zm-257.9823 0-127.7469 1.2443v13.6872c0 16.1757-2.0738 18.6643-23.2267 32.7662-26.13 17.0053-41.0615 32.3515-54.3339 57.2373-14.5167 26.13-29.0333 77.9753-24.8857 88.3444 2.4886 6.6362 21.1529 7.051 235.9999 7.051 128.5764 0 235.9999-1.6591 238.4884-3.3181 4.1477-2.4886 4.1477-9.9543-.4147-34.0106-6.6362-36.4991-13.6872-53.5043-32.3515-77.5606-14.1019-17.8348-49.3567-46.8681-56.8225-46.8681-5.8066 0-9.9543-7.8805-12.8576-24.8858-1.2443-8.71-4.5624-14.5167-8.2953-14.5167-3.3181 0-63.4586.4148-133.5535.8295zm503.10701-86.2706c-32.35151 30.2777-50.60111 50.6011-48.52721 53.5044 3.3181 5.3919 35.66951 6.6362 66.77671 2.0738 16.5905-2.0738 23.2267-5.8067 41.891-24.8857 12.4429-12.0282 22.3972-23.2267 22.3972-24.8858-.4147-12.4429-21.1529-55.1634-26.5448-55.1634-2.4886.4147-27.7891 22.3972-55.9929 49.3567zm-751.96451-34.0105c-9.9543 8.71-34.0106 31.522-53.9192 50.601l-36.49907 35.2548v41.4763c0 44.7944-2.48858 58.0668-16.59051 93.7363-4.97715 12.4429-10.36906 28.2039-12.44287 35.2549-2.07382 6.6362-7.88049 22.8119-12.85764 35.2548-9.12478 21.5676-9.9543 29.0334-11.19859 124.014l-1.24429 101.6168 15.76098 22.8119c36.4991 54.7487 53.08961 75.0721 60.14057 75.0721 10.78382 0 13.27242-9.9543 6.22142-23.6415-3.73285-6.2214-12.0281-24.0562-19.07906-39.8172l-12.85764-27.7891v-91.2478-91.2477l37.3286-62.6292c20.3234-34.4253 37.3287-63.4586 37.3287-64.7029s6.6362-10.3691 14.5167-20.3234c13.2724-16.1757 14.5166-19.9086 14.5166-43.9648 0-21.1529 1.6591-28.6186 8.2953-35.6696 10.7838-11.1986 18.2495-12.8576 62.2144-14.1019l35.2548-1.2443v-55.993-55.9929l-48.5272-1.2443-48.5272-1.2443zm239.318-58.0668c-31.9368.8296-62.2144 2.0739-67.6063 3.3181-5.392 1.2443-15.761 9.1248-23.6415 17.0053l-14.5167 14.9315v59.7258c0 52.6748.8295 59.7258 7.4657 62.6291 3.7329 1.6591 58.4816 2.4886 121.1107 1.2443l114.0597-2.0738 1.2443-60.9701 1.2443-60.9701-14.9315-14.5167c-19.4938-19.9086-27.3743-23.2267-48.5272-22.3972-9.9543.4148-43.9648 1.6591-75.9015 2.0738zm457.0683-4.1476c-16.5905 15.3462-44.7944 42.3058-63.0439 59.7258-18.2496 17.4201-45.6239 43.9649-60.9701 58.8963-15.761 14.5167-28.2039 28.6186-28.2039 31.522 0 7.0509 87.1002 5.8066 96.2249-1.2443 4.1477-2.9034 37.3287-34.0106 73.8278-68.8506l66.77681-63.4587-9.1248-9.9543c-5.3919-4.9771-11.6134-9.5395-14.5167-9.5395-3.3181 0-9.5396-5.8067-14.9315-12.4429-4.9771-7.051-10.78381-12.4429-12.44281-12.4429-2.0739 0-17.0053 12.4429-33.5958 27.7891zm-228.1194-45.6239c-1.6591 1.2443-2.9034 7.4658-2.9034 13.6872 0 13.2724-5.3919 19.9086-28.2038 35.2548-9.9543 6.6362-21.5677 16.5905-26.13 21.9824-10.7839 14.102-10.3691 50.6011.8295 50.6011 2.0738 0 21.1529-16.5905 42.3058-36.9139 20.7381-20.3234 46.8681-45.2091 57.2372-55.1634 34.4253-32.7663 34.84-32.3515-5.3919-32.3515-19.4939 0-36.4991 1.2443-37.7434 2.9033zm134.7978-1.2443c-7.4657 3.7329-19.9086 15.3463-118.2073 108.2531-34.0105 31.9367-63.0439 58.8963-64.2882 60.1405-9.9543 7.4658-17.42 20.3234-14.9315 26.5448 2.0739 5.392 8.7101 6.6363 37.3287 6.6363h34.4253l34.4253-31.9368c118.2073-109.0825 178.3479-167.564 175.8593-170.0526-3.3181-3.7329-78.3901-2.9034-84.6116.4147zm92.0773-91.662498c-7.051 7.051-25.3005 25.3005-40.232 39.4025-15.3462 14.516698-26.9595 28.203798-25.3005 30.277598 1.2443 2.0738 20.7381 3.7329 43.1353 3.7329 49.7715 0 50.6011-.8295 48.942-50.600998-1.2443-40.232-6.2214-44.37963-26.5448-22.812zm-269.1809-26.13002c-10.7838 9.12478-34.84 31.52192-53.0896 49.35672-18.6643 18.2496-46.0386 44.379598-60.9701 58.066798-31.1072 29.0334-29.8629 34.0105 7.8805 30.6924 30.6924-2.4886 33.5958-3.7328 33.5958-12.8576 0-14.5167 17.42-25.7153 39.8172-25.7153 19.4938 0 21.9824-1.2443 43.1353-22.8119l22.8119-22.811998 1.2443-30.6924c1.659-27.7891.8295-31.1072-6.6362-35.25483-7.4657-3.73286-11.6134-2.07381-27.7891 12.02811zm-69.2653-13.2724c-3.7329 1.65905-28.2039 23.22671-54.7487 47.69772-34.8401 32.7662-48.1125 47.697698-48.1125 54.748598 0 5.3919 1.6591 10.7839 4.1477 12.4429 2.0738 1.2443 21.1529-14.1019 42.3058-34.425298 21.1528-20.3233 48.1124-45.6239 59.311-55.99293 17.0053-16.17574 19.4938-20.32336 14.5167-23.64146-7.051-4.56239-7.8805-4.56239-17.42-.82953zm247.1984-16.5904996c-18.6643 17.4200296-54.7486 51.8453196-80.0491 75.9015196-25.3005 24.056298-46.0387 46.038698-46.0387 48.941998s13.2724 4.5624 43.1353 4.5624h43.1353l36.4991-34.010498c20.3234-18.6643 41.8911-38.9877 47.6977-44.7944 5.8067-5.80666 20.3234-19.07907 31.522-29.86289 26.9596-24.8857596 28.6186-29.8629096 14.5167-42.72055-9.1248-8.29525-15.3462-10.36906-34.0106-10.36906-22.8119.41476-22.8119.41476-56.4077 32.3514804zm-107.4235-15.3462104c-18.6643 17.0052604-18.6643 17.4200204-18.6643 45.62388 0 15.34621 1.6591 29.03335 3.3181 30.27765 4.5624 2.9034 97.4692-86.2706 93.7364-90.00346-1.6591-1.65905-15.761-2.90334-31.522-2.90334-27.3743 0-29.0334.41476-46.8682 17.00527z" style="stroke-width:.414763"/></svg>