<svg height="960" style="" width="1154" xmlns="http://www.w3.org/2000/svg"><path d="m481.67841 398.76849c-10.3183 9.3356-26.0414 31.4463-35.377 49.6261-20.1453 39.3079-22.6021 75.1763-6.8789 104.1659 5.4048 10.3183 9.8269 21.128 9.8269 24.5674 0 8.3529 48.1522 55.5223 56.5051 55.5223 3.4394 0 8.8443 3.4395 12.2837 7.3703 4.9135 5.8961 18.1799 7.3702 58.9618 7.3702s54.0483-1.4741 58.9618-7.3702c3.4394-3.9308 8.8443-7.3703 12.2837-7.3703 8.3529 0 56.5051-47.1694 56.5051-55.5223 0-3.4394 4.4221-14.2491 9.8269-24.5674 15.7232-28.9896 13.2664-64.858-6.8789-104.1659-17.1971-33.903-49.1348-67.3147-61.9098-65.3493-3.9308.9827-7.8616 7.3702-8.8443 14.2491-1.4741 11.7924 6.8789 24.5674 33.4117 53.0656 3.9308 4.4222 10.3183 19.1626 13.7577 32.9204 17.1972 66.8233-36.8511 134.6294-107.1139 134.6294s-124.8025-68.2974-107.1139-135.6121c3.4394-13.2664 9.8269-27.5155 13.7577-31.9377 3.9308-4.9134 12.7751-14.2491 19.1626-21.1279 13.2664-14.7405 16.7059-43.73 5.4048-45.6954-3.9307-.9827-15.7231 5.8961-26.5328 15.2318zm-4.4221-225.0376c-13.2664 3.4395-26.5328 8.353-29.4809 10.8097-3.4394 2.4568-11.301 5.8962-18.1799 7.3702-28.4982 6.8789-106.1312 66.8234-123.8197 95.813-5.4049 9.3356-15.7232 22.602-22.1107 29.4809-6.3875 6.8788-16.2145 22.602-21.6193 34.8857-5.8962 12.2837-13.7578 28.4982-17.1972 35.8684-3.9308 6.8789-6.8789 18.1799-6.8789 24.5674 0 5.8962-3.9308 22.1107-8.8443 35.8684l-8.8442 24.5675-47.6608 1.474c-53.55699 1.474-55.03104 2.9481-51.5916 43.2386l1.47405 19.1626 49.13485 2.4568 49.1348 2.4567 3.9308 14.7405c2.4567 7.8615 6.3875 18.6712 8.8443 23.0933 2.4567 4.9135 4.4221 14.7405 4.4221 22.6021 0 7.3702 2.9481 17.6885 6.8789 23.0933 3.4394 5.4049 7.8615 15.7232 9.3356 22.602 4.4221 16.7059 41.7646 72.7196 67.3147 99.7437 49.6262 53.0657 153.792 106.1313 207.8403 106.1313h18.1799v48.6434c0 54.04845 2.4567 58.47055 29.4809 57.48785 28.0069-.9827 29.4809-3.4394 29.4809-57.48785v-48.6434h18.6712c51.5916 0 144.9478-46.1868 201.9442-100.2351 23.5847-22.602 67.806-86.9686 72.7195-106.1312 1.4741-6.8789 5.8962-16.7058 9.3356-22.1107 3.9308-5.4048 6.8789-15.7231 6.8789-23.0933 0-7.8616 1.9654-17.6886 4.4221-22.6021 2.4568-4.4221 6.3876-15.2318 8.8443-23.0933l3.9308-14.7405 49.1348-2.4567 49.13489-2.4568 1.474-19.1626c3.4394-40.2905 1.9654-41.7646-51.59159-43.2386l-48.1521-1.474-3.9308-14.7405c-2.4567-8.3529-6.3875-18.6712-8.8443-23.0934-2.4567-4.9134-4.4221-14.2491-4.4221-21.6193 0-6.8789-2.9481-18.6712-6.3875-25.5501-3.9308-7.3702-10.8097-22.1107-16.2145-32.9203-15.2318-32.429-40.7819-67.3147-70.2628-95.3216-30.955-29.4809-80.0898-63.3839-98.761-67.8061-6.8789-1.474-14.7405-4.9134-17.6886-7.3702-3.4394-1.9654-18.6712-7.3702-34.3943-11.7924-35.3771-8.8442-36.3598-7.8615-36.3598 45.2041 0 43.73 4.4221 51.5916 30.9549 57.9791 21.128 4.9135 52.083 25.5501 84.0206 56.505 30.4636 29.4809 61.9099 73.2109 61.9099 86.9687 0 4.4221 3.4394 15.2318 7.8615 24.5674 11.7924 24.5674 6.8789 31.4463-22.1106 31.4463-22.1107 0-25.0588 1.474-28.0069 11.301-1.474 6.3875-1.9654 20.1453-.9827 30.9549l1.4741 19.1626 26.0414 1.4741c30.4636 1.9654 35.3771 8.3529 23.5847 32.429-4.4221 9.3356-7.8615 20.6366-7.8615 25.0587 0 9.827-42.256 74.685-56.5051 86.9687-30.9549 26.5328-45.204 35.8684-75.1763 51.1002-21.6193 10.8097-39.7992 16.7058-53.5569 16.7058h-20.6367l-1.474-28.4982-1.474-28.0068h-27.0242-27.0242l-1.474 28.0068-1.474 28.4982h-20.6367c-13.7577 0-31.9376-5.8961-53.5569-16.7058-29.9723-15.2318-44.2214-24.5674-75.1763-51.1002-14.2491-12.2837-56.5051-77.1417-56.5051-86.9687 0-4.4221-3.4394-15.7231-7.8615-25.0587-11.7924-24.0761-6.8789-30.4636 23.5847-32.429l26.0414-1.4741 1.4741-19.1626c.9827-10.8096.4913-24.5674-.9827-30.9549-2.9481-10.3183-5.8962-11.301-29.9723-11.301-30.4636 0-33.903-5.8962-19.6539-32.429 3.9308-7.8616 7.3702-18.1799 7.3702-23.0934 0-34.3943 99.7437-133.1553 145.4391-143.965 27.0242-6.3875 31.4463-14.7405 31.4463-56.5051 0-57.4877.4914-56.9964-40.7819-45.6954zm82.0552-220.615293c-9.3357 13.7577-16.2145 27.0241-58.4705 109.079299l-23.5847 46.186694 11.7924 8.8443c6.3875 4.9135 19.6539 9.3356 28.9895 10.3183l17.1972 1.474 1.474 195.5567c1.4741 222.5807 0 214.7192 40.2906 214.7192s38.8165 7.8615 40.2906-214.7192l1.474-195.5567 17.1972-1.474c9.3356-.9827 22.602-5.4048 28.9895-10.3183l11.3011-8.8443-15.7232-28.989496c-8.8443-15.723198-23.0934-42.255997-32.429-58.470497-8.8442-16.2145001-22.1107-41.2732-28.9895-55.5223-14.2491-29.480901-26.0415-32.920401-39.7992-12.2837z" style="stroke-width:.491348"/></svg>